<?xml version="1.0" encoding="UTF-8" standalone="no"?>
<!-- Created with Inkscape (http://www.inkscape.org/) -->

<svg
   width="512"
   height="512"
   viewBox="0 0 512 512"
   version="1.1"
   id="svg5"
   inkscape:version="1.2.1 (9c6d41e410, 2022-07-14)"
   sodipodi:docname="alteration.svg"
   xml:space="preserve"
   inkscape:export-filename="alteration.png"
   inkscape:export-xdpi="96"
   inkscape:export-ydpi="96"
   xmlns:inkscape="http://www.inkscape.org/namespaces/inkscape"
   xmlns:sodipodi="http://sodipodi.sourceforge.net/DTD/sodipodi-0.dtd"
   xmlns="http://www.w3.org/2000/svg"
   xmlns:svg="http://www.w3.org/2000/svg"><sodipodi:namedview
     id="namedview7"
     pagecolor="#ffffff"
     bordercolor="#999999"
     borderopacity="1"
     inkscape:pageshadow="0"
     inkscape:pageopacity="0"
     inkscape:pagecheckerboard="true"
     inkscape:document-units="px"
     showgrid="false"
     height="70mm"
     units="px"
     inkscape:zoom="1.4805977"
     inkscape:cx="176.95557"
     inkscape:cy="286.03314"
     inkscape:window-width="2560"
     inkscape:window-height="1351"
     inkscape:window-x="2391"
     inkscape:window-y="-9"
     inkscape:window-maximized="1"
     inkscape:current-layer="layer1"
     inkscape:showpageshadow="2"
     inkscape:deskcolor="#d1d1d1" /><defs
     id="defs2" /><g
     inkscape:label="Layer 1"
     inkscape:groupmode="layer"
     id="layer1"><path
       style="fill:#ffffff;fill-rule:evenodd;stroke-width:1.0274"
       d="m 178.59775,509.96393 c -2.53432,-1.99348 -2.70561,-2.66555 -2.68449,-10.53084 0.0182,-6.23899 0.56405,-9.59148 2.12592,-13.02478 1.45508,-3.19849 2.40581,-8.42279 3.08492,-16.95209 1.2678,-15.9228 2.74163,-27.9335 4.46498,-36.38733 0.75834,-3.71989 1.6933,-9.07508 2.07773,-11.90044 0.38455,-2.82534 1.55865,-8.60446 2.60935,-12.84249 2.05327,-8.28222 4.43103,-21.41949 11.90105,-65.75355 l 4.76045,-28.25348 0.85544,-36.47267 c 0.53363,-22.75142 1.44535,-40.53108 2.42346,-47.26037 2.18178,-15.01019 2.01646,-21.24661 -0.82337,-31.0633 -1.35104,-4.67036 -3.03473,-12.08786 -3.74158,-16.48333 -0.7068,-4.39547 -1.66154,-8.2244 -2.1216,-8.50873 -3.47191,-2.14575 -16.75709,9.57298 -26.85921,23.69228 -6.31935,8.8323 -12.42396,13.89693 -24.45766,20.29114 -5.80823,3.08625 -8.35851,3.85274 -12.81897,3.85274 -13.8193,0 -29.10798,-12.71971 -26.0011,-21.63213 1.65038,-4.73428 7.43082,-6.44313 22.12007,-6.5393 6.95717,-0.0456 12.93573,-0.53916 13.43753,-1.10944 7.65548,-8.70022 12.39956,-18.20308 14.09378,-28.23124 1.00037,-5.92119 8.94274,-14.46967 17.42007,-18.74945 l 6.11496,-3.08713 -2.74186,-1.43661 c -3.70763,-1.94261 -11.04823,-2.85188 -15.81063,-1.95844 -2.92903,0.5495 -5.20403,2.13331 -9.06772,6.3128 -5.69111,6.15636 -24.50196,18.89344 -36.49334,24.71018 -5.76856,2.7982 -9.10932,3.76402 -13.29019,3.84224 -5.24762,0.0981 -5.7282,-0.10624 -7.96234,-3.38652 -1.37099,-2.01295 -2.37765,-5.01829 -2.37765,-7.09835 0,-2.97601 0.85409,-4.40862 4.88015,-8.18562 l 4.88014,-4.57826 -12.99576,0.60543 -12.99577,0.60548 -4.69623,-4.85354 C 72.12095,141.6156 66.2635,131.99798 61.81219,121.16786 57.29551,110.17868 49.3205,96.994671 45.46602,94.144921 37.96838,88.601681 30,67.322541 30,52.843751 c 0,-13.94278 4.48026,-18.42604 12.66505,-12.67355 4.86453,3.41891 11.99253,13.01784 11.99253,16.14974 0,1.90243 6.46826,16.88313 12.91706,29.91635 2.69353,5.44371 18.94374,27.880099 21.76562,30.051429 3.02947,2.33106 5.08787,1.47147 6.81544,-2.84614 2.02762,-5.06752 2.08385,-8.25979 0.22391,-12.71121 -1.77867,-4.257009 -9.61709,-12.000819 -17.05185,-16.846049 -6.88437,-4.48656 -8.4305,-6.22521 -12.49286,-14.04841 -1.74969,-3.36952 -4.20842,-7.76165 -5.46385,-9.76029 -3.79054,-6.03456 -6.71347,-15.17067 -6.71347,-20.98409 0,-9.75372 7.39347,-16.83845 14.68086,-14.06778 2.95024,1.12168 10.53042,8.39198 15.99395,15.34011 1.8968,2.41222 3.59607,4.23851 3.77616,4.05843 0.33314,-0.33313 -0.65231,-5.00077 -3.22464,-15.27406 -2.70808,-10.81548 -1.47801,-15.72783 4.74399,-18.94535 3.88308,-2.0080304 8.16127,-1.9471204 11.31829,0.16112 7.98218,5.33045 12.1416,11.44438 16.86641,24.7919 5.31526,15.01557 6.48673,22.32063 7.2029,44.91599 0.82673,26.083539 1.40248,28.879179 6.37545,30.957019 8.55755,3.57557 13.07309,0.0888 12.38601,-9.56388 -0.30722,-4.316179 -1.37013,-6.834779 -5.63662,-13.356189 -2.89191,-4.42033 -5.74622,-9.33845 -6.34291,-10.92918 -1.86336,-4.96753 -1.32487,-18.47843 0.98227,-24.64478 1.87024,-4.9987 1.93011,-5.90766 0.62835,-9.54198 -1.55822,-4.3504 -6.93329,-14.1332 -11.2799,-20.52981 -3.49643,-5.14546 -3.5669,-9.95677 -0.1952,-13.3284504 4.87173,-4.87174 12.34689,-2.55278 19.04956,5.9095904 1.92162,2.4261 7.08176,8.36475 11.46692,13.19699 4.38521,4.83223 8.42512,9.91786 8.97767,11.30139 0.98687,2.47114 1.00573,2.4599 1.06968,-0.63707 0.11987,-5.803 3.06375,-13.23591 6.98057,-17.62497 4.99209,-5.594 8.26321,-6.4062 12.19158,-3.02712 2.75283,2.36789 2.98094,3.13845 3.29156,11.11963 0.3663,9.40835 3.35082,17.30833 6.53931,17.30833 0.94342,0 4.12254,-1.20911 7.06478,-2.68691 5.27728,-2.65061 11.6102,-3.03276 16.46843,-0.99374 1.70529,0.71571 1.7135,0.70243 8.24277,-13.26322 6.00203,-12.83797 18.55839,-22.5211804 33.9409,-26.1745104 12.21556,-2.90119998 27.38724,-4.32507998 33.57686,-3.15123998 2.79006,0.52912 10.10078,3.41071998 16.2461,6.40356998 10.3208,5.0263904 12.00114,6.2844404 22.02379,16.4894004 12.7285,12.96004 14.09305,13.41349 21.05463,6.99657 2.41731,-2.2282 7.32343,-5.5801 10.90255,-7.44864 6.30761,-3.29303 6.87031,-3.3947 18.32256,-3.31091 14.10533,0.10319 25.6716,2.83814 32.14945,7.60199 2.31789,1.70459 5.27352,3.09925 6.56815,3.09925 1.29457,0 6.86703,-1.44768 12.38326,-3.21707 7.9532,-2.55111 11.95873,-3.24233 19.34928,-3.33905 9.12169,-0.11938 9.44248,-0.0408 15.0835,3.69437 8.10161,5.36441 12.72467,13.76867 14.8041,26.91241 1.43902,9.09563 1.40306,10.40578 -0.61193,22.26967 -3.60309,21.21425 -9.28252,27.439529 -33.583,36.810799 -11.45054,4.4158 -12.26175,5.49185 -11.96731,15.87441 0.13021,4.59673 -0.26834,9.90962 -0.88642,11.80641 -1.32019,4.05266 -14.9783,21.34787 -21.88895,27.71789 -2.64653,2.43945 -6.38719,5.0936 -8.31268,5.89811 -4.59173,1.91854 -13.16374,1.86566 -16.97407,-0.10471 l -3.0312,-1.5675 v 7.09271 c 0,11.96487 -4.75492,19.10434 -12.287,18.44883 l -3.63771,-0.31659 -0.54214,5.13654 c -0.67163,6.36098 -6.29099,17.11061 -10.95367,20.95395 -3.83352,3.15992 -12.63108,6.27168 -17.73131,6.27168 -4.04976,0 -14.14884,-5.1924 -18.0802,-9.29589 l -2.84086,-2.96518 -3.47185,3.04833 c -2.09294,1.83766 -4.62221,3.04835 -6.36827,3.04835 -2.84184,0 -7.59219,-3.42687 -8.49187,-6.12592 -0.36812,-1.10516 -0.90467,-1.1191 -2.85699,-0.0743 -1.32189,0.70746 -3.84259,1.05314 -5.6016,0.76819 l -3.1981,-0.51811 -0.0304,21.72508 c -0.0304,19.16062 -0.39124,23.90801 -3.08224,40.21825 l -3.05097,18.49318 0.21235,45.20557 c 0.24704,52.57574 0.33953,53.33853 9.38127,77.33847 3.34748,8.88517 6.42133,17.77302 6.83076,19.75076 0.4095,1.97775 2.26562,8.45036 4.12485,14.38359 5.9985,19.14279 11.81404,40.74517 11.81404,43.88454 0,3.67927 -2.77351,6.45807 -6.44585,6.45807 -2.13042,0 -4.52418,-2.13258 -11.53785,-10.27893 -4.86736,-5.65341 -10.32512,-11.02428 -12.12825,-11.93526 -1.80319,-0.911 -4.31694,-2.6058 -5.58614,-3.76625 -1.26914,-1.16045 -2.46119,-1.91546 -2.6489,-1.67778 -0.18801,0.23767 -1.69214,2.24888 -3.34309,4.46934 -4.47898,6.02391 -16.21519,13.2552 -24.96414,15.38163 -4.02768,0.97894 -8.22939,1.49222 -9.33716,1.14062 -1.10777,-0.35157 -4.45865,-4.53434 -7.44641,-9.29497 -2.98775,-4.76065 -5.74258,-8.66479 -6.12183,-8.67586 -0.37908,-0.011 -3.84806,2.87839 -7.70841,6.42101 -10.42972,9.57136 -26.24326,22.07122 -29.47817,23.30113 -3.99209,1.51778 -5.14081,1.37105 -8.21825,-1.04965 z m 13.5554,-13.74373 c 3.30623,-2.51442 9.38298,-7.71563 13.50381,-11.55824 9.68185,-9.02816 16.21781,-13.66464 19.26276,-13.66464 3.16792,0 6.20672,3.13074 10.99394,11.32652 2.13736,3.65913 4.04496,6.82065 4.23919,7.0256 0.1941,0.20493 2.80527,-0.21035 5.80239,-0.92291 7.11151,-1.69071 16.07865,-7.83307 20.77473,-14.23045 4.02111,-5.47788 7.59706,-7.08509 12.02122,-5.40301 1.39284,0.52955 3.17595,1.73825 3.96251,2.68601 0.78657,0.94778 3.13853,2.59476 5.22654,3.65998 2.08795,1.06522 5.70754,4.10802 8.0435,6.7618 2.33596,2.65375 4.45513,4.61705 4.70934,4.36287 0.25434,-0.25422 -1.36789,-6.68268 -3.60461,-14.28553 -2.23672,-7.60286 -5.2765,-18.2155 -6.75507,-23.58366 -1.47857,-5.36816 -5.41973,-17.08451 -8.75814,-26.03633 -9.06158,-24.29838 -9.34366,-26.94823 -8.83784,-83.01118 0.39915,-44.25684 0.55796,-47.48295 3.15301,-64.06927 3.24148,-20.7192 3.8169,-48.83259 1.21967,-59.58916 -2.89222,-11.97807 -1.57672,-19.00689 3.55739,-19.00689 2.01816,0 6.32927,4.56381 8.77049,9.28465 l 1.48618,2.87393 3.51079,-3.51079 c 3.63272,-3.6327 7.74888,-4.5853 9.62088,-2.22654 0.5604,0.70634 1.35268,3.13004 1.76017,5.38602 0.40767,2.25598 1.00817,4.53408 1.33467,5.06246 0.32675,0.5284 2.51832,-1.25773 4.87053,-3.96913 5.11622,-5.89754 7.61501,-5.76322 10.85278,0.58334 2.06373,4.04531 9.27272,9.60155 14.01212,10.79971 3.11492,0.78747 11.89156,-2.28635 14.42898,-5.05344 4.34475,-4.73797 7.45267,-12.69068 7.45267,-19.07024 0,-7.58732 1.34362,-8.89284 9.15231,-8.89284 h 5.74501 l 0.53667,-10.7877 c 0.80707,-16.21807 3.44191,-19.06219 12.46369,-13.45392 2.81349,1.74896 6.50499,3.17993 8.20328,3.17993 4.94214,0 11.43721,-4.58936 18.47954,-13.05743 12.08377,-14.53026 12.20029,-14.77106 12.20029,-25.21252 0,-14.17719 2.28333,-17.63045 15.13583,-22.89106 14.50127,-5.935429 17.59769,-7.550509 21.87405,-11.409509 5.32858,-4.8085 6.46952,-7.3766 8.7164,-19.61966 3.35003,-18.25426 -1.34404,-34.90781 -11.30597,-40.11102 -3.96549,-2.07122 -16.07518,-1.86275 -22.22416,0.3826 -6.57989,2.40267 -15.30566,4.44264 -19.18213,4.48449 -3.53409,0.0383 -6.944,-1.40526 -12.9529,-5.48301 -3.83054,-2.5995 -18.51203,-5.78178 -26.6743,-5.78178 -6.69605,0 -15.17551,3.76193 -22.54677,10.00291 -5.93644,5.02616 -6.71722,5.38055 -11.88334,5.39385 -7.26009,0.0189 -10.22436,-1.90095 -20.76646,-13.44845 -7.88012,-8.63163 -9.28933,-9.68261 -20.05893,-14.95988 -11.25711,-5.5161204 -11.81811,-5.6735104 -19.91357,-5.5868604 -10.47164,0.11208 -27.46762,3.5222604 -33.96573,6.8151004 -8.71341,4.41543 -15.36164,12.0451 -20.25784,23.24836 -4.13592,9.46368 -4.33702,10.39486 -4.33702,20.0787 0,11.08897 2.98617,23.86929 7.79402,33.35714 2.9336,5.78915 5.53485,16.107849 5.52438,21.914369 -0.0122,5.67067 -2.95671,11.61295 -8.02378,16.18154 -6.44694,5.81269 -10.4908,5.16505 -13.75638,-2.20313 -1.71344,-3.86606 -2.25023,-8.08647 -2.93378,-23.06676 l -0.83658,-18.334979 -4.62975,-4.94962 c -5.29944,-5.66552 -6.16942,-8.16546 -5.52901,-15.88818 0.32492,-3.92106 1.25745,-6.57656 3.20552,-9.13059 2.80016,-3.67118 3.5852,-6.82076 1.70011,-6.82076 -0.57561,0 -3.64593,1.38699 -6.82267,3.0822 -6.42187,3.42688 -11.06045,3.89529 -14.5273,1.467 -3.8208,-2.6762 -8.68878,-13.4963 -9.4423,-20.98759 l -0.67175,-6.67809 -1.84377,4.10625 c -2.26228,5.03827 -1.7682,13.15727 1.2538,20.60534 1.13437,2.79565 2.63564,6.6002 3.33616,8.45456 0.70053,1.85437 2.5726,5.00601 4.16015,7.00365 1.58748,1.99765 5.01534,7.97955 7.61732,13.29312 2.60204,5.31356 6.78549,13.25783 9.29663,17.65393 5.20737,9.116279 5.87024,14.084329 2.50889,18.804869 -6.95239,9.76375 -20.23709,4.06233 -33.57126,-14.40787 -18.31562,-25.370339 -20.24683,-30.301359 -15.74917,-40.213229 2.62687,-5.78915 2.76274,-15.58143 0.27929,-20.13971 -1.89641,-3.48098 -17.80328,-21.07344 -18.46027,-20.41645 -0.21102,0.21101 1.57906,4.22405 3.97795,8.91784 5.2386,10.25008 6.33678,18.0054 3.34983,23.6559 -1.28678,2.43425 -1.86967,5.85589 -1.90951,11.20927 -0.0548,7.37963 0.1212,7.96619 4.16448,13.86989 7.53707,11.00507 8.62068,13.91195 8.62068,23.126569 0,9.24675 -1.37251,13.02491 -5.89208,16.21956 -4.19859,2.96779 -8.33177,3.47214 -14.62195,1.7843 -13.0132,-3.49187 -14.43416,-7.08978 -15.43251,-39.075629 -0.72997,-23.38744 -0.7764,-23.75524 -4.51909,-35.80433 -2.07985,-6.69579 -4.89215,-14.36585 -6.24957,-17.04458 -2.64507,-5.21981 -9.22083,-11.73173 -11.17263,-11.06419 -1.70861,0.58437 -1.30166,5.94865 1.3392,17.65254 3.50043,15.51336 2.02479,22.11668 -4.9424,22.11668 -2.63407,0 -8.97931,-5.94628 -18.96726,-17.77467 -5.41795,-6.41631 -7.35802,-7.13749 -9.07332,-3.37283 -1.53539,3.36984 0.53777,9.21204 8.42513,23.74188 5.14733,9.48228 6.93794,11.86828 10.45215,13.92754 7.70327,4.51397 18.07536,15.22014 21.51597,22.20901 2.8317,5.752029 3.11272,7.117519 2.51367,12.214499 -0.75876,6.45588 -2.70931,10.9109 -6.5959,15.06498 -3.71715,3.97296 -10.95931,4.01684 -15.62056,0.0946 -6.72027,-5.65469 -24.05228,-30.175629 -27.7487,-39.258189 -1.52492,-3.7469 -4.02122,-9.27644 -5.54733,-12.28786 -1.52611,-3.01142 -3.66414,-8.35485 -4.75119,-11.87428 -1.09282,-3.53814 -3.13359,-7.48606 -4.5647,-8.83052 l -2.58828,-2.43156 0.0152,5.57294 c 0.0164,5.95575 3.44563,18.35214 6.9415,25.09352 1.17212,2.26028 4.16584,6.00225 6.65272,8.3155 4.86816,4.52826 11.4307,15.480599 17.20399,28.712039 4.56585,10.46418 10.57805,21.00341 13.59668,23.83461 2.15187,2.01827 2.90425,2.11802 9.52815,1.26333 10.27103,-1.32531 21.15314,-1.17748 24.14389,0.32796 5.3627,2.69943 2.73501,11.81951 -5.33743,18.52492 -10.61757,8.81955 3.01624,4.06185 21.26211,-7.41968 8.84284,-5.56452 15.45064,-10.61311 19.55426,-14.94012 7.35848,-7.75916 11.38294,-9.24505 23.20282,-8.56693 6.16443,0.35364 8.89042,1.06081 12.84246,3.33147 9.17415,5.27097 12.36549,9.65266 9.8779,13.56226 -0.4168,0.65551 -4.87807,3.15872 -9.91337,5.5627 -11.26198,5.37675 -16.52831,10.31296 -17.568,16.46668 -1.9477,11.52834 -8.94633,24.14224 -17.62087,31.75853 l -3.50312,3.0758 -12.89802,-0.0794 c -7.09391,-0.0438 -13.16041,0.18297 -13.48111,0.50369 -1.12268,1.12268 3.02199,4.5353 8.22832,6.775 6.82807,2.93735 11.43034,2.31334 19.61496,-2.65956 10.34758,-6.28705 14.38444,-10.08682 20.70537,-19.48914 6.7749,-10.07763 19.07675,-21.39605 25.06211,-23.05865 11.36535,-3.15705 14.23336,-0.51379 17.11736,15.77595 0.78717,4.44596 2.6722,12.45669 4.18905,17.80163 l 2.75789,9.71806 -2.20861,22.26693 c -1.40239,14.13927 -2.38616,32.76726 -2.6952,51.03412 -0.28841,17.0345 -1.08435,32.7479 -1.95214,38.52747 -2.97528,19.81596 -9.08355,55.50748 -12.65981,73.97275 -9.41826,48.62977 -10.27826,54.08861 -11.6394,73.87887 -0.83963,12.20767 -1.46866,15.78744 -3.58734,20.41529 -2.6119,5.7051 -3.39645,11.52794 -1.55329,11.52794 0.55857,0 3.72108,-2.05726 7.0273,-4.5717 z m 35.3997,-375.4677 c 0.96941,-1.64113 1.76261,-4.59757 1.76261,-6.56988 0,-4.3391 -3.44879,-15.890159 -5.58754,-18.714359 -1.39309,-1.8396 -1.49099,-0.77757 -0.99533,10.802319 0.79465,18.56784 1.37562,20.31323 4.82026,14.48192 z m -31.9845,-10.86755 c -0.19592,-1.11998 -1.20713,-3.23078 -2.2467,-4.69066 -1.0395,-1.45987 -4.44149,-7.709639 -7.55994,-13.888359 -3.11845,-6.17872 -7.77699,-14.47034 -10.35232,-18.42583 -2.57527,-3.95549 -5.32457,-9.27228 -6.10949,-11.81509 -0.78492,-2.54281 -2.36444,-6.70378 -3.50999,-9.24659 l -2.08284,-4.62331 -0.10892,7.7055 c -0.0651,4.60532 -0.69974,8.73889 -1.57727,10.27399 -3.25425,5.6927 -1.80702,9.44591 10.55981,27.38603 8.42342,12.219529 16.67179,20.128829 20.52867,19.684799 2.16523,-0.24929 2.73329,-0.7946 2.45905,-2.36048 z m 21.49893,-36.137959 c -0.60299,-2.172 -1.09913,-5.98565 -1.1023,-8.47477 -0.006,-4.4605 -0.0365,-4.4989 -2.0605,-2.66612 -3.14164,2.84313 -2.79207,9.39205 0.69565,13.03241 1.51271,1.57897 2.93342,2.68786 3.15709,2.46421 0.22392,-0.22368 -0.087,-2.18373 -0.68994,-4.35573 z"
       id="path888" /></g></svg>
