<?xml version="1.0" encoding="UTF-8" standalone="no"?>
<svg
   height="512"
   width="512"
   version="1.1"
   id="svg33"
   sodipodi:docname="alteration.svg"
   inkscape:export-filename="alteration.png"
   inkscape:export-xdpi="96"
   inkscape:export-ydpi="96"
   inkscape:version="1.2.1 (9c6d41e410, 2022-07-14)"
   xmlns:inkscape="http://www.inkscape.org/namespaces/inkscape"
   xmlns:sodipodi="http://sodipodi.sourceforge.net/DTD/sodipodi-0.dtd"
   xmlns:xlink="http://www.w3.org/1999/xlink"
   xmlns="http://www.w3.org/2000/svg"
   xmlns:svg="http://www.w3.org/2000/svg">
  <sodipodi:namedview
     id="namedview35"
     pagecolor="#606060"
     bordercolor="#000000"
     borderopacity="0.25"
     inkscape:showpageshadow="true"
     inkscape:pageopacity="0"
     inkscape:pagecheckerboard="true"
     inkscape:deskcolor="#cccccc"
     showgrid="false"
     showborder="true"
     borderlayer="true"
     showguides="true"
     inkscape:zoom="1.4542645"
     inkscape:cx="-77.014876"
     inkscape:cy="249.95453"
     inkscape:window-width="2560"
     inkscape:window-height="1351"
     inkscape:window-x="2391"
     inkscape:window-y="-9"
     inkscape:window-maximized="1"
     inkscape:current-layer="svg33">
    <sodipodi:guide
       position="237.23332,646.0884"
       orientation="0,-1"
       id="guide872"
       inkscape:locked="false" />
  </sodipodi:namedview>
  <defs
     id="defs31">
    <g
       id="shape0">
      <path
         d="M 100,100 H 0 V 0 h 100 v 100"
         fill="#00cc66"
         fill-opacity="0"
         fill-rule="evenodd"
         stroke="none"
         id="path8" />
      <path
         d="M 84.3,84.3 V 15.7 H 15.7 v 68.6 h 68.6 m 7.95,7.95 H 7.75 V 7.75 h 84.5 v 84.5"
         fill="#666666"
         fill-opacity="0"
         fill-rule="evenodd"
         stroke="none"
         id="path10" />
      <path
         d="M 84.3,84.3 H 15.7 V 15.7 H 84.3 V 84.3 M 76.4,76.4 V 23.55 H 23.55 V 76.4 H 76.4"
         fill="#999999"
         fill-opacity="0"
         fill-rule="evenodd"
         stroke="none"
         id="path12" />
      <path
         d="M 92.25,92.25 V 7.75 H 7.75 v 84.5 h 84.5 m 3.8,3.8 H 3.95 V 3.95 h 92.1 v 92.1"
         fill="#333333"
         fill-opacity="0"
         fill-rule="evenodd"
         stroke="none"
         id="path14" />
      <path
         d="M 68.85,68.85 V 31.1 H 31.1 V 68.85 H 68.85 M 76.4,76.4 H 23.55 V 23.55 H 76.4 V 76.4"
         fill="#cccccc"
         fill-opacity="0"
         fill-rule="evenodd"
         stroke="none"
         id="path16" />
      <path
         d="M 68.85,68.85 H 31.1 V 31.1 h 37.75 v 37.75"
         fill="#ffffff"
         fill-opacity="0"
         fill-rule="evenodd"
         stroke="none"
         id="path18" />
      <path
         d="M 96.05,96.05 V 3.95 H 3.95 v 92.1 h 92.1 M 100,100 H 0 V 0 h 100 v 100"
         fill="#000000"
         fill-opacity="0"
         fill-rule="evenodd"
         stroke="none"
         id="path20" />
      <path
         d="M 0,50 H 50 L 0,0 M 50,50 V 0 m 0,100 V 50 L 0,100 M 100,50 H 50 l 50,50 M 50,50 100,0"
         fill="none"
         stroke="#000000"
         stroke-linecap="round"
         stroke-linejoin="round"
         stroke-opacity="0"
         stroke-width="0.05"
         id="path22" />
    </g>
    <g
       id="sprite0"
       transform="translate(-9.8,-42)">
      <use
         height="945.45001"
         transform="translate(9.8,42)"
         width="946.29999"
         xlink:href="#shape1"
         id="use25" />
    </g>
    <g
       id="shape1"
       transform="translate(-9.8,-42)">
      <path
         d="m 875.55,83.4 q 33.25,0 57,25.7 23.55,25.7 23.55,61.95 0,36 -23.55,61.7 -23.75,25.7 -57,25.7 l -9.2,-0.2 q -0.9,-0.45 -1.7,-0.45 v 2.15 q -1.3,42.05 -31.3,71.75 -31.1,31.3 -74.8,31.3 h -1.5 q -2.2,17.45 -15,30.55 -11.4,11.1 -25.75,14.1 1.1,5.55 1.1,11.75 0,20.95 -14.8,35.6 -14.8,15 -35.35,15 -20.55,0 -35.8,-15 -10.9,-10.9 -13.5,-25.75 -16.5,-10.7 -32.15,-8.55 -21.65,5.4 -43.3,0 -29.55,345.45 63.05,566.75 L 529,911 467.35,955.8 402.6,918.3 331.45,985.8 q 101.35,-261 59.35,-633.9 -48.2,7.95 -71.6,46.05 -49.5,80.6 -111.25,19.95 65,23.75 104.65,-53.1 16.7,-39.45 61.9,-45.25 -18.7,-36.2 -61.1,-26.55 -14.1,3.6 -50.35,23.2 -30,16.15 -56.35,21.2 6.85,-15.7 4.5,-31.3 Q 103.6,325.8 69.15,213.7 62.1,182.85 35.7,152.45 17.45,127.1 9.8,101.35 q 36.65,5.85 52.3,55.75 7.7,40.3 33.35,80.35 37.5,60.65 79.75,41.2 20.6,-18.7 0,-95.4 -64.75,-11.4 -94.95,-86.95 26.15,25.2 50,43.5 23.5,19.65 38.3,13.4 15.25,-11.7 11.35,-33 -5.35,-29.75 -17.55,-57.8 49.1,33.7 39.45,132.25 -2.15,30.2 5.4,60.6 11.7,45.9 55,21.9 27.25,-15.45 13.65,-39.7 l -41.9,-93.05 q 31.95,-26.75 0,-68.55 67.95,36.45 24.25,83.2 14.55,34.1 46.25,69.85 54.45,49.1 77.6,22.3 15.6,-32.75 -21.7,-74.85 -37.9,-42.6 -35.1,-88.1 22.05,73.6 72.6,43.75 -0.2,18.9 -21.2,29.6 28.1,33.05 29.8,88.75 2.35,33.9 14.95,40.25 35.2,-5.6 18.85,-54.2 -14.3,-32.75 -14.3,-67.7 0,-52.35 36.85,-89.85 Q 500.1,42 552.55,42 q 52.35,0 89.65,36.85 17.75,17.85 26.75,39.1 13.05,0.6 25.7,5.9 5.4,-7.65 12.5,-14.75 32.1,-31.95 77.05,-31.95 31.15,0 55.55,15.05 16.2,-8.8 35.8,-8.8 M 423.6,881.2 466.7,921.55 511.05,876.1 465.1,791.85 423.6,881.2"
         fill="#ffffff"
         fill-rule="evenodd"
         stroke="none"
         id="path28" />
    </g>
  </defs>
  <g
     inkscape:groupmode="layer"
     id="layer1"
     inkscape:label="Layer 1">
    <path
       d="m 875.55,83.4 q 33.25,0 57,25.7 23.55,25.7 23.55,61.95 0,36 -23.55,61.7 -23.75,25.7 -57,25.7 l -9.2,-0.2 q -0.9,-0.45 -1.7,-0.45 v 2.15 q -1.3,42.05 -31.3,71.75 -31.1,31.3 -74.8,31.3 h -1.5 q -2.2,17.45 -15,30.55 -11.4,11.1 -25.75,14.1 1.1,5.55 1.1,11.75 0,20.95 -14.8,35.6 -14.8,15 -35.35,15 -20.55,0 -35.8,-15 -10.9,-10.9 -13.5,-25.75 -16.5,-10.7 -32.15,-8.55 -21.65,5.4 -43.3,0 -29.55,345.45 63.05,566.75 L 529,911 467.35,955.8 402.6,918.3 331.45,985.8 q 101.35,-261 59.35,-633.9 -48.2,7.95 -71.6,46.05 -49.5,80.6 -111.25,19.95 65,23.75 104.65,-53.1 16.7,-39.45 61.9,-45.25 -18.7,-36.2 -61.1,-26.55 -14.1,3.6 -50.35,23.2 -30,16.15 -56.35,21.2 6.85,-15.7 4.5,-31.3 Q 103.6,325.8 69.15,213.7 62.1,182.85 35.7,152.45 17.45,127.1 9.8,101.35 q 36.65,5.85 52.3,55.75 7.7,40.3 33.35,80.35 37.5,60.65 79.75,41.2 20.6,-18.7 0,-95.4 -64.75,-11.4 -94.95,-86.95 26.15,25.2 50,43.5 23.5,19.65 38.3,13.4 15.25,-11.7 11.35,-33 -5.35,-29.75 -17.55,-57.8 49.1,33.7 39.45,132.25 -2.15,30.2 5.4,60.6 11.7,45.9 55,21.9 27.25,-15.45 13.65,-39.7 l -41.9,-93.05 q 31.95,-26.75 0,-68.55 67.95,36.45 24.25,83.2 14.55,34.1 46.25,69.85 54.45,49.1 77.6,22.3 15.6,-32.75 -21.7,-74.85 -37.9,-42.6 -35.1,-88.1 22.05,73.6 72.6,43.75 -0.2,18.9 -21.2,29.6 28.1,33.05 29.8,88.75 2.35,33.9 14.95,40.25 35.2,-5.6 18.85,-54.2 -14.3,-32.75 -14.3,-67.7 0,-52.35 36.85,-89.85 Q 500.1,42 552.55,42 q 52.35,0 89.65,36.85 17.75,17.85 26.75,39.1 13.05,0.6 25.7,5.9 5.4,-7.65 12.5,-14.75 32.1,-31.95 77.05,-31.95 31.15,0 55.55,15.05 16.2,-8.8 35.8,-8.8 M 423.6,881.2 466.7,921.55 511.05,876.1 465.1,791.85 423.6,881.2"
       fill="#ffffff"
       fill-rule="evenodd"
       stroke="none"
       id="path390"
       transform="matrix(0.54110504,0,0,0.54154107,-5.30283,-22.74472)" />
  </g>
</svg>
