<?xml version="1.0" encoding="UTF-8" standalone="no"?>
<svg
   height="684.2px"
   width="642.0px"
   version="1.1"
   id="svg6"
   sodipodi:docname="armor_feet.svg"
   xml:space="preserve"
   inkscape:version="1.2.1 (9c6d41e410, 2022-07-14)"
   xmlns:inkscape="http://www.inkscape.org/namespaces/inkscape"
   xmlns:sodipodi="http://sodipodi.sourceforge.net/DTD/sodipodi-0.dtd"
   xmlns="http://www.w3.org/2000/svg"
   xmlns:svg="http://www.w3.org/2000/svg"><defs
     id="defs10" /><sodipodi:namedview
     id="namedview8"
     pagecolor="#ffffff"
     bordercolor="#000000"
     borderopacity="0.25"
     inkscape:showpageshadow="2"
     inkscape:pageopacity="0.0"
     inkscape:pagecheckerboard="0"
     inkscape:deskcolor="#d1d1d1"
     showgrid="false"
     inkscape:zoom="1.0613836"
     inkscape:cx="182.3092"
     inkscape:cy="294.89809"
     inkscape:window-width="3840"
     inkscape:window-height="2066"
     inkscape:window-x="-11"
     inkscape:window-y="-11"
     inkscape:window-maximized="1"
     inkscape:current-layer="svg6" /><path
     style="fill:#ffffff;fill-rule:evenodd;stroke-width:0.942166"
     d="m 281.37492,679.72007 c -11.83141,-1.66984 -26.834,-5.38669 -34.11897,-8.4529 -22.45267,-9.45019 -36.93369,-26.14145 -38.29491,-44.13985 l -0.55499,-7.33827 -3.22689,0.60537 c -9.40022,1.76349 -25.54012,3.38341 -43.70564,4.38663 -43.36248,2.39475 -75.532922,-2.49828 -93.487524,-14.21917 -7.519402,-4.90871 -9.764486,-7.50836 -13.465153,-15.59168 -6.408037,-13.997 -2.581615,-31.23896 9.973438,-44.94059 9.284663,-10.13257 23.892327,-20.27568 53.276519,-36.99359 42.64451,-24.26224 63.20287,-42.4824 77.10276,-68.33346 12.04854,-22.40792 16.47475,-44.86454 15.32038,-77.72873 -1.21642,-34.63116 -7.80111,-78.3471 -20.36453,-135.20089 -2.00392,-9.06835 -4.33398,-19.87971 -5.17792,-24.02524 -0.84396,-4.14553 -4.06911,-18.34869 -7.16701,-31.56258 C 161.72035,108.94437 156.91517,79.657045 159.68732,67.712512 161.58588,59.532083 169.68244,45.611318 176.66735,38.518018 193.47569,21.448857 223.39069,9.0562134 257.28959,5.1192936 276.3452,2.906231 316.00147,3.65635 327.40284,6.4455222 c 18.18023,4.4475188 32.43499,10.8652188 39.23307,17.6632998 4.59597,4.59597 8.7936,12.525843 8.80821,16.639876 0.0109,3.088012 -0.8055,3.049764 15.08387,0.706625 15.19362,-2.240541 27.23272,-2.369747 45.10121,-0.48404 38.25222,4.036856 68.59712,16.874931 89.1575,37.720037 8.38967,8.505855 13.65883,16.702601 16.64247,25.88915 1.7552,5.40425 1.98346,8.2836 1.94188,24.49633 -0.0397,15.45829 -0.42733,20.46432 -2.4443,31.56258 -6.9129,38.03779 -8.60252,58.94026 -7.80622,96.57206 0.73468,34.71934 2.44812,60.85779 7.72017,117.7708 1.29201,13.94755 3.16425,37.474 6.67299,83.85281 0.95591,12.63528 1.63721,32.61669 1.68655,49.46374 0.0756,25.78565 -0.1032,29.18195 -2.03761,38.71841 -2.68172,13.22063 -4.73947,19.17423 -10.21961,29.56791 -8.25371,15.65409 -19.3138,26.1176 -37.59481,35.56699 -11.652,6.02287 -52.77501,30.27046 -61.64355,36.34723 -8.07147,5.53061 -32.76921,17.29921 -44.38343,21.14895 -11.92869,3.95396 -22.6703,6.40492 -40.4799,9.23644 -13.96848,2.22084 -58.00282,2.73553 -71.46641,0.83535 z m 62.98691,-32.89346 c 15.19284,-2.12568 20.72766,-3.7999 20.72766,-6.26985 0,-1.07147 0.77393,-3.07351 1.71983,-4.44898 5.6426,-8.20504 4.43127,-14.41089 -4.59027,-23.51678 -5.5071,-5.55858 -5.60906,-5.75727 -5.60906,-10.93057 0,-2.89799 -0.26413,-5.26908 -0.58697,-5.26908 -0.32284,0 -3.18467,1.84629 -6.35963,4.10286 -12.33374,8.76611 -22.99053,14.74743 -27.33644,15.34311 -8.22461,1.12731 -12.82528,-2.74116 -12.82528,-10.78412 v -4.59478 l 10.12829,-9.83316 c 5.57056,-5.40823 15.42798,-14.25227 21.90537,-19.65343 16.65972,-13.89166 34.15792,-29.55148 38.35203,-34.32273 7.69715,-8.75638 14.64311,-23.90298 17.31633,-37.76061 0.86577,-4.48807 1.81307,-6.3664 4.63279,-9.18612 3.44099,-3.44099 3.74241,-3.54449 10.32297,-3.54449 6.18426,0 7.01212,0.23364 9.44368,2.6652 5.65563,5.65563 5.43411,14.96259 -0.69797,29.32493 -8.74829,20.48992 -22.13726,38.3455 -45.23799,60.32955 -6.54146,6.22525 -11.21628,11.31863 -10.3885,11.31863 3.38683,0 12.24803,7.30673 17.75192,14.63781 6.23477,8.30459 8.85145,14.23687 9.86777,22.37123 0.372,2.97734 0.99796,5.61211 1.39103,5.85504 1.0837,0.66976 17.66772,-7.70612 32.98309,-16.65833 7.51377,-4.39198 15.84076,-9.19827 18.50442,-10.68065 4.46112,-2.48268 4.88832,-3.02569 5.41746,-6.88624 1.60761,-11.72885 -0.0871,-15.88197 -10.63793,-26.06894 -7.06977,-6.82599 -11.39962,-13.09645 -11.39962,-16.50885 0,-4.38278 1.97277,-8.45591 4.80485,-9.92043 2.51962,-1.30295 3.04404,-1.2385 7.24523,0.89041 8.67347,4.39518 24.55167,24.10123 30.50586,37.86009 1.20833,2.79218 2.67381,5.08394 3.25661,5.09277 2.47948,0.0376 15.47605,-10.70184 19.92465,-16.46436 8.89125,-11.51731 17.49203,-30.80218 20.17261,-45.23145 2.37013,-12.7582 1.85976,-22.1199 -9.06575,-166.29238 -1.78675,-23.57771 -3.71285,-52.19602 -4.28024,-63.59623 -0.56738,-11.40022 -1.43928,-25.41384 -1.93755,-31.14138 -1.17786,-13.53932 -1.15457,-32.49169 0.0525,-42.7119 3.17447,-26.87793 8.76504,-86.7861 8.09881,-86.7861 -0.18722,0 -2.19569,1.02835 -4.46328,2.2852 -25.39195,14.07413 -79.18705,24.88432 -110.26239,22.15734 -9.76543,-0.85695 -25.30812,-3.60292 -29.38466,-5.19146 -1.58974,-0.61949 -1.55848,-0.32768 0.36965,3.45178 1.59061,3.11785 2.28481,6.668 2.83586,14.50251 0.4999,7.1075 1.54531,12.8957 3.32006,18.38245 4.81585,14.88855 2.66685,27.12 -5.56401,31.66846 l -3.60148,1.99023 3.8971,1.55931 c 4.77979,1.91249 21.65229,3.75501 27.05102,2.95403 12.93897,-1.91968 18.85097,6.38414 10.21933,14.35375 -3.27068,3.01982 -3.44324,3.06199 -12.51636,3.05845 -11.4584,-0.005 -23.32911,-1.88436 -32.27446,-5.11113 -3.77537,-1.36186 -6.99602,-2.34439 -7.157,-2.18341 -0.16098,0.16097 0.10535,1.97491 0.59184,4.03095 0.48649,2.05604 2.80272,12.64173 5.14718,23.52376 2.34444,10.88202 4.87684,21.90537 5.62753,24.49632 0.7507,2.59096 2.79678,11.06037 4.54685,18.8209 3.54936,15.73933 3.19346,15.28167 12.03345,15.47426 8.49632,0.18512 25.7388,3.99293 40.9562,9.04474 15.82933,5.25495 22.66624,8.21632 26.818,11.61605 l 2.34643,1.92141 -2.23222,4.26659 c -3.51839,6.72491 -6.90366,7.61442 -25.84357,6.79055 -16.44681,-0.71542 -20.1429,-1.19861 -33.16503,-4.33558 -4.66372,-1.12346 -9.11546,-2.11364 -9.89274,-2.20039 -1.69603,-0.18926 -1.54455,2.79527 0.5658,11.14829 0.7855,3.10915 1.81989,8.83281 2.29865,12.71925 0.47875,3.88643 1.48151,10.45804 2.22834,14.60358 1.22817,6.81733 3.23313,25.08284 4.809,43.81073 l 0.59459,7.06625 5.14406,2.24884 c 2.82923,1.23687 8.41707,4.52195 12.41742,7.30019 9.46849,6.57585 9.01636,6.41308 13.96517,5.02749 4.27961,-1.19821 4.18435,-2.75292 -0.17064,-2.78501 -1.07709,-0.008 -3.83293,-1.25698 -6.12409,-2.77566 -11.1418,-7.38529 -19.45211,-33.55372 -19.84653,-62.49503 -0.0915,-6.71582 0.27566,-8.84158 2.28562,-13.23189 2.59811,-5.67505 5.32728,-7.7074 11.72335,-8.73017 5.42809,-0.86799 12.91453,2.55644 15.88865,7.26775 3.02901,4.79826 2.8632,8.7534 -0.68483,16.33536 -2.72724,5.82798 -2.91485,6.85981 -2.42496,13.33727 0.60475,7.99622 3.81186,15.82443 10.05464,24.54238 2.10195,2.93533 4.2507,6.93007 4.77501,8.87719 1.2265,4.5549 -0.0904,10.59506 -3.00913,13.80132 -1.99861,2.19552 -2.02748,2.35141 -0.31555,1.70384 1.03638,-0.39203 5.3321,-1.57642 9.54605,-2.63199 9.35935,-2.34446 13.39595,-1.81391 16.77781,2.2052 6.88225,8.17908 -1.21754,17.53838 -20.68009,23.8958 -16.53567,5.40135 -30.51541,5.24832 -42.7304,-0.46777 -3.33483,-1.56056 -6.13582,-2.72403 -6.22443,-2.58549 -0.0886,0.13853 -0.84528,3.50321 -1.6815,7.47707 -4.80384,22.82863 -20.05802,45.45811 -46.60728,69.14164 -14.06725,12.54882 -26.55756,21.48578 -54.90704,39.28661 -33.86266,21.2626 -41.45533,27.10247 -41.45533,31.88529 0,3.7289 5.50179,11.19826 10.48225,14.23092 8.48056,5.16394 22.98106,9.39223 38.03932,11.09213 10.58003,1.19434 39.39635,0.44591 52.29024,-1.35814 z m -179.26948,-55.75065 6.80838,-0.55481 0.60125,-3.2049 c 1.09818,-5.8538 -2.48248,-15.80403 -8.38656,-23.30531 -4.06574,-5.16561 -4.66086,-12.30324 -1.34702,-16.1558 2.2533,-2.61962 2.46815,-2.6731 6.22162,-1.54853 9.58394,2.87142 23.96672,23.25522 26.18143,37.10527 0.47784,2.98827 0.8743,3.46899 2.56649,3.11201 1.10074,-0.2322 4.54519,-0.88994 7.65434,-1.46164 3.10915,-0.57169 8.83281,-2.05026 12.71925,-3.2857 9.83052,-3.12499 15.04078,-3.68389 22.03659,-2.36388 l 6.02151,1.13618 9.99664,-5.97571 c 8.28407,-4.95197 9.91624,-6.29851 9.52736,-7.86003 -0.25811,-1.03638 -0.75151,-6.94175 -1.09645,-13.12303 l -0.62717,-11.2387 -5.5552,-8.07571 c -3.05537,-4.44165 -7.86185,-11.19614 -10.68108,-15.00999 -4.54326,-6.14611 -5.12587,-7.45198 -5.12587,-11.489 0,-3.43258 0.54976,-5.19387 2.23145,-7.14895 2.13365,-2.48051 2.3995,-2.54389 6.0649,-1.44571 9.84848,2.95068 24.48254,19.50058 33.88749,38.32393 2.07129,4.14553 4.31101,9.35681 4.97715,11.58062 0.84224,2.81163 1.61512,3.88827 2.53725,3.53442 3.36381,-1.29081 19.11184,-12.86522 28.6066,-21.02516 16.55188,-14.22488 25.14519,-26.27055 31.10868,-43.60655 l 3.06075,-8.89765 -0.15184,-17.90116 c -0.15092,-17.79294 -0.5817,-23.66254 -3.45744,-47.10832 -2.77489,-22.62349 -7.89563,-51.88148 -12.44982,-71.13357 -1.28712,-5.44101 -5.48553,-23.88392 -9.32983,-40.98424 -3.8443,-17.10032 -8.0372,-35.33124 -9.31757,-40.51315 -5.2614,-21.29396 -11.75136,-65.35535 -13.66936,-92.8034 -1.82819,-26.16274 -1.02204,-38.96587 3.14416,-49.93482 0.79826,-2.1017 1.09184,-5.6247 0.80953,-9.71449 -0.37928,-5.49473 -0.66358,-6.31879 -1.97832,-5.73417 -6.5498,2.9125 -15.35121,5.08808 -24.07547,5.95109 -20.04813,1.98316 -52.20948,0.66736 -56.46015,-2.30993 -1.08585,-0.76056 -3.89381,-1.3883 -6.23992,-1.39498 -5.18299,-0.0148 -13.93325,-2.66453 -21.63083,-6.550255 -5.41926,-2.735634 -5.7179,-2.78674 -5.7179,-0.978516 0,2.239651 2.69122,14.733731 6.59641,30.624001 1.52821,6.2183 4.47808,18.40807 6.55526,27.08839 2.07719,8.68032 4.78005,17.79578 6.00638,20.25657 1.22632,2.46081 2.82312,6.55473 3.54843,9.09761 1.75988,6.16991 7.47245,12.03918 13.7458,14.12285 2.60686,0.86587 9.58316,2.13763 15.50287,2.82616 11.74215,1.36573 15.87363,2.91736 17.547,6.58999 1.40083,3.07448 -0.50016,7.99234 -4.2334,10.95183 -2.41582,1.91511 -3.36709,2.03858 -12.50743,1.62336 -7.63162,-0.34668 -11.47302,-1.03276 -16.80663,-3.00173 -3.80264,-1.40378 -7.13291,-2.33332 -7.40059,-2.06564 -0.26768,0.26769 1.49443,10.15834 3.91581,21.97922 2.42138,11.82089 5.6662,28.68151 7.2107,37.46804 2.63484,14.98934 3.01261,16.22498 6.11969,20.01676 7.14893,8.72433 15.16146,12.14697 31.55594,13.47948 12.601,1.02417 15.27409,2.37066 15.74386,7.93047 0.37605,4.45048 -1.58932,7.49784 -6.42756,9.96613 -3.52293,1.79726 -3.96035,1.82305 -7.28801,0.42982 -2.42151,-1.01385 -4.89624,-1.29653 -7.83182,-0.89458 -4.84643,0.66358 -13.9163,-1.14923 -21.04836,-4.20695 l -4.61238,-1.97748 0.67413,8.74033 c 0.37077,4.80717 1.05839,13.61603 1.52803,19.57523 0.46965,5.9592 0.86394,17.73254 0.87621,26.16298 l 0.0223,15.32807 4.66154,9.66435 c 5.22106,10.82434 6.9772,12.85278 13.72245,15.8502 4.10823,1.82561 6.9526,2.16312 22.62112,2.68425 9.85712,0.32784 18.5486,0.95586 19.31441,1.3956 4.10886,2.35936 5.63213,4.69168 5.63213,8.62346 0,7.8399 -7.45778,10.31643 -28.71876,9.53676 -15.53634,-0.56975 -23.97299,-2.63793 -33.78252,-8.28158 -3.54334,-2.03854 -6.74287,-3.70644 -7.11011,-3.70644 -0.36723,0 -1.56822,3.79095 -2.66887,8.42432 -3.38498,14.24975 -12.34958,31.94229 -22.13475,43.68514 -2.07616,2.49153 -3.5964,4.70851 -3.37828,4.92661 0.75954,0.75955 14.00905,-12.03862 15.50499,-14.97684 4.48921,-8.81735 12.02109,-18.79752 16.18045,-21.44003 6.12206,-3.88945 8.39841,-4.31622 10.70721,-2.00741 5.3366,5.33659 3.53849,17.30713 -5.34195,35.56278 -8.59125,17.66118 -18.77086,29.81238 -29.20566,34.86223 -5.91641,2.8632 -16.18942,4.04989 -20.30431,2.34545 -5.24121,-2.17099 -8.32986,-11.44577 -5.19281,-15.59332 2.61233,-3.4538 1.44036,-3.62186 -2.08991,-0.29967 -5.92892,5.57943 -14.96147,12.24457 -33.68245,24.85434 -35.0311,23.59567 -68.39972,48.53635 -71.471491,53.41988 -1.331023,2.11607 -0.976663,2.37855 6.732264,4.98666 20.567007,6.95832 41.877457,8.88439 71.547617,6.46659 z M 348.80752,209.00032 c -2.68784,-7.8102 -7.27219,-27.52885 -7.27219,-31.27985 0,-1.36263 -0.42397,-2.47751 -0.94216,-2.47751 -1.25635,0 -1.19557,2.0748 0.48314,16.49368 1.59728,13.71946 2.53392,17.25382 5.93851,22.40874 3.68502,5.5795 4.58982,2.9827 1.7927,-5.14506 z m -7.56459,-40.42673 c -0.69512,-2.65817 4.40322,-9.89015 8.70387,-12.3464 3.72497,-2.12746 4.8757,-3.59623 2.81752,-3.59623 -0.56055,0 -3.51605,-1.46337 -6.56777,-3.25194 -3.05172,-1.78856 -5.72811,-2.95449 -5.94752,-2.59096 -0.36174,0.59937 -1.00997,22.22952 -0.72031,24.03521 0.0673,0.41923 0.58319,0.47737 1.14653,0.12921 0.56333,-0.34816 0.81879,-1.41867 0.56768,-2.37889 z"
     id="path248" /><path
     style="fill:#ffffff;fill-rule:evenodd;stroke-width:0.942166"
     d="m 239.19639,185.22704 c -1.61722,-0.72122 -4.04622,-2.76113 -5.39779,-4.53313 -3.35092,-4.39328 -9.42941,-17.66323 -11.84324,-25.85496 -3.70222,-12.56415 -7.44503,-32.73172 -6.92717,-37.32613 1.10054,-9.76394 8.29584,-10.98619 17.21872,-2.92491 4.8726,4.4021 8.05705,9.80491 10.28762,17.4542 0.95994,3.2919 4.12497,13.49465 7.03342,22.67278 6.27558,19.80378 6.53405,23.00471 2.22603,27.56761 -3.60081,3.81384 -8.22484,4.89466 -12.59759,2.94454 z"
     id="path250" /><path
     style="fill:#ffffff;fill-rule:evenodd;stroke-width:0.942166"
     d="m 260.93339,304.93407 c -5.24459,-2.38521 -11.38062,-11.82313 -13.80667,-21.23625 -4.91366,-19.06509 -5.45107,-26.18659 -2.61081,-34.59705 3.43906,-10.18361 10.69257,-16.31817 19.34996,-16.36497 3.02866,-0.0164 4.38671,0.56254 6.50404,2.77255 3.61167,3.76978 3.68888,8.97442 0.24326,16.39948 -4.20693,9.06564 -3.26969,14.7905 5.33709,32.59985 4.40679,9.11862 4.48255,13.01766 0.34005,17.49997 -2.51884,2.72546 -3.89774,3.39482 -7.77288,3.77318 -2.94487,0.28754 -5.78792,-0.0299 -7.58404,-0.84676 z"
     id="path252" /><path
     style="fill:#ffffff;fill-rule:evenodd;stroke-width:0.942166"
     d="m 272.2861,409.93829 c -4.24803,-1.06835 -6.50356,-2.50385 -9.75775,-6.21017 -7.16326,-8.15849 -11.45003,-21.84712 -11.50747,-36.74591 -0.0384,-9.95905 1.95862,-16.42289 6.23351,-20.17629 2.82546,-2.48079 4.07032,-2.91517 8.35427,-2.91517 6.52595,0 11.45401,2.1164 13.76904,5.91325 2.51744,4.12881 2.34269,6.40623 -0.96752,12.60942 -1.55457,2.91321 -2.8265,6.14181 -2.8265,7.17468 0,4.26009 2.46683,9.53527 6.74536,14.42459 5.44761,6.22529 6.05018,7.29903 6.82869,12.16829 1.43821,8.99549 -7.34105,16.15419 -16.87163,13.75731 z"
     id="path254" /><path
     style="fill:#ffffff;fill-rule:evenodd;stroke-width:0.942166"
     d="m 390.87474,316.64309 c -4.40506,-2.00032 -8.31448,-7.15065 -11.49964,-15.14983 -4.14702,-10.41475 -7.76399,-24.96382 -8.32863,-33.50137 l -0.56439,-8.53396 3.02868,-3.44947 c 6.56757,-7.48006 16.80954,-4.83602 22.13433,5.71415 0.87874,1.74106 1.91631,7.15895 2.36894,12.36993 0.85753,9.8724 1.34536,11.27266 6.31049,18.11374 7.74974,10.6778 7.01512,20.39173 -1.84639,24.41499 -4.92527,2.23614 -6.71959,2.23952 -11.60339,0.0218 z"
     id="path256" /></svg>
