<?xml version="1.0" encoding="UTF-8" standalone="no"?>
<svg
   height="512"
   width="512"
   version="1.1"
   id="svg1096"
   sodipodi:docname="armor_heavy.svg"
   inkscape:version="1.2.1 (9c6d41e410, 2022-07-14)"
   inkscape:export-filename="armor_heavy.png"
   inkscape:export-xdpi="96"
   inkscape:export-ydpi="96"
   xmlns:inkscape="http://www.inkscape.org/namespaces/inkscape"
   xmlns:sodipodi="http://sodipodi.sourceforge.net/DTD/sodipodi-0.dtd"
   xmlns:xlink="http://www.w3.org/1999/xlink"
   xmlns="http://www.w3.org/2000/svg"
   xmlns:svg="http://www.w3.org/2000/svg">
  <sodipodi:namedview
     id="namedview1098"
     pagecolor="#ffffff"
     bordercolor="#000000"
     borderopacity="0.25"
     inkscape:showpageshadow="2"
     inkscape:pageopacity="0.0"
     inkscape:pagecheckerboard="true"
     inkscape:deskcolor="#d1d1d1"
     showgrid="false"
     inkscape:zoom="2.0058594"
     inkscape:cx="285.16456"
     inkscape:cy="168.7556"
     inkscape:window-width="2560"
     inkscape:window-height="1351"
     inkscape:window-x="2391"
     inkscape:window-y="-9"
     inkscape:window-maximized="1"
     inkscape:current-layer="svg1096" />
  <g
     id="g1069"
     transform="matrix(3.998001,0,0,3.998001,0.12793603,0.127936)">
    <use
       height="100"
       transform="scale(1.28)"
       width="100"
       xlink:href="#shape0"
       id="use1065" />
    <use
       height="101.45"
       transform="matrix(1.0134,0,0,1.0134,0.0859,12.3061)"
       width="126.05"
       xlink:href="#sprite0"
       id="use1067" />
  </g>
  <defs
     id="defs1094">
    <g
       id="shape0">
      <path
         d="M 100,100 H 0 V 0 h 100 v 100"
         fill="#00cc66"
         fill-opacity="0"
         fill-rule="evenodd"
         stroke="none"
         id="path1071" />
      <path
         d="M 84.3,84.3 V 15.7 H 15.7 v 68.6 h 68.6 m 7.95,7.95 H 7.75 V 7.75 h 84.5 v 84.5"
         fill="#666666"
         fill-opacity="0"
         fill-rule="evenodd"
         stroke="none"
         id="path1073" />
      <path
         d="M 84.3,84.3 H 15.7 V 15.7 H 84.3 V 84.3 M 76.4,76.4 V 23.55 H 23.55 V 76.4 H 76.4"
         fill="#999999"
         fill-opacity="0"
         fill-rule="evenodd"
         stroke="none"
         id="path1075" />
      <path
         d="M 92.25,92.25 V 7.75 H 7.75 v 84.5 h 84.5 m 3.8,3.8 H 3.95 V 3.95 h 92.1 v 92.1"
         fill="#333333"
         fill-opacity="0"
         fill-rule="evenodd"
         stroke="none"
         id="path1077" />
      <path
         d="M 68.85,68.85 V 31.1 H 31.1 V 68.85 H 68.85 M 76.4,76.4 H 23.55 V 23.55 H 76.4 V 76.4"
         fill="#cccccc"
         fill-opacity="0"
         fill-rule="evenodd"
         stroke="none"
         id="path1079" />
      <path
         d="M 68.85,68.85 H 31.1 V 31.1 h 37.75 v 37.75"
         fill="#ffffff"
         fill-opacity="0"
         fill-rule="evenodd"
         stroke="none"
         id="path1081" />
      <path
         d="M 96.05,96.05 V 3.95 H 3.95 v 92.1 h 92.1 M 100,100 H 0 V 0 h 100 v 100"
         fill="#000000"
         fill-opacity="0"
         fill-rule="evenodd"
         stroke="none"
         id="path1083" />
      <path
         d="M 0,50 H 50 L 0,0 M 50,50 V 0 m 0,100 V 50 L 0,100 M 100,50 H 50 l 50,50 M 50,50 100,0"
         fill="none"
         stroke="#000000"
         stroke-linecap="round"
         stroke-linejoin="round"
         stroke-opacity="0"
         stroke-width="0.05"
         id="path1085" />
    </g>
    <g
       id="sprite0"
       transform="translate(1.05,-15.35)">
      <use
         height="101.45"
         transform="translate(-1.05,15.35)"
         width="126.05"
         xlink:href="#shape1"
         id="use1088" />
    </g>
    <g
       id="shape1"
       transform="translate(1.05,-15.35)">
      <path
         d="m 56.1,81.85 q 3.05,-1.05 5.3,-3 1.95,1.7 4.55,2.75 Q 75,85.15 91.5,80.65 75.35,80.2 65,74.1 L 61.9,49.3 57.45,74.2 q -10.3,6 -26.2,6.45 Q 47.1,85 56.1,81.85 M 87,24.15 q 3.3,-4.25 8.15,-6.8 25.9,11.7 29.85,35.4 h -16.05 l -3.35,22.8 q -6.5,4.7 -7.45,16.25 -0.95,11.45 -5.6,18.55 l -2.25,3.1 q -28.5,6.75 -57,0 l -2.15,-3.1 Q 26.4,103.3 25.5,91.8 24.55,80.3 18,75.6 L 14.65,52.65 H -1.05 Q 2.85,29 28.75,17.3 q 4.85,2.55 8.2,6.8 0.7,-17.45 10.75,0 v 6.4 q 0,4.2 3.45,7.15 3.45,3 8.25,3 h 4.75 q 4.9,0 8.35,-3 Q 76,34.7 76,30.5 V 24.05 Q 86,6.65 86.75,24.1 L 87,24.15"
         fill="#ffffff"
         fill-rule="evenodd"
         stroke="none"
         id="path1091" />
    </g>
  </defs>
</svg>
