<?xml version="1.0" encoding="UTF-8" standalone="no"?>
<svg
   height="512"
   width="512"
   version="1.1"
   id="svg1286"
   sodipodi:docname="armor_light.svg"
   inkscape:version="1.2.1 (9c6d41e410, 2022-07-14)"
   inkscape:export-filename="armor_light.png"
   inkscape:export-xdpi="96"
   inkscape:export-ydpi="96"
   xmlns:inkscape="http://www.inkscape.org/namespaces/inkscape"
   xmlns:sodipodi="http://sodipodi.sourceforge.net/DTD/sodipodi-0.dtd"
   xmlns:xlink="http://www.w3.org/1999/xlink"
   xmlns="http://www.w3.org/2000/svg"
   xmlns:svg="http://www.w3.org/2000/svg">
  <sodipodi:namedview
     id="namedview1288"
     pagecolor="#ffffff"
     bordercolor="#000000"
     borderopacity="0.25"
     inkscape:showpageshadow="2"
     inkscape:pageopacity="0.0"
     inkscape:pagecheckerboard="true"
     inkscape:deskcolor="#d1d1d1"
     showgrid="false"
     inkscape:zoom="1.4183568"
     inkscape:cx="-2.1151237"
     inkscape:cy="297.87992"
     inkscape:window-width="2560"
     inkscape:window-height="1351"
     inkscape:window-x="2391"
     inkscape:window-y="-9"
     inkscape:window-maximized="1"
     inkscape:current-layer="g1259" />
  <g
     id="g1259">
    <use
       height="100"
       transform="scale(1.28)"
       width="100"
       xlink:href="#shape0"
       id="use1255" />
    <use
       height="118.1"
       transform="matrix(4.3348497,0,0,4.3348497,9,0.0542524)"
       width="113.75"
       xlink:href="#sprite0"
       id="use1257" />
  </g>
  <defs
     id="defs1284">
    <g
       id="shape0">
      <path
         d="M 100,100 H 0 V 0 h 100 v 100"
         fill="#00cc66"
         fill-opacity="0"
         fill-rule="evenodd"
         stroke="none"
         id="path1261" />
      <path
         d="M 84.3,84.3 V 15.7 H 15.7 v 68.6 h 68.6 m 7.95,7.95 H 7.75 V 7.75 h 84.5 v 84.5"
         fill="#666666"
         fill-opacity="0"
         fill-rule="evenodd"
         stroke="none"
         id="path1263" />
      <path
         d="M 84.3,84.3 H 15.7 V 15.7 H 84.3 V 84.3 M 76.4,76.4 V 23.55 H 23.55 V 76.4 H 76.4"
         fill="#999999"
         fill-opacity="0"
         fill-rule="evenodd"
         stroke="none"
         id="path1265" />
      <path
         d="M 92.25,92.25 V 7.75 H 7.75 v 84.5 h 84.5 m 3.8,3.8 H 3.95 V 3.95 h 92.1 v 92.1"
         fill="#333333"
         fill-opacity="0"
         fill-rule="evenodd"
         stroke="none"
         id="path1267" />
      <path
         d="M 68.85,68.85 V 31.1 H 31.1 V 68.85 H 68.85 M 76.4,76.4 H 23.55 V 23.55 H 76.4 V 76.4"
         fill="#cccccc"
         fill-opacity="0"
         fill-rule="evenodd"
         stroke="none"
         id="path1269" />
      <path
         d="M 68.85,68.85 H 31.1 V 31.1 h 37.75 v 37.75"
         fill="#ffffff"
         fill-opacity="0"
         fill-rule="evenodd"
         stroke="none"
         id="path1271" />
      <path
         d="M 96.05,96.05 V 3.95 H 3.95 v 92.1 h 92.1 M 100,100 H 0 V 0 h 100 v 100"
         fill="#000000"
         fill-opacity="0"
         fill-rule="evenodd"
         stroke="none"
         id="path1273" />
      <path
         d="M 0,50 H 50 L 0,0 M 50,50 V 0 m 0,100 V 50 L 0,100 M 100,50 H 50 l 50,50 M 50,50 100,0"
         fill="none"
         stroke="#000000"
         stroke-linecap="round"
         stroke-linejoin="round"
         stroke-opacity="0"
         stroke-width="0.05"
         id="path1275" />
    </g>
    <g
       id="sprite0"
       transform="translate(-5.25,-7.95)">
      <use
         height="118.1"
         transform="translate(5.25,7.95)"
         width="113.75"
         xlink:href="#shape1"
         id="use1278" />
    </g>
    <g
       id="shape1"
       transform="translate(-5.25,-7.95)">
      <path
         d="m 61.7,81.85 q 2.25,2 5.3,3.2 10.5,4.15 29.7,-1.1 -18.75,-0.55 -30.8,-7.7 l -3.6,-28.8 -5.2,29 q -12,6.95 -30.5,7.5 18.4,5.05 28.9,1.4 3.55,-1.25 6.2,-3.5 M 91.2,18.1 q 18.2,5.75 27.8,19.8 L 113.2,78 q -7.65,5.45 -8.75,18.85 -1.1,13.4 -6.55,21.65 l -2.55,3.6 q -33.25,7.9 -66.4,0 L 26.4,118.5 Q 20.95,110.3 19.85,96.95 18.75,83.5 11.15,78.05 L 5.25,37.95 Q 14.95,23.9 33.2,18.1 q 0.85,-20.3 12.55,0 v 7.5 q 0,4.8 4,8.3 4,3.5 9.6,3.5 h 5.6 q 5.6,0 9.65,-3.5 4.05,-3.5 4.05,-8.3 V 18.05 Q 90.3,-2.2 91.2,18.1"
         fill="#ffffff"
         fill-rule="evenodd"
         stroke="none"
         id="path1281" />
    </g>
  </defs>
</svg>
