<?xml version="1.0" encoding="UTF-8" standalone="no"?>
<svg
   height="512"
   width="512"
   version="1.1"
   id="svg925"
   sodipodi:docname="armor_clothing.svg"
   inkscape:version="1.2.1 (9c6d41e410, 2022-07-14)"
   inkscape:export-filename="armor_clothing.png"
   inkscape:export-xdpi="96"
   inkscape:export-ydpi="96"
   xmlns:inkscape="http://www.inkscape.org/namespaces/inkscape"
   xmlns:sodipodi="http://sodipodi.sourceforge.net/DTD/sodipodi-0.dtd"
   xmlns:xlink="http://www.w3.org/1999/xlink"
   xmlns="http://www.w3.org/2000/svg"
   xmlns:svg="http://www.w3.org/2000/svg">
  <sodipodi:namedview
     id="namedview927"
     pagecolor="#ffffff"
     bordercolor="#000000"
     borderopacity="0.25"
     inkscape:showpageshadow="2"
     inkscape:pageopacity="0.0"
     inkscape:pagecheckerboard="true"
     inkscape:deskcolor="#d1d1d1"
     showgrid="false"
     inkscape:zoom="2.0058594"
     inkscape:cx="185.45667"
     inkscape:cy="216.61538"
     inkscape:window-width="2560"
     inkscape:window-height="1351"
     inkscape:window-x="2391"
     inkscape:window-y="-9"
     inkscape:window-maximized="1"
     inkscape:current-layer="svg925" />
  <g
     id="g898"
     transform="matrix(3.998001,0,0,3.998001,0.12793603,0.12793603)">
    <use
       height="100"
       transform="scale(1.28)"
       width="100"
       xlink:href="#shape0"
       id="use894" />
    <use
       height="87.400002"
       transform="translate(0.3,20.25)"
       width="127.35"
       xlink:href="#sprite0"
       id="use896" />
  </g>
  <defs
     id="defs923">
    <g
       id="shape0">
      <path
         d="M 100,100 H 0 V 0 h 100 v 100"
         fill="#00cc66"
         fill-opacity="0"
         fill-rule="evenodd"
         stroke="none"
         id="path900" />
      <path
         d="M 84.3,84.3 V 15.7 H 15.7 v 68.6 h 68.6 m 7.95,7.95 H 7.75 V 7.75 h 84.5 v 84.5"
         fill="#666666"
         fill-opacity="0"
         fill-rule="evenodd"
         stroke="none"
         id="path902" />
      <path
         d="M 84.3,84.3 H 15.7 V 15.7 H 84.3 V 84.3 M 76.4,76.4 V 23.55 H 23.55 V 76.4 H 76.4"
         fill="#999999"
         fill-opacity="0"
         fill-rule="evenodd"
         stroke="none"
         id="path904" />
      <path
         d="M 92.25,92.25 V 7.75 H 7.75 v 84.5 h 84.5 m 3.8,3.8 H 3.95 V 3.95 h 92.1 v 92.1"
         fill="#333333"
         fill-opacity="0"
         fill-rule="evenodd"
         stroke="none"
         id="path906" />
      <path
         d="M 68.85,68.85 V 31.1 H 31.1 V 68.85 H 68.85 M 76.4,76.4 H 23.55 V 23.55 H 76.4 V 76.4"
         fill="#cccccc"
         fill-opacity="0"
         fill-rule="evenodd"
         stroke="none"
         id="path908" />
      <path
         d="M 68.85,68.85 H 31.1 V 31.1 h 37.75 v 37.75"
         fill="#ffffff"
         fill-opacity="0"
         fill-rule="evenodd"
         stroke="none"
         id="path910" />
      <path
         d="M 96.05,96.05 V 3.95 H 3.95 v 92.1 h 92.1 M 100,100 H 0 V 0 h 100 v 100"
         fill="#000000"
         fill-opacity="0"
         fill-rule="evenodd"
         stroke="none"
         id="path912" />
      <path
         d="M 0,50 H 50 L 0,0 M 50,50 V 0 m 0,100 V 50 L 0,100 M 100,50 H 50 l 50,50 M 50,50 100,0"
         fill="none"
         stroke="#000000"
         stroke-linecap="round"
         stroke-linejoin="round"
         stroke-opacity="0"
         stroke-width="0.05"
         id="path914" />
    </g>
    <g
       id="sprite0"
       transform="translate(1.7,-23.3)">
      <use
         height="87.400002"
         transform="translate(-1.7,23.3)"
         width="127.35"
         xlink:href="#shape1"
         id="use917" />
    </g>
    <g
       id="shape1"
       transform="translate(1.7,-23.3)">
      <path
         d="m 96.55,32.15 q 1.1,21.5 0,43.6 -2.8,4.15 -3.4,11.05 l -0.05,0.7 q -0.85,10.65 -4.85,17.2 l -1.9,2.85 q -24.55,6.35 -49.05,0 L 35.4,104.7 Q 31.35,98.15 30.55,87.5 L 30.5,86.8 Q 29.85,80.25 27.35,76.1 26.2,53.7 27.3,32 32.8,27.35 40.35,24.8 l 4,-0.65 Q 47,44.75 61.25,59.85 74.4,44.45 78.3,24.1 l 5,0.7 q 7.6,2.6 13.25,7.35 m 7.05,7.05 0.9,1.4 21.15,25.3 -17.15,16.65 -8.25,-10 q 0.9,-19 0,-37.5 l 3.35,4.15 M 50.05,23.85 q 11.4,-1.1 23.3,0 L 74,23.95 Q 72.05,40.9 61.3,53.15 49.7,41.15 48.95,23.95 l 1.1,-0.1 M 20.1,39.15 q 1.55,-2.25 3.45,-4.25 -0.9,18.6 0.05,37.65 L 23.5,72.5 15.35,82.25 -1.7,65.65 19.1,40.6 l 0.95,-1.35 0.05,-0.1"
         fill="#ffffff"
         fill-rule="evenodd"
         stroke="none"
         id="path920" />
    </g>
  </defs>
</svg>
