<?xml version="1.0" encoding="UTF-8" standalone="no"?>
<!-- Created with Inkscape (http://www.inkscape.org/) -->

<svg
   width="75"
   height="100"
   viewBox="0 0 75 100"
   version="1.1"
   id="svg5"
   inkscape:version="1.2.1 (9c6d41e410, 2022-07-14)"
   sodipodi:docname="armor_shield_light.svg"
   xml:space="preserve"
   xmlns:inkscape="http://www.inkscape.org/namespaces/inkscape"
   xmlns:sodipodi="http://sodipodi.sourceforge.net/DTD/sodipodi-0.dtd"
   xmlns="http://www.w3.org/2000/svg"
   xmlns:svg="http://www.w3.org/2000/svg"><sodipodi:namedview
     id="namedview7"
     pagecolor="#ffffff"
     bordercolor="#999999"
     borderopacity="1"
     inkscape:pageshadow="0"
     inkscape:pageopacity="0"
     inkscape:pagecheckerboard="0"
     inkscape:document-units="px"
     showgrid="false"
     height="70mm"
     units="px"
     inkscape:zoom="16.75105"
     inkscape:cx="20.506177"
     inkscape:cy="52.951904"
     inkscape:window-width="3840"
     inkscape:window-height="2066"
     inkscape:window-x="-11"
     inkscape:window-y="-11"
     inkscape:window-maximized="1"
     inkscape:current-layer="layer1"
     inkscape:showpageshadow="2"
     inkscape:deskcolor="#d1d1d1" /><defs
     id="defs2" /><g
     inkscape:label="Layer 1"
     inkscape:groupmode="layer"
     id="layer1"><path
       style="fill:#ffffff;fill-rule:evenodd;stroke-width:0.0596978"
       d="m 46.206058,83.602699 c -0.0985,-0.05104 -0.259685,-0.168539 -0.358186,-0.261106 -0.0985,-0.09257 -0.246254,-0.202274 -0.328338,-0.2438 -0.290573,-0.146994 -0.618588,-0.445429 -0.880253,-0.800875 -0.145734,-0.19797 -0.355766,-0.424541 -0.466737,-0.503497 C 44.061573,81.714465 43.693436,81.284229 43.354462,80.83735 42.85859,80.183617 42.66939,79.873171 42.386318,79.248763 42.042494,78.49035 41.487955,77.4297 41.277133,77.12726 c -0.05808,-0.08331 -0.212409,-0.432546 -0.342965,-0.776072 -0.130556,-0.343526 -0.331614,-0.869589 -0.446797,-1.16903 -0.115183,-0.299441 -0.30398,-0.930744 -0.419549,-1.402897 -0.388186,-1.585913 -0.577756,-2.439518 -0.578457,-2.604707 -3.59e-4,-0.09024 -0.07132,-0.499881 -0.157632,-0.910303 -0.151282,-0.719345 -0.222443,-1.452451 -0.296109,-3.050536 -0.02757,-0.598171 -0.008,-0.935188 0.09536,-1.646058 0.08779,-0.603491 0.120168,-1.047618 0.09966,-1.367098 -0.08686,-1.35317 -0.164358,-2.357582 -0.203847,-2.642056 l -0.04417,-0.318215 -0.988732,-0.01666 c -0.556231,-0.0094 -1.120854,-0.05052 -1.290772,-0.09407 -0.3724,-0.09544 -0.52604,-0.05097 -0.469794,0.135981 0.151219,0.502626 0.210924,4.03861 0.08642,5.118357 -0.03218,0.279086 -0.08241,0.789502 -0.11163,1.134257 -0.05593,0.65996 -0.138179,1.363267 -0.240861,2.059572 -0.03389,0.229836 -0.08718,0.632796 -0.118417,0.895466 -0.09834,0.826996 -0.170392,1.361184 -0.2335,1.731235 -0.03359,0.197003 -0.08973,0.546235 -0.124748,0.776071 -0.16962,1.113342 -0.673378,2.878879 -1.012358,3.54804 -0.105432,0.20813 -0.2493,0.563439 -0.569656,1.406873 -0.0873,0.229836 -0.214855,0.565636 -0.283461,0.746222 -0.125338,0.329914 -0.28233,0.644742 -0.690396,1.384492 -0.324864,0.588919 -1.620125,2.137007 -2.190388,2.617938 -0.131335,0.110757 -0.394633,0.34673 -0.585106,0.524373 -0.341622,0.318619 -0.35052,0.322636 -0.656675,0.296632 -0.293342,-0.02492 -0.694823,-0.196185 -1.677854,-0.71574 -0.167224,-0.08838 -0.340713,-0.162259 -0.385531,-0.164169 -0.04482,-0.0019 -0.367186,-0.141287 -0.716373,-0.30973 -0.793089,-0.382561 -1.270935,-0.574394 -2.515365,-1.009776 -1.256617,-0.439644 -2.63416,-1.078798 -3.283376,-1.523426 -0.279087,-0.191141 -0.776071,-0.531686 -1.104408,-0.756777 -0.328338,-0.22509 -0.865618,-0.585277 -1.193955,-0.800409 -0.328338,-0.215133 -0.704434,-0.492883 -0.835769,-0.617215 -0.131335,-0.124333 -0.589984,-0.455429 -1.019219,-0.735763 -0.706297,-0.461291 -1.458237,-1.129541 -1.458237,-1.295939 0,-0.02977 -0.167129,-0.193205 -0.371397,-0.363199 C 14.7368,75.04293 14.500095,74.816293 14.415056,74.709286 13.755898,73.879843 12.65801,72.760205 12.204458,72.454894 11.754065,72.15171 11.374439,71.780369 11.114442,71.388667 10.99308,71.205827 10.699256,70.826765 10.461499,70.546307 9.373881,69.263341 8.9150443,68.382979 8.4373859,66.66266 8.3362753,66.298504 8.2522557,66.133599 8.0571852,65.916438 7.6637073,65.478404 7.1978745,64.453626 7.0756602,63.757197 7.0497317,63.609445 6.9883174,63.327373 6.9391841,63.13037 6.8900507,62.933368 6.8163924,62.584136 6.7754989,62.354299 6.7346054,62.124463 6.5828862,61.646987 6.4383452,61.293241 6.065131,60.379848 5.8802283,59.548654 5.8802283,58.784338 c 0,-0.603064 0.00452,-0.6233 0.2165899,-0.97058 0.1191245,-0.19507 0.3056678,-0.504379 0.4145409,-0.687352 0.4578187,-0.769414 1.5727303,-1.784325 2.3239078,-2.115469 0.1641688,-0.07237 0.6477206,-0.245954 1.0745595,-0.38574 0.4268386,-0.139785 0.8432306,-0.288498 0.9253156,-0.330471 0.08208,-0.04197 0.626057,-0.19946 1.208829,-0.349969 0.582771,-0.150509 1.254371,-0.357834 1.492444,-0.460723 0.842073,-0.363922 1.284676,-0.46975 2.581977,-0.617361 0.930088,-0.105829 1.754409,-0.152853 3.19383,-0.182192 1.067097,-0.02175 2.410297,-0.07788 2.984887,-0.124731 0.574591,-0.04685 1.958087,-0.113718 3.074435,-0.148593 1.116347,-0.03487 2.054385,-0.0878 2.084526,-0.117608 0.03323,-0.03287 0.01744,-0.19006 -0.04011,-0.39937 -0.274768,-0.999216 -0.369225,-2.095212 -0.264259,-3.06624 l 0.04892,-0.452554 -1.660759,0.02554 c -3.682885,0.05664 -6.071399,0.04506 -6.496277,-0.03149 -0.229836,-0.04141 -0.807412,-0.132159 -1.283502,-0.201667 -0.476089,-0.06951 -0.999937,-0.148042 -1.164106,-0.174519 -0.164168,-0.02648 -0.593992,-0.09013 -0.955164,-0.141446 -0.361171,-0.05132 -0.790995,-0.122346 -0.955164,-0.157841 -1.613236,-0.348789 -2.586032,-0.591869 -2.805794,-0.701106 -0.0985,-0.04896 -0.299981,-0.122741 -0.447733,-0.163952 C 10.93142,46.689247 9.708307,46.164544 9.2794765,45.905441 9.0447973,45.763645 8.674229,45.515528 8.4559916,45.354068 8.2377541,45.192608 7.9834232,45.02108 7.8908117,44.972893 7.5291342,44.78471 6.9590999,44.312211 6.4025836,43.739308 c -0.3201291,-0.329555 -0.582053,-0.619027 -0.582053,-0.64327 0,-0.02424 -0.1514927,-0.227635 -0.3366503,-0.45198 -0.5133221,-0.621963 -0.5787417,-0.808885 -0.5374116,-1.53553 0.061406,-1.079607 0.043344,-1.005953 0.8507204,-3.469097 0.1399105,-0.426839 0.3491144,-0.983482 0.4648974,-1.236983 0.1157832,-0.253503 0.2890639,-0.68346 0.3850684,-0.955461 0.1974717,-0.559479 1.6052267,-3.414957 1.9463044,-3.947866 0.1230748,-0.192295 0.3109691,-0.447503 0.4175429,-0.567128 0.1065738,-0.119626 0.2934236,-0.374773 0.4152218,-0.566994 0.1217982,-0.192221 0.3723045,-0.487725 0.5566807,-0.656675 0.7282423,-0.667313 1.0134683,-1.000243 1.2949703,-1.511547 0.245044,-0.445085 0.42148,-0.656606 1.136624,-1.362639 0.465604,-0.459672 0.941431,-0.960154 1.057394,-1.11218 0.470544,-0.616881 0.694349,-0.845 1.063901,-1.084401 0.213123,-0.138064 0.522075,-0.359929 0.686559,-0.493033 0.164484,-0.133104 0.594566,-0.453822 0.955737,-0.712708 0.361172,-0.258886 0.804427,-0.595915 0.985013,-0.748953 0.180586,-0.153038 0.495173,-0.379476 0.699082,-0.503195 0.20391,-0.12372 0.53971,-0.37229 0.746222,-0.552377 0.494953,-0.431619 0.973251,-0.748703 1.62913,-1.080021 0.295504,-0.149274 0.784808,-0.427782 1.087341,-0.618908 0.302535,-0.191125 0.571175,-0.347611 0.596978,-0.347746 0.0258,-1.37e-4 0.365293,-0.160188 0.75442,-0.355672 0.389127,-0.195484 0.926407,-0.425291 1.193955,-0.510682 0.267548,-0.08539 0.728227,-0.257633 1.023731,-0.382761 0.295503,-0.125127 0.805919,-0.285538 1.134257,-0.356468 0.328337,-0.07093 0.704433,-0.158399 0.835768,-0.194375 0.131335,-0.03598 0.453703,-0.112559 0.716373,-0.170183 0.603162,-0.132319 1.310328,-0.383 1.49892,-0.531347 0.16727,-0.131575 0.651431,-0.213549 0.916901,-0.155242 0.122691,0.02695 0.239135,0.123062 0.357478,0.295068 0.118663,0.17247 0.286871,0.311094 0.519295,0.427963 0.245853,0.123621 0.53416,0.368422 1.012113,0.859385 0.367581,0.377589 0.759444,0.807412 0.870805,0.955164 0.299001,0.396708 0.787574,1.272717 1.032144,1.850631 0.118109,0.279087 0.241801,0.55615 0.274871,0.615695 0.06007,0.108171 0.298999,0.774719 0.560354,1.563272 0.283774,0.856196 0.538788,1.910654 0.656908,2.716248 0.202246,1.379343 0.409411,6.194157 0.428955,9.969524 l 0.0153,2.955039 1.151533,0.03246 c 1.144454,0.03226 1.386992,0.06651 2.558495,0.361288 0.248489,0.06253 0.471761,0.113685 0.49616,0.113685 0.0244,0 0.02822,-0.90666 0.0085,-2.014799 -0.05049,-2.835923 -0.03355,-7.867266 0.03292,-9.775507 0.0499,-1.432465 0.07532,-1.698204 0.228475,-2.38791 0.09478,-0.426839 0.271879,-1.017846 0.39355,-1.31335 0.12167,-0.295504 0.336678,-0.832784 0.477794,-1.193955 0.280816,-0.718722 0.723315,-1.606331 1.056517,-2.11927 0.117308,-0.180586 0.468395,-0.599928 0.780196,-0.931872 0.311801,-0.331944 0.667295,-0.760459 0.789987,-0.952257 0.122691,-0.191798 0.32693,-0.457487 0.453864,-0.590421 0.126934,-0.132934 0.345436,-0.393044 0.485561,-0.578022 0.140124,-0.184978 0.338075,-0.393893 0.439892,-0.464257 0.217357,-0.15021 0.88769,-0.242986 1.760634,-0.243677 0.657433,-5.2e-4 0.834678,0.0504 1.964447,0.564361 0.410422,0.186711 0.880542,0.388187 1.044711,0.447725 0.819842,0.297324 2.247117,1.016685 3.014736,1.519458 0.806735,0.528392 1.195067,0.767274 1.694183,1.042172 0.200964,0.110685 0.553438,0.331724 0.783274,0.491199 0.229836,0.159474 0.655021,0.44501 0.944855,0.634523 0.289833,0.189513 0.827113,0.580819 1.193955,0.869568 0.587631,0.462538 0.96233,0.708502 1.973982,1.295783 0.302035,0.175335 0.663582,0.442264 0.868581,0.64127 0.08022,0.07788 0.338463,0.286551 0.57387,0.463724 0.425451,0.320203 1.973321,1.911936 2.112938,2.172814 0.07799,0.145728 0.822201,1.129444 0.930056,1.229372 0.101953,0.09446 0.532476,0.692907 0.687145,0.955164 0.07746,0.131335 0.328099,0.493999 0.55698,0.805919 0.228881,0.311921 0.484489,0.660199 0.568024,0.773951 0.08353,0.113752 0.193128,0.248524 0.243543,0.299491 0.218583,0.220971 0.721286,0.959785 0.914707,1.344317 0.115604,0.229836 0.440008,0.740252 0.720892,1.134257 0.527626,0.74011 1.118885,1.86096 1.543073,2.92519 0.482012,1.20931 0.956269,2.590268 1.185126,3.450887 0.211312,0.794623 0.235048,0.956085 0.235048,1.598832 0,0.867015 -0.04587,0.993518 -0.514022,1.417777 -0.193379,0.175245 -0.579939,0.529156 -0.859026,0.78647 -0.279087,0.257314 -0.749207,0.630481 -1.044711,0.82926 -0.295504,0.198779 -0.711896,0.497824 -0.925315,0.664543 -0.407425,0.318274 -1.118091,0.706341 -1.522293,0.831265 -0.131335,0.04059 -0.547727,0.216196 -0.925315,0.390232 -0.449362,0.207119 -0.892752,0.360516 -1.283501,0.444048 -0.328338,0.07019 -0.771594,0.179245 -0.985013,0.242345 -0.67603,0.199877 -1.645741,0.41174 -2.190069,0.478487 -0.289399,0.03549 -0.929139,0.150628 -1.421645,0.25587 l -0.895466,0.191348 h -4.971879 c -4.352929,0 -4.979364,0.01115 -5.032002,0.08955 -0.03841,0.05721 -0.04583,0.445194 -0.02054,1.07456 0.02177,0.541757 0.04449,1.479802 0.05049,2.084544 0.01021,1.028472 0.01842,1.102468 0.127057,1.144986 0.168638,0.066 0.621724,0.06316 0.860721,-0.0054 0.113577,-0.03257 0.71784,-0.114569 1.342805,-0.182212 0.99231,-0.107403 1.397288,-0.119484 3.195873,-0.09534 1.132765,0.01521 2.261053,0.05694 2.507306,0.09274 0.246253,0.0358 0.944717,0.09055 1.552141,0.121676 0.607425,0.03112 1.279024,0.08384 1.492444,0.117151 0.820163,0.128009 1.301589,0.192808 1.790932,0.241056 1.018948,0.100467 2.734919,0.564125 3.508433,0.947984 0.319477,0.158541 0.773747,0.347852 1.009493,0.420691 0.354539,0.109545 0.499008,0.19666 0.835769,0.503984 0.531005,0.484587 0.803233,0.653195 1.258142,0.779257 0.607144,0.168249 0.735249,0.241851 1.329069,0.763629 1.031738,0.906564 1.169395,1.098377 1.637425,2.281534 0.207462,0.524453 0.186383,0.843374 -0.101068,1.529297 -0.287707,0.68653 -0.793986,2.255869 -0.905161,2.805794 -0.136308,0.674234 -0.298829,1.094449 -0.715746,1.85063 -0.400387,0.726203 -0.92842,1.737339 -1.816489,3.478427 -0.571953,1.121327 -0.613508,1.189274 -1.158519,1.89437 -0.571546,0.739428 -0.761528,0.950248 -1.140627,1.265742 -0.199085,0.165677 -0.48417,0.453751 -0.633524,0.640164 -0.333464,0.416203 -0.923558,1.08975 -1.174325,1.340402 -0.102519,0.102472 -0.419997,0.413602 -0.705505,0.6914 -0.285509,0.277798 -0.560096,0.573302 -0.610194,0.656675 -0.0501,0.08337 -0.202741,0.236936 -0.339206,0.34125 -0.136465,0.104314 -0.39587,0.302918 -0.576455,0.441343 -0.180586,0.138424 -0.637705,0.551071 -1.01582,0.916993 -0.652804,0.631752 -1.377018,1.21565 -1.845359,1.487824 -0.11729,0.06816 -0.495327,0.336003 -0.840082,0.595199 -0.701756,0.527602 -0.92866,0.652795 -1.701386,0.938693 -0.629581,0.232947 -0.710606,0.278478 -1.223804,0.687772 -0.213419,0.17021 -0.656675,0.444748 -0.985012,0.610087 -0.328338,0.165339 -0.731298,0.369523 -0.895467,0.453751 -0.329383,0.168986 -1.951308,0.922748 -2.328212,1.081997 -0.357314,0.150976 -1.686343,0.618899 -2.048307,0.721167 -0.174389,0.04927 -0.479564,0.209205 -0.678167,0.355411 -0.389541,0.286764 -0.565919,0.322284 -0.855391,0.172276 z M 46.7452,82.628061 c 0.142941,-0.125508 0.487803,-0.266335 1.261534,-0.515174 0.585649,-0.188352 1.177986,-0.395187 1.316304,-0.459636 l 0.251488,-0.117181 0.02584,-3.531564 c 0.02443,-3.339715 0.065,-4.241117 0.219394,-4.874763 0.117148,-0.480789 0.18679,-1.829739 0.237314,-4.596726 0.02728,-1.493937 0.07944,-2.93116 0.115923,-3.19383 0.03648,-0.26267 0.08981,-1.082022 0.118515,-1.820781 0.0287,-0.73876 0.0883,-1.490952 0.132432,-1.671537 0.1044,-0.427187 0.07758,-2.179836 -0.04339,-2.835644 -0.04845,-0.26267 -0.129676,-0.759653 -0.180496,-1.104408 -0.05082,-0.344754 -0.115717,-0.72085 -0.144213,-0.835768 -0.0285,-0.114919 -0.08253,-0.383558 -0.12008,-0.596978 -0.03755,-0.213419 -0.104997,-0.562651 -0.149887,-0.776071 -0.04489,-0.213419 -0.0981,-0.576083 -0.118246,-0.805919 -0.02014,-0.229837 -0.06052,-0.538772 -0.08972,-0.686524 -0.0292,-0.147752 -0.06898,-0.376096 -0.08841,-0.507431 l -0.03532,-0.238791 -0.788297,0.02083 c -0.433562,0.01146 -0.795423,0.02754 -0.804134,0.03574 -0.0087,0.0082 -0.05712,0.173436 -0.107587,0.3672 -0.105132,0.403682 -0.839385,1.90087 -1.299941,2.650662 -0.301126,0.490237 -1.041367,1.516194 -1.270644,1.761083 -0.06148,0.06567 -0.185665,0.228303 -0.275963,0.361411 -0.0903,0.133108 -0.251483,0.32541 -0.358187,0.427339 -0.197582,0.18874 -1.274483,0.852119 -1.386244,0.853939 -0.07108,0.0012 -0.757204,0.343638 -1.404615,0.701123 -0.407484,0.225002 -0.925571,0.384017 -1.68655,0.517646 l -0.223955,0.03933 0.03357,0.87782 c 0.01846,0.482801 0.07562,1.145607 0.127021,1.472903 0.09601,0.61138 0.08175,1.269289 -0.04209,1.942071 -0.181925,0.988331 -0.104531,3.255519 0.155897,4.566878 0.07825,0.394005 0.142581,0.790743 0.142964,0.881639 3.59e-4,0.0909 0.05193,0.359536 0.11455,0.596978 0.06262,0.237441 0.145872,0.592895 0.185007,0.789898 0.193091,0.972008 0.50241,2.101054 0.752334,2.746096 0.152659,0.394005 0.338429,0.88361 0.412822,1.088011 0.07439,0.2044 0.240188,0.540197 0.368433,0.74622 0.279161,0.448462 0.884226,1.632907 1.151981,2.255065 0.10598,0.246253 0.253128,0.514893 0.326996,0.596977 0.07387,0.08209 0.250762,0.323861 0.393095,0.53728 0.142334,0.21342 0.488616,0.620833 0.769515,0.905358 0.280899,0.284532 0.617242,0.642951 0.74743,0.796494 0.130186,0.153548 0.35853,0.340951 0.50743,0.416463 0.1489,0.07551 0.321903,0.193928 0.384452,0.263142 0.06255,0.06922 0.126161,0.125849 0.141363,0.125849 0.0152,0 0.116162,-0.07773 0.224357,-0.172718 z m -16.508465,-0.60564 c 0.391419,-0.362425 0.772345,-0.745236 0.846501,-0.850692 0.07416,-0.105451 0.326954,-0.423598 0.561772,-0.706989 0.481624,-0.581247 1.054915,-1.609547 1.326934,-2.380084 0.17226,-0.487957 0.420022,-1.096761 0.864231,-2.123609 0.308887,-0.714029 0.731986,-2.267832 0.880139,-3.232243 0.03169,-0.206322 0.08552,-0.556463 0.119614,-0.778091 0.118795,-0.772268 0.418345,-3.155217 0.504665,-4.014674 0.04782,-0.47609 0.121213,-1.134257 0.163104,-1.462595 0.04901,-0.384155 0.07483,-1.299291 0.07243,-2.567003 -0.0032,-1.660045 -0.01959,-2.026011 -0.104471,-2.32583 -0.0554,-0.195693 -0.100734,-0.445028 -0.100734,-0.554078 0,-0.10905 -0.03358,-0.20738 -0.07462,-0.218511 -0.278288,-0.07547 -1.40041,-0.474887 -1.746159,-0.62154 -0.563739,-0.239116 -0.919525,-0.446449 -1.231588,-0.7177 -0.143471,-0.124708 -0.530836,-0.430053 -0.860811,-0.678546 -0.702029,-0.528671 -0.998996,-0.838757 -2.446864,-2.554956 -0.4278,-0.507083 -0.680766,-1.032293 -1.003309,-2.083075 -0.163073,-0.531259 -0.301942,-0.880639 -0.363787,-0.91525 -0.165255,-0.09248 -0.96507,-0.132841 -1.0155,-0.05124 -0.07291,0.11797 0.08984,1.550118 0.244785,2.154103 0.153084,0.596713 0.170268,0.676957 0.389909,1.820781 0.118659,0.61794 0.136577,0.888632 0.130404,1.970026 -0.0039,0.689509 -0.03564,1.817796 -0.07045,2.507305 -0.03481,0.689509 -0.09179,2.581523 -0.126612,4.204476 -0.06282,2.927475 -0.07445,3.106273 -0.390543,6.00384 -0.05015,0.459672 -0.117697,1.171568 -0.150116,1.58199 -0.03242,0.410422 -0.08769,1.108886 -0.122829,1.552141 -0.03514,0.443256 -0.09063,1.0074 -0.12331,1.253653 -0.04945,0.372598 -0.166537,3.100212 -0.194647,4.534432 l -0.0076,0.385439 0.447733,0.222893 c 0.246253,0.122596 0.764123,0.34882 1.150821,0.502727 0.386698,0.153907 0.767302,0.330343 0.845786,0.392077 0.144091,0.113342 0.739399,0.40813 0.826376,0.409204 0.02587,5.97e-4 0.367288,-0.295946 0.758707,-0.658377 z m 20.770014,-1.131624 c 0.500988,-0.229645 0.982413,-0.467911 1.069835,-0.529477 0.172388,-0.121408 0.797636,-0.426033 0.874435,-0.426033 0.02601,0 0.224898,-0.144427 0.441972,-0.320947 0.489558,-0.398101 0.939427,-0.652795 1.474612,-0.834861 0.590364,-0.200842 0.939989,-0.391045 1.516921,-0.825244 0.279087,-0.210041 0.735775,-0.531483 1.014862,-0.714314 0.684198,-0.448228 0.880322,-0.610236 1.611839,-1.331421 0.344755,-0.339886 0.788011,-0.739938 0.985013,-0.889004 0.197003,-0.149067 0.452211,-0.344589 0.567129,-0.434494 l 0.208942,-0.163463 0.02183,-3.496465 c 0.03724,-5.964759 0.03344,-8.050848 -0.01689,-9.257299 -0.03836,-0.919655 -0.02831,-1.363772 0.04787,-2.114941 0.09839,-0.970151 0.140575,-4.889151 0.05903,-5.484069 l -0.0374,-0.272852 -0.425258,-0.07191 c -1.840984,-0.311299 -7.153482,-0.665773 -8.544154,-0.570105 -1.361463,0.09366 -1.842356,0.15218 -1.924358,0.234183 -0.07618,0.07618 -0.07517,0.163868 0.0081,0.705943 0.221256,1.439705 0.336595,2.136011 0.418963,2.529289 0.04814,0.229837 0.131251,0.699957 0.184698,1.044711 0.05345,0.344755 0.147343,0.895466 0.208658,1.223804 0.06132,0.328338 0.128289,0.986505 0.148831,1.462595 0.03183,0.737599 0.01913,0.956762 -0.08584,1.481907 -0.09612,0.480859 -0.123467,0.848183 -0.124438,1.671537 -8.48e-4,0.716774 -0.02975,1.17971 -0.09012,1.443283 -0.0666,0.290786 -0.102956,1.091221 -0.145065,3.193829 -0.06002,2.996992 -0.136615,4.443291 -0.273553,5.165371 -0.04686,0.247086 -0.112,0.703773 -0.14476,1.014861 -0.07167,0.680539 -0.08262,6.983122 -0.01213,6.983122 0.02722,0 0.459398,-0.187893 0.960385,-0.417538 z M 25.808714,80.099455 c 0.03773,-0.467881 0.0821,-1.428268 0.09859,-2.134194 0.01649,-0.705926 0.05458,-1.498414 0.08466,-1.761084 0.07311,-0.638568 0.166983,-1.673199 0.241032,-2.65655 0.06883,-0.914085 0.195212,-2.185888 0.326271,-3.283376 0.140484,-1.176415 0.160868,-1.587986 0.22471,-4.537029 0.03305,-1.52677 0.08394,-3.299793 0.113091,-3.940051 0.125393,-2.754261 0.129985,-3.438291 0.02757,-4.106645 -0.122775,-0.80121 -0.288697,-1.638864 -0.441466,-2.228719 -0.118918,-0.459158 -0.211042,-1.054222 -0.279118,-1.80293 l -0.03704,-0.407435 -1.502138,0.03325 c -0.826175,0.01829 -1.811073,0.06106 -2.188661,0.09505 -0.377589,0.03399 -1.707356,0.08641 -2.955039,0.116491 -1.247683,0.03008 -2.483426,0.08312 -2.746096,0.117887 -0.26267,0.03476 -0.73279,0.08759 -1.044711,0.117388 -0.311921,0.0298 -0.634646,0.08066 -0.717167,0.113022 l -0.150038,0.05884 -0.02003,2.860408 c -0.0209,2.984516 0.0042,3.418653 0.240025,4.15097 0.09101,0.282623 0.109318,0.529217 0.106372,1.432746 -0.0038,1.176617 -0.02292,1.333763 -0.266644,2.195775 -0.158006,0.558839 -0.161125,0.605087 -0.213418,3.163981 -0.02919,1.428269 -0.06896,2.905788 -0.08837,3.283376 -0.02999,0.583289 -0.01657,0.755931 0.08925,1.148085 0.146208,0.541796 0.167245,1.27802 0.04143,1.450076 -0.07451,0.101896 -0.06059,0.141408 0.13432,0.381301 0.119593,0.147195 0.580105,0.635036 1.023361,1.084092 0.623539,0.631698 0.947772,0.907249 1.432746,1.217624 0.344755,0.220636 0.734283,0.50388 0.865618,0.629431 0.131335,0.125556 0.816366,0.615376 1.522292,1.088499 0.705926,0.473122 1.46374,0.983872 1.68403,1.134997 0.518732,0.355876 2.132978,1.099674 3.121639,1.43837 0.426839,0.146223 0.843231,0.293677 0.925315,0.327669 0.08209,0.034 0.178443,0.06352 0.21413,0.0656 0.04086,0.0024 0.09029,-0.311181 0.133494,-0.846909 z m 36.200735,-6.984636 c 0.404491,-0.402214 0.909479,-0.94554 1.122198,-1.207391 0.388125,-0.477775 0.55053,-0.647972 1.258343,-1.318707 0.784234,-0.743157 1.145489,-1.295309 2.262828,-3.458602 0.288298,-0.558174 0.743488,-1.431253 1.011537,-1.940176 0.795938,-1.511198 0.890821,-1.729712 1.023941,-2.358062 0.122769,-0.579504 0.666705,-2.291272 0.975796,-3.070829 0.08383,-0.211436 0.152426,-0.445153 0.152426,-0.519369 0,-0.188083 -0.441184,-1.186191 -0.639739,-1.447301 -0.09029,-0.118747 -0.244904,-0.283063 -0.343572,-0.365147 -0.09866,-0.08208 -0.331926,-0.288428 -0.518362,-0.45854 -0.4089,-0.37311 -0.612057,-0.483501 -1.140657,-0.619792 C 66.700457,56.228758 66.286136,55.978824 65.777858,55.50859 65.510239,55.261 65.324,55.143194 65.091334,55.074334 c -0.175601,-0.05197 -0.628212,-0.240826 -1.0058,-0.419674 -0.505236,-0.23931 -0.940775,-0.388833 -1.649355,-0.566234 -0.529557,-0.132581 -0.999677,-0.241059 -1.044711,-0.241064 -0.06825,-7e-6 -0.07836,0.358141 -0.06076,2.151627 0.01636,1.666792 -0.0024,2.443654 -0.08306,3.447553 -0.0816,1.015027 -0.09325,1.51589 -0.05375,2.31078 0.06194,1.246595 0.06104,4.561164 -0.0024,8.850191 -0.03448,2.330954 -0.02963,3.238603 0.0173,3.238603 0.03586,0 0.396155,-0.329084 0.800646,-0.731297 z m -47.608924,-0.26864 c -0.01817,-0.287296 -0.07875,-0.65171 -0.134613,-0.809811 -0.08515,-0.240992 -0.09515,-0.414681 -0.06183,-1.074559 0.02186,-0.432907 0.06258,-1.888528 0.0905,-3.234712 0.05141,-2.479544 0.08428,-2.874669 0.293423,-3.527631 0.295452,-0.922413 0.31792,-2.453321 0.05004,-3.40988 l -0.153982,-0.549852 -0.01399,-3.006102 c -0.0077,-1.653356 0.0045,-3.036053 0.02714,-3.072661 0.09443,-0.15279 -0.107122,-0.119666 -0.775612,0.127469 -0.389121,0.143853 -0.935835,0.320108 -1.214922,0.391676 -1.020416,0.261673 -1.407943,0.37462 -1.641689,0.478481 -0.131335,0.05836 -0.588022,0.221192 -1.0148613,0.361857 -0.8530665,0.281129 -0.8995889,0.30497 -1.4660344,0.751305 -0.4746521,0.374006 -0.9067846,0.845576 -1.1427321,1.247023 -0.096489,0.164169 -0.2694813,0.44624 -0.3844267,0.626826 -0.2029339,0.31882 -0.2080755,0.341543 -0.1773794,0.783921 0.040261,0.580226 0.2732433,1.519656 0.5035337,2.030349 0.1911963,0.423997 0.428162,1.219885 0.4287004,1.439861 1.79e-4,0.07351 0.09424,0.509749 0.2090217,0.969422 0.2380474,0.953318 0.5402314,1.63472 0.9398426,2.11927 0.1988872,0.241162 0.3121026,0.45992 0.4264124,0.823926 0.085597,0.272573 0.1556309,0.536197 0.1556309,0.58583 0,0.119754 0.452179,1.207812 0.7012772,1.687451 0.211735,0.407697 0.456238,0.75132 0.953331,1.339802 0.171274,0.202763 0.426482,0.528207 0.567128,0.723209 0.34674,0.480745 0.760661,0.89022 1.32491,1.310676 0.53566,0.399151 0.657263,0.513447 1.102345,1.036098 0.174755,0.205211 0.345668,0.373111 0.379807,0.373111 0.04075,0 0.05072,-0.179414 0.02903,-0.522355 z M 40.385528,60.260417 c 0.246253,-0.04834 0.595485,-0.163557 0.77607,-0.256034 0.180586,-0.09248 0.556682,-0.286608 0.835769,-0.431404 0.279087,-0.144795 0.730301,-0.367439 1.002698,-0.494763 0.594258,-0.277768 1.019259,-0.581734 1.212742,-0.867368 0.07844,-0.115801 0.276941,-0.371584 0.44111,-0.568407 0.331201,-0.397079 0.312724,-0.371459 0.891663,-1.236314 0.515441,-0.769999 1.309836,-2.339879 1.428505,-2.823005 0.335964,-1.367786 0.345221,-1.533033 0.236014,-4.213083 -0.05087,-1.248353 -0.0667,-1.376923 -0.224194,-1.820781 -0.344924,-0.972085 -0.602771,-1.473617 -1.121011,-2.18046 -0.18764,-0.255927 -0.439244,-0.649078 -0.559119,-0.873667 -0.483584,-0.906 -0.921496,-1.404294 -1.696864,-1.930836 -0.193037,-0.131089 -0.551574,-0.408819 -0.796749,-0.617179 -0.245174,-0.208359 -0.61611,-0.463652 -0.824301,-0.567318 -0.625395,-0.311405 -2.375212,-0.969483 -2.885835,-1.085315 -1.435087,-0.325544 -1.664432,-0.357368 -2.57302,-0.357027 -0.94671,3.58e-4 -1.160542,0.04006 -1.516276,0.281549 -0.497736,0.337886 -0.757738,0.536398 -0.925315,0.706479 -0.0985,0.09997 -0.420869,0.311908 -0.716373,0.470966 -1.157161,0.622856 -2.466327,1.579711 -2.879483,2.104584 -0.189275,0.240455 -1.269511,2.013296 -1.269511,2.083471 0,0.02262 -0.144188,0.259027 -0.320417,0.525355 -0.499069,0.754221 -0.709938,1.354298 -0.900517,2.562625 -0.165103,1.046809 -0.104799,1.788413 0.263034,3.234708 0.09186,0.361172 0.199694,0.804427 0.239639,0.985013 0.03995,0.180586 0.189964,0.704434 0.333373,1.164106 0.265346,0.850523 0.531159,1.379796 0.884458,1.761084 0.106483,0.114918 0.299134,0.343262 0.428115,0.507431 0.474679,0.604181 1.389087,1.492509 2.057203,1.998529 0.377588,0.285979 0.723104,0.564109 0.767814,0.618067 0.159749,0.192792 1.806101,0.889984 2.426015,1.02736 0.0985,0.02183 0.367142,0.09427 0.596978,0.160978 0.763053,0.221474 1.404476,0.280097 2.716248,0.248256 0.70731,-0.01717 1.412765,-0.0668 1.671537,-0.1176 z m -15.504077,-12.654679 1.181443,-0.03155 0.05699,-0.149888 c 0.03134,-0.08244 0.08309,-0.558165 0.114982,-1.057173 0.0319,-0.499008 0.08887,-1.363974 0.126604,-1.922148 0.05135,-0.759499 0.05173,-1.488034 0.0015,-2.895341 -0.03689,-1.034264 -0.07858,-2.283439 -0.09264,-2.775946 -0.02295,-0.804027 -0.08399,-1.275794 -0.274208,-2.11927 -0.03332,-0.147752 -0.09115,-1.312327 -0.128507,-2.587945 -0.07202,-2.459267 -0.05472,-2.781889 0.197408,-3.680318 0.2097,-0.747246 0.25526,-1.767207 0.173327,-3.880354 -0.04137,-1.067097 -0.09293,-3.216216 -0.11457,-4.77582 -0.02164,-1.559604 -0.04528,-2.842359 -0.05254,-2.850568 -0.0548,-0.06197 -0.379659,0.01807 -0.799467,0.196975 -0.273478,0.116544 -0.739748,0.290507 -1.036155,0.386584 -0.296407,0.09608 -0.820255,0.319666 -1.164106,0.496866 -0.343852,0.177199 -0.689478,0.342069 -0.768059,0.366376 -0.07858,0.02431 -0.322689,0.160516 -0.542463,0.302687 -0.219774,0.142172 -0.692761,0.412475 -1.051081,0.600674 -0.784896,0.412247 -1.051147,0.588422 -1.636504,1.082858 -0.246254,0.208003 -0.612542,0.477695 -0.813974,0.599316 -0.201433,0.121621 -0.617825,0.424813 -0.925316,0.67376 -0.30749,0.248947 -0.679962,0.530076 -0.827714,0.624731 -0.147752,0.09465 -0.365168,0.253634 -0.483147,0.353288 -0.369002,0.311688 -0.462534,0.382616 -0.800222,0.606828 -0.328502,0.218112 -0.365965,0.263188 -0.285567,0.343587 0.0236,0.0236 0.04666,0.558637 0.05124,1.18898 0.0046,0.630342 0.0422,1.931701 0.08359,2.891908 0.0749,1.73752 0.07458,1.749598 -0.06617,2.537154 -0.140759,0.787619 -0.141365,0.810887 -0.129461,4.970166 0.0066,2.298364 0.02812,5.028284 0.04788,6.066491 0.03018,1.586366 0.02113,1.951411 -0.05673,2.287143 -0.05096,0.219723 -0.09265,0.624246 -0.09265,0.898941 v 0.499445 l 0.313413,0.06184 c 0.680992,0.134376 2.499917,0.419433 3.477394,0.544968 0.26267,0.03373 0.719358,0.09829 1.014862,0.143466 0.537229,0.08212 2.258492,0.08254 5.300589,0.0013 z m 2.66906,-0.639944 c 0.140418,-0.426976 0.309297,-0.787891 0.514941,-1.100498 0.1683,-0.255836 0.501299,-0.800957 0.739999,-1.211379 0.762342,-1.310778 0.818799,-1.396366 1.233235,-1.869574 0.223941,-0.2557 0.495118,-0.577669 0.602614,-0.715489 0.107496,-0.137819 0.272444,-0.345997 0.36655,-0.462618 0.194931,-0.241565 1.158829,-0.903002 1.736366,-1.191511 0.213419,-0.106615 0.482261,-0.268069 0.597425,-0.358787 0.225819,-0.177884 0.897749,-0.536028 1.005666,-0.536028 0.03632,0 0.173221,-0.04289 0.304231,-0.09531 0.215113,-0.08607 0.238683,-0.116451 0.243155,-0.313413 0.05418,-2.386313 0.05642,-5.042423 0.0049,-5.740145 -0.03519,-0.47609 -0.0918,-1.698401 -0.125812,-2.716248 -0.09154,-2.739613 -0.148895,-3.458206 -0.386232,-4.839113 -0.106456,-0.619393 -0.573603,-2.302859 -0.749141,-2.699692 -0.06494,-0.146811 -0.118075,-0.292458 -0.118075,-0.323662 0,-0.09919 -0.775423,-1.831964 -0.964355,-2.154966 -0.286202,-0.489298 -0.586423,-0.861212 -1.221431,-1.513113 -0.340944,-0.350013 -0.703601,-0.662099 -0.858799,-0.739041 -0.147752,-0.07325 -0.382212,-0.237154 -0.521022,-0.36423 -0.283141,-0.259207 -0.311613,-0.266605 -0.550549,-0.143046 -0.384401,0.198781 -1.195023,0.454779 -1.984558,0.626731 -0.461322,0.100471 -0.862358,0.197255 -0.891194,0.215076 -0.02884,0.01782 -0.05242,1.232774 -0.05242,2.700353 8e-6,2.150672 0.01777,2.760548 0.0916,3.145533 0.07075,0.368891 0.09452,1.000657 0.104461,2.775945 l 0.01287,2.298364 -0.208942,0.77607 -0.208942,0.776071 5.97e-4,2.208817 c 5.97e-4,2.280395 0.0311,2.711856 0.270075,3.820656 0.108549,0.503637 0.136268,0.900334 0.177284,2.537154 0.02674,1.067097 0.06761,2.249113 0.09081,2.626701 0.03978,0.647136 -0.02127,2.213504 -0.154726,3.969901 -0.03243,0.426838 -0.06495,0.870094 -0.07225,0.985012 l -0.01329,0.208943 0.328337,0.03453 c 0.180586,0.01899 0.355202,0.03066 0.388036,0.02594 0.03283,-0.0047 0.153722,-0.294493 0.26864,-0.643931 z m 21.874875,0.05779 c -0.01893,-0.236219 -0.05927,-0.626196 -0.08965,-0.866617 -0.07221,-0.571424 -0.06099,-7.156131 0.01344,-7.890708 0.06736,-0.664726 0.148694,-3.8325 0.229157,-8.924813 0.03165,-2.00286 0.08366,-3.990795 0.115575,-4.417634 0.14059,-1.879987 0.141081,-2.109025 0.0062,-2.865492 -0.07028,-0.394005 -0.151799,-0.90442 -0.181163,-1.134257 -0.02936,-0.229836 -0.08044,-0.632796 -0.113503,-0.895466 -0.03306,-0.26267 -0.09253,-0.670003 -0.132156,-0.905183 -0.06902,-0.409689 -0.08101,-0.431327 -0.28611,-0.516517 -0.117738,-0.0489 -0.442413,-0.187696 -0.7215,-0.308427 -0.98587,-0.426481 -1.121584,-0.462025 -1.61184,-0.422152 -1.012546,0.08235 -1.146255,0.115815 -1.310498,0.327975 -0.08365,0.108059 -0.301984,0.374685 -0.485181,0.592503 -0.183196,0.217818 -0.441782,0.557216 -0.574635,0.754219 -0.132852,0.197003 -0.437879,0.559666 -0.677836,0.80592 -0.239957,0.246253 -0.555207,0.608917 -0.700555,0.805919 -0.310632,0.421027 -0.850442,1.473719 -1.066639,2.08007 -0.08378,0.23498 -0.232979,0.601852 -0.331547,0.815271 -0.285661,0.618512 -0.468843,1.224859 -0.613195,2.029724 -0.117368,0.654406 -0.172881,3.391587 -0.162846,8.029347 0.0094,4.338027 0.02444,5.135943 0.103748,5.499081 0.10434,0.477757 0.03372,0.421857 1.013515,0.802212 0.574825,0.223144 0.966976,0.455317 1.393304,0.824905 0.320942,0.278228 0.681654,0.549804 1.234696,0.929591 0.552239,0.379235 1.124129,1.095502 1.551473,1.943153 0.09092,0.180349 0.319304,0.530197 0.507515,0.77744 0.425447,0.55889 0.822955,1.297279 1.076117,1.998936 0.10662,0.295504 0.214152,0.550712 0.238961,0.567129 0.02481,0.01642 0.397121,0.02164 0.82736,0.0116 l 0.782254,-0.01825 z m 8.630675,0.370143 c 0.180586,-0.03568 0.502954,-0.100782 0.716373,-0.144675 0.44968,-0.09248 1.4404,-0.255518 1.701386,-0.279982 0.139996,-0.01312 0.175748,-0.04285 0.163768,-0.136183 -0.06821,-0.531435 -0.07454,-1.243902 -0.01617,-1.820782 0.117628,-1.16244 0.180923,-2.116318 0.245599,-3.70126 0.03417,-0.837261 0.08644,-1.938685 0.116154,-2.447608 0.02972,-0.508923 0.08015,-2.51029 0.112075,-4.447482 0.04837,-2.935231 0.04416,-3.606726 -0.02524,-4.029598 -0.128734,-0.784409 -0.208159,-2.005968 -0.208159,-3.201499 0,-0.896153 -0.01609,-1.104297 -0.09114,-1.17935 -0.05013,-0.05013 -0.408176,-0.345624 -0.795667,-0.65666 -0.704533,-0.565525 -1.031355,-0.789173 -1.589404,-1.087648 -0.368783,-0.197245 -1.020869,-0.650389 -1.49369,-1.037987 -0.197002,-0.161494 -0.552773,-0.422456 -0.790602,-0.579915 -0.237829,-0.157459 -0.654221,-0.443146 -0.925315,-0.634861 -0.271095,-0.191715 -0.640651,-0.424229 -0.821237,-0.516698 -0.180586,-0.09247 -0.650705,-0.376706 -1.044711,-0.631637 -0.855145,-0.5533 -2.179573,-1.338736 -2.257421,-1.338736 -0.03051,0 -0.33313,-0.136616 -0.672482,-0.303591 -0.339351,-0.166975 -0.639791,-0.289507 -0.667644,-0.272293 -0.02785,0.01721 -0.01567,0.25457 0.02707,0.527458 0.04274,0.272888 0.102074,0.724503 0.131853,1.00359 0.06237,0.584565 0.08939,0.754689 0.255968,1.611839 0.129693,0.667353 0.125273,1.618009 -0.01083,2.328213 -0.03624,0.189134 -0.08756,2.074703 -0.121047,4.447482 -0.07557,5.355385 -0.155963,8.622004 -0.231392,9.402395 -0.03332,0.344755 -0.06176,2.162228 -0.06319,4.038829 -0.002,2.669972 0.01716,3.590208 0.08825,4.231427 0.04997,0.450684 0.101361,0.83643 0.114207,0.857215 0.04316,0.06983 7.799161,0.06983 8.152626,-3e-6 z m 4.178843,-0.828172 c 0.311921,-0.09205 0.793698,-0.210827 1.070616,-0.263943 0.332817,-0.06384 0.737542,-0.205739 1.193955,-0.41861 0.379759,-0.177119 0.895679,-0.393438 1.146493,-0.480709 0.330248,-0.114908 0.644628,-0.295163 1.139809,-0.653522 0.376084,-0.272165 0.869336,-0.623282 1.096116,-0.780258 0.226786,-0.156976 0.613812,-0.477212 0.860066,-0.711636 0.246253,-0.234423 0.582053,-0.537398 0.746221,-0.673277 l 0.298489,-0.247054 -0.0021,-0.64717 c -0.0018,-0.524042 -0.03417,-0.76075 -0.170306,-1.244149 -0.395121,-1.402901 -1.143468,-3.417814 -1.70726,-4.596726 -0.341363,-0.713823 -0.530432,-1.025172 -1.286922,-2.11927 -0.147561,-0.21342 -0.332964,-0.522356 -0.412004,-0.686525 -0.07903,-0.164168 -0.305199,-0.5134 -0.502583,-0.77607 -1.080715,-1.438186 -1.743437,-2.345039 -1.810507,-2.477457 -0.09807,-0.193612 -0.302513,-0.478098 -0.673968,-0.937818 -0.536051,-0.663397 -0.789368,-0.999573 -0.867785,-1.151603 -0.08806,-0.170721 -0.949453,-1.07456 -1.0241,-1.07456 -0.130759,0 -0.02771,2.475553 0.1578,3.790807 0.06988,0.495457 0.07513,1.185803 0.03086,4.059447 -0.02934,1.904359 -0.08013,3.690814 -0.112884,3.969901 -0.03275,0.279087 -0.08778,1.407374 -0.122285,2.507305 -0.03451,1.099931 -0.10191,2.389403 -0.149786,2.865492 -0.127237,1.265266 -0.174091,2.257845 -0.125092,2.650022 l 0.04307,0.344719 0.308502,-0.03999 c 0.169676,-0.02199 0.56371,-0.115299 0.875631,-0.207351 z M 14.377205,46.101587 c 0.02098,-0.352963 0.06405,-0.735775 0.09572,-0.850693 0.08157,-0.295976 0.09316,-3.277203 0.018,-4.626575 -0.03475,-0.623842 -0.06418,-2.584913 -0.06541,-4.357936 -0.0018,-2.63532 0.01413,-3.305395 0.08742,-3.671412 0.212496,-1.061247 0.21996,-1.230506 0.144782,-3.283376 -0.114571,-3.128594 -0.132434,-3.462469 -0.185251,-3.462469 -0.02724,0 -0.151597,0.126007 -0.276358,0.280015 -0.12476,0.154008 -0.60758,0.664857 -1.072931,1.13522 -0.602791,0.609282 -0.910315,0.970804 -1.069424,1.257202 -0.325751,0.586355 -0.680704,1.02595 -1.226033,1.518395 -0.265396,0.239659 -0.603823,0.620519 -0.752061,0.846357 -0.1482372,0.225837 -0.358243,0.508816 -0.4666792,0.628842 -0.1084361,0.120026 -0.315049,0.418802 -0.4591396,0.663946 -0.363456,0.618355 -1.6354405,3.224093 -1.7411856,3.566926 -0.047766,0.154859 -0.1857221,0.509907 -0.3065692,0.788994 -0.3426868,0.791408 -0.532892,1.319745 -0.8811571,2.447607 -0.3463094,1.12153 -0.4600985,1.689092 -0.4600985,2.294899 0,0.410928 -0.03518,0.343172 0.6217254,1.19742 0.7294673,0.948607 1.4116684,1.513176 3.1314957,2.591532 0.2833424,0.17766 0.7972401,0.442363 1.1419941,0.58823 0.818797,0.346435 2.248093,0.814383 2.775946,0.908837 0.229836,0.04113 0.485044,0.09628 0.567128,0.12257 0.336106,0.107634 0.337033,0.1062 0.378083,-0.584531 z"
       id="path982" /><path
       style="fill:#ffffff;fill-rule:evenodd;stroke-width:0.0596978"
       d="m 36.743965,58.888061 c -0.246253,-0.04306 -0.716373,-0.08036 -1.044711,-0.0829 -0.35198,-0.0027 -0.697626,-0.03969 -0.842225,-0.09008 -0.560354,-0.195278 -1.497992,-0.72049 -1.830024,-1.025076 -0.18922,-0.173579 -0.438906,-0.360618 -0.554858,-0.415641 -0.261131,-0.123914 -1.191647,-0.967732 -1.499457,-1.359748 -0.125592,-0.15995 -0.372147,-0.455223 -0.547901,-0.656163 -0.175754,-0.20094 -0.367599,-0.4596 -0.426321,-0.5748 -0.248408,-0.487316 -0.791451,-2.06364 -0.88834,-2.578639 -0.03282,-0.174468 -0.105568,-0.438102 -0.161655,-0.585854 -0.128767,-0.339213 -0.191293,-1.811537 -0.0916,-2.156897 0.03668,-0.127057 0.09585,-0.345185 0.13149,-0.484729 0.189802,-0.743096 0.460006,-1.318171 0.845586,-1.799662 0.155961,-0.194755 0.283565,-0.388327 0.283565,-0.430162 0,-0.09055 0.769113,-1.419404 1.067583,-1.844547 0.529993,-0.754926 1.156676,-1.293612 1.989499,-1.710138 0.825154,-0.41269 1.658867,-0.804476 1.959708,-0.920924 0.146553,-0.05673 0.291981,-0.125965 0.323173,-0.153861 0.03119,-0.0279 0.156068,-0.05072 0.277502,-0.05072 0.22409,0 0.650696,-0.195155 1.098531,-0.502534 0.231,-0.15855 0.256323,-0.162568 0.776071,-0.123148 1.711618,0.129819 3.89755,0.947218 5.160609,1.929738 0.562988,0.437942 1.351746,1.19321 1.547621,1.48191 0.07057,0.104013 0.211115,0.386084 0.312323,0.626826 0.101208,0.240742 0.33164,0.746649 0.512071,1.124237 0.470446,0.984505 0.592876,1.290495 0.767813,1.919008 0.08549,0.307147 0.20722,0.74468 0.270511,0.972295 0.162709,0.585157 0.163593,2.202453 0.0015,2.809832 -0.351117,1.315963 -0.992686,3.144149 -1.369206,3.901625 -0.296282,0.596055 -1.243433,1.334794 -2.423956,1.890586 -1.240101,0.583841 -1.338596,0.621151 -1.747257,0.661858 -0.22295,0.02221 -0.600957,0.103659 -0.840017,0.181002 -0.396225,0.128191 -0.530811,0.139959 -1.522293,0.133108 -0.598201,-0.0041 -1.289119,-0.04274 -1.535372,-0.0858 z M 37.40064,58.35374 c 0,-0.08253 0.02522,-0.196702 0.05605,-0.253715 0.110389,-0.204161 0.384707,-0.821055 0.388161,-0.87291 0.0019,-0.02908 -0.251685,-0.117443 -0.563605,-0.196359 -0.311921,-0.07891 -0.661153,-0.168652 -0.776071,-0.199415 -0.371844,-0.09954 -0.537276,-0.07628 -0.53731,0.07554 -1.6e-5,0.07388 -0.05096,0.26864 -0.113197,0.432808 -0.06224,0.164169 -0.122673,0.459673 -0.134291,0.656676 l -0.02112,0.358186 0.643426,0.0365 c 0.353884,0.02007 0.660581,0.05365 0.681549,0.07462 0.02097,0.02097 0.114238,0.03812 0.207268,0.03812 0.140864,0 0.169143,-0.02509 0.169143,-0.150055 z m 2.046722,0.113157 c 0.06656,-0.06656 -0.999118,-0.977964 -1.143496,-0.977964 -0.02913,0 -0.08518,0.08731 -0.124545,0.194018 -0.03936,0.106709 -0.123215,0.308908 -0.186335,0.44933 -0.06312,0.140421 -0.114764,0.281457 -0.114764,0.313413 0,0.06336 1.506621,0.08372 1.56914,0.0212 z m -4.224778,-0.545155 c 0.02164,-0.188795 0.09583,-0.523981 0.164852,-0.74486 0.06902,-0.220879 0.109106,-0.417992 0.08907,-0.438029 -0.06453,-0.06452 -0.485465,-0.142497 -0.777188,-0.143962 l -0.283564,-0.0014 -8.15e-4,0.582053 c -4.48e-4,0.320129 -0.01598,0.638529 -0.03451,0.707555 -0.02752,0.102537 0.01359,0.14842 0.224682,0.25074 0.142104,0.06888 0.330315,0.126576 0.418245,0.128213 0.150745,0.0028 0.16212,-0.01662 0.199225,-0.340286 z m 6.312125,-0.03755 c 0.320129,-0.153519 0.582053,-0.28917 0.582053,-0.301448 0,-0.01228 -0.08731,-0.07522 -0.194017,-0.139879 -0.10671,-0.06465 -0.502954,-0.316429 -0.880542,-0.559496 -0.377588,-0.243068 -0.895555,-0.541125 -1.151037,-0.662351 -0.255483,-0.121225 -0.618147,-0.337936 -0.80592,-0.481579 -0.419453,-0.320874 -0.707387,-0.428534 -1.475664,-0.551758 -0.380124,-0.06097 -0.716247,-0.156156 -0.925315,-0.262047 -0.199282,-0.100934 -0.480858,-0.182886 -0.716373,-0.2085 -0.534738,-0.05816 -1.686805,-0.04426 -2.11927,0.02557 -0.197003,0.03181 -0.635906,0.08139 -0.975342,0.110187 -0.557045,0.04726 -0.667519,0.07773 -1.134257,0.312883 -0.284406,0.14329 -0.527585,0.267222 -0.540398,0.275404 -0.03493,0.02231 0.391586,0.482979 0.783048,0.845753 l 0.345618,0.320288 0.44387,-0.21932 c 0.418714,-0.206891 0.485508,-0.221239 1.17855,-0.25318 0.894093,-0.04121 2.275102,0.102672 3.062892,0.319103 0.295504,0.08118 0.644735,0.168719 0.77607,0.194524 0.373525,0.07339 1.018379,0.483575 1.587096,1.009542 0.393898,0.36429 0.869248,0.55474 1.308245,0.524151 0.166586,-0.01161 0.489759,-0.124755 0.850693,-0.297842 z m -7.596538,-0.76375 V 56.57991 l -0.274153,0.04111 c -0.150784,0.02261 -0.399276,0.09492 -0.552204,0.160694 l -0.278052,0.119581 0.328338,0.297132 c 0.387861,0.350998 0.659095,0.534846 0.727079,0.492829 0.02695,-0.01665 0.04899,-0.273519 0.04899,-0.570813 z m 8.56742,-0.191332 c 0.04634,-0.110898 0.138786,-0.405148 0.205443,-0.653888 0.06666,-0.24874 0.201991,-0.579656 0.300741,-0.735369 0.09875,-0.155714 0.179547,-0.317924 0.179547,-0.360469 0,-0.04254 0.05373,-0.110906 0.119395,-0.151916 0.167754,-0.104764 0.153773,-0.158228 -0.145855,-0.557764 -0.145888,-0.194533 -0.361208,-0.481301 -0.478489,-0.637261 -0.22324,-0.296864 -0.330667,-0.354982 -0.331043,-0.179094 -1.19e-4,0.05746 -0.05525,0.194723 -0.122496,0.305031 -0.06725,0.110308 -0.165873,0.311788 -0.219162,0.447734 -0.05329,0.135944 -0.199257,0.399595 -0.324374,0.585888 -0.125116,0.186293 -0.28507,0.495229 -0.355451,0.686524 -0.07038,0.191295 -0.167426,0.393128 -0.215654,0.448518 -0.11646,0.133756 -0.07571,0.185182 0.328231,0.414256 0.1881,0.106669 0.472619,0.282932 0.632264,0.391695 0.159645,0.108761 0.302051,0.197748 0.316459,0.197748 0.01441,0 0.06411,-0.09073 0.110444,-0.201633 z m 1.178237,-0.262648 c 0.221628,-0.178881 0.40296,-0.366622 0.40296,-0.417204 0,-0.10115 -0.34071,-0.849749 -0.386747,-0.849749 -0.01579,0 -0.0897,0.110975 -0.164244,0.246611 -0.07454,0.135636 -0.167264,0.303536 -0.206047,0.373111 -0.06017,0.107952 -0.317521,0.985437 -0.317521,1.082666 0,0.06348 0.271756,-0.112713 0.671599,-0.435435 z m -2.845864,-1.136322 0.183796,-0.465611 -0.422587,-0.07589 c -0.232423,-0.04174 -0.650931,-0.0992 -0.930018,-0.127682 -0.279087,-0.02848 -0.608171,-0.06703 -0.731298,-0.08566 -0.290189,-0.04391 -0.307826,0.10017 -0.02985,0.243848 0.10671,0.05515 0.335831,0.205018 0.509158,0.33303 0.267105,0.197271 1.105463,0.645112 1.205469,0.643946 0.01734,-1.79e-4 0.114241,-0.209892 0.215329,-0.465978 z m 3.726406,0.159472 c 0,-0.03745 0.05132,-0.178482 0.114045,-0.313414 0.184554,-0.397002 0.542855,-1.420839 0.58176,-1.662366 0.02975,-0.184683 0.0069,-0.261752 -0.132761,-0.447734 -0.09278,-0.123558 -0.183549,-0.238083 -0.201702,-0.254499 -0.01815,-0.01642 -0.164668,-0.231329 -0.32559,-0.477582 -0.399321,-0.611069 -2.203997,-2.371376 -2.831842,-2.762219 -0.62198,-0.387193 -2.216008,-1.161023 -2.497365,-1.21236 -0.125723,-0.02294 -0.403203,-0.115321 -0.616622,-0.20529 -0.609727,-0.257038 -1.342229,-0.378431 -2.423537,-0.40164 -0.954789,-0.02049 -0.99452,-0.01614 -2.083643,0.22813 -0.131335,0.02946 -0.581652,0.0954 -1.000705,0.146546 -0.739448,0.09025 -0.788735,0.105564 -1.671537,0.519441 -1.112386,0.52151 -1.418972,0.705028 -1.621573,0.970652 -0.09783,0.12826 -0.246028,0.232313 -0.394027,0.276655 l -0.237223,0.07107 V 50.5108 c 0,0.405042 0.105454,0.948653 0.184026,0.948653 0.0301,0 0.201246,-0.145343 0.380313,-0.322984 0.20547,-0.203835 0.398174,-0.33809 0.52237,-0.363932 0.108236,-0.02252 0.430045,-0.120608 0.715132,-0.217973 0.981056,-0.33506 1.80131,-0.53246 2.365436,-0.569258 0.564635,-0.03683 2.409693,0.05738 3.115849,0.159098 1.089644,0.156958 1.313876,0.198976 1.671537,0.313219 0.213419,0.06817 0.602947,0.224463 0.865617,0.347318 0.26267,0.122855 0.541822,0.242803 0.620337,0.26655 0.07852,0.02375 0.266564,0.120014 0.417885,0.213928 0.151321,0.09391 0.487435,0.281313 0.74692,0.416443 0.259485,0.13513 0.608717,0.371997 0.776071,0.526373 0.167353,0.154376 0.404709,0.35462 0.527457,0.444987 0.438725,0.322992 0.938682,0.829085 1.178158,1.192619 0.133895,0.203257 0.320299,0.475769 0.414232,0.605583 0.09393,0.129814 0.288002,0.471634 0.431263,0.759599 0.143261,0.287965 0.294055,0.524269 0.335097,0.525121 0.04104,8.53e-4 0.07462,-0.02909 0.07462,-0.06654 z m -13.071966,-0.908808 0.374063,-0.195016 -0.01282,-1.263947 c -0.007,-0.69517 -0.0379,-1.351405 -0.06856,-1.4583 -0.03066,-0.106894 -0.05574,-0.389295 -0.05574,-0.627556 0,-0.502284 0.0081,-0.497981 -0.544937,-0.290471 l -0.380378,0.142734 -0.03544,0.409471 c -0.01949,0.225209 -0.09394,0.597519 -0.165428,0.827355 -0.12383,0.398091 -0.160094,0.566204 -0.315669,1.463399 -0.06118,0.352815 -0.05607,0.410888 0.05518,0.626827 0.06743,0.130893 0.222158,0.353437 0.343839,0.494544 0.205681,0.238517 0.228641,0.249856 0.326532,0.161267 0.05791,-0.05241 0.273622,-0.183048 0.479356,-0.290307 z m 6.872466,-0.724495 c 0.233102,-0.768089 0.294866,-0.915255 0.54328,-1.294476 0.262692,-0.401017 0.45736,-0.876553 0.460567,-1.125075 0.0017,-0.131594 -0.06529,-0.183238 -0.520406,-0.401208 -0.655016,-0.313708 -1.262173,-0.506228 -1.518786,-0.481585 -0.171406,0.01646 -0.207965,0.05054 -0.276479,0.257759 -0.04343,0.131335 -0.101782,0.413407 -0.129682,0.626826 -0.0279,0.21342 -0.106145,0.643244 -0.173877,0.955164 -0.06773,0.311921 -0.163842,0.755167 -0.21358,0.984991 -0.04974,0.229824 -0.09043,0.47272 -0.09043,0.539768 0,0.186356 0.579523,0.453653 1.223804,0.564464 l 0.53728,0.09241 0.01574,-0.150576 c 0.0087,-0.08282 0.07281,-0.338623 0.142566,-0.56846 z m 3.064214,0.388036 c 0.04412,-0.08208 0.151629,-0.303535 0.238903,-0.492112 0.08728,-0.188578 0.234679,-0.418865 0.327564,-0.511751 0.167143,-0.167142 0.167615,-0.169675 0.04581,-0.245744 -0.06769,-0.04227 -0.273181,-0.0832 -0.456645,-0.09095 -0.488361,-0.02063 -1.435806,-0.139316 -1.676374,-0.210003 -0.374265,-0.10997 -0.439057,-0.08387 -0.648118,0.261078 -0.142796,0.235612 -0.412286,0.921914 -0.42638,1.085846 -9.25e-4,0.01077 0.995243,0.142275 1.312895,0.17332 0.180585,0.01765 0.489521,0.07003 0.686524,0.116406 0.447579,0.105361 0.496731,0.09826 0.595823,-0.08609 z m -7.976082,-0.159258 0.201355,-0.03588 -0.03886,-0.66358 c -0.111204,-1.898749 -0.112068,-2.182914 -0.0079,-2.611339 0.118154,-0.486127 0.09603,-0.589394 -0.12625,-0.589394 -0.144653,0 -0.295916,0.03322 -1.09818,0.241168 l -0.211848,0.05491 0.01987,0.404163 c 0.01093,0.222291 0.04581,0.667143 0.07753,0.988559 0.03171,0.321417 0.05766,0.976574 0.05766,1.455905 v 0.87151 l 0.462658,-0.04008 c 0.254462,-0.02204 0.553267,-0.05622 0.664013,-0.07595 z m 2.382675,-0.148419 c -0.0422,-0.02678 -0.130453,-0.04948 -0.196121,-0.05047 -0.06567,-9.79e-4 -0.240283,-0.04532 -0.388035,-0.09853 -0.147752,-0.05321 -0.463404,-0.113979 -0.701448,-0.135044 l -0.432809,-0.0383 v 0.196964 0.196963 l 0.897569,-0.01146 c 0.493662,-0.0063 0.863042,-0.03336 0.820844,-0.06014 z m 0.2192,-0.662412 c 0.01626,-0.07388 0.07057,-0.3358 0.120701,-0.582053 0.05013,-0.246253 0.117289,-0.555189 0.149247,-0.686524 0.08028,-0.329906 0.0808,-0.328252 -0.103215,-0.329046 -0.09029,-4.18e-4 -0.311921,-0.04037 -0.492507,-0.08884 -0.181686,-0.04877 -0.587373,-0.08845 -0.90829,-0.08884 -0.516207,-6.33e-4 -0.586896,-0.01368 -0.643119,-0.118736 -0.05057,-0.0945 -0.03745,-0.143747 0.06584,-0.247035 0.122287,-0.122286 0.168473,-0.127407 0.886486,-0.09829 0.575115,0.02333 0.821853,0.0592 1.024866,0.149 l 0.267388,0.118278 0.07193,-0.304925 c 0.03956,-0.167709 0.08762,-0.363117 0.106802,-0.434242 0.03175,-0.117728 0.0063,-0.132876 -0.284197,-0.169014 -0.175488,-0.02183 -0.641436,-0.06342 -1.035441,-0.09241 -0.394005,-0.02899 -0.796269,-0.06039 -0.893919,-0.06978 -0.169878,-0.01633 -0.17936,-0.0046 -0.219538,0.270837 -0.0231,0.158345 -0.0708,0.370549 -0.106018,0.471566 -0.08503,0.243926 -0.08208,1.156832 0.0056,1.732916 l 0.07042,0.462657 0.422479,8.12e-4 c 0.246687,4.78e-4 0.571521,0.04789 0.780667,0.11395 0.504021,0.159204 0.677058,0.156709 0.713809,-0.01029 z m -5.989417,-0.86867 c 0.05556,-0.252781 0.143418,-0.607354 0.195228,-0.787939 0.161124,-0.561603 0.09778,-0.622603 -0.254541,-0.245104 -0.119333,0.127863 -0.277414,0.250561 -0.35129,0.272662 -0.164183,0.04912 -0.164373,0.05937 -0.01029,0.556936 0.176021,0.56842 0.245179,0.737735 0.285048,0.697866 0.01915,-0.01915 0.08028,-0.241639 0.135847,-0.494421 z m 15.795761,-1.369992 c 0.01897,-0.344905 0.01037,-0.611512 -0.0197,-0.611007 -0.02934,4.78e-4 -0.223654,0.387852 -0.431807,0.860799 l -0.378461,0.859903 0.138732,0.198836 c 0.321246,0.460426 0.294636,0.468237 0.484878,-0.142322 0.121883,-0.39117 0.182616,-0.734395 0.206358,-1.166209 z m -4.609182,1.299871 c -0.05809,-0.09399 -0.644722,-0.467374 -0.900068,-0.572878 -0.129296,-0.05342 -0.28226,-0.139066 -0.33992,-0.190318 -0.05766,-0.05125 -0.122325,-0.0757 -0.143698,-0.05432 -0.05867,0.05867 -0.133636,0.601711 -0.08895,0.644354 0.02145,0.02047 0.334178,0.0694 0.69495,0.10872 0.360771,0.03932 0.667468,0.08302 0.681549,0.0971 0.05119,0.05119 0.131172,0.02403 0.09614,-0.03265 z m 3.582765,-0.95997 c 0.03915,-0.11307 0.168933,-0.414367 0.288409,-0.669548 0.119475,-0.255182 0.217228,-0.488803 0.217228,-0.519158 0,-0.03035 0.09526,-0.217723 0.211684,-0.416374 0.268769,-0.458583 0.247386,-0.707383 -0.07808,-0.908534 l -0.211622,-0.130789 -0.137007,0.171824 c -0.07535,0.0945 -0.234135,0.337904 -0.352846,0.540891 -0.118711,0.202986 -0.323853,0.455869 -0.45587,0.561961 -0.263068,0.211407 -0.468127,0.506746 -0.468476,0.674727 -2.38e-4,0.115769 0.769559,0.931924 0.860551,0.91237 0.03017,-0.0065 0.08688,-0.104299 0.126033,-0.21737 z m -1.379234,-1.35421 c 0.02126,-0.123431 0.05385,-0.41573 0.07243,-0.649552 l 0.03378,-0.425132 -0.170306,-0.03033 c -0.247897,-0.04415 -1.54828,-0.39318 -1.93139,-0.518392 -0.533308,-0.1743 -0.786588,-0.234996 -1.134257,-0.271809 l -0.328338,-0.03477 0.195461,0.121486 c 0.107503,0.06682 0.221434,0.121485 0.253179,0.121485 0.07528,0 0.824181,0.39291 1.442888,0.757009 0.268888,0.158236 0.705262,0.493471 0.969719,0.744966 0.264458,0.251496 0.498236,0.446509 0.519507,0.433362 0.02127,-0.01315 0.05607,-0.124891 0.07732,-0.248322 z m 0.848078,-0.776624 c 0.08921,-0.15596 0.25358,-0.410851 0.365271,-0.566424 l 0.203074,-0.282859 -0.118126,-0.164874 c -0.06497,-0.09068 -0.185818,-0.228033 -0.268553,-0.305228 l -0.150428,-0.140354 -0.08582,0.170203 c -0.07043,0.139682 -0.221971,1.153943 -0.221971,1.485693 0,0.167405 0.115438,0.08553 0.276558,-0.196157 z m -14.758325,0.01626 c 0.08709,-0.114186 0.279492,-0.278604 0.42755,-0.365371 0.148058,-0.08677 0.259099,-0.188107 0.246757,-0.225198 -0.02791,-0.08387 -0.635778,-0.18665 -0.696588,-0.117778 -0.04839,0.0548 -0.241296,0.730557 -0.241296,0.845252 0,0.127536 0.102477,0.07431 0.263577,-0.136905 z M 43.668904,48.39087 c 0,-0.241095 -0.01553,-0.268213 -0.188002,-0.328337 -0.281621,-0.09817 -0.313906,-0.08509 -0.390576,0.158328 -0.08055,0.255727 -0.04864,0.307583 0.229785,0.373409 0.342499,0.08098 0.348793,0.07731 0.348793,-0.2034 z m -12.39712,0.04032 0.348351,-0.165558 -0.0393,-0.410548 c -0.06032,-0.630111 -0.08604,-0.66927 -0.489049,-0.744415 -0.191095,-0.03563 -0.401173,-0.07999 -0.46684,-0.09858 -0.09291,-0.0263 -0.179869,0.04278 -0.392011,0.311385 -0.321987,0.407692 -0.552325,0.793791 -0.502989,0.843127 0.04864,0.04864 0.568991,0.182727 0.721578,0.185942 0.06879,0.0014 0.173691,0.05636 0.233119,0.12203 0.140551,0.155307 0.17433,0.152811 0.587141,-0.04338 z m 11.316663,-0.288366 c 0.06891,-0.116795 0.125293,-0.224251 0.125293,-0.238791 0,-0.01454 -0.108929,-0.02644 -0.242063,-0.02644 -0.135636,0 -0.427104,-0.07874 -0.662926,-0.179093 -0.231475,-0.0985 -0.431483,-0.179093 -0.444462,-0.179093 -0.01298,0 -0.0236,0.05549 -0.0236,0.12332 0,0.06783 -0.02666,0.173142 -0.05925,0.234036 -0.05294,0.09893 -0.01004,0.126711 0.40296,0.260933 0.403031,0.130981 0.586873,0.183299 0.739881,0.210554 0.02138,0.0038 0.09526,-0.08863 0.164168,-0.205429 z m 2.64143,-0.360135 c -0.064,-0.161221 -0.290231,-0.655792 -0.50274,-1.099048 -0.212508,-0.443256 -0.459995,-0.984926 -0.549972,-1.203711 -0.174156,-0.423474 -0.730379,-1.094959 -1.198281,-1.446589 -0.135645,-0.101939 -0.387527,-0.299515 -0.559736,-0.439058 -0.172209,-0.139544 -0.337559,-0.253716 -0.367444,-0.253716 -0.104311,0 -0.05322,0.283473 0.08881,0.492769 0.07873,0.116018 0.323368,0.596603 0.543634,1.067966 0.220266,0.471363 0.417773,0.888402 0.438904,0.926752 0.195475,0.354767 0.574379,0.800769 1.093174,1.286754 0.340776,0.319226 0.726417,0.720784 0.856979,0.892351 0.194287,0.255306 0.240622,0.289856 0.255209,0.190299 0.0098,-0.0669 -0.03454,-0.253548 -0.09854,-0.414769 z m -5.62042,0.25751 c 0,-0.274771 0.144965,-1.15553 0.247842,-1.505802 0.06751,-0.229837 0.250899,-0.687081 0.407544,-1.016099 0.157777,-0.331395 0.30396,-0.737454 0.327744,-0.910391 l 0.04294,-0.312176 -0.19962,-0.006 c -0.109791,-0.0033 -0.463847,-0.02344 -0.786792,-0.04477 -0.367425,-0.02427 -0.605416,-0.01645 -0.635919,0.02091 -0.08729,0.106897 -0.281337,0.766264 -0.360256,1.224121 -0.04704,0.272918 -0.189871,0.697063 -0.366218,1.087515 -0.186826,0.413651 -0.2891,0.722461 -0.2891,0.872912 0,0.222787 0.0096,0.234374 0.223866,0.269055 0.123127,0.01993 0.411915,0.116664 0.641751,0.214957 0.443592,0.189709 0.746222,0.232599 0.746222,0.105757 z m -6.709541,-0.13516 0.364643,-0.0372 0.04942,-0.577174 c 0.02718,-0.317446 0.04499,-0.698063 0.03959,-0.845815 -0.0054,-0.147752 -0.01289,-0.52933 -0.01663,-0.847951 l -0.0068,-0.579311 -0.248186,0.156856 c -0.136502,0.08627 -0.412098,0.231248 -0.612434,0.322171 l -0.364249,0.165316 -0.03871,0.370368 c -0.04963,0.474822 -0.05,1.535123 -6.29e-4,1.781994 0.03596,0.179821 0.05007,0.188674 0.253716,0.159178 0.118598,-0.01718 0.379722,-0.04797 0.580275,-0.06843 z m 7.893913,-0.179496 c 0.114029,-0.250266 0.08966,-0.272852 -0.273981,-0.253886 -0.295019,0.01539 -0.345753,0.03532 -0.36098,0.141855 -0.01994,0.139473 0.160307,0.253489 0.411095,0.260044 0.109925,0.0029 0.174602,-0.03989 0.223866,-0.148013 z m -6.463549,-0.0555 c 0.03507,-0.01054 0.0971,-0.176345 0.137837,-0.36846 0.04074,-0.192114 0.103226,-0.42467 0.138865,-0.516789 0.08458,-0.218623 0.02983,-0.261214 -0.3761,-0.292581 l -0.334114,-0.02582 -0.07608,0.554144 c -0.09501,0.692033 -0.0752,0.755292 0.221176,0.706015 0.123556,-0.02054 0.253343,-0.04597 0.288418,-0.05651 z m 9.637113,-0.01804 c 0,-0.02557 -0.176982,-0.220338 -0.393293,-0.432809 -0.21631,-0.212471 -0.484617,-0.527346 -0.596236,-0.699724 -0.111619,-0.172377 -0.213043,-0.313413 -0.225386,-0.313413 -0.155602,0 -0.697724,-0.14466 -0.917747,-0.244891 -0.155337,-0.07076 -0.451187,-0.157569 -0.657445,-0.1929 -0.316001,-0.05413 -0.389331,-0.04992 -0.465998,0.02675 -0.08841,0.08841 -0.444505,0.971656 -0.444939,1.10362 -1.2e-4,0.04207 0.243864,0.07777 0.677418,0.09913 0.602039,0.02965 0.718395,0.05395 1.043008,0.217813 0.252314,0.127368 0.453645,0.185098 0.65064,0.186567 0.313781,0.0023 0.893484,0.125857 1.06887,0.227746 0.132066,0.07672 0.261108,0.08765 0.261108,0.02212 z m -7.90507,-0.192293 h 0.860735 v -0.294966 c 0,-0.163304 -0.03164,-0.314523 -0.07089,-0.33878 -0.06292,-0.03889 -1.332496,-0.254675 -1.528142,-0.259735 -0.132095,-0.0034 -0.424777,0.819794 -0.326432,0.918138 0.02131,0.02131 0.07593,0.02449 0.121375,0.007 0.04544,-0.01744 0.469954,-0.03171 0.943358,-0.03171 z m 1.474374,-0.223867 c 0.03486,-0.307054 0.0088,-0.390383 -0.07869,-0.251986 -0.07037,0.111278 -0.07468,0.535551 -0.0054,0.535551 0.02856,0 0.06642,-0.127604 0.08412,-0.283565 z m -5.976896,-0.970088 0.02031,-0.328338 -0.276153,-0.01789 c -0.271712,-0.0176 -0.278767,-0.01343 -0.438807,0.259656 -0.09315,0.158953 -0.140297,0.299907 -0.110331,0.329873 0.06562,0.06563 0.692007,0.166032 0.745285,0.119466 0.02166,-0.01893 0.04853,-0.182179 0.0597,-0.362765 z m 6.443274,-0.294918 c 0.06871,-0.18255 0.138714,-0.414947 0.155556,-0.516438 0.03058,-0.184279 0.03011,-0.184631 -0.34876,-0.259201 -0.20866,-0.04107 -0.446542,-0.09822 -0.528626,-0.127001 -0.08208,-0.02878 -0.891408,-0.05989 -1.798497,-0.06914 l -1.649253,-0.01681 -0.03457,0.412928 c -0.01901,0.227111 -0.02136,0.434312 -0.0052,0.460448 0.05772,0.0934 0.482332,0.174682 1.069765,0.204795 0.704739,0.03613 2.214792,0.239567 2.596852,0.349859 0.32024,0.09245 0.352294,0.06649 0.542737,-0.439446 z m 4.259827,-0.811899 c -0.240826,-0.493999 -0.283963,-0.496726 -0.354703,-0.02242 l -0.04081,0.273662 0.288358,0.124823 c 0.158596,0.06865 0.297885,0.115295 0.309529,0.10365 0.01165,-0.01164 -0.07942,-0.227517 -0.20237,-0.479717 z M 32.111263,45.1008 c 0.378044,-0.181053 0.813242,-0.438144 0.967107,-0.571313 0.162764,-0.140871 0.69387,-0.442841 1.270005,-0.722084 0.544638,-0.263977 1.098256,-0.553663 1.230263,-0.643747 0.132007,-0.09009 0.387764,-0.211022 0.568349,-0.26875 0.301402,-0.09635 0.632158,-0.280795 1.386433,-0.773146 0.155114,-0.10125 0.282718,-0.202298 0.283565,-0.224551 8.47e-4,-0.02225 -0.152929,-0.02631 -0.341723,-0.009 -0.226405,0.02074 -0.50894,0.110724 -0.829938,0.264326 -0.267671,0.128086 -0.556144,0.232883 -0.641051,0.232883 -0.163527,0 -0.979815,0.319798 -1.528823,0.598947 -0.401061,0.203925 -0.874648,0.415915 -0.929155,0.415915 -0.07936,0 -0.778059,0.445308 -1.071565,0.682952 -0.527728,0.427288 -1.263161,1.346771 -1.077191,1.346771 0.0145,0 0.33568,-0.148134 0.713724,-0.329187 z m 9.343954,-0.226565 c 0.07887,-0.30398 0.0792,-0.353632 0.0027,-0.402046 -0.212535,-0.134428 -0.347772,0.0368 -0.441413,0.558879 l -0.04088,0.227907 0.194829,-0.01897 c 0.183177,-0.01783 0.200208,-0.0397 0.284809,-0.365775 z m -3.077675,-0.356634 c 0.137517,-0.360082 0.124264,-0.427056 -0.100599,-0.508367 -0.280765,-0.101526 -0.279325,-0.102677 -0.279325,0.223275 0,0.162231 -0.02686,0.311569 -0.0597,0.331861 -0.09226,0.05702 -0.07076,0.137599 0.04477,0.167791 0.248051,0.06482 0.298654,0.03733 0.394849,-0.21456 z m -0.833613,-0.444117 -0.006,-0.520593 -0.232835,-0.104597 c -0.270266,-0.121413 -0.9187,-0.144204 -1.026814,-0.03609 -0.0404,0.0404 -0.07164,0.233948 -0.07164,0.443847 0,0.204716 -0.02587,0.440248 -0.05748,0.523406 l -0.05748,0.151196 0.669386,0.01902 c 0.368163,0.01046 0.696251,0.02473 0.729085,0.03171 0.03655,0.0078 0.05739,-0.189122 0.05374,-0.507903 z m -1.877384,0.144625 c 0.129814,-0.541129 0.12188,-0.542643 -0.728437,-0.139028 -0.418631,0.198709 -0.761146,0.382473 -0.761146,0.408365 0,0.02589 0.318077,0.04707 0.706838,0.04707 h 0.706838 z m 5.873805,-0.653676 c -0.04438,-0.59542 -0.04625,-0.59876 -0.422375,-0.754634 -0.189427,-0.0785 -0.48548,-0.206908 -0.657896,-0.285346 -0.393247,-0.178902 -1.328562,-0.486338 -1.622673,-0.533368 -0.203628,-0.03256 -0.266544,-0.0028 -0.754833,0.357594 -0.292979,0.216213 -0.586416,0.431418 -0.652084,0.478231 -0.116699,0.08319 -0.115753,0.08653 0.04187,0.147561 0.0887,0.03434 0.272703,0.132791 0.408903,0.21877 0.745823,0.470818 0.771514,0.4769 2.653509,0.628254 0.459673,0.03697 0.846962,0.0782 0.860643,0.09163 0.01368,0.01343 0.05815,0.02442 0.09881,0.02442 0.05386,0 0.06638,-0.101298 0.04612,-0.373111 z"
       id="path984" /><path
       style="fill:#ffffff;fill-rule:evenodd;stroke-width:0.0596978"
       d="M 6.3713455,54.459272 C 6.1798927,54.291317 5.989316,53.564984 5.7565492,52.116135 5.6612779,51.523122 5.6562026,49.49348 5.748115,48.743213 c 0.1699593,-1.387352 0.245526,-1.770221 0.3764521,-1.907344 0.029782,-0.03119 0.05415,-0.130885 0.05415,-0.221541 0,-0.157648 0.1957161,-0.40827 0.3188278,-0.40827 0.031638,0 0.1676082,0.08152 0.3021565,0.18115 0.5705752,0.422508 0.7855899,0.576525 1.0805645,0.774014 0.1716442,0.114918 0.4411975,0.30647 0.5990075,0.42567 0.1578099,0.1192 0.477083,0.2884 0.7094957,0.376 0.2324127,0.0876 0.6257142,0.264618 0.8740029,0.393372 0.481856,0.249875 2.334386,0.894374 2.570801,0.894388 0.07796,4e-6 0.356657,0.06656 0.619327,0.14791 0.262671,0.08135 0.759654,0.21847 1.104409,0.30472 0.346627,0.08672 0.78694,0.245629 0.985013,0.355496 0.256248,0.142137 0.468619,0.209614 0.746222,0.237102 0.213419,0.02113 0.461018,0.06613 0.550219,0.09999 0.213372,0.081 0.271552,0.268582 0.12763,0.411503 -0.120172,0.119336 -1.132915,0.412901 -1.425271,0.413146 -0.09916,8.2e-5 -0.374177,0.05388 -0.611146,0.119546 -0.236969,0.06567 -0.496648,0.119395 -0.577063,0.119395 -0.253503,0 -1.757942,0.417106 -2.402694,0.666147 -0.340374,0.131472 -0.979468,0.329871 -1.420208,0.440885 -0.440741,0.111015 -0.9036332,0.245486 -1.0286499,0.298824 -0.1250167,0.05334 -0.5461318,0.202145 -0.9358113,0.330681 -0.6417442,0.211678 -0.7430019,0.265444 -1.0745595,0.570575 -0.2013282,0.185281 -0.4187464,0.420293 -0.4831516,0.522249 -0.1905443,0.30164 -0.2572542,0.327691 -0.4364932,0.170451 z m 0.7809609,-1.083508 c 0.3261387,-0.29556 0.4688794,-0.379781 0.8218064,-0.484887 0.2349121,-0.06996 0.6638482,-0.217541 0.9531915,-0.327959 0.2893432,-0.110417 0.8565368,-0.284577 1.2604297,-0.387022 0.403894,-0.102444 0.896121,-0.249164 1.09384,-0.326045 0.713489,-0.277433 1.079619,-0.407052 1.284802,-0.45485 0.114918,-0.02677 0.423854,-0.10512 0.686524,-0.174111 0.262671,-0.06899 0.625334,-0.150668 0.80592,-0.181507 0.180586,-0.03084 0.449226,-0.08423 0.596978,-0.118649 0.147751,-0.03442 0.414221,-0.08175 0.592155,-0.105189 0.177934,-0.02343 0.331689,-0.06947 0.341677,-0.102307 0.03288,-0.108083 -0.890859,-0.50155 -1.611529,-0.68643 -0.38915,-0.09983 -0.751814,-0.20476 -0.80592,-0.233174 -0.05411,-0.02841 -0.245738,-0.07158 -0.42585,-0.09592 C 12.170571,49.6199 10.782693,49.159881 9.9993731,48.78722 9.7202861,48.654446 9.3441903,48.487097 9.1636046,48.415335 8.6741361,48.220826 8.3996901,48.067623 7.9696496,47.748835 7.7562301,47.590628 7.4607263,47.37134 7.3129743,47.261528 6.816272,46.892369 6.6680521,46.824924 6.5723381,46.924514 c -0.1588999,0.165334 -0.2678226,0.641325 -0.3973362,1.736354 -0.1055238,0.892196 -0.123179,1.281254 -0.09449,2.082219 0.035944,1.003514 0.2412307,2.452694 0.4295369,3.032235 0.035878,0.11042 0.1750667,0.02383 0.6422576,-0.399558 z"
       id="path986" /><path
       style="fill:#ffffff;fill-rule:evenodd;stroke-width:0.0596978"
       d="m 37.821335,28.481079 c -0.0336,-0.06278 -0.09138,-0.31127 -0.128403,-0.552204 -0.102556,-0.667376 -0.514913,-2.035017 -1.235014,-4.096102 -0.198181,-0.567238 -0.431906,-1.305997 -0.519389,-1.641689 -0.153835,-0.590302 -0.785759,-1.998887 -1.117502,-2.49096 -0.297601,-0.441429 -0.584368,-1.026136 -0.584368,-1.191504 0,-0.134068 0.04209,-0.193661 0.188265,-0.266585 0.103546,-0.05166 0.265224,-0.09392 0.359284,-0.09392 0.09406,0 0.378721,-0.05724 0.632579,-0.127196 0.424091,-0.116871 0.60695,-0.127098 2.252493,-0.125977 2.132607,0.0015 2.955157,0.06325 3.487805,0.262048 0.569822,0.212671 0.580852,0.295348 0.155947,1.168974 -0.185858,0.382134 -0.412861,0.790577 -0.50445,0.907651 -0.352341,0.450385 -0.885868,1.431038 -1.07393,1.973947 -0.108049,0.311921 -0.218731,0.620856 -0.245961,0.686524 -0.158684,0.382686 -0.457465,1.486782 -0.534807,1.976287 -0.02648,0.167612 -0.114403,0.503412 -0.19538,0.746222 -0.08098,0.24281 -0.177239,0.575792 -0.213918,0.73996 -0.104047,0.465702 -0.308177,1.743039 -0.308177,1.928411 0,0.293317 -0.289778,0.43023 -0.415074,0.196112 z m 0.268496,-1.942575 c 0.02222,-0.165738 0.106289,-0.502823 0.186819,-0.749076 0.08053,-0.246253 0.197752,-0.689509 0.260494,-0.985013 0.225449,-1.061829 0.796114,-2.891226 1.068363,-3.424878 0.177645,-0.348213 0.72063,-1.220465 0.840974,-1.350942 0.16514,-0.179044 0.730048,-1.353188 0.674138,-1.401175 -0.132566,-0.113781 -0.644457,-0.234354 -1.152976,-0.271577 -0.31192,-0.02283 -1.359616,-0.04093 -2.328212,-0.04022 -1.609853,0.0012 -1.796952,0.01198 -2.178778,0.125835 -0.229732,0.0685 -0.491655,0.124544 -0.582053,0.124544 -0.0904,0 -0.164359,0.01356 -0.164359,0.03014 0,0.06427 0.288382,0.614898 0.515732,0.98472 0.251051,0.408375 0.774551,1.465488 0.938542,1.895215 0.05321,0.13944 0.138125,0.453836 0.188695,0.698657 0.05057,0.244822 0.168449,0.641151 0.261955,0.880731 0.09351,0.23958 0.240068,0.650511 0.325693,0.913181 0.08562,0.262671 0.226172,0.66563 0.312328,0.895467 0.08616,0.229836 0.193041,0.580331 0.237523,0.778877 0.04448,0.198547 0.144979,0.507483 0.223325,0.686525 0.07835,0.179041 0.161718,0.404721 0.185269,0.50151 0.0564,0.231787 0.132166,0.112967 0.186528,-0.292521 z"
       id="path988" /><path
       style="fill:#ffffff;fill-rule:evenodd;stroke-width:0.0596978"
       d="m 68.771808,54.190698 c -0.0985,-0.07176 -0.313414,-0.261003 -0.477582,-0.420542 -0.341858,-0.332216 -0.493454,-0.405159 -1.07456,-0.517034 -0.229836,-0.04425 -0.538772,-0.132175 -0.686524,-0.195391 -0.147752,-0.06322 -0.450009,-0.178426 -0.671682,-0.256021 -0.221672,-0.07759 -0.557472,-0.236217 -0.746221,-0.352496 -0.18875,-0.116279 -0.477501,-0.25603 -0.641669,-0.310557 -0.164169,-0.05453 -0.326519,-0.12088 -0.360778,-0.147451 -0.03426,-0.02657 -0.249171,-0.06553 -0.477582,-0.08656 -0.455514,-0.04196 -0.996502,-0.154785 -1.54955,-0.323176 -1.05493,-0.321203 -1.269016,-0.394776 -1.432746,-0.49238 -0.0985,-0.05872 -0.232822,-0.106904 -0.298489,-0.107077 -0.06567,-1.73e-4 -0.34774,-0.0894 -0.626827,-0.198294 -0.580043,-0.226311 -0.661449,-0.351269 -0.37636,-0.577716 0.150782,-0.119766 0.211375,-0.129344 0.609767,-0.09639 0.40992,0.03391 0.743404,-0.0029 1.796317,-0.198184 0.147752,-0.02741 0.517564,-0.160429 0.821805,-0.295608 0.304241,-0.135178 0.592232,-0.245779 0.639982,-0.245779 0.04775,0 0.228648,-0.06401 0.401998,-0.14224 0.173351,-0.07823 0.382343,-0.161797 0.464427,-0.185701 0.08209,-0.0239 0.338126,-0.146578 0.568982,-0.27261 0.230855,-0.126032 0.674111,-0.324893 0.985013,-0.441913 0.622721,-0.234386 0.961631,-0.405542 1.176947,-0.59438 0.146929,-0.128862 0.466486,-0.325277 1.030016,-0.633101 0.180586,-0.09864 0.480829,-0.28746 0.667208,-0.419591 0.435342,-0.308631 0.833286,-0.373904 1.136618,-0.186435 0.363454,0.224627 0.69221,1.18807 0.748121,2.192423 0.03081,0.553434 0.0051,0.727864 -0.245926,1.668561 -0.185197,0.694007 -0.262765,1.288316 -0.307772,2.358061 -0.05024,1.194209 -0.07544,1.309917 -0.321319,1.475615 -0.252729,0.170315 -0.519574,0.171014 -0.751614,0.002 z m 0.554887,-0.41795 c 0.0372,-0.07388 0.0947,-0.685032 0.12779,-1.358124 0.03309,-0.673092 0.08784,-1.33126 0.121683,-1.462595 0.479238,-1.859961 0.503786,-2.174434 0.249462,-3.195727 -0.2542,-1.020791 -0.508595,-1.164695 -1.168385,-0.660919 -0.166827,0.127379 -0.437642,0.302426 -0.60181,0.388995 -0.474533,0.250227 -0.819536,0.457803 -1.044711,0.628564 -0.114918,0.08715 -0.277045,0.201003 -0.360281,0.253011 -0.1764,0.110218 -0.903003,0.407108 -0.996347,0.407108 -0.03507,0 -0.376065,0.161184 -0.757771,0.358187 -0.381706,0.197002 -0.745566,0.358186 -0.808576,0.358186 -0.06301,0 -0.129956,0.0249 -0.148768,0.05534 -0.01881,0.03044 -0.134569,0.08678 -0.257238,0.125196 -0.329716,0.103267 -0.956201,0.349874 -1.308869,0.515218 -0.196602,0.09217 -0.509858,0.167569 -0.857495,0.206382 -0.301252,0.03363 -0.616876,0.08744 -0.701387,0.119572 l -0.153656,0.05842 0.175382,0.10623 c 0.09646,0.05843 0.36343,0.167442 0.593266,0.242257 0.229837,0.07481 0.538772,0.175752 0.686524,0.224306 0.495956,0.16298 0.862255,0.244672 1.402898,0.312875 0.604761,0.07629 1.291932,0.300303 1.720128,0.560745 0.457974,0.278554 1.517931,0.694754 2.082607,0.817751 0.595951,0.129811 1.055144,0.342268 1.235604,0.571686 0.145755,0.185298 0.5441,0.497581 0.637783,0.499992 0.03549,9.13e-4 0.09497,-0.05878 0.132167,-0.132659 z"
       id="path990" /><path
       style="fill:#ffffff;fill-rule:evenodd;stroke-width:0.0596978"
       d="m 35.876185,81.506586 c -0.162917,-0.162917 -0.07662,-0.474446 0.382665,-1.381459 0.232723,-0.459588 0.46631,-0.96567 0.519083,-1.124629 0.05277,-0.158958 0.186506,-0.455838 0.297186,-0.659732 0.110679,-0.203894 0.256962,-0.554186 0.325072,-0.778425 0.134019,-0.441226 0.445215,-1.007347 0.611231,-1.111936 0.0796,-0.05015 0.126253,-0.04221 0.203006,0.03454 0.09307,0.09307 0.09125,0.119189 -0.02761,0.395493 l -0.127266,0.295838 0.122802,0.379566 c 0.292961,0.905508 1.043906,2.206308 1.376426,2.384268 0.213038,0.114014 0.348705,0.418012 0.348944,0.781904 3.47e-4,0.525347 -0.0022,0.526413 -1.242769,0.527794 -1.102103,0.0012 -1.810485,0.0866 -2.14189,0.258125 -0.245061,0.12684 -0.51926,0.126268 -0.646878,-0.0014 z m 1.13642,-0.564839 c 0.197002,-0.03408 0.835022,-0.07469 1.417821,-0.09025 l 1.059635,-0.02829 v -0.175325 c 0,-0.09643 -0.051,-0.222337 -0.113345,-0.279796 -0.06234,-0.05746 -0.177924,-0.16263 -0.256854,-0.233714 -0.312457,-0.281394 -0.773774,-1.072935 -1.193291,-2.047485 l -0.114678,-0.266401 -0.28619,0.56489 c -0.157404,0.310689 -0.321131,0.672345 -0.363838,0.80368 -0.04271,0.131335 -0.201217,0.483119 -0.352245,0.781742 -0.151029,0.298623 -0.336925,0.671329 -0.413103,0.828234 l -0.138505,0.285283 0.198203,-0.04031 c 0.109012,-0.02217 0.359387,-0.06819 0.55639,-0.102268 z"
       id="path992" /><path
       style="fill:#ffffff;fill-rule:evenodd;stroke-width:0.0596978"
       d="m 36.505174,82.526854 c -0.202274,-0.06703 -0.506943,-0.08551 -1.233257,-0.07479 -1.120865,0.01654 -1.154653,0.0041 -1.154653,-0.425135 0,-0.232286 0.05277,-0.36945 0.301072,-0.782588 0.165589,-0.275515 0.353637,-0.556891 0.417884,-0.625278 0.06425,-0.06839 0.116812,-0.140694 0.116812,-0.16068 0,-0.01999 0.204914,-0.394351 0.455363,-0.831921 0.416878,-0.728344 0.838349,-1.552292 1.019612,-1.993277 0.527474,-1.283262 0.512386,-1.215643 0.558617,-2.503565 0.02357,-0.656675 0.06232,-1.274547 0.08611,-1.373048 0.07354,-0.304535 0.25242,-0.841421 0.32014,-0.96087 0.03545,-0.06253 0.104033,-0.21437 0.152406,-0.337423 0.101789,-0.258938 0.338029,-0.40334 0.474527,-0.290057 0.196227,0.162854 0.398636,0.704461 0.482046,1.289861 0.04678,0.328337 0.141677,0.852185 0.210875,1.164106 0.0692,0.311921 0.15346,0.752381 0.187248,0.9788 0.03379,0.22642 0.152749,0.669676 0.26436,0.985013 0.111611,0.315338 0.245764,0.75979 0.298118,0.987672 0.127675,0.555728 0.443739,1.366697 0.815708,2.092975 0.281727,0.550078 0.624155,1.047143 1.196853,1.737339 0.245591,0.295979 0.272439,0.431395 0.128947,0.650392 -0.239673,0.365787 -1.11055,0.506541 -3.337702,0.539449 -1.20757,0.01784 -1.54372,0.0051 -1.761083,-0.06697 z m 3.731109,-0.436091 c 0.510297,-0.05681 0.985013,-0.180442 0.985013,-0.25653 0,-0.05658 -0.758756,-1.04543 -0.841329,-1.096464 -0.08535,-0.05275 -0.71953,-1.347241 -0.968624,-1.977158 -0.117159,-0.296276 -0.255017,-0.724037 -0.306351,-0.950581 -0.05133,-0.226544 -0.170885,-0.640242 -0.265668,-0.919329 -0.237189,-0.698392 -0.292341,-0.907231 -0.394139,-1.492443 -0.04855,-0.279087 -0.116484,-0.614887 -0.150971,-0.746222 -0.06117,-0.232936 -0.13679,-0.669769 -0.234084,-1.352157 -0.07526,-0.527826 -0.158447,-0.596637 -0.317665,-0.262753 -0.213883,0.448516 -0.293869,0.955374 -0.339634,2.15219 -0.04418,1.155347 -0.05187,1.209398 -0.237984,1.671537 -0.105781,0.26267 -0.257916,0.652197 -0.338078,0.865617 -0.290947,0.774598 -1.240638,2.53566 -1.786728,3.313225 -0.289827,0.412677 -0.520476,0.848716 -0.492823,0.931676 0.01079,0.03236 0.445913,0.06456 1.003426,0.07425 0.593576,0.01032 1.043629,0.04497 1.133623,0.08729 0.169573,0.07974 2.730045,0.04936 3.552016,-0.04215 z"
       id="path994" /><path
       style="fill:#ffffff;fill-rule:evenodd;stroke-width:0.0596978"
       d="M 7.1560041,52.394587 C 7.0532535,52.323523 6.9189336,52.235614 6.8575153,52.199233 6.7529403,52.137288 6.7447427,52.017481 6.7284849,50.313452 c -0.01645,-1.724131 -0.011302,-1.827117 0.098073,-1.96219 l 0.1154344,-0.142555 0.4054761,0.139155 c 0.2230119,0.07654 0.5146786,0.209543 0.6481484,0.295572 0.3933894,0.253562 0.5004185,0.30156 1.0382528,0.465609 0.2814753,0.08586 0.7403391,0.287158 1.0196974,0.447339 0.279359,0.160182 0.542525,0.291239 0.584814,0.291239 0.153544,0 0.829795,0.257024 1.079191,0.41017 0.61791,0.379439 0.22569,0.804357 -0.969545,1.050372 -0.458503,0.09437 -0.8568564,0.230191 -1.6142718,0.550381 -0.1970026,0.08328 -0.5031775,0.202087 -0.6803889,0.264012 -0.1772113,0.06193 -0.4425187,0.179838 -0.5895721,0.262028 -0.320516,0.17914 -0.4603811,0.181116 -0.7077906,0.01 z m 0.5918793,-0.422924 c 0.1280313,-0.08209 0.9786952,-0.433273 1.7739077,-0.732332 0.2134194,-0.08026 0.5492189,-0.186862 0.7462219,-0.23689 0.197002,-0.05003 0.440686,-0.115417 0.541518,-0.145308 0.100833,-0.02989 0.23995,-0.05435 0.309149,-0.05435 0.14038,0 0.33159,-0.161125 0.283518,-0.238908 -0.01706,-0.0276 -0.252367,-0.121853 -0.522904,-0.209441 C 10.265122,50.155594 10.033947,50.053166 9.7277434,49.844208 9.594764,49.753462 9.2858281,49.618673 9.0412193,49.544678 8.6110677,49.414555 8.168448,49.220286 7.6137382,48.918145 7.1087653,48.643096 7.1337591,48.572004 7.1347952,50.28043 c 5.027e-4,0.829052 0.020651,1.536528 0.044773,1.572167 0.057303,0.08466 0.2619735,0.199721 0.3593727,0.202025 0.042197,9.99e-4 0.1362214,-0.03633 0.2089422,-0.08296 z"
       id="path996" /><path
       style="fill:#ffffff;fill-rule:evenodd;stroke-width:0.0596978"
       d="m 68.214937,52.324548 c -0.12651,-0.10645 -0.372001,-0.193568 -0.848697,-0.301175 -0.710436,-0.160372 -1.036011,-0.274148 -1.194239,-0.417342 -0.108355,-0.09806 -1.238093,-0.477874 -1.590302,-0.534654 -0.451788,-0.07283 -0.507185,-0.0972 -0.768333,-0.337916 -0.289063,-0.266449 -0.343983,-0.481242 -0.149641,-0.585251 0.06351,-0.03399 0.33344,-0.0618 0.599845,-0.0618 0.443571,0 0.510535,-0.0164 0.79492,-0.194731 0.1708,-0.107103 0.512026,-0.291376 0.758279,-0.409497 0.505951,-0.24269 1.929846,-0.9499 2.434471,-1.209135 0.386418,-0.19851 0.461916,-0.176414 0.589173,0.172432 0.172807,0.473713 0.2255,1.030874 0.227678,2.40741 l 0.0022,1.393305 -0.140933,0.114063 c -0.198824,0.160916 -0.498554,0.145934 -0.714426,-0.03571 z m 0.455112,-1.407291 c 0.01888,-1.177061 -0.06332,-2.032108 -0.209412,-2.178198 -0.07922,-0.07922 -0.110397,-0.07511 -0.277083,0.03657 -0.170922,0.11452 -0.550514,0.303045 -2.24739,1.11617 -0.31192,0.149469 -0.655569,0.339047 -0.763663,0.421284 -0.126412,0.09617 -0.302134,0.159668 -0.492506,0.177961 -0.41471,0.03985 -0.364207,0.192341 0.0637,0.192341 0.242422,0 1.221939,0.334857 1.606893,0.549331 0.324819,0.180971 0.875948,0.356526 1.370429,0.436532 0.328144,0.05309 0.618431,0.1723 0.721241,0.296178 0.176553,0.212734 0.210036,0.05867 0.227791,-1.048173 z"
       id="path998" /><path
       style="fill:#ffffff;fill-rule:evenodd;stroke-width:0.0596978"
       d="m 37.745092,24.102966 c -0.16126,-0.125021 -0.348107,-0.520117 -0.413187,-0.873703 -0.03393,-0.184347 -0.08297,-0.36204 -0.10898,-0.394874 -0.02601,-0.03283 -0.06654,-0.153721 -0.09007,-0.26864 -0.02353,-0.114918 -0.123865,-0.356694 -0.222964,-0.537279 -0.357546,-0.651548 -0.522611,-0.98642 -0.523353,-1.061742 -4.18e-4,-0.0422 -0.112111,-0.283977 -0.24821,-0.53728 -0.136099,-0.253303 -0.288266,-0.539332 -0.338148,-0.635621 -0.04988,-0.09629 -0.103087,-0.304033 -0.118232,-0.461653 -0.0231,-0.240399 -0.0095,-0.293365 0.08443,-0.328662 0.06158,-0.02314 0.143563,-0.08404 0.182178,-0.135324 0.06122,-0.08131 0.308004,-0.09231 1.928213,-0.08595 l 1.858004,0.0073 0.152539,0.141945 c 0.138102,0.128511 0.14968,0.17419 0.122329,0.482639 -0.01866,0.21038 -0.07813,0.407995 -0.155499,0.516646 -0.06891,0.09677 -0.12529,0.220049 -0.12529,0.273945 0,0.11353 -0.481976,1.127815 -0.727924,1.531867 -0.09215,0.151384 -0.167542,0.308232 -0.167542,0.348553 0,0.04032 -0.120888,0.325185 -0.26864,0.633031 -0.147752,0.307847 -0.26864,0.626248 -0.26864,0.70756 0,0.08131 -0.02686,0.164441 -0.0597,0.184733 -0.03283,0.02029 -0.0597,0.123961 -0.0597,0.230375 0,0.305099 -0.210948,0.433213 -0.431619,0.262131 z m 0.250627,-1.376806 c 0.0027,-0.0703 0.576047,-1.303822 0.712698,-1.533459 0.186741,-0.313812 0.542853,-1.103706 0.542853,-1.204106 0,-0.06614 0.05373,-0.188565 0.119396,-0.272048 0.06567,-0.08348 0.119395,-0.198007 0.119395,-0.254499 0,-0.138927 -0.454801,-0.178706 -2.049391,-0.17925 l -1.243472,-4.25e-4 0.04124,0.194018 c 0.02268,0.10671 0.07546,0.234313 0.11729,0.283564 0.117861,0.138771 0.490323,0.897961 0.571115,1.164106 0.03987,0.131335 0.126748,0.316082 0.193066,0.410548 0.21864,0.311442 0.456719,0.82624 0.53214,1.150643 0.04083,0.175609 0.09499,0.319288 0.120355,0.319288 0.02537,0 0.04612,0.04543 0.04612,0.100957 0,0.08803 0.01122,0.08612 0.08765,-0.01492 0.04821,-0.06374 0.0885,-0.137721 0.08955,-0.164413 z"
       id="path1000" /><path
       style="fill:#ffffff;fill-rule:evenodd;stroke-width:0.0596978"
       d="M 39.001499,87.96378 C 38.979039,87.94123 38.199988,87.89933 37.270264,87.87066 36.340541,87.842 35.338083,87.78831 35.042579,87.751348 34.471885,87.679968 33.9206,87.63594 32.147238,87.520085 31.539814,87.480405 30.91035,87.409727 30.74843,87.363026 c -0.16192,-0.0467 -0.388356,-0.08491 -0.503192,-0.08491 -0.114836,0 -0.291292,-0.02566 -0.392125,-0.05701 -0.515729,-0.160384 -1.22439,-0.353053 -1.429409,-0.388627 -0.127169,-0.02206 -0.274921,-0.06505 -0.328338,-0.09552 -0.165292,-0.09429 -1.563265,-0.594578 -2.080108,-0.744389 -0.269798,-0.07821 -0.619029,-0.195588 -0.77607,-0.26085 -0.157041,-0.06526 -0.675056,-0.270968 -1.151146,-0.457117 -0.47609,-0.18615 -0.965026,-0.388961 -1.086525,-0.450683 -0.121499,-0.06172 -0.349843,-0.155351 -0.507431,-0.208076 -0.157587,-0.05272 -0.729779,-0.265643 -1.271536,-0.473158 -0.541757,-0.207516 -1.068023,-0.394047 -1.169479,-0.414518 -0.101456,-0.02046 -0.401313,-0.177057 -0.666348,-0.347978 -0.265035,-0.170921 -0.598417,-0.384943 -0.740848,-0.475606 -0.142433,-0.09066 -0.352992,-0.230905 -0.46791,-0.311664 -0.384124,-0.269935 -0.742307,-0.509132 -1.223804,-0.817262 -0.26267,-0.168091 -0.652198,-0.456473 -0.865617,-0.640844 -0.21342,-0.18437 -0.522356,-0.441763 -0.686525,-0.571976 C 15.237851,80.432626 15.033807,80.258308 14.94859,80.17546 14.86337,80.09262 14.594733,79.891167 14.351612,79.727798 13.47587,79.139325 13.116638,78.829422 12.058945,77.749949 11.467938,77.146775 10.909579,76.565653 10.818147,76.458573 10.726716,76.351487 10.25875,75.822876 9.7782227,75.283871 8.9379608,74.341357 8.8888415,74.271701 8.4942829,73.463089 7.9078212,72.261189 7.910704,72.266326 7.5737616,71.822996 7.1930123,71.322029 7.1342978,71.207926 6.8945407,70.503042 6.6514364,69.788317 6.3467105,69.16891 5.8899695,68.461083 5.464692,67.802015 5.3089679,67.459196 5.0820036,66.682386 5.0289755,66.500891 4.8804751,66.220555 4.74996,66.05556 4.2244632,65.391235 4.0560561,65.092135 3.8592254,64.47357 3.6112453,63.69426 3.4151163,63.17531 3.1936519,62.712486 3.0155504,62.340283 2.8532633,61.726255 2.5073055,60.115634 2.4544109,59.869381 2.3857065,59.560445 2.3546291,59.42911 2.2573171,59.017863 2.1796408,58.507294 2.0594569,57.488933 1.9955204,56.947176 1.9164725,56.383032 1.883795,56.23528 1.7716022,55.727999 1.7133786,55.487679 1.5366772,54.802534 1.4392957,54.424946 1.3283649,53.901098 1.2901644,53.638428 1.2000722,53.018946 1.182774,48.839044 1.2657061,47.728351 c 0.1435747,-1.922868 0.2392029,-2.736565 0.4069206,-3.46247 0.1551486,-0.671504 0.2551814,-1.193401 0.326107,-1.701386 0.081022,-0.580293 0.057589,-0.479053 0.5366158,-2.318432 0.1995442,-0.766214 0.4331841,-1.558702 0.5191997,-1.761083 0.1328302,-0.31253 0.7842907,-2.13811 1.0793024,-3.024517 0.3063568,-0.920495 0.5400367,-1.52274 0.8184688,-2.109374 0.1740043,-0.366614 0.3368891,-0.733731 0.3619662,-0.815815 0.2216735,-0.725602 1.1239274,-2.281745 2.0149566,-3.475254 0.3029726,-0.405824 0.6311347,-0.857754 0.7292492,-1.00429 0.098114,-0.146535 0.3154852,-0.441043 0.4830473,-0.654463 0.167562,-0.213419 0.3940875,-0.522355 0.5033905,-0.686524 0.2681104,-0.402691 0.4331173,-0.588461 1.7233298,-1.940177 1.427458,-1.495502 1.673643,-1.732504 2.216001,-2.133338 0.246253,-0.181995 0.474597,-0.361725 0.50743,-0.399399 0.03283,-0.03767 0.153722,-0.132219 0.26864,-0.210099 0.114918,-0.07788 0.289534,-0.215835 0.388036,-0.306566 0.0985,-0.09073 0.438536,-0.340228 0.755632,-0.554439 0.317097,-0.214211 0.928934,-0.672994 1.359639,-1.019517 0.430705,-0.346524 0.804213,-0.630044 0.830017,-0.630044 0.02581,0 0.366937,-0.228457 0.758071,-0.507681 0.454861,-0.324719 1.120491,-0.714741 1.846971,-1.082224 0.6247,-0.315998 1.199885,-0.624821 1.278188,-0.686273 0.0783,-0.06145 0.168729,-0.111732 0.200944,-0.111732 0.03222,0 0.183061,-0.09055 0.335211,-0.201218 0.152151,-0.110669 0.370663,-0.249034 0.485581,-0.307477 0.114918,-0.05844 0.325112,-0.194815 0.467098,-0.303049 0.141986,-0.108234 0.356898,-0.228395 0.477582,-0.267023 0.120684,-0.03863 0.517965,-0.199161 0.882847,-0.356738 0.364882,-0.157577 0.83184,-0.319638 1.037686,-0.360135 0.331705,-0.06526 0.396284,-0.06177 0.567898,0.03065 0.190406,0.10254 0.200473,0.101352 0.604002,-0.07128 0.225703,-0.09656 0.504393,-0.210476 0.619311,-0.253157 0.218662,-0.08121 0.297364,-0.113903 0.994883,-0.413267 0.41996,-0.180239 0.769484,-0.27924 1.482574,-0.419931 0.197002,-0.03887 0.465642,-0.09987 0.596977,-0.135551 0.131335,-0.03569 0.440271,-0.08544 0.686524,-0.110577 0.898747,-0.09172 1.519798,-0.17626 1.698063,-0.231133 0.100329,-0.03088 0.491352,-0.08607 0.868941,-0.122636 0.377588,-0.03657 0.820844,-0.11189 0.985013,-0.167384 0.259087,-0.08758 0.562478,-0.09973 2.298363,-0.09201 2.455061,0.01091 4.923482,0.09848 5.163855,0.183179 0.292318,0.103008 1.644962,0.388408 2.477457,0.522729 0.279087,0.04503 0.547727,0.09613 0.596977,0.113566 0.04925,0.01743 0.438779,0.07293 0.865618,0.123336 0.93793,0.110755 1.436563,0.211743 2.626701,0.531986 0.295504,0.07951 0.658167,0.161865 0.805919,0.183002 0.415675,0.05947 1.512564,0.432024 2.238666,0.760363 0.645719,0.291989 0.745997,0.347914 1.402897,0.782388 0.469772,0.310707 1.140277,0.606691 1.761084,0.777402 0.346284,0.09522 0.738886,0.263497 1.104408,0.473364 0.311921,0.179091 0.795472,0.449279 1.074559,0.600418 0.279087,0.151139 0.923823,0.545938 1.432746,0.877331 0.508924,0.331394 1.043514,0.675604 1.187978,0.764911 0.506846,0.313331 0.746878,0.525187 1.198533,1.057843 0.250566,0.295504 0.588443,0.626751 0.750845,0.736105 0.567445,0.382104 0.896248,0.654044 1.429522,1.182313 0.295504,0.29273 1.061128,1.014723 1.701386,1.604428 1.487179,1.369757 2.062504,1.95812 2.567815,2.626023 0.223574,0.295504 0.625012,0.779055 0.892088,1.074559 0.267081,0.295504 0.585109,0.695105 0.706737,0.888002 0.203588,0.322878 0.361243,0.557866 1.106438,1.649153 0.145735,0.213419 0.336881,0.589515 0.424768,0.835768 0.08789,0.246253 0.277803,0.649448 0.422033,0.895989 0.144236,0.24654 0.360091,0.662932 0.479678,0.925315 0.119592,0.262383 0.284758,0.622207 0.367027,0.79961 0.08228,0.177403 0.19714,0.459474 0.255262,0.626826 0.08783,0.252912 0.444456,1.17888 0.706988,1.835694 0.08819,0.220636 0.159423,0.248576 0.364013,0.142777 0.26119,-0.135068 0.295492,7.94e-4 0.03848,0.152435 -0.116841,0.06894 -0.212435,0.133451 -0.212435,0.143365 0,0.0099 0.0669,0.161728 0.148659,0.337365 0.08177,0.175638 0.148928,0.378634 0.149245,0.451102 5.97e-4,0.07247 0.123765,0.36531 0.274317,0.650758 0.160527,0.30437 0.309748,0.691753 0.360831,0.936742 0.0479,0.229759 0.112274,0.464781 0.143042,0.522271 0.03077,0.05749 0.135048,0.490039 0.231729,0.961221 0.150038,0.731177 0.180155,1.035998 0.205587,2.080498 0.01639,0.673092 0.06054,1.371556 0.09812,1.552141 0.340396,1.635793 0.360533,1.870935 0.370663,4.328087 0.0096,2.326666 -0.08125,4.876303 -0.189862,5.328881 -0.0336,0.140015 -0.06109,0.387184 -0.06109,0.549266 0,0.162082 -0.02724,0.42362 -0.06054,0.581196 -0.0774,0.366321 -0.174705,1.507533 -0.235657,2.76396 -0.05052,1.041365 -0.141328,1.556966 -0.394267,2.238665 -0.240809,0.649014 -0.364234,1.04011 -0.465052,1.473616 -0.05104,0.219481 -0.224362,0.676169 -0.385164,1.014862 -0.440402,0.927637 -0.608397,1.309593 -0.608809,1.384165 0,0.03708 -0.04092,0.145182 -0.0905,0.240238 -0.04957,0.09506 -0.173428,0.444288 -0.275231,0.776071 -0.101808,0.331782 -0.259786,0.737561 -0.35107,0.90173 -0.09128,0.164169 -0.253924,0.511687 -0.361428,0.772263 -0.107498,0.260576 -0.281875,0.569512 -0.387492,0.686524 -0.105624,0.117013 -0.250976,0.333638 -0.323001,0.48139 -0.07202,0.147752 -0.169822,0.3358 -0.217324,0.417884 -0.244002,0.42162 -0.44559,0.856371 -0.608982,1.31335 -0.430248,1.203339 -1.22104,2.379002 -2.429066,3.611267 -0.335758,0.342498 -1.33049,1.162876 -1.645962,1.357467 -0.299534,0.184758 -0.778865,0.514433 -1.030855,0.709 -0.09323,0.07198 -0.2655,0.281314 -0.382818,0.465177 -0.385295,0.603849 -0.572549,0.865725 -0.943374,1.319308 -0.201324,0.246253 -0.436295,0.568621 -0.522164,0.716373 -0.218339,0.375696 -0.941863,1.075419 -1.296307,1.253653 -0.578492,0.290907 -1.58241,0.855266 -1.855208,1.042914 -0.289858,0.19939 -0.358051,0.253112 -1.361771,1.0729 -0.487443,0.398118 -0.705804,0.534963 -1.014862,0.636013 -0.216582,0.07081 -0.528105,0.227843 -0.692274,0.348946 -0.164169,0.121108 -0.365649,0.265195 -0.447733,0.320195 -0.08208,0.055 -0.445847,0.299014 -0.808362,0.542258 -0.910605,0.611001 -1.560008,0.923351 -2.743654,1.319649 -0.558174,0.186877 -1.216342,0.443458 -1.462595,0.570173 -0.246253,0.126714 -0.756669,0.335465 -1.134257,0.463893 -0.377588,0.128422 -0.99546,0.388585 -1.373048,0.578131 -1.626984,0.816749 -1.757334,0.851839 -4.566878,1.229505 -0.26267,0.03531 -0.558373,0.0887 -0.657117,0.118655 -0.166996,0.05065 -0.78554,0.106185 -2.566562,0.230434 -0.394005,0.02749 -0.823829,0.06868 -0.955164,0.09155 -0.131335,0.02286 -0.257164,0.02312 -0.27962,5.97e-4 z m 0.690621,-0.922622 c 0.200789,-0.03182 0.875486,-0.08549 1.499327,-0.119259 0.623842,-0.03377 1.228281,-0.08889 1.3432,-0.122499 0.278869,-0.08155 0.87177,-0.175971 1.492443,-0.237663 1.483083,-0.147412 2.036524,-0.304429 3.471531,-0.984912 0.663211,-0.314493 1.458726,-0.654018 1.767809,-0.754495 0.309084,-0.100484 0.768805,-0.28483 1.021601,-0.409664 0.252797,-0.124834 0.874993,-0.366425 1.382658,-0.536868 0.507666,-0.170443 1.13794,-0.41038 1.40061,-0.533197 0.445532,-0.208321 1.743244,-1.048268 2.464837,-1.595374 0.173646,-0.131658 0.519848,-0.311336 0.769341,-0.399289 0.256586,-0.09045 0.547902,-0.243984 0.670678,-0.35347 0.89862,-0.801353 1.774913,-1.435767 2.452955,-1.775877 0.213419,-0.107056 0.495491,-0.266114 0.626826,-0.353464 0.131335,-0.08735 0.315731,-0.192054 0.409768,-0.232678 0.247339,-0.106841 0.869465,-0.664323 0.976521,-0.875056 0.05034,-0.09909 0.295886,-0.435375 0.54565,-0.747296 0.492691,-0.615299 0.721471,-0.940562 0.986774,-1.402897 0.22146,-0.385934 0.487862,-0.668179 0.765964,-0.811519 0.122213,-0.06299 0.310261,-0.191756 0.417884,-0.28615 0.107623,-0.09439 0.334988,-0.253691 0.505258,-0.354007 0.429041,-0.252779 0.923912,-0.662066 1.451503,-1.200486 0.49641,-0.506604 1.233015,-1.369259 1.405547,-1.646076 0.06139,-0.0985 0.170593,-0.251909 0.242666,-0.340905 0.07207,-0.089 0.17852,-0.290476 0.236546,-0.447733 0.05803,-0.157257 0.141478,-0.328594 0.185457,-0.38075 0.04397,-0.05216 0.156886,-0.322428 0.250916,-0.600604 0.189313,-0.560064 0.880983,-1.924806 1.153456,-2.275899 0.16073,-0.207102 0.584859,-1.001427 0.584859,-1.095337 0,-0.02221 0.07858,-0.204287 0.174622,-0.404615 0.09604,-0.200329 0.228737,-0.53885 0.294871,-0.75227 0.216822,-0.699649 0.42411,-1.210326 0.872351,-2.149119 0.348593,-0.7301 0.453977,-1.015477 0.499497,-1.352683 0.03273,-0.242422 0.134588,-0.591187 0.235376,-0.805919 0.395331,-0.842252 0.549984,-1.609779 0.549984,-2.729542 0,-0.458552 0.02572,-0.963384 0.05716,-1.12185 0.05242,-0.264263 0.117933,-0.814142 0.247692,-2.079051 0.136027,-1.326081 0.184209,-2.645212 0.192967,-5.283251 0.0094,-2.822646 -0.0053,-3.129075 -0.187773,-3.940051 -0.153394,-0.681459 -0.204017,-1.146242 -0.251125,-2.305373 -0.05649,-1.389986 -0.159882,-2.163158 -0.378257,-2.828634 -0.08081,-0.246253 -0.164139,-0.548571 -0.185176,-0.671817 -0.02104,-0.123247 -0.126917,-0.391887 -0.235281,-0.596978 -0.108357,-0.205091 -0.272019,-0.601237 -0.363684,-0.880324 -0.09167,-0.279087 -0.214381,-0.602586 -0.2727,-0.718888 C 71.36691,37.431067 71.100617,36.7729 70.833469,36.084774 70.233005,34.538095 69.970723,33.9537 69.475381,33.058819 69.262195,32.673676 69.046495,32.216988 68.996044,32.043957 68.897985,31.707604 68.7247,31.413724 68.176949,30.654794 67.987367,30.392124 67.755901,30.042553 67.662582,29.877971 67.569256,29.713388 67.180683,29.216404 66.799071,28.773563 66.417466,28.33072 66.014804,27.834076 65.904268,27.669907 65.673876,27.32772 64.548884,26.2118 62.833989,24.624376 62.621727,24.427893 62.138176,23.9711 61.759429,23.609279 61.380683,23.247458 60.87955,22.826095 60.645802,22.672918 60.403677,22.51425 60.044057,22.195382 59.810034,21.931859 59.19002,21.233687 59.006177,21.060465 58.644253,20.83342 58.3037,20.619782 57.76262,20.269867 56.904146,19.708096 c -0.269375,-0.176275 -0.718117,-0.439611 -0.997204,-0.585191 -0.279087,-0.145581 -0.614886,-0.329751 -0.746221,-0.409268 -0.357517,-0.216457 -1.08515,-0.565521 -1.178844,-0.565521 -0.138188,0 -1.071346,-0.331425 -1.38816,-0.493026 -0.164168,-0.08374 -0.486536,-0.279014 -0.716373,-0.433944 -0.91273,-0.615261 -2.333061,-1.196352 -3.432247,-1.404211 -0.291921,-0.0552 -1.792527,-0.417555 -2.179341,-0.526245 -0.131335,-0.0369 -0.332815,-0.06682 -0.447733,-0.06648 -0.222331,6.59e-4 -1.233227,-0.147298 -1.657469,-0.242592 -0.140015,-0.03145 -0.323654,-0.05718 -0.408086,-0.05718 -0.08443,0 -0.319107,-0.03938 -0.521499,-0.08751 -0.202392,-0.04813 -0.582897,-0.130462 -0.845567,-0.182961 -0.26267,-0.0525 -0.692494,-0.152588 -0.955164,-0.222421 -0.384472,-0.102215 -0.75691,-0.136995 -1.910328,-0.178397 -2.710266,-0.09728 -4.560233,-0.112399 -4.916092,-0.04016 -0.744291,0.151081 -1.250203,0.236197 -1.590962,0.267668 -0.197003,0.01819 -0.586531,0.07009 -0.865618,0.115334 -0.279087,0.04524 -0.735775,0.112548 -1.014862,0.149574 -1.674645,0.222172 -2.49627,0.425301 -3.719487,0.919561 -0.617449,0.24949 -1.198368,0.492782 -1.29093,0.540648 -0.09256,0.04787 -0.340836,0.114592 -0.551718,0.148281 -0.210882,0.03369 -0.516475,0.102518 -0.679095,0.152956 -0.16262,0.05044 -0.497153,0.12813 -0.743406,0.172651 -0.524249,0.09478 -1.182606,0.389719 -1.490163,0.667579 -0.119451,0.107916 -1.015225,0.598664 -1.99061,1.09055 -0.975383,0.491887 -1.850779,0.95702 -1.945323,1.033631 -0.09454,0.07661 -0.390342,0.287044 -0.657329,0.467629 -0.4753,0.321485 -1.157729,0.822001 -2.137144,1.56745 -0.269341,0.205 -0.605141,0.445172 -0.746222,0.533715 -0.141081,0.08854 -0.337104,0.231502 -0.435605,0.317687 -0.0985,0.08619 -0.461165,0.372747 -0.805919,0.636805 -0.729767,0.55895 -1.221231,0.97378 -1.397392,1.179495 -0.0687,0.08022 -0.608453,0.646429 -1.199461,1.258241 -1.096859,1.135469 -1.3577927,1.431673 -1.6864628,1.914424 -0.1025763,0.150665 -0.3560929,0.502086 -0.56337,0.780935 -0.2072772,0.278849 -0.5380517,0.732642 -0.7350543,1.008428 -0.1970025,0.275785 -0.4455153,0.616372 -0.5522507,0.756859 -0.7436179,0.978765 -1.2890345,1.936212 -1.6581735,2.910826 -0.074615,0.197003 -0.2759928,0.653691 -0.4475051,1.014862 -0.2975201,0.626519 -0.472199,1.096987 -1.340986,3.611714 -0.2098528,0.607425 -0.4529819,1.292456 -0.5402867,1.522293 -0.160593,0.422772 -0.1978589,0.550878 -0.5036107,1.731234 -0.093556,0.361172 -0.222668,0.858155 -0.2869166,1.104409 -0.064248,0.246253 -0.1621018,0.756669 -0.2174516,1.134257 -0.05535,0.377588 -0.1253847,0.79398 -0.1556327,0.925315 -0.3470179,1.506726 -0.3931758,1.850755 -0.5526608,4.119145 -0.079084,1.124822 -0.063309,4.933995 0.022744,5.492193 0.035432,0.229836 0.1839856,0.901436 0.3301187,1.492443 0.1512346,0.61164 0.3316512,1.563197 0.418795,2.208817 0.084204,0.623842 0.1738127,1.284742 0.1991298,1.468667 0.025317,0.183925 0.073186,0.425701 0.1063762,0.53728 0.03319,0.111578 0.105764,0.431214 0.1612759,0.710301 0.2670484,1.34259 0.5077914,2.236578 0.6868946,2.550753 0.075985,0.133289 0.472158,1.203374 0.6849227,1.850014 0.1218176,0.370232 0.2576794,0.619174 0.5538674,1.014862 0.4130389,0.551794 0.6084354,0.931323 0.7265574,1.411233 0.090235,0.36661 0.4151994,1.014478 0.7478001,1.490858 0.3896695,0.55812 0.5719721,0.952003 1.0737442,2.319938 0.056509,0.154054 0.1615606,0.360571 0.2334493,0.458925 0.4972494,0.680318 0.6826915,0.992938 1.0875127,1.833344 0.2593718,0.538452 0.550978,1.052092 0.6751875,1.189289 0.1202498,0.132816 0.326092,0.371404 0.457427,0.530194 0.131335,0.158784 0.437348,0.507251 0.680028,0.774369 0.242681,0.267118 0.547629,0.619137 0.677661,0.782261 0.130033,0.163131 0.307572,0.351178 0.394531,0.417885 0.08696,0.06671 0.480476,0.454538 0.874481,0.861838 0.490069,0.506607 0.980394,0.934879 1.552141,1.355694 0.960426,0.706899 1.389035,1.047188 1.928634,1.531224 0.210971,0.189248 0.628959,0.504929 0.928861,0.701514 0.299903,0.196585 0.679597,0.452592 0.843766,0.568902 0.279144,0.197766 1.048569,0.704129 1.738083,1.143832 0.165018,0.105236 0.499625,0.257596 0.74357,0.338582 0.243945,0.08099 0.725608,0.258008 1.070363,0.393378 0.344754,0.135371 0.780642,0.298728 0.968638,0.36301 0.187996,0.06429 0.488494,0.183983 0.667775,0.265984 0.179279,0.08201 0.346843,0.149101 0.372364,0.149101 0.02552,0 0.383191,0.143143 0.794821,0.318099 0.942864,0.400739 1.226936,0.507437 2.151315,0.808033 0.410422,0.133461 1.082022,0.353608 1.492444,0.489217 1.433296,0.473571 1.612598,0.521251 2.675335,0.711389 0.207336,0.0371 0.704319,0.08122 1.104409,0.09807 0.40009,0.01684 0.85535,0.05848 1.01169,0.09253 0.156339,0.03405 0.639891,0.08438 1.074559,0.111843 0.434669,0.02746 1.032082,0.08019 1.327586,0.117163 0.295504,0.03697 1.195447,0.08799 1.999874,0.113384 0.804428,0.02539 1.580386,0.0505 1.724352,0.05581 0.143966,0.0053 0.426038,-0.01638 0.626826,-0.04821 z"
       id="path1002" /></g></svg>
