<?xml version="1.0" encoding="UTF-8" standalone="no"?>
<!-- Created with Inkscape (http://www.inkscape.org/) -->

<svg
   width="75"
   height="100"
   viewBox="0 0 75 100"
   version="1.1"
   id="svg5"
   inkscape:version="1.2.1 (9c6d41e410, 2022-07-14)"
   sodipodi:docname="armor_feet_light.svg"
   xml:space="preserve"
   xmlns:inkscape="http://www.inkscape.org/namespaces/inkscape"
   xmlns:sodipodi="http://sodipodi.sourceforge.net/DTD/sodipodi-0.dtd"
   xmlns="http://www.w3.org/2000/svg"
   xmlns:svg="http://www.w3.org/2000/svg"><sodipodi:namedview
     id="namedview7"
     pagecolor="#ffffff"
     bordercolor="#999999"
     borderopacity="1"
     inkscape:pageshadow="0"
     inkscape:pageopacity="0"
     inkscape:pagecheckerboard="0"
     inkscape:document-units="px"
     showgrid="false"
     height="70mm"
     units="px"
     inkscape:zoom="11.844781"
     inkscape:cx="38.962308"
     inkscape:cy="69.81978"
     inkscape:window-width="3840"
     inkscape:window-height="2066"
     inkscape:window-x="-11"
     inkscape:window-y="-11"
     inkscape:window-maximized="1"
     inkscape:current-layer="layer1"
     inkscape:showpageshadow="2"
     inkscape:deskcolor="#d1d1d1" /><defs
     id="defs2" /><g
     inkscape:label="Layer 1"
     inkscape:groupmode="layer"
     id="layer1"><path
       style="fill:#ffffff;fill-rule:evenodd;stroke-width:0.0844254"
       d="M 30.815259,89.394982 C 30.389288,89.298497 27.344915,89.07863 26.356978,89.073 25.948016,89.0707 25.359149,89.03214 25.048385,88.98737 24.737619,88.9426 23.856498,88.863686 23.090338,88.812002 c -1.3305,-0.08975 -2.296841,-0.247194 -2.638053,-0.429805 -0.08688,-0.0465 -0.507141,-0.120081 -0.93391,-0.163518 -0.885139,-0.09009 -2.078978,-0.289431 -2.759939,-0.460837 -0.255387,-0.06428 -0.673293,-0.138399 -0.928679,-0.1647 -2.251118,-0.231828 -2.688137,-0.400943 -4.208743,-1.628684 -1.216881,-0.982513 -1.252738,-1.044941 -1.441669,-2.509977 -0.05389,-0.417906 -0.143796,-1.025769 -0.1997824,-1.350806 -0.1332389,-0.773532 -0.1311412,-4.509931 0.00303,-5.403224 0.055796,-0.371471 0.1768774,-1.739162 0.2690704,-3.039313 0.09219,-1.300151 0.187873,-2.553867 0.212622,-2.786037 0.02475,-0.23217 0.084,-0.991998 0.131665,-1.688508 0.04767,-0.696509 0.151127,-1.79826 0.229914,-2.448335 0.185036,-1.526738 0.211927,-6.651075 0.03885,-7.403803 L 10.754141,58.853529 10.307553,58.723703 C 9.6734206,58.539355 9.0786898,58.035551 8.7354312,57.391937 8.4700529,56.894351 8.452169,56.809378 8.4547754,56.058445 8.4571005,55.388588 8.5093504,55.077602 8.7718055,54.171511 9.0537607,53.1981 9.3358091,52.371832 9.7271393,51.372837 9.909941,50.906177 9.9667802,49.296521 9.8178623,48.803608 9.721029,48.483094 9.6330388,48.385584 9.2042477,48.12361 8.8356325,47.898401 8.5855096,47.652076 8.2554146,47.189186 7.6423133,46.329437 7.5422531,46.078578 7.4917126,45.274522 7.4133142,44.02727 7.7055099,42.891817 8.4452987,41.568951 8.7348338,41.051213 8.7379925,41.034805 8.6573858,40.467186 8.6123819,40.150276 8.4790317,39.519658 8.3610522,39.065814 8.1431195,38.227467 7.8515959,36.99188 7.7091743,36.302908 7.6659804,36.093956 7.6015545,35.182162 7.5660055,34.2767 7.4974566,32.530699 7.3915359,32.026444 6.9187209,31.195174 6.6567221,30.734545 6.4341061,29.971834 6.0769969,28.311317 5.9108323,27.53867 5.7188944,26.772514 5.6504683,26.608747 5.5012333,26.251577 4.9416037,25.310749 4.2606839,24.272293 3.3733594,22.919054 3.2406881,22.609071 3.160861,21.702586 3.1217597,21.258567 3.0636068,20.00248 3.0316322,18.911283 2.9766937,17.036393 2.9835678,16.890756 3.1566305,16.263004 3.3257372,15.649602 4.101578,14.034548 4.6473802,13.159737 5.2943349,12.122799 6.6111479,10.984162 7.9359846,10.316111 9.1236883,9.7172086 9.6106095,9.5324872 10.21547,9.4513514 c 0.688621,-0.092372 1.628931,-0.3357082 2.406123,-0.6226652 0.973228,-0.3593381 1.379964,-0.4156005 2.527513,-0.3496215 0.583311,0.033538 1.74441,0.093919 2.580221,0.1341807 0.835812,0.040262 1.709048,0.1138226 1.940526,0.1634688 0.634774,0.136143 1.645849,0.4284035 1.937452,0.5600382 0.142376,0.064271 0.695767,0.2854702 1.229757,0.491554 0.533991,0.2060836 1.355428,0.5644006 1.825417,0.7962596 0.469989,0.231859 1.03986,0.44902 1.26638,0.482581 0.226521,0.03356 0.563822,0.115246 0.749557,0.181524 0.185736,0.06628 0.527659,0.154575 0.759829,0.196214 0.23217,0.04164 0.504293,0.09955 0.604718,0.128683 0.14563,0.04225 0.316535,-0.07254 0.844254,-0.56703 0.761286,-0.713358 1.107045,-0.970755 1.40418,-1.045331 0.187576,-0.047079 0.693204,0.126177 1.621392,0.555577 0.651881,0.301574 1.95449,0.792596 2.448336,0.922907 0.761876,0.201036 1.287422,0.405897 2.532761,0.987287 2.326058,1.085928 2.724137,1.258207 3.093368,1.338731 0.28949,0.06313 1.097829,0.379905 2.316507,0.907789 0.37513,0.162492 0.98839,0.374846 1.362802,0.471897 0.945396,0.245059 3.593476,1.224345 4.244834,1.569783 0.208952,0.110815 0.702841,0.332718 1.097529,0.493117 3.341572,1.357999 5.780804,2.648819 6.584004,3.484196 0.418972,0.435756 0.502285,0.574996 0.555668,0.928679 0.121157,0.802711 -0.170555,1.84545 -0.970051,3.467495 -0.186381,0.378136 -0.453788,0.976796 -0.594236,1.330355 -0.393588,0.990799 -0.917898,1.987243 -1.314867,2.498881 -0.435918,0.56184 -0.52846,0.788529 -1.309659,3.208164 -0.486046,1.505447 -0.749066,2.163763 -1.267685,3.172902 -0.836759,1.628184 -1.246244,2.624079 -1.757924,4.275388 -0.09674,0.312192 -0.465615,1.166999 -0.819729,1.899571 -0.354114,0.732571 -0.717593,1.518801 -0.807729,1.747178 -0.09014,0.228375 -0.230929,0.513311 -0.31287,0.63319 -0.38841,0.568244 -1.024854,2.584017 -1.236495,3.916289 -0.386985,2.436042 -0.387558,8.368322 -0.001,10.865048 0.32515,2.100361 0.414591,2.598726 0.520854,2.902184 0.06302,0.179965 0.114582,0.402772 0.114582,0.495128 0,0.09235 0.152383,0.511222 0.33863,0.930816 0.413578,0.931751 1.969063,3.041058 3.038384,4.120185 0.872213,0.880212 2.169054,1.963137 2.600625,2.17165 0.17443,0.08428 0.543949,0.288749 0.821151,0.454385 0.887116,0.530078 2.34806,1.384206 2.783489,1.627343 0.23217,0.12964 0.726058,0.433338 1.09753,0.674883 0.610916,0.397243 1.079019,0.627681 2.36391,1.163708 0.23217,0.09686 0.76405,0.334923 1.181955,0.529038 1.608271,0.747037 1.978041,0.865046 3.419228,1.091225 1.117685,0.175408 1.576573,0.291151 2.321697,0.585587 1.62188,0.640889 1.867516,0.793337 3.85201,2.390666 0.514791,0.414358 1.577145,1.622566 1.882243,2.140663 0.151128,0.256633 0.394913,0.813597 0.541745,1.237697 l 0.266968,0.771089 v 2.072026 c 0,1.360152 -0.03277,2.143945 -0.09538,2.281357 -0.180044,0.395155 -0.379071,0.417065 -3.221267,0.354617 -2.499338,-0.05492 -2.666878,-0.04897 -3.246359,0.115174 -0.336059,0.09519 -0.829947,0.175851 -1.09753,0.179241 -0.267583,0.0034 -0.695468,0.04185 -0.950854,0.08547 -0.255387,0.04362 -1.003116,0.114506 -1.661622,0.157531 -0.731205,0.04777 -1.289909,0.125694 -1.435231,0.200164 -0.68347,0.350244 -1.250253,0.365826 -5.092408,0.139995 -0.76616,-0.04503 -2.381863,-0.105718 -3.590451,-0.134857 l -2.197432,-0.05298 -0.664461,0.266063 c -0.426476,0.170769 -0.913172,0.291272 -1.358873,0.336448 -0.381928,0.03871 -0.746703,0.103467 -0.810611,0.1439 -0.06391,0.04043 -0.610086,0.100703 -1.213727,0.133932 -0.603642,0.03323 -1.49644,0.102717 -1.983997,0.154414 -0.487556,0.0517 -1.437341,0.124995 -2.110634,0.162881 -0.673292,0.03789 -1.376133,0.112275 -1.561869,0.165305 -0.664329,0.189675 -1.508675,0.285717 -4.474545,0.508964 -0.650075,0.04893 -1.409903,0.124102 -1.688507,0.167044 -0.64586,0.09955 -3.18604,0.09704 -3.630291,-0.0036 z m 3.714717,-1.260601 c 0.278603,-0.04205 1.26638,-0.117302 2.195059,-0.167227 0.928679,-0.04992 1.878465,-0.125364 2.110634,-0.167643 0.23217,-0.04228 0.830524,-0.154301 1.329676,-0.248938 0.499152,-0.09464 1.600903,-0.211309 2.448336,-0.259269 0.847432,-0.04796 1.843721,-0.123549 2.213975,-0.167974 0.370254,-0.04443 0.966145,-0.08078 1.324204,-0.08078 0.358058,0 0.757965,-0.04253 0.88868,-0.09451 0.130717,-0.05198 0.541598,-0.12453 0.913069,-0.161223 0.432424,-0.04272 0.912181,-0.16215 1.333567,-0.331988 l 0.658162,-0.265271 2.67664,0.04474 c 1.472151,0.02461 3.265505,0.08171 3.985232,0.126887 3.126742,0.196287 3.489975,0.200741 3.8459,0.04716 0.616009,-0.265803 1.173059,-0.376892 1.895025,-0.377915 0.394688,-5.91e-4 1.015391,-0.058 1.379339,-0.12764 0.363947,-0.06964 0.8701,-0.126624 1.124783,-0.126624 0.254683,0 0.792719,-0.08151 1.195634,-0.181136 0.693588,-0.171496 0.859018,-0.17819 3.108429,-0.125772 1.30672,0.03045 2.436965,0.03191 2.511655,0.0033 0.116372,-0.04465 0.135801,-0.231993 0.135801,-1.309457 0,-0.691541 -0.0095,-1.257348 -0.02114,-1.257348 -0.01163,0 -0.287064,0.05633 -0.612084,0.125172 -0.347371,0.07358 -1.047648,0.125776 -1.698967,0.126638 -1.254332,0.0017 -1.320935,0.01876 -2.786228,0.715262 -1.410404,0.670414 -1.697003,0.721435 -4.052524,0.721435 -1.31743,0 -2.044412,0.03217 -2.16315,0.09571 -0.315251,0.168718 -2.343308,0.200213 -2.995131,0.04651 -2.586973,-0.610002 -3.192307,-0.661168 -6.646184,-0.561754 -1.673986,0.04818 -3.21252,0.126141 -3.418963,0.173241 -0.206444,0.0471 -1.194494,0.108534 -2.195668,0.136517 -1.546295,0.04322 -1.85835,0.03124 -2.072984,-0.07961 -0.138967,-0.07177 -0.537603,-0.171588 -0.885858,-0.221817 -0.348255,-0.05023 -0.975113,-0.139722 -1.393019,-0.198873 -1.448288,-0.204991 -4.17433,-0.08641 -5.19216,0.225857 -0.348254,0.106844 -0.918126,0.239768 -1.26638,0.295388 -0.348255,0.05562 -0.918126,0.173409 -1.266381,0.261754 -0.58474,0.148335 -1.049859,0.162398 -6.078626,0.183805 l -5.445437,0.02318 -0.770206,-0.30918 C 20.419072,84.49494 20.001166,84.316507 19.914007,84.268472 19.728031,84.165979 19.037191,83.955427 18.615792,83.872806 18.453273,83.840946 17.735,83.529762 17.019628,83.181293 15.785448,82.580105 15.682479,82.545439 15.0055,82.503204 c -0.392399,-0.02448 -1.079808,0.0034 -1.527574,0.06198 -0.447768,0.05857 -1.099058,0.111667 -1.447313,0.117995 -0.595618,0.01082 -0.634785,2.53e-4 -0.660061,-0.177634 -0.03653,-0.257092 0.166277,-0.327821 1.293251,-0.451025 2.252085,-0.246206 3.227486,-0.186259 3.859573,0.237206 0.198933,0.133275 0.532657,0.310561 0.74161,0.393968 0.208953,0.08341 0.569871,0.239995 0.802041,0.347971 0.23217,0.107977 0.765557,0.28948 1.185306,0.403342 0.419748,0.113862 0.931904,0.293099 1.138123,0.398305 0.20622,0.105205 0.641613,0.283213 0.967541,0.395573 l 0.592597,0.204292 5.318798,-0.0555 c 4.271238,-0.04456 5.391583,-0.0793 5.688352,-0.176383 0.203254,-0.06649 0.602164,-0.159018 0.886466,-0.205623 1.133319,-0.18578 1.37114,-0.235537 1.614443,-0.337779 0.139302,-0.05854 0.63319,-0.134459 1.09753,-0.168715 0.464339,-0.03426 1.313954,-0.110692 1.888033,-0.169862 0.819563,-0.08447 1.173208,-0.08598 1.646294,-0.007 0.331384,0.0553 1.036969,0.140801 1.567969,0.190004 0.53388,0.04947 1.156582,0.162104 1.393018,0.251971 0.347661,0.13214 0.632675,0.161036 1.525096,0.154621 0.603641,-0.0043 1.458448,-0.04498 1.89957,-0.09031 0.441123,-0.04533 1.96078,-0.11674 3.377015,-0.158685 1.416236,-0.04194 2.916897,-0.09939 3.334802,-0.127659 0.848326,-0.05738 1.825331,0.07772 4.044126,0.559234 0.840602,0.182424 2.220922,0.213169 2.836542,0.06318 0.208952,-0.05091 1.367691,-0.120566 2.574973,-0.154793 1.207283,-0.03423 2.366021,-0.09745 2.574974,-0.140493 0.208953,-0.04304 0.645854,-0.218294 0.970892,-0.389447 0.325038,-0.171153 0.913904,-0.441782 1.308593,-0.601398 0.702498,-0.284096 0.748741,-0.291029 2.19506,-0.329089 1.095038,-0.02882 1.55753,-0.07362 1.786863,-0.173111 l 0.309421,-0.134232 -0.148597,-0.487311 C 71.348373,80.787647 70.982096,80.210015 70.125524,79.357035 69.187113,78.422559 67.747888,77.317398 67.075955,77.015314 65.580871,76.34316 64.73546,76.116772 62.745071,75.855572 62.326349,75.800623 61.255453,75.381084 60.154219,74.840568 59.806593,74.669944 59.148142,74.381329 58.690994,74.199202 57.630829,73.776834 57.206161,73.560138 56.477827,73.06989 56.154299,72.852121 55.672631,72.563842 55.407453,72.429271 55.142276,72.2947 54.648384,72.003933 54.309917,71.783123 c -0.338468,-0.220811 -0.831848,-0.514671 -1.0964,-0.653021 l -0.481006,-0.251548 -0.405454,0.287801 c -0.223,0.15829 -0.567422,0.39799 -0.765382,0.532666 -0.197959,0.134675 -0.517664,0.427988 -0.710456,0.651806 -0.371306,0.431059 -0.912564,1.387675 -0.913222,1.61402 -2.53e-4,0.07417 -0.213146,0.473083 -0.473179,0.886466 -0.551689,0.877038 -0.813357,1.38005 -0.96192,1.849134 -0.05882,0.185736 -0.134486,0.375693 -0.168134,0.422127 -0.195713,0.270073 -0.755748,1.646351 -0.714099,1.754887 0.02732,0.0712 0.141212,0.152421 0.253092,0.1805 0.111881,0.02808 0.258548,0.157663 0.325928,0.287961 0.371519,0.71844 0.792607,3.738994 0.56027,4.018943 -0.131985,0.159031 -0.291131,0.16933 -0.406307,0.02629 -0.04674,-0.05804 -0.129482,-0.618416 -0.183879,-1.245275 -0.138467,-1.595682 -0.285757,-2.135749 -0.668519,-2.451253 -0.16705,-0.137697 -0.340112,-0.250358 -0.384582,-0.250358 -0.04447,0 -0.159287,-0.07066 -0.255147,-0.157022 -0.09586,-0.08636 -0.326258,-0.197068 -0.511994,-0.246013 -0.185736,-0.04894 -0.603641,-0.170436 -0.928679,-0.269978 -0.325037,-0.09954 -0.813024,-0.214409 -1.084414,-0.255257 -0.279185,-0.04202 -0.774066,-0.215892 -1.139743,-0.400434 -0.811499,-0.409532 -3.472075,-1.938084 -3.64815,-2.095934 -0.07226,-0.06478 -0.566148,-0.342273 -1.09753,-0.616652 -0.53138,-0.274378 -1.193048,-0.617077 -1.470372,-0.761551 -0.277323,-0.144475 -0.543263,-0.262731 -0.590978,-0.262792 -0.04771,-6.1e-5 -0.305603,-0.152026 -0.573088,-0.337701 -0.267485,-0.185676 -0.518261,-0.337591 -0.557281,-0.337591 -0.143812,0 -1.176566,-0.854065 -2.037846,-1.685254 -0.804588,-0.776479 -0.904309,-0.847277 -1.080396,-0.767046 -0.106696,0.04861 -0.448647,0.08914 -0.759891,0.09006 -1.247034,0.0037 -2.054068,0.225448 -4.013483,1.102856 -0.410284,0.183721 -0.919134,0.466258 -1.130776,0.62786 -0.211643,0.161601 -0.414361,0.29382 -0.450483,0.29382 -0.08168,0 -0.958441,0.568261 -2.043672,1.324584 -0.560531,0.390646 -0.905941,0.699639 -1.077388,0.963795 -0.138793,0.213846 -0.329429,0.458563 -0.423634,0.543819 -0.09421,0.08525 -0.595257,1.012042 -1.113447,2.059526 -0.51819,1.047485 -1.029546,2.033292 -1.136345,2.190682 -0.179316,0.264256 -0.194182,0.374959 -0.194182,1.446 0,0.927971 -0.02532,1.180848 -0.126638,1.264937 -0.101034,0.08385 -0.152243,0.08385 -0.253276,0 -0.101594,-0.08431 -0.126638,-0.340155 -0.126638,-1.293638 v -1.188538 l 1.105124,-2.199246 c 0.607819,-1.209585 1.22518,-2.359319 1.371913,-2.554965 0.146733,-0.195645 0.380761,-0.51341 0.520063,-0.706143 0.245972,-0.340319 1.640269,-1.448143 2.237273,-1.777604 0.162518,-0.08969 0.618415,-0.369472 1.013104,-0.621743 0.394689,-0.252273 0.96456,-0.577826 1.26638,-0.723454 1.005832,-0.48531 1.423928,-0.669795 1.51795,-0.669795 0.05124,0 0.330123,-0.110783 0.619727,-0.246184 0.564243,-0.263805 1.483459,-0.429219 2.38519,-0.429219 0.398165,0 0.542656,-0.03022 0.542656,-0.113503 0,-0.06243 -0.19643,-0.337864 -0.436509,-0.612083 -0.506586,-0.578625 -0.994251,-1.3149 -1.079523,-1.629863 -0.05901,-0.217967 -0.06478,-0.219357 -0.812464,-0.195896 -1.940674,0.0609 -3.041166,0.279209 -3.539068,0.702075 -0.09287,0.07887 -0.795709,0.447067 -1.561869,0.818208 -1.287299,0.623591 -1.470014,0.741814 -2.407555,1.557771 -0.557995,0.485633 -1.118524,1.031186 -1.24562,1.21234 -0.127096,0.181155 -0.361317,0.500334 -0.520492,0.709286 -0.398652,0.523322 -1.408538,2.202923 -1.808206,3.007334 -0.358671,0.721898 -0.856582,2.101957 -0.856582,2.374189 0,0.09313 -0.06,0.335562 -0.13333,0.538745 -0.07333,0.203182 -0.162349,0.768332 -0.197816,1.255889 -0.06936,0.953394 -0.331947,1.701649 -0.6164,1.756429 -0.225746,0.04348 -0.286076,-0.363727 -0.108321,-0.731127 0.09305,-0.192322 0.173307,-0.640061 0.214056,-1.194153 0.03586,-0.487556 0.125958,-1.052707 0.200226,-1.255889 0.07427,-0.203182 0.135033,-0.452973 0.135033,-0.555092 0,-0.335657 0.601593,-1.930414 1.036629,-2.747989 1.276179,-2.398358 2.104169,-3.525701 3.530168,-4.806468 0.65662,-0.589745 2.024428,-1.525435 2.229908,-1.525435 0.114329,0 1.384977,-0.639264 1.705081,-0.857829 0.784755,-0.535823 1.441186,-0.696965 3.359209,-0.824624 0.638595,-0.0425 1.199329,-0.115527 1.246076,-0.162274 0.109328,-0.109327 0.03111,-1.700683 -0.1417,-2.883093 -0.410696,-2.810017 -0.477344,-3.598901 -0.452693,-5.358306 l 0.02449,-1.747777 -0.464339,0.05884 c -0.255387,0.03236 -1.756048,0.07105 -3.334802,0.08597 -3.273599,0.03094 -3.435011,0.05581 -3.822615,0.588791 -0.217131,0.29857 -0.339073,0.36747 -1.092817,0.617461 -0.739309,0.245203 -0.928366,0.276291 -1.470143,0.241745 -0.694748,-0.0443 -1.766456,-0.178138 -2.372011,-0.296222 -0.450339,-0.08782 -0.995551,-0.503936 -1.167921,-0.891387 -0.107056,-0.240639 -0.111703,-0.241949 -0.659359,-0.18584 -0.36283,0.03717 -0.90097,0.0063 -1.572791,-0.09007 l -1.021247,-0.146582 -0.48663,0.278421 c -0.367685,0.210368 -0.473199,0.312256 -0.431681,0.416848 0.03022,0.07613 0.118158,0.404366 0.195414,0.729403 0.227927,0.958953 0.201157,6.086537 -0.04408,8.442537 -0.223957,2.151587 -0.347839,3.648469 -0.408746,4.938884 -0.0252,0.533991 -0.06475,1.179845 -0.08789,1.435232 -0.02314,0.255386 -0.07819,0.920236 -0.122336,1.477444 -0.04415,0.557207 -0.137069,1.469001 -0.206486,2.026208 -0.142555,1.144282 -0.166834,3.354101 -0.04591,4.179056 0.04424,0.301821 0.142089,1.023074 0.217442,1.602786 0.13144,1.011197 0.285674,1.520953 0.460187,1.520953 0.04495,0 0.385916,0.268051 0.757707,0.59567 0.810341,0.714061 1.370158,0.987116 2.252824,1.098834 1.51425,0.191655 1.783318,0.233645 2.306636,0.359966 0.570433,0.137694 1.173609,0.240903 2.321697,0.397263 0.7418,0.101027 1.021042,0.15748 2.026209,0.409625 0.724216,0.181669 3.130376,0.401201 5.698713,0.519935 1.549807,0.07165 3.290459,0.207686 4.263481,0.333207 0.583172,0.07523 2.46308,0.02254 3.208164,-0.08991 z m 12.567531,-9.72432 c 0.06527,-0.104476 0.411522,-0.842843 0.769437,-1.640815 0.357916,-0.797971 0.816823,-1.703699 1.019795,-2.012728 0.202971,-0.30903 0.44782,-0.772435 0.544109,-1.029789 0.426153,-1.138996 0.96995,-1.869414 1.907059,-2.561523 0.437117,-0.322836 0.794758,-0.605335 0.794758,-0.627777 0,-0.02244 -0.203977,-0.15592 -0.453282,-0.296619 -0.249305,-0.140699 -0.676708,-0.448107 -0.949786,-0.683127 -0.273076,-0.235021 -0.712409,-0.614117 -0.976294,-0.842435 -0.263885,-0.228319 -0.505557,-0.415125 -0.537048,-0.415125 -0.08964,0 -0.882732,0.682937 -0.882732,0.760131 0,0.208442 -0.77581,1.389373 -1.247722,1.899268 -0.615767,0.665329 -0.659859,0.749716 -1.036631,1.983996 -0.298175,0.976798 -0.588644,1.619198 -0.878003,1.941784 -0.104128,0.116085 -0.425557,0.547555 -0.714287,0.958823 -0.28873,0.411268 -0.655349,0.933261 -0.814709,1.159983 -0.159359,0.226723 -0.289744,0.443568 -0.289744,0.481878 0,0.124548 0.560964,0.341237 1.23769,0.478093 0.528684,0.106917 1.41978,0.35013 2.181537,0.595423 0.170224,0.05481 0.209489,0.03681 0.325853,-0.149441 z m -4.018661,-1.579979 c 0.127253,-0.184087 0.638072,-0.896426 1.135155,-1.582975 0.930585,-1.285284 1.186905,-1.823268 1.635428,-3.432568 0.115406,-0.41408 0.238651,-0.601915 0.74782,-1.139742 0.398285,-0.420702 0.751125,-0.907378 1.017744,-1.403782 0.23462,-0.43683 0.54586,-0.879263 0.732167,-1.040789 0.178235,-0.154529 0.324065,-0.336132 0.324065,-0.403563 0,-0.06743 -0.199455,-0.364539 -0.443233,-0.660239 -0.243779,-0.2957 -0.60455,-0.759951 -0.801715,-1.031669 -0.197166,-0.271717 -0.550954,-0.740975 -0.786196,-1.042796 -0.767851,-0.985169 -1.381794,-2.560401 -1.645229,-4.221268 -0.0626,-0.394689 -0.155478,-0.96456 -0.206391,-1.266381 -0.05091,-0.301821 -0.111633,-0.672237 -0.134936,-0.823147 l -0.04237,-0.274383 h -0.897099 c -0.728627,0 -0.92712,0.02717 -1.056952,0.144664 -0.143994,0.130314 -0.498411,0.148083 -3.572756,0.179126 -2.896563,0.02925 -3.441774,0.01574 -3.603725,-0.08928 -0.117323,-0.07608 -0.529221,-0.145572 -1.069409,-0.180416 -0.656165,-0.04233 -0.947228,-0.09909 -1.149709,-0.224234 -0.149114,-0.09216 -0.362655,-0.16756 -0.474537,-0.16756 -0.11188,0 -0.297354,-0.06649 -0.412161,-0.147745 -0.472622,-0.334513 -1.972861,-0.497106 -2.188569,-0.237193 -0.11831,0.142553 -0.06926,3.276112 0.06549,4.184079 0.04479,0.301821 0.125296,0.928679 0.178892,1.393019 0.0536,0.46434 0.152569,1.21442 0.219937,1.666846 0.06737,0.452425 0.124153,1.288236 0.126191,1.857358 0.0023,0.629947 0.04699,1.155938 0.114331,1.344498 0.310962,0.870649 2.728305,3.582774 4.103232,4.6036 0.29538,0.219307 1.665064,1.038656 1.736295,1.038656 0.0323,0 0.462158,0.221735 0.955251,0.492745 0.493093,0.271009 0.991511,0.516307 1.107596,0.545106 0.116085,0.0288 0.460788,0.219862 0.766006,0.424584 0.305219,0.204722 0.981913,0.614776 1.503766,0.911231 0.521851,0.296456 1.088942,0.62045 1.260202,0.719987 0.435262,0.25298 0.493986,0.242426 0.755415,-0.135768 z M 20.704574,58.28405 c 0.739638,-0.251494 0.950533,-0.39808 0.950533,-0.660685 0,-0.100013 0.05578,-0.255588 0.123953,-0.345723 0.07799,-0.103112 0.124949,-0.363193 0.126638,-0.701385 0.0026,-0.516741 -0.0047,-0.535539 -0.187272,-0.486599 -0.104476,0.028 -0.293956,0.05143 -0.421068,0.05206 -0.174881,8.69e-4 -0.280042,0.07867 -0.43223,0.319747 -0.252299,0.399666 -0.789167,0.776801 -1.257051,0.88304 -0.197501,0.04485 -0.973363,0.106328 -1.724136,0.136627 -0.750775,0.0303 -1.396629,0.08749 -1.435232,0.127087 -0.108535,0.111333 0.458152,0.505037 0.891783,0.619563 0.21386,0.05648 0.616784,0.107042 0.895388,0.112355 0.278603,0.0053 0.582535,0.04231 0.675403,0.08222 0.345536,0.148482 1.12714,0.0882 1.793291,-0.138305 z m 21.716853,-0.221578 c 0.168689,-0.118528 0.393734,-0.146669 1.172875,-0.146669 h 0.964133 l -0.05575,-0.527659 c -0.03066,-0.290212 -0.07977,-1.154517 -0.109114,-1.920677 l -0.05336,-1.393019 -0.77073,-0.0082 c -0.423902,-0.0045 -0.852608,-0.05197 -0.952681,-0.105532 -0.100073,-0.05356 -0.467141,-0.09738 -0.815708,-0.09738 -0.348567,0 -0.654643,-0.03379 -0.68017,-0.0751 -0.04974,-0.08049 -0.424439,-0.159505 -1.103295,-0.232673 -0.23217,-0.02502 -0.458219,-0.07999 -0.502331,-0.12214 -0.04411,-0.04215 -0.489966,-0.07664 -0.990787,-0.07664 -0.961115,0 -1.550279,-0.09627 -1.968322,-0.321621 -0.19286,-0.103964 -0.563965,-0.14418 -1.55573,-0.168593 -0.886184,-0.02181 -1.358382,-0.06773 -1.477444,-0.143656 -0.09624,-0.06138 -0.516803,-0.1391 -0.934575,-0.172714 -0.417771,-0.03361 -0.841565,-0.114832 -0.941762,-0.180484 -0.118774,-0.07782 -0.35392,-0.110472 -0.675646,-0.09381 l -0.49347,0.02556 v 2.406123 2.406123 l 0.869983,0.05771 c 0.651896,0.04324 0.944107,0.101442 1.165675,0.23217 0.16263,0.09595 0.350921,0.174462 0.418424,0.174462 0.0675,0 0.283781,0.0703 0.48062,0.156227 0.537396,0.234588 1.100658,0.350325 1.704922,0.350325 0.307004,0 0.567756,0.04075 0.60058,0.09386 0.04148,0.06711 0.975177,0.08485 3.276465,0.06224 2.88807,-0.02837 3.239885,-0.04667 3.4272,-0.178286 z m -30.798405,-0.71654 c 0.237076,-0.127694 0.51125,-0.2791 0.609277,-0.336458 0.241994,-0.141596 0.798568,-0.132877 1.729887,0.0271 0.654929,0.112501 0.910054,0.118129 1.597853,0.03525 0.450165,-0.05425 1.483332,-0.126708 2.295926,-0.161028 1.579176,-0.0667 2.036072,-0.179263 2.402767,-0.591974 0.141074,-0.158777 0.147303,-0.197768 0.04221,-0.26424 -0.0678,-0.04289 -0.205612,-0.07856 -0.306238,-0.07927 -0.100628,-6.76e-4 -0.352074,-0.07379 -0.558772,-0.162386 -0.426334,-0.182748 -0.557469,-0.467051 -0.395637,-0.857748 0.09527,-0.230012 0.269567,-0.328545 0.835263,-0.472197 0.15888,-0.04035 0.302385,-0.113889 0.318898,-0.163429 0.01651,-0.04954 -0.132476,-0.291196 -0.331087,-0.537016 -0.494684,-0.612267 -0.868583,-0.763405 -1.888593,-0.763405 -0.691393,0 -0.814847,-0.02217 -0.940443,-0.16885 -0.121368,-0.141748 -0.24905,-0.168851 -0.795455,-0.168851 -0.507904,0 -0.795873,-0.05338 -1.310937,-0.242989 -0.723002,-0.266161 -1.17853,-0.306842 -3.127782,-0.279329 l -1.11692,0.01577 -0.169955,0.333138 c -0.186661,0.365886 -0.8842891,2.710402 -0.9719822,3.266538 -0.1073535,0.680818 0.2347252,1.375043 0.8196012,1.663323 0.402172,0.198228 0.77362,0.171168 1.262117,-0.09195 z m 17.241946,-0.360531 c 0.134623,-0.04549 0.359579,-0.0827 0.499904,-0.0827 0.140325,0 0.324613,-0.06287 0.409529,-0.139723 0.141788,-0.128316 0.154392,-0.313329 0.154392,-2.266393 v -2.126671 l -1.377146,-0.05645 c -0.792923,-0.0325 -1.482373,-0.02305 -1.625189,0.02227 -0.136423,0.04329 -0.665947,0.102082 -1.176721,0.130648 -0.510773,0.02856 -1.289597,0.08971 -1.73072,0.135886 -0.441122,0.04617 -0.997247,0.104071 -1.235833,0.128664 -0.697721,0.07192 -0.724818,0.117248 -0.5757,0.963014 0.06953,0.394364 0.163435,0.850261 0.208677,1.013104 0.04524,0.162843 0.08245,0.770971 0.08268,1.351396 l 4.22e-4,1.055317 3.060472,-0.02283 c 1.707004,-0.01273 3.168718,-0.0594 3.305239,-0.105531 z m -7.088792,-1.620027 c 0.07185,-0.102585 0.101672,-0.215488 0.06626,-0.250896 -0.215646,-0.215646 -2.213542,-0.126154 -2.213542,0.09915 0,0.15284 0.716998,0.309685 1.493764,0.326765 0.450936,0.0099 0.540844,-0.01416 0.653514,-0.175021 z m -0.0383,-1.185394 c -0.0044,-0.282877 -0.248191,-1.406441 -0.362085,-1.669115 -0.269417,-0.621348 -0.285771,-0.626027 -2.353694,-0.67339 -1.020866,-0.02338 -1.869372,-0.02914 -1.885569,-0.0128 -0.0162,0.01634 0.03211,0.158807 0.107356,0.316595 l 0.136806,0.286886 h 0.775578 c 0.621508,0 0.860396,0.03773 1.202549,0.189957 0.550144,0.244756 1.28319,1.055406 1.28319,1.419038 v 0.248363 h 0.548764 c 0.383615,0 0.548266,-0.03176 0.547105,-0.105532 z m 22.383473,-0.710571 0.220153,-0.04445 0.06781,-2.12359 c 0.0373,-1.167975 0.0712,-2.275557 0.07534,-2.461292 l 0.0075,-0.337702 -0.886467,-0.06354 c -0.487556,-0.03495 -2.26392,-0.04001 -3.947474,-0.01126 -2.041185,0.03486 -3.095972,0.02347 -3.165951,-0.03421 -0.05772,-0.04757 -0.351888,-0.105333 -0.653708,-0.128361 -0.894643,-0.06826 -1.718424,-0.294057 -2.375405,-0.65111 -0.168838,-0.09176 -0.381401,-0.166838 -0.472359,-0.166838 -0.09096,0 -0.23414,-0.07598 -0.318184,-0.168851 -0.08405,-0.09287 -0.22066,-0.16885 -0.303592,-0.16885 -0.08293,0 -0.170611,-0.03208 -0.194844,-0.07129 -0.06626,-0.107205 -1.105994,-0.60411 -1.264057,-0.60411 -0.07573,0 -0.279457,-0.07598 -0.452729,-0.168851 -0.515641,-0.276367 -0.52074,-0.268545 -0.481594,0.738722 0.0194,0.499165 0.05341,1.610414 0.07558,2.469442 0.02217,0.859028 0.08014,1.699689 0.128827,1.868134 0.102507,0.354667 0.264763,0.411351 1.177483,0.411351 0.309947,0 0.599632,0.0341 0.643744,0.07578 0.08239,0.07784 0.489249,0.150041 1.304372,0.231465 0.255387,0.02551 0.521326,0.09607 0.590977,0.156791 0.08914,0.07771 0.515227,0.119105 1.438973,0.139781 1.135376,0.02541 1.345982,0.05184 1.56187,0.195993 0.214156,0.142995 0.429076,0.171118 1.515915,0.198361 0.858352,0.02152 1.307183,0.06623 1.393018,0.13877 0.06965,0.05886 0.410318,0.132098 0.757039,0.162739 0.34672,0.03064 0.707638,0.10575 0.802041,0.166908 0.09536,0.06178 0.547218,0.133682 1.016766,0.161794 0.464819,0.02783 0.939712,0.08836 1.055317,0.134509 0.115606,0.04615 0.267179,0.06463 0.33683,0.04107 0.06965,-0.02357 0.225707,-0.06285 0.346791,-0.0873 z m -20.39782,-1.503436 c 0.696509,-0.06867 1.66529,-0.170397 2.152846,-0.22606 0.487557,-0.05566 1.536084,-0.115186 2.33006,-0.132272 l 1.443592,-0.03107 -0.03574,-0.43957 c -0.01966,-0.241764 -0.07091,-0.646004 -0.113893,-0.89831 -0.04298,-0.252306 -0.07815,-1.097615 -0.07815,-1.878464 0,-0.78085 -0.02849,-1.419707 -0.06332,-1.419684 -0.03483,2.4e-5 -0.263182,0.07601 -0.507458,0.168851 -0.244277,0.09285 -0.539408,0.168808 -0.655849,0.168808 -0.11644,0 -0.505444,0.07965 -0.864454,0.177003 -1.408763,0.382009 -2.244578,0.582826 -2.425771,0.582826 -0.104228,0 -0.370228,0.07994 -0.59111,0.177648 -0.339165,0.150028 -0.534447,0.17365 -1.256006,0.151925 -0.651936,-0.01963 -0.964436,0.01055 -1.318742,0.12733 -0.381549,0.125765 -0.848184,0.160737 -2.617186,0.19615 -2.101502,0.04207 -2.162475,0.03857 -2.556547,-0.146686 -0.222035,-0.104378 -0.441823,-0.261012 -0.488416,-0.348074 -0.04659,-0.08706 -0.158495,-0.158293 -0.248669,-0.158293 -0.09018,0 -0.421263,-0.09693 -0.735752,-0.215394 -0.884705,-0.333264 -1.890352,-0.539356 -3.27341,-0.670835 -1.517809,-0.144289 -1.815146,-0.152024 -1.815146,-0.04722 0,0.04381 0.111917,0.145763 0.248704,0.226566 0.158583,0.09368 0.334489,0.332497 0.485445,0.659069 0.226089,0.489109 0.236743,0.569147 0.236743,1.778538 0,0.696509 -0.02737,1.389001 -0.06083,1.538872 l -0.06083,0.272492 1.749338,-0.0085 1.749338,-0.0085 0.656494,0.263663 c 0.361072,0.145014 0.810489,0.263663 0.998706,0.263663 0.328352,0 0.340322,-0.0094 0.295543,-0.232169 -0.03545,-0.17636 0.01228,-0.300761 0.198542,-0.517506 0.210222,-0.244622 0.279167,-0.276321 0.483194,-0.222152 0.13089,0.03475 1.035803,0.091 2.010916,0.12499 0.975113,0.03399 1.917433,0.107816 2.094043,0.164049 0.216331,0.06888 0.395394,0.211323 0.548765,0.436541 0.20769,0.304983 0.253569,0.330456 0.523143,0.290461 0.162519,-0.02411 0.86536,-0.100024 1.56187,-0.168693 z M 20.51669,48.078449 c 1.124509,-0.13861 1.588748,-0.284166 1.726349,-0.541277 0.09226,-0.17238 0.122443,-1.673677 0.03807,-1.893535 -0.03814,-0.0994 -0.09709,-0.11059 -0.258772,-0.04912 -0.115157,0.04378 -0.339873,0.0796 -0.499369,0.0796 H 21.23298 v 0.419189 c 0,0.349451 -0.04406,0.469374 -0.264854,0.720843 -0.14567,0.165908 -0.345125,0.346926 -0.443233,0.402261 -0.10476,0.05909 -0.921463,0.140062 -1.978875,0.196203 -1.466705,0.07787 -1.826131,0.121228 -1.938769,0.233867 -0.128079,0.128079 -0.127396,0.149162 0.0093,0.286016 0.119917,0.120091 0.356383,0.156728 1.263365,0.195742 0.613709,0.0264 1.223611,0.05489 1.355336,0.06332 0.131726,0.0084 0.708392,-0.04248 1.281481,-0.113115 z M 41.410643,47.85994 c 0.99833,3.38e-4 2.117513,0.01204 2.487072,0.02602 l 0.671926,0.02543 0.0595,-0.253277 c 0.03273,-0.139301 0.124086,-0.552263 0.203019,-0.917692 0.07894,-0.36543 0.235399,-0.953917 0.347699,-1.307748 0.191675,-0.603926 0.195271,-0.649848 0.0587,-0.749709 -0.08001,-0.05851 -0.325702,-0.106376 -0.545974,-0.106376 -0.220271,0 -0.507444,-0.04149 -0.63816,-0.09219 -0.13071,-0.0507 -0.453025,-0.12336 -0.71625,-0.161464 -0.372662,-0.05394 -0.575219,-0.145658 -0.915154,-0.414361 -0.240109,-0.189796 -0.487424,-0.345083 -0.549589,-0.345083 -0.06216,0 -0.16323,-0.04749 -0.224589,-0.105532 -0.300811,-0.284551 -1.061691,-0.530432 -1.926707,-0.622622 -0.208953,-0.02227 -0.455897,-0.07123 -0.548765,-0.108809 -0.566545,-0.229231 -0.889146,-0.260567 -2.682527,-0.260567 -1.218569,0 -1.996252,-0.03439 -2.146853,-0.09494 -0.129878,-0.05222 -0.331121,-0.131652 -0.447206,-0.176525 -0.116084,-0.04487 -0.351559,-0.154117 -0.523278,-0.242763 -0.171718,-0.08865 -0.388158,-0.161178 -0.480978,-0.161178 -0.196899,0 -0.712134,-0.263494 -1.373045,-0.702181 -0.257634,-0.171007 -0.50453,-0.310923 -0.548657,-0.310923 -0.04413,0 -0.209112,-0.13297 -0.366631,-0.295489 -0.193214,-0.199346 -0.363418,-0.295489 -0.523114,-0.295489 h -0.236714 l 1.69e-4,0.69651 c 8.4e-5,0.38308 0.02507,1.576391 0.05548,2.651803 l 0.05529,1.955293 0.35974,0.05395 c 0.197858,0.02967 0.405491,0.109072 0.461408,0.176447 0.05592,0.06737 0.177925,0.1225 0.271131,0.1225 0.165222,0 1.498359,0.638258 2.089345,1.000304 0.162519,0.09956 0.36848,0.181162 0.457692,0.181335 0.08921,1.69e-4 0.222181,0.05436 0.295488,0.120418 0.322586,0.290677 1.317378,0.540517 2.201708,0.552953 0.35143,0.0049 0.609483,0.05403 0.717615,0.136517 0.141834,0.10819 0.378233,0.120483 1.477444,0.07682 0.719727,-0.02859 2.125409,-0.05171 3.123739,-0.05138 z m -17.156092,-0.234 c 0.172277,-0.08735 0.522184,-0.184917 0.777571,-0.216816 0.255386,-0.0319 0.635301,-0.108127 0.844253,-0.169395 1.09443,-0.320908 1.691519,-0.468419 2.10932,-0.52111 0.495391,-0.06248 1.134363,-0.307932 1.241799,-0.477027 0.03604,-0.05672 0.07923,-0.207605 0.09599,-0.335298 0.05434,-0.414062 0.03054,-2.772624 -0.0418,-4.142167 l -0.07051,-1.335022 -0.464339,0.259384 c -0.642602,0.358964 -1.048948,0.541247 -1.688507,0.757448 -1.493133,0.504749 -2.449277,0.764367 -2.991157,0.81218 -0.328307,0.02897 -0.836207,0.135072 -1.128666,0.235787 -0.458265,0.157815 -0.524572,0.206452 -0.47984,0.35197 0.187015,0.60838 0.302133,1.653097 0.339556,3.081526 0.02372,0.905463 0.04216,1.693784 0.04098,1.751827 -0.0036,0.175356 1.042039,0.13599 1.415343,-0.05329 z m -8.065084,-0.411053 c 0.228871,-0.219291 0.301714,-0.235741 1.313213,-0.296548 2.952022,-0.177465 2.976382,-0.182459 3.152799,-0.646472 0.149174,-0.392356 0.0326,-0.569849 -0.413337,-0.629306 -0.798681,-0.10649 -1.113637,-0.486962 -0.95658,-1.155565 0.15607,-0.664397 0.326189,-0.834945 0.835817,-0.837928 0.28999,-0.0017 0.18635,-0.179921 -0.243803,-0.419256 -0.358427,-0.199429 -0.423386,-0.206241 -1.76673,-0.185256 -0.767043,0.01198 -1.470606,0.02145 -1.563474,0.02104 -0.09287,-4.22e-4 -0.529769,-0.047 -0.970892,-0.103537 -0.441122,-0.05653 -1.276933,-0.09535 -1.857358,-0.08625 -0.989682,0.01551 -1.949314,-0.109971 -2.503226,-0.327318 -0.09984,-0.03917 -0.486527,-0.117918 -0.859301,-0.174984 -0.6034278,-0.09237 -0.7014696,-0.08823 -0.8938089,0.0378 -0.6317154,0.413916 -1.1165033,2.481514 -0.7740249,3.30118 0.2257675,0.540338 0.6520974,0.667268 2.7086638,0.806442 1.456409,0.09856 2.537682,0.299393 3.672503,0.68212 0.394689,0.133112 0.753529,0.24292 0.797422,0.244017 0.04389,0.0011 0.188846,-0.10248 0.322117,-0.230174 z m 5.361815,-2.232152 c -0.01841,-0.05523 -0.312693,-0.190763 -0.653966,-0.301192 -0.670151,-0.216848 -1.045634,-0.199623 -0.998664,0.04581 0.01981,0.103506 0.171699,0.172166 0.533268,0.241058 0.701507,0.133663 1.161102,0.139543 1.119362,0.01432 z m 0.566505,-1.11249 c -0.05518,-0.588837 -0.08579,-0.665335 -0.425546,-1.063367 -0.55314,-0.64802 -0.823738,-0.84747 -1.149777,-0.84747 -0.157425,0 -0.501797,-0.07577 -0.76527,-0.168369 -0.330529,-0.116172 -0.840011,-0.188913 -1.643369,-0.234632 -1.145553,-0.06519 -1.167489,-0.06312 -1.360519,0.128555 -0.255831,0.254038 -0.21233,0.360469 0.242624,0.593605 0.343067,0.175802 0.471016,0.190506 1.473226,0.169311 1.09369,-0.02313 1.09937,-0.02225 1.62347,0.25106 0.654583,0.341356 0.818591,0.571681 0.762353,1.070616 l -0.04189,0.371607 0.643176,0.207335 c 0.353747,0.114034 0.656181,0.195836 0.672074,0.181783 0.01589,-0.01405 0.0021,-0.311068 -0.03056,-0.660034 z m 23.522146,0.136478 c 0.23261,-0.289729 2.187038,-4.403751 2.187038,-4.603658 0,-0.07751 -0.113974,-0.199871 -0.253276,-0.271907 -0.139302,-0.07204 -0.253276,-0.167989 -0.253276,-0.213231 0,-0.04524 -0.1637,-0.08226 -0.363778,-0.08226 -0.200078,0 -0.437524,-0.05578 -0.527658,-0.123953 -0.09014,-0.06817 -0.220868,-0.125508 -0.290519,-0.12741 -0.06965,-0.0019 -0.316595,-0.0969 -0.548765,-0.211108 -0.23217,-0.114208 -0.47205,-0.208839 -0.533069,-0.210291 -0.06102,-0.0015 -0.318585,-0.09762 -0.572372,-0.213704 -0.253788,-0.116085 -0.520799,-0.211063 -0.593359,-0.211063 -0.07256,0 -0.228522,-0.07598 -0.346584,-0.168851 -0.118063,-0.09287 -0.340263,-0.168851 -0.49378,-0.168851 -0.153516,0 -0.302601,-0.03799 -0.331299,-0.08443 -0.02999,-0.04852 -0.473336,-0.08443 -1.042449,-0.08443 -0.790196,0 -1.051036,-0.03098 -1.291034,-0.153338 -0.16542,-0.08434 -0.515305,-0.22082 -0.777522,-0.303296 -0.262218,-0.08248 -0.496425,-0.181778 -0.52046,-0.220668 -0.02403,-0.03889 -0.261551,-0.09784 -0.527815,-0.130994 -0.266263,-0.03316 -0.560098,-0.107433 -0.652966,-0.165058 -0.09287,-0.05762 -0.401206,-0.124069 -0.685196,-0.147654 -0.283991,-0.02359 -0.663905,-0.118771 -0.844254,-0.211523 -0.180349,-0.09275 -0.460878,-0.214844 -0.623396,-0.271316 -0.647904,-0.225133 -0.853887,-0.313799 -0.948276,-0.408188 -0.05423,-0.05423 -0.209444,-0.0986 -0.344923,-0.0986 -0.173308,0 -0.342892,-0.09657 -0.572107,-0.325784 -0.179181,-0.179181 -0.578388,-0.454619 -0.887126,-0.612084 -0.308739,-0.157465 -0.723869,-0.428767 -0.922513,-0.602895 -0.198644,-0.174127 -0.400676,-0.316595 -0.44896,-0.316595 -0.04828,0 -0.137433,-0.06667 -0.198109,-0.148157 -0.208161,-0.27956 -0.675126,-0.457558 -1.123423,-0.428227 l -0.422127,0.02762 -0.01337,1.350806 c -0.0074,0.742943 -0.03596,2.264424 -0.06357,3.381069 l -0.0502,2.030263 0.280632,0.101478 c 0.154347,0.05581 0.356793,0.101477 0.449878,0.101477 0.09309,0 0.261349,0.09876 0.37392,0.219474 0.369279,0.395981 2.033934,1.381446 2.343351,1.387248 0.07744,0.0015 0.330765,0.09608 0.562934,0.210292 0.23217,0.114208 0.499154,0.207999 0.593299,0.208423 0.09414,4.22e-4 0.246438,0.05349 0.338431,0.117924 0.129322,0.09058 0.667739,0.124107 2.373908,0.147814 1.897815,0.02637 2.228557,0.05007 2.363181,0.169316 0.09794,0.08676 0.393527,0.160778 0.789722,0.19776 0.371811,0.03471 0.748447,0.125557 0.912399,0.220084 0.153564,0.08854 0.347206,0.160978 0.430315,0.160978 0.08311,0 0.238716,0.07598 0.345793,0.168851 0.107078,0.09287 0.244382,0.168851 0.305122,0.168851 0.06074,0 0.313202,0.165157 0.56103,0.367015 0.473825,0.385936 0.563018,0.411662 1.89357,0.546176 0.333781,0.03374 0.634546,0.08902 0.668367,0.122846 0.09503,0.09503 0.165715,0.07434 0.294649,-0.08625 z m -29.5569,-1.908079 c 0,-0.406678 0.158528,-0.803174 0.365392,-0.913884 0.267869,-0.143359 0.749299,-0.187589 1.873709,-0.172144 0.771362,0.0106 1.134168,0.05497 1.511768,0.184878 0.273257,0.09402 0.63828,0.170937 0.811159,0.170937 0.242976,0 0.423524,0.08479 0.795377,0.373543 0.537188,0.417136 0.658357,0.426456 1.557585,0.119811 0.251048,-0.08561 0.647534,-0.155653 0.881081,-0.155653 0.385486,0 1.44984,-0.238197 1.870633,-0.418638 0.484057,-0.20757 1.301417,-0.497315 1.560331,-0.553121 0.161672,-0.03485 0.560582,-0.224425 0.886466,-0.421287 0.325884,-0.196861 0.676054,-0.383808 0.778155,-0.415439 0.102101,-0.03163 0.211924,-0.140329 0.244051,-0.241553 0.08071,-0.254283 0.09217,-4.927878 0.01228,-5.007773 -0.03552,-0.03553 -0.187487,0.05129 -0.337701,0.192916 -0.150215,0.141628 -0.615041,0.439433 -1.032946,0.661788 -0.417906,0.222355 -0.968782,0.528876 -1.224168,0.681158 -0.255387,0.152282 -0.749275,0.396781 -1.09753,0.543332 -0.348255,0.14655 -0.709173,0.310297 -0.802041,0.363881 -0.101483,0.05855 -0.704114,0.109001 -1.510421,0.126439 l -1.34157,0.02901 -0.217372,0.258332 c -0.440683,0.523722 -1.708177,0.87875 -4.001143,1.12073 -1.589927,0.167787 -1.701677,0.118378 -1.869761,-0.826672 l -0.09345,-0.525437 -0.759726,-0.06666 c -1.346324,-0.118121 -2.046801,-0.283607 -2.977762,-0.703487 -0.355045,-0.160131 -0.588613,-0.20075 -1.154372,-0.20075 -0.631617,0 -0.736475,-0.02289 -0.9577863,-0.209114 -0.3361637,-0.282863 -0.6386109,-0.99794 -0.5720812,-1.352574 0.073136,-0.38985 0.2895064,-0.56148 1.3986225,-1.109422 0.255387,-0.126171 0.749275,-0.370303 1.09753,-0.542518 0.424072,-0.209706 0.898074,-0.360423 1.435231,-0.456354 0.441123,-0.07878 0.98437,-0.178061 1.207217,-0.220623 0.222847,-0.04256 0.707237,-0.07739 1.076424,-0.07739 0.637534,0 0.820845,-0.07674 0.548021,-0.229422 -0.06778,-0.03793 -0.257732,-0.258145 -0.422127,-0.48937 -0.233754,-0.328781 -0.298901,-0.50174 -0.298901,-0.793559 0,-0.345686 0.03935,-0.412502 0.534694,-0.907843 0.513633,-0.513632 0.551272,-0.534694 0.955569,-0.534694 0.527169,0 1.167202,0.179725 1.928965,0.541664 0.325037,0.154436 0.769742,0.360363 0.988233,0.457616 0.512232,0.228 1.755139,1.029701 2.017093,1.301068 0.32044,0.331952 0.676865,0.401264 2.063442,0.401264 h 1.286644 l 0.621435,-0.339871 c 0.34179,-0.186929 0.976848,-0.511242 1.41124,-0.720695 0.434392,-0.209453 0.985268,-0.504152 1.224168,-0.654885 0.2389,-0.150734 0.629147,-0.365052 0.867216,-0.476263 l 0.432852,-0.202202 0.463161,-1.188058 c 0.254738,-0.653433 0.529638,-1.491991 0.610887,-1.863462 0.08125,-0.371472 0.238417,-0.996688 0.349261,-1.389369 0.206019,-0.729849 0.246478,-1.016754 0.143385,-1.016754 -0.03198,0 -0.592358,0.193645 -1.245275,0.430322 -1.695991,0.614781 -2.28573,0.915624 -4.043147,2.062527 -0.63559,0.41479 -0.80553,0.483613 -1.853379,0.750589 -0.62819,0.160053 -1.159287,0.224492 -2.219115,0.269251 -0.766303,0.03236 -1.413189,0.09106 -1.437525,0.130434 -0.02434,0.03938 -0.09787,0.07159 -0.1634,0.07159 -0.06553,0 -0.319735,0.09025 -0.564888,0.200561 -0.245155,0.110308 -0.711676,0.245146 -1.036714,0.299637 -0.325037,0.05449 -0.752986,0.135202 -0.950996,0.179354 -0.486074,0.108384 -1.63357,0.101551 -2.086201,-0.01242 -0.452884,-0.114036 -0.693189,-0.358041 -0.784488,-0.796562 l -0.06973,-0.334906 -3.130002,-0.0078 -3.1300016,-0.0078 -0.3946792,-0.32991 C 7.8948386,26.953544 7.6049886,26.606198 7.467801,26.363116 7.2501135,25.977394 7.218369,25.836639 7.218369,25.257131 c 0,-0.617971 0.019026,-0.689331 0.2743824,-1.029108 0.1509104,-0.2008 0.371071,-0.500934 0.4892458,-0.666963 0.2314138,-0.325123 0.6764449,-0.60448 1.3732353,-0.862013 0.3297247,-0.121866 0.8303755,-0.182696 2.0237055,-0.24588 0.872077,-0.04618 1.802867,-0.140747 2.068422,-0.210159 0.265554,-0.06941 0.682281,-0.149836 0.926059,-0.178719 0.243778,-0.02888 0.44268,-0.07578 0.442005,-0.104211 -6.76e-4,-0.02843 -0.05891,-0.217309 -0.129401,-0.419725 -0.143168,-0.411094 -0.11303,-0.606376 0.112703,-0.730254 0.740214,-0.40622 0.921029,-0.459925 1.55457,-0.461731 0.708305,-0.002 1.173151,0.101315 2.245151,0.499098 0.385148,0.142915 0.878209,0.299723 1.095691,0.348462 0.217481,0.04874 0.510223,0.175781 0.650537,0.282315 0.368896,0.280088 1.257856,0.340241 1.916881,0.129709 0.574052,-0.183387 1.301392,-0.305979 2.475077,-0.417168 0.464339,-0.04399 0.996219,-0.121945 1.181955,-0.173235 0.3624,-0.100074 0.960511,-0.212316 1.772933,-0.33271 0.722796,-0.107112 1.539225,-0.291094 2.008053,-0.452513 0.222184,-0.0765 0.434047,-0.139088 0.470807,-0.139088 0.03676,0 0.386243,-0.172202 0.776628,-0.38267 0.476035,-0.256645 0.791451,-0.374812 0.957746,-0.358808 0.219366,0.02111 0.257125,-0.0102 0.327507,-0.271627 0.140351,-0.521316 0.01601,-1.663855 -0.25414,-2.335291 -0.236181,-0.586999 -0.407077,-0.872873 -0.521807,-0.872873 -0.03074,0 -0.127268,0.123472 -0.214514,0.274383 -0.281058,0.486151 -0.654328,0.915649 -0.996475,1.146581 -0.702239,0.473974 -1.13184,0.685312 -1.498488,0.737161 -0.843736,0.11932 -2.065345,0.514376 -2.856667,0.923817 -0.309408,0.160092 -0.847496,0.346358 -1.195751,0.413924 -3.11296,0.603951 -3.079245,0.601127 -5.698712,0.477415 -1.253717,-0.05921 -2.963331,-0.136366 -3.799142,-0.171457 -0.835811,-0.03509 -1.595639,-0.09149 -1.688507,-0.125324 -0.09287,-0.03384 -0.244834,-0.09214 -0.337702,-0.129574 -0.194765,-0.0785 -0.873609,-0.305024 -1.89957,-0.633874 C 10.876098,18.658512 10.401205,18.487772 10.21547,18.405597 10.029734,18.323424 9.5168497,18.117738 9.0757271,17.948519 8.011229,17.540168 7.6250891,17.341468 7.0113612,16.88624 6.5065095,16.511769 5.4438528,15.645813 5.3610109,15.541373 5.3377939,15.512103 5.215336,15.422336 5.0888824,15.341891 4.8650116,15.199473 4.8555848,15.200788 4.7303562,15.391911 c -0.3288625,0.501908 -0.5781667,1.296831 -0.6164244,1.965511 -0.060885,1.064173 0.133904,4.561152 0.2725496,4.892978 0.064961,0.155475 0.544583,0.954536 1.0658261,1.775693 0.9666443,1.522834 1.3409501,2.281195 1.4966296,3.032238 0.3552254,1.71371 0.7389363,3.129375 0.9915218,3.658128 0.5956993,1.247013 0.6536587,1.512968 0.7206827,3.306964 0.063542,1.700809 0.167735,2.381448 0.6268083,4.094631 0.4700998,1.754333 0.6539613,2.833533 0.5557163,3.261851 l -0.070409,0.306962 0.3477438,0.05817 c 0.19126,0.032 0.518706,0.09136 0.727659,0.131928 0.208953,0.04057 0.569871,0.110438 0.802041,0.155274 0.23217,0.04484 0.536101,0.126474 0.675403,0.181417 0.174072,0.06866 0.570089,0.08353 1.26638,0.04754 0.561262,-0.02901 1.126066,-0.01708 1.266381,0.02673 0.139302,0.0435 0.471727,0.08236 0.738722,0.08635 l 0.485446,0.0073 z m 32.371831,-4.551735 c 0.229256,-0.614549 0.542685,-1.36021 0.696509,-1.657022 0.153824,-0.296814 0.27968,-0.585791 0.27968,-0.642173 0,-0.06576 -0.219446,-0.122844 -0.612084,-0.159221 -0.677723,-0.06279 -1.089438,-0.180401 -1.427157,-0.407695 -0.123253,-0.08295 -0.261069,-0.150822 -0.306258,-0.150822 -0.04519,0 -0.127369,-0.05447 -0.182622,-0.121048 -0.08932,-0.107621 -0.553019,-0.371173 -1.313233,-0.746398 -0.560842,-0.276819 -0.859997,-0.388397 -1.181955,-0.440842 -0.185736,-0.03025 -0.413685,-0.103454 -0.506552,-0.162665 -0.09287,-0.05921 -0.307465,-0.133381 -0.476881,-0.164823 -0.169418,-0.03144 -0.403358,-0.132154 -0.519869,-0.223801 -0.116511,-0.09165 -0.255563,-0.166632 -0.309004,-0.166632 -0.05344,0 -0.237406,-0.112467 -0.408811,-0.249928 -0.171404,-0.13746 -0.46361,-0.303577 -0.649346,-0.369148 -0.185736,-0.06557 -0.538828,-0.238041 -0.78465,-0.383263 -0.245821,-0.145223 -0.47738,-0.264042 -0.514573,-0.264042 -0.03719,0 -0.13105,-0.07008 -0.208568,-0.15574 -0.07752,-0.08566 -0.301858,-0.206382 -0.498531,-0.268278 -0.196673,-0.06189 -0.414575,-0.159813 -0.484226,-0.217596 -0.06965,-0.05778 -0.240612,-0.132177 -0.379914,-0.165322 -0.139302,-0.03314 -0.348255,-0.108929 -0.46434,-0.168409 -0.974,-0.499067 -1.515048,-0.745966 -1.85763,-0.847702 -0.220892,-0.0656 -0.448818,-0.176136 -0.506501,-0.245641 -0.05768,-0.0695 -0.201713,-0.126371 -0.320064,-0.126371 -0.118351,0 -0.279843,-0.05851 -0.35887,-0.130033 -0.07903,-0.07152 -0.336939,-0.160583 -0.573138,-0.197921 -0.2362,-0.03734 -0.479414,-0.10935 -0.540476,-0.160028 -0.06106,-0.05068 -0.308866,-0.118385 -0.550672,-0.150462 -0.241808,-0.03208 -0.480562,-0.107617 -0.530566,-0.167868 -0.07366,-0.08876 -1.271068,-0.243313 -1.922766,-0.248175 -0.131053,-9.8e-4 -0.773927,1.50645 -0.774741,1.816636 -3.38e-4,0.117362 -0.05284,0.288324 -0.116743,0.379914 -0.172166,0.24677 -0.324012,1.036092 -0.291899,1.517336 l 0.02817,0.422127 0.68278,0.04221 c 0.737934,0.04562 0.976959,0.16953 1.837051,0.952301 0.192848,0.175511 0.44561,0.342077 0.561695,0.370147 0.116085,0.02807 0.270518,0.102447 0.343184,0.16528 0.07267,0.06283 0.243628,0.15313 0.379914,0.200657 0.136287,0.04753 0.322507,0.197619 0.413824,0.333537 0.177072,0.263558 0.454428,0.426414 0.726219,0.426414 0.09168,0 0.308341,0.09267 0.481473,0.205925 0.173132,0.113258 0.42876,0.23082 0.568062,0.261248 0.139301,0.03043 0.459757,0.152946 0.712123,0.272263 0.274019,0.129554 0.686516,0.237809 1.02405,0.268747 0.310861,0.02849 0.617264,0.09399 0.680895,0.145549 0.06363,0.05156 0.324281,0.121813 0.579221,0.156122 0.254941,0.03431 0.5963,0.133541 0.758578,0.220516 0.162277,0.08698 0.37597,0.158137 0.474871,0.158137 0.0989,0 0.276419,0.07598 0.394481,0.168851 0.188594,0.148347 0.342495,0.168851 1.267429,0.168851 0.8328,0 1.074729,0.02646 1.15787,0.126638 0.0578,0.06965 0.208753,0.126638 0.33544,0.126638 0.278938,0 0.76209,0.159731 0.76209,0.251949 0,0.03662 0.170507,0.09215 0.378905,0.123401 0.208398,0.03125 0.427018,0.104933 0.485823,0.163737 0.0588,0.0588 0.233301,0.132194 0.387771,0.163089 0.154469,0.03089 0.377874,0.132486 0.496454,0.225762 0.118581,0.09327 0.31719,0.169592 0.441356,0.169592 0.124165,0 0.2995,0.05578 0.389634,0.123953 0.09013,0.06817 0.325596,0.125161 0.523247,0.126638 0.276068,0.0021 0.401904,0.05161 0.542884,0.213748 0.100935,0.116085 0.224155,0.210491 0.273824,0.209791 0.04967,-6.76e-4 0.27788,-0.504087 0.507136,-1.118637 z m -31.206139,0.531976 c 0.310766,-0.04476 0.925946,-0.123904 1.367069,-0.175874 0.947717,-0.111655 2.056124,-0.376402 2.382137,-0.568982 0.3543,-0.20929 0.500112,-0.600247 0.471081,-1.263082 l -0.02497,-0.57008 h -0.548765 c -0.499038,0 -0.551132,0.01662 -0.574893,0.183466 -0.04228,0.296894 -0.43147,0.618155 -1.209066,0.998041 -0.669228,0.326944 -0.802516,0.360918 -1.63465,0.416659 -0.498305,0.03338 -0.958738,0.08092 -1.023185,0.105655 -0.146814,0.05634 -0.158975,0.711159 -0.01587,0.854268 0.121926,0.121926 0.105716,0.121527 0.811106,0.01993 z m -0.152588,-1.531244 c 1.069415,-0.0877 1.182696,-0.114498 1.835842,-0.434338 0.382855,-0.187479 0.737546,-0.390811 0.788203,-0.451849 0.145026,-0.174746 0.01157,-0.287225 -0.340796,-0.287225 -0.266044,0 -0.371512,-0.05414 -0.589835,-0.302798 -0.245061,-0.27911 -0.263908,-0.343278 -0.240915,-0.820219 0.02327,-0.482635 0.04423,-0.530388 0.311812,-0.710306 0.157778,-0.106087 0.373986,-0.192885 0.480464,-0.192885 0.263433,0 0.324128,-0.131052 0.199757,-0.431309 -0.08665,-0.209201 -0.14209,-0.245262 -0.324727,-0.211228 -0.542709,0.101128 -1.36079,0.161043 -3.048484,0.223266 -1.660511,0.06122 -2.512637,0.163784 -3.443717,0.414498 -0.467638,0.125922 -2.366354,1.04697 -2.668835,1.294624 -0.2784944,0.228016 -0.2680588,0.459909 0.03822,0.849278 0.167166,0.212517 0.216782,0.224798 0.909407,0.225097 0.568935,2.53e-4 0.790946,0.0359 0.993795,0.159593 0.518737,0.316322 1.580707,0.624425 2.355986,0.68353 1.210314,0.09227 1.535548,0.09135 2.743824,-0.0077 z m 7.44883,-0.04115 c 0.841191,-0.312941 1.49876,-0.630497 2.513364,-1.213762 0.348254,-0.200202 0.785156,-0.440155 0.970891,-0.533229 0.185736,-0.09307 0.527659,-0.335123 0.759829,-0.537884 l 0.422126,-0.368657 0.08851,-1.624382 c 0.04868,-0.893409 0.07383,-1.654654 0.05589,-1.691656 -0.01794,-0.037 -0.171738,0.01674 -0.34178,0.119416 -0.170042,0.102681 -0.727073,0.401997 -1.237847,0.665147 -0.510773,0.26315 -1.315376,0.678546 -1.788006,0.923102 l -0.859326,0.444647 -1.510579,-0.02941 -1.510579,-0.02941 -0.01179,0.422127 c -0.0065,0.23217 -0.03552,1.079636 -0.06452,1.883258 -0.029,0.803621 -0.03169,1.51596 -0.006,1.582976 0.06968,0.181584 2.024286,0.172062 2.519789,-0.01228 z m -3.25558,-1.771997 c 0.102278,-0.266533 -0.184204,-0.401483 -0.936074,-0.440945 -0.557167,-0.02925 -0.748485,-0.07236 -0.858001,-0.193377 -0.195842,-0.216402 -0.457391,-0.0714 -0.457391,0.253587 0,0.409643 0.177025,0.465372 1.585625,0.499169 0.491234,0.01179 0.625001,-0.01201 0.665841,-0.118434 z m 28.752084,-0.592411 c 0.174207,-0.325059 1.669067,-4.62941 1.669067,-4.805968 0,-0.01795 -0.61736,-0.04621 -1.371912,-0.06279 -1.503672,-0.03305 -2.44424,-0.174276 -2.75521,-0.413686 -0.110738,-0.08526 -0.313699,-0.15501 -0.451023,-0.15501 -0.137325,0 -0.346278,-0.07598 -0.46434,-0.16885 -0.118062,-0.09287 -0.337853,-0.168851 -0.488424,-0.168851 -0.150572,0 -0.317763,-0.05301 -0.371537,-0.117807 -0.05377,-0.06479 -0.229442,-0.142508 -0.390373,-0.172698 -0.16093,-0.03019 -0.529993,-0.185993 -0.820139,-0.346226 -0.290145,-0.160233 -0.622516,-0.331431 -0.738601,-0.380438 -0.116085,-0.04901 -0.365526,-0.163121 -0.554313,-0.253583 -0.188788,-0.09046 -0.406321,-0.164479 -0.483406,-0.164479 -0.07709,0 -0.264546,-0.07584 -0.416578,-0.168535 -0.152032,-0.09269 -0.349415,-0.168678 -0.438626,-0.168851 -0.08921,-1.69e-4 -0.226968,-0.05893 -0.306124,-0.130562 -0.07916,-0.07164 -0.291101,-0.152891 -0.470987,-0.180566 -0.179887,-0.02768 -0.37897,-0.09135 -0.442406,-0.141507 -0.06344,-0.05015 -0.243896,-0.13986 -0.401021,-0.199349 -0.157124,-0.05949 -0.428148,-0.16348 -0.602276,-0.231093 -0.174127,-0.06761 -0.416419,-0.1246 -0.538428,-0.126638 -0.122007,-0.002 -0.269127,-0.06069 -0.326932,-0.130343 -0.05781,-0.06965 -0.152134,-0.126638 -0.20962,-0.126638 -0.05748,0 -0.244478,-0.09498 -0.415538,-0.211064 -0.171061,-0.116085 -0.380663,-0.211063 -0.465783,-0.211063 -0.08512,0 -0.20206,-0.05699 -0.259865,-0.126638 -0.05781,-0.06965 -0.16979,-0.126638 -0.248856,-0.126638 -0.131945,0 -0.914671,-0.539506 -1.30995,-0.902902 -0.255113,-0.234536 -0.568537,-0.412979 -0.847317,-0.482408 -0.139302,-0.03469 -0.310263,-0.111328 -0.379914,-0.1703 -0.06965,-0.05897 -0.308076,-0.156203 -0.529833,-0.216067 -0.221758,-0.05986 -0.421423,-0.138336 -0.443701,-0.174383 -0.02228,-0.03605 -0.210448,-0.147807 -0.418155,-0.248356 -0.207706,-0.10055 -0.496449,-0.293793 -0.64165,-0.429432 -0.400702,-0.374311 -0.398162,-0.376986 -0.527075,0.555426 -0.03672,0.265602 -0.263177,1.449091 -0.387705,2.026209 -0.04008,0.185736 -0.194513,0.805376 -0.343189,1.376978 -0.372422,1.431822 -0.380247,1.415034 0.694087,1.48908 0.499726,0.03444 0.944391,0.109727 1.050515,0.177859 0.101207,0.06498 0.348151,0.142496 0.548764,0.172267 0.200614,0.02977 0.448896,0.106631 0.551739,0.1708 0.102843,0.06417 0.262518,0.116669 0.354835,0.116669 0.09232,0 0.274113,0.04272 0.403991,0.09494 0.129878,0.05222 0.331121,0.131704 0.447205,0.176642 0.240543,0.09312 1.155937,0.51831 1.620809,0.752853 0.171718,0.08664 0.374678,0.157523 0.451023,0.157523 0.07634,0 0.235405,0.07598 0.353467,0.168851 0.118062,0.09287 0.265604,0.16885 0.327871,0.16885 0.06227,0 0.237602,0.07584 0.389635,0.168535 0.152032,0.09269 0.346413,0.168678 0.431957,0.168851 0.08554,1.69e-4 0.252131,0.0763 0.370194,0.169167 0.118062,0.09287 0.280394,0.16885 0.360738,0.16885 0.08034,0 0.237121,0.06649 0.348392,0.147745 0.305471,0.223079 0.515862,0.350264 0.749138,0.452864 0.116085,0.05106 0.268051,0.125925 0.337701,0.166373 0.06965,0.04045 0.392578,0.209928 0.717616,0.376622 0.325038,0.166693 0.837922,0.451724 1.139743,0.633402 0.30182,0.181678 0.626647,0.331067 0.721836,0.331975 0.09519,9.12e-4 0.209164,0.03769 0.253277,0.08172 0.04411,0.04404 0.289156,0.136433 0.544543,0.205319 0.679651,0.183324 1.279642,0.412867 1.517336,0.5805 0.114808,0.08097 0.270383,0.147214 0.345723,0.147214 0.07534,0 0.205744,0.07598 0.289788,0.168851 0.08405,0.09287 0.187191,0.16885 0.229213,0.16885 0.04202,0 0.248093,0.131093 0.457932,0.291318 0.24964,0.190614 0.517843,0.310981 0.77587,0.348205 0.216889,0.03129 0.45133,0.08991 0.520981,0.130274 0.06965,0.04036 0.335591,0.06413 0.590978,0.05282 l 0.464339,-0.02057 z M 21.535676,33.498608 c 0.0784,-0.226457 0.0825,-0.394189 0.01604,-0.65602 -0.07658,-0.301716 -0.14466,-0.378256 -0.478397,-0.537881 -0.331459,-0.158534 -0.388469,-0.221992 -0.384796,-0.428319 0.0037,-0.209574 -0.07896,-0.296573 -0.613708,-0.645658 -0.33991,-0.221896 -0.759755,-0.449392 -0.93299,-0.505546 -0.173234,-0.05615 -0.573734,-0.231466 -0.89,-0.389583 -0.396468,-0.198216 -0.744427,-0.303305 -1.120561,-0.338428 l -0.545534,-0.05094 -0.137519,0.350091 c -0.104278,0.265466 -0.183258,0.350089 -0.326743,0.350089 -0.30586,0 -0.316072,0.233969 -0.02774,0.635468 0.145298,0.202324 0.320978,0.389657 0.390401,0.416297 0.06942,0.02664 0.374659,-0.01387 0.678305,-0.09002 1.02366,-0.256724 2.079637,0.03161 2.665448,0.727811 0.19087,0.226836 0.426385,0.811333 0.49284,1.22312 0.02221,0.137628 0.112978,0.177881 0.490857,0.217683 0.616907,0.06498 0.603512,0.07012 0.724091,-0.278159 z m 30.777899,-5.217376 c 0.472469,-0.54569 1.422968,-2.447911 1.42313,-2.84809 2.9e-5,-0.074 -0.170246,-0.105561 -0.569829,-0.105631 -0.313429,-5.5e-5 -0.835811,-0.05317 -1.160849,-0.118043 -2.586787,-0.516253 -3.331489,-0.688907 -4.219886,-0.978351 -0.557968,-0.18179 -1.375405,-0.425386 -1.816528,-0.541326 -0.441122,-0.115939 -1.067981,-0.310445 -1.393018,-0.432236 -0.325038,-0.121792 -0.780935,-0.289881 -1.013105,-0.373531 -0.694771,-0.250326 -2.839516,-1.108277 -3.292589,-1.317119 -0.23217,-0.107016 -0.63108,-0.256996 -0.886467,-0.333287 -2.060122,-0.615414 -3.01144,-0.98359 -3.503652,-1.355969 -0.327125,-0.247484 -1.484296,-0.844246 -1.884555,-0.971879 -0.170778,-0.05446 -0.491535,-0.208465 -0.712794,-0.342239 -0.221259,-0.133774 -0.420714,-0.243226 -0.443233,-0.243226 -0.02252,0 -0.04192,0.180459 -0.04311,0.40102 -0.0012,0.220562 -0.0762,0.723948 -0.166683,1.118637 -0.09048,0.394688 -0.165492,0.811156 -0.166684,0.925483 -0.0023,0.221582 0.620222,0.931875 0.816736,0.931875 0.05959,0 0.155797,0.07598 0.213794,0.16885 0.058,0.09287 0.181792,0.169696 0.275099,0.170729 0.09331,0.001 0.264627,0.07617 0.380712,0.166973 0.116084,0.0908 0.287046,0.166786 0.379914,0.168851 0.09287,0.0021 0.263829,0.07805 0.379914,0.16885 0.116085,0.0908 0.275538,0.165941 0.354341,0.166973 0.18981,0.0025 0.928151,0.394745 1.052125,0.558962 0.145914,0.193279 0.972147,0.793722 1.092192,0.793722 0.05734,0 0.344911,0.133003 0.639049,0.295561 0.74212,0.410141 1.042807,0.543389 1.716752,0.760772 0.232169,0.07489 0.506271,0.190775 0.609113,0.257528 0.102843,0.06675 0.246647,0.12137 0.319566,0.12137 0.07292,0 0.216722,0.05272 0.319565,0.117162 0.102843,0.06444 0.33222,0.142662 0.509728,0.17383 0.177508,0.03117 0.443448,0.130267 0.590978,0.220223 0.14753,0.08996 0.349065,0.163699 0.447856,0.163872 0.09879,1.69e-4 0.225369,0.05544 0.281285,0.122817 0.05592,0.06737 0.269989,0.147741 0.475716,0.178592 0.205727,0.03085 0.396762,0.09284 0.424524,0.137763 0.02776,0.04492 0.207754,0.15403 0.399982,0.24247 0.192229,0.08844 0.406494,0.192787 0.476145,0.231884 0.519422,0.291567 0.863859,0.437596 1.032152,0.437596 0.108162,0 0.271597,0.05213 0.363188,0.115851 0.09159,0.06372 0.299499,0.14343 0.462018,0.177138 0.162519,0.03371 0.371472,0.108536 0.46434,0.166283 0.09287,0.05775 0.282825,0.132931 0.422127,0.167074 0.139302,0.03414 0.36725,0.111681 0.506552,0.172307 0.312061,0.135814 0.704452,0.275723 0.928679,0.331127 0.09287,0.02295 0.84813,0.03401 1.678361,0.02458 l 1.50951,-0.01715 z m -34.204333,-0.32789 c 0.947715,-0.148411 1.921882,-0.483878 2.30923,-0.795212 0.249363,-0.200427 0.474051,-0.875478 0.475805,-1.429499 9.2e-4,-0.289612 -0.01879,-0.316497 -0.231168,-0.315449 -0.127693,5.91e-4 -0.460118,0.0693 -0.738722,0.152598 l -0.506552,0.151449 -0.0574,0.57599 c -0.03157,0.316794 -0.0983,0.616882 -0.148277,0.666862 -0.05703,0.05703 -0.725516,0.100619 -1.794825,0.117043 -1.86774,0.02869 -2.009698,0.06631 -2.009698,0.532719 0,0.245836 0.108981,0.373889 0.379914,0.446399 0.236572,0.06331 1.664412,3e-5 2.321698,-0.1029 z m 5.573777,-0.983196 c 0.117022,-0.05893 0.435981,-0.148411 0.708798,-0.198844 0.272816,-0.05043 0.602357,-0.158449 0.732312,-0.240036 0.129955,-0.08159 0.551829,-0.335967 0.937498,-0.565291 0.385668,-0.229324 0.800643,-0.498061 0.922168,-0.597195 0.121524,-0.09913 0.349473,-0.231869 0.506552,-0.294969 0.157079,-0.0631 0.376204,-0.183773 0.486942,-0.268165 0.110738,-0.08439 0.262704,-0.154728 0.337701,-0.156303 0.075,-0.0016 0.288325,-0.07627 0.474061,-0.165986 0.185735,-0.08972 0.396588,-0.164411 0.46856,-0.165986 0.07197,-0.0016 0.166952,-0.03608 0.211064,-0.07668 0.04411,-0.0406 0.346144,-0.157414 0.671182,-0.259592 0.659026,-0.20717 1.265195,-0.529256 1.334125,-0.708884 0.02492,-0.06495 0.113081,-0.543111 0.195908,-1.062586 0.119433,-0.749066 0.129573,-0.978159 0.049,-1.107173 -0.145699,-0.233301 -0.125587,-0.399459 0.0604,-0.498995 0.166059,-0.08887 0.31184,-0.527118 0.223105,-0.670695 -0.04473,-0.07237 -1.241965,0.490467 -1.436189,0.675174 -0.04411,0.04195 -0.160208,0.07627 -0.25799,0.07627 -0.09778,0 -0.403612,0.07121 -0.679624,0.158234 -0.658829,0.207733 -1.273607,0.348456 -1.918857,0.439228 -0.288621,0.0406 -0.809701,0.133654 -1.157956,0.206781 -0.348254,0.07313 -0.918126,0.169958 -1.26638,0.215179 -1.475771,0.19163 -2.525015,0.368975 -3.034803,0.51295 -0.382116,0.107919 -0.677641,0.138032 -0.991998,0.101086 -0.511709,-0.06014 -0.529084,-0.02951 -0.328857,0.579758 0.466327,1.418976 0.606783,2.972447 0.346366,3.830887 -0.06915,0.227941 -0.126135,0.4249 -0.126638,0.437687 -0.003,0.07553 2.356908,-0.106904 2.533551,-0.195859 z m -8.41493,-0.276278 c 0.131969,-0.119629 0.418799,-0.148763 1.814527,-0.184302 1.480317,-0.03769 1.660758,-0.05775 1.685586,-0.187311 0.02107,-0.109961 -0.06581,-0.168672 -0.358789,-0.242444 -0.30885,-0.07777 -0.454645,-0.182814 -0.72499,-0.522353 -0.386695,-0.485669 -0.478245,-0.751237 -0.353419,-1.0252 0.121623,-0.266931 0.775399,-0.555179 1.262763,-0.556746 0.569795,-0.0018 0.637146,-0.0639 0.53975,-0.497375 -0.0442,-0.196719 -0.147914,-0.432314 -0.230476,-0.523543 -0.365394,-0.403757 -1.812063,-0.767879 -2.376719,-0.598214 -0.174158,0.05233 -0.715561,0.136611 -1.203118,0.187291 -0.487556,0.05068 -1.209393,0.166153 -1.604082,0.256607 -0.438461,0.100485 -1.308766,0.195162 -2.237272,0.243382 -2.1699041,0.112691 -2.6160027,0.279828 -3.3559083,1.257339 -0.3538565,0.467489 -0.4010205,0.579269 -0.4010205,0.950419 0,0.514713 0.2128588,0.957495 0.6481828,1.348332 l 0.3227089,0.28973 3.2077651,-0.02676 c 2.864409,-0.0239 3.224542,-0.04197 3.364511,-0.168851 z m 4.421535,-1.664429 c 0.452465,-0.11756 0.854559,-0.245642 0.893543,-0.284625 0.114281,-0.114282 -0.374351,-0.447921 -0.571188,-0.390008 -0.09461,0.02783 -0.494944,0.08568 -0.889633,0.128551 -1.17378,0.127486 -1.350086,0.215892 -1.12268,0.562957 0.173627,0.264989 0.622366,0.260508 1.689958,-0.01687 z m 34.745401,-0.983414 c 0.418268,-0.902728 0.450738,-1.043911 0.257788,-1.120884 -0.08471,-0.03379 -0.609922,-0.13136 -1.167129,-0.216811 -1.18988,-0.182477 -2.378684,-0.415113 -2.617187,-0.512154 -0.208229,-0.08472 -1.2419,-0.339554 -2.36391,-0.582775 -0.46434,-0.100656 -0.996219,-0.241028 -1.181955,-0.311938 -0.185736,-0.07091 -0.603642,-0.216914 -0.928679,-0.324454 -0.325038,-0.10754 -0.875914,-0.312261 -1.224168,-0.454934 -0.348255,-0.142674 -0.695817,-0.259538 -0.772361,-0.259697 -0.07655,-1.69e-4 -0.36148,-0.117859 -0.633191,-0.261556 -0.27171,-0.143697 -0.778955,-0.374763 -1.127209,-0.513482 -0.348255,-0.138719 -0.693169,-0.306085 -0.766476,-0.371924 -0.07331,-0.06584 -0.159569,-0.119708 -0.191693,-0.119708 -0.05275,0 -0.910705,-0.389699 -1.912294,-0.868597 -0.762737,-0.364695 -2.669436,-1.446712 -3.039313,-1.724757 -0.208953,-0.157074 -0.68964,-0.483136 -1.068195,-0.724582 -0.378555,-0.241446 -0.906443,-0.58615 -1.173085,-0.766009 -0.266641,-0.179859 -0.813238,-0.491432 -1.21466,-0.692384 -0.970563,-0.485866 -2.028465,-1.478945 -2.241695,-2.104339 -0.262861,-0.770953 -0.282268,-0.802041 -0.500685,-0.802041 -0.121131,0 -0.359469,0.134724 -0.571681,0.323152 -0.725916,0.644554 -1.1983,1.107781 -1.161435,1.13892 0.08822,0.07452 0.903227,0.476288 1.140931,0.56244 0.301029,0.109103 1.085462,0.967039 1.310994,1.433835 0.08532,0.1766 0.279861,0.425537 0.432306,0.553195 0.152444,0.127657 0.343557,0.331545 0.424695,0.453085 0.155375,0.232744 0.520307,1.164111 0.603406,1.539993 0.03253,0.147158 0.141401,0.259489 0.32442,0.33474 0.151502,0.06229 0.428863,0.216321 0.61636,0.342287 0.187497,0.125966 0.444404,0.255007 0.570907,0.286757 0.260905,0.06548 1.594114,0.738232 1.91545,0.966553 0.213176,0.15147 1.023931,0.545707 1.641504,0.798196 0.182557,0.07464 0.676445,0.225623 1.09753,0.335526 0.679385,0.177318 1.373734,0.436935 3.129518,1.170124 1.606393,0.670806 4.177561,1.580749 4.466617,1.580749 0.06418,0 0.681087,0.184047 1.370903,0.408994 0.689816,0.224946 1.463164,0.435172 1.718551,0.467168 0.459602,0.05758 1.584868,0.304315 2.237272,0.490558 0.185736,0.05302 0.736612,0.122055 1.224168,0.153408 0.487557,0.03135 0.924458,0.06228 0.970892,0.06873 0.04643,0.0064 0.227689,-0.297473 0.402789,-0.675384 z M 20.528741,23.677044 c 0.01353,-0.04408 -0.06371,-0.384085 -0.171655,-0.755556 -0.149677,-0.515111 -0.244007,-0.699615 -0.397463,-0.77742 -0.110667,-0.05611 -0.239849,-0.154739 -0.287074,-0.219177 -0.04723,-0.06444 -0.237829,-0.165838 -0.423565,-0.225332 -0.185736,-0.0595 -0.569436,-0.200159 -0.852668,-0.312587 -0.526431,-0.208965 -1.732384,-0.531117 -1.994915,-0.532909 -0.202622,-0.0014 -1.247047,0.347754 -1.247047,0.416871 0,0.03103 0.05298,0.128871 0.11774,0.217432 0.10188,0.139327 0.26978,0.168089 1.24633,0.213497 0.620723,0.02886 1.211096,0.09664 1.311939,0.150606 0.100844,0.05397 0.264186,0.09813 0.362981,0.09813 0.0988,0 0.376732,0.09368 0.617635,0.208185 0.34586,0.164389 0.486848,0.295773 0.670175,0.624527 0.127693,0.228987 0.23217,0.527882 0.23217,0.66421 0,0.136328 0.01792,0.265791 0.03983,0.287695 0.07363,0.07363 0.750725,0.02285 0.775591,-0.05817 z M 55.087553,22.10602 c 0,-0.207785 -0.08314,-0.343003 -0.376357,-0.612084 -0.206996,-0.18996 -0.558314,-0.44036 -0.780705,-0.556445 -0.222392,-0.116085 -0.556418,-0.304522 -0.742279,-0.418749 -0.407666,-0.250545 -2.392057,-1.227335 -2.671587,-1.315053 -0.109508,-0.03437 -0.427054,-0.174165 -0.705658,-0.310667 -0.278603,-0.136503 -0.810483,-0.361519 -1.181955,-0.500034 -0.371471,-0.138517 -0.846364,-0.348686 -1.055317,-0.467043 -0.208953,-0.118357 -0.626858,-0.302809 -0.928679,-0.409894 -0.301821,-0.107084 -0.757718,-0.279842 -1.013104,-0.383906 -0.255387,-0.104063 -0.578314,-0.235665 -0.717616,-0.292448 -0.360569,-0.146979 -1.00911,-0.346413 -1.646295,-0.506257 -0.30182,-0.07571 -0.852696,-0.272501 -1.224168,-0.437304 -0.900568,-0.399536 -2.218718,-0.913385 -2.532761,-0.987335 -0.30225,-0.07117 -1.569487,-0.619304 -3.250376,-1.405919 -0.673293,-0.315084 -1.566091,-0.66754 -1.983996,-0.783235 -0.417906,-0.115695 -1.133871,-0.365546 -1.591034,-0.555225 -0.756606,-0.313919 -1.152791,-0.417358 -1.152791,-0.30098 0,0.02414 0.09384,0.192545 0.208537,0.374234 0.275628,0.436624 1.243261,1.210563 1.867171,1.493414 0.274596,0.124489 0.81745,0.438663 1.206341,0.698165 0.388891,0.259503 1.034745,0.673595 1.435231,0.920206 0.400486,0.246611 0.804139,0.515736 0.897007,0.598056 0.340982,0.302251 3.008393,1.78181 3.212323,1.78181 0.02647,0 0.606527,0.275438 1.289022,0.612084 1.731562,0.854107 2.520151,1.211584 3.192456,1.447179 0.318937,0.111764 1.016787,0.361824 1.550777,0.555687 1.270518,0.461256 1.68521,0.585461 2.448336,0.733304 0.348254,0.06747 1.051095,0.231714 1.561869,0.364989 1.413731,0.368885 2.371135,0.572613 3.208164,0.682671 0.417906,0.05495 0.835811,0.130703 0.928679,0.168343 0.09287,0.03764 0.254331,0.07084 0.358808,0.07379 0.158034,0.0044 0.189957,-0.03947 0.189957,-0.261351 z M 22.119447,19.248301 c 0.278603,-0.04494 0.677513,-0.120945 0.886466,-0.168896 0.208953,-0.04795 0.607863,-0.119874 0.886466,-0.15983 0.862258,-0.123659 1.650617,-0.355029 2.014982,-0.591364 0.375745,-0.243715 1.388582,-0.581206 2.436034,-0.811717 1.788359,-0.393564 3.001725,-1.807621 2.32412,-2.708532 -0.407039,-0.54118 -0.773097,-0.876026 -1.061867,-0.971329 -0.165769,-0.05471 -0.474306,-0.200664 -0.685636,-0.324345 -0.638313,-0.373572 -1.462194,-0.732404 -1.94974,-0.849185 -0.253388,-0.06069 -0.582958,-0.161348 -0.732377,-0.223676 C 26.088476,12.377099 25.860527,12.32592 25.731343,12.325695 25.602158,12.32547 25.116547,12.149949 24.652208,11.935649 22.76078,11.062723 20.791777,10.30286 19.755536,10.045965 19.185967,9.9047619 18.583479,9.8400627 17.349413,9.7875789 16.443951,9.7490702 15.379597,9.6916076 14.984181,9.659884 14.344947,9.6085992 14.182018,9.62759 13.514537,9.8311844 13.101648,9.9571232 12.684338,10.111887 12.58718,10.175104 c -0.24124,0.156965 -1.25418,0.426385 -2.37171,0.630822 -0.7572612,0.13853 -1.0845143,0.249701 -1.7729332,0.602279 -0.9832177,0.503561 -1.2446049,0.686311 -1.9713828,1.378302 -0.5907821,0.562504 -1.2789938,1.522527 -1.2789938,1.784136 0,0.09387 0.1040075,0.22883 0.2368097,0.307278 0.1302453,0.07694 0.3297002,0.228909 0.4432331,0.337715 0.3012202,0.288677 1.7749397,1.43837 2.0215689,1.577087 0.3734135,0.210027 0.4513381,0.244673 1.2663806,0.563054 0.4411225,0.172317 0.9540065,0.380427 1.1397425,0.462468 0.345887,0.15278 1.146953,0.425146 2.786037,0.947263 0.89057,0.283683 0.999701,0.298398 2.659399,0.358559 0.951896,0.0345 2.205613,0.08929 2.786037,0.121743 1.632772,0.0913 3.03154,0.09227 3.588079,0.0025 z"
       id="path249" /></g></svg>
