<?xml version="1.0" encoding="UTF-8" standalone="no"?>
<!-- Created with Inkscape (http://www.inkscape.org/) -->

<svg
   width="75"
   height="100"
   viewBox="0 0 75 100"
   version="1.1"
   id="svg5"
   inkscape:version="1.2.1 (9c6d41e410, 2022-07-14)"
   sodipodi:docname="armor_head_heavy.svg"
   xml:space="preserve"
   xmlns:inkscape="http://www.inkscape.org/namespaces/inkscape"
   xmlns:sodipodi="http://sodipodi.sourceforge.net/DTD/sodipodi-0.dtd"
   xmlns="http://www.w3.org/2000/svg"
   xmlns:svg="http://www.w3.org/2000/svg"><sodipodi:namedview
     id="namedview7"
     pagecolor="#ffffff"
     bordercolor="#999999"
     borderopacity="1"
     inkscape:pageshadow="0"
     inkscape:pageopacity="0"
     inkscape:pagecheckerboard="0"
     inkscape:document-units="px"
     showgrid="false"
     height="70mm"
     units="px"
     inkscape:zoom="8.3755251"
     inkscape:cx="54.862232"
     inkscape:cy="64.951151"
     inkscape:window-width="3840"
     inkscape:window-height="2066"
     inkscape:window-x="-11"
     inkscape:window-y="-11"
     inkscape:window-maximized="1"
     inkscape:current-layer="layer1"
     inkscape:showpageshadow="2"
     inkscape:deskcolor="#d1d1d1" /><defs
     id="defs2" /><g
     inkscape:label="Layer 1"
     inkscape:groupmode="layer"
     id="layer1"><path
       style="fill:#ffffff;fill-rule:evenodd;stroke-width:0.0596978"
       d="m 20.476328,85.603904 c -0.164169,-0.05893 -0.417588,-0.109306 -0.563154,-0.111939 -0.145566,-0.0026 -0.414206,-0.05465 -0.596977,-0.115599 -0.703592,-0.234624 -1.163997,-0.300076 -2.332187,-0.331567 -0.782155,-0.02108 -1.252249,-0.06007 -1.432746,-0.118816 -0.189038,-0.06153 -0.657807,-0.09575 -1.581991,-0.115509 -0.772442,-0.01651 -1.399404,-0.05705 -1.522292,-0.09845 -0.114918,-0.0387 -0.4066,-0.106734 -0.648181,-0.151179 C 11.557218,84.516396 11.212681,84.40817 11.033162,84.320343 10.621799,84.119084 10.165252,83.996357 9.8245183,83.995444 9.6790976,83.994847 9.4776177,83.969004 9.3767852,83.937561 9.2759527,83.906118 9.0322695,83.841239 8.8352669,83.793385 8.0066556,83.592108 7.5692723,83.428357 6.8083397,83.034543 6.0577265,82.646072 5.9686371,82.614832 5.4793532,82.568519 5.0260781,82.52562 4.8698548,82.47782 4.3280868,82.21629 3.9833323,82.049865 3.5427472,81.868431 3.3490089,81.813109 3.1552705,81.757787 2.8731987,81.640857 2.7221825,81.553263 2.5711664,81.465674 2.2647812,81.317343 2.0413266,81.223648 1.4331697,80.968637 0.96349632,80.643756 0.84647076,80.397138 0.64248209,79.967267 0.76648285,78.565349 1.0591,77.993213 c 0.049845,-0.09746 0.1102212,-0.268114 0.1341704,-0.379237 0.023949,-0.111122 0.1507398,-0.43349 0.2817568,-0.716373 0.1310169,-0.282882 0.2813317,-0.608356 0.3340328,-0.723275 0.052701,-0.114918 0.1670971,-0.331241 0.2542132,-0.480717 0.087116,-0.149477 0.2293777,-0.397969 0.316137,-0.552205 0.086759,-0.154235 0.225429,-0.40071 0.3081548,-0.547721 0.1888088,-0.33553 0.5243622,-0.967298 0.7610902,-1.432954 0.2270836,-0.446685 0.6380962,-1.091551 0.9775988,-1.533821 0.1430106,-0.186301 0.2600193,-0.358227 0.2600193,-0.382059 0,-0.02383 0.2115128,-0.342648 0.4700285,-0.70848 0.2585156,-0.365831 0.530545,-0.784913 0.6045097,-0.931292 0.073965,-0.146378 0.2851022,-0.494487 0.4691945,-0.773574 0.1840922,-0.279087 0.3901986,-0.614887 0.4580141,-0.746222 0.067816,-0.131335 0.2395933,-0.437381 0.3817277,-0.680103 0.1421344,-0.242722 0.3368511,-0.618818 0.4327036,-0.835769 0.095853,-0.21695 0.1986198,-0.448184 0.2283719,-0.513851 0.029752,-0.06567 0.1090911,-0.303557 0.176309,-0.528644 0.1140078,-0.381766 0.122215,-0.564534 0.122215,-2.721684 0,-1.902822 0.016103,-2.364346 0.09091,-2.605488 0.073224,-0.23604 0.097636,-0.815683 0.1254799,-2.979451 0.02576,-2.001829 0.055838,-2.772264 0.118032,-3.023353 0.063609,-0.256801 0.084797,-0.881637 0.08907,-2.626701 0.00612,-2.499157 0.037585,-3.061673 0.2215712,-3.961284 0.1617265,-0.790771 0.2618922,-1.134766 0.4899197,-1.682512 0.1045254,-0.251082 0.2293349,-0.606535 0.2773539,-0.789897 0.2871265,-1.0964 0.3679501,-1.43912 0.4024291,-1.706433 0.040365,-0.312941 0.1517081,-0.8296 0.3087669,-1.432746 0.0513,-0.197003 0.129725,-0.514995 0.17428,-0.706651 0.04455,-0.191655 0.1269,-0.399174 0.18299,-0.461152 0.08119,-0.08971 0.09382,-0.174245 0.06193,-0.414587 -0.02594,-0.195529 -0.0084,-0.432687 0.04967,-0.673105 0.09004,-0.37253 0.118083,-0.511769 0.303214,-1.505463 0.244097,-1.310204 0.604269,-2.356386 1.305073,-3.790808 0.511994,-1.047962 0.568846,-1.136445 1.112361,-1.731234 0.315034,-0.344755 0.744307,-0.868602 0.953939,-1.164106 1.122644,-1.582509 1.297246,-1.797342 2.094982,-2.577696 0.375228,-0.367052 1.286672,-1.270486 2.025432,-2.007629 1.388376,-1.38534 2.430742,-2.369463 2.509694,-2.369463 0.05876,0 0.474021,-0.281456 1.23549,-0.837387 0.336079,-0.245363 0.801131,-0.563528 1.033449,-0.707034 0.232319,-0.143505 0.588649,-0.402321 0.791846,-0.575147 0.747098,-0.635436 1.704766,-1.090058 2.561003,-1.215754 0.457129,-0.06711 1.129938,-0.362602 1.7224,-0.756469 0.220186,-0.14638 0.414731,-0.266145 0.432322,-0.266145 0.01759,0 0.336346,-0.14465 0.708345,-0.321445 0.458398,-0.217858 0.78427,-0.333136 1.011216,-0.35772 0.18417,-0.01995 0.432914,-0.07725 0.552765,-0.127324 0.232408,-0.09711 0.692232,-0.206556 1.559988,-0.371319 0.455801,-0.08654 0.944667,-0.102294 3.223678,-0.103854 2.637816,-0.0018 2.693151,5.9e-4 3.059747,0.13248 0.305096,0.109765 0.498429,0.13432 1.057549,0.13432 0.424713,0 0.781215,0.03169 0.940002,0.08355 0.140691,0.04595 0.390122,0.102025 0.55429,0.124604 0.164169,0.02258 0.526833,0.119957 0.80592,0.216395 0.279087,0.09644 0.825661,0.28355 1.214609,0.415805 1.058744,0.360006 1.893443,0.726847 2.665745,1.171563 0.891435,0.513316 1.274065,0.754084 2.779586,1.74904 0.173889,0.114918 0.471562,0.302966 0.661496,0.417884 0.189934,0.114918 0.440347,0.273388 0.556472,0.352156 0.347037,0.235394 0.554612,0.33857 0.838819,0.416939 0.244968,0.06755 0.886787,0.499467 1.607135,1.081535 0.34623,0.279767 2.576503,2.512021 3.15438,3.157181 0.253331,0.282827 0.627354,0.689285 0.831164,0.90324 0.203809,0.213956 0.483806,0.549756 0.622216,0.746222 0.278883,0.395864 0.753982,1.371853 0.914918,1.879505 0.136337,0.430058 0.77719,1.767357 0.965037,2.013793 0.08092,0.106155 0.252537,0.42226 0.381375,0.702455 0.128838,0.280194 0.300498,0.596299 0.381466,0.702455 0.197208,0.258557 0.749042,1.564634 0.913909,2.163037 0.0181,0.06567 0.161453,0.468627 0.318577,0.895466 0.485827,1.319786 0.589008,1.652506 0.919829,2.965959 0.176294,0.69992 0.364079,1.393469 0.417306,1.541221 0.110966,0.308016 0.323478,1.338854 0.39382,1.910328 0.02627,0.213419 0.08994,0.508923 0.141495,0.656675 0.05155,0.147752 0.09411,0.338767 0.09459,0.424478 5.97e-4,0.08571 0.0726,0.260327 0.160283,0.388035 0.214124,0.311894 0.453697,0.960314 0.714403,1.933584 0.383438,1.431425 0.430868,1.897043 0.501712,4.925064 0.03958,1.691504 0.08167,2.509781 0.144319,2.805794 0.04865,0.229837 0.104268,0.820844 0.123598,1.313351 0.01933,0.492506 0.07165,1.029786 0.116256,1.193955 0.04461,0.164169 0.09726,0.473104 0.117007,0.686524 0.01974,0.213419 0.07411,0.549219 0.120828,0.746222 0.04671,0.197002 0.143956,0.626826 0.216094,0.955164 0.152044,0.692033 0.314219,1.202465 0.50262,1.58199 0.07334,0.147752 0.194769,0.443256 0.269833,0.656675 0.07506,0.21342 0.266688,0.663392 0.42583,0.999938 0.159143,0.336546 0.426374,0.900689 0.593844,1.253652 0.16747,0.352963 0.352658,0.762639 0.411526,0.910391 0.05887,0.147752 0.264939,0.591008 0.457924,0.985013 0.192985,0.394005 0.400619,0.850693 0.46141,1.014862 0.06079,0.164168 0.225717,0.540264 0.366502,0.835768 0.555547,1.166077 0.923333,1.953608 0.923333,1.977117 0,0.01357 0.176377,0.380194 0.391946,0.814713 0.215568,0.434519 0.47437,0.978083 0.575116,1.207919 0.438874,1.00126 1.067808,2.182077 1.669322,3.134132 0.114094,0.180586 0.242361,0.422362 0.285039,0.53728 0.04268,0.114918 0.128147,0.322821 0.189928,0.462007 0.06178,0.139186 0.112328,0.278216 0.112328,0.308956 0,0.03074 0.144856,0.400412 0.321908,0.821495 0.676835,1.609753 0.764865,2.058155 0.740926,3.774131 l -0.01812,1.299524 -0.179093,0.287833 c -0.293946,0.472424 -0.420457,0.535405 -1.075491,0.535405 -0.365195,0 -0.588679,-0.02573 -0.636205,-0.07326 -0.04833,-0.04833 -0.287635,-0.07399 -0.703078,-0.07539 -0.684214,-0.0023 -1.147922,-0.08859 -1.533498,-0.285314 -0.135854,-0.06932 -0.525382,-0.23765 -0.865617,-0.374078 -0.340236,-0.136427 -0.64547,-0.269123 -0.678304,-0.294871 -0.03283,-0.02575 -0.375947,-0.209222 -0.762472,-0.407711 -0.386525,-0.198489 -0.776052,-0.412679 -0.865617,-0.475971 -0.563541,-0.398237 -1.709821,-0.832532 -2.475242,-0.937803 -0.171541,-0.02359 -0.411467,-0.07803 -0.53316,-0.120966 -0.1217,-0.04294 -0.417747,-0.09716 -0.657882,-0.120488 -0.240134,-0.02334 -0.533106,-0.07617 -0.651039,-0.117408 -0.117939,-0.04125 -0.426875,-0.09427 -0.686524,-0.117849 -0.259656,-0.02357 -0.557482,-0.07782 -0.661845,-0.120548 -0.104364,-0.04273 -0.34614,-0.09688 -0.53728,-0.12035 -0.191143,-0.02347 -0.414691,-0.06903 -0.496775,-0.101236 -0.08208,-0.03221 -0.270132,-0.09315 -0.417884,-0.135442 -0.147752,-0.04228 -0.496984,-0.161757 -0.776071,-0.265494 -0.720058,-0.267649 -1.291368,-0.452533 -1.671537,-0.540945 -0.180586,-0.04199 -0.368634,-0.09746 -0.417884,-0.123252 -0.04925,-0.0258 -0.291027,-0.113855 -0.53728,-0.195683 -0.613757,-0.203946 -1.271151,-0.455691 -1.343199,-0.51438 -0.03283,-0.02674 -0.328338,-0.161882 -0.656676,-0.300309 -0.328337,-0.138427 -0.758161,-0.326794 -0.955164,-0.418591 -0.37732,-0.175821 -0.646047,-0.258295 -1.157885,-0.355363 -0.171187,-0.03247 -0.477678,-0.135953 -0.68109,-0.229974 -0.665638,-0.307668 -2.229336,-0.786068 -2.569343,-0.786068 -0.124359,0 -0.278391,-0.02798 -0.342294,-0.06218 -0.0639,-0.0342 -0.444948,-0.09946 -0.846768,-0.145025 -0.40182,-0.04556 -0.923273,-0.128707 -1.158786,-0.184763 -0.235512,-0.05606 -0.470572,-0.08566 -0.522355,-0.06579 -0.08195,0.03145 -0.09415,0.213611 -0.09415,1.405732 0,1.199876 -0.0147,1.416501 -0.118625,1.748033 -0.06524,0.208136 -0.118972,0.462066 -0.119396,0.564293 -7.22e-4,0.173911 -0.366807,0.960065 -0.955922,2.052802 -0.300002,0.556467 -0.811979,1.059814 -1.328921,1.306533 l -0.380472,0.181583 -2.921192,0.01675 c -2.241858,0.01285 -3.025314,-0.0019 -3.368925,-0.06332 -0.311104,-0.05563 -1.255058,-0.08845 -3.093336,-0.107552 -2.239675,-0.02326 -2.68392,-0.01386 -2.895341,0.0613 -0.178263,0.06337 -0.627667,0.09849 -1.570251,0.122726 -0.947461,0.02435 -1.392285,0.05927 -1.574571,0.123581 -0.202435,0.07142 -0.589152,0.08964 -1.903161,0.08964 H 23.819411 L 22.953789,84.5817 c -0.993581,1.016342 -1.203931,1.148805 -1.805211,1.136812 -0.205569,-0.0041 -0.508081,-0.05567 -0.67225,-0.114608 z m 1.341348,-1.653944 c 0.509103,-0.510648 0.549747,-0.609126 0.467238,-1.132078 -0.10248,-0.649535 0.0069,-2.728265 0.184611,-3.509422 0.07849,-0.344957 0.164757,-0.743768 0.329284,-1.522292 0.0798,-0.377589 0.184046,-0.847708 0.231663,-1.044711 0.04762,-0.197003 0.161611,-0.680554 0.253319,-1.074559 0.179865,-0.77276 0.393141,-1.296548 0.860391,-2.113054 0.163709,-0.286077 0.395404,-0.773887 0.514877,-1.084022 0.119473,-0.310136 0.252325,-0.631043 0.295228,-0.713127 0.534455,-1.022551 0.563235,-1.092105 1.099257,-2.65655 0.850175,-2.481337 1.262048,-3.811959 1.404367,-4.537029 0.08378,-0.426839 0.181761,-0.910391 0.217734,-1.074559 0.106169,-0.484519 -0.01164,-2.278736 -0.158148,-2.408493 -0.03109,-0.02754 -0.212984,-0.08356 -0.404203,-0.124483 -0.273964,-0.05864 -0.482787,-0.05935 -0.985013,-0.0034 -0.573786,0.06397 -0.801854,0.110529 -1.502959,0.306806 -0.322033,0.09015 -1.248964,0.298409 -1.820782,0.409078 -0.313314,0.06064 -1.086653,0.216181 -1.492443,0.300178 -0.131335,0.02719 -0.534295,0.122438 -0.895467,0.211671 -0.381761,0.09432 -0.956581,0.182872 -1.373048,0.211522 -1.878097,0.129199 -2.644372,0.216585 -3.193829,0.364223 -0.481715,0.129435 -0.917573,0.210928 -1.522293,0.284624 -0.523792,0.06383 -1.100121,0.143484 -1.522293,0.210384 -0.114918,0.01821 -0.370126,0.04738 -0.567128,0.06481 -0.449646,0.03979 -0.594814,0.09557 -1.223804,0.470265 -0.279087,0.166253 -0.708911,0.395733 -0.955164,0.509956 -0.8382772,0.388827 -0.8356415,0.386508 -0.8367012,0.735928 -0.00119,0.392669 -0.1146799,0.848323 -0.3499935,1.405211 -0.1024945,0.242561 -0.1863537,0.465487 -0.1863537,0.49539 0,0.284933 -2.3492847,4.16868 -3.4166809,5.648326 -0.1729357,0.239727 -0.3251287,0.468071 -0.3382066,0.507431 -0.013078,0.03936 -0.098447,0.181042 -0.18971,0.31485 -0.091263,0.133807 -0.2581959,0.429311 -0.3709629,0.656675 -0.2108956,0.425214 -0.5663949,1.05984 -0.9171077,1.637193 -0.3272451,0.538721 -0.9783654,1.907957 -1.129904,2.376069 -0.049939,0.154266 -0.114225,0.33421 -0.1428575,0.399878 -0.09035,0.207211 -0.3001139,0.968715 -0.3001139,1.089496 0,0.152659 0.1488553,0.279916 0.477582,0.408302 0.1477519,0.0577 0.4596421,0.205665 0.6930892,0.328798 0.2334471,0.123126 0.542383,0.255369 0.6865241,0.293862 0.1441411,0.0385 0.4635547,0.163936 0.7098079,0.278747 0.6745543,0.314511 0.8812706,0.378871 1.4028972,0.436778 0.426017,0.0473 0.5807118,0.104477 1.4327459,0.529615 1.2413031,0.61937 1.6599342,0.749511 2.8953406,0.900087 0.427467,0.0521 0.796709,0.148916 0.925315,0.242617 0.132808,0.09676 0.801928,0.292633 1.20472,0.352665 0.235757,0.03514 0.504397,0.09528 0.596977,0.133651 0.102401,0.04244 0.717793,0.08342 1.571226,0.104638 1.031647,0.02565 1.441407,0.05675 1.548421,0.117533 0.106144,0.06029 0.477698,0.08974 1.373048,0.108823 0.675139,0.01439 1.308117,0.05294 1.406618,0.08566 0.626397,0.208101 1.19393,0.343883 1.588547,0.380066 0.24986,0.02291 0.491636,0.0653 0.53728,0.0942 0.04564,0.02891 0.160122,0.05297 0.254395,0.05347 0.134895,7.16e-4 0.269654,-0.09764 0.632663,-0.461745 z M 72.66853,81.912715 c 0.01597,-1.012163 0.01189,-1.051958 -0.168311,-1.641688 -0.436678,-1.429087 -1.177461,-3.249784 -1.438286,-3.535014 -0.186747,-0.204221 -1.509589,-2.791467 -1.782814,-3.486874 -0.04515,-0.114918 -0.139036,-0.302966 -0.208632,-0.417885 -0.142785,-0.235779 -0.245817,-0.454582 -0.477868,-1.014861 -0.08839,-0.21342 -0.222345,-0.508924 -0.297671,-0.656676 -0.440486,-0.864009 -1.224526,-2.529889 -1.224526,-2.601793 0,-0.01719 -0.279016,-0.627549 -0.620033,-1.356355 -1.065862,-2.277911 -1.588784,-3.42031 -1.588784,-3.470924 0,-0.02684 -0.110859,-0.301571 -0.246349,-0.610514 -0.237412,-0.541336 -0.250426,-0.558026 -0.3587,-0.460036 -0.121759,0.11019 -0.187134,0.316378 -0.291062,0.918008 -0.242009,1.400948 -0.669427,2.337622 -1.402252,3.072993 -0.531555,0.533401 -0.925131,0.737521 -1.790933,0.928827 -0.131335,0.02902 -0.413407,0.09359 -0.626826,0.143498 -0.21342,0.0499 -0.465511,0.09129 -0.560203,0.09198 -0.09469,6.87e-4 -0.269308,0.02652 -0.388035,0.05742 -0.118728,0.0309 -0.343472,0.08812 -0.499433,0.127154 -0.254507,0.06371 -0.283564,0.08824 -0.283564,0.239402 0,0.09263 0.04097,0.324202 0.09105,0.514597 0.08968,0.340933 0.129192,0.566744 0.295632,1.689374 0.04624,0.311921 0.150325,0.889497 0.231289,1.283502 0.332279,1.617021 0.346864,1.732693 0.326793,2.59175 -0.02226,0.952826 -0.05241,1.026522 -0.556504,1.360378 -0.158757,0.105144 -0.437604,0.320056 -0.61966,0.477582 -0.182056,0.157527 -0.439529,0.364838 -0.572163,0.460692 -0.132634,0.09585 -0.464829,0.372718 -0.738212,0.615256 -0.273382,0.242537 -0.562866,0.47096 -0.643297,0.507607 -0.215603,0.09824 -0.147821,0.181837 0.248958,0.307059 0.194765,0.06147 0.501589,0.167443 0.681831,0.235501 0.180241,0.06806 0.435449,0.142023 0.567128,0.164366 0.253479,0.04301 0.670875,0.182361 1.089459,0.363735 0.139186,0.06031 0.294724,0.109653 0.34564,0.109653 0.05092,0 0.197891,0.05373 0.32661,0.119395 0.12872,0.06567 0.275968,0.119396 0.327219,0.119396 0.05125,0 0.287381,0.05192 0.524734,0.11539 0.634324,0.169607 1.223684,0.293187 1.595655,0.334588 0.180586,0.0201 0.47609,0.07388 0.656675,0.119503 0.180586,0.04562 0.568239,0.112416 0.861445,0.148426 0.293211,0.03601 0.580984,0.09109 0.6395,0.12241 0.05852,0.03132 0.28874,0.09456 0.511604,0.140529 1.010987,0.208554 1.910585,0.57717 2.509717,1.028365 0.106799,0.08043 0.281415,0.176503 0.388036,0.213497 0.10662,0.037 0.315025,0.138535 0.463123,0.225646 0.388543,0.228547 1.371741,0.689246 1.581136,0.740873 0.09838,0.02426 0.380454,0.141245 0.626827,0.259972 0.428522,0.2065 0.48351,0.217449 1.267258,0.252318 0.450616,0.02005 0.839135,0.05629 0.863384,0.08054 0.02424,0.02424 0.11225,0.03614 0.195564,0.02642 l 0.151477,-0.01766 z m -49.446105,0.649273 c 0.217046,-0.110656 0.352048,-0.119396 1.844412,-0.119396 1.233942,0 1.687866,-0.02069 1.942479,-0.08853 0.212467,-0.05661 0.838037,-0.106668 1.73515,-0.138833 0.937431,-0.03361 1.45006,-0.07564 1.545043,-0.126696 0.112141,-0.06027 0.81152,-0.07099 3.313225,-0.05075 2.765511,0.02236 3.205438,0.03833 3.43972,0.12481 0.298941,0.110357 1.691088,0.127162 4.208691,0.05081 1.283225,-0.03892 1.319609,-0.04351 1.58618,-0.200036 0.150056,-0.08811 0.341005,-0.26264 0.42433,-0.387844 0.519048,-0.779909 0.969768,-1.725522 1.026576,-2.153763 0.02241,-0.168939 0.08219,-0.422547 0.132839,-0.563571 0.07626,-0.212327 0.08923,-0.538609 0.07543,-1.89809 -0.01698,-1.672502 -0.0046,-1.785982 0.213858,-1.967321 0.126698,-0.10515 0.116665,-0.212758 -0.04151,-0.445275 -0.718279,-1.055841 -1.716587,-1.626898 -3.507243,-2.00623 -0.344754,-0.07303 -0.734282,-0.158835 -0.865617,-0.190673 -0.131335,-0.03184 -0.588023,-0.08201 -1.014862,-0.111501 -0.996132,-0.06882 -1.654706,-0.145943 -2.029723,-0.237704 -0.164169,-0.04017 -0.956657,-0.096 -1.761084,-0.12406 -0.804427,-0.02806 -1.919283,-0.06667 -2.477456,-0.08579 -1.971916,-0.06755 -2.689007,0.202979 -4.027089,1.519229 -1.537335,1.512253 -2.536714,2.432671 -2.911338,2.681314 -0.222418,0.147622 -0.646305,0.450416 -0.941969,0.672875 -0.599147,0.4508 -1.227276,0.824211 -1.467129,0.872182 -0.136812,0.02736 -0.16769,0.07684 -0.230283,0.369026 -0.03976,0.185585 -0.09545,0.431451 -0.12376,0.546369 -0.310987,1.262309 -0.44705,2.234379 -0.44705,3.193829 0,0.557965 0.04678,0.985013 0.10791,0.985013 0.0088,0 0.121473,-0.05373 0.250277,-0.119395 z m 32.493196,-5.32326 c 0.252978,-0.169757 0.621145,-0.447536 0.818148,-0.617287 0.197002,-0.169751 0.546234,-0.452898 0.776071,-0.629215 0.229836,-0.176316 0.504711,-0.399399 0.610832,-0.49574 0.106123,-0.09634 0.321035,-0.258935 0.477582,-0.361321 0.281847,-0.184333 0.285122,-0.190201 0.334427,-0.599157 0.07319,-0.60703 -0.0458,-1.486228 -0.432676,-3.197197 -0.06311,-0.279087 -0.145673,-0.762639 -0.183482,-1.07456 -0.06197,-0.511217 -0.132847,-0.898413 -0.302643,-1.653199 -0.0742,-0.329839 -0.07175,-0.833107 0.0048,-0.976058 0.03359,-0.06276 0.114546,-0.142725 0.179912,-0.177707 0.131171,-0.0702 1.557448,-0.356175 1.778974,-0.356691 0.123182,-2.99e-4 0.507067,-0.09395 1.293274,-0.315528 0.708976,-0.199815 1.316132,-0.773375 1.769596,-1.671684 0.19991,-0.396025 0.588465,-1.825457 0.588465,-2.164881 0,-0.220963 0.131717,-0.499407 0.4097,-0.86608 0.269511,-0.355508 0.287522,-0.446347 0.159148,-0.802683 -0.04731,-0.131335 -0.08721,-0.338592 -0.08864,-0.460571 -0.0014,-0.121979 -0.0463,-0.350323 -0.09967,-0.507431 -0.210022,-0.618165 -0.468908,-3.078306 -0.560902,-5.330111 -0.06363,-1.557558 -0.11028,-2.030579 -0.199916,-2.027123 -0.0371,0.0014 -0.188334,0.02673 -0.336086,0.05622 -0.427645,0.08536 -0.702225,0.01502 -0.964244,-0.246997 -0.227216,-0.227212 -0.229699,-0.234736 -0.228726,-0.692366 0.0012,-0.572211 0.13934,-0.852351 0.559266,-1.134257 0.237018,-0.159115 0.346862,-0.194018 0.610601,-0.194018 0.299104,0 0.321592,-0.01 0.321592,-0.14239 0,-0.390698 -0.495981,-1.018603 -1.156847,-1.464549 -0.237329,-0.16015 -0.505204,-0.387802 -0.595276,-0.505893 -0.192352,-0.252185 -0.732587,-0.628706 -1.11337,-0.775971 -0.147752,-0.05714 -0.364488,-0.166442 -0.481635,-0.242887 -0.422841,-0.275928 -0.934796,-0.496767 -1.657767,-0.715099 -0.709818,-0.21436 -0.761733,-0.221415 -1.432746,-0.194717 -0.382932,0.01524 -0.911153,0.0585 -1.173823,0.09614 -0.26267,0.03764 -0.69028,0.08134 -0.950245,0.0971 -0.569817,0.03455 -1.493977,0.307282 -2.124189,0.626885 -0.335176,0.16998 -0.573631,0.355336 -0.948533,0.737315 -0.673813,0.68653 -0.722796,0.699481 -1.492166,0.394507 -0.335354,-0.132933 -0.749455,-0.278235 -0.920224,-0.322895 -0.533248,-0.139455 -1.223876,-0.386129 -1.671379,-0.596972 -0.236523,-0.111439 -0.68525,-0.271253 -0.997171,-0.35514 -2.175493,-0.585078 -2.242751,-0.596182 -3.372923,-0.556807 -1.722227,0.06 -2.798547,0.181615 -4.119144,0.465423 -0.339159,0.07289 -0.900824,0.257863 -1.253653,0.412871 -0.468554,0.205848 -1.320565,0.5213 -1.761084,0.65203 -0.730463,0.216776 -1.479065,0.609227 -1.880479,0.985833 -0.197002,0.184827 -0.452954,0.386063 -0.568781,0.44719 -0.115828,0.06113 -0.50752,0.377706 -0.870428,0.703508 -0.362908,0.325801 -0.80542,0.676702 -0.98336,0.779778 -0.17794,0.103076 -0.525007,0.348757 -0.77126,0.545957 -0.246254,0.1972 -0.716373,0.545214 -1.044711,0.773364 -0.830438,0.577042 -2.387831,2.061979 -3.199485,3.050633 -0.570701,0.695154 -0.635398,0.866024 -0.416709,1.10056 0.0632,0.06778 0.172684,0.270995 0.243291,0.451581 0.135946,0.347703 0.480617,0.975362 0.849433,1.546854 0.122444,0.189732 0.525404,0.672876 0.895466,1.073653 0.370062,0.400778 0.834024,0.915077 1.031026,1.142886 0.210203,0.243074 0.592495,0.578343 0.925316,0.811497 0.31192,0.218513 0.701448,0.498904 0.865617,0.623091 0.554959,0.419802 2.57239,1.410017 3.841099,1.885325 0.306748,0.11492 0.756834,0.300916 1.00019,0.413325 0.243357,0.112408 0.464571,0.204379 0.491588,0.204379 0.02702,0 0.322056,0.122537 0.655642,0.272304 0.989288,0.444152 2.218368,0.865843 3.294481,1.13032 0.344754,0.08473 0.72085,0.181685 0.835768,0.215453 0.314124,0.09231 0.665104,0.176823 0.865618,0.208445 0.510416,0.08049 0.921837,0.166301 1.150599,0.239975 0.98626,0.317632 3.969236,0.645472 4.642606,0.51024 0.19015,-0.03819 0.54962,-0.06943 0.798822,-0.06943 0.249202,0 0.537885,-0.02432 0.641516,-0.05404 0.136977,-0.03929 0.220786,-0.03137 0.306964,0.02899 0.130838,0.09164 0.142513,0.394202 0.225564,5.845576 0.01901,1.247683 0.05658,2.291454 0.08348,2.319491 0.02691,0.02804 0.205973,0.08618 0.397922,0.129208 0.345421,0.07743 0.76127,0.232755 1.513105,0.565163 0.213419,0.09436 0.522355,0.189947 0.686524,0.212417 0.370718,0.05074 0.903601,0.221222 1.373048,0.439268 0.197003,0.0915 0.519371,0.229396 0.716373,0.306431 0.197003,0.07704 0.438779,0.186768 0.53728,0.243851 0.0985,0.05708 0.213886,0.105693 0.256411,0.108022 0.04253,0.0023 0.284301,-0.134657 0.53728,-0.304413 z M 24.121128,76.584931 c 0.162388,-0.102506 0.456435,-0.312316 0.653438,-0.466245 0.197003,-0.153929 0.573098,-0.422384 0.835769,-0.596566 0.26267,-0.174183 0.638765,-0.472688 0.835768,-0.663344 0.197003,-0.190656 0.616569,-0.59724 0.93237,-0.90352 1.529812,-1.483692 1.77754,-1.714751 2.090687,-1.950011 0.185162,-0.139108 0.411081,-0.360316 0.502043,-0.491572 0.09096,-0.131257 0.331291,-0.369031 0.534067,-0.528387 0.523525,-0.411422 0.982505,-1.109935 1.748538,-2.661064 0.178325,-0.36109 0.371366,-0.723754 0.428979,-0.80592 0.192989,-0.275233 0.946838,-1.756833 1.093562,-2.149266 0.07979,-0.21342 0.164861,-0.434288 0.189039,-0.490818 0.03639,-0.08508 -0.05727,-0.149904 -0.543834,-0.376393 -1.163957,-0.54181 -2.483087,-1.235904 -2.845222,-1.497088 -0.203099,-0.146482 -0.642166,-0.452445 -0.975706,-0.679918 -0.400158,-0.272907 -0.714901,-0.544718 -0.925315,-0.799097 -0.326936,-0.39525 -0.520595,-0.550592 -0.437741,-0.35113 0.02402,0.05783 0.0572,0.575268 0.07373,1.149859 0.03014,1.047514 0.02499,1.103185 -0.226025,2.447607 -0.07406,0.396663 -0.269003,1.103998 -0.444323,1.612197 -0.08488,0.246057 -0.262085,0.783175 -0.393778,1.193598 -0.758264,2.363138 -1.003843,3.032947 -1.46482,3.995253 -0.179693,0.375117 -0.437517,0.952238 -0.572941,1.282492 -0.135424,0.330255 -0.337151,0.762101 -0.448284,0.959659 -0.430663,0.765586 -0.678186,1.336499 -0.815733,1.881489 -0.172928,0.685184 -0.233891,1.07456 -0.168237,1.07456 0.02679,0 0.181579,-0.08387 0.343968,-0.186375 z m 24.8696,-3.544734 c -0.01162,-1.280517 -0.04454,-2.435669 -0.07316,-2.567004 -0.02862,-0.131335 -0.05269,-0.732845 -0.0535,-1.33669 l -0.0015,-1.097898 -0.522355,0.04846 c -1.661667,0.154142 -4.051901,-0.04231 -5.417571,-0.44526 -0.195669,-0.05773 -0.57826,-0.140382 -1.134257,-0.245024 -0.537834,-0.101224 -0.860292,-0.17935 -1.223804,-0.296506 -0.348947,-0.112463 -0.645035,-0.185253 -1.223804,-0.30086 -0.197003,-0.03935 -0.559666,-0.151777 -0.80592,-0.249836 -0.246253,-0.09806 -0.598919,-0.227013 -0.783703,-0.286565 -0.184783,-0.05955 -0.466855,-0.167178 -0.626826,-0.23917 -0.159971,-0.07199 -0.432689,-0.195046 -0.606039,-0.273454 -0.17335,-0.07841 -0.341145,-0.142559 -0.372878,-0.142559 -0.03173,0 -0.370209,-0.139248 -0.752171,-0.309439 -0.793222,-0.353437 -0.769044,-0.35895 -0.964251,0.219892 -0.103761,0.307682 -1.025328,2.152426 -1.207823,2.417759 -0.05646,0.08208 -0.333266,0.600506 -0.615131,1.152049 -0.281864,0.551542 -0.677304,1.24549 -0.878755,1.542106 -0.201451,0.296616 -0.351143,0.554432 -0.33265,0.572926 0.01849,0.01849 0.231313,-1.8e-4 0.472932,-0.04152 0.241619,-0.04133 0.571281,-0.05819 0.732583,-0.03746 0.161301,0.02073 0.884283,0.06472 1.606626,0.09777 2.126365,0.09727 3.140772,0.164055 3.522167,0.231882 0.197002,0.03504 0.761146,0.09007 1.253652,0.122305 0.492507,0.03223 1.016355,0.08238 1.164107,0.111443 0.899245,0.176873 1.814032,0.380184 2.15655,0.479293 0.356053,0.103025 0.500052,0.158088 1.00743,0.38522 0.08209,0.03675 0.364157,0.206232 0.626827,0.376634 0.504947,0.327576 0.8728,0.711246 1.390749,1.450545 0.173905,0.248224 0.363827,0.468939 0.42205,0.490477 0.05822,0.02154 0.292033,0.05896 0.519578,0.08316 0.227546,0.0242 0.516758,0.0802 0.642694,0.124453 0.125936,0.04425 0.484807,0.09843 0.797492,0.120414 0.312684,0.02198 0.666333,0.0755 0.785886,0.118935 0.119554,0.04344 0.284531,0.07284 0.366615,0.06535 l 0.149244,-0.01362 z M 10.123841,63.490086 c 0.234255,-0.117564 0.537142,-0.289829 0.673081,-0.382811 0.508695,-0.347944 0.508883,-0.347992 2.366432,-0.612018 0.213419,-0.03034 0.629811,-0.08004 0.925315,-0.110462 0.295504,-0.03042 0.644736,-0.08059 0.776071,-0.111503 1.38642,-0.326271 2.219691,-0.445937 3.760958,-0.540109 0.558174,-0.0341 1.149182,-0.100431 1.31335,-0.147389 0.164169,-0.04696 0.499969,-0.129252 0.746222,-0.182873 0.246253,-0.05362 0.622349,-0.136959 0.835769,-0.185198 0.213419,-0.04824 0.683539,-0.141911 1.04471,-0.20816 0.84306,-0.154641 1.887877,-0.398931 2.596852,-0.607173 0.114919,-0.03375 0.688803,-0.0785 1.2753,-0.09944 l 1.066357,-0.03807 -0.484304,-0.589082 C 26.753586,59.3518 26.53565,59.063012 26.53565,59.034045 c 0,-0.136319 -0.163092,-0.03059 -0.227478,0.147466 -0.11335,0.313464 -0.501402,0.673016 -0.76904,0.712561 -0.559694,0.0827 -1.188615,-0.191876 -1.410361,-0.615728 -0.16264,-0.310876 -0.106218,-1.005757 0.104048,-1.28143 0.298946,-0.391938 0.48737,-0.479282 1.010092,-0.46823 l 0.468346,0.0099 -0.119324,-0.129297 c -0.165909,-0.179777 -0.380482,-0.908192 -0.335403,-1.138595 0.134585,-0.687869 2.688742,-3.363307 4.171228,-4.369295 0.264448,-0.179449 0.615134,-0.435062 0.779303,-0.568028 0.164169,-0.132966 0.553697,-0.412644 0.865618,-0.621508 0.59932,-0.401307 1.253652,-0.975261 1.253652,-1.099654 0,-0.106924 -0.525678,-0.05236 -1.074559,0.111545 -0.78201,0.233516 -1.495657,0.35667 -2.447608,0.422384 -1.418322,0.09791 -2.070841,0.197358 -2.746096,0.418531 -0.180586,0.05915 -0.516386,0.139321 -0.746222,0.17816 -0.229837,0.03884 -0.52534,0.0929 -0.656675,0.120136 -0.518986,0.107623 -0.916299,0.176527 -1.373049,0.23812 -0.439466,0.05926 -1.036871,0.242148 -1.790932,0.548263 -1.010922,0.41039 -1.394134,0.506421 -2.537155,0.635796 -0.213419,0.02416 -0.482059,0.08716 -0.596977,0.140007 -0.372452,0.171281 -0.964829,0.319593 -1.85063,0.463341 -0.445149,0.07224 -1.682475,0.343282 -2.104346,0.460969 -0.388574,0.1084 -0.447543,0.199421 -0.129196,0.199421 0.272832,0 0.790893,0.351688 1.005414,0.682528 0.254429,0.392388 0.186056,0.907493 -0.177866,1.339989 -0.14574,0.173202 -0.183877,0.1863 -0.542454,0.1863 -0.498484,0 -0.692936,-0.104823 -0.916013,-0.493796 -0.317167,-0.553033 -0.21947,-1.382873 0.18851,-1.601217 0.06555,-0.03508 0.105452,-0.0775 0.08868,-0.09427 -0.03302,-0.03302 -0.329461,0.05319 -0.755804,0.219794 -0.381819,0.149205 -0.987431,0.332803 -1.38747,0.420626 -0.390043,0.08563 -0.384802,0.13015 0.04497,0.382013 0.436697,0.255922 0.506731,0.390213 0.506731,0.97167 0,0.419755 -0.0218,0.536903 -0.129016,0.693397 -0.216949,0.316654 -0.351506,0.39448 -0.684537,0.395924 -0.510057,0.0022 -0.835699,-0.193632 -1.059943,-0.637459 -0.143855,-0.28472 -0.131652,-1.085218 0.02137,-1.40194 0.06485,-0.134215 0.103556,-0.267237 0.08602,-0.295605 -0.01753,-0.02837 -0.231021,-0.05158 -0.474419,-0.05158 H 9.6445219 l -0.086131,0.313414 c -0.066201,0.24089 -0.093668,0.914316 -0.1187025,2.910265 -0.025942,2.06829 -0.051277,2.667312 -0.1244781,2.943027 -0.071472,0.269201 -0.091908,0.690061 -0.091908,1.892755 v 1.546581 l 0.2373099,-0.08373 c 0.1305208,-0.04605 0.4289737,-0.179917 0.6632288,-0.297482 z m 15.366281,-4.339639 c 0.190075,-0.149513 0.349524,-0.488431 0.301288,-0.640407 -0.03693,-0.11637 -0.441438,-0.364432 -0.594264,-0.364432 -0.277397,0 -0.604514,0.416096 -0.537385,0.68356 0.04397,0.175212 0.156651,0.27722 0.407442,0.368867 0.257225,0.094 0.240533,0.09588 0.422919,-0.04759 z m -13.796789,-3.39929 c 0.0865,-0.24759 0.0031,-0.427553 -0.280509,-0.605361 -0.144025,-0.09029 -0.29141,-0.164169 -0.327521,-0.164169 -0.08518,0 -0.154837,0.373546 -0.105969,0.568255 0.09797,0.390325 0.59864,0.531464 0.713999,0.201275 z m 2.998758,-0.754605 c 0.170969,-0.225224 0.06459,-0.441604 -0.324536,-0.660103 -0.251457,-0.141197 -0.399375,0.119403 -0.241366,0.425236 0.1131,0.218911 0.243738,0.339338 0.368111,0.339338 0.06517,0 0.154173,-0.04701 0.197791,-0.104471 z M 11.93955,53.470576 c 0.498594,-0.146734 1.598841,-0.523342 1.819857,-0.622926 0.11441,-0.05155 0.289026,-0.114014 0.388036,-0.138809 0.09901,-0.02479 0.327769,-0.0847 0.508355,-0.133124 0.180585,-0.04842 0.637273,-0.146612 1.014861,-0.218196 1.719268,-0.325943 2.178431,-0.43075 2.417759,-0.551875 0.233151,-0.117998 0.444827,-0.170336 0.955164,-0.236172 0.229836,-0.02965 0.579068,-0.07629 0.776071,-0.103651 0.342933,-0.04762 0.800651,-0.194602 1.31335,-0.421731 0.525782,-0.232924 1.697549,-0.599497 1.916468,-0.599543 0.127958,-2.6e-5 0.434131,-0.04283 0.680384,-0.09511 0.246254,-0.05228 0.595486,-0.120471 0.776071,-0.15153 0.671608,-0.115511 0.876322,-0.160347 1.313351,-0.287643 0.727648,-0.211946 0.892534,-0.243402 1.58199,-0.301802 2.105112,-0.178313 2.6511,-0.259437 3.632125,-0.539666 0.454483,-0.129822 0.87655,-0.236041 0.937928,-0.236041 0.06138,0 0.344732,0.05436 0.629675,0.1208 0.566522,0.132096 0.60968,0.122984 0.930337,-0.196438 0.338929,-0.337621 1.114804,-0.757609 1.83452,-0.993041 0.210633,-0.0689 0.408376,-0.125276 0.439428,-0.125276 0.07156,0 1.042853,-0.382172 1.475965,-0.580747 0.482652,-0.221287 1.619483,-0.553101 1.898316,-0.554072 0.08869,-2.98e-4 0.429896,-0.05518 0.758233,-0.121941 0.328338,-0.06676 0.973074,-0.147033 1.432746,-0.178389 0.459673,-0.03136 1.023817,-0.07334 1.253653,-0.09329 0.861086,-0.07476 1.987748,0.08637 3.402772,0.486646 0.197002,0.05573 0.447618,0.114636 0.556924,0.130908 l 0.198738,0.02959 -0.03623,-0.290646 c -0.01992,-0.159856 -0.06224,-0.424967 -0.09403,-0.589135 -0.03179,-0.164169 -0.153019,-0.902929 -0.269393,-1.641689 -0.116374,-0.738759 -0.234922,-1.437223 -0.26344,-1.552141 -0.133963,-0.539823 -0.176518,-0.776271 -0.424395,-2.358061 -0.03602,-0.229837 -0.09026,-0.53052 -0.120548,-0.668186 -0.03028,-0.137666 -0.05506,-0.32874 -0.05506,-0.424608 0,-0.09587 -0.05247,-0.386192 -0.116606,-0.645164 -0.06413,-0.258972 -0.239546,-0.981275 -0.389807,-1.605116 -0.15026,-0.623842 -0.315303,-1.308873 -0.366761,-1.522293 -0.132039,-0.547625 -0.237375,-0.852651 -0.416572,-1.206278 -0.08563,-0.168991 -0.195869,-0.443546 -0.244966,-0.610124 -0.0491,-0.166577 -0.157303,-0.45062 -0.240457,-0.631205 -0.242929,-0.527567 -1.089953,-2.287339 -1.16373,-2.417759 -0.03715,-0.06567 -0.160001,-0.28058 -0.273008,-0.477582 -0.113007,-0.197003 -0.259314,-0.452211 -0.325126,-0.567129 -0.325902,-0.569075 -0.63676,-1.188641 -0.703883,-1.402897 -0.114191,-0.364498 -0.411464,-0.793563 -1.147226,-1.655835 -1.282141,-1.502596 -3.794751,-3.739925 -4.719811,-4.202706 -0.235785,-0.117957 -0.555809,-0.305011 -0.711164,-0.415676 -0.155355,-0.110665 -0.625475,-0.365707 -1.04471,-0.56676 l -0.762247,-0.36555 -0.994768,-0.076 c -0.9445,-0.07216 -1.211351,-0.05975 -1.631933,0.07592 -0.361197,0.11651 -1.259509,0.560185 -1.462595,0.722373 -0.194333,0.155199 -0.605778,0.369117 -1.253653,0.651799 -0.147752,0.06447 -0.429823,0.149826 -0.626826,0.189685 -0.868696,0.175761 -1.670316,0.538705 -2.171801,0.983312 -0.11886,0.105379 -0.350429,0.282373 -0.514598,0.393321 -0.164168,0.110948 -0.352216,0.252243 -0.417884,0.31399 -0.06567,0.06175 -0.312926,0.21908 -0.549464,0.349629 -0.236537,0.130549 -0.599201,0.373077 -0.80592,0.538951 -0.206717,0.165874 -0.523603,0.383271 -0.704188,0.483106 -0.230675,0.127525 -0.839757,0.689228 -2.047696,1.888411 -0.945647,0.938792 -2.027443,2.002399 -2.403991,2.36357 -0.376548,0.361171 -0.82193,0.858155 -0.989737,1.104408 -0.167808,0.246253 -0.405991,0.555189 -0.529296,0.686524 -0.123306,0.131335 -0.373896,0.467135 -0.556869,0.746222 -0.182971,0.279087 -0.585191,0.781095 -0.89382,1.115574 -0.473791,0.513475 -0.612807,0.713275 -0.893026,1.283502 -0.477471,0.971624 -0.723883,1.552599 -0.932099,2.197651 -0.100685,0.311921 -0.209312,0.647721 -0.241393,0.746222 -0.03208,0.0985 -0.08495,0.395154 -0.117493,0.659227 -0.03254,0.264074 -0.09157,0.559578 -0.131179,0.656675 -0.03961,0.0971 -0.09121,0.310862 -0.114665,0.47503 -0.07553,0.528585 -0.239289,1.187555 -0.32924,1.324838 -0.05555,0.08478 -0.08751,0.284194 -0.08751,0.546035 0,0.226864 -0.04114,0.529087 -0.09143,0.671607 -0.115216,0.326558 -0.248263,0.938244 -0.360836,1.658955 -0.0481,0.30793 -0.102646,0.58446 -0.121218,0.614511 -0.01857,0.03005 -0.08665,0.26166 -0.151275,0.514687 -0.29238,1.144694 -0.34606,1.319404 -0.521552,1.697466 -0.102541,0.220908 -0.186439,0.457649 -0.186439,0.526092 0,0.06844 -0.05288,0.290661 -0.1175206,0.493817 -0.1260375,0.396142 -0.1978103,0.837761 -0.2977377,1.83197 -0.071551,0.71188 -0.085838,4.134879 -0.017551,4.204764 0.076077,0.07786 1.9871573,-0.0082 2.3132883,-0.104227 z m 50.850716,-1.201062 c 0.08645,-0.06555 0.104071,-0.150363 0.08955,-0.43091 -0.01727,-0.333565 -0.02565,-0.350162 -0.186108,-0.368557 -0.23386,-0.02681 -0.442086,0.128293 -0.511956,0.381337 -0.06087,0.22048 -0.03326,0.381223 0.07865,0.457855 0.104292,0.07141 0.413914,0.0482 0.529865,-0.03972 z m -0.07778,-3.523493 c 0,-0.04771 -0.02469,-0.148445 -0.05487,-0.223866 -0.03018,-0.07542 -0.127831,-0.378905 -0.217002,-0.674409 -0.08918,-0.295504 -0.252384,-0.685321 -0.362687,-0.86626 -0.221091,-0.362669 -0.354545,-0.781161 -0.438122,-1.37385 -0.03021,-0.214213 -0.08596,-0.509717 -0.123915,-0.656675 -0.03794,-0.146958 -0.08966,-0.455243 -0.114924,-0.68508 -0.02526,-0.229836 -0.07868,-0.498476 -0.118685,-0.596977 -0.09838,-0.242167 -0.293552,-0.937341 -0.595007,-2.11927 -0.281087,-1.10205 -0.73408,-2.53484 -0.913918,-2.890645 -0.140947,-0.278862 -0.316541,-0.769855 -0.44557,-1.245892 -0.05154,-0.190152 -0.209655,-0.566248 -0.351366,-0.835769 -0.141711,-0.269521 -0.395528,-0.77046 -0.564037,-1.113197 -0.168508,-0.342737 -0.381273,-0.732265 -0.47281,-0.865617 -0.233908,-0.340762 -0.858455,-1.655977 -1.016367,-2.140335 -0.304621,-0.934361 -0.74112,-1.634677 -1.582697,-2.539269 -0.173296,-0.186271 -0.424983,-0.478042 -0.559306,-0.648379 -0.288557,-0.365925 -2.435655,-2.488143 -2.993407,-2.958721 -0.468982,-0.395681 -1.134899,-0.854389 -1.324355,-0.912263 -0.289101,-0.08831 -0.64214,-0.271071 -0.892894,-0.46222 -0.143114,-0.109098 -0.45126,-0.301454 -0.684769,-0.427459 -0.233509,-0.126005 -0.676765,-0.41575 -0.985013,-0.643879 -0.553119,-0.409352 -1.160502,-0.765053 -1.119045,-0.655346 0.01172,0.03102 0.348598,0.424713 0.748613,0.874871 0.400014,0.450157 0.829838,0.979101 0.955164,1.175431 0.534636,0.837537 0.76983,1.175923 1.051951,1.513496 0.164642,0.197002 0.378759,0.532331 0.475816,0.745176 0.09706,0.212844 0.292955,0.550233 0.43533,0.749753 0.35603,0.498931 0.840431,1.464532 0.987032,1.96754 0.06699,0.229836 0.201662,0.646228 0.29928,0.925315 0.165065,0.471916 0.273086,0.905896 0.408628,1.641688 0.153079,0.830995 0.210473,1.057013 0.394142,1.552142 0.109617,0.295504 0.295334,0.846215 0.412703,1.223804 0.117369,0.377588 0.25637,0.807412 0.308891,0.955164 0.103077,0.289973 0.351047,1.194807 0.433547,1.58199 0.1755,0.823648 0.242635,1.194506 0.302594,1.671537 0.03714,0.295504 0.107685,0.752192 0.156761,1.014862 0.04908,0.26267 0.112993,0.611902 0.142036,0.776071 0.02904,0.164168 0.08142,0.441574 0.116397,0.616456 0.03497,0.174882 0.06325,0.416658 0.06282,0.53728 -4.18e-4,0.120621 0.04179,0.420792 0.0938,0.667045 0.05201,0.246253 0.119806,0.582053 0.15066,0.746222 0.03086,0.164169 0.109535,0.576748 0.174844,0.916841 0.06531,0.340094 0.118745,0.725728 0.118745,0.856964 v 0.23861 l 0.253716,-0.0323 c 0.139543,-0.01776 0.643243,-0.06491 1.119332,-0.10476 l 0.865618,-0.07246 0.835768,0.251881 c 0.747391,0.225247 1.098078,0.375922 2.149119,0.923382 0.164169,0.08551 0.323962,0.155587 0.3551,0.155725 0.118596,5.37e-4 0.871194,0.551305 1.068871,0.782245 0.19597,0.228947 0.902516,0.770146 1.005447,0.770146 0.02642,0 0.04804,-0.03903 0.04804,-0.08674 z m -11.66951,-1.110565 c 0.367075,-0.370735 0.592449,-0.539752 0.983613,-0.737651 0.525921,-0.266077 1.502466,-0.592037 1.970025,-0.657575 0.435878,-0.0611 0.430181,-0.04536 0.294279,-0.812979 -0.06658,-0.376083 -0.146279,-0.83154 -0.177103,-1.012125 -0.03082,-0.180586 -0.08388,-0.449226 -0.117906,-0.596978 -0.03402,-0.147752 -0.08962,-0.47012 -0.123555,-0.716373 -0.07133,-0.517647 -0.221591,-1.447925 -0.30375,-1.880479 -0.03118,-0.164169 -0.0786,-0.432809 -0.10537,-0.596977 -0.02677,-0.164169 -0.05203,-0.252608 -0.05612,-0.196532 -0.0041,0.05608 -0.110744,0.210544 -0.236995,0.343262 -0.20133,0.211642 -0.262316,0.241305 -0.496112,0.241305 -0.313833,0 -0.966544,-0.241168 -1.170936,-0.432646 -0.453781,-0.425107 -0.40065,-1.180927 0.126758,-1.803231 0.190267,-0.224501 0.26539,-0.271429 0.434511,-0.271429 0.257363,0 0.865055,0.302605 1.030772,0.51328 0.105393,0.133985 0.125045,0.141499 0.122861,0.04698 -0.0026,-0.111713 -0.06194,-0.400539 -0.176494,-0.858743 -0.03283,-0.131335 -0.08179,-0.339908 -0.108803,-0.463495 -0.08371,-0.383065 -0.758117,-2.462392 -1.021085,-3.148219 -0.100716,-0.26267 -0.199675,-0.565187 -0.219907,-0.672259 -0.04757,-0.251726 -0.08797,-0.271183 -0.321339,-0.154763 -0.397058,0.198079 -1.227859,-0.02296 -1.47769,-0.39315 -0.08058,-0.119393 -0.100189,-0.261165 -0.08955,-0.647299 0.01534,-0.556988 0.110137,-0.80245 0.35976,-0.931535 0.248131,-0.128313 0.693594,-0.17945 0.847181,-0.09725 0.07223,0.03866 0.147754,0.05387 0.16782,0.03381 0.02007,-0.02007 -0.03594,-0.257303 -0.124453,-0.527192 -0.08852,-0.269889 -0.215078,-0.666029 -0.28125,-0.88031 -0.142135,-0.460272 -0.678616,-1.454586 -0.954123,-1.768371 -0.106845,-0.121689 -0.231668,-0.317231 -0.277386,-0.434537 -0.152182,-0.390483 -0.278082,-0.601319 -0.359075,-0.601319 -0.04408,0 -0.08015,0.03847 -0.08015,0.08548 0,0.120767 -0.27952,0.299737 -0.6074,0.388903 -0.235895,0.06415 -0.337471,0.06124 -0.656675,-0.01882 -0.654044,-0.164044 -0.86534,-0.565776 -0.585788,-1.113744 0.147669,-0.289455 0.30267,-0.391501 0.67431,-0.443936 0.332018,-0.04684 0.385684,-0.128403 0.253143,-0.384708 -0.24978,-0.483022 -1.64021,-2.154738 -1.792177,-2.154738 -0.04019,0 -0.122266,0.109088 -0.18239,0.242418 -0.140472,0.311512 -0.264705,0.373231 -0.735142,0.365214 -1.15412,-0.01967 -1.632245,-0.695017 -1.100711,-1.554752 0.124746,-0.201773 0.218732,-0.282318 0.375141,-0.321493 0.114783,-0.02875 0.240933,-0.09417 0.280334,-0.14538 0.05954,-0.07739 0.02931,-0.132399 -0.179093,-0.325825 -0.137903,-0.127993 -0.396319,-0.301028 -0.57426,-0.384523 -0.361307,-0.169535 -1.145854,-0.442662 -1.271531,-0.442662 -0.04586,0 -0.11209,0.114135 -0.151297,0.260724 -0.09284,0.347102 -0.358347,0.484379 -0.85053,0.439749 -0.6652,-0.06032 -0.984118,-0.371272 -0.986239,-0.961607 l -0.0013,-0.350679 -0.416626,-0.108537 c -0.274476,-0.07151 -0.641328,-0.10971 -1.075214,-0.111978 -0.417636,-0.0022 -0.778016,-0.03834 -0.985013,-0.09882 -0.368649,-0.107717 -1.591509,-0.241424 -1.652274,-0.180659 -0.02185,0.02185 0.04387,0.113041 0.146046,0.202653 0.265892,0.233205 0.296206,0.395283 0.108953,0.582536 -0.08412,0.08412 -0.152951,0.207525 -0.152951,0.274226 0,0.0667 -0.07852,0.199799 -0.174501,0.295775 -0.147041,0.147041 -0.222195,0.174501 -0.477582,0.174501 -0.342222,0 -0.37725,0.0487 -0.138912,0.193145 0.222521,0.134855 1.456945,1.173389 2.287217,1.924259 0.182663,0.165195 0.528846,0.474971 0.769294,0.68839 0.240449,0.21342 0.627,0.616379 0.859002,0.895466 0.232002,0.279087 0.56689,0.668615 0.744195,0.865618 0.521773,0.579739 0.839544,1.063817 1.049636,1.598969 0.108407,0.276137 0.409262,0.87555 0.668567,1.332028 0.259306,0.456479 0.756606,1.405737 1.105111,2.109463 l 0.633646,1.279502 0.07164,-0.294489 c 0.08604,-0.353677 0.151786,-0.449015 0.424146,-0.615047 0.317682,-0.193661 0.781236,-0.173633 1.226746,0.053 0.194804,0.0991 0.387768,0.225121 0.428811,0.28005 0.105034,0.140572 0.09574,0.877908 -0.01373,1.089605 -0.163232,0.315656 -0.362713,0.420254 -0.800239,0.419608 -0.29554,-4.18e-4 -0.475954,-0.03831 -0.716998,-0.150518 -0.177149,-0.08246 -0.335776,-0.136248 -0.352504,-0.119519 -0.01673,0.01673 0.07088,0.265792 0.194684,0.553477 0.269014,0.62511 0.478507,1.326608 0.780185,2.612484 0.123249,0.52534 0.262719,1.102916 0.309933,1.283502 0.205989,0.787875 0.251334,0.995537 0.254196,1.164106 0.0057,0.337025 0.09751,0.367927 0.226525,0.07626 0.251997,-0.56968 0.822532,-0.750637 1.364771,-0.432864 0.375425,0.220014 0.586766,0.609153 0.587956,1.082594 7.11e-4,0.282094 -0.02855,0.409082 -0.123956,0.538001 -0.384226,0.519186 -1.046949,0.59262 -1.650594,0.182898 l -0.163639,-0.111069 0.03436,0.376799 c 0.0189,0.207239 0.04792,0.417094 0.0645,0.466345 0.01658,0.04925 0.05356,0.237298 0.08219,0.417884 0.02863,0.180586 0.09393,0.516385 0.145108,0.746222 0.05118,0.229836 0.12155,0.5925 0.156377,0.805919 0.03483,0.21342 0.08695,0.522356 0.115824,0.686525 0.249028,1.415876 0.413956,2.517801 0.415483,2.775945 8.72e-4,0.147752 0.01798,0.329817 0.03801,0.404589 0.05324,0.198718 0.599058,0.430354 1.931973,0.819897 0.180586,0.05277 0.489522,0.1589 0.686524,0.235833 0.197003,0.07693 0.399113,0.142496 0.449134,0.145698 0.05002,0.0032 0.305228,-0.210597 0.567128,-0.475108 z m 1.729187,-7.515623 c 0.05605,-0.255193 -0.153805,-0.701202 -0.369213,-0.784693 -0.318773,-0.123554 -0.622342,0.208632 -0.529328,0.579229 0.04212,0.1678 0.429388,0.378072 0.700427,0.380301 0.128456,0.0011 0.166942,-0.03291 0.198114,-0.174837 z m -5.175147,-0.313374 c 0.116438,-0.116438 0.0825,-0.324176 -0.0856,-0.523946 -0.123091,-0.146286 -0.196505,-0.182927 -0.338102,-0.168749 -0.152162,0.01524 -0.19535,0.058 -0.272102,0.269397 -0.08497,0.234025 -0.08366,0.259654 0.01902,0.373111 0.125448,0.138617 0.556397,0.170574 0.676784,0.05019 z m 3.532006,-6.729981 c 0.09374,-0.175163 0.07475,-0.329547 -0.06193,-0.503305 -0.09596,-0.121993 -0.176094,-0.157295 -0.357049,-0.157295 -0.19645,0 -0.239,0.02262 -0.269255,0.143173 -0.06711,0.267377 -0.0059,0.418597 0.212753,0.525238 0.275668,0.134475 0.400429,0.132426 0.475481,-0.0078 z m -5.222457,-0.409212 c 0.03844,-0.153143 -0.0474,-0.26476 -0.327333,-0.425645 -0.132913,-0.07639 -0.487194,0.06298 -0.541967,0.2132 -0.07005,0.192126 0.06841,0.333269 0.369218,0.376361 0.355699,0.05096 0.454261,0.01865 0.500082,-0.163916 z m 2.568008,-5.474941 c 0,-0.143789 -0.221983,-0.186726 -0.472653,-0.09142 -0.141456,0.05378 -0.155476,0.07762 -0.0912,0.155064 0.05104,0.0615 0.155964,0.08565 0.319902,0.07363 0.198194,-0.01453 0.243953,-0.04027 0.243953,-0.137275 z M 45.670996,23.63602 c 0.10316,-0.199489 0.06362,-0.298489 -0.168939,-0.422949 -0.112817,-0.06038 -0.161301,-0.04865 -0.515813,0.124733 -0.112528,0.05504 -0.218934,0.226856 -0.170489,0.2753 0.06382,0.06382 0.486191,0.200887 0.627624,0.203678 0.08931,0.0018 0.163832,-0.05741 0.227617,-0.180762 z M 35.251521,21.038865 c 0,-0.288378 0.02335,-0.356281 0.174501,-0.507431 0.09598,-0.09598 0.213574,-0.174501 0.26133,-0.174501 0.04776,0 0.120272,-0.0403 0.161147,-0.08955 0.06557,-0.07901 -0.03719,-0.08863 -0.873233,-0.08174 -0.521152,0.0043 -1.149029,0.0246 -1.395282,0.04514 l -0.447733,0.03734 0.328338,0.175682 c 0.180585,0.09662 0.543249,0.267842 0.805919,0.380482 0.26267,0.11264 0.571606,0.280495 0.686524,0.373012 0.114919,0.09252 0.22909,0.169625 0.253716,0.171353 0.02463,0.0017 0.04477,-0.146676 0.04477,-0.329787 z m 6.954788,0.21688 c 0,-0.04741 -0.08788,-0.137528 -0.195301,-0.200262 -0.152827,-0.08926 -0.213725,-0.09877 -0.280016,-0.04375 -0.106695,0.08855 -0.06367,0.206582 0.105689,0.28991 0.174006,0.08562 0.369628,0.06133 0.369628,-0.04589 z M 36.27086,20.997191 c -0.0025,-0.0238 -0.01791,-0.04328 -0.03433,-0.04328 -0.01642,0 -0.09029,0.0019 -0.164169,0.0042 -0.128117,0.004 -0.128807,0.0066 -0.01492,0.05527 0.132369,0.05662 0.220261,0.04996 0.213419,-0.01618 z"
       id="path1196" /><path
       style="fill:#ffffff;fill-rule:evenodd;stroke-width:0.0596978"
       d="M 43.967393,60.385804 C 43.622638,60.341208 43.23311,60.2783 43.101775,60.24601 42.533963,60.106406 42.012289,59.950444 41.818274,59.862287 41.561145,59.745453 41.35031,59.684133 40.624319,59.515031 c -0.311921,-0.07265 -0.717684,-0.18112 -0.901695,-0.241035 -0.184012,-0.05991 -0.628201,-0.16181 -0.987088,-0.226433 -0.675698,-0.12167 -1.153888,-0.280635 -1.513989,-0.503295 -0.114918,-0.07106 -0.59847,-0.320577 -1.07456,-0.554488 -1.023507,-0.502868 -1.468447,-0.860851 -1.415283,-1.13869 0.04595,-0.24016 0.263589,-0.850054 0.385871,-1.081351 0.140007,-0.264824 0.609946,-0.57341 1.118959,-0.734767 0.229836,-0.07286 0.619364,-0.235212 0.865617,-0.360788 0.246254,-0.125576 0.491165,-0.228661 0.544248,-0.229078 0.108198,-8.5e-4 1.179767,-0.51666 1.528166,-0.735597 0.28261,-0.177594 0.87439,-0.368584 1.419905,-0.458257 0.229836,-0.03778 0.552204,-0.09176 0.716373,-0.119957 1.618829,-0.278032 4.965568,-0.312535 6.536903,-0.06739 0.373186,0.05822 1.252815,0.360423 1.396717,0.479851 0.06555,0.0544 0.09573,0.178061 0.09573,0.392325 0,0.172084 0.02889,0.457583 0.06419,0.634441 0.178888,0.896121 0.218434,1.396617 0.328587,4.158487 l 0.0316,0.792339 -0.177748,0.177749 c -0.161002,0.161002 -0.214574,0.177749 -0.568607,0.177749 -0.28424,0 -0.476834,0.03889 -0.706041,0.142559 -0.95275,0.430936 -0.760278,0.395574 -2.300145,0.422601 -0.982461,0.01724 -1.610281,-1.2e-5 -2.044635,-0.0562 z m 3.522167,-0.757849 c 0.636999,-0.30285 1.138758,-0.465415 1.440708,-0.466777 0.1996,-9.01e-4 0.22213,-0.09098 0.164428,-0.657383 -0.02509,-0.246254 -0.04727,-0.801262 -0.0493,-1.233353 -0.0023,-0.488531 -0.05118,-1.086772 -0.129276,-1.58199 -0.06907,-0.438004 -0.139387,-0.964689 -0.156258,-1.170411 -0.02653,-0.32354 -0.05314,-0.390035 -0.197044,-0.492507 -0.0915,-0.06516 -0.205955,-0.118466 -0.254335,-0.118466 -0.04838,0 -0.191986,-0.04532 -0.319122,-0.100711 -0.632312,-0.275487 -4.857607,-0.332011 -5.872595,-0.07856 -0.114918,0.0287 -0.491014,0.08447 -0.835768,0.123947 -0.941949,0.107854 -1.200227,0.190153 -2.208817,0.703824 -0.508923,0.259193 -1.032771,0.503715 -1.164106,0.543382 -0.131335,0.03967 -0.426839,0.162315 -0.656675,0.272551 -0.229837,0.110235 -0.552204,0.244682 -0.716373,0.298769 -0.532176,0.175333 -0.802832,0.368815 -0.929589,0.664528 -0.216803,0.505781 -0.194357,0.530839 0.973716,1.087024 0.414126,0.197189 0.864905,0.429195 1.001731,0.515569 0.299998,0.189381 0.895848,0.387311 1.165961,0.387311 0.108015,0 0.527623,0.09714 0.932463,0.215867 0.710408,0.20834 0.940929,0.268631 1.452444,0.379873 0.398969,0.08676 0.64231,0.15967 0.961886,0.28818 0.450309,0.181082 1.416962,0.434132 1.867624,0.488906 0.216793,0.02635 1.052337,0.04383 1.856764,0.03884 1.227586,-0.0076 1.496167,-0.02503 1.671537,-0.108409 z"
       id="path1198" /><path
       style="fill:#ffffff;fill-rule:evenodd;stroke-width:0.0596978"
       d="m 58.813427,60.196425 c -0.02123,-0.02123 -0.489114,-0.06191 -1.039736,-0.0904 -1.728398,-0.08942 -1.867028,-0.125791 -2.063867,-0.541418 -0.05084,-0.107356 -0.237765,-0.719041 -0.415381,-1.359299 -0.325374,-1.172885 -0.38015,-1.39144 -0.55359,-2.208817 -0.05225,-0.246253 -0.118013,-0.528325 -0.146132,-0.626826 -0.02812,-0.0985 -0.08484,-0.505044 -0.126037,-0.903427 -0.0684,-0.661385 -0.06546,-0.754769 0.03378,-1.074559 0.127132,-0.409642 0.421848,-0.729955 0.780741,-0.84855 0.129635,-0.04284 0.715153,-0.100938 1.301152,-0.129113 0.963172,-0.04631 1.109308,-0.04008 1.522293,0.0649 0.59414,0.151029 1.991855,0.591731 2.06868,0.65226 0.03283,0.02587 0.194017,0.120272 0.358186,0.209785 1.225183,0.668032 1.482406,0.909235 1.972466,1.84961 l 0.217773,0.417885 -0.0307,0.716373 c -0.01689,0.394005 -0.05908,0.863599 -0.09376,1.043542 -0.08492,0.440615 -0.38213,1.027657 -0.625146,1.234789 -0.656189,0.559297 -1.927409,1.38387 -2.372333,1.538808 -0.267295,0.09308 -0.718595,0.124255 -0.788391,0.05446 z m 1.097563,-0.978841 c 0.275515,-0.165589 0.555159,-0.348945 0.62143,-0.407456 0.06627,-0.05851 0.298707,-0.231097 0.516524,-0.383524 0.78942,-0.552431 1.006867,-1.02725 1.006867,-2.198611 0,-0.406975 -0.02286,-0.504883 -0.189065,-0.80988 -0.304625,-0.558995 -0.465426,-0.732861 -0.991898,-1.072493 -0.868962,-0.560575 -1.573599,-0.85597 -2.759089,-1.156655 -0.437202,-0.110891 -0.635495,-0.125747 -1.432746,-0.10734 -0.774354,0.01788 -0.964273,0.04069 -1.164106,0.139838 -0.371509,0.184324 -0.462816,0.418877 -0.417947,1.07364 0.02025,0.295504 0.0741,0.685032 0.119676,0.865618 0.04557,0.180585 0.12247,0.529817 0.170887,0.77607 0.04842,0.246254 0.184701,0.810397 0.302854,1.253653 0.118154,0.443256 0.265671,1.000346 0.327816,1.237978 0.06215,0.237632 0.162376,0.533136 0.222737,0.656675 0.131832,0.269822 0.266062,0.300729 1.363398,0.313935 0.394005,0.0047 0.770101,0.03171 0.835769,0.05993 0.06567,0.02822 0.309871,0.05319 0.542676,0.0555 0.405577,0.004 0.444231,-0.0084 0.924217,-0.296876 z"
       id="path1200" /><path
       style="fill:#ffffff;fill-rule:evenodd;stroke-width:0.0298489"
       d="m 51.519158,51.131697 c -0.485607,-0.103968 -0.67352,-0.205668 -0.780763,-0.422556 -0.165482,-0.334675 -0.174447,-0.376881 -0.173458,-0.816609 l 9.43e-4,-0.419192 0.11373,-0.208357 c 0.18654,-0.341748 0.276753,-0.417772 0.570908,-0.48111 0.501515,-0.107988 1.215381,0.05014 1.4766,0.327083 0.167355,0.177428 0.216781,0.342858 0.2201,0.736665 0.0025,0.294864 -0.0073,0.370617 -0.06965,0.53728 -0.08597,0.229923 -0.300789,0.461652 -0.591917,0.638503 -0.166183,0.100951 -0.212392,0.114658 -0.416995,0.123694 -0.126556,0.0056 -0.28383,-0.0013 -0.349497,-0.0154 z m 0.438328,-0.713638 c 0.03801,-0.0146 0.124797,-0.083 0.192867,-0.15201 0.103641,-0.105071 0.126991,-0.151302 0.143614,-0.284344 0.01103,-0.08827 0.0057,-0.211296 -0.01191,-0.276829 -0.02937,-0.109078 -0.0458,-0.123214 -0.218236,-0.187831 -0.119613,-0.04482 -0.272093,-0.07395 -0.425265,-0.08124 -0.219521,-0.01044 -0.244029,-0.0057 -0.30371,0.05844 -0.07564,0.08133 -0.188796,0.354122 -0.188796,0.45515 0,0.09863 0.103682,0.32089 0.185007,0.396601 0.03779,0.03518 0.109004,0.06974 0.158255,0.07681 0.168386,0.02415 0.399019,0.02181 0.468177,-0.0048 z"
       id="path1202" /><path
       style="fill:#ffffff;fill-rule:evenodd;stroke-width:0.0298489"
       d="m 55.614656,50.086091 c -0.170123,-0.05111 -0.517194,-0.246027 -0.626219,-0.351689 -0.128733,-0.124763 -0.176138,-0.264891 -0.174932,-0.517098 0.0013,-0.271098 0.02959,-0.379144 0.177526,-0.677872 0.103544,-0.209093 0.184298,-0.323729 0.324367,-0.460467 0.251751,-0.245765 0.317585,-0.282592 0.577384,-0.322981 0.63067,-0.09804 1.078568,0.123085 1.351031,0.667014 l 0.1108,0.221194 v 0.394685 c 0,0.35228 -0.0076,0.411316 -0.07097,0.549479 -0.08691,0.18957 -0.227239,0.34216 -0.411926,0.447934 -0.137274,0.07862 -0.148381,0.07993 -0.656676,0.0774 -0.284372,-0.0014 -0.554544,-0.01383 -0.600384,-0.0276 z m 0.920477,-0.660447 c 0.13251,-0.07018 0.222502,-0.233959 0.222502,-0.404937 0,-0.224264 -0.325851,-0.605832 -0.517369,-0.605832 -0.03684,0 -0.119678,0.02686 -0.184079,0.0597 -0.0644,0.03283 -0.131984,0.0597 -0.150183,0.0597 -0.0182,0 -0.08843,0.04737 -0.156076,0.105273 -0.135714,0.116166 -0.311579,0.447634 -0.287121,0.541162 0.01733,0.06627 0.245065,0.218916 0.32787,0.219759 0.03111,3.16e-4 0.123728,0.01926 0.205812,0.0421 0.223865,0.06229 0.39949,0.05677 0.538644,-0.01692 z"
       id="path1204" /><path
       style="fill:#ffffff;fill-rule:evenodd;stroke-width:0.0298489"
       d="m 59.160536,50.739302 c -0.06515,-0.03492 -0.165674,-0.09872 -0.223398,-0.141782 -0.05772,-0.04307 -0.118396,-0.0877 -0.134828,-0.09919 -0.112507,-0.07866 -0.291635,-0.253721 -0.340465,-0.33273 -0.032,-0.05177 -0.07377,-0.183678 -0.09283,-0.293121 -0.06376,-0.366158 0.04592,-0.658915 0.368277,-0.982922 0.196448,-0.197457 0.426849,-0.277551 0.79629,-0.276813 0.34492,6.89e-4 0.561611,0.06634 0.858345,0.260039 0.361181,0.235773 0.501326,0.49791 0.497236,0.930063 -0.0022,0.236494 -0.01369,0.291872 -0.09571,0.462789 -0.102035,0.212639 -0.254493,0.377585 -0.43859,0.474516 -0.106468,0.05606 -0.169175,0.06263 -0.59742,0.06263 -0.430949,0 -0.490229,-0.0063 -0.596911,-0.06348 z m 0.844471,-0.632636 c 0.143641,-0.04816 0.222639,-0.162841 0.220469,-0.320055 -0.0014,-0.10417 -0.02101,-0.146512 -0.109771,-0.237406 -0.166627,-0.170642 -0.329101,-0.238864 -0.568865,-0.238864 -0.171926,0 -0.221972,0.01241 -0.317736,0.07877 -0.10891,0.07547 -0.232803,0.236744 -0.232803,0.303034 0,0.05361 0.146832,0.209314 0.285865,0.303147 0.251935,0.170028 0.454707,0.201271 0.722841,0.111372 z"
       id="path1206" /><path
       style="fill:#ffffff;fill-rule:evenodd;stroke-width:0.0298489"
       d="m 50.621311,46.456666 c -0.338539,-0.04843 -0.567252,-0.205231 -0.736449,-0.504897 -0.05984,-0.105987 -0.06676,-0.157511 -0.06403,-0.477008 0.0044,-0.515141 0.07438,-0.729209 0.321298,-0.982806 0.216015,-0.221861 0.366614,-0.321195 0.612592,-0.404058 0.224644,-0.07568 0.240363,-0.07552 0.459829,0.0045 0.250479,0.09133 0.445272,0.292244 0.625448,0.645104 0.17829,0.349168 0.224264,0.588328 0.17577,0.914379 -0.03751,0.252215 -0.118195,0.406707 -0.283608,0.543054 -0.288145,0.237514 -0.662906,0.325814 -1.110849,0.261734 z m 0.522784,-0.712276 c 0.07992,-0.0405 0.173496,-0.109469 0.207949,-0.15327 0.06478,-0.08235 0.0839,-0.247219 0.03444,-0.296945 -0.01551,-0.0156 -0.07077,-0.108948 -0.122786,-0.20745 -0.129139,-0.244531 -0.168838,-0.283564 -0.288405,-0.283564 -0.130123,0 -0.199499,0.03815 -0.353574,0.194439 -0.113408,0.115037 -0.126507,0.144329 -0.14602,0.326543 -0.02552,0.238268 0.006,0.332938 0.141366,0.424865 0.135142,0.09176 0.340383,0.08996 0.527033,-0.0046 z"
       id="path1208" /><path
       style="fill:#ffffff;fill-rule:evenodd;stroke-width:0.0298489"
       d="m 46.698565,50.278553 c -0.05746,-0.02174 -0.158199,-0.04074 -0.223867,-0.04223 -0.06567,-0.0015 -0.173123,-0.02865 -0.238791,-0.06037 -0.06567,-0.03172 -0.137513,-0.05813 -0.159658,-0.05868 -0.02214,-5.57e-4 -0.0893,-0.02273 -0.149244,-0.04926 -0.606761,-0.268646 -0.729924,-0.364054 -0.920281,-0.712895 -0.1134,-0.207813 -0.114016,-0.210796 -0.114016,-0.552204 0,-0.334046 0.0027,-0.348307 0.101892,-0.531177 0.184922,-0.341042 0.385266,-0.450467 0.887833,-0.484919 0.199595,-0.01368 0.409776,-0.03367 0.467069,-0.04442 0.200452,-0.0376 0.604193,0.09313 0.76234,0.24685 0.02209,0.02147 0.165383,0.09996 0.318425,0.174408 0.306142,0.148929 0.384746,0.210336 0.508376,0.397153 0.07522,0.11366 0.08292,0.149962 0.08174,0.385274 -0.0028,0.559806 -0.273683,1.072713 -0.689211,1.304956 -0.106975,0.05979 -0.17103,0.07348 -0.330421,0.07061 -0.108746,-0.002 -0.244732,-0.02135 -0.302191,-0.04309 z m 0.453789,-0.751807 c 0.118174,-0.126105 0.202936,-0.319332 0.202429,-0.461469 -5.66e-4,-0.158516 -0.02115,-0.192197 -0.134162,-0.219492 -0.04909,-0.01185 -0.180746,-0.08344 -0.292578,-0.159073 -0.381957,-0.258327 -0.429048,-0.276989 -0.662287,-0.26246 -0.182924,0.0114 -0.308443,0.03219 -0.574048,0.0951 -0.0798,0.0189 -0.157249,0.156866 -0.157249,0.280129 0,0.264186 0.205642,0.4628 0.656675,0.634232 0.360113,0.136875 0.479036,0.167057 0.673477,0.170922 0.194075,0.0039 0.21693,-0.0023 0.287743,-0.07789 z"
       id="path1210" /><path
       style="fill:#ffffff;fill-rule:evenodd;stroke-width:0.0298489"
       d="m 40.206434,50.70843 c -0.437782,-0.08208 -0.89704,-0.363051 -1.036476,-0.634116 -0.122757,-0.238644 -0.06751,-0.753383 0.109229,-1.017688 0.07479,-0.111852 0.301147,-0.330617 0.419816,-0.405745 0.07676,-0.04859 0.148272,-0.05671 0.500636,-0.0568 l 0.411089,-1.12e-4 0.126191,0.114839 c 0.0694,0.06316 0.188019,0.150589 0.263588,0.194284 0.179762,0.103942 0.214117,0.144819 0.355562,0.423065 0.112167,0.220652 0.118943,0.249064 0.118943,0.498756 0,0.29933 -0.05487,0.461025 -0.208635,0.614787 -0.117545,0.117545 -0.358218,0.229822 -0.58038,0.270755 -0.20247,0.03731 -0.271337,0.03701 -0.479563,-0.002 z m 0.499969,-0.716407 c 0.100649,-0.05042 0.111933,-0.06781 0.111933,-0.172567 0,-0.16835 -0.104512,-0.279263 -0.328632,-0.348759 -0.113308,-0.03514 -0.214819,-0.09133 -0.273403,-0.151337 l -0.09318,-0.09545 -0.128645,0.08851 c -0.07075,0.04868 -0.149391,0.118129 -0.174747,0.154329 -0.04773,0.06815 -0.06169,0.252852 -0.02326,0.30769 0.0405,0.05778 0.200106,0.15568 0.305494,0.187383 0.05746,0.01728 0.158199,0.05148 0.223867,0.07599 0.130827,0.04883 0.210931,0.03919 0.380573,-0.04578 z"
       id="path1212" /><path
       style="fill:#ffffff;fill-rule:evenodd;stroke-width:0.0298489"
       d="m 34.266508,53.139273 c -0.642198,-0.155984 -0.941541,-0.31511 -1.099356,-0.584401 -0.07456,-0.127231 -0.07967,-0.159343 -0.07967,-0.50048 0,-0.421276 0.04106,-0.541136 0.260734,-0.761191 0.118961,-0.119164 0.368351,-0.281474 0.432487,-0.281474 0.01597,0 0.14365,-0.05522 0.283745,-0.122709 0.253381,-0.122065 0.256224,-0.122645 0.541804,-0.110501 0.245881,0.01046 0.304514,0.02334 0.408508,0.0898 0.06678,0.04268 0.143494,0.111282 0.170472,0.152455 0.03443,0.05254 0.08722,0.08095 0.177067,0.09527 0.170338,0.02716 0.331267,0.135207 0.391992,0.263175 0.07833,0.165063 0.0695,0.785322 -0.01473,1.034737 -0.115419,0.341776 -0.318859,0.57576 -0.614142,0.706348 -0.131017,0.05794 -0.205186,0.06969 -0.419484,0.06643 -0.14318,-0.0022 -0.340918,-0.02354 -0.43942,-0.04746 z m 0.62847,-0.682656 c 0.110695,-0.05253 0.193877,-0.173451 0.24448,-0.355406 0.01826,-0.06567 0.04152,-0.14626 0.05168,-0.179093 0.01031,-0.03333 -8.55e-4,-0.08606 -0.02529,-0.119396 -0.03701,-0.0505 -0.08899,-0.0621 -0.337229,-0.07526 -0.24733,-0.01312 -0.308409,-0.02667 -0.38848,-0.08622 -0.07903,-0.05877 -0.11606,-0.06729 -0.220185,-0.05064 -0.261925,0.04188 -0.535499,0.282386 -0.535499,0.470765 0,0.118402 0.214116,0.284763 0.41571,0.322995 0.08582,0.01628 0.171331,0.03904 0.190025,0.0506 0.116054,0.07173 0.472386,0.08449 0.604788,0.02166 z"
       id="path1214" /><path
       style="fill:#ffffff;fill-rule:evenodd;stroke-width:0.0298489"
       d="m 29.953346,56.935232 c -0.07388,-0.02116 -0.189391,-0.03955 -0.256699,-0.04087 -0.201101,-0.0039 -0.355808,-0.139384 -0.664746,-0.581942 l -0.123266,-0.176579 v -0.31415 -0.31415 l 0.149826,-0.270417 c 0.158924,-0.286841 0.515532,-0.689725 0.69066,-0.780287 0.05195,-0.02687 0.129229,-0.08189 0.171728,-0.122283 0.199012,-0.189139 0.473723,-0.262242 0.669737,-0.178224 0.05173,0.02217 0.174649,0.07138 0.273151,0.109353 0.250157,0.09643 0.421447,0.225899 0.492179,0.372011 0.03301,0.0682 0.06006,0.136544 0.0601,0.151881 3.9e-5,0.01534 0.05372,0.106862 0.119286,0.203387 0.161613,0.237913 0.197049,0.37596 0.150331,0.585647 -0.02012,0.09029 -0.04811,0.229163 -0.06221,0.308601 -0.0141,0.07944 -0.05383,0.200326 -0.0883,0.26864 -0.262119,0.519492 -0.373864,0.657682 -0.61979,0.766467 -0.110626,0.04894 -0.19391,0.05851 -0.480737,0.05529 -0.190812,-0.0021 -0.407374,-0.02121 -0.48125,-0.04237 z m 0.779702,-0.729801 c 0.03295,-0.04104 0.07965,-0.114918 0.103766,-0.164169 0.02412,-0.04925 0.07777,-0.14999 0.119222,-0.223866 0.103868,-0.185108 0.100081,-0.313391 -0.01425,-0.482798 -0.05114,-0.07577 -0.09298,-0.156331 -0.09298,-0.179027 0,-0.111794 -0.240399,-0.293339 -0.388435,-0.293339 -0.14101,0 -0.673756,0.424216 -0.792352,0.630937 -0.146809,0.255896 -0.151332,0.320317 -0.0344,0.490027 0.167912,0.243708 0.347795,0.31244 0.791552,0.302443 0.225219,-0.0051 0.253456,-0.01243 0.307875,-0.08021 z"
       id="path1216" /><path
       style="fill:#ffffff;fill-rule:evenodd;stroke-width:0.0298489"
       d="m 23.66228,54.491637 c -0.380147,-0.153255 -0.516306,-0.26409 -0.681464,-0.55472 -0.149807,-0.263616 -0.176276,-0.38463 -0.176276,-0.80592 0,-0.491542 0.01948,-0.537269 0.371849,-0.873 0.286122,-0.272611 0.356516,-0.313266 0.588207,-0.339715 0.09581,-0.01094 0.200696,-0.03805 0.233079,-0.06026 0.152808,-0.104787 0.507194,0.0076 0.737868,0.233973 0.200396,0.196672 0.289657,0.329317 0.36922,0.548671 0.104061,0.286895 0.105106,0.844807 0.0022,1.19861 -0.09152,0.314782 -0.218044,0.536489 -0.375126,0.657308 -0.126017,0.09692 -0.126426,0.09701 -0.474529,0.09575 -0.324054,-0.0012 -0.365644,-0.0082 -0.595073,-0.100699 z m 0.668793,-0.577771 c 0.1039,-0.0838 0.161138,-0.232631 0.191192,-0.497121 0.06064,-0.5337 -0.102313,-0.823028 -0.463548,-0.823028 -0.182958,0 -0.303469,0.05571 -0.455414,0.210546 -0.144133,0.146871 -0.174139,0.250662 -0.144824,0.500947 0.03508,0.299525 0.186895,0.457114 0.568509,0.590136 0.229387,0.07996 0.228018,0.07988 0.304085,0.01852 z"
       id="path1218" /><path
       style="fill:#ffffff;fill-rule:evenodd;stroke-width:0.0298489"
       d="m 18.879413,55.228468 c -0.05746,-0.02631 -0.164915,-0.07393 -0.238791,-0.105834 -0.461038,-0.199093 -0.591362,-0.299551 -0.705681,-0.543966 -0.09723,-0.207874 -0.100735,-0.679728 -0.0073,-0.985013 0.140635,-0.459602 0.208215,-0.567376 0.429574,-0.685074 0.202025,-0.107417 0.509824,-0.107172 0.765903,6.1e-4 0.452102,0.190287 0.711388,0.497343 0.833878,0.987511 0.149331,0.597572 4.93e-4,1.120657 -0.375673,1.320286 -0.149965,0.07959 -0.539228,0.08595 -0.701891,0.01148 z m 0.471397,-0.927886 c 0.0073,-0.175959 -0.0035,-0.235372 -0.06404,-0.354676 -0.08762,-0.17253 -0.18833,-0.285297 -0.311814,-0.349153 -0.11374,-0.05882 -0.166936,-0.03942 -0.314299,0.114587 -0.09952,0.104007 -0.118092,0.144963 -0.131557,0.290074 -0.02439,0.262921 -0.0027,0.307657 0.193631,0.399103 0.09439,0.04397 0.200099,0.0933 0.234918,0.109638 0.12725,0.0597 0.263771,0.07587 0.324728,0.03844 0.04903,-0.0301 0.06126,-0.07443 0.06844,-0.248016 z"
       id="path1220" /><path
       style="fill:#ffffff;fill-rule:evenodd;stroke-width:0.0298489"
       d="m 19.655484,61.140168 c -0.05746,-0.0079 -0.124619,-0.0314 -0.149244,-0.05224 -0.02463,-0.02085 -0.06492,-0.04688 -0.08955,-0.05785 -0.02463,-0.01097 -0.105217,-0.05952 -0.179093,-0.107893 -0.07388,-0.04837 -0.177895,-0.107879 -0.231154,-0.13224 -0.148948,-0.06813 -0.382485,-0.317348 -0.405578,-0.432811 -0.0416,-0.207996 0.0034,-0.8019 0.06676,-0.880922 0.01419,-0.0177 0.03585,-0.07919 0.04815,-0.136649 0.03954,-0.184824 0.174733,-0.400741 0.297956,-0.475874 0.117852,-0.07186 0.735156,-0.192148 0.883768,-0.172215 0.09245,0.0124 0.168072,0.06277 0.371479,0.24744 0.313364,0.284493 0.344919,0.328096 0.442778,0.611835 0.106031,0.307436 0.111653,0.757943 0.01238,0.99216 -0.107095,0.252673 -0.235092,0.412803 -0.419197,0.524432 -0.115375,0.06996 -0.420826,0.104208 -0.649458,0.07283 z m 0.323561,-0.708651 c 0.04899,-0.02533 0.110251,-0.103037 0.152717,-0.193703 l 0.07091,-0.1514 -0.05645,-0.166062 c -0.03527,-0.10377 -0.110806,-0.227053 -0.20136,-0.328653 L 19.799953,59.42911 h -0.189597 c -0.172869,0 -0.194717,0.0072 -0.247617,0.08208 -0.05181,0.07329 -0.09735,0.217807 -0.145458,0.461563 -0.01073,0.05438 0.0015,0.09851 0.03714,0.13432 0.05676,0.05697 0.578959,0.366232 0.618945,0.366552 0.01313,1.05e-4 0.06068,-0.01885 0.105674,-0.04211 z"
       id="path1224" /><path
       style="fill:#ffffff;fill-rule:evenodd;stroke-width:0.0298489"
       d="m 14.73863,61.728341 c -0.14082,-0.03346 -0.227015,-0.09886 -0.392761,-0.298026 -0.08141,-0.09783 -0.177605,-0.208668 -0.213756,-0.246308 -0.03615,-0.03764 -0.09893,-0.142218 -0.139502,-0.232395 -0.06357,-0.141283 -0.07179,-0.194951 -0.05945,-0.388036 0.04321,-0.675753 0.212813,-1.052364 0.549812,-1.220873 0.145986,-0.073 0.411528,-0.08469 0.501979,-0.0221 0.03238,0.02241 0.139315,0.05064 0.237628,0.06274 0.230459,0.02836 0.323069,0.09726 0.435586,0.324098 0.05029,0.10138 0.109869,0.204717 0.132404,0.229637 0.09048,0.100066 0.162348,0.31538 0.162994,0.488359 0.0011,0.299727 -0.238009,0.854395 -0.452237,1.048981 -0.28035,0.254644 -0.47996,0.3211 -0.762701,0.253924 z m 0.320449,-0.78416 c 0.107691,-0.115593 0.21483,-0.331822 0.218575,-0.44113 0.0052,-0.152063 -0.197264,-0.450223 -0.336238,-0.495142 -0.05633,-0.01821 -0.128466,-0.02629 -0.160304,-0.01796 -0.08694,0.02274 -0.199937,0.303449 -0.199937,0.496709 0,0.149673 0.01027,0.172523 0.153942,0.342411 0.16653,0.19692 0.22755,0.218602 0.323962,0.115116 z"
       id="path1226" /><path
       style="fill:#ffffff;fill-rule:evenodd;stroke-width:0.0298489"
       d="m 11.462135,62.429669 c -0.127701,-0.03426 -0.182119,-0.0757 -0.379517,-0.289012 -0.297673,-0.321668 -0.360516,-0.44856 -0.375692,-0.758599 -0.01667,-0.340545 0.06628,-0.610699 0.250375,-0.81546 0.175557,-0.195262 0.301585,-0.237588 0.542057,-0.182047 0.09435,0.02179 0.218564,0.06229 0.276023,0.08999 0.05746,0.0277 0.148949,0.05885 0.203311,0.06922 0.05436,0.01037 0.169925,0.06604 0.256805,0.123704 0.08688,0.05767 0.178065,0.104851 0.202633,0.104851 0.08542,0 0.277905,0.169896 0.344651,0.304205 0.07317,0.147243 0.08639,0.334373 0.03546,0.501912 -0.01744,0.05735 -0.04842,0.164718 -0.06884,0.238594 -0.09602,0.34723 -0.326109,0.545196 -0.712761,0.613242 -0.29514,0.05194 -0.379015,0.05186 -0.5745,-5.93e-4 z m 0.592232,-0.748406 c 0.07419,-0.07205 0.109049,-0.132557 0.109049,-0.189272 0,-0.07603 -0.01903,-0.09059 -0.216404,-0.165517 -0.119022,-0.04518 -0.270658,-0.109294 -0.336968,-0.142466 -0.178882,-0.08949 -0.235719,-0.06715 -0.246451,0.09687 -0.0083,0.126902 0.0012,0.145951 0.159211,0.320607 0.155981,0.172365 0.177169,0.18569 0.295276,0.18569 0.105353,0 0.145992,-0.01821 0.236287,-0.105908 z"
       id="path1228" /><path
       style="fill:#ffffff;fill-rule:evenodd;stroke-width:0.0298489"
       d="m 42.907758,28.040175 c -0.354759,-0.06457 -0.608407,-0.219143 -0.722028,-0.440008 -0.08975,-0.174468 -0.108454,-0.525908 -0.03937,-0.739959 0.120026,-0.371918 0.345913,-0.636169 0.572909,-0.670209 0.07131,-0.01069 0.261358,-0.01415 0.422319,-0.0077 0.277696,0.01115 0.298618,0.01667 0.409326,0.107926 0.06417,0.05289 0.132729,0.09617 0.152354,0.09617 0.07929,0 0.21758,0.154371 0.235589,0.262977 0.01004,0.06057 0.03737,0.169613 0.06071,0.242309 0.06473,0.201555 0.05647,0.663719 -0.01434,0.801792 -0.125413,0.24455 -0.311384,0.335022 -0.719278,0.349918 -0.15596,0.0057 -0.317144,0.0042 -0.358186,-0.0032 z m 0.472736,-0.769704 c 0.01955,-0.102244 -0.02855,-0.375913 -0.07406,-0.421426 -0.0608,-0.0608 -0.306265,-0.05837 -0.395189,0.0039 -0.0747,0.05232 -0.152733,0.209961 -0.152733,0.308553 0,0.03336 0.0274,0.08806 0.06089,0.121543 0.05308,0.05308 0.09227,0.05978 0.305621,0.05223 0.212078,-0.0075 0.246168,-0.01615 0.255474,-0.06482 z"
       id="path1230" /><path
       style="fill:#ffffff;fill-rule:evenodd;stroke-width:0.0298489"
       d="m 39.592559,23.942342 c -0.304604,-0.109498 -0.414268,-0.178029 -0.515599,-0.322206 -0.0701,-0.09974 -0.08589,-0.153773 -0.08725,-0.298548 -0.002,-0.215132 0.09079,-0.392967 0.326087,-0.624803 0.192985,-0.190144 0.363081,-0.250887 0.786171,-0.280753 0.184986,-0.01306 0.365513,-0.04386 0.440556,-0.07516 0.105877,-0.04417 0.145816,-0.04735 0.238791,-0.01901 0.169798,0.05175 0.294468,0.139403 0.39431,0.277231 0.08668,0.119654 0.09045,0.137605 0.09045,0.430395 v 0.305533 l -0.117327,0.175033 c -0.277978,0.414698 -0.480425,0.519594 -0.995648,0.515885 -0.28515,-0.0021 -0.368126,-0.01443 -0.560535,-0.08359 z m 0.899886,-0.707337 c 0.04791,-0.0459 0.0871,-0.107798 0.0871,-0.13756 0,-0.06112 -0.0321,-0.06978 -0.08024,-0.02163 -0.01787,0.01787 -0.171662,0.03978 -0.34177,0.0487 -0.321077,0.01684 -0.383909,0.03806 -0.383909,0.129698 0,0.06337 0.136529,0.08571 0.442717,0.07243 0.160153,-0.0069 0.202296,-0.02093 0.276102,-0.09164 z"
       id="path1232" /></g></svg>
