<?xml version="1.0" encoding="UTF-8" standalone="no"?>
<!-- Created with Inkscape (http://www.inkscape.org/) -->

<svg
   width="75"
   height="100"
   viewBox="0 0 75 100"
   version="1.1"
   id="svg5"
   inkscape:version="1.2.1 (9c6d41e410, 2022-07-14)"
   sodipodi:docname="armor_amulet.svg"
   xml:space="preserve"
   xmlns:inkscape="http://www.inkscape.org/namespaces/inkscape"
   xmlns:sodipodi="http://sodipodi.sourceforge.net/DTD/sodipodi-0.dtd"
   xmlns="http://www.w3.org/2000/svg"
   xmlns:svg="http://www.w3.org/2000/svg"><sodipodi:namedview
     id="namedview7"
     pagecolor="#ffffff"
     bordercolor="#999999"
     borderopacity="1"
     inkscape:pageshadow="0"
     inkscape:pageopacity="0"
     inkscape:pagecheckerboard="0"
     inkscape:document-units="px"
     showgrid="false"
     height="70mm"
     units="px"
     inkscape:zoom="8.3755251"
     inkscape:cx="-13.551389"
     inkscape:cy="76.174328"
     inkscape:window-width="3840"
     inkscape:window-height="2066"
     inkscape:window-x="-11"
     inkscape:window-y="-11"
     inkscape:window-maximized="1"
     inkscape:current-layer="layer1"
     inkscape:showpageshadow="2"
     inkscape:deskcolor="#d1d1d1" /><defs
     id="defs2" /><g
     inkscape:label="Layer 1"
     inkscape:groupmode="layer"
     id="layer1"><path
       style="fill:#ffffff;fill-rule:evenodd;stroke-width:0.119396"
       d="m 43.221171,95.799002 c -0.394005,-0.238236 -1.038741,-0.55545 -1.432746,-0.704917 -0.394005,-0.149469 -0.993503,-0.381502 -1.332218,-0.51563 l -0.615847,-0.24387 -0.995993,0.490175 -0.995993,0.490174 -1.910328,0.08248 c -1.050681,0.04536 -2.044648,0.03586 -2.208817,-0.02111 -0.223111,-0.07743 -0.441707,-0.399278 -0.865617,-1.274497 -0.311921,-0.644003 -0.567129,-1.232088 -0.567129,-1.306856 0,-0.07477 -0.09234,-0.329587 -0.205207,-0.566265 -0.190271,-0.399004 -0.23449,-0.424831 -0.607547,-0.354845 -0.528521,0.09915 -2.54571,-0.360408 -2.938638,-0.669486 -0.168181,-0.132291 -0.33339,-0.417706 -0.377316,-0.651855 -0.09227,-0.491827 0.117779,-2.035851 0.438358,-3.222308 0.125334,-0.463861 0.227881,-0.94784 0.227881,-1.075509 0,-0.127669 0.13873,-0.49273 0.308289,-0.811247 l 0.308291,-0.579121 -0.353831,-0.569194 c -0.548856,-0.882925 -0.859926,-2.182042 -0.62679,-2.61766 0.124008,-0.231711 1.408708,-0.784165 2.811648,-1.20908 1.680364,-0.50894 1.775826,-0.611748 2.119412,-2.282507 0.09299,-0.45219 0.336656,-1.076642 0.570971,-1.463262 0.496499,-0.819219 0.968446,-1.023463 1.916272,-0.829303 0.323594,0.06629 0.614924,0.09395 0.647399,0.06148 0.03248,-0.03248 0.05905,-0.267569 0.05905,-0.522431 0,-0.34773 -0.07885,-0.536458 -0.315923,-0.756171 -0.173759,-0.161033 -0.360426,-0.292788 -0.414818,-0.292788 -0.183488,0 -0.463222,-0.701188 -0.462047,-1.158176 0.0014,-0.558251 0.465303,-1.586674 0.855106,-1.895824 0.15907,-0.126157 0.329017,-0.294693 0.377663,-0.374525 0.120969,-0.198524 -0.327496,-1.044041 -0.936257,-1.765179 -0.670549,-0.794332 -0.775261,-1.019237 -0.775261,-1.66513 0,-0.661994 0.612031,-3.047494 0.950068,-3.703063 0.314119,-0.609182 0.307236,-0.767815 -0.0546,-1.258257 -0.164169,-0.222519 -0.298488,-0.450243 -0.298488,-0.506055 0,-0.05581 -0.245259,-0.459667 -0.545021,-0.897456 -0.51986,-0.759235 -0.541367,-0.823752 -0.46592,-1.39762 0.106933,-0.813354 0.670797,-1.932788 1.309067,-2.598883 0.496089,-0.517712 0.533725,-0.605859 0.667748,-1.563902 0.07812,-0.558396 0.108139,-1.103583 0.06672,-1.211526 -0.04142,-0.107942 -0.424016,-0.354369 -0.85021,-0.547615 -0.595774,-0.270137 -0.792953,-0.423291 -0.853005,-0.662553 -0.08327,-0.33178 0.01192,-1.962049 0.139937,-2.396689 0.06525,-0.221529 -0.0101,-0.303781 -0.502193,-0.548223 -0.715222,-0.355277 -1.329961,-0.508 -2.787776,-0.692581 -1.413286,-0.178944 -1.684564,-0.291933 -2.526553,-1.052325 -1.192426,-1.07687 -1.491214,-2.262077 -0.876219,-3.47571 0.325103,-0.64156 0.369315,-1.074547 0.168533,-1.650509 -0.138758,-0.39804 -0.756776,-0.856797 -1.154241,-0.856797 -0.266385,0 -1.341177,-0.699403 -1.842251,-1.198814 -0.176359,-0.175774 -0.512669,-0.35075 -0.747356,-0.388833 -0.935645,-0.151835 -1.507696,-0.914081 -1.981153,-2.639845 -0.16298,-0.594068 -0.219491,-1.042671 -0.166757,-1.323767 0.04387,-0.23385 0.477321,-1.028123 0.963223,-1.765049 0.485903,-0.736925 0.915873,-1.463074 0.955489,-1.613664 0.03962,-0.150589 -0.0015,-0.464437 -0.09145,-0.69744 -0.15339,-0.397489 -0.232661,-0.445744 -1.284066,-0.781661 -0.627691,-0.200542 -1.240858,-0.478293 -1.394025,-0.63146 -0.411097,-0.411097 -0.650123,-1.384104 -0.644131,-2.622073 0.0057,-1.184449 0.159978,-1.762369 0.637448,-2.388365 0.228583,-0.299687 0.312475,-0.55197 0.312475,-0.939681 0,-0.291504 0.13432,-0.941483 0.298489,-1.444401 0.164169,-0.502918 0.298489,-1.0255 0.298489,-1.161293 0,-0.325461 -0.566491,-0.841611 -1.561472,-1.422711 -0.6511,-0.380263 -0.835202,-0.554799 -0.949039,-0.899727 -0.158079,-0.478985 -0.07025,-1.525549 0.184549,-2.199107 0.344851,-0.911606 1.126317,-2.970295 1.427638,-3.760958 0.17518,-0.459673 0.542992,-1.125516 0.817359,-1.479653 1.35855,-1.753536 1.343898,-1.728899 2.615361,-4.3976595 0.532891,-1.118522 1.614532,-2.0720704 3.193462,-2.8152792 1.084754,-0.510598 1.403861,-0.7338555 2.331338,-1.6310809 0.591008,-0.5717309 1.263005,-1.1520877 1.493327,-1.2896818 0.818338,-0.488873 7.001433,-1.5798486 8.953779,-1.5798486 1.181149,0 3.26507,0.2845179 3.916618,0.5347358 0.242725,0.093215 0.682193,0.2313908 0.976598,0.3070564 1.221999,0.3140694 3.753528,1.9199976 4.62381,2.933211 0.838494,0.976204 2.241044,2.3172033 3.225802,3.0842403 0.937287,0.73006 1.738836,1.7645865 2.176348,2.8089235 0.150646,0.359593 0.345508,0.763088 0.433024,0.896656 0.40579,0.619313 0.909561,2.120379 1.062356,3.165455 0.302373,2.068153 0.575509,5.229414 0.508186,5.881712 -0.06422,0.622274 -0.527387,1.745904 -1.066167,2.586517 -0.237977,0.371295 -0.260149,0.547959 -0.24151,1.924326 0.01225,0.904582 0.09377,1.796715 0.202227,2.213109 0.242439,0.930784 0.235262,2.107831 -0.01581,2.593547 -0.467213,0.903846 -1.438416,1.755155 -2.002344,1.755155 -0.307004,0 -0.426734,0.421985 -0.42969,1.514443 -0.0016,0.578908 -0.05255,1.266956 -0.113294,1.528996 -0.09824,0.423786 -0.06494,0.567392 0.301336,1.299542 0.398893,0.79734 0.411747,0.866526 0.410618,2.209964 -0.0011,1.207942 -0.03776,1.465443 -0.284818,1.996032 -0.589076,1.265108 -1.376902,1.719036 -2.983518,1.719036 -0.426718,0 -0.811313,0.05738 -0.854653,0.127503 -0.04334,0.07013 -0.107134,0.439954 -0.141761,0.821839 -0.05838,0.643764 -0.03358,0.736657 0.340394,1.275393 0.395708,0.570042 0.403355,0.604828 0.403355,1.834712 0,1.155851 -0.02794,1.308944 -0.358186,1.962401 -0.477414,0.944665 -1.360477,1.890528 -2.116941,2.267491 -0.685841,0.341768 -1.338588,0.388106 -2.534203,0.179899 l -0.730653,-0.127237 -0.730988,0.488134 c -0.795709,0.531354 -0.991248,0.873909 -0.991248,1.736526 0,0.661081 -0.380193,1.205106 -1.105453,1.581809 -0.662288,0.343995 -0.750744,0.566676 -0.641248,1.614278 0.08778,0.839824 0.230057,1.033699 1.148941,1.565606 0.954274,0.552393 1.314133,1.455327 1.314133,3.297326 0,0.692614 -0.06162,0.923843 -0.447733,1.679997 -0.508408,0.995667 -0.817074,1.268496 -1.58217,1.398479 -0.752026,0.127763 -0.770832,0.426761 -0.064,1.017595 0.297983,0.249084 0.629935,0.624818 0.737669,0.834964 0.107733,0.210146 0.32264,0.533957 0.477569,0.719581 0.748628,0.896943 -0.214505,3.4638 -1.397146,3.723552 -0.31566,0.06933 -0.322377,0.08567 -0.161755,0.393551 0.09217,0.176671 0.167915,0.444247 0.168319,0.594615 3.59e-4,0.150368 0.108192,0.484027 0.239527,0.741465 0.172469,0.338067 0.238791,0.70369 0.238791,1.316417 v 0.848346 l -0.656675,0.677958 c -0.712413,0.735501 -0.783526,1.001541 -0.484809,1.813703 0.11163,0.303504 0.215353,0.407935 0.378951,0.381536 0.829843,-0.13391 2.664064,-0.155854 2.890663,-0.03458 0.397676,0.21283 0.627713,0.783106 0.731608,1.813705 0.05226,0.518402 0.156873,1.017079 0.232472,1.108171 0.0756,0.09109 0.525634,0.28978 1.000078,0.441531 0.474444,0.151751 1.292449,0.473465 1.817789,0.71492 0.52534,0.241456 1.128328,0.476782 1.339972,0.522948 0.519473,0.113312 0.98824,0.6883 0.98824,1.212173 0,0.533234 -0.406187,1.513893 -1.182101,2.853959 -0.713457,1.232195 -0.707956,1.087545 -0.125501,3.299966 0.371256,1.410196 0.384882,1.527952 0.208028,1.797863 -0.233481,0.356337 -2.340056,1.492322 -3.101507,1.672508 -0.529221,0.125234 -0.569852,0.163996 -0.750366,0.715885 -0.238787,0.730052 -1.321702,2.550765 -1.656683,2.785395 -0.38042,0.266456 -0.667841,0.215296 -1.451066,-0.258282 z m 1.044394,-1.507319 c 0.341261,-0.447416 0.922255,-1.980332 0.983895,-2.595939 0.04731,-0.472492 0.25268,-1.410937 0.442275,-2.020977 0.183646,-0.590896 0.913927,-1.560888 1.175153,-1.560888 0.405753,0 0.378473,0.244328 -0.111202,0.995909 -0.466699,0.716317 -0.52287,0.879713 -0.658065,1.914225 l -0.06044,0.462527 0.406159,-0.06591 c 0.559424,-0.09078 2.205496,-0.886713 2.290173,-1.107375 0.03804,-0.09914 -0.0782,-0.728574 -0.25832,-1.398753 -0.180117,-0.670178 -0.36956,-1.406554 -0.420982,-1.636391 -0.156978,-0.70162 -0.390316,-1.221476 -0.880903,-1.962577 -0.258108,-0.389909 -0.501249,-0.865201 -0.540313,-1.056204 -0.05512,-0.269483 -0.177755,-0.386745 -0.547468,-0.523462 -0.74114,-0.274067 -1.528108,-0.520731 -1.555562,-0.487568 -0.01369,0.01653 0.02074,0.399213 0.0765,0.850398 0.08399,0.679551 0.214578,1.013677 0.760946,1.946906 0.36276,0.619612 0.659562,1.153989 0.659562,1.187504 0,0.03351 -0.126716,0.231967 -0.281593,0.441005 -0.478799,0.646242 -1.533162,2.841047 -1.738861,3.619688 -0.07171,0.271437 -0.197152,0.543276 -0.278766,0.604086 -0.08161,0.06081 -0.631939,0.264294 -1.222947,0.452187 -1.559386,0.49576 -1.970026,0.667644 -1.970026,0.824609 0,0.07681 0.496984,0.316189 1.104409,0.531947 0.607424,0.21576 1.346184,0.520747 1.641688,0.677751 0.295504,0.157004 0.571199,0.287889 0.612655,0.290856 0.04146,0.003 0.208876,-0.169631 0.372041,-0.383553 z m -6.317808,-0.456629 c 0.470679,-0.202396 0.965254,-0.4979 1.099056,-0.656675 0.133803,-0.158774 0.312221,-0.28868 0.396485,-0.28868 0.08427,0 0.458343,-0.15985 0.831284,-0.355222 0.623941,-0.326863 1.80411,-0.757273 2.528705,-0.922224 0.444166,-0.101113 0.596977,-0.265804 0.596977,-0.643391 0,-0.186701 0.188048,-0.68157 0.417885,-1.099705 0.379367,-0.690175 0.522206,-1.158301 0.353429,-1.158301 -0.161415,0 -1.027469,0.504799 -1.548868,0.902792 -0.742178,0.566517 -2.002932,1.007536 -2.880271,1.007536 -0.662514,0 -0.672816,0.0051 -0.468128,0.231268 0.232004,0.256361 0.161172,0.485705 -0.149482,0.483994 -0.111043,-5.97e-4 -0.920765,-0.322979 -1.799384,-0.716373 -1.237982,-0.554296 -1.727036,-0.715262 -2.173142,-0.715262 -0.657046,0 -1.576132,-0.218705 -2.82404,-0.672006 -1.003916,-0.364673 -1.264411,-0.588661 -0.951069,-0.817782 0.193302,-0.141346 0.193991,-0.197401 0.01121,-0.912395 -0.195247,-0.763755 -0.623304,-1.654621 -0.795865,-1.656344 -0.135687,-0.0013 -0.262954,0.386932 -0.606271,1.849711 -0.419459,1.787193 -0.503981,2.510821 -0.307459,2.632279 0.339969,0.210112 1.417222,0.38143 1.873638,0.297969 0.507974,-0.09289 1.999087,0.106545 2.594668,0.347035 0.197003,0.07955 0.832828,0.221875 1.412945,0.316282 1.111705,0.180919 1.717456,0.418542 1.83273,0.71894 0.141032,0.367526 -0.149192,0.398681 -0.980766,0.105282 -0.457689,-0.161484 -1.016634,-0.29474 -1.242098,-0.296125 -0.225464,-0.0014 -0.726473,-0.114902 -1.113355,-0.252261 -0.386881,-0.137358 -0.72567,-0.227495 -0.752861,-0.200302 -0.06425,0.06425 0.366296,1.144434 0.833559,2.091292 l 0.368033,0.74578 1.293338,4.77e-4 c 1.180528,3.59e-4 1.367983,-0.03166 2.149119,-0.367553 z m 2.821815,-4.604845 c 0.2977,-0.108361 0.729319,-0.339279 0.959155,-0.51315 0.229837,-0.173872 0.673093,-0.463573 0.985013,-0.643782 0.534918,-0.309042 0.567129,-0.356207 0.567129,-0.830429 0,-0.748544 -0.423529,-2.089414 -0.863717,-2.734474 -0.213503,-0.312874 -0.603493,-0.710552 -0.866644,-0.883729 -0.492384,-0.324035 -2.917825,-0.998509 -3.582739,-0.996299 -0.199752,7.16e-4 -0.749347,0.223903 -1.242516,0.504695 -1.212039,0.690093 -1.384185,1.027413 -1.384185,2.712323 0,1.123531 0.03381,1.322498 0.325745,1.916929 0.414296,0.843582 0.762852,1.167092 1.550632,1.439206 0.843044,0.291203 2.787798,0.306922 3.552127,0.02871 z m -5.930164,0.0022 c 0.04148,-0.04148 -0.05205,-0.296689 -0.207843,-0.567129 -0.155792,-0.270441 -0.513086,-1.082719 -0.793986,-1.805062 -0.2809,-0.722342 -0.627141,-1.474534 -0.769425,-1.671537 -0.500663,-0.693208 -1.10849,-2.150586 -0.959204,-2.299872 0.03763,-0.03763 0.363855,-0.09292 0.724951,-0.122859 0.543121,-0.04504 0.656537,-0.02168 0.656537,0.135232 0,0.104322 -0.107456,0.247185 -0.238791,0.317474 -0.286086,0.153109 -0.300665,0.369789 -0.05663,0.841697 0.240642,0.46535 0.378159,0.444376 0.522877,-0.07975 0.06561,-0.237603 0.195659,-0.519675 0.289006,-0.626826 0.09335,-0.10715 0.236206,-0.409732 0.317463,-0.672402 0.241212,-0.779744 0.668659,-1.423189 1.373189,-2.067088 0.555533,-0.507726 0.833155,-0.657991 1.705667,-0.923207 0.573174,-0.174226 1.106609,-0.369522 1.185412,-0.433991 0.240291,-0.196583 -1.28086,-1.529812 -2.197969,-1.926433 -0.427452,-0.184859 -0.849098,-0.308511 -0.936995,-0.274783 -0.249124,0.0956 -0.504924,0.682692 -0.695326,1.595863 -0.227022,1.088802 -0.697273,2.005554 -1.182548,2.305372 -0.211112,0.130432 -0.759938,0.349348 -1.21961,0.486481 -0.459673,0.137131 -1.185001,0.371092 -1.611839,0.519911 -1.071441,0.373563 -1.074394,0.449505 -0.08826,2.270016 1.057309,1.951899 1.721789,3.674607 1.58437,4.107578 -0.05526,0.174099 0.07638,0.257336 0.740634,0.468307 1.73562,0.551249 1.731102,0.550221 1.858317,0.423007 z m 10.228597,-2.066664 c -0.0021,-0.102367 -0.08268,-0.290415 -0.179094,-0.417884 -0.160952,-0.212799 -0.174986,-0.178605 -0.171499,0.417884 0.0035,0.597203 0.01795,0.630937 0.179093,0.417884 0.09641,-0.127469 0.173588,-0.315517 0.1715,-0.417884 z m 3.990884,-2.373341 c 0.300989,-0.513405 0.578353,-1.090958 0.616365,-1.28345 0.06606,-0.334528 0.03822,-0.361853 -0.630191,-0.618627 -0.384618,-0.147752 -0.836527,-0.26864 -1.004242,-0.26864 -0.440027,0 -1.452536,-0.371221 -2.551135,-0.935335 -0.52534,-0.269754 -1.438716,-0.632934 -2.029724,-0.807066 -1.240856,-0.365602 -1.40198,-0.433815 -1.46397,-0.619786 -0.100364,-0.301093 0.587132,-0.286668 1.592334,0.03341 0.560983,0.178628 1.039202,0.305544 1.062711,0.282035 0.09526,-0.09526 -0.192647,-2.067736 -0.325115,-2.227351 -0.205347,-0.247427 -1.400852,-0.118885 -1.928765,0.207382 -0.234817,0.145125 -0.582852,0.246542 -0.808923,0.23572 -0.247285,-0.01183 -0.869138,0.191508 -1.650439,0.539695 -0.689509,0.307279 -1.670503,0.69415 -2.179986,0.859713 -1.093484,0.355342 -2.002276,1.019811 -2.363679,1.728219 -0.136848,0.268243 -0.223864,0.512663 -0.193371,0.543157 0.03049,0.03049 0.520097,-0.189624 1.088006,-0.489152 1.273803,-0.671829 1.486758,-0.679028 3.737741,-0.126355 0.935304,0.229641 1.738537,0.417529 1.784963,0.417529 0.402995,0 -1.239735,-0.639806 -2.269642,-0.883974 -0.438904,-0.104054 -0.391879,-0.473686 0.06701,-0.526695 0.390351,-0.04509 1.914299,0.456716 2.862161,0.942458 0.375413,0.192384 0.973027,0.425444 1.32803,0.517911 0.355005,0.09247 0.746312,0.223663 0.869573,0.291546 0.466979,0.257182 1.860578,0.635328 2.105429,0.571298 0.375851,-0.09829 0.566289,0.128958 0.566289,0.675742 0,0.365651 0.120397,0.66928 0.490853,1.237877 0.26997,0.414364 0.533516,0.727023 0.585661,0.694796 0.05215,-0.03223 0.341071,-0.478652 0.642059,-0.992056 z m -5.264131,-1.30743 c -0.06427,-0.479193 -0.09614,-0.513807 -0.619162,-0.672635 -0.303271,-0.0921 -0.658858,-0.205247 -0.790193,-0.251449 -0.131335,-0.0462 -0.07096,0.02425 0.134174,0.15657 0.205131,0.132315 0.578069,0.485945 0.828752,0.785841 0.250682,0.299896 0.468927,0.532126 0.484988,0.516066 0.01606,-0.01606 -0.0013,-0.256538 -0.03856,-0.534393 z m -3.45518,-5.170191 c 0.361339,-0.284229 0.384618,-0.530729 0.128851,-1.364382 -0.100735,-0.328338 -0.169793,-0.865617 -0.153464,-1.193955 l 0.02969,-0.596978 h -1.158481 -1.15848 l -1.14e-4,0.687558 c -9.6e-5,0.576376 0.05849,0.768467 0.362332,1.187902 0.281868,0.389108 0.345708,0.576551 0.287156,0.843135 -0.05584,0.254239 -0.01839,0.385906 0.144985,0.509688 0.337507,0.255719 1.149288,0.216686 1.517523,-0.07297 z m -0.239855,-3.779307 c 1.119017,-0.09493 1.509609,-0.411629 1.509609,-1.224025 0,-0.376358 -0.07461,-0.665278 -0.217311,-0.841504 C 41.19214,72.223103 41.1392,72.2133 40.731939,72.347708 c -0.284746,0.09398 -1.000203,0.133472 -2.00462,0.110666 -1.42041,-0.03225 -1.576879,-0.0149 -1.727827,0.19153 -0.09129,0.124845 -0.16598,0.344569 -0.16598,0.488277 0,0.494584 1.783181,1.696126 2.268514,1.528567 0.0985,-0.03401 0.547465,-0.09308 0.997697,-0.131272 z m 0.451534,-2.957874 c -0.02377,-0.131335 -0.03468,-0.520863 -0.02426,-0.865617 l 0.01896,-0.626827 -0.393627,4.78e-4 c -0.216495,2.39e-4 -0.74286,0.09907 -1.169699,0.219573 -0.77133,0.217767 -0.776476,0.222077 -0.842422,0.705574 -0.03649,0.267557 -0.13857,0.573484 -0.226835,0.679838 -0.14663,0.176678 -0.03784,0.190452 1.260307,0.159577 1.34669,-0.03203 1.418535,-0.04625 1.377576,-0.272584 z m -1.449231,-1.905016 c 0.426839,-0.09948 0.97678,-0.18167 1.222091,-0.18264 0.449205,-0.0018 1.430628,-0.197576 1.762797,-0.351687 0.23293,-0.108068 0.716373,-1.055752 0.716373,-1.404293 0,-0.333147 -0.754156,-1.53678 -1.068203,-1.704853 -0.126197,-0.06754 -0.854812,-0.122797 -1.619144,-0.122797 -1.165629,0 -1.533062,0.04813 -2.278878,0.298489 -0.48905,0.164169 -0.98924,0.298489 -1.111534,0.298489 -0.250384,0 -0.365511,0.309019 -0.367968,0.98768 -0.0013,0.357157 0.09375,0.5549 0.459071,0.955164 0.253384,0.277619 0.605082,0.735945 0.781549,1.018501 0.227782,0.364721 0.379867,0.495621 0.524313,0.45128 0.111904,-0.03435 0.552695,-0.143851 0.979533,-0.243333 z m -1.532803,-4.001425 c 0.402289,-0.152858 1.084952,-0.263019 1.95062,-0.314773 l 1.331741,-0.07962 -0.0475,-0.968729 c -0.02613,-0.5328 -0.06558,-1.027338 -0.08767,-1.098975 -0.04518,-0.146474 -2.314913,-0.454767 -2.86804,-0.389561 -0.334023,0.03938 -0.362598,0.0825 -0.423584,0.639204 -0.03597,0.328338 -0.176456,0.81189 -0.312196,1.07456 -0.297345,0.575398 -0.463361,1.373048 -0.285773,1.373048 0.06794,0 0.40202,-0.10582 0.742402,-0.235154 z m 5.704692,-3.919174 c 0.184406,-0.454112 0.116899,-2.049589 -0.107124,-2.531819 -0.07626,-0.164169 -0.42237,-0.474559 -0.769122,-0.689756 -0.346752,-0.215196 -0.783488,-0.550996 -0.970526,-0.746222 l -0.340068,-0.354954 h -1.833084 -1.833083 l -0.481532,0.50743 c -0.518662,0.54656 -0.923324,1.331806 -0.964449,1.871509 -0.01696,0.222552 0.150373,0.613134 0.495865,1.157449 0.286802,0.451851 0.592173,0.938979 0.678601,1.082506 0.128041,0.212634 0.218366,0.243877 0.487758,0.168711 0.196166,-0.05473 0.913274,-0.0055 1.763364,0.121066 0.788011,0.117323 1.781978,0.216841 2.208817,0.221153 0.426839,0.0043 0.854049,0.05717 0.949357,0.117462 0.18632,0.117869 0.408614,-0.169477 0.715226,-0.924535 z m -2.321258,-6.029388 c 0,-1.295966 0.140588,-1.602743 0.92706,-2.022937 l 0.505686,-0.270176 -0.716373,-0.0368 c -0.394005,-0.02024 -1.043142,0.02006 -1.442526,0.08955 -0.399385,0.06949 -1.070985,0.126301 -1.492444,0.126245 l -0.766291,-1.02e-4 v 0.925417 c 0,0.508979 -0.04416,1.234354 -0.09814,1.611942 l -0.09814,0.686524 h 1.590581 1.590582 z m -0.305486,-2.846621 c 0.832674,-0.08183 1.456731,-0.201961 1.573385,-0.302874 0.319694,-0.276553 0.463745,-1.398513 0.455959,-3.551315 l -0.0074,-2.03966 -1.050871,-0.686524 c -0.577979,-0.377588 -1.083022,-0.686524 -1.122317,-0.686524 -0.153467,0 -1.907303,1.759714 -2.239416,2.246921 -0.193339,0.283627 -0.513068,0.861203 -0.710509,1.283501 -0.19744,0.422299 -0.41234,0.767816 -0.477556,0.767816 -0.206457,0 -0.731229,1.345899 -0.798381,2.047638 -0.06206,0.648526 -0.05127,0.681785 0.279284,0.860836 0.425025,0.230226 2.114985,0.255046 4.097799,0.06018 z m 3.88898,-2.862879 c 0.132231,-0.117579 0.449102,-0.300971 0.704156,-0.407539 0.430287,-0.179786 0.537955,-0.178759 1.492772,0.01425 0.588764,0.11901 1.171698,0.1722 1.362474,0.124318 0.528897,-0.132745 1.394903,-1.016782 1.769973,-1.80683 0.266215,-0.560756 0.340114,-0.886159 0.340188,-1.497976 8.3e-5,-0.687711 -0.04974,-0.859823 -0.414734,-1.432746 -0.271902,-0.426794 -0.415882,-0.798869 -0.417884,-1.0799 -0.0028,-0.388119 -0.05681,-0.457564 -0.570185,-0.732672 -0.560622,-0.300426 -1.903685,-0.689201 -2.380918,-0.689201 -0.368676,0 -0.563675,0.291129 -1.937435,2.892539 -0.26794,0.507382 -0.621518,1.010544 -0.785728,1.11814 l -0.298566,0.195627 v 2.02573 2.025729 l 0.447734,-0.267843 c 0.246253,-0.147314 0.555922,-0.364043 0.688153,-0.481621 z m -7.483965,-1.683523 c 0.333141,-0.671509 0.666844,-1.160434 0.937813,-1.374037 0.723866,-0.570619 1.709005,-1.542772 1.709005,-1.686476 0,-0.07566 -0.07806,-0.137564 -0.173476,-0.137564 -0.366352,0 -0.73414,0.269132 -1.000681,0.732258 -0.177392,0.308225 -0.431662,0.546197 -0.706149,0.660885 -0.38153,0.159413 -0.479474,0.159371 -0.886156,-3.59e-4 l -0.457216,-0.179619 v 0.522057 c 0,0.287131 -0.05633,0.645473 -0.125182,0.796315 -0.15767,0.345437 -0.775488,0.754979 -1.313131,0.870455 -0.646379,0.138831 -0.64936,0.185275 -0.03463,0.539623 0.396605,0.228612 0.727054,0.32755 1.055055,0.315887 0.477111,-0.01697 0.478093,-0.01801 0.994745,-1.059425 z m -4.03933,-0.0341 c 0.164169,-0.09385 0.540265,-0.172835 0.835769,-0.175528 1.258675,-0.01147 1.910328,-0.416639 1.910328,-1.187755 0,-0.593437 0.09695,-0.845534 0.325182,-0.845534 0.241133,0 0.175344,-0.247513 -0.488075,-1.836231 -0.543547,-1.301654 -1.081882,-2.223216 -1.298705,-2.223216 -0.06367,0 -0.2754,0.13432 -0.470505,0.298489 -0.679292,0.571587 -1.034041,0.40746 -1.730998,-0.800856 -0.301474,-0.522667 -0.615434,-0.976129 -0.697691,-1.007693 -0.08226,-0.03157 -0.421641,0.214693 -0.754189,0.547242 -0.332548,0.332547 -0.674351,0.60634 -0.759562,0.608428 -0.08521,0.0021 -0.251278,0.07687 -0.369036,0.166183 -0.203336,0.154218 -0.198832,0.184892 0.08955,0.609842 0.246932,0.363874 0.303652,0.590008 0.303652,1.210613 0,0.560375 0.04651,0.781005 0.175045,0.830327 0.255228,0.09794 2.737033,-0.74947 3.670092,-1.25315 0.614247,-0.33158 0.833275,-0.399427 0.941168,-0.291534 0.240025,0.240025 0.02902,0.491476 -0.736841,0.878081 -0.755755,0.381504 -3.469461,1.308311 -3.830756,1.308311 -0.317573,0 -0.696343,0.577435 -0.695844,1.060812 9.67e-4,0.934757 0.999031,1.900846 2.188556,2.118441 0.99236,0.181529 1.049695,0.180901 1.392863,-0.01527 z m 10.685897,-4.389804 c 0.942921,-1.78064 1.489572,-2.420875 2.172308,-2.544191 0.72531,-0.131006 0.872277,-0.251198 0.872277,-0.713355 0,-0.280744 -0.145224,-0.634121 -0.447733,-1.089479 -0.424335,-0.63874 -0.449886,-0.73196 -0.488928,-1.783827 -0.06085,-1.639459 0.117114,-2.071307 1.395405,-3.386091 0.996574,-1.025024 1.060317,-1.068274 1.774784,-1.204217 l 0.741085,-0.141009 0.07662,-0.510965 c 0.08053,-0.537006 -0.0085,-1.01213 -0.189635,-1.01213 -0.252309,0 -1.011003,-0.821343 -1.267514,-1.372179 -0.347325,-0.74585 -0.361739,-1.565078 -0.04548,-2.585144 0.296515,-0.956391 0.751582,-1.507225 1.866997,-2.2599 l 0.882637,-0.595597 -0.0012,-1.220165 c -0.0011,-1.089362 -0.03624,-1.290563 -0.328337,-1.876841 l -0.327171,-0.656675 v -3.522168 c 0,-3.436583 -0.0081,-3.55698 -0.334223,-4.954913 -0.370648,-1.589039 -0.506781,-2.0286 -0.979861,-3.1639775 C 48.529912,8.0147715 47.796557,7.4109799 45.948434,6.7421324 45.302118,6.5082261 44.424081,6.1208039 43.997242,5.8811945 L 43.221171,5.4455407 40.236284,5.3637767 c -3.883787,-0.1063873 -4.155869,-0.062418 -5.478346,0.8853273 -0.446479,0.3199666 -0.642547,0.5670306 -0.836682,1.0542967 -0.206011,0.5170769 -0.326017,0.6598789 -0.640039,0.7616209 -0.361457,0.11711 -1.057717,0.763599 -1.408189,1.307525 -0.08462,0.131335 -0.217583,0.6686154 -0.295463,1.1939554 -0.07788,0.52534 -0.300041,1.626764 -0.493689,2.447608 -0.193647,0.820844 -0.509826,2.244635 -0.702619,3.163981 -0.192793,0.919345 -0.458609,1.901318 -0.590702,2.182161 -0.155041,0.329636 -0.240168,0.758119 -0.240168,1.20888 0,1.077163 -0.109153,1.407257 -0.672548,2.033889 -0.586136,0.651923 -0.614697,0.787935 -0.297187,1.415219 0.123321,0.243637 0.263005,0.622578 0.310409,0.842091 0.05087,0.235557 0.267678,0.56308 0.52906,0.799223 0.257976,0.233066 0.66131,0.839063 0.966086,1.451515 0.453389,0.911092 0.529874,1.176079 0.573115,1.985589 l 0.0499,0.934183 -0.614467,1.005538 c -0.516621,0.84542 -0.593762,1.044227 -0.484441,1.248495 0.07151,0.133625 0.263549,0.651995 0.426745,1.151931 0.220583,0.675737 0.437877,1.065399 0.846833,1.518584 0.82275,0.911732 0.8738,1.103835 0.8738,3.288187 v 1.910177 l 0.526728,0.593068 c 0.289701,0.326187 0.562794,0.7067 0.606874,0.845586 0.07083,0.223154 0.140192,0.243513 0.596518,0.175083 0.284003,-0.04259 0.685181,-0.04036 0.891504,0.005 0.767158,0.168495 1.717745,1.50852 2.393475,3.374038 0.148664,0.410422 0.284282,0.746222 0.301372,0.746222 0.01709,0 0.192901,-0.151171 0.390691,-0.335934 0.445056,-0.415746 1.097577,-0.61923 1.9857,-0.61923 0.706463,0 1.027061,0.109557 1.452807,0.496465 0.239389,0.217551 1.474959,1.021225 1.599926,1.040668 0.03283,0.0051 0.435794,-0.700942 0.895466,-1.569001 z m 5.913231,-1.71063 c 0.159694,-0.570372 0.07615,-0.758146 -0.339457,-0.762979 -0.08647,-9.56e-4 -0.333313,-0.136148 -0.54855,-0.300317 -0.215236,-0.164169 -0.422397,-0.298489 -0.460357,-0.298489 -0.03796,0 -0.133914,0.20148 -0.213232,0.447733 -0.07932,0.246254 -0.195566,0.51254 -0.258328,0.591748 -0.173624,0.219116 -0.01254,0.375578 0.477759,0.464061 0.243951,0.04402 0.577865,0.151411 0.742034,0.238636 0.426685,0.226702 0.430903,0.224028 0.600131,-0.380393 z M 29.427519,41.19322 c 0.255528,-0.130361 0.642151,-0.448507 0.859161,-0.706993 l 0.394566,-0.469971 -0.03796,-2.248047 c -0.04111,-2.434087 -0.10164,-2.69009 -0.75045,-3.173661 -0.302562,-0.225506 -0.345551,-0.227077 -1.157826,-0.04233 -0.463979,0.10553 -1.101631,0.195485 -1.417005,0.1999 -0.315375,0.0044 -0.912747,0.09844 -1.327495,0.208942 -0.693047,0.184651 -0.792293,0.254068 -1.226113,0.857589 -0.802985,1.117096 -0.861985,1.317542 -0.639985,2.174269 0.219239,0.84607 0.595075,1.639374 0.804797,1.698743 0.763268,0.216069 1.331056,0.511684 1.769899,0.92149 0.287689,0.268653 0.684254,0.560298 0.881257,0.648099 0.52264,0.232936 1.31437,0.203776 1.847158,-0.06803 z m 23.328816,-0.114903 c 0.163656,-0.06222 0.435793,-0.349015 0.60475,-0.637317 0.274581,-0.468537 0.307192,-0.650964 0.307192,-1.718429 0,-1.071689 -0.03518,-1.266651 -0.342876,-1.899838 -0.484863,-0.997786 -0.498716,-1.060178 -0.377409,-1.699827 0.05988,-0.31573 0.119226,-1.131582 0.131884,-1.813004 l 0.02302,-1.238948 -0.70232,-0.148209 c -1.09328,-0.230714 -1.120206,-0.224436 -1.120206,0.26117 0,0.667705 -0.239999,1.452052 -0.545013,1.781165 -0.208604,0.225088 -0.399781,0.301429 -0.754863,0.301429 -0.261531,0 -0.600424,0.04749 -0.753096,0.105537 -0.388605,0.147747 -1.236973,0.996349 -1.654907,1.655364 -0.308022,0.485699 -0.351568,0.664444 -0.351568,1.44309 0,0.830075 0.03349,0.945894 0.507431,1.755009 0.408119,0.696738 0.633925,0.942433 1.153748,1.255368 0.355474,0.213998 0.865889,0.457826 1.134257,0.541841 0.578526,0.181115 2.317061,0.216391 2.739979,0.0556 z M 28.326583,34.067115 c 0.570722,-0.133483 0.865617,-0.259939 0.865617,-0.37119 0,-0.293735 -0.383228,-1.509141 -0.55316,-1.754346 -0.08977,-0.129529 -0.163213,-0.338779 -0.163213,-0.464998 0,-0.210106 -0.06506,-0.223415 -0.7702,-0.157567 -0.423611,0.03956 -1.028051,0.195077 -1.3432,0.345602 -0.482992,0.230691 -0.567654,0.320567 -0.538975,0.572169 0.01871,0.164169 0.04558,0.687993 0.0597,1.164054 l 0.02567,0.865565 0.776071,0.0016 c 0.426838,8.35e-4 1.165598,-0.08952 1.641688,-0.200873 z m -1.820782,-3.076459 c 0.459673,-0.164917 1.055182,-0.301234 1.323354,-0.302929 0.509332,-0.0032 0.632242,-0.130861 1.522273,-1.580873 0.358341,-0.583799 0.260443,-1.376235 -0.308472,-2.496936 -0.281369,-0.554266 -0.621438,-1.054851 -0.763337,-1.12364 -0.472873,-0.229237 -0.620462,-0.424297 -0.701799,-0.927527 -0.0445,-0.275307 -0.185864,-0.742165 -0.314146,-1.037462 -0.345026,-0.794226 -0.403652,-1.441264 -0.1713,-1.890583 0.174825,-0.338074 0.175875,-0.378307 0.0099,-0.378307 -0.102166,0 -0.504887,0.13432 -0.894934,0.298489 -0.505638,0.21282 -0.927238,0.298489 -1.468947,0.298489 -0.417873,0 -0.787655,0.02789 -0.821738,0.06197 -0.03408,0.03408 -0.008,0.334836 0.05793,0.668339 0.113239,0.57271 0.02381,1.095969 -0.357783,2.093363 -0.03741,0.09779 0.499971,0.16231 1.86845,0.224326 1.056533,0.04788 1.94722,0.129529 1.979303,0.181441 0.03208,0.05191 -0.03383,0.186549 -0.146474,0.299193 -0.181751,0.181752 -0.383037,0.195563 -1.788047,0.122688 -1.785421,-0.0926 -2.068787,-0.02219 -2.068787,0.514068 0,0.184981 -0.133896,0.518891 -0.297546,0.742022 -0.539681,0.735834 -0.657627,1.123875 -0.657432,2.16294 2.62e-4,1.405436 0.194457,1.751535 1.134071,2.021184 1.754372,0.503469 1.607911,0.500925 2.865492,0.04975 z m 27.758441,0.08405 c 0.896712,-0.321034 1.427948,-1.021346 1.428015,-1.882506 2.6e-5,-0.328338 -0.05706,-0.811889 -0.126852,-1.074559 -0.06979,-0.262671 -0.162537,-0.880542 -0.206093,-1.373049 l -0.07919,-0.895466 -0.53728,-0.09361 c -0.295504,-0.05148 -1.031801,-0.124944 -1.636214,-0.163246 -0.926523,-0.05871 -1.130008,-0.03857 -1.296988,0.128414 -0.108931,0.108929 -0.474058,0.376572 -0.811394,0.594761 -0.80514,0.520765 -1.077456,0.84309 -1.313591,1.554821 -0.348882,1.051564 -0.175554,1.966937 0.45662,2.411489 0.175032,0.123085 0.470323,0.34462 0.656201,0.492299 0.426591,0.338924 1.57229,0.629183 2.273829,0.576065 0.295504,-0.02237 0.832329,-0.146312 1.192942,-0.275417 z m 1.076359,-6.628477 c 5.97e-4,-0.654847 0.05708,-0.951019 0.231993,-1.216356 0.295752,-0.448654 0.227123,-0.544728 -0.389115,-0.544728 -0.275236,0 -0.876505,-0.07966 -1.336153,-0.17702 -1.475097,-0.31245 -1.386463,-0.384974 -1.347194,1.102335 l 0.03389,1.283502 0.895466,0.08208 c 0.492507,0.04514 1.056651,0.134549 1.253653,0.19868 0.647534,0.21079 0.656618,0.200725 0.657462,-0.728493 z m 1.14606,-2.920978 c 0.211018,-0.725874 0.196603,-1.43664 -0.07887,-3.888894 C 56.02806,14.255957 56.02877,14.2588 55.067624,12.272912 54.108749,10.291707 53.746204,9.7922185 52.717173,9.0346195 52.353769,8.7670725 51.250258,7.7396875 50.264927,6.7515417 48.572696,5.0544772 47.984116,4.5958039 46.472089,3.7958312 45.354824,3.2047167 42.752717,2.6309203 41.191448,2.6313853 c -0.891944,2.627e-4 -4.004522,0.3879638 -4.229119,0.526773 -0.05557,0.034343 -0.47062,0.1148587 -0.922335,0.1789236 -0.451716,0.064065 -1.325479,0.2325652 -1.941696,0.3744454 l -1.120393,0.257964 -1.086794,1.0167267 c -1.432714,1.3403441 -1.625583,1.4764682 -2.818306,1.9891129 -0.862644,0.3707731 -1.141199,0.5676496 -1.85717,1.3126076 -0.703111,0.731577 -0.879516,0.999302 -1.067464,1.620053 -0.247477,0.8173595 -1.143687,2.3224445 -2.033192,3.4145155 -0.647995,0.795564 -0.870438,1.261017 -1.855628,3.882847 -0.837301,2.22826 -0.948446,2.760738 -0.646007,3.094928 0.117339,0.12966 0.259572,0.235744 0.316072,0.235744 0.0565,0 0.39368,0.193182 0.749288,0.429292 l 0.64656,0.429292 1.052989,-0.08515 c 0.672838,-0.05441 1.299539,-0.187841 1.735915,-0.369595 0.815891,-0.339824 0.9025,-0.345356 1.199451,-0.07662 0.220011,0.199108 0.241689,0.193821 0.516832,-0.126053 0.246757,-0.286871 0.28719,-0.456917 0.28719,-1.207829 0,-0.667465 0.06899,-1.029956 0.29201,-1.534238 0.160605,-0.363158 0.404188,-1.242922 0.541295,-1.955033 0.137107,-0.712112 0.431418,-2.046939 0.654024,-2.966284 0.222605,-0.919346 0.465673,-2.101361 0.540151,-2.626701 0.07448,-0.5253415 0.18767,-1.1220885 0.25154,-1.3261075 0.06488,-0.20725 0.615062,-0.881362 1.246765,-1.527603 0.621852,-0.6361642 1.130639,-1.2351382 1.130639,-1.3310539 0,-0.2132542 1.38629,-1.2471711 2.218785,-1.6548036 0.334642,-0.163858 0.940071,-0.3513315 1.3454,-0.4166076 0.885472,-0.1426011 6.408527,-0.050307 7.18141,0.1200059 0.295504,0.065118 0.832784,0.2987587 1.193955,0.5192025 0.361171,0.2204438 1.005907,0.5172789 1.432746,0.6596337 1.908136,0.6363811 3.590799,1.768413 3.9444,2.653642 0.08642,0.21635 0.303772,0.719437 0.483005,1.117973 0.378401,0.8413955 0.465043,1.1449745 0.898171,3.1470595 0.276107,1.276273 0.322428,1.777154 0.331249,3.581865 0.0056,1.153958 -0.01356,2.608521 -0.04266,3.232363 -0.04662,0.999396 -0.0197,1.208974 0.22643,1.76267 0.186145,0.41875 0.363841,0.645646 0.5326,0.680064 1.215392,0.247874 2.31389,0.409226 3.563145,0.523368 0.152833,0.01396 0.256517,-0.156343 0.40396,-0.663527 z"
       id="path249" /></g></svg>
