<?xml version="1.0" encoding="UTF-8" standalone="no"?>
<svg
   height="512"
   width="512"
   version="1.1"
   id="svg6"
   sodipodi:docname="armor_clothing.svg"
   xml:space="preserve"
   inkscape:version="1.2.1 (9c6d41e410, 2022-07-14)"
   inkscape:export-filename="armor_clothing.png"
   inkscape:export-xdpi="96"
   inkscape:export-ydpi="96"
   xmlns:inkscape="http://www.inkscape.org/namespaces/inkscape"
   xmlns:sodipodi="http://sodipodi.sourceforge.net/DTD/sodipodi-0.dtd"
   xmlns="http://www.w3.org/2000/svg"
   xmlns:svg="http://www.w3.org/2000/svg"><defs
     id="defs10" /><sodipodi:namedview
     id="namedview8"
     pagecolor="#ffffff"
     bordercolor="#000000"
     borderopacity="0.25"
     inkscape:showpageshadow="2"
     inkscape:pageopacity="0.0"
     inkscape:pagecheckerboard="true"
     inkscape:deskcolor="#d1d1d1"
     showgrid="false"
     inkscape:zoom="1.4688215"
     inkscape:cx="92.591239"
     inkscape:cy="286.96476"
     inkscape:window-width="2560"
     inkscape:window-height="1351"
     inkscape:window-x="2391"
     inkscape:window-y="-9"
     inkscape:window-maximized="1"
     inkscape:current-layer="svg6" /><path
     style="fill:#ffffff;fill-rule:evenodd;stroke-width:0.828477"
     d="m 254.34304,463.25911 c -1.13916,-0.19704 -4.86731,-0.76309 -8.28479,-1.25784 C 217.24417,457.82979 143.23921,430.7079 122.51783,416.72526 105.52841,405.26091 97.962533,388.63584 89.0481,343.17963 84.12827,318.09256 83.20455,311.48116 79.15001,272.33542 77.41742,255.6076 76.6754,253.80312 67.60121,244.25071 57.55326,233.67322 40.3522,217.53604 35.21035,213.86321 32.93203,212.2358 26.59417,208.27926 21.12621,205.07089 15.65825,201.86252 8.66795,197.75121 5.59223,195.93464 L 0,192.63179 v -18.7661 -18.76611 l 15.53398,-14.60906 c 18.57219,-17.46639 23.18903,-21.32426 35.29309,-29.49127 10.87106,-7.33507 12.56631,-8.76462 14.97021,-12.623954 2.02005,-3.24308 4.31306,-12.56164 5.09659,-20.71198 1.23822,-12.88012 4.24886,-20.62503 9.97021,-25.64844 2.93031,-2.57284 3.63999,-2.84744 6.53558,-2.5289 4.96762,0.54647 8.920877,4.0042 18.00731,15.75016 6.13327,7.92844 10.05186,11.82215 18.45063,18.33352 10.69587,8.29225 8.6158,8.1039 21.1612,1.91603 18.27273,-9.01281 20.85719,-11.46676 23.94409,-22.73499 0.9362,-3.41747 2.27684,-6.63852 2.97919,-7.15789 1.72347,-1.27445 15.90311,-5.00926 23.57895,-6.21052 8.78728,-1.37519 108.17904,-1.93837 120.95794,-0.68537 10.72807,1.0519 18.53153,2.51759 26.67587,5.0104 l 5.54966,1.69864 1.33219,4.70797 c 0.73271,2.58938 1.54534,5.4536 1.80584,6.36493 1.39763,4.88942 3.92035,8.13087 8.79181,11.29664 4.22358,2.74473 24.67161,13.14349 25.84524,13.14349 0.18424,0 3.98905,-2.92018 8.45519,-6.48929 9.75106,-7.79255 16.33582,-14.52764 24.2199,-24.77287 3.23804,-4.20778 6.98001,-8.21555 8.31547,-8.90615 5.74791,-2.97235 10.96378,-0.57724 16.32412,7.49596 3.62073,5.45328 4.93609,10.79895 6.10255,24.8018 1.37246,16.47524 0.82856,15.47082 12.63675,23.337934 12.26959,8.17452 25.51653,18.51315 33.13215,25.85807 3.09124,2.98134 5.88735,5.62121 6.21358,5.86635 0.32612,0.24518 2.73692,2.79708 5.35698,5.67095 L 512,149.00696 v 24.23946 24.23946 l -3.10677,1.4662 c -12.05765,5.6904 -31.46302,19.66716 -42.87864,30.88347 -9.03374,8.87596 -19.98208,21.28958 -21.69064,24.59358 -2.20476,4.26353 -4.33611,17.48144 -5.23101,32.44078 -0.5313,8.88116 -1.80538,19.63546 -3.26627,27.57035 -1.31736,7.15521 -3.18402,17.85608 -4.14813,23.7797 -5.37067,32.99736 -13.5294,58.23401 -22.04132,68.17829 -9.47006,11.06362 -25.52129,19.56014 -64.57573,34.18232 -43.16524,16.16129 -78.02153,24.87496 -90.71845,22.67854 z m 11.84473,-24.87513 c 3.5559,-1.18422 6.33022,-2.55827 6.16516,-3.05344 -0.16506,-0.49518 -2.97916,-2.72813 -6.25357,-4.96213 l -5.95346,-4.0618 -7.41375,4.39798 c -4.07755,2.41887 -7.30901,4.50269 -7.18101,4.6307 0.24897,0.24897 13.06982,5.03919 13.75995,5.14108 0.22629,0.0336 3.32078,-0.90816 6.87668,-2.09239 z m -40.42841,-12.3148 c 2.98198,-1.12242 6.62544,-2.58369 8.09659,-3.24727 10.68464,-4.81946 19.0678,-8.92536 21.9914,-10.77096 1.8885,-1.19215 3.83363,-2.16756 4.3225,-2.16756 0.48888,0 4.31764,1.97403 8.50837,4.38673 7.78422,4.48156 20.11732,10.15559 27.46108,12.63389 3.57035,1.2049 4.90922,1.25291 10.35599,0.37144 22.82839,-3.69441 45.75046,-12.18473 71.05337,-26.3181 l 10.94672,-6.11448 2.1583,-7.18524 c 1.18707,-3.95188 2.75877,-9.13799 3.49268,-11.5247 0.7339,-2.3867 1.14046,-4.53336 0.90347,-4.77035 -0.237,-0.237 -6.69511,3.06438 -14.35139,7.33637 l -13.92049,7.76727 -3.19418,8.6018 c -4.9715,13.38799 -3.90152,12.13795 -9.7948,11.44308 -2.8092,-0.33124 -5.3071,-0.8017 -5.55088,-1.04549 -0.24377,-0.24376 0.76557,-3.64606 2.24304,-7.56063 1.47745,-3.91456 2.44813,-7.35553 2.15707,-7.64659 -0.29108,-0.29108 -4.7246,-0.055 -9.85231,0.52464 -35.65019,4.02978 -55.67747,3.35883 -77.59207,-2.59949 -5.71335,-1.55339 -6.40307,-1.58029 -10.07918,-0.39305 -19.69528,6.36087 -44.36255,7.18741 -80.30558,2.69087 -5.69579,-0.71255 -10.55691,-1.29879 -10.80248,-1.30275 -0.24557,-0.004 0.11108,3.33325 0.79252,7.41603 0.68145,4.08278 0.93623,7.71773 0.56619,8.07767 -1.05208,1.02332 -10.18133,-9.40971 -12.47341,-14.25477 -1.60579,-3.39436 -3.02713,-4.95635 -6.4344,-7.07113 -2.40534,-1.49292 -5.67819,-3.52414 -7.27302,-4.51383 -1.59482,-0.98969 -5.24148,-3.35571 -8.10367,-5.25782 -2.86221,-1.9021 -5.3956,-3.45837 -5.62978,-3.45837 -1.10937,0 2.68067,16.78256 4.7008,20.81551 4.60316,9.18966 42.01505,26.7986 71.58282,33.69243 4.10097,0.95616 8.94757,2.09304 10.77022,2.5264 5.31088,1.26275 7.50106,1.08403 13.25452,-1.08156 z m 8.86454,-48.12781 c 3.78274,-1.16424 11.0008,-3.79736 16.04012,-5.8514 l 9.1624,-3.73461 10.38614,4.19565 c 15.26365,6.16597 21.30704,7.50714 33.82753,7.50714 12.01381,0 23.44322,-1.43591 40.60716,-5.10161 6.60712,-1.41108 13.13139,-2.75871 14.49838,-2.99473 1.36699,-0.23602 5.1217,-2.20544 8.34379,-4.37648 l 5.85837,-3.94736 0.86742,-5.66693 c 0.47707,-3.11682 0.73358,-5.81884 0.56999,-6.00449 -0.16355,-0.18565 -3.563,0.61675 -7.55425,1.78312 -14.74148,4.30791 -22.18616,5.18226 -44.12416,5.18226 -20.47032,0 -21.76784,-0.12699 -39.35275,-3.85203 -2.27831,-0.48262 -6.7521,-1.66525 -9.94174,-2.62806 -9.04175,-2.72931 -19.36433,-2.33956 -34.38188,1.29817 -20.09867,4.86854 -22.79658,5.18482 -43.90939,5.14764 -20.51878,-0.036 -29.2814,-1.12372 -43.0809,-5.34703 -2.96181,-0.90645 -5.85113,-1.65095 -6.42072,-1.65442 -0.74775,-0.005 -1.03559,1.95102 -1.03559,7.03573 0,3.87314 0.27959,7.04068 0.62136,7.03898 1.09692,-0.006 5.49499,-3.0226 8.90614,-6.10974 1.82266,-1.64952 3.57664,-2.99943 3.89774,-2.99978 0.63858,-7.1e-4 1.14155,2.75152 1.88468,10.31289 0.2664,2.71063 0.64028,5.08434 0.83084,5.2749 0.43541,0.4354 19.30205,3.9294 31.91102,5.90977 5.72163,0.89864 14.55734,1.5369 22.11905,1.5978 11.3258,0.0912 13.28289,-0.11137 19.46925,-2.01538 z M 134.54517,352.51123 c -0.25929,-2.8479 -0.59996,-5.60555 -0.75697,-6.12812 -0.29658,-0.98698 -17.01164,-10.47153 -17.53396,-9.94921 -0.60215,0.60215 2.31557,12.5888 3.28514,13.49608 1.14005,1.0668 13.93705,7.73761 14.86863,7.75069 0.33474,0.005 0.39651,-2.32155 0.13717,-5.16944 z m 86.65871,-9.61384 c 9.65623,-1.84037 20.45652,-5.06785 27.04783,-8.08278 6.529,-2.98643 10.32252,-2.62339 25.97483,2.48577 21.35852,6.97177 25.14474,7.55357 48.88025,7.51108 23.33144,-0.0419 33.76391,-1.35099 43.6887,-5.48269 7.08405,-2.9491 16.85665,-9.13605 22.17664,-14.03984 3.6421,-3.35717 3.7269,-3.55151 3.7269,-8.54109 0,-6.12898 2.34251,-23.81133 3.28354,-24.78578 0.36731,-0.38035 2.4817,3.99402 4.69863,9.72084 2.21693,5.72681 4.38554,10.30034 4.81914,10.16339 2.3119,-0.73019 6.28368,-12.20037 7.84833,-22.66529 0.48994,-3.27693 0.89082,-12.47201 0.89082,-20.43352 v -14.47547 l -5.55778,-4.42085 c -25.19968,-20.04471 -42.55816,-41.51319 -48.68358,-60.21046 -0.79713,-2.43316 -1.72224,-4.11082 -2.05581,-3.72815 -0.33358,0.38268 -1.63616,3.67828 -2.89464,7.32359 -5.95878,17.26014 -13.21995,28.57937 -28.96461,45.1521 -22.13705,23.30131 -31.13353,36.36861 -33.80395,49.09991 -2.93869,14.01029 8.13817,31.84105 21.5074,34.62115 5.82066,1.21039 13.33174,0.0607 19.27303,-2.94993 3.89724,-1.97488 8.45079,-7.24072 10.59601,-12.25347 2.28804,-5.34649 0.31508,-27.09371 -2.45799,-27.09371 -1.02564,0 -17.08864,3.20649 -19.12165,3.81705 -1.19084,0.35762 -8.08239,10.61349 -8.08239,12.02802 0,0.23199 3.54174,1.8532 7.87055,3.60264 4.3288,1.74945 7.87124,3.40201 7.87209,3.67237 0.002,0.58052 -16.26072,-0.14544 -16.82677,-0.75115 -1.28238,-1.37221 -3.91052,-15.18615 -3.40344,-17.88909 0.71579,-3.81548 5.34716,-8.58887 11.29423,-11.64056 3.8242,-1.96236 5.58264,-2.29179 13.90531,-2.60507 10.78136,-0.40585 14.3876,0.30296 20.15689,3.96173 5.26663,3.34 7.34202,7.91147 7.85252,17.29678 0.4521,8.3118 -0.73916,14.37188 -4.23904,21.56433 -10.81822,22.2321 -39.83764,31.33536 -60.47827,18.97179 -12.2452,-7.33478 -21.58288,-21.43148 -23.41755,-35.3525 -1.22454,-9.29149 6.94647,-29.40524 17.80444,-43.82744 6.7285,-8.93719 17.56272,-21.50952 28.0681,-32.57102 9.78471,-10.3027 11.20837,-12.05667 14.10505,-17.37757 2.61152,-4.7971 7.12547,-17.61056 6.64745,-18.8697 -0.15732,-0.41437 -3.45493,0.7918 -7.32807,2.68034 -22.90402,11.16797 -48.47162,22.53376 -61.76881,27.45864 -8.16605,3.02446 -11.14163,3.77203 -13.49878,3.39136 -3.40779,-0.55035 -25.48957,-8.82492 -34.86812,-13.06592 -3.38888,-1.53246 -14.94616,-6.94307 -25.68285,-12.02358 -10.73668,-5.08051 -19.77835,-9.08017 -20.0926,-8.88815 -0.9005,0.55024 1.72239,8.45725 4.89563,14.75845 3.9046,7.75349 9.60937,15.38239 19.59249,26.20072 24.58601,26.64291 29.72252,33.33372 36.63145,47.71599 2.31642,4.82207 4.48738,14.99589 4.48738,21.0293 0,12.42164 -6.02555,25.45734 -15.85033,34.29066 -7.8601,7.0669 -15.67643,9.89725 -27.23057,9.86039 -13.07102,-0.0419 -22.10087,-3.8513 -31.06796,-13.1072 -9.73897,-10.05265 -14.17685,-23.42717 -12.19783,-36.76091 1.30443,-8.78865 2.8652,-11.35387 8.79348,-14.45263 4.9643,-2.59488 5.27566,-2.64555 16.24577,-2.64394 12.19215,0.002 16.01425,1.0339 21.81538,5.89092 6.16259,5.15965 6.92964,9.87133 3.41718,20.99024 l -2.10724,6.6706 h -7.00603 c -3.85331,0 -7.00602,-0.13143 -7.00602,-0.29201 0,-0.16062 2.20751,-2.02634 4.90556,-4.14605 5.16029,-4.05416 8.80427,-8.92451 8.08319,-10.80359 -0.67712,-1.76454 -6.88402,-4.37979 -16.13777,-6.79958 -5.85468,-1.53095 -8.80202,-1.9637 -9.38739,-1.37834 -2.06083,2.06085 -4.86165,12.04216 -4.86165,17.32559 0,8.54985 5.42595,17.87598 12.42719,21.35989 13.87775,6.90573 26.82579,3.52494 35.27994,-9.21178 6.03784,-9.09641 7.47991,-17.58965 4.4874,-26.42927 -3.82997,-11.31344 -9.7194,-19.87604 -24.53536,-35.67182 -13.13124,-13.99963 -20.32219,-22.49436 -24.92424,-29.4432 -6.09103,-9.19713 -11.63288,-21.17563 -14.07545,-30.42356 -0.16988,-0.64317 -2.31235,2.89858 -4.76104,7.87055 -8.1041,16.45502 -19.99159,31.18885 -37.29921,46.2301 -3.6124,3.13936 -8.40772,7.02965 -10.65626,8.64506 l -4.08826,2.93712 0.45605,17.86626 c 0.49291,19.31134 2.09261,31.51689 4.49708,34.31245 3.26103,3.79142 8.36733,8.82242 8.95446,8.82242 0.3435,0 0.37368,-4.00776 0.0671,-8.90614 -0.30661,-4.89839 -0.78573,-13.32553 -1.06473,-18.727 -0.73332,-14.19674 1.24278,-23.90445 6.79429,-33.37739 2.00716,-3.42495 2.35387,-3.68362 3.11483,-2.32387 1.08688,1.94214 1.28613,49.40186 0.26168,62.32523 -0.72368,9.12909 -0.6962,9.39446 1.18002,11.3916 1.05653,1.12462 2.14474,2.04477 2.41825,2.04477 0.27351,0 0.95699,-2.88925 1.51885,-6.42055 1.04047,-6.53945 5.94173,-18.43383 7.59594,-18.43383 0.47814,0 0.86931,0.18886 0.86931,0.41968 0,0.23082 0.53599,4.05219 1.19108,8.49191 0.65509,4.43972 1.45012,12.43209 1.76674,17.76083 l 0.57567,9.68861 8.79637,2.04262 c 4.838,1.12344 12.33811,2.45668 16.66691,2.96275 4.3288,0.50607 8.80259,1.07366 9.94175,1.26133 5.52001,0.90936 31.52485,-0.34063 39.76699,-1.91147 z M 110.07406,216.04178 c 13.42789,-13.72749 21.21082,-25.03336 25.96518,-37.71827 4.349,-11.6034 4.39312,-11.8691 4.26501,-25.68284 -0.10188,-10.98485 -0.45667,-14.52923 -2.07119,-20.68998 l -1.94828,-7.43432 -7.49213,-4.99286 c -10.64252,-7.09234 -20.16529,-14.7608 -30.120088,-24.255014 -1.552753,-1.4809 -3.138806,-2.69255 -3.524572,-2.69255 -0.38576,0 -0.70958,3.63495 -0.71959,8.077674 -0.0307,13.53142 -1.77991,15.56704 -22.1738,25.80117 -15.37379,7.71493 -17.41386,9.37975 -30.00217,24.48354 -6.60377,7.92338 -15.53763,16.02979 -21.8652,19.84005 l -4.74788,2.85903 3.57191,2.0358 c 12.37562,7.05346 16.59929,9.54372 21.50357,12.67847 l 5.50448,3.51837 0.54374,-4.70207 c 0.84678,-7.3227 4.64447,-14.18624 11.91765,-21.53871 3.49519,-3.5333 8.9646,-8.17435 12.15425,-10.31346 l 5.79935,-3.8893 0.26743,2.11141 c 0.15892,1.25478 -1.1695,5.03036 -3.2743,9.3061 -3.15564,6.41045 -4.77987,8.42654 -14.9005,18.49543 l -11.3588,11.30073 8.4195,6.08993 c 9.12331,6.599 24.53497,19.89151 32.3888,27.93524 l 4.91428,5.0331 5.441711,-4.71031 c 2.992939,-2.59066 8.186689,-7.51653 11.541669,-10.94636 z m 321.99038,10.54063 c 11.12152,-11.37046 22.4235,-21.25752 31.88377,-27.89229 10.36521,-7.26939 25.28805,-16.89674 32.26656,-20.81652 6.77096,-3.80319 7.62093,-4.51619 6.30255,-5.28698 -4.4538,-2.60393 -15.36656,-11.05805 -18.12043,-14.03793 -1.73966,-1.88242 -6.31044,-7.18459 -10.15731,-11.78261 -3.84683,-4.59801 -8.51787,-9.58443 -10.3801,-11.08093 -1.86218,-1.49651 -9.34395,-5.84224 -16.62615,-9.65718 -21.02233,-11.01307 -22.6119,-12.90677 -22.10317,-26.332404 0.15625,-4.12548 -0.057,-6.58444 -0.55455,-6.39103 -0.44474,0.17289 -3.41833,2.65631 -6.60797,5.51871 -12.10109,10.859574 -20.20408,16.955694 -31.25063,23.510734 -3.53622,2.09841 -4.22311,3.88112 -6.0632,15.73612 -2.1232,13.67888 -1.2217,27.68295 2.4466,38.00609 2.39265,6.7333 8.34284,17.18218 14.48966,25.44473 5.39437,7.25111 27.32538,30.23949 28.84859,30.23949 0.3086,0 2.84022,-2.3301 5.62578,-5.178 z M 266.44851,189.40402 c 3.13876,-1.42416 12.12651,-5.14778 19.9728,-8.27471 24.10485,-9.60637 26.9802,-11.19968 47.04147,-26.06701 2.73398,-2.02615 8.37628,-5.93371 12.53844,-8.68349 5.72776,-3.78411 7.68032,-5.54414 8.03133,-7.23942 0.25506,-1.2319 1.82764,-8.57769 3.49461,-16.32396 1.66698,-7.74628 3.20434,-15.01619 3.41636,-16.15534 0.32029,-1.72096 -0.0793,-2.26507 -2.36316,-3.21768 -1.51175,-0.63057 -3.86709,-1.63252 -5.23408,-2.22656 -5.43967,-2.363864 -8.94634,-3.668584 -9.8358,-3.659564 -0.51394,0.005 -4.92572,3.894694 -9.80397,8.643304 -8.61446,8.38553 -11.25254,10.46027 -26.20424,20.60862 -17.079,11.59224 -22.50551,17.21396 -22.50551,23.3151 0,4.58353 1.82602,6.38332 8.36665,8.24647 2.91679,0.83087 7.11784,2.06989 9.33567,2.75338 3.39671,1.04679 4.1441,1.06386 4.74091,0.10825 0.3897,-0.62394 3.21331,-7.24145 6.27473,-14.70558 6.28042,-15.31246 6.76596,-15.46671 6.83021,-2.16996 0.0443,9.13442 -1.32477,13.59283 -5.56464,18.12347 -3.06693,3.27724 -10.81379,6.8261 -17.51504,8.02368 -4.76849,0.85217 -6.52055,0.79348 -11.8752,-0.39782 -7.49987,-1.66856 -9.69342,-3.23164 -12.53363,-8.93122 -1.74719,-3.50613 -2.1438,-5.48052 -2.1438,-10.67206 0,-14.27838 4.38332,-20.3635 24.12941,-33.49757 7.5453,-5.01872 15.95164,-11.05937 18.68076,-13.42365 4.72125,-4.090084 10.03932,-10.625624 9.27123,-11.393704 -0.19738,-0.19743 -4.26055,1.5147 -9.02922,3.80468 -12.92336,6.205984 -23.61841,10.642434 -30.93607,12.832704 -7.70842,2.30723 -18.60872,4.46352 -22.56362,4.46352 -1.54448,0 -2.80815,0.15552 -2.80815,0.34555 0,0.19008 0.75149,2.09874 1.66999,4.24151 3.19685,7.45792 4.28075,16.90013 3.65511,31.84072 -0.53048,12.66814 -0.7197,13.86875 -2.6441,16.7767 -2.45738,3.71336 -3.49869,3.96457 -3.53899,0.85377 -0.0161,-1.25308 -0.55443,-4.47619 -1.19598,-7.16248 -0.64156,-2.68629 -1.62301,-9.81875 -2.18098,-15.84993 -1.08016,-11.67526 -0.25297,-22.48994 2.16237,-28.27064 l 1.1366,-2.72027 -3.05304,-0.50097 c -12.45371,-2.04356 -25.8102,-6.5144 -41.87367,-14.016454 -11.77925,-5.50122 -15.31241,-7.07795 -15.86038,-7.07795 -0.27857,0 0.16696,1.16094 0.99014,2.57986 2.5144,4.33412 11.31163,11.765574 24.06629,20.329984 6.68227,4.48697 14.4927,10.34054 17.35649,13.00793 9.68849,9.02405 13.20271,20.47335 9.38633,30.58059 -3.85578,10.21165 -9.01295,12.79191 -23.88395,11.94977 -13.28442,-0.75228 -18.20286,-3.92632 -23.75158,-15.32771 -2.73528,-5.62041 -7.8368,-21.09225 -9.00455,-27.30893 -0.46159,-2.45734 -0.36385,-2.63481 1.03785,-1.88464 3.25,1.73935 16.56185,17.86922 22.76792,27.58771 l 3.04206,4.76376 h 6.60237 6.60237 v -5.49611 c 0,-6.87124 -1.34135,-11.46237 -4.17104,-14.27651 -1.20678,-1.20014 -6.96533,-5.53741 -12.79679,-9.63838 -14.61893,-10.28076 -25.53452,-19.01045 -31.94757,-25.54995 l -5.42025,-5.527124 -8.64572,3.369344 c -4.75515,1.85314 -8.77342,3.49703 -8.92949,3.65311 -0.47561,0.47561 6.04428,36.03473 6.70049,36.54409 0.0961,0.0746 2.66205,1.63467 5.70207,3.46683 3.04001,1.83214 11.24195,7.57429 18.22653,12.76033 17.76035,13.18701 23.04843,16.29913 34.65394,20.39441 7.71031,2.72078 9.684,3.53183 23.92073,9.82985 5.29796,2.34371 10.23353,4.30099 10.96791,4.34951 0.73439,0.0487 3.90332,-1.07699 7.04207,-2.50116 z m 6.12138,-102.940884 c 2.96164,-0.62807 7.43334,-1.81927 9.93711,-2.64713 5.00036,-1.65334 21.31489,-9.77029 23.04916,-11.46762 1.61965,-1.58515 -7.74766,-1.9139 -48.31344,-1.69555 -46.6446,0.25106 -45.35467,0.21313 -44.67446,1.31373 0.6966,1.12711 17.35252,9.11252 23.134,11.09122 13.04405,4.4643 26.16097,5.67587 36.86763,3.40535 z"
     id="path302" /><path
     style="fill:#ffffff;fill-rule:evenodd;stroke-width:0.828477"
     d="M 92.00445,224.62724 C 86.8905,219.37836 83.9475,210.07158 83.93113,199.09672 l -0.006,-4.19718 4.96123,-2.37126 c 2.72868,-1.30418 5.08946,-2.21157 5.24617,-2.0164 0.45399,0.56539 2.430099,21.15351 2.837119,29.55873 0.432433,8.9296 -0.167736,9.4804 -4.964939,4.55663 z"
     id="path304" /><path
     style="fill:#ffffff;fill-rule:evenodd;stroke-width:0.828477"
     d="m 57.41355,184.5438 c 0,-3.58358 10.98782,-16.86631 19.20834,-23.22018 9.63395,-7.44636 25.87539,-17.19626 26.91456,-16.15708 2.18852,2.18852 -5.939733,13.64224 -14.6823,20.6892 -6.00718,4.84209 -29.27639,19.62586 -30.89052,19.62586 -0.30256,0 -0.55008,-0.42201 -0.55008,-0.9378 z"
     id="path306" /><path
     style="fill:#ffffff;fill-rule:evenodd;stroke-width:0.828477"
     d="m 204.05432,162.13925 c -6.98933,-1.98611 -12.45221,-8.95638 -14.42183,-18.4013 -1.82028,-8.72873 -2.35832,-13.76444 -1.47067,-13.76444 0.90664,0 6.80324,6.87114 11.02011,12.84143 4.94788,7.00525 11.57684,19.11648 10.85714,19.83618 -0.63063,0.63063 -2.53841,0.46743 -5.98475,-0.51187 z"
     id="path308" /><path
     style="fill:#ffffff;fill-rule:evenodd;stroke-width:0.828477"
     d="m 274.22654,337.30038 c -2.40926,-16.52611 -4.06807,-42.67866 -4.19079,-66.0712 -0.10387,-19.79797 0.0506,-22.72601 1.34361,-25.47573 0.80353,-1.70874 1.77358,-3.10679 2.15567,-3.10679 1.38997,0 6.00816,11.62943 7.29188,18.36224 1.10713,5.80666 1.2351,11.06183 0.80371,33.00345 -0.28217,14.3534 -0.86917,29.22477 -1.30438,33.04749 -0.93275,8.19303 -3.37646,19.97517 -4.143,19.97517 -0.29565,0 -1.17617,-4.38058 -1.9567,-9.73463 z"
     id="path310" /><path
     style="fill:#ffffff;fill-rule:evenodd;stroke-width:0.828477"
     d="m 421.96122,213.44277 c -6.24752,-3.19233 -6.57564,-4.06817 -9.23375,-24.64725 -1.02346,-7.92362 -0.5975,-14.20862 1.37742,-20.32359 1.39311,-4.3135 6.41669,-11.98709 7.84745,-11.98709 0.50963,0 0.82294,5.41401 0.82705,14.29126 0.006,13.51139 1.35078,28.89288 3.24355,37.10653 1.02857,4.46351 1.124,7.42422 0.23928,7.42422 -0.35912,0 -2.29456,-0.83883 -4.30101,-1.86408 z"
     id="path312" /><path
     style="fill:#ffffff;fill-rule:evenodd;stroke-width:0.828477"
     d="m 443.72572,227.31247 c -2.24189,-1.57027 -6.25597,-8.64122 -7.99124,-14.07682 -3.19832,-10.01853 -4.66975,-27.52595 -3.09855,-36.86731 l 0.62707,-3.72816 2.67293,5.77531 c 1.47011,3.17642 3.91384,9.7007 5.43052,14.49839 5.81567,18.39661 10.31909,34.28583 9.90666,34.95313 -0.70905,1.14731 -5.63434,0.78542 -7.54739,-0.55454 z"
     id="path314" /><path
     style="fill:#ffffff;fill-rule:evenodd;stroke-width:0.828477"
     d="m 458.35248,219.59618 c -6.03031,-3.82866 -9.89685,-13.19718 -9.89685,-23.97979 0,-4.86764 1.06765,-4.37319 6.3266,2.92997 4.15285,5.7671 8.66594,15.29175 9.80641,20.69576 0.48237,2.28592 0.33245,2.69256 -0.99235,2.69256 -0.85834,0 -3.21803,-1.05232 -5.24381,-2.3385 z"
     id="path316" /></svg>
