<?xml version="1.0" encoding="UTF-8" standalone="no"?>
<!-- Created with Inkscape (http://www.inkscape.org/) -->

<svg
   width="512"
   height="512"
   viewBox="0 0 512 512"
   version="1.1"
   id="svg5"
   inkscape:version="1.2.1 (9c6d41e410, 2022-07-14)"
   sodipodi:docname="arrow.svg"
   xml:space="preserve"
   inkscape:export-filename="arrow.png"
   inkscape:export-xdpi="96"
   inkscape:export-ydpi="96"
   xmlns:inkscape="http://www.inkscape.org/namespaces/inkscape"
   xmlns:sodipodi="http://sodipodi.sourceforge.net/DTD/sodipodi-0.dtd"
   xmlns="http://www.w3.org/2000/svg"
   xmlns:svg="http://www.w3.org/2000/svg"><sodipodi:namedview
     id="namedview7"
     pagecolor="#ffffff"
     bordercolor="#999999"
     borderopacity="1"
     inkscape:pageshadow="0"
     inkscape:pageopacity="0"
     inkscape:pagecheckerboard="true"
     inkscape:document-units="px"
     showgrid="false"
     height="70mm"
     units="px"
     inkscape:zoom="2.9611953"
     inkscape:cx="251.9253"
     inkscape:cy="66.69604"
     inkscape:window-width="2560"
     inkscape:window-height="1351"
     inkscape:window-x="2391"
     inkscape:window-y="-9"
     inkscape:window-maximized="1"
     inkscape:current-layer="layer1"
     inkscape:showpageshadow="2"
     inkscape:deskcolor="#d1d1d1" /><defs
     id="defs2" /><g
     inkscape:label="Layer 1"
     inkscape:groupmode="layer"
     id="layer1"><path
       style="fill:#ffffff;fill-rule:evenodd;stroke-width:0.393643"
       d="m 121.33103,511.10621 c -0.94088,-1.03303 -2.83199,-4.55538 -2.83199,-5.27479 0,-0.26854 -0.26338,-0.71057 -0.58542,-0.98269 -0.46167,-0.39043 -0.58542,-1.52205 -0.58542,-5.37972 0,-2.6868 -0.10233,-5.15705 -0.22765,-5.48945 -0.27288,-0.72404 -1.50655,0.62231 -3.95301,4.31371 -0.86893,1.31112 -2.82557,3.6353 -4.34813,5.16491 -1.52249,1.5296 -2.77131,2.93228 -2.77503,3.11703 -0.0159,0.83601 -1.75928,2.71507 -3.01206,3.2483 -1.82155,0.77527 -5.149242,0.74573 -7.590712,-0.0673 -2.85277,-0.95052 -3.44144,-2.11908 -3.44326,-6.83573 -10e-4,-3.49513 0.0714,-3.8267 1.20701,-5.56216 0.66474,-1.015 1.73452,-2.27413 2.37745,-2.79802 1.3379,-1.09001 4.604512,-5.52086 4.604512,-6.2455 0,-0.5737 3.16904,-6.10623 4.56715,-7.97347 0.8759,-1.16976 0.90938,-1.33499 0.31729,-1.56663 -1.09143,-0.42637 -12.624512,0.10248 -13.220642,0.60586 -0.76945,0.65073 -7.597129,1.01971 -8.939469,0.48321 -1.462751,-0.58491 -2.249821,-2.50107 -1.732461,-4.21827 0.21339,-0.70758 1.198841,-2.26928 2.190171,-3.46985 0.9914,-1.20057 2.59226,-3.16423 3.55757,-4.3636 2.07134,-2.5737 4.00854,-4.08275 5.868559,-4.57139 l 1.34686,-0.35377 0.19514,-2.95614 c 0.11423,-1.7258 0.44502,-3.31502 0.795,-3.81848 0.32999,-0.4742 1.82186,-1.45414 3.31515,-2.17758 4.940052,-2.39299 10.490832,-8.85458 14.794782,-17.22239 1.01155,-1.96665 2.08601,-3.85797 2.38768,-4.20294 0.30146,-0.3448 0.55448,-0.79195 0.56162,-0.99324 0.0475,-1.37021 3.21751,-3.34583 5.36674,-3.34583 1.26429,0 2.8032,-1.42092 2.82453,-2.60804 0.024,-1.20685 0.73456,-2.2226 4.08136,-5.81265 1.71613,-1.84099 3.64619,-4.14108 4.28919,-5.11135 0.64254,-0.97019 1.27809,-1.8534 1.41144,-1.96261 0.13325,-0.10921 1.26206,-2.20488 2.50802,-4.65703 1.24604,-2.45209 2.73815,-4.98547 3.31579,-5.6297 1.237,-1.37971 5.35135,-3.40642 7.63251,-3.75984 0.88328,-0.13686 2.11187,-0.51759 2.73013,-0.84604 0.61794,-0.32836 1.34591,-0.59837 1.61697,-0.59987 0.27131,0 0.79761,-0.17279 1.17004,-0.38073 3.14152,-1.75362 6.66768,-2.78814 9.52489,-2.7945 4.11229,-0.007 3.89534,0.16455 9.44421,-7.56224 0.45057,-0.62755 2.05841,-2.8043 3.57305,-4.83744 1.51463,-2.03322 3.40725,-4.7376 4.20582,-6.00982 1.71389,-2.73041 3.8122,-5.47727 6.0149,-7.87437 2.47518,-2.69345 5.60067,-7.1789 8.86657,-12.72453 1.24049,-2.10644 3.52791,-5.17837 5.27504,-7.08421 1.10175,-1.20184 2.38396,-2.70258 2.84928,-3.33506 0.46564,-0.63279 1.47775,-1.88393 2.24966,-2.78112 2.86887,-3.33439 5.71553,-7.66202 6.56098,-9.97445 0.90502,-2.47542 3.68632,-6.98615 7.47688,-12.126 2.19912,-2.98202 5.42472,-8.10714 5.42472,-8.61943 0,-0.40691 3.36054,-5.47187 5.92448,-8.9293 1.24628,-1.68063 2.26592,-3.24449 2.26592,-3.47532 0,-0.466 3.66593,-5.6077 7.60213,-10.66318 1.40833,-1.80883 3.19212,-4.49061 3.96388,-5.95956 0.77183,-1.46895 1.53795,-2.84963 1.70247,-3.06811 0.38078,-0.50564 2.3274,-4.15552 4.66178,-8.7406 1.00132,-1.96665 2.55411,-4.67012 3.45072,-6.00772 0.8967,-1.3376 1.63029,-2.60699 1.63029,-2.82084 0,-0.21394 0.48228,-1.09548 1.07256,-1.95924 0.59018,-0.86368 1.24802,-1.85916 1.46252,-2.21221 0.2142,-0.35303 1.03123,-1.59924 1.81488,-2.76959 0.78373,-1.17028 2.21444,-3.64323 3.17943,-5.49544 0.96499,-1.85213 2.56148,-4.61073 3.54789,-6.13009 0.98633,-1.51936 1.79339,-2.89361 1.79339,-3.0539 0,-0.86167 6.52869,-9.85792 8.83579,-12.1753 0.93207,-0.93631 1.69755,-1.83021 1.70096,-1.98646 0.004,-0.15631 0.53941,-0.90086 1.19179,-1.6546 0.65205,-0.75365 1.97908,-2.58626 2.94891,-4.07226 0.96982,-1.48608 1.9253,-2.70191 2.12337,-2.70191 0.1983,0 0.36013,-0.25582 0.36013,-0.56771 0,-0.31189 0.22927,-0.80385 0.50929,-1.09264 0.28002,-0.28873 0.85061,-1.14575 1.26754,-1.90457 0.41724,-0.75874 1.50408,-2.51319 2.41576,-3.89873 0.91169,-1.38563 1.65758,-2.62794 1.65758,-2.76085 0,-0.13315 0.24669,-0.52358 0.54814,-0.86877 0.30145,-0.3448 1.37407,-2.23629 2.38309,-4.20294 1.00901,-1.96665 2.07847,-3.85797 2.37666,-4.20294 0.29827,-0.3448 0.54179,-0.85538 0.54179,-1.1343 0,-0.27898 0.49103,-1.24867 1.09183,-2.15499 1.20947,-1.82558 4.75848,-8.99879 4.75848,-9.61774 0,-0.66794 2.91297,-6.19435 4.69842,-8.91323 0.93279,-1.42033 3.54893,-4.63841 5.81367,-7.15138 2.26473,-2.51289 4.81884,-5.44809 5.67579,-6.52263 0.85695,-1.07453 2.36651,-2.96549 3.35458,-4.20212 0.98808,-1.23662 2.29512,-3.12862 2.90449,-4.20443 0.60922,-1.07581 2.21,-3.27844 3.55694,-4.89474 2.6558,-3.18689 7.66923,-10.6774 9.06853,-13.54924 0.47915,-0.98336 1.35527,-2.41364 1.94687,-3.17844 0.59177,-0.76481 1.52678,-2.1057 2.07801,-2.97978 0.5513,-0.87401 1.56477,-2.20323 2.25235,-2.95375 0.68775,-0.75052 1.618,-2.0914 2.06746,-2.97977 0.44978,-0.8883 1.69787,-2.95607 2.77423,-4.59488 1.07637,-1.63889 2.40007,-3.82125 2.94162,-4.84964 1.27586,-2.42291 3.82775,-6.266 4.79885,-7.22707 0.41886,-0.41437 1.52606,-1.34815 2.46051,-2.07473 2.11742,-1.64651 2.88458,-2.43106 3.83489,-3.92245 0.41171,-0.64625 1.48529,-1.98452 2.38507,-2.97319 2.12433,-2.33436 5.00335,-6.65996 6.18649,-9.29492 0.51482,-1.14665 1.8593,-3.11367 2.98746,-4.37116 2.01367,-2.24437 2.03771,-2.29994 1.30697,-3.0278 -0.43628,-0.43455 -2.03469,-1.00079 -3.86457,-1.36842 -1.71604,-0.34479 -3.49411,-0.71282 -3.95126,-0.81813 -1.85097,-0.42558 -2.7103,-4.91493 -1.45617,-7.60719 0.35063,-0.75306 3.07377,-3.74234 6.051,-6.64276 2.97723,-2.90041 5.2936,-5.39528 5.14748,-5.5442 -0.14598,-0.14885 -3.05814,-0.27079 -6.47102,-0.27079 h -6.20537 l -1.14006,-1.1613 c -0.62667,-0.63877 -1.1384,-1.48795 -1.13641,-1.88721 0.008,-2.03704 4.5646,-7.67533 8.23085,-10.18995 0.77501,-0.53181 2.37682,-1.74831 3.55964,-2.70392 1.18282,-0.95561 3.7079,-2.72076 5.6113,-3.9226 2.68484,-1.69528 5.18675,-3.91796 11.15962,-9.91447 4.23438,-4.25111 7.98836,-7.89426 8.34215,-8.09591 0.35382,-0.20196 1.01369,-0.6844 1.46656,-1.07327 0.45297,-0.38895 1.96409,-1.61106 3.35847,-2.71664 1.39428,-1.10551 2.79833,-2.25664 3.12015,-2.558 1.05701,-0.99032 6.50713,-4.4965201 7.85018,-5.0504001 0.72344,-0.29844 1.40302,-0.65746 1.51027,-0.79749 0.10708,-0.14062 0.4926,-0.42036 0.85639,-0.62231 0.3641,-0.20195 2.31337,-2.00936 4.33251,-4.01662 4.07604,-4.05229996 5.23664,-4.62800996 6.83822,-3.39265996 0.90304,0.69636996 1.03162,1.06563996 0.98522,2.82816996 -0.0318,1.11485 -0.33635,2.7479 -0.6822,3.62894 -0.34584,0.88111 -0.62905,2.68276 -0.62905,4.0038301 0,1.32099 -0.21576,2.79241 -0.47914,3.26969 -0.26338,0.47721 -0.5997,3.01321 -0.74725,5.63538 -0.39189,6.9611 -0.96372,11.84649 -1.86064,15.89198 -0.43628,1.96664 -0.99133,4.55904 -1.23415,5.76089 -0.24273,1.20184 -0.5759,2.45919 -0.7401,2.79413 -0.16418,0.33509 -0.42042,1.22885 -0.56797,1.98647 -0.14755,0.7577 -0.43309,1.82453 -0.63381,2.37078 -0.20069,0.54602 -0.53306,2.06597 -0.73931,3.3771 -0.60922,3.87734 -1.85811,8.7729 -2.64287,10.35697 -1.26666,2.55702 -2.83358,7.17875 -2.83746,8.36944 -10e-4,0.40765 -0.24831,1.22085 -0.54814,1.80703 -0.29983,0.58641 -0.67188,1.65168 -0.82657,2.36764 -0.15469,0.71581 -0.81014,2.29246 -1.45728,3.50313 -2.61511,4.89273 -3.01578,5.71804 -3.01578,6.2114 0,0.82861 -1.6552,2.42845 -2.95478,2.85584 -2.07158,0.6814 -3.67696,-0.74722 -5.65541,-5.03244 -2.15963,-4.67783 -2.47804,-5.21046 -3.11431,-5.21046 -0.72106,0 -2.95398,3.15772 -4.65622,6.58486 -1.21915,2.45463 -3.40908,5.76179 -4.71247,7.11675 -0.63381,0.65896 -1.28118,0.78934 -3.91041,0.78934 -3.06322,0 -3.18269,-0.0376 -4.28459,-1.29228 -0.6235,-0.71058 -1.13348,-1.64696 -1.13348,-2.08056 0,-0.43383 -0.17451,-0.78837 -0.38788,-0.78837 -0.55766,0 -2.73259,3.17036 -2.73259,3.98401 0,0.3777 -0.26338,0.90886 -0.58542,1.1809 -0.32206,0.27225 -0.58542,0.63353 -0.58542,0.80332 0,0.54228 -2.73109,4.48291 -4.75982,6.86745 -1.07962,1.26893 -2.60028,3.15974 -3.37926,4.20174 -1.28054,1.71286 -4.15227,4.49592 -6.81212,6.60199 -0.55211,0.43679 -1.01164,0.95928 -1.02155,1.16056 -0.008,0.20121 -0.26573,0.64849 -0.56955,0.99331 -0.30302,0.34479 -1.14197,1.7893 -1.86383,3.20963 -1.49179,2.93527 -3.06742,5.52213 -4.59776,7.5487 -0.57749,0.7648 -1.38589,2.01077 -1.79632,2.76884 -0.41009,0.75808 -2.06261,3.14134 -3.6714,5.29618 -3.14175,4.20802 -3.81356,5.28159 -6.05585,9.67751 -0.79777,1.56409 -2.21872,3.73837 -3.15761,4.83168 -0.93889,1.09339 -1.70716,2.10937 -1.70716,2.25783 0,0.23861 -2.46772,3.34771 -4.40397,5.54855 -0.38475,0.43679 -1.16188,1.59909 -1.7277,2.58268 -1.67313,2.90819 -6.05045,8.45031 -12.23202,15.48695 -2.05579,2.34018 -4.62711,5.60329 -5.71387,7.2513 -1.95346,2.96205 -4.78394,8.52054 -4.78394,9.39447 0,0.54977 -3.59367,7.6419 -4.62426,9.12618 -0.40696,0.58641 -1.78315,3.12227 -3.05766,5.63516 -1.2746,2.51289 -3.27066,5.96756 -4.43563,7.6769 -1.16505,1.70935 -2.28964,3.40785 -2.49913,3.77435 -0.46564,0.81432 -4.16704,6.50109 -5.47654,8.41373 -2.33398,3.40904 -4.78941,6.63513 -6.16491,8.09974 -2.40696,2.563 -8.45368,11.11496 -8.45368,11.95613 0,0.15558 -0.94119,1.74046 -2.09149,3.52228 -1.15037,1.78183 -2.53277,4.22291 -3.07194,5.42476 -0.53941,1.20184 -2.32018,4.18932 -3.95753,6.63879 -1.63735,2.44953 -3.15849,4.86309 -3.38012,5.36357 -0.51561,1.16474 -0.97681,1.93313 -3.00484,5.0103 -0.91026,1.38121 -1.65504,2.68014 -1.65504,2.8865 0,0.44807 -1.89841,4.00368 -3.91406,7.33052 -0.79928,1.31912 -1.9913,3.57075 -2.64899,5.00372 -0.6576,1.43289 -2.36127,4.00233 -3.78579,5.70981 -1.42444,1.70747 -2.99793,3.76283 -3.49649,4.56735 -0.49896,0.80459 -1.14173,1.71488 -1.4292,2.02296 -0.51404,0.55051 -2.67476,3.75551 -3.0564,4.53303 -0.54972,1.11949 -2.70832,4.30369 -4.7254,6.96969 -1.24699,1.64816 -2.65168,3.88296 -3.12144,4.96625 -1.0693,2.46547 -2.14067,4.16367 -5.62907,8.92235 -3.94088,5.37591 -7.19519,10.5275 -7.19519,11.39014 0,1.14478 -1.40897,3.56155 -4.44046,7.61662 -1.52622,2.04159 -3.15976,4.24318 -3.63008,4.89249 -0.47038,0.64925 -2.19564,2.67648 -3.83386,4.5049 -2.87617,3.20993 -5.53531,6.92848 -6.67855,9.33935 -1.08619,2.2906 -5.51293,8.34522 -8.2786,11.32305 -2.73133,2.94081 -4.19004,4.87896 -5.70514,7.57989 -0.64333,1.14717 -1.65402,2.68216 -2.24554,3.41113 -1.54652,1.90584 -7.95457,10.85355 -8.45479,11.80565 -0.42042,0.80085 -0.25937,1.96335 0.85964,6.20623 0.45928,1.74091 0.80142,3.99089 1.48005,9.73383 0.50611,4.28253 0.22766,15.39667 -0.40217,16.03791 -0.22134,0.22588 -0.403,0.6627 -0.403,0.97072 0,0.30818 -1.05312,2.77004 -2.34016,5.47082 -1.28705,2.70079 -2.3401,5.15721 -2.3401,5.45872 0,0.30145 -0.49421,1.24552 -1.09905,2.09776 -0.60446,0.85217 -1.59134,2.40728 -2.1931,3.45572 -0.70282,1.22458 -1.81409,2.37541 -3.10732,3.21808 -2.10656,1.37275 -4.1311,3.51937 -4.1311,4.38028 0,0.47273 -0.75517,2.32986 -1.58515,3.89881 -0.20069,0.37922 -0.37124,0.91582 -0.37839,1.19198 -0.007,0.276 -0.3522,1.2171 -0.76707,2.09118 -0.41406,0.87408 -0.75914,1.99133 -0.76707,2.4829 -0.008,0.69935 -2.8957,7.12191 -5.04223,11.22394 -2.36865,4.52652 -3.48959,6.47379 -5.21246,9.0549 -1.95869,2.93475 -2.85158,4.58395 -3.74375,6.91539 -0.46407,1.21388 -1.7292,2.16695 -3.86178,2.91007 -1.29602,0.45176 -1.47291,0.67466 -1.58357,1.99776 -0.10076,1.20812 -0.56083,1.93418 -2.43758,3.84563 -1.27222,1.29594 -2.31312,2.44535 -2.31312,2.5541 0,0.28498 -2.62693,5.64481 -3.57154,7.28729 -0.44024,0.7648 -1.40763,2.15035 -2.15042,3.07903 -1.20525,1.50679 -1.52937,1.68855 -3.01164,1.68855 -1.22122,0 -1.87652,-0.23636 -2.4751,-0.8939 z m 3.15825,-8.7406 c 1.05431,-1.10408 2.20016,-3.43671 2.20016,-4.47901 0,-1.23446 1.57817,-3.59118 2.63336,-3.93233 1.00441,-0.32461 1.82574,-1.80605 1.29887,-2.34272 -0.23241,-0.23637 -0.42199,-1.23192 -0.42199,-2.21206 0,-2.6562 1.04892,-3.62117 3.93627,-3.62117 2.94606,0 3.34903,-0.19819 3.90661,-1.91907 0.46324,-1.42923 2.73862,-5.12527 4.54049,-7.3748 1.65766,-2.06942 8.28766,-15.39195 8.28766,-16.65341 0,-0.70833 2.00137,-5.96965 3.53917,-9.30472 0.62746,-1.36116 1.14109,-2.75336 1.14109,-3.09392 0,-0.6986 3.33792,-4.15746 4.03352,-4.17945 0.91494,-0.0297 2.53198,-1.85295 4.2961,-4.84589 0.996,-1.68975 1.81091,-3.26401 1.81091,-3.49835 0,-0.23412 1.08398,-2.69562 2.40887,-5.46963 l 2.40886,-5.04359 -0.0396,-8.14469 c -0.0318,-6.32845 -0.17691,-8.53228 -0.65364,-9.88312 -0.33791,-0.95614 -0.61397,-2.16299 -0.61397,-2.68179 0,-0.51909 -0.11104,-0.94327 -0.2467,-0.94327 -0.41171,0 -2.05198,2.07601 -3.13921,3.97302 -0.564,0.98328 -1.4975,2.41356 -2.0753,3.17836 -0.57749,0.7648 -1.80639,2.88045 -2.73013,4.70146 -0.92375,1.82095 -1.87834,3.51944 -2.12124,3.77436 -0.24273,0.25503 -0.87027,1.17857 -1.39406,2.05266 -0.52354,0.87408 -1.33496,1.95221 -1.80258,2.39583 -0.4672,0.44352 -3.20069,4.377 -6.07345,8.74067 -7.94156,12.0628 -9.17562,13.85517 -10.24342,14.87698 -0.54179,0.51836 -0.98514,1.19174 -0.98514,1.49594 0,0.30443 -0.41009,1.12234 -0.9116,1.81795 -0.50132,0.69562 -1.35789,2.15865 -1.90325,3.25122 -0.54575,1.09256 -1.3521,2.61222 -1.79283,3.37703 -0.44024,0.7648 -1.18385,2.10569 -1.65147,2.97978 -0.4672,0.87408 -1.32473,2.21497 -1.90468,2.97977 -0.94848,1.25091 -4.50289,6.53923 -5.16652,7.68693 -4.09651,7.08473 -3.83053,6.39323 -3.83053,9.95844 0,2.18371 0.21816,3.83928 0.64015,4.85286 0.48389,1.16182 0.6822,3.24037 0.81031,8.49114 0.15072,6.16435 0.55448,9.53517 1.1426,9.53517 0.10629,0 0.40613,-0.22364 0.66712,-0.49667 z m -7.31505,-31.14772 c 0.66554,-0.78619 1.71874,-2.42201 2.34009,-3.63515 0.62112,-1.21313 1.70018,-2.96826 2.39737,-3.90023 0.69726,-0.93198 1.26753,-1.80725 1.26753,-1.94503 0,-0.13764 0.67902,-1.08718 1.509,-2.10966 1.26659,-1.56058 3.37981,-5.28182 6.20902,-10.93395 0.86607,-1.73022 8.1298,-12.4596 9.05322,-13.37266 0.41406,-0.40915 3.78397,-5.78467 3.98538,-6.3568 0.115,-0.32763 1.19638,-1.89484 2.40228,-3.48234 1.20582,-1.58757 2.19246,-2.98038 2.19246,-3.09519 0,-0.30443 1.57897,-2.57213 2.75132,-3.95094 1.7722,-2.08431 3.91358,-5.38886 5.44274,-8.39892 0.81546,-1.60531 1.93807,-3.47001 2.49462,-4.14378 0.55686,-0.67392 1.01195,-1.3937 1.01195,-1.59977 0,-0.20643 0.43867,-1.08276 0.97506,-1.94817 0.53624,-0.86533 0.97507,-1.75572 0.97507,-1.97862 0,-0.56247 -1.01862,-0.50564 -2.47622,0.13691 -0.67585,0.29843 -1.93101,0.8147 -2.78907,1.14799 -0.85806,0.33285 -2.85523,1.16213 -4.43816,1.84181 -1.58286,0.67991 -3.28875,1.2358 -3.79064,1.2358 -1.49623,0 -4.05724,1.60269 -5.01112,3.13581 -0.49021,0.78829 -1.57088,2.6847 -2.40118,4.21431 -0.83021,1.5296 -1.72437,3.13865 -1.98686,3.57568 -0.26254,0.4368 -0.60128,1.06272 -0.75279,1.39056 -0.541,1.17223 -2.67651,3.8235 -5.48311,6.80776 -1.56905,1.66843 -2.85277,3.33073 -2.85277,3.69409 0,1.01665 -2.50913,4.77843 -3.82284,5.73128 -0.70362,0.51012 -1.77308,0.85313 -2.67278,0.8568 -0.8249,0.004 -1.68574,0.13764 -1.91301,0.2977 -0.55289,0.39121 -4.07207,6.36241 -4.07207,6.91045 0,1.12181 -3.96214,6.87052 -7.33575,10.64352 -2.57394,2.87858 -4.54771,4.67737 -6.29929,5.74077 -3.83815,2.33016 -4.04653,2.55934 -3.33412,3.66694 0.84291,1.31053 0.70838,3.34217 -0.30302,4.58897 -0.947942,1.16789 -4.057242,2.87139 -6.004122,3.28959 -1.1238,0.24158 -3.2444,2.37684 -3.24511,3.26797 -1.6e-4,0.17878 5.57227,0.27527 12.383132,0.2154 l 12.38345,-0.10921 z M 388.9727,81.6299 c 0.81332,-1.58145 2.31209,-4.12912 3.33062,-5.66149 2.27005,-3.41518 4.67123,-8.58255 4.66797,-10.04566 -0.001,-0.59614 -0.23798,-1.53081 -0.52592,-2.07705 -0.28795,-0.54602 -0.93739,-1.79783 -1.44325,-2.78112 -1.21414,-2.36008 -1.78481,-2.76773 -3.26787,-2.33442 -0.65523,0.19146 -1.78308,0.34782 -2.50699,0.34782 -1.26397,0 -3.17364,1.2435 -4.73429,3.08269 -0.32205,0.37922 -1.3724,1.40507 -2.33469,2.27975 -3.6657,3.332 -8.58592,8.41224 -8.58592,8.86521 0,0.27674 0.57511,0.47273 1.38652,0.47273 3.88464,0 9.82236,5.27187 10.85129,9.6345 0.46564,1.97293 1.54367,1.36505 3.16245,-1.78279 z m 19.31162,-5.2038 c 0,-0.27674 0.20466,-0.71133 0.45532,-0.96654 0.59731,-0.6081 1.36899,-2.77326 2.29908,-6.44903 0.41489,-1.63881 0.99783,-3.60545 1.29585,-4.37026 0.29827,-0.7648 0.84379,-2.19508 1.21289,-3.17844 0.36884,-0.98328 0.91541,-2.2624 1.21407,-2.84237 0.29827,-0.57968 0.54258,-1.53626 0.54258,-2.12507 0,-0.58865 0.25227,-1.63395 0.56083,-2.32253 0.3086,-0.68889 0.63857,-2.23525 0.73375,-3.43709 0.0944,-1.20185 0.55608,-3.43664 1.02497,-4.96625 0.46881,-1.5296 1.00957,-3.58563 1.20098,-4.56892 0.19115,-0.98336 0.62429,-2.68178 0.96221,-3.77435 1.22209,-3.95297 2.81922,-14.87907 2.30257,-15.7527 -0.35694,-0.60361 -9.68306,8.71539 -11.76169,11.75216 -0.5878,0.8589 -2.23435,2.77214 -3.65872,4.25156 -1.99249,2.06949 -3.06036,3.65445 -4.63028,6.87246 -1.1223,2.30039 -2.27759,4.38305 -2.56744,4.62808 -0.6814,0.57594 -2.95026,0.57295 -4.011,-0.006 -1.48257,-0.80844 -1.09055,-2.88586 1.5398,-8.159 1.92879,-3.86687 2.84944,-5.22594 4.97273,-7.34084 1.43317,-1.42743 2.95669,-3.15196 3.38576,-3.83224 1.26166,-2.00053 6.87424,-8.22651 8.75757,-9.71461 0.95539,-0.755 2.09625,-1.80052 2.53507,-2.3235 0.43868,-0.52283 1.13824,-1.28278 1.55407,-1.68848 0.64729,-0.63129 0.66474,-0.7375 0.12058,-0.7375 -0.34981,0 -0.75042,0.18999 -0.89146,0.42186 -0.1404,0.23187 -0.6338,0.59688 -1.09556,0.81163 -1.26349,0.58641 -2.35222,1.26504 -3.60802,2.24811 -0.6227,0.48767 -2.00939,1.55099 -3.08194,2.36367 -1.07256,0.81267 -2.62344,2.10943 -3.44644,2.88172 -0.823,0.77235 -1.81845,1.58301 -2.21214,1.80149 -0.39346,0.21841 -4.32774,4.01774 -8.74243,8.44268 -4.41467,4.42494 -8.22046,8.04528 -8.45732,8.04528 -0.2372,0 -1.07018,0.51386 -1.85185,1.14178 -0.78135,0.62755 -2.12322,1.52227 -2.98128,1.98744 -1.7714,0.96025 -8.73663,6.44858 -8.76011,6.9026 -0.0156,0.32763 10.24833,0.51237 17.95842,0.32315 2.69951,-0.0673 5.27552,-0.002 5.7245,0.14363 0.79531,0.25728 2.43314,2.6117 2.43314,3.4979 0,0.24309 0.25066,0.72479 0.55686,1.06983 0.3062,0.34479 1.09603,1.73463 1.75507,3.08808 1.10064,2.26023 1.19828,2.78995 1.19828,6.49825 0,3.80284 0.0635,4.12156 1.08414,5.48518 0.59653,0.79623 1.48592,2.29658 1.9771,3.33418 0.78135,1.64995 0.98736,1.83492 1.646,1.4759 0.41406,-0.22588 0.75279,-0.63653 0.75279,-0.91305 z"
       id="path371" /></g></svg>
