<?xml version="1.0" encoding="UTF-8" standalone="no"?>
<svg
   height="512"
   width="512"
   version="1.1"
   id="svg33"
   sodipodi:docname="axe_one_handed.svg"
   inkscape:version="1.2.1 (9c6d41e410, 2022-07-14)"
   inkscape:export-filename="one_handed_axe.png"
   inkscape:export-xdpi="96"
   inkscape:export-ydpi="96"
   xmlns:inkscape="http://www.inkscape.org/namespaces/inkscape"
   xmlns:sodipodi="http://sodipodi.sourceforge.net/DTD/sodipodi-0.dtd"
   xmlns:xlink="http://www.w3.org/1999/xlink"
   xmlns="http://www.w3.org/2000/svg"
   xmlns:svg="http://www.w3.org/2000/svg">
  <sodipodi:namedview
     id="namedview35"
     pagecolor="#ffffff"
     bordercolor="#000000"
     borderopacity="0.25"
     inkscape:showpageshadow="2"
     inkscape:pageopacity="0.0"
     inkscape:pagecheckerboard="true"
     inkscape:deskcolor="#d1d1d1"
     showgrid="false"
     inkscape:zoom="1.4183568"
     inkscape:cx="94.475523"
     inkscape:cy="224.55563"
     inkscape:window-width="2560"
     inkscape:window-height="1351"
     inkscape:window-x="2391"
     inkscape:window-y="-9"
     inkscape:window-maximized="1"
     inkscape:current-layer="svg33" />
  <defs
     id="defs31">
    <g
       id="shape0">
      <path
         d="M 100,100 H 0 V 0 h 100 v 100"
         fill="#00cc66"
         fill-opacity="0"
         fill-rule="evenodd"
         stroke="none"
         id="path8" />
      <path
         d="M 84.3,84.3 V 15.7 H 15.7 v 68.6 h 68.6 m 7.95,7.95 H 7.75 V 7.75 h 84.5 v 84.5"
         fill="#666666"
         fill-opacity="0"
         fill-rule="evenodd"
         stroke="none"
         id="path10" />
      <path
         d="M 84.3,84.3 H 15.7 V 15.7 H 84.3 V 84.3 M 76.4,76.4 V 23.55 H 23.55 V 76.4 H 76.4"
         fill="#999999"
         fill-opacity="0"
         fill-rule="evenodd"
         stroke="none"
         id="path12" />
      <path
         d="M 92.25,92.25 V 7.75 H 7.75 v 84.5 h 84.5 m 3.8,3.8 H 3.95 V 3.95 h 92.1 v 92.1"
         fill="#333333"
         fill-opacity="0"
         fill-rule="evenodd"
         stroke="none"
         id="path14" />
      <path
         d="M 68.85,68.85 V 31.1 H 31.1 V 68.85 H 68.85 M 76.4,76.4 H 23.55 V 23.55 H 76.4 V 76.4"
         fill="#cccccc"
         fill-opacity="0"
         fill-rule="evenodd"
         stroke="none"
         id="path16" />
      <path
         d="M 68.85,68.85 H 31.1 V 31.1 h 37.75 v 37.75"
         fill="#ffffff"
         fill-opacity="0"
         fill-rule="evenodd"
         stroke="none"
         id="path18" />
      <path
         d="M 96.05,96.05 V 3.95 H 3.95 v 92.1 h 92.1 M 100,100 H 0 V 0 h 100 v 100"
         fill="#000000"
         fill-opacity="0"
         fill-rule="evenodd"
         stroke="none"
         id="path20" />
      <path
         d="M 0,50 H 50 L 0,0 M 50,50 V 0 m 0,100 V 50 L 0,100 M 100,50 H 50 l 50,50 M 50,50 100,0"
         fill="none"
         stroke="#000000"
         stroke-linecap="round"
         stroke-linejoin="round"
         stroke-opacity="0"
         stroke-width="0.05"
         id="path22" />
    </g>
    <g
       id="sprite0"
       transform="translate(53.55,-0.05)">
      <use
         height="923.79999"
         transform="translate(-53.55,0.05)"
         width="701.84998"
         xlink:href="#shape1"
         id="use25" />
    </g>
    <g
       id="shape1"
       transform="translate(53.55,-0.05)">
      <path
         d="M 459.3,367.7 Q 441.4,364.9 424,363 296.4,351.95 194.35,422.75 l 410.55,410.35 13.65,-13.85 29.75,29.8 -74.85,74.8 L 543.7,894.1 556.65,881.15 146.1,470.8 l -35.5,35.7 -20,-19.95 q -67.2,-16.4 -125.45,31.25 -13.6,-72.3 18.1,-138.65 l -30,-29.95 35.5,-35.75 -42.3,-42.5 48.25,-48.05 42.35,42.5 Q 68.3,225 84,178.65 111.45,98.5 91.65,0.05 154.2,21.1 208.2,54.7 360.85,149.1 447.35,339.8 l 11.95,27.9 M 78.3,306.45 154.6,383 q 15.95,-15.95 15.95,-38.5 0,-22.55 -15.95,-38.25 -15.95,-15.95 -38.05,-15.75 -22.35,0 -38.25,15.95"
         fill="#ffffff"
         fill-rule="evenodd"
         stroke="none"
         id="path28" />
    </g>
  </defs>
  <g
     inkscape:groupmode="layer"
     id="layer1"
     inkscape:label="Layer 1">
    <path
       d="M 459.3,367.7 Q 441.4,364.9 424,363 296.4,351.95 194.35,422.75 l 410.55,410.35 13.65,-13.85 29.75,29.8 -74.85,74.8 L 543.7,894.1 556.65,881.15 146.1,470.8 l -35.5,35.7 -20,-19.95 q -67.2,-16.4 -125.45,31.25 -13.6,-72.3 18.1,-138.65 l -30,-29.95 35.5,-35.75 -42.3,-42.5 48.25,-48.05 42.35,42.5 Q 68.3,225 84,178.65 111.45,98.5 91.65,0.05 154.2,21.1 208.2,54.7 360.85,149.1 447.35,339.8 l 11.95,27.9 M 78.3,306.45 154.6,383 q 15.95,-15.95 15.95,-38.5 0,-22.55 -15.95,-38.25 -15.95,-15.95 -38.05,-15.75 -22.35,0 -38.25,15.95"
       fill="#ffffff"
       fill-rule="evenodd"
       stroke="none"
       id="path253"
       transform="matrix(0.51174413,0,0,0.51214393,103.86807,19.318321)" />
  </g>
</svg>
