<?xml version="1.0" encoding="UTF-8" standalone="no"?>
<!-- Created with Inkscape (http://www.inkscape.org/) -->

<svg
   width="512"
   height="512"
   viewBox="0 0 512 512"
   version="1.1"
   id="svg5"
   inkscape:version="1.2.1 (9c6d41e410, 2022-07-14)"
   sodipodi:docname="two_handed_axe.svg"
   xml:space="preserve"
   inkscape:export-filename="two_handed_axe.png"
   inkscape:export-xdpi="96"
   inkscape:export-ydpi="96"
   xmlns:inkscape="http://www.inkscape.org/namespaces/inkscape"
   xmlns:sodipodi="http://sodipodi.sourceforge.net/DTD/sodipodi-0.dtd"
   xmlns="http://www.w3.org/2000/svg"
   xmlns:svg="http://www.w3.org/2000/svg"><sodipodi:namedview
     id="namedview7"
     pagecolor="#ffffff"
     bordercolor="#999999"
     borderopacity="1"
     inkscape:pageshadow="0"
     inkscape:pageopacity="0"
     inkscape:pagecheckerboard="true"
     inkscape:document-units="px"
     showgrid="false"
     height="70mm"
     units="px"
     inkscape:zoom="1.0469406"
     inkscape:cx="-108.8887"
     inkscape:cy="160.94514"
     inkscape:window-width="2560"
     inkscape:window-height="1351"
     inkscape:window-x="2391"
     inkscape:window-y="-9"
     inkscape:window-maximized="1"
     inkscape:current-layer="layer1"
     inkscape:showpageshadow="2"
     inkscape:deskcolor="#d1d1d1" /><defs
     id="defs2" /><g
     inkscape:label="Layer 1"
     inkscape:groupmode="layer"
     id="layer1"><path
       style="fill:#ffffff;fill-rule:evenodd;stroke-width:0.224139"
       d="m 412.4073,511.61542 c -0.84664,-0.44761 -1.0937,-0.803 -2.60056,-3.73918 -0.91577,-1.78445 -1.79676,-3.39574 -1.95781,-3.58063 -0.16088,-0.18478 -0.46247,-0.6711 -0.66987,-1.08037 -0.40832,-0.8057 -2.42842,-3.71985 -3.42851,-4.94598 -0.34035,-0.41735 -0.7132,-0.92177 -0.82821,-1.12068 -0.11522,-0.19911 -0.54229,-0.71464 -0.94949,-1.14611 -0.40726,-0.43168 -1.06062,-1.38966 -1.4519,-2.12931 -1.28878,-2.43622 -4.36642,-6.5885 -7.13959,-9.63241 -0.8013,-0.87956 -2.08105,-2.46065 -2.84396,-3.51357 -0.76285,-1.05287 -1.85804,-2.45942 -2.43377,-3.12564 -0.57569,-0.66616 -1.57636,-2.02487 -2.22373,-3.01935 -0.64731,-0.99448 -1.62961,-2.27387 -2.18278,-2.84307 -0.55322,-0.56922 -1.4143,-1.72237 -1.91353,-2.56255 -0.49911,-0.84021 -1.55979,-2.55603 -2.35678,-3.81298 -0.79705,-1.25693 -1.6834,-2.87072 -1.96976,-3.58622 -0.28619,-0.71547 -0.75414,-1.67712 -1.03954,-2.13694 -0.28567,-0.45982 -0.51876,-0.94479 -0.51876,-1.07768 0,-0.37274 -3.18229,-6.42628 -4.22608,-8.03914 -0.5108,-0.7896 -0.9291,-1.55501 -0.9291,-1.70092 0,-0.42234 -2.17663,-4.59816 -3.03835,-5.82902 -0.43168,-0.61638 -1.19087,-1.85744 -1.68738,-2.75791 -0.49646,-0.90046 -1.40146,-2.40113 -2.01096,-3.33481 -0.60951,-0.93367 -1.1082,-1.79035 -1.1082,-1.90372 0,-0.11341 -0.3685,-0.78128 -0.81823,-1.48418 -0.45027,-0.70292 -1.30514,-2.42874 -1.9002,-3.83517 -0.59507,-1.40642 -1.43719,-3.15352 -1.87137,-3.88246 -0.43434,-0.72892 -0.78951,-1.36825 -0.78951,-1.42072 0,-0.2639 -1.56908,-3.38406 -2.6974,-5.36387 -0.70259,-1.23276 -1.60721,-2.84656 -2.01027,-3.58622 -0.40301,-0.73966 -1.0559,-1.79871 -1.45063,-2.35346 -0.39504,-0.55474 -0.89214,-1.4625 -1.10527,-2.01724 -0.21292,-0.55475 -0.69468,-1.39511 -1.07008,-1.86748 -0.3754,-0.47236 -1.36046,-2.18704 -2.18905,-3.81036 -2.03921,-3.9951 -5.00858,-9.3646 -5.8755,-10.62462 -0.39027,-0.56721 -1.05329,-1.84653 -1.47351,-2.84291 -0.42,-0.99639 -0.90929,-1.97224 -1.08696,-2.16861 -0.17734,-0.19636 -0.55672,-0.95282 -0.84239,-1.68104 -0.28566,-0.72821 -1.25214,-2.52941 -2.14768,-4.00263 -0.89549,-1.47324 -1.8573,-3.13747 -2.13734,-3.69829 -0.71012,-1.42209 -2.10882,-3.94519 -3.36107,-6.06281 -1.51524,-2.56251 -3.68156,-6.89866 -4.25512,-8.51727 -0.32761,-0.92458 -0.94376,-2.39948 -1.36923,-3.27756 -0.42531,-0.87809 -0.77347,-1.76476 -0.77347,-1.97039 0,-0.20564 -0.29416,-0.94971 -0.65331,-1.65351 -0.99335,-1.94568 -1.51747,-3.1944 -1.80707,-4.30548 -0.4131,-1.58554 -6.24946,-12.68923 -7.53591,-14.33751 -0.62857,-0.80535 -1.60046,-2.22074 -2.15979,-3.14531 -1.14845,-1.89841 -4.45419,-8.636 -4.86808,-9.92186 -0.30903,-0.95967 -1.51127,-3.2932 -3.51463,-6.82088 -1.63429,-2.87778 -2.84528,-5.23567 -4.18642,-8.1512 -0.54244,-1.17913 -1.32855,-2.65954 -1.74691,-3.28982 -0.41841,-0.63028 -1.2146,-1.9126 -1.76937,-2.84959 -0.5547,-0.93699 -1.49219,-2.48245 -2.08328,-3.43435 -0.59108,-0.95189 -2.04499,-3.64709 -3.23092,-5.98934 -1.18594,-2.34225 -2.417,-4.72106 -2.73569,-5.28625 -1.28347,-2.27628 -2.04261,-3.50833 -2.81932,-4.57585 -0.44867,-0.61639 -1.47176,-2.28061 -2.2739,-3.6983 -0.80214,-1.41767 -1.70581,-2.90199 -2.00809,-3.29846 -0.30213,-0.39648 -1.11011,-2.16158 -1.79502,-3.92243 -0.6849,-1.76086 -1.84227,-4.38285 -2.57193,-5.82664 -1.37581,-2.72246 -1.97125,-4.20433 -2.45751,-6.11632 -0.31753,-1.24826 -0.89926,-2.48808 -2.09502,-4.46449 -0.44124,-0.72959 -0.86857,-1.68779 -0.94922,-2.12932 -0.0807,-0.4415 -0.52513,-1.55924 -0.98798,-2.48381 -0.46248,-0.92457 -0.91116,-1.9332 -0.99659,-2.24139 -0.15345,-0.55414 -0.83448,-2.13759 -2.69868,-6.27588 -0.52779,-1.17113 -1.27238,-2.88976 -1.65521,-3.81919 -0.42478,-1.03093 -1.18152,-2.27481 -1.94119,-3.19003 -1.27997,-1.54205 -3.33532,-5.51895 -3.9735,-7.68832 -0.4354,-1.47945 -1.34065,-3.25268 -2.13319,-4.17788 -1.07798,-1.25847 -1.52963,-2.01115 -2.49967,-4.16586 -0.51611,-1.14638 -1.41404,-2.86105 -1.99545,-3.81037 -0.58147,-0.94932 -1.53877,-2.58337 -2.12741,-3.63122 -0.58864,-1.04785 -1.46246,-2.51035 -1.94188,-3.25001 -0.9266,-1.42974 -3.41772,-5.92585 -4.07666,-7.35797 -0.21717,-0.47188 -0.93834,-1.63179 -1.60259,-2.5776 -0.66431,-0.9458 -1.52528,-2.35151 -1.91326,-3.12379 -0.38815,-0.77228 -1.07576,-1.98263 -1.52836,-2.68966 -0.75914,-1.1857 -2.9776,-5.47509 -2.9776,-5.75705 0,-0.0674 -0.86921,-1.86266 -1.93153,-3.98937 -1.83303,-3.6695 -2.97548,-6.15227 -3.91286,-8.50326 -0.23044,-0.57768 -0.84409,-1.73759 -1.36397,-2.5776 -1.01145,-1.63445 -2.79898,-5.17523 -3.9958,-7.91523 -1.41345,-3.23582 -3.2082,-6.62266 -4.1571,-7.84486 -0.923,-1.1888 -5.64596,-10.42308 -6.17763,-12.07847 -0.14283,-0.44522 -0.90271,-2.10404 -1.68823,-3.68625 -0.78548,-1.5822 -1.42817,-2.99511 -1.42817,-3.1398 0,-0.75843 -2.15416,-5.56579 -3.66595,-8.18108 -0.95082,-1.64488 -2.09008,-3.71256 -2.53174,-4.59485 -1.07746,-2.15249 -2.21263,-4.01265 -3.44576,-5.64663 -0.56156,-0.74405 -1.14877,-1.70224 -1.30498,-2.12932 -0.15611,-0.42707 -0.52673,-1.28081 -0.8237,-1.89719 -0.77278,-1.60449 -1.85767,-4.21468 -2.56196,-6.16382 -0.79853,-2.21008 -1.76944,-3.90659 -3.71999,-6.50001 -0.88082,-1.17113 -1.88638,-2.63363 -2.23459,-3.25001 -0.34821,-0.61639 -0.9563,-1.52583 -1.35132,-2.02101 -0.39499,-0.49518 -1.07965,-1.661974 -1.52141,-2.592894 -0.44177,-0.93094 -1.19869,-2.19003 -1.68205,-2.79799 -0.48335,-0.60796 -1.50963,-2.1074 -2.28059,-3.33209 -0.77095,-1.22468 -1.91034,-2.93934 -2.53198,-3.81036 -0.62164,-0.87101 -1.32489,-2.08796 -1.56277,-2.70435 -0.23787,-0.61638 -0.81367,-2.14258 -1.27952,-3.39156 -0.46588,-1.24898 -1.57163,-3.61924 -2.45728,-5.26726 -0.99783,-1.85676 -1.90562,-3.93411 -2.38681,-5.46192 -1.07872,-3.42494 -2.95442,-8.50067 -3.68455,-9.97056 l -0.61056,-1.22914 -0.64252,1.11708 c -0.5606,0.97462 -1.93565,2.4877 -3.21254,3.53499 -0.5804,0.47602 -1.56584,3.62925 -1.81233,5.79909 -0.11682,1.02808 -0.31445,2.32312 -0.43923,2.87786 -0.12477,0.55475 -0.32745,1.64847 -0.45042,2.43051 -0.12298,0.78203 -0.33807,1.87674 -0.47809,2.43267 -0.29687,1.17893 -0.13827,4.44161 0.34731,7.14567 0.25136,1.39985 0.29591,2.98474 0.1963,6.98698 -0.0851,3.42184 -0.0457,5.50521 0.11597,6.14638 0.1346,0.53347 0.40959,1.675994 0.61103,2.538924 0.20145,0.86294 0.51006,2.05966 0.68579,2.65937 0.17575,0.59972 0.31949,1.54738 0.31949,2.10591 0,1.94916 1.39278,7.3056 2.95713,11.37271 0.99871,2.59653 1.66616,4.65367 2.18299,6.72812 0.0927,0.372 0.58003,1.5903 1.083,2.70733 0.50299,1.11702 1.08069,2.62817 1.28382,3.35811 0.20315,0.72995 0.65824,1.93235 1.01135,2.67201 0.35309,0.73966 0.74995,1.59699 0.88189,1.90518 0.13195,0.30818 0.63734,1.26638 1.12313,2.12931 2.90336,5.15741 5.14399,10.24538 8.19256,18.60352 1.12505,3.0845 2.23002,5.11641 5.48759,10.09104 0.56681,0.86557 1.2712,2.17679 1.56532,2.9138 0.46821,1.17335 3.41299,7.31324 4.40517,9.18489 0.19604,0.36983 0.89287,1.68104 1.54852,2.91381 1.50648,2.83265 3.56602,7.65846 4.01751,9.41382 0.19009,0.73966 0.65942,1.98437 1.04262,2.76603 0.89252,1.82075 1.03673,2.87231 0.53799,3.92339 -0.89183,1.87931 -2.74148,2.18412 -6.36945,1.04962 -2.975,-0.93025 -4.30044,-1.85545 -7.7519,-5.41095 -5.34062,-5.50168 -5.77728,-5.88692 -8.87852,-7.83339 -4.32921,-2.7172 -6.55982,-4.42601 -13.94628,-10.68386 -0.76077,-0.64453 -2.89615,-2.32394 -4.74529,-3.73202 -2.15421,-1.64039 -4.04654,-3.30993 -5.26726,-4.64713 -1.04785,-1.14783 -2.40949,-2.63593 -3.02587,-3.30688 -1.10045,-1.19787 -6.76391,-6.13124 -10.8415,-9.4439 -3.48465,-2.83096 -4.29866,-3.54816 -7.22036,-6.36166 -3.65593,-3.52053 -7.42211,-6.96951 -8.83479,-8.09069 -1.73536,-1.37727 -11.00536,-10.75148 -12.06832,-12.204 -0.70261,-0.96008 -5.81362,-7.26049 -6.10428,-7.52481 -0.62883,-0.57185 -2.45925,-3.1491 -3.84069,-5.40773 -1.95054,-3.18908 -4.920929,-7.65465 -5.572059,-8.3768 -0.45212,-0.50145 -1.55969,-2.20294 -5.54416,-8.517274 -0.66121,-1.04785 -1.42415,-2.49871 -1.69541,-3.22415 -0.27128,-0.72543 -0.6909,-1.75292 -0.93252,-2.2833 -0.2416,-0.53039 -0.58145,-1.50022 -0.75518,-2.15519 -0.17373,-0.65496 -0.78668,-2.55248 -1.36213,-4.21671 -1.67016,-4.83024 -1.84444,-5.3862 -2.31867,-7.39658 -0.24717,-1.04785 -0.59686,-2.45992 -0.77707,-3.13794 -0.18021,-0.67802 -0.39515,-1.68283 -0.47772,-2.23292 -0.0825,-0.55009 -0.34715,-1.60059 -0.58807,-2.33444 -0.24091,-0.73386 -0.43801,-1.64774 -0.43801,-2.03086 0,-0.38309 -0.26054,-1.70288 -0.57894,-2.93281 -1.50647,-5.81885 -0.54136,-14.62399 2.57899,-23.52943 0.51834,-1.47931 1.24473,-3.59742 1.6142,-4.70691 0.36946,-1.10949 0.76145,-2.21898 0.87106,-2.46553 0.42796,-0.96265 1.3423,-4.20039 1.3423,-4.75308 0,-1.15858 2.91572,-10.47189 4.08684,-13.05404 0.36042,-0.79476 0.79574,-1.85848 0.96732,-2.36383 0.17155,-0.50538 0.70857,-1.77732 1.19333,-2.82659 2.02838,-4.3904097 3.88541,-5.0985697 8.433599,-3.2160297 1.10949,0.45924 2.87458,1.17949 3.92243,1.60056 1.04785,0.42107 2.10035,0.87373 2.3389,1.0058697 2.46268,1.36418 6.90205,3.38889 8.46974,3.86287 3.85668,1.16605 8.92266,1.50647 15.41559,1.03589 5.61251,-0.40677 7.08669,-0.63627 8.65527,-1.3475 1.65339,-0.74968 1.68596,-0.85548 0.96749,-3.14247 -0.5082,-1.6175897 -0.95905,-4.5247397 -0.93206,-6.0097697 0.0425,-2.34903 1.94202,-3.52520996 4.59507,-2.84553 1.77197,0.45393 10.32929,0.44803 13.05053,-0.009 0.98621,-0.16566 2.90259,-0.41676 4.25863,-0.55797 1.35604,-0.14123996 3.30155,-0.44925996 4.32335,-0.68449996 4.33593,-0.99822 5.54544,-0.34753 7.1207,3.83092996 0.34858,0.92457 0.82844,1.96616 1.06638,2.31466 0.40875,0.59866 0.49604,0.62526 1.58182,0.48202 0.63205,-0.0834 1.75436,-0.2914 2.49402,-0.46222 2.01601,-0.46555 3.58627,-0.40407 4.77706,0.18712 0.95781,0.47554 1.36251,0.9144 3.25531,3.5301897 0.87936,1.21523 2.04956,1.69498 6.22774,2.55321 2.56242,0.52635 2.83009,0.63015 3.50289,1.3585 1.2754,1.38075 0.96297,2.96561 -1.01841,5.16591 -1.15986,1.28803 -2.05814,3.05222 -2.06132,4.04843 -0.001,0.37747 0.21016,1.12593 0.46976,1.66319 0.37083,0.76755 0.4526,1.28081 0.38161,2.39563 -0.0818,1.28048 -0.17204,1.50252 -0.92882,2.27747 -0.46115,0.47224 -1.59078,1.2509 -2.51029,1.73031 -1.05023,0.54757 -2.1864,1.39084 -3.05579,2.26802 l -1.38395,1.39636 0.30106,1.29998 c 0.68592,2.96171 2.81647,6.45347 10.19401,16.70699 1.96402,2.72967 2.99406,4.47611 5.09916,8.64578 1.45089,2.87383 2.64033,5.44583 2.6433,5.71554 0.003,0.26973 0.26549,1.09557 0.58354,1.83522 0.31806,0.73966 0.82753,1.95001 1.13209,2.68967 1.68951,4.1028 3.58663,7.56636 5.34257,9.75385 1.74993,2.18008 1.78062,2.22267 3.31073,4.59103 1.79183,2.77345 2.24162,3.65749 3.10403,6.1009 0.37486,1.06266 0.81807,2.14193 0.98442,2.39838 0.41416,0.63843 2.79596,6.293754 2.79596,6.638584 0,0.45138 1.70607,3.87513 2.75299,5.52478 0.53305,0.8399 1.4022,2.55761 1.93143,3.81713 0.52938,1.25952 1.3526,2.82289 1.82979,3.47415 3.54218,4.83477 5.47371,7.67622 6.28987,9.2531 0.38284,0.73966 1.55188,2.63212 2.59796,4.20549 1.04602,1.57336 2.09283,3.36308 2.32614,3.97716 0.77783,2.04709 5.61342,11.52253 6.57629,12.88639 0.52194,0.73966 1.51439,2.35719 2.20492,3.59453 0.69048,1.23733 1.91746,3.13762 2.72656,4.22286 0.8091,1.08524 1.47106,2.07232 1.47106,2.19352 0,0.12122 0.50443,1.28418 1.12068,2.58442 0.61641,1.30023 1.12067,2.39978 1.12067,2.44343 0,0.0435 0.30266,0.74003 0.67243,1.5475 0.36956,0.80748 0.67243,1.52169 0.67243,1.58716 0,0.0655 0.31168,0.74376 0.69287,1.50732 0.38124,0.76356 0.89198,1.94304 1.13543,2.62106 0.7499,2.08857 1.16029,2.99874 1.66748,3.69829 0.26814,0.36982 0.71522,1.1263 0.9935,1.68104 0.27823,0.55474 1.13231,1.96682 1.89781,3.13794 0.76556,1.17113 1.55183,2.44022 1.74734,2.8202 0.19539,0.37996 0.72366,1.13151 1.17361,1.67006 0.97922,1.17206 3.93362,6.15662 6.04021,10.19083 2.07797,3.97935 3.67626,6.79515 4.3893,7.73278 0.80315,1.05622 3.05863,4.73022 3.4678,5.64886 0.18106,0.40651 0.88444,1.49556 1.56308,2.42014 2.33422,3.18012 3.18675,4.60091 4.23649,7.06037 0.57876,1.35604 1.45912,3.11518 1.95627,3.90921 1.19034,1.90101 4.67688,8.9375 4.67688,9.43879 0,0.65701 1.26707,3.41354 1.95218,4.24689 1.44186,1.7539 5.78896,9.57442 7.10636,12.78444 0.46991,1.14537 0.94779,1.90453 2.97277,4.7239 0.40832,0.56878 0.95129,1.50552 1.20616,2.08165 0.25487,0.5761 0.73954,1.37152 1.07713,1.76758 0.3377,0.39605 1.25204,1.57742 2.0321,2.62527 0.78011,1.04785 1.5351,2.00604 1.67772,2.12931 0.53156,0.4594 1.23913,1.64812 2.66841,4.48278 1.46889,2.91311 2.84173,5.84556 2.84173,6.06992 0,0.0655 0.29256,0.70927 0.65076,1.43066 0.35787,0.72136 0.72138,1.54783 0.80777,1.83657 0.0866,0.28869 0.49327,1.28142 0.90393,2.20599 0.41098,0.92457 0.85099,1.9332 0.97827,2.24139 0.12743,0.30818 0.58811,1.16552 1.02425,1.90518 0.43593,0.73966 1.33604,2.40389 1.99992,3.69829 0.66393,1.2944 1.99423,3.41251 2.95641,4.70691 0.96207,1.2944 2.25903,3.13209 2.88213,4.08374 0.62305,0.95167 1.6371,2.49677 2.25351,3.43358 0.61636,0.93681 1.62675,2.57887 2.24528,3.64905 1.3731,2.37566 2.25293,3.77189 4.12159,6.54059 0.79041,1.17113 2.22866,3.67406 3.19604,5.56209 0.96738,1.88801 2.04717,3.95569 2.39948,4.59485 0.35203,0.63913 1.19729,2.22112 1.87779,3.51552 0.6805,1.2944 1.63625,3.10993 2.12395,4.0345 0.48744,0.92458 1.15721,2.07663 1.48779,2.56009 0.62034,0.90725 1.12408,1.92445 2.95005,5.95718 1.92457,4.25054 2.97839,6.355 4.37735,8.74141 1.53213,2.61357 4.47968,7.06983 5.93019,8.96555 0.85859,1.12215 1.62988,2.53306 3.67589,6.72416 0.39133,0.8013 0.99882,2.46553 1.35032,3.69829 0.35151,1.23276 0.7628,2.59441 0.91402,3.02587 1.29186,3.6863 1.91374,5.33414 2.15884,5.71995 0.15823,0.24898 0.8862,2.01407 1.61793,3.92243 1.84445,4.81036 4.61635,10.52367 5.76134,11.87494 0.54282,0.64056 1.94311,3.25934 2.81656,5.26726 0.48266,1.10949 1.41807,2.92501 2.07877,4.0345 2.17986,3.66063 3.15128,5.32206 3.72208,6.3658 0.31009,0.56694 0.88104,1.4899 1.26897,2.05105 0.38815,0.56113 1.0036,1.62019 1.36801,2.35346 0.79657,1.60259 1.59844,3.07628 2.7377,5.03146 0.98013,1.68196 7.02554,13.95652 7.28593,14.79316 0.29523,0.9484 5.14998,10.75359 6.35667,12.83842 0.6264,1.08221 1.41765,2.33315 1.75838,2.77986 0.60712,0.796 2.58617,4.24301 3.96585,6.90766 0.75579,1.45959 1.92192,4.11714 3.04896,6.9483 0.3924,0.98621 0.91981,2.14613 1.17155,2.5776 1.05866,1.81437 1.23924,2.18338 1.59749,3.2637 0.20708,0.62389 0.70221,1.64512 1.10066,2.26934 0.39876,0.62422 0.97667,1.56167 1.28485,2.08319 0.30796,0.52152 1.08632,1.71932 1.72917,2.66171 0.64285,0.94242 2.24741,3.32728 3.56571,5.29969 2.3236,3.4766 3.95162,5.65301 4.48265,5.99269 0.14177,0.0908 0.57207,0.65438 0.95586,1.25242 1.02324,1.59462 0.96282,2.77726 -0.33505,6.55727 -0.56814,1.65441 -1.3071,3.61318 -1.64209,4.35288 -0.33504,0.73965 -1.00014,2.45432 -1.47807,3.81033 -0.47788,1.35605 -1.1476,2.90847 -1.48817,3.44979 -0.34035,0.54139 -0.8409,1.65086 -1.11191,2.46553 -0.642,1.92999 -2.09831,5.044 -2.91288,6.22855 -0.35416,0.51504 -0.64433,0.99462 -0.64433,1.06508 0,0.0706 -0.60516,1.17871 -1.3448,2.46272 -0.73965,1.28405 -1.34486,2.40903 -1.34486,2.49998 0,0.35682 -1.17632,1.68144 -1.74866,1.96944 -1.14993,0.57871 -2.19882,0.60048 -3.20825,0.0669 z m 2.25096,-9.03109 c 0.2554,-0.32495 0.4646,-0.66281 0.4646,-0.75111 0,-0.0882 0.55174,-1.12126 1.22613,-2.29546 0.67434,-1.1742 1.57609,-3.11406 2.00379,-4.31083 0.42797,-1.19676 0.95857,-2.44482 1.17967,-2.77349 0.57122,-0.84924 1.04406,-1.931 1.6328,-3.73546 0.28142,-0.86294 0.84393,-2.3759 1.24965,-3.36208 1.289,-3.13286 1.89765,-4.92177 1.89765,-5.57715 0,-0.40885 -0.30849,-1.00869 -0.86188,-1.67629 -0.47416,-0.5718 -1.04957,-1.3423 -1.27896,-1.71212 -0.22938,-0.37009 -0.69886,-1.00374 -1.04331,-1.40867 -0.3446,-0.40492 -0.62618,-0.83337 -0.62618,-0.95207 0,-0.17554 -1.06248,-1.78067 -1.8497,-2.79445 -0.89899,-1.1577 -3.88567,-5.57301 -4.2453,-6.27588 -0.25222,-0.49312 -0.79965,-1.37588 -1.21636,-1.96173 -0.41682,-0.58586 -0.75765,-1.12074 -0.75765,-1.18863 0,-0.0679 -0.25221,-0.4945 -0.56034,-0.94807 -0.30796,-0.45356 -0.56033,-0.98954 -0.56033,-1.19111 0,-0.30165 -2.11121,-4.85586 -2.93014,-6.32072 -0.12424,-0.22178 -0.48531,-1.12957 -0.80299,-2.01724 -0.31752,-0.88766 -0.64933,-1.7148 -0.73704,-1.83807 -0.0876,-0.1233 -0.34461,-0.72846 -0.57107,-1.34484 -0.22619,-0.61638 -0.79158,-1.72587 -1.25613,-2.46552 -0.4646,-0.73966 -1.2781,-2.14932 -1.8078,-3.13259 -0.52992,-0.98325 -1.22953,-2.09274 -1.55512,-2.46552 -0.32549,-0.37275 -1.09503,-1.63597 -1.7098,-2.8071 -3.14793,-5.99678 -4.5058,-8.68268 -4.64571,-9.18969 -0.37752,-1.36764 -7.87096,-16.48952 -10.13705,-20.45675 -1.03997,-1.82059 -2.04091,-3.66938 -2.22436,-4.10842 -0.18319,-0.43906 -0.71745,-1.3702 -1.18667,-2.06918 -0.46939,-0.699 -1.38797,-2.27954 -2.0416,-3.5123 -0.65369,-1.23276 -1.52995,-2.71439 -1.94725,-3.29249 -0.41734,-0.5781 -1.30274,-2.19543 -1.96752,-3.59406 -0.66484,-1.39862 -1.4176,-2.73194 -1.67284,-2.96291 -0.5614,-0.50804 -1.10984,-0.31854 -2.41142,0.83332 -0.46885,0.41496 -1.81073,1.34161 -2.98185,2.05917 -1.17112,0.71758 -2.5328,1.57074 -3.02587,1.89594 -2.24172,1.47835 -6.79424,3.54363 -9.14105,4.14684 -0.71294,0.18324 -2.04451,0.58448 -2.95912,0.89168 -0.9146,0.30717 -2.02078,0.62565 -2.45815,0.7077 -0.90642,0.17007 -1.00062,0.5228 -0.37646,1.40952 0.23045,0.32724 0.49434,0.84711 0.58625,1.1553 0.26018,0.87165 1.93721,4.03396 2.48358,4.68358 0.26974,0.32103 1.01894,1.59231 1.66434,2.82507 0.6454,1.23276 1.5908,2.93198 2.10075,3.77604 1.91486,3.16907 2.46988,4.16279 4.33833,7.7671 2.64755,5.10734 3.08927,6.01156 3.51357,7.19268 0.44283,1.23315 3.21404,6.35774 4.00806,7.41242 0.31009,0.41162 0.98645,1.5553 1.5034,2.54151 0.51717,0.98622 1.25879,2.19625 1.64852,2.68897 0.73933,0.93477 3.28615,5.78099 3.28615,6.25307 0,0.14926 0.29044,0.6695 0.64572,1.15609 0.50336,0.68992 3.67838,6.72683 5.07155,9.64343 0.57308,1.19975 0.76275,1.62164 1.15052,2.55919 0.22938,0.55416 0.77825,1.56279 1.22007,2.24139 0.44177,0.6786 1.07592,1.6877 1.40905,2.24244 0.83183,1.3854 5.46209,7.78896 6.12968,8.47724 0.15823,0.1629 0.28726,0.36685 0.28726,0.45319 0,0.0863 0.46301,0.65909 1.02897,1.27279 0.56592,0.61369 1.58634,1.90428 2.26748,2.868 0.68119,0.96372 1.46395,1.97236 1.73947,2.24141 0.27558,0.2692 1.11123,1.30232 1.85709,2.2962 0.74586,0.99382 1.85257,2.35545 2.45936,3.02586 1.41006,1.55778 2.75773,3.40132 3.51941,4.81435 1.21901,2.26121 1.72519,2.97739 3.63729,5.14589 0.90924,1.03121 3.276,4.58826 4.34141,6.52488 1.18508,2.15406 1.27157,2.20997 1.9954,1.28974 z M 349.56043,396.48787 c 0.0749,-0.12164 1.1313,-0.53018 2.34702,-0.90785 2.05158,-0.63739 2.676,-1.05218 2.35806,-1.56653 -0.16461,-0.26628 0.16247,-1.48438 1.21933,-4.54369 0.5023,-1.45442 0.91364,-2.67369 0.91364,-2.70953 0,-0.1928 -3.86124,-3.08502 -4.70772,-3.52621 -0.54686,-0.28503 -1.48657,-0.84952 -2.08822,-1.25442 -0.6017,-0.40492 -1.30031,-0.73618 -1.55257,-0.73618 -0.25222,0 -1.42721,-0.31041 -2.61112,-0.68986 -2.61102,-0.8368 -5.1006,-1.11834 -5.29977,-0.59934 -0.0759,0.1972 0.42425,1.33546 1.17144,2.66826 1.23855,2.20863 2.23476,4.17875 3.89294,7.69855 0.40673,0.86294 1.03243,2.02286 1.39089,2.5776 0.35841,0.55474 1.04459,1.63901 1.52475,2.40949 0.85423,1.37072 1.1657,1.62566 1.44133,1.17971 z m 9.95997,-3.50183 c 1.47664,-0.53023 2.18428,-0.88761 5.05913,-2.55509 1.02266,-0.59317 5.32186,-3.39212 5.4914,-3.57513 0.0616,-0.0665 0.58194,-0.49842 1.15625,-0.95969 1.03588,-0.8321 1.18508,-1.32238 0.63138,-2.07508 -0.51982,-0.70707 -4.44453,-8.72549 -4.79932,-9.80607 -0.28938,-0.88151 -0.5408,-1.28879 -0.7953,-1.28879 -0.4423,0 -1.67193,2.39655 -2.58738,5.04312 -0.77496,2.24022 -1.39971,3.71066 -1.76178,4.14656 -0.30478,0.36675 -1.67018,3.90593 -2.94038,7.62072 -0.44283,1.2944 -0.90064,2.58514 -1.01788,2.86832 -0.20814,0.50215 -0.28725,1.16617 -0.13911,1.16617 0.0425,0 0.80708,-0.26325 1.70321,-0.58504 z m -1.0234,-11.23827 c 0.41788,-0.83211 1.12567,-2.52156 1.57349,-3.75432 0.44762,-1.23277 1.15955,-2.94743 1.58162,-3.81036 0.42212,-0.86294 0.95082,-2.02189 1.17499,-2.57544 0.22407,-0.55358 0.74432,-1.44868 1.15583,-1.98911 l 0.7483,-0.98262 -0.37699,-1.03677 c -0.20761,-0.57023 -0.50708,-1.33937 -0.66643,-1.7092 -0.15929,-0.36982 -0.41575,-1.07586 -0.57074,-1.56897 -0.15452,-0.49311 -0.4593,-1.40086 -0.67689,-2.01725 -0.2177,-0.61638 -0.45239,-1.2972 -0.52195,-1.51293 -0.23947,-0.74414 -0.73619,-0.38618 -2.02094,1.4569 -1.30588,1.87333 -3.15696,4.33547 -3.96978,5.28017 -0.56145,0.65251 -2.44259,3.57797 -2.44339,3.79973 0,0.0912 -0.34354,0.73412 -0.76211,1.42873 -0.41893,0.69461 -1.14759,2.39385 -1.61942,3.77609 -0.83941,2.45914 -0.84844,2.51999 -0.42159,2.83219 0.24,0.17549 0.82407,0.42346 1.29792,0.55105 1.10437,0.29735 2.94303,1.4174 4.5316,2.76045 0.37009,0.31264 0.79721,0.57211 0.94975,0.57652 0.15239,0.004 0.61907,-0.67275 1.03668,-1.50486 z m -10.84064,-5.25921 c 0.95081,-2.21019 1.12996,-2.87922 0.89092,-3.32595 -0.19752,-0.3693 -3.16758,-2.30666 -5.21184,-3.39983 -1.74595,-0.9336 -9.31064,-3.13911 -9.99008,-2.91262 -0.47203,0.15728 -0.26867,0.72973 1.35638,3.81787 0.88758,1.68673 1.85799,3.53436 2.15655,4.10584 0.29841,0.57149 0.75749,1.28985 1.0199,1.59639 0.47257,0.55178 0.49646,0.55501 2.43739,0.32575 1.99328,-0.23544 3.23108,-0.0814 5.32424,0.66269 1.29972,0.462 1.47622,0.38586 2.01654,-0.87015 z m 3.42048,-7.46981 c 0.33823,-0.55976 0.61471,-1.06838 0.61471,-1.13026 0,-0.14146 1.20494,-1.74884 3.68231,-4.91234 1.06195,-1.35604 2.19829,-3.01708 2.52516,-3.69118 0.32708,-0.67412 0.92995,-1.66526 1.34002,-2.20252 0.40991,-0.53729 0.74565,-1.13706 0.74565,-1.33287 0,-1.3923 -3.44613,-7.34244 -4.25253,-7.34244 -0.38655,0 -0.91964,0.95619 -1.55081,2.7816 -0.27346,0.79022 -0.70519,1.84928 -0.95995,2.35346 -0.25487,0.50416 -0.71305,1.42099 -1.01841,2.03737 -0.30531,0.61638 -0.8837,1.62501 -1.28507,2.24139 -0.78611,1.20719 -2.12496,3.63291 -3.58764,6.50002 -0.50336,0.98621 -1.06258,2.01923 -1.24333,2.29559 -0.30265,0.46242 -0.28194,0.54914 0.257,1.08805 0.57255,0.57254 3.44491,2.28069 3.89236,2.31473 0.12425,0.01 0.5023,-0.44081 0.84053,-1.0006 z m -7.72632,-4.02466 c 0.26921,-0.55436 0.76269,-1.4369 1.09636,-1.96121 0.64917,-1.0201 1.64124,-2.82004 1.64124,-2.97784 0,-0.0526 -0.37805,-0.29888 -0.84053,-0.54723 -0.82025,-0.44066 -1.7879,-1.02905 -3.1036,-1.8871 -1.99912,-1.30372 -1.6525,-1.1228 -4.68522,-2.44544 -5.88399,-2.56616 -11.09981,-4.19899 -11.09158,-3.47225 0.005,0.56777 0.8289,2.78437 1.73889,4.68675 0.50814,1.06196 0.99387,2.22188 1.07968,2.5776 0.086,0.3557 0.39398,1.09977 0.68432,1.65353 0.29044,0.55378 0.52832,1.17299 0.52832,1.37605 0,0.20305 0.17628,0.58279 0.39239,0.84384 0.31434,0.3804 0.87414,0.54152 2.81783,0.81121 2.23721,0.3104 4.37099,0.87257 7.21239,1.90004 1.75434,0.63443 1.9739,0.58599 2.52967,-0.55795 z m 5.21561,-9.47472 c 0.43858,-0.70843 1.12975,-2.09417 1.53648,-3.07944 0.40673,-0.98527 1.026,-2.34615 1.37613,-3.02417 0.87127,-1.68714 1.78179,-4.01729 1.78179,-4.55981 0,-0.24637 -0.14283,-0.60726 -0.31805,-0.80188 -0.1747,-0.19461 -0.68316,-1.04361 -1.12949,-1.88667 -0.44655,-0.84307 -1.35914,-2.39579 -2.02827,-3.45052 -0.66919,-1.05473 -1.38442,-2.42276 -1.58948,-3.04008 l -0.37274,-1.12242 -0.41416,0.53842 c -0.22779,0.29612 -0.41629,0.6795 -0.41894,0.85191 -0.0106,0.62559 -2.14137,4.2377 -4.24568,7.19517 -1.18412,1.66423 -2.28266,3.27802 -2.4411,3.58621 -0.15823,0.30818 -0.52726,0.9638 -0.81961,1.45691 -0.29257,0.49311 -0.53958,1.02798 -0.54951,1.18863 -0.0106,0.16062 -0.27026,0.66313 -0.57839,1.11668 -0.85933,1.26459 -0.76386,1.44004 1.17669,2.16163 0.95539,0.35528 2.5944,1.20219 3.64228,1.88203 2.76197,1.79197 3.64222,2.27494 4.14654,2.27519 0.30372,1.6e-4 0.70492,-0.41448 1.2453,-1.28779 z m -13.5482,-5.82344 c 1.38511,-2.06987 2.20291,-3.87767 1.94263,-4.29425 -0.10832,-0.17368 -0.5108,-0.48398 -0.89406,-0.68947 -0.38336,-0.20554 -0.95071,-0.54009 -1.26117,-0.74351 -0.31062,-0.20342 -2.10988,-0.8845 -3.99866,-1.51353 -1.88879,-0.62904 -3.74863,-1.33747 -4.133,-1.57432 -0.38443,-0.23687 -0.98008,-0.43062 -1.32367,-0.43062 -0.34354,0 -0.9377,-0.23862 -1.32011,-0.53028 -0.8503,-0.64857 -3.89783,-1.77592 -4.34104,-1.60587 -0.27664,0.10609 -0.27345,0.19752 0.0212,0.64918 0.18956,0.28911 1.12625,2.02796 2.08185,3.8641 2.35036,4.51624 2.67914,5.01894 3.28461,5.02212 0.82789,0.004 4.45195,0.98991 8.23425,2.23926 0.96053,0.31726 1.27981,0.24377 1.70575,-0.39276 z m 4.70396,-7.85725 c 0.71236,-0.91534 3.22828,-4.6934 3.22828,-4.84771 0,-0.1105 1.47451,-3.30116 2.5131,-5.43801 0.50177,-1.03265 -0.39823,-3.49592 -2.41859,-6.61922 -0.57998,-0.89658 -1.70007,-2.85683 -2.489,-4.35609 -1.59712,-3.03518 -1.9079,-3.41834 -2.42448,-2.98959 -0.18478,0.15346 -0.33611,0.40232 -0.33611,0.55306 0,0.15069 -0.19911,0.45425 -0.44283,0.67453 -0.24319,0.2203 -0.50761,0.60613 -0.58758,0.85744 -0.0796,0.25131 -0.48584,0.98964 -0.90228,1.64072 -0.41629,0.65107 -0.75728,1.25885 -0.75728,1.35059 0,0.0918 -0.23628,0.52529 -0.52513,0.96335 -0.28885,0.43811 -0.96293,1.55301 -1.49778,2.47758 -0.5348,0.92458 -1.11664,1.85276 -1.29281,2.06262 -0.17629,0.20984 -0.54553,0.81503 -0.82068,1.34483 -0.27504,0.52981 -0.66213,1.26584 -0.86002,1.63567 -0.19805,0.36983 -0.42956,0.87414 -0.51505,1.1207 -0.0855,0.24653 -0.50548,1.40647 -0.93313,2.57759 -1.23048,3.36778 -1.45078,3.02222 2.8585,4.48294 2.03406,0.68949 4.45478,1.67276 5.37931,2.18505 0.92458,0.51229 1.83234,0.93065 2.01728,0.92969 0.18478,0 0.5477,-0.27356 0.80623,-0.60574 z m -14.49088,-7.04797 c 0.34779,-0.77048 0.81727,-1.99246 1.04363,-2.71551 l 0.4115,-1.31464 -1.32743,-1.1872 c -0.73009,-0.65296 -1.88688,-1.51479 -2.57067,-1.91522 -0.68373,-0.4004 -1.60163,-0.96404 -2.03974,-1.25249 -0.43805,-0.28842 -0.90154,-0.52444 -1.02993,-0.52444 -0.12849,0 -0.41575,-0.20172 -0.63903,-0.4483 -0.223,-0.24653 -0.52885,-0.4483 -0.67927,-0.4483 -0.15027,0 -0.86607,-0.26464 -1.59027,-0.5881 -1.52411,-0.68075 -4.9618,-1.87743 -5.39322,-1.87743 -0.44124,0 -0.35734,0.56234 0.26761,1.7958 0.30903,0.60968 0.76132,1.64016 1.00535,2.28998 0.55737,1.4844 3.06447,6.43561 3.50985,6.93156 0.18319,0.20389 1.20866,0.64724 2.27889,0.98518 1.07029,0.33796 2.60157,0.84202 3.40286,1.12015 2.40914,0.83622 2.61176,0.78476 3.34987,-0.85107 z m 3.41268,-7.48736 c 0.22566,-0.204 0.40991,-0.486 0.40991,-0.62669 0,-0.14065 0.46726,-1.00757 1.03885,-1.92647 1.77733,-2.85828 2.3724,-3.86588 3.12309,-5.28819 0.93494,-1.77139 1.31172,-2.35575 2.61341,-4.05286 0.58821,-0.76696 1.06948,-1.45441 1.06948,-1.52773 0,-0.12982 -1.16336,-2.46844 -2.76223,-5.55252 -0.4354,-0.83951 -1.05972,-1.87831 -1.38776,-2.30843 -0.73407,-0.96243 -0.89204,-0.86401 -2.1677,1.3506 -0.50284,0.87322 -1.47356,2.44499 -2.15682,3.49284 -1.04762,1.60665 -1.75891,2.98831 -3.17327,6.16381 -0.594,1.33365 -2.27788,6.66141 -2.18326,6.90789 0.0611,0.15876 0.70152,0.60912 1.42349,1.00078 0.72197,0.39165 1.817,1.16404 2.43341,1.71641 0.61635,0.55235 1.16315,1.00816 1.21513,1.0129 0.0531,0.005 0.27876,-0.15828 0.50443,-0.36233 z m -8.04321,-5.96097 c 0.94243,-2.57033 1.95303,-5.77968 1.95303,-6.20196 0,-0.61082 -0.84409,-1.11733 -3.81033,-2.28642 -1.29441,-0.51016 -2.45809,-1.00989 -2.586,-1.11054 -0.20389,-0.16051 -5.11244,-1.67891 -7.27611,-2.25084 -0.94519,-0.24982 -4.25788,-0.86937 -4.65086,-0.8698 -0.56469,0 -0.24053,0.92312 1.58241,4.51315 2.18103,4.29463 2.98599,5.57278 3.50948,5.57278 0.20974,0 0.97811,0.18802 1.7073,0.41788 4.55342,1.43514 7.25316,2.35785 7.93791,2.71298 1.13602,0.58917 1.24731,0.55528 1.63317,-0.4972 z m 4.54865,-11.43107 c 0.6008,-0.89375 1.22772,-1.87694 1.39323,-2.18486 0.16566,-0.30791 0.42478,-0.71135 0.57663,-0.89655 0.15186,-0.18521 0.47204,-0.74016 0.7122,-1.23326 0.24,-0.49312 0.86538,-1.41696 1.38972,-2.053 0.5246,-0.63604 0.95337,-1.19878 0.95337,-1.25054 0,-0.49614 -4.49009,-7.52944 -4.81903,-7.54859 -0.12318,-0.007 -0.44177,0.31349 -0.70768,0.71263 -0.26602,0.39914 -1.3165,1.93602 -2.33459,3.41534 -1.79411,2.60686 -4.22958,7.04871 -4.23989,7.73278 -0.003,0.18494 -0.15557,0.6251 -0.33982,0.97821 -0.18425,0.3531 -0.33504,0.76004 -0.33504,0.90427 0,0.40476 1.25203,1.05515 3.56262,1.85064 1.15822,0.39876 2.2122,0.8314 2.34224,0.96145 0.45505,0.45494 0.76179,0.22418 1.84588,-1.38852 z m -10.10466,-3.81036 c 0.32973,-0.89375 0.94163,-2.52963 1.3602,-3.63529 0.44336,-1.17168 0.678,-2.09334 0.56193,-2.2094 -0.10938,-0.10949 -0.88928,-0.32734 -1.73279,-0.48404 -0.84361,-0.15674 -2.08848,-0.45016 -2.76653,-0.65202 -0.8673,-0.25821 -2.57555,-0.40906 -5.76214,-0.50872 l -4.52948,-0.14172 -1.7167,0.64964 c -1.83531,0.69452 -2.14158,1.0024 -1.60211,1.61058 0.18744,0.21116 0.55269,0.83778 0.81202,1.39253 0.25912,0.55474 0.85333,1.51293 1.32011,2.12931 l 0.84861,1.12069 2.23349,0.13641 c 1.52119,0.0929 2.98392,0.35963 4.5864,0.83637 1.29409,0.38497 3.05895,0.83963 3.92189,1.01038 0.86294,0.17076 1.63582,0.32389 1.71749,0.34035 0.0818,0.0165 0.41787,-0.70132 0.74761,-1.59508 z m 5.79877,-10.75891 c 0.75574,-1.0788 1.65473,-2.34966 1.99769,-2.82419 0.70466,-0.97487 0.63616,-1.43731 -0.38336,-2.58974 -0.317,-0.3582 -0.58041,-0.71122 -0.58556,-0.78449 -0.005,-0.0733 -0.35523,-0.52497 -0.77815,-1.00374 -0.74214,-0.84036 -0.78738,-0.85824 -1.30821,-0.51701 -0.81707,0.53538 -2.5875,2.39746 -3.22599,3.393 -1.12944,1.76105 -2.5584,4.63976 -2.4471,4.92981 0.0626,0.16317 0.70152,0.46917 1.41977,0.67997 0.71825,0.21075 1.50759,0.47039 1.75418,0.57691 0.24637,0.10652 0.83857,0.17283 1.31559,0.14735 0.82015,-0.0441 0.94206,-0.15314 2.24136,-2.00784 z m -22.39805,-2.74545 c 0.87642,-1.72587 1.73979,-3.36237 1.91857,-3.63665 0.45823,-0.70315 0.20018,-0.87553 -2.25463,-1.50477 -1.16379,-0.29836 -2.55738,-0.70089 -3.0968,-0.8945 -0.53942,-0.19359 -1.29654,-0.35204 -1.6825,-0.35204 -0.38602,0 -1.02754,-0.0934 -1.42572,-0.20761 -0.39823,-0.11421 -0.7705,-0.13232 -0.82737,-0.0403 -0.0568,0.0921 0.24054,0.71503 0.66054,1.38437 0.42,0.66935 1.57784,2.86281 2.57257,4.87439 1.35191,2.73389 1.90121,3.63943 2.17524,3.58622 0.21558,-0.042 1.02245,-1.36274 1.9601,-3.20913 z m 12.49877,2.30329 c 0.21611,-0.28062 0.39505,-0.65087 0.3977,-0.82283 0.005,-0.36881 2.25155,-4.5027 3.04801,-5.6108 0.30372,-0.42249 0.95257,-1.17262 1.44192,-1.66687 l 0.88975,-0.89864 -0.61407,-0.40296 c -0.3377,-0.22163 -1.16878,-0.62344 -1.84679,-0.89292 -0.67805,-0.26947 -1.48492,-0.66294 -1.79315,-0.87435 -0.30797,-0.21138 -0.96059,-0.55126 -1.44977,-0.75523 -0.87255,-0.36383 -0.91079,-0.35942 -2.01723,0.23113 -1.84105,0.98265 -2.17503,1.37529 -3.83157,4.50422 -0.44389,0.83815 -1.07597,1.8641 -1.40496,2.27992 -1.35,1.70617 -2.50338,3.94565 -2.50338,4.86074 v 0.53648 l 3.8664,0.0763 c 4.96939,0.0981 5.33481,0.0627 5.8172,-0.56416 z m -8.18402,-9.7643 c 0.14655,-0.0933 0.51186,-0.69835 0.81117,-1.34452 0.29947,-0.64619 0.80969,-1.42082 1.13406,-1.72141 0.32442,-0.30059 0.5897,-0.62894 0.5897,-0.72964 0,-0.10073 -0.57998,-0.36425 -1.28884,-0.58563 -0.70879,-0.22136 -2.09565,-0.65729 -3.08188,-0.96868 -0.98623,-0.31142 -2.39831,-0.64673 -3.13796,-0.74522 -2.43446,-0.32411 -4.21859,-0.7109 -7.28449,-1.57921 -3.55148,-1.00587 -5.03683,-1.26345 -5.25448,-0.91124 -0.0839,0.13556 0.25222,0.82602 0.74624,1.53441 0.49433,0.70839 1.18619,1.84217 1.53781,2.51954 0.60531,1.16638 0.69409,1.23945 1.67596,1.37989 0.57027,0.0816 1.7252,0.35235 2.56652,0.60179 0.84133,0.2494 2.48789,0.67571 3.65901,0.94737 1.17111,0.27165 2.83535,0.69099 3.69829,0.93188 3.36155,0.93842 3.2424,0.91639 3.62889,0.67067 z m 14.63839,-2.87494 c 0,-0.0757 -0.64901,-1.41212 -1.44234,-2.96984 -1.3645,-2.6794 -2.10255,-4.33144 -3.05549,-6.83924 -0.54733,-1.44033 -0.96112,-1.86209 -2.08089,-2.12107 -0.51133,-0.1183 -1.78726,-0.49019 -2.83509,-0.82646 -1.04782,-0.33627 -2.85096,-0.77095 -4.00689,-0.96597 l -2.10171,-0.35459 -0.53097,0.66343 c -0.29204,0.36488 -0.5313,0.77021 -0.53193,0.90072 -6.4e-4,0.13057 -0.33133,0.78615 -0.73455,1.4569 -1.44898,2.40948 -1.91958,4.4672 -1.11569,4.87881 0.21558,0.1105 0.7653,0.25816 1.2213,0.32814 0.4561,0.07 1.16315,0.28583 1.57152,0.47963 1.10863,0.52609 5.96179,2.0649 8.1553,2.58587 1.6954,0.40263 2.9604,0.93504 5.9183,2.49085 0.77851,0.40949 1.56897,0.55703 1.56897,0.29283 z m -22.18874,-7.09084 c 0.0106,-0.49423 1.95903,-5.47543 2.45814,-6.2783 1.08802,-1.75027 0.9762,-1.92983 -1.45051,-2.32884 -0.86289,-0.14188 -2.72889,-0.47613 -4.14654,-0.74277 -4.00626,-0.75352 -5.02664,-0.88894 -8.60535,-1.14215 -2.11015,-0.14931 -3.41645,-0.15776 -3.55116,-0.0228 -0.13487,0.13471 0.27823,1.23189 1.12227,2.98263 0.73444,1.52325 1.46756,3.12257 1.62908,3.55403 0.16142,0.43147 0.48478,1.06186 0.71814,1.40087 0.37487,0.54434 0.56634,0.61638 1.6387,0.61638 0.66786,0 1.64437,0.0935 2.17009,0.20772 2.82224,0.61338 4.41798,1.01449 5.43086,1.36511 0.95401,0.33022 2.58298,0.57485 2.58628,0.38836 z m 14.8478,-8.59159 c 0.18531,-0.18547 -0.40247,-1.51079 -1.26972,-2.861 -0.40778,-0.63536 -1.00306,-1.61893 -1.32223,-2.18568 -0.53926,-0.95739 -0.79795,-1.13733 -3.64647,-2.53653 -5.28596,-2.5965 -10.32799,-3.94164 -14.77459,-3.94164 -1.61119,0 -1.87981,0.0595 -2.27772,0.50432 -0.79173,0.88514 -1.36439,2.03293 -1.76124,3.53018 -0.62135,2.34398 -0.62676,2.32667 0.78935,2.52893 0.67805,0.0969 1.99158,0.3239 2.91892,0.50459 0.9274,0.18069 1.95978,0.32857 2.29424,0.32857 0.33451,0 1.03816,0.10009 1.56383,0.22237 0.9146,0.21281 3.78553,0.8201 6.8955,1.45863 0.8013,0.1645 2.56636,0.6194 3.92242,1.01084 1.35605,0.39144 2.81852,0.80975 3.24999,0.92962 0.43168,0.11984 1.08712,0.30191 1.45694,0.4046 0.82168,0.22811 1.78466,0.27834 1.96078,0.10221 z m -29.22846,-6.12907 c 0.25221,-0.48409 0.55673,-1.06403 0.67641,-1.2888 0.11947,-0.22481 0.39133,-1.01387 0.60335,-1.75353 0.21185,-0.73966 0.48849,-1.47519 0.61433,-1.6345 0.39823,-0.50422 -0.14548,-0.73935 -1.76926,-0.76577 -1.70554,-0.0276 -3.89794,0.51233 -4.36525,1.07541 -0.2538,0.30584 -0.22513,0.48521 0.1885,1.17899 0.26814,0.45006 0.79147,1.44272 1.16283,2.20591 0.6993,1.4372 1.12647,1.84394 1.94884,1.85558 0.33664,0.005 0.61991,-0.25832 0.94046,-0.87329 z m 21.32798,-5.91417 c 0,-0.48303 -2.8097,-5.22313 -3.5271,-5.95041 -0.16567,-0.16774 -0.54712,-0.79099 -0.84813,-1.385 -0.30106,-0.59401 -0.6652,-1.1529 -0.80936,-1.24198 -0.23894,-0.14766 -1.58284,-0.33053 -7.47926,-1.01765 -3.66367,-0.42696 -5.2514,-0.37052 -6.38795,0.2271 -1.95988,1.0305 -1.95977,1.0305 -8.02701,0.0478 -2.54682,-0.41252 -3.41273,-0.4267 -3.39856,-0.0556 0.0159,0.35888 0.8887,2.73496 1.31449,3.56949 0.25964,0.50852 0.68676,1.50922 0.94959,2.22377 0.77549,2.10789 0.84165,2.14398 2.72374,1.48642 1.55055,-0.54172 1.76783,-0.5575 7.43561,-0.53984 6.42103,0.0202 8.6327,0.14592 10.32115,0.58767 1.43028,0.37423 4.44213,1.30696 5.60348,1.73538 0.80591,0.29729 2.12931,0.49178 2.12931,0.3129 z m -20.53513,-12.22739 c 1.39142,-0.83254 2.64951,-0.97066 6.3966,-0.70225 1.92059,0.13757 3.78437,0.34508 4.14176,0.46109 0.73514,0.23868 3.27262,0.28864 3.27262,0.0645 0,-0.19582 -1.46842,-2.73377 -1.9902,-3.43965 -0.22779,-0.30818 -0.83459,-1.26638 -1.34842,-2.12932 -0.51398,-0.86293 -1.36481,-2.17641 -1.89101,-2.91882 -0.52619,-0.7424 -1.13719,-1.80145 -1.3577,-2.35346 -0.22036,-0.55198 -0.49912,-1.12226 -0.61885,-1.2673 -0.37859,-0.45839 -1.38871,0.0924 -2.03151,1.10796 -0.33027,0.52184 -0.888,1.3523 -1.23935,1.84541 -1.48705,2.08686 -4.76438,8.58132 -4.76438,9.44119 0,0.4311 0.60446,0.3849 1.43044,-0.10933 z m -3.98693,-2.45182 c 0.63425,-1.27028 1.31804,-2.68235 1.51949,-3.13793 0.20124,-0.45558 0.53968,-1.09999 0.7517,-1.43201 0.21186,-0.33202 0.31434,-0.6749 0.22726,-0.76194 -0.13381,-0.13364 -2.68944,0.76282 -5.20913,1.82705 -0.37009,0.15621 -1.73145,0.55555 -3.02586,0.88744 -2.6373,0.67618 -3.13796,0.88691 -3.13796,1.3208 0,0.54408 1.08165,2.75879 1.40868,2.88428 0.17628,0.0676 1.26775,0.19588 2.42565,0.28508 1.15795,0.0892 2.30708,0.24468 2.55362,0.34556 1.01389,0.41475 1.29887,0.16052 2.48666,-2.21835 z m -8.49331,-4.65984 c 0.71485,-0.19656 1.70321,-0.44517 2.19632,-0.55248 1.41569,-0.30812 4.27026,-1.40135 6.91749,-2.64929 1.33912,-0.63127 2.48772,-1.14778 2.55255,-1.14778 0.0648,0 0.83512,-0.5468 1.71181,-1.21514 0.87675,-0.66833 2.17525,-1.47024 2.88559,-1.78201 0.71039,-0.31174 1.35542,-0.73316 1.43342,-0.93643 0.0802,-0.2082 -0.16195,-1.02062 -0.55339,-1.86026 -0.3823,-0.81986 -0.75244,-1.70393 -0.82248,-1.9646 -0.0701,-0.26066 -0.78287,-1.52144 -1.58416,-2.80173 -0.80135,-1.28029 -1.5163,-2.57995 -1.58889,-2.88815 -0.18743,-0.79678 -2.5105,-5.40349 -2.99491,-5.93967 -0.60892,-0.67389 -2.84008,-4.06329 -3.76243,-5.71554 -0.44708,-0.8013 -1.4228,-2.36517 -2.16776,-3.47528 -1.7528,-2.61197 -2.73399,-4.23823 -4.05644,-6.72303 -0.59044,-1.10949 -1.25097,-2.27522 -1.46777,-2.59052 -0.21664,-0.3153 -0.56851,-1.02133 -0.78159,-1.56897 -0.21293,-0.54764 -0.6616,-1.41119 -0.99675,-1.91901 -0.33505,-0.50783 -0.9916,-1.61731 -1.45891,-2.46553 -0.46726,-0.84822 -1.64177,-2.70213 -2.61,-4.11981 -0.96824,-1.41768 -2.27953,-3.43492 -2.91394,-4.48277 -0.63441,-1.04785 -1.70512,-2.81294 -2.3793,-3.92243 -1.33498,-2.19698 -2.50875,-4.58727 -2.50875,-5.1089 0,-0.18123 -0.49221,-1.32482 -1.09413,-2.54135 -0.60175,-1.21652 -1.16994,-2.46401 -1.26265,-2.7722 -0.0924,-0.30818 -0.65937,-1.594 -1.25932,-2.85735 -0.59994,-1.26335 -1.09083,-2.38014 -1.09083,-2.48176 0,-0.31965 -1.3285,-2.56211 -2.34755,-3.96265 -0.84377,-1.15959 -2.73361,-4.25378 -3.01174,-4.93105 -0.0531,-0.12329 -0.62002,-0.9806 -1.26526,-1.90518 -1.03407,-1.48169 -6.76717,-12.75158 -7.15186,-14.05877 -0.0807,-0.27409 -0.47681,-0.98015 -0.88025,-1.56898 -0.75324,-1.09923 -2.89397,-4.52908 -3.50523,-5.61607 -1.13427,-2.01692 -1.76034,-2.99615 -2.67006,-4.17616 -3.19148,-4.13967 -4.16162,-5.50503 -4.85125,-6.82767 -0.42106,-0.80715 -0.76519,-1.61173 -0.76519,-1.78796 0,-0.39361 -3.29358,-6.68886 -3.59794,-6.87696 -0.35522,-0.21956 -1.00805,-1.6475 -1.73867,-3.8031 -0.70609,-2.08334 -2.09772,-5.436024 -3.0701,-7.396574 -0.30584,-0.61639 -0.71214,-1.57426 -0.90313,-2.12861 -0.38018,-1.10293 -2.15815,-4.48806 -2.82601,-5.38004 -0.23098,-0.30818 -1.07082,-1.3907 -1.86686,-2.40559 -0.79598,-1.01488 -1.61453,-2.1748 -1.81896,-2.57759 -0.20442,-0.4028 -0.70226,-1.19783 -1.10633,-1.76674 -0.85456,-1.20316 -2.27874,-3.94146 -3.13403,-6.02599 -0.32867,-0.80129 -0.9805,-2.2638 -1.44823,-3.25001 -0.46779,-0.98621 -0.90771,-2.17896 -0.97774,-2.65056 -0.18266,-1.23122 -4.49391,-9.71102 -5.88838,-11.58225 -0.41342,-0.55474 -0.99887,-1.4625 -1.30105,-2.01724 -0.30217,-0.55475 -1.33825,-1.98645 -2.30241,-3.18156 -0.96416,-1.19511 -2.3582,-3.146 -3.09786,-4.33531 -0.73965,-1.18931 -1.66545,-2.59844 -2.05732,-3.1314 -0.64808,-0.88141 -1.14659,-1.85033 -2.65152,-5.15351 -0.28084,-0.61639 -0.63491,-1.67544 -0.78686,-2.35346 -0.15197,-0.67802 -0.31174,-1.36113 -0.35501,-1.51802 -0.18398,-0.66635 -0.89272,-0.55012 -2.87392,0.47135 -1.66529,0.8586 -2.4813,1.48528 -4.50164,3.45717 -2.3032,2.24798 -2.95417,3.03136 -4.42264,5.32228 -0.51654,0.80582 -1.96319,3.92528 -1.96319,4.23328 0,0.068 0.52954,0.46258 1.17672,0.87686 1.37416,0.8796 2.63363,2.23482 2.63363,2.83384 0,0.39239 0.342,1.09425 2.62732,5.39226 0.49163,0.92458 0.96363,1.96955 1.04892,2.32216 0.0853,0.35262 0.34747,1.05865 0.58259,1.56897 0.23512,0.51032 0.57215,1.33131 0.74893,1.82441 0.17676,0.49312 0.47251,1.30001 0.6572,1.79311 0.40757,1.08832 1.18145,3.5799 1.37593,4.43007 0.15234,0.66601 1.29189,3.05762 2.7484,5.76824 0.49678,0.92458 1.08011,2.18536 1.29625,2.80174 0.2161,0.61638 0.48058,1.32242 0.58765,1.56897 0.10709,0.24653 0.39711,1.00302 0.64458,1.68104 0.41921,1.14865 2.03631,3.85721 3.54619,5.93968 0.3575,0.49311 0.88883,1.3 1.18069,1.7931 0.29188,0.49312 1.00828,1.51649 1.59206,2.2742 0.58377,0.75769 1.48606,2.16977 2.00507,3.13793 1.24962,2.33106 3.1673,5.332544 4.67734,7.320824 1.56622,2.06219 3.61355,5.71917 4.37778,7.81951 1.0371,2.85039 1.19263,3.22427 2.42082,5.82016 0.66133,1.3977 1.95086,3.63233 2.86567,4.96584 1.87153,2.72813 1.85157,2.69401 3.10626,5.30822 1.34262,2.79752 2.50997,4.91277 3.32911,6.03239 0.39823,0.5441 0.86315,1.45869 1.03354,2.03243 0.17044,0.57374 0.51504,1.49371 0.76588,2.04438 0.25062,0.55067 0.53044,1.30031 0.62108,1.66586 0.0908,0.36557 0.71039,1.77413 1.37703,3.13016 0.66664,1.35604 1.35234,2.8453 1.52374,3.30946 1.04172,2.82106 4.83017,10.39908 6.24899,12.49998 1.10129,1.63064 3.15091,5.6028 5.88283,11.4007 0.72016,1.52846 1.56557,3.14226 1.87864,3.58622 0.81573,1.1567 1.78423,2.86343 1.78423,3.14423 0,0.48245 1.97395,4.78737 5.14637,11.22337 1.18492,2.40388 2.29583,4.72372 2.46871,5.15519 0.1731,0.43147 0.53793,1.08707 0.81128,1.4569 0.27345,0.36982 0.924,1.47931 1.44595,2.46553 0.52195,0.98621 1.3825,2.41936 1.91236,3.18478 0.52991,0.76542 1.46464,2.32879 2.07728,3.47415 2.27061,4.2448 4.85502,8.72074 6.83593,11.83899 0.68878,1.0843 1.50754,2.59773 3.9505,7.30227 0.32708,0.62971 1.08208,1.82815 1.67794,2.66318 1.1452,1.60481 2.40839,4.0336 2.68232,5.15743 0.0903,0.36982 0.29894,0.975 0.46354,1.34483 0.16461,0.36983 0.41469,1.04377 0.5554,1.49763 0.14071,0.45388 0.55285,1.19901 0.91593,1.65583 0.36319,0.45685 0.66006,0.9176 0.66006,1.02393 0,0.30738 1.4323,0.22487 2.84682,-0.16407 z m -75.34686,-45.52359 c -0.0835,-0.33271 -0.53683,-1.417 -1.00738,-2.40949 -0.47055,-0.99251 -1.14015,-2.43999 -1.488,-3.21662 -0.34784,-0.77664 -0.7741,-1.52962 -0.94723,-1.67331 -0.33027,-0.27408 -1.60935,-2.77746 -1.60935,-3.14978 0,-0.11883 -0.75096,-1.73996 -1.6688,-3.60254 -0.91785,-1.86257 -2.03123,-4.14295 -2.47419,-5.06753 -0.75233,-1.57029 -2.84563,-5.00104 -3.58845,-5.88119 -0.46009,-0.54515 -2.53366,-4.57903 -2.91046,-5.66195 -0.17156,-0.49312 -0.67607,-1.95561 -1.12109,-3.25001 -0.44501,-1.2944 -1.01956,-2.80734 -1.27674,-3.36208 -0.2572,-0.55475 -0.65162,-1.54108 -0.87654,-2.19185 -0.56628,-1.63851 -2.78652,-6.2303 -6.19222,-12.80645 -1.12089,-2.16438 -2.13473,-4.47155 -2.4623,-5.60347 -0.30627,-1.05829 -0.88234,-2.57529 -1.28015,-3.37109 l -0.7233,-1.44693 -2.67414,-0.86227 c -10.04322,-3.23842 -11.67921,-3.83384 -14.94024,-5.43743 -1.88298,-0.92596 -3.77662,-1.90285 -4.20809,-2.17088 -2.02904,-1.26045 -4.8634,-3.18077 -5.26726,-3.56865 -0.46593,-0.4475 -1.52906,-1.25228 -2.92408,-2.21354 -1.48307,-1.02191 -5.35345,-4.30617 -6.37768,-5.41184 -2.29374,-2.47613 -3.92353,-4.49148 -4.98128,-6.15967 -1.02145,-1.610944 -3.84334,-5.243154 -6.61353,-8.512624 -2.62242,-3.09506 -3.06496,-3.65727 -3.42172,-4.34698 -0.35496,-0.68628 -3.16467,-4.99956 -3.3581,-5.15519 -0.0766,-0.0617 -0.47427,-0.66682 -0.8837,-1.34483 -0.40943,-0.67802 -1.16318,-1.73708 -1.67502,-2.35346 -3.3837,-4.07479 -4.21367,-5.40367 -6.01948,-9.63796 -1.188979,-2.78797 -2.256189,-7.03686 -2.561539,-10.19832 -0.31641,-3.27598 -0.22046,-8.23667 0.19078,-9.8621 0.20273,-0.8013 0.48404,-2.31423 0.62515,-3.36208 0.14108,-1.04785 0.39892,-2.56078 0.57288,-3.36208 0.174,-0.80129 0.569709,-2.67307 0.879379,-4.1595 1.58672,-7.616 5.33629,-14.87254 9.86455,-19.09083 0.84813,-0.79008 1.41919,-1.49376 1.35234,-1.66642 -0.15016,-0.38788 -0.90108,-0.82204 -4.70354,-2.71965 -3.8668,-1.9297 -6.65363,-2.92346 -7.141759,-2.54667 -0.36881,0.28471 -1.23284,2.10798 -1.80016,3.79868 -0.19795,0.58993 -0.50894,1.30005 -0.69109,1.57805 -0.42154,0.64338 -2.57336,6.83903 -2.58245,7.43559 -0.004,0.24653 -0.25747,1.25518 -0.56378,2.24139 -0.30632,0.98621 -0.55697,2.10079 -0.55698,2.47683 -2e-5,0.37603 -0.81181,3.0489 -1.80397,5.93968 -2.96619,8.64234 -3.07938,8.98506 -3.67489,11.12745 -0.31513,1.13363 -0.57411,2.34398 -0.57558,2.68966 -0.001,0.34572 -0.14787,1.17411 -0.32533,1.84093 -0.17745,0.66682 -0.38501,2.78493 -0.46125,4.70691 -0.11103,2.8002 -0.0665,3.80624 0.22417,5.06348 0.19954,0.86294 0.6044,2.82975 0.89972,4.3707 0.29533,1.54096 0.90198,4.21382 1.34811,5.93968 0.44613,1.72587 0.95063,3.91557 1.12111,4.86601 0.17044,0.95044 0.60408,2.41295 0.96357,3.25001 0.35947,0.83707 0.86083,2.17755 1.11407,2.97885 2.23044,7.05747 2.81188,8.53082 4.26752,10.81383 2.14084,3.35768 5.365329,8.218054 5.911599,8.910714 0.28434,0.36054 0.87002,1.1757 1.30149,1.81142 0.43147,0.63572 1.04481,1.47156 1.363,1.8574 0.31816,0.38586 1.01487,1.50844 1.54821,2.49466 0.91581,1.69344 3.47042,5.55701 4.10155,6.20315 0.31434,0.32183 3.2162,3.83057 4.30624,5.20685 0.36983,0.46694 0.975,1.16856 1.34483,1.55914 0.36983,0.39058 1.02156,1.16248 1.44828,1.71535 1.50034,1.94386 8.05102,8.55178 10.65522,10.74831 1.71091,1.44309 4.39304,3.86485 7.06037,6.37498 3.76698,3.54499 7.14247,6.60749 7.73278,7.0158 0.62879,0.43492 1.72651,1.35287 8.55586,7.15476 1.47043,1.2492 3.21997,2.91344 3.88784,3.69828 2.05231,2.41173 5.17447,5.39114 7.41107,7.07221 2.62186,1.97063 5.67477,4.46604 8.74614,7.14899 2.82015,2.46349 7.73136,6.05232 10.39142,7.59344 1.49711,0.86735 4.51649,3.19067 5.08203,3.91045 0.2512,0.3197 1.60705,1.76644 3.01298,3.21494 2.58363,2.66184 3.4243,3.20697 3.12857,2.02869 z m -30.60377,-66.31495 c 0,-0.1929 -0.1971,-0.82327 -0.43795,-1.40087 -1.49451,-3.58376 -2.55545,-6.74358 -3.13712,-9.3433 -0.92786,-4.14703 -1.13185,-5.18266 -1.13185,-5.74635 0,-0.71078 -0.2854,-2.06026 -0.89413,-4.22782 -0.7354,-2.6186 -0.78112,-3.177984 -0.7878,-9.637974 -0.005,-5.11056 -0.0863,-6.83616 -0.40519,-8.62934 -0.50187,-2.82227 -0.52232,-4.55018 -0.0786,-6.64303 0.68257,-3.21943 1.03784,-5.26131 1.2575,-7.22725 0.24903,-2.2286 2.14752,-8.18134 3.06449,-9.60859 0.29713,-0.46247 0.74749,-1.37023 1.0008,-2.01725 0.25333,-0.64701 0.7165,-1.63027 1.02928,-2.18501 0.3128,-0.55474 0.90289,-1.96682 1.31132,-3.13794 1.52382,-4.36934 2.13864,-5.876 3.26827,-8.00919 1.65729,-3.12963 2.05802,-3.64493 5.39822,-6.94157 2.92642,-2.88826 3.0657,-2.99184 5.79888,-4.31308 2.49363,-1.20544 3.14117,-1.65004 5.91071,-4.05832 1.71065,-1.48753 3.50832,-2.90765 3.99482,-3.15585 0.8152,-0.41586 0.87364,-0.50708 0.74539,-1.1634 -0.44947,-2.29995 -0.41422,-2.67282 0.49555,-5.24402 0.68794,-1.94404 0.83223,-2.58813 0.63593,-2.83851 -0.13964,-0.17814 -0.95994,-0.54368 -1.82288,-0.81235 -3.11176,-0.9688 -3.77355,-1.45612 -5.28716,-3.89336 -0.76282,-1.22831 -0.28136,-1.15388 -3.93903,-0.60896 -1.72328,0.25673 -2.81727,0.75729 -4.11006,1.88054 -1.98607,1.72561 -3.64629,2.16593 -8.13164,2.15665 -1.31366,-0.003 -2.56823,0.0894 -2.78792,0.20458 -0.21972,0.11527 -1.15591,0.33319 -2.08048,0.48436 -3.44259,0.56272 -5.55273,1.10293 -7.75713,1.98588 -2.58698,1.03618 -3.679,1.32239 -5.57913,1.46218 -0.73966,0.0544 -1.89958,0.21542 -2.5776,0.35772 -1.13688,0.23867 -3.44445,0.18913 -7.06037,-0.15149 -0.61637,-0.0581 -4.49958,-0.12727 -8.62934,-0.15382 -7.40135,-0.0478 -9.40986,-0.1997 -12.38027,-0.93771 -0.70698,-0.17565 -1.55203,-0.31939 -1.8779,-0.31939 -0.77606,0 -2.68425,1.10409 -4.08534,2.36379 -1.71577,1.54262 -4.58339,5.6362 -5.88075,8.39487 -0.96167,2.04488 -2.67738,7.25671 -3.12035,9.47873 -0.25094,1.2587 -0.54465,2.59114 -0.65271,2.96097 -0.10805,0.36982 -0.31912,1.58018 -0.46906,2.68967 -0.1499,1.10948 -0.408,2.62241 -0.57359,3.36207 -0.86168,3.84976 -0.91088,5.46907 -0.34051,11.20694 0.28933,2.91047 1.30856,6.64256 2.724,9.97417 1.20457,2.83526 1.62468,3.49328 4.53361,7.10093 1.44161,1.78788 2.60272,3.42305 3.64616,5.13481 0.25466,0.41777 0.66537,0.98758 0.91268,1.26625 0.24733,0.27866 0.88777,1.26315 1.42322,2.18772 1.18162,2.04031 1.4744,2.44077 3.49285,4.7774 2.69777,3.12304 5.65823,6.9621 7.70713,9.994394 0.54936,0.81305 1.05389,1.5287 1.12115,1.59034 0.0673,0.0617 0.87857,1.01154 1.80289,2.11089 2.12554,2.52805 5.06825,5.02514 11.27528,9.56785 3.3683,2.46513 9.10553,5.50905 12.48296,6.62289 0.55474,0.18298 1.45257,0.53514 1.99517,0.78264 0.5426,0.24749 2.25726,0.85237 3.81036,1.34414 1.55309,0.49179 3.07596,0.98043 3.38415,1.0859 0.94912,0.32479 1.79312,0.26665 1.79312,-0.12356 z M 152.60928,17.042246 c 2.94656,-1.50261 9.81016,-2.95201 14.95233,-3.15752 3.49849,-0.1398 4.82014,-0.41225 4.81815,-0.99319 -4.6e-4,-0.13428 -0.18356,-0.54678 -0.40684,-0.91661 -0.22327,-0.36983 -0.78437,-1.65294 -1.24684,-2.8513597 -0.46247,-1.19841 -1.01538,-2.39448 -1.2287,-2.65792 -0.38671,-0.47756 -0.3951,-0.47794 -2.84612,-0.11847 -1.35204,0.19827 -2.87889,0.36054 -3.39299,0.36054 -0.51409,0 -1.21868,0.1115 -1.56571,0.24775 -0.34912,0.1371 -3.28414,0.33754 -6.57065,0.44878 -3.26682,0.1106 -6.16662,0.25317 -6.44399,0.31689 -0.62127,0.14267 -0.62723,0.42196 -0.0602,2.8221897 0.24425,1.03396 0.56129,2.38425 0.70448,3.00063 0.1432,0.61638 0.49811,1.4058 0.78865,1.75427 0.29055,0.34848 0.52826,0.81932 0.52826,1.04633 0,1.19575 0.58636,1.40342 1.97014,0.69775 z"
       id="path303" /></g></svg>
