<?xml version="1.0" encoding="UTF-8" standalone="no"?>
<svg
   height="512"
   width="512"
   version="1.1"
   id="svg33"
   sodipodi:docname="bow.svg"
   inkscape:version="1.2.1 (9c6d41e410, 2022-07-14)"
   inkscape:export-filename="bow.png"
   inkscape:export-xdpi="96"
   inkscape:export-ydpi="96"
   xmlns:inkscape="http://www.inkscape.org/namespaces/inkscape"
   xmlns:sodipodi="http://sodipodi.sourceforge.net/DTD/sodipodi-0.dtd"
   xmlns:xlink="http://www.w3.org/1999/xlink"
   xmlns="http://www.w3.org/2000/svg"
   xmlns:svg="http://www.w3.org/2000/svg">
  <sodipodi:namedview
     id="namedview35"
     pagecolor="#ffffff"
     bordercolor="#000000"
     borderopacity="0.25"
     inkscape:showpageshadow="2"
     inkscape:pageopacity="0.0"
     inkscape:pagecheckerboard="true"
     inkscape:deskcolor="#d1d1d1"
     showgrid="false"
     inkscape:zoom="1.4183568"
     inkscape:cx="105.05114"
     inkscape:cy="316.91603"
     inkscape:window-width="2560"
     inkscape:window-height="1351"
     inkscape:window-x="2391"
     inkscape:window-y="-9"
     inkscape:window-maximized="1"
     inkscape:current-layer="svg33" />
  <g
     id="g6"
     transform="matrix(3.998001,0,0,3.998001,0.12793603,0.12793603)">
    <use
       height="100"
       transform="scale(1.28)"
       width="100"
       xlink:href="#shape0"
       id="use2" />
    <use
       height="814.54999"
       transform="matrix(0.1511,0,0,0.1511,1.903,2.7474)"
       width="814.79999"
       xlink:href="#sprite0"
       id="use4" />
  </g>
  <defs
     id="defs31">
    <g
       id="shape0">
      <path
         d="M 100,100 H 0 V 0 h 100 v 100"
         fill="#00cc66"
         fill-opacity="0"
         fill-rule="evenodd"
         stroke="none"
         id="path8" />
      <path
         d="M 84.3,84.3 V 15.7 H 15.7 v 68.6 h 68.6 m 7.95,7.95 H 7.75 V 7.75 h 84.5 v 84.5"
         fill="#666666"
         fill-opacity="0"
         fill-rule="evenodd"
         stroke="none"
         id="path10" />
      <path
         d="M 84.3,84.3 H 15.7 V 15.7 H 84.3 V 84.3 M 76.4,76.4 V 23.55 H 23.55 V 76.4 H 76.4"
         fill="#999999"
         fill-opacity="0"
         fill-rule="evenodd"
         stroke="none"
         id="path12" />
      <path
         d="M 92.25,92.25 V 7.75 H 7.75 v 84.5 h 84.5 m 3.8,3.8 H 3.95 V 3.95 h 92.1 v 92.1"
         fill="#333333"
         fill-opacity="0"
         fill-rule="evenodd"
         stroke="none"
         id="path14" />
      <path
         d="M 68.85,68.85 V 31.1 H 31.1 V 68.85 H 68.85 M 76.4,76.4 H 23.55 V 23.55 H 76.4 V 76.4"
         fill="#cccccc"
         fill-opacity="0"
         fill-rule="evenodd"
         stroke="none"
         id="path16" />
      <path
         d="M 68.85,68.85 H 31.1 V 31.1 h 37.75 v 37.75"
         fill="#ffffff"
         fill-opacity="0"
         fill-rule="evenodd"
         stroke="none"
         id="path18" />
      <path
         d="M 96.05,96.05 V 3.95 H 3.95 v 92.1 h 92.1 M 100,100 H 0 V 0 h 100 v 100"
         fill="#000000"
         fill-opacity="0"
         fill-rule="evenodd"
         stroke="none"
         id="path20" />
      <path
         d="M 0,50 H 50 L 0,0 M 50,50 V 0 m 0,100 V 50 L 0,100 M 100,50 H 50 l 50,50 M 50,50 100,0"
         fill="none"
         stroke="#000000"
         stroke-linecap="round"
         stroke-linejoin="round"
         stroke-opacity="0"
         stroke-width="0.05"
         id="path22" />
    </g>
    <g
       id="sprite0"
       transform="translate(90,-35.05)">
      <use
         height="814.54999"
         transform="translate(-90,35.05)"
         width="814.79999"
         xlink:href="#shape1"
         id="use25" />
    </g>
    <g
       id="shape1"
       transform="translate(90,-35.05)">
      <path
         d="M 520.25,298.65 Q 482.45,279.2 461.55,239.75 431.85,177.5 387.2,140.2 315.2,79.65 203.55,83.2 124.7,85.35 54.1,107.9 18.7,118.85 -13.6,135 l -5.95,3.1 641.2,641.15 q 1.7,-3.05 3.1,-7.1 3.55,-6.65 6.4,-13.3 42.3,-93.35 45.65,-202.4 5.45,-181.3 -156.55,-257.8 m 132.8,462.55 -0.75,1.45 q 2.85,1.4 5.95,3.55 l 0.25,0.25 q 9.5,8.05 10.45,25.4 0.7,17.35 -6.9,33.5 -8.55,16.4 -20.9,21.85 -12.35,5.95 -22.1,-2.85 -9,-7.6 -10.7,-24.95 0.5,-1.4 -0.2,-2.85 0.45,-8.55 2.6,-16.6 l 1.65,-2.6 q -0.25,-0.95 0,-1.2 L -36.65,147.1 q -0.95,0.5 -2.1,1.45 -10,2.35 -21.15,2.35 -17.1,-1.2 -25.2,-10.9 -8.3,-9.05 -2.6,-21.65 5.7,-12.1 21.85,-20.9 15.9,-7.85 33.5,-6.9 17.55,1.2 25.4,10.45 2.4,3.35 4.05,6.45 17.35,-10.7 36.85,-19.75 99.3,-48.95 217.35,-52.5 111.65,-3.3 183.65,57.05 50.6,42.5 81.95,116.6 10.7,23.8 34.2,34.25 179.15,74.8 173.45,265.35 -4.05,138.95 -71.5,252.75"
         fill="#ffffff"
         fill-rule="evenodd"
         stroke="none"
         id="path28" />
    </g>
  </defs>
</svg>
