<?xml version="1.0" encoding="UTF-8" standalone="no"?>
<svg
   height="512"
   width="512"
   version="1.1"
   id="svg33"
   sodipodi:docname="claw.svg"
   inkscape:version="1.2.1 (9c6d41e410, 2022-07-14)"
   inkscape:export-filename="claw.png"
   inkscape:export-xdpi="96"
   inkscape:export-ydpi="96"
   xmlns:inkscape="http://www.inkscape.org/namespaces/inkscape"
   xmlns:sodipodi="http://sodipodi.sourceforge.net/DTD/sodipodi-0.dtd"
   xmlns:xlink="http://www.w3.org/1999/xlink"
   xmlns="http://www.w3.org/2000/svg"
   xmlns:svg="http://www.w3.org/2000/svg">
  <sodipodi:namedview
     id="namedview35"
     pagecolor="#ffffff"
     bordercolor="#000000"
     borderopacity="0.25"
     inkscape:showpageshadow="2"
     inkscape:pageopacity="0.0"
     inkscape:pagecheckerboard="true"
     inkscape:deskcolor="#d1d1d1"
     showgrid="false"
     inkscape:zoom="1.0029297"
     inkscape:cx="-287.15871"
     inkscape:cy="226.83544"
     inkscape:window-width="2560"
     inkscape:window-height="1351"
     inkscape:window-x="2391"
     inkscape:window-y="-9"
     inkscape:window-maximized="1"
     inkscape:current-layer="svg33" />
  <defs
     id="defs31">
    <g
       id="shape0">
      <path
         d="M 100,100 H 0 V 0 h 100 v 100"
         fill="#00cc66"
         fill-opacity="0"
         fill-rule="evenodd"
         stroke="none"
         id="path8" />
      <path
         d="M 84.3,84.3 V 15.7 H 15.7 v 68.6 h 68.6 m 7.95,7.95 H 7.75 V 7.75 h 84.5 v 84.5"
         fill="#666666"
         fill-opacity="0"
         fill-rule="evenodd"
         stroke="none"
         id="path10" />
      <path
         d="M 84.3,84.3 H 15.7 V 15.7 H 84.3 V 84.3 M 76.4,76.4 V 23.55 H 23.55 V 76.4 H 76.4"
         fill="#999999"
         fill-opacity="0"
         fill-rule="evenodd"
         stroke="none"
         id="path12" />
      <path
         d="M 92.25,92.25 V 7.75 H 7.75 v 84.5 h 84.5 m 3.8,3.8 H 3.95 V 3.95 h 92.1 v 92.1"
         fill="#333333"
         fill-opacity="0"
         fill-rule="evenodd"
         stroke="none"
         id="path14" />
      <path
         d="M 68.85,68.85 V 31.1 H 31.1 V 68.85 H 68.85 M 76.4,76.4 H 23.55 V 23.55 H 76.4 V 76.4"
         fill="#cccccc"
         fill-opacity="0"
         fill-rule="evenodd"
         stroke="none"
         id="path16" />
      <path
         d="M 68.85,68.85 H 31.1 V 31.1 h 37.75 v 37.75"
         fill="#ffffff"
         fill-opacity="0"
         fill-rule="evenodd"
         stroke="none"
         id="path18" />
      <path
         d="M 96.05,96.05 V 3.95 H 3.95 v 92.1 h 92.1 M 100,100 H 0 V 0 h 100 v 100"
         fill="#000000"
         fill-opacity="0"
         fill-rule="evenodd"
         stroke="none"
         id="path20" />
      <path
         d="M 0,50 H 50 L 0,0 M 50,50 V 0 m 0,100 V 50 L 0,100 M 100,50 H 50 l 50,50 M 50,50 100,0"
         fill="none"
         stroke="#000000"
         stroke-linecap="round"
         stroke-linejoin="round"
         stroke-opacity="0"
         stroke-width="0.05"
         id="path22" />
    </g>
    <g
       id="sprite0">
      <use
         height="115.4"
         width="115.2"
         xlink:href="#shape1"
         id="use25" />
    </g>
    <g
       id="shape1">
      <path
         d="m 88.7,53.6 13.7,14.4 2.45,3.75 -4.35,3.85 q -2.15,-0.15 -4.4,0.25 -2.15,0.4 -4.35,1.25 -2.15,0.85 -4.15,2.1 -2,1.2 -3.75,2.75 -1.75,1.55 -3.2,3.3 -1.4,1.75 -2.4,3.65 -1,1.9 -1.5,3.8 -0.45,2 -0.35,3.85 l 14.7,13.55 q 1.55,0.05 3.15,-0.35 1.55,-0.35 3.1,-1.05 1.55,-0.75 3,-1.75 1.45,-1 2.75,-2.25 1.35,-1.25 2.4,-2.7 1.1,-1.45 1.95,-3.05 0.8,-1.6 1.3,-3.25 0.5,-1.7 0.65,-3.4 L 95.35,75.85 100.5,75.6 114.55,92.9 q -0.55,2.05 -1.5,4.1 -0.95,2 -2.25,3.9 -1.2,1.9 -2.75,3.65 -1.5,1.7 -3.2,3.25 -1.65,1.5 -3.45,2.75 -1.8,1.3 -3.6,2.2 -1.85,1 -3.6,1.55 -1.8,0.6 -3.4,0.75 l -15.25,-14.3 -3.8,3.55 -4.4,-2.5 5.05,-4.85 q 0.1,-2.3 0.7,-4.6 0.6,-2.2 1.65,-4.35 1.05,-2.05 2.45,-4 1.45,-1.9 3.2,-3.55 1.75,-1.65 3.75,-3 2,-1.35 4.2,-2.4 2.25,-1 4.55,-1.6 2.35,-0.65 4.75,-0.8 l 1.3,-1.25 -8.25,-7.8 -26.85,26.6 7.4,7.8 -3.9,3.8 L 53.55,88.25 19.8,70.3 15.45,65.1 22.35,65 61.75,80.2 32.8,51.8 29.25,44.75 36.95,47.15 70.65,71 47.6,36.6 l -2,-7.25 6.4,3.6 28,28.85 -16.65,-37.95 0.5,-6.6 5.15,4.6 19.7,31.75"
         fill="#ffffff"
         fill-rule="evenodd"
         stroke="none"
         id="path28" />
    </g>
  </defs>
  <g
     inkscape:groupmode="layer"
     id="layer1"
     inkscape:label="Layer 1">
    <path
       d="m 88.7,53.6 13.7,14.4 2.45,3.75 -4.35,3.85 q -2.15,-0.15 -4.4,0.25 -2.15,0.4 -4.35,1.25 -2.15,0.85 -4.15,2.1 -2,1.2 -3.75,2.75 -1.75,1.55 -3.2,3.3 -1.4,1.75 -2.4,3.65 -1,1.9 -1.5,3.8 -0.45,2 -0.35,3.85 l 14.7,13.55 q 1.55,0.05 3.15,-0.35 1.55,-0.35 3.1,-1.05 1.55,-0.75 3,-1.75 1.45,-1 2.75,-2.25 1.35,-1.25 2.4,-2.7 1.1,-1.45 1.95,-3.05 0.8,-1.6 1.3,-3.25 0.5,-1.7 0.65,-3.4 L 95.35,75.85 100.5,75.6 114.55,92.9 q -0.55,2.05 -1.5,4.1 -0.95,2 -2.25,3.9 -1.2,1.9 -2.75,3.65 -1.5,1.7 -3.2,3.25 -1.65,1.5 -3.45,2.75 -1.8,1.3 -3.6,2.2 -1.85,1 -3.6,1.55 -1.8,0.6 -3.4,0.75 l -15.25,-14.3 -3.8,3.55 -4.4,-2.5 5.05,-4.85 q 0.1,-2.3 0.7,-4.6 0.6,-2.2 1.65,-4.35 1.05,-2.05 2.45,-4 1.45,-1.9 3.2,-3.55 1.75,-1.65 3.75,-3 2,-1.35 4.2,-2.4 2.25,-1 4.55,-1.6 2.35,-0.65 4.75,-0.8 l 1.3,-1.25 -8.25,-7.8 -26.85,26.6 7.4,7.8 -3.9,3.8 L 53.55,88.25 19.8,70.3 15.45,65.1 22.35,65 61.75,80.2 32.8,51.8 29.25,44.75 36.95,47.15 70.65,71 47.6,36.6 l -2,-7.25 6.4,3.6 28,28.85 -16.65,-37.95 0.5,-6.6 5.15,4.6 19.7,31.75"
       fill="#ffffff"
       fill-rule="evenodd"
       stroke="none"
       id="path253"
       transform="matrix(3.998001,0,0,3.998001,0.12793603,0.12793603)" />
  </g>
</svg>
