<?xml version="1.0" encoding="UTF-8" standalone="no"?>
<!-- Created with Inkscape (http://www.inkscape.org/) -->

<svg
   width="512"
   height="512"
   viewBox="0 0 512 512"
   version="1.1"
   id="svg5"
   inkscape:version="1.2.1 (9c6d41e410, 2022-07-14)"
   sodipodi:docname="conjuration.svg"
   xml:space="preserve"
   inkscape:export-filename="conjuration.png"
   inkscape:export-xdpi="96"
   inkscape:export-ydpi="96"
   xmlns:inkscape="http://www.inkscape.org/namespaces/inkscape"
   xmlns:sodipodi="http://sodipodi.sourceforge.net/DTD/sodipodi-0.dtd"
   xmlns="http://www.w3.org/2000/svg"
   xmlns:svg="http://www.w3.org/2000/svg"><sodipodi:namedview
     id="namedview7"
     pagecolor="#ffffff"
     bordercolor="#999999"
     borderopacity="1"
     inkscape:pageshadow="0"
     inkscape:pageopacity="0"
     inkscape:pagecheckerboard="true"
     inkscape:document-units="px"
     showgrid="false"
     height="70mm"
     units="px"
     inkscape:zoom="4.1877626"
     inkscape:cx="69.965762"
     inkscape:cy="109.24688"
     inkscape:window-width="2560"
     inkscape:window-height="1351"
     inkscape:window-x="2391"
     inkscape:window-y="-9"
     inkscape:window-maximized="1"
     inkscape:current-layer="layer1"
     inkscape:showpageshadow="2"
     inkscape:deskcolor="#d1d1d1" /><defs
     id="defs2" /><g
     inkscape:label="Layer 1"
     inkscape:groupmode="layer"
     id="layer1"><path
       style="fill:#ffffff;fill-rule:evenodd;stroke-width:1.24537"
       d="m 275.28191,511.36439 c -2.05405,-0.60179 -4.43582,-2.05311 -5.2928,-3.22509 -1.88648,-2.57996 -2.04565,-10.87068 -0.27224,-14.18427 0.70725,-1.32151 9.68033,-10.95183 19.94019,-21.40074 21.53029,-21.92697 23.78278,-24.6706 37.8762,-46.13509 13.0587,-19.88863 17.05462,-30.16184 23.11052,-59.41591 2.62314,-12.67162 5.37312,-25.56117 6.11104,-28.64345 3.78505,-15.81101 4.605,-90.88254 1.25814,-115.19651 -1.08119,-7.85463 -6.84786,-32.91991 -13.75276,-59.77765 -1.40876,-5.47962 -5.12545,-14.72647 -8.25927,-20.54856 -3.13388,-5.82209 -7.14012,-13.3455 -8.90284,-16.71866 -5.8838,-11.25938 -28.50674,-35.0633 -45.59078,-47.97077 -17.9324,-13.54842 -22.38022,-15.87498 -52.92813,-27.68559 -10.52073,-4.06758 -15.20606,-5.18257 -23.97335,-5.70508 -5.99332,-0.35719 -10.89696,-0.30588 -10.89696,0.11401 0,0.41988 1.79396,1.69113 3.98658,2.82497 2.19262,1.13384 4.75412,2.82907 5.69219,3.7672 4.43567,4.43563 15.89474,9.41008 34.28306,14.88247 8.51367,2.53369 10.83438,5.2886 10.83438,12.8616 0,7.57309 -3.82428,14.88403 -12.26358,23.44447 -13.16593,13.35486 -19.75912,23.02351 -21.88315,32.09048 -0.48138,2.05485 -2.35471,5.97776 -4.16301,8.71757 -2.96397,4.49075 -3.43705,6.88301 -4.80236,24.28467 -0.83294,10.61676 -1.91052,21.3802 -2.39456,23.91874 -0.59058,3.09702 -0.0417,8.01382 1.65972,14.94442 1.39692,5.68087 2.88772,12.40383 3.31287,14.93991 0.60711,3.62169 2.4333,6.09214 8.51117,11.51405 4.25605,3.79665 8.57886,6.90581 9.60627,6.90923 1.02742,0.004 4.81623,1.12677 8.41959,2.49633 3.60336,1.36957 7.80647,2.45108 9.34024,2.40337 1.68914,-0.0526 0.56367,-0.77266 -2.85428,-1.82628 -3.10363,-0.95675 -8.70778,-3.87165 -12.45368,-6.47757 -11.0967,-7.7197 -18.64163,-24.34565 -18.64163,-41.07841 0,-10.32816 2.67315,-20.06263 6.88342,-25.06621 9.00844,-10.70598 27.34477,-17.01789 45.42201,-15.63564 23.51914,1.79834 37.02553,7.92714 48.90171,22.19019 12.53227,15.05092 16.16703,28.16427 13.45512,48.54283 -3.59903,27.04511 -12.48476,36.90759 -42.15384,46.7876 -8.9941,2.99508 -13.88564,3.76738 -28.43519,4.48953 -18.99638,0.94285 -25.70347,0.0614 -37.84642,-4.97389 -3.76722,-1.56215 -9.52758,-3.8151 -12.80075,-5.00655 -8.21463,-2.99015 -17.64651,-10.7737 -22.78035,-18.79924 -2.3702,-3.70518 -6.26217,-12.63511 -8.64885,-19.84431 -4.02115,-12.14639 -4.33663,-14.22626 -4.30184,-28.36163 0.0261,-11.75438 0.86746,-19.3917 3.65504,-33.28912 1.98964,-9.91932 3.37884,-18.27379 3.08709,-18.56551 -0.29153,-0.29174 -2.72119,4.18138 -5.39883,9.94021 -3.73859,8.04056 -5.50068,14.22805 -7.59259,26.66041 -1.49825,8.90438 -4.40511,22.91477 -6.45963,31.1342 -3.56273,14.253 -3.71115,15.89508 -3.20788,35.49297 0.3995,15.55464 1.16317,22.96986 3.14269,30.5115 1.43828,5.47963 4.14273,16.40773 6.00991,24.28468 4.11049,17.34071 12.65953,42.90356 19.15863,57.28691 2.63065,5.82209 6.50995,14.79385 8.62053,19.93723 4.52198,11.01959 17.61328,32.8825 24.97468,41.70846 7.47807,8.9658 13.71046,18.7919 14.53542,22.91662 1.47103,7.35525 -6.2083,16.31246 -13.98525,16.31246 -3.62344,0 -23.0298,-6.24286 -29.329,-9.4349 -13.85158,-7.01913 -42.63156,-32.07009 -50.66511,-44.10041 -2.65214,-3.97157 -6.07489,-11.34403 -7.60621,-16.38327 -1.53126,-5.03924 -5.33186,-16.72787 -8.44576,-25.97472 -3.11391,-9.24685 -7.89144,-23.53744 -10.6168,-31.75687 -2.72531,-8.21942 -7.16624,-21.07768 -9.86871,-28.5739 -6.60477,-18.32077 -9.3768,-32.85982 -11.69099,-61.31851 -3.07338,-37.79554 0.0589,-89.09598 7.36255,-120.57471 2.82111,-12.15928 4.6435,-24.77955 9.56226,-66.21909 C 104.97569,41.77668 103.21594,36.78772 92.24889,29.79384 89.52973,28.05973 84.34588,23.84238 80.72927,20.42193 73.35566,13.4483 72.1696,8.5625995 76.54421,3.1825695 l 2.39058,-2.94003999 32.79107,0.58762 c 45.54468,0.81617999 90.27743,0.62552999 113.11723,-0.4821 11.82878,-0.57364 23.88432,-0.43009 31.13416,0.37072 6.50709,0.71875999 30.04454,1.96402999 52.30549,2.76724999 36.17324,1.30522 43.47978,1.22414 68.75481,-0.76301 30.7183,-2.41509999 40.17442,-2.03840999 49.49621,1.97172 7.95344,3.42149 9.77139,7.3325705 6.82777,14.6894105 -2.4961,6.23827 -4.6422,7.52773 -16.09047,9.66773 -4.80496,0.89817 -12.93937,3.75015 -18.0765,6.33774 l -9.34024,4.70469 -0.38333,6.00088 c -0.42192,6.60869 2.23507,16.20085 6.61681,23.88793 1.56173,2.73981 4.30967,8.60295 6.1065,13.0292 1.79688,4.42624 4.63312,9.47359 6.30275,11.21632 4.26152,4.44806 16.04749,29.85068 19.3748,41.75897 5.82726,20.85533 8.3436,45.0765 10.13396,97.54339 1.54503,45.27722 1.73273,41.73294 -4.16687,78.67613 -2.76385,17.30751 -6.09888,29.56938 -9.62255,35.37911 -1.28427,2.11748 -3.85166,8.8937 -5.70539,15.05827 -6.3053,20.96893 -17.50209,45.64468 -24.19484,53.32126 -1.08426,1.24365 -3.65264,5.57514 -5.70747,9.62554 -12.29341,24.23184 -22.86843,40.26776 -32.22912,48.872 -12.36209,11.3631 -37.0274,25.6898 -55.97001,32.5098 -13.22888,4.76288 -19.88773,5.92652 -25.12791,4.39129 z m 22.56433,-14.24279 c 6.65707,-2.40973 12.70933,-4.85018 13.44948,-5.42318 0.74021,-0.57306 5.2187,-3.14405 9.95226,-5.71337 7.76058,-4.21235 14.4634,-8.56848 24.83189,-16.13824 10.03492,-7.32623 29.64259,-39.56469 38.89329,-63.94748 3.01356,-7.94307 6.80904,-16.44154 8.43445,-18.88545 8.0566,-12.11384 19.16978,-33.8432 20.19146,-39.48004 0.47981,-2.64838 1.55667,-6.21626 2.39252,-7.92864 2.90383,-5.94903 5.67764,-19.86841 10.6714,-53.55081 2.37703,-16.03267 2.5253,-19.66399 1.32234,-32.37955 -0.74521,-7.87695 -1.68365,-26.37066 -2.08534,-41.09714 -1.40938,-51.66827 -9.16167,-88.22823 -21.80607,-102.83768 -4.52031,-5.22283 -12.37159,-19.74548 -12.37159,-22.88401 0,-0.79835 -2.44999,-6.32237 -5.44451,-12.27563 -2.99447,-5.95326 -6.14525,-13.47054 -7.00171,-16.70507 -2.13822,-8.07537 -1.14987,-20.05654 1.93671,-23.47686 3.93609,-4.36172 21.63678,-12.59895 31.66378,-14.73512 11.45056,-2.43945 13.1556,-5.24911 4.50696,-7.42687 -7.49737,-1.88786 -12.29727,-1.81021 -39.71715,0.64248 -20.6671,1.84867 -28.439,1.92494 -66.62718,0.65388 -23.77704,-0.79141 -50.23615,-2.08723 -58.79806,-2.87961 -11.86294,-1.0978905 -20.60473,-1.0900905 -36.73832,0.0329 -21.19317,1.47505 -96.01677,1.09363 -117.49757,-0.59895 -9.70902,-0.7650305 -10.3663,-0.6654805 -9.94803,1.50651 0.24616,1.27912 3.23573,4.29214 6.64304,6.69561 3.40732,2.40347 9.06373,7.17203 12.56972,10.59679 6.0484,5.90819 6.4168,6.64108 7.199,14.32173 0.50432,4.95258 0.10691,13.41264 -1.02413,21.79393 -1.01667,7.53447 -2.47185,19.58341 -3.2337,26.77541 -0.76185,7.19199 -2.76557,19.80134 -4.45278,28.02076 -7.0586,34.38684 -8.71706,48.17924 -9.88336,82.19427 -1.22216,35.64269 4.43775,87.46759 10.84893,99.33757 0.82657,1.53042 4.15065,10.9086 7.3868,20.8404 3.23614,9.93181 8.80322,26.18385 12.37132,36.11566 3.56811,9.93181 7.54837,22.20734 8.845,27.27894 1.29663,5.07162 3.61077,11.7966 5.1425,14.94442 4.48146,9.2096 30.53905,33.46931 47.43804,44.16497 1.94646,1.23193 8.61704,3.872 14.82356,5.86681 8.51357,2.73632 11.69652,3.28507 12.96212,2.2347 0.92269,-0.76574 1.67755,-1.89606 1.67755,-2.51182 0,-1.64427 -6.04208,-10.74076 -11.8754,-17.87864 -5.03564,-6.16174 -19.72136,-28.90079 -23.32487,-36.11566 -1.02632,-2.05486 -3.40789,-7.65902 -5.29234,-12.45368 -1.8845,-4.79466 -5.25416,-12.66662 -7.48824,-17.49324 -7.34434,-15.86747 -20.24805,-56.38736 -22.38888,-70.30518 -0.47407,-3.08228 -1.9996,-9.52706 -3.39,-14.32173 -1.95845,-6.75369 -2.66017,-13.62728 -3.11494,-30.5115 -0.55089,-20.45534 -0.39115,-22.527 2.59727,-33.72909 3.27626,-12.28022 6.23239,-26.16491 7.66712,-36.0115 1.80377,-12.37925 4.86573,-21.31175 12.80681,-37.36103 7.26909,-14.69102 9.46885,-17.95101 17.4333,-25.83552 9.42082,-9.32628 13.87897,-11.68058 17.08314,-9.02135 2.7299,2.26561 2.34992,4.12581 -3.00067,14.6902 -6.17065,12.18338 -6.6868,13.90434 -11.94852,39.83707 -3.54219,17.45765 -4.37017,24.34051 -4.37017,36.32777 0,13.32 0.38176,15.88181 3.84431,25.78552 2.11433,6.04791 5.15334,13.23786 6.75329,15.97767 5.6692,9.70795 17.68677,16.69807 41.08518,23.89748 9.43354,2.90261 35.41269,1.30354 47.94663,-2.95119 28.45835,-9.66037 35.213,-18.76464 35.40587,-47.72169 0.0803,-12.08368 -0.18515,-13.59634 -3.50192,-19.92589 -4.94604,-9.4393 -12.10671,-17.70428 -19.38544,-22.37503 -7.27869,-4.67072 -10.86515,-5.73564 -25.22627,-7.49046 -13.19222,-1.61197 -24.47793,0.49357 -33.768,6.30007 -8.00075,5.00064 -10.75672,11.03892 -10.75563,23.56542 6.8e-4,7.63666 0.7339,11.15584 4.02012,19.29439 3.5814,8.86978 4.69758,10.39866 10.24609,14.03485 10.86436,7.11988 22.0285,8.23754 32.52592,3.2562 7.66274,-3.63621 9.40481,-7.89271 8.91697,-21.78728 -0.4021,-11.4461 -0.59835,-12.17979 -4.43056,-16.54446 -4.22732,-4.81464 -4.98974,-7.9842 -2.51565,-10.4583 6.32819,-6.32818 29.21759,8.77947 33.14075,21.87387 2.68129,8.94924 1.88142,14.26455 -3.78741,25.16941 -4.02475,7.74215 -6.74328,11.24843 -11.51966,14.85773 -9.90851,7.4874 -15.45285,9.1505 -32.68051,9.80303 -15.72977,0.59578 -20.59987,-0.31876 -36.74583,-6.90026 -6.60998,-2.69443 -19.0877,-16.06262 -20.6901,-22.16671 -4.4946,-17.12126 -6.65295,-29.3846 -5.93757,-33.73622 0.43339,-2.63516 1.58091,-13.89854 2.55049,-25.02975 1.60897,-18.47207 2.08711,-20.80912 5.4779,-26.77541 2.04325,-3.59526 4.33308,-8.86579 5.08846,-11.71229 1.77341,-6.68253 9.58938,-18.33866 18.0861,-26.97224 9.34093,-9.49139 14.38877,-16.812 14.38877,-20.86736 0,-3.25886 -0.65166,-3.65914 -11.79989,-7.24861 -13.13944,-4.23057 -21.76336,-8.30255 -30.9122,-14.59583 -3.37519,-2.32174 -6.59454,-4.22134 -7.15415,-4.22134 -1.63499,0 -8.66606,-11.10781 -8.66606,-13.69086 0,-4.75203 4.59494,-6.23503 19.31869,-6.23503 16.85216,0 22.28035,1.34075 48.3662,11.94632 25.30137,10.28663 28.91156,12.53243 52.23664,32.49504 18.60711,15.92471 32.63925,32.00109 40.01797,45.84779 2.92,5.47962 7.05271,13.06268 9.18379,16.85124 2.65542,4.72077 5.88985,14.90956 10.27884,32.37955 12.59178,50.12001 11.43846,39.99272 11.55419,101.45869 l 0.10326,54.79618 -5.33614,25.53004 c -2.93486,14.04152 -6.18212,28.89253 -7.21621,33.00224 -3.25137,12.92206 -10.24332,27.9964 -19.01614,40.99791 -4.65857,6.9041 -10.44036,15.63518 -12.84842,19.40242 -2.40807,3.76724 -13.69096,16.31091 -25.07305,27.87486 -11.38209,11.56389 -20.69474,21.79147 -20.69474,22.72793 0,2.77303 5.30073,1.99313 18.20699,-2.67874 z M 280.93452,237.16476 c 1.94463,-1.53621 5.59638,-6.64224 8.11506,-11.34673 3.80316,-7.10371 4.47786,-9.45482 3.98017,-13.87025 -0.32961,-2.92415 -1.51583,-6.62523 -2.63608,-8.22461 -1.95073,-2.78505 -2.03684,-2.43909 -2.03684,8.18424 0,13.42805 -2.70371,20.12875 -10.43957,25.87249 -2.82013,2.09391 -4.09047,3.44056 -2.82294,2.99256 1.26752,-0.448 3.89562,-2.07148 5.8402,-3.6077 z"
       id="path881" /></g></svg>
