<?xml version="1.0" encoding="UTF-8" standalone="no"?>
<svg
   height="512"
   width="512"
   version="1.1"
   id="svg33"
   sodipodi:docname="conjuration.svg"
   inkscape:version="1.2.1 (9c6d41e410, 2022-07-14)"
   inkscape:export-filename="conjuration.png"
   inkscape:export-xdpi="96"
   inkscape:export-ydpi="96"
   xmlns:inkscape="http://www.inkscape.org/namespaces/inkscape"
   xmlns:sodipodi="http://sodipodi.sourceforge.net/DTD/sodipodi-0.dtd"
   xmlns:xlink="http://www.w3.org/1999/xlink"
   xmlns="http://www.w3.org/2000/svg"
   xmlns:svg="http://www.w3.org/2000/svg">
  <sodipodi:namedview
     id="namedview35"
     pagecolor="#ffffff"
     bordercolor="#000000"
     borderopacity="0.25"
     inkscape:showpageshadow="2"
     inkscape:pageopacity="0.0"
     inkscape:pagecheckerboard="true"
     inkscape:deskcolor="#d1d1d1"
     showgrid="false"
     inkscape:zoom="1.4183568"
     inkscape:cx="71.209163"
     inkscape:cy="240.06653"
     inkscape:window-width="2560"
     inkscape:window-height="1351"
     inkscape:window-x="2391"
     inkscape:window-y="-9"
     inkscape:window-maximized="1"
     inkscape:current-layer="svg33" />
  <defs
     id="defs31">
    <g
       id="shape0">
      <path
         d="M 100,100 H 0 V 0 h 100 v 100"
         fill="#00cc66"
         fill-opacity="0"
         fill-rule="evenodd"
         stroke="none"
         id="path8" />
      <path
         d="M 84.3,84.3 V 15.7 H 15.7 v 68.6 h 68.6 m 7.95,7.95 H 7.75 V 7.75 h 84.5 v 84.5"
         fill="#666666"
         fill-opacity="0"
         fill-rule="evenodd"
         stroke="none"
         id="path10" />
      <path
         d="M 84.3,84.3 H 15.7 V 15.7 H 84.3 V 84.3 M 76.4,76.4 V 23.55 H 23.55 V 76.4 H 76.4"
         fill="#999999"
         fill-opacity="0"
         fill-rule="evenodd"
         stroke="none"
         id="path12" />
      <path
         d="M 92.25,92.25 V 7.75 H 7.75 v 84.5 h 84.5 m 3.8,3.8 H 3.95 V 3.95 h 92.1 v 92.1"
         fill="#333333"
         fill-opacity="0"
         fill-rule="evenodd"
         stroke="none"
         id="path14" />
      <path
         d="M 68.85,68.85 V 31.1 H 31.1 V 68.85 H 68.85 M 76.4,76.4 H 23.55 V 23.55 H 76.4 V 76.4"
         fill="#cccccc"
         fill-opacity="0"
         fill-rule="evenodd"
         stroke="none"
         id="path16" />
      <path
         d="M 68.85,68.85 H 31.1 V 31.1 h 37.75 v 37.75"
         fill="#ffffff"
         fill-opacity="0"
         fill-rule="evenodd"
         stroke="none"
         id="path18" />
      <path
         d="M 96.05,96.05 V 3.95 H 3.95 v 92.1 h 92.1 M 100,100 H 0 V 0 h 100 v 100"
         fill="#000000"
         fill-opacity="0"
         fill-rule="evenodd"
         stroke="none"
         id="path20" />
      <path
         d="M 0,50 H 50 L 0,0 M 50,50 V 0 m 0,100 V 50 L 0,100 M 100,50 H 50 l 50,50 M 50,50 100,0"
         fill="none"
         stroke="#000000"
         stroke-linecap="round"
         stroke-linejoin="round"
         stroke-opacity="0"
         stroke-width="0.05"
         id="path22" />
    </g>
    <g
       id="sprite0"
       transform="translate(-227.4,41.05)">
      <use
         height="966.34998"
         transform="translate(227.4,-41.05)"
         width="597.25"
         xlink:href="#shape1"
         id="use25" />
    </g>
    <g
       id="shape1"
       transform="translate(-227.4,41.05)">
      <path
         d="m 819.8,-41.05 -67.9,58.2 Q 952.15,688.25 601.2,925.3 579.55,923.95 585.45,909.3 758.7,719.4 732.45,418.7 696.5,7.75 397.6,4.9 q -21.3,42.3 95.2,83.95 -76.4,106.9 -82.3,245.05 1.95,76.65 87.55,110.2 81.5,15.7 114.75,-46.45 17.35,-73.65 -16.85,-76.9 1.1,7.4 1.1,15.8 0,35.7 -20.6,60.45 -20.1,25.6 -48.8,25.6 -28.9,0 -49.1,-25.6 -20.1,-24.75 -20.1,-60.45 0,-35.7 20.1,-61.1 9.65,-12.1 21.3,-18 29.35,-18.15 68.3,-11.6 88.75,20.6 79.5,125.55 Q 624.25,484.8 525.2,485.5 433.95,476.7 397.75,361.05 373,262.7 423.6,156.3 q -214.85,296.3 60.65,653.55 -17.95,12.5 -49.3,0 Q 165.8,605.25 282.3,7.75 l -54.9,-48.8 h 592.4"
         fill="#ffffff"
         fill-rule="evenodd"
         stroke="none"
         id="path28" />
    </g>
  </defs>
  <g
     inkscape:groupmode="layer"
     id="layer1"
     inkscape:label="Layer 1">
    <path
       d="m 819.8,-41.05 -67.9,58.2 Q 952.15,688.25 601.2,925.3 579.55,923.95 585.45,909.3 758.7,719.4 732.45,418.7 696.5,7.75 397.6,4.9 q -21.3,42.3 95.2,83.95 -76.4,106.9 -82.3,245.05 1.95,76.65 87.55,110.2 81.5,15.7 114.75,-46.45 17.35,-73.65 -16.85,-76.9 1.1,7.4 1.1,15.8 0,35.7 -20.6,60.45 -20.1,25.6 -48.8,25.6 -28.9,0 -49.1,-25.6 -20.1,-24.75 -20.1,-60.45 0,-35.7 20.1,-61.1 9.65,-12.1 21.3,-18 29.35,-18.15 68.3,-11.6 88.75,20.6 79.5,125.55 Q 624.25,484.8 525.2,485.5 433.95,476.7 397.75,361.05 373,262.7 423.6,156.3 q -214.85,296.3 60.65,653.55 -17.95,12.5 -49.3,0 Q 165.8,605.25 282.3,7.75 l -54.9,-48.8 h 592.4"
       fill="#ffffff"
       fill-rule="evenodd"
       stroke="none"
       id="path253"
       transform="matrix(0.48645687,0,0,0.48796155,-1.1017052,40.130837)" />
  </g>
</svg>
