<?xml version="1.0" encoding="UTF-8" standalone="no"?>
<svg
   height="512"
   width="512"
   version="1.1"
   id="svg33"
   sodipodi:docname="crossbow.svg"
   inkscape:version="1.2.1 (9c6d41e410, 2022-07-14)"
   inkscape:export-filename="crossbow.png"
   inkscape:export-xdpi="96"
   inkscape:export-ydpi="96"
   xmlns:inkscape="http://www.inkscape.org/namespaces/inkscape"
   xmlns:sodipodi="http://sodipodi.sourceforge.net/DTD/sodipodi-0.dtd"
   xmlns:xlink="http://www.w3.org/1999/xlink"
   xmlns="http://www.w3.org/2000/svg"
   xmlns:svg="http://www.w3.org/2000/svg">
  <sodipodi:namedview
     id="namedview35"
     pagecolor="#ffffff"
     bordercolor="#000000"
     borderopacity="0.25"
     inkscape:showpageshadow="2"
     inkscape:pageopacity="0.0"
     inkscape:pagecheckerboard="true"
     inkscape:deskcolor="#d1d1d1"
     showgrid="false"
     inkscape:zoom="1.4183568"
     inkscape:cx="77.554534"
     inkscape:cy="306.34041"
     inkscape:window-width="2560"
     inkscape:window-height="1351"
     inkscape:window-x="2391"
     inkscape:window-y="-9"
     inkscape:window-maximized="1"
     inkscape:current-layer="svg33" />
  <defs
     id="defs31">
    <g
       id="shape0">
      <path
         d="M 100,100 H 0 V 0 h 100 v 100"
         fill="#00cc66"
         fill-opacity="0"
         fill-rule="evenodd"
         stroke="none"
         id="path8" />
      <path
         d="M 84.3,84.3 V 15.7 H 15.7 v 68.6 h 68.6 m 7.95,7.95 H 7.75 V 7.75 h 84.5 v 84.5"
         fill="#666666"
         fill-opacity="0"
         fill-rule="evenodd"
         stroke="none"
         id="path10" />
      <path
         d="M 84.3,84.3 H 15.7 V 15.7 H 84.3 V 84.3 M 76.4,76.4 V 23.55 H 23.55 V 76.4 H 76.4"
         fill="#999999"
         fill-opacity="0"
         fill-rule="evenodd"
         stroke="none"
         id="path12" />
      <path
         d="M 92.25,92.25 V 7.75 H 7.75 v 84.5 h 84.5 m 3.8,3.8 H 3.95 V 3.95 h 92.1 v 92.1"
         fill="#333333"
         fill-opacity="0"
         fill-rule="evenodd"
         stroke="none"
         id="path14" />
      <path
         d="M 68.85,68.85 V 31.1 H 31.1 V 68.85 H 68.85 M 76.4,76.4 H 23.55 V 23.55 H 76.4 V 76.4"
         fill="#cccccc"
         fill-opacity="0"
         fill-rule="evenodd"
         stroke="none"
         id="path16" />
      <path
         d="M 68.85,68.85 H 31.1 V 31.1 h 37.75 v 37.75"
         fill="#ffffff"
         fill-opacity="0"
         fill-rule="evenodd"
         stroke="none"
         id="path18" />
      <path
         d="M 96.05,96.05 V 3.95 H 3.95 v 92.1 h 92.1 M 100,100 H 0 V 0 h 100 v 100"
         fill="#000000"
         fill-opacity="0"
         fill-rule="evenodd"
         stroke="none"
         id="path20" />
      <path
         d="M 0,50 H 50 L 0,0 M 50,50 V 0 m 0,100 V 50 L 0,100 M 100,50 H 50 l 50,50 M 50,50 100,0"
         fill="none"
         stroke="#000000"
         stroke-linecap="round"
         stroke-linejoin="round"
         stroke-opacity="0"
         stroke-width="0.05"
         id="path22" />
    </g>
    <g
       id="sprite0"
       transform="translate(-0.6,-0.9)">
      <use
         height="123.1"
         transform="translate(0.6,0.9)"
         width="123.9"
         xlink:href="#shape1"
         id="use25" />
    </g>
    <g
       id="shape1"
       transform="translate(-0.6,-0.9)">
      <path
         d="m 87.05,70.15 -4.15,4.2 41.6,41.6 -8.05,8.05 -41.6,-41.6 -4.1,4 L 48.25,63.85 64.5,47.6 87.05,70.15 M 90.9,13.4 90.05,13 88.45,12.2 Q 77.1,7.1 63.8,6.7 45.8,6.15 36.25,19.3 l 22,22 L 41.95,57.6 20.1,35.8 Q 16.2,38.45 13.3,41.85 6,50.6 6.4,64.1 q 0.25,9.65 3.05,18.15 1.35,4.25 3.25,8.2 l 0.4,0.7 77.8,-77.75 m 1.55,-5.75 q 2.05,-0.1 4,0.85 2,1.05 2.7,2.55 0.7,1.5 -0.4,2.65 -0.9,1.1 -3.05,1.3 H 95.4 L 93.35,14.75 93,14.55 92.9,14.5 14.2,93.25 l 0.15,0.25 0.3,2.55 q -0.15,2.1 -1.35,3.15 -1.1,0.95 -2.6,0.3 Q 9.2,98.8 8.15,96.8 7.2,94.9 7.3,92.75 7.45,90.65 8.6,89.65 L 9.35,89.2 6.95,84.75 Q 1.05,72.65 0.6,58.3 0.2,44.75 7.55,36.05 q 2.85,-3.35 6.8,-6 L 8.9,24.55 v -3.7 L 21.45,8.2 h 3.75 l 5.25,5.3 Q 39.95,0.35 58.05,0.9 74.9,1.4 88.65,9.6 l 0.2,0.1 0.45,-0.75 q 1,-1.15 3.15,-1.3"
         fill="#ffffff"
         fill-rule="evenodd"
         stroke="none"
         id="path28" />
    </g>
  </defs>
  <g
     inkscape:groupmode="layer"
     id="layer1"
     inkscape:label="Layer 1">
    <path
       d="m 87.05,70.15 -4.15,4.2 41.6,41.6 -8.05,8.05 -41.6,-41.6 -4.1,4 L 48.25,63.85 64.5,47.6 87.05,70.15 M 90.9,13.4 90.05,13 88.45,12.2 Q 77.1,7.1 63.8,6.7 45.8,6.15 36.25,19.3 l 22,22 L 41.95,57.6 20.1,35.8 Q 16.2,38.45 13.3,41.85 6,50.6 6.4,64.1 q 0.25,9.65 3.05,18.15 1.35,4.25 3.25,8.2 l 0.4,0.7 77.8,-77.75 m 1.55,-5.75 q 2.05,-0.1 4,0.85 2,1.05 2.7,2.55 0.7,1.5 -0.4,2.65 -0.9,1.1 -3.05,1.3 H 95.4 L 93.35,14.75 93,14.55 92.9,14.5 14.2,93.25 l 0.15,0.25 0.3,2.55 q -0.15,2.1 -1.35,3.15 -1.1,0.95 -2.6,0.3 Q 9.2,98.8 8.15,96.8 7.2,94.9 7.3,92.75 7.45,90.65 8.6,89.65 L 9.35,89.2 6.95,84.75 Q 1.05,72.65 0.6,58.3 0.2,44.75 7.55,36.05 q 2.85,-3.35 6.8,-6 L 8.9,24.55 v -3.7 L 21.45,8.2 h 3.75 l 5.25,5.3 Q 39.95,0.35 58.05,0.9 74.9,1.4 88.65,9.6 l 0.2,0.1 0.45,-0.75 q 1,-1.15 3.15,-1.3"
       fill="#ffffff"
       fill-rule="evenodd"
       stroke="none"
       id="path253"
       transform="matrix(3.8396802,0,0,3.8396802,15.32018,16.7194)" />
  </g>
</svg>
