<?xml version="1.0" encoding="UTF-8" standalone="no"?>
<svg
   height="512"
   width="512"
   version="1.1"
   id="svg33"
   sodipodi:docname="dagger.svg"
   inkscape:version="1.2.1 (9c6d41e410, 2022-07-14)"
   inkscape:export-filename="dagger.png"
   inkscape:export-xdpi="96"
   inkscape:export-ydpi="96"
   xmlns:inkscape="http://www.inkscape.org/namespaces/inkscape"
   xmlns:sodipodi="http://sodipodi.sourceforge.net/DTD/sodipodi-0.dtd"
   xmlns:xlink="http://www.w3.org/1999/xlink"
   xmlns="http://www.w3.org/2000/svg"
   xmlns:svg="http://www.w3.org/2000/svg">
  <sodipodi:namedview
     id="namedview35"
     pagecolor="#ffffff"
     bordercolor="#000000"
     borderopacity="0.25"
     inkscape:showpageshadow="2"
     inkscape:pageopacity="0.0"
     inkscape:pagecheckerboard="true"
     inkscape:deskcolor="#d1d1d1"
     showgrid="false"
     inkscape:zoom="1.4183568"
     inkscape:cx="-21.151237"
     inkscape:cy="322.55636"
     inkscape:window-width="2560"
     inkscape:window-height="1351"
     inkscape:window-x="2391"
     inkscape:window-y="-9"
     inkscape:window-maximized="1"
     inkscape:current-layer="svg33" />
  <g
     id="g6"
     transform="matrix(3.998001,0,0,3.998001,0.12793603,0.12793603)">
    <use
       height="100"
       transform="scale(1.28)"
       width="100"
       xlink:href="#shape0"
       id="use2" />
    <use
       height="708.5"
       transform="matrix(0.124,0,0,0.124,20.0063,20.0104)"
       width="707.95001"
       xlink:href="#sprite0"
       id="use4" />
  </g>
  <defs
     id="defs31">
    <g
       id="shape0">
      <path
         d="M 100,100 H 0 V 0 h 100 v 100"
         fill="#00cc66"
         fill-opacity="0"
         fill-rule="evenodd"
         stroke="none"
         id="path8" />
      <path
         d="M 84.3,84.3 V 15.7 H 15.7 v 68.6 h 68.6 m 7.95,7.95 H 7.75 V 7.75 h 84.5 v 84.5"
         fill="#666666"
         fill-opacity="0"
         fill-rule="evenodd"
         stroke="none"
         id="path10" />
      <path
         d="M 84.3,84.3 H 15.7 V 15.7 H 84.3 V 84.3 M 76.4,76.4 V 23.55 H 23.55 V 76.4 H 76.4"
         fill="#999999"
         fill-opacity="0"
         fill-rule="evenodd"
         stroke="none"
         id="path12" />
      <path
         d="M 92.25,92.25 V 7.75 H 7.75 v 84.5 h 84.5 m 3.8,3.8 H 3.95 V 3.95 h 92.1 v 92.1"
         fill="#333333"
         fill-opacity="0"
         fill-rule="evenodd"
         stroke="none"
         id="path14" />
      <path
         d="M 68.85,68.85 V 31.1 H 31.1 V 68.85 H 68.85 M 76.4,76.4 H 23.55 V 23.55 H 76.4 V 76.4"
         fill="#cccccc"
         fill-opacity="0"
         fill-rule="evenodd"
         stroke="none"
         id="path16" />
      <path
         d="M 68.85,68.85 H 31.1 V 31.1 h 37.75 v 37.75"
         fill="#ffffff"
         fill-opacity="0"
         fill-rule="evenodd"
         stroke="none"
         id="path18" />
      <path
         d="M 96.05,96.05 V 3.95 H 3.95 v 92.1 h 92.1 M 100,100 H 0 V 0 h 100 v 100"
         fill="#000000"
         fill-opacity="0"
         fill-rule="evenodd"
         stroke="none"
         id="path20" />
      <path
         d="M 0,50 H 50 L 0,0 M 50,50 V 0 m 0,100 V 50 L 0,100 M 100,50 H 50 l 50,50 M 50,50 100,0"
         fill="none"
         stroke="#000000"
         stroke-linecap="round"
         stroke-linejoin="round"
         stroke-opacity="0"
         stroke-width="0.05"
         id="path22" />
    </g>
    <g
       id="sprite0"
       transform="translate(186.25,-162.15)">
      <use
         height="708.5"
         transform="translate(-186.25,162.15)"
         width="707.95001"
         xlink:href="#shape1"
         id="use25" />
    </g>
    <g
       id="shape1"
       transform="translate(186.25,-162.15)">
      <path
         d="m 291.4,488 q 10.4,-10.7 34.55,-1.95 11.55,3.85 24.2,12.6 5.7,3.9 11.55,8.6 l 10.4,9.6 -71.15,71.35 165,165 17.3,-17.6 38.45,38.45 -96.65,96.6 -38.45,-38.4 17.85,-17.6 -165,-165 -71.35,71.1 q -23.05,-23.05 -29.6,-47.2 -5,-12.35 -4.75,-21.95 0.65,-6.85 5.6,-11.8 L 166.2,612.95 -163.7,283 -186.25,162.15 -69.05,183.3 263.35,515.7 291.4,488"
         fill="#ffffff"
         fill-rule="evenodd"
         stroke="none"
         id="path28" />
    </g>
  </defs>
</svg>
