<?xml version="1.0" encoding="UTF-8" standalone="no"?>
<!-- Created with Inkscape (http://www.inkscape.org/) -->

<svg
   width="512"
   height="512"
   viewBox="0 0 512 512"
   version="1.1"
   id="svg5"
   inkscape:version="1.2.1 (9c6d41e410, 2022-07-14)"
   sodipodi:docname="potion.svg"
   xml:space="preserve"
   inkscape:export-filename="potion.png"
   inkscape:export-xdpi="96"
   inkscape:export-ydpi="96"
   xmlns:inkscape="http://www.inkscape.org/namespaces/inkscape"
   xmlns:sodipodi="http://sodipodi.sourceforge.net/DTD/sodipodi-0.dtd"
   xmlns="http://www.w3.org/2000/svg"
   xmlns:svg="http://www.w3.org/2000/svg"><sodipodi:namedview
     id="namedview7"
     pagecolor="#ffffff"
     bordercolor="#999999"
     borderopacity="1"
     inkscape:pageshadow="0"
     inkscape:pageopacity="0"
     inkscape:pagecheckerboard="true"
     inkscape:document-units="px"
     showgrid="false"
     height="70mm"
     units="px"
     inkscape:zoom="2.0938813"
     inkscape:cx="295.14567"
     inkscape:cy="316.39807"
     inkscape:window-width="2560"
     inkscape:window-height="1351"
     inkscape:window-x="2391"
     inkscape:window-y="-9"
     inkscape:window-maximized="1"
     inkscape:current-layer="layer1"
     inkscape:showpageshadow="2"
     inkscape:deskcolor="#d1d1d1" /><defs
     id="defs2" /><g
     inkscape:label="Layer 1"
     inkscape:groupmode="layer"
     id="layer1"><path
       style="fill:#ffffff;fill-rule:evenodd;stroke-width:0.626347"
       d="m 271.25245,511.09109 c -4.89642,-0.47277 -17.9432,-0.83578 -31.36307,-0.87155 -20.59739,-0.0564 -23.68702,-0.19857 -29.8106,-1.38679 -3.75736,-0.72926 -8.2289,-1.5881 -9.93686,-1.90907 -1.70781,-0.32078 -8.55496,-0.84455 -15.21577,-1.16375 -18.72114,-0.89713 -23.26233,-1.48696 -25.63412,-3.32931 -4.68065,-3.63579 -15.32298,-15.27253 -20.93366,-22.88953 -3.32684,-4.51653 -8.48431,-10.75013 -11.46091,-13.85238 -2.97668,-3.10217 -6.20261,-6.79755 -7.16872,-8.21183 -0.96618,-1.41427 -2.64888,-3.56629 -3.7394,-4.78228 -3.65164,-4.07198 -5.41155,-7.21017 -8.89754,-15.86632 -1.90536,-4.73109 -4.89551,-11.55324 -6.64478,-15.16033 -3.507519,-7.23255 -6.151079,-14.78903 -8.371349,-23.92955 -0.80205,-3.30053 -2.01009,-8.27502 -2.68512,-11.05441 -0.67486,-2.77939 -1.5523,-7.89601 -1.94933,-11.37025 -0.39729,-3.47425 -1.12294,-8.85414 -1.61313,-11.95533 -1.58754,-10.04289 -1.01522,-17.30937 2.78984,-35.42071 2.26557,-10.78349 2.33638,-11.02009 5.7617,-19.26626 1.51522,-3.64796 3.51326,-8.4983 4.43988,-10.77854 3.735669,-9.19288 26.134949,-35.40071 39.602349,-46.33596 5.37066,-4.36089 25.16893,-21.93996 30.42223,-27.0122 l 3.4811,-3.36106 0.34244,-7.26432 c 0.18781,-3.99538 0.62251,-7.97496 0.96469,-8.84353 0.34244,-0.86857 1.36986,-5.27453 2.28352,-9.79105 3.53312,-17.4666 4.23833,-20.51727 6.9365,-30.00482 2.67872,-9.4196 4.53097,-15.27301 7.95122,-25.12711 0.87767,-2.52861 2.45931,-8.64012 3.51484,-13.58113 1.05553,-4.94101 2.98466,-11.83951 4.28695,-15.33001 2.37777,-6.37307 3.27472,-10.35814 4.04526,-17.973333 0.22859,-2.25826 1.08503,-7.01722 1.90344,-10.57546 0.81867,-3.55824 1.4878,-7.25357 1.48764,-8.21184 -5e-4,-2.59246 -4.43672,-9.44392 -8.51922,-13.15724 l -3.59096,-3.26636 -0.22105,-5.87695 c -0.36653,-9.73494 1.47334,-12.88595 7.98048,-13.6698 1.72991,-0.20838 3.2512,-0.55325 3.38069,-0.76632 0.42636,-0.70122 -2.46171,-8.52874 -4.33498,-11.75002 -1.6286,-2.8006 -1.86057,-3.84644 -2.04749,-9.23168 -0.23855,-6.8726503 0.72223,-9.7629703 4.24864,-12.7810703 3.24339,-2.77588 5.82935,-3.10043997 22.97791,-2.88404 9.479,0.11964 19.32744,-0.12108997 24.53162,-0.59947997 10.94527,-1.00629 47.24307,-0.37741 52.008,0.90103997 4.21564,1.13109 7.5128,3.48857 8.83105,6.31423 1.69417,3.6311003 1.02927,10.9049903 -1.77122,19.3780603 -2.93794,8.88908 -2.92656,9.72863 0.13963,10.25548 5.01826,0.86235 8.17688,4.50422 8.17688,9.42798 0,2.51999 -2.0282,8.97129 -3.89292,12.38274 -0.6649,1.21599 -3.38733,4.3898 -6.05035,7.05291 l -4.84173,4.84202 -0.45542,5.55867 c -0.58758,7.17548 0.0498,19.79544 1.22351,24.237313 3.44269,13.02501 4.60967,18.013 5.32062,22.7405 0.44385,2.95311 1.33678,7.9276 1.98382,11.05441 0.64747,3.12682 1.71045,9.17309 2.36313,13.43616 0.65246,4.26307 1.92772,10.80096 2.83332,14.52865 0.90568,3.72769 2.00002,8.90955 2.43196,11.51522 2.23132,13.46001 4.07152,21.26676 6.27841,26.6342 2.09669,5.09943 2.89041,8.84831 3.30805,15.62279 0.26762,4.33553 0.61673,6.07537 1.29747,6.45479 0.51195,0.28571 2.97294,1.51553 5.4679,2.73297 8.45073,4.12354 24.67648,16.06225 33.6987,24.79506 1.90095,1.8399 6.21217,5.33628 9.58048,7.76974 7.46709,5.3945 20.11418,17.78487 26.43947,25.90287 5.59813,7.18467 6.14427,8.06609 8.02328,12.94945 0.80203,2.08455 2.08787,4.92711 2.85741,6.31681 0.76962,1.3897 2.69585,5.51141 4.28064,9.15937 1.58487,3.64796 3.25793,7.48542 3.71796,8.52769 2.77006,6.27592 3.59038,11.25099 3.90563,23.68802 0.28922,11.40812 0.19118,12.97084 -1.32132,21.16129 -2.97719,16.11727 -3.64159,18.91667 -5.43765,22.91425 -0.97957,2.1801 -1.78094,4.12693 -1.78094,4.32629 0,0.1993 -0.40974,1.25821 -0.91116,2.35298 -1.49753,3.27122 -4.64542,11.13549 -6.56383,16.39819 -2.21503,6.07658 -4.57136,10.83648 -8.60448,17.38193 -1.70531,2.76766 -5.19064,9.27655 -7.74502,14.46421 -2.55447,5.18767 -6.17253,11.54198 -8.04024,14.12065 -8.02428,11.07906 -11.43573,16.03538 -18.00129,26.15323 -8.59709,13.24824 -14.52951,19.54849 -22.79714,24.21063 -6.33859,3.57437 -9.95466,3.92131 -39.87646,3.82611 -16.42165,-0.0564 -30.15004,-0.40124 -35.27086,-0.89593 z m 63.6579,-11.23246 c 2.04947,-0.49283 4.28529,-1.11252 4.96839,-1.37729 1.80346,-0.69873 8.36388,-5.90798 10.70666,-8.50136 2.36921,-2.62264 11.31911,-15.62268 14.79696,-21.49335 1.33787,-2.25826 2.58531,-4.24806 2.77206,-4.42181 0.27259,-0.25326 3.29375,-4.39118 8.53334,-11.68662 0.24931,-0.34772 1.22234,-1.67853 2.16127,-2.95732 1.83986,-2.50583 3.20075,-5.57262 2.4696,-5.56531 -0.2477,0.003 -2.54648,2.17643 -5.10827,4.83099 -2.56187,2.65456 -6.19172,5.83142 -8.06642,7.05967 -1.87468,1.22823 -3.69128,2.47759 -4.03686,2.77621 -0.34574,0.29829 -2.16542,1.51245 -4.04418,2.69718 -1.87868,1.18481 -5.79129,3.83657 -8.69467,5.89286 -4.12363,2.92053 -6.79479,4.23914 -12.20525,6.02512 -6.57937,2.17191 -13.08576,5.5599 -18.89043,9.83676 -2.03369,1.49837 -3.27323,1.93384 -5.48436,1.92668 -5.28862,-0.0161 -6.88962,-1.81637 -5.98428,-6.72494 0.52857,-2.8645 4.51302,-6.98046 13.66032,-14.11015 0.66908,-0.52183 3.18463,-2.82687 5.58949,-5.12244 2.40478,-2.29558 5.05101,-4.71176 5.88039,-5.36927 3.72652,-2.95435 7.95479,-7.24937 11.43763,-11.61821 2.07724,-2.60568 4.22071,-5.16398 4.76327,-5.68512 2.69468,-2.58807 4.46913,-5.69544 10.10019,-17.68706 2.73964,-5.83413 2.82782,-6.21249 3.1739,-13.6095 0.19535,-4.18471 0.6682,-8.51961 1.04988,-9.63314 0.61174,-1.7834 0.9641,-2.02328 2.96205,-2.01375 2.79649,0.0132 10.1562,1.91736 13.3272,3.44783 3.77706,1.82304 7.38772,5.94666 9.28052,10.59916 2.0592,5.06149 2.18836,8.95941 0.46626,14.05197 -1.27071,3.75644 -1.60748,6.63353 -0.77627,6.63151 1.06858,-0.003 7.98039,-12.77509 10.42541,-19.26513 0.91614,-2.43196 2.2304,-5.70091 2.92049,-7.26432 0.68987,-1.56341 2.64888,-6.39577 4.35303,-10.73857 1.70405,-4.3428 3.33015,-8.19164 3.61357,-8.55299 0.28343,-0.36134 1.50791,-6.09785 2.72111,-12.74781 1.95456,-10.71326 2.20581,-13.27182 2.20581,-22.45624 0,-8.12327 -0.25597,-11.38253 -1.18236,-15.06769 -1.3338,-5.30406 -5.82005,-16.34974 -9.33273,-22.9779 -1.28882,-2.43196 -2.70697,-5.55879 -3.15155,-6.94848 -0.86154,-2.69354 -2.85342,-6.14241 -4.74282,-8.21236 -0.63415,-0.69514 -1.97916,-2.40068 -2.98806,-3.79008 -4.26643,-5.87538 -16.95873,-18.23801 -23.66351,-23.04884 -3.7764,-2.7097 -8.81027,-6.73342 -11.18639,-8.94159 -11.16094,-10.37237 -21.09839,-17.49405 -32.40529,-23.22318 -9.75626,-4.94346 -10.09462,-5.3393 -10.09462,-11.81067 0,-6.49793 -1.1856,-12.6884 -3.74339,-19.54602 -1.54614,-4.14531 -3.04001,-10.06226 -4.30598,-17.05538 -1.06618,-5.8894 -2.89698,-14.82971 -4.06837,-19.86737 -1.17131,-5.03764 -2.43046,-11.71767 -2.79799,-14.84449 -0.36822,-3.12682 -1.19981,-7.95917 -1.84959,-10.73857 -0.64996,-2.77939 -1.75417,-8.55451 -2.45415,-12.83357 -0.69982,-4.27909 -1.99354,-10.53271 -2.87436,-13.89698 -4.24009,-16.195023 -4.21257,-15.999663 -4.20517,-29.804853 0.008,-16.86188 0.21943,-17.55692 7.73214,-25.54989 6.30384,-6.70678 7.59932,-9.56566 4.50594,-9.94438 -0.97673,-0.11957 -2.7541,-0.006 -3.94959,0.25217 -3.27439,0.70737 -25.7803,0.55295 -30.74204,-0.21087 -11.76668,-1.81141 -50.79805,-2.3893 -53.84546,-0.79727 -0.92247,0.48185 -3.03495,0.87612 -4.69454,0.87612 -3.84869,0 -5.56323,1.13182 -4.57103,3.01747 0.38733,0.73601 1.51299,1.82423 2.50161,2.41821 1.67572,1.00682 4.26177,5.02621 8.07805,12.55534 2.10101,4.14516 2.0622,10.07594 -0.12879,19.59398 -0.87958,3.82166 -1.76607,8.79615 -1.97003,11.05441 -0.57843,6.403913 -1.54156,10.545823 -3.888,16.720143 -1.19225,3.13748 -3.10517,10.00806 -4.25088,15.26796 -1.81228,8.32029 -4.61899,17.95295 -6.41622,22.02058 -1.76232,3.98867 -9.03709,30.45546 -9.98349,36.32163 -0.60669,3.75927 -1.69425,8.91951 -4.0884,19.39608 -1.37842,6.03134 -1.18635,9.44353 0.65656,11.67147 1.80704,2.18433 2.07873,5.78825 0.59841,7.93797 -0.52527,0.76221 -2.06567,1.69016 -3.4239,2.06217 -2.66584,0.73014 -3.43372,1.3384 -14.33453,11.35627 -14.05028,12.9122 -18.40098,16.77285 -21.71775,19.27178 -4.74749,3.57677 -21.32904,20.23168 -23.89822,24.00386 -1.1832,1.73713 -4.11915,5.57458 -6.52451,8.5277 -4.78571,5.87549 -8.1861,12.52451 -13.29819,26.00318 -1.74869,4.6106 -4.816549,19.05742 -6.245339,29.41001 -0.79539,5.76496 -0.79622,7.30768 -0.008,12.38155 0.49621,3.18782 1.35483,9.47767 1.90952,13.97745 0.55434,4.49978 1.109139,8.34721 1.232229,8.54985 0.123,0.2026 1.48754,5.33295 3.03195,11.40068 3.45964,13.59183 3.74123,14.40106 8.13241,23.36926 1.95106,3.9848 4.4801,9.70257 5.61999,12.70616 3.29608,8.68526 4.57843,11.2282 7.07214,14.02487 1.28625,1.44258 3.4609,4.18628 4.8325,6.09712 1.37162,1.91084 5.14385,6.31681 8.38258,9.791 3.23882,3.47427 7.8667,9.0173 10.28412,12.31782 2.41741,3.30052 7.44439,9.25931 11.171,13.2418 l 6.77568,7.2408 8.34085,0.77107 c 4.5874,0.42372 11.27524,0.79357 14.86179,0.82155 3.58657,0.0242 9.45557,0.5974 13.04212,1.26521 3.58657,0.66813 8.05812,1.49355 9.93687,1.83462 1.87868,0.34091 14.03574,0.78795 27.01569,0.9937 20.37216,0.32238 45.86,1.7075 47.82104,2.59853 0.34157,0.15515 10.54242,0.15354 22.66848,-0.004 16.01531,-0.20743 23.06675,-0.53062 25.77365,-1.18168 z m -9.96313,-26.6379 c 4.86292,-2.69613 8.4509,-4.18101 15.55262,-6.43613 1.7078,-0.5427 4.36283,-1.91286 5.89992,-3.04548 1.53717,-1.13272 6.98687,-4.90191 12.11059,-8.37614 9.43014,-6.39429 15.25907,-11.63252 19.67086,-17.67732 3.10393,-4.25294 7.5158,-17.19035 7.59102,-22.26021 0.0748,-4.99663 -2.66219,-10.39926 -6.4567,-12.74799 -3.67283,-2.27354 -8.42255,-3.57348 -9.4051,-2.57412 -0.40805,0.41457 -0.83928,3.54134 -0.99919,7.23644 -0.24682,5.70674 -0.53274,7.04996 -2.32715,10.92824 -1.12502,2.43196 -2.88434,6.26943 -3.90946,8.52768 -2.22085,4.8924 -5.51278,9.9172 -9.75376,14.88848 -5.75464,6.74553 -17.3329,18.24016 -25.929,25.74171 -10.88344,9.49778 -11.40879,10.98659 -2.04465,5.79484 z M 293.14324,41.944337 c 0.15955,-1.12914 0.73306,-3.33212 1.27454,-4.89553 0.54189,-1.56341 1.58129,-4.97449 2.31053,-7.58017 0.72889,-2.60568 1.98057,-6.97643 2.78078,-9.71277 0.80038,-2.73634 1.30861,-5.36262 1.12991,-5.83619 -0.74302,-1.96857 -5.01452,-2.21779 -31.14397,-1.81694 -14.23371,0.21834 -33.02715,0.34838 -41.76328,0.28892 -14.11503,-0.0961 -15.99978,0.01 -16.92374,0.94941 -1.58595,1.61309 -1.25633,4.15193 1.13399,8.73315 1.19549,2.2914 2.1739,4.53723 2.17415,4.99073 2.4e-4,0.45352 0.86877,2.67221 1.92996,4.93047 1.06126,2.25825 2.26199,5.24295 2.66833,6.63264 l 0.73886,2.52673 9.28643,0.0542 c 5.10761,0.03 10.94478,0.38506 12.97165,0.78963 2.02678,0.40454 7.61628,0.77267 12.42102,0.81808 4.80474,0.0461 10.83199,0.28365 13.39378,0.52952 2.56186,0.24587 9.30861,0.49291 14.9926,0.54914 l 10.33473,0.10214 z"
       id="path303" /><path
       style="fill:#ffffff;fill-rule:evenodd;stroke-width:0.626347"
       d="m 196.26038,224.88048 c -2.06617,-1.03597 -2.69916,-3.06755 -1.37535,-4.41402 0.40644,-0.41325 3.55033,-0.55024 8.5395,-0.37218 5.13653,0.18334 10.60967,-0.0681 15.65959,-0.71937 5.03613,-0.64946 18.17233,-1.25551 37.39571,-1.72522 31.53677,-0.77058 48.15889,-0.57894 50.96486,0.58751 2.19642,0.91307 2.7438,2.36282 1.44375,3.82393 -0.9302,1.04543 -1.93852,1.11929 -11.46232,0.83964 -15.47982,-0.45454 -69.94463,1.02594 -77.67385,2.11135 -8.95116,1.257 -20.85539,1.19028 -23.49189,-0.13172 z"
       id="path305" /><path
       style="fill:#ffffff;fill-rule:evenodd;stroke-width:0.626347"
       d="m 255.20971,493.2801 c -0.30752,-0.60786 -0.7297,-9.20673 -0.9371,-19.10836 -0.20779,-9.90157 -0.68899,-22.26673 -1.06982,-27.4781 -0.48706,-6.65516 -0.53772,-20.75539 -0.17119,-47.37604 0.28673,-20.84546 0.53523,-52.68216 0.55273,-70.74822 0.0168,-18.06606 0.29668,-47.01443 0.62083,-64.3297 l 0.58926,-31.48229 1.46619,-1.20717 c 1.80405,-1.48539 2.14913,-1.49618 3.25412,-0.10171 0.73886,0.93245 0.81034,5.50448 0.4571,29.21523 -1.16673,78.2346 -1.70014,173.38557 -1.05519,188.2408 1.10938,25.55489 1.3047,43.59141 0.48288,44.59845 -1.0075,1.23474 -3.51883,1.10111 -4.1898,-0.22273 z"
       id="path307" /><path
       style="fill:#ffffff;fill-rule:evenodd;stroke-width:0.626347"
       d="m 375.27875,387.05863 c -0.6832,-0.29632 -2.60458,-2.57046 -4.26983,-5.05373 -2.9367,-4.37928 -3.01483,-4.61404 -2.59843,-7.80703 0.52278,-4.00717 1.76257,-6.12015 6.05634,-10.32042 4.4486,-4.35185 5.97895,-5.30172 8.55802,-5.31187 5.17343,-0.0198 6.75216,-1.8489 7.30751,-8.46357 0.33579,-3.99792 1.45415,-6.05646 3.29102,-6.05646 1.64538,0 7.9277,7.85338 8.42081,10.52678 0.69148,3.74757 -0.22522,11.54312 -2.06044,17.52198 -1.40585,4.5808 -2.27721,6.24208 -4.69704,8.95541 -1.63399,1.83223 -4.14932,3.89471 -5.58949,4.5833 -2.90437,1.38865 -12.35021,2.32261 -14.41847,1.42561 z m 11.22104,-6.08284 c 0.70649,-0.14249 2.44609,-1.45268 3.86624,-2.91153 3.36631,-3.45813 5.74607,-10.39049 5.91263,-17.22344 0.12967,-5.32381 -0.77793,-6.57788 -1.76099,-2.43316 -0.92886,3.91581 -1.91907,4.60682 -7.35854,5.13529 l -4.76053,0.46245 -3.71023,3.73433 c -4.4723,4.50135 -5.56922,7.14503 -4.00446,9.65093 2.57542,4.12439 3.32493,4.56935 7.06267,4.19321 1.90793,-0.19198 4.04692,-0.46567 4.75321,-0.60816 z"
       id="path309" /><path
       style="fill:#ffffff;fill-rule:evenodd;stroke-width:0.221446"
       d="m 227.15012,23.370067 c -0.65911,-0.85194 -0.79954,-1.92974 -0.34405,-2.63657 0.43799,-0.67969 1.1275,-0.90802 2.1522,-0.7125 1.00915,0.19257 1.43444,0.56943 1.59792,1.4162 0.12301,0.63605 0.0329,0.8336 -0.7397,1.61917 -1.08005,1.09852 -1.97759,1.20411 -2.66618,0.31374 z"
       id="path313" /><path
       style="fill:#ffffff;fill-rule:evenodd;stroke-width:0.221446"
       d="m 238.91655,32.880677 c -0.89504,-0.27326 -1.21935,-0.61592 -1.37344,-1.45099 -0.27179,-1.47615 0.54021,-2.56531 1.91259,-2.56531 1.56875,0 2.17149,0.53282 2.21121,1.95485 0.0329,1.07109 -0.26842,1.61357 -1.07739,1.95727 -0.86752,0.36866 -0.817,0.36551 -1.67297,0.10419 z"
       id="path315" /><path
       style="fill:#ffffff;fill-rule:evenodd;stroke-width:0.221446"
       d="m 253.60447,25.793567 c -0.27509,-0.27823 -0.78542,-1.64466 -0.78542,-2.10326 0,-0.72517 0.9799,-1.5259 1.86729,-1.5259 1.02462,0 2.08505,0.56151 2.08505,1.10413 0,0.23247 0.0578,0.57067 0.12469,0.7516 0.0748,0.18722 -0.17536,0.67603 -0.57184,1.13492 -0.59344,0.68724 -0.83271,0.80601 -1.62452,0.80601 -0.51114,0 -1.00333,-0.0756 -1.09451,-0.16745 z"
       id="path317" /><path
       style="fill:#ffffff;fill-rule:evenodd;stroke-width:0.221446"
       d="m 267.4128,26.428957 c -1.60839,-0.70056 -1.38773,-3.50037 0.30254,-3.84415 1.17746,-0.23942 2.15062,0.14425 2.42955,0.95786 0.35987,1.04975 0.29259,1.66178 -0.25517,2.30181 -0.53611,0.628 -1.73098,0.90976 -2.47783,0.58444 z"
       id="path319" /><path
       style="fill:#ffffff;fill-rule:evenodd;stroke-width:0.221446"
       d="m 264.09495,38.606337 c -0.83428,-0.41303 -1.61496,-1.52531 -1.61496,-2.30104 0,-0.67896 0.79289,-1.70632 1.63981,-2.12489 0.90876,-0.44905 0.95962,-0.45088 1.81377,-0.0674 0.6433,0.2887 1.00092,0.65004 1.33454,1.34838 0.45293,0.94702 0.45293,0.9602 0.0329,1.79614 -0.27845,0.55529 -0.74136,1.0052 -1.35931,1.32086 l -0.93726,0.47871 z"
       id="path321" /><path
       style="fill:#ffffff;fill-rule:evenodd;stroke-width:0.221446"
       d="m 279.71664,29.836507 c -1.50284,-0.79856 -1.65103,-2.04653 -0.39062,-3.29165 1.22749,-1.21262 2.53369,-1.074 3.22842,0.34259 0.5386,1.09847 0.4372,1.79968 -0.37817,2.60309 -0.80453,0.79301 -1.44799,0.88352 -2.45972,0.34596 z"
       id="path323" /></g></svg>
