<?xml version="1.0" encoding="UTF-8" standalone="no"?>
<svg
   height="512"
   width="512"
   version="1.1"
   id="svg6"
   sodipodi:docname="default.svg"
   inkscape:version="1.2.1 (9c6d41e410, 2022-07-14)"
   inkscape:export-filename="default.png"
   inkscape:export-xdpi="96"
   inkscape:export-ydpi="96"
   xmlns:inkscape="http://www.inkscape.org/namespaces/inkscape"
   xmlns:sodipodi="http://sodipodi.sourceforge.net/DTD/sodipodi-0.dtd"
   xmlns="http://www.w3.org/2000/svg"
   xmlns:svg="http://www.w3.org/2000/svg">
  <defs
     id="defs10" />
  <sodipodi:namedview
     id="namedview8"
     pagecolor="#ffffff"
     bordercolor="#000000"
     borderopacity="0.25"
     inkscape:showpageshadow="2"
     inkscape:pageopacity="0.0"
     inkscape:pagecheckerboard="true"
     inkscape:deskcolor="#d1d1d1"
     showgrid="false"
     inkscape:zoom="1.5385565"
     inkscape:cx="178.08901"
     inkscape:cy="164.11487"
     inkscape:window-width="2560"
     inkscape:window-height="1351"
     inkscape:window-x="2391"
     inkscape:window-y="-9"
     inkscape:window-maximized="1"
     inkscape:current-layer="svg6" />
  <g
     transform="matrix(4.3393251,0,0,4.3393251,-22.168086,-21.479659)"
     id="g4">
    <path
       d="m 119.95,28.8 q 1.5,0.6 0.15,1.2 L 67.3,53.1 q -1.35,0.6 -2.85,0 L 8.15,29.5 q -1.4,-0.65 0,-1.15 L 60.9,5.25 q 1.35,-0.6 2.8,0 l 56.25,23.55 m 0.95,5.75 q 1.35,-0.65 1.35,1 V 97.7 q 0,1.6 -1.35,2.2 l -52.15,22.9 q -1.4,0.55 -1.4,-1.05 V 59.6 q 0,-1.6 1.4,-2.2 L 120.9,34.55 m -113.7,0 52.15,22.85 q 1.35,0.6 1.35,2.2 v 62.15 q 0,1.6 -1.35,1.05 L 7.2,99.9 Q 5.8,99.3 5.8,97.7 V 35.55 q 0,-1.65 1.4,-1"
       fill="#ffffff"
       fill-rule="evenodd"
       stroke="none"
       id="path2" />
  </g>
</svg>
