<?xml version="1.0" encoding="UTF-8" standalone="no"?>
<svg
   height="512"
   width="512"
   version="1.1"
   id="svg33"
   sodipodi:docname="destruction_frost.svg"
   inkscape:version="1.2.1 (9c6d41e410, 2022-07-14)"
   inkscape:export-filename="destruction_frost.png"
   inkscape:export-xdpi="96"
   inkscape:export-ydpi="96"
   xmlns:inkscape="http://www.inkscape.org/namespaces/inkscape"
   xmlns:sodipodi="http://sodipodi.sourceforge.net/DTD/sodipodi-0.dtd"
   xmlns:xlink="http://www.w3.org/1999/xlink"
   xmlns="http://www.w3.org/2000/svg"
   xmlns:svg="http://www.w3.org/2000/svg">
  <sodipodi:namedview
     id="namedview35"
     pagecolor="#ffffff"
     bordercolor="#000000"
     borderopacity="0.25"
     inkscape:showpageshadow="2"
     inkscape:pageopacity="0.0"
     inkscape:pagecheckerboard="true"
     inkscape:deskcolor="#d1d1d1"
     showgrid="false"
     inkscape:zoom="1.4183568"
     inkscape:cx="154.40403"
     inkscape:cy="300.70008"
     inkscape:window-width="2560"
     inkscape:window-height="1351"
     inkscape:window-x="2391"
     inkscape:window-y="-9"
     inkscape:window-maximized="1"
     inkscape:current-layer="svg33" />
  <g
     id="g6"
     transform="matrix(3.998001,0,0,3.998001,0.12793603,0.12793603)">
    <use
       height="100"
       transform="scale(1.28)"
       width="100"
       xlink:href="#shape0"
       id="use2" />
    <use
       height="118.4"
       transform="translate(11.05,4.6)"
       width="105.65"
       xlink:href="#sprite0"
       id="use4" />
  </g>
  <defs
     id="defs31">
    <g
       id="shape0">
      <path
         d="M 100,100 H 0 V 0 h 100 v 100"
         fill="#00cc66"
         fill-opacity="0"
         fill-rule="evenodd"
         stroke="none"
         id="path8" />
      <path
         d="M 84.3,84.3 V 15.7 H 15.7 v 68.6 h 68.6 m 7.95,7.95 H 7.75 V 7.75 h 84.5 v 84.5"
         fill="#666666"
         fill-opacity="0"
         fill-rule="evenodd"
         stroke="none"
         id="path10" />
      <path
         d="M 84.3,84.3 H 15.7 V 15.7 H 84.3 V 84.3 M 76.4,76.4 V 23.55 H 23.55 V 76.4 H 76.4"
         fill="#999999"
         fill-opacity="0"
         fill-rule="evenodd"
         stroke="none"
         id="path12" />
      <path
         d="M 92.25,92.25 V 7.75 H 7.75 v 84.5 h 84.5 m 3.8,3.8 H 3.95 V 3.95 h 92.1 v 92.1"
         fill="#333333"
         fill-opacity="0"
         fill-rule="evenodd"
         stroke="none"
         id="path14" />
      <path
         d="M 68.85,68.85 V 31.1 H 31.1 V 68.85 H 68.85 M 76.4,76.4 H 23.55 V 23.55 H 76.4 V 76.4"
         fill="#cccccc"
         fill-opacity="0"
         fill-rule="evenodd"
         stroke="none"
         id="path16" />
      <path
         d="M 68.85,68.85 H 31.1 V 31.1 h 37.75 v 37.75"
         fill="#ffffff"
         fill-opacity="0"
         fill-rule="evenodd"
         stroke="none"
         id="path18" />
      <path
         d="M 96.05,96.05 V 3.95 H 3.95 v 92.1 h 92.1 M 100,100 H 0 V 0 h 100 v 100"
         fill="#000000"
         fill-opacity="0"
         fill-rule="evenodd"
         stroke="none"
         id="path20" />
      <path
         d="M 0,50 H 50 L 0,0 M 50,50 V 0 m 0,100 V 50 L 0,100 M 100,50 H 50 l 50,50 M 50,50 100,0"
         fill="none"
         stroke="#000000"
         stroke-linecap="round"
         stroke-linejoin="round"
         stroke-opacity="0"
         stroke-width="0.05"
         id="path22" />
    </g>
    <g
       id="sprite0"
       transform="translate(-1.15,0.85)">
      <use
         height="118.4"
         transform="translate(1.15,-0.85)"
         width="105.65"
         xlink:href="#shape1"
         id="use25" />
    </g>
    <g
       id="shape1"
       transform="translate(-1.15,0.85)">
      <path
         d="m 85.95,32.05 q 0.6,-4.6 5.05,-7.1 3.65,-1.95 7.75,-0.95 4.25,1 6.45,4.55 1.9,4 0.95,8.2 -1,4.25 -4.9,6.15 -2.2,1.1 -4.3,1.5 -2,0.55 -4.25,-0.4 L 91,43.1 89.35,41.9 64.5,56.4 h 8.8 q 0,-0.8 0.65,-1.65 1.65,-1.6 4,-1.6 4.9,0 4.9,5.1 0,5.1 -4.9,5.1 -2.85,0 -4,-1.55 Q 73.3,60.7 73.3,59.95 H 64.8 L 89.85,74.6 q 0.9,-0.65 1.75,-0.9 l 1.8,-0.75 q 4.45,-1.45 8.35,0.75 3.45,2.15 4.65,6.25 1.15,4.15 -1.2,7.95 -2.2,3.95 -6.45,5.15 Q 94.65,94.2 91,91.9 86.55,89.35 85.95,84.15 85.75,83.4 85.9,82.55 l 0.05,-1.6 -25.35,-14.75 4.6,7.9 0.55,-0.05 1.2,0.05 q 2.5,0.9 3.55,2.35 1.9,4.35 -1.85,7 -4.35,2.35 -6.95,-1.65 -1.9,-2.35 -0.6,-4.65 0.35,-0.9 1.25,-1.3 l -4.45,-7.2 v 28.8 q 2.05,0.95 3.2,2.05 3.35,3 3.35,7.8 0,4 -3.1,7.15 -3.15,3.1 -7.65,3.1 -3.9,0 -6.9,-3.1 -3.15,-3.15 -3.15,-7.15 0,-5 3.55,-8.2 l 1.6,-0.95 1.6,-0.7 V 68 l -4.45,7.85 q -0.15,0.15 0.4,0.5 l 0.3,0.8 q 0.9,2.4 -0.5,4.65 -2.15,4 -6.45,1.65 -4.65,-2.65 -1.85,-7 1.15,-1.9 3,-2.35 1.35,-0.35 2.1,0 l 4.4,-7.75 -25.95,14.6 q 0.6,1.15 0.35,3.2 -0.95,5.85 -4.9,7.75 -3.6,1.9 -7.75,1 -4.2,-0.85 -6.3,-5 -1.7,-3.4 -0.65,-7.25 1,-3.95 4.4,-6.05 4.15,-2.4 8.2,-0.9 2,0.75 2.15,0.9 L 43.4,59.95 h -8.65 l -0.1,0.45 -0.6,1.4 q -0.65,1.55 -3.65,1.55 -5.45,0 -5.45,-5.1 0,-5.1 5.45,-5.1 2.5,0 3.45,1.6 1.1,1.65 0.9,1.65 h 8.9 L 17.3,41.9 l -1.85,1 q -3.85,1.85 -8.9,0 Q 2.9,41 1.6,36.75 0.3,32.6 2.8,28.85 5,25.1 9,24.4 q 3.95,-0.75 7.35,1.2 3.6,2.1 4.7,6.8 l 0.05,1.5 -0.05,1.65 26.1,14.45 -4.2,-7.1 H 41.3 q -2.25,0 -3.45,-2.6 -1.35,-1.7 -0.85,-3.8 0.35,-2.25 2.2,-3.15 5.05,-1.95 6.95,1.85 1.2,2.1 0.5,4.25 l -0.3,0.75 q -0.55,0.4 -0.4,0.8 l 4.45,7.8 V 19.3 q -0.7,-0.05 -3.2,-1.45 -3.55,-3.9 -3.55,-8.35 0,-4 3.15,-7.15 3,-3.2 6.9,-3.2 4.5,0 7.65,3.2 3.1,3.15 3.1,7.15 0,4.3 -3.35,7.95 -2.15,1.75 -3.2,1.85 V 47.75 L 61.85,41 61.45,40.2 61.1,39.45 q -1.05,-2.1 0.6,-4.25 2.25,-3.95 6.95,-1.85 1.65,0.9 2.2,3.15 0.5,2.1 -0.35,3.8 -0.95,2 -3.55,2.6 h -1.2 -0.9 l -4.25,7.35 25.35,-14.7 -0.05,-1.7 q -0.15,-0.8 0.05,-1.8"
         fill="#ffffff"
         fill-rule="evenodd"
         stroke="none"
         id="path28" />
    </g>
  </defs>
</svg>
