<?xml version="1.0" encoding="UTF-8" standalone="no"?>
<svg
   height="512"
   width="512"
   version="1.1"
   id="svg1032"
   sodipodi:docname="default_spell.svg"
   inkscape:version="1.2.1 (9c6d41e410, 2022-07-14)"
   xml:space="preserve"
   inkscape:export-filename="default_spell.png"
   inkscape:export-xdpi="96"
   inkscape:export-ydpi="96"
   xmlns:inkscape="http://www.inkscape.org/namespaces/inkscape"
   xmlns:sodipodi="http://sodipodi.sourceforge.net/DTD/sodipodi-0.dtd"
   xmlns="http://www.w3.org/2000/svg"
   xmlns:svg="http://www.w3.org/2000/svg"><defs
     id="defs1036" /><sodipodi:namedview
     id="namedview1034"
     pagecolor="#ffffff"
     bordercolor="#000000"
     borderopacity="0.25"
     inkscape:showpageshadow="2"
     inkscape:pageopacity="0.0"
     inkscape:pagecheckerboard="true"
     inkscape:deskcolor="#d1d1d1"
     showgrid="false"
     inkscape:zoom="0.6597008"
     inkscape:cx="204.63822"
     inkscape:cy="-137.1834"
     inkscape:window-width="2560"
     inkscape:window-height="1351"
     inkscape:window-x="2391"
     inkscape:window-y="-9"
     inkscape:window-maximized="1"
     inkscape:current-layer="svg1032" /><path
     style="fill:#ffffff;fill-rule:evenodd;stroke-width:0.622707"
     d="m 8.0280329,471.75158 c -2.6491,-0.99328 -3.81643,-2.16219 -6.03672,-6.04256 -1.66790997,-2.91517 -1.95553997,-4.052 -1.98865997,-7.86916 -0.0339,-3.85955 0.23662,-5.00164 2.00653997,-8.46508 1.12526,-2.20215 2.80001,-5.00374 3.72126,-6.22623 0.92124,-1.22254 2.75216,-3.67446 4.06882,-5.44869 1.3166601,-1.77413 2.6401601,-3.22593 2.9419901,-3.22593 0.29972,0 0.94753,-0.77033 1.43549,-1.71261 0.48902,-0.94175 1.54593,-2.44613 2.35096,-3.34319 0.80504,-0.89706 1.95449,-2.43824 2.55393,-3.42469 1.87561,-3.08606 4.13245,-6.01232 7.81101,-10.12821 4.48633,-5.02004 4.9296,-5.47498 6.27008,-6.44118 1.38187,-0.99591 12.22988,-14.00979 17.53013,-21.03023 2.19794,-2.91096 5.1373,-6.55397 6.5322,-8.09516 1.39501,-1.54119 3.28588,-3.92317 4.20186,-5.29299 4.5794,-6.84844 7.72809,-10.92494 11.06344,-14.32229 5.32702,-5.42592 8.14854,-8.58213 10.26261,-11.47989 2.20057,-3.01665 5.33496,-7.07501 7.485,-9.69209 4.09564,-4.98534 6.39964,-7.8791 8.39399,-10.5423 1.19888,-1.60061 2.949867,-3.79907 3.891617,-4.8849 0.94175,-1.08583 1.71261,-2.311 1.71261,-2.72219 0,-0.41014 0.7004,-1.5801 1.55696,-2.59757 0.85604,-1.01747 1.55697,-2.11802 1.55697,-2.44508 0,-0.32601 0.81134,-1.71471 1.80252,-3.08343 0.99118,-1.36872 2.27261,-3.39735 2.84681,-4.50789 0.5742,-1.11054 3.89636,-5.43334 7.38241,-9.60575 3.48621,-4.17241 7.93647,-9.96195 9.89001,-12.8657 1.95344,-2.9036 5.6259,-7.66886 8.16068,-10.58921 2.89466,-3.33488 5.80941,-7.61148 7.83694,-11.49844 1.7757,-3.40376 3.45834,-6.33854 3.73965,-6.52169 0.27869,-0.18299 0.97383,-1.23537 1.53857,-2.33834 0.56526,-1.10291 1.58483,-2.30374 2.2663,-2.6684 0.68147,-0.36492 1.24147,-1.00348 1.24515,-1.41956 0.003,-0.41593 0.98434,-1.98683 2.17954,-3.49063 1.1952,-1.50375 2.17323,-2.91901 2.17323,-3.14496 0,-0.52882 9.87392,-10.71483 11.53673,-11.90143 0.69409,-0.49533 3.6366,-3.81327 6.53847,-7.37322 2.90202,-3.55993 7.92122,-9.02417 11.15393,-12.14277 3.23276,-3.11861 8.23461,-7.982 11.11534,-10.80753 2.88099,-2.82551 5.50411,-5.13735 5.82986,-5.13735 0.32601,0 0.98224,-0.93302 1.45864,-2.07337 0.4785,-1.14036 1.30299,-2.43562 1.83617,-2.87842 0.53371,-0.44274 0.97015,-1.05096 0.97015,-1.35152 0,-1.02751 -4.90699,-0.54838 -6.99404,0.68289 -3.63081,2.1421 -9.6291,2.48278 -43.4452,2.46727 -25.43557,-0.012 -33.20194,-0.19719 -34.98921,-0.83564 -3.48937,-1.24594 -6.63269,-4.56289 -7.6875,-8.11164 -1.02115,-3.43521 -1.17469,-9.99474 -0.32075,-13.67815 1.41552,-6.10242 8.53733,-12.22575 16.61251,-14.28352 2.09909,-0.53498 4.82812,-1.65877 6.06364,-2.4973 1.23569,-0.83853 4.32911,-1.98793 6.87442,-2.55419 2.54498,-0.56626 5.00058,-1.4804 5.45642,-2.03147 0.45747,-0.55101 2.08962,-1.58841 3.63081,-2.30526 1.54119,-0.71686 4.06305,-2.09404 5.60439,-3.0604 7.63355,-4.78637 11.80717,-6.94645 14.74311,-7.6303 1.77255,-0.41277 4.15453,-1.45801 5.29299,-2.32241 1.13841,-0.8644 3.3311,-2.05802 4.87229,-2.65246 1.54118,-0.59445 3.36264,-1.5658 4.04779,-2.15862 1.56169,-1.35142 4.96693,-3.09163 6.04976,-3.09163 0.45221,0 2.49608,-0.81834 4.54627,-1.81856 2.05019,-1.00022 5.61412,-2.2561 7.92001,-2.79086 2.30574,-0.53477 5.52815,-1.66413 7.16057,-2.5096 1.63268,-0.84553 4.98533,-1.99067 7.45071,-2.54478 2.84997,-0.64051 5.28306,-1.64357 6.68002,-2.75369 1.22727,-0.97545 3.97785,-2.19353 6.23138,-2.75957 2.21845,-0.55733 5.03897,-1.69521 6.26692,-2.52859 1.22833,-0.83337 3.69234,-1.99371 5.4763,-2.57843 1.78412,-0.58471 3.94421,-1.5425 4.80025,-2.12837 0.85604,-0.58588 2.95776,-1.57327 4.67037,-2.19421 1.7126,-0.62095 3.95419,-1.74374 4.98165,-2.495089 1.02746,-0.75135 3.31742,-2.10009 5.08945,-2.99725 1.7715,-0.89716 4.17925,-2.28139 5.35026,-3.07612 1.17101,-0.79468 4.06514,-1.79984 6.43088,-2.23365 2.57233,-0.47166 5.42813,-1.5058 7.10388,-2.57254 1.54119,-0.98108 3.64291,-1.97452 4.67037,-2.20762 1.88928,-0.42855 9.37175,-3.77321 16.14936,-7.21839 2.68906,-1.36699 5.40168,-2.10556 9.96326,-2.71294 7.15878,-0.95316 8.11099,-1.24268 10.46495,-3.18155 1.11317,-0.91709 2.95197,-1.54845 5.29299,-1.81772 5.19567,-0.59755 8.19812,-1.411 11.37084,-3.08101 1.54119,-0.81124 4.60674,-1.94024 6.81241,-2.50892 2.20583,-0.56868 5.10207,-1.59109 6.43719,-2.27208 1.33454,-0.68095 4.54575,-1.64352 7.13527,-2.139 2.6449,-0.50584 6.10482,-1.69983 7.89504,-2.72409 3.16651,-1.81156 10.02031,-3.144 16.17276,-3.144 1.67738,0 3.39735,-0.60633 5.44128,-1.91779 2.14431,-1.37587 4.5163,-2.18143 8.39467,-2.8507 3.15495,-0.54444 6.34113,-1.52063 7.65185,-2.34438 2.96407,-1.86284 7.23412,-3.20127 14.0773,-4.41245 3.08238,-0.54555 6.44502,-1.28139 7.47248,-1.63516 2.85733,-0.98371 16.23881,-1.72207 43.19659,-2.38345 27.99231,-0.68673 29.60501,-0.53987 33.14512,3.01823 2.59231,2.60535 4.95957,8.29168 5.39196,12.95016 0.34704,3.7384 -1.46705,10.53067 -3.72126,13.93423 -2.06649,3.11971 -8.12009,5.93551 -15.95933,7.42318 -4.77659,0.90652 -7.18465,1.71313 -9.30372,3.11677 -1.57221,1.04155 -3.95419,2.18858 -5.29238,2.54893 -1.33823,0.36019 -3.54669,1.46184 -4.90752,2.44771 -1.36083,0.98587 -3.82221,2.24022 -5.46978,2.78739 -1.6474,0.54717 -3.48253,1.53304 -4.07776,2.19079 -0.59523,0.65776 -2.23948,1.79217 -3.65395,2.52091 -1.41447,0.72874 -3.2722,1.95848 -4.12824,2.73271 -0.85605,0.77422 -2.80475,1.89049 -4.32964,2.48062 -1.52541,0.59008 -3.36737,1.713979 -4.09354,2.497509 -0.72616,0.78353 -2.84102,1.91899 -4.69928,2.52322 -1.85827,0.60422 -3.93948,1.60539 -4.62463,2.22481 -0.68514,0.61942 -2.64647,1.77523 -4.35908,2.56849 -1.7126,0.79326 -3.97417,2.05613 -5.02582,2.80632 -1.05165,0.7502 -3.25958,1.7033 -4.90646,2.11797 -2.30469,0.58035 -4.27232,1.87929 -8.54464,5.64143 -3.05293,2.68811 -5.75378,4.88748 -6.00233,4.88748 -0.74299,0 -7.85781,5.93937 -15.66435,13.07683 -1.31088,1.19872 -3.84903,3.30034 -5.63983,4.67032 -4.53681,3.4708 -13.00194,10.98 -19.37019,17.18327 -5.07,4.93869 -7.04021,6.51286 -11.41243,9.11872 -1.01274,0.60349 -3.53459,2.8924 -5.60439,5.08651 -2.06964,2.1941 -4.9622,4.75639 -6.42756,5.69396 -1.46547,0.9376 -4.96799,4.31354 -7.78383,7.50213 -2.81578,3.1886 -6.24048,6.95006 -7.6104,8.35882 -1.36978,1.40879 -3.26958,3.52329 -4.22079,4.69897 -3.44625,4.25765 -6.40259,8.05564 -8.23314,10.57679 -1.02746,1.4151 -2.50029,3.26201 -3.27273,4.10422 -0.77244,0.84221 -1.97815,2.56775 -2.67907,3.83452 -0.70093,1.26676 -2.52133,4.40482 -4.04517,6.9735 -1.52383,2.56865 -3.34529,5.79116 -4.04726,7.16112 -0.70198,1.36993 -2.03231,3.79219 -2.95671,5.3827 -0.92387,1.59051 -2.62176,4.65586 -3.77226,6.8118 -1.1505,2.15593 -2.5818,4.63755 -3.18018,5.51466 -0.59839,0.87713 -1.55644,2.29527 -2.12906,3.15152 -0.57263,0.8562 -1.88351,2.67766 -2.91254,4.04759 -1.02957,1.36993 -2.55025,3.51665 -3.38,4.77038 -0.82922,1.25377 -2.15114,2.97931 -2.93672,3.83451 -0.78559,0.85526 -2.26893,2.70831 -3.29639,4.11799 -1.02746,1.40968 -2.70852,3.64701 -3.73598,4.97193 -1.02746,1.32492 -2.84892,3.70874 -4.0478,5.29741 -1.19887,1.58851 -7.10756,7.89528 -13.13082,14.01476 -6.18616,6.28507 -11.31683,12.03443 -11.79139,13.21332 -0.46272,1.14788 -2.64121,4.85651 -4.84283,8.24214 -2.20163,3.38525 -5.16202,8.24439 -6.57843,10.798 -3.7628,6.78276 -10.15408,18.82539 -11.32767,21.34329 -0.55895,1.19888 -1.68263,3.58034 -2.49766,5.293 -0.81503,1.71261 -1.92031,4.37012 -2.45665,5.90553 -0.53581,1.5354 -1.3419,3.35686 -1.79043,4.04779 -0.44695,0.69041 -1.17206,2.3762 -1.60692,3.7465 -1.53961,4.84809 -4.93906,10.18378 -11.30605,17.74713 -1.58589,1.8835 -4.21238,5.38638 -5.83696,7.78382 -1.6248,2.39723 -4.27863,5.90012 -5.89754,7.78383 -3.92632,4.56783 -4.93696,6.68101 -6.56491,13.72789 -1.5943,6.89949 -1.94765,7.66089 -4.85388,10.45622 -1.90874,1.83565 -2.81684,2.17586 -7.78982,2.91885 -3.09605,0.46272 -7.12076,1.51227 -8.94363,2.33255 -1.82303,0.82029 -5.13572,1.9913 -7.36195,2.60125 -2.22634,0.61048 -5.02846,1.59798 -6.22708,2.19532 -2.87783,1.43287 -4.43637,1.77833 -12.52838,2.77424 -5.59498,0.68883 -7.26095,1.14577 -9.28316,2.5471 -2.24579,1.55643 -3.19385,1.7552 -10.67896,2.24369 -9.32885,0.60837 -10.12452,0.78558 -12.52549,2.79265 -0.95595,0.79925 -3.73913,2.04861 -6.185317,2.7774 -2.44613,0.72826 -5.02687,1.69052 -5.73458,2.13852 -0.70776,0.44695 -3.6692,1.41605 -6.58016,2.15168 -2.91096,0.73615 -6.33828,1.87613 -7.61588,2.53447 -1.27775,0.6578 -4.64039,1.78622 -7.47248,2.50712 -2.83209,0.72091 -6.55723,2.11329 -8.27768,3.095 -2.30468,1.31456 -4.59517,1.96659 -8.70333,2.47716 -4.18293,0.52057 -6.38424,1.15576 -8.81496,2.54657 -1.78202,1.01957 -4.73084,2.28838 -6.55292,2.81999 -1.82251,0.53161 -3.93632,1.36451 -4.69824,1.85142 -0.76139,0.48902 -3.00351,1.31667 -4.98166,1.84512 -4.60358,1.22938 -18.49327,1.76782 -21.0326801,0.81555 z M 67.807843,427.29717 c 2.74007,-0.7798 7.08327,-2.18217 9.65198,-3.11656 2.56865,-0.93439 6.07137,-1.98236 7.78382,-2.32887 6.31683,-1.27776 7.54389,-1.71419 10.89733,-3.88006 3.985217,-2.57338 6.344847,-3.30848 14.010887,-4.36434 3.08238,-0.42591 8.68677,-1.61796 12.45414,-2.6512 3.76753,-1.03325 8.81129,-2.16009 11.20873,-2.50345 5.30356,-0.75981 13.46756,-3.16546 17.89715,-5.27259 1.80095,-0.8571 4.03938,-1.86352 4.97429,-2.23738 1.78781,-0.7146 5.17411,-5.53167 5.77218,-8.21101 0.19456,-0.86761 1.03588,-2.37304 1.87141,-3.34529 0.83554,-0.97225 1.70577,-2.3641 1.93346,-3.09289 0.2261,-0.7288 1.1668,-2.44561 2.08594,-3.81591 1.78727,-2.6633 5.17621,-9.57735 5.95175,-12.14274 0.25765,-0.85604 1.27354,-3.06713 2.2542,-4.91383 0.98067,-1.84616 1.78465,-3.80801 1.7857,-4.35908 0.001,-0.55106 0.51531,-1.84616 1.1463,-2.87783 0.62888,-1.03167 1.62585,-3.32741 2.21529,-5.10207 0.58945,-1.77466 1.5638,-3.87269 2.16535,-4.66301 0.60154,-0.78978 1.48124,-2.41721 1.95554,-3.61556 1.46441,-3.70233 5.0458,-10.21939 6.23374,-11.34334 0.621,-0.58787 1.30247,-1.61375 1.51385,-2.27944 0.21033,-0.6657 1.07373,-1.66266 1.91663,-2.21477 0.84289,-0.55212 1.53225,-1.43077 1.53225,-1.95186 0,-0.52057 0.67621,-1.62374 1.50228,-2.45034 0.82607,-0.82607 2.13852,-2.6349 2.91674,-4.0194 0.77822,-1.38449 1.60902,-2.51712 1.84617,-2.51712 0.23662,0 1.05848,-1.45705 1.82461,-3.23855 1.44812,-3.36579 3.5246,-6.31624 7.80202,-11.08378 1.38291,-1.54119 4.18608,-5.04371 6.22964,-7.78383 5.42687,-7.27603 17.77406,-22.55879 21.08838,-26.10224 1.57537,-1.68416 3.33372,-3.78583 3.9074,-4.67032 0.57367,-0.88449 1.55591,-1.97431 2.18269,-2.42184 0.62678,-0.44747 1.13946,-1.16927 1.13946,-1.60392 0,-0.43485 0.72774,-1.46952 1.61744,-2.29985 0.88969,-0.83027 2.15535,-2.4904 2.81315,-3.68912 0.65781,-1.19873 2.17008,-3.44047 3.36107,-4.98166 1.19099,-1.54119 2.85259,-3.82374 3.69181,-5.07225 0.83974,-1.24852 2.73271,-3.77153 4.20659,-5.60665 2.85102,-3.54979 6.32408,-8.17519 10.02762,-13.35471 1.24778,-1.7451 3.34424,-5.276 4.6588,-7.84641 1.31456,-2.57044 3.0035,-5.45371 3.75386,-6.40732 0.74982,-0.95358 1.36398,-1.99235 1.36398,-2.30826 0,-1.14661 10.11538,-15.01851 17.39462,-23.85449 2.25737,-2.73991 4.84179,-5.96242 5.74353,-7.16113 0.90178,-1.19872 3.77751,-4.38295 6.39102,-7.07608 2.61334,-2.69311 5.06,-5.47266 5.4366,-6.17672 0.37859,-0.70408 2.38513,-2.84397 4.46266,-4.75534 5.90043,-5.42786 10.38786,-9.99084 10.38786,-10.56278 0,-0.2871 0.91073,-1.54051 2.0239,-2.78529 1.11317,-1.24479 3.00456,-3.53743 4.20344,-5.09476 2.76793,-3.59611 3.48936,-4.34226 7.50513,-7.76117 3.72441,-3.17104 4.39116,-3.84535 7.43983,-7.52609 2.10908,-2.54604 5.55212,-6.39086 7.47248,-8.34398 0.86025,-0.87471 5.23511,-4.64297 10.58599,-9.11735 1.19888,-1.00238 3.79382,-3.21604 5.76666,-4.91929 1.97289,-1.7032 3.85692,-3.09673 4.18714,-3.09673 0.33127,0 1.0243,-0.82082 1.54329,-1.823979 0.52057,-1.00317 1.52489,-2.0087 2.23633,-2.23444 0.71144,-0.22558 2.29732,-1.29211 3.5246,-2.36968 1.22727,-1.07757 5.62232,-3.64485 9.7667,-5.70508 7.30769,-3.63271 7.52912,-3.80202 7.33283,-5.6061 -0.26817,-2.46443 -1.11422,-2.93678 -4.46793,-2.49461 -1.54119,0.20297 -5.22143,0.58419 -8.17845,0.84663 -4.28547,0.38017 -6.3071,0.93008 -9.96326,2.70894 -5.12415,2.49319 -14.63925,5.57334 -21.71148,7.02834 -2.56865,0.52846 -6.65272,1.93514 -9.07572,3.12592 -2.423,1.19078 -5.36524,2.16724 -6.53841,2.16987 -2.77161,0.006 -9.29856,2.00233 -11.99414,3.668349 -1.40501,0.86824 -3.15442,1.30857 -5.19988,1.30857 -4.26916,0 -8.66857,1.44386 -12.29192,4.03417 -1.68684,1.20608 -3.38999,2.1929 -3.78435,2.1929 -0.39437,0 -3.21699,0.81713 -6.27313,1.81588 -3.05609,0.99875 -6.7296,2.00113 -8.16368,2.2276 -1.43393,0.22663 -4.20028,1.37082 -6.14683,2.54304 -1.9466,1.17222 -3.93264,2.13132 -4.41377,2.13132 -1.86509,0 -8.00036,2.54993 -9.51962,3.95635 -0.87918,0.81366 -3.13917,2.21067 -5.02319,3.10452 -1.8835,0.89385 -3.84535,1.91121 -4.35908,2.26094 -0.51531,0.34967 -2.54972,1.21928 -4.52419,1.93245 -1.97447,0.71318 -4.40115,1.97889 -5.39196,2.81264 -0.99118,0.83379 -3.00403,1.94029 -4.47371,2.45885 -1.46967,0.51847 -3.10656,1.30163 -3.63712,1.74011 -1.55959,1.28864 -4.30965,2.2835 -6.31204,2.2835 -2.00865,0 -6.33592,1.94102 -8.35245,3.74633 -1.25462,1.12306 -14.12447,6.21695 -15.70757,6.21695 -0.46799,0 -3.85061,1.08909 -7.5166,2.42027 -3.66605,1.33112 -7.81211,2.73013 -9.21322,3.10888 -1.40133,0.37859 -3.50304,1.38044 -4.67037,2.22607 -1.16733,0.84563 -3.45361,2.25353 -5.08051,3.12871 -3.4105,1.83486 -3.71442,3.01518 -1.12053,4.35645 1.56695,0.81029 5.95727,0.95006 29.84213,0.95006 h 28.00491 l 2.07174,1.70861 c 2.98563,2.46275 3.47465,3.20227 4.58414,6.93786 0.83395,2.80843 0.87444,3.87117 0.24713,6.53842 -0.41014,1.75173 -1.14156,3.96208 -1.62216,4.91193 -1.28091,2.53106 -7.32573,8.954 -12.14674,12.90661 -1.46179,1.19872 -3.9684,3.44046 -5.56943,4.98165 -1.60113,1.54119 -4.69087,4.20155 -6.86615,5.91187 -3.61872,2.84544 -5.35178,4.58276 -11.73891,11.76924 -2.01233,2.2642 -3.26958,3.52255 -7.47249,7.47934 -0.85604,0.80609 -2.78266,2.22561 -4.28126,3.15447 -3.04241,1.88608 -11.51717,10.33101 -15.33412,15.28021 -1.36978,1.77634 -3.26169,4.05258 -4.20344,5.05838 -0.94175,1.00574 -1.71261,2.03604 -1.71261,2.28949 0,0.25344 -2.13221,2.27539 -4.7382,4.49316 -2.6328,2.24054 -6.83077,6.79936 -9.44711,10.25939 -2.58968,3.42491 -5.49349,7.13849 -6.4527,8.25246 -0.9591,1.11396 -3.0035,4.60211 -4.54312,7.75137 -2.83261,5.79461 -3.88899,7.38838 -7.82215,11.80046 -5.799,6.50539 -7.20731,8.34104 -9.96058,12.98296 -0.71091,1.19888 -2.05334,3.18124 -2.983,4.40588 -0.92966,1.22464 -2.60335,3.44152 -3.71915,4.92697 -1.1158,1.48493 -2.58706,3.09132 -3.26905,3.56877 -0.68199,0.4785 -1.23989,1.25146 -1.23989,1.71944 0,0.46798 -0.84079,1.69158 -1.86825,2.71904 -1.02746,1.02746 -1.86826,2.13852 -1.86826,2.46874 0,0.33127 -0.94227,1.97079 -2.09435,3.64501 -1.15208,1.67422 -3.27063,5.27869 -4.70876,8.0094 -1.43812,2.73061 -3.12497,5.38528 -3.74859,5.89901 -0.62363,0.51531 -1.49177,1.62953 -1.92873,2.47926 -0.43643,0.84973 -1.45074,2.0607 -2.25263,2.69169 -0.80188,0.63046 -1.45811,1.49282 -1.45811,1.91558 0,0.42066 -2.18111,2.8547 -4.84704,5.40352 -2.66593,2.5492 -6.13642,6.45601 -7.71221,8.68219 -1.575887,2.22634 -5.489387,7.04152 -8.696807,10.70073 -3.20752,3.65921 -6.67233,7.79913 -7.69979,9.19971 -1.02746,1.4008 -2.70905,3.64974 -3.73598,4.99848 -1.02746,1.34821 -2.84892,3.76963 -4.04779,5.3805 -1.19888,1.61112 -2.74901,3.51355 -3.4452,4.22762 -0.69619,0.71459 -1.79464,2.13958 -2.44088,3.16704 -0.64623,1.02746 -1.68789,2.23422 -2.31467,2.6817 -0.62679,0.44695 -1.13946,1.19677 -1.13946,1.66476 0,0.46798 -0.8408,1.69157 -1.86826,2.71903 -1.02746,1.02746 -1.86825,2.11487 -1.86825,2.41669 0,0.29972 -0.98066,1.49912 -2.17954,2.66067 -1.19888,1.16207 -2.17954,2.42878 -2.17954,2.81578 0,0.38911 -0.71354,1.37346 -1.58536,2.19269 -1.32192,1.24147 -1.55486,1.95817 -1.40132,4.3086 0.16827,2.57601 0.34705,2.85207 2.05229,3.20016 2.1848,0.44696 3.28325,0.26292 9.96331,-1.63531 z M 416.06757,79.709001 c -0.93544,-0.14197 -2.61702,-0.14513 -3.7365,-0.006 -1.11896,0.13882 -0.3523,0.25502 1.70156,0.25818 2.05492,0.003 2.97038,-0.1099 2.03494,-0.25183 z"
     id="path302" /></svg>
