<?xml version="1.0" encoding="UTF-8" standalone="no"?>
<svg
   height="512"
   width="512"
   version="1.1"
   id="svg33"
   sodipodi:docname="destruction.svg"
   inkscape:version="1.2.1 (9c6d41e410, 2022-07-14)"
   inkscape:export-filename="destruction.png"
   inkscape:export-xdpi="96"
   inkscape:export-ydpi="96"
   xmlns:inkscape="http://www.inkscape.org/namespaces/inkscape"
   xmlns:sodipodi="http://sodipodi.sourceforge.net/DTD/sodipodi-0.dtd"
   xmlns:xlink="http://www.w3.org/1999/xlink"
   xmlns="http://www.w3.org/2000/svg"
   xmlns:svg="http://www.w3.org/2000/svg">
  <sodipodi:namedview
     id="namedview35"
     pagecolor="#ffffff"
     bordercolor="#000000"
     borderopacity="0.25"
     inkscape:showpageshadow="2"
     inkscape:pageopacity="0.0"
     inkscape:pagecheckerboard="true"
     inkscape:deskcolor="#d1d1d1"
     showgrid="false"
     inkscape:zoom="1.4183568"
     inkscape:cx="19.036113"
     inkscape:cy="286.59925"
     inkscape:window-width="2560"
     inkscape:window-height="1351"
     inkscape:window-x="2391"
     inkscape:window-y="-9"
     inkscape:window-maximized="1"
     inkscape:current-layer="svg33" />
  <defs
     id="defs31">
    <g
       id="shape0">
      <path
         d="M 100,100 H 0 V 0 h 100 v 100"
         fill="#00cc66"
         fill-opacity="0"
         fill-rule="evenodd"
         stroke="none"
         id="path8" />
      <path
         d="M 84.3,84.3 V 15.7 H 15.7 v 68.6 h 68.6 m 7.95,7.95 H 7.75 V 7.75 h 84.5 v 84.5"
         fill="#666666"
         fill-opacity="0"
         fill-rule="evenodd"
         stroke="none"
         id="path10" />
      <path
         d="M 84.3,84.3 H 15.7 V 15.7 H 84.3 V 84.3 M 76.4,76.4 V 23.55 H 23.55 V 76.4 H 76.4"
         fill="#999999"
         fill-opacity="0"
         fill-rule="evenodd"
         stroke="none"
         id="path12" />
      <path
         d="M 92.25,92.25 V 7.75 H 7.75 v 84.5 h 84.5 m 3.8,3.8 H 3.95 V 3.95 h 92.1 v 92.1"
         fill="#333333"
         fill-opacity="0"
         fill-rule="evenodd"
         stroke="none"
         id="path14" />
      <path
         d="M 68.85,68.85 V 31.1 H 31.1 V 68.85 H 68.85 M 76.4,76.4 H 23.55 V 23.55 H 76.4 V 76.4"
         fill="#cccccc"
         fill-opacity="0"
         fill-rule="evenodd"
         stroke="none"
         id="path16" />
      <path
         d="M 68.85,68.85 H 31.1 V 31.1 h 37.75 v 37.75"
         fill="#ffffff"
         fill-opacity="0"
         fill-rule="evenodd"
         stroke="none"
         id="path18" />
      <path
         d="M 96.05,96.05 V 3.95 H 3.95 v 92.1 h 92.1 M 100,100 H 0 V 0 h 100 v 100"
         fill="#000000"
         fill-opacity="0"
         fill-rule="evenodd"
         stroke="none"
         id="path20" />
      <path
         d="M 0,50 H 50 L 0,0 M 50,50 V 0 m 0,100 V 50 L 0,100 M 100,50 H 50 l 50,50 M 50,50 100,0"
         fill="none"
         stroke="#000000"
         stroke-linecap="round"
         stroke-linejoin="round"
         stroke-opacity="0"
         stroke-width="0.05"
         id="path22" />
    </g>
    <g
       id="sprite0"
       transform="translate(-10.4,-40.1)">
      <use
         height="956.84998"
         transform="translate(10.4,40.1)"
         width="587.5"
         xlink:href="#shape1"
         id="use25" />
    </g>
    <g
       id="shape1"
       transform="translate(-10.4,-40.1)">
      <path
         d="m 368.3,90.65 q -16.45,74 42.3,100 -69.15,82.5 -68.3,183.6 6.95,145.3 1.05,282.9 -31.7,-13.65 -66.15,-15.15 -14.8,-89.45 -4.5,-181 3.2,-82.25 -15.45,-166.45 -21.5,-57.85 8.9,-98 7.2,38.2 40.55,44.65 34.3,-4.95 24.3,-79.6 -22.5,-70.95 -19.7,-121.5 17.1,26.05 53.8,27.1 13.2,7.4 3.2,23.45 m 128.9,149.9 q -80.7,125 -54.9,175.75 37.6,69.45 77.1,15 14.25,-18.65 11.2,-41.45 51.65,63.55 -5.8,102.15 -110.25,61 -97.45,140.45 16.25,59 5.45,95.65 -12.6,-15.8 -26.3,-28.2 l -8,-7.15 Q 384.4,676.5 379.85,641.35 366.4,530 372.25,416.3 q 3.7,-98 82.25,-188.1 40.5,-54.2 22.75,-110 52.05,50.35 19.95,122.35 m -486.8,7.2 q 1,-28.6 48.95,-51.45 -23.45,44.9 -6.9,56 118.65,98.75 100.25,233.9 -17.8,127.1 5.4,206.35 l 3.3,9.7 q -37.75,40.4 -37.75,97.25 0,57.5 38.3,97.65 38.9,40.8 94,40.8 55.15,0 93.55,-40.8 30.35,-31.7 30.75,-77.7 -3,-37.3 -26.45,-60.75 5.25,16.95 5.25,36.25 0,46.35 -30.4,79.35 -29.95,33 -72.7,33 -42.75,0 -73.15,-33 -29.9,-33 -29.9,-79.35 0,-42.8 25.4,-74.2 44.65,-58.35 109.55,-54.65 51,5.15 88.95,43.35 49.45,49.25 49.45,119.15 0,69.4 -49.45,119.1 -49.45,49.25 -118.85,49.25 -69.9,0 -118.95,-49.25 -20.4,-20.65 -32.3,-44.25 -25.85,-40.2 -31.05,-80.3 -16,-135.85 1.55,-305.5 9.5,-160.3 -32.15,-214.8 -31.5,-21.9 -34.65,-55.1 m 164.4,119.75 -0.4,-2.6 q 1.05,-85.45 -11.8,-99.8 -56.35,-35.55 -21.65,-88.55 58.6,-50.75 48.85,-94.8 40.3,55.8 20.2,119.75 -31.3,99.4 22.7,130 l 15,311.35 q -29.25,2.6 -60.55,14.1 L 174.8,367.5 m 376,364.75 q 2.4,211.5 -141.2,231.45 79.35,-74.15 83.55,-203.05 4.7,-128.85 104.75,-204.8 -47.95,69.4 -47.1,176.4"
         fill="#ffffff"
         fill-rule="evenodd"
         stroke="none"
         id="path28" />
    </g>
  </defs>
  <g
     inkscape:groupmode="layer"
     id="layer1"
     inkscape:label="Layer 1">
    <path
       d="m 368.3,90.65 q -16.45,74 42.3,100 -69.15,82.5 -68.3,183.6 6.95,145.3 1.05,282.9 -31.7,-13.65 -66.15,-15.15 -14.8,-89.45 -4.5,-181 3.2,-82.25 -15.45,-166.45 -21.5,-57.85 8.9,-98 7.2,38.2 40.55,44.65 34.3,-4.95 24.3,-79.6 -22.5,-70.95 -19.7,-121.5 17.1,26.05 53.8,27.1 13.2,7.4 3.2,23.45 m 128.9,149.9 q -80.7,125 -54.9,175.75 37.6,69.45 77.1,15 14.25,-18.65 11.2,-41.45 51.65,63.55 -5.8,102.15 -110.25,61 -97.45,140.45 16.25,59 5.45,95.65 -12.6,-15.8 -26.3,-28.2 l -8,-7.15 Q 384.4,676.5 379.85,641.35 366.4,530 372.25,416.3 q 3.7,-98 82.25,-188.1 40.5,-54.2 22.75,-110 52.05,50.35 19.95,122.35 m -486.8,7.2 q 1,-28.6 48.95,-51.45 -23.45,44.9 -6.9,56 118.65,98.75 100.25,233.9 -17.8,127.1 5.4,206.35 l 3.3,9.7 q -37.75,40.4 -37.75,97.25 0,57.5 38.3,97.65 38.9,40.8 94,40.8 55.15,0 93.55,-40.8 30.35,-31.7 30.75,-77.7 -3,-37.3 -26.45,-60.75 5.25,16.95 5.25,36.25 0,46.35 -30.4,79.35 -29.95,33 -72.7,33 -42.75,0 -73.15,-33 -29.9,-33 -29.9,-79.35 0,-42.8 25.4,-74.2 44.65,-58.35 109.55,-54.65 51,5.15 88.95,43.35 49.45,49.25 49.45,119.15 0,69.4 -49.45,119.1 -49.45,49.25 -118.85,49.25 -69.9,0 -118.95,-49.25 -20.4,-20.65 -32.3,-44.25 -25.85,-40.2 -31.05,-80.3 -16,-135.85 1.55,-305.5 9.5,-160.3 -32.15,-214.8 -31.5,-21.9 -34.65,-55.1 m 164.4,119.75 -0.4,-2.6 q 1.05,-85.45 -11.8,-99.8 -56.35,-35.55 -21.65,-88.55 58.6,-50.75 48.85,-94.8 40.3,55.8 20.2,119.75 -31.3,99.4 22.7,130 l 15,311.35 q -29.25,2.6 -60.55,14.1 L 174.8,367.5 m 376,364.75 q 2.4,211.5 -141.2,231.45 79.35,-74.15 83.55,-203.05 4.7,-128.85 104.75,-204.8 -47.95,69.4 -47.1,176.4"
       fill="#ffffff"
       fill-rule="evenodd"
       stroke="none"
       id="path253"
       transform="matrix(0.49255372,0,0,0.49255372,105.47454,0.13265367)" />
  </g>
</svg>
