<?xml version="1.0" encoding="UTF-8" standalone="no"?>
<svg
   height="512"
   width="512"
   version="1.1"
   id="svg1296"
   sodipodi:docname="destruction_frost.svg"
   inkscape:version="1.2.1 (9c6d41e410, 2022-07-14)"
   xml:space="preserve"
   inkscape:export-filename="destruction_frost.png"
   inkscape:export-xdpi="96"
   inkscape:export-ydpi="96"
   xmlns:inkscape="http://www.inkscape.org/namespaces/inkscape"
   xmlns:sodipodi="http://sodipodi.sourceforge.net/DTD/sodipodi-0.dtd"
   xmlns="http://www.w3.org/2000/svg"
   xmlns:svg="http://www.w3.org/2000/svg"><defs
     id="defs1300" /><sodipodi:namedview
     id="namedview1298"
     pagecolor="#ffffff"
     bordercolor="#000000"
     borderopacity="0.25"
     inkscape:showpageshadow="2"
     inkscape:pageopacity="0.0"
     inkscape:pagecheckerboard="true"
     inkscape:deskcolor="#d1d1d1"
     showgrid="false"
     inkscape:zoom="1.8864805"
     inkscape:cx="99.126392"
     inkscape:cy="167.24266"
     inkscape:window-width="2560"
     inkscape:window-height="1351"
     inkscape:window-x="2391"
     inkscape:window-y="-9"
     inkscape:window-maximized="1"
     inkscape:current-layer="svg1296" /><path
     style="fill:#ffffff;fill-rule:evenodd;stroke-width:1.13325"
     d="M 95.043939,500.56606 C 89.69209,498.85869 81.35218,497.13742 71.783,495.76526 68.65041,495.31606 63.29582,493.49277 59.8839,491.71344 54.11873,488.7069 51.7827,487.17706 38.96463,478.01339 18.96421,463.71503 7.70998,450.21131 5.00025,437.26018 4.16594,433.27254 3.09385,429.37982 2.61788,428.60964 2.14187,427.83946 1.35813,405.90821 0.87622,379.87353 L 0,332.53777 2.80105,324.81505 c 3.67167,-10.12305 7.24684,-15.1015 15.02416,-20.92133 3.51492,-2.63026 9.48264,-7.91053 13.2615,-11.73395 7.11009,-7.19383 7.36257,-7.31132 23.16033,-10.77835 3.42808,-0.75232 10.56755,-2.88012 15.86548,-4.72844 9.60296,-3.35023 9.69878,-3.35922 31.16427,-2.92476 23.51424,0.47592 28.4265,1.49593 37.60133,7.80769 2.60544,1.79239 5.22884,3.25889 5.8297,3.25889 0.60091,0 2.80383,1.60033 4.89546,3.5563 2.09158,1.95597 5.03267,4.36341 6.5357,5.34986 4.54926,2.9857 19.54801,21.81625 22.48268,28.22645 2.61181,5.70494 2.7273,6.88123 2.2828,23.25188 -0.37755,13.91269 -0.94831,18.65145 -2.95404,24.53579 -4.42962,12.99546 -15.26291,30.34894 -23.02548,36.8837 -7.84334,6.60274 -21.13083,11.13387 -37.34291,12.73414 -5.13802,0.50718 -9.18795,-0.67937 -21.971475,-6.43702 -6.629295,-2.98581 -14.947745,-10.82282 -17.420045,-16.41184 -3.35522,-7.585 -4.18236,-17.8589 -1.8034,-22.40008 1.0744,-2.051 2.8604,-5.51389 3.96887,-7.69539 1.10848,-2.18151 3.30336,-5.17124 4.8775,-6.64379 2.60305,-2.43506 3.65346,-2.63747 11.603644,-2.23602 l 8.741486,0.44142 4.87417,5.53912 c 4.15717,4.7243 5.13267,5.32453 6.63173,4.08043 2.08338,-1.72905 2.44515,-13.19762 0.54498,-17.27664 -1.57593,-3.38293 -13.86493,-11.6284 -20.037578,-13.4445 -9.027492,-2.65602 -21.768042,2.2122 -32.366982,12.3675 -5.85608,5.61095 -7.36446,9.3533 -8.06358,20.0056 -0.32709,4.98627 -0.9061,12.52441 -1.2863,16.75136 -0.67953,7.55418 -0.59128,7.88726 5.16552,19.50043 6.65251,13.42022 8.44638,15.24324 26.19073,26.61715 11.673722,7.48269 12.276381,7.72268 20.96511,8.34928 4.92021,0.35489 12.0056,1.16855 15.74534,1.8082 21.97716,3.7591 30.47755,2.45326 43.63002,-6.70259 1.55819,-1.08474 3.43355,-2.17244 4.16747,-2.41713 0.73393,-0.24457 5.32359,-4.19694 10.19925,-8.7828 4.87566,-4.58581 10.04554,-9.38853 11.48858,-10.67265 7.6228,-6.78322 12.89644,-28.75445 13.50552,-56.26706 0.46002,-20.78018 0.50577,-20.57123 -7.7137,-35.21395 -2.97388,-5.29793 -6.65743,-12.96541 -8.18557,-17.03886 -4.60201,-12.2669 -8.21472,-18.31623 -15.20382,-25.45791 -3.65982,-3.73971 -11.56939,-13.68395 -17.57687,-22.09831 -6.00748,-8.41436 -12.13464,-16.57373 -13.61587,-18.13195 -3.89089,-4.09304 -13.88511,-19.24714 -15.3214,-23.23156 -0.67407,-1.86986 -2.75223,-8.49936 -4.61823,-14.73221 -1.86599,-6.23286 -4.23285,-14.13726 -5.2597,-17.56533 -2.7314,-9.1187 -4.54652,-39.3944 -3.02976,-50.53683 3.62776,-26.65054 6.60219,-36.21854 18.48986,-59.476811 12.13216,-23.73655 17.74757,-30.59688 33.80747,-41.30262 16.98606,-11.32309 21.08183,-12.74229 48.72964,-16.88489 5.29789,-0.79382 12.43736,-2.41282 15.86544,-3.59778 5.41342,-1.87124 9.58504,-2.1520896 31.73093,-2.13628 25.41209,0.018 25.52368,0.0291 33.1059,3.22032 4.18437,1.76116 9.79391,5.08033 12.46575,7.37594 2.6718,2.2956 7.00415,5.55693 9.62742,7.2474 2.62327,1.69046 6.91213,6.01251 9.53078,9.60456 2.61861,3.59204 7.1018,9.18032 9.96259,12.41839 11.54408,13.0665 12.49636,14.76339 14.50307,25.84351 0.33864,1.86986 0.99282,3.90971 1.45374,4.53299 0.46092,0.62329 1.92672,4.55463 3.25736,8.736313 2.17342,6.8301 2.41936,10.195706 2.41936,33.104958 0,28.80944 -0.73303,32.41817 -8.77369,43.19258 -2.34227,3.13861 -5.99457,8.23822 -8.1163,11.33248 -6.52245,9.51214 -11.67701,14.23072 -19.90858,18.2246 -4.34539,2.10836 -8.51497,3.83338 -9.26574,3.83338 -0.75072,0 -7.90456,3.32512 -15.89742,7.38918 -16.99653,8.64207 -22.23319,9.71215 -33.26787,6.79806 -4.03108,-1.06454 -10.89896,-2.68756 -15.26197,-3.6067 -11.27681,-2.37567 -18.1653,-5.82614 -28.1641,-14.10757 -14.41046,-11.93531 -18.32255,-22.59313 -18.25594,-49.73558 0.0428,-16.77629 0.17873,-17.82618 3.06337,-23.37244 3.16187,-6.07947 13.96985,-16.44704 21.57615,-20.69697 3.76453,-2.103409 6.12313,-2.393712 19.44774,-2.393712 h 15.16363 l 2.93386,3.486692 c 2.52693,3.00311 2.93385,4.55565 2.93385,11.19407 0,8.78008 -1.84163,14.06347 -6.91713,19.84413 -1.93724,2.20638 -3.24992,4.72122 -2.9171,5.58853 0.87485,2.27979 7.50522,6.95929 11.98653,8.4597 7.48581,2.50633 10.33192,1.75052 15.95271,-4.23636 7.40025,-7.88222 11.36044,-16.5025 11.35518,-24.71692 -0.004,-7.57085 -1.11292,-9.76285 -11.26466,-22.284178 -5.94788,-7.336172 -8.00723,-8.983863 -16.18822,-12.952173 -5.15538,-2.5007 -10.90328,-4.84362 -12.77317,-5.20649 -1.86985,-0.36288 -8.19429,-1.6907 -14.05426,-2.95072 -15.46917,-3.32621 -21.4843,-3.06853 -29.35368,1.25747 -9.02125,4.95922 -22.05849,13.592691 -23.6688,15.673878 -0.74166,0.958517 -3.67954,5.64604 -6.52865,10.416723 -8.7677,14.68119 -10.99833,23.68739 -12.64498,51.05459 l -0.72999,12.13216 4.6765,9.57215 c 2.57204,5.26467 4.67645,10.15222 4.67645,10.86123 0,2.9643 5.23051,11.29323 11.18698,17.81388 3.50808,3.84037 9.18317,10.05947 12.61121,13.82022 3.42808,3.76074 8.26389,7.75808 10.74628,8.88295 2.48238,1.12489 8.34693,4.64616 13.03236,7.82506 4.6854,3.1789 10.32936,6.37207 12.54207,7.09593 14.23123,4.65548 46.59201,6.28823 59.25585,2.98971 3.58945,-0.93493 8.23671,-1.69987 10.32727,-1.69987 3.78399,0 21.39738,-5.35526 28.95257,-8.80287 10.97653,-5.00885 19.9932,-6.21957 50.42949,-6.77149 28.52954,-0.51735 43.31413,0.52857 46.40644,3.28296 0.59214,0.52741 1.98213,0.95893 3.08885,0.95893 1.10672,0 7.5038,2.60297 14.21575,5.78435 17.14811,8.12807 24.84787,16.12272 34.95621,36.29497 4.01022,8.00286 7.29135,15.2386 7.29135,16.0794 0,0.84081 1.81392,5.25601 4.031,9.81156 2.21703,4.55553 4.47498,10.37689 5.01761,12.93632 0.54267,2.55943 2.07534,9.49816 3.40598,15.4194 2.09111,9.30507 2.50983,15.71451 3.08598,47.23751 0.85779,46.9306 0.18001,50.42804 -13.9005,71.73961 -3.08355,4.66705 -6.40367,10.02163 -7.37801,11.89909 -1.15175,2.21913 -4.18527,4.65217 -8.66983,6.95356 -3.79404,1.94703 -12.17616,7.02514 -18.6269,11.28472 -11.05965,7.30298 -26.09445,14.11668 -36.66004,16.61416 -2.49316,0.58932 -9.88759,1.57901 -16.43205,2.19929 -26.69724,2.53031 -32.80494,1.37015 -58.36223,-11.08598 -9.51698,-4.63836 -14.87836,-8.20036 -22.66496,-15.05824 -17.12497,-15.08234 -17.91127,-16.01286 -20.74679,-24.55139 -1.43817,-4.33072 -3.55255,-10.42385 -4.69869,-13.54027 -5.83457,-15.8648 -6.0611,-17.64118 -5.47682,-42.95049 0.56225,-24.35736 1.18077,-27.8893 5.70651,-32.58636 0.8076,-0.83817 4.57701,-5.34864 8.37652,-10.02326 17.54322,-21.58402 21.34949,-23.23157 53.66982,-23.23157 h 22.0983 l 7.93274,3.88126 c 6.04096,2.9557 10.3031,6.30956 17.87263,14.06384 5.46694,5.60043 10.31156,11.50324 10.76581,13.11745 0.45429,1.61416 0.82598,9.81935 0.82598,18.2337 0,14.52185 -0.15307,15.55909 -3.01308,20.42386 -4.75398,8.08624 -8.23662,10.87959 -16.27813,13.05631 -5.42787,1.46925 -9.57919,1.80827 -16.10176,1.31494 -11.66342,-0.88207 -12.77005,-2.17761 -12.77005,-14.9501 0,-6.99628 -0.43578,-9.72995 -1.7211,-10.79669 -2.37143,-1.9681 -5.42757,0.90747 -7.60539,7.15593 -3.80063,10.90457 -4.27245,13.22974 -4.27245,21.05392 v 8.19946 l 5.54896,5.32034 c 5.47716,5.25141 6.90118,5.87724 20.81528,9.14815 7.70228,1.81058 19.11155,1.58803 23.20215,-0.45263 1.89833,-0.94702 9.30554,-7.60851 16.46045,-14.80336 12.99174,-13.06422 13.01364,-13.09543 16.55443,-23.61817 3.3108,-9.83924 3.54549,-11.60211 3.54549,-26.63161 0,-15.66842 -0.0928,-16.28741 -3.50479,-23.36181 -1.92761,-3.99679 -5.28797,-9.19176 -7.46742,-11.54438 -2.17945,-2.35257 -4.80947,-5.30447 -5.84449,-6.55973 -1.03502,-1.2553 -4.68668,-4.01043 -8.11472,-6.12254 -3.42808,-2.11207 -11.17174,-7.12198 -17.20813,-11.1331 -10.67517,-7.09353 -11.29494,-7.34002 -22.66495,-9.01448 -6.42933,-0.94685 -14.05016,-1.96691 -16.93523,-2.26681 -6.25478,-0.65018 -27.2485,2.50057 -32.11137,4.81931 -6.92334,3.30121 -27.9634,20.01594 -31.73551,25.21146 -7.52112,10.3592 -21.80648,40.79177 -24.85975,52.95946 -1.56978,6.25578 -3.67432,13.39525 -4.6768,15.86549 -7.92137,19.51946 -24.0053,51.85394 -28.3633,57.02039 -1.91757,2.2733 -5.07893,6.42808 -7.02523,9.23286 -5.062,7.29472 -17.35325,16.82289 -28.60342,22.17337 -3.42809,1.63037 -8.63011,4.18129 -11.56012,5.66872 -9.21985,4.68056 -26.05284,9.90333 -35.46964,11.00513 -4.98627,0.58338 -21.30502,1.21909 -36.26389,1.4126 -21.28121,0.27536 -28.30729,-0.002 -32.297541,-1.27505 z M 146.1687,489.85899 c 3.35732,-0.65269 10.10154,-1.65547 14.98721,-2.22832 19.88088,-2.33111 54.19202,-18.63011 64.50581,-30.64251 2.01958,-2.35223 5.59188,-6.58346 7.93843,-9.40281 4.03497,-4.84791 23.18005,-41.76081 28.20596,-54.3828 1.28091,-3.2169 3.55498,-10.94852 5.05344,-17.18138 1.49851,-6.23285 3.19112,-12.3524 3.76146,-13.59898 3.93022,-8.59043 11.68103,-24.36852 13.3607,-27.19791 1.11001,-1.86985 3.65888,-6.29622 5.66414,-9.83642 5.29977,-9.35633 9.37964,-13.54673 23.43971,-24.07451 14.28348,-10.69512 17.83149,-12.71103 26.01804,-14.78296 8.63353,-2.18507 30.82217,-3.18826 37.5522,-1.69779 3.11643,0.69017 8.98102,1.50615 13.03237,1.81329 9.41055,0.71342 12.2848,1.84076 22.66491,8.88982 4.67466,3.17451 12.75995,8.3035 17.96737,11.39774 10.98927,6.52984 20.17581,16.49042 27.02184,29.29869 l 4.30704,8.05811 v 22.09834 22.09829 l -3.91641,11.33248 -3.91645,11.33244 -13.39413,13.71771 c -16.77566,17.18091 -21.22828,19.80144 -34.97716,20.58534 -21.4283,1.22183 -41.24666,-5.59637 -49.94386,-17.18231 -2.38763,-3.18065 -2.67979,-4.91816 -3.01642,-17.93864 -0.32024,-12.38079 -0.0171,-15.58179 2.1547,-22.66496 3.0068,-9.81234 7.33765,-17.28309 10.98153,-18.94334 3.33667,-1.52031 13.34098,-1.56546 16.12998,-0.0727 4.66812,2.49829 7.26415,8.07098 7.8955,16.94886 l 0.60817,8.55153 3.95391,0.3754 c 6.80507,0.64597 12.14294,-1.89152 15.89499,-7.5561 3.11839,-4.70788 3.38267,-5.89435 3.38267,-15.18629 0,-9.94698 -0.61553,-12.36087 -4.33752,-17.01039 -6.76958,-8.45651 -11.48649,-12.58072 -18.12883,-15.85073 -7.10201,-3.49632 -8.16619,-3.68514 -23.0779,-4.09462 -21.67141,-0.59518 -28.52295,1.25171 -37.18278,10.0227 -9.54092,9.66342 -18.34949,21.45566 -19.39922,25.97028 -0.51984,2.23555 -0.95733,12.19703 -0.97221,22.13661 l -0.0256,18.07192 4.63366,14.22558 c 6.40606,19.66705 6.97297,20.78087 13.09205,25.72208 2.97572,2.40294 8.49166,7.22122 12.25761,10.70733 8.23371,7.62181 20.19835,14.2883 34.17966,19.04425 9.35253,3.18141 11.65829,3.51518 24.28433,3.51518 7.67287,0 15.51672,-0.50753 17.43082,-1.12785 1.91414,-0.62036 8.21588,-2.65666 14.00393,-4.52522 12.21485,-3.94326 14.93873,-5.26009 25.93552,-12.53865 4.47045,-2.95887 11.26282,-7.05059 15.09419,-9.0927 6.23362,-3.32247 7.71053,-4.85369 14.04583,-14.56221 3.89388,-5.96716 8.56132,-13.90914 10.37212,-17.64884 3.26304,-6.73888 3.29587,-7.01154 3.68552,-30.59761 0.74145,-44.88331 -2.51685,-71.05053 -11.19194,-89.88065 -1.81259,-3.9345 -3.60343,-8.37982 -3.97956,-9.87849 -0.84979,-3.38597 -11.19822,-23.69368 -14.41996,-28.29778 -3.82593,-5.46755 -11.94112,-12.71077 -16.43894,-14.67261 -2.28916,-0.99849 -6.12733,-2.86842 -8.52928,-4.1554 -11.62883,-6.23085 -15.66979,-6.94254 -42.6865,-7.51784 -17.25808,-0.3675 -28.08282,-0.0983 -33.43077,0.83154 -4.34984,0.75625 -10.45861,1.75808 -13.57504,2.22627 -3.11643,0.46819 -8.47101,2.1765 -11.89909,3.79626 -6.25808,2.95694 -14.87545,5.35689 -35.44151,9.87053 -9.79831,2.15044 -13.52578,2.36879 -32.29754,1.8918 -27.70746,-0.70401 -32.72007,-1.65644 -46.37237,-8.81105 -6.11181,-3.20296 -12.38729,-6.65836 -13.94553,-7.67866 -1.55819,-1.02032 -4.77108,-2.83949 -7.13973,-4.04262 -2.36865,-1.20312 -10.662,-8.92776 -18.42974,-17.16585 -13.45276,-14.2674 -14.74042,-16.12774 -19.93493,-28.80003 -0.63874,-1.55822 -2.39759,-5.38293 -3.90858,-8.49936 -5.16842,-10.65991 -6.11613,-15.04098 -6.11613,-28.27395 0,-21.64542 5.54836,-45.78472 13.32512,-57.974139 1.70883,-2.678416 4.38187,-7.012356 5.9401,-9.630972 3.89238,-6.54124 5.42197,-7.82856 19.15298,-16.11932 19.1101,-11.53865 18.06756,-11.17728 30.51227,-10.57635 21.9141,1.05819 36.10621,4.37042 52.00265,12.13665 8.59436,4.19878 10.07294,5.42447 15.66414,12.98491 3.39571,4.591662 6.69766,8.67213 7.33773,9.067704 4.32141,2.670776 9.88443,22.104577 8.60963,30.076767 -1.16872,7.30886 -8.28129,20.15577 -15.14024,27.34663 -8.92885,9.36096 -15.45207,10.79836 -30.30913,6.67862 -7.04836,-1.95446 -8.63096,-2.95826 -14.99102,-9.5084 -9.33718,-9.61628 -9.55079,-12.58406 -1.56289,-21.71228 5.87579,-6.71457 8.14161,-13.05051 5.7134,-15.97633 -1.79238,-2.15963 -13.49752,-2.1305 -18.70793,0.0466 -2.18582,0.9133 -6.99465,4.28763 -10.68629,7.49852 -9.17842,7.98311 -10.56473,11.89349 -9.86403,27.82333 0.96066,21.83996 3.17774,27.88202 13.52672,36.86354 9.13567,7.92855 13.47169,10.34591 21.83645,12.17402 3.7397,0.81731 9.05764,2.19562 11.81764,3.06292 10.95844,3.44355 17.19822,1.90369 39.90371,-9.84743 3.51531,-1.81934 7.18522,-3.30788 8.15533,-3.30788 0.97012,0 4.77125,-1.7626 8.44698,-3.91688 6.76476,-3.96473 12.74864,-10.25478 17.40974,-18.30063 1.40637,-2.42759 3.94001,-6.19866 5.63033,-8.38016 4.59543,-5.93078 5.63515,-11.16882 6.33367,-31.90785 0.63182,-18.75953 0.6142,-18.94405 -2.86737,-30.031043 -1.9268,-6.135565 -4.27249,-13.863888 -5.21276,-17.174068 -1.66837,-5.8736 -5.68714,-11.95458 -12.5566,-19.00002 -1.86985,-1.91776 -5.78006,-6.58151 -8.68933,-10.36388 -2.90927,-3.78238 -7.75393,-8.56668 -10.76586,-10.63177 -3.01193,-2.06509 -6.49615,-4.71351 -7.74273,-5.88538 -1.24658,-1.17187 -4.74273,-3.39625 -7.7692,-4.94308 -5.30841,-2.71311 -6.08872,-2.79194 -22.09834,-2.23267 -18.93394,0.66143 -33.9858,2.17238 -39.97246,4.01256 -2.26141,0.69511 -9.40084,1.75193 -15.86544,2.34847 -20.0773,1.85273 -26.24842,3.77656 -36.1186,11.25981 -2.18151,1.65395 -5.91834,4.0084 -8.30405,5.23212 -5.31063,2.72397 -15.08739,14.4261 -20.32965,24.33313 -14.61557,27.621201 -15.96007,31.131811 -20.69831,54.045701 -2.37318,11.47663 -2.84654,16.16245 -2.26667,22.4386 0.4032,4.363 1.11352,13.28732 1.57867,19.83182 0.5425,7.63234 1.89037,15.14995 3.75894,20.96507 1.60223,4.98628 3.77728,11.95916 4.83346,15.49529 2.15084,7.20138 7.51834,16.64312 14.59616,25.67557 2.60321,3.32211 6.4023,8.16674 8.4424,10.76585 2.04007,2.5991 6.61455,9.0603 10.16547,14.35823 3.55088,5.29793 10.31375,13.71229 15.02852,18.69858 6.87121,7.26693 9.32504,10.86502 12.36544,18.13195 4.75581,11.36696 11.63007,25.69286 15.4061,32.10632 4.3229,7.34218 6.18476,17.12335 6.20365,32.59081 0.0128,9.60745 -0.61044,16.20989 -2.08239,22.0983 -2.03249,8.13075 -3.92192,17.5295 -5.26406,26.18548 -0.97982,6.31935 -9.88708,18.45459 -21.58611,29.40901 -8.58261,8.03634 -12.74859,10.94262 -23.14841,16.14875 l -12.68223,6.34877 h -14.42851 c -13.02274,0 -31.06708,-1.80289 -44.05267,-4.40149 -7.52236,-1.50539 -31.42231,-16.5475 -38.18475,-24.0327 -2.18514,-2.41868 -6.82982,-10.09398 -10.32149,-17.05623 l -6.34855,-12.65858 0.55178,-11.43912 c 0.78446,-16.26201 2.68933,-30.30866 4.88237,-36.00282 4.54695,-11.80584 23.96374,-24.80772 39.53835,-26.47558 9.425689,-1.00941 20.22075,1.6423 26.27612,6.45451 2.3008,1.82845 5.78528,4.08461 7.74329,5.01376 1.9802,0.93967 4.76954,3.80845 6.28557,6.4646 2.42351,4.24607 2.72661,6.16226 2.73542,17.29083 0.009,10.22533 -0.36899,13.09402 -2.06144,15.6768 -2.61643,3.99316 -8.24111,6.37168 -15.06768,6.37168 -4.92522,0 -5.69271,-0.41346 -10.52198,-5.66623 -6.779884,-7.37473 -9.40183,-7.46323 -12.51624,-0.42244 -5.51399,12.46532 -0.82581,21.12754 15.29275,28.25594 6.91295,3.05721 10.46913,3.33269 20.42667,1.58214 12.91145,-2.2698 19.56524,-6.17069 26.6393,-15.61763 15.07166,-20.12724 20.89263,-47.80032 13.34979,-63.46527 -3.3155,-6.88563 -23.56144,-27.04963 -32.29048,-32.15987 -10.46345,-6.12559 -13.29096,-6.77419 -32.27279,-7.4031 l -17.6995,-0.58642 -11.76492,3.95375 c -6.47071,2.17456 -15.15149,4.58194 -19.29066,5.34972 -7.07487,1.31235 -8.03716,1.88189 -16.06251,9.50703 -4.69527,4.46109 -11.06644,10.40589 -14.1582,13.21066 -4.95981,4.49944 -5.99059,6.26898 -8.75834,15.03561 -2.60394,8.24769 -2.91504,10.42304 -1.83093,12.80234 0.8946,1.96353 1.30601,13.75269 1.30601,37.42799 0,32.94271 0.13126,35.09146 2.79844,45.87194 1.76988,7.15316 4.01137,13.06999 6.09843,16.09783 3.34624,4.85471 12.70023,14.07238 18.87976,18.60462 1.86318,1.36656 5.68249,4.17137 8.48726,6.23286 7.15033,5.25555 12.23657,8.425 17.99448,11.21314 4.63032,2.24213 7.86728,2.98602 23.93565,5.50068 3.42808,0.53647 8.272701,1.73144 10.76586,2.65551 5.51928,2.04562 34.54805,2.54819 43.75863,0.75752 z"
     id="path735" /></svg>
