<?xml version="1.0" encoding="UTF-8" standalone="no"?>
<svg
   height="16.05px"
   width="10.35px"
   version="1.1"
   id="svg1428"
   sodipodi:docname="effect_poison.svg"
   inkscape:version="1.2.1 (9c6d41e410, 2022-07-14)"
   xml:space="preserve"
   xmlns:inkscape="http://www.inkscape.org/namespaces/inkscape"
   xmlns:sodipodi="http://sodipodi.sourceforge.net/DTD/sodipodi-0.dtd"
   xmlns="http://www.w3.org/2000/svg"
   xmlns:svg="http://www.w3.org/2000/svg"><defs
     id="defs1432" /><sodipodi:namedview
     id="namedview1430"
     pagecolor="#ffffff"
     bordercolor="#000000"
     borderopacity="0.25"
     inkscape:showpageshadow="2"
     inkscape:pageopacity="0.0"
     inkscape:pagecheckerboard="0"
     inkscape:deskcolor="#d1d1d1"
     showgrid="false"
     inkscape:zoom="45.246024"
     inkscape:cx="7.8128412"
     inkscape:cy="6.0999835"
     inkscape:window-width="3840"
     inkscape:window-height="2066"
     inkscape:window-x="-11"
     inkscape:window-y="-11"
     inkscape:window-maximized="1"
     inkscape:current-layer="svg1428" /><path
     style="fill:#ffffff;fill-rule:evenodd;stroke-width:0.0221014"
     d="m 4.8181026,6.7085778 c -0.07293,-0.028683 -0.177363,-0.06496 -0.232064,-0.080617 -0.15331,-0.04388 -0.264251,-0.122443 -0.302637,-0.2143134 -0.04258,-0.1018978 -0.02961,-0.3380228 0.02429,-0.4422438 0.04715,-0.091173 0.186457,-0.2471441 0.220743,-0.2471441 0.03464,0 0.151805,-0.1089853 0.203317,-0.1891255 0.02299,-0.035772 0.04989,-0.074986 0.05977,-0.087142 0.0099,-0.012156 0.07019,-0.1016664 0.134029,-0.1989125 0.336753,-0.5130158 0.448283,-0.642596 0.677153,-0.7867447 0.17478,-0.1100819 0.577232,-0.2078613 0.718295,-0.1745164 0.04862,0.011494 0.120073,0.021135 0.158778,0.021425 0.03871,2.9e-4 0.128216,0.024598 0.198913,0.054017 0.0707,0.029419 0.154179,0.059016 0.185515,0.065771 0.08001,0.017247 0.175089,0.1118398 0.175089,0.1742004 0,0.028851 -0.02514,0.076076 -0.05587,0.1049445 -0.05234,0.049169 -0.06317,0.050954 -0.171286,0.028234 -0.06348,-0.01334 -0.171965,-0.050144 -0.241081,-0.081788 -0.160242,-0.073363 -0.409501,-0.079736 -0.593477,-0.015174 -0.148136,0.051985 -0.16752,0.1051407 -0.05955,0.1632877 0.229098,0.1233776 0.459355,0.4511045 0.524805,0.7469592 0.04529,0.204739 -0.0078,0.5713431 -0.113276,0.7825973 -0.06058,0.121293 -0.152539,0.2074513 -0.301036,0.2820373 -0.09949,0.04997 -0.147482,0.064027 -0.430082,0.1259629 -0.05704,0.012502 -0.22612,0.022215 -0.375724,0.021583 -0.231895,-9.791e-4 -0.29156,-0.00884 -0.404614,-0.053299 z"
     id="path666" /><path
     style="fill:#ffffff;fill-rule:evenodd;stroke-width:0.0221014"
     d="m 1.9928106,14.422352 c -0.343584,-0.141272 -0.498749,-0.352828 -0.500345,-0.682185 -6.1e-4,-0.126105 0.05214,-0.335746 0.09044,-0.359415 0.0107,-0.0066 0.01945,-0.08186 0.01945,-0.167222 0,-0.115726 0.02024,-0.220797 0.07959,-0.413096 0.04378,-0.141842 0.08888,-0.297677 0.100233,-0.346301 0.02222,-0.09516 0.06109,-0.191344 0.133989,-0.33152 0.02529,-0.04862 0.115968,-0.227645 0.201519,-0.397825 0.08555,-0.170181 0.172486,-0.334284 0.193189,-0.364673 0.273261,-0.401098 0.469193,-0.747599 0.538267,-0.951912 0.04813,-0.142362 0.08485,-0.375475 0.09375,-0.5951865 l 0.0076,-0.1878614 -0.09391,-0.1197711 C 2.7998026,9.4329668 2.7364586,9.3777137 2.6963696,9.365634 2.5919596,9.3341738 2.5263586,9.3001363 2.4311526,9.2280263 2.3240906,9.1469357 2.2891116,9.1084472 2.1787766,8.9503288 2.1318426,8.8830683 2.0546176,8.7935576 2.0071656,8.7514163 1.9597136,8.7092747 1.8914866,8.6353179 1.8555506,8.5870677 1.8196146,8.5388175 1.7561966,8.4691981 1.7146206,8.432358 1.6173826,8.3461948 1.5239696,8.1991227 1.3682166,7.8869688 1.2993506,7.7489525 1.2051186,7.5713835 1.1588106,7.4923711 c -0.04631,-0.079013 -0.09087,-0.173496 -0.09902,-0.2099632 -0.0082,-0.036467 -0.02865,-0.1089208 -0.04555,-0.1610076 -0.03593,-0.1107445 -0.03926,-0.4333987 -0.0068,-0.6567439 0.01238,-0.08509 0.02721,-0.2293019 0.03298,-0.3204701 0.01065,-0.1685434 0.05507,-0.4105205 0.111024,-0.6048008 0.01703,-0.059136 0.03097,-0.128049 0.03097,-0.1531407 0,-0.025091 0.0096,-0.076164 0.02138,-0.1134942 0.01176,-0.03733 0.03821,-0.1275471 0.05878,-0.2004817 0.03699,-0.131162 0.150621,-0.3862193 0.181958,-0.408435 0.0089,-0.00632 0.06536,-0.076138 0.125426,-0.1551504 0.199633,-0.2625897 0.490751,-0.5333887 0.779781,-0.7253552 0.149722,-0.099441 0.277192,-0.1808018 0.283268,-0.1808018 0.0061,0 0.04271,-0.023496 0.0814,-0.052214 0.12833,-0.09524 0.400275,-0.2482197 0.512383,-0.2882355 0.06078,-0.021694 0.140343,-0.052591 0.176811,-0.068659 0.03647,-0.016068 0.125978,-0.049429 0.198912,-0.074136 0.07294,-0.024707 0.232065,-0.080026 0.353622,-0.1229308 0.121558,-0.042905 0.243183,-0.078225 0.270277,-0.078489 0.0271,-2.639e-4 0.121578,-0.0245 0.209963,-0.053858 0.282808,-0.093937 0.440015,-0.122243 0.801641,-0.1443393 0.194492,-0.011884 0.463024,-0.038626 0.596738,-0.059427 0.308725,-0.048026 1.218734,-0.054471 1.469742,-0.01041 0.161076,0.028275 0.205321,0.047081 0.906157,0.3851464 0.221441,0.1068175 0.396386,0.2699102 0.56138,0.5233479 0.05935,0.091168 0.132264,0.2023926 0.162025,0.2471652 0.190826,0.2870846 0.442688,0.8273348 0.508137,1.0899689 0.04718,0.1893302 0.05326,0.2526975 0.0424,0.4420278 -0.01429,0.2492373 -0.0571,0.5159565 -0.111737,0.6961937 -0.02027,0.066857 -0.04551,0.1513946 -0.0561,0.1878619 -0.04455,0.153461 -0.236865,0.7077141 -0.276069,0.79565 -0.01626,0.036467 -0.05149,0.1210051 -0.0783,0.1878618 -0.0472,0.1177208 -0.148451,0.3089916 -0.175489,0.3315208 -0.0073,0.00608 -0.05291,0.06947 -0.10137,0.140871 -0.115579,0.1703006 -0.306667,0.3410124 -0.552235,0.4933505 -0.109402,0.067867 -0.233722,0.1503928 -0.276268,0.18339 -0.04255,0.032997 -0.127083,0.087371 -0.187861,0.1208309 -0.185435,0.1020853 -0.736826,0.4777598 -0.807851,0.5504066 -0.03677,0.037609 -0.07275,0.091852 -0.07995,0.1205404 -0.02426,0.096665 0.0098,0.3139184 0.06752,0.4307638 0.03118,0.063104 0.07558,0.1644619 0.09868,0.225241 0.03252,0.08559 0.07127,0.133274 0.171832,0.2114915 0.07323,0.05696 0.148695,0.138862 0.173086,0.187862 0.06102,0.12258 0.05516,0.330136 -0.01498,0.531082 -0.0475,0.136085 -0.05128,0.166857 -0.02849,0.232065 0.09364,0.267912 0.106806,0.333733 0.116681,0.58351 0.01666,0.421486 -0.04239,0.497281 -0.387429,0.497281 -0.150078,0 -0.194499,-0.0094 -0.302784,-0.06401 l -0.126902,-0.06401 -0.05195,0.117463 c -0.0369,0.08343 -0.07948,0.13627 -0.146955,0.182373 -0.169577,0.11586 -0.259334,0.130522 -0.497343,0.08124 -0.06472,-0.0134 -0.07199,-0.0092 -0.08448,0.04848 -0.01937,0.08949 -0.07299,0.21013 -0.116765,0.262731 -0.08723,0.104807 -0.136272,0.120878 -0.368876,0.120878 -0.233632,0 -0.261992,-0.0092 -0.388882,-0.125808 l -0.05736,-0.05272 -0.01465,0.256473 c -0.0152,0.266212 -0.04539,0.365795 -0.123571,0.407635 -0.04771,0.02553 -0.518544,0.02756 -0.714613,0.0031 -0.179023,-0.02235 -0.217441,-0.06638 -0.23169,-0.265533 -0.01144,-0.159855 -0.02034,-0.177125 -0.06716,-0.130299 -0.03468,0.03468 -0.03534,0.401928 -8.4e-4,0.466399 0.03659,0.06837 0.03494,0.286005 -0.0027,0.356349 -0.0193,0.03606 -0.12616,0.116236 -0.272236,0.204249 -0.238192,0.143514 -0.24177,0.1448 -0.378557,0.13609 -0.112338,-0.0072 -0.155911,-0.0219 -0.233646,-0.07906 -0.105236,-0.07739 -0.133098,-0.07541 -0.133098,0.0094 0,0.173897 -0.165991,0.431071 -0.333333,0.516443 -0.110126,0.05618 -0.179623,0.05396 -0.337074,-0.01078 z M 2.2281246,14.0332 c 0.04656,-0.05438 0.09084,-0.263509 0.06191,-0.292435 -0.02784,-0.02784 -0.345665,0.0048 -0.394069,0.04041 -0.03786,0.02789 -0.03785,0.03206 1.73e-4,0.103275 0.0394,0.0738 0.194886,0.189153 0.25936,0.19242 0.01857,9.42e-4 0.05125,-0.01871 0.07263,-0.04367 z m 0.988955,-0.51232 0.109179,-0.07148 v -0.226893 c 0,-0.124791 -0.0087,-0.226893 -0.01929,-0.226893 -0.01061,0 -0.04849,0.03418 -0.08417,0.07596 -0.03569,0.04178 -0.121489,0.122561 -0.190674,0.179518 -0.141394,0.116404 -0.159805,0.181549 -0.07998,0.283025 0.06114,0.07772 0.131348,0.07422 0.26494,-0.01324 z m -0.984993,-0.151829 c 0.0512,-0.02557 0.151747,-0.09069 0.223435,-0.144698 0.07169,-0.05401 0.178072,-0.122437 0.236409,-0.152053 0.111027,-0.05637 0.293173,-0.231699 0.435545,-0.419254 0.148884,-0.196135 0.355259,-0.379744 0.469452,-0.417666 0.0577,-0.01916 0.170605,-0.07475 0.2509,-0.123531 0.0803,-0.04878 0.149985,-0.08869 0.154867,-0.08869 0.0049,0 0.102184,-0.04448 0.216226,-0.09885 0.114043,-0.05437 0.280594,-0.123633 0.370114,-0.153919 0.08952,-0.03028 0.222438,-0.07601 0.295372,-0.101607 0.07293,-0.0256 0.271848,-0.08116 0.442028,-0.12348 0.170181,-0.04232 0.329311,-0.08583 0.353622,-0.0967 0.158288,-0.07077 0.253421,-0.110582 0.264241,-0.110582 0.02228,0 0.629521,-0.382621 0.822592,-0.518312 0.02644,-0.01858 0.07047,-0.07864 0.09785,-0.133459 0.02738,-0.05482 0.05699,-0.09968 0.0658,-0.09968 0.02818,0 0.06455,-0.135968 0.0509,-0.19033 -0.0072,-0.02886 -0.06168,-0.08809 -0.120976,-0.131618 -0.132677,-0.0974 -0.179564,-0.162584 -0.229446,-0.3189965 -0.02132,-0.066857 -0.05113,-0.141449 -0.06623,-0.1657606 -0.01511,-0.024312 -0.05376,-0.1204656 -0.0859,-0.2136756 -0.07837,-0.2272675 -0.07909,-0.4124595 -0.0023,-0.5861185 0.07298,-0.1650291 0.09103,-0.1836146 0.352727,-0.3632482 0.121557,-0.08344 0.290633,-0.1998669 0.375723,-0.2587269 0.08509,-0.05886 0.211795,-0.1380959 0.281565,-0.17608 0.06977,-0.037984 0.169227,-0.099833 0.221014,-0.1374421 0.05179,-0.037609 0.185304,-0.127962 0.296703,-0.2007836 0.168268,-0.1099973 0.322509,-0.2493141 0.401297,-0.3624696 0.0085,-0.012156 0.04777,-0.063493 0.08734,-0.114083 0.03957,-0.05059 0.08733,-0.1301549 0.10613,-0.1768111 0.0188,-0.046656 0.05847,-0.1373803 0.08816,-0.2016091 0.07056,-0.1526603 0.328814,-0.9138228 0.391553,-1.1540504 0.04119,-0.1577166 0.04902,-0.246379 0.04879,-0.5525347 -2.7e-4,-0.3628882 -6.08e-4,-0.365376 -0.06939,-0.508332 -0.03802,-0.079012 -0.104441,-0.2182512 -0.14761,-0.3094194 -0.09449,-0.1995443 -0.223461,-0.42799 -0.294408,-0.5214688 -0.02855,-0.037615 -0.05191,-0.07544 -0.05191,-0.084057 0,-0.030182 -0.236925,-0.3356959 -0.304288,-0.3923785 -0.106294,-0.08944 -0.784425,-0.414038 -0.938508,-0.4492313 -0.0762,-0.017404 -0.21157,-0.048476 -0.300827,-0.069048 -0.172613,-0.039785 -0.572495,-0.034696 -0.854378,0.010873 -0.293928,0.047517 -0.658253,0.090214 -0.972461,0.1139682 -0.315869,0.02388 -0.462279,0.05356 -0.939309,0.1904172 -0.182979,0.052496 -0.500193,0.1616855 -0.674093,0.2320325 -0.08509,0.034421 -0.163096,0.062618 -0.173347,0.06266 -0.03821,1.547e-4 -0.381237,0.1826888 -0.434441,0.231178 -0.03039,0.027696 -0.104981,0.078363 -0.16576,0.1125914 -0.404979,0.2280722 -0.734145,0.5088281 -0.9921,0.8461939 -0.147662,0.1931185 -0.168501,0.2346348 -0.236669,0.4714954 -0.07964,0.2767101 -0.07118,0.295651 0.118662,0.2658804 0.164585,-0.02581 0.339542,1.768e-4 0.494391,0.073432 0.06956,0.032905 0.156983,0.071419 0.19428,0.085585 0.116624,0.044295 0.213419,0.1084784 0.357982,0.2373724 0.07684,0.068511 0.182224,0.1465495 0.234189,0.1734201 0.181707,0.093959 0.239051,0.1801219 0.241229,0.3624615 0.0023,0.1890894 -0.110467,0.3331863 -0.41296,0.5278867 -0.177164,0.1140325 -0.394593,0.1932897 -0.686812,0.2503577 -0.256794,0.05015 -0.388541,0.026003 -0.571002,-0.1046548 -0.07596,-0.054392 -0.138267,-0.083996 -0.159579,-0.075818 -0.05468,0.020984 -0.02434,0.1646805 0.06391,0.3026392 0.04181,0.065367 0.138759,0.2450343 0.215435,0.3992611 0.143893,0.2894301 0.218324,0.3883345 0.614133,0.8160589 0.100285,0.1083715 0.182336,0.2060913 0.182336,0.2171552 0,0.071288 0.261071,0.2887244 0.346666,0.2887244 0.02899,0 0.07972,0.01698 0.112716,0.037732 0.10295,0.064741 0.424674,0.4024188 0.424674,0.4457331 0,0.022665 -0.01989,0.1034747 -0.0442,0.1795764 -0.0248,0.077632 -0.0442,0.1992237 -0.0442,0.2770097 0,0.2034593 -0.0752,0.5432683 -0.157815,0.7130943 -0.08783,0.180556 -0.252596,0.46354 -0.407949,0.700653 -0.158482,0.241888 -0.223242,0.380157 -0.192466,0.410934 0.01745,0.01745 0.03664,0.01745 0.06926,-1.1e-5 0.125408,-0.06712 0.223525,0.0013 0.241395,0.168341 0.01479,0.138225 0.03648,0.164774 0.11224,0.137377 0.144128,-0.05212 0.221535,-0.130957 0.558629,-0.568963 0.0438,-0.05691 0.16812,-0.193026 0.276267,-0.302477 0.217229,-0.219847 0.35542,-0.305191 0.63866,-0.394424 0.09725,-0.03064 0.256376,-0.08147 0.353622,-0.112957 0.273771,-0.08865 0.601197,-0.179685 0.79565,-0.221216 0.09725,-0.02077 0.199657,-0.04682 0.227579,-0.05789 0.132512,-0.05253 0.253126,0.0063 0.253126,0.123533 0,0.0817 -0.06235,0.138919 -0.191224,0.175507 -0.169004,0.04798 -0.341523,0.09222 -0.477343,0.12242 -0.06686,0.01486 -0.254859,0.07077 -0.417784,0.124241 -0.162925,0.05347 -0.309364,0.09722 -0.32542,0.09722 -0.06725,0 -0.373292,0.139656 -0.481967,0.219938 -0.182353,0.134712 -0.29851,0.265195 -0.662934,0.744694 -0.193957,0.255202 -0.369981,0.362474 -0.620402,0.378081 -0.186364,0.01162 -0.261475,-0.01407 -0.321641,-0.11001 -0.03832,-0.06111 -0.04435,-0.101564 -0.03869,-0.259751 0.0089,-0.248249 -0.02951,-0.262505 -0.137092,-0.0509 -0.04191,0.08243 -0.08789,0.162041 -0.10218,0.176921 -0.02914,0.03033 -0.130886,0.290949 -0.153383,0.392872 -0.008,0.03647 -0.03369,0.125978 -0.05699,0.198912 -0.0612,0.191608 -0.107237,0.40028 -0.107237,0.486024 0,0.144509 0.123252,0.184753 0.298215,0.09737 z m 2.20721,-0.539129 c 0.01892,-0.0493 -0.01179,-0.607853 -0.03342,-0.607853 -0.03193,0 -0.31508,0.13715 -0.355793,0.172336 -0.04724,0.04083 -0.04865,0.0843 -0.0054,0.167237 0.01816,0.03482 0.03317,0.09946 0.03335,0.143659 4.84e-4,0.114952 0.01911,0.131943 0.154854,0.141239 0.06659,0.0046 0.137416,0.01013 0.157388,0.01238 0.01997,0.0022 0.04203,-0.0108 0.04901,-0.029 z m 0.9184,-0.492056 c 0.05317,-0.05317 0.06274,-0.0837 0.07443,-0.23759 0.0074,-0.09712 0.0056,-0.184488 -0.004,-0.194159 -0.01843,-0.01855 -0.261885,0.02682 -0.410761,0.07656 -0.05002,0.01671 -0.09127,0.04587 -0.09543,0.06746 -0.01231,0.06393 0.278469,0.348313 0.356515,0.348665 0.01005,4.5e-5 0.04573,-0.02737 0.07929,-0.06093 z m 0.756896,-0.430742 c 0.03833,-0.03105 0.112177,-0.275952 0.08776,-0.291044 -0.0087,-0.0054 -0.04518,0.0032 -0.08116,0.01894 -0.03598,0.01577 -0.107679,0.04642 -0.159341,0.0681 -0.113484,0.04764 -0.120501,0.09483 -0.02593,0.17441 0.07489,0.06302 0.126792,0.07161 0.178674,0.02959 z m 0.882305,-0.259691 c 0.06427,0 -0.02298,-0.426064 -0.09557,-0.466688 -0.02107,-0.01179 -0.06692,0.0063 -0.134639,0.05312 -0.09801,0.06777 -0.129226,0.129612 -0.0806,0.159665 0.01239,0.0077 0.0476,0.06342 0.07826,0.123909 0.05419,0.106928 0.122833,0.159372 0.182822,0.139666 0.01619,-0.0053 0.03857,-0.0097 0.04973,-0.0097 z"
     id="path668" /><path
     style="fill:#ffffff;fill-rule:evenodd;stroke-width:0.0221014"
     d="m 3.4283326,8.5679862 c -0.111567,-0.1173713 -0.331585,-0.458859 -0.380991,-0.5913316 -0.02026,-0.054326 -0.03693,-0.1660239 -0.03764,-0.252219 -0.0011,-0.1390558 0.008,-0.1729846 0.0906,-0.3353226 0.10163,-0.1998002 0.123716,-0.2148594 0.308551,-0.210389 0.126997,0.00307 0.233307,0.047035 0.262105,0.1083918 0.01019,0.021722 0.01948,0.2085705 0.02064,0.4152185 0.0013,0.2336554 0.01194,0.3990131 0.02811,0.4373168 0.0143,0.033876 0.02859,0.1446339 0.03176,0.246128 0.0068,0.2188103 -0.02621,0.2779656 -0.155281,0.2779656 -0.06189,0 -0.09455,-0.018632 -0.167861,-0.095759 z"
     id="path670" /><path
     style="fill:#ffffff;fill-rule:evenodd;stroke-width:0.0221014"
     d="M 4.5029046,8.4722118 C 4.4466756,8.4495588 4.4222616,8.3599448 4.4075636,8.1222607 4.3963486,7.9408929 4.3798836,7.8514169 4.3427366,7.7699714 4.3000846,7.6764552 4.2948816,7.6378678 4.3064576,7.5009185 4.3185146,7.3582896 4.3311696,7.324165 4.4237526,7.1846407 l 0.103781,-0.1563988 h 0.105838 c 0.126569,0 0.225579,0.073901 0.301649,0.225151 0.112061,0.2228135 0.104856,0.3850942 -0.02769,0.6237341 -0.08486,0.1527803 -0.16658,0.3733348 -0.16658,0.4495831 0,0.089336 -0.06311,0.160432 -0.140676,0.1584786 -0.03811,-9.596e-4 -0.08183,-0.0068 -0.09717,-0.012977 z"
     id="path672" /></svg>
