<?xml version="1.0" encoding="UTF-8" standalone="no"?>
<svg
   height="512"
   width="512"
   version="1.1"
   id="svg33"
   sodipodi:docname="food.svg"
   inkscape:version="1.2.1 (9c6d41e410, 2022-07-14)"
   inkscape:export-filename="food.png"
   inkscape:export-xdpi="96"
   inkscape:export-ydpi="96"
   xmlns:inkscape="http://www.inkscape.org/namespaces/inkscape"
   xmlns:sodipodi="http://sodipodi.sourceforge.net/DTD/sodipodi-0.dtd"
   xmlns:xlink="http://www.w3.org/1999/xlink"
   xmlns="http://www.w3.org/2000/svg"
   xmlns:svg="http://www.w3.org/2000/svg">
  <sodipodi:namedview
     id="namedview35"
     pagecolor="#ffffff"
     bordercolor="#000000"
     borderopacity="0.25"
     inkscape:showpageshadow="2"
     inkscape:pageopacity="0.0"
     inkscape:pagecheckerboard="true"
     inkscape:deskcolor="#d1d1d1"
     showgrid="false"
     inkscape:zoom="2.1386719"
     inkscape:cx="200.59178"
     inkscape:cy="256.46758"
     inkscape:window-width="2560"
     inkscape:window-height="1351"
     inkscape:window-x="2391"
     inkscape:window-y="-9"
     inkscape:window-maximized="1"
     inkscape:current-layer="svg33" />
  <defs
     id="defs31">
    <g
       id="shape0">
      <path
         d="M 100,100 H 0 V 0 h 100 v 100"
         fill="#00cc66"
         fill-opacity="0"
         fill-rule="evenodd"
         stroke="none"
         id="path8" />
      <path
         d="M 84.3,84.3 V 15.7 H 15.7 v 68.6 h 68.6 m 7.95,7.95 H 7.75 V 7.75 h 84.5 v 84.5"
         fill="#666666"
         fill-opacity="0"
         fill-rule="evenodd"
         stroke="none"
         id="path10" />
      <path
         d="M 84.3,84.3 H 15.7 V 15.7 H 84.3 V 84.3 M 76.4,76.4 V 23.55 H 23.55 V 76.4 H 76.4"
         fill="#999999"
         fill-opacity="0"
         fill-rule="evenodd"
         stroke="none"
         id="path12" />
      <path
         d="M 92.25,92.25 V 7.75 H 7.75 v 84.5 h 84.5 m 3.8,3.8 H 3.95 V 3.95 h 92.1 v 92.1"
         fill="#333333"
         fill-opacity="0"
         fill-rule="evenodd"
         stroke="none"
         id="path14" />
      <path
         d="M 68.85,68.85 V 31.1 H 31.1 V 68.85 H 68.85 M 76.4,76.4 H 23.55 V 23.55 H 76.4 V 76.4"
         fill="#cccccc"
         fill-opacity="0"
         fill-rule="evenodd"
         stroke="none"
         id="path16" />
      <path
         d="M 68.85,68.85 H 31.1 V 31.1 h 37.75 v 37.75"
         fill="#ffffff"
         fill-opacity="0"
         fill-rule="evenodd"
         stroke="none"
         id="path18" />
      <path
         d="M 96.05,96.05 V 3.95 H 3.95 v 92.1 h 92.1 M 100,100 H 0 V 0 h 100 v 100"
         fill="#000000"
         fill-opacity="0"
         fill-rule="evenodd"
         stroke="none"
         id="path20" />
      <path
         d="M 0,50 H 50 L 0,0 M 50,50 V 0 m 0,100 V 50 L 0,100 M 100,50 H 50 l 50,50 M 50,50 100,0"
         fill="none"
         stroke="#000000"
         stroke-linecap="round"
         stroke-linejoin="round"
         stroke-opacity="0"
         stroke-width="0.05"
         id="path22" />
    </g>
    <g
       id="sprite0"
       transform="translate(4.75,-20.65)">
      <use
         height="480.64999"
         transform="translate(-4.75,20.65)"
         width="412.29999"
         xlink:href="#shape1"
         id="use25" />
    </g>
    <g
       id="shape1"
       transform="translate(4.75,-20.65)">
      <path
         d="M 398.55,356.6 Q 373.3,453.25 323.95,487.35 274.5,521.8 201.5,471.1 128.3,521.8 78.85,487.35 29.5,453.25 4.15,356.6 -20.9,260.05 24.5,192.3 q 42,-62.9 158.35,-30.2 l 10.5,2.95 8.15,2.6 q 10.35,-3.4 20.25,-6.1 114.9,-31.8 156.65,30.75 45.3,67.75 20.15,164.3 M 294.85,56.2 q -42.85,37 -66.1,82.95 l -5.25,1.5 q -10.9,3 -22,6.65 l -5.5,-1.65 q 1.85,-8.55 4.2,-16.6 2.75,-9.8 6,-19.05 18.4,-53.05 51.75,-89.35 27.4,8.9 36.9,35.55 m -108.55,68.7 -0.75,2.5 Q 76.6,108.2 67.35,35.1 q 90.25,0 128.2,61.95 -1.7,4.25 -3.25,8.75 -3.25,9.25 -6,19.1"
         fill="#ffffff"
         fill-rule="evenodd"
         stroke="none"
         id="path28" />
    </g>
  </defs>
  <g
     inkscape:groupmode="layer"
     id="layer1"
     inkscape:label="Layer 1">
    <path
       d="M 398.55,356.6 Q 373.3,453.25 323.95,487.35 274.5,521.8 201.5,471.1 128.3,521.8 78.85,487.35 29.5,453.25 4.15,356.6 -20.9,260.05 24.5,192.3 q 42,-62.9 158.35,-30.2 l 10.5,2.95 8.15,2.6 q 10.35,-3.4 20.25,-6.1 114.9,-31.8 156.65,30.75 45.3,67.75 20.15,164.3 M 294.85,56.2 q -42.85,37 -66.1,82.95 l -5.25,1.5 q -10.9,3 -22,6.65 l -5.5,-1.65 q 1.85,-8.55 4.2,-16.6 2.75,-9.8 6,-19.05 18.4,-53.05 51.75,-89.35 27.4,8.9 36.9,35.55 m -108.55,68.7 -0.75,2.5 Q 76.6,108.2 67.35,35.1 q 90.25,0 128.2,61.95 -1.7,4.25 -3.25,8.75 -3.25,9.25 -6,19.1"
       fill="#ffffff"
       fill-rule="evenodd"
       stroke="none"
       id="path253"
       transform="matrix(0.97871064,0,0,0.97991005,58.298451,0.12947526)" />
  </g>
</svg>
