<?xml version="1.0" encoding="UTF-8" standalone="no"?>
<!-- Created with Inkscape (http://www.inkscape.org/) -->

<svg
   width="75"
   height="100"
   viewBox="0 0 75 100"
   version="1.1"
   id="svg5"
   inkscape:version="1.2.1 (9c6d41e410, 2022-07-14)"
   sodipodi:docname="frame_equipment_pouch.svg"
   xml:space="preserve"
   xmlns:inkscape="http://www.inkscape.org/namespaces/inkscape"
   xmlns:sodipodi="http://sodipodi.sourceforge.net/DTD/sodipodi-0.dtd"
   xmlns="http://www.w3.org/2000/svg"
   xmlns:svg="http://www.w3.org/2000/svg"><sodipodi:namedview
     id="namedview7"
     pagecolor="#ffffff"
     bordercolor="#999999"
     borderopacity="1"
     inkscape:pageshadow="0"
     inkscape:pageopacity="0"
     inkscape:pagecheckerboard="0"
     inkscape:document-units="px"
     showgrid="false"
     height="70mm"
     units="px"
     inkscape:zoom="11.844781"
     inkscape:cx="24.019017"
     inkscape:cy="62.305921"
     inkscape:window-width="3840"
     inkscape:window-height="2066"
     inkscape:window-x="-11"
     inkscape:window-y="-11"
     inkscape:window-maximized="1"
     inkscape:current-layer="layer1"
     inkscape:showpageshadow="2"
     inkscape:deskcolor="#d1d1d1" /><defs
     id="defs2" /><g
     inkscape:label="Layer 1"
     inkscape:groupmode="layer"
     id="layer1"><g
       id="g623"
       transform="matrix(0.23357596,0,0,0.21250892,-6.852356,-8.3757101)"><path
         d="M 30,40 V 510 H 350 V 40 H 30 m 205.45,14.1 h 1.3 1.25 l -0.65,0.55 -0.6,0.55 -0.65,-0.55 -0.65,-0.55 m -45.2,0.8 1.2,0.05 h 1.25 l 2.4,1.1 2.35,1.05 -1.55,0.55 -1.65,0.5 -1.7,-0.25 -1.7,-0.3 -0.3,-1.3 -0.3,-1.4 m 42.1,10.95 h 1.1 1.05 l 1.7,1.5 1.7,1.6 3.45,0.95 3.4,1 h 1.8 1.8 l 1.05,1.45 1.05,1.45 -2.6,1.65 -2.55,1.7 0.75,2.75 0.8,2.75 0.65,1.7 0.65,1.6 -1.2,1.1 -1.25,1.05 -1.7,2.15 -1.65,2.1 h -1.7 -1.7 l -1.85,-1.7 -1.95,-1.75 -1.55,-2.1 -1.6,-2.15 -3.1,0.9 -3.05,0.9 -4.2,2.1 -4.15,2.15 -1.3,-0.45 -1.3,-0.4 0.55,-1.4 0.55,-1.4 -0.95,-0.45 -0.85,-0.45 v -3.5 -3.55 h 2.65 2.75 l 2.15,-2.2 2.2,-2.3 2.65,-1.35 2.65,-1.4 -0.55,-1.2 -0.55,-1.1 2.1,-1.9 2.1,-1.8 m 8.5,28.2 0.75,0.35 0.8,0.45 v 0.7 0.75 h -0.8 -0.75 v -1.1 -1.15 m 6.9,7 3.45,1.35 3.4,1.3 -0.5,1.45 -0.5,1.35 1.15,1.15 1.1,1.15 -0.6,1.9 -0.55,2 h 1.85 1.8 l 0.65,1.6 0.6,1.65 -0.35,0.1 -0.3,0.2 -1.9,0.8 -1.9,0.9 -0.1,2.65 -0.1,2.65 -0.6,1.2 -0.55,1.15 -0.25,2.75 -0.3,2.7 -1.75,0.3 -1.75,0.2 -2.05,-1.6 -2.1,-1.6 -1.1,0.95 -1.15,0.9 -2,-1.6 -2,-1.7 1.15,-2.8 1.15,-2.9 2.25,-0.85 2.2,-0.85 0.85,-3.2 0.85,-3.2 -1.7,-1.5 -1.65,-1.5 -1.7,0.6 -1.75,0.55 2.35,1.45 2.35,1.5 -1.6,1.3 -1.65,1.4 -1.4,-1.05 -1.4,-0.95 -2.4,-3.4 -2.4,-3.35 v -1.95 -1.9 l 1.35,-0.95 1.35,-0.9 1,0.45 1.05,0.5 v 1.4 1.35 l 1.05,0.9 1.15,0.95 h 0.65 0.65 l 1.5,-3.05 1.5,-3.05 0.85,-0.4 0.8,-0.45 m 28.75,16.3 h 1.3 1.2 l 1.55,1.45 1.55,1.45 -1.1,0.9 -1.15,0.9 -1,0.05 h -0.95 l -2.1,1.45 -2.05,1.45 -0.3,1.4 -0.3,1.5 -1.7,1.05 -1.7,1.05 -0.8,-0.3 -0.85,-0.2 1.85,-2.95 1.85,-2.9 h 1.35 1.4 v -1.6 -1.6 l 1,-1.6 0.95,-1.5 m -17.65,2.35 h 1.1 1.15 l 1,1 0.9,1 -0.5,2.15 -0.45,2.15 h -1.8 -1.8 l -0.95,-2.05 -0.9,-1.95 v -0.2 -0.2 l 1.15,-0.95 1.1,-0.95 m -29.6,0.65 1.45,1.05 1.45,1 0.9,1.9 0.85,1.9 -0.35,0.3 -0.4,0.35 -2.95,-2.1 -2.95,-2.05 v -0.65 -0.65 l 1,-0.5 1,-0.55 m 108.8,1.7 h 0.95 0.95 l -0.4,0.95 -0.35,0.95 -2.95,0.55 -2.9,0.5 -1.25,-0.7 -1.25,-0.65 h 3 3 l 0.6,-0.85 0.6,-0.75 m -121.2,3.15 h 0.5 0.45 v 0.4 0.4 h -0.45 -0.5 v -0.4 -0.4 m 47.2,26.7 0.55,0.5 0.5,0.4 v 1.25 1.3 l -1.2,1.35 -1.2,1.35 -4,-0.5 -4,-0.55 v -0.9 -0.9 l 4.65,-1.65 4.7,-1.65 m -115.5,13 2.15,0.25 2.25,0.25 0.7,2.75 0.7,2.75 -0.35,0.95 -0.45,0.95 h -2.8 -2.7 l -0.6,-1.2 -0.55,-1.25 v -1.65 -1.75 l 0.8,-1.05 0.85,-1 m 147.65,14.15 h 0.9 1 l 0.55,0.8 0.6,0.75 h -0.95 -0.95 l -0.55,-0.75 -0.6,-0.8 m -29.35,0.6 1.25,0.35 1.25,0.35 0.3,1.4 0.35,1.4 -1.25,-0.3 -1.25,-0.4 -0.35,-1.35 -0.3,-1.45 m -44.45,4.9 0.65,0.85 0.6,0.85 -0.9,0.8 -0.95,0.75 -1.9,-0.25 -1.9,-0.3 2.2,-1.35 2.2,-1.35 m 50.7,7.1 1.4,1.05 1.5,1.05 2.1,0.55 2.15,0.5 v 1.45 1.45 l -1,0.55 -1.05,0.55 -2.15,-0.5 -2.25,-0.5 -0.35,-3.05 -0.35,-3.1 m -17.3,2.1 1.4,1.15 1.35,1.05 0.3,4.5 0.35,4.5 -3.65,1.9 -3.65,1.9 h -0.5 -0.5 l 0.05,-0.55 0.05,-0.6 1.6,-1.95 1.6,-1.85 -0.1,-4.55 -0.2,-4.55 1,-0.5 0.9,-0.45 m -141.1,13.4 h 0.5 0.5 v 0.45 0.35 h -0.5 -0.5 v -0.35 -0.45 m -6.45,0.8 0.9,0.5 0.85,0.4 v 1.15 1.05 h -1.4 -1.4 l 0.05,-0.5 0.05,-0.6 0.5,-1 0.45,-1 m 169.45,0 h 1.6 1.65 l 0.95,1 1,1 0.35,2.2 0.3,2.2 -2.05,1.15 -2.1,1.2 -0.85,-1.45 -0.9,-1.45 -0.55,-2.45 -0.6,-2.45 0.6,-0.45 0.6,-0.5 m -17.05,0.8 h 1.25 1.35 v 2 2 l -1.7,-0.25 -1.65,-0.25 -0.25,-1.2 -0.3,-1.2 0.65,-0.5 0.65,-0.6 m -139.3,1.3 0.65,0.55 0.7,0.6 -1.25,1.55 -1.2,1.6 0.55,0.45 0.5,0.4 0.55,-1.2 0.55,-1.2 1.6,0.35 1.6,0.35 1.7,2.4 1.7,2.4 -1.1,1.1 -1.1,1.1 h -3 -3.05 l -0.85,-0.75 -0.9,-0.7 -2.4,-0.25 -2.35,-0.3 -0.3,-2.45 -0.3,-2.45 2.2,-0.55 2.15,-0.6 1.7,-1.2 1.65,-1.2 m 121.25,4.2 v 0 h 2.7 2.65 l 0.6,0.85 0.7,0.75 2,0.65 2,0.6 2.2,-1.2 2.15,-1.1 0.95,0.7 0.9,0.8 0.4,1.65 0.45,1.75 0.55,0.8 0.6,0.75 2.05,0.05 2.05,0.05 -1.4,0.45 -1.4,0.4 -1.65,1.7 -1.7,1.6 -0.8,-1.05 -0.85,-1.05 -3.35,-0.3 -3.35,-0.25 -0.6,2.3 -0.6,2.3 1.7,1.95 1.7,1.95 2.55,0.9 2.55,0.85 0.5,1.15 0.55,1.2 -0.55,0.75 -0.45,0.65 h -1.8 -1.8 l -0.95,-1.35 -0.9,-1.35 h -2.7 -2.65 l 0.1,-3.3 0.05,-3.3 -4.75,-0.25 -4.7,-0.25 -0.35,-2.25 -0.4,-2.3 -0.85,-1.35 -0.95,-1.4 v -1.05 -1.1 l 0.65,-0.55 0.6,-0.45 h 2.25 2.25 l 0.55,-1.2 0.55,-1.15 m 20.65,0.75 h 0.4 0.5 v 0.4 0.4 h -0.5 -0.4 v -0.4 -0.4 m 4.45,0.4 0.55,1.2 0.55,1.1 0.25,1.6 0.3,1.5 -1.65,0.3 -1.65,0.3 0.05,-1.1 0.15,-1 0.7,-1.95 0.75,-1.95 m -14.9,4.3 v 0.65 0.75 l 1.55,0.45 1.6,0.5 0.4,-0.35 0.45,-0.3 -0.65,-0.85 -0.6,-0.85 h -1.35 -1.4 m -26.8,1.55 h 1.25 1.25 l -0.6,0.5 -0.65,0.55 -0.65,-0.55 -0.6,-0.5 m -53.6,6.25 h 1.3 1.35 l 0.55,1.25 0.6,1.2 -0.55,0.7 -0.45,0.7 -1.4,-0.45 -1.4,-0.45 V 229 227.5 m 99.4,0 h 0.9 0.9 v 3 3 l -3.65,0.9 -3.65,0.9 h -0.6 -0.6 v -0.8 -0.8 l 2.9,-0.45 2.9,-0.5 -0.4,-1.35 -0.4,-1.35 0.85,-1.3 0.85,-1.25 M 157.3,236 v 0.8 0.75 l -0.95,0.5 -0.95,0.45 v -0.75 -0.8 l 0.95,-0.45 0.95,-0.5 m 106.9,1.55 0.95,0.5 0.9,0.45 v 1.8 1.8 l 1.55,1.1 1.5,1 2.75,-0.2 2.7,-0.2 v 0.85 0.9 l 1.65,-0.25 1.7,-0.2 0.2,0.55 0.2,0.6 v 0.7 0.75 l -2.55,0.25 -2.6,0.2 -0.35,1.9 -0.3,1.85 1.25,0.65 1.3,0.65 0.6,0.05 h 0.6 l 0.5,-1.55 0.5,-1.55 h 1.35 1.35 l 1.7,1.55 1.7,1.55 h 1.15 1.1 l 2.55,-1.6 2.5,-1.6 0.9,0.45 1,0.5 v 1.35 1.4 l -1.15,0.9 -1.15,0.95 h 1.6 1.6 v 1.15 1.15 l -1.05,0.5 -1.1,0.55 -1.05,-1.15 -1.05,-1.15 -2.9,-0.5 -3,-0.5 -1.75,1.1 -1.7,1 1.25,1.25 1.25,1.3 h 2 l 2.05,0.05 1.4,0.75 1.4,0.8 -2.2,1.55 -2.25,1.5 h -1.8 -1.8 v 1.8 1.75 l -1.85,0.95 -1.85,0.95 -1.3,-2.1 -1.35,-2.1 -1.5,2.4 -1.5,2.4 -1.25,0.45 -1.25,0.4 -3.3,-0.3 -3.25,-0.3 -1.7,-1.7 -1.7,-1.7 0.35,-0.85 0.35,-0.85 1.5,-0.25 1.4,-0.2 1.5,1.2 1.4,1.1 0.5,-1.5 0.5,-1.55 1.45,-0.4 1.45,-0.5 1.55,1.25 1.5,1.2 2.05,-0.8 2.05,-0.9 0.4,-0.3 0.35,-0.25 -2.7,-0.9 -2.8,-0.95 -1.15,0.15 -1.2,0.15 v -1.2 -1.2 h 1.95 1.85 v -0.85 -0.85 l 2.6,0.25 2.55,0.3 0.35,-1.4 0.3,-1.35 -1.4,-1.2 -1.4,-1.15 -0.55,1.45 -0.6,1.5 -4.9,0.75 -5,0.85 -0.35,-0.35 -0.45,-0.3 2.15,-1.7 2.15,-1.6 -0.8,-0.6 -0.75,-0.65 -1.85,-0.25 -1.9,-0.3 -1,1.7 -1.05,1.65 -2.3,-2.8 -2.25,-2.9 0.2,-0.65 0.25,-0.65 -1.65,-1.05 -1.7,-1 2.8,-0.9 2.85,-0.85 1.05,-0.3 1.05,-0.3 1.1,-3.6 1.1,-3.65 m -0.85,9.85 -0.05,1.5 -0.05,1.5 0.5,-0.5 0.6,-0.45 -0.5,-1.05 -0.5,-1 m 33.05,12.05 0.9,0.45 0.9,0.5 -0.95,1.45 -0.95,1.5 1.1,3.4 1.1,3.35 -1.6,2.05 -1.65,2.05 -4.3,0.95 -4.35,1 -1.3,-1.4 -1.3,-1.45 v -2.6 -2.5 l 0.7,-0.35 0.7,-0.4 3.1,-0.5 3.05,-0.55 v -1.85 -1.95 h 1.45 1.35 l 1,-1.55 1.05,-1.6 m -105.95,1.5 1.35,0.4 1.4,0.45 v 1.9 1.85 l 2.15,1.2 2.1,1.2 -0.7,0.6 -0.7,0.6 -2.2,-1.7 -2.15,-1.7 h -1.9 -2 l 0.15,4.65 0.05,4.65 1.65,0.35 1.65,0.35 v 1.3 1.35 l -2.4,1.6 -2.45,1.55 1.05,0.85 0.95,0.85 v 2.1 2.15 l 1.2,0.4 1.2,0.45 -5.7,-0.15 -5.75,-0.1 -4.45,2.3 -4.35,2.3 -0.6,1.35 -0.55,1.35 0.6,0.85 0.6,0.8 3.3,-0.5 3.2,-0.55 v 1.35 1.25 l -1.3,1.75 -1.25,1.7 0.6,8.25 0.6,8.2 -1.1,3.9 -1.15,3.9 -1.55,2.85 -1.45,2.95 v 2 1.95 h -0.85 -0.85 l -0.6,2.4 -0.55,2.4 -1.9,2 -1.9,2 v 1.75 1.75 l -1.35,2.7 -1.35,2.7 1.5,2.8 1.55,2.85 2.2,0.45 2.25,0.45 1.7,1.4 1.65,1.4 0.7,1.35 0.6,1.35 1.2,-0.15 1.15,-0.1 1.15,0.05 1.15,0.15 -1.6,2.3 -1.6,2.35 h -1.25 -1.2 l -1,-2.15 -0.95,-2.1 -1,-0.55 -1,-0.45 -1.75,0.35 -1.8,0.4 v 3.5 3.5 L 163.4,371.95 162,371 v -1.8 -1.85 l -1.05,-0.5 -1.05,-0.5 -1.3,1.05 -1.3,1.1 -1.75,4 -1.65,4 -1.2,1.2 -1.3,1.2 -0.5,3.4 -0.5,3.35 -1.65,1.7 -1.65,1.75 -0.65,4.4 -0.7,4.3 -1.1,-0.3 -1.05,-0.3 -0.2,-1.05 -0.1,-1.15 -0.1,-0.95 -0.1,-1 h -1.05 -1.1 l 0.5,1.95 0.45,1.95 -1.35,0.9 -1.35,0.9 -2.05,-1.65 -2,-1.7 1.85,-1.05 1.8,-1.15 1.05,-5 1.15,-4.9 -0.4,-0.55 -0.4,-0.55 -4.25,-2.4 -4.3,-2.4 h -1.75 -1.75 l -0.55,-1.2 -0.55,-1.2 1.15,-0.3 1.15,-0.3 5.45,-0.3 5.45,-0.3 0.05,2.8 0.1,2.8 1.8,-3.1 1.8,-3.2 v -1 -1.1 l -1.95,-0.4 -1.95,-0.45 0.5,-2.1 0.55,-2.1 -1.1,-0.9 -1.1,-0.9 h -2.25 -2.15 l -0.5,-1.05 -0.55,-1.1 -2.95,2.25 -3,2.25 h -1.75 -1.75 l 0.6,-1.8 0.65,-1.75 1.35,-1.65 1.25,-1.7 -1.15,-0.7 -1.15,-0.8 -1.65,-0.45 -1.7,-0.5 v -1.5 -1.55 l 1.95,-0.5 1.9,-0.45 v -1.55 -1.5 h -3.25 -3.15 l -2.5,-1.65 -2.55,-1.6 -1.35,0.4 -1.45,0.45 -1.05,1.95 -1.05,1.95 -2.95,0.5 -2.95,0.55 -3.1,2.25 -3.1,2.2 H 96.7 95.8 v -0.7 -0.75 l 2.1,-1.25 2.15,-1.2 v -0.6 -0.55 l 2.05,-2.4 2.1,-2.4 -0.9,-1.1 -0.85,-1.1 -3.2,3.1 -3.25,3.15 -0.7,-0.6 -0.7,-0.55 1.1,-1.1 1.1,-1.1 -2.15,-0.5 -2.1,-0.5 H 90.35 88.2 L 88.3,346 v -0.95 l 0.7,-0.9 0.65,-0.85 3.4,-0.55 3.45,-0.5 v -3.2 -3.25 l 2.25,-1.4 2.25,-1.45 h 1.55 1.6 l 0.95,-2.4 1,-2.35 0.65,-4.6 0.65,-4.65 4.5,-2.3 4.5,-2.3 5.05,-0.6 5.05,-0.55 4.55,-3.8 4.45,-3.8 h 0.95 0.85 l 0.9,1.25 0.85,1.35 1.6,-0.5 1.5,-0.5 v -1.4 -1.45 l 1.5,-1.75 1.45,-1.65 h 2.25 2.2 l 2,-2.1 1.95,-2.05 v -1.45 -1.45 l -1.6,0.5 -1.55,0.55 0.7,-0.9 0.65,-1 h 1.25 1.2 l 1.05,-1.9 1,-1.85 -0.95,-0.3 -1.15,-0.3 -0.2,-0.7 -0.25,-0.75 0.5,-1 0.45,-0.95 h 0.85 0.9 v 2 1.95 l 2.7,0.4 2.8,0.5 1.6,-2.05 1.6,-2.05 -0.55,-1.2 -0.6,-1.25 1,-1.5 0.95,-1.5 h 1.35 1.45 v 0.4 0.5 l -1,1.5 -0.95,1.5 h 1.95 1.9 l 0.85,-1.85 0.85,-1.8 7.65,-1.85 7.65,-1.8 v -0.95 -1 l -2.85,-0.75 -2.8,-0.85 -0.05,-0.6 -0.1,-0.65 -0.35,-2.75 -0.4,-2.7 0.5,-1.35 0.45,-1.3 4.25,-1.7 4.25,-1.65 m -34.1,28.3 h -0.1 l -0.05,0.05 h 0.15 v -0.05 m 27.45,-8.75 -1,0.45 -0.9,0.5 v 1.15 1.1 h 1.3 1.3 l 0.55,-1.1 0.55,-1.15 -0.95,-0.5 -0.85,-0.45 m -15.15,9.45 v 1.25 1.2 l 1.1,-0.3 1.15,-0.3 0.35,-0.9 0.4,-0.95 h -1.55 -1.45 m 25.5,3.1 h 0.9 0.9 l 0.55,0.75 0.45,0.7 -1.4,0.45 -1.4,0.4 v -1.15 -1.15 m -78.35,0.7 0.45,0.35 0.4,0.35 -0.6,1.25 -0.6,1.25 -0.8,-0.4 -0.9,-0.4 v -0.75 -0.65 l 1.05,-0.55 1,-0.45 m 78.35,2.9 v 0.9 0.85 l -0.55,1.25 -0.6,1.3 h -0.8 -0.9 l 0.05,-0.6 v -0.6 l 1.45,-1.5 1.35,-1.6 m 5.4,0.3 h 1.25 1.25 l -0.6,0.55 -0.65,0.55 -0.65,-0.55 -0.6,-0.55 m -64.85,1.65 -0.3,1.25 -0.3,1.3 -1.15,0.3 -1.2,0.4 v -1.2 -1.15 l 1.45,-0.5 1.5,-0.4 m 69.85,1.5 h 0.5 0.5 v 0.4 0.45 h -0.5 -0.5 v -0.45 -0.4 m -82.5,0.25 1.15,0.5 1.1,0.6 -0.6,2.05 -0.65,2.05 -1.25,0.85 -1.25,0.9 -2,-0.9 -1.95,-0.85 0.1,-0.2 0.15,-0.15 0.95,-2.1 1.05,-2.1 1.65,-0.3 1.55,-0.35 m 27.1,1.35 -1.15,0.9 -1.1,0.95 v 0.75 0.65 l 1.45,-0.45 1.5,-0.45 h 0.45 0.35 v -1.2 -1.15 h -0.75 -0.75 m 2.45,3.1 v 0.4 0.4 h 0.5 0.45 v -0.4 -0.4 h -0.45 -0.5 m -2.7,4.5 -1.2,0.6 -1.2,0.7 1.2,0.3 1.15,0.35 0.6,-0.5 0.55,-0.45 -0.55,-0.5 -0.55,-0.5 m -14.3,3.3 v 1.65 1.6 l 0.9,-0.45 1,-0.55 v -1.1 -1.15 h -1 -0.9 m 7.65,2.35 -0.6,1.6 -0.65,1.65 1.4,1.3 1.35,1.35 0.65,1.4 0.65,1.5 -1.35,1.3 -1.4,1.25 -0.3,1.9 -0.35,2 h -4.9 l -4.95,0.05 -1.05,0.85 -1,0.8 -1.7,2.65 -1.75,2.65 -0.1,1.75 -0.1,1.65 0.85,0.5 0.9,0.4 0.55,-0.65 0.45,-0.7 3.8,-0.5 3.75,-0.5 2.35,0.85 2.3,0.9 1.5,-0.4 1.45,-0.5 -0.5,-1.05 -0.5,-1.15 -2.55,-0.95 -2.55,-0.95 1.85,-1.1 1.8,-1.1 h 3.7 3.7 l -0.45,-2.1 -0.45,-2.1 1.05,-1.35 1,-1.4 -1.6,-1.5 -1.65,-1.5 1.4,-0.95 1.5,-1 v -2.65 -2.6 l -1.85,-0.8 -1.85,-0.8 h -1.85 -1.95 m -51.45,0.8 h 4.4 4.45 l 0.6,1.25 0.6,1.3 -1.8,1.05 -1.75,1.05 h -3.65 -3.6 l -2.35,2 -2.35,1.9 H 84.4 83.55 v -1 -1.05 l 3.6,-3.3 3.65,-3.2 m 31.45,5.45 v 0.4 0.35 h 0.5 0.5 v -0.35 -0.4 h -0.5 -0.5 m -46.95,7 h 1.25 1.25 v 1.15 1.05 l -1.45,0.5 -1.5,0.5 h -0.4 -0.4 v -1.1 -1 l 0.65,-0.55 0.6,-0.55 m 23.35,1.3 0.65,0.55 0.6,0.55 -0.6,0.5 -0.65,0.5 v -1 -1.1 m -53.75,1.8 0.9,0.5 0.85,0.4 -1,1.5 -0.95,1.5 -1.4,-0.45 -1.4,-0.45 v -1 -1 l 1.55,-0.5 1.45,-0.5 m 182.5,0.2 2.55,0.6 2.5,0.55 0.3,1.35 0.35,1.4 -1,0.85 -0.95,0.85 -0.95,-2.05 -0.9,-2 -1.6,-0.3 -1.6,-0.25 0.7,-0.45 0.6,-0.55 m -93.9,1.4 0.6,0.75 0.6,0.85 h -1.5 -1.45 v -0.35 -0.35 l 0.9,-0.45 0.85,-0.45 m -37.7,0.8 h 0.5 0.5 v 0.4 0.4 h -0.5 -0.5 v -0.4 -0.4 m 143.8,0.8 h 1.4 1.4 v 0.8 0.75 h -1.4 -1.4 v -0.75 -0.8 m -88.95,0.8 v 1.5 1.45 l 0.9,0.45 0.8,0.45 0.6,-1.25 0.55,-1.25 -0.55,-0.65 -0.5,-0.7 h -0.9 -0.9 m 26.5,4.35 0.65,0.55 0.6,0.55 -0.6,0.5 -0.65,0.5 v -1 -1.1 m -32.95,2.65 -0.4,0.95 -0.45,0.95 0.5,1.05 0.45,1 1,-0.3 1.1,-0.25 0.3,-1.75 0.3,-1.65 h -1.4 -1.4 m 73.3,0.75 h 1.25 1.25 l -0.65,0.55 -0.6,0.5 -0.65,-0.5 -0.6,-0.55 m 4,0.8 h 1.4 1.45 l 0.6,0.8 0.5,0.75 h -1.4 -1.4 l -0.6,-0.75 -0.55,-0.8 m -82.35,2.35 0.4,0.95 0.4,1 2.05,0.25 2.05,0.25 v -0.8 -0.7 l -1.5,-0.5 -1.5,-0.45 h -0.95 -0.95 m 35.5,0 h 1.05 1.05 l 1.7,1 1.65,0.95 -0.65,1.4 -0.6,1.3 h -1.6 -1.65 l -1.15,-0.9 -1.05,-0.95 v -0.9 -0.9 l 0.6,-0.45 0.65,-0.55 m -110.95,1.25 0.95,0.8 0.9,0.75 -1.6,3.9 -1.5,3.85 -0.95,0.95 -0.9,0.95 h -1.25 -1.2 l 1.1,-2.35 1.05,-2.4 -2.15,-1.35 -2.2,-1.4 1.25,-0.75 1.25,-0.75 2.65,-1.05 2.6,-1.15 m 22.85,0.3 h 0.8 0.8 l -0.35,3.7 -0.4,3.75 -0.05,0.6 -0.05,0.6 -2.3,0.8 -2.3,0.9 -1.15,2.25 -1.1,2.25 H 77.7 75 l 0.2,-2.25 0.15,-2.25 0.95,-1.65 0.85,-1.7 h 1.75 1.7 l 1.45,-1.75 1.5,-1.7 v -1.3 -1.3 l 1.45,-0.45 1.55,-0.5 m -8.75,3.05 v 0.8 0.75 l -0.9,0.5 -0.95,0.45 v -0.75 -0.8 l 0.95,-0.45 0.9,-0.5 m -8.5,0.05 h 1.45 1.4 l 1.6,2.05 1.55,2.05 -1.3,0.7 -1.35,0.75 -2.35,-0.5 -2.4,-0.5 -1.15,-0.75 -1.2,-0.85 v -0.5 -0.45 l 1.85,-1.05 1.9,-0.95 m 64.05,2.35 0.6,0.55 0.65,0.55 0.65,-0.55 0.6,-0.55 h -1.25 -1.25 m 34.35,0.7 1.85,0.5 1.9,0.5 v 0.65 0.7 l -0.7,0.35 -0.75,0.4 -2.25,-1 -2.2,-1 1.05,-0.55 1.1,-0.55 m -21.05,1.7 -1.75,0.8 -1.8,0.75 v 1.95 1.95 h 0.75 0.7 l 1.65,-2.25 1.55,-2.25 -0.5,-0.45 -0.6,-0.5 M 38.1,357.9 h 0.5 0.45 v 0.4 0.35 H 38.6 38.1 v -0.35 -0.4 m 155.1,1.6 h 0.5 0.45 v 0.35 0.45 h -0.45 -0.5 v -0.45 -0.35 m -0.7,2.75 2.75,2.5 2.7,2.55 v 0.75 0.8 h -1.4 -1.35 l -1.5,2.35 -1.45,2.3 h -2.35 -2.3 l -1,-1.45 -0.95,-1.5 v -1.2 -1.2 l 1.9,-0.85 1.9,-0.85 v -1.1 -1 l 1.55,-1.1 1.5,-1 M 42.85,365.6 v 1.55 1.6 l 1.15,0.3 1.05,0.3 -0.6,1.3 -0.6,1.3 H 41.9 40 v -1.1 -1.15 l 0.95,-0.45 0.85,-0.45 -0.5,-1.1 -0.5,-1.05 1.05,-0.5 1,-0.55 m 158.8,1.7 0.55,0.75 0.6,0.8 -2,2.75 -2.1,2.7 h -0.35 -0.4 v -2.5 -2.6 l 1.85,-0.95 1.85,-0.95 m -101.05,3.7 4.25,1.3 4.2,1.35 v 0.6 0.65 l -1.45,0.95 -1.4,0.95 -1.35,-0.9 -1.3,-0.95 -1,1.5 -1,1.5 1.1,0.9 1.05,0.9 -0.6,0.5 -0.6,0.55 -1.35,-0.9 -1.4,-1 -3.85,1.05 -3.85,1 v 0.55 0.55 l 0.9,0.45 1,0.5 v 1.2 1.2 l 2.1,1.45 2.15,1.4 -1.9,1.2 -1.9,1.2 h -1.35 l -1.3,0.1 -3.4,-3.15 -3.4,-3.1 -2.85,-0.1 -2.8,-0.15 -2.7,0.9 -2.65,0.85 H 73.6 73.3 l -1.05,-2.45 -1.05,-2.45 v -0.25 -0.3 l 2,-1.65 2,-1.65 0.15,-2.85 0.1,-2.8 1.7,-0.3 1.75,-0.25 1.1,2.4 1.1,2.4 h 1.35 1.4 l 1.5,-1 1.45,-1.05 6.9,-1.4 6.9,-1.4 m 66.85,1.75 h 2.05 2.05 l 2.8,1.65 2.8,1.75 v 3.3 3.35 l -0.95,0.5 -0.95,0.5 v 0.7 0.7 h 1.3 1.3 l 1.6,-1.9 1.5,-2 h 1.55 1.5 l -0.55,3.45 -0.55,3.4 -4.8,4.2 -4.7,4.2 v 2.15 2.1 l -2.65,1.4 -2.6,1.35 -0.7,0.8 -0.65,0.85 -0.05,1.65 v 1.75 l -1.55,3.75 -1.5,3.75 -1.35,1.25 -1.35,1.25 0.55,1.15 0.55,1.2 -2.3,2.25 -2.35,2.3 -1,3.25 -1.1,3.15 -2.55,0.55 -2.6,0.55 -1.45,1.15 -1.4,1.05 -2.35,1.5 -2.35,1.5 2.35,1.5 2.3,1.55 1.2,-0.35 1.25,-0.4 v 2.1 2 l -2.4,-0.45 -2.4,-0.55 -1.3,0.95 -1.4,0.9 0.55,1.2 0.55,1.2 2.25,0.65 2.3,0.75 0.8,1.8 0.75,1.75 -1,0.25 -1.1,0.35 -2.15,1.6 -2.1,1.55 -0.4,-0.3 -0.4,-0.35 -3.35,-4.15 -3.45,-4.2 v -1 -0.95 l 1.4,-1 1.3,-0.9 0.7,-2.05 0.7,-2.1 -0.1,-0.6 -0.15,-0.55 1.4,0.45 1.4,0.45 v -1.45 -1.5 l 2.15,-0.8 2.1,-0.7 0.3,-2.15 0.3,-2.15 H 145.95 145 v -1.4 -1.35 l 1.25,-1.6 1.3,-1.55 0.55,-2.35 0.55,-2.3 0.65,-1.4 0.6,-1.35 h -2.5 -2.5 l 0.6,-1.75 0.65,-1.75 1.3,-1.25 1.3,-1.2 v -1.55 -1.65 l 3.75,-2.45 3.7,-2.45 h 2 1.95 v -0.7 -0.8 l -0.75,-0.35 -0.8,-0.35 0.2,-10.45 0.2,-10.35 0.9,-2.05 1,-2.1 3.25,-1.65 3.3,-1.65 m 9.7,0 h 0.5 0.4 v 0.35 0.4 h -0.4 -0.5 v -0.4 -0.35 m 29.3,4.55 2.15,0.55 2.1,0.55 0.45,0.3 0.35,0.35 -1.05,0.85 -1.05,0.9 -1.45,-1 -1.5,-1 v -0.7 -0.8 m -124.8,0.8 -0.95,0.5 -1,0.5 v 1.1 1.05 l 0.9,0.45 0.85,0.45 0.65,-0.85 0.6,-0.8 -0.55,-1.2 -0.5,-1.2 m 107.9,0 0.55,0.4 0.6,0.5 -0.6,0.45 -0.55,0.5 -1.2,-0.35 -1.2,-0.3 1.2,-0.6 1.2,-0.6 m -79.45,4.65 1.4,0.5 1.35,0.4 -1.2,1.55 -1.2,1.65 -1.8,-0.2 -1.8,-0.25 -0.4,-0.9 -0.35,-0.95 2,-0.9 2,-0.9 m -9.45,4 h 1.4 1.5 l -0.65,2.5 -0.7,2.5 4.85,-0.5 4.8,-0.45 v 0.55 0.6 l -1.35,1.6 -1.4,1.6 1.2,2.1 1.15,2.05 h 3.05 3.05 v 0.6 0.55 l -0.85,1.15 -0.85,1.05 -2.85,0.25 -2.9,0.3 -0.35,-1.75 -0.4,-1.8 -0.75,1.55 -0.8,1.5 1,0.3 1.1,0.3 2.4,1.6 2.4,1.55 -0.95,1.45 -0.85,1.35 -2.4,0.5 -2.4,0.5 v 1.95 1.9 h -0.55 -0.6 l -3.2,-1.25 -3.2,-1.25 v -0.65 -0.7 l -2.05,-1.5 -2,-1.55 0.6,-1.95 0.6,-2 -2.35,-1.3 -2.4,-1.25 0.1,-0.5 0.15,-0.55 1.65,-2.55 1.7,-2.6 1.6,-1.45 1.55,-1.4 -0.25,-1.45 -0.3,-1.45 0.75,-0.95 0.75,-1.05 m 100.95,0.7 1.05,0.45 0.95,0.55 v 1.45 1.5 l -1.9,0.45 -1.85,0.5 -0.95,-0.5 -0.95,-0.45 v -0.6 -0.6 l 1.85,-1.4 1.8,-1.35 m -158.75,2.5 h 0.95 0.95 v 0.8 0.75 H 43.8 42.85 v -0.75 -0.8 m 81.5,0.6 0.9,0.8 1,0.75 -1.15,0.55 -1.1,0.6 -0.9,-0.8 -1,-0.75 1.15,-0.6 1.1,-0.55 m -87.35,2.5 1.55,0.5 1.55,0.5 -0.25,2.75 -0.3,2.75 -1.1,0.3 -1.05,0.3 -0.55,-1.95 -0.6,-1.9 -0.55,-1.15 -0.55,-1.2 0.95,-0.45 0.9,-0.45 m 86.25,3.9 h 1.35 1.45 l -0.55,1.15 -0.55,1.2 -0.9,-0.5 -0.8,-0.4 v -0.7 -0.75 m 15.95,2.45 2.4,0.9 2.4,0.9 v 2.55 l 0.05,2.45 -2.9,2.4 -2.9,2.4 h -2.3 -2.3 l 0.05,-1.4 0.05,-1.3 0.75,-1.55 0.75,-1.55 2.3,-0.45 2.2,-0.45 -0.25,-2.5 -0.3,-2.4 m -88.9,3 h 1 1 v 1.15 1.15 l -2.05,1.15 -2,1.2 -0.85,-0.45 -0.75,-0.35 v -1.15 -1.05 l 1.8,-0.85 1.85,-0.8 m 51.15,2.4 v 0.8 0.8 l 1.55,0.45 1.45,0.5 1.3,-1.1 1.3,-1.05 -2.75,-0.2 -2.85,-0.2 m -27.4,16.25 0.95,0.5 0.95,0.45 v 0.4 0.35 H 75 74.05 v -0.85 -0.85 m 53.9,4.1 v 0.6 0.6 l -1.1,0.9 -1.15,0.95 h -2.6 -2.55 l -0.55,-0.7 -0.55,-0.75 1.1,-0.6 1.05,-0.55 3.2,-0.2 3.15,-0.25 m -21.75,7.6 v 1.3 1.3 l -0.95,-0.5 -0.95,-0.5 v -0.3 -0.3 l 0.95,-0.45 0.95,-0.55 m -54.55,0.9 h 1.25 1.2 l 1.1,1.6 1.05,1.7 -0.95,0.8 -0.9,0.75 -2,-0.9 -2,-0.9 v -1 -1.05 l 0.65,-0.45 0.6,-0.55 m 79,3 1.65,0.7 1.65,0.8 -2,0.85 -1.9,0.9 -1.15,-1.15 -1.1,-1.2 1.4,-0.4 1.45,-0.5"
         fill="#000000"
         fill-rule="evenodd"
         stroke="none"
         id="path619" /><path
         d="m 235.45,54.1 0.65,0.55 0.65,0.55 0.6,-0.55 0.65,-0.55 h -1.25 -1.3 m -45.2,0.8 0.3,1.4 0.3,1.3 1.7,0.3 1.7,0.25 1.65,-0.5 1.55,-0.55 -2.35,-1.05 -2.4,-1.1 h -1.25 l -1.2,-0.05 m 42.1,10.95 -2.1,1.8 -2.1,1.9 0.55,1.1 0.55,1.2 -2.65,1.4 -2.65,1.35 -2.2,2.3 -2.15,2.2 h -2.75 -2.65 v 3.55 3.5 l 0.85,0.45 0.95,0.45 -0.55,1.4 -0.55,1.4 1.3,0.4 1.3,0.45 4.15,-2.15 4.2,-2.1 3.05,-0.9 3.1,-0.9 1.6,2.15 1.55,2.1 1.95,1.75 1.85,1.7 h 1.7 1.7 l 1.65,-2.1 1.7,-2.15 1.25,-1.05 1.2,-1.1 -0.65,-1.6 -0.65,-1.7 -0.8,-2.75 -0.75,-2.75 2.55,-1.7 2.6,-1.65 -1.05,-1.45 -1.05,-1.45 h -1.8 -1.8 l -3.4,-1 -3.45,-0.95 -1.7,-1.6 -1.7,-1.5 h -1.05 -1.1 m 8.5,28.2 v 1.15 1.1 h 0.75 0.8 v -0.75 -0.7 l -0.8,-0.45 -0.75,-0.35 m 6.9,7 -0.8,0.45 -0.85,0.4 -1.5,3.05 -1.5,3.05 h -0.65 -0.65 l -1.15,-0.95 -1.05,-0.9 v -1.35 -1.4 l -1.05,-0.5 -1,-0.45 -1.35,0.9 -1.35,0.95 v 1.9 1.95 l 2.4,3.35 2.4,3.4 1.4,0.95 1.4,1.05 1.65,-1.4 1.6,-1.3 -2.35,-1.5 -2.35,-1.45 1.75,-0.55 1.7,-0.6 1.65,1.5 1.7,1.5 -0.85,3.2 -0.85,3.2 -2.2,0.85 -2.25,0.85 -1.15,2.9 -1.15,2.8 2,1.7 2,1.6 1.15,-0.9 1.1,-0.95 2.1,1.6 2.05,1.6 1.75,-0.2 1.75,-0.3 0.3,-2.7 0.25,-2.75 0.55,-1.15 0.6,-1.2 0.1,-2.65 0.1,-2.65 1.9,-0.9 1.9,-0.8 0.3,-0.2 0.35,-0.1 -0.6,-1.65 -0.65,-1.6 h -1.8 -1.85 l 0.55,-2 0.6,-1.9 -1.1,-1.15 -1.15,-1.15 0.5,-1.35 0.5,-1.45 -3.4,-1.3 -3.45,-1.35 m 28.75,16.3 -0.95,1.5 -1,1.55 v 1.65 1.6 h -1.4 -1.35 l -1.85,2.9 -1.85,2.9 0.85,0.25 0.8,0.3 1.7,-1.05 1.7,-1.05 0.3,-1.5 0.3,-1.4 2.05,-1.45 2.1,-1.45 h 0.95 l 1,-0.05 1.15,-0.9 1.1,-0.9 -1.55,-1.45 -1.55,-1.45 h -1.2 -1.3 m -17.65,2.35 -1.1,0.95 -1.15,0.95 v 0.2 0.2 l 0.9,1.95 0.95,2.05 h 1.8 1.8 l 0.45,-2.15 0.5,-2.15 -0.9,-1 -1,-1 h -1.15 -1.1 m -29.6,0.65 -1,0.55 -1,0.5 v 0.65 0.65 l 2.95,2.05 2.95,2.1 0.4,-0.35 0.35,-0.3 -0.85,-1.9 -0.9,-1.9 -1.45,-1 -1.45,-1.05 m 108.8,1.7 -0.6,0.75 -0.6,0.85 h -3 -3 l 1.25,0.65 1.25,0.7 2.9,-0.5 2.95,-0.55 0.35,-0.95 0.4,-0.95 H 339 338.05 m -121.2,3.15 v 0.4 0.4 h 0.5 0.45 v -0.4 -0.4 h -0.45 -0.5 m 47.2,26.7 -4.7,1.65 -4.65,1.65 v 0.9 0.9 l 4,0.55 4,0.5 1.2,-1.35 1.2,-1.35 v -1.3 -1.25 l -0.5,-0.4 -0.55,-0.5 m -115.5,13 -0.85,1 -0.8,1.05 v 1.75 1.65 l 0.55,1.25 0.6,1.2 h 2.7 2.8 l 0.45,-0.95 0.35,-0.95 -0.7,-2.75 -0.7,-2.75 -2.25,-0.25 -2.15,-0.25 m 147.65,14.15 0.6,0.8 0.55,0.75 h 0.95 0.95 l -0.6,-0.75 -0.55,-0.8 h -1 -0.9 m -29.35,0.6 0.3,1.45 0.35,1.35 1.25,0.4 1.25,0.3 -0.35,-1.4 -0.3,-1.4 -1.25,-0.35 -1.25,-0.35 m -44.45,4.9 -2.2,1.35 -2.2,1.35 1.9,0.3 1.9,0.25 0.95,-0.75 0.9,-0.8 -0.6,-0.85 -0.65,-0.85 m 50.7,7.1 0.35,3.1 0.35,3.05 2.25,0.5 2.15,0.5 1.05,-0.55 1,-0.55 v -1.45 -1.45 l -2.15,-0.5 -2.1,-0.55 -1.5,-1.05 -1.4,-1.05 m -17.3,2.1 -0.9,0.45 -1,0.5 0.2,4.55 0.1,4.55 -1.6,1.85 -1.6,1.95 -0.05,0.6 -0.05,0.55 h 0.5 0.5 l 3.65,-1.9 3.65,-1.9 -0.35,-4.5 -0.3,-4.5 -1.35,-1.05 -1.4,-1.15 m -141.1,13.4 v 0.45 0.35 h 0.5 0.5 v -0.35 -0.45 h -0.5 -0.5 m -6.45,0.8 -0.45,1 -0.5,1 -0.05,0.6 -0.05,0.5 h 1.4 1.4 V 210 208.85 l -0.85,-0.4 -0.9,-0.5 m 169.45,0 -0.6,0.5 -0.6,0.45 0.6,2.45 0.55,2.45 0.9,1.45 0.85,1.45 2.1,-1.2 2.05,-1.15 -0.3,-2.2 -0.35,-2.2 -1,-1 -0.95,-1 h -1.65 -1.6 m -17.05,0.8 -0.65,0.6 -0.65,0.5 0.3,1.2 0.25,1.2 1.65,0.25 1.7,0.25 v -2 -2 h -1.35 -1.25 m -139.3,1.3 -1.65,1.2 -1.7,1.2 -2.15,0.6 -2.2,0.55 0.3,2.45 0.3,2.45 2.35,0.3 2.4,0.25 0.9,0.7 0.85,0.75 h 3.05 3 l 1.1,-1.1 1.1,-1.1 -1.7,-2.4 -1.7,-2.4 -1.6,-0.35 -1.6,-0.35 -0.55,1.2 -0.55,1.2 -0.5,-0.4 -0.55,-0.45 1.2,-1.6 1.25,-1.55 -0.7,-0.6 -0.65,-0.55 m 121.25,4.2 -0.55,1.15 -0.55,1.2 H 239.25 237 l -0.6,0.45 -0.65,0.55 v 1.1 1.05 l 0.95,1.4 0.85,1.35 0.4,2.3 0.35,2.25 4.7,0.25 4.75,0.25 -0.05,3.3 -0.1,3.3 h 2.65 2.7 l 0.9,1.35 0.95,1.35 h 1.8 1.8 l 0.45,-0.65 0.55,-0.75 -0.55,-1.2 -0.5,-1.1 -2.55,-0.9 -2.55,-0.9 -1.7,-1.95 -1.7,-1.95 0.6,-2.3 0.6,-2.25 3.35,0.2 3.35,0.3 0.85,1.05 0.8,1.05 1.7,-1.6 1.65,-1.7 1.4,-0.4 1.4,-0.4 -2.05,-0.1 -2.05,-0.05 -0.6,-0.75 -0.55,-0.8 -0.45,-1.75 -0.4,-1.65 -0.9,-0.8 -0.95,-0.7 -2.15,1.1 -2.2,1.2 -2,-0.6 -2,-0.65 -0.7,-0.75 -0.6,-0.85 h -2.65 -2.7 v 0 m 20.65,0.75 v 0.4 0.4 h 0.4 0.5 v -0.4 -0.4 h -0.5 -0.4 m 4.45,0.4 -0.75,1.95 -0.7,1.95 -0.15,1 -0.05,1.1 1.65,-0.3 1.65,-0.3 -0.3,-1.5 -0.25,-1.6 -0.55,-1.1 -0.55,-1.2 m -14.9,4.3 h 1.4 1.35 l 0.6,0.85 0.65,0.85 -0.45,0.3 -0.4,0.35 -1.6,-0.5 -1.55,-0.45 v -0.75 -0.65 m -26.8,1.55 0.6,0.5 0.65,0.55 0.65,-0.55 0.6,-0.5 H 227.25 226 m -53.6,6.25 v 1.5 1.45 l 1.4,0.45 1.4,0.45 0.45,-0.7 0.55,-0.7 -0.6,-1.2 -0.55,-1.25 h -1.35 -1.3 m 99.4,0 -0.85,1.25 -0.85,1.3 0.4,1.35 0.4,1.35 -2.9,0.5 -2.9,0.45 v 0.8 0.8 h 0.6 0.6 l 3.65,-0.9 3.65,-0.9 v -3 -3 h -0.9 -0.9 m -114.5,8.5 -0.95,0.5 -0.95,0.45 v 0.8 0.75 l 0.95,-0.45 0.95,-0.5 V 236.8 236 m 106.9,1.55 -1.1,3.65 -1.1,3.6 -1.05,0.3 -1.05,0.3 -2.85,0.85 -2.8,0.9 1.7,1 1.65,1.05 -0.25,0.65 -0.2,0.65 2.25,2.9 2.3,2.8 1.05,-1.65 1,-1.7 1.9,0.3 1.85,0.25 0.75,0.65 0.8,0.6 -2.15,1.6 -2.15,1.7 0.45,0.3 0.35,0.35 5,-0.85 4.9,-0.75 0.6,-1.5 0.55,-1.45 1.4,1.15 1.4,1.2 -0.3,1.35 -0.35,1.4 -2.55,-0.3 -2.6,-0.25 v 0.85 0.85 h -1.85 -1.95 v 1.2 1.2 l 1.2,-0.15 1.15,-0.15 2.8,0.95 2.7,0.9 -0.35,0.25 -0.4,0.3 -2.05,0.9 -2.05,0.8 -1.5,-1.2 -1.55,-1.25 -1.45,0.5 -1.45,0.4 -0.5,1.55 -0.5,1.5 -1.4,-1.1 -1.5,-1.2 -1.4,0.2 -1.5,0.25 -0.35,0.85 -0.35,0.85 1.7,1.7 1.7,1.7 3.25,0.3 3.3,0.3 1.25,-0.4 1.25,-0.45 1.5,-2.4 1.5,-2.4 1.35,2.1 1.3,2.1 1.85,-0.95 1.85,-0.95 v -1.75 -1.8 h 1.8 1.8 l 2.25,-1.5 2.2,-1.55 -1.4,-0.8 -1.4,-0.75 -2.05,-0.05 h -2 l -1.25,-1.25 -1.25,-1.3 1.7,-1 1.75,-1.1 3,0.5 2.9,0.5 1.05,1.2 1.05,1.1 1.1,-0.5 1.05,-0.55 v -1.15 -1.15 h -1.6 -1.6 l 1.15,-0.95 1.15,-0.9 v -1.4 -1.35 l -1,-0.5 -0.9,-0.45 -2.5,1.6 -2.55,1.6 h -1.1 -1.15 l -1.7,-1.55 -1.7,-1.55 h -1.35 -1.35 l -0.5,1.55 -0.5,1.55 h -0.6 l -0.6,-0.05 -1.3,-0.65 -1.25,-0.65 0.3,-1.85 0.35,-1.9 2.6,-0.2 2.55,-0.25 v -0.75 -0.7 l -0.2,-0.6 -0.2,-0.55 -1.7,0.2 -1.65,0.25 v -0.9 -0.85 l -2.7,0.2 -2.75,0.2 -1.5,-1 -1.55,-1.1 v -1.8 -1.8 l -0.9,-0.45 -0.95,-0.5 m -0.85,9.85 0.5,1 0.5,1.05 -0.6,0.45 -0.5,0.5 0.05,-1.5 0.05,-1.5 m 33.05,12.05 -1,1.6 -1.05,1.55 H 293 291.55 v 1.95 1.85 l -3.05,0.55 -3.1,0.5 -0.7,0.4 -0.7,0.35 v 2.5 2.6 l 1.3,1.45 1.3,1.4 4.35,-1 4.3,-0.95 1.65,-2.05 1.6,-2.05 -1.1,-3.35 -1.1,-3.4 0.95,-1.5 0.95,-1.45 -0.9,-0.5 -0.9,-0.45 m -105.95,1.5 -4.25,1.65 -4.25,1.7 -0.45,1.3 -0.5,1.35 0.4,2.7 0.35,2.75 0.1,0.65 0.05,0.6 2.8,0.85 2.85,0.75 v 1 0.95 l -7.65,1.8 -7.65,1.85 -0.85,1.8 -0.85,1.85 h -1.9 -1.95 l 0.95,-1.5 1,-1.5 v -0.5 -0.4 h -1.45 -1.35 l -0.95,1.5 -1,1.5 0.6,1.25 0.55,1.2 -1.6,2.05 -1.6,2.05 -2.8,-0.5 -2.7,-0.4 v -1.95 -2 h -0.9 -0.85 l -0.45,0.95 -0.5,1 0.2,0.75 0.25,0.7 1.15,0.3 0.95,0.3 0.05,-0.05 h 0.1 v 0.05 h -0.15 l -1,1.85 -1.05,1.9 h -1.2 -1.25 l -0.65,1 -0.7,0.9 1.55,-0.55 1.6,-0.5 v 1.45 1.45 l -1.95,2.05 -2,2.1 h -2.2 -2.25 l -1.45,1.65 -1.5,1.75 v 1.45 1.4 l -1.5,0.5 -1.6,0.5 -0.85,-1.35 -0.9,-1.25 h -0.85 -0.95 l -4.45,3.8 -4.55,3.8 -5.05,0.55 -5.05,0.6 -4.5,2.3 -4.5,2.3 -0.65,4.65 -0.65,4.6 -1,2.35 -0.95,2.4 h -1.6 -1.55 l -2.25,1.45 -2.25,1.4 v 3.25 3.2 l -3.45,0.5 -3.4,0.55 -0.65,0.85 -0.7,0.9 V 346 l -0.1,0.95 h 2.15 2.2 l 2.1,0.5 2.15,0.5 -1.1,1.1 -1.1,1.1 0.7,0.55 0.7,0.6 3.25,-3.15 3.2,-3.1 0.85,1.1 0.9,1.1 -2.1,2.4 -2.05,2.4 v 0.55 0.6 l -2.15,1.2 -2.1,1.25 v 0.75 0.7 h 0.9 0.95 l 3.1,-2.2 3.1,-2.25 2.95,-0.55 2.95,-0.5 1.05,-1.95 1.05,-1.95 1.45,-0.45 1.35,-0.4 2.55,1.6 2.5,1.65 h 3.15 3.25 v 1.5 1.55 l -1.9,0.45 -1.95,0.5 v 1.55 1.5 l 1.7,0.5 1.65,0.45 1.15,0.8 1.15,0.7 -1.25,1.7 -1.35,1.65 -0.65,1.75 -0.6,1.8 h 1.75 1.75 l 3,-2.25 2.95,-2.25 0.55,1.1 0.5,1.05 h 2.15 2.25 l 1.1,0.9 1.1,0.9 -0.55,2.1 -0.5,2.1 1.95,0.45 1.95,0.4 v 1.1 1 l -1.8,3.2 -1.8,3.1 -0.1,-2.8 -0.05,-2.8 -5.45,0.3 -5.45,0.3 -1.15,0.3 -1.15,0.3 0.55,1.2 0.55,1.2 h 1.75 1.75 l 4.3,2.4 4.25,2.4 0.4,0.55 0.4,0.55 -1.15,4.9 -1.05,5 -1.8,1.15 -1.85,1.05 2,1.7 2.05,1.65 1.35,-0.9 1.35,-0.9 -0.45,-1.95 -0.5,-1.95 h 1.1 1.05 l 0.1,1 0.1,0.95 0.1,1.15 0.2,1.05 1.05,0.3 1.1,0.3 0.7,-4.3 0.65,-4.4 1.65,-1.75 1.65,-1.7 0.5,-3.35 0.5,-3.4 1.3,-1.2 1.2,-1.2 1.65,-4 1.75,-4 1.3,-1.1 1.3,-1.05 1.05,0.5 1.05,0.5 v 1.85 1.8 l 1.4,0.95 1.45,0.95 v -3.5 -3.5 l 1.8,-0.4 1.75,-0.35 1,0.45 1,0.55 0.95,2.1 1,2.15 h 1.2 1.25 l 1.6,-2.35 1.6,-2.3 -1.15,-0.15 -1.15,-0.05 -1.15,0.1 -1.2,0.15 -0.6,-1.35 -0.7,-1.35 -1.65,-1.4 -1.7,-1.4 -2.25,-0.45 -2.2,-0.45 -1.55,-2.85 -1.5,-2.8 1.35,-2.7 1.35,-2.7 v -1.75 -1.75 l 1.9,-2 1.9,-2 0.55,-2.4 0.6,-2.4 h 0.85 0.85 v -1.95 -2 l 1.45,-2.95 1.55,-2.85 1.15,-3.9 1.1,-3.9 -0.6,-8.2 -0.6,-8.25 1.25,-1.7 1.3,-1.75 V 297.35 296 l -3.2,0.55 -3.3,0.5 -0.6,-0.8 -0.6,-0.85 0.55,-1.35 0.6,-1.35 4.35,-2.35 4.45,-2.25 5.75,0.1 5.7,0.15 -1.2,-0.45 -1.2,-0.4 v -2.15 -2.1 l -0.95,-0.85 -1.05,-0.85 2.45,-1.55 2.4,-1.6 v -1.35 -1.3 l -1.65,-0.35 -1.65,-0.35 -0.05,-4.65 -0.15,-4.65 h 2 1.9 l 2.15,1.7 2.2,1.7 0.7,-0.6 0.7,-0.6 -2.1,-1.2 -2.15,-1.2 v -1.85 -1.9 l -1.4,-0.45 -1.35,-0.4 m -6.65,19.55 0.85,0.45 0.95,0.5 -0.55,1.15 -0.55,1.1 h -1.3 -1.3 v -1.1 -1.15 l 0.9,-0.5 1,-0.45 m -15.15,9.45 h 1.45 1.55 l -0.4,0.95 -0.4,0.9 -1.1,0.3 -1.1,0.3 v -1.2 -1.25 m 25.5,3.1 v 1.15 1.15 l 1.4,-0.4 1.4,-0.45 -0.45,-0.7 -0.55,-0.75 h -0.9 -0.9 m -78.35,0.7 -1,0.45 -1.05,0.55 v 0.65 0.75 l 0.9,0.4 0.8,0.4 0.6,-1.25 0.6,-1.25 -0.4,-0.35 -0.45,-0.35 m 78.35,2.9 -1.35,1.6 -1.45,1.5 v 0.6 l -0.05,0.6 h 0.9 0.8 l 0.6,-1.3 0.55,-1.25 v -0.85 -0.9 m 5.4,0.3 0.6,0.55 0.65,0.55 0.65,-0.55 0.6,-0.55 h -1.25 -1.25 m -64.85,1.65 -1.5,0.4 -1.45,0.5 v 1.15 1.2 l 1.2,-0.4 1.15,-0.3 0.3,-1.3 0.3,-1.25 m 69.85,1.5 v 0.4 0.45 h 0.5 0.5 v -0.45 -0.4 h -0.5 -0.5 m -82.5,0.25 -1.55,0.35 -1.65,0.3 -1.05,2.1 -0.95,2.1 -0.15,0.15 -0.1,0.2 1.95,0.85 2,0.9 1.25,-0.9 1.25,-0.85 0.65,-2.05 0.6,-2.05 -1.1,-0.6 -1.15,-0.5 m 27.1,1.35 h 0.75 0.75 v 1.15 1.2 h -0.35 -0.45 l -1.5,0.45 -1.45,0.45 v -0.65 -0.75 l 1.1,-0.95 1.15,-0.9 m 2.45,3.1 h 0.5 0.45 v 0.4 0.4 h -0.45 -0.5 v -0.4 -0.4 m -2.7,4.5 0.55,0.5 0.55,0.5 -0.55,0.45 -0.6,0.5 -1.15,-0.35 -1.2,-0.3 1.2,-0.7 1.2,-0.6 m -14.3,3.3 h 0.9 1 v 1.15 1.1 l -1,0.55 -0.9,0.45 v -1.6 -1.65 m 7.65,2.35 h 1.95 1.85 l 1.85,0.8 1.85,0.8 v 2.6 2.65 l -1.5,1 -1.4,0.95 1.65,1.5 1.6,1.5 -1,1.4 -1.05,1.35 0.45,2.1 0.45,2.1 h -3.7 -3.7 l -1.8,1.1 -1.85,1.1 2.55,0.95 2.55,0.95 0.5,1.15 0.5,1.05 -1.45,0.5 -1.5,0.4 -2.3,-0.9 -2.35,-0.85 -3.75,0.5 -3.8,0.5 -0.45,0.7 -0.55,0.65 -0.9,-0.4 -0.85,-0.5 0.1,-1.65 0.1,-1.75 1.75,-2.65 1.7,-2.65 1,-0.8 1.05,-0.85 4.95,-0.05 h 4.9 l 0.35,-2 0.3,-1.9 1.4,-1.25 1.35,-1.3 -0.65,-1.5 -0.65,-1.4 -1.35,-1.35 -1.4,-1.3 0.65,-1.65 0.6,-1.6 m -51.45,0.8 -3.65,3.2 -3.6,3.3 v 1.05 1 h 0.85 0.95 l 2.35,-1.9 2.35,-2 h 3.6 3.65 l 1.75,-1.05 1.8,-1.05 -0.6,-1.3 -0.6,-1.25 H 95.2 90.8 m 31.45,5.45 h 0.5 0.5 v 0.4 0.35 h -0.5 -0.5 v -0.35 -0.4 m -46.95,7 -0.6,0.55 -0.65,0.55 v 1 1.1 h 0.4 0.4 l 1.5,-0.5 1.45,-0.5 v -1.05 -1.15 H 76.55 75.3 m 23.35,1.3 v 1.1 1 l 0.65,-0.5 0.6,-0.5 -0.6,-0.55 -0.65,-0.55 m -53.75,1.8 -1.45,0.5 -1.55,0.5 v 1 1 l 1.4,0.45 1.4,0.45 0.95,-1.5 1,-1.5 -0.85,-0.4 -0.9,-0.5 m 182.5,0.2 -0.6,0.55 -0.7,0.45 1.6,0.25 1.6,0.3 0.9,2 0.95,2.05 0.95,-0.85 1,-0.85 -0.35,-1.4 -0.3,-1.35 -2.5,-0.55 -2.55,-0.6 m -93.9,1.4 -0.85,0.45 -0.9,0.45 v 0.35 0.35 h 1.45 1.5 l -0.6,-0.85 -0.6,-0.75 m -37.7,0.8 v 0.4 0.4 h 0.5 0.5 v -0.4 -0.4 h -0.5 -0.5 m 143.8,0.8 v 0.8 0.75 h 1.4 1.4 v -0.75 -0.8 h -1.4 -1.4 m -88.95,0.8 h 0.9 0.9 l 0.5,0.7 0.55,0.65 -0.55,1.25 -0.6,1.25 -0.8,-0.45 -0.9,-0.45 v -1.45 -1.5 m 26.5,4.35 v 1.1 1 l 0.65,-0.5 0.6,-0.5 -0.6,-0.55 -0.65,-0.55 m -32.95,2.65 h 1.4 1.4 l -0.3,1.65 -0.3,1.75 -1.1,0.25 -1,0.3 -0.45,-1 -0.5,-1.05 0.45,-0.95 0.4,-0.95 m 73.3,0.75 0.6,0.55 0.65,0.5 0.6,-0.5 0.65,-0.55 h -1.25 -1.25 m 4,0.8 0.55,0.8 0.6,0.75 h 1.4 1.4 l -0.5,-0.75 -0.6,-0.8 h -1.45 -1.4 m -82.35,2.35 h 0.95 0.95 l 1.5,0.45 1.5,0.5 v 0.7 0.8 l -2.05,-0.25 -2.05,-0.25 -0.4,-1 -0.4,-0.95 m 35.5,0 -0.65,0.55 -0.6,0.45 v 0.9 0.9 l 1.05,0.95 1.15,0.9 h 1.65 1.6 l 0.6,-1.3 0.65,-1.4 -1.65,-0.95 -1.7,-1 h -1.05 -1.05 m -110.95,1.25 -2.6,1.15 -2.65,1.05 -1.25,0.75 -1.25,0.75 2.2,1.4 2.15,1.35 -1.05,2.4 -1.1,2.35 h 1.2 1.25 l 0.9,-0.95 0.95,-0.95 1.5,-3.85 1.6,-3.9 -0.9,-0.75 -0.95,-0.8 m 22.85,0.3 -1.55,0.5 -1.45,0.45 v 1.3 1.3 l -1.5,1.7 -1.45,1.75 h -1.7 -1.75 l -0.85,1.7 -0.95,1.65 -0.15,2.25 -0.2,2.25 h 2.7 2.75 l 1.1,-2.25 1.15,-2.25 2.3,-0.9 2.3,-0.8 0.05,-0.6 0.05,-0.6 0.4,-3.75 0.35,-3.7 h -0.8 -0.8 m -8.75,3.05 -0.9,0.5 -0.95,0.45 v 0.8 0.75 l 0.95,-0.45 0.9,-0.5 v -0.75 -0.8 m -8.5,0.05 -1.9,0.95 -1.85,1.05 v 0.45 0.5 l 1.2,0.85 1.15,0.75 2.4,0.5 2.35,0.5 1.35,-0.75 1.3,-0.7 -1.55,-2.05 -1.6,-2.05 h -1.4 -1.45 m 64.05,2.35 h 1.25 1.25 l -0.6,0.55 -0.65,0.55 -0.65,-0.55 -0.6,-0.55 m 34.35,0.7 -1.1,0.55 -1.05,0.55 2.2,1 2.25,1 0.75,-0.4 0.7,-0.35 v -0.7 -0.65 l -1.9,-0.5 -1.85,-0.5 m -21.05,1.7 0.6,0.5 0.5,0.45 -1.55,2.25 -1.65,2.25 h -0.7 -0.75 v -1.95 -1.95 l 1.8,-0.75 1.75,-0.8 M 38.1,357.9 v 0.4 0.35 h 0.5 0.45 v -0.35 -0.4 H 38.6 38.1 m 155.1,1.6 v 0.35 0.45 h 0.5 0.45 v -0.45 -0.35 h -0.45 -0.5 m -0.7,2.75 -1.5,1 -1.55,1.1 v 1 1.1 l -1.9,0.85 -1.9,0.85 v 1.2 1.2 l 0.95,1.5 1,1.45 h 2.3 2.35 l 1.45,-2.3 1.5,-2.35 h 1.35 1.4 v -0.8 -0.75 l -2.7,-2.55 -2.75,-2.5 m -149.65,3.35 -1,0.55 -1.05,0.5 0.5,1.05 0.5,1.1 -0.85,0.45 -0.95,0.45 v 1.15 1.1 h 1.9 1.95 l 0.6,-1.3 0.6,-1.3 -1.05,-0.3 -1.15,-0.3 v -1.6 -1.55 m 158.8,1.7 -1.85,0.95 -1.85,0.95 v 2.6 2.5 h 0.4 0.35 l 2.1,-2.7 2,-2.75 -0.6,-0.8 -0.55,-0.75 m -101.05,3.7 -6.9,1.4 -6.9,1.4 -1.45,1.05 -1.5,1 h -1.4 -1.35 l -1.1,-2.4 -1.1,-2.4 -1.75,0.25 -1.7,0.3 -0.1,2.8 -0.15,2.85 -2,1.65 -2,1.65 v 0.3 0.25 l 1.05,2.45 1.05,2.45 h 0.3 0.35 l 2.65,-0.85 2.7,-0.9 2.8,0.15 2.85,0.1 3.4,3.1 3.4,3.15 1.3,-0.1 h 1.35 l 1.9,-1.2 1.9,-1.2 -2.15,-1.4 -2.1,-1.45 v -1.2 -1.2 l -1,-0.5 -0.9,-0.45 v -0.55 -0.55 l 3.85,-1 3.85,-1.05 1.4,1 1.35,0.9 0.6,-0.55 0.6,-0.5 -1.05,-0.9 -1.1,-0.9 1,-1.5 1,-1.5 1.3,0.95 1.35,0.9 1.4,-0.95 1.45,-0.95 v -0.65 -0.6 l -4.2,-1.35 -4.25,-1.3 m 66.85,1.75 -3.3,1.65 -3.25,1.65 -1,2.1 -0.9,2.05 -0.2,10.35 -0.2,10.45 0.8,0.35 0.75,0.35 v 0.8 0.7 h -1.95 -2 l -3.7,2.45 -3.75,2.45 v 1.65 1.55 l -1.3,1.2 -1.3,1.25 -0.65,1.75 -0.6,1.75 h 2.5 2.5 l -0.6,1.35 -0.65,1.4 -0.55,2.3 -0.55,2.35 -1.3,1.55 -1.25,1.6 v 1.35 1.4 h 0.95 1.05 l -0.3,2.15 -0.3,2.15 -2.1,0.7 -2.15,0.8 v 1.5 1.45 l -1.4,-0.45 -1.4,-0.45 0.15,0.55 0.1,0.6 -0.7,2.1 -0.7,2.05 -1.3,0.9 -1.4,1 v 0.95 1 l 3.45,4.2 3.35,4.15 0.4,0.35 0.4,0.3 2.1,-1.55 2.15,-1.6 1.1,-0.35 1,-0.25 -0.75,-1.75 -0.8,-1.8 -2.3,-0.75 -2.25,-0.65 -0.55,-1.2 -0.55,-1.2 1.4,-0.9 1.3,-0.95 2.4,0.55 2.4,0.45 v -2 -2.1 l -1.25,0.4 -1.2,0.35 -2.3,-1.55 -2.35,-1.5 2.35,-1.5 2.35,-1.5 1.4,-1.05 1.45,-1.15 2.6,-0.55 2.55,-0.55 1.1,-3.15 1,-3.25 2.35,-2.3 2.3,-2.25 -0.55,-1.2 -0.55,-1.15 1.4,-1.25 1.3,-1.25 1.5,-3.75 1.55,-3.75 v -1.75 l 0.05,-1.65 0.65,-0.85 0.7,-0.8 2.6,-1.35 2.65,-1.4 v -2.1 -2.15 l 4.7,-4.2 4.8,-4.2 0.55,-3.4 0.55,-3.45 h -1.5 -1.55 l -1.5,2 -1.6,1.9 h -1.3 -1.3 v -0.7 -0.7 l 0.95,-0.5 0.95,-0.5 v -3.35 -3.3 l -2.8,-1.75 -2.8,-1.65 h -2.05 -2.05 m 9.7,0 v 0.35 0.4 h 0.5 0.4 v -0.4 -0.35 h -0.4 -0.5 m 29.3,4.55 v 0.8 0.7 l 1.5,1 1.45,1 1.05,-0.9 1.05,-0.85 -0.35,-0.35 -0.45,-0.3 -2.1,-0.55 -2.15,-0.55 m -124.8,0.8 0.5,1.2 0.55,1.2 -0.6,0.8 -0.65,0.85 -0.85,-0.45 -0.9,-0.45 v -1.05 -1.1 l 1,-0.5 0.95,-0.5 m 107.9,0 -1.2,0.6 -1.2,0.6 1.2,0.3 1.2,0.35 0.55,-0.5 0.6,-0.45 -0.6,-0.5 -0.55,-0.4 m -79.45,4.65 -2,0.9 -2,0.9 0.35,0.95 0.4,0.9 1.8,0.25 1.8,0.2 1.2,-1.65 1.2,-1.55 -1.35,-0.4 -1.4,-0.5 m -9.45,4 -0.75,1.05 -0.75,0.95 0.3,1.45 0.25,1.45 -1.55,1.4 -1.6,1.45 -1.7,2.6 -1.65,2.55 -0.15,0.55 -0.1,0.5 2.4,1.25 2.35,1.3 -0.6,2 -0.6,1.95 2,1.55 2.05,1.5 v 0.7 0.65 l 3.2,1.25 3.2,1.25 h 0.6 0.55 v -1.9 -1.95 l 2.4,-0.5 2.4,-0.5 0.85,-1.35 0.95,-1.45 -2.4,-1.55 -2.4,-1.6 -1.1,-0.3 -1,-0.3 0.8,-1.5 0.75,-1.55 0.4,1.8 0.35,1.75 2.9,-0.3 2.85,-0.25 0.85,-1.05 0.85,-1.15 v -0.55 -0.6 h -3.05 -3.05 l -1.15,-2.05 -1.2,-2.1 1.4,-1.6 1.35,-1.6 v -0.6 -0.55 l -4.8,0.45 -4.85,0.5 0.7,-2.5 0.65,-2.5 h -1.5 -1.4 m 100.95,0.7 -1.8,1.35 -1.85,1.4 v 0.6 0.6 l 0.95,0.45 0.95,0.5 1.85,-0.5 1.9,-0.45 v -1.5 -1.45 l -0.95,-0.55 -1.05,-0.45 m -158.75,2.5 v 0.8 0.75 h 0.95 0.95 v -0.75 -0.8 H 43.8 42.85 m 81.5,0.6 -1.1,0.55 -1.15,0.6 1,0.75 0.9,0.8 1.1,-0.6 1.15,-0.55 -1,-0.75 -0.9,-0.8 m -87.35,2.5 -0.9,0.45 -0.95,0.45 0.55,1.2 0.55,1.15 0.6,1.9 0.55,1.95 1.05,-0.3 1.1,-0.3 0.3,-2.75 0.25,-2.75 -1.55,-0.5 -1.55,-0.5 m 86.25,3.9 v 0.75 0.7 l 0.8,0.4 0.9,0.5 0.55,-1.2 0.55,-1.15 h -1.45 -1.35 m 15.95,2.45 0.3,2.4 0.25,2.5 -2.2,0.45 -2.3,0.45 -0.75,1.55 -0.75,1.55 -0.05,1.3 -0.05,1.4 h 2.3 2.3 l 2.9,-2.4 2.9,-2.4 -0.05,-2.45 v -2.55 l -2.4,-0.9 -2.4,-0.9 m -88.9,3 -1.85,0.8 -1.8,0.85 v 1.05 1.15 l 0.75,0.35 0.85,0.45 2,-1.2 2.05,-1.15 v -1.15 -1.15 h -1 -1 m 51.15,2.4 2.85,0.2 2.75,0.2 -1.3,1.05 -1.3,1.1 -1.45,-0.5 -1.55,-0.45 v -0.8 -0.8 m -27.4,16.25 v 0.85 0.85 H 75 75.95 V 422.4 422 l -0.95,-0.45 -0.95,-0.5 m 53.9,4.1 -3.15,0.25 -3.2,0.2 -1.05,0.55 -1.1,0.6 0.55,0.75 0.55,0.7 h 2.55 2.6 l 1.15,-0.95 1.1,-0.9 v -0.6 -0.6 m -21.75,7.6 -0.95,0.55 -0.95,0.45 v 0.3 0.3 l 0.95,0.5 0.95,0.5 v -1.3 -1.3 m -54.55,0.9 -0.6,0.55 -0.65,0.45 v 1.05 1 l 2,0.9 2,0.9 0.9,-0.75 0.95,-0.8 -1.05,-1.7 -1.1,-1.6 h -1.2 -1.25 m 79,3 -1.45,0.5 -1.4,0.4 1.1,1.2 1.15,1.15 1.9,-0.9 2,-0.85 -1.65,-0.8 -1.65,-0.7"
         fill="#000000"
         fill-opacity="0.8"
         fill-rule="evenodd"
         stroke="none"
         id="path621" /></g></g></svg>
