<?xml version="1.0" encoding="UTF-8" standalone="no"?>
<svg
   height="512"
   width="512"
   version="1.1"
   id="svg33"
   sodipodi:docname="halberd.svg"
   inkscape:export-filename="halberd.png"
   inkscape:export-xdpi="96"
   inkscape:export-ydpi="96"
   inkscape:version="1.2.1 (9c6d41e410, 2022-07-14)"
   xmlns:inkscape="http://www.inkscape.org/namespaces/inkscape"
   xmlns:sodipodi="http://sodipodi.sourceforge.net/DTD/sodipodi-0.dtd"
   xmlns:xlink="http://www.w3.org/1999/xlink"
   xmlns="http://www.w3.org/2000/svg"
   xmlns:svg="http://www.w3.org/2000/svg">
  <sodipodi:namedview
     id="namedview35"
     pagecolor="#ffffff"
     bordercolor="#000000"
     borderopacity="0.25"
     inkscape:showpageshadow="2"
     inkscape:pageopacity="0.0"
     inkscape:pagecheckerboard="true"
     inkscape:deskcolor="#d1d1d1"
     showgrid="false"
     inkscape:zoom="1.4183568"
     inkscape:cx="41.597432"
     inkscape:cy="238.65645"
     inkscape:window-width="2560"
     inkscape:window-height="1351"
     inkscape:window-x="2391"
     inkscape:window-y="-9"
     inkscape:window-maximized="1"
     inkscape:current-layer="layer1" />
  <defs
     id="defs31">
    <g
       id="shape0">
      <path
         d="M 100,100 H 0 V 0 h 100 v 100"
         fill="#00cc66"
         fill-opacity="0"
         fill-rule="evenodd"
         stroke="none"
         id="path8" />
      <path
         d="M 84.3,84.3 V 15.7 H 15.7 v 68.6 h 68.6 m 7.95,7.95 H 7.75 V 7.75 h 84.5 v 84.5"
         fill="#666666"
         fill-opacity="0"
         fill-rule="evenodd"
         stroke="none"
         id="path10" />
      <path
         d="M 84.3,84.3 H 15.7 V 15.7 H 84.3 V 84.3 M 76.4,76.4 V 23.55 H 23.55 V 76.4 H 76.4"
         fill="#999999"
         fill-opacity="0"
         fill-rule="evenodd"
         stroke="none"
         id="path12" />
      <path
         d="M 92.25,92.25 V 7.75 H 7.75 v 84.5 h 84.5 m 3.8,3.8 H 3.95 V 3.95 h 92.1 v 92.1"
         fill="#333333"
         fill-opacity="0"
         fill-rule="evenodd"
         stroke="none"
         id="path14" />
      <path
         d="M 68.85,68.85 V 31.1 H 31.1 V 68.85 H 68.85 M 76.4,76.4 H 23.55 V 23.55 H 76.4 V 76.4"
         fill="#cccccc"
         fill-opacity="0"
         fill-rule="evenodd"
         stroke="none"
         id="path16" />
      <path
         d="M 68.85,68.85 H 31.1 V 31.1 h 37.75 v 37.75"
         fill="#ffffff"
         fill-opacity="0"
         fill-rule="evenodd"
         stroke="none"
         id="path18" />
      <path
         d="M 96.05,96.05 V 3.95 H 3.95 v 92.1 h 92.1 M 100,100 H 0 V 0 h 100 v 100"
         fill="#000000"
         fill-opacity="0"
         fill-rule="evenodd"
         stroke="none"
         id="path20" />
      <path
         d="M 0,50 H 50 L 0,0 M 50,50 V 0 m 0,100 V 50 L 0,100 M 100,50 H 50 l 50,50 M 50,50 100,0"
         fill="none"
         stroke="#000000"
         stroke-linecap="round"
         stroke-linejoin="round"
         stroke-opacity="0"
         stroke-width="0.05"
         id="path22" />
    </g>
    <g
       id="sprite0">
      <use
         height="115.4"
         width="115.2"
         xlink:href="#shape1"
         id="use25" />
    </g>
    <g
       id="shape1">
      <path
         d="m 115.35,105.8 q 0,0 -2.7,-2.7 -2.7,-2.7 -2.7,-2.7 0,0 5.4,5.4 l -9.45,9.45 Q 90.6,99.9 69.4,78.95 41.7,51.6 33.5,43.5 33.45,43.45 33.35,43.7 33.2,43.9 33,44.35 q -0.2,0.45 -0.35,1.05 -0.25,0.7 -0.45,1.45 -0.2,0.85 -0.35,1.7 -0.2,1 -0.3,1.95 -0.15,1.05 -0.15,2.05 -0.05,1.1 0.05,2.1 0.1,1 0.4,2.2 0.35,1.1 0.85,2.3 0.45,1.1 1.1,2.25 0.55,1.05 1.25,2.15 0.55,0.9 1.2,1.85 0.5,0.75 1,1.5 0.4,0.5 0.75,0.95 0.1,0.2 0.25,0.35 -0.8,0.45 -2.35,0.55 -1.4,0.05 -3.4,-0.2 Q 30.65,68.3 28.35,67.8 26.25,67.3 23.9,66.6 21.7,65.95 19.55,65.2 17.45,64.45 15.65,63.7 13.85,62.95 12.6,62.3 11.3,61.6 10.8,61.15 10.25,60.6 9.65,59.45 9,58.35 8.35,56.8 7.75,55.25 7.15,53.45 6.55,51.6 6.05,49.7 5.55,47.75 5.25,45.9 4.9,44 4.8,42.4 q -0.1,-1.75 0.1,-3 0.2,-1.35 0.7,-2.1 0,0 0.3,0.25 0.4,0.3 0.9,0.6 0.65,0.45 1.3,0.9 0.85,0.5 1.7,0.95 1,0.55 2,0.95 1.1,0.45 2.1,0.75 1.15,0.35 2.25,0.5 1.15,0.15 2.2,0 0.9,-0.1 1.85,-0.3 0.85,-0.2 1.8,-0.5 0.85,-0.3 1.7,-0.65 0.75,-0.3 1.5,-0.7 0.65,-0.3 1.25,-0.65 0.55,-0.3 0.95,-0.6 0.4,-0.25 0.6,-0.45 0.15,-0.15 0.1,-0.2 -1.7,-1.75 -5.7,-5.7 L 13.15,31.4 0,0 l 30.9,14.95 1.45,7.9 6.5,6.45 13.8,-9.85 -9.1,14.55 71.8,71.8"
         fill="#ffffff"
         fill-rule="evenodd"
         stroke="none"
         id="path28" />
    </g>
  </defs>
  <g
     inkscape:groupmode="layer"
     id="layer1"
     inkscape:label="Layer 1">
    <path
       d="m 486.16942,447.9885 q 0,0 -10.79461,-10.7946 -10.7946,-10.7946 -10.7946,-10.7946 0,0 21.58921,21.5892 l -37.78111,37.78111 Q 387.21889,424.4003 302.46127,340.64217 191.71664,231.29685 158.93303,198.91304 q -0.1999,-0.1999 -0.5997,0.7996 -0.5997,0.7996 -1.3993,2.5987 -0.7996,1.7991 -1.3993,4.1979 -0.9995,2.7986 -1.7991,5.7971 -0.7996,3.3983 -1.3993,6.7966 -0.7996,3.99801 -1.1994,7.79611 -0.5997,4.1979 -0.5997,8.1959 -0.1999,4.3978 0.1999,8.3958 0.3998,3.998 1.5992,8.7956 1.3993,4.3978 3.3983,9.19541 1.7991,4.3978 4.3978,8.9955 2.1989,4.1979 4.99751,8.5957 2.1989,3.5982 4.7976,7.3963 1.999,2.9985 3.998,5.997 1.5992,1.999 2.9985,3.7981 0.3998,0.7996 0.9995,1.3993 -3.1984,1.7991 -9.3953,2.1989 -5.59721,0.1999 -13.59321,-0.7996 -7.3963,-0.9995 -16.5917,-2.9985 -8.3958,-1.999 -17.79111,-4.7976 -8.7956,-2.5987 -17.3913,-5.5972 -8.395803,-2.9985 -15.592204,-5.997 -7.196402,-2.9985 -12.193903,-5.5972 -5.197402,-2.7986 -7.196402,-4.5977 -2.198901,-2.1989 -4.597701,-6.7966 -2.598701,-4.39781 -5.197402,-10.59471 -2.3988,-6.1969 -4.797601,-13.3933 -2.3988,-7.3963 -4.397801,-14.9925 -1.999,-7.79611 -3.198401,-15.19241 -1.3993,-7.5962 -1.7991,-13.993 -0.3998,-6.9965 0.3998,-11.994 0.7996,-5.39731 2.798601,-8.39581 0,0 1.1994,0.9995 1.5992,1.1994 3.598201,2.3988 2.5987,1.7991 5.197401,3.59821 3.398301,1.999 6.796602,3.7981 3.998001,2.1989 7.996002,3.7981 4.397801,1.7991 8.395802,2.9985 4.597701,1.3993 8.995502,1.999 4.597701,0.5997 8.795602,0 3.598202,-0.3998 7.396302,-1.1994 3.3983,-0.7996 7.1964,-1.999 3.3983,-1.1994 6.7966,-2.5987 2.9985,-1.1994 5.99701,-2.7986 2.5987,-1.1994 4.9975,-2.5987 2.1989,-1.1994 3.7981,-2.39881 1.5992,-0.9995 2.3988,-1.7991 0.5997,-0.5997 0.3998,-0.7996 -6.7966,-6.9965 -22.78861,-22.7886 L 77.573713,150.53723 25,25 l 123.53823,59.770115 5.7971,31.584205 25.98701,25.78711 55.17241,-39.38031 -36.38181,58.17091 287.05648,287.05647"
       fill="#ffffff"
       fill-rule="evenodd"
       stroke="none"
       id="path253"
       style="stroke-width:3.998" />
  </g>
</svg>
