<?xml version="1.0" encoding="UTF-8" standalone="no"?>
<!-- Created with Inkscape (http://www.inkscape.org/) -->

<svg
   width="512"
   height="512"
   viewBox="0 0 512 512"
   version="1.1"
   id="svg5"
   inkscape:version="1.2.1 (9c6d41e410, 2022-07-14)"
   sodipodi:docname="health_potion.svg"
   xml:space="preserve"
   inkscape:export-filename="health_potion.png"
   inkscape:export-xdpi="96"
   inkscape:export-ydpi="96"
   xmlns:inkscape="http://www.inkscape.org/namespaces/inkscape"
   xmlns:sodipodi="http://sodipodi.sourceforge.net/DTD/sodipodi-0.dtd"
   xmlns="http://www.w3.org/2000/svg"
   xmlns:svg="http://www.w3.org/2000/svg"><sodipodi:namedview
     id="namedview7"
     pagecolor="#ffffff"
     bordercolor="#999999"
     borderopacity="1"
     inkscape:pageshadow="0"
     inkscape:pageopacity="0"
     inkscape:pagecheckerboard="true"
     inkscape:document-units="px"
     showgrid="false"
     height="70mm"
     units="px"
     inkscape:zoom="2.0938812"
     inkscape:cx="153.30382"
     inkscape:cy="240.46254"
     inkscape:window-width="2560"
     inkscape:window-height="1351"
     inkscape:window-x="2391"
     inkscape:window-y="-9"
     inkscape:window-maximized="1"
     inkscape:current-layer="layer1"
     inkscape:showpageshadow="2"
     inkscape:deskcolor="#d1d1d1" /><defs
     id="defs2" /><g
     inkscape:label="Layer 1"
     inkscape:groupmode="layer"
     id="layer1"><path
       style="fill:#ffffff;fill-rule:evenodd;stroke-width:0.855176"
       d="m 161.23078,511.57917 c -1.3747,-0.44171 -3.5399,-1.03048 -4.81156,-1.30835 -1.80845,-0.39516 -2.76126,-1.53975 -4.37401,-5.25446 -1.13405,-2.61208 -2.06191,-5.36116 -2.06191,-6.10907 0,-1.9119 -4.58486,-16.23154 -7.89209,-24.64889 -2.24799,-5.72146 -2.69293,-7.84411 -2.33858,-11.15636 0.35244,-3.29456 0.0934,-4.55151 -1.33102,-6.45943 -0.97275,-1.3029 -1.76864,-2.74529 -1.76864,-3.20531 0,-0.46 -1.85569,-5.44297 -4.12377,-11.07323 -2.38219,-5.91353 -5.02469,-14.49998 -6.257,-20.33122 -1.17328,-5.55191 -3.59597,-14.63687 -5.38379,-20.18878 -1.78779,-5.55191 -4.00661,-12.66187 -4.93071,-15.7999 -0.92409,-3.13805 -2.27975,-7.20011 -3.01257,-9.02682 -0.73282,-1.82671 -2.07847,-8.54168 -2.99034,-14.92214 -1.01205,-7.08149 -2.45721,-13.50919 -3.70963,-16.49942 -1.12844,-2.69421 -2.40994,-7.56372 -2.84779,-10.82112 -0.69966,-5.20516 -0.5636,-6.68511 1.12317,-12.218 1.0556,-3.46251 3.11838,-10.64044 4.58397,-15.95097 1.46558,-5.31052 3.34686,-11.43298 4.18061,-13.60546 0.83375,-2.1725 2.7016,-9.08496 4.15077,-15.36104 1.44916,-6.27607 3.01027,-12.79353 3.46911,-14.48325 5.63739,-20.76002 6.87686,-25.51965 7.42901,-28.52762 0.35448,-1.93111 1.4743,-5.68358 2.48851,-8.33884 1.01423,-2.65527 2.18095,-7.15724 2.59272,-10.00437 0.6227,-4.30549 5.44672,-16.42335 8.94644,-22.47323 0.41891,-0.72413 1.0941,-2.49687 1.50042,-3.93934 0.88112,-3.12802 7.51337,-7.65965 16.80815,-11.48451 5.12008,-2.10695 6.56505,-3.18077 9.0184,-6.70191 1.60679,-2.30614 6.07987,-7.27777 9.94018,-11.0481 l 7.01871,-6.85512 -2.1408,-5.66038 c -2.57433,-6.80647 -2.41722,-11.97414 0.53616,-17.63512 1.64383,-3.15076 2.02032,-5.21797 2.13548,-11.7251 0.0767,-4.34499 0.19785,-8.68995 0.2689,-9.65551 0.071,-0.96555 -0.13172,-3.64707 -0.45003,-5.95895 -0.4342,-3.151811 -0.21219,-5.061481 0.88884,-7.633301 0.87879,-2.05326 1.21777,-4.06539 0.8446,-5.01322 -0.34295,-0.87082 -0.91264,-4.15079 -1.26608,-7.28883 -0.35325,-3.13804 -1.22901,-7.28552 -1.94575,-9.21661 -2.01958,-5.44136 -1.77716,-15.04011 0.49828,-19.73247 2.9098,-6.00045 6.57247,-8.51901 14.36439,-9.87733 l 6.65781,-1.16062 1.03125,-14.21496 c 0.71953,-9.91821 1.4772,-15.20591 2.50678,-17.49331 2.07375,-4.6072503 7.62109,-8.8212903 12.51208,-9.5048303 2.17806,-0.30435 5.83471,-0.95321 8.12587,-1.44182003 5.16143,-1.10074 48.08155,-0.48984 57.63282,0.82029003 3.74601,0.51388 7.62355,1.39247 8.61677,1.9525 0.99325,0.56005 2.79325,3.25604 4.00007,5.99112 1.9983,4.5289503 2.23312,6.2257803 2.63068,19.0085003 l 0.43665,14.03563 3.89009,0.58421 c 6.96716,1.04622 13.12403,3.37646 16.03442,6.06869 3.03311,2.80577 6.3196,11.16811 6.3196,16.08004 0,3.84827 -2.92668,9.56995 -5.81433,11.36709 -2.39068,1.48785 -2.51715,1.85365 -2.51715,7.28016 0,3.14249 -0.37099,6.44429 -0.8248,7.33733 -0.62435,1.22914 -0.32316,2.54822 1.23968,5.42836 2.30516,4.248191 2.80707,11.268071 1.08957,15.239461 -0.79625,1.84115 -0.76347,2.6823 0.16434,4.21071 0.65492,1.07928 1.22684,4.5823 1.31481,8.05437 0.0859,3.37943 0.79859,7.92189 1.58428,10.09439 2.71229,7.49985 -0.15785,17.99672 -5.40025,19.74969 -0.91677,0.30658 -1.66683,0.85315 -1.66683,1.21463 0,0.36152 2.49238,3.59359 5.53861,7.18247 6.79496,8.00534 13.60151,12.7992 22.83269,16.08107 16.07488,5.71492 18.10596,8.02332 21.20834,24.10392 1.13004,5.85716 3.37146,14.2 4.981,18.53964 1.60953,4.33963 2.92643,8.12879 2.92643,8.42036 0,0.29156 1.13506,3.25479 2.52238,6.58497 2.28907,5.49477 6.64224,21.45162 6.64224,24.34758 0,0.65007 2.10088,6.5841 4.66865,13.18672 2.56782,6.60262 6.48775,17.73225 8.71101,24.73247 2.22321,7.00025 5.03724,15.26455 6.25334,18.36513 3.16584,8.07184 2.62736,18.48468 -1.66042,32.10682 -1.67157,5.31053 -3.57385,12.0255 -4.22729,14.92215 -3.84395,17.0403 -9.11636,36.00315 -12.56884,45.2053 -0.63396,1.68971 -2.12491,7.02218 -3.31322,11.84994 -1.1883,4.82774 -2.65175,10.55521 -3.25209,12.7277 -0.60039,2.17249 -1.71316,6.31997 -2.47292,9.21662 -0.75975,2.89664 -2.30098,7.38811 -3.425,9.98101 -1.12396,2.59292 -2.0436,5.71819 -2.0436,6.94504 0,1.22687 -0.56231,4.33911 -1.24969,6.91611 -3.24059,12.1497 -3.7016,14.21754 -4.17558,18.72984 -0.74877,7.12914 -2.93774,17.66664 -4.21471,20.28985 -2.93695,6.03302 -11.08664,6.56002 -94.50325,6.11107 -83.56992,-0.44977 -85.62784,-0.4456 -96.22834,0.19498 -5.04054,0.30466 -10.28936,0.19246 -11.66404,-0.24931 z m 32.90928,-13.51392 c 8.01903,0.0184 42.13632,0.18707 75.81624,0.37435 33.67992,0.18734 65.97229,0.0198 71.76077,-0.37134 12.06149,-0.81578 11.78304,-0.60176 12.81159,-9.84895 0.31675,-2.84971 1.29222,-8.65144 2.1672,-12.89273 0.87504,-4.24129 1.35899,-8.68502 1.07556,-9.87495 -0.51159,-2.14752 -0.59622,-2.16511 -11.4643,-2.38293 -16.06645,-0.322 -33.00235,0.22665 -36.52928,1.18353 -3.59587,0.97556 -109.07276,1.37235 -110.54173,0.41585 -0.97134,-0.63254 -27.49526,-2.38042 -39.25505,-2.5869 l -6.2486,-0.10975 -0.24884,2.68026 c -0.13684,1.47416 0.55063,4.63414 1.52771,7.02219 2.34768,5.73771 7.468,22.37498 7.46867,24.26764 0.001,2.76215 2.5029,3.45051 9.99826,2.75086 3.89497,-0.36357 13.64275,-0.64585 21.6618,-0.62722 z m 116.6404,-40.27289 c 5.72789,-0.57001 17.68103,-0.93483 26.56252,-0.81082 l 16.14821,0.22549 -0.49945,-2.63098 c -0.33749,-1.77723 -0.0809,-3.07186 0.79019,-3.98966 1.36737,-1.44059 2.17979,-1.20431 4.98771,1.45059 1.39174,1.31592 1.92207,1.42384 2.59342,0.52776 1.67186,-2.23155 7.57624,-21.69247 11.39375,-37.55402 1.10384,-4.58636 3.40811,-12.48633 5.12067,-17.55546 2.84625,-8.425 6.36204,-21.4867 10.39581,-38.62201 0.85238,-3.62081 2.75912,-10.33577 4.2372,-14.92214 3.58683,-11.12966 3.76979,-18.58366 0.62476,-25.45541 -1.21525,-2.65527 -2.65205,-6.60525 -3.19294,-8.77774 -1.33816,-5.37455 -4.88872,-16.34681 -6.675,-20.62766 -4.00708,-9.603 -9.03549,-24.13501 -9.5675,-27.64984 -0.94046,-6.21349 -3.44575,-15.25842 -5.76351,-20.80808 -5.24256,-12.55287 -12.11275,-35.31667 -12.14719,-40.24882 -0.01,-1.47674 -0.48751,-3.32366 -1.06017,-4.10426 -0.57282,-0.78064 -5.43237,-3.16871 -10.79902,-5.30691 -5.36666,-2.13819 -11.86832,-5.22874 -14.44808,-6.86789 -6.01945,-3.82467 -24.22217,-24.25618 -25.17778,-28.2607 -0.47365,-1.98566 -1.5295,-3.2561 -3.6037,-4.337 -2.62061,-1.36562 -4.08355,-1.43491 -13.7145,-0.64959 -5.97682,0.48736 -18.03954,0.62154 -27.06999,0.30104 -18.52646,-0.65744 -22.45222,-0.23941 -22.45222,2.39088 0,0.9629 -0.71372,3.22465 -1.58605,5.0261 -1.72298,3.55822 -2.3886,5.83034 -1.74089,5.94243 1.72974,0.29941 4.15925,2.4569 4.15541,3.6903 -0.0191,6.56547 -9.56336,22.35757 -17.08784,28.27729 -6.54144,5.14631 -6.96114,6.19916 -7.56558,18.97969 -0.46239,9.77799 -0.96687,12.72503 -3.73733,21.83675 -2.98539,9.81857 -4.88852,19.19746 -6.66647,32.85353 -0.40417,3.10341 -1.69821,8.7786 -2.87596,12.61153 -1.17769,3.83294 -2.46922,9.39124 -2.87008,12.35178 -0.40069,2.96055 -1.33249,9.84019 -2.07034,15.28812 -1.69131,12.48704 -2.36117,14.44291 -4.82068,14.07488 -1.55453,-0.2326 -1.91665,-0.91102 -2.12833,-3.98699 -0.299,-4.3453 3.65048,-32.47962 5.20061,-37.04641 2.31696,-6.82604 3.0413,-9.7527 3.73979,-15.11028 1.42585,-10.93628 3.38981,-21.47176 5.13114,-27.52506 4.60506,-16.00851 4.92934,-17.66731 4.92934,-25.21699 0,-4.23472 -0.32419,-7.69949 -0.72051,-7.69949 -0.814,0 -3.05759,9.19563 -4.17621,17.11657 -1.13237,8.01862 -4.19543,22.97465 -5.59427,27.31562 -2.16865,6.72969 -4.26623,16.37149 -4.84669,22.27854 -0.71865,7.31295 -4.64181,19.80947 -8.66444,27.59904 -4.0644,7.87051 -8.1391,10.51618 -15.21607,9.87971 -8.43137,-0.75829 -14.77876,-5.76511 -16.66504,-13.14539 -2.58824,-10.12693 -0.41161,-41.02063 3.84802,-54.61654 0.60503,-1.93109 1.89484,-7.06607 2.86624,-11.41104 0.97141,-4.34498 2.12309,-9.28245 2.55929,-10.97217 0.43618,-1.68971 1.34477,-6.03468 2.01905,-9.6555 0.77801,-4.17779 2.61496,-9.40063 5.0273,-14.29369 2.09073,-4.24071 3.59568,-8.06096 3.34434,-8.48943 -0.56865,-0.9693 -8.90143,2.41755 -15.01525,6.10288 -4.04624,2.43903 -4.58663,3.09319 -4.5872,5.55306 -3.7e-4,1.53359 -1.12654,5.29576 -2.50265,8.36036 -1.37607,3.06461 -2.71517,7.21209 -2.97575,9.21661 -0.26057,2.00453 -1.53871,7.00209 -2.8403,11.10567 -1.30158,4.10359 -3.34858,11.41105 -4.54888,16.2388 -1.2003,4.82776 -3.0805,11.93772 -4.1782,15.79992 -1.09771,3.86219 -2.80725,10.77466 -3.79899,15.36102 -0.99172,4.58636 -3.2515,13.07882 -5.02172,18.87212 -6.78592,22.20787 -9.9581,33.71581 -9.95747,36.12325 3.6e-4,1.37432 1.06356,4.86874 2.36265,7.7654 1.29909,2.89665 2.632,7.43911 2.962,10.09439 2.13997,17.21849 4.45487,26.35545 12.23136,48.27751 2.2061,6.21904 4.95477,17.22128 6.24982,25.01653 0.32084,1.9311 1.26148,5.09108 2.09036,7.02218 3.36587,7.84173 7.42898,18.85636 7.42898,20.13909 0,1.70248 0.39878,1.70668 2.82793,0.0293 2.50873,-1.73184 4.50675,-0.87643 4.83014,2.0679 l 0.25688,2.33831 12.91377,1.08141 c 7.10258,0.59479 24.4427,1.41855 38.53358,1.83061 14.09093,0.41202 25.7756,0.9135 25.96601,1.11431 0.76298,0.80484 66.58424,-0.21367 76.30207,-1.18069 z M 165.81308,300.02241 c 0,-4.27492 -0.0635,-4.38886 -2.45804,-4.38886 -4.57322,0 -5.13853,-5.16138 -0.77396,-7.06609 1.94934,-0.85069 2.33227,-1.44012 1.90002,-2.92462 -0.2977,-1.02258 -0.58851,-1.87799 -0.64611,-1.90094 -4.1196,-1.63982 -4.78116,-2.30705 -4.53346,-4.57237 0.19417,-1.77614 1.0525,-2.7951 3.28324,-3.89787 2.71304,-1.34117 3.15204,-2.05573 4.31521,-7.02383 3.75622,-16.04333 3.79847,-18.25848 0.34821,-18.25848 -2.18951,0 -4.36866,-1.53357 -4.98911,-3.51109 -0.28836,-0.91902 -0.69476,-0.57042 -1.34556,1.15436 -1.63933,4.34426 -1.18479,6.31177 1.77527,7.6844 5.28775,2.45204 3.39542,8.30738 -2.47304,7.65218 -3.31715,-0.37032 -3.62306,2.41331 -0.34118,3.10484 3.39139,0.71459 4.32395,3.8597 1.78634,6.02459 -1.02543,0.87484 -2.3708,1.5906 -2.98972,1.5906 -1.87716,0 -3.09168,6.84408 -2.49225,14.04436 0.83081,9.97954 1.81226,12.98437 4.88593,14.95889 4.10853,2.6393 4.74824,2.27957 4.74824,-2.67007 z m 12.17461,-1.28184 2.30351,-4.79294 -2.33582,-2.2807 c -2.33154,-2.27654 -2.33801,-2.27741 -3.53715,-0.47372 -0.66072,0.99386 -1.86741,1.80701 -2.68152,1.80701 -2.31407,0 -2.59138,0.87743 -0.85533,2.70646 0.87828,0.92532 1.59687,2.44009 1.59687,3.36616 0,5.90134 2.58858,5.74523 5.50944,-0.33224 z m 6.09475,-15.70055 c 1.91903,-5.40854 1.91705,-5.8397 -0.0252,-5.8397 -1.02582,0 -2.54295,-0.64632 -3.37136,-1.43614 -1.2256,-1.16856 -1.56519,-1.20944 -1.82254,-0.21936 -0.17404,0.66912 -0.74417,2.62723 -1.2671,4.35122 -1.31863,4.34717 -1.20769,5.40684 0.50722,4.84463 0.8019,-0.26289 2.00248,-0.11814 2.66795,0.32186 1.50321,0.99367 2.44678,0.41762 3.31249,-2.02237 z m 1.10127,-12.84991 c 0.88698,-0.007 1.45801,-0.68333 1.45801,-1.72622 0,-0.94283 0.43966,-2.73104 0.97717,-3.97379 1.10942,-2.56526 0.51897,-3.47319 -2.79231,-4.29404 -2.10766,-0.52245 -2.30458,-0.28938 -3.54089,4.19119 -1.74964,6.34084 -1.69251,6.98165 0.56544,6.34414 1.031,-0.29115 2.53066,-0.53467 3.33257,-0.54129 z m -8.8211,-17.78688 c -0.2311,-0.60353 -0.42021,-0.10975 -0.42021,1.09722 0,1.20694 0.18911,1.70069 0.42021,1.09721 0.23109,-0.60353 0.23109,-1.59096 0,-2.19443 z m 14.73925,-1.75554 c 0.69596,-2.05181 1.50094,-5.252 1.78885,-7.11156 0.5232,-3.37889 0.52231,-3.38014 -1.38182,-1.97499 -1.04793,0.77334 -2.55854,1.40603 -3.35695,1.40603 -1.84348,0 -2.81408,1.9868 -3.53763,7.24163 l -0.57411,4.16942 h 2.89811 c 2.6557,0 3.00405,-0.3121 4.16355,-3.73053 z m -12.37241,-4.85855 c 1.25944,-8.4901 1.26342,-8.55744 0.4256,-7.21083 -0.45058,0.72413 -0.82498,2.57469 -0.83199,4.11228 -0.007,1.53759 -0.38656,3.83139 -0.84339,5.09736 -0.51152,1.4176 -0.52395,2.10205 -0.0321,1.78189 0.43912,-0.2859 1.01603,-1.98722 1.28207,-3.7807 z m -7.2335,-5.75924 c 0.60052,-2.40903 0.46587,-2.80712 -1.03839,-3.06773 -3.78202,-0.65526 -5.97374,-4.90659 -3.59971,-6.98239 0.57459,-0.50245 2.35241,-1.04456 3.95062,-1.20471 3.82974,-0.38369 4.14712,-2.52909 0.62742,-4.24113 -1.74862,-0.85056 -2.80637,-2.05834 -2.98801,-3.41182 -0.3478,-2.59188 1.03559,-3.57952 5.03832,-3.59692 2.92911,-0.013 3.14039,-0.20864 4.03723,-3.74398 0.52046,-2.0518 1.79291,-6.75579 2.82759,-10.45331 l 1.88122,-6.7228 -3.13854,-0.31531 c -2.94679,-0.296 -3.23814,-0.0993 -4.76865,3.21963 l -1.63011,3.53497 1.97451,1.56914 c 2.10698,1.67445 2.65528,5.32917 0.96465,6.43002 -0.55548,0.36165 -2.23264,0.57076 -3.72712,0.46477 -2.22894,-0.15813 -2.78932,0.1668 -3.11832,1.80813 -0.22058,1.10051 -0.81106,3.9759 -1.31214,6.38978 -0.50115,2.41387 -1.43622,6.95635 -2.07808,10.09438 -0.64188,3.13804 -1.56097,7.08542 -2.0425,8.77195 -1.34086,4.69644 -1.22303,4.85884 3.2867,4.52959 3.87815,-0.2831 4.21046,-0.49351 4.85329,-3.0722 z m 23.36223,-7.30351 c 1.23311,-6.4691 1.23701,-6.4369 -0.77291,-6.4369 -0.94658,0 -2.4041,-0.38513 -3.23892,-0.85585 -1.31729,-0.74273 -1.64033,-0.34336 -2.4447,3.02201 -1.29978,5.43855 -1.17445,6.61156 0.70662,6.61156 0.89842,0 2.11687,0.57745 2.70775,1.28327 1.70812,2.04045 2.03703,1.64863 3.04214,-3.62409 z m -13.4711,-5.32298 c -0.21117,-0.85405 -0.39817,-0.36779 -0.41496,1.08051 -0.0143,1.44832 0.15595,2.14708 0.38383,1.5528 0.22843,-0.59424 0.24222,-1.77927 0.03,-2.63331 z m 16.39547,-10.54998 c 0.29108,-1.81042 0.74295,-4.47665 1.00405,-5.92498 0.47078,-2.61055 0.44212,-2.6335 -3.31051,-2.65576 -4.13423,-0.0239 -3.80324,-0.52415 -5.16652,7.79883 -0.51725,3.15787 -0.4357,3.34763 1.20444,2.79923 0.96761,-0.32357 2.4229,-0.18127 3.23409,0.31627 2.24704,1.37827 2.46444,1.21108 3.03445,-2.33365 z m 4.49965,-16.45825 1.6165,-4.38886 -3.6759,-1.86967 -3.67594,-1.86966 -1.18135,1.89957 c -0.64979,1.04477 -1.28501,2.87234 -1.41172,4.06126 -0.17765,1.66574 0.20079,2.22686 1.64961,2.44577 1.03395,0.15622 2.53362,1.20505 3.33256,2.33073 0.79899,1.12567 1.515,1.98661 1.59119,1.91321 0.0759,-0.0737 0.86596,-2.10847 1.75505,-4.52235 z m 18.61848,-12.54748 c 2.00703,-2.35489 4.19803,-5.43255 4.86888,-6.83923 0.67082,-1.40668 1.91872,-3.64961 2.77313,-4.98428 0.85436,-1.33467 1.36608,-2.91465 1.13719,-3.51109 -0.26351,-0.68679 -0.44014,-0.57036 -0.48204,0.31735 -0.0348,0.77103 -3.81494,5.33802 -8.3972,10.14892 -8.43207,8.85274 -10.86661,13.13653 -5.9404,10.45263 1.31512,-0.71651 4.03328,-3.22943 6.04032,-5.58433 z m -28.44931,-2.16988 c 1.48989,-2.52651 3.8064,-5.97613 5.14792,-7.66584 1.34146,-1.68972 4.11558,-5.34345 6.16466,-8.11941 l 3.72557,-5.04719 h -3.28791 c -1.80834,0 -4.31808,-0.41263 -5.57714,-0.91698 -1.99367,-0.7986 -2.56545,-0.61554 -4.42826,1.41783 -1.6696,1.82242 -1.87515,2.43738 -0.93667,2.8022 0.66133,0.25709 2.0818,1.39389 3.15662,2.52627 1.58664,1.67163 1.78687,2.38826 1.0647,3.80994 -1.45919,2.87256 -4.63165,3.14359 -8.15374,0.69664 -3.42148,-2.37708 -5.18482,-2.29075 -5.18482,0.25388 0,1.0312 0.77001,1.8693 2.02154,2.20022 2.84054,0.75115 4.90334,3.39836 4.27452,5.48564 -0.65731,2.18182 -3.11536,2.8743 -6.53503,1.84102 -1.46635,-0.44314 -3.13717,-0.80557 -3.71299,-0.80557 -1.82891,0 -1.12759,3.41494 1.00347,4.88604 1.12767,0.77848 2.27033,2.14563 2.53919,3.03811 0.47221,1.56763 0.5825,1.56446 3.24918,-0.0932 1.51822,-0.94373 3.97936,-3.78303 5.46919,-6.30951 z m 14.78726,-2.47917 c -2.92891,-2.57613 -3.852,-2.54323 -5.47516,0.19499 -0.9788,1.65129 -0.80877,2.08878 1.68425,4.33324 l 2.77293,2.49652 1.83897,-2.3426 1.83898,-2.34259 z m 16.58848,-15.0706 c 2.00131,-3.26367 3.63878,-6.27883 3.63878,-6.70037 0,-0.42157 -0.77767,-0.98067 -1.72815,-1.24254 -0.95043,-0.26187 -1.93146,-1.29542 -2.18004,-2.2968 -0.59069,-2.37961 -2.3328,-2.31662 -3.96829,0.14346 -1.21535,1.82803 -1.18145,2.06302 0.48852,3.39011 1.36979,1.08859 1.66451,1.97055 1.2459,3.72798 -0.56299,2.36314 -2.49474,3.27369 -6.24159,2.94201 -1.3878,-0.12278 -2.73795,0.81781 -4.57185,3.18521 -2.52533,3.25991 -2.55341,3.39007 -0.94668,4.38886 0.91076,0.56612 2.78063,1.24907 4.1553,1.51765 3.21583,0.62837 5.33281,-1.26822 10.10813,-9.05559 z m -11.42582,-10.6279 c 0.95383,-1.626 1.73423,-3.20599 1.73423,-3.51109 0,-0.7093 -8.60088,-0.72757 -10.34616,-0.0218 -2.10711,0.85191 -1.56094,2.97831 0.76499,2.97831 1.14558,0 2.73899,0.75708 3.5409,1.68241 2.01222,2.32194 2.33151,2.23833 4.30604,-1.12768 z m -2.76667,-11.96577 c 0.18557,-3.00079 0.41052,-3.49195 2.01727,-4.39778 1.30277,-0.73454 2.24219,-0.5999 4.16576,0.59725 1.36598,0.85014 2.48363,1.78005 2.48363,2.06647 0,0.28638 0.49829,1.23874 1.10738,2.11631 1.65682,2.38721 4.72462,0.42915 4.72462,-3.01557 0,-5.17891 5.39018,-5.36323 7.39846,-0.25307 l 0.96182,2.44742 h 17.76476 17.7647 l -0.0751,-2.95424 c -0.10558,-4.1689 1.85714,-5.3264 5.73128,-3.37999 1.63891,0.8234 3.33697,2.4867 3.77345,3.69622 0.70161,1.94427 1.27871,2.19912 4.97991,2.19912 4.56868,0 4.67018,-0.0853 3.15099,-2.64825 -1.35213,-2.28111 0.0191,-4.71489 2.85883,-5.07683 1.53928,-0.19614 2.85583,0.65015 5.12098,3.29166 3.16317,3.68879 7.09959,5.01373 6.0001,2.01954 -0.31039,-0.84485 -0.77856,-2.65629 -1.04072,-4.02542 -0.26201,-1.36912 -0.89201,-2.62118 -1.39969,-2.78233 -0.50763,-0.16114 -8.52716,-0.5434 -17.82125,-0.84944 l -16.89831,-0.55636 0.49091,2.0605 c 0.34097,1.43075 -0.03,2.55923 -1.22066,3.6924 -1.66264,1.58525 -1.80839,1.58594 -5.09671,0.0239 -1.86183,-0.88453 -3.76248,-2.35109 -4.22368,-3.25904 -1.14903,-2.26196 -5.42552,-1.82509 -5.04524,0.51542 0.32616,2.00624 -2.09684,4.9612 -4.06777,4.9612 -1.38735,0 -5.77692,-4.62536 -5.77692,-6.08725 0,-0.37728 -5.90493,-0.94953 -13.12206,-1.27172 -7.21713,-0.32221 -14.24681,-0.67444 -15.62148,-0.78281 -2.45492,-0.19355 -2.50391,-0.115 -2.75107,4.40483 -0.29013,5.30228 -2.13296,7.20147 -5.27142,5.43186 -1.57426,-0.88766 -1.7217,-1.53311 -1.30989,-5.73641 0.51364,-5.24367 -0.86003,-6.55743 -2.61449,-2.50047 -1.39075,3.21588 -1.19354,5.70075 0.71429,8.99744 1.63973,2.83356 1.78396,2.88885 6.8703,2.63331 3.90706,-0.19629 5.21561,-0.58756 5.2768,-1.57766 z m 97.45274,-0.84904 c 0.44307,-0.46697 2.29904,-1.17374 4.12406,-1.5706 2.80229,-0.60933 3.35996,-1.09974 3.58669,-3.15401 0.38533,-3.48942 -1.16537,-4.95963 -5.23052,-4.95963 -4.35805,0 -4.70384,0.35988 -3.58732,3.73416 0.8171,2.46964 0.6832,2.88628 -1.52606,4.74878 l -2.42176,2.04162 2.12452,0.004 c 1.16848,0.002 2.48714,-0.37769 2.93039,-0.84467 z M 251.9139,126.88171 c -0.36213,-1.08625 -0.66877,-3.55499 -0.68106,-5.48609 -0.0191,-3.01816 0.25061,-3.5518 1.92094,-3.80107 2.11741,-0.316 5.13844,2.0244 5.13844,3.98071 0,0.67334 0.572,2.38957 1.27115,3.81393 1.22078,2.48721 1.49808,2.58973 7.00511,2.58973 h 5.73405 l -1.29362,-4.26205 c -1.50942,-4.97296 -0.93359,-8.54743 1.50849,-9.36404 2.13306,-0.71331 4.9321,1.73305 4.94976,4.32608 0.0253,3.28129 2.26219,8.75331 3.85259,9.41214 2.13553,0.88468 17.79668,0.93365 17.79668,0.0553 0,-0.39052 -0.55043,-1.47675 -1.22325,-2.41388 -1.80636,-2.51615 -1.62108,-7.15316 0.32958,-8.25313 0.88327,-0.49801 2.10172,-0.70265 2.70774,-0.45467 1.63891,0.67061 4.85094,7.0217 4.85094,9.59173 0,3.24214 2.07182,2.8098 4.4881,-0.93655 2.35516,-3.65155 2.19771,-4.60603 -1.19605,-7.24951 -1.35241,-1.05346 -2.45891,-2.47364 -2.45891,-3.15597 0,-2.47787 -3.51934,-3.97347 -9.35,-3.97347 -6.18366,0 -6.66607,0.57185 -4.81338,5.70585 1.10646,3.06604 -0.24719,5.7052 -2.92623,5.7052 -2.62954,0 -4.65538,-3.25311 -5.20081,-8.35151 l -0.42144,-3.93732 h -8.22312 -8.22312 v 2.45776 c 0,2.97458 -1.35371,4.56443 -3.88648,4.56443 -2.0293,0 -3.61185,-2.28231 -3.61185,-5.20894 0,-1.69215 -0.47917,-1.81325 -7.17632,-1.81325 h -7.17633 l 0.50962,3.73053 c 0.63601,4.65583 -0.224,6.149 -3.32685,5.77582 -2.24783,-0.27026 -2.42635,-0.5765 -2.66749,-4.57516 l -0.25853,-4.28543 -4.32385,0.54728 c -2.3781,0.30099 -6.47961,0.55071 -9.11444,0.55494 -4.48673,0.008 -4.79063,0.14005 -4.79063,2.09458 0,4.49256 -5.01228,5.15781 -6.84968,0.90912 -0.8318,-1.92349 -1.41493,-2.11831 -6.34046,-2.11831 -7.04463,0 -8.47161,1.25012 -8.47161,7.42158 0,4.988 0.98888,6.6228 4.0061,6.6228 1.74187,0 1.93524,-0.29934 1.46601,-2.26909 -0.67465,-2.83205 0.03,-5.30955 1.70171,-5.98552 2.27916,-0.92147 4.45061,1.16711 5.41693,5.21027 l 0.9374,3.9221 6.77452,6e-4 6.77453,6e-4 -0.27634,-4.66209 c -0.20331,-3.43198 0.0687,-4.96362 1.03086,-5.80492 1.57994,-1.38146 3.68729,-0.68031 4.35035,1.44752 0.26692,0.8558 1.0995,3.21745 1.85073,5.2481 1.50015,4.0551 1.37931,4.01678 14.13737,4.48438 4.25951,0.15616 4.40477,0.0863 3.77151,-1.81261 z m -27.23391,-21.36023 9.29472,-0.51173 -0.68643,-2.52169 c -0.37748,-1.38693 -0.486,-3.328831 -0.24126,-4.315361 0.41748,-1.68127 0.0767,-1.79367 -5.43607,-1.79367 h -5.88129 l -0.25607,3.730551 c -0.21908,3.18858 -0.54982,3.77421 -2.27729,4.03125 -2.35619,0.3506 -5.01316,-2.69877 -5.04213,-5.786811 -0.0143,-1.66823 -0.47173,-1.97499 -2.93452,-1.97499 -2.80748,0 -3.818,1.06463 -2.08288,2.19443 1.25846,0.81943 0.99853,4.468201 -0.40561,5.696071 -1.68025,1.46921 -5.19059,0.41904 -5.84344,-1.74812 -0.63902,-2.1213 -2.91539,-2.34503 -2.91539,-0.28658 0,0.80684 0.64468,2.21751 1.43261,3.13482 1.24955,1.45465 2.23452,1.60363 7.7066,1.1656 3.4507,-0.27621 10.45659,-0.73247 15.56874,-1.01389 z m 86.93362,-1.10639 c 0,-0.89072 -0.74022,-2.32531 -1.64502,-3.18797 -0.90478,-0.86265 -1.8673,-2.306361 -2.13902,-3.208241 -0.50607,-1.67996 -4.51275,-2.27237 -7.41979,-1.09708 -1.219,0.49282 -1.21248,0.6427 0.0702,1.63129 0.80126,0.61724 1.41306,2.263821 1.41306,3.802851 0,2.53696 0.22209,2.73571 3.40205,3.04309 1.8711,0.18086 4.05809,0.39783 4.86,0.48225 0.91436,0.0962 1.45801,-0.45051 1.45801,-1.46616 z m -16.66289,-2.15492 c 0,-1.59315 0.42921,-3.348781 0.95363,-3.901381 1.23741,-1.30371 -0.88569,-1.78376 -9.83453,-2.22373 l -6.79802,-0.33415 0.44901,2.91501 c 0.26003,1.687341 0.0253,3.456541 -0.56387,4.200821 -0.87202,1.10708 -0.10504,1.32759 5.51591,1.58634 3.59077,0.16529 7.37226,0.38 8.40331,0.47719 1.59918,0.1507 1.87456,-0.2489 1.87456,-2.72002 z m -39.99103,1.23502 c 0,-0.43106 -0.54709,-1.00505 -1.21574,-1.27538 -0.66864,-0.27027 -1.53483,-1.79383 -1.92489,-3.385561 l -0.70912,-2.89404 -6.05819,-0.25942 c -5.96892,-0.25552 -6.04935,-0.23 -5.4563,1.73858 0.33108,1.09885 1.36949,3.091801 2.30768,4.428761 1.57342,2.24218 2.14638,2.43086 7.3812,2.43086 3.12142,0 5.67532,-0.35271 5.67532,-0.78385 z m 19.16237,0.28836 c 0,-0.27252 -1.10472,-1.4749 -2.45492,-2.67187 -1.3502,-1.196981 -2.68767,-2.948971 -2.97217,-3.893321 -0.42977,-1.42656 -1.2828,-1.717 -5.04341,-1.717 -2.48936,0 -4.52616,0.17895 -4.52616,0.39756 0,0.21867 0.42976,1.39195 0.95566,2.60732 0.71477,1.652781 0.71662,2.513201 0.005,3.413711 -0.52163,0.66215 -0.70178,1.46387 -0.40022,1.78154 0.66687,0.70257 14.43396,0.7808 14.43396,0.082 z m 31.14516,-14.387421 c 1.15145,-0.46123 2.70712,-1.82517 3.45702,-3.03101 1.2708,-2.04336 1.26152,-2.37423 -0.13623,-4.86692 -1.38376,-2.468 -1.85562,-2.67462 -6.11054,-2.67594 l -4.61092,-0.001 v 4.06692 c 0,7.49153 -4.96767,7.67218 -6.68354,0.2431 l -0.89344,-3.86827 -18.1514,-0.23676 -18.1514,-0.23675 0.54183,2.59915 c 0.72155,3.46115 -0.81696,6.39942 -3.16628,6.04704 -1.21659,-0.18243 -2.46781,-1.65242 -3.78119,-4.44213 -1.83903,-3.90614 -2.16785,-4.16942 -5.20718,-4.16942 -3.54346,0 -3.84385,0.621 -2.05925,4.25686 0.65171,1.32777 1.12032,3.18439 1.04142,4.12583 -0.13466,1.60662 0.44457,1.7117 9.43767,1.7117 h 9.58121 l -0.27531,-2.89697 c -0.29996,-3.15644 0.97638,-5.44187 3.03962,-5.44187 2.03655,0 5.98388,4.48278 5.98388,6.79561 0,1.93175 0.27927,2.05944 3.95743,1.81075 3.85674,-0.26064 3.9645,-0.3456 4.2338,-3.3362 0.30644,-3.40228 1.42205,-5.27016 3.14779,-5.27016 1.29379,0 5.32387,6.29915 5.32387,8.3214 0,1.10839 1.47089,1.3341 8.69379,1.3341 4.78159,0 9.63588,-0.37735 10.78733,-0.8386 z m -96.13055,-0.88644 c 0,-0.466 -1.12476,-2.19686 -2.49943,-3.84642 -1.37472,-1.64954 -2.49942,-3.63829 -2.49942,-4.41941 0,-2.28235 -1.5159,-1.63954 -2.93059,1.24275 -1.27061,2.58869 -1.23814,2.73559 1.16423,5.26664 2.36621,2.49296 6.76521,3.63507 6.76521,1.75644 z m 12.16994,-1.97378 c -0.62885,-3.31269 -4.33333,-7.71227 -6.49377,-7.71227 -1.79803,0 -1.84229,0.59622 -0.26051,3.51109 0.65485,1.20694 1.20395,3.28068 1.22018,4.60831 0.0252,2.18368 0.31777,2.41388 3.04969,2.41388 2.95599,0 3.00874,-0.0601 2.48463,-2.82101 z m 13.65756,2.5633 c 0,-0.14169 -1.03189,-2.41297 -2.29307,-5.04719 -1.67616,-3.50081 -2.82854,-4.86932 -4.283,-5.08617 -1.64699,-0.24563 -1.88206,-0.0184 -1.36401,1.31665 0.34439,0.88734 0.82065,3.29209 1.05878,5.34388 0.42533,3.66765 0.48696,3.73054 3.6571,3.73054 1.7733,0 3.2242,-0.11596 3.2242,-0.25771 z m 76.44116,-20.13374 c 6.60243,-3.78977 7.51428,-5.69939 4.40202,-9.21896 -2.562,-2.89726 -9.1577,-3.81263 -26.74878,-3.71226 -8.90246,0.0512 -17.49845,-0.006 -19.10227,-0.12558 -7.65061,-0.57186 -65.29428,0.99064 -68.33114,1.85217 -2.22375,0.63083 -3.70397,1.68069 -4.29425,3.04564 -1.34684,3.11432 -0.16039,7.9708 2.46149,10.07518 2.23564,1.7944 2.87649,1.8144 53.91755,1.68346 l 51.65507,-0.13247 z m -49.20671,-19.57018 c 6.38217,-0.27525 11.49169,-0.0607 13.75299,0.57588 2.24562,0.63274 5.66863,0.78025 9.10669,0.39237 l 5.50871,-0.62155 0.60223,-14.4877 c 0.65266,-15.70014 0.0784,-19.30529 -3.19747,-20.06054 -6.46575,-1.49086 -17.23912,-2.20243 -33.28064,-2.19818 -17.99771,0.005 -26.46383,0.95424 -23.8257,2.67203 1.88393,1.2267 8.15453,1.6432 31.96054,2.12284 12.3455,0.24872 22.78665,0.81077 23.20255,1.24897 1.30165,1.37137 -0.25265,4.4511 -2.58912,5.13057 -1.22956,0.35758 -4.67256,0.60991 -7.65105,0.5607 -10.21032,-0.16857 -47.90467,-2.10596 -50.92624,-2.61747 l -3.02033,-0.51131 -1.01487,8.64153 c -0.55814,4.75284 -0.88614,11.01152 -0.72882,13.90817 0.28521,5.25498 0.29265,5.26784 3.20206,5.81031 2.86036,0.5333 18.76921,0.30152 38.89849,-0.56661 z"
       id="path303" /><path
       style="fill:#ffffff;fill-rule:evenodd;stroke-width:0.855176"
       d="m 232.18705,491.6695 c -2.43,-2.56015 2.12522,-6.69685 11.42528,-10.37566 8.55084,-3.38243 6.63183,-5.96345 -5.18671,-6.97593 -6.61491,-0.56674 -9.29344,-1.59524 -9.29344,-3.56866 0,-2.11364 2.93744,-3.07221 9.41444,-3.07221 5.45714,0 6.91135,0.37947 12.26157,3.19941 l 6.07007,3.19941 4.66446,-1.82186 c 2.56544,-1.00204 5.88159,-2.33033 7.36915,-2.95178 2.33586,-0.9758 2.89116,-0.93352 4.07138,0.30999 1.81746,1.91478 0.98476,3.84634 -2.6256,6.09061 -1.63402,1.01574 -2.8393,2.26298 -2.67835,2.77164 0.16087,0.50866 2.51996,1.78129 5.24226,2.82804 9.13605,3.51294 12.86296,6.52528 11.77354,9.51626 -0.73827,2.02708 -3.3083,1.78565 -8.07361,-0.75844 -2.26071,-1.20694 -4.53479,-2.19443 -5.05358,-2.19443 -1.36194,0 -6.694,-2.69264 -9.01397,-4.55198 -2.74397,-2.19916 -4.45821,-2.01563 -10.82459,1.15897 -3.03473,1.51326 -7.77335,3.88325 -10.53031,5.26663 -4.90431,2.46093 -7.89932,3.10235 -9.01199,1.93006 z"
       id="path305" /><path
       style="fill:#ffffff;fill-rule:evenodd;stroke-width:0.855176"
       d="m 206.69566,491.88995 c -0.59916,-0.7606 -1.23858,-5.01819 -1.49769,-9.97284 -0.50627,-9.6799 0.3291,-12.77955 3.32098,-12.31835 2.45285,0.37816 3.22747,4.21626 2.93877,14.56119 -0.22004,7.88927 -0.36957,8.55338 -1.97739,8.79542 -0.95654,0.14394 -2.20969,-0.33545 -2.78467,-1.06542 z"
       id="path307" /><path
       style="fill:#ffffff;fill-rule:evenodd;stroke-width:0.855176"
       d="m 205.13225,451.37071 c -1.02039,-0.753 -1.82758,-2.28159 -1.82758,-3.46083 0,-1.1617 -0.74981,-4.11641 -1.66634,-6.56603 -0.91643,-2.44961 -1.66628,-6.12057 -1.66628,-8.15768 0,-2.03711 -0.39673,-5.08372 -0.88185,-6.77025 -0.48504,-1.68653 -1.19491,-7.21389 -1.57756,-12.28303 -0.78373,-10.38292 -3.02142,-26.14471 -4.34675,-30.61827 -0.48348,-1.63264 -1.23306,-6.57012 -1.66534,-10.97217 -0.43222,-4.40205 -1.11332,-10.96622 -1.51343,-14.58702 -0.40021,-3.62081 -0.75409,-9.23564 -0.78663,-12.47739 -0.0491,-4.88915 0.20529,-6.0432 1.49191,-6.76872 3.42557,-1.93153 4.24066,0.31231 5.55809,15.30102 0.67867,7.72171 1.62469,16.60696 2.10218,19.745 0.47761,3.13804 1.21456,8.47051 1.63786,11.84993 0.42335,3.37943 1.16891,7.72441 1.65696,9.6555 0.48805,1.9311 1.22324,7.46108 1.63381,12.28882 1.34931,15.86451 2.6298,24.47884 4.6737,31.4411 2.40991,8.20928 2.5006,10.39564 0.50982,12.29374 -1.36028,1.29698 -1.6807,1.30526 -3.33258,0.0863 z"
       id="path309" /><path
       style="fill:#ffffff;fill-rule:evenodd;stroke-width:0.855176"
       d="m 165.01312,490.10237 c -1.5326,-1.94558 -0.35039,-4.40677 4.17681,-8.69509 2.26681,-2.14722 4.12145,-4.12328 4.12145,-4.39127 0,-0.75579 -6.86635,-4.81372 -10.05514,-5.94242 -4.2734,-1.5126 -5.90012,-3.26492 -4.88536,-5.26258 1.37348,-2.70382 5.75436,-2.03674 13.26365,2.01966 6.8339,3.69157 10.00834,6.70419 10.00834,9.49819 0,1.68672 -12.77572,14.04805 -14.51897,14.04805 -0.60878,0 -1.55859,-0.57349 -2.11078,-1.27454 z"
       id="path311" /><path
       style="fill:#ffffff;fill-rule:evenodd;stroke-width:0.855176"
       d="m 339.76662,490.76013 c -3.87543,-4.57388 -8.15749,-11.40855 -8.15749,-13.0203 0,-2.85565 4.02829,-6.15861 10.45175,-8.56974 6.27702,-2.3562 8.71062,-2.0311 8.71062,1.16365 0,1.97114 -2.29575,3.61264 -7.37858,5.27593 -3.88397,1.27096 -4.9879,2.69383 -3.51512,4.53064 3.96636,4.94679 5.93165,8.33599 5.72338,9.87006 -0.32616,2.4011 -4.0319,2.87731 -5.83456,0.74977 z"
       id="path313" /><path
       style="fill:#ffffff;fill-rule:evenodd;stroke-width:0.855176"
       d="m 308.26929,493.55647 c -0.92032,-1.16834 -0.92259,-2.77436 -0.0143,-9.47371 0.6021,-4.43678 1.32277,-9.83986 1.6014,-12.00684 0.54777,-4.2596 2.36379,-5.5397 4.81649,-3.39511 1.08533,0.94899 1.21855,2.35154 0.76629,8.06572 -0.54838,6.92746 -1.81599,13.91615 -2.97207,16.38592 -0.87509,1.86942 -2.89901,2.07382 -4.19863,0.42403 z"
       id="path315" /><path
       style="fill:#ffffff;fill-rule:evenodd;stroke-width:0.855176"
       d="m 310.41154,449.82794 c -1.19561,-0.92108 -1.26232,-1.97053 -0.54012,-8.49799 1.14073,-10.31055 2.96669,-21.04806 5.03808,-29.62617 0.96379,-3.99128 2.09067,-9.91624 2.50421,-13.16659 1.96855,-15.473 3.42574,-24.89168 4.59469,-29.69901 0.7029,-2.8905 1.81575,-10.10615 2.47309,-16.03475 0.6573,-5.92862 1.63855,-11.34223 2.18052,-12.03027 1.2787,-1.62328 4.63688,-1.61339 5.23012,0.015 0.25362,0.69647 0.10661,2.57012 -0.32766,4.16363 -0.43372,1.59349 -0.78866,5.1392 -0.78866,7.87935 0,4.65931 -1.38854,12.43417 -3.37333,18.88813 -0.47221,1.53564 -1.18776,6.07813 -1.59009,10.09439 -1.02543,10.2365 -3.12351,23.29887 -5.17298,32.20579 -1.96456,8.53819 -3.77963,18.86507 -4.80243,27.32401 -1.03974,8.59883 -2.43814,10.78558 -5.42562,8.48409 z"
       id="path317" /><path
       style="fill:#ffffff;fill-rule:evenodd;stroke-width:0.427584"
       d="m 330.04118,323.61256 c -0.91075,-0.72862 -1.5557,-2.64653 -1.55925,-4.63687 -0.002,-0.88949 -0.49044,-3.09851 -1.08667,-4.90892 -0.59609,-1.8104 -1.23464,-3.88414 -1.41908,-4.6083 -0.18448,-0.72413 -0.74062,-2.40291 -1.23592,-3.73053 -1.22177,-3.27484 -1.93096,-6.91253 -2.26738,-11.6305 -0.26344,-3.69659 -0.93888,-7.73925 -1.97926,-11.84993 -0.24425,-0.96555 -0.5939,-4.52053 -0.77662,-7.89996 -0.35721,-6.60435 -0.84809,-9.68193 -1.84209,-11.54939 -1.02607,-1.9277 -3.47547,-10.20497 -3.95428,-13.36268 -0.24475,-1.61429 -0.62967,-3.44666 -0.85531,-4.07193 -0.22549,-0.6253 -0.41051,-2.91037 -0.41051,-5.07798 0,-2.72302 -0.32022,-5.30433 -1.0358,-8.35161 -0.56967,-2.42574 -1.15272,-6.31747 -1.29561,-8.64827 -0.17957,-2.92869 -0.6425,-5.45805 -1.49862,-8.18782 -0.69201,-2.20646 -1.39402,-5.65785 -1.5905,-7.81926 -0.19342,-2.1281 -0.63772,-4.32909 -0.98724,-4.89109 -1.14804,-1.84597 -4.30106,-4.9553 -6.58762,-6.49635 -3.04614,-2.05295 -6.56793,-5.9114 -9.28412,-10.17149 -3.66785,-5.75267 -4.95918,-9.65975 -4.99017,-15.09828 -0.0143,-2.40564 0.11739,-2.89575 0.9676,-3.62081 2.42684,-2.06933 4.05163,-0.56053 5.09591,4.73235 0.97539,4.94345 1.78125,6.83489 4.86819,11.42585 3.21884,4.78712 3.89379,5.49774 7.16843,7.54739 3.03681,1.90076 7.69037,6.80885 8.57809,9.04718 0.30691,0.77447 0.77759,3.26002 1.04546,5.52353 0.26794,2.26351 0.76467,4.80671 1.10403,5.65156 0.96548,2.40383 1.32755,4.21419 1.97507,9.87496 0.33108,2.89665 0.90281,6.74787 1.27001,8.55828 0.36711,1.81041 0.83093,5.66163 1.03061,8.55828 0.19984,2.89666 0.65581,6.34655 1.01379,7.66644 0.3577,1.31989 0.65082,2.83022 0.65082,3.35627 0,0.97903 3.08852,11.1184 3.85244,12.64721 0.88318,1.76752 1.53385,5.88142 1.54817,9.78839 0.01,2.70557 0.43031,6.22308 1.26488,10.58082 0.68748,3.59034 1.36066,8.08648 1.49585,9.99144 0.27484,3.87449 1.28675,9.77027 1.79641,10.46837 0.33209,0.45454 0.53896,1.10193 2.8841,9.01455 1.4549,4.90904 2.01029,9.17756 1.36056,10.45659 -1.11494,2.1949 -2.85553,2.8898 -4.31459,1.72251 z"
       id="path319" /><path
       style="fill:#ffffff;fill-rule:evenodd;stroke-width:0.427584"
       d="m 227.67417,341.65268 c -5.25222,-0.24638 -6.5223,-0.45979 -9.73452,-1.63551 -3.45445,-1.26438 -10.62001,-2.68941 -13.5233,-2.68941 -2.75665,0 -4.18264,-1.48771 -3.63395,-3.79113 0.44655,-1.87415 2.64173,-2.50233 7.51536,-2.15058 4.73032,0.34138 6.45315,0.70962 11.46153,2.44969 4.25187,1.47724 11.54192,1.99518 24.7861,1.76097 14.50506,-0.25648 39.62732,-0.16127 49.95997,0.18939 7.06529,0.23982 11.4004,0.18059 14.88346,-0.20324 5.42296,-0.59766 8.43445,-0.19424 9.71992,1.30227 0.98605,1.14794 0.64024,3.03586 -0.75636,4.12975 l -1.17613,0.92118 h -41.73088 c -22.95199,0 -44.44904,-0.12749 -47.77119,-0.28337 z"
       id="path321" /><path
       style="fill:#ffffff;fill-rule:evenodd;stroke-width:0.427584"
       d="m 342.80604,338.14276 c -1.17334,-0.23382 -2.53016,-0.81453 -3.01509,-1.29052 -2.47367,-2.42799 -0.79633,-6.01149 2.44081,-5.21442 0.34343,0.0846 11.0595,0.16509 23.81302,0.17888 l 23.18814,0.0246 1.07719,1.064 c 1.32558,1.3093 1.37427,2.6593 0.14011,3.87725 -0.89536,0.88349 -1.4775,0.93602 -13.01789,1.17495 -27.18239,0.56278 -32.58473,0.59165 -34.6261,0.18482 z"
       id="path323" /><path
       style="fill:#ffffff;fill-rule:evenodd;stroke-width:0.427584"
       d="m 143.31814,337.95531 c -1.41182,-0.41393 -4.45535,-0.61335 -9.44681,-0.61901 l -7.36393,-0.008 -0.86338,-1.1564 c -1.10888,-1.48508 -1.08677,-2.03226 0.14298,-3.53701 l 1.00631,-1.23142 8.88729,0.0143 c 5.72737,0.01 9.47975,0.20345 10.55358,0.5462 1.18913,0.37953 6.61698,0.53268 18.95408,0.53493 15.62185,0.003 17.42816,0.0769 18.74457,0.77047 2.16143,1.13855 2.27358,3.86611 0.19983,4.86155 -1.66312,0.79835 -38.02621,0.64243 -40.81454,-0.17499 z"
       id="path325" /><path
       style="fill:#ffffff;fill-rule:evenodd;stroke-width:0.427584"
       d="m 276.19818,38.770739 c -2.21265,-2.00516 -1.02297,-5.5913 1.85487,-5.5913 2.37577,0 3.92221,3.76145 2.21344,5.38387 -1.35612,1.28759 -2.79543,1.36098 -4.06831,0.20747 z"
       id="path327" /><path
       style="fill:#ffffff;fill-rule:evenodd;stroke-width:0.427584"
       d="m 264.77937,36.411909 c -1.09539,-1.46718 -1.09539,-2.80331 0,-4.27049 1.75135,-2.3457 5.38525,-0.86336 5.38525,2.19675 0,2.94216 -3.6791,4.3589 -5.38525,2.07374 z"
       id="path329" /><path
       style="fill:#ffffff;fill-rule:evenodd;stroke-width:0.427584"
       d="m 243.1785,35.695519 c -1.91975,-2.15292 -0.61212,-5.32494 2.19514,-5.32494 3.89033,0 4.04004,5.87673 0.15889,6.231 -1.06723,0.0974 -1.66393,-0.13227 -2.35393,-0.90606 z"
       id="path331" /><path
       style="fill:#ffffff;fill-rule:evenodd;stroke-width:0.427584"
       d="m 252.62902,45.310259 c -3.42677,-1.79992 -1.91428,-6.57958 1.91412,-6.04904 1.82137,0.25239 2.86234,2.94585 1.88334,4.87308 -0.60271,1.1865 -2.59994,1.80498 -3.79746,1.17596 z"
       id="path333" /><path
       style="fill:#ffffff;fill-rule:evenodd;stroke-width:0.427584"
       d="m 229.59663,39.997619 c -0.89969,-1.44672 -0.84754,-2.51569 0.19049,-3.90622 0.62618,-0.83873 1.24732,-1.15641 2.26096,-1.15641 1.01358,0 1.6347,0.31763 2.2609,1.15641 1.08919,1.45882 1.08919,2.37277 0,3.8316 -1.19591,1.60179 -3.73766,1.64205 -4.71247,0.0745 z"
       id="path335" /></g></svg>
