<?xml version="1.0" encoding="UTF-8" standalone="no"?>
<!-- Created with Inkscape (http://www.inkscape.org/) -->

<svg
   width="512"
   height="512"
   viewBox="0 0 512 512"
   version="1.1"
   id="svg5"
   inkscape:version="1.2.1 (9c6d41e410, 2022-07-14)"
   sodipodi:docname="illusion.svg"
   xml:space="preserve"
   inkscape:export-filename="illusion.png"
   inkscape:export-xdpi="96"
   inkscape:export-ydpi="96"
   xmlns:inkscape="http://www.inkscape.org/namespaces/inkscape"
   xmlns:sodipodi="http://sodipodi.sourceforge.net/DTD/sodipodi-0.dtd"
   xmlns="http://www.w3.org/2000/svg"
   xmlns:svg="http://www.w3.org/2000/svg"><sodipodi:namedview
     id="namedview7"
     pagecolor="#ffffff"
     bordercolor="#999999"
     borderopacity="1"
     inkscape:pageshadow="0"
     inkscape:pageopacity="0"
     inkscape:pagecheckerboard="true"
     inkscape:document-units="px"
     showgrid="false"
     height="70mm"
     units="px"
     inkscape:zoom="2.0938812"
     inkscape:cx="183.86907"
     inkscape:cy="294.90689"
     inkscape:window-width="2560"
     inkscape:window-height="1351"
     inkscape:window-x="2391"
     inkscape:window-y="-9"
     inkscape:window-maximized="1"
     inkscape:current-layer="layer1"
     inkscape:showpageshadow="2"
     inkscape:deskcolor="#d1d1d1" /><defs
     id="defs2" /><g
     inkscape:label="Layer 1"
     inkscape:groupmode="layer"
     id="layer1"><path
       style="fill:#ffffff;fill-rule:evenodd;stroke-width:0.59911"
       d="m 131.68566,494.48268 c -0.49461,-0.0996 -4.94265,-0.50008 -9.88531,-0.89004 -10.14633,-0.80053 -31.325866,-4.09881 -38.270686,-5.95989 -6.79565,-1.82111 -9.50672,-3.33808 -19.7937,-11.07545 -8.45086,-6.3563 -9.62466,-7.46874 -12.56405,-11.90694 -4.06424,-6.13665 -8.37702,-10.10067 -14.54975,-13.37318 -2.91513,-1.54548 -9.01636,-6.53233 -11.05136,-9.03285 -6.37702,-7.83583 -16.6875804,-33.73191 -18.7901204,-47.1934 -0.56614,-3.62461 -1.42179,-8.8818 -1.90148,-11.68264 -0.47971,-2.80083 -1.10212,-6.44548 -1.38317,-8.0992 -0.28108,-1.65372 -1.08011,-4.61931 -1.77568,-6.5902 -1.64450997,-4.65966 -2.21913997,-12.67607 -1.24405997,-17.35536 0.41109,-1.97289 1.50242997,-5.23539 2.42513997,-7.25001 1.64825,-3.59872 1.98065,-5.00802 3.87339,-16.42242 1.88927,-11.3934 2.61411,-13.73212 5.8431704,-18.85287 6.75208,-10.70769 14.84256,-21.83401 19.86087,-27.3134 1.67735,-1.83147 4.02947,-4.40309 5.22693,-5.71471 2.2478,-2.46209 15.52358,-12.77464 18.37772,-14.27568 0.88668,-0.4663 3.76892,-2.91324 6.40499,-5.43758 7.98549,-7.64695 12.8684,-10.19892 26.95992,-14.09 8.20498,-2.26561 19.088536,-5.09181 23.065746,-5.98958 1.15329,-0.2603 3.57967,-0.88018 5.39199,-1.37744 8.96266,-2.45912 20.93366,-3.96143 32.951,-4.1352 11.77322,-0.17024 17.54807,0.7509 29.05681,4.6348 3.29511,1.11201 7.06283,2.21249 8.37274,2.44551 1.30991,0.23305 4.54505,1.16755 7.18935,2.07669 2.64424,0.90915 8.17766,2.78343 12.29651,4.16505 4.11892,1.38164 9.51092,3.27711 11.98221,4.21217 2.47137,0.93506 6.11093,2.00239 8.08796,2.37186 1.97711,0.36951 4.94266,1.12614 6.59022,1.6815 2.52125,0.84986 5.20997,0.98923 16.98093,0.88023 14.17547,-0.13128 14.57513,-0.17968 24.05809,-2.91636 6.56424,-1.89435 7.53807,-2.14211 10.5489,-2.68396 4.0422,-0.72745 6.94403,-1.98229 9.34919,-4.04283 2.58221,-2.21219 10.54747,-7.7265 15.4494,-10.69549 5.0149,-3.03745 17.10873,-12.27816 19.60075,-14.97666 2.23655,-2.42188 10.23339,-16.15579 11.10631,-19.07417 3.25558,-10.88399 4.04128,-14.06848 4.04128,-16.37946 v -2.74478 l -2.03671,3.90615 c -1.12016,2.14839 -3.53482,6.2285 -5.36588,9.0669 -1.83107,2.83841 -4.46629,7.2708 -5.85596,9.84974 -5.04236,9.3574 -10.20579,16.62644 -16.0044,22.5308 -5.5252,5.62604 -6.12541,6.04723 -15.05599,10.56568 -5.11573,2.58833 -11.18855,5.68274 -13.49514,6.87648 -2.30659,1.19373 -5.81139,2.44974 -7.78843,2.79112 -1.97703,0.34141 -4.94266,1.11936 -6.59021,1.72882 -1.64755,0.6095 -5.76541,1.70678 -9.15085,2.43847 -5.55337,1.20027 -7.34008,1.30217 -18.27282,1.04215 -15.42336,-0.36681 -24.39815,-2.21357 -33.86123,-6.96763 -1.88039,-0.94467 -7.72272,-3.42815 -12.98294,-5.51885 -8.96116,-3.56168 -9.8262,-4.04786 -13.72485,-7.7139 -2.28857,-2.15195 -4.94138,-4.99104 -5.8952,-6.30909 -0.95382,-1.31804 -5.46559,-6.32155 -10.02618,-11.11892 -9.77086,-10.27827 -12.16608,-13.86471 -16.98122,-25.42676 -5.31564,-12.76375 -8.54865,-39.38296 -7.10242,-58.47741 0.66492,-8.77515 3.57009,-24.44494 5.38951,-29.06688 0.63229,-1.60669 1.96945,-5.34766 2.97109,-8.31325 2.40558,-7.12203 6.73207,-15.20697 11.9595,-22.34873 4.66484,-6.3731 7.1416,-8.91271 12.11967,-12.42735 1.81226,-1.27953 4.08841,-3.27954 5.05812,-4.44446 0.96964,-1.16491 5.01873,-5.3545 8.99799,-9.31019 7.47896,-7.43466 12.00492,-10.4637 18.29581,-12.24474 1.48278,-0.41981 4.65824,-1.54862 7.05658,-2.5085 6.39954,-2.56126 8.51531,-3.21719 18.10599,-5.61324 4.77788,-1.19367 10.28619,-2.58594 12.24058,-3.09394 5.00014,-1.29962 16.66614,-1.72401 23.60649,-0.85875 3.18511,0.39711 11.18302,0.9601 17.77323,1.25117 7.73329,0.34155 12.93823,0.84818 14.67818,1.42873 1.48284,0.49475 6.15733,2.00192 10.38781,3.3493 14.60202,4.65064 26.32231,11.68043 30.99779,18.59238 0.78017,1.15328 2.09973,2.62893 2.93234,3.27921 0.83269,0.6503 3.67952,3.24162 6.3263,5.75853 2.64679,2.51693 5.61298,4.99027 6.59163,5.49633 2.67518,1.3834 3.70755,2.80423 5.35553,7.3708 1.21524,3.36731 2.0722,4.65195 4.51397,6.76667 1.9566,1.69455 3.55568,3.79629 4.55818,5.99109 0.84936,1.85945 2.43851,4.86362 3.53148,6.67593 1.09291,1.8123 3.19768,6.93469 4.67719,11.38308 5.01263,15.07124 6.33574,22.03788 6.76996,35.64702 0.37895,11.88398 -0.59893,41.75255 -1.49129,45.53233 -0.97298,4.122 -2.37152,11.26754 -2.75557,14.07908 -0.78088,5.71663 -2.88757,13.01972 -4.66619,16.17596 -3.31753,5.88726 -7.77736,12.20384 -11.20942,15.8764 -1.8476,1.97706 -4.4274,4.94241 -5.73291,6.58966 -1.30544,1.64725 -3.15431,3.80405 -4.10855,4.79288 -0.95418,0.98883 -2.88175,3.55027 -4.28356,5.69208 -2.80851,4.29124 -7.20156,8.69228 -14.05164,14.07727 -2.47136,1.94275 -4.62815,3.70107 -4.79292,3.90738 -0.16464,0.20629 -1.91715,1.68216 -3.89418,3.27965 -4.95529,4.00389 -15.28221,15.67245 -19.62197,22.17116 -1.98037,2.96559 -3.78305,5.52678 -4.00587,5.69154 -0.66209,0.4895 -7.42417,9.60163 -10.00362,13.47996 -4.33762,6.52203 -4.95436,8.51986 -6.19594,20.07017 -0.37184,3.45986 -0.93174,7.09945 -1.24412,8.08798 -2.56944,8.1309 -2.9635,9.91453 -2.96698,13.42914 -0.007,9.19337 2.4879,21.8032 7.19638,36.3395 0.32785,1.01192 0.5961,2.14972 0.5961,2.52845 0,0.37874 0.67415,2.16211 1.49782,3.96307 0.82374,1.80096 1.49775,3.58902 1.49775,3.97347 0,1.75437 5.064,11.11999 9.5437,17.65062 5.61113,8.18003 8.63778,11.51877 12.92289,14.25554 1.64756,1.05224 4.69848,3.17993 6.77976,4.7282 2.08135,1.54827 4.91214,3.22231 6.29068,3.72007 7.74116,2.79519 18.78737,5.92606 24.60969,6.97519 3.65971,0.65946 10.34984,1.9009 14.86707,2.75877 7.75181,1.47216 8.84529,1.53539 19.47103,1.12609 12.57064,-0.48425 22.03472,-1.55057 25.63667,-2.88854 1.318,-0.48957 3.87921,-1.4402 5.69154,-2.11246 6.99555,-2.59494 10.03264,-4.31452 14.10238,-7.98471 2.31936,-2.0917 5.09104,-4.47708 6.15932,-5.30085 1.06828,-0.82378 3.52481,-3.38497 5.45892,-5.69154 1.9341,-2.30658 4.05278,-4.75714 4.70819,-5.4457 1.94504,-2.04343 8.84131,-15.14754 10.69161,-20.31602 1.65394,-4.61984 1.71589,-5.19301 1.71567,-15.87641 -4.2e-4,-15.79876 -1.83007,-23.92419 -7.87585,-34.97655 -1.82397,-3.33435 -4.52951,-8.35404 -6.01243,-11.15488 -3.49103,-6.59396 -6.47191,-10.51901 -10.74241,-14.14507 -1.89763,-1.61125 -5.21998,-4.65151 -7.38294,-6.75614 -2.80504,-2.72933 -5.30706,-4.46909 -8.72557,-6.06727 -17.64224,-8.24779 -19.12842,-8.64265 -30.80925,-8.18536 -9.5569,0.37412 -20.97261,1.7404 -23.11066,2.76594 -1.60136,0.76812 -6.77224,2.43242 -7.55744,2.43242 -1.65621,0 -11.9187,5.74317 -14.23743,7.96766 -2.49691,2.39543 -3.48209,4.17193 -9.12906,16.46105 l -1.72753,3.75944 v 16.49488 c 0,15.49904 0.21857,18.82009 1.92687,29.30701 0.90762,5.57076 4.77405,17.95471 7.01719,22.47592 2.1096,4.25181 10.91088,14.57139 15.2715,17.90597 1.67417,1.2802 5.33551,3.35071 8.13636,4.60112 2.80085,1.25042 6.92062,3.43574 9.15511,4.85628 3.7167,2.36283 4.3944,2.58279 7.95746,2.58279 6.41955,0 9.84735,2.22453 9.84735,6.39055 0,4.56161 -4.46082,6.50338 -16.47553,7.17171 -5.82523,0.32402 -6.14385,0.27357 -11.51023,-1.82162 -3.0356,-1.18518 -5.94551,-2.15488 -6.4666,-2.15488 -3.13671,0 -23.89566,-9.22126 -29.59826,-13.14775 -1.84206,-1.26834 -4.42761,-2.97517 -5.74561,-3.79296 -1.31807,-0.81779 -4.55328,-3.30453 -7.18935,-5.52609 -2.63607,-2.22156 -6.27563,-4.99936 -8.08796,-6.17287 -6.50648,-4.21309 -8.35202,-6.76976 -13.99728,-19.3908 -3.58563,-8.01634 -4.06605,-10.36408 -4.63759,-22.66446 -0.33708,-7.25905 -0.32572,-14.29143 0.0284,-18.57241 0.31507,-3.78936 0.75334,-9.45095 0.97361,-12.58129 0.21999,-3.13035 0.92323,-7.57874 1.56212,-9.88531 0.63867,-2.30658 1.69474,-6.48537 2.34647,-9.2862 2.18084,-9.37288 4.4919,-14.6164 12.13598,-27.53535 4.77547,-8.07075 6.29003,-10.0753 11.7713,-15.57965 5.05862,-5.07993 7.28438,-6.83719 11.36476,-8.97254 2.79077,-1.46048 6.74399,-3.8227 8.7849,-5.24939 5.96843,-4.17222 9.73132,-5.54494 17.85349,-6.51296 17.58,-2.09524 30.94955,-1.70368 44.07483,1.29081 10.93657,2.49513 17.90445,4.40197 21.43842,5.86684 1.8835,0.78076 4.90746,1.89443 6.71972,2.4748 1.81233,0.58041 3.56469,1.25402 3.89425,1.49698 0.32926,0.24298 1.67749,0.77519 2.99557,1.18271 2.12421,0.65676 8.38913,4.1044 16.47546,9.06653 1.48284,0.90991 3.91532,2.17514 5.40562,2.81164 3.94179,1.6835 9.48494,5.29561 12.47995,8.13234 3.98266,3.77218 15.48474,19.29992 18.12783,24.47243 4.66669,9.13284 13.56477,36.06352 16.08836,48.69293 1.32339,6.62303 -0.19941,49.63597 -1.9412,54.81852 -2.4505,7.29269 -4.1798,11.18531 -7.36584,16.58035 -3.43852,5.8225 -8.95464,13.37514 -9.76865,13.37514 -0.23134,0 -1.33269,1.50433 -2.44703,3.34297 -2.50429,4.13208 -11.57836,13.55121 -16.79948,17.43833 -4.84224,3.60502 -14.15311,8.31978 -18.72634,9.48246 -3.84571,0.97771 -9.89107,3.83656 -12.91282,6.10646 -1.09078,0.81937 -3.51715,2.02418 -5.392,2.67737 -1.87485,0.65314 -5.29599,2.10013 -7.6025,3.21543 -11.70574,5.66011 -18.61401,6.55554 -41.93771,5.43589 -7.20766,-0.34601 -11.97745,-0.90925 -16.31735,-1.92686 -3.37288,-0.79087 -6.87768,-1.44258 -7.78843,-1.44823 -0.91074,-0.005 -4.0823,-0.55572 -7.04792,-1.22235 -2.96555,-0.66662 -8.35755,-1.83598 -11.98221,-2.59859 -3.62459,-0.76259 -8.20775,-1.99012 -10.18486,-2.72783 -1.97732,-0.7377 -5.21246,-1.84955 -7.18956,-2.47077 -4.97112,-1.56199 -15.39476,-6.7436 -23.96406,-11.91261 -9.37467,-5.65476 -11.33631,-7.13648 -14.63127,-11.05161 -1.50875,-1.79272 -4.9235,-5.84799 -7.58824,-9.0117 -4.09089,-4.85683 -7.22306,-9.74113 -11.73937,-18.30611 -0.4343,-0.82377 -1.91218,-2.98057 -3.28397,-4.79288 -2.42375,-3.20196 -3.52325,-5.34066 -7.23796,-14.07907 -2.36556,-5.56462 -3.80697,-11.49682 -6.47788,-26.66038 -2.30233,-13.07089 -3.19945,-16.77507 -4.06293,-16.77507 -0.59609,0 -0.3094,4.28392 0.78961,11.78935 0.4499,3.07154 0.62944,9.55389 0.48255,17.37418 l -0.23418,12.47459 -2.47413,6.88976 c -5.85461,16.30354 -7.6585,19.85058 -13.21875,25.9929 -2.49031,2.75098 -5.41811,6.8118 -6.74463,9.35457 -1.76613,3.38569 -4.08145,6.29016 -9.39262,11.78258 -7.08944,7.33144 -12.14642,11.10122 -23.13635,17.24713 -5.44103,3.04282 -21.56331,8.66153 -40.46443,14.10216 -8.9386,2.57296 -11.11143,2.98968 -15.27732,2.93007 -2.67106,-0.0383 -5.26093,-0.15093 -5.75519,-0.2505 z m 18.5224,-13.76114 c 4.80542,-1.48394 11.16351,-3.42349 14.12906,-4.31011 2.96562,-0.88662 6.47043,-2.06564 7.78843,-2.62007 1.31807,-0.55443 4.74367,-1.74327 7.6125,-2.64191 2.86883,-0.89863 7.04765,-2.79138 9.28625,-4.20612 2.23854,-1.41473 5.82253,-3.6012 7.96435,-4.85883 2.3691,-1.39108 6.47511,-4.87597 10.48439,-8.89836 5.35268,-5.37017 7.02131,-7.48423 8.88587,-11.25764 1.4859,-3.00702 3.82981,-6.3168 6.64464,-9.38276 3.64566,-3.97083 7.53523,-10.13227 7.53523,-11.9365 0,-0.25859 0.50313,-1.53183 1.11881,-2.82939 0.61525,-1.29756 2.09817,-5.24996 3.2951,-8.78311 l 2.1763,-6.42392 -0.002,-10.95026 c -0.002,-7.02439 -0.33495,-12.99079 -0.93004,-16.6418 -0.57764,-3.54344 -0.88165,-8.74411 -0.80586,-13.77952 l 0.12206,-8.08799 -3.46911,-6.29064 c -1.90806,-3.45986 -4.21692,-8.09079 -5.13093,-10.29095 -2.19766,-5.2906 -5.99093,-10.79126 -8.86742,-12.85894 -3.14622,-2.26153 -6.91998,-7.45927 -8.91922,-12.28471 l -1.64954,-3.98134 -5.39364,-2.85553 c -2.96647,-1.57054 -6.06756,-3.32032 -6.89138,-3.88841 -0.82374,-0.56806 -3.29255,-1.58638 -5.48616,-2.26289 -2.19362,-0.67649 -6.64202,-2.37671 -9.88532,-3.77822 -6.73924,-2.91224 -8.76935,-3.14517 -33.79765,-3.8778 -15.35524,-0.44949 -15.13447,-0.49547 -21.82531,4.54448 -1.97711,1.48924 -4.74049,3.22026 -6.14088,3.84672 -5.47843,2.45069 -2.53175,2.94623 14.52291,2.44235 21.04344,-0.62171 31.16904,1.06222 44.2526,7.35956 8.91475,4.29078 11.22695,6.64394 21.01505,21.38693 9.41433,14.18004 12.06821,20.10627 15.8397,35.3707 0.65144,2.63608 1.74399,6.79664 2.42814,9.24568 0.93608,3.35065 1.24399,6.19556 1.24399,11.49369 0,12.89253 -2.42992,20.01281 -9.3812,27.48895 -2.29779,2.47133 -5.96367,7.06993 -8.14643,10.21912 -6.16919,8.90079 -12.21675,13.76914 -19.72451,15.87848 -7.51196,2.11054 -9.89731,2.88895 -11.87485,3.87506 -3.35954,1.6753 -12.77011,4.66918 -16.98199,5.40265 -2.48897,0.43344 -9.52923,0.58772 -19.65887,0.43082 -15.24745,-0.23624 -15.92309,-0.29748 -19.97502,-1.81121 -2.30652,-0.86172 -6.87123,-2.1347 -10.14369,-2.82887 -11.946876,-2.53423 -23.865926,-10.07114 -27.623996,-17.46776 -0.56345,-1.10859 -1.90941,-3.10926 -2.99145,-4.44593 -3.86693,-4.77669 -6.27095,-10.67818 -6.27095,-15.394 0,-1.6241 -0.56132,-3.14527 -1.85335,-5.02334 -3.30908,-4.80952 -9.0048,-19.82094 -11.44868,-30.17358 -1.65429,-7.00775 -1.7494,-8.06621 -1.48057,-16.47552 0.22112,-6.91746 0.64442,-10.43507 1.83815,-15.27729 0.85296,-3.45986 2.10744,-9.12144 2.7877,-12.5813 0.90116,-4.58349 1.77784,-7.18488 3.23038,-9.58575 1.09639,-1.81231 2.95122,-5.1823 4.12176,-7.48887 1.17054,-2.30658 2.84137,-5.00257 3.71287,-5.9911 7.5964,-8.61654 15.80542,-17.34098 17.59128,-18.69593 1.19339,-0.9054 3.24813,-2.63382 4.5662,-3.84092 3.30845,-3.03001 6.54217,-4.59083 11.742,-5.66748 2.438646,-0.5049 6.725536,-1.96545 9.526386,-3.24559 10.65329,-4.86916 16.34752,-6.0981 32.05239,-6.91769 8.08427,-0.42188 23.42226,0.85582 29.35635,2.44551 1.97703,0.5296 6.90713,1.33561 10.95572,1.79104 10.20182,1.14763 21.20736,4.70557 27.634,8.93369 6.44112,4.23766 18.34506,15.01169 22.59838,20.45341 5.84205,7.47431 10.3859,13.82111 11.47,16.02117 0.67841,1.37627 1.82283,5.3331 2.54354,8.79296 0.99433,4.77313 1.88499,7.25793 3.692,10.30034 2.22675,3.74917 5.28122,11.5166 5.28122,13.43001 0,0.46715 0.25973,1.31754 0.57765,1.88972 1.19913,2.15901 4.79817,14.54164 5.71686,19.66889 3.67675,20.52134 5.58282,29.1614 7.32312,33.1944 3.03666,7.03731 5.03939,10.87229 7.10654,13.60825 1.28777,1.70443 2.87529,4.12523 3.52787,5.37955 2.94661,5.66396 6.9737,12.09174 9.1236,14.56234 1.29025,1.48279 2.79517,3.35433 3.34421,4.15898 2.60939,3.82415 9.36672,9.82924 15.08636,13.40696 7.31276,4.57424 18.13528,10.10661 22.9517,11.73268 1.88414,0.63611 5.31294,1.82471 7.61953,2.64132 4.55499,1.61261 21.94715,5.53183 27.25946,6.14277 1.81233,0.20842 5.99114,1.01856 9.28624,1.80032 5.36482,1.27279 7.58796,1.43678 21.26839,1.56878 14.18321,0.13682 15.61439,0.0525 19.98502,-1.17316 2.58923,-0.72632 6.76805,-2.36816 9.28617,-3.64854 2.51813,-1.28039 5.52208,-2.53223 6.67537,-2.78188 1.1533,-0.24965 3.1915,-1.20538 4.5293,-2.12383 4.05548,-2.78418 12.09015,-6.59503 16.45495,-7.80456 2.26664,-0.6281 5.01022,-1.64722 6.09688,-2.26465 5.33303,-3.0303 7.02422,-4.1092 10.10757,-6.44813 3.88723,-2.94874 10.239,-9.66347 12.40147,-13.11018 0.82693,-1.31804 2.4764,-3.49684 3.66553,-4.84178 6.6489,-7.52048 11.6357,-15.96348 14.3025,-24.21504 1.00718,-3.11646 1.85476,-16.06018 2.32276,-35.47215 l 0.32785,-13.60465 -1.8879,-7.54241 c -1.95795,-7.82248 -7.86017,-26.25224 -9.29753,-29.03175 -0.45204,-0.8738 -1.4766,-3.46034 -2.27714,-5.74788 -1.23022,-3.5151 -4.09096,-8.41987 -9.2397,-15.84177 -6.15215,-8.86836 -11.8505,-13.92686 -20.54676,-18.23962 -2.80085,-1.38904 -7.20433,-3.80967 -9.78554,-5.37919 -2.58122,-1.56952 -5.95126,-3.39017 -7.48889,-4.04589 -1.53763,-0.6557 -3.8741,-1.67551 -5.19217,-2.26619 -1.318,-0.5907 -3.34002,-1.2734 -4.49332,-1.51713 -1.15329,-0.24376 -2.36648,-0.63754 -2.69596,-0.87514 -2.14643,-1.5476 -14.15809,-4.90392 -28.15821,-7.86799 -4.64227,-0.98285 -26.15527,-1.07742 -34.24202,-0.15051 -6.6841,0.76613 -6.77004,0.79944 -13.75381,5.33316 -2.67297,1.73524 -6.58219,4.02419 -8.68711,5.08655 -6.8566,3.46056 -13.51388,10.84408 -20.21231,22.41717 -6.24972,10.79779 -7.0773,12.71899 -9.68441,22.48253 -0.92387,3.45987 -2.11244,7.77345 -2.64118,9.58576 -1.34043,4.59417 -2.43589,21.01879 -2.25763,33.8497 0.20083,14.45809 0.61738,16.30004 6.29181,27.81615 2.55354,5.18251 3.53248,6.56201 5.73929,8.08799 2.93071,2.02653 6.54338,4.77806 13.4283,10.22729 4.36147,3.45198 10.33175,7.49857 13.45072,9.1167 1.53409,0.79592 3.14183,1.01797 3.14183,0.43394 0,-0.4018 -3.1397,-4.49314 -5.82338,-7.58858 -3.37175,-3.88898 -6.96355,-12.11207 -10.53953,-24.1291 -2.96194,-9.95366 -3.99637,-20.33509 -4.00204,-40.16425 -0.005,-18.71583 0.29165,-20.84006 3.87473,-27.74983 1.13491,-2.18848 2.8501,-5.76326 3.81143,-7.94392 1.79949,-4.08181 8.70598,-12.14524 11.58965,-13.53115 5.70736,-2.7429 10.82189,-4.84481 17.31268,-7.11493 6.4981,-2.27269 9.01552,-2.80954 18.27282,-3.89682 17.56325,-2.06282 26.82835,-1.19062 36.79769,3.46408 1.81233,0.84617 5.04747,2.28234 7.18928,3.1915 8.68328,3.68585 10.03946,4.51617 15.04783,9.2133 2.84456,2.66774 6.96184,6.42505 9.14957,8.34955 4.89589,4.30692 8.08179,8.75116 12.9527,18.06884 2.06709,3.95412 4.21167,7.86331 4.76568,8.68709 0.55422,0.82377 1.43346,2.44137 1.95418,3.59466 0.52087,1.15328 1.50684,3.31008 2.19135,4.79288 3.52268,7.63119 5.70778,22.57412 5.30017,36.24612 -0.2654,8.90084 -0.42365,9.97103 -2.21646,14.97775 -2.33654,6.52572 -9.68357,20.75124 -12.244,23.70733 -1.01917,1.17666 -2.39224,2.79657 -3.05128,3.5998 -4.83642,5.89476 -7.44893,8.67296 -9.55285,10.15886 -1.33617,0.94363 -4.04696,3.23765 -6.024,5.09783 -4.26716,4.01491 -6.95766,5.67413 -12.5876,7.76284 -2.30311,0.85444 -5.40065,2.11562 -6.8835,2.80261 -5.25412,2.43429 -9.8382,3.29312 -22.16699,4.15304 -20.03271,1.39726 -23.68306,1.36481 -31.15371,-0.2769 -3.78936,-0.83272 -8.91177,-1.80968 -11.38314,-2.17103 -7.0106,-1.02506 -13.82129,-2.77075 -24.83308,-6.36515 -8.38083,-2.7356 -10.84055,-3.81225 -14.0791,-6.16264 -2.15828,-1.56637 -5.4069,-3.80571 -7.21923,-4.9763 -6.45921,-4.17212 -10.61021,-8.64642 -17.079,-18.40925 -3.40354,-5.13676 -6.98236,-11.091 -7.95285,-13.23164 -2.10335,-4.6392 -5.83665,-15.52629 -8.73067,-25.46003 -5.16911,-17.74326 -6.53721,-34.52761 -3.47777,-42.66468 1.23774,-3.2919 2.56461,-10.13546 3.67064,-18.93195 0.36546,-2.90418 1.23178,-6.81338 1.92573,-8.68709 1.30438,-3.52177 5.87058,-10.65538 12.15125,-18.98361 1.98803,-2.63608 5.56522,-7.57437 7.9493,-10.97398 2.38415,-3.3996 5.75448,-7.7041 7.48974,-9.56555 1.73526,-1.86146 4.77256,-5.11354 6.74966,-7.22685 3.29397,-3.521 8.35315,-7.96229 13.97138,-12.26498 5.05812,-3.87374 10.58913,-9.32483 12.87628,-12.69029 1.34369,-1.97706 3.68171,-4.94265 5.19571,-6.5902 1.51393,-1.64755 3.53766,-4.07394 4.49715,-5.39198 0.9595,-1.31805 3.6016,-4.41844 5.87143,-6.88977 2.26976,-2.47133 5.55287,-6.84343 7.2958,-9.71579 3.20704,-5.28517 3.89411,-7.48021 6.33567,-20.23968 0.40946,-2.14182 0.99228,-5.10742 1.29437,-6.59022 0.3023,-1.48279 0.81068,-8.22277 1.13023,-14.97774 1.53628,-32.47831 1.32389,-39.62072 -1.52344,-51.22387 -2.26103,-9.21416 -5.59673,-18.77532 -7.53111,-21.58686 -0.96141,-1.39738 -2.30957,-3.98677 -2.996,-5.7542 -0.86185,-2.21919 -2.3332,-4.25944 -4.75525,-6.59375 -2.6839,-2.5867 -3.82243,-4.24446 -4.84962,-7.06165 -0.93225,-2.55677 -1.91012,-4.07576 -3.20108,-4.97228 -1.0223,-0.70997 -3.92342,-3.28694 -6.44694,-5.7266 -2.52345,-2.43966 -5.51767,-5.06739 -6.6538,-5.83939 -1.13612,-0.77201 -2.94085,-2.76759 -4.01062,-4.43462 -2.5561,-3.98335 -4.25602,-5.34326 -11.57744,-9.26163 -7.02386,-3.75911 -9.92122,-4.8892 -19.90049,-7.76183 -6.62087,-1.90588 -8.04198,-2.09769 -17.97329,-2.4258 -5.93117,-0.19593 -12.67119,-0.61788 -14.97771,-0.93757 -7.92056,-1.09785 -16.55359,-0.76214 -23.86031,0.92785 -6.69744,1.54907 -15.63036,3.8657 -19.57514,5.07654 -2.20802,0.67777 -2.52643,0.80499 -7.81411,3.12271 -1.82645,0.80056 -4.38766,1.6536 -5.69154,1.89563 -5.66584,1.05166 -12.92992,6.89845 -23.42176,18.85206 -1.27287,1.45017 -3.7971,3.71232 -5.60936,5.027 -1.81233,1.31467 -4.20003,3.22856 -5.30599,4.25308 -3.115,2.88553 -8.65936,10.43504 -10.82778,14.74361 -1.07793,2.14182 -2.1839,4.16916 -2.45774,4.50519 -0.27392,0.33601 -1.47639,3.57123 -2.67241,7.18931 -1.19601,3.6181 -2.43148,7.11754 -2.74549,7.77656 -0.31437,0.65904 -1.38428,4.83781 -2.37848,9.2862 -1.35355,6.05648 -1.9815,10.95592 -2.50017,19.50602 -0.70396,11.60591 -0.66919,12.31811 1.40705,29.02186 2.46598,19.83644 7.17722,30.744 18.29113,42.34787 4.52575,4.7252 8.20626,8.81523 13.14636,14.60908 4.0982,4.80646 6.95369,6.61088 16.50974,10.43264 5.05435,2.02137 10.26809,4.22885 11.58609,4.90551 3.85813,1.98069 9.67562,3.66465 17.37421,5.02925 11.78699,2.08928 23.83612,1.13337 35.34742,-2.80423 2.30659,-0.78899 4.90129,-1.43323 5.76604,-1.43164 2.38778,0.004 5.72007,-1.35889 11.0091,-4.50395 2.63607,-1.56752 6.54522,-3.63825 8.68703,-4.6016 2.14181,-0.96337 4.56393,-2.07146 5.38249,-2.46244 2.41573,-1.1539 10.74766,-9.40687 13.41673,-13.28948 3.37274,-4.90634 7.50351,-12.14382 7.95284,-13.9341 0.32715,-1.30307 0.23844,-1.40337 -0.75944,-0.86098 -0.62164,0.33764 -2.45845,2.00739 -4.08258,3.71052 -1.62421,1.70312 -3.78525,3.7313 -4.80237,4.50707 -1.54218,1.17627 -10.92331,5.41994 -21.601,9.77145 -1.77465,0.72324 -5.50519,1.09122 -14.37864,1.41831 -6.59021,0.24291 -16.06373,0.60865 -21.05237,0.81276 -5.22098,0.2136 -11.25931,0.10332 -14.22856,-0.25994 -4.50254,-0.55075 -5.86305,-1.02582 -10.70047,-3.73638 -3.04808,-1.70797 -7.47285,-4.17615 -9.83281,-5.48485 -3.81569,-2.11598 -6.55877,-4.11035 -11.59702,-8.43165 -2.75245,-2.36077 -4.71799,-5.58663 -10.3568,-16.99822 -3.07214,-6.21712 -6.17188,-12.10192 -6.88832,-13.07733 -0.71652,-0.97542 -2.11442,-4.00545 -3.10663,-6.73339 -1.72462,-4.74192 -1.80389,-5.38216 -1.80389,-14.56783 0,-8.43247 -0.19302,-10.35441 -1.57701,-15.70939 -1.35207,-5.23126 -1.52635,-6.87044 -1.22178,-11.49343 0.51874,-7.88036 2.15473,-12.12347 8.19874,-21.26839 1.85107,-2.80083 4.33997,-6.71003 5.53087,-8.68708 1.19091,-1.97707 4.13886,-5.63702 6.55097,-8.13323 6.22291,-6.43981 12.2418,-10.16264 20.69905,-12.80298 8.39736,-2.62162 11.69843,-3.21127 23.82704,-4.2561 16.92253,-1.4578 47.2329,-0.57665 54.20149,1.57566 10.16584,3.13982 12.44404,4.65123 23.08362,15.31435 8.99594,9.01585 14.95799,18.64423 22.39117,36.16089 4.63291,10.91751 5.32317,13.29936 8.12054,28.02054 1.41947,7.4698 1.29344,30.48386 -0.21786,39.80671 -1.74428,10.75946 -6.74264,25.18008 -10.23481,29.52806 -0.2647,0.32949 -1.40238,2.29686 -2.52821,4.37188 -1.1259,2.07503 -3.03403,4.95346 -4.24027,6.39652 -2.63145,3.14809 -13.09328,11.2509 -22.57666,17.48594 -8.725,5.73643 -12.0751,8.04773 -13.07554,9.02106 -0.43642,0.42479 -1.91941,1.52098 -3.2951,2.43605 -4.45068,2.96038 -6.93737,3.93283 -13.4904,5.27561 -2.52331,0.51704 -6.60979,1.56985 -9.08109,2.33959 -9.25445,2.88242 -10.33338,2.99855 -27.8586,2.99855 -14.29533,0 -17.21787,-0.15214 -19.77063,-1.02925 -1.64756,-0.56608 -4.8216,-1.31367 -7.05346,-1.66128 -2.23187,-0.34758 -5.60191,-1.31799 -7.4889,-2.15639 -1.88698,-0.83841 -4.77894,-1.8891 -6.4265,-2.33489 -1.64755,-0.44579 -4.88269,-1.52633 -7.18928,-2.40123 -7.97307,-3.02421 -14.02375,-4.99866 -17.4896,-5.70713 -1.91359,-0.39115 -5.50121,-1.46836 -7.97257,-2.39374 -4.84977,-1.816 -9.94734,-3.13396 -16.29323,-4.21255 -5.30897,-0.90236 -24.61494,0.18415 -32.34383,1.82021 -8.24308,1.74493 -26.78698,6.368 -32.242706,8.03822 -1.48285,0.45395 -4.98758,1.43379 -7.78842,2.17742 -7.31894,1.94321 -12.19759,4.68436 -18.10073,10.17018 -2.81781,2.61865 -6.77359,5.91186 -8.79057,7.31823 -9.71196,6.77196 -13.46913,9.81711 -17.93974,14.53999 -8.99356,9.50108 -22.11511,28.34464 -23.77903,34.14852 -0.47233,1.64755 -1.53766,7.03954 -2.36739,11.98219 -1.73581,10.34018 -1.96151,11.21435 -4.2536,16.47551 -1.45269,3.33442 -1.69516,4.66932 -1.68671,9.2862 0.008,4.06231 0.31465,6.13071 1.2458,8.38754 0.67975,1.64755 1.95684,7.44394 2.83797,12.88086 2.91828,18.00717 3.41519,20.50032 5.12184,25.69828 1.99278,6.0694 3.39786,9.6669 5.93902,15.20595 1.02419,2.23245 1.86216,4.29198 1.86216,4.57673 0,0.98018 4.51451,8.94788 6.02819,10.63919 1.61466,1.80416 6.01534,5.07117 12.84376,9.53506 5.75377,3.7614 8.85799,6.87666 12.63323,12.67837 1.7689,2.71846 3.42447,4.94505 3.67902,4.94798 0.25475,0.003 1.97654,1.28352 3.82669,2.84577 1.85015,1.56224 3.97699,3.24484 4.72643,3.73911 0.74945,0.49425 2.07426,1.47906 2.94405,2.18844 4.11026,3.35204 11.43154,6.0826 19.81982,7.39202 2.47129,0.38576 7.189276,1.20473 10.484386,1.81989 7.45653,1.39206 20.81373,2.61292 31.40321,2.87028 3.76013,0.0914 5.78663,-0.30684 13.18043,-2.59006 z m -2.64601,-42.2273 c 4.60765,-0.60893 10.34672,-2.3156 14.97778,-4.45404 1.64756,-0.76076 5.42195,-2.11123 8.3875,-3.00104 9.564,-2.86958 10.6288,-3.39204 14.52844,-7.12838 2.05943,-1.97319 3.74445,-3.80251 3.74445,-4.06516 0,-0.93456 4.91995,-7.4798 9.25843,-12.31685 6.35241,-7.08243 7.18538,-9.46804 7.18105,-20.56582 -0.003,-7.93139 -0.14122,-9.0519 -1.58766,-12.88086 -0.87136,-2.30657 -1.906,-5.94616 -2.29928,-8.08797 -0.839,-4.56965 -2.17899,-8.86203 -4.59529,-14.71932 -1.9082,-4.62583 -15.59318,-25.14024 -18.83364,-28.23252 -2.83825,-2.70848 -12.42786,-7.03256 -18.77957,-8.46796 -8.86422,-2.0032 -16.18309,-2.4579 -30.85409,-1.91688 -7.41403,0.27342 -16.47738,0.84287 -20.14086,1.26551 -6.01016,0.69338 -7.04345,0.66486 -10.577916,-0.29187 -2.21008,-0.59822 -4.47012,-1.64889 -5.18592,-2.41085 -2.98635,-3.17881 -2.59598,-8.83522 0.78776,-11.41516 3.56782,-2.72031 13.645516,-8.59943 17.031806,-9.93604 1.87379,-0.73961 4.88972,-2.44434 6.70198,-3.7883 1.81234,-1.34396 4.91272,-3.31827 6.88983,-4.38736 7.08872,-3.83325 -2.34953,-1.50118 -11.62464,2.87229 -2.10994,0.99487 -5.88434,2.30699 -8.38756,2.91582 -6.142646,1.494 -6.470566,1.64772 -10.203446,4.78338 -4.31584,3.62531 -7.03196,6.3196 -13.74593,13.63539 -6.32176,6.88837 -6.35689,6.93445 -9.0547,11.86556 -1.08169,1.97706 -2.60257,4.69489 -3.37983,6.03961 -0.77726,1.34472 -1.58277,3.77111 -1.79012,5.39199 -0.20721,1.62087 -0.77747,4.42983 -1.26712,6.24214 -4.10352,15.18958 -4.69542,23.88078 -2.3305,34.22125 2.3173,10.13235 7.46753,23.39277 10.76434,27.71512 2.13046,2.79317 2.79048,4.69416 2.79446,8.04867 0.005,4.18745 0.94211,6.81996 3.75395,10.54587 1.39337,1.84632 3.42795,4.76952 4.52135,6.49601 3.19179,5.04001 12.42055,10.57988 19.280426,11.57366 3.45115,0.49994 7.9554,1.67444 11.38306,2.96811 4.65839,1.75816 23.94917,2.63613 32.65146,1.48602 z m 84.77401,-117.39712 c 0,-0.30961 -2.19127,-3.47738 -4.86949,-7.03954 -7.29346,-9.70068 -9.55598,-11.86277 -8.18809,-7.82465 1.01825,3.00592 2.62869,5.13077 7.89806,10.42106 5.41372,5.43521 5.15952,5.21634 5.15952,4.44313 z m -25.27681,-28.36308 c -4.79044,-3.94969 -7.74627,-5.55007 -14.19335,-7.68476 -6.48143,-2.14606 -11.32999,-2.98552 -10.62135,-1.83893 0.32714,0.52981 6.26406,2.84508 11.97845,4.67151 1.93871,0.61965 5.57827,2.26446 8.08796,3.65508 5.00532,2.77352 7.38926,3.37453 4.74829,1.1971 z m -43.02167,-13.1305 c -3.75729,-1.0666 -18.25088,-1.78711 -24.1243,-1.19926 l -5.53158,0.55365 9.88525,0.13512 c 5.43699,0.0743 11.23333,0.34509 12.88089,0.60169 1.64755,0.25661 4.34351,0.47503 5.99107,0.48532 2.98194,0.0184 2.98606,0.0163 0.89867,-0.5765 z m 109.33751,-76.47158 12.58128,-0.53641 5.55145,-2.47561 c 3.05327,-1.36159 5.90656,-2.47562 6.34057,-2.47562 0.43429,0 0.98128,-0.1921 1.21609,-0.42691 0.23489,-0.23482 1.77792,-0.99803 3.42909,-1.69603 2.15749,-0.91204 4.97317,-3.20882 10.00759,-8.16326 6.154,-6.05632 7.75649,-7.27923 13.18602,-10.06261 5.94772,-3.04902 6.30544,-3.34654 9.49212,-7.8943 4.32733,-6.17557 5.94253,-6.99675 9.81918,-4.99209 l 1.76755,0.91405 v -7.3983 c 0,-10.83078 -2.88927,-25.05735 -6.93041,-34.12496 -2.56922,-5.7649 -3.41816,-7.76301 -4.51617,-10.63004 -1.13236,-2.95659 -4.98261,-9.72585 -8.40801,-14.78254 -1.60135,-2.36397 -2.91155,-4.54152 -2.91155,-4.83899 0,-0.57041 -13.19433,-13.28584 -15.36084,-14.80328 -0.69543,-0.4873 -3.38792,-1.58582 -5.98269,-2.44118 -3.9237,-1.29341 -6.9363,-1.7081 -17.8982,-2.4637 -7.24918,-0.49972 -16.01115,-0.76612 -19.47103,-0.59211 -12.78275,0.64299 -26.77897,2.20856 -32.12676,3.59354 -11.66408,3.02078 -20.38447,9.53718 -26.56749,19.85271 -1.77756,2.96559 -3.82009,6.20078 -4.53902,7.18931 -2.25904,3.10628 -4.82578,8.27783 -5.55841,11.19905 -1.02208,4.07567 -0.86383,7.45019 0.55635,11.86668 1.00875,3.13654 1.33794,6.22548 1.69226,15.8764 0.47262,12.87564 1.00548,15.20686 4.35175,19.04252 0.80054,0.91759 1.8112,2.66999 2.24585,3.89422 0.435,1.22422 2.78544,6.26985 5.22388,11.21251 3.77227,7.64632 4.94451,9.46416 7.85982,12.18832 1.88443,1.76092 4.6395,3.88799 6.12228,4.72682 1.48278,0.83883 4.4484,2.53746 6.59021,3.77474 8.88786,5.13431 9.67605,5.4551 14.63595,5.95693 2.65928,0.26909 7.1267,0.38959 9.92754,0.26789 2.80085,-0.1217 10.75398,-0.46275 17.67375,-0.75776 z"
       id="path855" /></g></svg>
