<?xml version="1.0" encoding="UTF-8" standalone="no"?>
<svg
   height="512"
   width="512"
   version="1.1"
   id="svg33"
   sodipodi:docname="illusion.svg"
   inkscape:version="1.2.1 (9c6d41e410, 2022-07-14)"
   inkscape:export-filename="illusion.png"
   inkscape:export-xdpi="96"
   inkscape:export-ydpi="96"
   xmlns:inkscape="http://www.inkscape.org/namespaces/inkscape"
   xmlns:sodipodi="http://sodipodi.sourceforge.net/DTD/sodipodi-0.dtd"
   xmlns:xlink="http://www.w3.org/1999/xlink"
   xmlns="http://www.w3.org/2000/svg"
   xmlns:svg="http://www.w3.org/2000/svg">
  <sodipodi:namedview
     id="namedview35"
     pagecolor="#ffffff"
     bordercolor="#000000"
     borderopacity="0.25"
     inkscape:showpageshadow="2"
     inkscape:pageopacity="0.0"
     inkscape:pagecheckerboard="true"
     inkscape:deskcolor="#d1d1d1"
     showgrid="false"
     inkscape:zoom="1.4183568"
     inkscape:cx="-11.985701"
     inkscape:cy="189.30357"
     inkscape:window-width="2560"
     inkscape:window-height="1351"
     inkscape:window-x="2391"
     inkscape:window-y="-9"
     inkscape:window-maximized="1"
     inkscape:current-layer="svg33" />
  <g
     id="g6"
     transform="matrix(3.998001,0,0,3.998001,0.12793603,0.12793603)">
    <use
       height="100"
       transform="scale(1.28)"
       width="100"
       xlink:href="#shape0"
       id="use2" />
    <use
       height="936.34998"
       transform="matrix(0.1171,0,0,0.1171,5.0052,9.2)"
       width="1007.5"
       xlink:href="#sprite0"
       id="use4" />
  </g>
  <defs
     id="defs31">
    <g
       id="shape0">
      <path
         d="M 100,100 H 0 V 0 h 100 v 100"
         fill="#00cc66"
         fill-opacity="0"
         fill-rule="evenodd"
         stroke="none"
         id="path8" />
      <path
         d="M 84.3,84.3 V 15.7 H 15.7 v 68.6 h 68.6 m 7.95,7.95 H 7.75 V 7.75 h 84.5 v 84.5"
         fill="#666666"
         fill-opacity="0"
         fill-rule="evenodd"
         stroke="none"
         id="path10" />
      <path
         d="M 84.3,84.3 H 15.7 V 15.7 H 84.3 V 84.3 M 76.4,76.4 V 23.55 H 23.55 V 76.4 H 76.4"
         fill="#999999"
         fill-opacity="0"
         fill-rule="evenodd"
         stroke="none"
         id="path12" />
      <path
         d="M 92.25,92.25 V 7.75 H 7.75 v 84.5 h 84.5 m 3.8,3.8 H 3.95 V 3.95 h 92.1 v 92.1"
         fill="#333333"
         fill-opacity="0"
         fill-rule="evenodd"
         stroke="none"
         id="path14" />
      <path
         d="M 68.85,68.85 V 31.1 H 31.1 V 68.85 H 68.85 M 76.4,76.4 H 23.55 V 23.55 H 76.4 V 76.4"
         fill="#cccccc"
         fill-opacity="0"
         fill-rule="evenodd"
         stroke="none"
         id="path16" />
      <path
         d="M 68.85,68.85 H 31.1 V 31.1 h 37.75 v 37.75"
         fill="#ffffff"
         fill-opacity="0"
         fill-rule="evenodd"
         stroke="none"
         id="path18" />
      <path
         d="M 96.05,96.05 V 3.95 H 3.95 v 92.1 h 92.1 M 100,100 H 0 V 0 h 100 v 100"
         fill="#000000"
         fill-opacity="0"
         fill-rule="evenodd"
         stroke="none"
         id="path20" />
      <path
         d="M 0,50 H 50 L 0,0 M 50,50 V 0 m 0,100 V 50 L 0,100 M 100,50 H 50 l 50,50 M 50,50 100,0"
         fill="none"
         stroke="#000000"
         stroke-linecap="round"
         stroke-linejoin="round"
         stroke-opacity="0"
         stroke-width="0.05"
         id="path22" />
    </g>
    <g
       id="sprite0"
       transform="translate(-42.75)">
      <use
         height="936.34998"
         transform="translate(42.75)"
         width="1007.5"
         xlink:href="#shape1"
         id="use25" />
    </g>
    <g
       id="shape1"
       transform="translate(-42.75)">
      <path
         d="M 685.55,124.1 Q 627.9,65.55 545.25,65.55 l -20.3,1.05 q -94.2,19.9 -119.55,90.8 -9.4,26.45 -9.4,56.55 0,68.8 48.25,117.5 48.85,48.85 117.65,48.85 65.55,0 150.95,-57.85 -62.8,133.05 -186,128.3 Q 396.65,431.1 340,323.3 323.4,290.85 323.4,248.4 323.4,145.65 396,72.45 428.65,39.7 467.75,22 472.65,19.9 478,17.75 521.55,0 571.95,0 q 102.7,0 175.3,72.45 73.05,73.2 73.05,175.95 0,99.25 -61.1,178.25 -25.45,28 -77.1,67.7 -51.9,39.45 -70.9,117.45 -8.75,28 -8.75,59.6 0,79.6 56.15,135.35 56.4,56.8 136.05,56.8 47.65,0 87.35,-20.3 25.85,-13.85 48.85,-36.5 56,-55.75 56,-135.35 0,-10.05 -3.45,-20.3 Q 955.65,565 913.85,546.45 872.2,527.7 824.75,527.7 q -47.4,-0.5 -94.15,46.05 -47.4,47.25 -47.4,113.4 0,63.45 70.45,142.45 -142.9,-57.25 -138.6,-176.15 18.85,-125.75 123.45,-180.3 31.15,-15.95 71.95,-15.95 99.05,0 169.95,70 31.6,31.45 48.9,69.2 l 4.3,9.6 q 16.65,42.3 16.65,91 0,99.3 -69.85,169.6 -70.9,69.75 -169.95,69.75 -95.65,0 -171.9,-58.45 -73.25,-63.45 -89.7,-136.5 -14.9,-70.9 -39.05,-121.45 -24.4,-51.5 -46.8,-74.2 -58.7,-58 -140.25,-57.35 -83.75,-0.45 -141.8,57.85 -34.85,34.55 -49.15,78.55 -8.95,29.5 -8.75,62.8 -0.2,72.15 45.5,126.4 122.55,85.45 223.55,7.45 47.85,-45.65 48.3,-110.4 0,-68.7 -48.7,-117.4 -46.3,-46.3 -151.2,-52.3 133.25,-61.1 225.1,27.1 78.55,106.15 42.45,222.25 -10.7,34.65 -40.95,64.7 -72.4,72.9 -175.55,73.55 -46.55,0 -86.9,-15.25 -4.9,-2.1 -10.05,-4.65 Q 151.45,891.3 115.75,855.4 43,782.8 42.75,680.1 43,576.5 115.75,503.95 185.4,434.15 283.65,421.7 343.7,411.05 483.5,455.5 l 2.15,0.2 q 28,8.55 59.6,8.55 82.65,0 140.3,-58.3 58.85,-58.55 58.85,-141.15 0,-49.35 -20.85,-90.3 -14.55,-27.15 -38,-50.4 m -158.1,394.8 q 7.95,27.35 30.15,54.2 17.5,-26.85 22.4,-54.2 h -52.55"
         fill="#ffffff"
         fill-rule="evenodd"
         stroke="none"
         id="path28" />
    </g>
  </defs>
</svg>
