<?xml version="1.0" encoding="UTF-8" standalone="no"?>
<svg
   height="512"
   width="512"
   version="1.1"
   id="svg33"
   sodipodi:docname="katana.svg"
   inkscape:version="1.2.1 (9c6d41e410, 2022-07-14)"
   inkscape:export-filename="katana.png"
   inkscape:export-xdpi="96"
   inkscape:export-ydpi="96"
   xmlns:inkscape="http://www.inkscape.org/namespaces/inkscape"
   xmlns:sodipodi="http://sodipodi.sourceforge.net/DTD/sodipodi-0.dtd"
   xmlns:xlink="http://www.w3.org/1999/xlink"
   xmlns="http://www.w3.org/2000/svg"
   xmlns:svg="http://www.w3.org/2000/svg">
  <sodipodi:namedview
     id="namedview35"
     pagecolor="#ffffff"
     bordercolor="#000000"
     borderopacity="0.25"
     inkscape:showpageshadow="2"
     inkscape:pageopacity="0.0"
     inkscape:pagecheckerboard="true"
     inkscape:deskcolor="#d1d1d1"
     showgrid="false"
     inkscape:zoom="1.4183568"
     inkscape:cx="230.54848"
     inkscape:cy="301.40513"
     inkscape:window-width="2560"
     inkscape:window-height="1351"
     inkscape:window-x="2391"
     inkscape:window-y="-9"
     inkscape:window-maximized="1"
     inkscape:current-layer="svg33" />
  <g
     id="g6"
     transform="matrix(3.9980027,0,0,3.991206,0.12793609,0.9978015)">
    <use
       height="100"
       transform="scale(1.28)"
       width="100"
       xlink:href="#shape0"
       id="use2" />
    <use
       height="117.95"
       width="117.9"
       xlink:href="#sprite0"
       id="use4" />
  </g>
  <defs
     id="defs31">
    <g
       id="shape0">
      <path
         d="M 100,100 H 0 V 0 h 100 v 100"
         fill="#00cc66"
         fill-opacity="0"
         fill-rule="evenodd"
         stroke="none"
         id="path8" />
      <path
         d="M 84.3,84.3 V 15.7 H 15.7 v 68.6 h 68.6 m 7.95,7.95 H 7.75 V 7.75 h 84.5 v 84.5"
         fill="#666666"
         fill-opacity="0"
         fill-rule="evenodd"
         stroke="none"
         id="path10" />
      <path
         d="M 84.3,84.3 H 15.7 V 15.7 H 84.3 V 84.3 M 76.4,76.4 V 23.55 H 23.55 V 76.4 H 76.4"
         fill="#999999"
         fill-opacity="0"
         fill-rule="evenodd"
         stroke="none"
         id="path12" />
      <path
         d="M 92.25,92.25 V 7.75 H 7.75 v 84.5 h 84.5 m 3.8,3.8 H 3.95 V 3.95 h 92.1 v 92.1"
         fill="#333333"
         fill-opacity="0"
         fill-rule="evenodd"
         stroke="none"
         id="path14" />
      <path
         d="M 68.85,68.85 V 31.1 H 31.1 V 68.85 H 68.85 M 76.4,76.4 H 23.55 V 23.55 H 76.4 V 76.4"
         fill="#cccccc"
         fill-opacity="0"
         fill-rule="evenodd"
         stroke="none"
         id="path16" />
      <path
         d="M 68.85,68.85 H 31.1 V 31.1 h 37.75 v 37.75"
         fill="#ffffff"
         fill-opacity="0"
         fill-rule="evenodd"
         stroke="none"
         id="path18" />
      <path
         d="M 96.05,96.05 V 3.95 H 3.95 v 92.1 h 92.1 M 100,100 H 0 V 0 h 100 v 100"
         fill="#000000"
         fill-opacity="0"
         fill-rule="evenodd"
         stroke="none"
         id="path20" />
      <path
         d="M 0,50 H 50 L 0,0 M 50,50 V 0 m 0,100 V 50 L 0,100 M 100,50 H 50 l 50,50 M 50,50 100,0"
         fill="none"
         stroke="#000000"
         stroke-linecap="round"
         stroke-linejoin="round"
         stroke-opacity="0"
         stroke-width="0.05"
         id="path22" />
    </g>
    <g
       id="sprite0">
      <use
         height="117.95"
         width="117.9"
         xlink:href="#shape1"
         id="use25" />
    </g>
    <g
       id="shape1">
      <path
         d="m 90.1,81.25 q 0.1,0.2 0.15,0.45 0.05,0.2 0.1,0.4 0.05,0.2 0.1,0.4 0.05,0.25 0.05,0.45 0.05,0.2 0.05,0.4 0,0.2 0,0.4 0,0.2 0,0.4 0,0.2 -0.05,0.35 0,0.15 -0.05,0.3 0,0.1 -0.05,0.25 -0.05,0.15 -0.1,0.25 0,0.15 -0.1,0.25 -0.05,0.15 -0.1,0.3 -0.05,0.1 -0.15,0.25 -0.05,0.1 -0.15,0.2 -0.05,0.15 -0.15,0.25 l -3.5,4.5 q 1.5,1.05 3.15,2.1 1.65,1.05 3.45,2.1 1.75,1 3.7,2.05 1.85,1.05 3.85,2.1 2,1 4.1,2.05 2.1,1 4.3,2 2.15,1 4.4,2 2.25,0.95 4.6,1.9 l -3.7,9.75 q -2.35,-0.95 -4.5,-1.85 -2.25,-1 -4.35,-1.95 -2.2,-1 -4.25,-2 -2.15,-1 -4.2,-2.1 -2.05,-1.05 -4.1,-2.2 -2.05,-1.15 -4.1,-2.35 -2.05,-1.25 -4.1,-2.55 -2.05,-1.3 -4.15,-2.7 l -4.5,5.35 q -0.2,0.25 -0.45,0.5 -0.2,0.25 -0.5,0.45 -0.25,0.2 -0.55,0.35 -0.3,0.15 -0.6,0.25 -0.35,0.15 -0.7,0.2 -0.35,0.1 -0.7,0.15 -0.4,0.05 -0.8,0.05 -0.4,0 -0.85,0 -0.2,0 -0.4,-0.05 -0.2,0 -0.4,-0.05 -0.25,0 -0.45,-0.05 -0.2,-0.05 -0.4,-0.1 -0.2,-0.05 -0.45,-0.1 -0.2,-0.05 -0.4,-0.15 -0.25,-0.05 -0.45,-0.15 -0.2,-0.05 -0.45,-0.15 -0.2,-0.05 -0.35,-0.15 -0.2,-0.05 -0.4,-0.15 -0.2,-0.1 -0.35,-0.2 -0.2,-0.05 -0.4,-0.2 -0.2,-0.1 -0.4,-0.2 -0.2,-0.1 -0.4,-0.25 -0.2,-0.1 -0.4,-0.25 -0.2,-0.15 -0.4,-0.3 L 72,94.3 Q 67.15,91 61.9,86.95 56.4,82.7 50.95,77.95 45.2,72.95 39.8,67.65 34.1,62.05 29,56.4 23.6,50.35 19.1,44.45 14.35,38.15 10.7,32.15 6.85,25.75 4.35,19.8 1.7,13.5 0.6,7.75 l 3.55,-8 q 2.4,6.5 5.8,13 3.25,6.2 7.4,12.45 3.9,5.9 8.65,11.85 4.45,5.55 9.65,11.15 4.85,5.25 10.35,10.45 5.1,4.9 10.7,9.75 5.2,4.45 10.8,8.9 5.15,4.05 10.6,8.1 l 7.95,-9.95 q 0.4,0.3 0.75,0.6 0.4,0.35 0.7,0.65 0.35,0.35 0.6,0.7 0.3,0.35 0.55,0.7 0.25,0.35 0.5,0.75 0.2,0.35 0.4,0.75 0.15,0.4 0.3,0.8 0.15,0.4 0.25,0.85"
         fill="#ffffff"
         fill-rule="evenodd"
         stroke="none"
         id="path28" />
    </g>
  </defs>
</svg>
