<?xml version="1.0" encoding="UTF-8" standalone="no"?>
<!-- Created with Inkscape (http://www.inkscape.org/) -->

<svg
   width="512"
   height="512"
   viewBox="0 0 512 512"
   version="1.1"
   id="svg5"
   inkscape:version="1.2.1 (9c6d41e410, 2022-07-14)"
   sodipodi:docname="armor_clothing.svg"
   xml:space="preserve"
   inkscape:export-filename="armor_clothing.png"
   inkscape:export-xdpi="96"
   inkscape:export-ydpi="96"
   xmlns:inkscape="http://www.inkscape.org/namespaces/inkscape"
   xmlns:sodipodi="http://sodipodi.sourceforge.net/DTD/sodipodi-0.dtd"
   xmlns="http://www.w3.org/2000/svg"
   xmlns:svg="http://www.w3.org/2000/svg"><sodipodi:namedview
     id="namedview7"
     pagecolor="#ffffff"
     bordercolor="#999999"
     borderopacity="1"
     inkscape:pageshadow="0"
     inkscape:pageopacity="0"
     inkscape:pagecheckerboard="true"
     inkscape:document-units="px"
     showgrid="false"
     height="70mm"
     units="px"
     inkscape:zoom="2.0938812"
     inkscape:cx="126.08165"
     inkscape:cy="174.55622"
     inkscape:window-width="2560"
     inkscape:window-height="1351"
     inkscape:window-x="2391"
     inkscape:window-y="-9"
     inkscape:window-maximized="1"
     inkscape:current-layer="layer1"
     inkscape:showpageshadow="2"
     inkscape:deskcolor="#d1d1d1" /><defs
     id="defs2" /><g
     inkscape:label="Layer 1"
     inkscape:groupmode="layer"
     id="layer1"><path
       style="fill:#ffffff;fill-rule:evenodd;stroke-width:0.447056"
       d="m 189.93024,246.93331 c -3.30945,-1.54102 -4.21177,-2.89793 -4.21177,-6.33366 0,-4.41795 2.09394,-8.2473 4.50974,-8.2473 0.40387,0 1.3101,-0.45264 2.01379,-1.00588 1.09283,-0.85916 1.8026,-1.00247 4.86614,-0.98253 3.67295,0.0238 6.41011,0.94364 7.803,2.62197 0.66474,0.80096 1.17835,5.89548 0.76171,7.55547 -0.47694,1.9004 -3.81261,5.69118 -5.80319,6.59502 -2.71698,1.23368 -7.04373,1.14526 -9.93942,-0.20307 z"
       id="path303" /><path
       style="fill:#ffffff;fill-rule:evenodd;stroke-width:0.447056"
       d="m 255.18375,248.4852 c -1.01207,-0.45958 -2.37,-1.53034 -3.01763,-2.37942 -1.03652,-1.35895 -1.17751,-1.95623 -1.17751,-4.98848 0,-4.5455 1.44702,-7.41121 4.56012,-9.03095 1.60343,-0.83427 7.2102,-0.81138 10.48968,0.0429 2.86866,0.74719 4.1204,1.92588 5.3363,5.02491 0.86308,2.19976 0.68697,3.90924 -0.74587,7.23995 -0.81672,1.89853 -1.41641,2.5626 -3.27875,3.63077 -2.05926,1.18112 -2.66751,1.30674 -6.30272,1.30166 -2.96593,-0.004 -4.50718,-0.22526 -5.86362,-0.84126 z"
       id="path305" /><path
       style="fill:#ffffff;fill-rule:evenodd;stroke-width:0.447056"
       d="m 320.97215,244.66184 c -2.6344,-0.70708 -6.05456,-3.95793 -6.05456,-5.75484 0,-1.70854 2.55581,-7.57042 3.6823,-8.44552 0.55648,-0.43231 1.76291,-0.99528 2.68094,-1.25105 1.97605,-0.55056 3.78469,0.17622 4.9806,2.00143 0.50554,0.77151 1.15079,1.14049 1.9945,1.14049 2.33638,0 4.5439,3.49077 4.5439,7.1853 0,2.01632 -1.67462,4.24951 -3.87651,5.16952 -1.8092,0.75593 -5.0344,0.73755 -7.95117,-0.0455 z"
       id="path307" /><path
       style="fill:#ffffff;fill-rule:evenodd;stroke-width:0.447056"
       d="m 202.70659,511.74362 c -1.35235,-0.21827 -5.07409,-0.59374 -8.27053,-0.83439 -6.12772,-0.46132 -10.14831,-1.04982 -12.74109,-1.86489 -0.86059,-0.27054 -5.1108,-0.63075 -9.44493,-0.80041 -7.72582,-0.30247 -7.92262,-0.33472 -10.04332,-1.64584 -2.65139,-1.63926 -4.92277,-4.52795 -5.5331,-7.03692 -0.25168,-1.03467 -0.95663,-3.69179 -1.56657,-5.90472 -3.23993,-11.75502 -3.20641,-16.55537 0.13985,-20.02716 l 1.63648,-1.69787 0.15631,-7.02781 c 0.14393,-6.47068 0.0638,-7.36385 -1.01129,-11.26674 -0.71221,-2.58559 -1.27829,-6.06985 -1.45133,-8.93302 -0.27196,-4.4999 -0.34456,-4.76223 -1.75514,-6.34121 -2.41723,-2.70583 -4.70858,-11.62153 -4.80438,-18.69392 -0.0928,-6.8487 1.49503,-11.65754 4.35825,-13.19948 1.86227,-1.00291 1.90547,-1.3168 0.95195,-6.91803 -0.5191,-3.04927 -0.62725,-8.56674 -0.54746,-27.92895 l 0.0994,-24.12899 -1.90791,-2.14819 c -1.04935,-1.18151 -2.22325,-2.62948 -2.60866,-3.2177 -1.26338,-1.92815 -2.01854,-8.41847 -1.71918,-14.77567 0.31952,-6.78569 1.0472,-8.88297 3.68845,-10.63087 1.60295,-1.06078 1.71349,-1.29117 2.22187,-4.6309 0.72194,-4.74267 0.63964,-14.2304 -0.18946,-21.84387 -0.95481,-8.76756 -1.28951,-20.55549 -0.66617,-23.46202 0.27711,-1.29217 0.62996,-4.69455 0.78408,-7.56087 l 0.28022,-5.21148 -1.81,-2.09129 c -2.65443,-3.06695 -2.97635,-4.43289 -2.9462,-12.50103 0.0254,-6.82851 0.0607,-7.08337 1.32202,-9.57566 l 1.29582,-2.56045 v -10.54184 -10.54185 l -1.28829,-2.4588 c -0.70855,-1.35234 -2.30407,-3.96762 -3.54558,-5.81173 -1.24152,-1.8441 -2.59665,-3.86203 -3.01141,-4.48427 -1.39198,-2.08834 -2.57936,-4.70074 -3.25366,-7.15847 -0.36813,-1.34174 -1.10881,-3.64657 -1.646,-5.12185 -1.29389,-3.55347 -1.14183,-8.26903 0.3335,-10.3409 1.68797,-2.37055 3.60898,-2.96353 10.10572,-3.11951 3.17429,-0.0762 5.89695,-0.26413 6.05034,-0.41758 0.1534,-0.15346 0.2896,-2.12306 0.30268,-4.37691 0.0307,-5.33446 1.02937,-7.53476 6.11949,-13.48608 5.81763,-6.80191 10.55543,-10.49936 15.21913,-11.87725 3.84405,-1.13572 4.36567,-1.55675 6.60781,-5.33341 3.09666,-5.21606 13.33154,-27.00866 13.97006,-29.74576 0.3425,-1.46825 1.04999,-3.506961 1.57215,-4.530491 1.68447,-3.30184 3.02035,-3.85796 11.91746,-4.96127 2.39339,-0.2968 2.744,-0.47398 3.30638,-1.67112 0.346,-0.73652 1.35415,-2.17167 2.24032,-3.18923 0.88618,-1.01757 2.01763,-2.52622 2.51434,-3.35256 0.63227,-1.05184 1.60446,-1.78201 3.24166,-2.43467 1.28621,-0.51275 2.45728,-1.05097 2.60239,-1.19608 0.72709,-0.72709 -0.50268,-2.05348 -2.77837,-2.99671 -1.97594,-0.81898 -3.45535,-2.01774 -7.01235,-5.68208 -2.47945,-2.55425 -5.07146,-5.49301 -5.76002,-6.53056 -2.86114,-4.31124 -3.69394,-9.86677 -4.16974,-27.8157 -0.25862,-9.75553 -0.22288,-10.43099 0.69681,-13.18512 1.90878,-5.71597 3.16348,-7.33637 10.48829,-13.54529 2.64963,-2.2459697 5.22298,-3.8409997 9.93013,-6.1549397 3.49453,-1.71784 7.31686,-3.31243 8.49406,-3.54353 4.45486,-0.87456004 20.93324,-1.89176004 26.53883,-1.63824004 5.91715,0.26762 4.96658,0.0335 19.63654,4.83620004 6.12534,2.00533 12.15524,5.7226797 15.72728,9.6956397 2.37944,2.64652 5.86525,10.22306 7.12583,15.48828 0.47096,1.96704 1.18344,4.68291 1.58334,6.03525 0.99894,3.37822 1.85148,10.79615 1.64415,14.30579 -0.17501,2.96279 -2.71171,11.89778 -4.18841,14.75284 -1.23514,2.38802 -7.90427,9.05795 -11.12853,11.12987 -1.57935,1.01489 -3.65084,2.07874 -4.60332,2.36411 -1.35746,0.40673 -1.70308,0.7151 -1.59901,1.42677 0.10702,0.7318 0.65862,1.00267 2.84352,1.39633 3.34873,0.60335 6.40104,2.34526 8.33532,4.75686 4.04197,5.03942 3.83088,4.89702 7.96627,5.37383 5.83436,0.67272 7.02284,1.10906 9.33681,3.42793 2.98596,2.99229 5.05953,6.325581 7.37902,11.861841 1.11634,2.66453 2.41324,5.47855 2.88201,6.25336 0.46874,0.77482 0.99558,1.9117 1.17072,2.5264 0.42304,1.48478 5.6206,11.85963 7.93486,15.83875 3.14371,5.40526 5.18224,7.87093 7.27144,8.79509 1.05272,0.46566 4.40057,2.28211 7.43965,4.03654 3.03909,1.75444 6.37736,3.55684 7.41839,4.00536 2.52318,1.08709 5.50814,4.14535 6.96552,7.13658 0.87503,1.79596 1.26392,3.4604 1.48277,6.34619 l 0.29664,3.91174 h 3.74838 c 4.46332,0 6.46892,0.71503 7.76173,2.76719 1.23511,1.96057 0.98667,6.15781 -0.60359,10.19742 -0.62917,1.59823 -2.35485,6.8685 -3.83484,11.71173 -1.47999,4.84322 -3.0939,9.59583 -3.58646,10.56134 -0.96529,1.8921 -3.03045,3.85677 -4.56652,4.3443 -0.88472,0.28081 -0.93195,0.50284 -0.64833,3.04852 0.16823,1.51012 0.48166,4.45565 0.69651,6.54563 0.21483,2.08999 0.40493,3.93845 0.42241,4.10768 0.0175,0.16923 0.64281,0.97394 1.38963,1.78822 1.76506,1.92451 2.53152,4.72847 3.09314,11.31575 0.78584,9.21706 0.64487,11.82203 -0.84239,15.56598 l -1.309,3.29522 0.10506,10.91043 c 0.0578,6.00075 0.37798,15.38885 0.71159,20.86247 0.48076,7.88864 0.4976,11.08642 0.0812,15.42342 -0.28897,3.00927 -0.52307,7.1621 -0.52021,9.22849 l 0.005,3.75709 1.75593,1.50301 c 0.96576,0.82666 1.95876,2.15359 2.20667,2.94875 0.98402,3.15622 1.94912,12.42864 1.7648,16.95563 -0.21785,5.34976 -0.8411,6.89906 -4.30271,10.6956 -1.20661,1.32334 -2.32355,2.8192 -2.48209,3.32413 -0.15854,0.50491 0.0307,2.91904 0.42034,5.36468 0.55951,3.51089 0.76088,9.77631 0.95692,29.77389 l 0.2483,25.32728 1.07237,0.57391 c 2.8242,1.51147 3.7149,5.81272 3.72074,17.96777 0.004,8.11977 -0.14557,8.65385 -3.52515,12.59562 l -2.28316,2.66298 v 3.49462 c 0,1.92204 0.2915,5.95425 0.64783,8.96048 1.07141,9.03964 1.58745,14.53695 1.58745,16.91082 0,2.09419 0.14647,2.39179 2.13772,4.34274 2.65954,2.60576 3.22695,4.40949 3.22695,10.25806 0,9.33049 -2.85923,13.818 -10.98283,17.23717 -3.00908,1.26647 -15.00053,3.88022 -17.81765,3.88362 -2.80355,0.004 -16.62442,2.12266 -20.29073,3.11133 -8.3727,2.25781 -10.08844,2.32353 -45.79688,1.75416 -24.69518,-0.39371 -34.35679,-0.39953 -38.0624,-0.0228 -2.73142,0.27768 -9.9956,0.61358 -16.14261,0.7464 -6.14702,0.13286 -12.7858,0.3219 -14.75285,0.42013 -1.96704,0.0982 -4.6829,-5e-5 -6.03525,-0.21833 z m 29.50568,-11.70289 c 5.28643,-0.26927 15.2446,-0.45995 22.12926,-0.42368 64.32481,0.339 59.4892,0.39339 64.37604,-0.72401 2.4588,-0.56222 4.9238,-1.21201 5.47776,-1.44399 0.55397,-0.23193 2.86748,-0.62731 5.14115,-0.8786 9.83879,-1.08733 22.03625,-2.9068 24.47497,-3.65093 0.86058,-0.26259 2.02484,-0.76696 2.58723,-1.12085 l 1.02255,-0.64349 -1.53407,-1.79221 c -1.75063,-2.04519 -2.0895,-3.24513 -1.62848,-5.76625 0.23268,-1.27251 0.15415,-1.92069 -0.27594,-2.27767 -0.82478,-0.68453 -23.92445,-0.28456 -26.10051,0.4519 -1.04868,0.35494 -9.15738,0.67742 -24.58807,0.97793 -15.30248,0.29802 -24.2977,0.65423 -26.82334,1.06221 -6.17279,0.99711 -13.37956,1.53814 -25.25866,1.8961 -16.24187,0.48949 -29.53488,0.40885 -32.63507,-0.19783 -4.61141,-0.90248 -11.29923,-1.47453 -22.61016,-1.93397 -6.00547,-0.2439 -11.72373,-0.63567 -12.70725,-0.8705 -2.40295,-0.5738 -13.50425,-0.57488 -13.85873,0 -0.15197,0.24586 -1.19255,0.44702 -2.31242,0.44702 h -2.03613 l 0.30729,2.12352 c 0.16902,1.16793 0.68618,3.43115 1.14927,5.02938 0.46307,1.59822 1.05397,3.74024 1.31306,4.76002 l 0.47107,1.85412 5.47155,0.2313 c 4.99782,0.21128 8.77869,0.72061 15.5303,2.09222 1.35234,0.27472 5.24611,0.67725 8.65281,0.89452 3.4067,0.21726 6.32374,0.53378 6.48231,0.7034 0.31131,0.33291 12.38563,-0.0143 27.78223,-0.7984 z m 29.05863,-19.5912 c 5.95634,-0.46238 12.51756,-1.40563 12.51756,-1.79953 0,-0.16648 -0.81842,-0.43358 -1.8187,-0.59351 -1.02702,-0.16426 -2.29195,-0.76407 -2.90586,-1.37801 -1.03381,-1.03377 -1.0871,-1.3569 -1.08574,-6.58388 8.9e-4,-3.05535 0.31899,-7.28383 0.71636,-9.52027 0.54554,-3.07021 0.66853,-5.97781 0.51909,-12.27173 -0.18952,-7.98211 -0.16489,-8.27775 0.76369,-9.16462 0.52772,-0.50406 1.22857,-1.58325 1.55742,-2.39823 0.32883,-0.81499 1.31892,-1.97175 2.20017,-2.57058 1.52337,-1.03515 1.93295,-1.08843 8.31611,-1.08179 4.30672,0.004 7.67551,0.23919 9.39615,0.65466 1.78779,0.43167 5.2379,0.65299 10.34524,0.6636 l 7.6629,0.0159 2.17233,1.4967 c 3.38765,2.33404 3.58805,2.93433 4.12705,12.36203 0.26005,4.5488 0.66955,8.93321 0.90995,9.74314 0.2404,0.80993 0.49892,4.34891 0.57444,7.86438 0.15589,7.25607 0.0918,7.434 -3.21559,8.92981 -1.81324,0.82003 -2.67345,0.89008 -8.71758,0.7097 -14.47083,-0.43189 -20.28497,-0.21637 -23.91749,0.8866 -1.8441,0.55998 -4.05703,1.16744 -4.91761,1.34997 -1.26857,0.26911 -1.41107,0.39837 -0.75295,0.68315 1.1448,0.49537 41.58106,-0.47922 44.56442,-1.0741 1.35234,-0.26969 8.59464,-0.61103 16.09401,-0.75861 7.49936,-0.14757 13.81981,-0.44077 14.04545,-0.65154 0.23659,-0.22097 0.43829,-9.80411 0.47652,-22.63868 0.0477,-15.92577 0.21589,-22.61096 0.59236,-23.5054 0.52037,-1.23622 0.49548,-1.26434 -2.26472,-2.56368 -4.97834,-2.34348 -6.56161,-4.64984 -5.90502,-8.6019 0.6794,-4.08936 2.38102,-5.52415 7.80827,-6.58382 l 2.90586,-0.56736 -0.0519,-26.87523 c -0.0445,-23.1061 -0.15425,-27.33388 -0.78235,-30.14561 -0.85223,-3.81517 -0.95529,-9.58666 -0.20938,-11.72635 0.39175,-1.12375 0.39355,-1.53748 0.007,-1.66624 -0.79363,-0.26455 -6.43398,-4.0892 -7.62713,-5.17186 -2.34139,-2.12458 -2.79551,-6.44057 -1.0423,-9.90613 1.23177,-2.43481 4.18295,-4.01613 8.36457,-4.48194 2.34018,-0.26068 2.83861,-0.17548 3.90742,0.66769 1.24815,0.98469 2.12783,0.89965 2.12783,-0.20572 0,-0.33784 -0.88354,-1.33826 -1.96341,-2.22314 -1.07988,-0.88487 -2.23483,-2.25628 -2.56657,-3.04755 -0.69066,-1.64743 -0.74342,-8.74927 -0.17924,-24.12521 0.25957,-7.07402 0.19529,-11.45742 -0.23601,-16.09401 -0.67118,-7.21575 -0.83162,-23.95231 -0.26365,-27.50048 l 0.37649,-2.35205 -1.55336,-0.64903 c -2.50146,-1.04518 -4.3412,-2.88641 -5.49825,-5.5027 -1.26774,-2.86659 -1.41771,-6.12275 -0.35208,-7.64417 0.88025,-1.25673 4.51689,-3.62927 5.56296,-3.62927 0.99125,0 1.97326,-1.15377 1.32371,-1.55522 -1.43487,-0.8868 -2.29451,-3.97894 -2.71013,-9.74837 -0.2341,-3.24943 -0.6288,-6.61084 -0.87715,-7.4698 -0.24835,-0.85896 -0.45153,-3.25984 -0.45153,-5.33529 0,-5.9542 1.40891,-8.07474 6.38069,-9.60359 0.43585,-0.13402 0.87246,-0.49971 0.97021,-0.81265 0.0978,-0.31295 1.09867,-3.48599 2.22426,-7.05126 2.85565,-9.04517 2.88801,-9.27259 1.37353,-9.6527 -0.67374,-0.16908 -7.28544,-0.1668 -14.69266,0.005 -7.40722,0.17188 -29.04886,0.32089 -48.09253,0.33116 -21.77106,0.0117 -35.0479,0.18322 -35.76446,0.46186 -0.66661,0.25926 -8.84005,0.49813 -19.69243,0.5756 -11.42676,0.0815 -20.26993,0.34864 -23.02337,0.69542 -3.2437,0.40848 -12.1998,0.5396 -32.63507,0.47774 l -28.16452,-0.0853 -0.94452,-1.14069 c -0.89953,-1.08638 -1.08751,-1.12539 -3.94721,-0.81914 -1.65148,0.17686 -3.08523,0.54788 -3.1861,0.8245 -0.48749,1.3368 1.77886,6.49591 5.13065,11.67933 2.11963,3.27793 5.43663,8.91064 6.31833,10.72934 0.50903,1.05005 0.69894,4.33902 0.8748,15.15188 0.24501,15.06367 0.0212,13.93335 2.97587,15.02396 1.03549,0.38222 1.77778,1.2103 2.7941,3.11713 1.18936,2.23145 1.384,3.0628 1.384,5.91106 0,3.15889 -0.0682,3.37901 -1.45293,4.69114 -0.79911,0.7572 -2.03832,1.67413 -2.75379,2.03762 l -1.30086,0.66088 -0.0615,8.2206 c -0.0339,4.52133 -0.23172,11.06228 -0.43972,14.53544 -0.30887,5.15648 -0.1883,8.64172 0.65728,18.99987 0.9381,11.49185 0.98307,13.27165 0.47816,18.92157 -0.30654,3.4301 -0.84132,7.05125 -1.18839,8.04701 -0.34705,0.99575 -0.63396,2.12623 -0.63754,2.51219 -0.004,0.38597 1.42516,2.07626 3.17498,3.75624 3.93608,3.77901 5.30202,6.45307 5.30821,10.39173 0.004,2.5497 -0.11724,2.90079 -1.4681,4.25166 -0.81616,0.81616 -2.46007,1.78203 -3.68821,2.16698 -2.05628,0.64452 -2.20584,0.78897 -2.07807,2.00711 0.0757,0.72194 0.19254,13.08136 0.25963,27.46538 0.0884,18.95643 0.27461,26.76783 0.67672,28.38804 0.30511,1.2294 0.61667,4.83708 0.69237,8.01705 l 0.13762,5.78177 1.96754,0.5737 c 2.4051,0.70129 5.64089,3.38652 6.46889,5.3682 0.33684,0.80615 0.61241,2.56324 0.61241,3.90465 0,2.11636 -0.21636,2.7243 -1.6358,4.59668 -0.89969,1.18676 -1.76441,2.21129 -1.92161,2.27673 -0.15721,0.0654 -1.38254,0.91567 -2.72299,1.88942 -1.34045,0.97375 -2.83407,2.04945 -3.31914,2.39046 -0.79596,0.55957 -0.82298,0.74587 -0.27705,1.91056 0.3327,0.7098 0.76307,3.70464 0.95635,6.6552 0.2456,3.74896 0.71991,6.57646 1.57489,9.38818 1.15077,3.78446 1.22431,4.54141 1.23779,12.74109 0.008,4.79467 -0.19815,9.55237 -0.45789,10.57264 -0.26058,1.02367 -0.30532,2.12566 -0.0999,2.45881 0.27594,0.4474 2.31563,0.68158 7.87763,0.90444 4.12791,0.16537 10.32175,0.51194 13.76408,0.77023 3.44233,0.2582 10.68463,0.69812 16.09401,0.97753 6.2796,0.32439 11.12818,0.80734 13.41167,1.33594 3.26226,0.75512 5.0492,0.80528 20.34104,0.57102 9.22053,-0.14128 18.87693,-0.42087 21.45868,-0.62127 z M 218.13001,175.1666 c 3.23222,-0.62076 15.44166,-0.8507 75.3289,-1.41866 25.20278,-0.23903 48.63967,-0.57924 52.08201,-0.75605 l 6.25878,-0.32148 -0.0834,-1.78823 c -0.0461,-0.98352 -0.22214,-3.55103 -0.39164,-5.70558 -0.27462,-3.49008 -0.41182,-3.94328 -1.25776,-4.15495 -0.52222,-0.13069 -11.6118,-0.11967 -24.64348,0.0244 -13.03167,0.14414 -27.51628,0.24056 -32.18801,0.2143 -22.66014,-0.1274 -28.21578,-0.0648 -34.4233,0.38793 -3.68821,0.269 -13.1062,0.68806 -20.92887,0.93129 -7.82267,0.24321 -14.8638,0.64199 -15.64695,0.88613 -2.18556,0.68133 -28.98003,1.50471 -43.00011,1.32137 l -12.51756,-0.16367 -0.26778,4.0235 c -0.14732,2.21293 -0.42664,4.78741 -0.62074,5.72106 l -0.35293,1.69756 24.98528,-0.1919 c 16.21431,-0.12454 25.9269,-0.37273 27.66761,-0.70704 z m -5.52918,-16.03425 c 6.54829,-0.23442 12.17853,-0.59467 12.51164,-0.80054 0.33312,-0.20588 5.33593,-0.53072 11.11738,-0.72188 5.78145,-0.19115 14.93759,-0.56378 20.34696,-0.82807 5.40938,-0.26428 27.06917,-0.5192 48.13288,-0.56651 21.0637,-0.0471 38.43406,-0.22235 38.6008,-0.38904 0.39307,-0.39291 -2.5569,-2.25962 -7.60732,-4.81379 -2.21431,-1.11983 -4.78205,-2.61528 -5.70608,-3.3232 -1.78085,-1.36435 -5.21509,-5.82716 -7.14576,-9.28594 -0.63827,-1.14346 -1.6283,-2.85345 -2.20007,-3.79997 -1.68292,-2.78598 -5.90885,-11.49924 -9.07391,-18.70909 -1.6191,-3.68821 -3.41279,-7.61113 -3.986,-8.71759 l -1.04219,-2.01175 -11.79803,-0.14742 c -6.48892,-0.0811 -18.53739,0.1201 -26.7744,0.44703 -8.237,0.32698 -16.38459,0.55532 -18.10576,0.50744 -1.72116,-0.0477 -11.04849,-0.17707 -20.72739,-0.28705 -12.81976,-0.14573 -17.87942,-0.35066 -18.63442,-0.75471 -1.38412,-0.74076 -2.35329,-0.29865 -2.67778,1.22145 -0.41642,1.95081 -1.70222,4.87142 -7.52718,17.09747 -5.73587,12.03906 -8.84009,17.62153 -11.1587,20.06722 -1.67844,1.77044 -4.50744,3.28759 -8.05136,4.31784 -1.71447,0.49839 -3.43525,1.46481 -5.1516,2.89317 -3.06628,2.55177 -7.21219,7.10828 -7.21219,7.92645 0,0.37893 0.66162,0.59686 1.89999,0.62591 1.04499,0.0244 2.40292,0.20858 3.01762,0.409 1.32853,0.43321 22.24119,0.24184 38.95287,-0.35642 z m 55.3759,-58.69536 c 2.58175,-0.22982 8.76788,-0.538071 13.74697,-0.684951 4.97908,-0.14689 9.04877,-0.3973 9.04374,-0.55645 -0.005,-0.15918 -1.06262,-1.69326 -2.35019,-3.40912 -2.59297,-3.45547 -2.50369,-3.41243 -9.21515,-4.44253 -2.94531,-0.45206 -5.21426,-1.06471 -6.20047,-1.67423 l -1.55539,-0.96128 -1.42331,1.69533 c -1.39322,1.65949 -1.50788,1.70277 -5.42297,2.04682 -2.1998,0.19333 -5.40787,0.56417 -7.12904,0.82412 -4.56475,0.68944 -6.99552,0.59905 -10.57646,-0.39328 -3.02942,-0.8395 -3.94579,-1.35144 -5.93049,-3.31322 -0.84532,-0.83555 -0.87298,-0.83401 -1.62147,0.0903 -1.13858,1.4061 -3.78151,2.21916 -8.02434,2.46856 -3.74166,0.21997 -3.82285,0.24968 -5.2902,1.93656 -1.53019,1.7591 -2.73882,4.1557 -2.89308,5.73667 -0.0848,0.868771 0.26132,0.901691 12.20678,1.161161 13.68207,0.29717 25.54728,0.10649 32.63507,-0.5245 z m -2.4588,-13.404811 c 0.83219,-0.82852 0.90402,-1.58995 1.03717,-10.99549 0.0787,-5.55793 -0.0217,-10.26293 -0.22352,-10.45557 -0.20164,-0.19264 -4.08832,-0.41753 -8.63712,-0.49982 l -8.27053,-0.14959 -0.57665,2.01087 c -0.31713,1.10598 -0.96008,2.81557 -1.42873,3.79909 -0.46863,0.98353 -0.93869,2.99528 -1.04454,4.47056 -0.10585,1.47528 -0.4519,4.12585 -0.76902,5.89014 -0.39344,2.18905 -0.44173,3.67981 -0.15197,4.69408 0.67286,2.35545 2.15187,2.66483 11.34735,2.37364 7.02317,-0.22241 7.91494,-0.3388 8.71759,-1.13792 z m -24.8116,-12.48247 c 0,-2.15588 0.12571,-4.54846 0.27943,-5.31684 0.27546,-1.37728 0.25428,-1.39705 -1.49799,-1.39705 -3.15737,0 -4.46481,-0.79511 -7.95835,-4.83986 -2.6237,-3.03762 -3.54646,-4.50086 -4.40768,-6.98923 -2.4735,-7.14687 -2.6283,-8.04184 -2.38703,-13.80038 0.32153,-7.67363 1.77023,-11.41703 6.3169,-16.32248 1.77355,-1.9135 5.42664,-3.75942 11.88622,-6.00618 l 5.14492,-1.7895 6.70584,0.0523 c 3.96443,0.0309 7.63156,0.29499 8.97028,0.64589 2.80547,0.73537 13.8328,6.59188 16.14591,8.57493 3.75705,3.22098 6.68542,9.11962 7.73356,15.57777 0.96169,5.92549 0.29887,9.01498 -2.8956,13.49678 -3.54586,4.97479 -5.3884,6.72341 -8.92679,8.47176 l -3.36866,1.66449 v 4.4629 c 0,4.36127 0.0228,4.45965 0.99714,4.32005 0.70927,-0.10162 1.33976,-0.85868 2.18392,-2.62237 0.94696,-1.97845 1.53595,-2.62806 2.9146,-3.21459 0.9503,-0.40429 2.64649,-1.12174 3.76933,-1.59433 2.47861,-1.04325 7.76189,-5.88187 8.93658,-8.18444 0.46974,-0.92075 1.37703,-3.44892 2.01622,-5.61817 1.39815,-4.74497 1.28446,-8.29127 -0.51343,-16.01458 -1.57036,-6.74605 -2.25778,-8.77969 -4.47119,-13.22741 -1.80864,-3.63436 -2.09389,-3.96081 -5.34482,-6.11669 -2.5267,-1.67561 -4.80928,-2.70792 -8.63774,-3.90648 -2.86194,-0.89598 -6.30999,-2.06638 -7.66234,-2.6009 -2.31387,-0.91457 -3.12214,-0.96783 -13.71313,-0.90362 -11.80975,0.0716 -15.34758,0.50008 -19.14547,2.31875 -0.98352,0.47097 -2.89468,1.37724 -4.24703,2.01392 -2.60678,1.22727 -6.952,4.56285 -10.28228,7.89313 -3.14087,3.14087 -3.59055,5.16454 -3.3279,14.97637 0.24358,9.09907 0.88744,15.93445 1.81081,19.2234 0.5084,1.81089 1.33201,2.95674 4.33796,6.03525 2.10093,2.15165 4.73074,4.34039 6.06265,5.04582 1.66822,0.88356 2.53304,1.67856 2.97399,2.7339 0.50702,1.21346 0.93464,1.53939 2.31736,1.76627 2.50979,0.41182 4.58252,1.87759 5.41648,3.83039 1.19837,2.8061 1.86733,1.8607 1.86733,-2.63899 z m 17.87236,-23.08423 15.4333,-0.14435 1.0423,-1.46611 c 0.91826,-1.29164 1.01449,-1.82495 0.80858,-4.48117 -0.2833,-3.65432 -2.06925,-7.8952 -4.06158,-9.64449 -0.77397,-0.67955 -3.63282,-2.37297 -6.353,-3.76314 -4.73707,-2.42093 -5.13277,-2.54048 -9.37642,-2.83275 -4.31668,-0.29731 -4.56262,-0.26146 -9.56279,1.39412 -4.4016,1.45739 -5.39964,1.97259 -7.01113,3.61919 -2.29968,2.34979 -3.01293,4.58039 -2.98155,9.3245 0.0217,3.26548 0.3237,4.63599 1.99163,9.03555 l 0.37474,0.98855 2.1313,-0.94278 c 2.00988,-0.88906 3.01056,-0.95099 17.5646,-1.08712 z"
       id="path309" /><path
       style="fill:#ffffff;fill-rule:evenodd;stroke-width:0.447056"
       d="m 271.9,320.04086 c -4.48559,-0.4314 -4.92147,-1.02604 -5.37179,-7.32834 -0.75971,-10.63206 -0.89539,-18.36978 -0.36379,-20.74527 0.44168,-1.97354 0.37538,-3.39401 -0.41817,-8.96257 -0.75815,-5.32027 -0.90329,-8.0632 -0.74049,-13.99376 0.24697,-8.99613 0.99252,-17.13299 1.69153,-18.46078 0.99267,-1.88561 2.43834,-2.15947 4.33979,-0.82211 1.00999,0.71037 1.61927,0.78347 4.09251,0.49108 1.59823,-0.18893 9.56543,-0.41366 17.7049,-0.49934 l 14.79903,-0.15579 3.05279,1.58859 c 4.36552,2.27169 4.86976,3.10982 5.04752,8.38988 0.0952,2.82768 -0.10511,5.48927 -0.57799,7.68024 -0.39804,1.8441 -0.92339,6.58405 -1.16747,10.53321 -0.3838,6.20964 -0.34028,7.69029 0.32195,10.95287 0.97466,4.802 1.33007,20.48178 0.58469,25.79443 -0.43183,3.07782 -0.70639,3.84069 -1.64921,4.58232 -1.35836,1.06848 -3.60577,1.14431 -6.63947,0.22399 -3.1266,-0.94849 -11.95981,-0.91174 -14.54415,0.0605 -2.14698,0.80771 -14.47427,1.21785 -20.16219,0.67082 z"
       id="path311" /><path
       style="fill:#ffffff;fill-rule:evenodd;stroke-width:0.447056"
       d="m 228.85935,320.39807 c -6.63878,-0.16765 -14.26404,-0.33133 -16.94503,-0.36379 l -4.87452,-0.059 -1.60835,-1.74215 c -3.03658,-3.28921 -2.99952,-2.37552 -1.95311,-48.16162 0.38269,-16.74518 0.38592,-16.77057 2.30938,-18.384 0.81541,-0.68397 4.77151,-0.71722 9.93829,-0.0835 3.12209,0.38295 4.35421,0.34668 6.48231,-0.19063 1.99215,-0.503 6.23079,-0.69872 17.52839,-0.80935 l 14.90086,-0.14588 0.85202,1.04819 c 1.73698,2.13692 1.87683,4.01448 1.55349,20.85754 -0.16992,8.85171 -0.51364,16.80359 -0.76382,17.67086 -0.26821,0.92982 -0.34599,3.77312 -0.18957,6.92936 1.00688,20.31311 0.92943,21.17925 -2.05656,22.99977 -1.65736,1.01046 -2.07145,1.01761 -25.17379,0.43426 z"
       id="path313" /><path
       style="fill:#ffffff;fill-rule:evenodd;stroke-width:0.447056"
       d="m 174.90949,321.32528 c -2.02673,-0.61173 -4.314,-2.66818 -4.88204,-4.38939 -0.59832,-1.81293 -0.24708,-15.7207 0.48775,-19.3134 0.22632,-1.10646 0.42023,-10.51941 0.43093,-20.91766 0.0185,-18.04304 0.0605,-18.98643 0.91933,-20.6698 1.48322,-2.90736 2.4953,-3.3014 9.35963,-3.64402 3.33192,-0.16632 7.19225,-0.44083 8.57852,-0.61002 2.99334,-0.36538 5.52614,0.32926 6.27024,1.71963 0.7567,1.41391 1.85346,11.00927 1.87505,16.40441 0.0122,3.07309 -0.23935,5.62038 -0.72877,7.37643 -0.66723,2.39413 -0.71727,4.74828 -0.46572,21.91035 l 0.28181,19.22804 -1.11206,1.29285 c -1.03576,1.20414 -1.41639,1.31737 -5.54714,1.65013 -5.62778,0.45332 -13.90779,0.43325 -15.46759,-0.0376 z"
       id="path315" /><path
       style="fill:#ffffff;fill-rule:evenodd;stroke-width:0.447056"
       d="m 176.69054,227.25648 c -4.66049,-1.25467 -4.8308,-1.79925 -4.8308,-15.4465 0,-10.2479 0.0693,-11.26791 0.81654,-12.01513 0.74952,-0.74952 1.5797,-0.80316 10.1143,-0.65338 14.14147,0.24819 13.77207,-0.10887 14.02297,13.55419 0.19423,10.57698 -0.12332,12.57136 -2.17044,13.62996 -2.62174,1.35575 -14.15333,1.95367 -17.95257,0.93086 z"
       id="path317" /><path
       style="fill:#ffffff;fill-rule:evenodd;stroke-width:0.447056"
       d="m 242.0475,226.92484 c -0.78583,-0.35881 -6.06266,-0.48304 -17.77411,-0.41833 -9.16106,0.0508 -17.06055,-0.036 -17.55444,-0.19296 -0.49389,-0.15674 -1.26344,-1.02478 -1.71012,-1.92896 -0.72665,-1.47087 -0.80237,-2.79708 -0.71921,-12.59682 0.10262,-12.09189 0.2941,-13.10184 2.6181,-13.80621 1.64963,-0.49998 11.01417,-1.16466 16.36343,-1.16144 2.7067,0.002 4.23266,0.22325 5.30387,0.77029 1.33961,0.68411 2.19425,0.72124 7.82348,0.3399 15.91646,-1.07828 15.3781,-1.06772 16.51324,-0.32396 0.58801,0.38528 1.28768,1.26931 1.55483,1.96453 0.61235,1.5935 1.42737,24.68387 0.9082,25.7301 -0.21075,0.42468 -0.73525,0.96054 -1.16561,1.19086 -1.27019,0.67978 -10.87252,1.02166 -12.16166,0.433 z"
       id="path319" /><path
       style="fill:#ffffff;fill-rule:evenodd;stroke-width:0.447056"
       d="m 300.89406,227.56797 c -0.17262,-0.17262 -6.49285,-0.34737 -14.045,-0.3884 -16.46227,-0.0894 -18.23807,-0.29802 -19.58421,-2.30009 -0.94433,-1.40448 -0.96356,-1.73972 -0.83326,-14.52932 0.0733,-7.20041 0.14927,-13.21025 0.16865,-13.3552 0.0196,-0.14493 0.50433,-0.47721 1.07756,-0.73841 0.8059,-0.36717 1.63767,-0.27387 3.66806,0.4116 2.51256,0.84824 2.80023,0.85622 6.66946,0.18502 3.25402,-0.56449 6.83721,-0.67154 18.34943,-0.5482 7.86819,0.0843 14.76649,0.30861 15.32957,0.49844 2.16378,0.72961 2.42309,2.19237 2.33046,13.14615 -0.0471,5.55983 0.062,10.975 0.24232,12.0337 0.69593,4.08648 -2.04553,5.89857 -8.9238,5.89857 -2.2745,0 -4.27668,-0.14123 -4.44927,-0.3138 z"
       id="path321" /><path
       style="fill:#ffffff;fill-rule:evenodd;stroke-width:0.447056"
       d="m 324.47677,226.59449 c -2.87173,-1.32798 -3.3004,-2.26639 -3.3004,-7.22509 0,-2.60475 0.27695,-5.22252 0.70502,-6.66397 0.69485,-2.33982 0.68001,-6.44187 -0.0349,-9.68786 -0.43549,-1.97683 0.76881,-4.09402 2.81505,-4.949 2.24346,-0.93738 12.63944,-0.65467 14.62179,0.39763 3.13014,1.66157 3.28347,2.37636 3.63007,16.92276 0.30326,12.72668 1.02034,11.7824 -9.0671,11.9395 -6.61597,0.10305 -7.75179,0.0143 -9.36939,-0.73396 z"
       id="path323" /><path
       style="fill:#ffffff;fill-rule:evenodd;stroke-width:0.447056"
       d="m 325.90011,319.26817 c -3.69724,-1.35418 -3.49971,-0.28382 -3.16829,-17.16876 0.47208,-24.05101 0.47589,-25.8072 0.0711,-33.08849 -0.26889,-4.83692 -0.66088,-7.80109 -1.29813,-9.81619 -0.83913,-2.65348 -0.86221,-3.08382 -0.28541,-5.32397 0.44125,-1.7136 1.00209,-2.71468 1.88911,-3.37196 1.38944,-1.02955 2.52824,-1.06985 11.03247,-0.39037 5.38533,0.4303 6.69437,1.05123 8.12407,3.85367 0.86142,1.68851 0.93254,2.76749 1.1227,17.03159 0.15817,11.86361 0.36018,15.87102 0.91429,18.13474 1.31865,5.3872 2.68223,23.07915 1.96364,25.47758 -0.90011,3.00431 -1.97161,3.92203 -4.86131,4.16365 -1.41312,0.11814 -3.47459,0.42902 -4.58106,0.69076 -2.85047,0.67434 -8.84528,0.56883 -10.92322,-0.19222 z"
       id="path325" /><path
       style="fill:#ffffff;fill-rule:evenodd;stroke-width:0.447056"
       d="m 324.31661,339.84479 c -4.59193,-1.2745 -7.6108,-3.63326 -7.6108,-5.94662 0,-4.02737 3.33412,-8.18057 7.74536,-9.64814 2.59634,-0.86377 2.60986,-0.86362 4.47056,0.0514 1.02649,0.50469 2.57331,1.25274 3.43739,1.66238 3.17055,1.50305 5.05908,6.6995 3.44249,9.47234 -2.54677,4.36831 -6.35876,5.83165 -11.485,4.40885 z"
       id="path327" /><path
       style="fill:#ffffff;fill-rule:evenodd;stroke-width:0.447056"
       d="m 329.97981,412.06606 c -3.39746,-0.41912 -5.11113,-1.30366 -5.41898,-2.79704 -0.60714,-2.94537 -0.86322,-12.16479 -0.88457,-31.84707 -0.0132,-12.04815 0.0413,-22.50926 0.12052,-23.2469 0.0794,-0.73764 6.2e-4,-2.56104 -0.17496,-4.052 -0.36955,-3.13822 0.1335,-4.45084 2.62237,-6.84269 1.74386,-1.67586 3.78721,-2.24286 8.19504,-2.27399 5.69688,-0.0402 9.70965,3.50033 10.61823,9.36871 0.1713,1.10646 0.16802,14.45099 -0.007,29.65451 -0.31252,27.09756 -0.33741,27.67069 -1.26107,29.05862 -1.9496,2.92958 -6.4078,3.89095 -13.80922,2.97785 z"
       id="path329" /><path
       style="fill:#ffffff;fill-rule:evenodd;stroke-width:0.447056"
       d="m 271.68122,412.19138 c -1.76906,-0.3227 -3.53807,-2.4507 -4.34512,-5.22688 -0.67386,-2.318 -0.72672,-4.04001 -0.45248,-14.74239 0.26699,-10.42168 0.45058,-12.66473 1.31147,-16.02511 0.75454,-2.9453 0.906,-4.32115 0.61515,-5.5882 -0.21223,-0.9245 -0.71717,-3.08913 -1.12212,-4.8103 -0.96003,-4.08038 -1.25419,-9.28412 -0.62659,-11.08446 0.27398,-0.78589 0.62178,-2.89189 0.77294,-4.67999 0.25777,-3.04948 0.37993,-3.34609 1.9701,-4.7827 0.93241,-0.84237 2.36111,-1.65501 3.17489,-1.80587 2.4508,-0.45434 32.00927,0.0503 36.57349,0.62467 2.86996,0.36103 4.48448,0.78125 4.97938,1.29606 0.40281,0.41902 1.10471,2.57241 1.55982,4.78534 0.97046,4.71881 1.06961,18.7891 0.20164,28.61157 -0.66069,7.47672 -0.72183,12.1682 -0.27445,21.06116 0.47117,9.36666 0.29807,10.28288 -2.14754,11.36467 -1.72519,0.76314 -3.55659,0.84887 -21.5432,1.0085 -10.81176,0.096 -20.10306,0.0932 -20.64734,-0.006 z"
       id="path331" /><path
       style="fill:#ffffff;fill-rule:evenodd;stroke-width:0.447056"
       d="m 256.17933,343.24371 c -2.46492,-0.58484 -3.87831,-1.18891 -4.69408,-2.0062 -1.10153,-1.10359 -1.16609,-1.41402 -1.14706,-5.51585 0.0249,-5.37886 0.93125,-7.46677 4.1278,-9.50949 2.08261,-1.33086 2.17056,-1.34535 6.58138,-1.08396 5.70233,0.33795 6.68134,0.73372 8.13973,3.29068 0.64691,1.13422 1.42202,2.36396 1.72247,2.73279 0.92469,1.13512 1.23041,4.38647 0.61808,6.57347 -0.56145,2.00532 -2.21876,3.63618 -5.36753,5.28186 -2.00982,1.05042 -6.13856,1.14833 -9.98079,0.2367 z"
       id="path333" /><path
       style="fill:#ffffff;fill-rule:evenodd;stroke-width:0.447056"
       d="m 208.44444,414.35697 c -1.04463,-0.83492 -1.22729,-1.37907 -1.48182,-4.41435 -0.15965,-1.90412 -0.61257,-5.17203 -1.00645,-7.26202 -0.60097,-3.18886 -0.72552,-8.04177 -0.77451,-30.17626 -0.0323,-14.50696 0.0974,-26.70654 0.28775,-27.11018 0.19036,-0.40366 1.24155,-1.25863 2.33593,-1.89999 2.78264,-1.63073 7.83748,-1.65045 12.42273,-0.0487 3.15866,1.10357 3.38227,1.11767 17.76208,1.12013 15.2948,0.003 17.48279,0.22918 18.53928,1.91968 0.48622,0.77799 0.69217,5.61104 0.98493,23.11295 0.60865,36.38756 0.56166,40.64431 -0.46742,42.34548 -1.71199,2.83006 -2.12619,2.88011 -25.95233,3.13539 -21.39354,0.22924 -21.46229,0.22701 -22.65018,-0.72238 z"
       id="path335" /><path
       style="fill:#ffffff;fill-rule:evenodd;stroke-width:0.447056"
       d="m 178.24878,412.55398 c -1.2807,-0.15568 -2.8901,-0.69865 -3.57645,-1.20666 -2.58861,-1.916 -2.59707,-1.98464 -2.50194,-20.29017 0.11592,-22.29988 0.12301,-26.17652 0.0612,-33.41742 -0.0286,-3.38086 0.15791,-7.42475 0.41505,-8.98643 0.40482,-2.45893 0.7088,-3.06444 2.26834,-4.51869 l 1.80086,-1.67927 6.23011,-0.22404 c 3.42656,-0.12322 6.47037,-0.37252 6.76403,-0.55403 0.36172,-0.22357 -0.0519,-0.87061 -1.28175,-2.00619 l -1.81566,-1.67621 v -3.89085 c 0,-4.31874 0.5048,-5.75393 2.55426,-7.26203 1.91564,-1.40963 6.68001,-3.7373 7.64965,-3.7373 1.23627,0 6.77012,2.08394 7.65118,2.88129 0.41711,0.37745 1.22383,1.61833 1.79275,2.75748 0.94743,1.89706 0.99018,2.26872 0.5085,4.42103 -0.55196,2.46643 -3.11775,6.37947 -5.31168,8.10075 -0.66521,0.52191 -2.06447,1.09282 -3.10946,1.2687 -1.82021,0.30638 -2.36555,0.79481 -1.4909,1.33537 0.225,0.13906 0.91469,1.60945 1.53265,3.26754 1.10341,2.96063 1.12468,3.25932 1.18573,16.64991 0.0344,7.49936 -0.0312,20.79741 -0.14578,29.55122 -0.2214,16.94652 -0.3613,18.0147 -2.50989,19.16461 -0.9267,0.49596 -14.70118,0.53388 -18.67085,0.0514 z"
       id="path337" /><path
       style="fill:#ffffff;fill-rule:evenodd;stroke-width:0.447056"
       d="m 240.25928,478.01788 c -2.08999,-0.31264 -4.90645,-0.78884 -6.25879,-1.05821 -5.10018,-1.01592 -18.20687,-1.81369 -19.24602,-1.17147 -0.24104,0.14896 -1.97058,0.27689 -3.84342,0.2842 -3.17943,0.0127 -3.49218,-0.0737 -4.71791,-1.2994 -1.76356,-1.76356 -2.2479,-4.05536 -1.67962,-7.9477 0.38343,-2.62648 0.65199,-15.39029 0.46069,-21.89795 -0.0291,-0.98352 0.0688,-3.01234 0.21705,-4.50849 0.22849,-2.30539 0.52826,-3.02057 1.96549,-4.68932 1.94331,-2.25635 0.87417,-2.14311 12.985,-1.37541 7.62435,0.4833 32.77587,0.67171 33.19888,0.24872 0.14615,-0.14615 -0.12131,-0.90059 -0.5944,-1.67647 -0.69398,-1.13812 -0.8605,-2.25713 -0.86185,-5.79168 -0.002,-5.15063 0.38788,-6.1319 3.42403,-8.61825 1.98778,-1.62783 2.33447,-1.75047 4.83426,-1.71011 1.60645,0.026 4.18216,0.53019 6.38419,1.24983 4.2139,1.37713 5.04632,2.24312 5.36731,5.58381 0.1686,1.75485 -0.0676,2.71957 -1.33496,5.45102 -2.96629,6.39322 -4.95144,7.82596 -10.27463,7.41546 -1.91634,-0.14779 -3.48426,-0.18507 -3.48426,-0.0828 0,0.10226 0.51481,1.15211 1.14406,2.33305 l 1.14406,2.14717 -0.2178,10.50581 c -0.28012,13.5106 -0.88151,22.75785 -1.56278,24.02925 -0.93122,1.73787 -2.31752,2.23388 -6.98983,2.50093 -2.45881,0.14054 -4.87291,0.34345 -5.36468,0.451 -0.49177,0.10749 -2.6041,-0.0603 -4.69408,-0.37295 z"
       id="path339" /><path
       style="fill:#ffffff;fill-rule:evenodd;stroke-width:0.447056"
       d="m 181.40635,473.59202 c -3.72992,-0.37438 -5.21387,-0.70939 -5.90212,-1.33244 -1.00596,-0.91063 -1.03506,-1.34606 -1.65456,-24.75879 l -0.26312,-9.94415 1.4715,-1.34401 c 1.42987,-1.30599 1.61097,-1.347 6.40125,-1.44955 2.71136,-0.058 5.96147,-0.0711 7.22246,-0.0291 3.19001,0.10654 8.68213,2.01487 9.69739,3.36952 1.21046,1.61509 1.4713,8.23205 0.57359,14.55081 -0.4017,2.82748 -0.71672,7.99427 -0.71672,11.75553 0,6.46575 -0.0387,6.74951 -1.06054,7.77133 -2.07426,2.07426 -5.81991,2.40935 -15.76914,1.4107 z"
       id="path341" /><path
       style="fill:#ffffff;fill-rule:evenodd;stroke-width:0.447056"
       d="m 194.90175,434.54252 c -1.63515,-0.41536 -2.83028,-1.50002 -4.66753,-4.23613 -1.69928,-2.53063 -1.83124,-2.94606 -1.80371,-5.67816 0.0238,-2.35059 0.28086,-3.40058 1.26959,-5.18304 0.68194,-1.2294 1.72474,-2.48378 2.31734,-2.78751 2.48152,-1.27186 10.29492,-0.20349 12.96863,1.77324 2.63376,1.94723 2.7632,5.79711 0.39063,11.61926 -0.72925,1.78956 -1.32659,3.29887 -1.32744,3.35403 -8.5e-4,0.0552 -0.59507,0.4072 -1.3205,0.78234 -1.27074,0.65713 -5.82589,0.86429 -7.82704,0.35595 z"
       id="path343" /><path
       style="fill:#ffffff;fill-rule:evenodd;stroke-width:0.447056"
       d="m 325.5847,471.56761 c -0.9116,-0.73736 -1.09671,-1.39219 -1.35851,-4.80584 -0.1667,-2.17369 -0.53626,-5.46098 -0.82124,-7.30508 -0.66126,-4.27914 -0.30829,-21.41633 0.49029,-23.80534 0.30818,-0.92185 0.44364,-1.79272 0.30109,-1.93529 -0.14255,-0.14255 -1.57947,-0.56037 -3.1931,-0.92844 -2.29101,-0.52259 -3.1941,-0.97846 -4.12139,-2.08048 -1.15957,-1.37807 -1.18046,-1.51129 -0.88855,-5.66601 0.37157,-5.28859 1.10835,-6.84759 4.28897,-9.07549 2.32977,-1.63192 2.60205,-1.71195 5.18838,-1.52508 5.78166,0.41775 10.45857,5.05011 10.45857,10.35893 0,1.55781 -1.92794,5.59757 -2.94917,6.17961 -1.76725,1.00721 0.26915,2.08177 3.97286,2.09638 1.536,0.006 4.23616,1.3506 5.53368,2.75551 0.53304,0.57716 1.38804,2.30038 1.89999,3.82938 0.86222,2.57514 0.93081,3.7883 0.93081,16.46368 v 13.6837 l -1.30678,1.30677 -1.30678,1.30678 h -8.03186 c -7.2386,0 -8.1361,-0.0843 -9.08727,-0.85369 z"
       id="path345" /></g></svg>
