<?xml version="1.0" encoding="UTF-8" standalone="no"?>
<!-- Created with Inkscape (http://www.inkscape.org/) -->

<svg
   width="512"
   height="512"
   viewBox="0 0 512 512"
   version="1.1"
   id="svg5"
   inkscape:version="1.2.1 (9c6d41e410, 2022-07-14)"
   sodipodi:docname="one_handed_axe.svg"
   xml:space="preserve"
   inkscape:export-filename="one_handed_axe.png"
   inkscape:export-xdpi="96"
   inkscape:export-ydpi="96"
   xmlns:inkscape="http://www.inkscape.org/namespaces/inkscape"
   xmlns:sodipodi="http://sodipodi.sourceforge.net/DTD/sodipodi-0.dtd"
   xmlns="http://www.w3.org/2000/svg"
   xmlns:svg="http://www.w3.org/2000/svg"><sodipodi:namedview
     id="namedview7"
     pagecolor="#ffffff"
     bordercolor="#999999"
     borderopacity="1"
     inkscape:pageshadow="0"
     inkscape:pageopacity="0"
     inkscape:pagecheckerboard="true"
     inkscape:document-units="px"
     showgrid="false"
     height="70mm"
     units="px"
     inkscape:zoom="1.4805976"
     inkscape:cx="212.07653"
     inkscape:cy="220.51906"
     inkscape:window-width="2560"
     inkscape:window-height="1351"
     inkscape:window-x="2391"
     inkscape:window-y="-9"
     inkscape:window-maximized="1"
     inkscape:current-layer="layer1"
     inkscape:showpageshadow="2"
     inkscape:deskcolor="#d1d1d1" /><defs
     id="defs2" /><g
     inkscape:label="Layer 1"
     inkscape:groupmode="layer"
     id="layer1"><path
       style="fill:#ffffff;fill-rule:evenodd;stroke-width:0.450685"
       d="m 387.59358,511.36404 c -1.19662,-0.90913 -1.66591,-2.6535 -1.65481,-6.15132 0.0107,-2.9149 -0.22207,-3.75055 -2.48379,-8.97598 -1.37166,-3.16904 -2.71322,-6.75428 -2.98126,-7.96726 -0.47671,-2.15824 -2.68002,-7.8536 -5.29871,-13.6979 -0.72189,-1.61121 -1.76457,-4.34912 -2.31702,-6.08425 -1.26891,-3.98533 -5.32114,-12.80862 -8.17583,-17.80207 -1.26821,-2.21829 -2.67474,-5.53823 -3.34143,-7.887 -1.13348,-3.99338 -1.8842,-5.70985 -6.99757,-15.99933 -1.41661,-2.85058 -2.83643,-5.9941 -3.15523,-6.98561 -0.3187,-0.99151 -1.35315,-3.2224 -2.2985,-4.95754 -0.94536,-1.73514 -2.45182,-4.98007 -3.34774,-7.21096 -0.89592,-2.23089 -2.10141,-4.8674 -2.67885,-5.85891 -1.9325,-3.31809 -3.19538,-5.83788 -4.2917,-8.56302 -0.59831,-1.48726 -1.88361,-4.22517 -2.85619,-6.08425 -1.9032,-3.63797 -4.03023,-9.08273 -5.10573,-13.06988 -0.36781,-1.36332 -0.97941,-3.59421 -1.35918,-4.95754 -0.37955,-1.36331 -1.91467,-4.38093 -3.41083,-6.7058 -1.49621,-2.32487 -3.82161,-6.68525 -5.1676,-9.68973 -1.346,-3.00449 -3.14387,-6.71251 -3.99532,-8.24004 -0.85146,-1.52754 -1.5481,-3.15162 -1.5481,-3.60907 0,-0.45744 -0.47671,-1.74275 -1.05975,-2.85623 -0.58283,-1.11347 -1.30612,-3.02961 -1.60725,-4.2581 -0.89987,-3.67089 -6.939,-13.73261 -10.8322,-18.04723 -0.89464,-0.99151 -1.87811,-2.41117 -2.18549,-3.1548 -0.30748,-0.74363 -1.14559,-1.68754 -1.86279,-2.09759 -0.71719,-0.41003 -1.64381,-1.26419 -2.05913,-1.8981 -1.19566,-1.82478 -2.46078,-7.42758 -2.46921,-10.93513 -0.0107,-3.30251 -0.98977,-6.2187 -3.39445,-10.08221 -0.53996,-0.86757 -1.22214,-2.30979 -1.51596,-3.20493 -0.2936,-0.89514 -1.46872,-3.02099 -2.61094,-4.7241 -1.14223,-1.70311 -2.38626,-4.00495 -2.76459,-5.1152 -0.37848,-1.11025 -1.83871,-3.8518 -3.24529,-6.09234 -3.28528,-5.23292 -6.87366,-12.33593 -9.11616,-18.04496 -4.22914,-10.7667 -6.11803,-15.22073 -9.5563,-22.53426 -1.16529,-2.47877 -2.83105,-6.33213 -3.70161,-8.56302 -0.87062,-2.2309 -3.67833,-8.3166 -6.23948,-13.52379 -2.56114,-5.20719 -5.26598,-10.98722 -6.01073,-12.84453 -0.74479,-1.8573 -2.39181,-5.58055 -3.65997,-8.27387 -1.26821,-2.69334 -2.72016,-6.44529 -3.22661,-8.33769 -1.79552,-6.70932 -4.07875,-12.88864 -6.71297,-18.16801 -1.4676,-2.94128 -3.08451,-6.74522 -3.59319,-8.4532 -1.20731,-4.05394 -2.66593,-7.19235 -5.14577,-11.07158 -1.10919,-1.73513 -2.87471,-4.57445 -3.92336,-6.30959 -1.04871,-1.73514 -2.97358,-4.87866 -4.27756,-6.98562 -1.30398,-2.10695 -3.31357,-5.96031 -4.46573,-8.56302 -4.52962,-10.23233 -9.33967,-19.36384 -11.83638,-22.47068 -2.80051,-3.48482 -6.89074,-3.56414 -15.65394,-0.30354 -5.06051,1.88293 -5.55964,2.17988 -7.76392,4.61895 -2.60625,2.88385 -3.62057,4.76235 -5.36581,9.9368 -1.03568,3.0707 -1.14373,3.94686 -0.90655,7.35005 0.46016,6.60489 1.39585,9.8942 4.64355,16.32601 1.6524,3.27249 3.68127,7.01865 4.50849,8.32482 0.84056,1.32713 1.50411,2.96962 1.50411,3.72301 0,1.58862 -1.3003,9.90384 -1.63287,10.44196 -0.29307,0.47399 -1.3461,11.25493 -1.73019,17.71226 -0.38436,6.46549 -0.60306,7.6204 -1.65486,8.74936 -1.7193,1.84545 -4.76462,0.99588 -8.55416,-2.38639 -1.14378,-1.02087 -4.07673,-3.37718 -6.51766,-5.23626 -2.44093,-1.85907 -5.56127,-4.40595 -6.93409,-5.65972 -1.37283,-1.25377 -3.40869,-2.97422 -4.52413,-3.82321 -1.11545,-0.849 -5.17162,-4.30761 -9.01371,-7.6858 -6.42781,-5.65172 -10.60236,-9.99329 -14.99357,-15.59344 -0.93411,-1.19127 -3.84365,-4.39684 -6.46567,-7.12348 -2.64346,-2.74895 -5.27773,-5.96145 -5.91301,-7.21096 -0.63014,-1.23939 -1.89713,-3.36888 -2.81554,-4.7322 -2.71788,-4.03453 -6.66866,-12.80135 -9.083391,-20.15618 -1.24081,-3.77927 -2.4254,-6.97607 -2.63241,-7.10401 -0.20702,-0.12796 -0.52198,-1.29714 -0.69995,-2.59822 -0.17798,-1.30107 -0.49058,-2.80721 -0.69468,-3.34698 -0.20414,-0.53978 -0.48659,-1.99115 -0.62768,-3.22528 -0.14109,-1.23413 -0.65834,-3.81486 -1.14942,-5.73496 -0.49107,-1.9201 -1.11573,-5.32393 -1.3881,-7.56407 -0.27236,-2.24014 -0.67838,-4.5547 -0.90222,-5.14346 -0.22383,-0.58877 -0.40698,-1.90261 -0.40698,-2.91965 0,-1.01703 -0.19362,-3.08261 -0.43032,-4.59018 -0.23664,-1.50757 -0.85919,-6.39158 -1.38338,-10.85337 -0.5242,-4.46178 -1.38366,-10.85024 -1.90993,-14.19658 -0.52626,-3.34634 -0.95974,-6.81226 -0.96328,-7.70205 -0.0101,-2.58985 1.55692,-7.12467 2.80026,-8.10267 1.2527,-0.98538 3.85559,-1.1276 5.33131,-0.29131 1.81534,1.02876 8.045591,7.38106 9.357801,9.54111 0.7205,1.18604 2.09474,3.06313 3.05387,4.17132 0.95913,1.10819 2.16709,2.85838 2.68436,3.88932 1.16771,2.3273 2.57615,3.89868 3.50876,3.9147 2.2266,0.0382 11.2089,5.14067 13.13487,7.46133 0.32516,0.39178 1.82019,1.34829 3.32229,2.12555 2.45708,1.27141 3.13802,1.41467 6.78724,1.42795 2.38194,0.009 7.18548,-0.50137 11.63757,-1.23574 7.00193,-1.15492 7.81142,-1.38941 10.5911,-3.06798 1.65534,-0.99961 4.42937,-2.98029 6.1645,-4.40151 3.51532,-2.8793 4.37334,-4.60711 4.88891,-9.8448 l 0.27492,-2.79081 -2.22686,-1.44297 c -3.85475,-2.49779 -5.63406,-6.25739 -4.53605,-9.58443 0.52342,-1.58594 3.52643,-4.49214 5.88082,-5.69123 0.61966,-0.31561 1.93795,-1.16628 2.92943,-1.89039 4.6665,-3.40798 10.98925,-6.23062 13.95674,-6.23062 0.5595,0 2.4927,-0.60842 4.29602,-1.35205 1.80332,-0.74364 3.57381,-1.35206 3.93441,-1.35206 0.36034,0 1.17127,-0.40562 1.80151,-0.90137 C 196.20412,0.40561 197.32761,0 198.07048,0 c 1.75731,0 4.2325,1.54941 5.0736,3.17593 0.79214,1.53187 0.87601,6.15585 0.15534,8.56144 -0.71597,2.38956 -0.21406,3.81952 2.16259,6.1626 1.9293,1.902 2.18399,2.01765 3.92336,1.78169 1.02308,-0.13879 3.98961,-0.0325 6.59233,0.23613 6.12236,0.63196 18.30872,0.59332 20.01114,-0.0634 0.71923,-0.27747 3.15289,-0.47925 5.4082,-0.44839 5.49831,0.0752 19.25332,-1.22298 23.78765,-2.24509 1.16075,-0.26164 3.45706,-0.45551 5.10295,-0.43082 2.42667,0.0364 3.21893,0.2396 4.18953,1.07446 1.17794,1.01324 1.1883,1.07138 0.65303,3.66836 -0.35019,1.69869 -0.87516,2.87965 -1.47384,3.31483 -0.51141,0.37182 -1.77337,1.35307 -2.80419,2.18055 -1.03077,0.82749 -3.30391,2.22451 -5.05134,3.10448 -5.34249,2.69034 -9.74661,5.91588 -13.99368,10.24882 -2.23087,2.276 -5.42465,5.20489 -7.09723,6.50864 -4.49744,3.50567 -11.48924,11.42801 -12.96308,14.68837 -0.67235,1.48726 -1.68161,3.67409 -2.24277,4.85962 -1.26842,2.67962 -1.07293,4.17259 1.01769,7.77198 0.85984,1.48043 2.11214,4.40306 2.78284,6.49473 0.6707,2.09167 1.63837,4.62414 2.15036,5.6277 0.51194,1.00357 1.7249,4.261 2.6954,7.23874 0.9705,2.97776 2.5415,7.03656 3.49117,9.01958 0.94963,1.98301 2.1557,4.78101 2.68014,6.21776 1.29405,3.54527 2.50279,5.84012 4.35245,8.26326 0.85572,1.12109 1.68678,2.58046 1.84682,3.24305 0.16015,0.66259 0.65688,1.91454 1.10422,2.78211 0.44735,0.86757 2.27475,4.82233 4.06104,8.78836 1.78624,3.96603 3.93318,8.29122 4.77102,9.61154 0.83779,1.32032 2.24998,4.15963 3.1381,6.3096 0.88813,2.14995 2.41653,5.37283 3.39642,7.16192 2.76453,5.04752 4.20688,7.76414 5.81044,10.94368 0.81259,1.6112 2.69641,4.95754 4.18632,7.43631 1.48992,2.47876 3.06908,5.79718 3.50922,7.37425 0.44041,1.57706 1.4006,3.80796 2.13424,4.95753 0.73369,1.14958 1.82836,3.4084 2.4326,5.0196 1.02841,2.74207 6.62383,14.72882 8.33634,17.85845 0.42386,0.77463 1.50107,2.49851 2.39379,3.83082 2.23604,3.33709 5.61549,9.81922 7.37194,14.14021 0.80613,1.98301 2.10343,4.60852 2.88293,5.83447 0.77949,1.22594 1.41725,2.41795 1.41725,2.6489 0,0.23093 0.98513,2.37144 2.18917,4.75663 1.204,2.38519 3.15337,7.27745 4.33185,10.87166 1.17848,3.59421 2.85127,7.9546 3.71741,9.68973 0.86613,1.73514 1.96272,4.13528 2.43686,5.33363 0.47404,1.19837 1.53395,3.05872 2.35509,4.13414 0.82113,1.0754 2.15799,3.54266 2.9708,5.4828 0.8128,1.94014 1.99886,4.74438 2.63566,6.23164 1.31893,3.08034 2.33069,7.00039 2.34104,9.0703 0.0107,1.69701 1.7027,5.64967 3.88146,9.0556 0.87766,1.372 2.05982,3.53358 2.62712,4.80351 0.56725,1.26993 2.0744,4.11264 3.34918,6.31714 1.27478,2.20448 2.3183,4.13116 2.31894,4.2815 4.8e-4,0.15032 0.7441,1.49019 1.65214,2.97745 0.90804,1.48726 2.24533,3.92096 2.97171,5.40823 0.72643,1.48725 1.57943,3.00832 1.89562,3.38013 0.97909,1.15147 3.26916,5.5526 3.75211,7.21097 1.26944,4.35887 3.58598,9.74246 8.14486,18.92858 2.75994,5.56115 5.01808,10.38292 5.01808,10.71505 0,0.9532 5.03116,11.38625 11.45908,23.76258 1.15867,2.23089 2.70196,5.52435 3.42957,7.3188 0.72755,1.79446 1.92065,4.32956 2.6513,5.63357 0.7306,1.30401 1.82115,3.68918 2.42342,5.30038 0.60226,1.6112 2.00484,4.75473 3.1168,6.98562 1.11201,2.2309 2.26716,5.05504 2.56706,6.27588 0.30001,1.22083 1.05009,2.81967 1.66709,3.55298 1.34493,1.5983 2.6346,4.0919 3.07484,5.94512 0.1767,0.74363 0.8908,2.26469 1.58697,3.38014 0.85647,1.37231 1.35399,2.90244 1.5387,4.7322 0.19378,1.91803 0.86063,3.88322 2.29455,6.76027 1.11196,2.2309 2.73431,5.84344 3.60525,8.02788 0.87099,2.18447 2.28531,4.82806 3.1429,5.87463 0.8576,1.04659 2.17861,3.15115 2.93557,4.67681 0.75692,1.52562 1.58771,2.90453 1.84614,3.06426 0.8009,0.49501 2.66251,3.71703 3.3962,5.87815 0.38489,1.13303 1.79179,3.86152 3.12684,6.0633 3.18304,5.24931 3.85139,6.57424 4.54238,9.00473 0.31709,1.11545 0.90088,2.91305 1.29725,3.9947 0.68522,1.86971 0.6747,2.06166 -0.213,3.89523 -0.75579,1.56126 -1.37615,2.11903 -3.25688,2.9281 -2.44753,1.05289 -6.27058,3.70057 -7.77539,5.38492 -2.57507,2.88231 -6.5113,4.78646 -13.06749,6.32136 -1.23362,0.2888 -3.68859,1.22041 -5.4555,2.07027 -3.4608,1.6646 -6.92448,2.04858 -8.39582,0.93075 z m 6.89139,-6.3895 c 1.2428,-0.62979 4.22748,-1.65334 6.63264,-2.27461 5.46889,-1.41263 7.20469,-2.30756 10.71599,-5.52505 1.53854,-1.40978 4.03034,-3.26958 5.53738,-4.13292 1.50705,-0.86333 2.74371,-1.8739 2.74814,-2.24571 0.0267,-2.00492 -1.57089,-5.93724 -4.03226,-9.94262 -1.5269,-2.48462 -3.36642,-5.949 -4.08788,-7.6986 -0.72147,-1.74957 -1.90091,-3.85201 -2.62093,-4.67208 -0.72008,-0.82011 -1.95792,-2.77707 -2.75076,-4.34884 -0.79289,-1.57177 -1.91954,-3.36477 -2.50365,-3.98447 -1.14212,-1.21171 -3.65565,-6.44975 -4.88873,-10.18773 -0.91509,-2.77404 -3.19394,-6.48525 -3.98748,-6.49377 -0.31549,-0.004 -1.02959,-0.12844 -1.58733,-0.27791 -0.8317,-0.22288 -1.014,-0.0894 -1.014,0.74257 0,0.55787 0.23755,1.80711 0.52795,2.77609 0.44842,1.49617 0.41745,1.87192 -0.20285,2.49234 -0.59399,0.59398 -0.85797,0.62488 -1.41182,0.16522 -0.37474,-0.31095 -0.80714,-0.96231 -0.96115,-1.4475 -0.26425,-0.83237 -5.52901,-3.77834 -5.96797,-3.3394 -0.63061,0.63065 1.92071,4.85626 4.79478,7.94116 1.15344,1.23813 1.18189,1.49132 0.27011,2.4032 -0.62964,0.6296 -0.8594,0.61081 -2.35946,-0.1932 -0.91402,-0.48983 -2.1345,-0.89069 -2.71216,-0.89069 -0.57771,0 -1.44592,-0.21166 -1.92941,-0.47046 -0.76497,-0.40934 -0.91444,-0.29366 -1.15141,0.89128 -0.54536,2.72669 -2.01813,2.80637 -3.99383,0.21604 -1.45942,-1.91338 -2.24917,-1.94593 -2.88608,-0.11894 -0.67241,1.92884 -0.62153,3.39542 0.16709,4.82076 0.91007,1.64473 2.94358,6.69051 2.94358,7.30398 0,0.49887 4.69207,12.08793 6.2857,15.52516 0.45963,0.99151 1.06157,2.89061 1.3375,4.22027 0.47137,2.2715 1.78597,5.614 4.43808,11.28408 0.7275,1.55536 1.21846,3.54896 1.35955,5.52089 0.12171,1.69755 0.40304,3.08643 0.62597,3.08643 0.2226,0 1.4219,-0.51525 2.6647,-1.14501 z m -25.72522,-66.49455 c 1.36334,-0.51573 3.49282,-1.51161 4.73221,-2.21309 1.23939,-0.70147 4.18008,-1.79945 6.53495,-2.43994 5.45726,-1.48435 10.81528,-3.8633 10.81592,-4.80229 9.1e-4,-1.12696 -1.81576,-2.84318 -2.3956,-2.26331 -0.26852,0.26852 -0.78249,0.48824 -1.14213,0.48824 -0.75173,0 -7.7226,3.32794 -12.68644,6.05658 -1.85906,1.02194 -4.31034,2.21089 -5.44728,2.64211 -2.84396,1.07866 -3.67727,1.75513 -3.31741,2.693 0.16388,0.42722 0.32723,0.77671 0.36246,0.77658 0.0374,-1.2e-4 1.17992,-0.4222 2.54326,-0.9379 z m 6.63408,-8.98638 c 5.51768,-2.73183 10.52599,-5.15469 11.12943,-5.38413 l 1.09723,-0.41719 -0.79615,-2.61553 c -0.43774,-1.43853 -1.34044,-3.76161 -2.00569,-5.16239 l -1.20955,-2.54687 -3.25586,-0.32243 c -1.89909,-0.18807 -5.29759,-1.04868 -8.15565,-2.06526 -4.69575,-1.67023 -5.69129,-1.80877 -5.69129,-0.79205 0,0.8642 -2.64495,7.07099 -3.77826,8.86626 -0.62101,0.98375 -1.4762,2.84984 -1.90043,4.14687 -0.65516,2.0031 -0.68554,2.60432 -0.20179,3.99218 0.89331,2.5621 3.61476,7.2675 4.2033,7.2675 0.29254,0 5.0468,-2.23514 10.56455,-4.96697 z m -15.34566,-10.60192 c 0.84291,-1.47612 1.65695,-2.98806 1.80893,-3.35988 1.52332,-3.72651 2.39581,-6.10035 2.39581,-6.51848 0,-0.27733 -1.16614,-1.08213 -2.59146,-1.78852 -1.42527,-0.70639 -3.29708,-1.7121 -4.15953,-2.23491 -1.91772,-1.16253 -8.0832,-3.41162 -8.30544,-3.02973 -0.26958,0.46362 2.31302,6.51144 4.21163,9.86197 1.41801,2.50242 4.08452,8.97197 4.08452,9.91003 0,0.10138 0.23008,0.10762 0.51141,0.0139 0.28133,-0.0938 1.20111,-1.37821 2.04408,-2.85432 z m 21.78147,-8.88714 c 0,-1.01398 -1.66874,-5.16999 -3.06251,-7.62731 -0.74682,-1.31673 -2.00025,-4.03138 -2.7854,-6.03253 -0.7851,-2.00115 -1.89263,-4.22181 -2.4611,-4.93478 l -1.03365,-1.29633 -0.8821,2.00533 c -0.48525,1.10293 -1.23912,3.52639 -1.67541,5.38547 -0.43614,1.85908 -1.09029,4.57736 -1.45329,6.04063 -0.36301,1.46327 -0.4986,2.81345 -0.30108,3.00041 0.51354,0.48621 8.13269,3.1292 10.27419,3.56403 2.68921,0.54604 3.38014,0.52459 3.38014,-0.1049 z m -16.04299,-5.40186 c 1.32437,-6.75252 2.87199,-12.28007 4.096,-14.62939 l 1.4582,-2.7989 -4.10732,-8.36509 -4.10737,-8.36509 -2.92943,-0.8823 c -9.55592,-2.87808 -11.92435,-3.53103 -12.19687,-3.36261 -0.16709,0.10324 -0.77037,1.8026 -1.34065,3.77635 -0.70316,2.43335 -1.64083,4.39598 -2.91272,6.09645 -1.03168,1.37931 -2.35322,3.52711 -2.93669,4.7729 l -1.06093,2.26507 1.62321,3.47901 c 0.89277,1.91345 2.42795,5.22415 3.41152,7.3571 l 1.78827,3.87809 5.34772,1.89586 c 2.94122,1.04273 6.26035,2.46905 7.37578,3.1696 4.75656,2.98735 6.16826,3.35988 6.49128,1.71295 z m -26.77211,-25.79381 c 0,-0.33818 0.66109,-1.49238 1.46914,-2.56484 0.808,-1.07246 1.80044,-2.46752 2.20535,-3.10013 0.87542,-1.36758 2.68387,-7.19466 2.38364,-7.68039 -0.43347,-0.70169 -12.18332,-3.80023 -12.71122,-3.35214 -0.0651,0.0551 0.27546,0.99355 0.75628,2.08533 0.48097,1.09179 1.28689,3.56549 1.79098,5.49713 0.50394,1.93164 1.35187,4.77096 1.88377,6.3096 0.53169,1.53864 1.04524,3.06389 1.14074,3.38944 0.21406,0.72981 1.08132,0.26141 1.08132,-0.584 z m 22.08356,-12.89469 c 0,-0.51899 -1.66997,-4.37808 -3.711,-8.57575 -3.96271,-8.14973 -4.7501,-8.95517 -5.44899,-5.57381 -0.20445,0.98887 -0.96489,3.85688 -1.69004,6.37335 -0.72515,2.51647 -1.31845,4.76102 -1.31845,4.9879 0,0.44511 3.22976,1.51536 7.21094,2.38956 1.36334,0.29937 2.88437,0.71013 3.38014,0.91282 1.38496,0.56625 1.5774,0.5035 1.5774,-0.51407 z m -13.44656,-7.59903 c 0.70294,-2.09574 1.27808,-4.18551 1.27808,-4.64393 0,-0.45845 0.50073,-2.61472 1.11287,-4.79177 l 1.11293,-3.95828 -2.03671,-5.81972 c -1.12024,-3.20084 -2.28019,-6.03734 -2.57764,-6.30334 -0.92373,-0.8259 -7.07977,-2.42263 -12.03342,-3.12115 -2.60267,-0.36701 -5.24122,-0.78516 -5.86334,-0.92921 -1.0597,-0.24534 -1.23629,-0.0107 -2.79608,3.71344 -0.91567,2.18644 -2.17513,5.35228 -2.7988,7.0352 l -1.1339,3.05985 1.16929,2.57371 c 0.6431,1.41554 1.84197,4.15987 2.66412,6.09851 1.92028,4.52796 4.09451,7.9125 5.06826,7.88956 1.12862,-0.0267 11.39816,2.17224 12.70417,2.72011 2.28088,0.95683 2.76656,0.54257 4.13017,-3.52298 z m -26.21373,-21.64412 c 0,-0.39594 0.36086,-1.42816 0.80239,-2.29378 1.38918,-2.72481 2.44696,-5.83255 2.20231,-6.4702 -0.12972,-0.33765 -1.92338,-1.16918 -3.98625,-1.84787 -2.06287,-0.67868 -4.30216,-1.55149 -4.97617,-1.93956 -0.67406,-0.38809 -1.31834,-0.61275 -1.43183,-0.49929 -0.11317,0.11344 0.48952,1.62387 1.33964,3.35646 0.85022,1.73259 1.77289,3.96139 2.05032,4.9529 0.27759,0.9915 1.03733,2.9654 1.68865,4.38644 1.03717,2.26285 1.25417,2.49002 1.74759,1.82928 0.30962,-0.41495 0.56335,-1.0784 0.56335,-1.47437 z m 22.08356,-8.65424 c 0,-0.6019 -5.83627,-11.40358 -7.57458,-14.01889 -1.2618,-1.89841 -1.53122,-1.80554 -2.33762,0.80574 -0.30642,0.9915 -1.36393,3.4252 -2.35055,5.40822 -2.712,5.45101 -2.73442,5.5352 -1.63116,6.12563 0.52262,0.27967 2.2907,0.60618 3.92923,0.72555 1.63848,0.11936 4.29731,0.479 5.9085,0.79917 3.8719,0.7694 4.05618,0.77642 4.05618,0.15459 z m -14.46473,-8.969 c 2.55521,-5.21378 2.90914,-6.26133 3.08199,-9.12328 0.19378,-3.21211 0.18097,-3.25672 -2.00505,-6.83869 -1.21024,-1.98301 -2.67266,-4.77473 -3.24983,-6.20382 l -1.0494,-2.59834 -2.98697,0.288 c -2.17946,0.21011 -3.53527,0.63806 -5.01509,1.58289 -3.87478,2.47403 -10.94943,5.5875 -15.21059,6.694 -2.08033,0.54019 -2.31767,0.92049 -1.16861,1.87218 0.41052,0.34021 1.42564,2.0382 2.25521,3.77334 0.82962,1.73514 1.98172,3.66181 2.56023,4.2815 0.57851,0.61969 1.56748,1.93795 2.19771,2.92945 1.42527,2.24229 2.71238,3.38975 5.30993,4.73383 2.38193,1.23253 10.73899,4.41744 11.71781,4.46571 0.4324,0.0213 1.71711,-2.09092 3.56266,-5.85675 z m -24.04036,-19.7326 c 3.38393,-1.08443 8.43329,-3.53829 11.20519,-5.4454 1.89369,-1.30288 4.90453,-2.10555 8.48378,-2.26169 0.99976,-0.0438 -0.0427,-5.42297 -1.04934,-5.42297 -0.27972,0 -1.54153,0.92898 -2.8044,2.06439 -2.24411,2.01766 -5.15645,3.79452 -6.21935,3.79452 -0.29254,0 -1.36537,0.39151 -2.38407,0.86999 -5.06052,2.37708 -7.2838,3.18617 -8.75524,3.18617 -2.81044,0 -6.03267,2.90932 -4.702,4.2453 0.44201,0.4435 2.89163,0.0379 6.22543,-1.03031 z m -8.35925,-18.20027 c 0.0107,-2.03708 0.54894,-2.69862 2.05369,-2.51904 1.22812,0.14653 1.31412,0.0304 2.05897,-2.77652 0.42759,-1.61119 0.79097,-3.57199 0.80763,-4.35731 0.016,-0.78533 0.15534,-1.7543 0.30855,-2.15328 0.77693,-2.02464 4.22849,-1.70385 4.22849,0.393 0,3.87525 2.18533,8.37102 4.06905,8.37102 0.63813,0 0.86693,-0.39616 0.97396,-1.68632 0.16282,-1.96525 1.2687,-2.46483 2.66284,-1.20315 1.00359,0.90822 1.60671,0.52432 1.83305,-1.1667 0.1025,-0.76664 0.47511,-1.17274 1.16487,-1.27073 1.16011,-0.16474 1.29234,-0.64137 0.38649,-1.39314 -0.34539,-0.28645 -0.88461,-1.17321 -1.19876,-1.9706 -0.31443,-0.79738 -1.46621,-3.35592 -2.56003,-5.68565 -1.91974,-4.08879 -3.71319,-8.83454 -5.29711,-14.01688 -0.41638,-1.36332 -1.95749,-4.98846 -3.42407,-8.05585 -1.46653,-3.06739 -2.66646,-5.67259 -2.66646,-5.78933 0,-0.11675 -0.3945,-0.76645 -0.87692,-1.44379 -0.48258,-0.67734 -1.61515,-2.93954 -2.51737,-5.02711 -2.54646,-5.89184 -5.06302,-10.66951 -7.73574,-14.68631 -1.34668,-2.02388 -2.806,-4.55898 -3.24294,-5.63357 -0.43667,-1.07459 -2.22157,-4.89452 -3.9658,-8.48874 -1.74428,-3.59421 -3.32163,-7.04195 -3.50532,-7.66165 -0.18364,-0.61969 -1.19737,-2.74918 -2.25275,-4.73219 -1.05537,-1.98302 -2.16072,-4.61952 -2.4563,-5.85891 -0.29574,-1.23939 -1.22438,-3.29732 -2.06393,-4.57319 -0.83955,-1.27587 -3.89507,-6.75169 -6.79006,-12.16849 -2.89495,-5.41681 -5.42454,-10.05155 -5.62125,-10.29943 -0.19699,-0.24786 -0.88931,-1.87034 -1.53903,-3.60548 -0.64966,-1.73514 -2.16066,-4.87867 -3.35766,-6.98562 -1.19706,-2.10696 -2.68787,-4.94627 -3.31298,-6.3096 -0.62506,-1.36332 -2.68734,-5.8869 -4.58275,-10.0524 -1.89546,-4.16551 -4.03781,-8.39022 -4.76077,-9.38826 -1.45698,-2.01133 -2.50349,-4.12231 -4.21456,-8.50182 -0.62955,-1.61121 -1.88511,-4.55186 -2.79016,-6.5348 -0.90505,-1.98294 -2.35706,-5.73191 -3.22666,-8.33106 -0.8696,-2.59914 -2.1359,-5.94924 -2.81396,-7.44467 -0.67807,-1.49543 -1.6783,-4.18562 -2.2228,-5.9782 -1.05938,-3.48774 -1.58344,-3.9974 -2.07696,-2.01985 -0.49486,1.98257 -1.56727,2.89364 -3.02851,2.57271 -0.95512,-0.2098 -1.26677,-0.10965 -1.26677,0.40699 0,0.37688 0.20285,0.81057 0.45055,0.96377 0.6266,0.38724 0.56505,2.63484 -0.0902,3.29 -0.29734,0.29745 -1.01363,0.54083 -1.59155,0.54083 -1.42516,0 -1.75074,1.11991 -0.86533,2.97662 0.40464,0.84844 0.8649,2.35107 1.02292,3.33917 0.27438,1.71665 0.23381,1.79653 -0.91151,1.79653 -1.86114,0 -4.08148,-1.10936 -6.28421,-3.13973 l -2.01397,-1.85642 -0.53975,1.63542 -0.5397,1.63541 -2.65643,-0.30828 c -2.244,-0.26046 -2.65638,-0.19848 -2.65638,0.39903 0,0.38906 1.67318,4.01261 3.71816,8.05239 2.04498,4.03977 4.57644,9.23992 5.62547,11.55588 2.1786,4.80978 5.54635,10.71414 10.64082,18.65574 4.42671,6.90057 5.42902,8.86655 7.05116,13.8305 0.71463,2.18686 2.51838,6.48231 4.00835,9.54545 2.90231,5.96669 4.48692,10.18567 5.98515,15.93511 0.51675,1.98301 2.04638,6.14059 3.39915,9.23905 1.35277,3.09846 3.23061,7.45884 4.17292,9.68973 0.94237,2.2309 2.86558,6.35692 4.27382,9.16896 3.71805,7.42436 6.83218,14.15697 7.46637,16.14184 0.30428,0.95168 1.32608,3.35278 2.27122,5.3358 3.31053,6.94583 6.40907,14.04076 9.66093,22.12103 3.9643,9.85063 7.56374,17.29321 10.67979,22.08295 1.27692,1.96277 2.77638,4.72678 3.3321,6.14227 1.25791,3.2039 5.8288,10.14368 6.86004,10.41526 1.97084,0.51899 2.34356,0.3353 2.35055,-1.15838 z M 170.45979,172.27444 c 0.002,-3.5676 1.27547,-16.52866 1.74753,-17.78831 0.21193,-0.56529 0.63568,-3.09046 0.94178,-5.61149 l 0.55657,-4.58368 -1.31717,-1.95125 c -2.65392,-3.93156 -7.25996,-14.03907 -7.9748,-17.49989 -1.93893,-9.38736 -1.86639,-12.67004 0.42979,-19.44795 1.55766,-4.59796 2.3094,-6.09223 4.50012,-8.94523 3.67433,-4.78512 4.20938,-5.16626 10.579,-7.53631 7.4929,-2.78802 8.14166,-2.92734 13.97126,-3.00032 3.09844,-0.039 6.34336,-0.30887 7.21094,-0.60024 0.86757,-0.29136 3.69493,-0.84648 6.28298,-1.23364 3.61299,-0.54048 4.95925,-0.93885 5.798,-1.71569 1.72084,-1.59376 5.22889,-7.0649 6.38676,-9.96076 0.58048,-1.45168 1.93843,-3.839 3.01777,-5.30516 1.07935,-1.46616 2.96397,-4.74021 4.18814,-7.27566 2.68328,-5.55769 8.37083,-12.34013 14.40131,-17.17367 2.12677,-1.70464 5.69215,-4.97078 7.92301,-7.25808 4.0242,-4.12593 7.13641,-6.39234 13.85857,-10.09219 1.92108,-1.05733 3.49283,-2.11103 3.49283,-2.34154 0,-0.52376 -0.12118,-0.52209 -1.55013,0.0212 -1.66137,0.63165 -16.30264,1.9814 -21.88551,2.01758 -2.72027,0.0176 -5.46553,0.28784 -6.45701,0.63555 -1.32533,0.46477 -3.72654,0.54254 -10.36579,0.33573 -17.33192,-0.53986 -19.80028,-0.72443 -21.64401,-1.61841 -1.61077,-0.78103 -1.95925,-0.7952 -4.83092,-0.19644 -1.79782,0.37486 -3.99794,0.52975 -5.24966,0.36958 -1.18504,-0.15165 -3.59927,-0.27602 -5.36485,-0.27637 -3.72995,-7.2e-4 -4.75388,0.51224 -6.85092,3.43225 -0.78136,1.08806 -2.44482,2.83573 -3.69648,3.88371 -2.81177,2.35414 -4.56844,4.87786 -5.62013,8.07419 -0.8182,2.48676 -3.06118,5.08187 -7.30381,8.45054 -1.69359,1.3447 -2.50106,1.85129 -7.11989,4.46682 -1.0709,0.60643 -3.63234,1.31885 -6.30959,1.75491 -2.47877,0.40373 -6.78929,1.14628 -9.57895,1.65012 -3.49989,0.63212 -5.80494,0.81897 -7.43631,0.60281 -3.20517,-0.42471 -2.40021,0.33813 1.90034,1.80083 4.57812,1.55712 7.5318,1.47367 15.0001,-0.42381 7.54115,-1.91598 15.60273,-5.80336 21.03901,-10.14523 2.16066,-1.72569 7.00279,-7.93453 7.9664,-10.21496 0.32777,-0.77568 1.11853,-2.03137 1.7572,-2.79043 0.63872,-0.75906 1.65983,-2.84588 2.26919,-4.63739 1.32784,-3.90407 2.14305,-4.90617 3.99639,-4.91262 0.76716,-0.003 4.43701,1.00048 8.15516,2.22923 18.41585,6.08596 21.91573,6.58999 36.1878,5.21161 3.79129,-0.36616 7.31802,-0.89306 7.83717,-1.17089 2.8059,-1.50167 5.77574,-1.28029 5.77574,0.43054 0,0.47247 -0.76055,1.43139 -1.69004,2.13094 -7.07353,5.32339 -11.35498,9.38503 -14.08812,13.36485 -3.58385,5.21851 -6.22613,8.69847 -9.08659,11.96728 -2.50386,2.8613 -5.26545,8.24703 -7.32731,14.28996 l -1.384,4.05617 -2.92942,0.3393 c -1.6112,0.18663 -4.14634,0.1641 -5.63358,-0.0502 -4.39479,-0.63277 -11.14791,0.40197 -18.80982,2.88214 -5.51907,1.78652 -6.53116,2.24199 -10.2594,4.61692 -4.64617,2.95968 -9.77523,8.68405 -11.07873,12.36465 -1.50376,4.24604 -2.86026,9.76544 -3.13383,12.75113 -0.37464,4.08878 -0.99529,6.08021 -1.89496,6.08021 -0.80425,0 -11.96704,-11.43581 -14.75483,-15.1157 -0.99677,-1.31575 -3.11363,-4.08091 -4.70414,-6.1448 -1.75026,-2.27119 -3.58502,-5.35372 -4.64782,-7.80869 -0.96579,-2.23089 -2.25028,-5.10814 -2.85441,-6.39389 -0.60413,-1.28575 -1.09842,-2.52645 -1.09842,-2.75711 0,-0.23067 -0.60447,-2.25364 -1.34327,-4.49553 -2.17313,-6.59434 -1.9618,-12.87827 0.55362,-16.46266 0.4884,-0.69594 0.81516,-1.31594 0.72615,-1.3778 -0.089,-0.0619 -1.59966,-0.66377 -3.35699,-1.33757 -1.80349,-0.69141 -4.16881,-2.05428 -5.43059,-3.12896 -3.79365,-3.23112 -6.99993,-5.1679 -10.67791,-6.45009 -3.82214,-1.33244 -5.54955,-2.70978 -6.83498,-5.44987 -0.44426,-0.947 -1.55583,-2.63445 -2.47015,-3.7499 -0.91433,-1.11545 -2.55811,-3.34634 -3.652861,-4.95754 -1.09474,-1.6112 -2.24634,-3.09297 -2.5591,-3.29283 -0.31276,-0.19985 -1.30868,-1.16319 -2.21315,-2.14075 -0.90447,-0.97756 -1.90694,-1.77738 -2.22771,-1.77738 -0.67274,0 -1.31106,2.79024 -0.8896,3.88857 0.60059,1.5651 1.75176,10.32816 3.60391,27.43406 0.40261,3.71815 1.03394,8.38274 1.40301,10.36576 0.36909,1.98301 0.67009,4.34698 0.66894,5.25326 -0.001,0.90628 0.58318,4.04981 1.29851,6.98562 0.71532,2.93581 1.54665,6.55469 1.847381,8.04196 0.30076,1.48726 0.70996,3.51534 0.90939,4.50685 0.19944,0.9915 0.96726,3.4252 1.70629,5.40821 0.73903,1.98302 1.79886,5.07833 2.35516,6.87848 1.10095,3.56252 5.65331,13.01409 8.51747,17.68387 2.51678,4.10341 5.76666,8.29225 8.15141,10.50649 1.9896,1.84734 5.39132,5.75022 7.73365,8.87298 2.27739,3.03618 9.22312,9.78101 15.70198,15.2478 3.59421,3.03276 7.85319,6.68644 9.46439,8.11929 1.6112,1.43286 4.95754,4.15375 7.43631,6.04643 2.47877,1.89268 5.11528,3.95115 5.85891,4.57437 2.08726,1.74932 2.47855,1.52438 2.48032,-1.42588 z m -11.49992,-61.74388 c 1.00695,-5.27434 3.16276,-12.97063 4.26064,-15.21064 2.27289,-4.63732 9.47158,-11.62442 14.80606,-14.37089 2.65333,-1.36607 12.61214,-4.36506 16.71294,-5.03292 2.38551,-0.38852 5.85832,-0.67314 7.71737,-0.63252 1.85911,0.0406 4.69843,0.10361 6.30962,0.14002 l 2.92943,0.0662 1.39922,-4.05616 c 2.4106,-6.98802 4.33344,-10.5351 8.06249,-14.87262 1.91793,-2.23089 4.75922,-5.98285 6.31394,-8.33767 3.28138,-4.97005 7.30008,-9.53432 9.76434,-11.08994 2.06959,-1.30646 2.33704,-2.51245 0.48738,-2.19625 -3.41292,0.58335 -10.51639,1.11764 -14.85485,1.11731 -5.26402,-4.2e-4 -9.59906,-0.73397 -14.41557,-2.43932 -1.68647,-0.59711 -3.97893,-1.22898 -5.09436,-1.40415 -1.11543,-0.17517 -4.48735,-1.20724 -7.49317,-2.2935 -3.00582,-1.08626 -5.87599,-1.97501 -6.37816,-1.97501 -0.93788,0 -2.15399,2.38353 -1.64024,3.21478 0.29734,0.48116 -1.17324,3.02991 -3.24161,5.61806 -0.81195,1.01598 -1.60388,2.35567 -1.75981,2.97709 -0.15588,0.62142 -1.02949,2.0595 -1.9411,3.19572 -0.91167,1.13623 -2.26599,2.90679 -3.00961,3.93458 -0.74362,1.02779 -2.67031,2.83796 -4.28151,4.0226 -4.01496,2.95204 -14.0866,8.06983 -17.36279,8.82273 -1.481,0.34037 -4.31518,1.04591 -6.2982,1.56792 -4.5229,1.1906 -10.02793,1.0302 -13.7459,-0.40053 -1.36332,-0.5246 -2.8387,-0.95396 -3.27862,-0.95409 -2.30026,-4.5e-4 -2.17115,7.1968 0.2612,14.56222 0.88504,2.67999 2.02743,5.5816 2.53863,6.44802 0.51119,0.86643 0.92946,1.88105 0.92946,2.25471 0,3.3297 8.72552,15.73376 17.00177,24.16945 2.37113,2.4168 4.48067,4.39418 4.68789,4.39418 0.20723,0 0.48322,-0.55773 0.61337,-1.23939 z m 13.3011,-88.92862 c 0,-1.1481 1.18755,-1.91079 2.4729,-1.58819 0.98512,0.24726 1.13257,0.13646 1.13257,-0.85104 0,-1.76791 1.48702,-2.93804 3.73369,-2.93804 1.67702,0 2.03831,-0.18181 2.74766,-1.3827 1.04843,-1.77484 2.21063,-2.18213 4.70728,-1.64965 1.91281,0.40796 2.07333,0.3609 3.32051,-0.9736 0.72083,-0.77125 1.53534,-1.40228 1.81005,-1.40228 0.27492,0 1.33745,0.91264 2.36154,2.02809 2.4808,2.70211 3.12769,2.66091 2.85453,-0.1818 -0.23221,-2.4168 -1.83316,-4.93378 -3.16506,-4.97615 -0.43133,-0.0137 -2.05368,0.45505 -3.60552,1.0417 -1.55183,0.58665 -4.00199,1.28878 -5.44481,1.56029 -1.44283,0.27151 -3.16672,0.77253 -3.8308,1.11338 -3.95795,2.03132 -6.75542,3.68117 -7.74246,4.56627 -0.61972,0.55568 -2.07958,1.55294 -3.24418,2.21613 -1.16459,0.66319 -2.24244,1.40802 -2.39522,1.65518 -0.5018,0.81166 0.24662,2.16518 1.7163,3.10455 1.33761,0.85494 1.48596,0.86754 2.00767,0.17053 0.30962,-0.41395 0.56335,-1.09465 0.56335,-1.51267 z"
       id="path303" /><path
       style="fill:#ffffff;fill-rule:evenodd;stroke-width:0.450685"
       d="m 318.1275,311.50069 c -0.97798,-1.08063 -0.94493,-2.43558 0.0908,-3.71432 0.76128,-0.94015 0.96008,-0.98165 2.2142,-0.46219 1.60239,0.66374 2.14748,2.17702 1.38603,3.84815 -0.63664,1.39734 -2.56782,1.56915 -3.69072,0.32836 z"
       id="path305" /><path
       style="fill:#ffffff;fill-rule:evenodd;stroke-width:0.450685"
       d="m 335.04639,347.67423 c -0.81265,-0.57285 -1.00883,-1.08085 -0.90137,-2.33383 0.17777,-2.07194 1.15846,-2.70867 2.99851,-1.94652 1.6886,0.69945 2.12543,1.85221 1.33147,3.51384 -0.70919,1.48427 -2.00084,1.77304 -3.42861,0.76651 z"
       id="path307" /><path
       style="fill:#ffffff;fill-rule:evenodd;stroke-width:0.450685"
       d="m 353.72259,387.55661 c -1.5955,-1.25502 -1.56588,-3.04162 0.0763,-4.61516 1.35821,-1.30129 2.3285,-1.49086 3.74645,-0.73199 1.81052,0.96897 0.0598,6.28123 -2.07024,6.28123 -0.31068,0 -1.09968,-0.42033 -1.75276,-0.93408 z"
       id="path309" /><path
       style="fill:#ffffff;fill-rule:evenodd;stroke-width:0.450685"
       d="m 371.63878,424.07315 c -1.16929,-0.4348 -2.87903,-2.53961 -2.87903,-3.5443 0,-1.17238 1.31796,-2.74361 2.30138,-2.74361 0.49379,0 1.49653,0.30941 2.22787,0.6876 1.09253,0.56498 1.32966,0.97213 1.32966,2.28305 0,2.75127 -1.12723,4.00615 -2.97988,3.31726 z"
       id="path311" /></g></svg>
