<?xml version="1.0" encoding="UTF-8" standalone="no"?>
<svg
   height="512"
   width="512"
   version="1.1"
   id="svg33"
   sodipodi:docname="pike.svg"
   inkscape:version="1.2.1 (9c6d41e410, 2022-07-14)"
   inkscape:export-filename="pike.png"
   inkscape:export-xdpi="96"
   inkscape:export-ydpi="96"
   xmlns:inkscape="http://www.inkscape.org/namespaces/inkscape"
   xmlns:sodipodi="http://sodipodi.sourceforge.net/DTD/sodipodi-0.dtd"
   xmlns:xlink="http://www.w3.org/1999/xlink"
   xmlns="http://www.w3.org/2000/svg"
   xmlns:svg="http://www.w3.org/2000/svg">
  <sodipodi:namedview
     id="namedview35"
     pagecolor="#ffffff"
     bordercolor="#000000"
     borderopacity="0.25"
     inkscape:showpageshadow="2"
     inkscape:pageopacity="0.0"
     inkscape:pagecheckerboard="true"
     inkscape:deskcolor="#d1d1d1"
     showgrid="false"
     inkscape:zoom="2.0058594"
     inkscape:cx="88.241479"
     inkscape:cy="268.46348"
     inkscape:window-width="2560"
     inkscape:window-height="1351"
     inkscape:window-x="2391"
     inkscape:window-y="-9"
     inkscape:window-maximized="1"
     inkscape:current-layer="layer1" />
  <defs
     id="defs31">
    <g
       id="shape0">
      <path
         d="M 100,100 H 0 V 0 h 100 v 100"
         fill="#00cc66"
         fill-opacity="0"
         fill-rule="evenodd"
         stroke="none"
         id="path8" />
      <path
         d="M 84.3,84.3 V 15.7 H 15.7 v 68.6 h 68.6 m 7.95,7.95 H 7.75 V 7.75 h 84.5 v 84.5"
         fill="#666666"
         fill-opacity="0"
         fill-rule="evenodd"
         stroke="none"
         id="path10" />
      <path
         d="M 84.3,84.3 H 15.7 V 15.7 H 84.3 V 84.3 M 76.4,76.4 V 23.55 H 23.55 V 76.4 H 76.4"
         fill="#999999"
         fill-opacity="0"
         fill-rule="evenodd"
         stroke="none"
         id="path12" />
      <path
         d="M 92.25,92.25 V 7.75 H 7.75 v 84.5 h 84.5 m 3.8,3.8 H 3.95 V 3.95 h 92.1 v 92.1"
         fill="#333333"
         fill-opacity="0"
         fill-rule="evenodd"
         stroke="none"
         id="path14" />
      <path
         d="M 68.85,68.85 V 31.1 H 31.1 V 68.85 H 68.85 M 76.4,76.4 H 23.55 V 23.55 H 76.4 V 76.4"
         fill="#cccccc"
         fill-opacity="0"
         fill-rule="evenodd"
         stroke="none"
         id="path16" />
      <path
         d="M 68.85,68.85 H 31.1 V 31.1 h 37.75 v 37.75"
         fill="#ffffff"
         fill-opacity="0"
         fill-rule="evenodd"
         stroke="none"
         id="path18" />
      <path
         d="M 96.05,96.05 V 3.95 H 3.95 v 92.1 h 92.1 M 100,100 H 0 V 0 h 100 v 100"
         fill="#000000"
         fill-opacity="0"
         fill-rule="evenodd"
         stroke="none"
         id="path20" />
      <path
         d="M 0,50 H 50 L 0,0 M 50,50 V 0 m 0,100 V 50 L 0,100 M 100,50 H 50 l 50,50 M 50,50 100,0"
         fill="none"
         stroke="#000000"
         stroke-linecap="round"
         stroke-linejoin="round"
         stroke-opacity="0"
         stroke-width="0.05"
         id="path22" />
    </g>
    <g
       id="sprite0">
      <use
         height="150"
         width="150"
         xlink:href="#shape1"
         id="use25" />
    </g>
    <g
       id="shape1">
      <path
         d="m 142.5,135.65 -8.3,8.75 -83.4,-82.95 q 0,0 0,-0.25 0,-0.3 0,-0.6 -0.05,-0.5 -0.1,-0.95 -0.1,-0.55 -0.2,-1.1 -0.15,-0.65 -0.35,-1.25 -0.25,-0.7 -0.6,-1.25 -0.35,-0.65 -0.8,-1.2 -0.5,-0.55 -1.1,-0.95 l -6,-4.85 -13.15,3.55 1.45,-13.25 q 0,0 -0.15,-0.1 Q 29.65,39.1 29.45,38.95 29.15,38.7 28.85,38.5 28.5,38.2 28.1,37.9 27.6,37.6 27.15,37.3 26.6,36.95 26.1,36.65 25.5,36.3 24.9,36 24.3,35.7 23.65,35.5 L 13.4,41.2 -5,-5 40.4,15.2 33.7,26.3 q 0.05,0.7 0.3,1.35 0.2,0.6 0.55,1.15 0.3,0.45 0.7,0.9 0.35,0.35 0.75,0.7 0.35,0.25 0.75,0.5 0.35,0.2 0.65,0.35 0.25,0.1 0.45,0.2 0.1,0.05 0.15,0.05 l 11.85,-1.3 -2.25,13.25 5,5.75 q 0.4,0.55 0.95,1.05 0.45,0.45 1.1,0.85 0.55,0.35 1.2,0.6 0.55,0.25 1.2,0.45 0.5,0.2 1.05,0.3 0.45,0.1 0.9,0.2 0.35,0.05 0.65,0.05 0.1,0.05 0.2,0.05 l 82.65,82.9"
         fill="#ffffff"
         fill-rule="evenodd"
         stroke="none"
         id="path28" />
    </g>
  </defs>
  <g
     inkscape:groupmode="layer"
     id="layer1"
     inkscape:label="Layer 1">
    <path
       d="m 142.5,135.65 -8.3,8.75 -83.4,-82.95 q 0,0 0,-0.25 0,-0.3 0,-0.6 -0.05,-0.5 -0.1,-0.95 -0.1,-0.55 -0.2,-1.1 -0.15,-0.65 -0.35,-1.25 -0.25,-0.7 -0.6,-1.25 -0.35,-0.65 -0.8,-1.2 -0.5,-0.55 -1.1,-0.95 l -6,-4.85 -13.15,3.55 1.45,-13.25 q 0,0 -0.15,-0.1 Q 29.65,39.1 29.45,38.95 29.15,38.7 28.85,38.5 28.5,38.2 28.1,37.9 27.6,37.6 27.15,37.3 26.6,36.95 26.1,36.65 25.5,36.3 24.9,36 24.3,35.7 23.65,35.5 L 13.4,41.2 -5,-5 40.4,15.2 33.7,26.3 q 0.05,0.7 0.3,1.35 0.2,0.6 0.55,1.15 0.3,0.45 0.7,0.9 0.35,0.35 0.75,0.7 0.35,0.25 0.75,0.5 0.35,0.2 0.65,0.35 0.25,0.1 0.45,0.2 0.1,0.05 0.15,0.05 l 11.85,-1.3 -2.25,13.25 5,5.75 q 0.4,0.55 0.95,1.05 0.45,0.45 1.1,0.85 0.55,0.35 1.2,0.6 0.55,0.25 1.2,0.45 0.5,0.2 1.05,0.3 0.45,0.1 0.9,0.2 0.35,0.05 0.65,0.05 0.1,0.05 0.2,0.05 l 82.65,82.9"
       fill="#ffffff"
       fill-rule="evenodd"
       stroke="none"
       id="path253"
       transform="matrix(3.4270415,0,0,3.4270415,20.435207,17.135208)" />
  </g>
</svg>
