<?xml version="1.0" encoding="UTF-8" standalone="no"?>
<!-- Created with Inkscape (http://www.inkscape.org/) -->

<svg
   width="512"
   height="512"
   viewBox="0 0 512 512"
   version="1.1"
   id="svg5"
   inkscape:version="1.2.1 (9c6d41e410, 2022-07-14)"
   sodipodi:docname="poison_default.svg"
   xml:space="preserve"
   inkscape:export-filename="poison_default.png"
   inkscape:export-xdpi="96"
   inkscape:export-ydpi="96"
   xmlns:inkscape="http://www.inkscape.org/namespaces/inkscape"
   xmlns:sodipodi="http://sodipodi.sourceforge.net/DTD/sodipodi-0.dtd"
   xmlns="http://www.w3.org/2000/svg"
   xmlns:svg="http://www.w3.org/2000/svg"><sodipodi:namedview
     id="namedview7"
     pagecolor="#ffffff"
     bordercolor="#999999"
     borderopacity="1"
     inkscape:pageshadow="0"
     inkscape:pageopacity="0"
     inkscape:pagecheckerboard="true"
     inkscape:document-units="px"
     showgrid="false"
     height="70mm"
     units="px"
     inkscape:zoom="1.0469406"
     inkscape:cx="-59.220168"
     inkscape:cy="46.325454"
     inkscape:window-width="2560"
     inkscape:window-height="1351"
     inkscape:window-x="2391"
     inkscape:window-y="-9"
     inkscape:window-maximized="1"
     inkscape:current-layer="layer1"
     inkscape:showpageshadow="2"
     inkscape:deskcolor="#d1d1d1" /><defs
     id="defs2" /><g
     inkscape:label="Layer 1"
     inkscape:groupmode="layer"
     id="layer1"><path
       style="fill:#ffffff;fill-rule:evenodd;stroke-width:0.647979"
       d="m 240.3638,511.40661 c -18.59406,-0.44346 -43.38942,-0.83354 -55.10081,-0.8668 -12.81725,-0.0363 -22.4378,-0.33046 -24.16827,-0.73865 -4.7436,-1.11904 -9.77759,-5.33449 -12.75356,-10.67982 -1.41937,-2.54942 -3.39953,-5.76423 -4.40035,-7.14405 -4.10533,-5.65994 -8.90953,-14.09021 -9.63792,-16.91234 -0.264,-1.02289 -1.02929,-2.99854 -1.70064,-4.39031 -2.64281,-5.47887 -3.24174,-7.20681 -4.04561,-11.67181 -1.27483,-7.08089 -0.44635,-14.43799 3.38469,-30.058 0.71917,-2.93211 1.60023,-9.84686 1.95795,-15.36612 0.4914,-7.58203 1.14739,-11.87477 2.68351,-17.56128 1.11821,-4.13945 2.484,-11.33644 3.0351,-15.99332 0.55111,-4.65687 1.3022,-9.82155 1.66913,-11.47706 0.36692,-1.65551 0.66715,-5.0901 0.66715,-7.6324 0,-2.54232 0.41827,-6.26804 0.92948,-8.27938 0.51118,-2.01135 1.28178,-6.47934 1.71239,-9.92888 0.43064,-3.44955 1.05445,-8.10642 1.38631,-10.34861 1.65967,-11.21348 2.1132,-17.43335 1.89787,-26.02834 l -0.2357,-9.40783 -2.67781,-5.3311 -2.67781,-5.3311 0.0333,-18.18848 c 0.0326,-17.64974 0.49036,-23.55821 2.6259,-33.86818 2.98325,-14.40273 7.56007,-27.57752 12.1824,-35.06811 5.2703,-8.54064 13.51687,-20.24411 15.77592,-22.38908 0.50473,-0.47925 2.29411,-2.847 3.97641,-5.26168 1.68228,-2.41468 3.69729,-5.01102 4.47777,-5.76965 0.78048,-0.75863 4.75877,-6.24908 8.84064,-12.20102 6.21329,-9.05985 7.3438,-11.08173 6.94383,-12.41883 -0.48028,-1.60556 -1.66348,-21.189 -1.66909,-27.62546 -0.001,-1.89724 0.23132,-11.06988 0.51777,-20.383627 0.43227,-14.05509 0.71998,-17.34698 1.69238,-19.36265 0.84466,-1.75094 1.17154,-4.04828 1.17154,-8.23365 0,-8.30729 2.26036,-12.78917 8.23636,-16.33119 l 2.93052,-1.73679 -1.19683,-4.13697 c -0.65826,-2.27534 -1.63942,-5.83038 -2.18038,-7.90011 -0.54097,-2.06972 -1.80235,-5.87989 -2.80309,-8.46705 -1.76267,-4.55694 -1.79521,-4.87673 -1.04149,-10.23522 1.02558,-7.2913699 2.7955,-10.7462899 6.69083,-13.0606799 1.67304,-0.99402 4.10667,-2.10414 5.40808,-2.46692 1.40839,-0.39263003 14.63438,-0.80727003 32.67403,-1.02437003 33.15639,-0.399 41.48512,0.0207 53.68813,2.70753003 11.50421,2.5327 16.42241,6.25478 16.42162,12.4278499 -3.9e-4,2.76805 -2.08755,11.34799 -3.67355,15.10135 -0.29156,0.6899 -0.86398,2.38332 -1.27207,3.76314 -0.40819,1.37981 -1.47571,4.70625 -2.37244,7.39209 l -1.63041,4.88333 2.25431,1.92185 c 3.28548,2.80098 4.3515,5.37166 4.3515,10.49376 0,4.20624 0.11603,4.54013 2.28356,6.57085 3.81721,3.57623 4.60712,5.61053 4.15419,10.69827 -0.21814,2.44849 -0.54616,9.81427 -0.72947,16.36839 -0.18338,6.55412 -0.66604,13.246217 -1.0729,14.871317 -0.56875,2.27158 -0.54052,3.50415 0.12226,5.3311 1.12213,3.09309 1.10228,13.19235 -0.0282,15.16643 -0.47325,0.82537 -1.12224,3.45331 -1.44213,5.83986 -0.75672,5.64613 -2.39072,8.84802 -6.57221,12.8788 -1.87449,1.80687 -3.40812,3.67777 -3.40812,4.15754 0,0.47977 1.0544,2.51276 2.34307,4.51773 1.28871,2.00499 2.34311,3.96182 2.34311,4.34851 0,0.3867 0.60247,1.87139 1.3389,3.29934 0.73636,1.42794 1.3389,2.8664 1.3389,3.19657 0,0.33017 1.59128,3.51895 3.53613,7.08616 1.9449,3.56723 4.50484,9.32654 5.68882,12.79846 1.18398,3.47194 3.36545,8.12881 4.84767,10.34862 3.39706,5.08733 8.92474,15.60248 10.36435,19.71573 0.60365,1.72477 2.33527,4.67273 3.84799,6.55103 1.51277,1.8783 4.00958,6.39406 5.54854,10.03503 1.5389,3.64096 3.41759,7.88998 4.17482,9.44228 2.61864,5.36808 5.81594,16.43382 7.15798,24.77395 0.55512,3.44954 1.33144,7.9653 1.72523,10.03501 0.39359,2.06973 0.98862,5.59767 1.3219,7.83987 0.33306,2.2422 0.92377,5.48789 1.31216,7.21267 0.38856,1.72476 1.17333,5.81717 1.74424,9.09423 0.5709,3.27706 1.61532,8.39004 2.32085,11.36218 0.7056,2.97212 1.59301,8.47571 1.97216,12.23017 0.379,3.75446 0.96816,8.80194 1.30907,11.21662 2.83149,20.05683 3.36494,26.87956 3.38361,43.27602 0.0111,12.44586 0.29994,18.51328 1.07885,22.89239 0.58276,3.27705 1.3204,11.17963 1.63916,17.56128 0.31846,6.38164 0.85787,12.87305 1.1981,14.42533 1.5762,7.19107 2.10617,9.30902 3.06038,12.23019 0.56341,1.72476 1.21739,5.12597 1.45328,7.55824 0.39248,4.04473 0.2131,5.00861 -2.10039,11.2894 -1.39116,3.77689 -3.24349,7.99604 -4.11629,9.37585 -2.41668,3.82047 -6.19396,11.67526 -7.54015,15.67972 -1.3329,3.96486 -5.14971,11.0177 -7.71055,14.2478 -3.76225,4.74553 -4.88119,5.06985 -19.43562,5.63346 -6.99577,0.27089 -19.94967,0.79255 -28.78645,1.15918 -25.95199,1.07675 -38.87573,1.12358 -74.64404,0.27045 z m 87.02888,-13.83327 c 5.3389,-0.48917 12.62281,-0.88999 16.18647,-0.89076 4.66661,-10e-4 6.74216,-0.24763 7.41876,-0.8815 1.32208,-1.23865 4.16064,-6.85067 5.89943,-11.66368 0.81005,-2.2422 3.19679,-7.32242 5.30385,-11.2894 2.10712,-3.96696 4.6822,-9.55026 5.72253,-12.40732 l 1.89141,-5.19467 -2.13795,-7.9763 c -3.23245,-12.05951 -4.12968,-17.84129 -4.15766,-26.79196 -0.017,-4.73538 -0.44294,-9.99396 -1.02127,-12.54377 -0.7062,-3.11391 -1.17131,-11.5018 -1.59963,-28.85068 -0.33194,-13.4532 -0.91361,-26.01265 -1.29214,-27.90989 -0.94035,-4.71346 -1.88743,-11.53175 -2.74413,-19.75645 -0.39529,-3.79449 -1.31686,-10.00366 -2.04808,-13.79815 -0.73124,-3.79449 -1.64347,-8.87472 -2.02733,-11.2894 -0.38351,-2.41467 -1.27408,-6.93043 -1.97838,-10.03502 -1.18661,-5.23071 -2.34032,-11.62645 -4.97808,-27.5963 -1.03147,-6.24501 -4.27468,-17.74226 -6.01527,-21.32441 -1.22592,-2.52306 -3.91387,-8.75207 -5.27755,-12.23018 -0.60862,-1.55229 -2.41646,-4.317 -4.01749,-6.1438 -2.03473,-2.32168 -3.39573,-4.77592 -4.52139,-8.15345 -1.48418,-4.4534 -5.11097,-11.88715 -6.64348,-13.61712 -2.10639,-2.37779 -6.52668,-11.03065 -8.80874,-17.24322 -1.45716,-3.96697 -3.70921,-9.02688 -5.00461,-11.24424 -1.29538,-2.21738 -3.55704,-6.85776 -5.02596,-10.31196 -1.46887,-3.45422 -3.21518,-7.00248 -3.88074,-7.88502 -0.66552,-0.88253 -1.90139,-3.15691 -2.74631,-5.05415 -0.84493,-1.89725 -1.75203,-3.73177 -2.01578,-4.07673 -0.26356,-0.34498 -0.6962,-1.85685 -0.96088,-3.35976 l -0.4811,-2.73257 -4.78262,0.39322 c -2.63042,0.21628 -10.11036,0.55978 -16.62207,0.7633 -13.35021,0.41723 -13.12043,0.31742 -11.99763,5.21388 1.5938,6.95027 2.07987,12.83705 2.07987,25.18852 0,13.5618 -0.18561,14.96818 -3.38838,25.64925 -1.14944,3.83363 -1.47223,5.25992 -2.41309,10.66221 -0.21028,1.20734 -0.63033,2.48654 -0.93346,2.84266 -0.30334,0.3561 -1.47033,3.74296 -2.5937,7.52627 -1.12336,3.78332 -2.53258,8.0077 -3.13163,9.38751 -0.59898,1.37982 -1.33576,3.07323 -1.63719,3.76313 -0.30164,0.6899 -2.35372,5.79615 -4.56059,11.34718 -2.20692,5.55105 -5.05046,11.90133 -6.319,14.11175 -1.26858,2.21042 -3.46262,6.70018 -4.87558,9.97724 -3.1835,7.38351 -9.66775,16.90968 -14.1887,20.84512 -3.57767,3.1143 -12.96367,7.68666 -19.51088,9.50465 -4.9132,1.36427 -15.14487,1.35039 -18.94436,-0.0259 -1.57229,-0.56942 -3.76248,-1.65656 -4.86709,-2.41579 -2.72691,-1.87433 -6.07257,-3.44791 -7.33073,-3.44791 -0.89814,0 -1.03683,1.49474 -1.033,11.1326 0.002,6.12293 -0.30772,13.39047 -0.68923,16.1501 -0.38151,2.75963 -0.96546,6.99315 -1.29762,9.40783 -1.74824,12.70853 -2.16603,15.4952 -3.06411,20.43774 -0.53815,2.96186 -0.97852,7.08785 -0.97852,9.16887 0,2.08102 -0.42079,6.14908 -0.935,9.04013 -0.5143,2.89105 -1.11725,7.2864 -1.33999,9.76742 -0.39789,4.4318 -1.00752,7.43672 -3.79281,18.69502 -0.76806,3.1046 -1.80029,10.72493 -2.29384,16.9341 -0.67693,8.51635 -1.43088,13.29216 -3.06939,19.44285 -1.77821,6.67507 -2.17541,9.40439 -2.19066,15.05253 -0.0185,6.77067 0.0333,7.00758 2.78481,12.72871 1.54189,3.20629 2.80344,6.32747 2.80344,6.93596 0,0.60847 1.05439,2.74679 2.34308,4.75178 1.28871,2.00498 2.34309,3.76796 2.34309,3.91774 0,0.14974 1.4699,2.44401 3.26645,5.09831 1.79655,2.65431 4.17562,6.3783 5.28685,8.27555 l 2.02039,3.44954 25.67536,0.46924 c 74.14437,1.35513 86.94448,1.50722 106.3445,1.26354 11.59823,-0.14567 25.45593,-0.66507 30.79482,-1.15424 z M 189.48536,296.89952 c 0,-0.18457 -0.50318,-1.05516 -1.11822,-1.93454 -0.93243,-1.33321 -0.98805,-1.93616 -0.33476,-3.6288 1.28854,-3.33841 1.1284,-3.50883 -3.29724,-3.50883 -3.04813,0 -4.57114,0.32713 -6.01872,1.29285 -1.06589,0.71109 -3.00255,1.45468 -4.30368,1.6525 -1.30115,0.19783 -2.50274,0.56734 -2.67021,0.82125 -0.2846,0.43145 6.15079,4.4249 8.37046,5.19418 1.30693,0.45295 9.37234,0.54882 9.37234,0.11137 z m 14.53798,-4.84125 c 4.73327,-2.116 9.02405,-6.07502 12.35227,-11.39721 5.31103,-8.49284 5.66685,-9.76516 2.73303,-9.77226 -1.01251,-0.002 -3.79913,-0.16753 -6.19242,-0.36684 l -4.35145,-0.36233 -1.50627,2.13037 c -1.88992,2.67301 -1.88167,2.99354 0.0771,2.99354 2.12752,0 5.11118,2.28601 5.11118,3.91607 0,3.27971 -4.56626,4.6735 -8.71933,2.66145 -1.91647,-0.92848 -2.00821,-0.89833 -4.29394,1.41117 -1.72903,1.74703 -2.21386,2.6857 -1.86678,3.6143 0.6321,1.69123 0.55097,5.37564 -0.14997,6.81466 -0.49659,1.01946 -0.36314,1.1087 1.0376,0.69368 0.88415,-0.262 3.4802,-1.31343 5.76901,-2.33665 z m -34.21574,-7.99405 c 0.71754,0 1.95072,-0.42397 2.74041,-0.94219 1.32509,-0.86954 1.36247,-1.0799 0.48481,-2.72822 -0.94324,-1.77138 -0.99217,-1.78356 -5.96624,-1.48449 -3.45618,0.20783 -5.32948,0.0571 -6.02617,-0.48451 -0.55608,-0.43234 -1.01097,-0.60476 -1.01097,-0.38322 0,0.68553 3.31825,5.36824 4.76341,6.72217 1.25621,1.17691 1.46823,1.2013 2.54039,0.29231 0.64337,-0.54549 1.75687,-0.99181 2.47439,-0.99181 z m 22.09047,-3.62029 c 2.83115,-2.17811 11.1683,-14.72529 16.41821,-24.70896 6.23593,-11.85879 8.66136,-16.63868 9.33471,-18.39631 0.26407,-0.6899 1.26522,-2.8348 2.22431,-4.76643 0.95907,-1.93162 1.74383,-3.84521 1.74383,-4.25242 0,-0.40722 0.79861,-2.49584 1.77468,-4.6414 0.97607,-2.14558 2.04696,-5.02997 2.37968,-6.40979 4.86666,-20.18084 5.94406,-26.86702 6.09018,-37.79636 0.12892,-9.65341 -0.20184,-12.41555 -2.64596,-22.10016 -1.5384,-6.09533 -2.28178,-8.15345 -2.94486,-8.15345 -0.32913,0 -1.701,3.28106 -3.0491,7.29124 -3.27478,9.74135 -11.32276,24.57159 -19.69817,36.29837 -10.59328,14.83213 -12.60692,17.72882 -14.38774,20.69723 -3.5256,5.87674 -5.64916,10.31171 -7.42528,15.50735 -0.97578,2.85443 -2.179,6.37787 -2.67382,7.82987 -1.95373,5.733 -2.41883,10.58829 -2.51073,26.21068 -0.043,7.30148 0.11625,8.48114 1.52344,11.2894 0.86428,1.72477 2.60691,4.05321 3.87251,5.17431 1.92944,1.70913 2.80701,2.03611 5.43334,2.02442 1.95936,-0.009 3.65967,-0.41975 4.54077,-1.09759 z m -26.4882,-8.01385 c 3.69062,-0.23518 4.35349,-0.48125 3.75212,-1.39289 -0.30313,-0.45946 -11.0508,-0.3255 -11.64605,0.14515 -0.0937,0.0741 0.1682,1.04471 0.58209,2.15693 l 0.75245,2.0222 1.53927,-1.35476 c 1.06612,-0.93834 2.60921,-1.42296 5.02014,-1.57661 z m 60.51321,-10.61036 1.29147,-2.26626 -2.49877,-1.92964 c -2.1605,-1.66845 -2.47124,-2.2354 -2.29563,-4.18861 0.29045,-3.23245 2.74116,-4.4929 5.88143,-3.02522 1.22441,0.57224 2.32164,1.04041 2.43838,1.04041 0.56253,0 5.623,-11.90395 5.61045,-13.19759 -0.002,-0.18709 -2.47265,-0.30327 -5.49068,-0.25815 -3.96647,0.0593 -5.62928,0.3275 -5.99929,0.96741 -0.28149,0.48688 -1.46186,3.00209 -2.62297,5.58924 -1.16116,2.58716 -3.58277,7.28682 -5.38148,10.44368 -1.79867,3.15688 -3.27032,6.1979 -3.27032,6.75782 0,1.26779 2.61885,2.24135 6.02912,2.24135 1.42715,0 2.78999,0.29594 3.02857,0.65767 0.59484,0.90173 1.6917,-0.0459 3.27972,-2.83211 z m -57.32316,-1.11828 -0.20235,-3.29275 -3.42382,-0.32298 c -4.09985,-0.38677 -5.6138,-1.41384 -5.6138,-3.80847 0,-2.21817 1.57493,-3.08121 5.62279,-3.08121 2.35818,0 3.19407,-0.28201 3.75696,-1.26734 0.96591,-1.69087 0.26155,-2.58864 -1.90933,-2.43368 -3.68216,0.26281 -4.82563,-0.0711 -5.58387,-1.63008 -1.03957,-2.13757 0.0459,-4.20416 2.89968,-5.52155 1.23367,-0.56949 1.79114,-1.04354 1.23885,-1.05352 -0.55231,-0.01 -1.86398,-0.43827 -2.91485,-0.95173 -1.05087,-0.51348 -2.13606,-0.80309 -2.41154,-0.64359 -0.62596,0.36247 -1.56481,7.99262 -1.69984,13.81508 -0.0563,2.41468 -0.33831,6.27523 -0.62736,8.57901 l -0.52555,4.1887 2.24859,0.258 c 1.23671,0.14197 3.84591,0.3032 5.7982,0.3584 l 3.54961,0.1004 z m 73.11181,-36.24967 c 1.09965,-3.60432 1.99935,-6.7437 1.99935,-6.97639 0,-0.23273 -1.06506,-0.75238 -2.36684,-1.15488 -3.24316,-1.00276 -4.63751,-3.05982 -3.56663,-5.26176 0.90178,-1.85418 3.01154,-2.58514 5.89972,-2.04398 2.29035,0.42916 3.22353,-0.41974 3.74706,-3.4089 0.20576,-1.17447 0.70812,-3.19518 1.11641,-4.49046 0.82535,-2.61824 0.39811,-3.5507 -1.09522,-2.38969 -0.54104,0.42085 -3.00021,0.95493 -5.46449,1.18695 l -4.48052,0.4219 -0.80948,3.13593 c -0.44524,1.72478 -1.17765,4.82936 -1.62755,6.89908 -0.44968,2.06973 -2.02672,7.35133 -3.50389,11.73689 -1.47716,4.38557 -2.51054,8.23944 -2.2963,8.56415 0.21421,0.32475 1.51911,0.46509 2.89979,0.31194 1.44201,-0.15997 3.22252,0.0925 4.18395,0.59313 2.42729,1.26412 3.06312,0.41982 5.36464,-7.12388 z m -66.59428,1.2839 c 1.13927,-2.93211 3.16161,-7.51843 4.4941,-10.19182 l 2.4227,-4.86071 h -2.85552 c -1.72072,0 -4.16433,-0.62291 -6.14889,-1.56736 -3.05166,-1.45233 -3.35477,-1.48956 -4.13017,-0.50732 -1.69177,2.14305 -0.85677,3.42373 2.90227,4.45139 3.43421,0.93885 4.87726,3.28188 3.35862,5.45328 -1.22413,1.75031 -4.16595,2.34277 -7.43451,1.49725 -1.37584,-0.35587 -2.73443,-0.41285 -3.01908,-0.12648 -0.5263,0.52941 -2.67212,8.87398 -2.66565,10.36588 0.003,0.60461 1.43333,0.81696 5.50414,0.81696 h 5.50059 z m 11.43004,-21.80441 c 0.40922,-0.25341 3.05194,-3.83544 5.87263,-7.96 l 5.12851,-7.4992 -2.74707,-0.75991 c -3.436,-0.95048 -5.18402,-2.4055 -5.87219,-4.8879 l -0.53578,-1.93257 -3.13613,3.98892 c -1.72487,2.19392 -3.13612,4.34982 -3.13612,4.79092 0,0.44109 1.12969,0.99977 2.51044,1.24151 1.38076,0.24177 2.88702,0.73102 3.34727,1.08737 1.38193,1.06988 1.00265,4.07745 -0.65107,5.16262 -1.87927,1.23319 -6.55234,1.2646 -8.25862,0.0556 -1.96859,-1.39496 -2.59718,-1.17641 -4.17342,1.45105 l -1.44683,2.41177 3.49928,1.04528 c 3.0686,0.91662 7.54056,2.08102 8.52018,2.21846 0.18406,0.0259 0.6696,-0.16035 1.07886,-0.41382 z m 65.02272,-26.48912 c 0.16205,-9.09231 -0.017,-14.3528 -0.54889,-16.15011 -0.43397,-1.46605 -0.91058,-2.66555 -1.05861,-2.66555 -0.14804,0 -1.35073,0.4233 -2.67258,0.94078 -1.32186,0.51741 -3.85506,0.94079 -5.62934,0.94079 -1.77429,0 -3.36511,0.21169 -3.53517,0.47042 -0.35944,0.5469 1.30991,10.78531 1.83938,11.28134 0.19569,0.18354 1.26377,-0.0185 2.373,-0.44894 4.40107,-1.70786 7.78502,1.27173 5.71126,5.02877 -1.08142,1.95914 -4.0749,3.73851 -6.28945,3.73851 -1.92624,0 -2.79325,1.95615 -3.22219,7.26989 -0.37003,4.58544 -0.3538,4.64643 1.22777,4.62674 0.88159,-0.0111 2.1877,-0.43434 2.90242,-0.94078 3.09267,-2.19149 6.35685,-0.31387 6.47325,3.72349 l 0.0741,2.56835 1.05761,-3.44954 c 0.77247,-2.5193 1.12247,-7.08593 1.29785,-16.9341 z m -48.02633,1.88156 c 0,-0.80601 -0.44635,-1.25437 -1.24863,-1.25437 -1.78678,0 -4.77645,-2.38391 -4.77645,-3.80866 0,-0.66485 0.6218,-1.79137 1.38172,-2.50335 1.1943,-1.11889 1.87608,-1.23663 5.02597,-0.86792 2.51187,0.29401 3.95468,0.18516 4.64334,-0.35025 1.46544,-1.13942 1.21771,-2.50482 -0.45442,-2.50482 -3.31785,0 -4.99044,-3.47843 -2.77527,-5.77163 1.00887,-1.04442 1.02016,-1.2664 0.10781,-2.12115 -0.91235,-0.85475 -1.39808,-0.41323 -4.64142,4.21913 -1.99234,2.84557 -4.92797,6.74133 -6.52361,8.65724 -1.59565,1.9159 -3.3336,4.25602 -3.86214,5.20024 -0.95089,1.6988 -0.94374,1.70943 0.68345,1.01482 1.2872,-0.54949 2.19895,-0.48666 4.19687,0.28926 1.40382,0.54519 3.83274,1.00577 5.39759,1.02354 2.41037,0.0274 2.84517,-0.15938 2.84517,-1.22205 z m 10.6054,-19.28605 c 0.33595,-0.60365 1.40169,-3.69338 2.3684,-6.86601 0.96672,-3.17263 2.39062,-6.77351 3.16428,-8.00194 2.05957,-3.2703 1.3726,-4.21151 -2.90547,-3.98073 l -3.51869,0.18983 -0.57786,3.41817 c -0.36848,2.17963 -1.39919,4.56072 -2.84457,6.57147 l -2.26666,3.15331 2.17167,0.96774 c 1.8765,0.8362 2.17168,1.28571 2.17168,3.30716 0,2.49558 1.17615,3.148 2.23725,1.24101 z m 29.5618,-7.36785 c 0.9205,-0.42152 2.50208,-0.95246 3.51459,-1.17991 1.53627,-0.34514 1.84163,-0.74901 1.84477,-2.43999 0.002,-1.11453 0.33305,-3.13858 0.73613,-4.49789 1.05693,-3.56658 -0.0393,-4.114 -8.25286,-4.114 -5.11333,0 -6.67029,0.20191 -6.9572,0.90235 -0.39137,0.95509 0.79082,11.32119 1.39542,12.23771 0.45532,0.68975 5.53447,0.0921 7.71913,-0.90827 z m -28.51641,-17.77853 c 0.19198,-0.29104 0.1679,-1.5756 -0.0541,-2.85453 -0.33179,-1.91583 -0.65159,-2.29203 -1.81587,-2.13632 -1.44656,0.19346 -2.26095,2.73549 -1.48404,4.63227 0.39426,0.96258 2.7864,1.21836 3.35357,0.35855 z m 52.35186,-0.56838 c 0.19961,-0.60365 0.6696,-1.62932 1.04487,-2.27922 0.49451,-0.85605 0.44686,-1.31789 -0.17161,-1.67615 -1.38487,-0.80189 -26.04584,-0.53548 -26.05661,0.28149 -0.005,0.3821 -0.19065,1.32976 -0.41271,2.10591 -0.38129,1.33231 -0.20687,1.41117 3.11229,1.41117 2.89042,0 3.79192,-0.27897 5.06701,-1.56797 0.87246,-0.88197 2.29731,-1.56798 3.25667,-1.56798 1.87718,0 4.3834,1.97228 4.3834,3.44954 0,0.74706 0.96935,0.94079 4.70721,0.94079 3.89862,0 4.76944,-0.1885 5.06976,-1.09758 z m -33.33274,-2.19516 -0.20969,-2.03836 -5.52304,-0.1822 c -4.1613,-0.13723 -5.52521,0.017 -5.5321,0.62721 -0.005,0.44516 -0.19065,1.44439 -0.41271,2.22053 -0.397,1.38842 -0.30445,1.41117 5.74193,1.41117 h 6.14557 z m 53.0583,0.006 c 1.0992,-2.33355 4.03263,-3.6379 5.8465,-2.59968 0.62492,0.35765 1.56711,1.54636 2.09383,2.64146 0.85956,1.78726 1.25126,1.99111 3.82578,1.99111 3.36214,0 4.25422,-1.04348 4.25422,-4.97627 v -2.55014 h -3.64771 c -6.06556,0 -23.20909,2.37336 -24.26079,3.35868 -0.19517,0.18279 0.0504,1.19533 0.55119,2.24999 0.88731,1.87801 1.00382,1.9176 5.64268,1.9176 4.69807,0 4.74449,-0.017 5.69426,-2.03291 z m -8.80723,-9.56619 c 3.16147,-0.51525 6.86154,-1.08968 8.22242,-1.27644 l 2.47426,-0.33958 -1.68205,-2.32989 c -1.51709,-2.10135 -2.03573,-2.36116 -5.28753,-2.64853 -3.4121,-0.3015 -3.62802,-0.23444 -4.02596,1.25086 -0.60861,2.27147 -1.58622,3.14432 -3.52199,3.14432 -2.3171,0 -4.1548,-1.70216 -4.1548,-3.84839 0,-1.37615 -0.3813,-1.86203 -1.70482,-2.17328 -2.20911,-0.5194 -2.572,-0.11018 -2.65514,2.99449 -0.0504,1.87531 -0.48555,2.88547 -1.61062,3.73911 -3.29374,2.49874 -6.77234,0.5815 -7.01175,-3.86462 l -0.15086,-2.8056 -3.57066,-0.19265 c -1.96392,-0.10596 -3.83291,0.0526 -4.15335,0.35314 -0.33083,0.30971 -0.25229,1.43315 0.18057,2.59666 0.66278,1.78133 0.57601,2.28784 -0.66071,3.85494 -0.78307,0.99228 -1.42374,1.9567 -1.42374,2.14314 0,0.79225 25.21765,0.30171 30.73708,-0.59788 z m -34.81181,-0.49428 c -1.66417,-1.19721 -2.61977,-3.30258 -2.61977,-5.77181 v -2.26769 l -3.84939,0.18813 c -3.61676,0.17671 -3.86184,0.28956 -4.05646,1.86696 -0.27756,2.24916 -1.59447,3.15185 -4.24709,2.91105 -1.91329,-0.17376 -3.58816,-1.7767 -4.29274,-4.10853 -0.11492,-0.38085 -8.76204,1.32162 -9.49566,1.86955 -0.87208,0.65137 -1.16802,4.96955 -0.39055,5.69798 0.24547,0.22999 7.099,0.40915 15.23008,0.39818 11.75938,-0.0156 14.56642,-0.17627 13.72155,-0.78398 z m 61.53173,-3.46412 c 0.37455,-2.47545 -0.69945,-2.9726 -5.68417,-2.63103 -3.93506,0.26963 -4.66896,0.51133 -5.23724,1.72478 -0.36336,0.77614 -0.89061,1.41116 -1.17153,1.41116 -0.28089,0 -0.51081,0.29283 -0.51081,0.65071 0,0.41559 2.23748,0.58557 6.19245,0.47042 5.88995,-0.17153 6.20311,-0.25096 6.41118,-1.62602 z m -82.38346,-10.22117 c 0.87049,-0.31009 3.01921,-0.56379 4.77488,-0.56379 1.75567,0 3.37621,-0.17249 3.60128,-0.38337 0.22487,-0.21087 -0.44576,-1.05754 -1.49136,-1.88156 -2.78041,-2.1919 -5.84049,-2.00927 -8.05953,0.48095 -1.48205,1.66316 -2.06215,1.90901 -3.63296,1.53966 -1.23802,-0.29112 -2.12471,-1.0736 -2.62576,-2.31719 -1.06843,-2.65191 -3.24141,-2.27464 -3.8815,0.67389 -0.73006,3.36288 0.21621,3.96984 5.381,3.45166 2.39312,-0.24014 5.0634,-0.69027 5.93395,-1.00033 z m 80.10769,-0.25022 c 2.17754,-2.7037 0.33587,-5.33111 -3.73708,-5.33111 -2.28346,0 -2.57407,0.17301 -2.57407,1.53241 0,1.52313 -2.15669,3.4851 -3.83095,3.4851 -0.47043,0 -1.47733,-0.58283 -2.23775,-1.29524 -1.05346,-0.98697 -1.27762,-1.74259 -0.94188,-3.17486 l 0.44072,-1.87961 -2.90427,0.19576 c -2.6339,0.17753 -2.93595,0.36877 -3.24456,2.05446 -0.41212,2.25272 -3.05246,3.83527 -5.45546,3.27023 -1.70415,-0.4007 -3.58519,-3.17013 -2.87966,-4.23963 0.72457,-1.09829 -1.74305,-1.35052 -8.80224,-0.89974 -5.6687,0.36196 -7.13438,0.65426 -7.44724,1.48492 -1.5564,4.1323 -6.47903,4.24277 -7.85668,0.17627 -0.44124,-1.3034 -0.79317,-1.43509 -2.94256,-1.10208 -1.3426,0.20806 -4.48203,0.38129 -6.97648,0.38507 -4.17825,0.006 -4.58392,0.1264 -5.15117,1.52425 -0.33869,0.83455 -1.15965,1.81378 -1.82442,2.1761 -0.66478,0.36232 -0.90744,0.67471 -0.53941,0.6942 0.3684,0.0193 8.05017,0.16967 17.07103,0.33365 9.02091,0.16404 18.05854,0.58223 20.08363,0.92926 5.19927,0.89105 8.94885,1.07337 20.55825,0.9996 9.35414,-0.0593 10.26394,-0.16664 11.19207,-1.31906 z M 233.04422,97.181013 c 2.00065,-0.33447 11.58517,-0.88908 21.29889,-1.23244 9.71372,-0.34336 17.71523,-0.70472 17.78116,-0.80303 0.0659,-0.0983 -0.003,-1.66047 -0.15308,-3.47148 -0.26126,-3.15749 -0.35269,-3.29274 -2.2164,-3.29274 -1.44297,0 -1.94373,0.29809 -1.94373,1.15717 0,2.52819 -4.36826,4.41944 -7.572,3.27829 -1.25558,-0.44724 -1.95607,-1.24503 -2.23328,-2.54354 -0.38966,-1.82448 -0.53267,-1.89192 -4.0232,-1.89192 -2.86278,0 -3.69498,0.22947 -3.98133,1.09758 -0.8304,2.51765 -1.45317,2.97915 -4.0204,2.97915 -2.36112,0 -2.66474,-0.19072 -3.24534,-2.03836 -0.62729,-1.99607 -0.72102,-2.03837 -4.51882,-2.03837 -3.69054,0 -3.87826,0.0759 -3.87826,1.56797 0,1.99512 -2.19711,4.07673 -4.30288,4.07673 -1.81786,0 -4.40006,-2.62609 -4.40006,-4.4749 0,-0.8728 -0.49339,-1.1698 -1.94222,-1.1698 -1.51008,0 -2.24981,0.48844 -3.32468,2.19516 -1.15903,1.84044 -1.75909,2.19517 -3.71329,2.19517 -2.30014,0 -2.3216,0.0244 -1.62931,1.88534 0.41263,1.10894 1.29427,2.00668 2.1409,2.17998 4.76718,0.97581 11.25697,1.11645 15.87704,0.34402 z m 71.92184,-4.40936 v -3.44954 l -2.44971,-0.19124 c -2.48453,-0.19398 -2.73,-0.0474 -5.30491,3.1704 -1.81999,2.27431 -4.69493,2.32935 -6.54547,0.12537 -0.73858,-0.87969 -1.43826,-1.84108 -1.55483,-2.13642 -0.11663,-0.29534 -1.94418,-0.73702 -4.06134,-0.98157 -3.33483,-0.38522 -3.84939,-0.30505 -3.84939,0.59958 0,0.57431 -0.44464,1.84936 -0.98756,2.83345 -1.30655,2.367 -0.82804,2.51876 8.23896,2.61297 3.92805,0.0408 8.04563,0.29608 9.15021,0.56727 1.10464,0.27119 3.21339,0.44953 4.68618,0.39618 l 2.67786,-0.0969 z m -89.09827,-9.72819 c 2.57143,-0.73088 7.32865,-0.93401 21.86985,-0.93401 10.22093,0 19.07307,-0.17597 19.67134,-0.39107 1.00186,-0.36018 1.0008,-0.48117 -0.0111,-1.53135 -1.24118,-1.28493 -1.49237,-3.31229 -0.68635,-5.53977 0.51645,-1.42692 0.43346,-1.4831 -1.62435,-1.09757 -1.19273,0.22347 -4.6476,0.40634 -7.67753,0.40634 -4.94831,0 -5.6927,0.15952 -7.31481,1.56797 -2.2903,1.98859 -3.87019,1.98082 -6.18662,-0.0304 -2.43832,-2.11709 -6.47913,-1.99686 -6.8123,0.20265 -0.28541,1.88264 -3.00789,3.52097 -5.05255,3.0402 -0.878,-0.20642 -2.09214,-1.08426 -2.6981,-1.9507 -1.31698,-1.88308 -4.35124,-2.12747 -5.93139,-0.47776 -1.20405,1.25706 -2.16861,5.33438 -1.59387,6.73754 0.46436,1.13367 0.0533,1.13389 4.05032,-0.002 z m 74.32584,-0.24266 c 0.88989,-0.32647 1.04677,-0.61833 0.50236,-0.93372 -1.37759,-0.79762 -0.86197,-3.79956 1.1676,-6.79776 2.31789,-3.42419 2.08285,-3.62203 -4.30305,-3.62203 -5.87492,0 -6.39559,0.24881 -5.44862,2.60378 0.68056,1.69232 0.59269,2.02471 -0.81801,3.09559 -0.86926,0.65982 -2.05054,1.1997 -2.6251,1.1997 -1.72197,0 -3.49317,-1.9574 -3.49317,-3.86033 v -1.78437 h -5.57877 c -3.06833,0 -5.74753,0.15805 -5.95375,0.35129 -0.20636,0.19316 0.0504,1.14954 0.56971,2.12524 0.99401,1.86675 0.45302,4.47143 -1.11753,5.38082 -1.74491,1.01033 1.33833,1.53364 9.40252,1.59583 4.60247,0.0356 9.87442,0.28438 11.71543,0.55297 4.40919,0.64344 4.47743,0.64448 5.98061,0.093 z m 14.53424,-0.87477 c 0.23718,-0.33921 0.62936,-1.77699 0.87139,-3.19512 0.37173,-2.1767 0.21472,-2.74954 -1.00753,-3.67664 -2.10762,-1.59889 -3.97717,-1.42805 -3.97717,0.36343 0,0.80393 -0.70561,2.76745 -1.56801,4.36339 -1.36132,2.51925 -1.42754,2.93258 -0.50236,3.13592 1.62475,0.35699 5.69713,-0.29572 6.18342,-0.991 z m -63.94792,-14.21341 c 11.45896,-0.31291 25.76853,-0.94127 31.79905,-1.3963 6.03046,-0.45502 14.67027,-0.76714 19.19946,-0.6936 l 8.23491,0.13374 -0.20131,-3.26968 -0.20132,-3.26968 -13.05432,-0.55823 c -13.98286,-0.59795 -48.33618,-0.69664 -60.82694,-0.17479 -7.17716,0.29986 -7.71432,0.41545 -9.53971,2.0539 -2.08336,1.86998 -2.57825,4.847 -1.2053,7.25044 0.58512,1.02434 1.14655,1.1989 2.84516,0.88467 1.16391,-0.21532 11.4917,-0.64752 22.95066,-0.96044 z m 50.19625,-14.9338 c 0.40597,-0.2534 0.95011,-2.01308 1.20921,-3.91032 0.25903,-1.89725 1.19923,-5.35068 2.08923,-7.6743 2.75888,-7.2027 7.09334,-21.8752 6.87875,-23.28501 -0.16656,-1.09495 -1.06371,-1.54172 -4.89027,-2.43562 -8.91107,-2.08165 -17.71438,-2.49633 -46.8617,-2.20742 -15.46439,0.1533 -28.63276,0.49117 -29.2631,0.75077 -2.76314,1.13815 -2.74447,7.1118 0.0393,13.35946 1.11266,2.49493 2.22717,5.88175 2.47679,7.52627 0.24948,1.64452 1.05939,4.68344 1.79963,6.75317 0.74028,2.06972 1.43231,5.1257 1.53784,6.79106 0.10543,1.66535 0.35098,3.17674 0.54496,3.35862 0.19398,0.18182 12.64765,0.30445 27.67447,0.27237 15.02682,-0.0319 28.37585,0.19161 29.66457,0.4971 2.97923,0.7062 6.14742,0.7972 7.09793,0.20384 z"
       id="path249" /><path
       style="fill:#ffffff;fill-rule:evenodd;stroke-width:0.647979"
       d="m 279.35946,252.6274 c -1.30061,-1.24445 -0.98824,-3.58605 0.63899,-4.78947 1.9046,-1.40861 4.77118,-4.19455 8.67188,-8.42796 2.93852,-3.18919 10.40663,-7.86952 24.54311,-15.38143 5.04649,-2.68162 8.82365,-2.70991 8.82365,-0.0659 0,2.03475 -1.16821,3.45581 -4.17397,5.07728 -8.77891,4.73582 -19.58948,11.18431 -22.27518,13.28711 -1.69372,1.32612 -3.96759,3.62044 -5.05306,5.0985 -3.35227,4.5647 -9.06318,7.2231 -11.17541,5.20208 z"
       id="path251" /><path
       style="fill:#ffffff;fill-rule:evenodd;stroke-width:0.647979"
       d="m 231.95343,423.89452 c -1.86422,-0.67196 -4.27423,-2.08699 -5.35566,-3.14444 -1.74204,-1.70353 -1.9661,-2.36475 -1.9661,-5.80141 0,-3.7532 0.73213,-6.51799 4.18273,-15.79533 0.89808,-2.41467 1.68003,-4.7815 1.73762,-5.25959 0.0608,-0.50562 -2.35681,-2.05331 -5.77877,-3.69933 -8.13693,-3.91402 -10.8193,-6.33482 -13.00664,-11.73831 -2.58703,-6.39087 -2.77363,-11.64049 -0.57394,-16.14596 0.94794,-1.94156 1.72352,-3.74391 1.72352,-4.00521 0,-0.26133 1.098,-2.58524 2.44003,-5.16427 1.64067,-3.153 3.83128,-6.0055 6.68694,-8.70733 2.33583,-2.20999 4.72565,-4.77745 5.3108,-5.70545 2.1005,-3.33136 19.89921,-10.6293 28.74194,-11.78496 1.4728,-0.1925 6.98001,0.24784 12.23817,0.97846 16.77783,2.3313 22.14891,4.80956 31.34936,14.46493 7.70606,8.0871 10.61236,14.69198 10.62789,24.1532 0.017,8.86711 -2.33443,14.18677 -8.61621,19.51253 -6.79027,5.75689 -13.24541,8.57765 -21.49889,9.39456 -4.86364,0.48139 -9.51685,2.77837 -10.10946,4.99037 -0.28704,1.07198 0.24955,2.80474 1.73582,5.60513 1.75147,3.29978 2.08453,4.55218 1.79116,6.73579 -0.67241,5.00568 -1.24672,6.63929 -3.04259,8.65469 -2.54009,2.85051 -7.90601,3.70554 -23.17814,3.69335 -10.32051,-0.008 -12.53668,-0.18502 -15.43961,-1.23142 z m 18.43562,-7.22073 c -0.35885,-0.88484 -0.65293,-2.57825 -0.65293,-3.76313 0,-1.49683 -0.30668,-2.15433 -1.00422,-2.15433 -0.78099,0 -1.00416,0.83625 -1.00416,3.76313 0,3.58584 0.078,3.76314 1.65704,3.76314 1.50218,0 1.59605,-0.15049 1.00423,-1.60881 z m -12.03363,-1.25141 c 0,-2.19605 -0.0393,-2.22979 -2.50488,-2.03836 -3.18961,0.24792 -3.72368,1.9078 -1.05059,3.26541 2.9105,1.47817 3.55547,1.25556 3.55547,-1.22705 z m 24.43434,1.49202 c 1.58146,-0.67508 1.71827,-1.02385 1.53778,-3.91992 -0.18279,-2.93281 -0.3381,-3.19406 -2.00603,-3.3744 -3.40795,-0.36847 -4.55194,0.7896 -4.55194,4.60786 0,3.2203 0.0992,3.42746 1.64213,3.42746 0.90318,0 2.42329,-0.3335 3.37806,-0.741 z M 244.3805,403.77548 c 1.65694,-0.32972 5.77355,-0.8151 9.14814,-1.07862 3.37453,-0.26355 6.61303,-0.85039 7.19661,-1.30414 0.6241,-0.48524 1.06108,-1.79592 1.06108,-3.18254 0,-4.63815 7.02537,-9.00766 16.21915,-10.08769 6.90089,-0.81066 12.91908,-3.50146 17.41148,-7.78482 4.96541,-4.73438 5.86888,-6.7862 5.85732,-13.30277 -0.017,-9.20026 -2.76235,-14.68822 -11.00961,-22.00204 -7.16689,-6.35579 -10.1897,-7.75971 -19.20657,-8.92039 -3.07439,-0.39574 -6.85291,-0.9791 -8.39669,-1.29635 -4.55671,-0.9364 -9.93003,-0.66552 -14.07172,0.70939 -7.69452,2.55434 -15.14098,6.48624 -19.48569,10.28891 -3.88572,3.40089 -8.13243,9.01218 -8.14807,10.76629 -0.004,0.43546 1.9702,0.81213 5.18202,0.98882 5.58038,0.30698 9.37953,1.58667 12.38484,4.17164 1.55023,1.3334 1.84101,2.09251 1.84101,4.80636 0,2.54324 -0.32187,3.50598 -1.52534,4.56538 -2.63401,2.31831 -6.78225,3.26647 -14.29101,3.26647 -3.81978,0 -6.94508,0.15234 -6.94508,0.33854 0,1.48815 3.19466,5.57624 5.51871,7.06215 3.39219,2.16884 5.33055,2.68465 11.55238,3.07415 7.47696,0.46814 8.24417,1.81166 5.30138,9.28428 -1.99554,5.06722 -3.61008,9.78734 -3.62051,10.58476 -0.006,0.53074 1.47661,0.35551 8.02617,-0.94781 z"
       id="path253" /><path
       style="fill:#ffffff;fill-rule:evenodd;stroke-width:0.647979"
       d="m 251.98351,376.89342 c -4.03492,-1.52549 -4.69969,-6.36888 -1.49601,-10.90015 3.91842,-5.54226 7.90534,-7.28661 16.65443,-7.28661 5.98516,0 8.79461,0.68323 12.3849,3.01169 2.32972,1.51095 2.705,2.08867 2.88717,4.44416 0.44575,5.76523 -2.8159,9.0989 -10.19721,10.42202 -5.60086,1.00396 -17.89823,1.1917 -20.23328,0.30889 z"
       id="path255" /><path
       style="fill:#ffffff;fill-rule:evenodd;stroke-width:0.647979"
       d="m 222.60928,434.34253 c -5.07683,-1.49039 -11.83168,-6.33908 -13.75709,-9.87494 -0.83013,-1.52445 -1.2916,-3.65342 -1.2916,-5.95868 0,-3.81376 0.33684,-5.07732 3.53608,-13.26504 l 2.03139,-5.19886 -2.23338,-2.15879 c -1.22836,-1.18734 -3.18059,-2.45166 -4.33827,-2.80961 -2.14733,-0.66397 -5.25765,-3.45523 -6.98873,-6.27189 -3.36003,-5.46711 -3.47227,-5.98616 -3.16163,-14.62106 0.31431,-8.73801 0.8748,-12.76344 1.85616,-13.33166 0.3275,-0.18961 0.5955,-0.78202 0.5955,-1.3164 0,-1.14178 -5.21599,4.14152 -8.69065,8.80279 -1.3196,1.77026 -4.62208,6.8877 -7.33884,11.3721 -2.71676,4.4844 -6.74088,10.9758 -8.94249,14.42534 -2.20161,3.44953 -5.01243,7.86768 -6.24626,9.8181 -2.45266,3.8771 -5.70273,6.8024 -7.55765,6.8024 -1.44699,0 -3.39966,-1.91618 -3.39966,-3.33615 0,-0.5732 2.1966,-4.22004 4.88133,-8.10406 4.49787,-6.5071 6.60243,-9.85895 11.52243,-18.35126 0.99924,-1.72476 2.50186,-4.12376 3.33914,-5.3311 0.83729,-1.20734 2.73939,-4.1708 4.22689,-6.58548 1.4875,-2.41467 4.18048,-5.94261 5.98441,-7.83986 3.08381,-3.24336 8.28148,-9.99228 9.94489,-12.91296 0.41034,-0.7205 1.89476,-3.2606 3.29873,-5.6447 1.40396,-2.3841 3.39512,-5.82719 4.42481,-7.6513 1.02969,-1.82412 2.33411,-3.74937 2.89872,-4.27832 0.5646,-0.52897 1.02655,-1.33421 1.02655,-1.78945 0,-0.45524 1.20502,-2.19387 2.67782,-3.86363 1.47279,-1.66977 2.67781,-3.21859 2.67781,-3.44184 0,-0.50406 3.82702,-6.46698 5.85771,-9.12703 0.82844,-1.0852 1.50627,-2.17586 1.50627,-2.42367 0,-0.24784 2.30112,-4.86112 5.11366,-10.25179 2.81248,-5.39067 6.00041,-12.19602 7.08419,-15.12301 1.08384,-2.92698 2.51716,-6.45491 3.18518,-7.83985 0.66804,-1.38494 1.70089,-3.6181 2.29524,-4.96256 1.22524,-2.77161 2.76695,-4.09197 4.812,-4.12105 1.48575,-0.0208 3.61838,1.76325 3.61838,3.02749 0,0.67352 -1.8922,5.20069 -4.36238,10.43712 -0.48836,1.03486 -1.69685,4.13945 -2.68588,6.89907 -0.98907,2.75963 -3.25801,7.69875 -5.04211,10.9758 -1.78415,3.27707 -4.57141,8.49841 -6.19397,11.603 -1.62256,3.10458 -3.88662,7.05587 -5.03123,8.78063 -5.46864,8.24022 -5.60741,9.53678 -0.62514,5.83987 6.26713,-4.6503 8.11577,-5.64788 19.15892,-10.33889 4.40151,-1.86974 10.98381,-2.30547 23.14954,-1.53245 13.84934,0.88 18.42764,1.53032 24.69585,3.50784 2.62515,0.82819 4.89717,1.38945 5.04901,1.24723 0.15197,-0.14219 -0.84156,-1.88886 -2.20743,-3.88141 -1.36587,-1.99255 -4.16204,-6.16294 -6.2137,-9.26752 -2.05167,-3.10458 -4.59148,-6.81978 -5.64404,-8.25599 -1.05248,-1.4362 -1.91367,-2.79231 -1.91367,-3.01356 0,-0.22124 -1.20769,-2.06838 -2.68375,-4.10474 -1.47604,-2.03636 -3.00008,-4.4821 -3.3868,-5.43501 -0.38692,-0.95289 -1.7397,-3.77902 -3.00665,-6.28029 -2.45577,-4.8483 -2.81014,-6.89057 -1.46669,-8.45265 2.41696,-2.81038 5.03359,-1.44422 7.76096,4.05208 5.1459,10.37017 5.94854,11.76388 10.9112,18.94638 0.95337,1.37982 3.47787,5.18999 5.61011,8.46705 2.13218,3.27706 5.53755,8.30638 7.56757,11.17626 3.45965,4.89114 6.04656,9.04653 8.52616,13.6958 0.58075,1.08883 2.64471,3.62894 4.58665,5.6447 1.94194,2.01576 4.87873,6.06402 6.52624,8.99613 1.64745,2.9321 5.00835,8.23688 7.46861,11.78839 2.46025,3.55151 4.47317,6.5774 4.47317,6.72421 0,0.14686 1.35566,2.41514 3.01254,5.04073 1.65693,2.62559 3.01254,4.91601 3.01254,5.08981 0,0.17383 2.15993,3.32564 4.79983,7.00405 2.6399,3.67842 5.60949,7.81698 6.59913,9.1968 0.98964,1.37981 2.81305,4.28912 4.05208,6.46512 2.1268,3.73512 2.19621,4.05079 1.24129,5.64469 -0.74271,1.23963 -1.53846,1.68834 -2.99421,1.68834 -2.17216,0 -1.73178,0.53252 -10.60109,-12.81727 -2.53089,-3.80946 -5.14959,-7.51814 -5.81924,-8.24154 -0.66967,-0.72339 -2.79314,-3.97976 -4.71882,-7.23636 -2.03147,-3.43557 -3.74997,-5.68802 -4.09385,-5.36588 -0.3258,0.30535 -1.0419,2.92379 -1.59105,5.81873 -3.43116,18.08827 -5.62972,22.75744 -14.56379,30.92931 -6.84712,6.26299 -12.58311,10.04121 -16.21276,10.67915 l -2.42879,0.42686 0.44746,2.79551 c 1.01268,6.3269 -4.1076,14.32475 -11.23244,17.54488 l -3.38513,1.52994 -26.1507,-0.0422 c -19.05031,-0.0304 -26.88169,-0.25652 -28.84264,-0.8322 z m 54.38682,-7.88807 c 2.72047,-1.554 6.21269,-6.0191 6.21269,-7.94338 0,-0.80567 -0.33365,-2.66842 -0.7408,-4.13942 -1.33133,-4.8065 0.0762,-6.37312 7.77005,-8.64641 3.76292,-1.11186 7.54486,-3.68069 13.64799,-9.27029 7.29541,-6.68151 9.77231,-12.17231 12.50467,-27.72028 1.29377,-7.36211 1.19211,-10.68168 -0.43508,-14.21653 -0.76755,-1.66713 -1.83692,-4.30121 -2.37643,-5.8535 -1.84527,-5.30931 -4.58436,-9.47931 -8.60683,-13.10314 -7.65723,-6.8984 -13.39607,-10.22564 -20.42448,-11.84168 -1.65687,-0.38092 -3.76567,-0.8909 -4.68618,-1.13317 -4.98015,-1.31082 -29.94694,-2.56356 -31.0218,-1.55656 -0.39078,0.36595 -1.13991,0.66545 -1.66511,0.66545 -0.52541,0 -2.73331,0.8467 -4.90699,1.88157 -2.17373,1.03485 -4.3021,1.88156 -4.72975,1.88156 -0.42782,0 -3.80773,1.39657 -7.51134,3.1035 -5.87683,2.70854 -7.02408,3.50683 -9.01491,6.27278 -1.25463,1.7431 -3.28919,3.8896 -4.52121,4.76999 -2.84674,2.03423 -10.25454,12.79525 -10.26591,14.91289 -0.001,0.28711 -0.90656,2.4512 -2.01116,4.80903 -2.71992,5.80587 -2.81349,12.4697 -0.27533,19.60994 2.40424,6.76349 5.09871,10.27973 10.31713,13.4637 7.85919,4.7952 7.36398,4.25853 7.36398,7.98092 0,2.45808 -0.639,4.76348 -2.37177,8.55609 -1.99471,4.36616 -2.34057,5.79211 -2.1757,8.97019 0.19324,3.72539 0.24333,3.81248 3.5433,6.1638 1.84102,1.31176 4.25102,2.63719 5.35561,2.9454 1.10458,0.30824 12.55227,0.58483 25.43922,0.61462 22.16249,0.0511 23.54753,-0.0126 25.58636,-1.17706 z"
       id="path257" /><path
       style="fill:#ffffff;fill-rule:evenodd;stroke-width:0.647979"
       d="m 208.37299,235.92749 c -4.79511,-2.41506 -11.90895,-10.1064 -14.50374,-15.68117 -1.19774,-2.57328 -1.19884,-2.711 -0.0311,-3.91992 1.86129,-1.92686 3.98026,-1.56245 6.30968,1.08512 1.1314,1.28593 2.0571,2.7322 2.0571,3.21393 0,0.48169 2.86191,3.47978 6.3598,6.66234 3.49789,3.18258 6.35981,6.23191 6.35981,6.7763 0,1.30452 -1.81153,2.96098 -3.23817,2.96098 -0.62381,0 -2.11484,-0.49392 -3.31343,-1.09758 z"
       id="path259" /><path
       style="fill:#ffffff;fill-rule:evenodd;stroke-width:0.647979"
       d="m 249.2488,265.74361 c -2.26019,-1.02198 -2.65342,-3.01735 -0.86241,-4.37605 1.22204,-0.92712 2.7259,-1.13652 8.16247,-1.13652 3.66542,0 7.24708,0.29216 7.95928,0.6493 1.75657,0.88075 1.65042,3.43662 -0.19287,4.64628 -1.761,1.15558 -12.644,1.31235 -15.0664,0.21703 z"
       id="path261" /><path
       style="fill:#ffffff;fill-rule:evenodd;stroke-width:0.647979"
       d="m 268.14609,470.2205 c -2.20917,-0.31009 -5.97485,-0.83332 -8.36814,-1.16271 -2.39331,-0.32935 -7.28488,-1.035 -10.87011,-1.56803 -8.99614,-1.33748 -31.66,-2.16155 -61.43084,-2.23367 -27.39947,-0.0667 -29.45594,-0.29505 -29.45594,-3.27579 0,-2.87707 1.42466,-2.99003 33.8273,-2.68198 31.3838,0.29838 52.94975,1.09618 59.2267,2.19109 13.51814,2.35804 25.35058,3.31079 37.4894,3.01864 6.81162,-0.16397 13.43924,-0.61995 14.72796,-1.01335 5.50458,-1.68042 52.5296,-2.83062 55.46914,-1.35675 1.88323,0.94425 2.48347,3.09693 1.19901,4.30027 -0.8585,0.80429 -3.20352,0.9955 -13.29049,1.08372 -16.97672,0.14849 -37.98634,1.31278 -44.38188,2.45953 -5.97518,1.07139 -27.15593,1.21968 -34.14211,0.23903 z"
       id="path263" /><path
       style="fill:#ffffff;fill-rule:evenodd;stroke-width:0.229094"
       d="m 270.40151,23.222963 c -1.15757,-0.36202 -1.50128,-0.82839 -1.51945,-2.0615 -0.0282,-1.95688 1.77059,-2.92334 4.05422,-2.17753 1.0632,0.34721 1.70481,1.7174 1.30913,2.79566 -0.36729,1.00098 -0.76239,1.32776 -1.8885,1.56195 -0.67634,0.14063 -1.23484,0.10677 -1.9554,-0.11855 z"
       id="path265" /><path
       style="fill:#ffffff;fill-rule:evenodd;stroke-width:0.229094"
       d="m 274.81211,38.318563 c -1.435,-0.22206 -2.21494,-1.95912 -1.54956,-3.45112 0.29379,-0.65893 0.54163,-0.85372 1.34479,-1.05628 1.06399,-0.26844 2.1767,-0.13774 3.00413,0.35277 1.12303,0.66582 1.12303,3.05834 0,3.73568 -0.60239,0.36336 -1.90196,0.55786 -2.79936,0.41893 z"
       id="path267" /><path
       style="fill:#ffffff;fill-rule:evenodd;stroke-width:0.229094"
       d="m 261.82434,39.664053 c -1.08103,-0.36381 -1.44868,-0.6793 -1.69724,-1.45646 -0.35099,-1.09738 0.0393,-2.42828 0.83006,-2.82431 0.74674,-0.3744 2.62695,-0.38314 3.35989,-0.0156 1.23467,0.61906 1.32018,3.23599 0.12841,3.92803 -0.55171,0.32054 -2.11182,0.53978 -2.621,0.3684 z"
       id="path269" /><path
       style="fill:#ffffff;fill-rule:evenodd;stroke-width:0.229094"
       d="m 245.84792,30.300413 c -1.21364,-0.7122 -1.64998,-1.32492 -1.62324,-2.27948 0.0282,-1.06008 0.50466,-1.59701 1.71368,-1.93632 1.43938,-0.40404 2.0733,-0.31194 2.97828,0.43241 0.93587,0.76984 1.05675,1.42497 0.4951,2.68397 -0.43738,0.97997 -0.74545,1.20233 -1.90717,1.3752 -0.71013,0.10566 -1.12421,0.037 -1.65683,-0.27578 z"
       id="path271" /><path
       style="fill:#ffffff;fill-rule:evenodd;stroke-width:0.229094"
       d="m 233.5141,44.762363 c -1.45026,-0.48192 -2.1041,-1.24273 -2.1041,-2.44845 0,-0.85952 0.11603,-1.09689 0.84336,-1.72113 1.55314,-1.33347 3.68028,-1.16539 4.83728,0.38225 0.36729,0.49103 0.48673,2.51475 0.17383,2.94132 -0.2002,0.27267 -2.22537,1.21299 -2.5563,1.1868 -0.12166,-0.01 -0.65885,-0.16294 -1.19396,-0.34076 z"
       id="path273" /></g></svg>
