<?xml version="1.0" encoding="UTF-8" standalone="no"?>
<svg
   height="512"
   width="512"
   version="1.1"
   id="svg33"
   sodipodi:docname="poison_default.svg"
   inkscape:version="1.2.1 (9c6d41e410, 2022-07-14)"
   inkscape:export-filename="poison_default.png"
   inkscape:export-xdpi="96"
   inkscape:export-ydpi="96"
   xmlns:inkscape="http://www.inkscape.org/namespaces/inkscape"
   xmlns:sodipodi="http://sodipodi.sourceforge.net/DTD/sodipodi-0.dtd"
   xmlns:xlink="http://www.w3.org/1999/xlink"
   xmlns="http://www.w3.org/2000/svg"
   xmlns:svg="http://www.w3.org/2000/svg">
  <sodipodi:namedview
     id="namedview35"
     pagecolor="#ffffff"
     bordercolor="#000000"
     borderopacity="0.25"
     inkscape:showpageshadow="2"
     inkscape:pageopacity="0.0"
     inkscape:pagecheckerboard="true"
     inkscape:deskcolor="#d1d1d1"
     showgrid="false"
     inkscape:zoom="1.4183568"
     inkscape:cx="90.245277"
     inkscape:cy="223.14555"
     inkscape:window-width="2560"
     inkscape:window-height="1351"
     inkscape:window-x="2391"
     inkscape:window-y="-9"
     inkscape:window-maximized="1"
     inkscape:current-layer="svg33" />
  <g
     id="g6"
     transform="matrix(3.998001,0,0,3.998001,0.12793603,0.12793603)">
    <use
       height="100"
       transform="scale(1.28)"
       width="100"
       xlink:href="#shape0"
       id="use2" />
    <use
       height="838.40002"
       transform="matrix(0.1408,0,0,0.1408,22.3733,5.0307)"
       width="591.20001"
       xlink:href="#sprite0"
       id="use4" />
  </g>
  <defs
     id="defs31">
    <g
       id="shape0">
      <path
         d="M 100,100 H 0 V 0 h 100 v 100"
         fill="#00cc66"
         fill-opacity="0"
         fill-rule="evenodd"
         stroke="none"
         id="path8" />
      <path
         d="M 84.3,84.3 V 15.7 H 15.7 v 68.6 h 68.6 m 7.95,7.95 H 7.75 V 7.75 h 84.5 v 84.5"
         fill="#666666"
         fill-opacity="0"
         fill-rule="evenodd"
         stroke="none"
         id="path10" />
      <path
         d="M 84.3,84.3 H 15.7 V 15.7 H 84.3 V 84.3 M 76.4,76.4 V 23.55 H 23.55 V 76.4 H 76.4"
         fill="#999999"
         fill-opacity="0"
         fill-rule="evenodd"
         stroke="none"
         id="path12" />
      <path
         d="M 92.25,92.25 V 7.75 H 7.75 v 84.5 h 84.5 m 3.8,3.8 H 3.95 V 3.95 h 92.1 v 92.1"
         fill="#333333"
         fill-opacity="0"
         fill-rule="evenodd"
         stroke="none"
         id="path14" />
      <path
         d="M 68.85,68.85 V 31.1 H 31.1 V 68.85 H 68.85 M 76.4,76.4 H 23.55 V 23.55 H 76.4 V 76.4"
         fill="#cccccc"
         fill-opacity="0"
         fill-rule="evenodd"
         stroke="none"
         id="path16" />
      <path
         d="M 68.85,68.85 H 31.1 V 31.1 h 37.75 v 37.75"
         fill="#ffffff"
         fill-opacity="0"
         fill-rule="evenodd"
         stroke="none"
         id="path18" />
      <path
         d="M 96.05,96.05 V 3.95 H 3.95 v 92.1 h 92.1 M 100,100 H 0 V 0 h 100 v 100"
         fill="#000000"
         fill-opacity="0"
         fill-rule="evenodd"
         stroke="none"
         id="path20" />
      <path
         d="M 0,50 H 50 L 0,0 M 50,50 V 0 m 0,100 V 50 L 0,100 M 100,50 H 50 l 50,50 M 50,50 100,0"
         fill="none"
         stroke="#000000"
         stroke-linecap="round"
         stroke-linejoin="round"
         stroke-opacity="0"
         stroke-width="0.05"
         id="path22" />
    </g>
    <g
       id="sprite0"
       transform="translate(-54.85,-26.85)">
      <use
         height="838.40002"
         transform="translate(54.85,26.85)"
         width="591.20001"
         xlink:href="#shape1"
         id="use25" />
    </g>
    <g
       id="shape1"
       transform="translate(-54.85,-26.85)">
      <path
         d="m 515.6,146.35 q 0,15.55 -12.65,26.5 -9.9,10.2 -21.3,13.05 -1.8,8.4 -8.25,14.15 -1.8,2.8 -4.45,4.1 -5.75,4.45 -14.15,4.45 h -2.85 v 65 h 2.85 q 11.25,0 18.6,7.15 8.25,8.55 8.25,18.6 0,13.9 -8.25,20.9 -7.35,8.8 -18.6,8.8 h -2.85 v 41.1 q 52.2,38.35 90.7,71.05 100.55,85 103.4,125.95 v 156.2 q 0,141.9 -135.95,141.9 H 189.45 q -99.8,0 -125.6,-78 -8.95,-27.2 -8.95,-63.9 v -156.2 q -0.55,-12.35 8.95,-28.95 21.3,-37.2 91.95,-97 36.55,-32.7 89.1,-71.05 v -41.1 h -1.25 q -11.95,0 -20.2,-8.8 -6.95,-7 -6.95,-20.9 0,-10.05 6.95,-18.6 8.25,-7.15 20.2,-7.15 h 1.25 v -65 h -1.25 q -11.95,0 -20.2,-8.55 -5.55,-5.75 -6.95,-14.15 -14.15,-1.25 -25.4,-13.05 -11.65,-10.95 -11.65,-26.5 0,-15.95 11.65,-28.45 12.35,-11.8 28.45,-11.8 h 37.9 V 80.9 q 0,-54.05 46.7,-54.05 h 88 q 46.7,0 46.7,54.05 v 25.2 h 37.25 q 15.55,0 26.85,11.8 12.65,12.5 12.65,28.45 m -69.4,492.2 q 10,11.5 10,26.1 0,33.3 -16.8,43.85 -8.4,6.3 -21.6,6.3 -13.45,0 -22.25,-6.3 -15.15,-9.45 -15.15,-38.8 0,-41.9 38.95,-41.9 18.65,0 26.85,10.75 M 192.15,596 q 0,51.7 14.5,75.3 15,25.95 18.4,37.2 -3.4,46.5 26.15,53.5 27.5,7.85 43.45,21.3 l 4.85,28.3 h 101.45 l 5,-28.3 Q 420.3,769 447.8,762 q 29.7,-15.7 27.9,-52.25 v -1.25 q 0.95,-5.9 3.45,-11.25 29.3,-52.65 29.3,-101.25 0,-58.9 -44.7,-97.55 Q 419.35,462 350.3,462 282.7,462 234.7,498.45 192.15,535.5 192.15,596 m 92.15,31.8 q 37.7,0 37.7,36.85 0,33.3 -15.9,43.85 -8.75,6.3 -21.8,6.3 -13.3,0 -22.2,-6.3 -15.05,-9.45 -15.05,-38.8 0,-19.65 8.65,-31.15 9.65,-10.75 28.6,-10.75 m 67.8,83.4 q 47.4,68.9 2.65,42.05 -6.05,-4.3 -9.8,0 -45.45,26.85 2.5,-42.05 2.85,-3.05 4.65,0"
         fill="#ffffff"
         fill-rule="evenodd"
         stroke="none"
         id="path28" />
    </g>
  </defs>
</svg>
