<?xml version="1.0" encoding="UTF-8" standalone="no"?>
<svg
   height="512"
   width="512"
   version="1.1"
   id="svg33"
   sodipodi:docname="potion_frost_resist.svg"
   inkscape:version="1.2.1 (9c6d41e410, 2022-07-14)"
   inkscape:export-filename="potion_frost_resist.png"
   inkscape:export-xdpi="96"
   inkscape:export-ydpi="96"
   xmlns:inkscape="http://www.inkscape.org/namespaces/inkscape"
   xmlns:sodipodi="http://sodipodi.sourceforge.net/DTD/sodipodi-0.dtd"
   xmlns:xlink="http://www.w3.org/1999/xlink"
   xmlns="http://www.w3.org/2000/svg"
   xmlns:svg="http://www.w3.org/2000/svg">
  <sodipodi:namedview
     id="namedview35"
     pagecolor="#ffffff"
     bordercolor="#000000"
     borderopacity="0.25"
     inkscape:showpageshadow="2"
     inkscape:pageopacity="0.0"
     inkscape:pagecheckerboard="true"
     inkscape:deskcolor="#d1d1d1"
     showgrid="false"
     inkscape:zoom="1.4183568"
     inkscape:cx="210.80733"
     inkscape:cy="266.15306"
     inkscape:window-width="2560"
     inkscape:window-height="1351"
     inkscape:window-x="2391"
     inkscape:window-y="-9"
     inkscape:window-maximized="1"
     inkscape:current-layer="svg33" />
  <g
     id="g6"
     transform="matrix(3.998001,0,0,3.998001,0.12793603,0.12793603)">
    <use
       height="100"
       transform="scale(1.28)"
       width="100"
       xlink:href="#shape0"
       id="use2" />
    <use
       height="118.1"
       transform="translate(29.8,4.95)"
       width="68.199997"
       xlink:href="#sprite0"
       id="use4" />
  </g>
  <defs
     id="defs31">
    <g
       id="shape0">
      <path
         d="M 100,100 H 0 V 0 h 100 v 100"
         fill="#00cc66"
         fill-opacity="0"
         fill-rule="evenodd"
         stroke="none"
         id="path8" />
      <path
         d="M 84.3,84.3 V 15.7 H 15.7 v 68.6 h 68.6 m 7.95,7.95 H 7.75 V 7.75 h 84.5 v 84.5"
         fill="#666666"
         fill-opacity="0"
         fill-rule="evenodd"
         stroke="none"
         id="path10" />
      <path
         d="M 84.3,84.3 H 15.7 V 15.7 H 84.3 V 84.3 M 76.4,76.4 V 23.55 H 23.55 V 76.4 H 76.4"
         fill="#999999"
         fill-opacity="0"
         fill-rule="evenodd"
         stroke="none"
         id="path12" />
      <path
         d="M 92.25,92.25 V 7.75 H 7.75 v 84.5 h 84.5 m 3.8,3.8 H 3.95 V 3.95 h 92.1 v 92.1"
         fill="#333333"
         fill-opacity="0"
         fill-rule="evenodd"
         stroke="none"
         id="path14" />
      <path
         d="M 68.85,68.85 V 31.1 H 31.1 V 68.85 H 68.85 M 76.4,76.4 H 23.55 V 23.55 H 76.4 V 76.4"
         fill="#cccccc"
         fill-opacity="0"
         fill-rule="evenodd"
         stroke="none"
         id="path16" />
      <path
         d="M 68.85,68.85 H 31.1 V 31.1 h 37.75 v 37.75"
         fill="#ffffff"
         fill-opacity="0"
         fill-rule="evenodd"
         stroke="none"
         id="path18" />
      <path
         d="M 96.05,96.05 V 3.95 H 3.95 v 92.1 h 92.1 M 100,100 H 0 V 0 h 100 v 100"
         fill="#000000"
         fill-opacity="0"
         fill-rule="evenodd"
         stroke="none"
         id="path20" />
      <path
         d="M 0,50 H 50 L 0,0 M 50,50 V 0 m 0,100 V 50 L 0,100 M 100,50 H 50 l 50,50 M 50,50 100,0"
         fill="none"
         stroke="#000000"
         stroke-linecap="round"
         stroke-linejoin="round"
         stroke-opacity="0"
         stroke-width="0.05"
         id="path22" />
    </g>
    <g
       id="sprite0"
       transform="translate(3,4.6)">
      <use
         height="118.1"
         transform="translate(-3,-4.6)"
         width="68.199997"
         xlink:href="#shape1"
         id="use25" />
    </g>
    <g
       id="shape1"
       transform="translate(3,4.6)">
      <path
         d="m 26.75,-4.6 h 8.3 q 4.75,0 4.75,4.9 v 2 h 3.4 q 1.5,0 2.7,1.2 1.05,1.95 1.05,3.3 0,1.85 -1.05,3.45 l -2.1,1.35 -0.85,1.6 -0.2,0.6 -1.6,0.15 H 41 v 14.7 Q 66.1,43.45 65.15,61.1 63.7,88.55 54.35,113.5 H 7.7 Q -1.4,89.15 -2.95,61.65 -3.9,44 21.2,29.2 V 13.95 h -0.15 q -1.2,0 -1.8,-0.75 -0.6,-0.6 -0.8,-1.6 -1.55,-0.15 -2.35,-1.35 -1.2,-1.6 -1.2,-3.45 0,-1.35 1.2,-3.3 1.15,-1.2 2.55,-1.2 h 3.75 v -2 q 0,-4.9 4.35,-4.9 m 1.15,53 q -1.4,1.45 -1.4,3.2 0,2.05 1.55,3.85 l 1.5,0.6 v 13.5 l -2.05,-3.6 0.15,-0.35 0.2,-0.35 q 0.3,-1 -0.2,-1.95 -0.9,-1.75 -3.25,-0.75 -0.75,0.35 -0.95,1.35 -0.25,0.95 0.35,1.8 0.55,1.15 1.55,1.15 h 0.8 l 1.9,3.2 -11.9,-6.5 0.05,-0.8 -0.05,-0.7 q -0.5,-2.1 -2.1,-3.1 -1.6,-0.95 -3.35,-0.55 -1.85,0.3 -2.8,2 -1.15,1.75 -0.6,3.65 0.6,1.9 2.25,2.8 2.3,0.85 4.05,0 l 0.8,-0.45 12.1,6.55 H 22.4 L 22,72.25 q -0.4,-0.75 -1.55,-0.75 -2.5,0 -2.5,2.35 0,2.35 2.5,2.35 1.35,0 1.7,-0.7 l 0.2,-0.7 0.05,-0.2 h 4 l -12.1,6.7 -1,-0.45 q -1.9,-0.65 -3.75,0.45 -1.55,1 -2,2.7 -0.5,1.75 0.35,3.4 0.9,1.8 2.8,2.2 1.9,0.45 3.55,-0.4 1.8,-0.95 2.25,-3.6 0.15,-0.95 -0.2,-1.45 l 11.85,-6.6 -2,3.55 q -0.3,-0.25 -0.95,0 -0.85,0.2 -1.4,1.05 -1.25,1.9 0.85,3.15 1.95,1.1 3,-0.75 0.65,-1 0.2,-2.1 l -0.2,-0.4 -0.15,-0.2 2.05,-3.6 V 91.7 q -0.4,0.15 -0.65,0.35 l -0.85,0.35 q -1.55,1.45 -1.55,3.8 0,1.8 1.4,3.25 1.35,1.45 3.15,1.45 2,0 3.5,-1.45 1.4,-1.45 1.4,-3.25 0,-2.25 -1.5,-3.55 Q 33.9,92.1 32.95,91.7 V 78.6 l 2,3.25 -0.5,0.6 q -0.7,1 0.2,2.1 1.25,1.85 3.2,0.75 1.7,-1.25 0.8,-3.15 -0.4,-0.7 -1.55,-1.05 l -0.6,-0.05 -0.2,0.05 -2.1,-3.6 11.55,6.65 -0.05,0.75 0.05,0.7 q 0.25,2.4 2.35,3.6 1.6,1 3.45,0.45 1.95,-0.5 2.95,-2.25 1.1,-1.8 0.55,-3.65 -0.55,-1.9 -2.15,-2.9 -1.7,-1 -3.8,-0.25 l -0.75,0.25 q -0.45,0.1 -0.8,0.45 L 36.1,74.6 H 40 l 0.25,0.9 q 0.55,0.7 1.8,0.7 2.2,0 2.2,-2.35 0,-2.35 -2.2,-2.35 -1.05,0 -1.8,0.75 L 40,72.95 h -4 l 11.3,-6.55 0.8,0.55 0.7,0.35 2,0.25 q 0.95,-0.25 1.9,-0.7 1.8,-0.9 2.25,-2.8 0.4,-1.95 -0.45,-3.7 -1,-1.7 -2.95,-2.05 -1.85,-0.55 -3.45,0.3 -2.1,1.2 -2.35,3.35 -0.1,0.4 -0.05,0.75 l 0.05,0.85 -11.55,6.65 1.95,-3.35 h 0.45 0.5 q 1.2,-0.3 1.55,-1.15 0.45,-0.85 0.2,-1.8 -0.25,-1 -1,-1.35 -2.1,-1.05 -3.2,0.75 -0.7,1 -0.2,1.95 l 0.15,0.35 0.15,0.35 -1.8,3.1 v -13 q 0.55,-0.05 1.5,-0.8 1.5,-1.65 1.5,-3.65 0,-1.75 -1.4,-3.2 -1.5,-1.5 -3.5,-1.5 -1.8,0 -3.15,1.5"
         fill="#ffffff"
         fill-rule="evenodd"
         stroke="none"
         id="path28" />
    </g>
  </defs>
</svg>
