<?xml version="1.0" encoding="UTF-8" standalone="no"?>
<svg
   height="512"
   width="512"
   version="1.1"
   id="svg33"
   sodipodi:docname="potion_default.svg"
   inkscape:version="1.2.1 (9c6d41e410, 2022-07-14)"
   inkscape:export-filename="default_potion.png"
   inkscape:export-xdpi="96"
   inkscape:export-ydpi="96"
   xmlns:inkscape="http://www.inkscape.org/namespaces/inkscape"
   xmlns:sodipodi="http://sodipodi.sourceforge.net/DTD/sodipodi-0.dtd"
   xmlns:xlink="http://www.w3.org/1999/xlink"
   xmlns="http://www.w3.org/2000/svg"
   xmlns:svg="http://www.w3.org/2000/svg">
  <sodipodi:namedview
     id="namedview35"
     pagecolor="#ffffff"
     bordercolor="#000000"
     borderopacity="0.25"
     inkscape:showpageshadow="2"
     inkscape:pageopacity="0.0"
     inkscape:pagecheckerboard="true"
     inkscape:deskcolor="#d1d1d1"
     showgrid="false"
     inkscape:zoom="1.4183568"
     inkscape:cx="135.36791"
     inkscape:cy="229.49092"
     inkscape:window-width="2560"
     inkscape:window-height="1351"
     inkscape:window-x="2391"
     inkscape:window-y="-9"
     inkscape:window-maximized="1"
     inkscape:current-layer="svg33" />
  <defs
     id="defs31">
    <g
       id="shape0">
      <path
         d="M 100,100 H 0 V 0 h 100 v 100"
         fill="#00cc66"
         fill-opacity="0"
         fill-rule="evenodd"
         stroke="none"
         id="path8" />
      <path
         d="M 84.3,84.3 V 15.7 H 15.7 v 68.6 h 68.6 m 7.95,7.95 H 7.75 V 7.75 h 84.5 v 84.5"
         fill="#666666"
         fill-opacity="0"
         fill-rule="evenodd"
         stroke="none"
         id="path10" />
      <path
         d="M 84.3,84.3 H 15.7 V 15.7 H 84.3 V 84.3 M 76.4,76.4 V 23.55 H 23.55 V 76.4 H 76.4"
         fill="#999999"
         fill-opacity="0"
         fill-rule="evenodd"
         stroke="none"
         id="path12" />
      <path
         d="M 92.25,92.25 V 7.75 H 7.75 v 84.5 h 84.5 m 3.8,3.8 H 3.95 V 3.95 h 92.1 v 92.1"
         fill="#333333"
         fill-opacity="0"
         fill-rule="evenodd"
         stroke="none"
         id="path14" />
      <path
         d="M 68.85,68.85 V 31.1 H 31.1 V 68.85 H 68.85 M 76.4,76.4 H 23.55 V 23.55 H 76.4 V 76.4"
         fill="#cccccc"
         fill-opacity="0"
         fill-rule="evenodd"
         stroke="none"
         id="path16" />
      <path
         d="M 68.85,68.85 H 31.1 V 31.1 h 37.75 v 37.75"
         fill="#ffffff"
         fill-opacity="0"
         fill-rule="evenodd"
         stroke="none"
         id="path18" />
      <path
         d="M 96.05,96.05 V 3.95 H 3.95 v 92.1 h 92.1 M 100,100 H 0 V 0 h 100 v 100"
         fill="#000000"
         fill-opacity="0"
         fill-rule="evenodd"
         stroke="none"
         id="path20" />
      <path
         d="M 0,50 H 50 L 0,0 M 50,50 V 0 m 0,100 V 50 L 0,100 M 100,50 H 50 l 50,50 M 50,50 100,0"
         fill="none"
         stroke="#000000"
         stroke-linecap="round"
         stroke-linejoin="round"
         stroke-opacity="0"
         stroke-width="0.05"
         id="path22" />
    </g>
    <g
       id="sprite0"
       transform="translate(-65.35,-33.3)">
      <use
         height="787.70001"
         transform="translate(65.35,33.3)"
         width="534.75"
         xlink:href="#shape1"
         id="use25" />
    </g>
    <g
       id="shape1"
       transform="translate(-65.35,-33.3)">
      <path
         d="m 422,84.85 q 10.65,0 19.3,9.65 9.45,10.85 9.45,24.25 0,13.2 -9.45,22.8 -7.5,8.5 -14.6,10.8 -1.4,7.35 -7.25,12.05 0,2.55 -2.15,3.75 -3.7,3.5 -10.05,3.5 h -2.4 V 323.4 l 18.35,5 q 54.15,19.5 98.8,63.7 78.1,78.3 78.1,189.4 0,110.8 -78.1,188.6 -31.55,31.6 -68.95,50.9 H 212.15 Q 174.75,801.7 143.5,770.1 65.35,692.3 65.35,581.5 q 0,-111.1 78.15,-189.4 45.6,-45.85 104.65,-64.9 3.8,-1.45 8.75,-2.65 v -152.9 h -1.45 q -8.2,0 -14.1,-7.25 -3.8,-4.7 -4.95,-12.05 -10.6,-1.15 -18.15,-10.8 -8.4,-9.6 -8.4,-22.8 0,-13.4 8.4,-24.25 8.45,-9.65 20.25,-9.65 h 26.85 V 67.95 Q 265.35,33.3 299,33.3 h 62.8 q 33.4,0 33.4,34.65 v 16.9 H 422"
         fill="#ffffff"
         fill-rule="evenodd"
         stroke="none"
         id="path28" />
    </g>
  </defs>
  <g
     inkscape:groupmode="layer"
     id="layer1"
     inkscape:label="Layer 1">
    <path
       d="m 422,84.85 q 10.65,0 19.3,9.65 9.45,10.85 9.45,24.25 0,13.2 -9.45,22.8 -7.5,8.5 -14.6,10.8 -1.4,7.35 -7.25,12.05 0,2.55 -2.15,3.75 -3.7,3.5 -10.05,3.5 h -2.4 V 323.4 l 18.35,5 q 54.15,19.5 98.8,63.7 78.1,78.3 78.1,189.4 0,110.8 -78.1,188.6 -31.55,31.6 -68.95,50.9 H 212.15 Q 174.75,801.7 143.5,770.1 65.35,692.3 65.35,581.5 q 0,-111.1 78.15,-189.4 45.6,-45.85 104.65,-64.9 3.8,-1.45 8.75,-2.65 v -152.9 h -1.45 q -8.2,0 -14.1,-7.25 -3.8,-4.7 -4.95,-12.05 -10.6,-1.15 -18.15,-10.8 -8.4,-9.6 -8.4,-22.8 0,-13.4 8.4,-24.25 8.45,-9.65 20.25,-9.65 h 26.85 V 67.95 Q 265.35,33.3 299,33.3 h 62.8 q 33.4,0 33.4,34.65 v 16.9 H 422"
       fill="#ffffff"
       fill-rule="evenodd"
       stroke="none"
       id="path149"
       transform="matrix(0.59930035,0,0,0.59890055,56.892094,0.13337331)" />
  </g>
</svg>
