<?xml version="1.0" encoding="UTF-8" standalone="no"?>
<svg
   height="512"
   width="512"
   version="1.1"
   id="svg33"
   sodipodi:docname="potion_stamina.svg"
   inkscape:version="1.2.1 (9c6d41e410, 2022-07-14)"
   inkscape:export-filename="potion_stamina.png"
   inkscape:export-xdpi="96"
   inkscape:export-ydpi="96"
   xmlns:inkscape="http://www.inkscape.org/namespaces/inkscape"
   xmlns:sodipodi="http://sodipodi.sourceforge.net/DTD/sodipodi-0.dtd"
   xmlns:xlink="http://www.w3.org/1999/xlink"
   xmlns="http://www.w3.org/2000/svg"
   xmlns:svg="http://www.w3.org/2000/svg">
  <sodipodi:namedview
     id="namedview35"
     pagecolor="#ffffff"
     bordercolor="#000000"
     borderopacity="0.25"
     inkscape:showpageshadow="2"
     inkscape:pageopacity="0.0"
     inkscape:pagecheckerboard="true"
     inkscape:deskcolor="#d1d1d1"
     showgrid="false"
     inkscape:zoom="1.0029297"
     inkscape:cx="264.2259"
     inkscape:cy="276.68938"
     inkscape:window-width="2560"
     inkscape:window-height="1351"
     inkscape:window-x="2391"
     inkscape:window-y="-9"
     inkscape:window-maximized="1"
     inkscape:current-layer="svg33" />
  <defs
     id="defs31">
    <g
       id="shape0">
      <path
         d="M 100,100 H 0 V 0 h 100 v 100"
         fill="#00cc66"
         fill-opacity="0"
         fill-rule="evenodd"
         stroke="none"
         id="path8" />
      <path
         d="M 84.3,84.3 V 15.7 H 15.7 v 68.6 h 68.6 m 7.95,7.95 H 7.75 V 7.75 h 84.5 v 84.5"
         fill="#666666"
         fill-opacity="0"
         fill-rule="evenodd"
         stroke="none"
         id="path10" />
      <path
         d="M 84.3,84.3 H 15.7 V 15.7 H 84.3 V 84.3 M 76.4,76.4 V 23.55 H 23.55 V 76.4 H 76.4"
         fill="#999999"
         fill-opacity="0"
         fill-rule="evenodd"
         stroke="none"
         id="path12" />
      <path
         d="M 92.25,92.25 V 7.75 H 7.75 v 84.5 h 84.5 m 3.8,3.8 H 3.95 V 3.95 h 92.1 v 92.1"
         fill="#333333"
         fill-opacity="0"
         fill-rule="evenodd"
         stroke="none"
         id="path14" />
      <path
         d="M 68.85,68.85 V 31.1 H 31.1 V 68.85 H 68.85 M 76.4,76.4 H 23.55 V 23.55 H 76.4 V 76.4"
         fill="#cccccc"
         fill-opacity="0"
         fill-rule="evenodd"
         stroke="none"
         id="path16" />
      <path
         d="M 68.85,68.85 H 31.1 V 31.1 h 37.75 v 37.75"
         fill="#ffffff"
         fill-opacity="0"
         fill-rule="evenodd"
         stroke="none"
         id="path18" />
      <path
         d="M 96.05,96.05 V 3.95 H 3.95 v 92.1 h 92.1 M 100,100 H 0 V 0 h 100 v 100"
         fill="#000000"
         fill-opacity="0"
         fill-rule="evenodd"
         stroke="none"
         id="path20" />
      <path
         d="M 0,50 H 50 L 0,0 M 50,50 V 0 m 0,100 V 50 L 0,100 M 100,50 H 50 l 50,50 M 50,50 100,0"
         fill="none"
         stroke="#000000"
         stroke-linecap="round"
         stroke-linejoin="round"
         stroke-opacity="0"
         stroke-width="0.05"
         id="path22" />
    </g>
    <g
       id="sprite0"
       transform="translate(-30.25,-16.1)">
      <use
         height="872"
         transform="translate(30.25,16.1)"
         width="611.45001"
         xlink:href="#shape1"
         id="use25" />
    </g>
    <g
       id="shape1"
       transform="translate(-30.25,-16.1)">
      <path
         d="m 418.05,71.9 v 26.5 h 34.5 q 14.45,0 24.9,12 12.1,13.3 12.1,30.15 0,15.65 -12.1,27.3 -9.2,10.8 -20.05,13.25 -0.75,9.25 -7.2,14.85 -1.65,3.25 -4.45,4.45 -5.2,4.4 -12.85,4.4 h -2.8 v 67.85 q 48.55,56.6 84.35,104.75 93.1,125.25 95.9,186.3 l 31.35,270.15 v 8.9 q 0,6.8 -2.85,12.45 -16.45,30.1 -120.05,32.9 H 152.3 Q 49.95,885.3 33.45,855.2 q -3.2,-5.25 -3.2,-12.45 v -8.9 L 61.95,563.7 q -1.55,-58.6 93.6,-186.3 34.1,-48.15 82.65,-104.75 V 204.8 H 237 q -10.85,0 -18.45,-8.85 -5.65,-5.6 -6.45,-14.85 -13.2,-1.2 -23.65,-13.25 -6.1,-6.45 -8.85,-14 -2.05,-6.1 -2.05,-13.3 0,-7.6 2.05,-14.45 2.75,-8.05 8.85,-15.7 11.6,-12 26.05,-12 h 35.75 V 71.9 q 0,-55.8 43.35,-55.8 h 81.5 q 42.95,0 42.95,55.8 m -233.6,478.55 93.9,67.05 -93.9,66.65 v 88.7 l 154.5,-118.8 v -73.9 l -154.5,-118.4 v 88.7 m 183.4,0 93.95,67.05 -93.95,66.65 v 88.7 l 154.6,-118.8 v -73.9 l -154.6,-118.4 v 88.7"
         fill="#ffffff"
         fill-rule="evenodd"
         stroke="none"
         id="path28" />
    </g>
  </defs>
  <g
     inkscape:groupmode="layer"
     id="layer1"
     inkscape:label="Layer 1">
    <path
       d="m 418.05,71.9 v 26.5 h 34.5 q 14.45,0 24.9,12 12.1,13.3 12.1,30.15 0,15.65 -12.1,27.3 -9.2,10.8 -20.05,13.25 -0.75,9.25 -7.2,14.85 -1.65,3.25 -4.45,4.45 -5.2,4.4 -12.85,4.4 h -2.8 v 67.85 q 48.55,56.6 84.35,104.75 93.1,125.25 95.9,186.3 l 31.35,270.15 v 8.9 q 0,6.8 -2.85,12.45 -16.45,30.1 -120.05,32.9 H 152.3 Q 49.95,885.3 33.45,855.2 q -3.2,-5.25 -3.2,-12.45 v -8.9 L 61.95,563.7 q -1.55,-58.6 93.6,-186.3 34.1,-48.15 82.65,-104.75 V 204.8 H 237 q -10.85,0 -18.45,-8.85 -5.65,-5.6 -6.45,-14.85 -13.2,-1.2 -23.65,-13.25 -6.1,-6.45 -8.85,-14 -2.05,-6.1 -2.05,-13.3 0,-7.6 2.05,-14.45 2.75,-8.05 8.85,-15.7 11.6,-12 26.05,-12 h 35.75 V 71.9 q 0,-55.8 43.35,-55.8 h 81.5 q 42.95,0 42.95,55.8 m -233.6,478.55 93.9,67.05 -93.9,66.65 v 88.7 l 154.5,-118.8 v -73.9 l -154.5,-118.4 v 88.7 m 183.4,0 93.95,67.05 -93.95,66.65 v 88.7 l 154.6,-118.8 v -73.9 l -154.6,-118.4 v 88.7"
       fill="#ffffff"
       fill-rule="evenodd"
       stroke="none"
       id="path359"
       transform="matrix(0.54065907,0,0,0.54106479,74.257206,10.927149)" />
  </g>
</svg>
