<?xml version="1.0" encoding="UTF-8" standalone="no"?>
<svg
   height="512"
   width="512"
   version="1.1"
   id="svg33"
   sodipodi:docname="potion_fire_resist.svg"
   inkscape:version="1.2.1 (9c6d41e410, 2022-07-14)"
   inkscape:export-filename="potion_fire_resist.png"
   inkscape:export-xdpi="96"
   inkscape:export-ydpi="96"
   xmlns:inkscape="http://www.inkscape.org/namespaces/inkscape"
   xmlns:sodipodi="http://sodipodi.sourceforge.net/DTD/sodipodi-0.dtd"
   xmlns:xlink="http://www.w3.org/1999/xlink"
   xmlns="http://www.w3.org/2000/svg"
   xmlns:svg="http://www.w3.org/2000/svg">
  <sodipodi:namedview
     id="namedview35"
     pagecolor="#ffffff"
     bordercolor="#000000"
     borderopacity="0.25"
     inkscape:showpageshadow="2"
     inkscape:pageopacity="0.0"
     inkscape:pagecheckerboard="true"
     inkscape:deskcolor="#d1d1d1"
     showgrid="false"
     inkscape:zoom="1.4183568"
     inkscape:cx="313.74334"
     inkscape:cy="248.52703"
     inkscape:window-width="2560"
     inkscape:window-height="1351"
     inkscape:window-x="2391"
     inkscape:window-y="-9"
     inkscape:window-maximized="1"
     inkscape:current-layer="svg33" />
  <defs
     id="defs31">
    <g
       id="shape0">
      <path
         d="M 100,100 H 0 V 0 h 100 v 100"
         fill="#00cc66"
         fill-opacity="0"
         fill-rule="evenodd"
         stroke="none"
         id="path8" />
      <path
         d="M 84.3,84.3 V 15.7 H 15.7 v 68.6 h 68.6 m 7.95,7.95 H 7.75 V 7.75 h 84.5 v 84.5"
         fill="#666666"
         fill-opacity="0"
         fill-rule="evenodd"
         stroke="none"
         id="path10" />
      <path
         d="M 84.3,84.3 H 15.7 V 15.7 H 84.3 V 84.3 M 76.4,76.4 V 23.55 H 23.55 V 76.4 H 76.4"
         fill="#999999"
         fill-opacity="0"
         fill-rule="evenodd"
         stroke="none"
         id="path12" />
      <path
         d="M 92.25,92.25 V 7.75 H 7.75 v 84.5 h 84.5 m 3.8,3.8 H 3.95 V 3.95 h 92.1 v 92.1"
         fill="#333333"
         fill-opacity="0"
         fill-rule="evenodd"
         stroke="none"
         id="path14" />
      <path
         d="M 68.85,68.85 V 31.1 H 31.1 V 68.85 H 68.85 M 76.4,76.4 H 23.55 V 23.55 H 76.4 V 76.4"
         fill="#cccccc"
         fill-opacity="0"
         fill-rule="evenodd"
         stroke="none"
         id="path16" />
      <path
         d="M 68.85,68.85 H 31.1 V 31.1 h 37.75 v 37.75"
         fill="#ffffff"
         fill-opacity="0"
         fill-rule="evenodd"
         stroke="none"
         id="path18" />
      <path
         d="M 96.05,96.05 V 3.95 H 3.95 v 92.1 h 92.1 M 100,100 H 0 V 0 h 100 v 100"
         fill="#000000"
         fill-opacity="0"
         fill-rule="evenodd"
         stroke="none"
         id="path20" />
      <path
         d="M 0,50 H 50 L 0,0 M 50,50 V 0 m 0,100 V 50 L 0,100 M 100,50 H 50 l 50,50 M 50,50 100,0"
         fill="none"
         stroke="#000000"
         stroke-linecap="round"
         stroke-linejoin="round"
         stroke-opacity="0"
         stroke-width="0.05"
         id="path22" />
    </g>
    <g
       id="sprite0"
       transform="translate(3,4.55)">
      <use
         height="117.95"
         transform="translate(-3,-4.55)"
         width="68"
         xlink:href="#shape1"
         id="use25" />
    </g>
    <g
       id="shape1"
       transform="translate(3,4.55)">
      <path
         d="m 34.95,-4.55 q 4.75,0 4.75,4.9 v 2 h 3.35 q 1.6,0 2.75,1.2 0.95,1.95 0.95,3.3 0,1.85 -0.95,3.45 l -2.15,1.35 q -0.2,0.95 -0.8,1.55 l -0.2,0.6 -1.6,0.2 H 40.9 V 28.65 Q 65.95,43.4 64.95,61.1 63.5,88.45 54.15,113.4 H 7.6 Q -1.55,89.05 -2.95,61.6 -3.9,43.95 21.1,29.2 V 14 H 20.95 Q 19.7,14 19.15,13.2 18.55,12.6 18.4,11.65 16.85,11.5 16,10.3 14.8,8.7 14.8,6.85 q 0,-1.35 1.2,-3.3 1.15,-1.2 2.55,-1.2 h 3.75 v -2 q 0,-4.9 4.35,-4.9 h 8.3 m -14.6,97.5 q -1.8,-5.2 2.2,-8.45 5.9,-4.9 9.6,-11.25 1.7,7.1 -3.15,14.2 -4.9,7.1 -0.15,17 0.1,-5.5 14.45,-14.7 14.4,-9.15 2.5,-29.75 1.5,11.9 -4.9,16.3 4.2,-9.35 -3,-19.5 -7.15,-10.3 -6.5,-13.5 -7.35,4.7 -6,13 4,9.2 -1.9,12.8 1,-5 -2.05,-9.1 -3,6.75 -8.3,13.05 -5.3,8.2 7.2,19.9"
         fill="#ffffff"
         fill-rule="evenodd"
         stroke="none"
         id="path28" />
    </g>
  </defs>
  <g
     inkscape:groupmode="layer"
     id="layer1"
     inkscape:label="Layer 1">
    <path
       d="m 34.95,-4.55 q 4.75,0 4.75,4.9 v 2 h 3.35 q 1.6,0 2.75,1.2 0.95,1.95 0.95,3.3 0,1.85 -0.95,3.45 l -2.15,1.35 q -0.2,0.95 -0.8,1.55 l -0.2,0.6 -1.6,0.2 H 40.9 V 28.65 Q 65.95,43.4 64.95,61.1 63.5,88.45 54.15,113.4 H 7.6 Q -1.55,89.05 -2.95,61.6 -3.9,43.95 21.1,29.2 V 14 H 20.95 Q 19.7,14 19.15,13.2 18.55,12.6 18.4,11.65 16.85,11.5 16,10.3 14.8,8.7 14.8,6.85 q 0,-1.35 1.2,-3.3 1.15,-1.2 2.55,-1.2 h 3.75 v -2 q 0,-4.9 4.35,-4.9 h 8.3 m -14.6,97.5 q -1.8,-5.2 2.2,-8.45 5.9,-4.9 9.6,-11.25 1.7,7.1 -3.15,14.2 -4.9,7.1 -0.15,17 0.1,-5.5 14.45,-14.7 14.4,-9.15 2.5,-29.75 1.5,11.9 -4.9,16.3 4.2,-9.35 -3,-19.5 -7.15,-10.3 -6.5,-13.5 -7.35,4.7 -6,13 4,9.2 -1.9,12.8 1,-5 -2.05,-9.1 -3,6.75 -8.3,13.05 -5.3,8.2 7.2,19.9"
       fill="#ffffff"
       fill-rule="evenodd"
       stroke="none"
       id="path253"
       transform="matrix(3.998001,0,0,3.998001,131.46227,38.308846)" />
  </g>
</svg>
