<?xml version="1.0" encoding="UTF-8" standalone="no"?>
<svg
   height="512"
   width="512"
   version="1.1"
   id="svg1263"
   sodipodi:docname="potion_magic_resist.svg"
   inkscape:version="1.2.1 (9c6d41e410, 2022-07-14)"
   xml:space="preserve"
   inkscape:export-filename="potion_magic_resist.png"
   inkscape:export-xdpi="96"
   inkscape:export-ydpi="96"
   xmlns:inkscape="http://www.inkscape.org/namespaces/inkscape"
   xmlns:sodipodi="http://sodipodi.sourceforge.net/DTD/sodipodi-0.dtd"
   xmlns:xlink="http://www.w3.org/1999/xlink"
   xmlns="http://www.w3.org/2000/svg"
   xmlns:svg="http://www.w3.org/2000/svg"><sodipodi:namedview
     id="namedview1265"
     pagecolor="#ffffff"
     bordercolor="#000000"
     borderopacity="0.25"
     inkscape:showpageshadow="2"
     inkscape:pageopacity="0.0"
     inkscape:pagecheckerboard="true"
     inkscape:deskcolor="#d1d1d1"
     showgrid="false"
     inkscape:zoom="1.4183568"
     inkscape:cx="196.00146"
     inkscape:cy="254.8724"
     inkscape:window-width="2560"
     inkscape:window-height="1351"
     inkscape:window-x="2391"
     inkscape:window-y="-9"
     inkscape:window-maximized="1"
     inkscape:current-layer="layer1" /><defs
     id="defs1261"><g
       id="shape0"><path
         d="M 100,100 H 0 V 0 h 100 v 100"
         fill="#00cc66"
         fill-opacity="0"
         fill-rule="evenodd"
         stroke="none"
         id="path1238" /><path
         d="M 84.3,84.3 V 15.7 H 15.7 v 68.6 h 68.6 m 7.95,7.95 H 7.75 V 7.75 h 84.5 v 84.5"
         fill="#666666"
         fill-opacity="0"
         fill-rule="evenodd"
         stroke="none"
         id="path1240" /><path
         d="M 84.3,84.3 H 15.7 V 15.7 H 84.3 V 84.3 M 76.4,76.4 V 23.55 H 23.55 V 76.4 H 76.4"
         fill="#999999"
         fill-opacity="0"
         fill-rule="evenodd"
         stroke="none"
         id="path1242" /><path
         d="M 92.25,92.25 V 7.75 H 7.75 v 84.5 h 84.5 m 3.8,3.8 H 3.95 V 3.95 h 92.1 v 92.1"
         fill="#333333"
         fill-opacity="0"
         fill-rule="evenodd"
         stroke="none"
         id="path1244" /><path
         d="M 68.85,68.85 V 31.1 H 31.1 V 68.85 H 68.85 M 76.4,76.4 H 23.55 V 23.55 H 76.4 V 76.4"
         fill="#cccccc"
         fill-opacity="0"
         fill-rule="evenodd"
         stroke="none"
         id="path1246" /><path
         d="M 68.85,68.85 H 31.1 V 31.1 h 37.75 v 37.75"
         fill="#ffffff"
         fill-opacity="0"
         fill-rule="evenodd"
         stroke="none"
         id="path1248" /><path
         d="M 96.05,96.05 V 3.95 H 3.95 v 92.1 h 92.1 M 100,100 H 0 V 0 h 100 v 100"
         fill="#000000"
         fill-opacity="0"
         fill-rule="evenodd"
         stroke="none"
         id="path1250" /><path
         d="M 0,50 H 50 L 0,0 M 50,50 V 0 m 0,100 V 50 L 0,100 M 100,50 H 50 l 50,50 M 50,50 100,0"
         fill="none"
         stroke="#000000"
         stroke-linecap="round"
         stroke-linejoin="round"
         stroke-opacity="0"
         stroke-width="0.05"
         id="path1252" /></g><g
       id="sprite0"
       transform="translate(-65.35,-33.3)"><use
         height="787.70001"
         transform="translate(65.35,33.3)"
         width="534.75"
         xlink:href="#shape1"
         id="use1255" /></g><g
       id="shape1"
       transform="translate(-65.35,-33.3)"><path
         d="m 422,84.85 q 10.65,0 19.3,9.65 9.45,10.85 9.45,24.25 0,13.2 -9.45,22.8 -7.5,8.5 -14.6,10.8 -1.4,7.35 -7.25,12.05 0,2.55 -2.15,3.75 -3.7,3.5 -10.05,3.5 h -2.4 V 323.4 l 18.35,5 q 54.15,19.5 98.8,63.7 78.1,78.3 78.1,189.4 0,110.8 -78.1,188.6 -31.55,31.6 -68.95,50.9 H 212.15 Q 174.75,801.7 143.5,770.1 65.35,692.3 65.35,581.5 q 0,-111.1 78.15,-189.4 45.6,-45.85 104.65,-64.9 3.8,-1.45 8.75,-2.65 v -152.9 h -1.45 q -8.2,0 -14.1,-7.25 -3.8,-4.7 -4.95,-12.05 -10.6,-1.15 -18.15,-10.8 -8.4,-9.6 -8.4,-22.8 0,-13.4 8.4,-24.25 8.45,-9.65 20.25,-9.65 h 26.85 V 67.95 Q 265.35,33.3 299,33.3 h 62.8 q 33.4,0 33.4,34.65 v 16.9 H 422"
         fill="#ffffff"
         fill-rule="evenodd"
         stroke="none"
         id="path1258" /></g><g
       id="shape0-3"><path
         d="M 100,100 H 0 V 0 h 100 v 100"
         fill="#00cc66"
         fill-opacity="0"
         fill-rule="evenodd"
         stroke="none"
         id="path8" /><path
         d="M 84.3,84.3 V 15.7 H 15.7 v 68.6 h 68.6 m 7.95,7.95 H 7.75 V 7.75 h 84.5 v 84.5"
         fill="#666666"
         fill-opacity="0"
         fill-rule="evenodd"
         stroke="none"
         id="path10" /><path
         d="M 84.3,84.3 H 15.7 V 15.7 H 84.3 V 84.3 M 76.4,76.4 V 23.55 H 23.55 V 76.4 H 76.4"
         fill="#999999"
         fill-opacity="0"
         fill-rule="evenodd"
         stroke="none"
         id="path12" /><path
         d="M 92.25,92.25 V 7.75 H 7.75 v 84.5 h 84.5 m 3.8,3.8 H 3.95 V 3.95 h 92.1 v 92.1"
         fill="#333333"
         fill-opacity="0"
         fill-rule="evenodd"
         stroke="none"
         id="path14" /><path
         d="M 68.85,68.85 V 31.1 H 31.1 V 68.85 H 68.85 M 76.4,76.4 H 23.55 V 23.55 H 76.4 V 76.4"
         fill="#cccccc"
         fill-opacity="0"
         fill-rule="evenodd"
         stroke="none"
         id="path16" /><path
         d="M 68.85,68.85 H 31.1 V 31.1 h 37.75 v 37.75"
         fill="#ffffff"
         fill-opacity="0"
         fill-rule="evenodd"
         stroke="none"
         id="path18" /><path
         d="M 96.05,96.05 V 3.95 H 3.95 v 92.1 h 92.1 M 100,100 H 0 V 0 h 100 v 100"
         fill="#000000"
         fill-opacity="0"
         fill-rule="evenodd"
         stroke="none"
         id="path20" /><path
         d="M 0,50 H 50 L 0,0 M 50,50 V 0 m 0,100 V 50 L 0,100 M 100,50 H 50 l 50,50 M 50,50 100,0"
         fill="none"
         stroke="#000000"
         stroke-linecap="round"
         stroke-linejoin="round"
         stroke-opacity="0"
         stroke-width="0.05"
         id="path22" /></g><g
       id="sprite0-2"
       transform="translate(-10.4,-40.1)"><use
         height="956.84998"
         transform="translate(10.4,40.1)"
         width="587.5"
         xlink:href="#shape1-4"
         id="use25" /></g><g
       id="shape1-4"
       transform="translate(-10.4,-40.1)"><path
         d="m 368.3,90.65 q -16.45,74 42.3,100 -69.15,82.5 -68.3,183.6 6.95,145.3 1.05,282.9 -31.7,-13.65 -66.15,-15.15 -14.8,-89.45 -4.5,-181 3.2,-82.25 -15.45,-166.45 -21.5,-57.85 8.9,-98 7.2,38.2 40.55,44.65 34.3,-4.95 24.3,-79.6 -22.5,-70.95 -19.7,-121.5 17.1,26.05 53.8,27.1 13.2,7.4 3.2,23.45 m 128.9,149.9 q -80.7,125 -54.9,175.75 37.6,69.45 77.1,15 14.25,-18.65 11.2,-41.45 51.65,63.55 -5.8,102.15 -110.25,61 -97.45,140.45 16.25,59 5.45,95.65 -12.6,-15.8 -26.3,-28.2 l -8,-7.15 Q 384.4,676.5 379.85,641.35 366.4,530 372.25,416.3 q 3.7,-98 82.25,-188.1 40.5,-54.2 22.75,-110 52.05,50.35 19.95,122.35 m -486.8,7.2 q 1,-28.6 48.95,-51.45 -23.45,44.9 -6.9,56 118.65,98.75 100.25,233.9 -17.8,127.1 5.4,206.35 l 3.3,9.7 q -37.75,40.4 -37.75,97.25 0,57.5 38.3,97.65 38.9,40.8 94,40.8 55.15,0 93.55,-40.8 30.35,-31.7 30.75,-77.7 -3,-37.3 -26.45,-60.75 5.25,16.95 5.25,36.25 0,46.35 -30.4,79.35 -29.95,33 -72.7,33 -42.75,0 -73.15,-33 -29.9,-33 -29.9,-79.35 0,-42.8 25.4,-74.2 44.65,-58.35 109.55,-54.65 51,5.15 88.95,43.35 49.45,49.25 49.45,119.15 0,69.4 -49.45,119.1 -49.45,49.25 -118.85,49.25 -69.9,0 -118.95,-49.25 -20.4,-20.65 -32.3,-44.25 -25.85,-40.2 -31.05,-80.3 -16,-135.85 1.55,-305.5 9.5,-160.3 -32.15,-214.8 -31.5,-21.9 -34.65,-55.1 m 164.4,119.75 -0.4,-2.6 q 1.05,-85.45 -11.8,-99.8 -56.35,-35.55 -21.65,-88.55 58.6,-50.75 48.85,-94.8 40.3,55.8 20.2,119.75 -31.3,99.4 22.7,130 l 15,311.35 q -29.25,2.6 -60.55,14.1 L 174.8,367.5 m 376,364.75 q 2.4,211.5 -141.2,231.45 79.35,-74.15 83.55,-203.05 4.7,-128.85 104.75,-204.8 -47.95,69.4 -47.1,176.4"
         fill="#ffffff"
         fill-rule="evenodd"
         stroke="none"
         id="path28" /></g><g
       id="shape0-0"><path
         d="M 100,100 H 0 V 0 h 100 v 100"
         fill="#00cc66"
         fill-opacity="0"
         fill-rule="evenodd"
         stroke="none"
         id="path8-4" /><path
         d="M 84.3,84.3 V 15.7 H 15.7 v 68.6 h 68.6 m 7.95,7.95 H 7.75 V 7.75 h 84.5 v 84.5"
         fill="#666666"
         fill-opacity="0"
         fill-rule="evenodd"
         stroke="none"
         id="path10-3" /><path
         d="M 84.3,84.3 H 15.7 V 15.7 H 84.3 V 84.3 M 76.4,76.4 V 23.55 H 23.55 V 76.4 H 76.4"
         fill="#999999"
         fill-opacity="0"
         fill-rule="evenodd"
         stroke="none"
         id="path12-7" /><path
         d="M 92.25,92.25 V 7.75 H 7.75 v 84.5 h 84.5 m 3.8,3.8 H 3.95 V 3.95 h 92.1 v 92.1"
         fill="#333333"
         fill-opacity="0"
         fill-rule="evenodd"
         stroke="none"
         id="path14-6" /><path
         d="M 68.85,68.85 V 31.1 H 31.1 V 68.85 H 68.85 M 76.4,76.4 H 23.55 V 23.55 H 76.4 V 76.4"
         fill="#cccccc"
         fill-opacity="0"
         fill-rule="evenodd"
         stroke="none"
         id="path16-4" /><path
         d="M 68.85,68.85 H 31.1 V 31.1 h 37.75 v 37.75"
         fill="#ffffff"
         fill-opacity="0"
         fill-rule="evenodd"
         stroke="none"
         id="path18-3" /><path
         d="M 96.05,96.05 V 3.95 H 3.95 v 92.1 h 92.1 M 100,100 H 0 V 0 h 100 v 100"
         fill="#000000"
         fill-opacity="0"
         fill-rule="evenodd"
         stroke="none"
         id="path20-2" /><path
         d="M 0,50 H 50 L 0,0 M 50,50 V 0 m 0,100 V 50 L 0,100 M 100,50 H 50 l 50,50 M 50,50 100,0"
         fill="none"
         stroke="#000000"
         stroke-linecap="round"
         stroke-linejoin="round"
         stroke-opacity="0"
         stroke-width="0.05"
         id="path22-5" /></g><g
       id="sprite0-6"
       transform="translate(-65.35,-33.3)"><use
         height="787.70001"
         transform="translate(65.35,33.3)"
         width="534.75"
         xlink:href="#shape1-6"
         id="use25-8" /></g><g
       id="shape1-6"
       transform="translate(-65.35,-33.3)"><path
         d="m 422,84.85 q 10.65,0 19.3,9.65 9.45,10.85 9.45,24.25 0,13.2 -9.45,22.8 -7.5,8.5 -14.6,10.8 -1.4,7.35 -7.25,12.05 0,2.55 -2.15,3.75 -3.7,3.5 -10.05,3.5 h -2.4 V 323.4 l 18.35,5 q 54.15,19.5 98.8,63.7 78.1,78.3 78.1,189.4 0,110.8 -78.1,188.6 -31.55,31.6 -68.95,50.9 H 212.15 Q 174.75,801.7 143.5,770.1 65.35,692.3 65.35,581.5 q 0,-111.1 78.15,-189.4 45.6,-45.85 104.65,-64.9 3.8,-1.45 8.75,-2.65 v -152.9 h -1.45 q -8.2,0 -14.1,-7.25 -3.8,-4.7 -4.95,-12.05 -10.6,-1.15 -18.15,-10.8 -8.4,-9.6 -8.4,-22.8 0,-13.4 8.4,-24.25 8.45,-9.65 20.25,-9.65 h 26.85 V 67.95 Q 265.35,33.3 299,33.3 h 62.8 q 33.4,0 33.4,34.65 v 16.9 H 422"
         fill="#ffffff"
         fill-rule="evenodd"
         stroke="none"
         id="path28-0" /></g><g
       id="shape0-1"><path
         d="M 100,100 H 0 V 0 h 100 v 100"
         fill="#00cc66"
         fill-opacity="0"
         fill-rule="evenodd"
         stroke="none"
         id="path8-9" /><path
         d="M 84.3,84.3 V 15.7 H 15.7 v 68.6 h 68.6 m 7.95,7.95 H 7.75 V 7.75 h 84.5 v 84.5"
         fill="#666666"
         fill-opacity="0"
         fill-rule="evenodd"
         stroke="none"
         id="path10-8" /><path
         d="M 84.3,84.3 H 15.7 V 15.7 H 84.3 V 84.3 M 76.4,76.4 V 23.55 H 23.55 V 76.4 H 76.4"
         fill="#999999"
         fill-opacity="0"
         fill-rule="evenodd"
         stroke="none"
         id="path12-8" /><path
         d="M 92.25,92.25 V 7.75 H 7.75 v 84.5 h 84.5 m 3.8,3.8 H 3.95 V 3.95 h 92.1 v 92.1"
         fill="#333333"
         fill-opacity="0"
         fill-rule="evenodd"
         stroke="none"
         id="path14-1" /><path
         d="M 68.85,68.85 V 31.1 H 31.1 V 68.85 H 68.85 M 76.4,76.4 H 23.55 V 23.55 H 76.4 V 76.4"
         fill="#cccccc"
         fill-opacity="0"
         fill-rule="evenodd"
         stroke="none"
         id="path16-5" /><path
         d="M 68.85,68.85 H 31.1 V 31.1 h 37.75 v 37.75"
         fill="#ffffff"
         fill-opacity="0"
         fill-rule="evenodd"
         stroke="none"
         id="path18-2" /><path
         d="M 96.05,96.05 V 3.95 H 3.95 v 92.1 h 92.1 M 100,100 H 0 V 0 h 100 v 100"
         fill="#000000"
         fill-opacity="0"
         fill-rule="evenodd"
         stroke="none"
         id="path20-9" /><path
         d="M 0,50 H 50 L 0,0 M 50,50 V 0 m 0,100 V 50 L 0,100 M 100,50 H 50 l 50,50 M 50,50 100,0"
         fill="none"
         stroke="#000000"
         stroke-linecap="round"
         stroke-linejoin="round"
         stroke-opacity="0"
         stroke-width="0.05"
         id="path22-7" /></g><g
       id="sprite0-9"
       transform="translate(-10.4,-40.1)"><use
         height="956.84998"
         transform="translate(10.4,40.1)"
         width="587.5"
         xlink:href="#shape1-3"
         id="use25-5" /></g><g
       id="shape1-3"
       transform="translate(-10.4,-40.1)"><path
         d="m 368.3,90.65 q -16.45,74 42.3,100 -69.15,82.5 -68.3,183.6 6.95,145.3 1.05,282.9 -31.7,-13.65 -66.15,-15.15 -14.8,-89.45 -4.5,-181 3.2,-82.25 -15.45,-166.45 -21.5,-57.85 8.9,-98 7.2,38.2 40.55,44.65 34.3,-4.95 24.3,-79.6 -22.5,-70.95 -19.7,-121.5 17.1,26.05 53.8,27.1 13.2,7.4 3.2,23.45 m 128.9,149.9 q -80.7,125 -54.9,175.75 37.6,69.45 77.1,15 14.25,-18.65 11.2,-41.45 51.65,63.55 -5.8,102.15 -110.25,61 -97.45,140.45 16.25,59 5.45,95.65 -12.6,-15.8 -26.3,-28.2 l -8,-7.15 Q 384.4,676.5 379.85,641.35 366.4,530 372.25,416.3 q 3.7,-98 82.25,-188.1 40.5,-54.2 22.75,-110 52.05,50.35 19.95,122.35 m -486.8,7.2 q 1,-28.6 48.95,-51.45 -23.45,44.9 -6.9,56 118.65,98.75 100.25,233.9 -17.8,127.1 5.4,206.35 l 3.3,9.7 q -37.75,40.4 -37.75,97.25 0,57.5 38.3,97.65 38.9,40.8 94,40.8 55.15,0 93.55,-40.8 30.35,-31.7 30.75,-77.7 -3,-37.3 -26.45,-60.75 5.25,16.95 5.25,36.25 0,46.35 -30.4,79.35 -29.95,33 -72.7,33 -42.75,0 -73.15,-33 -29.9,-33 -29.9,-79.35 0,-42.8 25.4,-74.2 44.65,-58.35 109.55,-54.65 51,5.15 88.95,43.35 49.45,49.25 49.45,119.15 0,69.4 -49.45,119.1 -49.45,49.25 -118.85,49.25 -69.9,0 -118.95,-49.25 -20.4,-20.65 -32.3,-44.25 -25.85,-40.2 -31.05,-80.3 -16,-135.85 1.55,-305.5 9.5,-160.3 -32.15,-214.8 -31.5,-21.9 -34.65,-55.1 m 164.4,119.75 -0.4,-2.6 q 1.05,-85.45 -11.8,-99.8 -56.35,-35.55 -21.65,-88.55 58.6,-50.75 48.85,-94.8 40.3,55.8 20.2,119.75 -31.3,99.4 22.7,130 l 15,311.35 q -29.25,2.6 -60.55,14.1 L 174.8,367.5 m 376,364.75 q 2.4,211.5 -141.2,231.45 79.35,-74.15 83.55,-203.05 4.7,-128.85 104.75,-204.8 -47.95,69.4 -47.1,176.4"
         fill="#ffffff"
         fill-rule="evenodd"
         stroke="none"
         id="path28-8" /></g><filter
       id="mask-powermask-path-effect4958_inverse"
       inkscape:label="filtermask-powermask-path-effect4958"
       style="color-interpolation-filters:sRGB"
       height="100"
       width="100"
       x="-50"
       y="-50"><feColorMatrix
         id="mask-powermask-path-effect4958_primitive1"
         values="1"
         type="saturate"
         result="fbSourceGraphic" /><feColorMatrix
         id="mask-powermask-path-effect4958_primitive2"
         values="-1 0 0 0 1 0 -1 0 0 1 0 0 -1 0 1 0 0 0 1 0 "
         in="fbSourceGraphic" /></filter><g
       id="shape0-8"><path
         d="M 100,100 H 0 V 0 h 100 v 100"
         fill="#00cc66"
         fill-opacity="0"
         fill-rule="evenodd"
         stroke="none"
         id="path8-6" /><path
         d="M 84.3,84.3 V 15.7 H 15.7 v 68.6 h 68.6 m 7.95,7.95 H 7.75 V 7.75 h 84.5 v 84.5"
         fill="#666666"
         fill-opacity="0"
         fill-rule="evenodd"
         stroke="none"
         id="path10-5" /><path
         d="M 84.3,84.3 H 15.7 V 15.7 H 84.3 V 84.3 M 76.4,76.4 V 23.55 H 23.55 V 76.4 H 76.4"
         fill="#999999"
         fill-opacity="0"
         fill-rule="evenodd"
         stroke="none"
         id="path12-72" /><path
         d="M 92.25,92.25 V 7.75 H 7.75 v 84.5 h 84.5 m 3.8,3.8 H 3.95 V 3.95 h 92.1 v 92.1"
         fill="#333333"
         fill-opacity="0"
         fill-rule="evenodd"
         stroke="none"
         id="path14-9" /><path
         d="M 68.85,68.85 V 31.1 H 31.1 V 68.85 H 68.85 M 76.4,76.4 H 23.55 V 23.55 H 76.4 V 76.4"
         fill="#cccccc"
         fill-opacity="0"
         fill-rule="evenodd"
         stroke="none"
         id="path16-8" /><path
         d="M 68.85,68.85 H 31.1 V 31.1 h 37.75 v 37.75"
         fill="#ffffff"
         fill-opacity="0"
         fill-rule="evenodd"
         stroke="none"
         id="path18-7" /><path
         d="M 96.05,96.05 V 3.95 H 3.95 v 92.1 h 92.1 M 100,100 H 0 V 0 h 100 v 100"
         fill="#000000"
         fill-opacity="0"
         fill-rule="evenodd"
         stroke="none"
         id="path20-4" /><path
         d="M 0,50 H 50 L 0,0 M 50,50 V 0 m 0,100 V 50 L 0,100 M 100,50 H 50 l 50,50 M 50,50 100,0"
         fill="none"
         stroke="#000000"
         stroke-linecap="round"
         stroke-linejoin="round"
         stroke-opacity="0"
         stroke-width="0.05"
         id="path22-0" /></g><g
       id="sprite0-8"
       transform="translate(-65.35,-33.3)"><use
         height="787.70001"
         transform="translate(65.35,33.3)"
         width="534.75"
         xlink:href="#shape1-37"
         id="use25-0" /></g><g
       id="shape1-37"
       transform="translate(-65.35,-33.3)"><path
         d="m 422,84.85 q 10.65,0 19.3,9.65 9.45,10.85 9.45,24.25 0,13.2 -9.45,22.8 -7.5,8.5 -14.6,10.8 -1.4,7.35 -7.25,12.05 0,2.55 -2.15,3.75 -3.7,3.5 -10.05,3.5 h -2.4 V 323.4 l 18.35,5 q 54.15,19.5 98.8,63.7 78.1,78.3 78.1,189.4 0,110.8 -78.1,188.6 -31.55,31.6 -68.95,50.9 H 212.15 Q 174.75,801.7 143.5,770.1 65.35,692.3 65.35,581.5 q 0,-111.1 78.15,-189.4 45.6,-45.85 104.65,-64.9 3.8,-1.45 8.75,-2.65 v -152.9 h -1.45 q -8.2,0 -14.1,-7.25 -3.8,-4.7 -4.95,-12.05 -10.6,-1.15 -18.15,-10.8 -8.4,-9.6 -8.4,-22.8 0,-13.4 8.4,-24.25 8.45,-9.65 20.25,-9.65 h 26.85 V 67.95 Q 265.35,33.3 299,33.3 h 62.8 q 33.4,0 33.4,34.65 v 16.9 H 422"
         fill="#ffffff"
         fill-rule="evenodd"
         stroke="none"
         id="path28-7" /></g></defs><g
     inkscape:groupmode="layer"
     id="layer1"
     inkscape:label="Layer 1"><path
       id="path938"
       style="display:inline;fill:#ffffff"
       d="m 299.00078,33.298426 c -22.43331,0 -33.64927,11.550105 -33.64927,34.650082 v 16.902717 h -26.85097 c -7.86666,0 -14.61815,3.216518 -20.25148,9.649844 -5.59999,7.233331 -8.39846,15.316841 -8.39846,24.250171 0,8.79999 2.79847,16.39894 8.39846,22.79893 5.03333,6.43333 11.08276,10.03438 18.14942,10.80105 0.76667,4.89999 2.4171,8.91674 4.95044,12.05007 3.93332,4.83333 8.63506,7.24961 14.10173,7.24961 h 1.45025 v 152.90062 c -3.29999,0.8 -6.2171,1.68142 -8.75043,2.64809 -39.36663,12.69998 -74.25006,34.33419 -104.65003,64.90082 -52.099947,52.19995 -78.151026,115.3332 -78.151026,189.3998 0,73.86659 26.051079,136.73418 78.151026,188.6008 20.83331,21.06664 43.71771,38.03391 68.65102,50.90056 h 240.8994 c 24.9333,-12.86665 47.91427,-29.83392 68.94758,-50.90056 52.06662,-51.86662 78.10214,-114.73421 78.10214,-188.6008 0,-74.0666 -26.03552,-137.19985 -78.10214,-189.3998 -29.76664,-29.46664 -62.69688,-50.70072 -98.79684,-63.70071 l -18.35148,-4.99939 V 171.6509 h 2.39863 c 4.23333,0 7.58412,-1.16918 10.05078,-3.50251 1.43333,-0.8 2.15095,-2.0471 2.15095,-3.7471 3.89999,-3.13333 6.3147,-7.15008 7.24803,-12.05007 4.73333,-1.53334 9.60037,-5.13439 14.60036,-10.80105 6.29999,-6.39999 9.45113,-13.99894 9.45113,-22.79893 0,-8.93333 -3.15114,-17.01684 -9.45113,-24.250171 -5.76666,-6.433326 -12.19986,-9.649844 -19.29985,-9.649844 H 395.20019 V 67.948508 c 0,-23.099977 -11.13493,-34.650082 -33.40158,-34.650082 z m 37.56985,372.746834 c 4.20916,6.41648 10.82996,9.7532 19.86366,10.01183 3.24917,1.82272 3.64451,4.71163 1.18302,8.66497 -4.04917,18.22723 1.15587,30.54179 15.61717,36.94595 -17.02125,20.32091 -25.42744,42.93355 -25.21821,67.8359 1.71074,35.78942 1.8401,70.6314 0.38782,104.52421 -7.80295,-3.36219 -15.94316,-5.22998 -24.42301,-5.59945 -3.64302,-22.03279 -4.19744,-44.3238 -1.6621,-66.87385 0.78768,-20.25932 -1.11257,-40.75977 -5.70326,-61.49941 -5.29222,-14.24926 -4.19787,-26.31616 3.28508,-36.20566 1.77228,9.40919 6.76279,14.90634 14.97189,16.49506 8.44293,-1.21925 11.43354,-11.02201 8.97205,-29.40935 -5.53837,-17.47598 -7.96333,-32.43903 -7.27411,-44.8902 z m -44.86025,15.38952 c 9.91983,13.74432 12.40747,28.48945 7.45987,44.24123 -7.70449,24.48361 -4.91318,40.49677 8.37891,48.03398 l 5.54031,115.03501 c -7.19988,0.64042 -14.65231,2.3755 -22.3568,5.20811 l -4.55935,-106.94401 -0.14991,-0.95879 c 0.25845,-21.04753 -1.19102,-33.3396 -4.35404,-36.87421 -13.87053,-8.75646 -16.53574,-19.66156 -7.99435,-32.7162 14.42437,-12.50043 20.43531,-24.17498 18.03536,-35.02512 z m 106.13287,13.46543 c 12.81209,12.40191 15.27002,27.47193 7.36862,45.20654 -19.86428,30.78925 -26.6217,52.433 -20.27104,64.93344 9.25523,17.1065 18.74453,18.95255 28.46744,5.54075 3.50764,-4.59376 4.88644,-9.69856 4.13569,-15.31452 12.71363,15.65325 11.99687,28.23396 -2.14443,37.74168 -27.138,15.02516 -39.13017,32.32232 -35.97946,51.89196 3.99994,14.53253 4.66923,26.31405 2.01081,35.34146 -3.10148,-3.89176 -6.33633,-7.36519 -9.70858,-10.41949 l -2.95593,-2.64155 c -3.47071,-4.00261 -5.76304,-10.33194 -6.88302,-18.98988 -3.31071,-27.42706 -4.24598,-55.14451 -2.80601,-83.15041 0.91076,-24.13877 11.03239,-47.30621 30.36744,-69.4991 9.96907,-13.35022 12.76763,-26.89656 8.39847,-40.64088 z m -154.29776,28.85496 c -5.77221,11.0595 -6.62233,17.95813 -2.54855,20.69221 29.20566,24.32351 41.54498,53.12879 37.01582,86.41812 -4.38146,31.30651 -3.71616,56.71958 1.99452,76.23997 l 1.21886,3.58404 c -9.29215,9.95108 -13.93878,21.92878 -13.93878,35.93173 0,14.16305 4.71331,26.18897 14.14084,36.07848 9.57523,10.04961 21.14234,15.07645 34.70519,15.07645 13.57515,0 25.09008,-5.02684 34.54223,-15.07645 7.47064,-7.80816 11.25592,-17.37776 11.35438,-28.70821 -0.73845,-9.18751 -3.99504,-16.6674 -9.76724,-22.44347 1.29228,4.17503 1.93911,8.63983 1.93911,13.39369 0,11.41665 -3.74108,21.18642 -11.22403,29.31478 -7.37218,8.12836 -16.32156,12.19357 -26.84445,12.19357 -10.5229,0 -19.52446,-4.06521 -27.00741,-12.19357 -7.35987,-8.12836 -11.03826,-17.89813 -11.03826,-29.31478 0,-10.54224 3.12397,-19.68252 9.37617,-27.41678 10.99058,-14.37242 24.4757,-21.10135 40.45081,-20.18999 12.55364,1.26852 23.49965,6.60648 32.84103,16.01568 12.1721,12.13096 18.25697,26.80537 18.25697,44.02272 0,17.09419 -6.08487,31.76135 -18.25697,44.00316 -12.1721,12.13096 -26.79976,18.19741 -43.88255,18.19741 -17.20586,0 -31.84476,-6.06645 -43.9184,-18.19741 -5.02145,-5.08638 -8.99879,-10.53531 -11.92797,-16.34832 -6.36297,-9.90182 -10.18196,-19.79306 -11.46193,-29.67025 -3.9384,-33.46176 -3.7496,-71.08568 0.57032,-112.87285 2.33842,-39.48413 -1.61717,-65.9368 -11.86931,-79.36091 -7.75371,-5.39428 -12.01949,-12.18195 -12.79486,-20.35958 0.24614,-7.04458 6.27158,-13.38116 18.07446,-19.00944 z m 198.84515,132.84434 c -11.80288,17.09419 -17.5993,38.81917 -17.39007,65.17476 0.59076,52.09541 -16.78727,80.60081 -52.13436,85.51478 19.53197,-18.26419 29.81594,-43.27041 30.84977,-75.02029 1.15691,-31.73755 14.04738,-56.9617 38.67466,-75.66925 z"
       transform="matrix(0.59930035,0,0,0.59890055,56.597792,0.05169504)" /></g></svg>
