<?xml version="1.0" encoding="UTF-8" standalone="no"?>
<svg
   height="512"
   width="512"
   version="1.1"
   id="svg1263"
   sodipodi:docname="potion_magic_resist.svg"
   inkscape:version="1.2.1 (9c6d41e410, 2022-07-14)"
   xml:space="preserve"
   inkscape:export-filename="potion_magic_resist.png"
   inkscape:export-xdpi="96"
   inkscape:export-ydpi="96"
   xmlns:inkscape="http://www.inkscape.org/namespaces/inkscape"
   xmlns:sodipodi="http://sodipodi.sourceforge.net/DTD/sodipodi-0.dtd"
   xmlns:xlink="http://www.w3.org/1999/xlink"
   xmlns="http://www.w3.org/2000/svg"
   xmlns:svg="http://www.w3.org/2000/svg"><sodipodi:namedview
     id="namedview1265"
     pagecolor="#ffffff"
     bordercolor="#000000"
     borderopacity="0.25"
     inkscape:showpageshadow="2"
     inkscape:pageopacity="0.0"
     inkscape:pagecheckerboard="true"
     inkscape:deskcolor="#d1d1d1"
     showgrid="false"
     inkscape:zoom="1.4183568"
     inkscape:cx="280.6064"
     inkscape:cy="254.16736"
     inkscape:window-width="2560"
     inkscape:window-height="1351"
     inkscape:window-x="2391"
     inkscape:window-y="-9"
     inkscape:window-maximized="1"
     inkscape:current-layer="svg1263" /><defs
     id="defs1261"><g
       id="shape0"><path
         d="M 100,100 H 0 V 0 h 100 v 100"
         fill="#00cc66"
         fill-opacity="0"
         fill-rule="evenodd"
         stroke="none"
         id="path1238" /><path
         d="M 84.3,84.3 V 15.7 H 15.7 v 68.6 h 68.6 m 7.95,7.95 H 7.75 V 7.75 h 84.5 v 84.5"
         fill="#666666"
         fill-opacity="0"
         fill-rule="evenodd"
         stroke="none"
         id="path1240" /><path
         d="M 84.3,84.3 H 15.7 V 15.7 H 84.3 V 84.3 M 76.4,76.4 V 23.55 H 23.55 V 76.4 H 76.4"
         fill="#999999"
         fill-opacity="0"
         fill-rule="evenodd"
         stroke="none"
         id="path1242" /><path
         d="M 92.25,92.25 V 7.75 H 7.75 v 84.5 h 84.5 m 3.8,3.8 H 3.95 V 3.95 h 92.1 v 92.1"
         fill="#333333"
         fill-opacity="0"
         fill-rule="evenodd"
         stroke="none"
         id="path1244" /><path
         d="M 68.85,68.85 V 31.1 H 31.1 V 68.85 H 68.85 M 76.4,76.4 H 23.55 V 23.55 H 76.4 V 76.4"
         fill="#cccccc"
         fill-opacity="0"
         fill-rule="evenodd"
         stroke="none"
         id="path1246" /><path
         d="M 68.85,68.85 H 31.1 V 31.1 h 37.75 v 37.75"
         fill="#ffffff"
         fill-opacity="0"
         fill-rule="evenodd"
         stroke="none"
         id="path1248" /><path
         d="M 96.05,96.05 V 3.95 H 3.95 v 92.1 h 92.1 M 100,100 H 0 V 0 h 100 v 100"
         fill="#000000"
         fill-opacity="0"
         fill-rule="evenodd"
         stroke="none"
         id="path1250" /><path
         d="M 0,50 H 50 L 0,0 M 50,50 V 0 m 0,100 V 50 L 0,100 M 100,50 H 50 l 50,50 M 50,50 100,0"
         fill="none"
         stroke="#000000"
         stroke-linecap="round"
         stroke-linejoin="round"
         stroke-opacity="0"
         stroke-width="0.05"
         id="path1252" /></g><g
       id="sprite0"
       transform="translate(-65.35,-33.3)"><use
         height="787.70001"
         transform="translate(65.35,33.3)"
         width="534.75"
         xlink:href="#shape1"
         id="use1255" /></g><g
       id="shape1"
       transform="translate(-65.35,-33.3)"><path
         d="m 422,84.85 q 10.65,0 19.3,9.65 9.45,10.85 9.45,24.25 0,13.2 -9.45,22.8 -7.5,8.5 -14.6,10.8 -1.4,7.35 -7.25,12.05 0,2.55 -2.15,3.75 -3.7,3.5 -10.05,3.5 h -2.4 V 323.4 l 18.35,5 q 54.15,19.5 98.8,63.7 78.1,78.3 78.1,189.4 0,110.8 -78.1,188.6 -31.55,31.6 -68.95,50.9 H 212.15 Q 174.75,801.7 143.5,770.1 65.35,692.3 65.35,581.5 q 0,-111.1 78.15,-189.4 45.6,-45.85 104.65,-64.9 3.8,-1.45 8.75,-2.65 v -152.9 h -1.45 q -8.2,0 -14.1,-7.25 -3.8,-4.7 -4.95,-12.05 -10.6,-1.15 -18.15,-10.8 -8.4,-9.6 -8.4,-22.8 0,-13.4 8.4,-24.25 8.45,-9.65 20.25,-9.65 h 26.85 V 67.95 Q 265.35,33.3 299,33.3 h 62.8 q 33.4,0 33.4,34.65 v 16.9 H 422"
         fill="#ffffff"
         fill-rule="evenodd"
         stroke="none"
         id="path1258" /></g><g
       id="shape0-3"><path
         d="M 100,100 H 0 V 0 h 100 v 100"
         fill="#00cc66"
         fill-opacity="0"
         fill-rule="evenodd"
         stroke="none"
         id="path8" /><path
         d="M 84.3,84.3 V 15.7 H 15.7 v 68.6 h 68.6 m 7.95,7.95 H 7.75 V 7.75 h 84.5 v 84.5"
         fill="#666666"
         fill-opacity="0"
         fill-rule="evenodd"
         stroke="none"
         id="path10" /><path
         d="M 84.3,84.3 H 15.7 V 15.7 H 84.3 V 84.3 M 76.4,76.4 V 23.55 H 23.55 V 76.4 H 76.4"
         fill="#999999"
         fill-opacity="0"
         fill-rule="evenodd"
         stroke="none"
         id="path12" /><path
         d="M 92.25,92.25 V 7.75 H 7.75 v 84.5 h 84.5 m 3.8,3.8 H 3.95 V 3.95 h 92.1 v 92.1"
         fill="#333333"
         fill-opacity="0"
         fill-rule="evenodd"
         stroke="none"
         id="path14" /><path
         d="M 68.85,68.85 V 31.1 H 31.1 V 68.85 H 68.85 M 76.4,76.4 H 23.55 V 23.55 H 76.4 V 76.4"
         fill="#cccccc"
         fill-opacity="0"
         fill-rule="evenodd"
         stroke="none"
         id="path16" /><path
         d="M 68.85,68.85 H 31.1 V 31.1 h 37.75 v 37.75"
         fill="#ffffff"
         fill-opacity="0"
         fill-rule="evenodd"
         stroke="none"
         id="path18" /><path
         d="M 96.05,96.05 V 3.95 H 3.95 v 92.1 h 92.1 M 100,100 H 0 V 0 h 100 v 100"
         fill="#000000"
         fill-opacity="0"
         fill-rule="evenodd"
         stroke="none"
         id="path20" /><path
         d="M 0,50 H 50 L 0,0 M 50,50 V 0 m 0,100 V 50 L 0,100 M 100,50 H 50 l 50,50 M 50,50 100,0"
         fill="none"
         stroke="#000000"
         stroke-linecap="round"
         stroke-linejoin="round"
         stroke-opacity="0"
         stroke-width="0.05"
         id="path22" /></g><g
       id="sprite0-2"
       transform="translate(-10.4,-40.1)"><use
         height="956.84998"
         transform="translate(10.4,40.1)"
         width="587.5"
         xlink:href="#shape1-4"
         id="use25" /></g><g
       id="shape1-4"
       transform="translate(-10.4,-40.1)"><path
         d="m 368.3,90.65 q -16.45,74 42.3,100 -69.15,82.5 -68.3,183.6 6.95,145.3 1.05,282.9 -31.7,-13.65 -66.15,-15.15 -14.8,-89.45 -4.5,-181 3.2,-82.25 -15.45,-166.45 -21.5,-57.85 8.9,-98 7.2,38.2 40.55,44.65 34.3,-4.95 24.3,-79.6 -22.5,-70.95 -19.7,-121.5 17.1,26.05 53.8,27.1 13.2,7.4 3.2,23.45 m 128.9,149.9 q -80.7,125 -54.9,175.75 37.6,69.45 77.1,15 14.25,-18.65 11.2,-41.45 51.65,63.55 -5.8,102.15 -110.25,61 -97.45,140.45 16.25,59 5.45,95.65 -12.6,-15.8 -26.3,-28.2 l -8,-7.15 Q 384.4,676.5 379.85,641.35 366.4,530 372.25,416.3 q 3.7,-98 82.25,-188.1 40.5,-54.2 22.75,-110 52.05,50.35 19.95,122.35 m -486.8,7.2 q 1,-28.6 48.95,-51.45 -23.45,44.9 -6.9,56 118.65,98.75 100.25,233.9 -17.8,127.1 5.4,206.35 l 3.3,9.7 q -37.75,40.4 -37.75,97.25 0,57.5 38.3,97.65 38.9,40.8 94,40.8 55.15,0 93.55,-40.8 30.35,-31.7 30.75,-77.7 -3,-37.3 -26.45,-60.75 5.25,16.95 5.25,36.25 0,46.35 -30.4,79.35 -29.95,33 -72.7,33 -42.75,0 -73.15,-33 -29.9,-33 -29.9,-79.35 0,-42.8 25.4,-74.2 44.65,-58.35 109.55,-54.65 51,5.15 88.95,43.35 49.45,49.25 49.45,119.15 0,69.4 -49.45,119.1 -49.45,49.25 -118.85,49.25 -69.9,0 -118.95,-49.25 -20.4,-20.65 -32.3,-44.25 -25.85,-40.2 -31.05,-80.3 -16,-135.85 1.55,-305.5 9.5,-160.3 -32.15,-214.8 -31.5,-21.9 -34.65,-55.1 m 164.4,119.75 -0.4,-2.6 q 1.05,-85.45 -11.8,-99.8 -56.35,-35.55 -21.65,-88.55 58.6,-50.75 48.85,-94.8 40.3,55.8 20.2,119.75 -31.3,99.4 22.7,130 l 15,311.35 q -29.25,2.6 -60.55,14.1 L 174.8,367.5 m 376,364.75 q 2.4,211.5 -141.2,231.45 79.35,-74.15 83.55,-203.05 4.7,-128.85 104.75,-204.8 -47.95,69.4 -47.1,176.4"
         fill="#ffffff"
         fill-rule="evenodd"
         stroke="none"
         id="path28" /></g><g
       id="shape0-0"><path
         d="M 100,100 H 0 V 0 h 100 v 100"
         fill="#00cc66"
         fill-opacity="0"
         fill-rule="evenodd"
         stroke="none"
         id="path8-4" /><path
         d="M 84.3,84.3 V 15.7 H 15.7 v 68.6 h 68.6 m 7.95,7.95 H 7.75 V 7.75 h 84.5 v 84.5"
         fill="#666666"
         fill-opacity="0"
         fill-rule="evenodd"
         stroke="none"
         id="path10-3" /><path
         d="M 84.3,84.3 H 15.7 V 15.7 H 84.3 V 84.3 M 76.4,76.4 V 23.55 H 23.55 V 76.4 H 76.4"
         fill="#999999"
         fill-opacity="0"
         fill-rule="evenodd"
         stroke="none"
         id="path12-7" /><path
         d="M 92.25,92.25 V 7.75 H 7.75 v 84.5 h 84.5 m 3.8,3.8 H 3.95 V 3.95 h 92.1 v 92.1"
         fill="#333333"
         fill-opacity="0"
         fill-rule="evenodd"
         stroke="none"
         id="path14-6" /><path
         d="M 68.85,68.85 V 31.1 H 31.1 V 68.85 H 68.85 M 76.4,76.4 H 23.55 V 23.55 H 76.4 V 76.4"
         fill="#cccccc"
         fill-opacity="0"
         fill-rule="evenodd"
         stroke="none"
         id="path16-4" /><path
         d="M 68.85,68.85 H 31.1 V 31.1 h 37.75 v 37.75"
         fill="#ffffff"
         fill-opacity="0"
         fill-rule="evenodd"
         stroke="none"
         id="path18-3" /><path
         d="M 96.05,96.05 V 3.95 H 3.95 v 92.1 h 92.1 M 100,100 H 0 V 0 h 100 v 100"
         fill="#000000"
         fill-opacity="0"
         fill-rule="evenodd"
         stroke="none"
         id="path20-2" /><path
         d="M 0,50 H 50 L 0,0 M 50,50 V 0 m 0,100 V 50 L 0,100 M 100,50 H 50 l 50,50 M 50,50 100,0"
         fill="none"
         stroke="#000000"
         stroke-linecap="round"
         stroke-linejoin="round"
         stroke-opacity="0"
         stroke-width="0.05"
         id="path22-5" /></g><g
       id="sprite0-6"
       transform="translate(-65.35,-33.3)"><use
         height="787.70001"
         transform="translate(65.35,33.3)"
         width="534.75"
         xlink:href="#shape1-6"
         id="use25-8" /></g><g
       id="shape1-6"
       transform="translate(-65.35,-33.3)"><path
         d="m 422,84.85 q 10.65,0 19.3,9.65 9.45,10.85 9.45,24.25 0,13.2 -9.45,22.8 -7.5,8.5 -14.6,10.8 -1.4,7.35 -7.25,12.05 0,2.55 -2.15,3.75 -3.7,3.5 -10.05,3.5 h -2.4 V 323.4 l 18.35,5 q 54.15,19.5 98.8,63.7 78.1,78.3 78.1,189.4 0,110.8 -78.1,188.6 -31.55,31.6 -68.95,50.9 H 212.15 Q 174.75,801.7 143.5,770.1 65.35,692.3 65.35,581.5 q 0,-111.1 78.15,-189.4 45.6,-45.85 104.65,-64.9 3.8,-1.45 8.75,-2.65 v -152.9 h -1.45 q -8.2,0 -14.1,-7.25 -3.8,-4.7 -4.95,-12.05 -10.6,-1.15 -18.15,-10.8 -8.4,-9.6 -8.4,-22.8 0,-13.4 8.4,-24.25 8.45,-9.65 20.25,-9.65 h 26.85 V 67.95 Q 265.35,33.3 299,33.3 h 62.8 q 33.4,0 33.4,34.65 v 16.9 H 422"
         fill="#ffffff"
         fill-rule="evenodd"
         stroke="none"
         id="path28-0" /></g><g
       id="shape0-1"><path
         d="M 100,100 H 0 V 0 h 100 v 100"
         fill="#00cc66"
         fill-opacity="0"
         fill-rule="evenodd"
         stroke="none"
         id="path8-9" /><path
         d="M 84.3,84.3 V 15.7 H 15.7 v 68.6 h 68.6 m 7.95,7.95 H 7.75 V 7.75 h 84.5 v 84.5"
         fill="#666666"
         fill-opacity="0"
         fill-rule="evenodd"
         stroke="none"
         id="path10-8" /><path
         d="M 84.3,84.3 H 15.7 V 15.7 H 84.3 V 84.3 M 76.4,76.4 V 23.55 H 23.55 V 76.4 H 76.4"
         fill="#999999"
         fill-opacity="0"
         fill-rule="evenodd"
         stroke="none"
         id="path12-8" /><path
         d="M 92.25,92.25 V 7.75 H 7.75 v 84.5 h 84.5 m 3.8,3.8 H 3.95 V 3.95 h 92.1 v 92.1"
         fill="#333333"
         fill-opacity="0"
         fill-rule="evenodd"
         stroke="none"
         id="path14-1" /><path
         d="M 68.85,68.85 V 31.1 H 31.1 V 68.85 H 68.85 M 76.4,76.4 H 23.55 V 23.55 H 76.4 V 76.4"
         fill="#cccccc"
         fill-opacity="0"
         fill-rule="evenodd"
         stroke="none"
         id="path16-5" /><path
         d="M 68.85,68.85 H 31.1 V 31.1 h 37.75 v 37.75"
         fill="#ffffff"
         fill-opacity="0"
         fill-rule="evenodd"
         stroke="none"
         id="path18-2" /><path
         d="M 96.05,96.05 V 3.95 H 3.95 v 92.1 h 92.1 M 100,100 H 0 V 0 h 100 v 100"
         fill="#000000"
         fill-opacity="0"
         fill-rule="evenodd"
         stroke="none"
         id="path20-9" /><path
         d="M 0,50 H 50 L 0,0 M 50,50 V 0 m 0,100 V 50 L 0,100 M 100,50 H 50 l 50,50 M 50,50 100,0"
         fill="none"
         stroke="#000000"
         stroke-linecap="round"
         stroke-linejoin="round"
         stroke-opacity="0"
         stroke-width="0.05"
         id="path22-7" /></g><g
       id="sprite0-9"
       transform="translate(-10.4,-40.1)"><use
         height="956.84998"
         transform="translate(10.4,40.1)"
         width="587.5"
         xlink:href="#shape1-3"
         id="use25-5" /></g><g
       id="shape1-3"
       transform="translate(-10.4,-40.1)"><path
         d="m 368.3,90.65 q -16.45,74 42.3,100 -69.15,82.5 -68.3,183.6 6.95,145.3 1.05,282.9 -31.7,-13.65 -66.15,-15.15 -14.8,-89.45 -4.5,-181 3.2,-82.25 -15.45,-166.45 -21.5,-57.85 8.9,-98 7.2,38.2 40.55,44.65 34.3,-4.95 24.3,-79.6 -22.5,-70.95 -19.7,-121.5 17.1,26.05 53.8,27.1 13.2,7.4 3.2,23.45 m 128.9,149.9 q -80.7,125 -54.9,175.75 37.6,69.45 77.1,15 14.25,-18.65 11.2,-41.45 51.65,63.55 -5.8,102.15 -110.25,61 -97.45,140.45 16.25,59 5.45,95.65 -12.6,-15.8 -26.3,-28.2 l -8,-7.15 Q 384.4,676.5 379.85,641.35 366.4,530 372.25,416.3 q 3.7,-98 82.25,-188.1 40.5,-54.2 22.75,-110 52.05,50.35 19.95,122.35 m -486.8,7.2 q 1,-28.6 48.95,-51.45 -23.45,44.9 -6.9,56 118.65,98.75 100.25,233.9 -17.8,127.1 5.4,206.35 l 3.3,9.7 q -37.75,40.4 -37.75,97.25 0,57.5 38.3,97.65 38.9,40.8 94,40.8 55.15,0 93.55,-40.8 30.35,-31.7 30.75,-77.7 -3,-37.3 -26.45,-60.75 5.25,16.95 5.25,36.25 0,46.35 -30.4,79.35 -29.95,33 -72.7,33 -42.75,0 -73.15,-33 -29.9,-33 -29.9,-79.35 0,-42.8 25.4,-74.2 44.65,-58.35 109.55,-54.65 51,5.15 88.95,43.35 49.45,49.25 49.45,119.15 0,69.4 -49.45,119.1 -49.45,49.25 -118.85,49.25 -69.9,0 -118.95,-49.25 -20.4,-20.65 -32.3,-44.25 -25.85,-40.2 -31.05,-80.3 -16,-135.85 1.55,-305.5 9.5,-160.3 -32.15,-214.8 -31.5,-21.9 -34.65,-55.1 m 164.4,119.75 -0.4,-2.6 q 1.05,-85.45 -11.8,-99.8 -56.35,-35.55 -21.65,-88.55 58.6,-50.75 48.85,-94.8 40.3,55.8 20.2,119.75 -31.3,99.4 22.7,130 l 15,311.35 q -29.25,2.6 -60.55,14.1 L 174.8,367.5 m 376,364.75 q 2.4,211.5 -141.2,231.45 79.35,-74.15 83.55,-203.05 4.7,-128.85 104.75,-204.8 -47.95,69.4 -47.1,176.4"
         fill="#ffffff"
         fill-rule="evenodd"
         stroke="none"
         id="path28-8" /></g><filter
       id="mask-powermask-path-effect4958_inverse"
       inkscape:label="filtermask-powermask-path-effect4958"
       style="color-interpolation-filters:sRGB"
       height="100"
       width="100"
       x="-50"
       y="-50"><feColorMatrix
         id="mask-powermask-path-effect4958_primitive1"
         values="1"
         type="saturate"
         result="fbSourceGraphic" /><feColorMatrix
         id="mask-powermask-path-effect4958_primitive2"
         values="-1 0 0 0 1 0 -1 0 0 1 0 0 -1 0 1 0 0 0 1 0 "
         in="fbSourceGraphic" /></filter><g
       id="shape0-8"><path
         d="M 100,100 H 0 V 0 h 100 v 100"
         fill="#00cc66"
         fill-opacity="0"
         fill-rule="evenodd"
         stroke="none"
         id="path8-6" /><path
         d="M 84.3,84.3 V 15.7 H 15.7 v 68.6 h 68.6 m 7.95,7.95 H 7.75 V 7.75 h 84.5 v 84.5"
         fill="#666666"
         fill-opacity="0"
         fill-rule="evenodd"
         stroke="none"
         id="path10-5" /><path
         d="M 84.3,84.3 H 15.7 V 15.7 H 84.3 V 84.3 M 76.4,76.4 V 23.55 H 23.55 V 76.4 H 76.4"
         fill="#999999"
         fill-opacity="0"
         fill-rule="evenodd"
         stroke="none"
         id="path12-72" /><path
         d="M 92.25,92.25 V 7.75 H 7.75 v 84.5 h 84.5 m 3.8,3.8 H 3.95 V 3.95 h 92.1 v 92.1"
         fill="#333333"
         fill-opacity="0"
         fill-rule="evenodd"
         stroke="none"
         id="path14-9" /><path
         d="M 68.85,68.85 V 31.1 H 31.1 V 68.85 H 68.85 M 76.4,76.4 H 23.55 V 23.55 H 76.4 V 76.4"
         fill="#cccccc"
         fill-opacity="0"
         fill-rule="evenodd"
         stroke="none"
         id="path16-8" /><path
         d="M 68.85,68.85 H 31.1 V 31.1 h 37.75 v 37.75"
         fill="#ffffff"
         fill-opacity="0"
         fill-rule="evenodd"
         stroke="none"
         id="path18-7" /><path
         d="M 96.05,96.05 V 3.95 H 3.95 v 92.1 h 92.1 M 100,100 H 0 V 0 h 100 v 100"
         fill="#000000"
         fill-opacity="0"
         fill-rule="evenodd"
         stroke="none"
         id="path20-4" /><path
         d="M 0,50 H 50 L 0,0 M 50,50 V 0 m 0,100 V 50 L 0,100 M 100,50 H 50 l 50,50 M 50,50 100,0"
         fill="none"
         stroke="#000000"
         stroke-linecap="round"
         stroke-linejoin="round"
         stroke-opacity="0"
         stroke-width="0.05"
         id="path22-0" /></g><g
       id="sprite0-8"
       transform="translate(-65.35,-33.3)"><use
         height="787.70001"
         transform="translate(65.35,33.3)"
         width="534.75"
         xlink:href="#shape1-37"
         id="use25-0" /></g><g
       id="shape1-37"
       transform="translate(-65.35,-33.3)"><path
         d="m 422,84.85 q 10.65,0 19.3,9.65 9.45,10.85 9.45,24.25 0,13.2 -9.45,22.8 -7.5,8.5 -14.6,10.8 -1.4,7.35 -7.25,12.05 0,2.55 -2.15,3.75 -3.7,3.5 -10.05,3.5 h -2.4 V 323.4 l 18.35,5 q 54.15,19.5 98.8,63.7 78.1,78.3 78.1,189.4 0,110.8 -78.1,188.6 -31.55,31.6 -68.95,50.9 H 212.15 Q 174.75,801.7 143.5,770.1 65.35,692.3 65.35,581.5 q 0,-111.1 78.15,-189.4 45.6,-45.85 104.65,-64.9 3.8,-1.45 8.75,-2.65 v -152.9 h -1.45 q -8.2,0 -14.1,-7.25 -3.8,-4.7 -4.95,-12.05 -10.6,-1.15 -18.15,-10.8 -8.4,-9.6 -8.4,-22.8 0,-13.4 8.4,-24.25 8.45,-9.65 20.25,-9.65 h 26.85 V 67.95 Q 265.35,33.3 299,33.3 h 62.8 q 33.4,0 33.4,34.65 v 16.9 H 422"
         fill="#ffffff"
         fill-rule="evenodd"
         stroke="none"
         id="path28-7" /></g></defs><g
     id="use2"
     transform="matrix(5.1174413,0,0,5.1174413,0.127936,0.127936)"><path
       d="M 100,100 H 0 V 0 h 100 v 100"
       fill="#00cc66"
       fill-opacity="0"
       fill-rule="evenodd"
       stroke="none"
       id="path4709"
       style="display:inline" /><path
       d="M 84.3,84.3 V 15.7 H 15.7 v 68.6 h 68.6 m 7.95,7.95 H 7.75 V 7.75 h 84.5 v 84.5"
       fill="#666666"
       fill-opacity="0"
       fill-rule="evenodd"
       stroke="none"
       id="path4711" /><path
       d="M 84.3,84.3 H 15.7 V 15.7 H 84.3 V 84.3 M 76.4,76.4 V 23.55 H 23.55 V 76.4 H 76.4"
       fill="#999999"
       fill-opacity="0"
       fill-rule="evenodd"
       stroke="none"
       id="path4713" /><path
       d="M 92.25,92.25 V 7.75 H 7.75 v 84.5 h 84.5 m 3.8,3.8 H 3.95 V 3.95 h 92.1 v 92.1"
       fill="#333333"
       fill-opacity="0"
       fill-rule="evenodd"
       stroke="none"
       id="path4715" /><path
       d="M 68.85,68.85 V 31.1 H 31.1 V 68.85 H 68.85 M 76.4,76.4 H 23.55 V 23.55 H 76.4 V 76.4"
       fill="#cccccc"
       fill-opacity="0"
       fill-rule="evenodd"
       stroke="none"
       id="path4717" /><path
       d="M 68.85,68.85 H 31.1 V 31.1 h 37.75 v 37.75"
       fill="#ffffff"
       fill-opacity="0"
       fill-rule="evenodd"
       stroke="none"
       id="path4719" /><path
       d="M 96.05,96.05 V 3.95 H 3.95 v 92.1 h 92.1 M 100,100 H 0 V 0 h 100 v 100"
       fill="#000000"
       fill-opacity="0"
       fill-rule="evenodd"
       stroke="none"
       id="path4721" /><path
       d="M 0,50 H 50 L 0,0 M 50,50 V 0 m 0,100 V 50 L 0,100 M 100,50 H 50 l 50,50 M 50,50 100,0"
       fill="none"
       stroke="#000000"
       stroke-linecap="round"
       stroke-linejoin="round"
       stroke-opacity="0"
       stroke-width="0.05"
       id="path4723" /></g><g
     id="use2-30"
     transform="matrix(5.1174413,0,0,5.1174413,0.12793375,0.12793564)"><path
       d="M 100,100 H 0 V 0 h 100 v 100"
       fill="#00cc66"
       fill-opacity="0"
       fill-rule="evenodd"
       stroke="none"
       id="path942" /><path
       d="M 84.3,84.3 V 15.7 H 15.7 v 68.6 h 68.6 m 7.95,7.95 H 7.75 V 7.75 h 84.5 v 84.5"
       fill="#666666"
       fill-opacity="0"
       fill-rule="evenodd"
       stroke="none"
       id="path944" /><path
       d="M 84.3,84.3 H 15.7 V 15.7 H 84.3 V 84.3 M 76.4,76.4 V 23.55 H 23.55 V 76.4 H 76.4"
       fill="#999999"
       fill-opacity="0"
       fill-rule="evenodd"
       stroke="none"
       id="path946" /><path
       d="M 92.25,92.25 V 7.75 H 7.75 v 84.5 h 84.5 m 3.8,3.8 H 3.95 V 3.95 h 92.1 v 92.1"
       fill="#333333"
       fill-opacity="0"
       fill-rule="evenodd"
       stroke="none"
       id="path948" /><path
       d="M 68.85,68.85 V 31.1 H 31.1 V 68.85 H 68.85 M 76.4,76.4 H 23.55 V 23.55 H 76.4 V 76.4"
       fill="#cccccc"
       fill-opacity="0"
       fill-rule="evenodd"
       stroke="none"
       id="path950" /><path
       d="M 68.85,68.85 H 31.1 V 31.1 h 37.75 v 37.75"
       fill="#ffffff"
       fill-opacity="0"
       fill-rule="evenodd"
       stroke="none"
       id="path952" /><path
       d="M 96.05,96.05 V 3.95 H 3.95 v 92.1 h 92.1 M 100,100 H 0 V 0 h 100 v 100"
       fill="#000000"
       fill-opacity="0"
       fill-rule="evenodd"
       stroke="none"
       id="path954" /><path
       d="M 0,50 H 50 L 0,0 M 50,50 V 0 m 0,100 V 50 L 0,100 M 100,50 H 50 l 50,50 M 50,50 100,0"
       fill="none"
       stroke="#000000"
       stroke-linecap="round"
       stroke-linejoin="round"
       stroke-opacity="0"
       stroke-width="0.05"
       id="path956" /></g><g
     id="use4-5"
     transform="matrix(0.59930035,0,0,0.59890055,56.597792,0.05169504)"><g
       id="use934"><path
         id="path938"
         style="display:inline;fill:#ffffff"
         d="M 299.00078 33.298426 C 276.56747 33.298426 265.35151 44.848531 265.35151 67.948508 L 265.35151 84.851225 L 238.50054 84.851225 C 230.63388 84.851225 223.88239 88.067743 218.24906 94.501069 C 212.64907 101.7344 209.8506 109.81791 209.8506 118.75124 C 209.8506 127.55123 212.64907 135.15018 218.24906 141.55017 C 223.28239 147.9835 229.33182 151.58455 236.39848 152.35122 C 237.16515 157.25121 238.81558 161.26796 241.34892 164.40129 C 245.28224 169.23462 249.98398 171.6509 255.45065 171.6509 L 256.9009 171.6509 L 256.9009 324.55152 C 253.60091 325.35152 250.6838 326.23294 248.15047 327.19961 C 208.78384 339.89959 173.90041 361.5338 143.50044 392.10043 C 91.400493 444.30038 65.349414 507.43363 65.349414 581.50023 C 65.349414 655.36682 91.400493 718.23441 143.50044 770.10103 C 164.33375 791.16767 187.21815 808.13494 212.15146 821.00159 L 453.05086 821.00159 C 477.98416 808.13494 500.96513 791.16767 521.99844 770.10103 C 574.06506 718.23441 600.10058 655.36682 600.10058 581.50023 C 600.10058 507.43363 574.06506 444.30038 521.99844 392.10043 C 492.2318 362.63379 459.30156 341.39971 423.2016 328.39972 L 404.85012 323.40033 L 404.85012 171.6509 L 407.24875 171.6509 C 411.48208 171.6509 414.83287 170.48172 417.29953 168.14839 C 418.73286 167.34839 419.45048 166.10129 419.45048 164.40129 C 423.35047 161.26796 425.76518 157.25121 426.69851 152.35122 C 431.43184 150.81788 436.29888 147.21683 441.29887 141.55017 C 447.59886 135.15018 450.75 127.55123 450.75 118.75124 C 450.75 109.81791 447.59886 101.7344 441.29887 94.501069 C 435.53221 88.067743 429.09901 84.851225 421.99902 84.851225 L 395.20019 84.851225 L 395.20019 67.948508 C 395.20019 44.848531 384.06526 33.298426 361.79861 33.298426 L 299.00078 33.298426 z M 336.57063 406.04526 C 340.77979 412.46174 347.40059 415.79846 356.43429 416.05709 C 359.68346 417.87981 360.0788 420.76872 357.61731 424.72206 C 353.56814 442.94929 358.77318 455.26385 373.23448 461.66801 C 356.21323 481.98892 347.80704 504.60156 348.01627 529.50391 C 349.72701 565.29333 349.85637 600.13531 348.40409 634.02812 C 340.60114 630.66593 332.46093 628.79814 323.98108 628.42867 C 320.33806 606.39588 319.78364 584.10487 322.31898 561.55482 C 323.10666 541.2955 321.20641 520.79505 316.61572 500.05541 C 311.3235 485.80615 312.41785 473.73925 319.9008 463.84975 C 321.67308 473.25894 326.66359 478.75609 334.87269 480.34481 C 343.31562 479.12556 346.30623 469.3228 343.84474 450.93546 C 338.30637 433.45948 335.88141 418.49643 336.57063 406.04526 z M 291.71038 421.43478 C 301.63021 435.1791 304.11785 449.92423 299.17025 465.67601 C 291.46576 490.15962 294.25707 506.17278 307.54916 513.70999 L 313.08947 628.745 C 305.88959 629.38542 298.43716 631.1205 290.73267 633.95311 L 286.17332 527.0091 L 286.02341 526.05031 C 286.28186 505.00278 284.83239 492.71071 281.66937 489.1761 C 267.79884 480.41964 265.13363 469.51454 273.67502 456.4599 C 288.09939 443.95947 294.11033 432.28492 291.71038 421.43478 z M 397.84325 434.90021 C 410.65534 447.30212 413.11327 462.37214 405.21187 480.10675 C 385.34759 510.896 378.59017 532.53975 384.94083 545.04019 C 394.19606 562.14669 403.68536 563.99274 413.40827 550.58094 C 416.91591 545.98718 418.29471 540.88238 417.54396 535.26642 C 430.25759 550.91967 429.54083 563.50038 415.39953 573.0081 C 388.26153 588.03326 376.26936 605.33042 379.42007 624.90006 C 383.42001 639.43259 384.0893 651.21411 381.43088 660.24152 C 378.3294 656.34976 375.09455 652.87633 371.7223 649.82203 L 368.76637 647.18048 C 365.29566 643.17787 363.00333 636.84854 361.88335 628.1906 C 358.57264 600.76354 357.63737 573.04609 359.07734 545.04019 C 359.9881 520.90142 370.10973 497.73398 389.44478 475.54109 C 399.41385 462.19087 402.21241 448.64453 397.84325 434.90021 z M 243.54549 463.75517 C 237.77328 474.81467 236.92316 481.7133 240.99694 484.44738 C 270.2026 508.77089 282.54192 537.57617 278.01276 570.8655 C 273.6313 602.17201 274.2966 627.58508 280.00728 647.10547 L 281.22614 650.68951 C 271.93399 660.64059 267.28736 672.61829 267.28736 686.62124 C 267.28736 700.78429 272.00067 712.81021 281.4282 722.69972 C 291.00343 732.74933 302.57054 737.77617 316.13339 737.77617 C 329.70854 737.77617 341.22347 732.74933 350.67562 722.69972 C 358.14626 714.89156 361.93154 705.32196 362.03 693.99151 C 361.29155 684.804 358.03496 677.32411 352.26276 671.54804 C 353.55504 675.72307 354.20187 680.18787 354.20187 684.94173 C 354.20187 696.35838 350.46079 706.12815 342.97784 714.25651 C 335.60566 722.38487 326.65628 726.45008 316.13339 726.45008 C 305.61049 726.45008 296.60893 722.38487 289.12598 714.25651 C 281.76611 706.12815 278.08772 696.35838 278.08772 684.94173 C 278.08772 674.39949 281.21169 665.25921 287.46389 657.52495 C 298.45447 643.15253 311.93959 636.4236 327.9147 637.33496 C 340.46834 638.60348 351.41435 643.94144 360.75573 653.35064 C 372.92783 665.4816 379.0127 680.15601 379.0127 697.37336 C 379.0127 714.46755 372.92783 729.13471 360.75573 741.37652 C 348.58363 753.50748 333.95597 759.57393 316.87318 759.57393 C 299.66732 759.57393 285.02842 753.50748 272.95478 741.37652 C 267.93333 736.29014 263.95599 730.84121 261.02681 725.0282 C 254.66384 715.12638 250.84485 705.23514 249.56488 695.35795 C 245.62648 661.89619 245.81528 624.27227 250.1352 582.4851 C 252.47362 543.00097 248.51803 516.5483 238.26589 503.12419 C 230.51218 497.72991 226.2464 490.94224 225.47103 482.76461 C 225.71717 475.72003 231.74261 469.38345 243.54549 463.75517 z M 442.39064 596.59951 C 430.58776 613.6937 424.79134 635.41868 425.00057 661.77427 C 425.59133 713.86968 408.2133 742.37508 372.86621 747.28905 C 392.39818 729.02486 402.68215 704.01864 403.71598 672.26876 C 404.87289 640.53121 417.76336 615.30706 442.39064 596.59951 z " /></g></g><g
     id="use2-3"
     style="fill:#000000"
     transform="matrix(1.7491254,0,0,1.7491254,168.54373,252.22809)"><path
       d="M 100,100 H 0 V 0 h 100 v 100"
       fill="#00cc66"
       fill-opacity="0"
       fill-rule="evenodd"
       stroke="none"
       id="path4735" /><path
       d="M 84.3,84.3 V 15.7 H 15.7 v 68.6 h 68.6 m 7.95,7.95 H 7.75 V 7.75 h 84.5 v 84.5"
       fill="#666666"
       fill-opacity="0"
       fill-rule="evenodd"
       stroke="none"
       id="path4737" /><path
       d="M 84.3,84.3 H 15.7 V 15.7 H 84.3 V 84.3 M 76.4,76.4 V 23.55 H 23.55 V 76.4 H 76.4"
       fill="#999999"
       fill-opacity="0"
       fill-rule="evenodd"
       stroke="none"
       id="path4739" /><path
       d="M 92.25,92.25 V 7.75 H 7.75 v 84.5 h 84.5 m 3.8,3.8 H 3.95 V 3.95 h 92.1 v 92.1"
       fill="#333333"
       fill-opacity="0"
       fill-rule="evenodd"
       stroke="none"
       id="path4741" /><path
       d="M 68.85,68.85 V 31.1 H 31.1 V 68.85 H 68.85 M 76.4,76.4 H 23.55 V 23.55 H 76.4 V 76.4"
       fill="#cccccc"
       fill-opacity="0"
       fill-rule="evenodd"
       stroke="none"
       id="path4743" /><path
       d="M 68.85,68.85 H 31.1 V 31.1 h 37.75 v 37.75"
       fill="#ffffff"
       fill-opacity="0"
       fill-rule="evenodd"
       stroke="none"
       id="path4745" /><path
       d="M 96.05,96.05 V 3.95 H 3.95 v 92.1 h 92.1 M 100,100 H 0 V 0 h 100 v 100"
       fill="#000000"
       fill-opacity="0"
       fill-rule="evenodd"
       stroke="none"
       id="path4747" /><path
       d="M 0,50 H 50 L 0,0 M 50,50 V 0 m 0,100 V 50 L 0,100 M 100,50 H 50 l 50,50 M 50,50 100,0"
       fill="none"
       stroke="#000000"
       stroke-linecap="round"
       stroke-linejoin="round"
       stroke-opacity="0"
       stroke-width="0.05"
       id="path4749"
       style="display:inline" /></g><g
     id="use4-7"
     transform="matrix(0.2212766,0,0,0.2212766,189.42185,234.35902)"
     style="display:inline;fill:#000000"><g
       id="use4727"
       style="fill:#000000" /></g></svg>
