<?xml version="1.0" encoding="UTF-8" standalone="no"?>
<svg
   height="512"
   width="512"
   version="1.1"
   id="svg33"
   sodipodi:docname="potion_magicka.svg"
   inkscape:version="1.2.1 (9c6d41e410, 2022-07-14)"
   inkscape:export-filename="potion_magicka.png"
   inkscape:export-xdpi="96"
   inkscape:export-ydpi="96"
   xmlns:inkscape="http://www.inkscape.org/namespaces/inkscape"
   xmlns:sodipodi="http://sodipodi.sourceforge.net/DTD/sodipodi-0.dtd"
   xmlns:xlink="http://www.w3.org/1999/xlink"
   xmlns="http://www.w3.org/2000/svg"
   xmlns:svg="http://www.w3.org/2000/svg">
  <sodipodi:namedview
     id="namedview35"
     pagecolor="#ffffff"
     bordercolor="#000000"
     borderopacity="0.25"
     inkscape:showpageshadow="2"
     inkscape:pageopacity="0.0"
     inkscape:pagecheckerboard="true"
     inkscape:deskcolor="#d1d1d1"
     showgrid="false"
     inkscape:zoom="1.4183568"
     inkscape:cx="267.91566"
     inkscape:cy="314.8009"
     inkscape:window-width="2560"
     inkscape:window-height="1351"
     inkscape:window-x="2391"
     inkscape:window-y="-9"
     inkscape:window-maximized="1"
     inkscape:current-layer="svg33" />
  <defs
     id="defs31">
    <g
       id="shape0">
      <path
         d="M 100,100 H 0 V 0 h 100 v 100"
         fill="#00cc66"
         fill-opacity="0"
         fill-rule="evenodd"
         stroke="none"
         id="path8" />
      <path
         d="M 84.3,84.3 V 15.7 H 15.7 v 68.6 h 68.6 m 7.95,7.95 H 7.75 V 7.75 h 84.5 v 84.5"
         fill="#666666"
         fill-opacity="0"
         fill-rule="evenodd"
         stroke="none"
         id="path10" />
      <path
         d="M 84.3,84.3 H 15.7 V 15.7 H 84.3 V 84.3 M 76.4,76.4 V 23.55 H 23.55 V 76.4 H 76.4"
         fill="#999999"
         fill-opacity="0"
         fill-rule="evenodd"
         stroke="none"
         id="path12" />
      <path
         d="M 92.25,92.25 V 7.75 H 7.75 v 84.5 h 84.5 m 3.8,3.8 H 3.95 V 3.95 h 92.1 v 92.1"
         fill="#333333"
         fill-opacity="0"
         fill-rule="evenodd"
         stroke="none"
         id="path14" />
      <path
         d="M 68.85,68.85 V 31.1 H 31.1 V 68.85 H 68.85 M 76.4,76.4 H 23.55 V 23.55 H 76.4 V 76.4"
         fill="#cccccc"
         fill-opacity="0"
         fill-rule="evenodd"
         stroke="none"
         id="path16" />
      <path
         d="M 68.85,68.85 H 31.1 V 31.1 h 37.75 v 37.75"
         fill="#ffffff"
         fill-opacity="0"
         fill-rule="evenodd"
         stroke="none"
         id="path18" />
      <path
         d="M 96.05,96.05 V 3.95 H 3.95 v 92.1 h 92.1 M 100,100 H 0 V 0 h 100 v 100"
         fill="#000000"
         fill-opacity="0"
         fill-rule="evenodd"
         stroke="none"
         id="path20" />
      <path
         d="M 0,50 H 50 L 0,0 M 50,50 V 0 m 0,100 V 50 L 0,100 M 100,50 H 50 l 50,50 M 50,50 100,0"
         fill="none"
         stroke="#000000"
         stroke-linecap="round"
         stroke-linejoin="round"
         stroke-opacity="0"
         stroke-width="0.05"
         id="path22" />
    </g>
    <g
       id="sprite0"
       transform="translate(-47.45,-25.05)">
      <use
         height="863.15002"
         transform="translate(47.45,25.05)"
         width="608.90002"
         xlink:href="#shape1"
         id="use25" />
    </g>
    <g
       id="shape1"
       transform="translate(-47.45,-25.05)">
      <path
         d="m 186.5,558.65 v 64.55 q 91.95,-76.05 181.5,-8.7 81.55,62.2 160.75,8.7 V 558.65 Q 449.55,612.1 368,550.3 278.45,482.2 186.5,558.65 m 0,145.4 V 769 q 91.95,-76.85 181.5,-9.15 81.55,62.6 160.75,9.15 V 704.05 Q 449.55,757.5 368,695.3 278.45,627.55 186.5,704.05 M 656.35,580.8 v 160.85 q 0,90.3 -53.5,125.2 -32.9,21.35 -86.35,21.35 H 185.75 q -138.3,0 -138.3,-146.55 V 580.8 Q 45.9,540.05 151.3,451.7 188.9,417.6 243.15,378 v -42 h -1.2 q -12.25,0 -21,-9.15 -7.1,-6.7 -7.1,-21.75 0,-10.3 7.1,-19.05 8.75,-7.1 21,-7.1 h 1.2 V 211.6 h -1.2 q -12.25,0 -21,-8.7 -5.5,-5.55 -7.1,-14.7 -14.65,-1.15 -26.15,-13 -11.9,-11.5 -11.9,-27.35 0,-16.65 11.9,-29.3 13.1,-11.9 29.3,-11.9 h 39.25 V 80.1 q 0,-55.05 47.9,-55.05 h 91.1 q 48,0 48,55.05 v 26.55 h 38 q 15.85,0 27.7,11.9 13.1,12.65 13.1,29.3 0,15.85 -13.1,27.35 -10.3,10.25 -22.2,13 -1.1,9.15 -8.3,14.7 -1.55,2.8 -4.7,4.35 -5.6,4.35 -14.65,4.35 h -2.85 v 67.35 h 2.85 q 11.8,0 19.35,7.1 8.3,8.75 8.3,19.05 0,15.05 -8.3,21.75 Q 470.9,336 459.1,336 h -2.85 v 42 q 53.9,39.6 93.5,73.7 31.35,26.15 53.1,48.3 51.5,51.5 53.5,80.8"
         fill="#ffffff"
         fill-rule="evenodd"
         stroke="none"
         id="path28" />
    </g>
  </defs>
  <g
     inkscape:groupmode="layer"
     id="layer1"
     inkscape:label="Layer 1">
    <path
       d="m 186.5,558.65 v 64.55 q 91.95,-76.05 181.5,-8.7 81.55,62.2 160.75,8.7 V 558.65 Q 449.55,612.1 368,550.3 278.45,482.2 186.5,558.65 m 0,145.4 V 769 q 91.95,-76.85 181.5,-9.15 81.55,62.6 160.75,9.15 V 704.05 Q 449.55,757.5 368,695.3 278.45,627.55 186.5,704.05 M 656.35,580.8 v 160.85 q 0,90.3 -53.5,125.2 -32.9,21.35 -86.35,21.35 H 185.75 q -138.3,0 -138.3,-146.55 V 580.8 Q 45.9,540.05 151.3,451.7 188.9,417.6 243.15,378 v -42 h -1.2 q -12.25,0 -21,-9.15 -7.1,-6.7 -7.1,-21.75 0,-10.3 7.1,-19.05 8.75,-7.1 21,-7.1 h 1.2 V 211.6 h -1.2 q -12.25,0 -21,-8.7 -5.5,-5.55 -7.1,-14.7 -14.65,-1.15 -26.15,-13 -11.9,-11.5 -11.9,-27.35 0,-16.65 11.9,-29.3 13.1,-11.9 29.3,-11.9 h 39.25 V 80.1 q 0,-55.05 47.9,-55.05 h 91.1 q 48,0 48,55.05 v 26.55 h 38 q 15.85,0 27.7,11.9 13.1,12.65 13.1,29.3 0,15.85 -13.1,27.35 -10.3,10.25 -22.2,13 -1.1,9.15 -8.3,14.7 -1.55,2.8 -4.7,4.35 -5.6,4.35 -14.65,4.35 h -2.85 v 67.35 h 2.85 q 11.8,0 19.35,7.1 8.3,8.75 8.3,19.05 0,15.05 -8.3,21.75 Q 470.9,336 459.1,336 h -2.85 v 42 q 53.9,39.6 93.5,73.7 31.35,26.15 53.1,48.3 51.5,51.5 53.5,80.8"
       fill="#ffffff"
       fill-rule="evenodd"
       stroke="none"
       id="path253"
       transform="matrix(0.54612694,0,0,0.54612694,63.304468,6.1292154)" />
  </g>
</svg>
