<?xml version="1.0" encoding="UTF-8" standalone="no"?>
<svg
   height="512"
   width="512"
   version="1.1"
   id="svg191"
   sodipodi:docname="health_potion.svg"
   inkscape:version="1.2.1 (9c6d41e410, 2022-07-14)"
   inkscape:export-filename="health_potion.png"
   inkscape:export-xdpi="96"
   inkscape:export-ydpi="96"
   xmlns:inkscape="http://www.inkscape.org/namespaces/inkscape"
   xmlns:sodipodi="http://sodipodi.sourceforge.net/DTD/sodipodi-0.dtd"
   xmlns:xlink="http://www.w3.org/1999/xlink"
   xmlns="http://www.w3.org/2000/svg"
   xmlns:svg="http://www.w3.org/2000/svg">
  <sodipodi:namedview
     id="namedview193"
     pagecolor="#ffffff"
     bordercolor="#000000"
     borderopacity="0.25"
     inkscape:showpageshadow="2"
     inkscape:pageopacity="0.0"
     inkscape:pagecheckerboard="true"
     inkscape:deskcolor="#d1d1d1"
     showgrid="false"
     inkscape:zoom="1.4183568"
     inkscape:cx="29.611732"
     inkscape:cy="251.3472"
     inkscape:window-width="2560"
     inkscape:window-height="1351"
     inkscape:window-x="2391"
     inkscape:window-y="-9"
     inkscape:window-maximized="1"
     inkscape:current-layer="svg191" />
  <g
     id="g164"
     transform="matrix(3.998001,0,0,3.998001,0.12793603,0.12793603)">
    <use
       height="100"
       transform="scale(1.28)"
       width="100"
       xlink:href="#shape0"
       id="use160" />
    <use
       height="879.90002"
       transform="matrix(0.134,0,0,0.134,18.6468,4.9951)"
       width="676.15002"
       xlink:href="#sprite0"
       id="use162" />
  </g>
  <defs
     id="defs189">
    <g
       id="shape0">
      <path
         d="M 100,100 H 0 V 0 h 100 v 100"
         fill="#00cc66"
         fill-opacity="0"
         fill-rule="evenodd"
         stroke="none"
         id="path166" />
      <path
         d="M 84.3,84.3 V 15.7 H 15.7 v 68.6 h 68.6 m 7.95,7.95 H 7.75 V 7.75 h 84.5 v 84.5"
         fill="#666666"
         fill-opacity="0"
         fill-rule="evenodd"
         stroke="none"
         id="path168" />
      <path
         d="M 84.3,84.3 H 15.7 V 15.7 H 84.3 V 84.3 M 76.4,76.4 V 23.55 H 23.55 V 76.4 H 76.4"
         fill="#999999"
         fill-opacity="0"
         fill-rule="evenodd"
         stroke="none"
         id="path170" />
      <path
         d="M 92.25,92.25 V 7.75 H 7.75 v 84.5 h 84.5 m 3.8,3.8 H 3.95 V 3.95 h 92.1 v 92.1"
         fill="#333333"
         fill-opacity="0"
         fill-rule="evenodd"
         stroke="none"
         id="path172" />
      <path
         d="M 68.85,68.85 V 31.1 H 31.1 V 68.85 H 68.85 M 76.4,76.4 H 23.55 V 23.55 H 76.4 V 76.4"
         fill="#cccccc"
         fill-opacity="0"
         fill-rule="evenodd"
         stroke="none"
         id="path174" />
      <path
         d="M 68.85,68.85 H 31.1 V 31.1 h 37.75 v 37.75"
         fill="#ffffff"
         fill-opacity="0"
         fill-rule="evenodd"
         stroke="none"
         id="path176" />
      <path
         d="M 96.05,96.05 V 3.95 H 3.95 v 92.1 h 92.1 M 100,100 H 0 V 0 h 100 v 100"
         fill="#000000"
         fill-opacity="0"
         fill-rule="evenodd"
         stroke="none"
         id="path178" />
      <path
         d="M 0,50 H 50 L 0,0 M 50,50 V 0 m 0,100 V 50 L 0,100 M 100,50 H 50 l 50,50 M 50,50 100,0"
         fill="none"
         stroke="#000000"
         stroke-linecap="round"
         stroke-linejoin="round"
         stroke-opacity="0"
         stroke-width="0.05"
         id="path180" />
    </g>
    <g
       id="sprite0"
       transform="translate(-5.2,-12.65)">
      <use
         height="879.90002"
         transform="translate(5.2,12.65)"
         width="676.15002"
         xlink:href="#shape1"
         id="use183" />
    </g>
    <g
       id="shape1"
       transform="translate(-5.2,-12.65)">
      <path
         d="m 294.35,553.45 h -105.1 v 89.4 h 105.1 V 748.4 h 89.4 V 642.85 H 490.1 v -89.4 H 383.75 v -105.9 h -89.4 v 105.9 M 417.2,54.9 v 21.35 h 32.2 q 13.3,0 23.75,11.3 11.7,13.3 11.7,29.8 0,15.7 -11.7,27.75 -8.85,10.05 -17.7,13.3 -1.6,8.9 -8.85,14.9 0,2.45 -2.8,4.45 -4.1,3.6 -9.3,4.4 v 96.25 l 23.35,6.05 q 68.1,23.4 124.45,78.95 99.05,96.25 99.05,233.15 0,136.9 -99.05,233.55 -39.85,38.7 -86.55,62.45 H 190.9 Q 143.35,868.8 104.3,830.1 5.2,733.45 5.2,596.55 q 0,-136.9 99.1,-233.15 57.15,-57.2 132.05,-80.55 4.85,-1.65 10.9,-3.2 v -97.5 h -0.85 q -10.05,0 -17.7,-8.85 -4.4,-6 -5.6,-14.9 -13.3,-1.6 -22.55,-13.3 -10.1,-12.05 -10.1,-27.75 0,-16.5 10.1,-29.8 10.5,-11.3 25.35,-11.3 h 32.2 V 54.9 q 0,-42.25 41.1,-42.25 h 76.95 q 41.05,0 41.05,42.25"
         fill="#ffffff"
         fill-rule="evenodd"
         stroke="none"
         id="path186" />
    </g>
  </defs>
</svg>
