<?xml version="1.0" encoding="UTF-8" standalone="no"?>
<svg
   height="512"
   width="512"
   version="1.1"
   id="svg6"
   sodipodi:docname="potion_shock_resist.svg"
   xml:space="preserve"
   inkscape:version="1.2.1 (9c6d41e410, 2022-07-14)"
   inkscape:export-filename="potion_shock_resist.png"
   inkscape:export-xdpi="96"
   inkscape:export-ydpi="96"
   xmlns:inkscape="http://www.inkscape.org/namespaces/inkscape"
   xmlns:sodipodi="http://sodipodi.sourceforge.net/DTD/sodipodi-0.dtd"
   xmlns="http://www.w3.org/2000/svg"
   xmlns:svg="http://www.w3.org/2000/svg"><defs
     id="defs10" /><sodipodi:namedview
     id="namedview8"
     pagecolor="#ffffff"
     bordercolor="#000000"
     borderopacity="0.25"
     inkscape:showpageshadow="2"
     inkscape:pageopacity="0.0"
     inkscape:pagecheckerboard="true"
     inkscape:deskcolor="#d1d1d1"
     showgrid="false"
     inkscape:zoom="1.5466868"
     inkscape:cx="208.18695"
     inkscape:cy="307.43135"
     inkscape:window-width="2560"
     inkscape:window-height="1351"
     inkscape:window-x="2391"
     inkscape:window-y="-9"
     inkscape:window-maximized="1"
     inkscape:current-layer="svg6" /><path
     style="fill:#ffffff;fill-rule:evenodd;stroke-width:0.552523"
     d="m 275.98442,511.45777 c -12.56016,-1.44349 -17.10687,-1.65463 -35.6177,-1.65463 -19.58449,0 -20.41081,-0.0444 -26.90659,-1.47616 -11.50468,-2.53421 -15.67358,-3.1134 -22.4825,-3.12379 -8.01671,-0.0122 -17.52823,-0.98814 -20.47539,-2.1009 -3.47709,-1.31277 -13.77331,-13.47446 -21.82142,-25.77495 -2.725,-4.1648 -7.04809,-9.9061 -9.6069,-12.75843 -2.55881,-2.85236 -5.20944,-6.2233 -5.89033,-7.49102 -0.68079,-1.26778 -2.40978,-3.71687 -3.84194,-5.44262 -2.83231,-3.41285 -4.99665,-7.94801 -8.26502,-17.31846 -1.16072,-3.32773 -3.54115,-9.33865 -5.28993,-13.35762 -3.54282,-8.14205 -5.24284,-13.63172 -7.46236,-24.09734 -0.23522,-1.1093 -1.17001,-5.16951 -2.07725,-9.02282 -0.90731,-3.8533 -1.64953,-7.72941 -1.64953,-8.61355 0,-1.84438 -0.79597,-8.97548 -1.89344,-16.9626 -0.95339,-6.93907 -0.94126,-11.3705 0.0526,-18.97179 0.86043,-6.58546 3.64025,-22.3232 4.4307,-25.08468 0.9261,-3.23485 3.63324,-11.00979 4.42589,-12.71069 0.43445,-0.93244 1.08576,-2.73229 1.44746,-3.99997 1.31349,-4.60423 3.47513,-8.77461 7.91465,-15.27011 2.49107,-3.64464 4.665,-6.7563 4.83099,-6.91476 0.16567,-0.15804 1.65621,-2.2329 3.31149,-4.60986 3.51551,-5.04802 17.3477,-20.4937 21.57181,-24.08807 1.60265,-1.36359 4.82107,-4.38821 7.15214,-6.72115 2.33107,-2.33294 6.14556,-6.1217 8.47663,-8.41952 2.33107,-2.2978 6.41364,-6.47746 9.07238,-9.28817 5.33927,-5.6445 5.48024,-5.98946 5.49099,-13.43654 0.003,-2.33144 0.6719,-7.33115 1.57962,-11.81273 1.57799,-7.79123 2.09783,-10.5597 3.19004,-16.99008 1.55718,-9.16802 6.01602,-26.69598 10.62717,-41.77668 1.93405,-6.3251 2.73473,-9.69243 4.45322,-18.72747 1.19809,-6.29868 1.71985,-8.34524 3.23183,-12.67709 2.27471,-6.51674 2.7993,-8.87788 3.39263,-15.270104 0.30897,-3.32772 1.17749,-9.03239 1.93021,-12.67705 0.8081,-3.91285 1.26923,-7.6018 1.12616,-9.00781 -0.31483,-3.09179 -4.13791,-9.82026 -6.83266,-12.02494 -3.36953,-2.75676 -3.82272,-3.92281 -4.05589,-10.43578 -0.17379,-4.87842 -0.0384,-6.24446 0.83679,-8.39683 1.17991,-2.90123 3.53525,-4.47899 7.3922,-4.95184 1.25003,-0.15264 2.26968,-0.43942 2.26578,-0.63582 -0.0263,-1.32723 -2.66249,-8.89669 -3.86687,-11.10357 -2.48798,-4.55883 -3.23639,-13.3257 -1.49374,-17.4980205 1.47717,-3.5365 4.24714,-6.39926 6.97005,-7.20331 1.65074,-0.48745 6.71726,-0.65576996 16.6754,-0.55441 8.0589,0.0813 17.42704,-0.15679996 21.45647,-0.54729996 4.97589,-0.48217 13.0317,-0.57681 26.47492,-0.3112 17.43928,0.34478 19.59612,0.49316 22.12699,1.52302996 3.43773,1.39906 5.87625,3.55738 6.83311,6.04823 1.33357,3.4710105 0.9113,9.6088505 -1.18211,17.1982405 -2.76639,10.02805 -3.0197,11.34149 -2.28277,11.83684 0.34396,0.23122 1.55394,0.5817 2.68895,0.77912 4.24163,0.7378 7.42411,6.09501 6.5059,10.95187 -1.42893,7.55845 -4.77282,14.16212 -8.54227,16.8698 -0.63287,0.4547 -2.00136,2.17143 -3.04075,3.81496 l -1.88979,2.98823 -0.32904,9.21969 c -0.36367,10.19351 0.17402,14.98089 2.94889,26.218464 1.43266,5.80316 2.98717,14.42041 4.26201,23.62544 0.32922,2.37694 0.92586,5.61824 1.32576,7.20286 0.39989,1.58467 1.09225,5.93086 1.53832,9.65829 0.44624,3.7274 1.52038,10.08034 2.38727,14.11763 0.86692,4.0373 1.84233,9.15564 2.16771,11.37414 0.32532,2.21847 0.92942,5.84873 1.34192,8.06721 0.41269,2.21851 0.90208,5.07083 1.08764,6.33855 0.64974,4.44143 1.55199,7.8259 3.69964,13.87936 1.49658,4.21804 2.86933,12.36967 2.86933,17.03793 v 3.39538 l 4.928,2.5556 c 2.71041,1.40567 5.98848,3.42376 7.28461,4.48478 1.29611,1.061 3.21791,2.49714 4.27062,3.19134 3.29604,2.17355 16.25987,13.89893 19.54244,17.67555 1.0198,1.1734 4.71512,4.49129 8.21174,7.37327 6.57548,5.41962 16.56732,15.91353 21.19156,22.2564 1.45699,1.99846 3.62999,4.97283 4.82904,6.60985 2.33219,3.18415 4.41612,7.33837 5.49007,10.94434 0.36456,1.22383 1.80594,4.72432 3.20333,7.7791 3.28356,7.17813 7.75779,19.39837 8.75515,23.91254 0.46773,2.11733 0.91788,8.18508 1.12049,15.10867 0.32105,10.96746 0.26369,12.01827 -1.10167,20.16805 -2.92974,17.48753 -3.5444,20.50876 -4.77123,23.45193 -1.44989,3.47854 -9.84332,26.73221 -9.84332,27.27081 0,0.88005 -3.80973,9.04118 -6.4368,13.78857 -2.6402,4.77114 -3.71903,7.05648 -8.55944,18.13201 -1.71732,3.92918 -4.06009,7.98654 -9.31673,16.13445 -1.73808,2.69388 -4.42868,7.05663 -5.97941,9.69498 -10.93645,18.60714 -13.8238,22.95636 -18.4292,27.76 -7.92541,8.26655 -11.43051,9.96836 -22.53508,10.94137 -7.62063,0.66786 -40.64148,0.62045 -46.62145,-0.0675 z m 51.38954,-12.16468 c 1.45699,-0.45938 3.36416,-1.24408 4.23832,-1.74377 3.17595,-1.8159 8.54055,-7.24368 11.28702,-11.41992 3.53545,-5.3759 8.58008,-13.67021 8.58008,-14.10722 0,-0.18113 0.67514,-1.41455 1.50014,-2.73944 0.82501,-1.32488 1.63403,-2.79771 1.79745,-3.27309 0.16337,-0.47554 1.46196,-2.54983 2.88575,-4.60985 5.66792,-8.20155 10.33702,-16.02573 10.16,-17.02554 -0.198,-1.11392 -0.0409,-1.26805 -5.75368,5.65671 -1.24745,1.51185 -3.84228,3.90455 -5.76655,5.31711 -9.61166,7.05563 -14.33916,10.61185 -16.80514,12.64146 -1.79098,1.47404 -4.84691,3.04173 -9.00641,4.62021 -6.47626,2.45771 -11.63135,5.3988 -16.64563,9.49675 -2.51806,2.05786 -3.21028,2.34253 -5.69682,2.34253 -4.83042,0 -6.4774,-2.00722 -5.36545,-6.53877 0.62914,-2.5633 3.71638,-6.18679 11.86994,-13.93112 6.19248,-5.88171 19.3433,-19.33365 19.3433,-19.78624 0,-0.41765 2.90167,-4.39286 6.51418,-8.92432 2.04709,-2.56776 6.70846,-11.41667 6.72394,-12.7643 0.004,-0.31697 1.01981,-2.78032 2.25822,-5.4742 1.99669,-4.34348 2.23664,-5.28936 2.11943,-8.35534 -0.15627,-4.09262 0.78913,-12.71041 1.59638,-14.54981 0.67478,-1.53725 1.72655,-1.61094 6.35104,-0.44446 5.24237,1.32238 7.70417,2.41991 10.58253,4.71801 2.12523,1.69689 3.07438,3.04981 4.75252,6.77451 l 2.09693,4.65422 -0.21788,5.87581 c -0.11898,3.23169 -0.46898,6.21367 -0.776,6.62665 -0.30702,0.41303 -0.72521,1.85356 -0.92977,3.20125 -0.29229,1.92683 -0.22002,2.38664 0.33739,2.15186 1.33446,-0.56202 8.13294,-14.69782 10.25006,-21.31294 0.81151,-2.53543 1.77236,-5.25811 2.13552,-6.05044 0.36313,-0.79233 1.54524,-4.0336 2.62682,-7.20285 1.08178,-3.16928 2.63403,-7.4478 3.4497,-9.50781 0.81559,-2.06003 1.87748,-6.33852 2.35963,-9.50779 0.48211,-3.16928 1.36962,-8.48501 1.97245,-11.81273 0.9628,-5.31678 1.06011,-7.41289 0.79943,-17.28691 -0.22978,-8.71172 -0.52615,-12.07808 -1.3199,-14.98199 -1.27409,-4.6626 -4.88637,-14.19809 -7.96745,-21.03241 -1.28581,-2.85234 -2.79273,-6.61146 -3.34852,-8.3536 -0.55562,-1.74217 -1.77147,-4.20552 -2.70145,-5.47417 -0.92996,-1.26877 -1.87182,-2.56597 -2.09283,-2.88291 -7.58112,-10.86935 -15.26204,-19.42945 -22.70765,-25.30686 -3.3701,-2.6603 -8.3962,-7.13019 -11.16908,-9.93308 -2.7729,-2.80289 -5.61805,-5.59576 -6.32257,-6.20638 -0.70461,-0.61068 -2.5922,-2.31856 -4.19481,-3.79542 -5.08111,-4.68241 -11.17736,-8.95662 -18.30842,-12.83647 -8.47841,-4.61288 -8.536,-4.71273 -8.87403,-15.39114 -0.22499,-7.10597 -1.03028,-11.12008 -3.31616,-16.52849 -1.06296,-2.5152 -3.8684,-16.87021 -5.27203,-26.97688 -0.1758,-1.26788 -1.01768,-5.47647 -1.8702,-9.35279 -0.85236,-3.87632 -1.92112,-10.22926 -2.37471,-14.11765 -0.4537,-3.88838 -1.16133,-8.36628 -1.57241,-9.95093 -0.41126,-1.58466 -1.37797,-7.15964 -2.14827,-12.38893 -0.77031,-5.22932 -2.44799,-14.01518 -3.72815,-19.52416 -3.13415,-13.487564 -3.74919,-19.919734 -3.03096,-31.697554 0.69449,-11.38726 1.4957,-13.55466 7.45179,-20.1546 3.91722,-4.34073 5.80139,-7.59708 5.10497,-8.82269 -0.24346,-0.42884 -1.63829,-0.48847 -4.38763,-0.18725 -5.33013,0.58251 -23.12209,0.33806 -28.1359,-0.38651 -6.01779,-0.86968 -26.06212,-1.74141 -37.08525,-1.61297 -7.56857,0.0875 -10.15767,0.31384 -11.36652,0.99018 -0.86104,0.48176 -3.06624,1.00686 -4.90057,1.16705 -3.10703,0.2713 -3.33511,0.38711 -3.33511,1.69398 0,1.47418 0.48962,2.18069 2.62139,3.78318 1.24578,0.93665 2.83302,3.63925 6.50588,11.07875 1.58973,3.21989 1.7049,3.8334 1.67662,8.93157 -0.0195,3.84925 -0.44713,7.35569 -1.43473,11.81272 -0.77233,3.48619 -1.65983,9.19087 -1.97204,12.67706 -0.41385,4.620934 -1.07645,7.899994 -2.44488,12.100844 -1.89707,5.82348 -3.23165,11.26326 -5.72564,23.33732 -0.75292,3.64468 -2.32377,9.479 -3.49099,12.96519 -1.82615,5.45411 -4.33884,14.86179 -8.47585,31.73323 -0.54945,2.24081 -1.34622,6.38967 -1.77058,9.21971 -0.42437,2.83001 -1.62428,9.31289 -2.66658,14.40638 -2.36378,11.55197 -2.39571,13.23266 -0.30553,16.09324 2.77822,3.80238 1.73844,7.81426 -2.50657,9.6712 -2.60494,1.13949 -4.4243,2.75398 -13.18146,11.69713 -4.00862,4.09374 -9.21125,9.40036 -11.56142,11.79246 -2.35014,2.39213 -5.94185,5.80631 -7.98153,7.58711 -5.06934,4.42587 -18.12591,18.98156 -20.82282,23.21363 -1.21185,1.90159 -3.27488,4.88358 -4.58464,6.62664 -4.64541,6.18227 -8.76395,13.471 -8.76395,15.50986 0,0.29708 -0.83436,2.50526 -1.85423,4.90669 -1.01988,2.40145 -1.85424,4.60295 -1.85424,4.89227 0,0.28944 -0.47609,1.734 -1.05805,3.21051 -1.15668,2.93468 -4.33625,19.41516 -5.33723,27.66314 -0.99178,8.17258 0.85337,29.09988 3.50567,39.75988 0.78869,3.16927 1.51152,6.15126 1.60649,6.62664 2.16256,10.81477 3.87799,16.4656 7.51605,24.75903 1.59417,3.63424 3.95949,9.59823 5.25608,13.2533 3.30218,9.30871 3.57952,9.89884 6.42049,13.66263 1.3929,1.8452 2.98029,4.12672 3.52763,5.06988 1.27024,2.1888 8.18925,11.08819 10.09083,12.97903 1.59134,1.58218 4.74272,6.03339 7.75159,10.94839 1.06716,1.74306 2.61911,3.98118 3.44893,4.97353 0.82971,0.99245 2.70078,3.32591 4.15772,5.18565 4.85748,6.20058 8.10063,9.36107 9.93242,9.67928 2.68577,0.46648 17.47511,1.48114 21.7333,1.4909 3.54065,0.008 11.24265,1.28759 17.60468,2.92465 1.67803,0.43186 11.38802,0.84064 26.48946,1.11499 22.52816,0.40948 37.0605,1.19151 37.80982,2.03429 0.18397,0.20723 10.34803,0.24736 22.58616,0.087 17.22921,-0.22303 22.849,-0.47642 24.90009,-1.12315 z m -9.96243,-26.40469 c 3.93691,-2.62595 6.97211,-4.00836 14.49094,-6.60006 1.32523,-0.45672 3.82841,-2.03286 5.56279,-3.50258 1.73436,-1.46978 4.44411,-3.57356 6.0216,-4.67533 1.57756,-1.10185 3.16072,-2.30347 3.51828,-2.67035 0.35745,-0.36704 2.69451,-2.16434 5.19322,-3.99432 7.3252,-5.36477 14.24149,-14.51495 16.24956,-21.498 0.63056,-2.19243 1.62532,-5.50639 2.21052,-7.36434 1.82373,-5.78902 1.84616,-9.29115 0.0888,-13.82208 -1.02211,-2.63481 -2.12692,-4.42921 -3.374,-5.47982 -2.20555,-1.85802 -7.53385,-4.28577 -8.8164,-4.01699 -1.27693,0.26742 -1.83059,2.85882 -1.82596,8.54571 0.003,3.85986 -0.25925,5.56968 -1.23857,8.06723 -0.68348,1.74306 -2.07201,5.27938 -3.08601,7.85842 -2.48745,6.32674 -6.28722,13.13041 -9.30241,16.6565 -1.36678,1.59852 -3.08122,3.86925 -3.80966,5.04619 -1.71039,2.7632 -14.59266,16.54328 -21.60924,23.11506 -2.99782,2.80782 -5.68829,5.58811 -5.97876,6.17841 -0.93688,1.90384 1.04892,1.2622 5.70528,-1.84356 z M 288.70412,42.624316 c 0.15982,-0.87151 0.64548,-2.88113 1.07982,-4.46578 0.43452,-1.58468 1.35773,-5.21488 2.05165,-8.06721 0.69378,-2.85234 1.92475,-7.62171 2.73539,-10.59859 l 1.47368,-5.41252 -1.13877,-1.00301 c -1.00809,-0.88779 -3.16188,-1.05063 -18.7718,-1.4182 -13.06568,-0.30774 -19.62279,-0.21798 -25.31494,0.3466 -4.83928,0.47993 -12.7843,0.68936 -21.47032,0.56582 -12.2302,-0.17296 -13.86924,-0.0895 -14.50392,0.74167 -0.99482,1.30382 -0.49669,6.11788 0.84932,8.20511 0.58824,0.91201 1.49049,3.08442 2.00518,4.82751 0.51468,1.74305 1.52949,4.59544 2.25473,6.33853 0.72524,1.74304 1.66853,4.43916 2.09618,5.99125 l 0.77741,2.82199 6.71112,-0.30651 c 3.69111,-0.16887 8.02232,-0.0712 9.62494,0.21513 1.6026,0.28678 8.15875,0.78237 14.56921,1.10109 6.41046,0.31873 13.08581,0.79397 14.83411,1.05593 1.74839,0.26193 6.92907,0.51452 11.51282,0.56113 l 8.33409,0.0854 z"
     id="path357" /><path
     style="fill:#ffffff;fill-rule:evenodd;stroke-width:0.552523"
     d="m 254.99015,493.29202 c -0.56184,-0.73622 -0.80458,-4.82982 -1.0681,-18.0072 -0.18787,-9.37994 -0.64122,-22.49982 -1.00808,-29.15528 -0.46454,-8.42666 -0.57144,-20.45517 -0.3516,-39.61581 0.17402,-15.13327 0.19409,-27.51501 0.0426,-27.51501 -0.39013,0 -1.29717,1.10681 -3.06914,3.7455 -0.85129,1.26787 -2.67953,3.54573 -4.0626,5.06228 -3.35418,3.67792 -8.2454,12.4312 -10.53379,18.85127 -0.39546,1.1093 -2.21015,4.22289 -4.03278,6.91922 -1.8227,2.69629 -3.48417,5.67828 -3.69226,6.62665 -0.45299,2.06432 -1.69476,3.74104 -2.77057,3.74104 -0.42955,0 -2.43322,0.64832 -4.45268,1.44065 -2.01953,0.79233 -4.35868,1.44065 -5.19828,1.44065 -0.83962,0 -1.67379,0.25926 -1.85403,0.57623 -0.17985,0.31697 -1.33855,0.57623 -2.57425,0.57623 -1.23589,0 -2.47333,0.22977 -2.75015,0.51052 -0.27684,0.28092 -3.60256,1.61982 -7.39055,2.97588 -3.78801,1.35595 -7.87253,2.92845 -9.07674,3.49438 -1.20416,0.56592 -3.39192,1.20252 -4.86156,1.41437 -2.40905,0.34751 -2.80627,0.23954 -4.03555,-1.09741 -1.59011,-1.72956 -1.72773,-3.52099 -0.43365,-5.6466 1.98902,-3.26685 5.70533,-8.40033 7.86977,-10.87072 1.24961,-1.42609 3.8933,-4.83848 5.87499,-7.58293 1.98174,-2.74445 5.03349,-6.89327 6.78179,-9.21961 1.74835,-2.32631 4.25157,-5.94442 5.56279,-8.04021 1.31125,-2.0958 3.81638,-5.85572 5.56701,-8.35542 1.75057,-2.49971 4.07173,-6.02648 5.15803,-7.83727 1.08635,-1.8108 4.54129,-6.1768 7.67775,-9.70225 6.10327,-6.86028 7.35722,-8.57665 5.6441,-7.72538 -0.55048,0.27382 -5.18338,0.59469 -10.2951,0.71385 -8.62619,0.20154 -9.38674,0.13495 -10.58375,-0.91948 -0.99663,-0.87774 -1.28964,-1.68695 -1.28964,-3.56127 0,-2.00784 0.29583,-2.71284 1.71803,-4.09514 0.9451,-0.91823 2.17711,-1.66972 2.73809,-1.66972 0.56096,0 1.16719,-0.25926 1.34743,-0.57623 0.17985,-0.31697 0.69049,-0.57622 1.13425,-0.57622 0.44376,0 2.23046,-0.90758 3.97055,-2.01677 1.74004,-1.10931 3.39419,-2.01679 3.67574,-2.01679 0.28163,0 1.4181,-0.62222 2.5258,-1.38277 1.10752,-0.76037 3.06971,-1.77395 4.36022,-2.25237 6.50135,-2.40964 10.56803,-4.30469 20.6241,-9.61077 0.87899,-0.46382 1.12972,-9.23975 1.96034,-68.60498 0.38551,-27.54525 0.50839,-30.41888 1.36305,-31.83671 1.61485,-2.67914 4.32217,-1.76597 4.20389,1.41774 -0.23902,6.43544 -1.16133,86.39902 -1.04573,90.66122 l 0.14206,5.18606 1.58928,-0.19941 c 0.87419,-0.1101 1.82776,-0.40149 2.11916,-0.64779 0.2914,-0.24647 1.24497,-0.5851 2.11918,-0.75291 0.87419,-0.16692 3.61578,-1.10433 6.09256,-2.08148 2.47679,-0.97718 4.94183,-1.77989 5.4779,-1.78415 0.5361,-0.004 3.03933,-0.78292 5.56279,-1.73063 5.03763,-1.8916 11.682,-2.86115 19.71827,-2.87697 5.88294,-0.0116 6.80593,0.46968 7.20117,3.75571 0.43044,3.57821 -0.43985,5.27826 -3.10254,6.06131 -2.5464,0.74882 -7.41119,3.12912 -9.42771,4.61286 -0.7284,0.53609 -3.23171,2.08128 -5.56278,3.43398 -4.75776,2.76091 -6.57324,4.12645 -11.05858,8.31791 -13.64582,12.75177 -14.50778,13.63611 -18.65562,19.14026 l -2.07315,2.75111 -0.43222,19.03165 c -0.42813,18.85197 -0.15981,55.66638 0.64601,88.46737 0.22961,9.34936 0.22162,17.58225 -0.017,18.29534 -0.5233,1.55999 -2.63012,1.75549 -3.70744,0.34379 z m -54.31808,-70.00346 c 2.08494,-0.67779 4.0546,-1.45663 4.37703,-1.73063 0.55268,-0.47003 1.56911,-0.73622 8.68506,-2.27615 1.60265,-0.3468 3.86746,-1.10948 5.03301,-1.69458 2.26297,-1.13629 3.32117,-2.97812 7.43794,-12.94623 2.2294,-5.39816 5.68158,-11.03802 11.60546,-18.9599 5.8284,-7.79423 11.29315,-15.7775 12.46313,-18.20693 2.50428,-5.20015 8.98425,-13.57053 19.35325,-24.99918 5.70924,-6.29271 7.74433,-8.14087 10.73593,-9.74981 1.24248,-0.66839 2.17454,-1.48576 2.07097,-1.81651 -0.24577,-0.78469 -4.47175,-0.40699 -6.18453,0.55261 -0.7284,0.40807 -2.39731,1.03934 -3.70853,1.40265 -1.3112,0.36332 -2.86087,0.89249 -3.44364,1.17572 -0.5828,0.2834 -2.69015,0.93865 -4.68307,1.45645 -1.99286,0.51763 -4.37697,1.44083 -5.29789,2.05161 -0.92089,0.61086 -2.08354,1.11144 -2.58356,1.11268 -0.86709,0.002 -3.7072,1.17909 -5.97812,2.47735 -5.94652,3.39989 -12.12261,6.41094 -15.62878,7.61949 -3.18106,1.09634 -5.82767,2.58019 -5.82767,3.26703 0,0.23972 3.38849,0.50804 7.52998,0.59611 7.46865,0.15804 7.53621,0.17047 8.29321,1.64043 0.43665,0.84738 0.62346,2.0862 0.43647,2.89663 -0.18787,0.81754 -3.52538,4.63304 -7.89585,9.02857 -8.31629,8.36393 -14.03365,15.15974 -16.10693,19.14502 -0.74013,1.42271 -1.50607,2.71923 -1.70186,2.88114 -0.76364,0.63127 -6.43189,9.0762 -7.6234,11.35775 -0.6925,1.32594 -2.37348,3.78736 -3.73559,5.4697 -5.29625,6.54138 -13.06839,17.51381 -13.08504,18.47294 -0.0222,1.30765 0.86366,1.27125 5.46304,-0.22392 z"
     id="path359" /><path
     style="fill:#ffffff;fill-rule:evenodd;stroke-width:0.552523"
     d="m 202.87349,225.02239 c -0.87418,-0.33454 -1.88738,-0.86442 -2.25161,-1.17766 -0.85498,-0.73533 -0.85578,-3.11134 -0.001,-3.68584 0.36352,-0.24452 4.23768,-0.38036 8.60907,-0.30223 4.3714,0.0799 9.37842,-0.14383 11.12674,-0.49667 7.29334,-1.46534 36.02041,-2.49929 63.30981,-2.27866 16.07168,0.12963 18.68792,0.45761 19.81542,2.48042 0.47892,0.85927 0.30916,1.30054 -0.96191,2.50218 -1.28741,1.21691 -1.81462,1.37833 -3.17874,0.97346 -4.69238,-1.39271 -69.88819,0.31146 -78.98462,2.06456 -4.02202,0.77528 -15.38405,0.72343 -17.48304,-0.0799 z"
     id="path361" /><path
     style="fill:#ffffff;fill-rule:evenodd;stroke-width:0.552523"
     d="m 362.15711,386.70214 c -0.39208,-0.1893 -1.90616,-2.32483 -3.36467,-4.74453 -2.54548,-4.2228 -2.64153,-4.52841 -2.39234,-7.61044 0.34236,-4.23431 1.75282,-7.04632 5.50118,-10.96743 4.11571,-4.30539 5.3434,-5.1253 7.67433,-5.1253 2.66058,0 4.49083,-0.83424 5.26001,-2.39747 0.35177,-0.71526 0.82891,-3.33994 1.05993,-5.83307 0.23103,-2.49309 0.70195,-4.90242 1.0468,-5.35406 0.92232,-1.20857 3.02246,-0.99921 4.0781,0.40664 0.50714,0.67531 1.80533,2.36327 2.88517,3.751 3.95491,5.08297 4.03587,10.6418 0.34911,23.97026 -1.38756,5.01635 -1.84696,5.94 -4.32927,8.70547 -1.52731,1.70151 -3.49699,3.49868 -4.37695,3.99363 -1.65179,0.92906 -12.03205,1.86331 -13.39124,1.20537 z m 10.93749,-6.21536 c 2.9398,-1.6786 5.2232,-5.05538 6.65609,-9.84338 1.49446,-4.99431 2.29563,-11.86407 1.68961,-14.49029 l -0.37912,-1.64308 -0.73267,1.43994 c -0.40291,0.79198 -0.74119,2.27675 -0.75149,3.29947 -0.0266,2.57135 -1.68268,3.59797 -6.456,4.00053 -3.8701,0.32656 -3.91233,0.34805 -6.98015,3.57272 -5.49391,5.77492 -5.89784,8.45567 -2.02997,13.47244 0.98607,1.27871 6.8601,1.40407 8.98374,0.19125 z"
     id="path363" /><path
     style="fill:#ffffff;fill-rule:evenodd;stroke-width:0.195345"
     d="m 229.63693,23.182446 c -1.25758,-1.73877 -0.12786,-4.02641 1.65303,-3.34389 1.02406,0.39281 1.3254,0.77566 1.3254,1.68482 0,0.64233 -0.12785,0.94275 -0.63678,1.49636 -0.82269,0.89472 -1.76472,0.96026 -2.34155,0.16283 z"
     id="path365" /><path
     style="fill:#ffffff;fill-rule:evenodd;stroke-width:0.195345"
     d="m 240.10768,32.614046 c -0.46311,-0.17101 -0.75611,-0.4669 -0.99832,-1.00585 -0.81098,-1.80532 0.80246,-3.52627 2.55805,-2.72843 1.31156,0.59615 1.33003,2.98079 0.0284,3.65594 -0.76853,0.39851 -0.73018,0.39668 -1.58803,0.0794 z"
     id="path367" /><path
     style="fill:#ffffff;fill-rule:evenodd;stroke-width:0.195345"
     d="m 253.37821,25.596926 c -0.82287,-1.07159 -0.91042,-2.21936 -0.23581,-3.09122 0.5542,-0.71623 1.14694,-0.8007 2.21455,-0.31568 1.26237,0.57355 1.34938,1.84501 0.21131,3.08268 -0.72095,0.78419 -1.72299,0.93258 -2.19015,0.32423 z"
     id="path369" /><path
     style="fill:#ffffff;fill-rule:evenodd;stroke-width:0.195345"
     d="m 265.76901,26.197516 c -0.49365,-0.26174 -0.71615,-0.55543 -0.901,-1.19004 -0.21646,-0.74309 -0.20546,-0.9338 0.0923,-1.61766 0.41126,-0.93989 1.24816,-1.2686 2.33173,-0.91548 0.51727,0.16888 0.73906,0.38305 0.89319,0.86338 0.45388,1.41576 0.1172,2.44613 -0.94842,2.91014 -0.40007,0.17509 -0.74687,0.31221 -0.77066,0.30692 -0.0249,-0.005 -0.3381,-0.16692 -0.69876,-0.3574 z"
     id="path371" /><path
     style="fill:#ffffff;fill-rule:evenodd;stroke-width:0.195345"
     d="m 262.77275,38.116996 c -0.83815,-0.31425 -1.23165,-1.39907 -0.93759,-2.58657 0.24203,-0.97796 0.55527,-1.25334 1.54595,-1.35937 1.02993,-0.10992 1.6541,0.26174 1.97448,1.17661 0.30507,0.87193 0.0391,2.30073 -0.48229,2.59821 -0.61032,0.34764 -1.4474,0.41581 -2.10018,0.17101 z"
     id="path373" /><path
     style="fill:#ffffff;fill-rule:evenodd;stroke-width:0.195345"
     d="m 276.71748,29.347416 c -0.65916,-0.40096 -0.74652,-0.54525 -0.7982,-1.31908 -0.0497,-0.7606 0.0231,-0.9568 0.59008,-1.57369 0.45281,-0.49256 0.81826,-0.70483 1.21318,-0.70483 0.86389,0 1.1473,0.18928 1.4458,0.96636 0.38836,1.01113 0.34006,1.78475 -0.14738,2.36282 -0.60748,0.72029 -1.40763,0.81352 -2.30363,0.26846 z"
     id="path375" /></svg>
