<?xml version="1.0" encoding="UTF-8" standalone="no"?>
<svg
   height="512"
   width="512"
   version="1.1"
   id="svg33"
   sodipodi:docname="power.svg"
   inkscape:version="1.2.1 (9c6d41e410, 2022-07-14)"
   inkscape:export-filename="power.png"
   inkscape:export-xdpi="96"
   inkscape:export-ydpi="96"
   xmlns:inkscape="http://www.inkscape.org/namespaces/inkscape"
   xmlns:sodipodi="http://sodipodi.sourceforge.net/DTD/sodipodi-0.dtd"
   xmlns:xlink="http://www.w3.org/1999/xlink"
   xmlns="http://www.w3.org/2000/svg"
   xmlns:svg="http://www.w3.org/2000/svg">
  <sodipodi:namedview
     id="namedview35"
     pagecolor="#ffffff"
     bordercolor="#000000"
     borderopacity="0.25"
     inkscape:showpageshadow="2"
     inkscape:pageopacity="0.0"
     inkscape:pagecheckerboard="true"
     inkscape:deskcolor="#d1d1d1"
     showgrid="false"
     inkscape:zoom="1.0029297"
     inkscape:cx="243.28724"
     inkscape:cy="309.59299"
     inkscape:window-width="2560"
     inkscape:window-height="1351"
     inkscape:window-x="2391"
     inkscape:window-y="-9"
     inkscape:window-maximized="1"
     inkscape:current-layer="svg33" />
  <defs
     id="defs31">
    <g
       id="shape0">
      <path
         d="M 100,100 H 0 V 0 h 100 v 100"
         fill="#00cc66"
         fill-opacity="0"
         fill-rule="evenodd"
         stroke="none"
         id="path8" />
      <path
         d="M 84.3,84.3 V 15.7 H 15.7 v 68.6 h 68.6 m 7.95,7.95 H 7.75 V 7.75 h 84.5 v 84.5"
         fill="#666666"
         fill-opacity="0"
         fill-rule="evenodd"
         stroke="none"
         id="path10" />
      <path
         d="M 84.3,84.3 H 15.7 V 15.7 H 84.3 V 84.3 M 76.4,76.4 V 23.55 H 23.55 V 76.4 H 76.4"
         fill="#999999"
         fill-opacity="0"
         fill-rule="evenodd"
         stroke="none"
         id="path12" />
      <path
         d="M 92.25,92.25 V 7.75 H 7.75 v 84.5 h 84.5 m 3.8,3.8 H 3.95 V 3.95 h 92.1 v 92.1"
         fill="#333333"
         fill-opacity="0"
         fill-rule="evenodd"
         stroke="none"
         id="path14" />
      <path
         d="M 68.85,68.85 V 31.1 H 31.1 V 68.85 H 68.85 M 76.4,76.4 H 23.55 V 23.55 H 76.4 V 76.4"
         fill="#cccccc"
         fill-opacity="0"
         fill-rule="evenodd"
         stroke="none"
         id="path16" />
      <path
         d="M 68.85,68.85 H 31.1 V 31.1 h 37.75 v 37.75"
         fill="#ffffff"
         fill-opacity="0"
         fill-rule="evenodd"
         stroke="none"
         id="path18" />
      <path
         d="M 96.05,96.05 V 3.95 H 3.95 v 92.1 h 92.1 M 100,100 H 0 V 0 h 100 v 100"
         fill="#000000"
         fill-opacity="0"
         fill-rule="evenodd"
         stroke="none"
         id="path20" />
      <path
         d="M 0,50 H 50 L 0,0 M 50,50 V 0 m 0,100 V 50 L 0,100 M 100,50 H 50 l 50,50 M 50,50 100,0"
         fill="none"
         stroke="#000000"
         stroke-linecap="round"
         stroke-linejoin="round"
         stroke-opacity="0"
         stroke-width="0.05"
         id="path22" />
    </g>
    <g
       id="sprite0"
       transform="translate(34.65,-37.45)">
      <use
         height="885.95001"
         transform="translate(-34.65,37.45)"
         width="798.65002"
         xlink:href="#shape1"
         id="use25" />
    </g>
    <g
       id="shape1"
       transform="translate(34.65,-37.45)">
      <path
         d="M 312.4,858.5 Q 382.85,860.9 422.8,713.05 369.6,823.3 312.4,858.5 M 547.25,472.45 Q 566.9,427.3 526.7,405.35 496.45,389.1 458.65,433 q 29.85,-23.7 52.05,-11.6 29.9,17 15.2,51.8 -10.85,26.15 -27.5,36.2 -12.25,10.7 -18,22.4 -18,37.35 -45.15,20.55 27.35,43.95 50.9,-4.35 7.5,-15.05 24.15,-28.85 22.75,-13.1 36.95,-46.7 m -487.4,34.6 Q 69,534 48.75,537.15 L 36.3,536.3 Q 29.6,503.85 3.7,513.75 24.45,510.4 28.45,534 q -2,-0.85 -2.8,-1.65 0.2,4.55 7.3,10.35 7.1,5.3 21.95,4.5 30.9,-2.2 14.85,-40.55 -9.9,-23.95 -32.6,-18.6 13.65,-0.6 22.7,19 m 76.05,-135 -12.55,-0.35 q -10.05,1.2 -20.3,5.75 -6.35,13.65 6.5,26.9 2.95,1.2 5.7,1.6 29.95,7.5 52.3,0 5.75,-1.8 11.05,-4.8 -20.35,-25.3 -42.7,-29.1 M 750.3,306 q 2.8,119.15 -56.75,200.85 l -54.05,77 Q 580.55,660.8 634.15,749.25 719.65,823.3 764,923.4 H 246.7 q 36.45,-30.25 49.65,-71.8 -25.9,-25.55 -34.05,-57.8 -23.1,-26.35 -53.85,-38.4 71.45,-12.65 132.65,-28.3 82.9,-37.15 80.5,-170 -10.65,114.8 -93.4,151.8 -80.55,21 -179.65,36.2 Q 64.2,764.9 40.3,730.5 27,702.55 40.3,671.7 45.85,650.15 33.95,640 q -2.6,-2.9 -3.95,-6.05 -7.1,-14.5 7.9,-29.55 11.9,-1.35 23.15,2.75 l 7.15,3 q 10.25,4.15 23.15,-8.7 -16.05,2.35 -26.7,-1.55 -3.6,-1.8 -7.35,-3.4 -11.1,-4.15 -26.5,1.4 -7.75,-9.9 -6.95,-25.55 0,-3.55 1,-7.7 4.95,-28.35 -29.7,-30.3 -23.9,-4.95 -29.7,-34 -1.15,-12.9 11.7,-24 16.8,-13.2 27.55,-30.45 8.1,-14.05 31.85,-32.7 3.5,-3.3 6.5,-7.25 19.2,-23.4 18.85,-51.3 v -2.55 q -6.6,-34.4 15,-60.95 l 0.2,-0.8 Q 98.1,144.7 227.65,80.4 391.15,11.15 554.85,53.5 742.2,115.2 750.3,306"
         fill="#ffffff"
         fill-rule="evenodd"
         stroke="none"
         id="path28" />
    </g>
  </defs>
  <g
     inkscape:groupmode="layer"
     id="layer1"
     inkscape:label="Layer 1">
    <path
       d="M 312.4,858.5 Q 382.85,860.9 422.8,713.05 369.6,823.3 312.4,858.5 M 547.25,472.45 Q 566.9,427.3 526.7,405.35 496.45,389.1 458.65,433 q 29.85,-23.7 52.05,-11.6 29.9,17 15.2,51.8 -10.85,26.15 -27.5,36.2 -12.25,10.7 -18,22.4 -18,37.35 -45.15,20.55 27.35,43.95 50.9,-4.35 7.5,-15.05 24.15,-28.85 22.75,-13.1 36.95,-46.7 m -487.4,34.6 Q 69,534 48.75,537.15 L 36.3,536.3 Q 29.6,503.85 3.7,513.75 24.45,510.4 28.45,534 q -2,-0.85 -2.8,-1.65 0.2,4.55 7.3,10.35 7.1,5.3 21.95,4.5 30.9,-2.2 14.85,-40.55 -9.9,-23.95 -32.6,-18.6 13.65,-0.6 22.7,19 m 76.05,-135 -12.55,-0.35 q -10.05,1.2 -20.3,5.75 -6.35,13.65 6.5,26.9 2.95,1.2 5.7,1.6 29.95,7.5 52.3,0 5.75,-1.8 11.05,-4.8 -20.35,-25.3 -42.7,-29.1 M 750.3,306 q 2.8,119.15 -56.75,200.85 l -54.05,77 Q 580.55,660.8 634.15,749.25 719.65,823.3 764,923.4 H 246.7 q 36.45,-30.25 49.65,-71.8 -25.9,-25.55 -34.05,-57.8 -23.1,-26.35 -53.85,-38.4 71.45,-12.65 132.65,-28.3 82.9,-37.15 80.5,-170 -10.65,114.8 -93.4,151.8 -80.55,21 -179.65,36.2 Q 64.2,764.9 40.3,730.5 27,702.55 40.3,671.7 45.85,650.15 33.95,640 q -2.6,-2.9 -3.95,-6.05 -7.1,-14.5 7.9,-29.55 11.9,-1.35 23.15,2.75 l 7.15,3 q 10.25,4.15 23.15,-8.7 -16.05,2.35 -26.7,-1.55 -3.6,-1.8 -7.35,-3.4 -11.1,-4.15 -26.5,1.4 -7.75,-9.9 -6.95,-25.55 0,-3.55 1,-7.7 4.95,-28.35 -29.7,-30.3 -23.9,-4.95 -29.7,-34 -1.15,-12.9 11.7,-24 16.8,-13.2 27.55,-30.45 8.1,-14.05 31.85,-32.7 3.5,-3.3 6.5,-7.25 19.2,-23.4 18.85,-51.3 v -2.55 q -6.6,-34.4 15,-60.95 l 0.2,-0.8 Q 98.1,144.7 227.65,80.4 391.15,11.15 554.85,53.5 742.2,115.2 750.3,306"
       fill="#ffffff"
       fill-rule="evenodd"
       stroke="none"
       id="path253"
       transform="matrix(0.53173413,0,0,0.53213393,62.501749,0.13075462)" />
  </g>
</svg>
