<?xml version="1.0" encoding="UTF-8" standalone="no"?>
<svg
   height="512"
   width="512"
   version="1.1"
   id="svg33"
   sodipodi:docname="quarter_staff.svg"
   inkscape:version="1.2.1 (9c6d41e410, 2022-07-14)"
   inkscape:export-filename="quarter_staff.png"
   inkscape:export-xdpi="96"
   inkscape:export-ydpi="96"
   xmlns:inkscape="http://www.inkscape.org/namespaces/inkscape"
   xmlns:sodipodi="http://sodipodi.sourceforge.net/DTD/sodipodi-0.dtd"
   xmlns:xlink="http://www.w3.org/1999/xlink"
   xmlns="http://www.w3.org/2000/svg"
   xmlns:svg="http://www.w3.org/2000/svg">
  <sodipodi:namedview
     id="namedview35"
     pagecolor="#ffffff"
     bordercolor="#000000"
     borderopacity="0.25"
     inkscape:showpageshadow="2"
     inkscape:pageopacity="0.0"
     inkscape:pagecheckerboard="true"
     inkscape:deskcolor="#d1d1d1"
     showgrid="false"
     inkscape:zoom="2.2902"
     inkscape:cx="189.93974"
     inkscape:cy="326.39071"
     inkscape:window-width="2560"
     inkscape:window-height="1351"
     inkscape:window-x="2391"
     inkscape:window-y="-9"
     inkscape:window-maximized="1"
     inkscape:current-layer="layer1" />
  <defs
     id="defs31">
    <g
       id="shape0">
      <path
         d="M 100,100 H 0 V 0 h 100 v 100"
         fill="#00cc66"
         fill-opacity="0"
         fill-rule="evenodd"
         stroke="none"
         id="path8" />
      <path
         d="M 84.3,84.3 V 15.7 H 15.7 v 68.6 h 68.6 m 7.95,7.95 H 7.75 V 7.75 h 84.5 v 84.5"
         fill="#666666"
         fill-opacity="0"
         fill-rule="evenodd"
         stroke="none"
         id="path10" />
      <path
         d="M 84.3,84.3 H 15.7 V 15.7 H 84.3 V 84.3 M 76.4,76.4 V 23.55 H 23.55 V 76.4 H 76.4"
         fill="#999999"
         fill-opacity="0"
         fill-rule="evenodd"
         stroke="none"
         id="path12" />
      <path
         d="M 92.25,92.25 V 7.75 H 7.75 v 84.5 h 84.5 m 3.8,3.8 H 3.95 V 3.95 h 92.1 v 92.1"
         fill="#333333"
         fill-opacity="0"
         fill-rule="evenodd"
         stroke="none"
         id="path14" />
      <path
         d="M 68.85,68.85 V 31.1 H 31.1 V 68.85 H 68.85 M 76.4,76.4 H 23.55 V 23.55 H 76.4 V 76.4"
         fill="#cccccc"
         fill-opacity="0"
         fill-rule="evenodd"
         stroke="none"
         id="path16" />
      <path
         d="M 68.85,68.85 H 31.1 V 31.1 h 37.75 v 37.75"
         fill="#ffffff"
         fill-opacity="0"
         fill-rule="evenodd"
         stroke="none"
         id="path18" />
      <path
         d="M 96.05,96.05 V 3.95 H 3.95 v 92.1 h 92.1 M 100,100 H 0 V 0 h 100 v 100"
         fill="#000000"
         fill-opacity="0"
         fill-rule="evenodd"
         stroke="none"
         id="path20" />
      <path
         d="M 0,50 H 50 L 0,0 M 50,50 V 0 m 0,100 V 50 L 0,100 M 100,50 H 50 l 50,50 M 50,50 100,0"
         fill="none"
         stroke="#000000"
         stroke-linecap="round"
         stroke-linejoin="round"
         stroke-opacity="0"
         stroke-width="0.05"
         id="path22" />
    </g>
    <g
       id="sprite0">
      <use
         height="115.4"
         width="115.2"
         xlink:href="#shape1"
         id="use25" />
    </g>
    <g
       id="shape1">
      <path
         d="m 115.35,105.8 v 0 l -9.9,9.55 -7.15,-7.1 q 0.15,-0.6 0.2,-1.05 0.05,-0.5 0.05,-0.85 -0.05,-0.4 -0.15,-0.65 -0.1,-0.3 -0.25,-0.45 -0.2,-0.2 -0.5,-0.3 -0.25,-0.1 -0.6,-0.1 -0.4,0 -0.85,0.1 -0.45,0.05 -1,0.25 L 69.05,79.1 q 0.05,-0.3 -0.25,-1 -0.3,-0.7 -0.9,-1.7 -0.6,-0.9 -1.4,-2.05 -0.8,-1.1 -1.65,-2.2 -0.9,-1.15 -1.8,-2.15 -0.9,-1.05 -1.7,-1.85 -0.8,-0.8 -1.4,-1.25 -0.6,-0.45 -0.9,-0.45 L 57,64.35 q -0.25,-0.75 -0.5,-1.4 -0.25,-0.65 -0.55,-1.2 -0.25,-0.6 -0.6,-1.1 -0.35,-0.45 -0.8,-0.9 -0.4,-0.45 -0.9,-0.8 -0.5,-0.4 -1.1,-0.7 Q 51.95,57.9 51.2,57.6 50.5,57.3 49.6,57 L 47.7,54.95 Q 47.8,54.6 47.45,54.05 47.2,53.55 46.55,52.9 46,52.25 45.15,51.55 44.4,50.85 43.5,50.2 42.55,49.55 41.65,48.95 40.75,48.4 39.95,48 39.1,47.55 38.45,47.35 37.8,47.15 37.4,47.25 L 10,20 q 0.1,-0.55 0.15,-1 0.05,-0.5 0,-0.9 -0.05,-0.4 -0.2,-0.7 -0.1,-0.3 -0.3,-0.5 -0.2,-0.25 -0.5,-0.35 -0.3,-0.15 -0.7,-0.2 -0.35,0 -0.8,0.05 -0.5,0.05 -1.05,0.25 l -6.45,-6.45 9.8,-9.6 6.6,6.95 q -0.1,0.5 -0.15,0.9 -0.05,0.45 0,0.8 0.05,0.3 0.15,0.6 0.1,0.25 0.3,0.45 0.15,0.2 0.45,0.35 0.25,0.15 0.6,0.2 0.35,0.1 0.8,0.1 0.4,0.05 0.95,0 l 27,26.65 q -0.05,0.3 0.15,0.95 0.25,0.6 0.65,1.45 0.45,0.8 1.05,1.7 0.55,0.9 1.2,1.8 0.7,0.9 1.35,1.7 0.75,0.85 1.35,1.45 0.65,0.6 1.2,0.95 0.55,0.35 0.9,0.3 l 2.25,2.4 q 0.35,0.85 0.7,1.5 0.35,0.7 0.7,1.25 0.35,0.55 0.75,1 0.4,0.4 0.85,0.75 0.45,0.35 0.95,0.65 0.45,0.25 1.05,0.5 0.5,0.25 1.15,0.5 0.55,0.15 1.35,0.45 l 2.1,2.25 q -0.05,0.3 0.35,0.9 0.4,0.6 1.2,1.4 0.75,0.75 1.75,1.65 1,0.85 2.15,1.75 1.1,0.85 2.25,1.65 1.15,0.8 2.1,1.4 1.05,0.65 1.8,1 0.75,0.35 1.15,0.35 l 26.2,26.45 q 0,0.55 0.05,1 0,0.45 0.1,0.75 0.05,0.35 0.15,0.6 0.1,0.25 0.3,0.45 0.15,0.15 0.35,0.25 0.25,0.05 0.55,0.1 0.25,0 0.65,-0.05 0.35,-0.05 0.8,-0.15 l 7.1,7.15"
         fill="#ffffff"
         fill-rule="evenodd"
         stroke="none"
         id="path28" />
    </g>
  </defs>
  <g
     inkscape:groupmode="layer"
     id="layer1"
     inkscape:label="Layer 1">
    <path
       d="m 486.56972,446.5897 v 0 L 446.98951,484.77061 418.4038,456.3848 q 0.5997,-2.3988 0.7996,-4.1979 0.1999,-1.999 0.1999,-3.3983 -0.1999,-1.5992 -0.5997,-2.5987 -0.3998,-1.1994 -0.9995,-1.7991 -0.7996,-0.7996 -1.999,-1.1994 -0.9995,-0.3998 -2.3988,-0.3998 -1.5992,0 -3.3983,0.3998 -1.7991,0.1999 -3.998,0.9995 L 301.46227,339.84308 q 0.1999,-1.19941 -0.9995,-3.99801 -1.1994,-2.7986 -3.5982,-6.7966 -2.3988,-3.5982 -5.5972,-8.1959 -3.1984,-4.3978 -6.59671,-8.7956 -3.5982,-4.5977 -7.1964,-8.5957 -3.5982,-4.19791 -6.7966,-7.39631 -3.1984,-3.1984 -5.5972,-4.9975 -2.3988,-1.7991 -3.5982,-1.7991 l -8.1959,-8.3958 q -0.9995,-2.9985 -1.999,-5.5972 -0.9995,-2.5987 -2.1989,-4.7976 -0.9995,-2.3988 -2.3988,-4.3978 -1.39931,-1.7991 -3.19841,-3.5982 -1.5992,-1.7991 -3.5982,-3.19841 -1.999,-1.5992 -4.3978,-2.7986 -2.3988,-1.3993 -5.3973,-2.5987 -2.7986,-1.1994 -6.3968,-2.3988 l -7.5962,-8.1959 q 0.3998,-1.3993 -0.9995,-3.5982 -0.9995,-1.999 -3.5982,-4.5977 -2.1989,-2.5987 -5.59721,-5.3973 -2.9985,-2.7986 -6.5967,-5.3973 -3.7981,-2.5987 -7.3963,-4.99751 -3.5982,-2.1989 -6.7966,-3.7981 -3.3983,-1.7991 -5.997,-2.5987 -2.5987,-0.7996 -4.1979,-0.3998 L 65.38031,103.56122 q 0.3998,-2.1989 0.5997,-3.998002 0.1999,-1.999 0,-3.598201 -0.1999,-1.5992 -0.7996,-2.798601 -0.3998,-1.1994 -1.199401,-1.999 -0.7996,-0.9995 -1.999,-1.3993 -1.1994,-0.599701 -2.798601,-0.799601 -1.3993,0 -3.1984,0.1999 -1.999001,0.1999 -4.197902,0.999501 L 26,64.380809 65.18041,26 91.567216,53.786107 q -0.3998,1.999 -0.5997,3.5982 -0.1999,1.799101 0,3.198401 0.1999,1.199401 0.5997,2.398801 0.399801,0.9995 1.199401,1.7991 0.5997,0.799601 1.7991,1.399301 0.9995,0.5997 2.398801,0.7996 1.3993,0.3998 3.198402,0.3998 1.5992,0.1999 3.7981,0 l 107.94603,106.54672 q -0.1999,1.1994 0.5997,3.7981 0.9995,2.39881 2.5987,5.79711 1.7991,3.1984 4.1979,6.7966 2.1989,3.5982 4.7976,7.1964 2.7986,3.5982 5.3973,6.7966 2.9985,3.3983 5.3973,5.7971 2.5987,2.3988 4.7976,3.7981 2.1989,1.3993 3.5982,1.1994 l 8.99551,9.59521 q 1.3993,3.3983 2.7986,5.997 1.3993,2.7986 2.7986,4.9975 1.3993,2.1989 2.9985,3.998 1.5992,1.5992 3.3983,2.9985 1.7991,1.3993 3.7981,2.5987 1.7991,0.9995 4.1979,1.999 1.999,0.9995 4.5977,1.999 2.1989,0.5997 5.3973,1.7991 l 8.39581,8.99551 q -0.1999,1.1994 1.3993,3.5982 1.5992,2.3988 4.7976,5.5972 2.9985,2.9985 6.9965,6.5967 3.998,3.3983 8.5957,6.9965 4.3978,3.3983 8.9955,6.5967 4.59771,3.1984 8.39581,5.5972 4.1979,2.5987 7.1964,3.998 2.9985,1.39931 4.5977,1.39931 l 104.74763,105.74712 q 0,2.1989 0.1999,3.998 0,1.7991 0.3998,2.9985 0.1999,1.3993 0.5997,2.3988 0.3998,0.9995 1.1994,1.7991 0.5997,0.5997 1.3993,0.9995 0.9995,0.1999 2.1989,0.3998 0.9995,0 2.5987,-0.1999 1.3993,-0.1999 3.1984,-0.5997 l 28.38581,28.58571"
       fill="#ffffff"
       fill-rule="evenodd"
       stroke="none"
       id="path307"
       style="stroke-width:3.998" />
  </g>
</svg>
