<?xml version="1.0" encoding="UTF-8" standalone="no"?>
<svg
   height="512"
   width="512"
   version="1.1"
   id="svg33"
   sodipodi:docname="quarter_staff.svg"
   inkscape:version="1.2.1 (9c6d41e410, 2022-07-14)"
   inkscape:export-filename="quarter_staff.png"
   inkscape:export-xdpi="96"
   inkscape:export-ydpi="96"
   xmlns:inkscape="http://www.inkscape.org/namespaces/inkscape"
   xmlns:sodipodi="http://sodipodi.sourceforge.net/DTD/sodipodi-0.dtd"
   xmlns:xlink="http://www.w3.org/1999/xlink"
   xmlns="http://www.w3.org/2000/svg"
   xmlns:svg="http://www.w3.org/2000/svg">
  <sodipodi:namedview
     id="namedview35"
     pagecolor="#ffffff"
     bordercolor="#000000"
     borderopacity="0.25"
     inkscape:showpageshadow="2"
     inkscape:pageopacity="0.0"
     inkscape:pagecheckerboard="true"
     inkscape:deskcolor="#d1d1d1"
     showgrid="false"
     inkscape:zoom="2.2902"
     inkscape:cx="242.33691"
     inkscape:cy="186.22828"
     inkscape:window-width="2560"
     inkscape:window-height="1351"
     inkscape:window-x="2391"
     inkscape:window-y="-9"
     inkscape:window-maximized="1"
     inkscape:current-layer="svg33" />
  <g
     id="g6"
     transform="matrix(3.998001,0,0,3.998001,0.12793603,0.12793603)">
    <use
       height="100"
       transform="scale(1.28)"
       width="100"
       xlink:href="#shape0"
       id="use2" />
    <use
       height="115.4"
       width="115.2"
       xlink:href="#sprite0"
       id="use4" />
  </g>
  <defs
     id="defs31">
    <g
       id="shape0">
      <path
         d="M 100,100 H 0 V 0 h 100 v 100"
         fill="#00cc66"
         fill-opacity="0"
         fill-rule="evenodd"
         stroke="none"
         id="path8" />
      <path
         d="M 84.3,84.3 V 15.7 H 15.7 v 68.6 h 68.6 m 7.95,7.95 H 7.75 V 7.75 h 84.5 v 84.5"
         fill="#666666"
         fill-opacity="0"
         fill-rule="evenodd"
         stroke="none"
         id="path10" />
      <path
         d="M 84.3,84.3 H 15.7 V 15.7 H 84.3 V 84.3 M 76.4,76.4 V 23.55 H 23.55 V 76.4 H 76.4"
         fill="#999999"
         fill-opacity="0"
         fill-rule="evenodd"
         stroke="none"
         id="path12" />
      <path
         d="M 92.25,92.25 V 7.75 H 7.75 v 84.5 h 84.5 m 3.8,3.8 H 3.95 V 3.95 h 92.1 v 92.1"
         fill="#333333"
         fill-opacity="0"
         fill-rule="evenodd"
         stroke="none"
         id="path14" />
      <path
         d="M 68.85,68.85 V 31.1 H 31.1 V 68.85 H 68.85 M 76.4,76.4 H 23.55 V 23.55 H 76.4 V 76.4"
         fill="#cccccc"
         fill-opacity="0"
         fill-rule="evenodd"
         stroke="none"
         id="path16" />
      <path
         d="M 68.85,68.85 H 31.1 V 31.1 h 37.75 v 37.75"
         fill="#ffffff"
         fill-opacity="0"
         fill-rule="evenodd"
         stroke="none"
         id="path18" />
      <path
         d="M 96.05,96.05 V 3.95 H 3.95 v 92.1 h 92.1 M 100,100 H 0 V 0 h 100 v 100"
         fill="#000000"
         fill-opacity="0"
         fill-rule="evenodd"
         stroke="none"
         id="path20" />
      <path
         d="M 0,50 H 50 L 0,0 M 50,50 V 0 m 0,100 V 50 L 0,100 M 100,50 H 50 l 50,50 M 50,50 100,0"
         fill="none"
         stroke="#000000"
         stroke-linecap="round"
         stroke-linejoin="round"
         stroke-opacity="0"
         stroke-width="0.05"
         id="path22" />
    </g>
    <g
       id="sprite0">
      <use
         height="115.4"
         width="115.2"
         xlink:href="#shape1"
         id="use25" />
    </g>
    <g
       id="shape1">
      <path
         d="m 115.35,105.8 v 0 l -9.9,9.55 -7.15,-7.1 q 0.15,-0.6 0.2,-1.05 0.05,-0.5 0.05,-0.85 -0.05,-0.4 -0.15,-0.65 -0.1,-0.3 -0.25,-0.45 -0.2,-0.2 -0.5,-0.3 -0.25,-0.1 -0.6,-0.1 -0.4,0 -0.85,0.1 -0.45,0.05 -1,0.25 L 69.05,79.1 q 0.05,-0.3 -0.25,-1 -0.3,-0.7 -0.9,-1.7 -0.6,-0.9 -1.4,-2.05 -0.8,-1.1 -1.65,-2.2 -0.9,-1.15 -1.8,-2.15 -0.9,-1.05 -1.7,-1.85 -0.8,-0.8 -1.4,-1.25 -0.6,-0.45 -0.9,-0.45 L 57,64.35 q -0.25,-0.75 -0.5,-1.4 -0.25,-0.65 -0.55,-1.2 -0.25,-0.6 -0.6,-1.1 -0.35,-0.45 -0.8,-0.9 -0.4,-0.45 -0.9,-0.8 -0.5,-0.4 -1.1,-0.7 Q 51.95,57.9 51.2,57.6 50.5,57.3 49.6,57 L 47.7,54.95 Q 47.8,54.6 47.45,54.05 47.2,53.55 46.55,52.9 46,52.25 45.15,51.55 44.4,50.85 43.5,50.2 42.55,49.55 41.65,48.95 40.75,48.4 39.95,48 39.1,47.55 38.45,47.35 37.8,47.15 37.4,47.25 L 10,20 q 0.1,-0.55 0.15,-1 0.05,-0.5 0,-0.9 -0.05,-0.4 -0.2,-0.7 -0.1,-0.3 -0.3,-0.5 -0.2,-0.25 -0.5,-0.35 -0.3,-0.15 -0.7,-0.2 -0.35,0 -0.8,0.05 -0.5,0.05 -1.05,0.25 l -6.45,-6.45 9.8,-9.6 6.6,6.95 q -0.1,0.5 -0.15,0.9 -0.05,0.45 0,0.8 0.05,0.3 0.15,0.6 0.1,0.25 0.3,0.45 0.15,0.2 0.45,0.35 0.25,0.15 0.6,0.2 0.35,0.1 0.8,0.1 0.4,0.05 0.95,0 l 27,26.65 q -0.05,0.3 0.15,0.95 0.25,0.6 0.65,1.45 0.45,0.8 1.05,1.7 0.55,0.9 1.2,1.8 0.7,0.9 1.35,1.7 0.75,0.85 1.35,1.45 0.65,0.6 1.2,0.95 0.55,0.35 0.9,0.3 l 2.25,2.4 q 0.35,0.85 0.7,1.5 0.35,0.7 0.7,1.25 0.35,0.55 0.75,1 0.4,0.4 0.85,0.75 0.45,0.35 0.95,0.65 0.45,0.25 1.05,0.5 0.5,0.25 1.15,0.5 0.55,0.15 1.35,0.45 l 2.1,2.25 q -0.05,0.3 0.35,0.9 0.4,0.6 1.2,1.4 0.75,0.75 1.75,1.65 1,0.85 2.15,1.75 1.1,0.85 2.25,1.65 1.15,0.8 2.1,1.4 1.05,0.65 1.8,1 0.75,0.35 1.15,0.35 l 26.2,26.45 q 0,0.55 0.05,1 0,0.45 0.1,0.75 0.05,0.35 0.15,0.6 0.1,0.25 0.3,0.45 0.15,0.15 0.35,0.25 0.25,0.05 0.55,0.1 0.25,0 0.65,-0.05 0.35,-0.05 0.8,-0.15 l 7.1,7.15"
         fill="#ffffff"
         fill-rule="evenodd"
         stroke="none"
         id="path28" />
    </g>
  </defs>
</svg>
