<?xml version="1.0" encoding="UTF-8" standalone="no"?>
<svg
   height="512"
   width="512"
   version="1.1"
   id="svg33"
   sodipodi:docname="rapier.svg"
   inkscape:version="1.2.1 (9c6d41e410, 2022-07-14)"
   inkscape:export-filename="rapier.png"
   inkscape:export-xdpi="96"
   inkscape:export-ydpi="96"
   xmlns:inkscape="http://www.inkscape.org/namespaces/inkscape"
   xmlns:sodipodi="http://sodipodi.sourceforge.net/DTD/sodipodi-0.dtd"
   xmlns:xlink="http://www.w3.org/1999/xlink"
   xmlns="http://www.w3.org/2000/svg"
   xmlns:svg="http://www.w3.org/2000/svg">
  <sodipodi:namedview
     id="namedview35"
     pagecolor="#ffffff"
     bordercolor="#000000"
     borderopacity="0.25"
     inkscape:showpageshadow="2"
     inkscape:pageopacity="0.0"
     inkscape:pagecheckerboard="true"
     inkscape:deskcolor="#d1d1d1"
     showgrid="false"
     inkscape:zoom="2.0058594"
     inkscape:cx="264.72444"
     inkscape:cy="239.5482"
     inkscape:window-width="2560"
     inkscape:window-height="1351"
     inkscape:window-x="2391"
     inkscape:window-y="-9"
     inkscape:window-maximized="1"
     inkscape:current-layer="layer1" />
  <defs
     id="defs31">
    <g
       id="shape0">
      <path
         d="M 100,100 H 0 V 0 h 100 v 100"
         fill="#00cc66"
         fill-opacity="0"
         fill-rule="evenodd"
         stroke="none"
         id="path8" />
      <path
         d="M 84.3,84.3 V 15.7 H 15.7 v 68.6 h 68.6 m 7.95,7.95 H 7.75 V 7.75 h 84.5 v 84.5"
         fill="#666666"
         fill-opacity="0"
         fill-rule="evenodd"
         stroke="none"
         id="path10" />
      <path
         d="M 84.3,84.3 H 15.7 V 15.7 H 84.3 V 84.3 M 76.4,76.4 V 23.55 H 23.55 V 76.4 H 76.4"
         fill="#999999"
         fill-opacity="0"
         fill-rule="evenodd"
         stroke="none"
         id="path12" />
      <path
         d="M 92.25,92.25 V 7.75 H 7.75 v 84.5 h 84.5 m 3.8,3.8 H 3.95 V 3.95 h 92.1 v 92.1"
         fill="#333333"
         fill-opacity="0"
         fill-rule="evenodd"
         stroke="none"
         id="path14" />
      <path
         d="M 68.85,68.85 V 31.1 H 31.1 V 68.85 H 68.85 M 76.4,76.4 H 23.55 V 23.55 H 76.4 V 76.4"
         fill="#cccccc"
         fill-opacity="0"
         fill-rule="evenodd"
         stroke="none"
         id="path16" />
      <path
         d="M 68.85,68.85 H 31.1 V 31.1 h 37.75 v 37.75"
         fill="#ffffff"
         fill-opacity="0"
         fill-rule="evenodd"
         stroke="none"
         id="path18" />
      <path
         d="M 96.05,96.05 V 3.95 H 3.95 v 92.1 h 92.1 M 100,100 H 0 V 0 h 100 v 100"
         fill="#000000"
         fill-opacity="0"
         fill-rule="evenodd"
         stroke="none"
         id="path20" />
      <path
         d="M 0,50 H 50 L 0,0 M 50,50 V 0 m 0,100 V 50 L 0,100 M 100,50 H 50 l 50,50 M 50,50 100,0"
         fill="none"
         stroke="#000000"
         stroke-linecap="round"
         stroke-linejoin="round"
         stroke-opacity="0"
         stroke-width="0.05"
         id="path22" />
    </g>
    <g
       id="sprite0">
      <use
         height="117.95"
         width="117.9"
         xlink:href="#shape1"
         id="use25" />
    </g>
    <g
       id="shape1">
      <path
         d="m 102.6,68.3 q 0.05,0.2 -0.1,0.45 -0.1,0.2 -0.35,0.4 -0.25,0.2 -0.6,0.4 -0.25,0.2 -0.65,0.4 -1.05,0.6 -0.7,0.4 -0.4,0.2 -0.65,0.4 -0.3,0.2 -0.5,0.35 -0.2,0.2 -0.25,0.4 -0.15,0.55 -2.75,5.1 -2.6,4.65 -3.05,5.05 l 0.45,4.25 24.45,24.4 -7.65,7.65 -24.5,-24.35 q -1.15,-0.1 -2.25,0.1 -0.95,0.2 -1.85,0.6 -0.75,0.4 -1.5,1 -0.6,0.5 -1.15,1.2 -0.5,0.55 -0.9,1.2 -0.3,0.5 -0.6,1.05 -0.2,0.4 -0.35,0.8 -0.05,0.15 -0.1,0.25 -0.8,0.85 -2.3,3.3 -0.65,1.15 -1.35,2.3 -0.2,-0.05 -4.95,-1.45 -5.1,-1.5 -8.35,-2.2 0.65,-0.95 1.45,-1.75 0.7,-0.8 1.55,-1.45 0.7,-0.6 1.55,-1.15 0.7,-0.45 1.45,-0.85 0.65,-0.3 1.35,-0.6 0.5,-0.2 1.05,-0.35 0.35,-0.15 0.7,-0.25 0.1,0 0.25,-0.05 -0.1,0.05 0.3,-0.05 0.4,-0.1 0.85,-0.2 0.6,-0.2 1.2,-0.4 0.75,-0.25 1.45,-0.55 0.8,-0.35 1.55,-0.8 0.8,-0.45 1.5,-1 0.75,-0.55 1.3,-1.25 0.6,-0.7 0.95,-1.5 0.65,-1.4 0.75,-2.6 0.15,-1.1 -0.15,-2 -0.3,-0.8 -0.9,-1.5 -0.5,-0.6 -1.3,-1.05 Q 76.3,82 75.5,81.7 74.85,81.5 74.1,81.3 73.6,81.2 73.1,81.15 72.9,81.1 72.7,81.1 73.1,80.05 70.45,76.25 68.05,72.75 63.1,67.05 58.65,61.85 52.25,55 46.5,48.8 39.5,41.6 33.2,35.1 26.4,28.3 20.25,22.15 14.6,16.65 9.3,11.5 5.7,8.1 2.1,4.75 1.25,4.2 L 0,0 4.15,1 q 0.65,0.95 4.1,4.65 3.4,3.65 8.7,9 5.45,5.6 11.7,11.85 6.75,6.7 13.3,13 7.2,7 13.4,12.75 6.8,6.35 11.95,10.8 5.7,4.9 9.15,7.4 3.75,2.65 4.75,2.35 0,0 0,0.4 0.05,0.45 0.15,0.95 0.1,0.7 0.3,1.35 0.25,0.8 0.6,1.4 0.45,0.75 1,1.3 0.65,0.55 1.45,0.8 0.85,0.3 1.95,0.2 1.2,-0.1 2.6,-0.75 l 12.5,-13.25 q 0.35,0.35 0.6,0.65 0.2,0.3 0.35,0.6 0.1,0.3 0.15,0.55 0.05,0.25 0.05,0.45 -0.05,0.2 -0.1,0.35 0,0.15 -0.1,0.25 0,0.1 -0.05,0.2 -0.05,0 -0.05,0.05"
         fill="#ffffff"
         fill-rule="evenodd"
         stroke="none"
         id="path28" />
    </g>
  </defs>
  <g
     inkscape:groupmode="layer"
     id="layer1"
     inkscape:label="Layer 1">
    <path
       d="m 430.1949,293.06346 q 0.1999,0.7996 -0.3998,1.7991 -0.3998,0.7996 -1.3993,1.59921 -0.9995,0.7996 -2.3988,1.5992 -0.9995,0.7996 -2.5987,1.5992 -4.1979,2.3988 -2.7986,1.5992 -1.5992,0.7996 -2.5987,1.5992 -1.1994,0.7996 -1.999,1.3993 -0.7996,0.7996 -0.9995,1.5992 -0.5997,2.1989 -10.9945,20.3898 -10.39481,18.59071 -12.19391,20.18991 l 1.7991,16.9915 97.75113,97.55123 -30.58471,30.5847 -97.95102,-97.35132 q -4.59771,-0.3998 -8.99551,0.3998 -3.7981,0.7996 -7.3963,2.3988 -2.9985,1.5992 -5.997,3.998 -2.3988,1.999 -4.5977,4.7976 -1.999,2.1989 -3.5982,4.7976 -1.1994,1.999 -2.3988,4.1979 -0.7996,1.59921 -1.3993,3.19841 -0.1999,0.5997 -0.3998,0.9995 -3.1984,3.3983 -9.19541,13.1934 -2.5987,4.5977 -5.3973,9.1954 -0.7996,-0.1999 -19.7901,-5.7971 -20.38981,-5.997 -33.38331,-8.7956 2.5987,-3.7981 5.7971,-6.9965 2.7986,-3.1984 6.1969,-5.79711 2.7986,-2.3988 6.1969,-4.5977 2.79861,-1.7991 5.79711,-3.3983 2.5987,-1.1994 5.3973,-2.3988 1.999,-0.7996 4.1979,-1.3993 1.3993,-0.5997 2.7986,-0.9995 0.3998,0 0.9995,-0.1999 -0.3998,0.1999 1.1994,-0.1999 1.5992,-0.3998 3.3983,-0.7996 2.3988,-0.7996 4.7976,-1.5992 2.9985,-0.9995 5.7971,-2.1989 3.1984,-1.3993 6.1969,-3.1984 3.19841,-1.7991 5.99701,-3.998 2.9985,-2.1989 5.1974,-4.9975 2.3988,-2.7986 3.7981,-5.997 2.5987,-5.59721 2.9985,-10.39481 0.5997,-4.3978 -0.5997,-7.996 -1.1994,-3.1984 -3.5982,-5.997 -1.999,-2.3988 -5.1974,-4.1979 -2.5987,-1.5992 -5.7971,-2.7986 -2.59871,-0.7996 -5.59721,-1.5992 -1.999,-0.3998 -3.998,-0.5997 -0.7996,-0.1999 -1.5992,-0.1999 1.5992,-4.1979 -8.9955,-19.39031 -9.5952,-13.993 -29.38531,-36.78161 -17.7911,-20.7896 -43.37831,-48.17591 -22.9885,-24.78761 -50.97451,-53.57321 Q 152.73363,160.32983 125.54723,133.14342 100.95952,108.55572 78.370815,86.566717 57.181409,65.977012 42.788606,52.383808 28.395802,38.990505 24.997501,36.791604 L 20,20 36.591704,23.998001 q 2.598701,3.798101 16.391804,18.590705 13.593204,14.592703 34.782609,35.982009 21.789103,22.388805 46.776613,47.376305 26.98651,26.78661 53.17341,51.97402 28.78561,27.986 53.57322,50.97451 27.1864,25.3873 47.77611,43.17841 22.7886,19.5902 36.58171,29.58521 14.9925,10.5947 18.9905,9.3953 0,0 0,1.5992 0.1999,1.7991 0.5997,3.7981 0.3998,2.7986 1.1994,5.3973 0.9995,3.1984 2.3988,5.5972 1.7991,2.9985 3.998,5.1974 2.5987,2.1989 5.7971,3.19841 3.39831,1.1994 7.79611,0.7996 4.7976,-0.3998 10.3948,-2.99851 l 49.97501,-52.97351 q 1.3993,1.3993 2.3988,2.5987 0.7996,1.1994 1.3993,2.3988 0.3998,1.1994 0.5997,2.1989 0.1999,0.9995 0.1999,1.7991 -0.1999,0.7996 -0.3998,1.3993 0,0.5997 -0.3998,0.9995 0,0.3998 -0.1999,0.7996 -0.1999,0 -0.1999,0.1999"
       fill="#ffffff"
       fill-rule="evenodd"
       stroke="none"
       id="path253"
       style="stroke-width:3.998" />
  </g>
</svg>
