<?xml version="1.0" encoding="UTF-8" standalone="no"?>
<svg
   height="512"
   width="512"
   version="1.1"
   id="svg33"
   sodipodi:docname="rapier.svg"
   inkscape:version="1.2.1 (9c6d41e410, 2022-07-14)"
   inkscape:export-filename="rapier.png"
   inkscape:export-xdpi="96"
   inkscape:export-ydpi="96"
   xmlns:inkscape="http://www.inkscape.org/namespaces/inkscape"
   xmlns:sodipodi="http://sodipodi.sourceforge.net/DTD/sodipodi-0.dtd"
   xmlns:xlink="http://www.w3.org/1999/xlink"
   xmlns="http://www.w3.org/2000/svg"
   xmlns:svg="http://www.w3.org/2000/svg">
  <sodipodi:namedview
     id="namedview35"
     pagecolor="#ffffff"
     bordercolor="#000000"
     borderopacity="0.25"
     inkscape:showpageshadow="2"
     inkscape:pageopacity="0.0"
     inkscape:pagecheckerboard="true"
     inkscape:deskcolor="#d1d1d1"
     showgrid="false"
     inkscape:zoom="2.0058594"
     inkscape:cx="324.05063"
     inkscape:cy="318.81597"
     inkscape:window-width="2560"
     inkscape:window-height="1351"
     inkscape:window-x="2391"
     inkscape:window-y="-9"
     inkscape:window-maximized="1"
     inkscape:current-layer="svg33" />
  <g
     id="g6"
     transform="matrix(3.998001,0,0,3.998001,0.12793603,0.12793603)">
    <use
       height="100"
       transform="scale(1.28)"
       width="100"
       xlink:href="#shape0"
       id="use2" />
    <use
       height="117.95"
       width="117.9"
       xlink:href="#sprite0"
       id="use4" />
  </g>
  <defs
     id="defs31">
    <g
       id="shape0">
      <path
         d="M 100,100 H 0 V 0 h 100 v 100"
         fill="#00cc66"
         fill-opacity="0"
         fill-rule="evenodd"
         stroke="none"
         id="path8" />
      <path
         d="M 84.3,84.3 V 15.7 H 15.7 v 68.6 h 68.6 m 7.95,7.95 H 7.75 V 7.75 h 84.5 v 84.5"
         fill="#666666"
         fill-opacity="0"
         fill-rule="evenodd"
         stroke="none"
         id="path10" />
      <path
         d="M 84.3,84.3 H 15.7 V 15.7 H 84.3 V 84.3 M 76.4,76.4 V 23.55 H 23.55 V 76.4 H 76.4"
         fill="#999999"
         fill-opacity="0"
         fill-rule="evenodd"
         stroke="none"
         id="path12" />
      <path
         d="M 92.25,92.25 V 7.75 H 7.75 v 84.5 h 84.5 m 3.8,3.8 H 3.95 V 3.95 h 92.1 v 92.1"
         fill="#333333"
         fill-opacity="0"
         fill-rule="evenodd"
         stroke="none"
         id="path14" />
      <path
         d="M 68.85,68.85 V 31.1 H 31.1 V 68.85 H 68.85 M 76.4,76.4 H 23.55 V 23.55 H 76.4 V 76.4"
         fill="#cccccc"
         fill-opacity="0"
         fill-rule="evenodd"
         stroke="none"
         id="path16" />
      <path
         d="M 68.85,68.85 H 31.1 V 31.1 h 37.75 v 37.75"
         fill="#ffffff"
         fill-opacity="0"
         fill-rule="evenodd"
         stroke="none"
         id="path18" />
      <path
         d="M 96.05,96.05 V 3.95 H 3.95 v 92.1 h 92.1 M 100,100 H 0 V 0 h 100 v 100"
         fill="#000000"
         fill-opacity="0"
         fill-rule="evenodd"
         stroke="none"
         id="path20" />
      <path
         d="M 0,50 H 50 L 0,0 M 50,50 V 0 m 0,100 V 50 L 0,100 M 100,50 H 50 l 50,50 M 50,50 100,0"
         fill="none"
         stroke="#000000"
         stroke-linecap="round"
         stroke-linejoin="round"
         stroke-opacity="0"
         stroke-width="0.05"
         id="path22" />
    </g>
    <g
       id="sprite0">
      <use
         height="117.95"
         width="117.9"
         xlink:href="#shape1"
         id="use25" />
    </g>
    <g
       id="shape1">
      <path
         d="m 102.6,68.3 q 0.05,0.2 -0.1,0.45 -0.1,0.2 -0.35,0.4 -0.25,0.2 -0.6,0.4 -0.25,0.2 -0.65,0.4 -1.05,0.6 -0.7,0.4 -0.4,0.2 -0.65,0.4 -0.3,0.2 -0.5,0.35 -0.2,0.2 -0.25,0.4 -0.15,0.55 -2.75,5.1 -2.6,4.65 -3.05,5.05 l 0.45,4.25 24.45,24.4 -7.65,7.65 -24.5,-24.35 q -1.15,-0.1 -2.25,0.1 -0.95,0.2 -1.85,0.6 -0.75,0.4 -1.5,1 -0.6,0.5 -1.15,1.2 -0.5,0.55 -0.9,1.2 -0.3,0.5 -0.6,1.05 -0.2,0.4 -0.35,0.8 -0.05,0.15 -0.1,0.25 -0.8,0.85 -2.3,3.3 -0.65,1.15 -1.35,2.3 -0.2,-0.05 -4.95,-1.45 -5.1,-1.5 -8.35,-2.2 0.65,-0.95 1.45,-1.75 0.7,-0.8 1.55,-1.45 0.7,-0.6 1.55,-1.15 0.7,-0.45 1.45,-0.85 0.65,-0.3 1.35,-0.6 0.5,-0.2 1.05,-0.35 0.35,-0.15 0.7,-0.25 0.1,0 0.25,-0.05 -0.1,0.05 0.3,-0.05 0.4,-0.1 0.85,-0.2 0.6,-0.2 1.2,-0.4 0.75,-0.25 1.45,-0.55 0.8,-0.35 1.55,-0.8 0.8,-0.45 1.5,-1 0.75,-0.55 1.3,-1.25 0.6,-0.7 0.95,-1.5 0.65,-1.4 0.75,-2.6 0.15,-1.1 -0.15,-2 -0.3,-0.8 -0.9,-1.5 -0.5,-0.6 -1.3,-1.05 Q 76.3,82 75.5,81.7 74.85,81.5 74.1,81.3 73.6,81.2 73.1,81.15 72.9,81.1 72.7,81.1 73.1,80.05 70.45,76.25 68.05,72.75 63.1,67.05 58.65,61.85 52.25,55 46.5,48.8 39.5,41.6 33.2,35.1 26.4,28.3 20.25,22.15 14.6,16.65 9.3,11.5 5.7,8.1 2.1,4.75 1.25,4.2 L 0,0 4.15,1 q 0.65,0.95 4.1,4.65 3.4,3.65 8.7,9 5.45,5.6 11.7,11.85 6.75,6.7 13.3,13 7.2,7 13.4,12.75 6.8,6.35 11.95,10.8 5.7,4.9 9.15,7.4 3.75,2.65 4.75,2.35 0,0 0,0.4 0.05,0.45 0.15,0.95 0.1,0.7 0.3,1.35 0.25,0.8 0.6,1.4 0.45,0.75 1,1.3 0.65,0.55 1.45,0.8 0.85,0.3 1.95,0.2 1.2,-0.1 2.6,-0.75 l 12.5,-13.25 q 0.35,0.35 0.6,0.65 0.2,0.3 0.35,0.6 0.1,0.3 0.15,0.55 0.05,0.25 0.05,0.45 -0.05,0.2 -0.1,0.35 0,0.15 -0.1,0.25 0,0.1 -0.05,0.2 -0.05,0 -0.05,0.05"
         fill="#ffffff"
         fill-rule="evenodd"
         stroke="none"
         id="path28" />
    </g>
  </defs>
</svg>
