<?xml version="1.0" encoding="UTF-8" standalone="no"?>
<svg
   style="height: 512px; width: 512px;"
   viewBox="0 0 512 512"
   version="1.1"
   id="svg6"
   sodipodi:docname="rapier.svg"
   inkscape:version="1.2.1 (9c6d41e410, 2022-07-14)"
   xmlns:inkscape="http://www.inkscape.org/namespaces/inkscape"
   xmlns:sodipodi="http://sodipodi.sourceforge.net/DTD/sodipodi-0.dtd"
   xmlns="http://www.w3.org/2000/svg"
   xmlns:svg="http://www.w3.org/2000/svg">
  <defs
     id="defs10" />
  <sodipodi:namedview
     id="namedview8"
     pagecolor="#ffffff"
     bordercolor="#000000"
     borderopacity="0.25"
     inkscape:showpageshadow="2"
     inkscape:pageopacity="0.0"
     inkscape:pagecheckerboard="true"
     inkscape:deskcolor="#d1d1d1"
     showgrid="false"
     inkscape:zoom="2.0058594"
     inkscape:cx="233.06719"
     inkscape:cy="256"
     inkscape:window-width="2560"
     inkscape:window-height="1351"
     inkscape:window-x="2391"
     inkscape:window-y="-9"
     inkscape:window-maximized="1"
     inkscape:current-layer="svg6" />
  <g
     class=""
     style=""
     transform="translate(0,0)"
     id="g4">
    <path
       d="M38.748 473.09a20.53 20.53 0 1 0 0-29 20.46 20.46 0 0 0 0 29zm89.32-218a8.51 8.51 0 1 1 12 12 38.43 38.43 0 0 0 0 54.36l50.6 50.52a38.47 38.47 0 0 0 54.4 0 8.54 8.54 0 0 1 12-.06 8.42 8.42 0 0 1 0 12 55 55 0 0 1-39.22 16.06 54.94 54.94 0 0 1-39.22-16.08l-50.56-50.37a55.46 55.46 0 0 1 0-78.43zm314.86-196.81c8.78-8.31 36.35-25.4 36.35-25.4s-17.08 27.56-25.4 36.35c-58.39 61.66-215.17 222.6-267.3 276.06l-19.71-19.71c53.46-52.13 214.4-208.91 276.06-267.3zm-336.79 325.53c8.8-8.8 17.5-16.88 25.68-23.94l20.47 20.47c-7.07 8.19-15.14 16.88-23.94 25.68a423.48 423.48 0 0 1-41.95 37.16 36.77 36.77 0 0 0-17.33-17.54 424 424 0 0 1 37.07-41.83z"
       fill="#fff"
       fill-opacity="1"
       id="path2" />
  </g>
</svg>
