<?xml version="1.0" encoding="UTF-8" standalone="no"?>
<svg
   height="512"
   width="512"
   version="1.1"
   id="svg33"
   sodipodi:docname="restoration.svg"
   inkscape:version="1.2.1 (9c6d41e410, 2022-07-14)"
   inkscape:export-filename="restoration.png"
   inkscape:export-xdpi="96"
   inkscape:export-ydpi="96"
   xmlns:inkscape="http://www.inkscape.org/namespaces/inkscape"
   xmlns:sodipodi="http://sodipodi.sourceforge.net/DTD/sodipodi-0.dtd"
   xmlns:xlink="http://www.w3.org/1999/xlink"
   xmlns="http://www.w3.org/2000/svg"
   xmlns:svg="http://www.w3.org/2000/svg">
  <sodipodi:namedview
     id="namedview35"
     pagecolor="#ffffff"
     bordercolor="#000000"
     borderopacity="0.25"
     inkscape:showpageshadow="2"
     inkscape:pageopacity="0.0"
     inkscape:pagecheckerboard="true"
     inkscape:deskcolor="#d1d1d1"
     showgrid="false"
     inkscape:zoom="1.4183568"
     inkscape:cx="365.21136"
     inkscape:cy="280.25389"
     inkscape:window-width="2560"
     inkscape:window-height="1351"
     inkscape:window-x="2391"
     inkscape:window-y="-9"
     inkscape:window-maximized="1"
     inkscape:current-layer="svg33" />
  <g
     id="g6"
     transform="matrix(3.998001,0,0,3.998001,0.12793603,0.12793603)">
    <use
       height="100"
       transform="scale(1.28)"
       width="100"
       xlink:href="#shape0"
       id="use2" />
    <use
       height="960.84998"
       transform="matrix(0.098,0,0,0.0979,5.0205,16.9498)"
       width="1205.05"
       xlink:href="#sprite0"
       id="use4" />
  </g>
  <defs
     id="defs31">
    <g
       id="shape0">
      <path
         d="M 100,100 H 0 V 0 h 100 v 100"
         fill="#00cc66"
         fill-opacity="0"
         fill-rule="evenodd"
         stroke="none"
         id="path8" />
      <path
         d="M 84.3,84.3 V 15.7 H 15.7 v 68.6 h 68.6 m 7.95,7.95 H 7.75 V 7.75 h 84.5 v 84.5"
         fill="#666666"
         fill-opacity="0"
         fill-rule="evenodd"
         stroke="none"
         id="path10" />
      <path
         d="M 84.3,84.3 H 15.7 V 15.7 H 84.3 V 84.3 M 76.4,76.4 V 23.55 H 23.55 V 76.4 H 76.4"
         fill="#999999"
         fill-opacity="0"
         fill-rule="evenodd"
         stroke="none"
         id="path12" />
      <path
         d="M 92.25,92.25 V 7.75 H 7.75 v 84.5 h 84.5 m 3.8,3.8 H 3.95 V 3.95 h 92.1 v 92.1"
         fill="#333333"
         fill-opacity="0"
         fill-rule="evenodd"
         stroke="none"
         id="path14" />
      <path
         d="M 68.85,68.85 V 31.1 H 31.1 V 68.85 H 68.85 M 76.4,76.4 H 23.55 V 23.55 H 76.4 V 76.4"
         fill="#cccccc"
         fill-opacity="0"
         fill-rule="evenodd"
         stroke="none"
         id="path16" />
      <path
         d="M 68.85,68.85 H 31.1 V 31.1 h 37.75 v 37.75"
         fill="#ffffff"
         fill-opacity="0"
         fill-rule="evenodd"
         stroke="none"
         id="path18" />
      <path
         d="M 96.05,96.05 V 3.95 H 3.95 v 92.1 h 92.1 M 100,100 H 0 V 0 h 100 v 100"
         fill="#000000"
         fill-opacity="0"
         fill-rule="evenodd"
         stroke="none"
         id="path20" />
      <path
         d="M 0,50 H 50 L 0,0 M 50,50 V 0 m 0,100 V 50 L 0,100 M 100,50 H 50 l 50,50 M 50,50 100,0"
         fill="none"
         stroke="#000000"
         stroke-linecap="round"
         stroke-linejoin="round"
         stroke-opacity="0"
         stroke-width="0.05"
         id="path22" />
    </g>
    <g
       id="sprite0"
       transform="translate(-51.25,-9.7)">
      <use
         height="960.84998"
         transform="translate(51.25,9.7)"
         width="1205.05"
         xlink:href="#shape1"
         id="use25" />
    </g>
    <g
       id="shape1"
       transform="translate(-51.25,-9.7)">
      <path
         d="m 1256.3,208.6 q -41.85,216.15 -368.5,169.4 55.3,42.4 208.45,42.4 -55.95,144.45 -264.9,73.15 11.85,42.25 100.6,61.95 Q 877,616.45 782.2,604 769.55,581.25 746.4,561.6 815.2,663.25 760.05,773.75 672.2,914.8 658.7,970.55 628.05,916.3 683.8,830.05 l 0.25,-1.85 Q 717.7,770.15 670.7,735.55 670.5,779.3 642.3,792.8 646.45,715.9 591.8,661.25 536.95,605.7 564.25,557.9 540.9,579.5 533,604 438.2,616.45 383.05,555.5 460.25,534.05 483.4,493.55 274.65,564.85 218.85,420.4 371.95,420.4 427.4,378 100.75,424.75 51.25,193 q 85.3,87.25 270.85,46.45 106,-27.55 210.45,-25.2 10.3,0.85 2.45,9 -7.65,12.25 -5,17.25 32.5,35.5 67,14.6 53.15,-53.3 2.45,-87.85 -28.8,-11.95 -91.75,-11.3 4.1,-12.9 17.25,-22.5 -30.15,-7.6 -60.75,17.4 -7.9,-40.3 40.35,-56.1 Q 494.3,58.7 531.3,57.55 609.9,53.6 643.15,9.7 q 9.45,22.75 -8.75,51.35 73.9,-19.9 119.85,19.25 -45.3,-7.85 -65.65,20.9 53.8,10.3 69.55,49.65 -26.5,-12.2 -37.85,-1.7 37.85,63.15 -2.6,113.25 33.2,15.9 66.95,-17.3 4.05,-7.9 -3.75,-16.65 -16.6,-14.55 0,-14.2 105.3,-2.8 212.2,25.2 185.35,40.8 263.2,-30.85 M 651.45,574.3 q -69.25,68.8 88.3,169.8 47.45,-81.75 -88.3,-169.8 M 535.2,100.2 q 37.6,25.35 63.6,-15.95 -42.5,-15.35 -63.6,15.95"
         fill="#ffffff"
         fill-rule="evenodd"
         stroke="none"
         id="path28" />
    </g>
  </defs>
</svg>
