<?xml version="1.0" encoding="UTF-8" standalone="no"?>
<svg
   height="512"
   width="512"
   version="1.1"
   id="svg33"
   sodipodi:docname="scroll.svg"
   inkscape:version="1.2.1 (9c6d41e410, 2022-07-14)"
   inkscape:export-filename="scroll.png"
   inkscape:export-xdpi="96"
   inkscape:export-ydpi="96"
   xmlns:inkscape="http://www.inkscape.org/namespaces/inkscape"
   xmlns:sodipodi="http://sodipodi.sourceforge.net/DTD/sodipodi-0.dtd"
   xmlns:xlink="http://www.w3.org/1999/xlink"
   xmlns="http://www.w3.org/2000/svg"
   xmlns:svg="http://www.w3.org/2000/svg">
  <sodipodi:namedview
     id="namedview35"
     pagecolor="#ffffff"
     bordercolor="#000000"
     borderopacity="0.25"
     inkscape:showpageshadow="2"
     inkscape:pageopacity="0.0"
     inkscape:pagecheckerboard="true"
     inkscape:deskcolor="#d1d1d1"
     showgrid="false"
     inkscape:zoom="1.619416"
     inkscape:cx="95.096013"
     inkscape:cy="286.8318"
     inkscape:window-width="2560"
     inkscape:window-height="1351"
     inkscape:window-x="2391"
     inkscape:window-y="-9"
     inkscape:window-maximized="1"
     inkscape:current-layer="svg33" />
  <g
     id="g6"
     transform="matrix(3.998001,0,0,3.998001,0.12793603,0.12793603)">
    <use
       height="100"
       transform="scale(1.28)"
       width="100"
       xlink:href="#shape0"
       id="use2" />
    <use
       height="593.04999"
       transform="matrix(0.1981,0,0,0.1988,5.1565,4.9105)"
       width="593.04999"
       xlink:href="#sprite0"
       id="use4" />
  </g>
  <defs
     id="defs31">
    <g
       id="shape0">
      <path
         d="M 100,100 H 0 V 0 h 100 v 100"
         fill="#00cc66"
         fill-opacity="0"
         fill-rule="evenodd"
         stroke="none"
         id="path8" />
      <path
         d="M 84.3,84.3 V 15.7 H 15.7 v 68.6 h 68.6 m 7.95,7.95 H 7.75 V 7.75 h 84.5 v 84.5"
         fill="#666666"
         fill-opacity="0"
         fill-rule="evenodd"
         stroke="none"
         id="path10" />
      <path
         d="M 84.3,84.3 H 15.7 V 15.7 H 84.3 V 84.3 M 76.4,76.4 V 23.55 H 23.55 V 76.4 H 76.4"
         fill="#999999"
         fill-opacity="0"
         fill-rule="evenodd"
         stroke="none"
         id="path12" />
      <path
         d="M 92.25,92.25 V 7.75 H 7.75 v 84.5 h 84.5 m 3.8,3.8 H 3.95 V 3.95 h 92.1 v 92.1"
         fill="#333333"
         fill-opacity="0"
         fill-rule="evenodd"
         stroke="none"
         id="path14" />
      <path
         d="M 68.85,68.85 V 31.1 H 31.1 V 68.85 H 68.85 M 76.4,76.4 H 23.55 V 23.55 H 76.4 V 76.4"
         fill="#cccccc"
         fill-opacity="0"
         fill-rule="evenodd"
         stroke="none"
         id="path16" />
      <path
         d="M 68.85,68.85 H 31.1 V 31.1 h 37.75 v 37.75"
         fill="#ffffff"
         fill-opacity="0"
         fill-rule="evenodd"
         stroke="none"
         id="path18" />
      <path
         d="M 96.05,96.05 V 3.95 H 3.95 v 92.1 h 92.1 M 100,100 H 0 V 0 h 100 v 100"
         fill="#000000"
         fill-opacity="0"
         fill-rule="evenodd"
         stroke="none"
         id="path20" />
      <path
         d="M 0,50 H 50 L 0,0 M 50,50 V 0 m 0,100 V 50 L 0,100 M 100,50 H 50 l 50,50 M 50,50 100,0"
         fill="none"
         stroke="#000000"
         stroke-linecap="round"
         stroke-linejoin="round"
         stroke-opacity="0"
         stroke-width="0.05"
         id="path22" />
    </g>
    <g
       id="sprite0"
       transform="translate(216.25,-24.7)">
      <use
         height="593.04999"
         transform="translate(-216.25,24.7)"
         width="593.04999"
         xlink:href="#shape1"
         id="use25" />
    </g>
    <g
       id="shape1"
       transform="translate(216.25,-24.7)">
      <path
         d="M 190.95,301.7 Q 118.5,340.35 72.15,412 q -5.4,8.4 -10.2,17.3 v 0.15 Q 55.5,424.5 49.75,419.55 27.75,401.15 8.2,379.65 3.1,374.6 -1.25,369.1 -9,360.3 -16.6,350.8 31.45,267.05 111.6,223.75 q 46.25,32.65 78.4,77 l 0.95,0.95 M 209,587.9 q 9.65,9.65 40.05,-1.75 20.45,-7.05 39.7,-23.55 5.5,-5.8 -3.3,-13.2 l -34.9,-31.6 10.45,-11.35 29.6,27 9.05,9.5 q 14.55,17.85 7,25.7 -43.75,38.25 -112.9,49.1 Q 150.1,535.35 91.85,463.6 L 75.9,444.9 q 5.3,-9.5 11.15,-18.05 46.45,-72.35 119.6,-110.85 78,66.6 170.15,118.7 -8.4,72.75 -64.95,102.75 l -8.65,-9.5 q 33.15,-16.5 42.65,-40.3 11.3,-28.75 1.65,-38.4 -9.2,-9.35 -36.35,4.25 -27.2,13.5 -55.8,42.15 l -3,3 q -5.55,5.55 -10.45,11.55 -18.45,20.9 -28.75,41.4 -13.4,26.95 -4.15,36.3 M 53,460 q -4.35,37.15 3.3,72.35 2.5,11.55 6.2,23.25 L 28,521.1 0.65,553.4 q -4.7,-16.35 -7.4,-32.75 -9.85,-57.3 6.55,-110.15 l 3.3,-9.75 q 23.8,25.85 51.05,47.95 -1,5.65 -1.15,11.3 M -31.85,337.05 Q -114.05,265.4 -216.25,207.75 -171,80.3 -33.2,24.7 23.9,125.1 97.75,208.75 q -81.3,43.3 -129.6,128.3"
         fill="#ffffff"
         fill-rule="evenodd"
         stroke="none"
         id="path28" />
    </g>
  </defs>
</svg>
