<?xml version="1.0" encoding="UTF-8" standalone="no"?>
<svg
   height="512"
   width="512"
   version="1.1"
   id="svg33"
   sodipodi:docname="shout.svg"
   inkscape:version="1.2.1 (9c6d41e410, 2022-07-14)"
   inkscape:export-filename="shout.png"
   inkscape:export-xdpi="96"
   inkscape:export-ydpi="96"
   xmlns:inkscape="http://www.inkscape.org/namespaces/inkscape"
   xmlns:sodipodi="http://sodipodi.sourceforge.net/DTD/sodipodi-0.dtd"
   xmlns:xlink="http://www.w3.org/1999/xlink"
   xmlns="http://www.w3.org/2000/svg"
   xmlns:svg="http://www.w3.org/2000/svg">
  <sodipodi:namedview
     id="namedview35"
     pagecolor="#ffffff"
     bordercolor="#000000"
     borderopacity="0.25"
     inkscape:showpageshadow="2"
     inkscape:pageopacity="0.0"
     inkscape:pagecheckerboard="true"
     inkscape:deskcolor="#d1d1d1"
     showgrid="false"
     inkscape:zoom="2.1386719"
     inkscape:cx="185.16164"
     inkscape:cy="219.06118"
     inkscape:window-width="2560"
     inkscape:window-height="1351"
     inkscape:window-x="2391"
     inkscape:window-y="-9"
     inkscape:window-maximized="1"
     inkscape:current-layer="svg33" />
  <defs
     id="defs31">
    <g
       id="shape0">
      <path
         d="M 100,100 H 0 V 0 h 100 v 100"
         fill="#00cc66"
         fill-opacity="0"
         fill-rule="evenodd"
         stroke="none"
         id="path8" />
      <path
         d="M 84.3,84.3 V 15.7 H 15.7 v 68.6 h 68.6 m 7.95,7.95 H 7.75 V 7.75 h 84.5 v 84.5"
         fill="#666666"
         fill-opacity="0"
         fill-rule="evenodd"
         stroke="none"
         id="path10" />
      <path
         d="M 84.3,84.3 H 15.7 V 15.7 H 84.3 V 84.3 M 76.4,76.4 V 23.55 H 23.55 V 76.4 H 76.4"
         fill="#999999"
         fill-opacity="0"
         fill-rule="evenodd"
         stroke="none"
         id="path12" />
      <path
         d="M 92.25,92.25 V 7.75 H 7.75 v 84.5 h 84.5 m 3.8,3.8 H 3.95 V 3.95 h 92.1 v 92.1"
         fill="#333333"
         fill-opacity="0"
         fill-rule="evenodd"
         stroke="none"
         id="path14" />
      <path
         d="M 68.85,68.85 V 31.1 H 31.1 V 68.85 H 68.85 M 76.4,76.4 H 23.55 V 23.55 H 76.4 V 76.4"
         fill="#cccccc"
         fill-opacity="0"
         fill-rule="evenodd"
         stroke="none"
         id="path16" />
      <path
         d="M 68.85,68.85 H 31.1 V 31.1 h 37.75 v 37.75"
         fill="#ffffff"
         fill-opacity="0"
         fill-rule="evenodd"
         stroke="none"
         id="path18" />
      <path
         d="M 96.05,96.05 V 3.95 H 3.95 v 92.1 h 92.1 M 100,100 H 0 V 0 h 100 v 100"
         fill="#000000"
         fill-opacity="0"
         fill-rule="evenodd"
         stroke="none"
         id="path20" />
      <path
         d="M 0,50 H 50 L 0,0 M 50,50 V 0 m 0,100 V 50 L 0,100 M 100,50 H 50 l 50,50 M 50,50 100,0"
         fill="none"
         stroke="#000000"
         stroke-linecap="round"
         stroke-linejoin="round"
         stroke-opacity="0"
         stroke-width="0.05"
         id="path22" />
    </g>
    <g
       id="sprite0"
       transform="translate(-36.25,-34.75)">
      <use
         height="483.79999"
         transform="translate(36.25,34.75)"
         width="966.09998"
         xlink:href="#shape1"
         id="use25" />
    </g>
    <g
       id="shape1"
       transform="translate(-36.25,-34.75)">
      <path
         d="m 1001.3,275.55 v 83.75 q 0,3.15 -3.2,3.15 -12.3,0 -25.7,-16.6 -22.7,-5.25 -22.7,-12.25 -9.45,-6.4 -13.5,-6.4 h -3.15 q -5.2,0 -9.35,4.15 -27.85,-4.15 -57.85,-4.15 H 689.2 q -45.55,0 -126.1,1.15 -9.4,0 -14.45,-13.45 43.4,-13.45 283.2,-30 37.2,-11.4 118.75,-18.65 l 44.5,-4.1 q 4.15,1.15 7.25,5.2 l -1.05,8.2 M 849.35,86.6 q -47.55,42.25 -59.85,48.45 -6.25,0 -61.1,-47.55 v -5.15 q 53.8,-47.6 59.95,-47.6 h 3.1 q 47.55,38.4 57.9,47.6 v 4.25 m 96.1,383.35 q -2.1,0 -5.2,-2.05 h -8.2 l -8.35,2.05 q -10.35,0 -51.6,-4.15 -115.75,2.1 -182.9,2.1 H 563.1 q -9.4,0 -14.45,-12.5 0,-4.15 76.4,-14.45 248.2,-17.55 248.2,-26.9 71.2,-8.2 122.9,-11.2 5.15,1.95 5.15,4.05 v 94 l -2.05,2.05 q -13.45,0 -30,-19.6 -14.45,0 -23.8,-13.4 M 505.5,49.35 q -36.2,85.7 -40.35,88.85 -14.5,0 -22.75,58.7 l -2.1,1.2 q -21.7,-4.2 -21.7,-20.75 V 153.6 q 0,-13.3 -1.05,-36.2 l 8.4,-23.75 q 0,-12.45 -39.3,-18.6 Q 370,58.65 370,56.5 q 3.25,-18.7 6.3,-18.7 v -0.9 q 20.65,7.15 24.85,7.15 h 96 q 6.3,0 8.35,5.3 M 402.2,278.7 q 0,11.35 -40.35,33.1 L 225.4,416.3 q -32,0 -75.45,33 -76.55,48.5 -112.8,69.25 l -0.9,-3.15 q 0,-20.6 77.5,-83.75 19.65,-19.6 29.95,-19.6 l 17.6,1.1 q 12.45,0 16.45,-15.55 54.85,-41.3 109.6,-93.05 4.2,-20.7 17.6,-29 11.4,-4.15 11.4,-17.45 v -1.2 q 0,-9.3 -13.5,-28.85 3.2,-24.7 8.3,-24.7 h 1 q 14.5,5.1 70.4,56.85 18.6,7.15 18.6,17.5 1.05,0 1.05,1 M 228.45,159.85 q -54.7,47.55 -61,47.55 -6.15,0 -60.9,-47.55 v -5.2 q 54.75,-47.6 61.95,-47.6 4.15,0 59.95,47.6 v 5.2"
         fill="#ffffff"
         fill-rule="evenodd"
         stroke="none"
         id="path28" />
    </g>
  </defs>
  <g
     inkscape:groupmode="layer"
     id="layer1"
     inkscape:label="Layer 1">
    <path
       d="m 1001.3,275.55 v 83.75 q 0,3.15 -3.2,3.15 -12.3,0 -25.7,-16.6 -22.7,-5.25 -22.7,-12.25 -9.45,-6.4 -13.5,-6.4 h -3.15 q -5.2,0 -9.35,4.15 -27.85,-4.15 -57.85,-4.15 H 689.2 q -45.55,0 -126.1,1.15 -9.4,0 -14.45,-13.45 43.4,-13.45 283.2,-30 37.2,-11.4 118.75,-18.65 l 44.5,-4.1 q 4.15,1.15 7.25,5.2 l -1.05,8.2 M 849.35,86.6 q -47.55,42.25 -59.85,48.45 -6.25,0 -61.1,-47.55 v -5.15 q 53.8,-47.6 59.95,-47.6 h 3.1 q 47.55,38.4 57.9,47.6 v 4.25 m 96.1,383.35 q -2.1,0 -5.2,-2.05 h -8.2 l -8.35,2.05 q -10.35,0 -51.6,-4.15 -115.75,2.1 -182.9,2.1 H 563.1 q -9.4,0 -14.45,-12.5 0,-4.15 76.4,-14.45 248.2,-17.55 248.2,-26.9 71.2,-8.2 122.9,-11.2 5.15,1.95 5.15,4.05 v 94 l -2.05,2.05 q -13.45,0 -30,-19.6 -14.45,0 -23.8,-13.4 M 505.5,49.35 q -36.2,85.7 -40.35,88.85 -14.5,0 -22.75,58.7 l -2.1,1.2 q -21.7,-4.2 -21.7,-20.75 V 153.6 q 0,-13.3 -1.05,-36.2 l 8.4,-23.75 q 0,-12.45 -39.3,-18.6 Q 370,58.65 370,56.5 q 3.25,-18.7 6.3,-18.7 v -0.9 q 20.65,7.15 24.85,7.15 h 96 q 6.3,0 8.35,5.3 M 402.2,278.7 q 0,11.35 -40.35,33.1 L 225.4,416.3 q -32,0 -75.45,33 -76.55,48.5 -112.8,69.25 l -0.9,-3.15 q 0,-20.6 77.5,-83.75 19.65,-19.6 29.95,-19.6 l 17.6,1.1 q 12.45,0 16.45,-15.55 54.85,-41.3 109.6,-93.05 4.2,-20.7 17.6,-29 11.4,-4.15 11.4,-17.45 v -1.2 q 0,-9.3 -13.5,-28.85 3.2,-24.7 8.3,-24.7 h 1 q 14.5,5.1 70.4,56.85 18.6,7.15 18.6,17.5 1.05,0 1.05,1 M 228.45,159.85 q -54.7,47.55 -61,47.55 -6.15,0 -60.9,-47.55 v -5.2 q 54.75,-47.6 61.95,-47.6 4.15,0 59.95,47.6 v 5.2"
       fill="#ffffff"
       fill-rule="evenodd"
       stroke="none"
       id="path149"
       transform="matrix(0.48895552,0,0,0.48935532,1.131934,120.06437)" />
  </g>
</svg>
