<?xml version="1.0" encoding="UTF-8" standalone="no"?>
<svg
   height="512"
   width="512"
   version="1.1"
   id="svg33"
   sodipodi:docname="default_spell.svg"
   inkscape:version="1.2.1 (9c6d41e410, 2022-07-14)"
   inkscape:export-filename="default_spell.png"
   inkscape:export-xdpi="96"
   inkscape:export-ydpi="96"
   xmlns:inkscape="http://www.inkscape.org/namespaces/inkscape"
   xmlns:sodipodi="http://sodipodi.sourceforge.net/DTD/sodipodi-0.dtd"
   xmlns:xlink="http://www.w3.org/1999/xlink"
   xmlns="http://www.w3.org/2000/svg"
   xmlns:svg="http://www.w3.org/2000/svg">
  <sodipodi:namedview
     id="namedview35"
     pagecolor="#ffffff"
     bordercolor="#000000"
     borderopacity="0.25"
     inkscape:showpageshadow="2"
     inkscape:pageopacity="0.0"
     inkscape:pagecheckerboard="true"
     inkscape:deskcolor="#d1d1d1"
     showgrid="false"
     inkscape:zoom="1.4183568"
     inkscape:cx="28.201649"
     inkscape:cy="204.10944"
     inkscape:window-width="2560"
     inkscape:window-height="1351"
     inkscape:window-x="2391"
     inkscape:window-y="-9"
     inkscape:window-maximized="1"
     inkscape:current-layer="svg33" />
  <g
     id="g6"
     transform="matrix(3.998001,0,0,3.998001,0.12793603,0.12793603)">
    <use
       height="100"
       transform="scale(1.28)"
       width="100"
       xlink:href="#shape0"
       id="use2" />
    <use
       height="604.95001"
       transform="matrix(0.1946,0,0,0.1946,16.2384,4.9901)"
       width="490.75"
       xlink:href="#sprite0"
       id="use4" />
  </g>
  <defs
     id="defs31">
    <g
       id="shape0">
      <path
         d="M 100,100 H 0 V 0 h 100 v 100"
         fill="#00cc66"
         fill-opacity="0"
         fill-rule="evenodd"
         stroke="none"
         id="path8" />
      <path
         d="M 84.3,84.3 V 15.7 H 15.7 v 68.6 h 68.6 m 7.95,7.95 H 7.75 V 7.75 h 84.5 v 84.5"
         fill="#666666"
         fill-opacity="0"
         fill-rule="evenodd"
         stroke="none"
         id="path10" />
      <path
         d="M 84.3,84.3 H 15.7 V 15.7 H 84.3 V 84.3 M 76.4,76.4 V 23.55 H 23.55 V 76.4 H 76.4"
         fill="#999999"
         fill-opacity="0"
         fill-rule="evenodd"
         stroke="none"
         id="path12" />
      <path
         d="M 92.25,92.25 V 7.75 H 7.75 v 84.5 h 84.5 m 3.8,3.8 H 3.95 V 3.95 h 92.1 v 92.1"
         fill="#333333"
         fill-opacity="0"
         fill-rule="evenodd"
         stroke="none"
         id="path14" />
      <path
         d="M 68.85,68.85 V 31.1 H 31.1 V 68.85 H 68.85 M 76.4,76.4 H 23.55 V 23.55 H 76.4 V 76.4"
         fill="#cccccc"
         fill-opacity="0"
         fill-rule="evenodd"
         stroke="none"
         id="path16" />
      <path
         d="M 68.85,68.85 H 31.1 V 31.1 h 37.75 v 37.75"
         fill="#ffffff"
         fill-opacity="0"
         fill-rule="evenodd"
         stroke="none"
         id="path18" />
      <path
         d="M 96.05,96.05 V 3.95 H 3.95 v 92.1 h 92.1 M 100,100 H 0 V 0 h 100 v 100"
         fill="#000000"
         fill-opacity="0"
         fill-rule="evenodd"
         stroke="none"
         id="path20" />
      <path
         d="M 0,50 H 50 L 0,0 M 50,50 V 0 m 0,100 V 50 L 0,100 M 100,50 H 50 l 50,50 M 50,50 100,0"
         fill="none"
         stroke="#000000"
         stroke-linecap="round"
         stroke-linejoin="round"
         stroke-opacity="0"
         stroke-width="0.05"
         id="path22" />
    </g>
    <g
       id="sprite0"
       transform="translate(-79.85,-20.5)">
      <use
         height="604.95001"
         transform="translate(79.85,20.5)"
         width="490.75"
         xlink:href="#shape1"
         id="use25" />
    </g>
    <g
       id="shape1"
       transform="translate(-79.85,-20.5)">
      <path
         d="M 560.45,193.55 Q 560.45,332.9 504,447.3 448.7,562 325.3,625.45 209,562 147.95,449.45 87.95,335.8 90,192.05 l -10.15,-69.3 64.8,32.1 q 22.75,-13.3 45.85,-23 l 9.6,-68.4 46.15,50.25 q 21.75,-5.2 44.05,-7.15 l 35.3,-86.05 34.55,87.55 q 21.15,2.75 42.75,8.4 L 450.35,65 l 9.2,71.05 q 22,9.3 44.2,21.7 l 66.85,-33.5 -10.15,69.3 m -131,75.65 q 0,-10.8 8,-18.95 7.7,-7.55 18.85,-7.55 10.95,0 18.65,7.55 7.95,8.15 7.95,18.95 0,11.15 -7.95,18.8 -7.7,7.85 -18.65,7.85 -11.15,0 -18.85,-7.85 -8,-7.65 -8,-18.8 m -87.4,-29.75 q -8,7.8 -18.8,7.8 -11.15,0 -18.95,-7.8 -7.8,-7.8 -7.8,-18.8 0,-11.15 7.8,-18.8 7.8,-7.85 18.95,-7.85 10.8,0 18.8,7.85 7.7,7.65 7.7,18.8 0,11 -7.7,18.8 m 111.4,147.7 Q 447.2,404.6 439,421.2 q -35.15,73 -113.85,113.25 -74,-40.25 -112.8,-112 -10,-18.7 -17.15,-38.9 10.25,-21.8 28.65,-40.45 41.35,-41.2 99.7,-41.2 58.4,0 99.6,41.2 20.2,20.05 30.3,44.05 m -251.3,-149.1 q 11,0 18.8,7.8 7.8,7.85 7.8,18.8 0,11.15 -7.8,18.7 -7.8,8.1 -18.8,8.1 -11,0 -18.9,-8.1 -7.55,-7.55 -7.55,-18.7 0,-10.95 7.55,-18.8 7.9,-7.8 18.9,-7.8 m -23.6,161.05 q 6.25,14.9 13.85,29.25 45.75,84.25 132.75,131.75 92.55,-47.5 134,-133.45 5.6,-11.35 10.6,-23.2 31.65,-76.3 31.65,-166.75 -185.6,-131.85 -352.35,-1.25 -1.35,89.65 29.5,163.65"
         fill="#ffffff"
         fill-rule="evenodd"
         stroke="none"
         id="path28" />
    </g>
  </defs>
</svg>
