<?xml version="1.0" encoding="UTF-8" standalone="no"?>
<svg
   height="512"
   width="512"
   version="1.1"
   id="svg33"
   sodipodi:docname="staff.svg"
   inkscape:version="1.2.1 (9c6d41e410, 2022-07-14)"
   inkscape:export-filename="staff.png"
   inkscape:export-xdpi="96"
   inkscape:export-ydpi="96"
   xmlns:inkscape="http://www.inkscape.org/namespaces/inkscape"
   xmlns:sodipodi="http://sodipodi.sourceforge.net/DTD/sodipodi-0.dtd"
   xmlns:xlink="http://www.w3.org/1999/xlink"
   xmlns="http://www.w3.org/2000/svg"
   xmlns:svg="http://www.w3.org/2000/svg">
  <sodipodi:namedview
     id="namedview35"
     pagecolor="#ffffff"
     bordercolor="#000000"
     borderopacity="0.25"
     inkscape:showpageshadow="2"
     inkscape:pageopacity="0.0"
     inkscape:pagecheckerboard="true"
     inkscape:deskcolor="#d1d1d1"
     showgrid="false"
     inkscape:zoom="2.0058594"
     inkscape:cx="100.20643"
     inkscape:cy="241.54235"
     inkscape:window-width="2560"
     inkscape:window-height="1351"
     inkscape:window-x="2391"
     inkscape:window-y="-9"
     inkscape:window-maximized="1"
     inkscape:current-layer="svg33" />
  <defs
     id="defs31">
    <g
       id="shape0">
      <path
         d="M 100,100 H 0 V 0 h 100 v 100"
         fill="#00cc66"
         fill-opacity="0"
         fill-rule="evenodd"
         stroke="none"
         id="path8" />
      <path
         d="M 84.3,84.3 V 15.7 H 15.7 v 68.6 h 68.6 m 7.95,7.95 H 7.75 V 7.75 h 84.5 v 84.5"
         fill="#666666"
         fill-opacity="0"
         fill-rule="evenodd"
         stroke="none"
         id="path10" />
      <path
         d="M 84.3,84.3 H 15.7 V 15.7 H 84.3 V 84.3 M 76.4,76.4 V 23.55 H 23.55 V 76.4 H 76.4"
         fill="#999999"
         fill-opacity="0"
         fill-rule="evenodd"
         stroke="none"
         id="path12" />
      <path
         d="M 92.25,92.25 V 7.75 H 7.75 v 84.5 h 84.5 m 3.8,3.8 H 3.95 V 3.95 h 92.1 v 92.1"
         fill="#333333"
         fill-opacity="0"
         fill-rule="evenodd"
         stroke="none"
         id="path14" />
      <path
         d="M 68.85,68.85 V 31.1 H 31.1 V 68.85 H 68.85 M 76.4,76.4 H 23.55 V 23.55 H 76.4 V 76.4"
         fill="#cccccc"
         fill-opacity="0"
         fill-rule="evenodd"
         stroke="none"
         id="path16" />
      <path
         d="M 68.85,68.85 H 31.1 V 31.1 h 37.75 v 37.75"
         fill="#ffffff"
         fill-opacity="0"
         fill-rule="evenodd"
         stroke="none"
         id="path18" />
      <path
         d="M 96.05,96.05 V 3.95 H 3.95 v 92.1 h 92.1 M 100,100 H 0 V 0 h 100 v 100"
         fill="#000000"
         fill-opacity="0"
         fill-rule="evenodd"
         stroke="none"
         id="path20" />
      <path
         d="M 0,50 H 50 L 0,0 M 50,50 V 0 m 0,100 V 50 L 0,100 M 100,50 H 50 l 50,50 M 50,50 100,0"
         fill="none"
         stroke="#000000"
         stroke-linecap="round"
         stroke-linejoin="round"
         stroke-opacity="0"
         stroke-width="0.05"
         id="path22" />
    </g>
    <g
       id="sprite0"
       transform="translate(269.05,-11.4)">
      <use
         height="994.40002"
         transform="translate(-269.05,11.4)"
         width="999.90002"
         xlink:href="#shape1"
         id="use25" />
    </g>
    <g
       id="shape1"
       transform="translate(269.05,-11.4)">
      <path
         d="m 121.25,205.6 q 0.25,0.2 -0.5,0.95 0,28.6 -9,54.75 -15.1,39.6 -0.25,54.65 l 50.9,50.9 33.85,-33.85 38.85,38.65 -41.35,41.4 537.1,537.05 -55.95,55.7 -537.05,-536.85 -42.2,42.15 -38.85,-38.55 31.8,-31.9 -64.7,-65 q -49.1,-46.9 -8.25,-91.55 29.9,-33.35 29.6,-80.05 0,-49.65 -35.15,-84.75 -35.05,-35.15 -84.75,-35.15 -49.7,0.3 -84.75,35.15 -35.15,35.35 -35.15,84.75 0,49.95 35.15,85.05 5.95,6 12.55,11.25 25.75,21.7 8.75,49.7 -18.1,31.6 -44.7,18.1 -15.8,-10.55 -29.85,-24.6 -56.9,-56.95 -56.4,-137.45 -0.25,-54.7 25.6,-97.8 12.3,-21.65 31.35,-40.45 19.8,-20 43.15,-32.65 42.1,-24 94.55,-23.8 81,-0.75 137.95,56.25 57.2,57.15 57.7,137.95"
         fill="#ffffff"
         fill-rule="evenodd"
         stroke="none"
         id="path28" />
    </g>
  </defs>
  <g
     inkscape:groupmode="layer"
     id="layer1"
     inkscape:label="Layer 1">
    <path
       d="m 121.25,205.6 q 0.25,0.2 -0.5,0.95 0,28.6 -9,54.75 -15.1,39.6 -0.25,54.65 l 50.9,50.9 33.85,-33.85 38.85,38.65 -41.35,41.4 537.1,537.05 -55.95,55.7 -537.05,-536.85 -42.2,42.15 -38.85,-38.55 31.8,-31.9 -64.7,-65 q -49.1,-46.9 -8.25,-91.55 29.9,-33.35 29.6,-80.05 0,-49.65 -35.15,-84.75 -35.05,-35.15 -84.75,-35.15 -49.7,0.3 -84.75,35.15 -35.15,35.35 -35.15,84.75 0,49.95 35.15,85.05 5.95,6 12.55,11.25 25.75,21.7 8.75,49.7 -18.1,31.6 -44.7,18.1 -15.8,-10.55 -29.85,-24.6 -56.9,-56.95 -56.4,-137.45 -0.25,-54.7 25.6,-97.8 12.3,-21.65 31.35,-40.45 19.8,-20 43.15,-32.65 42.1,-24 94.55,-23.8 81,-0.75 137.95,56.25 57.2,57.15 57.7,137.95"
       fill="#ffffff"
       fill-rule="evenodd"
       stroke="none"
       id="path253"
       transform="matrix(0.47296352,0,0,0.47336332,146.86943,15.1202)" />
  </g>
</svg>
