<?xml version="1.0" encoding="UTF-8" standalone="no"?>
<!-- Created with Inkscape (http://www.inkscape.org/) -->

<svg
   width="512"
   height="512"
   viewBox="0 0 512 512"
   version="1.1"
   id="svg5"
   inkscape:version="1.2.1 (9c6d41e410, 2022-07-14)"
   sodipodi:docname="staff.svg"
   xml:space="preserve"
   inkscape:export-filename="staff.png"
   inkscape:export-xdpi="96"
   inkscape:export-ydpi="96"
   xmlns:inkscape="http://www.inkscape.org/namespaces/inkscape"
   xmlns:sodipodi="http://sodipodi.sourceforge.net/DTD/sodipodi-0.dtd"
   xmlns="http://www.w3.org/2000/svg"
   xmlns:svg="http://www.w3.org/2000/svg"><sodipodi:namedview
     id="namedview7"
     pagecolor="#ffffff"
     bordercolor="#999999"
     borderopacity="1"
     inkscape:pageshadow="0"
     inkscape:pageopacity="0"
     inkscape:pagecheckerboard="true"
     inkscape:document-units="px"
     showgrid="false"
     height="70mm"
     units="px"
     inkscape:zoom="1.0469406"
     inkscape:cx="-85.009596"
     inkscape:cy="115.09726"
     inkscape:window-width="2560"
     inkscape:window-height="1351"
     inkscape:window-x="2391"
     inkscape:window-y="-9"
     inkscape:window-maximized="1"
     inkscape:current-layer="layer1"
     inkscape:showpageshadow="2"
     inkscape:deskcolor="#d1d1d1" /><defs
     id="defs2" /><g
     inkscape:label="Layer 1"
     inkscape:groupmode="layer"
     id="layer1"><path
       style="fill:#ffffff;fill-rule:evenodd;stroke-width:0.318522"
       d="m 354.13664,510.5407 c -2.15672,-1.07695 -3.40195,-1.49192 -4.87888,-1.62582 -1.2499,-0.11339 -2.35408,-0.42984 -2.98657,-0.8561 -0.99567,-0.67096 -1.09779,-0.91081 -1.77496,-4.16846 -0.44888,-2.15929 -3.92018,-12.43097 -4.73736,-14.01791 -1.07303,-2.08377 -2.98587,-7.13227 -3.77203,-9.95536 -1.27272,-4.57037 -2.62825,-7.59528 -12.30917,-27.46797 -4.16911,-8.55823 -6.67669,-14.61173 -8.18051,-19.74834 -0.53853,-1.83946 -1.56134,-5.35116 -2.27291,-7.80378 -5.0092,-17.26556 -6.21932,-20.99363 -8.27134,-25.48173 -0.16017,-0.35038 -0.6434,-1.49705 -1.0738,-2.54817 -0.43042,-1.05112 -1.35744,-3.21497 -2.06009,-4.80853 -0.70265,-1.59356 -1.65535,-4.28418 -2.11711,-5.97916 -0.46174,-1.69498 -1.24242,-3.97451 -1.7348,-5.06564 -0.81446,-1.80487 -1.61735,-3.85032 -4.90464,-12.49509 -0.59955,-1.57669 -2.17103,-6.1634 -3.49216,-10.1927 -1.32114,-4.0293 -3.13028,-9.25945 -4.02032,-11.62256 -0.89004,-2.36312 -1.61825,-4.41424 -1.61825,-4.55808 0,-0.14385 -0.77227,-2.08042 -1.71616,-4.30351 -0.94388,-2.22313 -2.60266,-6.55037 -3.68615,-9.61614 -2.23057,-6.31141 -3.72563,-9.8563 -7.52286,-17.83721 -2.66957,-5.61082 -5.25234,-11.76585 -5.68048,-13.53717 -0.12704,-0.52555 -1.0191,-2.50707 -1.98238,-4.40336 -1.7295,-3.40463 -4.56946,-10.00316 -5.37058,-12.47829 -0.70783,-2.18689 -1.74173,-4.66969 -3.18337,-7.64452 -2.52215,-5.20444 -4.65892,-10.08879 -5.62938,-12.86795 -0.52614,-1.50679 -2.00687,-4.96129 -3.29049,-7.67669 -1.28362,-2.7154 -2.86177,-6.22562 -3.50701,-7.8005 -0.64523,-1.57487 -2.65814,-5.87491 -4.47313,-9.55564 -3.43955,-6.97526 -4.94381,-10.61753 -6.54759,-15.8537 -0.52385,-1.71025 -1.46078,-4.50528 -2.08209,-6.21117 -0.62132,-1.70589 -1.40958,-4.17664 -1.75171,-5.49054 -0.34211,-1.3139 -0.84997,-3.03391 -1.12855,-3.82226 -1.08501,-3.07039 -2.72809,-7.18625 -3.42369,-8.57622 -0.40107,-0.80146 -1.26157,-3.03389 -1.91218,-4.96094 -0.65061,-1.92706 -1.52232,-4.08866 -1.93713,-4.80356 -0.41484,-0.71491 -0.92665,-2.00492 -1.13741,-2.8667 -0.62001,-2.53521 -1.84839,-4.55473 -6.66841,-10.96326 -3.35538,-4.4612 -7.28925,-10.25727 -8.73739,-12.87348 -1.31627,-2.37796 -2.40305,-5.8443 -2.40305,-7.66467 0,-1.65467 -0.66953,-3.63515 -1.88204,-5.56703 -0.49947,-0.79581 -1.4431,-3.09529 -2.09692,-5.10994 -2.45084,-7.55189 -3.95618,-10.23912 -10.74894,-19.18822 -2.75896,-3.6348 -6.29495,-9.38743 -7.00102,-11.38985 -0.37632,-1.06728 -0.68837,-3.03391 -0.79848,-5.03259 l -0.18071,-3.28072 -1.39075,-1.472322 c -1.47913,-1.56591 -2.33841,-3.71611 -2.33841,-5.85152 0,-1.22434 -1.20044,-4.27861 -3.43112,-8.72975 -0.70235,-1.4015 -1.99847,-4.55486 -2.88027,-7.00748 -0.88179,-2.45262 -1.95397,-5.24764 -2.38262,-6.21117 -0.42866,-0.96353 -0.88878,-2.25343 -1.02251,-2.86646 -0.28898,-1.32468 -3.18009,-7.7514 -4.04544,-8.99266 -0.33363,-0.47854 -1.45872,-1.68289 -2.50019,-2.67628 -1.04146,-0.9934 -1.89358,-1.93054 -1.89358,-2.08254 0,-0.15201 -0.3419,-0.81799 -0.75981,-1.47998 -0.41788,-0.66199 -1.02571,-2.04718 -1.35072,-3.0782 -0.62529,-1.98366 -1.82435,-3.46581 -3.52648,-4.35904 -1.9364,-1.01617 -3.04901,-4.58471 -2.93164,-9.40279 0.0374,-1.54378 -0.0911,-3.66687 -0.28615,-4.71799 -0.19496,-1.05113 -0.44178,-2.98614 -0.54846,-4.30005 -0.10933,-1.34596 -0.6349,-3.70997 -1.20389,-5.41486 -0.85991,-2.57658 -1.00125,-3.43736 -0.95167,-5.79614 0.0631,-3.00138 0.45646,-4.12895 1.92645,-5.52204 1.40516,-1.3316299 2.4134,-1.7215399 6.61255,-2.5572099 2.18273,-0.43439 4.3378,-0.93016 4.78904,-1.10172 0.45123,-0.17156 1.15211,-0.31193 1.5575,-0.31193 1.02003,0 4.07036,-1.44098 5.72672,-2.70531 0.75789,-0.5785 1.71843,-1.22612 2.13455,-1.43914 0.41612,-0.21301 1.51836,-0.90289 2.44943,-1.53305 1.38682,-0.93861005 1.98861,-1.14800005 3.32891,-1.15823005 1.61822,-0.0124 1.6484,0.006 2.76645,1.64042005 0.62172,0.90909 1.88447,2.23952 2.80613,2.9565 0.92166,0.71698 2.2076,2.12319 2.85764,3.12492 0.65005,1.00173 1.58042,2.2924499 2.06748,2.8682699 1.59792,1.8891 2.56102,4.18358 2.54415,6.06112 -0.0123,1.35967 0.17544,2.01166 0.91431,3.17674 0.5113,0.80627 0.92967,1.72719 0.92967,2.04647 0,0.31929 0.98792,2.47708 2.19536,4.7951 4.02008,7.71757 4.47847,8.65581 5.63839,11.54057 0.63397,1.57668 2.04759,5.60397 3.14139,8.94953 1.09381,3.34555 2.295,6.64225 2.66933,7.32599 0.37435,0.68374 1.16855,2.53318 1.76493,4.10987 0.59639,1.57667 1.61613,4.01336 2.2661,5.41486 1.90425,4.10599 2.99684,6.77953 4.29562,10.51121 0.67069,1.92706 2.04596,5.22376 3.05615,7.326 l 1.8367,3.82226 0.18483,4.77782 0.18482,4.77783 1.27409,2.04524 1.27409,2.04523 0.17735,4.802982 c 0.14209,3.84718 0.3418,5.37346 1.00356,7.66967 0.45443,1.57669 1.07169,3.9417 1.37175,5.25561 0.30007,1.3139 1.02312,3.89393 1.60682,5.73339 0.58371,1.83946 1.35144,4.99282 1.70606,7.00747 0.77216,4.38658 1.65323,6.73702 3.99896,10.66804 0.96884,1.62361 1.76152,3.0313 1.76152,3.12821 0,0.0969 1.07014,1.92627 2.3781,4.06525 2.58305,4.22422 3.27536,6.01786 4.29366,11.12397 0.36682,1.83946 0.87912,4.29666 1.1384,5.46044 0.25926,1.16378 0.4714,2.62796 0.4714,3.25372 0,0.62576 0.19928,1.75193 0.44285,2.50259 0.24357,0.75067 0.52924,1.74406 0.63477,2.20753 0.10554,0.46345 0.70788,1.94444 1.33849,3.29103 0.63062,1.34659 1.49382,3.71557 1.91823,5.26439 0.42439,1.54883 1.496,4.43957 2.38131,6.42389 1.56118,3.49917 2.30295,5.27553 4.43278,10.61531 0.559,1.40149 1.62737,4.05318 2.37415,5.89264 1.61938,3.98883 6.27605,16.31729 7.51944,19.90761 1.53551,4.43385 3.44216,8.76068 6.17579,14.01495 1.4583,2.80299 2.75057,5.45468 2.87171,5.89265 0.38091,1.37708 1.79935,5.13916 3.12248,8.28156 1.42544,3.38538 3.68195,9.63545 5.9799,16.56313 0.8426,2.5402 2.26871,6.55358 3.16913,8.9186 0.90042,2.36502 2.0433,5.66172 2.53974,7.326 0.49642,1.66428 1.42883,4.38763 2.07202,6.05191 1.7097,4.42396 2.60068,7.25496 3.85843,12.25985 1.42465,5.66902 3.10697,11.12926 6.23273,20.22936 0.51147,1.48909 1.43885,4.49911 2.06081,6.68895 0.62196,2.18983 1.45421,4.62652 1.84944,5.41487 1.40536,2.80321 5.20617,9.88152 5.51613,10.2728 0.41233,0.52048 2.67,5.56176 4.41577,9.86028 0.76186,1.8759 2.59745,5.88927 4.0791,8.9186 3.09741,6.33291 6.87486,15.25155 6.87486,16.23164 0,0.36709 0.7146,1.9162 1.58799,3.44242 0.8734,1.52623 2.08143,3.85775 2.68453,5.18114 0.60309,1.32339 1.59136,3.1017 2.19614,3.9518 1.28848,1.81105 2.0343,3.26584 3.24183,6.32342 1.60295,4.05883 5.59553,12.65808 6.88417,14.82718 2.40176,4.04275 3.6121,7.19696 11.73777,30.58919 1.19182,3.43102 2.31044,6.51272 2.48584,6.84822 0.37509,0.71747 2.92762,8.49829 6.1461,18.73484 2.11617,6.73061 2.81769,8.65235 4.42966,12.13471 1.23562,2.66931 4.21445,8.69736 5.43036,10.989 1.49264,2.81318 2.22794,5.05029 2.22794,6.77827 0,1.02191 -0.33155,1.6925 -1.8315,3.70425 -1.00732,1.35104 -2.40484,3.29469 -3.10558,4.31924 -2.20502,3.22392 -2.76063,3.67431 -4.51444,3.65953 -1.16984,-0.0101 -2.2299,-0.35871 -4.43328,-1.45896 z m 4.183,-3.96413 c 0.29313,-0.47433 -0.047,-0.73221 -0.65659,-0.49818 -0.28146,0.10799 -0.42248,0.34073 -0.31347,0.51712 0.25819,0.41778 0.70556,0.40903 0.97006,-0.0187 z m -2.9109,-2.08787 c 1.97053,-0.67145 5.61542,-2.85972 7.22469,-4.3375 0.57422,-0.52732 0.57759,-0.60768 0.0699,-1.67224 -0.59976,-1.25772 -1.18448,-1.42472 -1.68883,-0.48234 -0.18723,0.3498 -0.89717,0.92008 -1.57769,1.26724 -0.68053,0.34719 -1.88981,1.0716 -2.68731,1.60984 -1.56995,1.05953 -4.70317,1.76305 -6.29498,1.41344 -0.83077,-0.18248 -0.90735,-0.12314 -0.90735,0.70272 0,0.83991 0.13712,0.93706 1.99076,1.41057 1.09491,0.27969 2.07272,0.5302 2.17291,0.55662 0.1002,0.0267 0.86423,-0.18429 1.69788,-0.46836 z m -0.12816,-5.55349 c 0.78835,-0.53394 1.93502,-1.2479 2.54818,-1.58652 0.61316,-0.3386 1.58763,-1.02822 2.16551,-1.53245 l 1.05069,-0.9168 -1.09282,-1.87497 c -1.1515,-1.9757 -4.28188,-8.83028 -5.87477,-12.86401 -0.83196,-2.10677 -3.06645,-8.96317 -6.17647,-18.95203 -0.54544,-1.75188 -1.56392,-4.69023 -2.2633,-6.5297 -1.19579,-3.14505 -3.27226,-9.03314 -6.96442,-19.74834 -3.84364,-11.15485 -6.15729,-16.78752 -7.69099,-18.72413 -0.46729,-0.59006 -3.42175,-7.03216 -6.02074,-13.12803 -1.2324,-2.89058 -2.77658,-6.04653 -3.43151,-7.01324 -1.88086,-2.77617 -8.48928,-15.94382 -8.71331,-17.36175 -0.2846,-1.80137 -2.19612,-6.33648 -5.5681,-13.21056 -1.58982,-3.24096 -3.61745,-7.73848 -4.50587,-9.99451 -0.88842,-2.25602 -2.2857,-5.33772 -3.10507,-6.84821 -0.81938,-1.5105 -2.01067,-3.7497 -2.64731,-4.97601 -0.63665,-1.22631 -1.74268,-3.30466 -2.45786,-4.61856 -1.29697,-2.38274 -2.10909,-4.50371 -3.11001,-8.12231 -0.29073,-1.05112 -1.64176,-5.35116 -3.00225,-9.55564 -3.78374,-11.69334 -4.39351,-13.72765 -5.27648,-17.60348 -0.44963,-1.97369 -1.32999,-4.98372 -1.95635,-6.68895 -0.62635,-1.70524 -2.04486,-5.75213 -3.15223,-8.99308 -1.10737,-3.24096 -2.53654,-7.326 -3.17592,-9.07787 -0.63939,-1.75187 -2.35301,-6.69692 -3.80806,-10.989 -1.45504,-4.29207 -3.25009,-9.30879 -3.989,-11.14825 -0.7389,-1.83947 -2.18985,-5.56617 -3.22432,-8.28157 -1.03447,-2.71539 -2.20383,-5.54625 -2.59858,-6.29079 l -0.71772,-1.35372 h -3.03527 c -2.23265,0 -3.22259,-0.13121 -3.74373,-0.49621 -0.92174,-0.64562 -1.3444,-0.35135 -1.3444,0.93608 0,1.60958 -0.88712,3.8347 -1.92544,4.82947 -0.51771,0.49599 -0.94125,1.15671 -0.94125,1.46829 0,0.31159 0.61039,1.82561 1.35642,3.36451 1.48279,3.05867 2.44545,5.3558 3.37502,8.05362 0.62548,1.81529 2.38979,5.81032 4.99367,11.30751 0.82982,1.75187 2.11352,4.7619 2.85266,6.68896 2.77931,7.24607 3.53782,9.01947 5.46853,12.78549 1.09032,2.12679 2.21343,4.66156 2.49578,5.63281 0.81637,2.8082 2.54384,6.93304 5.55938,13.2746 1.54114,3.24095 3.20109,6.75266 3.68878,7.80378 1.03045,2.22092 2.92388,7.23783 4.4479,11.7853 1.07735,3.21465 2.69565,7.29207 3.47653,8.75935 0.23312,0.43794 0.89095,2.22965 1.46191,3.98151 0.57096,1.75187 1.3576,3.90189 1.74808,4.77783 0.39045,0.87593 1.68277,4.53097 2.87175,8.1223 2.11796,6.39728 4.5602,13.23992 6.5369,18.31499 0.54587,1.4015 1.10759,2.91317 1.24827,3.35929 0.1407,0.44611 0.76153,1.96139 1.37968,3.36728 0.61813,1.40589 1.48363,3.90759 1.92331,5.55932 0.4397,1.65172 1.5829,4.72317 2.54048,6.82541 0.95758,2.10224 1.8473,4.1806 1.97714,4.61856 0.12987,0.438 0.59514,1.58464 1.03396,2.54817 0.43885,0.96353 1.21469,2.97022 1.72414,4.45931 0.50944,1.48909 1.05304,2.9941 1.20797,3.34447 0.15494,0.35039 0.42599,1.21039 0.60234,1.91114 0.17634,0.70074 1.04806,3.71077 1.93711,6.68895 0.88905,2.97817 2.13045,7.20655 2.75866,9.39639 3.22078,11.22705 5.07994,16.29413 8.40005,22.89396 1.02445,2.03644 2.07777,4.13259 2.34071,4.65815 0.26294,0.52556 0.87123,1.81558 1.35175,2.8667 0.48052,1.05112 2.16133,4.56282 3.73515,7.80378 4.10574,8.45493 5.17297,10.98393 6.48713,15.37249 0.64201,2.14394 1.91189,5.61809 2.82195,7.72033 0.91006,2.10224 2.33621,5.90061 3.16923,8.44082 0.904,2.75668 1.77277,4.84328 2.15503,5.17597 0.48186,0.41938 1.20365,0.55707 2.91446,0.55605 2.00756,0 2.44193,-0.11514 3.70734,-0.97223 z M 249.25917,243.79734 c 0.30957,-0.4269 0.65637,-1.64624 0.7707,-2.70958 0.16946,-1.57618 0.10901,-2.03223 -0.32733,-2.46855 -0.70761,-0.70761 -2.05222,-0.69448 -2.27746,0.0224 -0.0964,0.30659 -0.33166,0.91575 -0.52289,1.35372 -0.41921,0.96003 -0.36879,1.30924 0.47284,3.27663 0.70306,1.64337 1.01125,1.72934 1.8841,0.52555 z m 9.40255,-5.57587 c 0.10543,-0.27478 -0.39067,-1.74396 -1.10247,-3.26484 -0.7118,-1.52089 -1.88962,-4.27026 -2.61738,-6.10972 -0.72777,-1.83947 -1.41866,-3.53472 -1.53534,-3.76723 -0.44434,-0.88552 -0.85867,-0.32926 -1.11145,1.49225 -0.21257,1.53171 -0.13712,2.31028 0.39814,4.10756 0.36325,1.21969 0.66044,3.08315 0.66044,4.14104 0,1.80302 0.0705,1.98531 1.12591,2.91199 0.90231,0.79223 1.41034,0.98856 2.55817,0.98856 1.00708,0 1.48917,-0.14833 1.62397,-0.49963 z m -13.02883,-1.53062 c 0.40487,-0.88861 1.92502,-1.27436 3.8248,-0.97057 1.17191,0.18738 1.27693,0.14133 1.47472,-0.64674 0.12864,-0.51253 -0.061,-1.86392 -0.47908,-3.4132 -0.82081,-3.04196 -0.68722,-6.73557 0.35556,-9.83103 0.6835,-2.02892 0.77915,-2.87494 0.37878,-3.35028 -0.26945,-0.31992 -0.59279,-1.14337 -3.24563,-8.26564 -2.31359,-6.21148 -2.28691,-6.17558 -2.71134,-3.64888 -0.22399,1.33336 -0.25872,3.22019 -0.0965,5.23615 0.22212,2.75945 0.13243,3.90646 -0.72076,9.21747 -0.76121,4.73844 -0.92797,6.56191 -0.76203,8.33278 0.15905,1.69731 0.0956,2.49908 -0.25274,3.19075 -0.43357,0.86107 -0.40145,1.059 0.47305,2.91457 0.516,1.09492 1.04586,1.99076 1.17741,1.99076 0.13158,0 0.39425,-0.34025 0.58373,-0.75614 z m -4.3812,-9.51619 c 0.002,-1.75252 0.28508,-3.68453 1.08533,-7.40562 0.58188,-2.70568 0.60089,-3.19646 0.41964,-10.82974 -0.11007,-4.63682 -0.0422,-6.30306 0.28956,-7.126 0.62671,-1.55366 0.54206,-2.45722 -0.48126,-5.13708 -1.4228,-3.72597 -1.57425,-4.06647 -1.89759,-4.26631 -0.37157,-0.22964 -0.38683,-0.14742 -1.94261,10.47748 -0.69261,4.73005 -1.35376,9.24509 -1.46922,10.03343 -0.11546,0.78834 -0.4921,1.83492 -0.83694,2.32574 -0.78044,1.11072 -0.69258,1.55302 1.39721,7.03378 1.81561,4.76174 2.67369,6.56657 3.12198,6.56657 0.17164,0 0.31288,-0.75251 0.31389,-1.67225 z m -5.60257,-18.63351 c 0.10079,-0.48175 0.33097,-1.95095 0.51142,-3.26485 0.1805,-1.3139 0.83307,-5.74157 1.45019,-9.83926 0.93516,-6.20938 1.05965,-7.61533 0.74737,-8.44083 -0.90854,-2.40164 -1.88612,-5.46772 -1.88635,-5.91637 -3.7e-4,-0.72381 -1.83435,-4.47048 -2.18828,-4.47048 -0.30269,0 -0.21513,12.20162 0.0911,12.69712 0.0821,0.13286 -0.20014,2.81289 -0.62719,5.95566 -0.88909,6.54284 -0.95618,8.42179 -0.34388,9.63183 0.23935,0.47305 0.53876,1.43082 0.66531,2.12834 0.42647,2.3505 1.24224,3.13454 1.58031,1.51884 z m -4.47616,-11.72745 c 0.1154,-1.50107 0.3642,-3.40026 0.55293,-4.22041 0.21268,-0.92415 0.26881,-3.12634 0.14758,-5.79124 -0.10756,-2.36502 -0.2179,-5.83155 -0.24511,-7.7034 -0.0469,-3.22264 -0.004,-3.46959 0.81472,-4.65048 0.74922,-1.08113 0.8182,-1.36826 0.51825,-2.15715 -0.19032,-0.50053 -0.48522,-2.06284 -0.65545,-3.47182 -0.30903,-2.55853 -0.67096,-4.52275 -1.93917,-10.52483 -0.68468,-3.24039 -1.90011,-6.21117 -2.54117,-6.21117 -0.23684,0 -0.29127,0.50127 -0.16433,1.51297 0.18461,1.4712 -0.0197,5.42184 -0.75327,14.57237 -0.415,5.17614 -0.43912,7.40791 -0.14001,12.96386 0.1828,3.39583 0.12795,4.3309 -0.34185,5.82448 l -0.55963,1.77922 0.87918,1.9793 c 0.48357,1.08862 1.37282,3.19765 1.97616,4.68674 0.60335,1.48908 1.22922,3.02993 1.39085,3.4241 0.54146,1.32048 0.84905,0.73668 1.06037,-2.01254 z m -6.87547,-19.48766 c -0.0905,-5.17456 0.12154,-9.03918 0.71871,-13.09872 0.48063,-3.26706 0.27895,-13.23692 -0.28919,-14.29854 -0.55037,-1.02838 -1.23229,-0.87761 -1.46059,0.32291 -0.10826,0.56936 -0.32888,1.60854 -0.49023,2.30928 -0.72655,3.1553 -1.36029,9.99593 -1.38691,14.97052 -0.0261,4.93635 0.0496,5.7245 0.8618,8.9186 1.84056,7.23965 2.16015,7.37645 2.04644,0.87594 z m -5.3328,-9.07787 c 0.016,-5.5525 0.90208,-14.35151 1.73977,-17.2798 0.25056,-0.87593 0.54317,-2.01872 0.65021,-2.53952 0.10842,-0.52742 0.76802,-1.47629 1.48894,-2.14184 l 1.29433,-1.19491 -1.80966,-3.03251 c -2.35639,-3.94869 -3.17907,-6.20713 -4.14237,-11.37173 -0.43554,-2.33511 -1.21436,-5.54868 -1.73071,-7.14126 -0.51632,-1.59258 -1.18399,-3.9576 -1.48364,-5.25561 -0.29964,-1.298 -0.90385,-3.72168 -1.34266,-5.38595 -1.27281,-4.82738 -1.39888,-5.73491 -1.19466,-8.60008 0.17202,-2.41354 0.11621,-2.84574 -0.51419,-3.98152 -2.68798,-4.843092 -2.5535,-4.348712 -2.4665,-9.066532 l 0.0795,-4.31138 -1.85801,-3.82226 c -1.02187,-2.10225 -2.34033,-5.27548 -2.92986,-7.05164 -0.58954,-1.77615 -2.273,-5.93286 -3.74102,-9.23712 -1.46803,-3.30427 -2.77313,-6.36609 -2.90023,-6.80406 -0.1271,-0.43795 -0.85503,-2.15798 -1.61764,-3.82226 -0.76261,-1.66427 -1.88301,-4.6743 -2.48978,-6.68895 -1.5626,-5.18827 -5.02787,-13.87207 -6.49529,-16.27687 -1.33584,-2.18917 -3.53294,-6.64782 -4.56052,-9.25483 -0.34804,-0.88296 -1.00843,-2.09788 -1.46755,-2.69982 -0.71091,-0.93205 -0.84081,-1.43829 -0.87551,-3.41205 -0.0395,-2.24871 -0.0863,-2.3782 -1.57252,-4.35532 -0.84247,-1.12074 -1.72434,-2.40206 -1.95972,-2.84738 -0.23535,-0.44532 -1.52992,-1.8011299 -2.87678,-3.0129099 l -2.44884,-2.20324 -1.42458,0.76989 c -0.78353,0.42344 -1.98092,1.24289 -2.66087,1.82101 -2.55636,2.1734899 -6.08653,3.4315199 -13.67941,4.8748799 -4.3611,0.82901 -4.90771,1.22351 -5.03412,3.63316 -0.0685,1.30459 0.0872,2.28075 0.52816,3.31205 0.77161,1.80471 1.56741,5.74947 1.82109,9.02715 0.19395,2.5058 0.38134,2.84737 1.09228,1.99076 0.90749,-1.09346 2.56401,-0.28005 2.97631,1.46148 0.43405,1.83329 -1.46305,2.53714 -2.2746,0.84391 -0.22985,-0.47962 -0.53227,-0.87204 -0.67195,-0.87204 -0.39632,0 -0.63774,5.37718 -0.32792,7.30463 0.35369,2.20023 0.96739,2.90414 1.97553,2.26586 0.39131,-0.24778 1.21165,-0.53381 1.82292,-0.63566 2.07357,-0.34548 1.51782,-2.24588 -0.65679,-2.24588 -1.38352,0 -2.03998,-0.71339 -1.53122,-1.66401 0.65686,-1.22736 5.1067,-0.39532 5.64328,1.05519 0.14112,0.38145 0.14737,1.35533 0.0139,2.16417 -0.13344,0.80883 -0.25115,1.64609 -0.2616,1.86058 -0.0235,0.48319 -1.66968,1.3619 -2.55135,1.3619 -0.87434,0 -0.82499,0.68281 0.11306,1.56406 0.42125,0.39573 0.86427,1.2449 0.98447,1.88702 0.41441,2.21373 1.83291,4.63651 3.98095,6.79938 1.58641,1.59737 2.52665,2.93719 3.76978,5.37189 1.74744,3.42238 3.05476,6.51624 3.42584,8.10751 0.12255,0.52555 0.47299,1.45724 0.77877,2.07039 0.30578,0.61315 1.02063,2.4765 1.58858,4.14078 1.2765,3.74054 3.14966,8.22221 4.9258,11.7853 0.74229,1.48909 1.61152,3.49577 1.93163,4.4593 0.54751,1.648 0.63938,2.16256 0.74075,4.14943 0.0224,0.44269 0.46777,1.27211 0.98927,1.84309 2.61359,2.86151 2.65029,2.9546 2.89017,7.330502 0.12171,2.22003 0.34703,4.32999 0.50075,4.68881 0.57824,1.34988 5.02797,8.02772 6.67547,10.01807 0.94256,1.13872 1.71657,2.17721 1.72002,2.30776 0.008,0.33299 4.73577,6.86191 5.15621,7.12175 0.23636,0.14608 0.28406,-0.17618 0.15169,-1.02484 -0.10618,-0.68086 -0.40263,-3.03229 -0.65868,-5.22539 -0.25606,-2.1931 -0.56153,-4.23745 -0.67877,-4.54299 -0.25883,-0.67453 0.36591,-1.50298 1.13338,-1.50298 0.30813,0 0.95763,0.5375 1.44332,1.19446 0.4857,0.65694 1.27586,1.62445 1.7559,2.15001 0.48004,0.52556 1.76509,2.67559 2.85566,4.77783 1.09057,2.10224 2.60561,4.76542 3.36675,5.91818 2.06026,3.12029 3.82595,6.73968 4.87087,9.98458 0.51185,1.58951 1.79771,4.91696 2.85746,7.39433 1.74579,4.08116 2.80138,7.38392 3.57835,11.19606 0.15324,0.7518 0.25136,3.97683 0.21802,7.16674 -0.0432,4.13926 0.0534,6.00502 0.33688,6.5165 0.7867,1.41854 1.01209,0.71708 1.02345,-3.18521 z m -3.70629,-5.87874 c 0.0288,-3.89035 -0.64864,-7.51637 -2.04053,-10.92328 -0.32211,-0.78834 -0.96988,-2.42656 -1.43957,-3.6405 -0.46969,-1.21393 -0.97056,-2.43228 -1.11307,-2.70743 -0.14251,-0.27515 -0.68797,-1.64696 -1.21214,-3.04845 -0.52417,-1.4015 -1.36025,-3.62019 -1.85794,-4.93043 -0.4977,-1.31023 -1.80364,-3.79994 -2.9021,-5.53267 -1.09846,-1.73274 -2.79525,-4.71061 -3.77064,-6.61748 -1.63952,-3.20523 -2.35446,-3.97365 -2.35446,-2.53055 0,1.78138 1.75333,7.15528 3.37691,10.35007 0.986,1.94022 1.97335,4.02934 2.1941,4.64249 0.22073,0.61316 1.23978,2.97818 2.26452,5.25561 l 1.86316,4.14078 0.0261,3.98152 c 0.0187,2.78244 0.18877,4.50254 0.56552,5.71157 0.2965,0.95153 0.53911,2.05987 0.53911,2.46297 0,0.75661 2.91427,5.32598 4.3865,6.8777 0.53399,0.56282 0.94317,0.76793 1.13977,0.57133 0.16871,-0.16871 0.31917,-1.99716 0.33443,-4.06325 z m -9.18926,-10.67731 c 0.5326,-2.42487 0.24042,-4.15101 -1.2291,-7.26122 -0.78432,-1.66 -1.75186,-3.94986 -2.15009,-5.08857 -0.39825,-1.13871 -0.88755,-2.28539 -1.08736,-2.54817 -0.19981,-0.26278 -0.53126,-0.87196 -0.73657,-1.35372 -0.41756,-0.97988 -0.85997,-1.12573 -1.14687,-0.37808 -0.20542,0.53527 1.83875,6.35566 2.50995,7.14669 0.56769,0.66903 1.61454,2.84263 1.91759,3.98152 0.41692,1.56678 0.4619,1.82808 0.65776,3.82226 0.10324,1.05112 0.24277,2.09029 0.3101,2.30928 0.22639,0.73668 0.72699,0.40635 0.9546,-0.62997 z"
       id="path303" /><path
       style="fill:#ffffff;fill-rule:evenodd;stroke-width:0.318522"
       d="m 188.216,96.083048 c -4.4619,-2.47766 -5.69728,-3.8978 -7.25791,-8.34335 -0.46083,-1.31273 -1.35804,-3.82013 -1.99379,-5.572 -1.01516,-2.7974 -1.13595,-3.43729 -0.99201,-5.25561 0.14422,-1.82196 0.0512,-2.31094 -0.77468,-4.07511 -0.51622,-1.1026 -1.44975,-3.89763 -2.07452,-6.21117 -1.90287,-7.04635 -2.44626,-8.47974 -3.94926,-10.41762 -0.73273,-0.94474 -3.38205,-6.5598 -3.94727,-8.36597 -0.0968,-0.3092 -0.51909,-0.69267 -0.93856,-0.85215 -1.25264,-0.47625 -2.12038,-1.85434 -2.12038,-3.36744 0,-1.55311 0.23348,-1.80959 2.36927,-2.60259 1.82868,-0.67897 2.27898,-1.37498 0.88959,-1.37498 -1.40762,0 -3.02762,-1.24759 -3.54413,-2.72941 -0.65197,-1.87047 -0.25157,-3.90053 1.12487,-5.7032 1.08814,-1.4251 1.22943,-2.39712 0.34846,-2.39712 -0.23354,0 -0.72191,0.7038 -1.08534,1.56401 -0.85036,2.01273 -2.05788,2.70473 -4.16764,2.38835 -1.28008,-0.19196 -1.73322,-0.48823 -3.31438,-2.16699 -2.08889,-2.21782 -2.44811,-3.20261 -1.69762,-4.65391 0.9193,-1.77772 3.9052,-2.41872 6.67358,-1.43264 1.64017,0.58422 1.99077,0.27072 2.25003,-2.01191 0.28983,-2.55183 0.43101,-2.91909 1.26875,-3.3008 0.61609,-0.28071 1.03599,-0.16955 2.4797,0.65646 0.9559,0.54691 1.94046,0.99439 2.18789,0.99439 0.24747,0 1.22845,-0.78834 2.18,-1.75187 1.65077,-1.67153 1.80514,-1.75187 3.36613,-1.75187 1.18691,0 1.93311,0.2026 2.71831,0.73806 1.07334,0.73195 1.08178,0.75686 1.01957,3.00909 -0.0379,1.37353 -0.27041,2.67259 -0.58817,3.28711 l -0.52544,1.01608 -2.35471,-0.17808 c -1.29508,-0.0979 -2.43388,-0.05 -2.53066,0.10661 -0.3634,0.58805 0.85894,1.8953 1.77223,1.8953 1.38059,0 1.80347,0.26465 3.17469,1.98684 1.36509,1.71448 1.64834,3.2136 0.91237,4.82887 -0.46526,1.02113 -0.97881,1.20209 -2.20166,0.7758 -1.20677,-0.42068 -1.53255,-0.15199 -1.79784,1.48281 l -0.19726,1.21555 1.27991,-0.17167 c 0.70394,-0.0944 2.48209,-0.74525 3.95144,-1.44628 1.46936,-0.70103 2.99406,-1.37198 3.38823,-1.49099 2.03008,-0.61294 3.09405,1.06763 2.99858,4.73634 -0.048,1.83969 0.10837,3.02351 0.57812,4.38095 0.35407,1.02303 0.64711,2.18198 0.65127,2.57546 0.004,0.39344 0.36772,1.57541 0.80788,2.62653 3.11061,7.42792 4.40644,11.09235 7.82388,22.12468 0.54588,1.76225 0.90977,2.30426 2.53351,3.77366 3.02471,2.7372 4.15602,5.22382 4.15602,9.13489 0,4.2464 -1.22593,7.92151 -3.60538,10.80818 -1.21899,1.47885 -4.03978,2.41654 -7.24638,2.40885 -2.02982,-0.005 -2.6561,-0.14428 -3.99931,-0.89014 z m 7.26488,-1.83998 c 1.7561,-0.59836 2.84305,-1.78344 4.10951,-4.48057 1.76088,-3.75004 1.52475,-9.1125 -0.49647,-11.27522 -0.88195,-0.94368 -1.01423,-0.99766 -1.11847,-0.45641 -0.065,0.33764 0.13078,1.93672 0.43512,3.55356 0.38101,2.02424 0.48319,3.51513 0.32803,4.78745 -0.20878,1.71222 -0.35893,1.97846 -2.04702,3.63023 -1.99872,1.95569 -2.69419,2.21317 -5.01101,1.85516 -3.94832,-0.61013 -4.38288,-0.86396 -6.76482,-3.95137 -1.15597,-1.49833 -1.49583,-1.77598 -1.58803,-1.29726 -0.0645,0.33496 0.3522,1.57959 0.92608,2.7658 0.74828,1.54677 1.29548,2.26119 1.9348,2.526 0.49028,0.20307 1.07534,0.59163 1.30013,0.86344 0.72722,0.87932 3.52894,1.97907 5.05017,1.98232 0.80093,0.002 2.1248,-0.22468 2.94195,-0.50314 z m -5.4309,-6.75531 c -0.55017,-1.30891 -1.0285,-1.56652 -2.12645,-1.1452 -0.73794,0.28316 -0.61826,0.85495 0.3721,1.77772 1.77126,1.65039 2.58987,1.35525 1.75436,-0.63252 z m 4.69571,1.2123 c 0,-0.52758 -2.09167,-3.49265 -2.46854,-3.49934 -0.21898,-0.004 -0.39814,0.14198 -0.39814,0.32414 0,0.37264 1.18869,2.81008 1.65444,3.39248 0.31096,0.38881 1.21225,0.2273 1.21225,-0.21731 z m 1.75569,-4.10029 c -0.2702,-1.47143 -0.63294,-1.85252 -1.26441,-1.32844 -0.62502,0.51872 -0.61884,0.59438 0.15185,1.85846 0.8058,1.32166 1.40056,1.03832 1.11255,-0.53003 z m -8.4514,-0.80013 c 1.14243,-0.41633 2.68632,-0.92376 3.43086,-1.12761 0.74455,-0.20387 1.35372,-0.50549 1.35372,-0.67031 0,-0.4412 -1.47237,-0.734 -2.57859,-0.51275 -1.38775,0.27756 -2.29813,-0.788 -3.26264,-3.81877 -2.75244,-8.64896 -5.75493,-16.62435 -7.95986,-21.14348 -0.86442,-1.77169 -1.0091,-2.41504 -1.00278,-4.4593 0.0107,-3.50974 1.38682,-5.67918 5.02693,-7.92575 0.97792,-0.60355 1.19327,-0.91013 1.11482,-1.58712 -0.14427,-1.24495 -1.15452,-1.20785 -3.07456,0.1129 -2.04741,1.40836 -2.80833,1.71632 -5.59912,2.26598 -1.21332,0.23898 -2.72021,0.77476 -3.34866,1.19065 -0.62844,0.41591 -1.46325,0.85792 -1.85512,0.9823 -0.39185,0.12437 -0.7125,0.34606 -0.7125,0.49263 0,0.68529 2.79363,6.08464 3.92681,7.58949 0.69899,0.92824 1.45799,2.36158 1.68666,3.18521 1.72596,6.21634 3.35628,11.39514 4.18152,13.2828 0.53612,1.22632 1.18522,2.94633 1.44244,3.82226 0.72832,2.48008 2.25765,5.6395 3.60049,7.43819 0.67328,0.90182 1.29801,1.63968 1.38829,1.63968 0.0903,0 1.09886,-0.34062 2.24129,-0.75697 z m 6.45682,-4.97207 c 0.70115,-0.005 0.72717,-1.06685 0.0993,-4.05159 -1.27414,-6.05705 -6.29498,-20.76112 -8.63269,-25.28174 -0.25568,-0.49439 -0.46483,-1.11172 -0.46483,-1.3718 0,-0.26005 -0.14091,-0.84341 -0.31309,-1.2963 l -0.31309,-0.82345 -1.51843,1.05465 c -3.08539,2.14301 -3.64988,5.03348 -1.73781,8.89844 1.35722,2.74339 2.88243,6.37024 3.72278,8.8525 3.58737,10.59648 4.41038,12.97191 4.65595,13.43836 0.28204,0.53576 2.04709,0.90547 3.30743,0.69279 0.35039,-0.0591 0.88788,-0.10944 1.19445,-0.11184 z m -25.87988,-34.3438 c 0,-0.63852 -0.84493,-1.35743 -1.36212,-1.15896 -0.55627,0.21347 -0.72476,0.81616 -0.33668,1.20426 0.30141,0.3014 1.69878,0.26416 1.69878,-0.0454 z m 4.40819,-1.4962 c 0.28641,-0.28641 -0.56798,-1.7499 -1.0216,-1.7499 -0.24714,0 -0.78306,0.27025 -1.19095,0.60054 -0.65261,0.52843 -0.68766,0.66557 -0.29202,1.14229 0.32088,0.38661 0.72168,0.48735 1.39979,0.35172 0.52262,-0.10453 1.01975,-0.25963 1.10478,-0.34463 z m 4.34034,-1.01258 c 0.6191,-0.29522 1.12344,-0.6894 1.12076,-0.87594 -0.0123,-0.8562 -0.58332,-1.1734 -1.93782,-1.07649 -1.18859,0.085 -1.41772,0.21283 -1.5066,0.84013 -0.23994,1.6936 0.43106,2.01481 2.32366,1.1123 z m -5.96147,-3.14813 c 1.44815,-0.59226 1.28918,-1.09292 -0.34702,-1.09292 -1.17208,0 -1.43842,0.12334 -1.75187,0.81129 -0.20329,0.44621 -0.36965,0.88587 -0.36965,0.97703 0,0.19039 0.97266,-0.0836 2.46854,-0.6954 z m 9.9538,0.35922 c 0,-0.62275 -0.61741,-0.96214 -1.01927,-0.56028 -0.1797,0.17969 -0.23039,0.48254 -0.11269,0.67299 0.31224,0.50518 1.13198,0.42356 1.13198,-0.11271 z m 2.75151,-0.97436 c 0.10084,-0.26278 0.0911,-0.71823 -0.0219,-1.01212 -0.18226,-0.47496 -0.25813,-0.48125 -0.68282,-0.0565 -0.26806,0.26803 -0.38779,0.71236 -0.27276,1.01212 0.25451,0.66316 0.73385,0.6909 0.97727,0.0566 z m -16.3622,-2.10886 0.56352,-0.99 2.10664,0.2256 c 2.30969,0.24735 2.64518,0.0619 2.65409,-1.46741 0.006,-1.11661 0.7332,-1.65854 2.32768,-1.73587 0.72413,-0.0351 1.36368,-0.20506 1.42121,-0.37766 0.0575,-0.1726 -0.27238,-0.76187 -0.73319,-1.30948 -0.61897,-0.73561 -1.10569,-0.99567 -1.86343,-0.99567 -1.46702,0 -2.03495,-0.54189 -3.53983,-3.37753 -1.02083,-1.92355 -1.62324,-2.67878 -2.56124,-3.21096 -0.67456,-0.38272 -1.35842,-0.61429 -1.5197,-0.51462 -0.59433,0.36731 0.1105,3.58264 1.27332,5.80878 1.01871,1.95023 1.12079,2.33932 0.79899,3.04559 -0.20291,0.44533 -0.72216,0.944 -1.15389,1.10815 -0.82581,0.31397 -1.77104,1.80159 -1.77104,2.78729 0,0.6166 0.83998,1.9992 1.21252,1.99581 0.12144,-0.001 0.47444,-0.44752 0.78435,-0.99202 z"
       id="path305" /></g></svg>
