<?xml version="1.0" encoding="UTF-8" standalone="no"?>
<!-- Created with Inkscape (http://www.inkscape.org/) -->

<svg
   width="512"
   height="512"
   viewBox="0 0 512 512"
   version="1.1"
   id="svg5"
   inkscape:version="1.2.1 (9c6d41e410, 2022-07-14)"
   sodipodi:docname="two_handed_sword.svg"
   xml:space="preserve"
   inkscape:export-filename="two_handed_sword.png"
   inkscape:export-xdpi="96"
   inkscape:export-ydpi="96"
   xmlns:inkscape="http://www.inkscape.org/namespaces/inkscape"
   xmlns:sodipodi="http://sodipodi.sourceforge.net/DTD/sodipodi-0.dtd"
   xmlns="http://www.w3.org/2000/svg"
   xmlns:svg="http://www.w3.org/2000/svg"><sodipodi:namedview
     id="namedview7"
     pagecolor="#ffffff"
     bordercolor="#999999"
     borderopacity="1"
     inkscape:pageshadow="0"
     inkscape:pageopacity="0"
     inkscape:pagecheckerboard="true"
     inkscape:document-units="px"
     showgrid="false"
     height="70mm"
     units="px"
     inkscape:zoom="1.0469406"
     inkscape:cx="24.834264"
     inkscape:cy="154.25899"
     inkscape:window-width="2560"
     inkscape:window-height="1351"
     inkscape:window-x="2391"
     inkscape:window-y="-9"
     inkscape:window-maximized="1"
     inkscape:current-layer="layer1"
     inkscape:showpageshadow="2"
     inkscape:deskcolor="#d1d1d1" /><defs
     id="defs2" /><g
     inkscape:label="Layer 1"
     inkscape:groupmode="layer"
     id="layer1"><path
       style="fill:#ffffff;fill-rule:evenodd;stroke-width:0.870871"
       d="m 135.63938,510.9549 c -0.73842,-0.58348 -2.06948,-3.02036 -2.95791,-5.41525 -2.2786,-6.14227 -6.36527,-14.1466 -8.13472,-15.93305 C 121.87986,486.91416 120,483.44561 120,481.21735 c 0,-2.60135 4.37972,-5.88346 10.61427,-7.95424 3.22916,-1.07259 4.84504,-2.34564 7.40672,-5.83535 1.80207,-2.45492 4.14903,-5.40493 5.21545,-6.55565 1.06643,-1.15067 2.58371,-3.91578 3.37174,-6.1447 0.78803,-2.22887 1.95276,-5.42413 2.58828,-7.10055 0.63552,-1.67643 1.36655,-5.20344 1.6245,-7.83783 0.5102,-5.21067 6.08298,-17.37871 9.79212,-21.38095 2.98278,-3.21847 6.26189,-10.04006 7.40007,-15.39453 1.07698,-5.06651 6.86143,-17.23853 9.57604,-20.15051 l 1.73177,-1.85769 -2.14131,-1.74174 c -1.17771,-0.95795 -4.78736,-3.89714 -8.02143,-6.53152 -10.23716,-8.33889 -19.9581,-17.45718 -20.71482,-19.43064 -1.49091,-3.88815 -0.80986,-8.45576 1.59282,-10.68249 1.25163,-1.15997 3.0453,-2.10903 3.98595,-2.10903 0.94064,0 6.30896,2.2994 11.92959,5.10978 7.90409,3.95215 11.35793,5.20184 15.24513,5.5161 4.93358,0.39884 5.05902,0.35263 6.83453,-2.52028 0.9948,-1.60962 2.27988,-3.40606 2.85567,-3.99207 1.58381,-1.61196 11.73449,-18.84807 18.32155,-31.11049 3.2162,-5.98722 6.38855,-11.86559 7.04976,-13.06304 0.66116,-1.19744 4.78303,-9.81905 9.15969,-19.15912 4.37671,-9.34008 9.58654,-20.26976 11.57748,-24.28818 1.9909,-4.01842 4.00036,-8.13328 4.46543,-9.14412 0.46522,-1.01086 6.11937,-12.41898 12.56506,-25.35139 6.44575,-12.93241 11.96709,-24.29725 12.26974,-25.25521 0.30276,-0.95796 1.97935,-4.68092 3.72603,-8.27326 1.74673,-3.59233 3.8085,-8.49098 4.58178,-10.88587 0.77323,-2.39489 2.71497,-6.32799 4.31497,-8.74022 3.35587,-5.05954 11.20093,-21.17181 15.24956,-31.31977 1.52873,-3.83182 3.13512,-7.64744 3.56981,-8.47916 0.43478,-0.83171 0.7903,-1.94097 0.7903,-2.46502 0,-0.52405 1.33753,-2.97869 2.97224,-5.45475 3.76924,-5.709 8.6136,-15.21551 25.37073,-49.78714 3.01814,-6.22671 6.88915,-13.41294 8.60226,-15.96938 1.7131,-2.55644 3.11474,-4.92924 3.11474,-5.27287 0,-0.34366 3.36148,-5.30605 7.47,-11.02758 C 357.51713,23.61904 382.21572,0 387.44401,0 c 2.01153,0 4.126,2.18198 4.82904,4.98322 0.78948,3.14549 -0.28419,21.61428 -1.86201,32.02872 -3.36406,22.20498 -7.49878,34.74976 -20.60256,62.5087 -3.79344,8.03598 -7.28659,15.48192 -7.76264,16.54652 -0.47605,1.0646 -2.42362,4.48293 -4.32803,7.59629 -1.9044,3.11335 -6.45018,11.73496 -10.10173,19.15912 -3.65155,7.42417 -7.16446,14.47821 -7.80648,15.67565 -0.64202,1.19745 -3.16132,6.09609 -5.5984,10.88587 -5.13483,10.09172 -7.11108,13.70647 -11.42683,20.90086 -1.72399,2.87388 -4.23369,7.77252 -5.5772,10.88587 -1.34351,3.11336 -2.90509,6.24849 -3.47026,6.96696 -1.30024,1.65306 -5.02967,8.98735 -11.07405,21.77829 -2.6046,5.51185 -9.3711,18.83615 -15.03665,29.60956 -17.72605,33.70717 -32.93693,64.3961 -38.19724,77.06538 -2.7842,6.7057 -6.64355,15.52325 -8.57637,19.59456 -1.93277,4.07132 -4.38837,9.9575 -5.45682,13.08041 l -1.94272,5.67801 4.0166,4.46471 c 3.0136,3.34977 6.19137,5.54905 12.72532,8.80691 4.78978,2.38822 9.76566,4.76222 11.05754,5.27556 1.29183,0.51334 3.01716,1.95335 3.83403,3.20002 1.41344,2.15724 1.40277,2.37702 -0.22075,4.55196 -3.38552,4.53448 -7.58476,5.89083 -18.15403,5.86369 -9.77989,-0.0253 -17.183,-1.41179 -25.91775,-4.8547 -2.30546,-0.90873 -4.50653,-1.65223 -4.89124,-1.65223 -0.38476,0 -1.21524,2.14961 -1.8455,4.77691 -1.46023,6.08683 -4.83703,11.98701 -10.27188,17.9477 -4.4611,4.89272 -8.01331,10.91023 -8.02801,13.5995 -0.0155,3.00617 -4.19124,10.49716 -9.02729,16.19787 -5.15954,6.08204 -7.42173,10.35472 -11.84542,22.37277 -1.49859,4.07133 -3.30398,8.715 -4.01198,10.31933 -1.24447,2.81993 -1.18973,3.06605 1.64617,7.40238 1.6134,2.467 3.18931,5.19317 3.50203,6.0582 0.82948,2.29427 -1.62028,7.4634 -3.94405,8.32215 -1.10087,0.40693 -7.03329,1.00027 -13.18315,1.31875 -7.12624,0.36929 -12.08515,1.04628 -13.67295,1.86737 -2.99517,1.54889 -7.73108,1.63394 -9.5811,0.17227 z m 9.01057,-7.74284 c 2.06312,-0.97623 2.36767,-1.54502 1.95946,-3.65959 -0.26582,-1.37709 -0.48332,-3.23858 -0.48332,-4.13668 0,-0.89805 -0.6073,-1.63285 -1.34955,-1.63285 -1.13057,0 -6.16607,2.16651 -7.24492,3.11716 -0.69209,0.60979 2.98658,8.19068 3.80469,7.84053 0.47899,-0.20476 1.97012,-0.89284 3.31364,-1.52857 z m 9.39687,-1.59128 c 0.44624,0 0.21822,-1.41948 -0.50668,-3.15441 -1.60558,-3.84269 -1.60473,-3.81257 -0.10836,-3.81257 0.6653,0 1.97611,1.62852 2.91291,3.61896 2.41987,5.14158 3.00604,2.95346 0.63379,-2.36591 -1.90348,-4.26825 -2.0648,-4.396 -5.10272,-4.04131 -2.75026,0.3208 -3.13711,0.66059 -3.13711,2.7536 0,3.92011 1.77531,8.04596 3.22306,7.49043 0.70056,-0.26871 1.63884,-0.48895 2.08507,-0.48895 z m 14.18486,-0.70654 c 0.55557,-0.89893 -5.70008,-10.52023 -6.86538,-10.55906 -2.67085,-0.0892 -3.14532,1.40746 -1.66466,5.25036 0.81333,2.11091 2.08537,4.32792 2.82676,4.92662 1.51557,1.22396 5.03717,1.45987 5.70328,0.38218 z m -26.74986,-8.95401 c 2.31486,-1.00249 7.6659,-2.3494 11.89121,-2.99307 8.36945,-1.27507 9.71365,-1.95433 10.56281,-5.33769 0.80629,-3.21248 0.17232,-3.35612 -3.57484,-0.80985 -2.88202,1.95841 -4.22781,2.25461 -10.24331,2.25461 -8.01931,0 -17.05465,2.18637 -17.05465,4.12688 0,0.88912 0.46924,1.08573 1.52403,0.63846 4.28943,-1.81884 7.78503,-2.95109 9.21669,-2.98539 2.89739,-0.0696 0.98157,1.99997 -3.13667,3.38799 -4.47518,1.50835 -7.2318,3.54077 -4.80238,3.54077 0.77455,0 3.30225,-0.82022 5.61711,-1.82271 z m -1.15701,-11.1609 c -0.29693,-1.24113 -0.61261,-2.35188 -0.70156,-2.46829 -0.30353,-0.39713 -10.91456,3.41791 -10.91456,3.92424 0,0.27748 0.59848,1.16593 1.32994,1.97423 1.22291,1.3513 1.71205,1.36322 6.07798,0.14803 4.4525,-1.23933 4.71444,-1.46204 4.2082,-3.57821 z m 7.22104,-0.29708 c -0.28883,-1.07769 -0.58932,-4.3108 -0.66781,-7.18468 -0.13874,-5.08047 -0.15715,-5.11853 -0.66504,-1.37389 -0.55424,4.08634 -2.68002,6.06326 -2.72601,2.53508 -0.0232,-1.78949 -0.13167,-1.85154 -0.90759,-0.51974 -0.59911,1.02833 -0.57989,2.63091 0.06,5.00749 0.78964,2.93248 1.30262,3.49523 3.18634,3.49523 1.90334,0 2.16522,-0.29812 1.72006,-1.95949 z m 12.00837,-0.25169 c 1.40058,-0.9177 2.24751,-2.27405 2.24751,-3.59941 0,-3.56552 -1.88774,-9.86928 -2.93371,-9.7966 -0.54186,0.0361 -2.74871,1.13834 -4.90411,2.446 -3.29489,1.99899 -3.96035,2.86264 -4.17915,5.42366 -0.14313,1.67535 0.15999,4.15143 0.67365,5.50242 0.83267,2.19013 1.25442,2.40433 3.89109,1.97645 1.62646,-0.26407 3.96858,-1.14257 5.20472,-1.95252 z m 6.11829,-10.50011 c -0.60841,-4.86957 0.3222,-6.19333 2.237,-3.1821 0.83089,1.30668 0.90765,1.21349 0.53817,-0.65311 -0.23699,-1.19745 -0.68605,-3.74475 -0.99785,-5.66065 -0.72615,-4.46208 -3.8855,-14.5489 -4.90134,-15.64846 -0.95918,-1.03823 -0.0583,3.89682 1.56506,8.57327 1.46675,4.22534 1.5076,6.89683 0.0983,6.42708 -1.42719,-0.47554 -4.10828,-9.28448 -4.97149,-16.33387 l -0.69316,-5.66064 -0.11445,5.1248 c -0.14591,6.5343 1.16704,14.53005 4.04734,24.64777 2.46957,8.67488 4.13492,9.90905 3.19246,2.36591 z m -11.41583,-3.45582 c 3.72421,-2.08151 3.95979,-2.42166 3.46807,-5.00749 -0.67515,-3.55056 -0.5338,-3.45236 -3.21287,-2.2317 -2.58199,1.17645 -3.08881,2.71595 -0.76569,2.32588 2.75708,-0.46315 1.6077,2.26755 -1.3063,3.10324 -1.88452,0.54047 -2.83033,1.35166 -2.83033,2.42749 0,2.0318 -0.12177,2.04799 4.64712,-0.61742 z m 18.20763,-5.16392 c 0.34014,-1.77948 0.19423,-2.01024 -0.76689,-1.21256 -1.28857,1.06939 -1.67702,4.661 -0.42009,3.88416 0.42179,-0.26046 0.95594,-1.46291 1.187,-2.6716 z m 1.5052,-5.65348 c 5.91641,-3.01835 5.99197,-5.34662 0.097,-2.98792 -1.99557,0.79845 -3.86384,1.21622 -4.15171,0.92837 -0.98186,-0.98185 1.43956,-2.89434 5.02445,-3.96839 1.96824,-0.5897 3.44217,-1.20861 3.27542,-1.37536 -0.4861,-0.48611 -8.87183,1.24317 -9.61047,1.98181 -0.66989,0.6699 0.73169,7.15079 1.54646,7.15079 0.23606,0 1.95455,-0.77818 3.81889,-1.7293 z m -17.39299,-2.29241 c 0,-0.71846 -0.39188,-1.0641 -0.87087,-0.76808 -0.47899,0.29605 -0.87087,1.12607 -0.87087,1.84453 0,0.71845 0.39188,1.06412 0.87087,0.76807 0.47899,-0.29605 0.87087,-1.12606 0.87087,-1.84452 z m 16.60929,-7.30789 c 6.86206,-1.30759 8.64593,-2.49785 8.64593,-5.76885 0,-1.58673 -0.88175,-4.70375 -1.95948,-6.92672 l -1.95944,-4.04176 -4.89065,0.4418 c -2.68986,0.24298 -5.7794,0.91746 -6.86566,1.4988 -1.84493,0.98738 -1.93835,1.43802 -1.41849,6.84242 0.78726,8.1841 1.3585,9.91435 3.05654,9.25793 0.77525,-0.29971 3.20132,-0.88632 5.39125,-1.30363 z m 12.61437,-7.17638 c -1.47622,-7.15939 -1.57942,-9.58151 -0.39147,-9.18547 0.64228,0.2141 1.4264,1.65351 1.74241,3.19869 0.90877,4.44333 1.64853,4.26243 1.63403,-0.39956 -0.0206,-5.94101 -0.61056,-6.639 -4.59431,-5.41636 -1.77659,0.54525 -3.23017,1.27472 -3.23017,1.62103 0,0.34628 0.77514,2.33798 1.7226,4.42595 0.9474,2.08796 1.73121,4.87399 1.74173,6.19118 0.0103,1.31719 0.45542,2.39489 0.98882,2.39489 0.6332,0 0.7672,-0.98228 0.38631,-2.83032 z m -12.38799,-11.93623 c 7.63291,-0.0874 26.76782,-9.20259 29.31682,-13.96543 0.79036,-1.47683 -0.64769,-1.00048 -7.77069,2.57403 -8.16834,4.09905 -14.86831,5.72513 -14.86831,3.60853 0,-0.86101 2.09709,-1.83492 3.951,-1.83492 1.53961,0 12.7641,-5.34688 12.26737,-5.84364 -0.80882,-0.80882 -21.09137,5.11122 -24.64355,7.19292 -4.56327,2.67426 -4.75773,3.38477 -0.71897,2.62709 2.36322,-0.44335 3.04805,-0.28346 3.04805,0.7115 0,0.84502 -1.63586,1.6494 -4.78979,2.35521 -2.63438,0.58955 -4.78978,1.36939 -4.78978,1.73297 0,0.36356 -0.22384,1.24436 -0.4974,1.95728 -0.4352,1.13406 -0.0811,1.14776 2.83033,0.10945 1.83025,-0.65273 4.82947,-1.20397 6.66492,-1.225 z m 19.21225,-1.41576 c 0.75472,-1.9668 0.68267,-2.1104 -0.77772,-1.55 -0.71845,0.27572 -1.30627,1.04718 -1.30627,1.71441 0,1.64989 1.43109,1.537 2.08399,-0.16443 z m -19.5014,-12.12094 c 0,-0.71847 -0.15401,-1.3063 -0.34226,-1.3063 -0.18826,0 -0.56784,0.58783 -0.84355,1.3063 -0.27567,0.71847 -0.12166,1.3063 0.34227,1.3063 0.46392,0 0.84353,-0.58783 0.84354,-1.3063 z m 9.30307,-1.61036 c 0.20837,-0.20822 -0.17381,-1.70107 -0.84941,-3.31748 -0.67539,-1.6164 -1.53599,-4.89187 -1.9125,-7.2788 -0.6479,-4.10779 -0.72258,-4.20474 -1.39567,-1.81297 -0.40698,1.4462 -0.35577,3.19086 0.11971,4.07938 1.33022,2.48553 0.99296,3.65424 -0.91088,3.15638 -1.52934,-0.39993 -1.74174,-0.0268 -1.74174,3.06041 v 3.5159 l 3.15597,-0.51215 c 1.73574,-0.28166 3.32625,-0.68249 3.53447,-0.89069 z m 12.14951,-3.06892 c 1.97986,-0.54663 4.08835,-1.58264 4.68561,-2.30226 2.27822,-2.74511 -1.24934,-14.35476 -4.36165,-14.35476 -0.94246,0 -4.28697,1.269 -7.4322,2.82 l -5.71867,2.81999 0.58126,3.49381 c 0.31977,1.92159 1.14608,4.91674 1.83632,6.65588 1.37895,3.47423 1.06273,3.44788 10.40933,0.86734 z m 11.64046,-2.4786 c 0,-1.70551 -1.22885,-1.33817 -3.45679,1.03337 l -2.01865,2.14874 2.73772,-1.03336 c 1.50577,-0.56836 2.73772,-1.5353 2.73772,-2.14875 z m 1.74173,-9.84318 c 0,-2.91304 -3.03526,-12.22554 -5.66457,-17.37948 -1.10486,-2.16574 -4.14255,-6.28906 -6.75041,-9.16293 -2.60785,-2.87387 -5.39812,-6.49886 -6.20065,-8.05554 -0.80248,-1.55668 -1.74297,-2.84887 -2.08987,-2.87155 -0.34711,-0.0227 -2.49227,-0.20656 -4.7674,-0.40864 -5.79833,-0.51504 -5.44835,0.82812 2.4035,9.22414 3.59709,3.84637 7.56129,9.00846 8.80928,11.4713 3.59141,7.08727 8.10042,18.15433 8.70108,21.35613 l 0.54996,2.93145 2.50454,-2.3995 c 1.52403,-1.46013 2.50454,-3.30223 2.50454,-4.70536 z m 46.15609,2.82269 c 0,-0.37393 -2.98622,-2.15752 -6.63601,-3.96349 l -6.63602,-3.2836 -1.32649,1.89381 c -1.20652,1.72255 -1.82518,1.84272 -6.84123,1.32881 -4.71949,-0.48353 -16.44824,-3.40448 -21.45058,-5.34209 -0.88912,-0.34443 -1.52402,-0.18872 -1.52402,0.37372 0,0.53023 0.80324,0.96404 1.785,0.96404 0.9817,0 2.99142,0.62388 4.46594,1.3864 3.20964,1.65975 9.26903,3.53996 18.1334,5.62671 6.6621,1.56832 20.03001,2.24618 20.03001,1.01569 z m -66.1861,-7.59336 c 2.36307,-1.19745 4.89733,-2.17718 5.63172,-2.17718 1.68577,0 1.68747,-1.1471 0.005,-4.39759 -1.52109,-2.94141 -2.13392,-3.07524 -5.68154,-1.24069 -3.56036,1.84115 -3.29583,3.24088 0.47863,2.53278 2.0632,-0.38708 3.04805,-0.24478 3.04805,0.44041 0,1.17627 -5.81594,3.81188 -6.91405,3.13323 -0.71191,-0.44 -1.79471,1.42219 -1.79471,3.08656 0,1.15764 0.46316,1.03548 5.22525,-1.37753 z m 44.96818,-0.44284 c -3.18091,-1.58776 -17.32025,-3.54713 -16.10103,-2.23121 0.63588,0.68633 15.04176,3.84343 17.72439,3.88436 1.15408,0.0175 0.60639,-0.54012 -1.62336,-1.65315 z m 0.31719,-5.04699 c 0,-0.38501 -1.27367,-1.9199 -2.83035,-3.41086 -2.75577,-2.63941 -3.11139,-2.72716 -13.49849,-3.33078 -8.87566,-0.51578 -10.66814,-0.41436 -10.66814,0.6036 0,0.84003 1.16015,1.26121 3.70121,1.34372 12.71707,0.41292 17.06572,1.24038 13.1877,2.50936 -4.02068,1.31565 -4.11795,1.58438 -0.77782,2.149 5.12622,0.86652 10.88589,0.93846 10.88589,0.13595 z m -17.41741,-0.94014 c 0,-0.92853 -3.04331,-1.81512 -6.28648,-1.83141 -1.74926,-0.009 -2.23666,0.32926 -1.86629,1.29441 0.54774,1.42729 8.15277,1.92823 8.15277,0.537 z m -25.71764,-5.28309 c 0.28109,-0.45495 -0.24499,-1.23192 -1.16944,-1.72663 -1.43692,-0.76901 -1.61516,-0.64905 -1.22911,0.82718 0.48275,1.84568 1.56327,2.25092 2.39855,0.89945 z m 23.05692,-8.82323 c -3.2215,-4.74387 -3.75774,-5.1536 -6.73359,-5.14478 -1.7783,0.005 -4.66018,0.24555 -6.40407,0.53396 l -3.17081,0.52439 3.91515,4.90897 3.91511,4.90896 5.98924,-0.28857 5.98925,-0.28857 z m 13.11116,4.63575 c 0,-2.53881 4.66724,-14.74865 10.33336,-27.03275 2.93825,-6.37009 5.34227,-11.92306 5.34227,-12.33995 0,-1.08827 17.772,-38.10229 23.84702,-49.66654 0.62902,-1.19744 3.03253,-5.90013 5.34108,-10.45043 2.30851,-4.55029 4.42546,-8.4692 4.70428,-8.70869 0.27903,-0.23947 6.50913,-12.38812 13.84514,-26.99695 17.69577,-35.23923 25.80882,-50.96723 31.44575,-60.96086 4.00639,-7.10286 12.95467,-24.93914 19.92742,-39.72055 1.10482,-2.3421 3.26024,-6.4569 4.78979,-9.14402 8.24473,-14.48426 11.37499,-20.38612 12.78029,-24.09613 0.85653,-2.26118 4.20502,-9.59772 7.44107,-16.30341 11.31929,-23.45529 15.9953,-39.61968 18.21979,-62.98311 0.66884,-7.0252 1.06371,-12.92553 0.87736,-13.11184 -0.18619,-0.1863 -9.17795,17.61866 -19.98148,39.56662 -10.80353,21.94795 -19.8365,40.09913 -20.07333,40.33596 -0.23674,0.23684 -0.81444,0.0469 -1.28358,-0.42241 -0.55677,-0.55673 5.075,-12.7862 16.21548,-35.21215 15.33538,-30.87037 20.10541,-40.61683 22.25965,-45.48223 1.36234,-3.07686 -2.25548,0.0346 -13.77597,11.84845 -15.51585,15.9108 -20.09871,22.48093 -33.90017,48.60023 -4.64686,8.79427 -11.73236,22.84769 -15.74556,31.2298 -4.01321,8.38212 -7.69477,15.82806 -8.18129,16.54652 -0.90027,1.32954 -3.98788,7.69311 -16.90191,34.83478 -20.38543,42.84446 -29.86886,62.56615 -32.00654,66.56057 -1.29962,2.4284 -3.97999,7.74636 -5.95645,11.81767 -1.9764,4.07131 -6.86733,14.06455 -10.86872,22.20717 -4.00134,8.14263 -8.09825,17.02875 -9.10419,19.74692 -1.00595,2.71818 -2.80766,6.3843 -4.00382,8.14693 -1.19616,1.76264 -2.69594,4.7174 -3.33291,6.56613 -3.2752,9.50639 -29.31746,55.58625 -36.60993,64.77854 -1.69258,2.13355 -1.70723,3.44937 -0.0536,4.82165 1.0109,0.83896 3.06941,0.86175 9.36187,0.10362 4.43628,-0.53447 8.8835,-1.19528 9.88264,-1.46844 1.5215,-0.41596 2.06377,0.15045 3.33781,3.48647 0.83662,2.19073 1.81167,3.98313 2.16677,3.98313 0.35484,0 5.88372,-10.67903 12.28588,-23.73119 6.40211,-13.05215 25.86969,-52.49026 43.26121,-87.64024 17.39158,-35.14997 31.62106,-64.03981 31.62106,-64.19964 0,-0.43123 14.24584,-30.78484 19.1674,-40.83997 9.59293,-19.59905 11.85579,-29.30662 6.95867,-29.85204 -3.17571,-0.35371 -9.12405,8.64891 -24.61535,37.25443 -4.27995,7.90314 -8.50828,15.74097 -9.39637,17.41739 -0.88809,1.67642 -9.90647,19.89937 -20.0409,40.49542 -34.60031,70.31784 -63.49123,128.01528 -65.18613,130.18197 -2.32165,2.96781 -3.46185,1.41904 -1.47441,-2.00267 1.97449,-3.3994 37.54733,-74.49864 41.37429,-82.69454 1.51433,-3.24309 10.33965,-21.07414 19.61178,-39.62455 9.27218,-18.55042 17.63445,-35.29559 18.58283,-37.2115 7.42332,-14.99678 11.43431,-22.79395 15.00757,-29.17413 2.28013,-4.07131 6.01539,-10.73346 8.30053,-14.80478 5.1911,-9.24867 12.33514,-20.11702 14.16795,-21.55402 2.22779,-1.74661 6.01957,-1.32058 7.53772,0.84693 1.93906,2.76835 1.6753,7.79695 -0.71062,13.54866 -1.13643,2.73969 -2.56839,6.54882 -3.1821,8.46474 -0.61371,1.91591 -3.70075,8.58487 -6.86011,14.81991 -3.15935,6.23505 -7.49352,15.24855 -9.6314,20.03 -4.03219,9.01792 -24.79897,51.39286 -80.84919,164.97413 l -13.94715,28.26277 2.57432,3.74167 c 2.64917,3.85047 5.10327,4.91346 5.10327,2.21051 z m -43.10803,-1.95229 c -0.29605,-0.47899 -0.93013,-0.87087 -1.40912,-0.87087 -0.47914,0 -0.62866,0.39187 -0.33266,0.87087 0.29605,0.47899 0.93012,0.87086 1.40911,0.87086 0.47915,0 0.62867,-0.39187 0.33267,-0.87086 z m -5.66066,-3.75599 c 0,-0.14988 -1.27365,-1.42352 -2.83033,-2.83032 l -2.83032,-2.55782 2.55782,2.83032 c 2.38425,2.63826 3.10283,3.23062 3.10283,2.55782 z m 1.99317,-4.08275 c -2.49613,-2.39439 -5.04342,-4.33565 -5.66067,-4.31391 -1.31567,0.0464 7.91244,8.66959 9.27627,8.66826 0.50752,-4.8e-4 -1.11951,-1.95994 -3.6156,-4.35435 z m -9.09339,-2.9917 c -1.42278,-3.12269 -0.48528,-4.7173 2.45941,-4.18319 3.54634,0.64326 2.70578,0.0933 -8.15175,-5.3331 l -9.74441,-4.87011 1.87863,2.81108 c 1.54698,2.31483 13.40564,13.69696 14.2704,13.69696 0.13992,0 -0.18062,-0.95474 -0.71228,-2.12164 z m 41.06404,0.37991 c 0,-0.47899 -0.88175,-0.84332 -1.95949,-0.80966 -1.86964,0.0584 -1.87964,0.0955 -0.21765,0.80966 0.95798,0.41163 1.83973,0.776 1.95949,0.80965 0.11965,0.0335 0.21765,-0.33065 0.21765,-0.80965 z"
       id="path1494" /><path
       style="fill:#ffffff;fill-rule:evenodd;stroke-width:0.217717"
       d="m 205.31793,399.4569 c -1.46409,-1.66892 -2.68341,-4.12328 -2.69089,-5.41635 -0.002,-0.31467 -0.15369,-0.93235 -0.33782,-1.37262 -0.18413,-0.44026 -0.42912,-1.29901 -0.54454,-1.9083 -0.11553,-0.6093 -0.39714,-1.51019 -0.62537,-2.002 -0.22848,-0.49178 -0.56084,-1.23708 -0.73877,-1.65619 -1.55173,-3.655 -2.6059,-5.71557 -3.49007,-6.82219 -0.66683,-0.83455 -1.59876,-2.28751 -2.55251,-3.97942 -0.20991,-0.37279 -0.5137,-0.90858 -0.67467,-1.19071 -0.42292,-0.74093 -1.97191,-2.89954 -2.18523,-3.04479 -0.0995,-0.0679 -0.49875,-0.62473 -0.88614,-1.23738 -0.38733,-0.61265 -1.33247,-1.76308 -2.09972,-2.5565 -1.32742,-1.37263 -2.05428,-2.37171 -2.33754,-3.21289 -0.0707,-0.20956 -0.20682,-0.381 -0.30275,-0.381 -0.0959,0 -0.38424,-0.33896 -0.64011,-0.75325 -0.37135,-0.6005 -0.41726,-0.84334 -0.22797,-1.19745 0.55099,-1.0295 2.30515,-0.27557 3.27231,1.40641 0.34401,0.59872 1.3269,1.82204 2.18363,2.7185 0.85669,0.89644 1.81611,2.07212 2.13191,2.6126 0.51901,0.88821 1.03364,1.58018 1.68335,2.26354 0.38476,0.40466 1.83709,2.62016 1.83709,2.80239 0,0.0936 0.39198,0.81519 0.87087,1.60361 0.47914,0.78841 0.87086,1.49064 0.87086,1.5605 0,0.0699 0.40385,0.60622 0.8979,1.1919 0.82413,0.97735 3.02102,4.91189 3.02102,5.4105 0,0.11734 0.3564,0.96803 0.79242,1.89047 0.43582,0.92245 0.87376,1.87312 0.97314,2.11261 0.21817,0.5254 1.13071,3.89029 1.50593,5.5518 0.30842,1.36657 0.64625,2.09647 1.54125,3.33198 0.75498,1.04224 0.84998,2.19572 0.20889,2.53873 -0.63388,0.33921 -0.98274,0.27588 -1.45678,-0.26449 z"
       id="path1496" /></g></svg>
