<?xml version="1.0" encoding="UTF-8" standalone="no"?>
<svg
   height="512"
   width="512"
   version="1.1"
   id="svg33"
   sodipodi:docname="sword_one_handed.svg"
   inkscape:version="1.2.1 (9c6d41e410, 2022-07-14)"
   inkscape:export-filename="one_handed_sword.png"
   inkscape:export-xdpi="96"
   inkscape:export-ydpi="96"
   xmlns:inkscape="http://www.inkscape.org/namespaces/inkscape"
   xmlns:sodipodi="http://sodipodi.sourceforge.net/DTD/sodipodi-0.dtd"
   xmlns:xlink="http://www.w3.org/1999/xlink"
   xmlns="http://www.w3.org/2000/svg"
   xmlns:svg="http://www.w3.org/2000/svg">
  <sodipodi:namedview
     id="namedview35"
     pagecolor="#ffffff"
     bordercolor="#000000"
     borderopacity="0.25"
     inkscape:showpageshadow="2"
     inkscape:pageopacity="0.0"
     inkscape:pagecheckerboard="true"
     inkscape:deskcolor="#d1d1d1"
     showgrid="false"
     inkscape:zoom="1.0029297"
     inkscape:cx="326.04479"
     inkscape:cy="356.45569"
     inkscape:window-width="2560"
     inkscape:window-height="1351"
     inkscape:window-x="2391"
     inkscape:window-y="-9"
     inkscape:window-maximized="1"
     inkscape:current-layer="svg33" />
  <defs
     id="defs31">
    <g
       id="shape0">
      <path
         d="M 100,100 H 0 V 0 h 100 v 100"
         fill="#00cc66"
         fill-opacity="0"
         fill-rule="evenodd"
         stroke="none"
         id="path8" />
      <path
         d="M 84.3,84.3 V 15.7 H 15.7 v 68.6 h 68.6 m 7.95,7.95 H 7.75 V 7.75 h 84.5 v 84.5"
         fill="#666666"
         fill-opacity="0"
         fill-rule="evenodd"
         stroke="none"
         id="path10" />
      <path
         d="M 84.3,84.3 H 15.7 V 15.7 H 84.3 V 84.3 M 76.4,76.4 V 23.55 H 23.55 V 76.4 H 76.4"
         fill="#999999"
         fill-opacity="0"
         fill-rule="evenodd"
         stroke="none"
         id="path12" />
      <path
         d="M 92.25,92.25 V 7.75 H 7.75 v 84.5 h 84.5 m 3.8,3.8 H 3.95 V 3.95 h 92.1 v 92.1"
         fill="#333333"
         fill-opacity="0"
         fill-rule="evenodd"
         stroke="none"
         id="path14" />
      <path
         d="M 68.85,68.85 V 31.1 H 31.1 V 68.85 H 68.85 M 76.4,76.4 H 23.55 V 23.55 H 76.4 V 76.4"
         fill="#cccccc"
         fill-opacity="0"
         fill-rule="evenodd"
         stroke="none"
         id="path16" />
      <path
         d="M 68.85,68.85 H 31.1 V 31.1 h 37.75 v 37.75"
         fill="#ffffff"
         fill-opacity="0"
         fill-rule="evenodd"
         stroke="none"
         id="path18" />
      <path
         d="M 96.05,96.05 V 3.95 H 3.95 v 92.1 h 92.1 M 100,100 H 0 V 0 h 100 v 100"
         fill="#000000"
         fill-opacity="0"
         fill-rule="evenodd"
         stroke="none"
         id="path20" />
      <path
         d="M 0,50 H 50 L 0,0 M 50,50 V 0 m 0,100 V 50 L 0,100 M 100,50 H 50 l 50,50 M 50,50 100,0"
         fill="none"
         stroke="#000000"
         stroke-linecap="round"
         stroke-linejoin="round"
         stroke-opacity="0"
         stroke-width="0.05"
         id="path22" />
    </g>
    <g
       id="sprite0"
       transform="translate(38.95,-5.05)">
      <use
         height="117.95"
         transform="translate(-38.95,5.05)"
         width="117.9"
         xlink:href="#shape1"
         id="use25" />
    </g>
    <g
       id="shape1"
       transform="translate(38.95,-5.05)">
      <path
         d="m 65.75,75.65 q 0.35,1.8 -0.05,3.3 -0.3,1.05 -1.15,1.9 L 54.5,90.95 78.95,115.35 71.3,123 46.8,98.65 36.9,108.5 q -1.9,1.95 -5.35,1.25 -1.6,-0.3 -3.25,-1.25 -1.4,-0.7 -2.85,-2.1 L 37.8,94 -38.4,17.8 -38.95,5.05 -26.65,5.55 49.8,82 62.5,69.35 q 2.85,2.8 3.25,6.3"
         fill="#ffffff"
         fill-rule="evenodd"
         stroke="none"
         id="path28" />
    </g>
  </defs>
  <g
     inkscape:groupmode="layer"
     id="layer1"
     inkscape:label="Layer 1">
    <path
       d="m 65.75,75.65 q 0.35,1.8 -0.05,3.3 -0.3,1.05 -1.15,1.9 L 54.5,90.95 78.95,115.35 71.3,123 46.8,98.65 36.9,108.5 q -1.9,1.95 -5.35,1.25 -1.6,-0.3 -3.25,-1.25 -1.4,-0.7 -2.85,-2.1 L 37.8,94 -38.4,17.8 -38.95,5.05 -26.65,5.55 49.8,82 62.5,69.35 q 2.85,2.8 3.25,6.3"
       fill="#ffffff"
       fill-rule="evenodd"
       stroke="none"
       id="path149"
       transform="matrix(3.998001,0,0,3.998001,176.03998,0.12793603)" />
  </g>
</svg>
