<?xml version="1.0" encoding="UTF-8" standalone="no"?>
<!-- Created with Inkscape (http://www.inkscape.org/) -->

<svg
   width="512"
   height="512"
   viewBox="0 0 512 512"
   version="1.1"
   id="svg5"
   inkscape:version="1.2.1 (9c6d41e410, 2022-07-14)"
   sodipodi:docname="torch.svg"
   xml:space="preserve"
   inkscape:export-filename="torch.png"
   inkscape:export-xdpi="96"
   inkscape:export-ydpi="96"
   xmlns:inkscape="http://www.inkscape.org/namespaces/inkscape"
   xmlns:sodipodi="http://sodipodi.sourceforge.net/DTD/sodipodi-0.dtd"
   xmlns="http://www.w3.org/2000/svg"
   xmlns:svg="http://www.w3.org/2000/svg"><sodipodi:namedview
     id="namedview7"
     pagecolor="#ffffff"
     bordercolor="#999999"
     borderopacity="1"
     inkscape:pageshadow="0"
     inkscape:pageopacity="0"
     inkscape:pagecheckerboard="true"
     inkscape:document-units="px"
     showgrid="false"
     height="70mm"
     units="px"
     inkscape:zoom="1.619416"
     inkscape:cx="141.40901"
     inkscape:cy="289.30183"
     inkscape:window-width="2560"
     inkscape:window-height="1351"
     inkscape:window-x="2391"
     inkscape:window-y="-9"
     inkscape:window-maximized="1"
     inkscape:current-layer="layer1"
     inkscape:showpageshadow="2"
     inkscape:deskcolor="#d1d1d1" /><defs
     id="defs2" /><g
     inkscape:label="Layer 1"
     inkscape:groupmode="layer"
     id="layer1"><path
       style="fill:#ffffff;fill-rule:evenodd;stroke-width:0.310142"
       d="m 264.72821,511.60963 c -0.68231,-0.20313 -1.44991,-0.4603 -1.70577,-0.57101 -0.25587,-0.11117 -1.72129,-0.60368 -3.25649,-1.09488 -4.44409,-1.42203 -7.16399,-3.06408 -8.78741,-5.30519 -2.04913,-2.82874 -3.29784,-10.02327 -3.01827,-17.38997 0.10032,-2.64396 0.30272,-23.85765 0.44969,-47.14152 0.16801,-26.61201 0.38533,-42.91023 0.58524,-43.88504 0.47947,-2.33812 0.59244,-30.10764 0.12806,-31.47731 -0.24947,-0.73591 -0.36969,-4.01903 -0.37473,-10.23468 -0.004,-5.03316 -0.14634,-9.70948 -0.31623,-10.39179 -0.31025,-1.24633 -0.66603,-4.39132 -1.2455,-11.01002 -0.18292,-2.08939 -0.27592,-12.10883 -0.22448,-24.19104 0.0806,-18.92586 0.0431,-20.76897 -0.45541,-22.3796 -0.29878,-0.96535 -0.68795,-3.19837 -0.86481,-4.96226 -0.17685,-1.7639 -0.38684,-3.42439 -0.46664,-3.68997 -0.26516,-0.8828 -1.12172,-7.53592 -1.37526,-10.68222 -0.13746,-1.70577 -0.3992,-3.93879 -0.58166,-4.96226 -0.18246,-1.02347 -0.4882,-2.76802 -0.67941,-3.87677 -0.73606,-4.2682 -0.75223,-4.30595 -2.51809,-5.87983 -2.93104,-2.6124 -3.42834,-4.04051 -4.58111,-13.1556 -0.16993,-1.34357 -0.50928,-3.01834 -0.75421,-3.7217 -1.56425,-4.49259 -1.52733,-4.14786 -1.76948,-16.52136 -0.26334,-13.45785 0.0468,-12.00087 -3.39194,-15.92671 -2.97218,-3.39307 -4.82702,-5.74971 -6.21675,-7.89861 -0.98107,-1.51701 -1.65007,-2.14379 -3.3197,-3.11019 -5.35811,-3.10132 -7.51202,-4.73384 -12.42577,-9.41786 -5.45953,-5.20429 -8.26003,-8.69732 -10.19919,-12.72131 -0.60666,-1.25889 -1.73609,-3.21278 -2.50985,-4.34198 C 192.40009,162.0892 192,160.71198 192,155.84809 c 0,-2.3931 0.14302,-4.48069 0.33104,-4.83199 0.33597,-0.62778 0.74342,-3.19226 1.17641,-7.40438 0.13149,-1.27933 0.4044,-2.63091 0.60641,-3.00349 0.20199,-0.3726 0.3673,-1.78607 0.3673,-3.14107 0,-1.4883 0.18417,-2.90444 0.46523,-3.57706 0.25586,-0.61238 0.46523,-1.87893 0.46523,-2.81456 0,-0.93563 0.13819,-2.02173 0.30714,-2.41356 0.16895,-0.39182 0.45354,-2.10805 0.63244,-3.81383 0.17892,-1.70577 0.42803,-4.07836 0.55363,-5.2724 0.12557,-1.19405 0.39925,-2.47584 0.60814,-2.84842 0.2089,-0.3726 0.37977,-1.36009 0.37977,-2.19446 0,-1.18474 0.1572,-1.66475 0.71781,-2.19138 0.97255,-0.91368 2.7232,-0.90263 3.72158,0.0234 1.2721,1.18 1.53976,3.47846 1.79683,15.42954 0.27046,12.57465 0.77885,17.64485 2.40999,24.03597 0.17414,0.68231 0.47209,1.93838 0.66213,2.79127 0.91802,4.12015 2.29137,6.49675 7.00518,12.12248 1.7104,2.04129 3.0404,4.55789 3.38684,6.40848 0.24787,1.32397 0.95164,1.54037 1.83504,0.56423 1.17958,-1.30343 -0.12879,-7.70519 -2.22289,-10.87644 -0.39422,-0.59702 -1.13261,-1.70668 -1.64083,-2.46591 -0.79816,-1.19237 -0.92404,-1.66619 -0.92404,-3.47826 0,-1.15381 0.19389,-2.69586 0.43079,-3.42677 0.23695,-0.73092 0.50752,-1.85363 0.60126,-2.49492 0.39811,-2.7232 2.60904,-4.23242 6.25626,-4.27062 2.57485,-0.027 6.25827,-0.40813 6.52541,-0.6753 0.10412,-0.10411 0.0286,-1.56278 -0.16744,-3.24151 -0.19617,-1.67874 -0.46543,-4.30833 -0.5984,-5.84353 -0.20505,-2.36814 -0.42424,-3.14389 -1.44565,-5.11733 -1.12675,-2.17691 -1.21751,-2.55477 -1.41555,-5.89269 -0.11637,-1.96165 -0.35234,-4.33423 -0.5244,-5.27241 -0.17206,-0.93818 -0.32298,-3.78533 -0.33545,-6.32699 -0.0218,-4.43034 0.0125,-4.69294 0.82691,-6.35791 1.13372,-2.31759 6.27336,-7.50522 11.0909,-11.194463 1.9094,-1.46221 5.30231,-4.21516 5.73762,-4.65542 0.0853,-0.0862 0.99245,-0.77844 2.01592,-1.53818 3.47296,-2.57804 6.86342,-6.62671 7.41183,-8.85075 0.12604,-0.51121 0.77788,-2.07808 1.44849,-3.48193 0.6706,-1.40386 1.21928,-2.80647 1.21928,-3.11692 0,-0.31047 0.1464,-0.71087 0.32532,-0.88981 0.52909,-0.52908 0.74988,-10.84282 0.26792,-12.51453 -0.46341,-1.60739 -0.48612,-6.81311 -0.0488,-11.1651 0.44627,-4.43951 1.45677,-5.95082 5.96841,-8.92614 4.72615,-3.11679 6.01236,-4.25726 9.34861,-8.2893 1.13032,-1.36604 3.71109,-4.09284 5.73504,-6.05954 3.68467,-3.58045 5.23628,-5.22274 6.57929,-6.96382 0.39483,-0.51173 1.16045,-1.4189 1.70158,-2.01592 1.03639,-1.14347 4.12763,-5.70795 4.9359,-7.28833 0.26184,-0.51173 0.71694,-1.5584599 1.01166,-2.3260599 0.29457,-0.7676 0.64499,-1.67476 0.7785,-2.01592 0.13352,-0.34116 0.56093,-1.52744 0.94984,-2.6362 0.91347,-2.60432 1.35174,-3.26475996 2.4751,-3.73007996 1.83011,-0.75805 3.02495,-0.23722 5.50919,2.40138996 3.35724,3.56589 4.07194,4.69007 5.57684,8.7720899 0.35119,0.95268 0.51588,2.38777 0.51952,4.52157 0.004,2.76714 -0.0904,3.31892 -0.82386,4.8072 -1.0886,2.20881 -2.09299,4.51846 -3.32056,7.63589 -1.28742,3.26928 -3.64152,7.3692 -5.95998,10.37976 -1.00719,1.30791 -1.83131,2.57095 -1.83131,2.80675 0,0.27675 0.68722,0.56971 1.93838,0.82638 2.8769,0.59016 3.83115,1.13759 4.38179,2.51377 0.55069,1.3763 0.41613,2.02372 -1.01369,4.8713 -0.53048,1.05654 -0.96449,2.34115 -0.96449,2.8547 0,1.51924 -1.39605,4.91634 -2.94167,7.15801 l -1.44105,2.09 0.22028,1.94657 c 0.26703,2.36186 1.61337,5.08684 4.13761,8.37585 0.98189,1.27933 2.27378,3.09607 2.87097,4.03719 0.59713,0.94113 1.28706,1.91808 1.5331,2.17099 0.24625,0.25291 1.08949,1.29724 1.87432,2.32071 1.43248,1.8681 5.74439,6.85272 9.34154,10.79903 1.6542,1.81472 1.96176,2.34006 2.16598,3.69957 0.13092,0.87149 0.89851,2.92033 1.70579,4.55299 l 1.46775,2.968463 v 5.58255 c 0,4.54591 -0.10598,5.92809 -0.57199,7.4434 -0.31483,1.02346 -0.75923,2.62844 -0.98808,3.56662 -0.65345,2.67848 -2.20286,7.6572 -2.94385,9.45932 -0.14028,0.34117 -0.34237,1.01948 -0.44887,1.50739 -0.1065,0.48794 -0.4712,1.47745 -0.81029,2.19896 -1.31584,2.79932 -1.90041,8.48255 -1.06445,10.34882 0.28106,0.62797 0.62493,1.42089 0.76359,1.76205 0.34392,0.84609 1.53601,3.22785 3.10444,6.20283 1.27012,2.40927 1.30488,2.553 1.1989,4.96226 -0.18079,4.10891 -1.45944,5.79835 -5.19826,6.86785 -3.6488,1.04375 -5.60204,2.40086 -5.60204,3.89235 0,0.32833 -0.55822,1.76659 -1.24056,3.19617 -0.93451,1.95808 -1.24056,2.98116 -1.24056,4.14753 0,1.2134 0.11741,1.57918 0.54274,1.6911 0.29873,0.0786 1.24057,0.32403 2.09346,0.54555 2.19336,0.56964 3.39553,1.36011 4.59915,3.02415 1.63576,2.26143 2.68919,6.01297 2.68919,9.57689 0,2.00256 0.45614,3.70567 1.76491,6.5908 0.9075,2.00037 1.41263,3.47118 2.13404,6.21349 0.67142,2.55215 0.83034,14.38102 0.21664,16.12736 -0.20989,0.59703 -0.52908,2.27179 -0.70962,3.7217 -0.18079,1.44992 -0.54175,4.31097 -0.80276,6.35791 -0.71325,5.59342 -1.01971,9.05515 -1.33163,15.04186 -0.48419,9.28745 -1.38322,11.06256 -6.27538,12.38714 -1.85474,0.50217 -2.07143,1.00666 -2.30688,5.37137 -0.10338,1.9174 -0.32418,3.93383 -0.49043,4.48094 -0.16624,0.54711 -0.42288,2.08231 -0.5709,3.41156 -0.14806,1.32924 -0.50185,3.81244 -0.78634,5.51822 -0.5802,3.47642 -0.8982,7.02436 -1.36213,15.19694 -0.38185,6.72681 -0.59838,8.53115 -1.87946,15.66215 -0.13768,0.7676 -0.41146,2.58193 -0.60836,4.03184 -0.1969,1.44991 -0.50394,3.47359 -0.68234,4.49705 -0.17871,1.02347 -0.45718,3.81474 -0.61958,6.20283 -0.3195,4.70699 -0.31587,4.66648 -1.27002,13.33609 -0.63636,5.782 -0.87024,11.75712 -1.31719,33.65036 -0.20001,9.78714 -0.0104,15.82751 0.80479,25.58668 0.70868,8.49018 0.34912,28.04393 -0.6613,35.97642 -0.17403,1.36462 -0.52118,4.5048 -0.7719,6.97818 -0.47432,4.67722 -0.84998,8.02535 -1.4626,13.02595 -0.23794,1.94316 -0.37509,10.17978 -0.40211,24.19104 -0.0416,21.60031 -0.14183,23.74825 -1.26861,27.29246 -1.36458,4.29217 -3.70948,7.22375 -7.05321,8.81775 -3.2031,1.52692 -6.77433,2.65401 -9.96988,3.14657 -3.32759,0.51277 -9.42838,0.50809 -11.16509,-0.0104 z m 10.85496,-7.42308 c 2.7482,-0.636 5.5071,-1.78033 6.661,-2.76283 1.08424,-0.9232 2.4685,-3.84606 2.48081,-5.23829 0.004,-0.45796 0.22651,-1.85359 0.49406,-3.10142 0.41718,-1.94381 0.43432,-2.82415 0.12053,-6.14558 -0.25404,-2.68923 -0.31327,-8.48435 -0.19378,-18.91863 0.1782,-15.5233 0.4073,-20.24397 1.27896,-26.36203 0.2795,-1.96165 0.63126,-5.34356 0.78161,-7.51539 0.15014,-2.1718 0.36678,-4.09979 0.48056,-4.28439 0.28469,-0.46034 0.66659,-5.30177 1.08813,-13.78691 0.40107,-8.07534 0.23483,-19.44255 -0.37197,-25.4316 -0.30288,-2.99119 -0.3938,-9.73497 -0.35172,-26.12788 l 0.0572,-22.09606 -0.83549,-0.23415 c -1.45829,-0.40871 -17.97233,-0.27405 -20.52947,0.16739 -4.15395,0.71708 -8.51866,1.71821 -8.96134,2.05546 -0.36122,0.27524 -0.398,1.86184 -0.22329,9.63613 0.11502,5.11864 0.35322,10.00445 0.52932,10.85734 0.22215,1.07588 0.20823,6.53643 -0.0452,17.83314 -0.20105,8.95534 -0.45998,35.19331 -0.57538,58.30662 -0.15429,30.90709 -0.30688,42.35237 -0.5768,43.26474 -0.55624,1.88039 -0.45157,6.37726 0.24911,10.69989 0.72819,4.49249 0.97191,5.21928 2.11875,6.31801 0.72362,0.69327 4.83907,2.40906 7.95024,3.31455 1.21795,0.35447 6.01506,0.0978 8.37383,-0.44814 z m -8.99411,-176.02444 c 0.52475,-0.21684 3.49972,-0.50388 6.82311,-0.65834 3.24099,-0.15066 6.79986,-0.48154 7.90862,-0.73537 1.10874,-0.25384 3.28979,-0.46637 4.84674,-0.4724 2.19274,-0.008 2.92256,-0.12141 3.2378,-0.50123 0.55953,-0.67422 0.88542,-2.90551 1.19667,-8.19363 0.14546,-2.47339 0.41353,-5.26466 0.59505,-6.20284 0.18184,-0.93818 0.47952,-2.82229 0.66172,-4.18691 0.18235,-1.36462 0.44626,-3.14903 0.58679,-3.96535 0.14027,-0.81632 0.17196,-1.53333 0.0701,-1.59335 -0.64238,-0.37868 -15.88587,-0.83077 -25.13759,-0.74549 l -10.99611,0.10136 -0.2156,0.77536 c -0.29384,1.05671 -0.33639,26.5082 -0.0447,26.80792 0.36517,0.3754 9.41822,0.004 10.46727,-0.42975 z m 27.05493,-42.27295 c 0.45146,-0.57622 0.99805,-3.76873 1.29615,-7.5683 0.14495,-1.8503 0.56264,-5.17852 0.92776,-7.39603 1.28197,-7.78572 1.5676,-9.95013 1.6993,-12.8768 0.0873,-1.93618 0.32054,-3.34539 0.6775,-4.09448 0.72806,-1.52674 0.40782,-1.86687 -2.70805,-2.8755 -1.36436,-0.44165 -3.93354,-1.55477 -5.70926,-2.47355 -4.03677,-2.08866 -5.76402,-2.46335 -10.38541,-2.25294 -3.47334,0.15814 -3.67909,0.20796 -6.63084,1.6058 -1.67545,0.79343 -3.4817,1.75696 -4.0139,2.14117 -1.67154,1.20677 -3.71174,2.00533 -8.10087,3.17078 -2.03182,0.53952 -3.63511,0.74405 -5.89269,0.75174 -3.9285,0.0135 -4.08464,0.10349 -3.57468,2.06296 0.43655,1.67728 0.81238,4.54782 1.23253,9.41335 0.15466,1.79106 0.42102,4.09386 0.59186,5.11733 0.65476,3.922 1.26925,8.4523 1.40269,10.34125 0.1837,2.60049 0.92553,3.46005 2.98614,3.46005 0.79471,0 2.20091,0.13253 3.12489,0.29452 2.81208,0.49297 11.0903,0.96727 21.37397,1.22455 5.37319,0.13445 10.13614,0.26631 10.58438,0.29312 0.44835,0.027 0.95156,-0.12578 1.11853,-0.33899 z m -59.48377,-87.453 c 0.16713,-0.74094 0.10396,-1.42308 -0.19783,-2.1371 -0.62722,-1.48401 -1.43288,-11.03192 -1.20039,-14.22581 0.24002,-3.29704 1.02382,-4.68067 3.02919,-5.34722 l 1.3344,-0.44351 0.15648,-2.78248 c 0.16157,-2.87335 0.57039,-3.93153 1.99105,-5.15373 2.10678,-1.81249 5.69555,-2.03177 12.27406,-0.74999 3.78635,0.73775 5.40344,0.85337 16.90271,1.20859 6.9937,0.21602 15.99554,0.39297 20.00415,0.39318 4.00856,1.9e-4 8.1454,0.12333 9.1929,0.27363 1.82175,0.26137 1.92633,0.24012 2.40351,-0.4882 0.2743,-0.41878 0.83409,-1.74676 1.24368,-2.95105 0.40938,-1.20428 0.98101,-2.55024 1.26981,-2.99101 0.76603,-1.1691 3.02194,-2.55686 5.3816,-3.31061 3.7183,-1.18773 3.73623,-1.199 4.10914,-2.58395 0.48315,-1.795 0.12884,-3.77409 -0.98766,-5.51404 -0.52539,-0.81877 -1.55934,-2.82993 -2.29763,-4.46924 -0.73829,-1.6393 -1.42437,-3.06258 -1.52458,-3.16282 -0.10027,-0.10022 -0.18235,-1.87822 -0.18235,-3.95106 0,-3.51568 0.35691,-5.76664 1.23043,-7.75814 0.14962,-0.34116 0.70265,-2.01591 1.22903,-3.72169 1.47341,-4.77515 1.61529,-5.206 2.04249,-6.20284 0.21923,-0.51172 0.56529,-1.83758 0.76878,-2.94634 0.20365,-1.10876 0.67096,-2.8533 1.03873,-3.87677 0.57942,-1.61245 0.66873,-2.52325 0.66873,-6.82312 v -4.96226 l -1.28654,-2.6362 c -0.70754,-1.449913 -1.37211,-3.330383 -1.47674,-4.178833 -0.15014,-1.21745 -0.43847,-1.80582 -1.36909,-2.79127 -0.64836,-0.68676 -1.64142,-1.80691 -2.20681,-2.48922 -0.56534,-0.68231 -1.88248,-2.15282 -2.92692,-3.26781 -2.06639,-2.20592 -4.10904,-4.65817 -4.89902,-5.88136 -0.27535,-0.42642 -0.91025,-1.19405 -1.41071,-1.70578 -0.50029,-0.51173 -1.51388,-1.83759 -2.25201,-2.94635 -0.73819,-1.10875 -2.06478,-2.99286 -2.94796,-4.18691 -2.08868,-2.82379 -3.88051,-6.3867 -3.88051,-7.71603 0,-0.57599 -0.21352,-1.55787 -0.47432,-2.18196 -0.55801,-1.33552 -0.26495,-2.86903 0.87155,-4.55858 2.06878,-3.07597 2.82764,-4.62666 3.24071,-6.6224 0.38549,-1.86215 0.85721,-3.32393 1.76585,-5.47135 0.23638,-0.55903 -0.48263,-0.9122 -3.0779,-1.51187 -3.34627,-0.77313 -4.16135,-3.04327 -2.23575,-6.22675 0.56139,-0.92814 1.79084,-2.73426 2.73205,-4.01359 2.27254,-3.0889 3.84959,-6.03455 5.14746,-9.61439 0.58752,-1.62049 1.56271,-3.94749 2.16717,-5.17111 1.29729,-2.62637 1.55622,-4.36574 1.04024,-6.98848 -0.61018,-3.10133 -3.2948,-7.3793299 -4.6309,-7.3793299 -0.55344,0 -1.12917,1.07604 -2.0641,3.8578299 -0.28314,0.84246 -1.05858,2.42682 -1.72314,3.52079 -0.66463,1.09396 -1.21085,2.07943 -1.21381,2.18993 -0.003,0.1105 -0.77097,1.17785 -1.70662,2.3719 -0.93571,1.19404 -2.28283,2.93859 -2.99363,3.87677 -0.71086,0.93818 -3.67618,4.07865 -6.58967,6.97883 -2.91348,2.90018 -6.09707,6.27536 -7.07463,7.5004 -2.02882,2.54243 -6.03337,6.02967 -8.76742,7.63485 -3.05407,1.79307 -4.12169,2.92001 -4.61194,4.86823 -0.72535,2.88247 -0.91957,8.81175 -0.37084,11.32018 0.86938,3.974 0.49604,13.28392 -0.63615,15.86409 -0.23586,0.53751 -0.42886,1.1257 -0.42886,1.30709 0,0.18137 -0.34891,0.95476 -0.77535,1.71859 -0.42642,0.76384 -0.77536,1.60807 -0.77536,1.87607 0,0.26802 -0.13279,0.72961 -0.29514,1.02581 -0.1623,0.29618 -0.5368,1.09679 -0.83219,1.77911 -0.68322,1.57815 -2.10424,3.69507 -3.51153,5.2312 -1.05915,1.1561 -2.15607,2.08035 -11.64359,9.81073 -7.29035,5.940143 -9.74469,8.354693 -10.8761,10.699813 -0.63771,1.32181 -0.74805,2.00852 -0.7475,4.65212 3.1e-4,1.84784 0.19394,3.79089 0.47884,4.8072 0.26299,0.93818 0.59346,3.53638 0.73436,5.77378 0.22578,3.58555 0.35426,4.23534 1.08301,5.47888 1.13243,1.93234 1.46378,3.06652 1.74131,5.96019 0.13087,1.36463 0.48097,4.1559 0.77792,6.20283 0.29695,2.04694 0.53943,4.11283 0.5388,4.59089 -0.001,1.0505 -0.61339,2.27089 -1.29516,2.58266 -0.27451,0.12551 -2.83297,0.3074 -5.68544,0.40413 -6.68143,0.22657 -6.50734,0.0793 -7.25871,6.13876 -0.19632,1.58332 -0.161,1.68044 1.52415,4.18705 1.74525,2.59604 2.64206,4.90614 3.29099,8.47723 0.89039,4.89984 0.0594,6.95773 -3.74463,9.2736 -2.68687,1.63574 -4.00779,1.65835 -5.36199,0.0917 -0.54518,-0.63066 -1.17154,-1.744 -1.39193,-2.47408 -0.71526,-2.36941 -1.89988,-5.02376 -2.75015,-6.16217 -0.45723,-0.61219 -2.02432,-2.70565 -3.48239,-4.65213 -2.82191,-3.76713 -3.98273,-5.87626 -4.33755,-7.88104 -0.12073,-0.68231 -0.50632,-2.35707 -0.85674,-3.72169 -1.16029,-4.5181 -1.61561,-6.80799 -1.61479,-8.12103 4.4e-4,-0.71385 -0.15944,-1.69079 -0.35525,-2.17099 -0.19586,-0.48019 -0.44008,-1.9198 -0.54274,-3.19914 -0.10438,-1.30011 -0.32351,-2.29467 -0.49682,-2.25489 -0.17056,0.039 -0.39593,0.94631 -0.50082,2.01592 -0.10489,1.06961 -0.35441,2.85191 -0.55452,3.96067 -0.20012,1.10876 -0.60276,3.34178 -0.8948,4.96226 -0.32948,1.8283 -0.53097,4.53516 -0.53097,7.13326 0,4.69852 0.0499,4.85492 2.91465,9.14433 0.79925,1.19671 1.77731,2.93655 2.17347,3.86631 1.72682,4.05277 3.97192,6.7272 11.53184,13.73703 2.63496,2.44324 3.99792,3.3868 10.81437,7.48666 1.001,0.60206 1.90866,1.53614 2.77888,2.85974 0.71078,1.0811 1.4629,2.14416 1.67138,2.36238 0.20848,0.2182 0.85497,1.02478 1.43664,1.79238 0.58168,0.7676 1.48057,1.8505 1.99753,2.40645 0.79536,0.85533 1.00523,0.94553 1.36437,0.58638 0.23342,-0.23342 0.53488,-0.91416 0.66988,-1.51274 z m 48.40112,-11.2643 c 1.88601,-0.55046 10.41969,-1.14658 17.10809,-1.19509 2.33046,-0.0171 4.31986,-0.11278 4.42091,-0.21305 0.32833,-0.32569 -0.48783,-2.14783 -1.11115,-2.48146 -0.33353,-0.17856 -1.78294,-0.44601 -3.22071,-0.59433 -1.52282,-0.1571 -3.01285,-0.5044 -3.56915,-0.83187 -1.30213,-0.76648 -2.15274,-2.24415 -2.15274,-3.73973 0,-2.04236 -0.18599,-2.09483 -7.41671,-2.09483 -3.51154,0 -12.17648,-0.17549 -19.25546,-0.39 -10.31005,-0.31244 -13.66409,-0.52159 -16.85763,-1.0513 -4.35892,-0.72302 -4.79942,-0.62248 -4.16356,0.95022 0.17819,0.44071 0.48351,1.55842 0.67856,2.48386 0.3432,1.62851 0.39925,1.6965 1.74219,2.11432 5.32492,1.6567 7.60482,2.50192 9.91647,3.67631 1.44991,0.7366 3.23218,1.47059 3.96059,1.63111 0.7284,0.16053 1.66332,0.51391 2.07758,0.78536 0.41427,0.27145 1.70241,0.77474 2.86254,1.11846 1.87483,0.55547 2.72992,0.60854 7.69187,0.47739 3.82045,-0.10094 6.12096,-0.3047 7.28831,-0.64539 z"
       id="path1059" /><path
       style="fill:#ffffff;fill-rule:evenodd;stroke-width:0.310142"
       d="m 200.15135,90.569657 c -1.60431,-0.67456 -1.68197,-1.5113 -0.39779,-4.28577 1.1885,-2.56777 1.23162,-4.32581 0.14536,-5.92651 -0.43177,-0.63628 -1.19939,-1.97763 -1.70578,-2.98078 -0.82922,-1.64269 -0.92071,-2.11818 -0.92071,-4.78527 0,-2.58134 0.0943,-3.1108 0.73519,-4.12596 1.8186,-2.88086 6.38086,-6.37779 11.98061,-9.18304 3.658,-1.83252 4.80665,-3.012 5.09428,-5.23107 0.11565,-0.892 0.35484,-2.18007 0.53163,-2.86238 0.67335,-2.59896 1.28295,-4.72714 1.95444,-6.82311 0.72628,-2.26704 1.25222,-4.41197 1.59697,-6.51297 0.29291,-1.78494 1.18327,-2.63849 2.73966,-2.62634 2.39437,0.0187 2.59296,0.4592 3.42103,7.5886 0.23773,2.04694 0.59626,4.34974 0.79669,5.11734 0.63897,2.4472 0.71011,6.75916 0.14837,8.9941 -1.73602,6.90701 -3.62865,11.28037 -5.97647,13.81002 -1.91711,2.06558 -5.05489,6.72089 -5.5747,8.2708 -0.32584,0.97161 -0.97538,2.3191 -1.44339,2.99443 -0.86835,1.25303 -3.46541,3.18476 -4.84731,3.60549 -1.69396,0.51573 -3.15362,1.60022 -4.2013,3.12139 -1.29863,1.88555 -2.58708,2.4674 -4.07678,1.84103 z m 7.63661,-9.36197 c 1.5184,-1.14451 1.79541,-1.54494 2.34323,-3.38723 0.3861,-1.29842 2.75311,-5.07637 3.56939,-5.69703 0.25944,-0.19726 4.35239,-5.7705 5.05975,-6.88973 0.2927,-0.4631 0.53214,-1.12128 0.53214,-1.46265 0,-0.55765 0.54345,-2.05005 1.27452,-3.50005 0.26667,-0.52893 0.68492,-2.05574 1.21354,-4.42999 0.37883,-1.70146 0.36959,-4.28208 -0.0187,-5.30405 -0.32054,-0.84309 -0.32449,-0.84409 -0.77771,-0.197 -0.25057,0.35769 -0.74319,2.08524 -1.09476,3.83896 -0.47266,2.35788 -0.87103,3.50381 -1.52899,4.3985 -1.11971,1.52256 -1.44403,1.74505 -5.79261,3.97383 -3.25078,1.66613 -5.92357,3.29118 -6.79269,4.12996 -0.18516,0.17866 -0.92887,0.80561 -1.65271,1.39317 -1.60665,1.30414 -2.5077,2.98371 -2.5077,4.67437 0,1.25165 1.17183,4.04892 2.44552,5.83763 0.32547,0.45708 0.75113,1.42293 0.94592,2.14632 0.43068,1.59946 1.13156,1.71911 2.78211,0.475 z"
       id="path1061" /></g></svg>
