<?xml version="1.0" encoding="UTF-8" standalone="no"?>
<!-- Created with Inkscape (http://www.inkscape.org/) -->

<svg
   width="75"
   height="100"
   viewBox="0 0 75 100"
   version="1.1"
   id="svg5"
   inkscape:version="1.2.1 (9c6d41e410, 2022-07-14)"
   sodipodi:docname="weapon_woodcutteraxe.svg"
   xml:space="preserve"
   xmlns:inkscape="http://www.inkscape.org/namespaces/inkscape"
   xmlns:sodipodi="http://sodipodi.sourceforge.net/DTD/sodipodi-0.dtd"
   xmlns="http://www.w3.org/2000/svg"
   xmlns:svg="http://www.w3.org/2000/svg"><sodipodi:namedview
     id="namedview7"
     pagecolor="#ffffff"
     bordercolor="#999999"
     borderopacity="1"
     inkscape:pageshadow="0"
     inkscape:pageopacity="0"
     inkscape:pagecheckerboard="0"
     inkscape:document-units="px"
     showgrid="false"
     height="70mm"
     units="px"
     inkscape:zoom="11.844781"
     inkscape:cx="58.295715"
     inkscape:cy="69.313226"
     inkscape:window-width="3840"
     inkscape:window-height="2066"
     inkscape:window-x="-11"
     inkscape:window-y="-11"
     inkscape:window-maximized="1"
     inkscape:current-layer="layer1"
     inkscape:showpageshadow="2"
     inkscape:deskcolor="#d1d1d1" /><defs
     id="defs2" /><g
     inkscape:label="Layer 1"
     inkscape:groupmode="layer"
     id="layer1"><path
       style="fill:#ffffff;fill-rule:evenodd;stroke-width:0.238791"
       d="m 61.228233,97.296502 c -0.0876,-0.08755 -0.15919,-0.434126 -0.15919,-0.770158 0,-0.336029 -0.28258,-1.365815 -0.62796,-2.288413 -1.5252,-4.074254 -2.33689,-6.072388 -3.0095,-7.408433 -0.3967,-0.78801 -0.91113,-1.970026 -1.14316,-2.626701 -0.23203,-0.656675 -1.03644,-2.483426 -1.78758,-4.059447 -3.04028,-6.37907 -3.41922,-7.211369 -3.80512,-8.357685 -0.22107,-0.656675 -1.09373,-2.580113 -1.93925,-4.274306 -0.84552,-1.694191 -1.53731,-3.258129 -1.53731,-3.475417 0,-0.493583 -1.19389,-2.398144 -2.43562,-3.885447 -0.75535,-0.904734 -0.98148,-1.407222 -1.14094,-2.535354 -0.12285,-0.869127 -0.53764,-2.035249 -1.08505,-3.050474 -0.4874,-0.903919 -1.29588,-2.395682 -1.79663,-3.315027 -0.50074,-0.919346 -1.71353,-3.552017 -2.69509,-5.85038 -0.98155,-2.298363 -2.36746,-5.414586 -3.07979,-6.924939 -0.71234,-1.510353 -1.59444,-3.659472 -1.96024,-4.77582 -0.3658,-1.116348 -0.74623,-2.137179 -0.84542,-2.268514 -0.0992,-0.131335 -0.40825,-0.857267 -0.68682,-1.613179 -0.27857,-0.755914 -0.93201,-2.048151 -1.45209,-2.871636 -0.52007,-0.823487 -1.677673,-2.942961 -2.572437,-4.709942 -1.913299,-3.778389 -2.140004,-3.949696 -4.269197,-3.225961 -3.09488,1.051982 -3.753152,3.860014 -1.808821,7.716005 l 0.938961,1.862147 -0.318165,1.779468 c -0.174991,0.978709 -0.323818,2.350678 -0.330727,3.048822 -0.01407,1.422093 -0.323476,2.193118 -0.880072,2.193118 -0.640281,0 -6.399502,-4.930714 -8.735919,-7.479192 -3.0172898,-3.29115 -3.5214368,-4.104155 -4.8389398,-7.803431 -0.757203,-2.126069 -1.222848,-4.43791 -1.827672,-9.074058 -0.589286,-4.5170402 -0.625736,-5.5840678 -0.207953,-6.0874662 0.430821,-0.5191068 0.904841,-0.4458495 1.757877,0.2716709 0.719742,0.6054015 0.990969,0.9490693 2.077803,2.6327569 0.268763,0.416357 0.794249,0.863543 1.1677478,0.993745 0.373499,0.130202 1.23965,0.62233 1.92478,1.0936174 1.36036,0.935762 1.828698,1.001824 4.281278,0.603894 2.006505,-0.325554 3.744784,-1.5265274 3.973412,-2.7452208 0.133246,-0.7102609 0.05423,-0.9134503 -0.588854,-1.5141773 -0.848048,-0.7921958 -0.917277,-1.1972359 -0.324867,-1.900697 0.532977,-0.6328855 3.128788,-2.1833907 3.65537,-2.1833907 0.220049,0 0.95346,-0.2299711 1.629804,-0.5110468 1.206808,-0.501527 1.238992,-0.5026509 1.727743,-0.060338 0.410029,0.3710711 0.473336,0.630852 0.358287,1.4702282 -0.114574,0.8359098 -0.04862,1.110641 0.366225,1.5254851 0.48996,0.4899602 0.642798,0.5012797 4.831496,0.3578338 2.37905,-0.081472 5.00737,-0.2612311 5.84072,-0.3994634 1.82393,-0.3025475 2.42487,-0.1573723 2.42487,0.5858042 0,0.375709 -0.30079,0.7466329 -0.95516,1.1778634 -0.52534,0.3461994 -1.35813,0.8958196 -1.85063,1.2213784 -0.49251,0.3255595 -1.83347,1.4888575 -2.97992,2.5851069 -2.42152,2.315492 -3.32397,3.884116 -2.74862,4.777611 0.18502,0.287341 0.67705,1.469649 1.09339,2.627352 0.87144,2.423213 1.56783,4.086072 2.06859,4.939421 0.19267,0.328337 0.58753,1.134257 0.87747,1.790932 0.44085,0.998469 3.73054,7.535215 5.04732,10.029222 0.20803,0.394005 0.86614,1.790932 1.46247,3.104283 0.59633,1.31335 1.24191,2.65655 1.43461,2.984887 0.92345,1.573425 3.71421,7.299488 3.71421,7.620798 0,0.200121 0.65118,1.681592 1.44706,3.292158 0.79588,1.610567 1.50861,3.333203 1.58384,3.828078 0.1311,0.862372 1.23448,3.108861 3.2322,6.580765 0.51317,0.891848 1.12888,2.190795 1.36825,2.886546 0.23938,0.695753 0.55264,1.470441 0.69614,1.721532 0.51087,0.893895 6.23876,12.990961 6.23876,13.175996 0,0.103628 0.31001,0.785928 0.68891,1.516225 0.3789,0.730294 0.76741,1.694434 0.86334,2.142533 0.0959,0.448101 0.25991,0.922182 0.36437,1.053517 0.10446,0.131335 0.38123,0.722343 0.61503,1.31335 0.23381,0.591008 0.7593,1.558112 1.16777,2.149119 1.0676,1.544684 2.74794,4.996499 2.74794,5.644907 0,0.343124 -0.24897,0.709935 -0.65668,0.967512 -0.36117,0.228172 -1.06651,0.757261 -1.56742,1.175752 -0.50092,0.418488 -1.30312,0.834498 -1.78268,0.924465 -0.47957,0.08997 -1.16581,0.315546 -1.525,0.501289 -0.69707,0.360467 -1.45097,0.439101 -1.71155,0.17852 z m 2.64306,-1.633399 c 0.68755,-0.213594 1.69169,-0.757285 2.23141,-1.208206 0.53971,-0.450921 1.06853,-0.819856 1.17514,-0.819856 0.43584,0 -0.83969,-2.723967 -2.40405,-5.134006 -0.25575,-0.394005 -0.80262,-1.441701 -1.21527,-2.328212 -0.42403,-0.910978 -0.90181,-1.61184 -1.09878,-1.61184 -0.25252,0 -0.30725,0.164446 -0.19869,0.596978 0.18137,0.722648 0.0445,0.743738 -0.75352,0.116052 -0.81374,-0.640089 -0.98793,-0.398881 -0.34244,0.474194 0.69566,0.94093 0.66145,1.041523 -0.29333,0.862405 -0.56037,-0.105127 -0.84561,-0.05765 -0.91633,0.152519 -0.0808,0.240183 -0.19109,0.232162 -0.5179,-0.03767 -0.3528,-0.291294 -0.44601,-0.293009 -0.62005,-0.01139 -0.11266,0.182286 -0.16978,0.390287 -0.12693,0.462226 0.33031,0.554501 3.23365,8.364705 3.23365,8.698752 0,0.248701 0.12444,0.374377 0.29849,0.301464 0.16417,-0.06877 0.86104,-0.299802 1.5486,-0.513396 z m -4.1156,-12.817382 c 1.62494,-0.535431 2.02972,-0.746785 2.02972,-1.059804 0,-0.49686 -0.29254,-0.417505 -2.5038,0.679164 -2.01667,1.000167 -2.85711,1.739812 -1.13776,1.001316 0.4925,-0.211543 1.21783,-0.490847 1.61184,-0.620676 z m -0.53805,-0.952491 c 1.82754,-0.868493 2.07742,-1.059839 1.94899,-1.492444 C 60.873353,79.412917 60.344863,78.83 59.742513,78.83 c -0.32953,0 -0.97588,-0.157412 -1.43634,-0.349803 -0.79978,-0.334169 -0.84648,-0.326165 -1.04489,0.179093 -0.11424,0.290893 -0.42279,1.002328 -0.68567,1.580969 -0.44785,0.985767 -0.45397,1.102397 -0.0972,1.85063 0.20944,0.439206 0.43977,0.798557 0.51184,0.798557 0.0721,0 1.07438,-0.448299 2.22735,-0.996216 z m -2.52372,-3.091823 c 0.26416,-0.620599 0.23078,-0.690694 -0.54762,-1.149958 -0.4559,-0.268991 -1.09486,-0.555824 -1.41991,-0.637405 -0.54664,-0.137197 -0.57418,-0.104132 -0.36705,0.440663 0.12316,0.323944 0.44749,1.006093 0.72072,1.515885 0.27323,0.509791 0.50242,1.089671 0.50931,1.288617 0.0148,0.427488 0.67034,-0.437699 1.10455,-1.457802 z m 2.8465,-2.138316 c -0.43036,-0.929129 -0.88036,-1.689373 -0.99998,-1.68943 -0.24064,-1.17e-4 -0.76735,1.540954 -0.79613,2.329351 -0.0188,0.514452 0.89691,0.970929 2.05619,1.025027 0.51112,0.02386 0.5055,-0.01211 -0.26008,-1.664948 z m -2.07162,-0.478129 c 0.14299,-0.66676 0.37271,-1.422918 0.51048,-1.680349 0.19763,-0.369278 0.0959,-0.795248 -0.48203,-2.01845 -0.75324,-1.594238 -1.04784,-1.828513 -2.68574,-2.135787 -0.80786,-0.151553 -0.82459,-0.13687 -1.61262,1.415677 l -0.79629,1.568819 0.62009,1.37056 c 0.55037,1.216451 0.73553,1.408487 1.64682,1.707881 0.5647,0.185526 1.23869,0.482809 1.49775,0.660629 0.78796,0.540869 1.0304,0.375277 1.30154,-0.88898 z m -4.39121,-5.336888 c 0.3892,-0.931495 0.34705,-0.983112 -1.06102,-1.299486 -0.74775,-0.168009 -0.98417,-0.155038 -0.90706,0.04976 0.0574,0.152347 0.28709,0.908734 0.51051,1.68086 0.38829,1.341912 0.42179,1.381642 0.75896,0.900263 0.194,-0.276981 0.50838,-0.87611 0.69861,-1.331393 z m 2.61732,-2.288867 c -0.3759,-0.786482 -0.74887,-1.429966 -0.82882,-1.429966 -0.13929,0 -0.72199,1.91865 -0.72199,2.377283 0,0.215502 1.9281,0.725295 2.132,0.563705 0.0563,-0.04458 -0.20529,-0.72454 -0.58119,-1.511022 z m -1.80218,-0.189323 c 0.49973,-1.855852 0.52747,-2.377496 0.18132,-3.410656 -0.39088,-1.166695 -1.0283,-1.522811 -3.01473,-1.684279 l -1.05506,-0.08576 -0.46876,1.313351 -0.46877,1.31335 0.68806,1.432746 c 0.65885,1.371945 0.73871,1.44444 1.882,1.708311 1.9011,0.438774 1.98564,0.416774 2.25594,-0.587063 z m -4.69228,-4.504845 0.38741,-0.995689 -1.03667,-0.353227 -1.03666,-0.353229 0.60799,1.409106 c 0.3344,0.775008 0.62657,1.38202 0.64926,1.348916 0.0227,-0.0331 0.21559,-0.50825 0.42867,-1.055877 z m 3.74969,-1.01255 c 0,-0.119519 -0.34065,-0.810397 -0.75701,-1.535285 l -0.757,-1.317978 -0.56396,1.217242 c -0.31018,0.669484 -0.47994,1.299452 -0.37725,1.399931 0.10269,0.100478 0.61653,0.225533 1.14187,0.2779 0.52534,0.05237 1.03576,0.113275 1.13426,0.135354 0.0985,0.02206 0.17909,-0.05765 0.17909,-0.177164 z M 50.227703,61.5913 c 0.85697,-1.657185 0.87837,-2.123895 0.16442,-3.585692 -0.36611,-0.749608 -0.80916,-1.36748 -0.98455,-1.373049 -0.17539,-0.0056 -1.08232,0.365974 -2.01539,0.825646 -0.93308,0.459673 -1.84003,0.835769 -2.01545,0.835769 -0.24918,0 -0.23117,0.169766 0.0824,0.776071 0.77391,1.496603 1.41215,2.162075 2.59584,2.70661 1.57087,0.722646 1.70934,0.710833 2.17277,-0.185355 z m -3.07431,-4.610677 c 0.93307,-0.459672 1.86686,-0.835768 2.07509,-0.835768 0.21939,0 0.37859,-0.200819 0.37859,-0.477582 0,-0.589487 -0.1175,-0.594031 -0.9183,-0.03551 -0.34861,0.243141 -1.17112,0.630604 -1.8278,0.861028 -1.62417,0.569912 -2.26851,0.889501 -2.26851,1.125159 0,0.402764 0.90875,0.176607 2.56093,-0.637329 z m -2.79972,-2.839943 c 0,-0.182952 0.16118,-0.39449 0.35818,-0.470089 0.2048,-0.07859 0.35819,-0.434912 0.35819,-0.832077 0,-0.785262 0.62892,-1.515647 0.82586,-0.959092 0.48027,1.357286 0.6245,1.638732 0.83977,1.638732 0.13458,0 0.2447,-0.107456 0.2447,-0.238791 0,-0.131335 0.14802,-0.238791 0.32895,-0.238791 0.80836,0 0.81077,-0.598384 0.01,-2.38791 -0.44098,-0.985013 -0.80502,-1.916343 -0.80897,-2.069625 -0.007,-0.258931 -0.80125,-1.889797 -4.69243,-9.631134 -0.82519,-1.641688 -1.50551,-3.121342 -1.51183,-3.288121 -0.006,-0.166778 -0.28012,-0.728775 -0.60845,-1.248884 -0.6346,-1.005267 -2.33071,-4.35272 -5.10062,-10.06661 -1.60815,-3.317344 -2.78275,-6.116495 -3.06556,-7.305459 -0.12627,-0.530836 -0.54971,-0.760761 -0.54971,-0.298488 0,0.131335 -0.15113,0.238791 -0.33583,0.238791 -0.21827,0 -0.29211,0.167186 -0.21094,0.477582 0.0879,0.336104 0.007,0.477582 -0.27197,0.477582 -0.32422,0 -0.36816,0.152967 -0.24007,0.835768 0.18061,0.962724 -0.0403,1.047539 -0.922023,0.353984 -0.375181,-0.295118 -0.670676,-0.387637 -0.762667,-0.238791 -0.0826,0.133646 -0.35875,0.242994 -0.613669,0.242994 -0.254919,0 -0.463489,0.05568 -0.463489,0.123734 0,0.2739 2.504558,5.091158 3.496718,6.725584 1.16454,1.918397 2.13023,4.073655 3.29717,7.358746 0.83964,2.363716 1.98424,5.119103 2.28149,5.492193 0.21946,0.275462 3.29111,7.240047 4.05467,9.193453 0.28235,0.722343 0.73514,1.689446 1.00619,2.149119 0.27106,0.459673 0.87001,1.534232 1.33101,2.38791 0.79583,1.473715 1.1403,1.898376 1.54661,1.906672 0.0985,0.0019 0.17909,-0.146033 0.17909,-0.328982 z M 20.713361,33.087824 c 0,-0.598544 0.122621,-1.830758 0.272491,-2.738254 l 0.272491,-1.649993 -0.883528,-1.681356 c -2.043241,-3.888295 -1.07994,-7.696184 2.256858,-8.921268 0.595398,-0.218596 1.508774,-0.401223 2.029723,-0.405837 1.581639,-0.01401 3.983988,-0.6254 4.268644,-1.08636 0.663723,-1.074797 1.609393,-2.722738 2.255603,-3.930641 0.77382,-1.446457 4.27073,-4.8432149 6.36248,-6.1802788 0.82088,-0.5247115 1.00742,-0.7235028 0.59698,-0.6361937 -1.39579,0.296914 -7.10563,0.651137 -8.23048,0.5105966 -0.673104,-0.084099 -2.379555,-0.1977407 -3.792115,-0.252538 l -2.568291,-0.099631 -1.081902,1.1255948 c -0.595046,0.6190772 -1.21837,1.4499687 -1.385163,1.8464257 -0.60683,1.4423984 -2.569645,2.5341044 -5.388402,2.9969954 -1.665538,0.273512 -1.741339,0.310905 -1.082621,0.534067 1.643082,0.556647 5.638659,-0.973351 7.148581,-2.7373564 0.426941,-0.498784 1.066821,-1.500291 1.421955,-2.2255704 0.355135,-0.7252794 0.776707,-1.3174909 0.936828,-1.3160252 0.160121,0.00147 1.31196,0.3226343 2.559643,0.7137081 2.472972,0.7751282 5.638397,0.9735337 7.146187,0.4479155 1.33868,-0.4666659 1.38612,0.095644 0.0942,1.116356 -1.44985,1.145475 -4.04619,4.5895694 -4.761219,6.3158324 l -0.543995,1.31335 -1.781527,0.03297 c -2.612946,0.04835 -4.727777,0.817176 -6.144285,2.233685 -1.140126,1.140126 -1.157639,1.183858 -1.79707,4.487364 -0.141819,0.732682 -0.388614,0.557211 -2.438816,-1.733998 -2.567716,-2.869558 -3.994527,-6.267512 -3.464916,-8.251703 0.139046,-0.520937 0.172341,-0.947158 0.07399,-0.947158 -0.09835,0 -0.739381,-0.385598 -1.424512,-0.856885 C 10.956047,10.640349 10.086912,10.147181 9.7097672,10.015708 9.2924722,9.8702376 8.6122622,9.2008116 7.9720992,8.3055886 7.3935072,7.4964974 6.6924732,6.6298114 6.4142252,6.3796196 c -0.502369,-0.4517145 -0.505905,-0.45052 -0.505905,0.1708831 0,0.3441774 0.153523,1.7846229 0.341163,3.2009909 0.187639,1.4163674 0.411748,3.2199494 0.49802,4.0079594 0.360369,3.291625 1.515534,7.159648 2.851785,9.549088 1.0731348,1.918945 4.3145978,5.540727 6.9644488,7.781582 2.52692,2.136897 3.730619,3.070417 3.970531,3.079317 0.0985,0.0037 0.179093,-0.483074 0.179093,-1.081616 z M 18.564242,22.041083 c 0,-0.238832 0.169267,-1.004224 0.376149,-1.700869 0.801994,-2.70061 3.765838,-4.535147 7.609044,-4.709789 0.911477,-0.04142 1.73128,-0.156964 1.821784,-0.256767 0.0905,-0.0998 0.284515,-0.557555 0.431132,-1.017227 0.286148,-0.897109 2.403292,-3.858729 3.786562,-5.2969304 l 0.84571,-0.879295 -2.36088,0.01403 c -2.01035,0.01195 -2.69548,-0.09481 -4.614421,-0.7189975 -2.298532,-0.7476615 -2.641678,-0.7653208 -2.641678,-0.1359466 0,0.5577102 -1.827372,3.1101215 -2.687737,3.7541395 -2.23827,1.675436 -5.285033,2.475934 -6.976273,1.832926 -0.500619,-0.190335 -0.650472,-0.159426 -0.77282,0.159408 -0.234792,0.611858 0.305317,2.781 1.103831,4.433116 0.650288,1.34544 3.455817,4.898514 3.900504,4.939812 0.0985,0.0091 0.179093,-0.178776 0.179093,-0.417609 z M 21.3023,5.2823721 c 0.173321,0 0.376981,-0.1611839 0.452578,-0.3581865 0.0756,-0.1970026 0.344237,-0.3581865 0.596978,-0.3581865 0.25274,0 0.526059,-0.1733751 0.607373,-0.3852783 0.09942,-0.2590896 0.318798,-0.340573 0.669798,-0.2487846 0.287073,0.075072 0.663879,0.018704 0.837346,-0.1252597 0.235321,-0.1952995 0.435505,-0.1530541 0.788496,0.1663986 0.456866,0.4134583 0.473103,0.4114952 0.473103,-0.057201 0,-0.7182346 -0.575417,-1.1136528 -1.162992,-0.7991919 -0.262432,0.1404489 -0.674705,0.2553616 -0.916164,0.2553616 -0.603781,0 -3.413037,1.6904189 -3.413037,2.0537335 0,0.4144497 0.580606,0.56786 0.674184,0.1781359 0.04246,-0.1768477 0.219016,-0.3215414 0.392337,-0.3215411 z"
       id="path249" /><path
       style="fill:#ffffff;fill-rule:evenodd;stroke-width:0.0422127"
       d="m 48.458783,59.985358 c -0.24454,-0.122542 -0.31793,-0.265985 -0.26929,-0.526357 0.047,-0.251846 0.13427,-0.3941 0.26114,-0.425943 0.10284,-0.02581 0.38705,0.07568 0.5047,0.18023 0.10041,0.08922 0.13733,0.325273 0.0805,0.514859 -0.0894,0.298413 -0.30399,0.394055 -0.57707,0.257211 z"
       id="path251" /><path
       style="fill:#ffffff;fill-rule:evenodd;stroke-width:0.0422127"
       d="m 51.536553,66.720839 c -0.19435,-0.0861 -0.26925,-0.21969 -0.26925,-0.4802 0,-0.284172 0.046,-0.369632 0.23215,-0.431059 0.12215,-0.04031 0.18136,-0.03637 0.33495,0.02229 0.10262,0.03919 0.22863,0.116014 0.28003,0.17072 0.0795,0.08464 0.0894,0.129034 0.0663,0.297814 -0.015,0.109092 -0.0613,0.256986 -0.10301,0.328654 -0.0622,0.106819 -0.10588,0.132094 -0.24259,0.140235 -0.0917,0.0055 -0.22606,-0.01634 -0.29854,-0.04845 z"
       id="path253" /><path
       style="fill:#ffffff;fill-rule:evenodd;stroke-width:0.0422127"
       d="m 55.068103,74.194304 c -0.19497,-0.104283 -0.33936,-0.309117 -0.33936,-0.481428 0,-0.151506 0.14738,-0.398507 0.3169,-0.531101 0.3887,-0.304033 0.94147,-0.07779 0.77744,0.3182 -0.0315,0.07597 -0.0516,0.192092 -0.0446,0.258038 0.021,0.200473 -0.27071,0.53631 -0.46589,0.53631 -0.0316,0 -0.1416,-0.04501 -0.24445,-0.100019 z"
       id="path255" /><path
       style="fill:#ffffff;fill-rule:evenodd;stroke-width:0.0422127"
       d="m 58.295713,80.957085 c -0.15191,-0.08365 -0.36455,-0.306545 -0.44925,-0.470926 -0.07,-0.135889 -0.0756,-0.183666 -0.0357,-0.304558 0.0653,-0.197968 0.26291,-0.399629 0.39154,-0.399629 0.17413,0 0.52712,0.132128 0.62156,0.23266 0.11831,0.125933 0.12176,0.450666 0.007,0.708901 -0.11743,0.265482 -0.31847,0.353137 -0.53564,0.233552 z"
       id="path257" /></g></svg>
