<?xml version="1.0" encoding="UTF-8" standalone="no"?>
<!-- Created with Inkscape (http://www.inkscape.org/) -->

<svg
   width="512"
   height="512"
   viewBox="0 0 135.46666 135.46667"
   version="1.1"
   id="svg799"
   inkscape:version="1.2.1 (9c6d41e410, 2022-07-14)"
   sodipodi:docname="frame1.svg"
   inkscape:export-filename="round.png"
   inkscape:export-xdpi="96"
   inkscape:export-ydpi="96"
   xmlns:inkscape="http://www.inkscape.org/namespaces/inkscape"
   xmlns:sodipodi="http://sodipodi.sourceforge.net/DTD/sodipodi-0.dtd"
   xmlns="http://www.w3.org/2000/svg"
   xmlns:svg="http://www.w3.org/2000/svg">
  <sodipodi:namedview
     id="namedview801"
     pagecolor="#6a6a6a"
     bordercolor="#000000"
     borderopacity="0.68627451"
     inkscape:showpageshadow="2"
     inkscape:pageopacity="0"
     inkscape:pagecheckerboard="true"
     inkscape:deskcolor="#d1d1d1"
     inkscape:document-units="mm"
     showgrid="false"
     inkscape:zoom="1.8761364"
     inkscape:cx="179.09146"
     inkscape:cy="280.62992"
     inkscape:window-width="2560"
     inkscape:window-height="1351"
     inkscape:window-x="2391"
     inkscape:window-y="-9"
     inkscape:window-maximized="1"
     inkscape:current-layer="layer2" />
  <defs
     id="defs796">
    <filter
       style="color-interpolation-filters:sRGB"
       inkscape:label="Blur"
       id="filter2353"
       x="-0.060000173"
       y="-0.060000172"
       width="1.1200003"
       height="1.1200003">
      <feGaussianBlur
         stdDeviation="2 2"
         result="blur"
         id="feGaussianBlur2351" />
    </filter>
  </defs>
  <g
     inkscape:groupmode="layer"
     id="layer2"
     inkscape:label="Highlight">
    <path
       id="path610-5-8-8-2"
       style="display:inline;fill:#ffffff;stroke-width:0.366728;filter:url(#filter2353)"
       inkscape:label="Highlight"
       d="M 44.799626,4.8000002 A 40,40 0 0 0 4.8,44.800141 40,40 0 0 0 44.799626,84.799771 40,40 0 0 0 84.799769,44.800141 40,40 0 0 0 44.799626,4.8000002 Z m 0,13.0617348 A 27.00149,26.938592 0 0 1 71.801079,44.800661 27.00149,26.938592 0 0 1 44.799626,71.738551 27.00149,26.938592 0 0 1 17.798173,44.800661 27.00149,26.938592 0 0 1 44.799626,17.861735 Z"
       transform="scale(1.5119088)" />
    <path
       id="path5034"
       style="opacity:1;fill:#ffffff;fill-opacity:1;stroke-width:1.32109;paint-order:fill markers stroke"
       d="M 67.733333,7.8544343e-8 A 67.73333,67.73333 0 0 0 3.6732911e-6,67.733333 67.73333,67.73333 0 0 0 67.733333,135.46667 67.73333,67.73333 0 0 0 135.46667,67.733333 67.73333,67.73333 0 0 0 67.733333,7.8544343e-8 Z M 67.733333,14.816666 A 52.916668,52.916668 0 0 1 120.65,67.733333 52.916668,52.916668 0 0 1 67.733333,120.65 52.916668,52.916668 0 0 1 14.816664,67.733333 52.916668,52.916668 0 0 1 67.733333,14.816666 Z" />
  </g>
</svg>
