<?xml version="1.0" encoding="UTF-8" standalone="no"?>
<svg
   height="87.4px"
   width="127.35px"
   version="1.1"
   id="svg6"
   sodipodi:docname="armor_body.svg"
   xml:space="preserve"
   inkscape:version="1.2.1 (9c6d41e410, 2022-07-14)"
   xmlns:inkscape="http://www.inkscape.org/namespaces/inkscape"
   xmlns:sodipodi="http://sodipodi.sourceforge.net/DTD/sodipodi-0.dtd"
   xmlns="http://www.w3.org/2000/svg"
   xmlns:svg="http://www.w3.org/2000/svg"><defs
     id="defs10" /><sodipodi:namedview
     id="namedview8"
     pagecolor="#ffffff"
     bordercolor="#000000"
     borderopacity="0.25"
     inkscape:showpageshadow="2"
     inkscape:pageopacity="0.0"
     inkscape:pagecheckerboard="0"
     inkscape:deskcolor="#d1d1d1"
     showgrid="false"
     inkscape:zoom="5.8752859"
     inkscape:cx="91.48491"
     inkscape:cy="49.3593"
     inkscape:window-width="3840"
     inkscape:window-height="2066"
     inkscape:window-x="-11"
     inkscape:window-y="-11"
     inkscape:window-maximized="1"
     inkscape:current-layer="svg6" /><path
     style="fill:#ffffff;fill-rule:evenodd;stroke-width:0.170204"
     d="m 64.081988,85.685389 c -0.234031,-0.04048 -0.999951,-0.15677 -1.702045,-0.258414 -5.919625,-0.856997 -21.123363,-6.428976 -25.380407,-9.301599 -3.490342,-2.355261 -5.044692,-5.77075 -6.876093,-15.10937 -1.01074,-5.153942 -1.200511,-6.512201 -2.033484,-14.554386 -0.355946,-3.436599 -0.508389,-3.807315 -2.37261,-5.769782 -2.064271,-2.173061 -5.598094,-5.488319 -6.654446,-6.242873 -0.468063,-0.334338 -1.770127,-1.147178 -2.893477,-1.806312 -1.123349,-0.659134 -2.55945,-1.50377 -3.191334,-1.876971 l -1.14888,-0.678544 v -3.855349 -3.855348 l 3.191334,-3.001318 c 3.815512,-3.588332 4.764004,-4.380901 7.250689,-6.05875 2.233373,-1.506931 2.581648,-1.800621 3.075511,-2.593491 0.415003,-0.666264 0.886085,-2.5806886 1.047054,-4.2551116 0.254383,-2.6461203 0.872896,-4.2372504 2.048302,-5.26927 0.602008,-0.5285706 0.747806,-0.5849858 1.342682,-0.5195445 1.02056,0.11227 1.832725,0.8226332 3.699461,3.2357472 1.260032,1.628835 2.065076,2.4287679 3.790537,3.766477 2.197381,1.703577 1.770047,1.664884 4.347402,0.3936336 3.753988,-1.8516108 4.284944,-2.3557547 4.919124,-4.670724 0.192336,-0.7020935 0.46776,-1.3638331 0.612051,-1.4705324 0.354074,-0.2618266 3.26717,-1.0291136 4.844111,-1.2759019 1.805277,-0.2825224 22.224532,-0.3982228 24.849855,-0.1408053 2.203998,0.2161059 3.807157,0.5172198 5.480349,1.0293483 l 1.140133,0.348971 0.273689,0.9672157 c 0.150529,0.5319687 0.317476,1.1203998 0.370995,1.3076247 0.287132,1.0044933 0.805404,1.6704239 1.806208,2.3208057 0.867701,0.5638829 5.068588,2.7002266 5.309701,2.7002266 0.03785,0 0.819519,-0.5999278 1.737053,-1.3331728 2.003277,-1.6009176 3.356064,-2.9845895 4.975786,-5.0893916 0.665231,-0.8644551 1.433989,-1.6878193 1.708349,-1.8296982 1.180862,-0.610646 2.252422,-0.1185887 3.353662,1.5399865 0.74385,1.1203322 1.01408,2.2185588 1.25372,5.0953335 0.28196,3.3847095 0.17022,3.1783585 2.59612,4.7945945 2.52069,1.679391 5.24217,3.803381 6.80674,5.312338 0.63507,0.612493 1.20951,1.154833 1.27653,1.205196 0.067,0.05037 0.56228,0.574638 1.10055,1.165051 l 0.97867,1.07348 v 4.979807 4.979807 l -0.63826,0.301218 c -2.47715,1.169048 -6.46383,4.040464 -8.80908,6.344767 -1.85591,1.823496 -4.10516,4.373775 -4.45617,5.052557 -0.45295,0.875908 -0.89082,3.591424 -1.07467,6.664702 -0.10915,1.824564 -0.3709,4.03395 -0.67103,5.664111 -0.27064,1.469981 -0.65413,3.66839 -0.8522,4.885352 -1.103362,6.779047 -2.779508,11.963719 -4.528216,14.006692 -1.945548,2.272935 -5.243147,4.018477 -13.266575,7.022489 -8.867958,3.32021 -16.028908,5.110364 -18.637391,4.659128 z m 2.433407,-5.1104 c 0.730531,-0.243288 1.300493,-0.525576 1.266583,-0.627305 -0.03391,-0.101731 -0.612045,-0.560473 -1.284746,-1.01943 l -1.223091,-0.834466 -1.523097,0.90353 c -0.837702,0.496939 -1.501579,0.925044 -1.475283,0.951341 0.05115,0.05115 2.685092,1.035262 2.826874,1.056195 0.04649,0.0069 0.682229,-0.186574 1.41276,-0.429865 z M 58.209697,78.04501 c 0.612624,-0.230591 1.361144,-0.530798 1.66338,-0.667125 2.195074,-0.99012 3.917329,-1.833646 4.51796,-2.212809 0.387978,-0.244919 0.787589,-0.445308 0.888023,-0.445308 0.100436,0 0.887026,0.405548 1.747978,0.901219 1.599207,0.920701 4.132945,2.086385 5.641663,2.595533 0.733499,0.247536 1.00856,0.257401 2.127556,0.07631 4.689913,-0.758988 9.399073,-2.503257 14.597356,-5.406848 l 2.248917,-1.256172 0.443406,-1.47615 c 0.243874,-0.811882 0.566767,-1.877328 0.717543,-2.367658 0.150774,-0.49033 0.2343,-0.931344 0.185612,-0.980032 -0.04869,-0.04869 -1.375459,0.629552 -2.94838,1.507199 l -2.859855,1.595725 -0.65622,1.767172 c -1.021355,2.750457 -0.801536,2.493647 -2.012265,2.35089 -0.577128,-0.06805 -1.090301,-0.164702 -1.140384,-0.214786 -0.05008,-0.05008 0.157281,-0.749056 0.460814,-1.553273 0.303531,-0.804216 0.502949,-1.511136 0.443153,-1.570932 -0.0598,-0.0598 -0.970632,-0.01129 -2.024079,0.107783 -7.32405,0.827888 -11.438497,0.690045 -15.940679,-0.534044 -1.173763,-0.319131 -1.315462,-0.324658 -2.070689,-0.08075 -4.046241,1.306791 -9.113936,1.476598 -16.498149,0.552819 -1.170156,-0.146388 -2.168834,-0.266826 -2.219284,-0.26764 -0.05045,-8.51e-4 0.02282,0.684791 0.162817,1.523565 0.139999,0.838775 0.192341,1.585547 0.116318,1.659494 -0.216141,0.210233 -2.091674,-1.93315 -2.562563,-2.92853 -0.329897,-0.697345 -0.6219,-1.018243 -1.321898,-1.452709 -0.494157,-0.306707 -1.166539,-0.724006 -1.494183,-0.92733 -0.327643,-0.203325 -1.076821,-0.689405 -1.664836,-1.080177 -0.588018,-0.390773 -1.108484,-0.710495 -1.156594,-0.710495 -0.227911,0 0.550722,3.447844 0.965742,4.276382 0.945683,1.887943 8.631661,5.505561 14.706127,6.921844 0.842512,0.196436 1.838208,0.429999 2.212658,0.51903 1.091077,0.259421 1.541033,0.222704 2.723035,-0.222199 z m 1.821149,-9.887479 c 0.777135,-0.239184 2.260028,-0.780138 3.295317,-1.202124 l 1.882342,-0.767246 2.133752,0.861962 c 3.135795,1.26675 4.377363,1.542284 6.949599,1.542284 2.468142,0 4.816225,-0.294997 8.342421,-1.048086 1.357381,-0.289895 2.697741,-0.566755 2.978578,-0.615243 0.280838,-0.04849 1.052213,-0.453091 1.714167,-0.899115 l 1.203554,-0.810953 0.178205,-1.164226 c 0.09801,-0.640326 0.150708,-1.195435 0.117101,-1.233576 -0.0336,-0.03814 -0.73199,0.126706 -1.551962,0.366328 -3.028521,0.885026 -4.557972,1.064656 -9.06496,1.064656 -4.205468,0 -4.472032,-0.02609 -8.084713,-0.791371 -0.468062,-0.09915 -1.387166,-0.342111 -2.042453,-0.539914 -1.857556,-0.560715 -3.978249,-0.480644 -7.063486,0.266699 -4.129113,1.000203 -4.683378,1.06518 -9.020838,1.057542 -4.215422,-0.0074 -6.015634,-0.230859 -8.850633,-1.098504 -0.608481,-0.186224 -1.202069,-0.339175 -1.319085,-0.339889 -0.15362,-0.001 -0.212755,0.400823 -0.212755,1.445437 0,0.795706 0.05744,1.446452 0.127653,1.446102 0.225354,-0.0012 1.128903,-0.620969 1.829698,-1.255197 0.37445,-0.338882 0.734792,-0.61621 0.800759,-0.616283 0.131192,-1.45e-4 0.234523,0.56528 0.387192,2.118702 0.05473,0.556878 0.131541,1.044538 0.170691,1.083688 0.08945,0.08945 3.965453,0.807263 6.555867,1.214115 1.175464,0.184619 2.990691,0.315745 4.544184,0.328255 2.326797,0.01874 2.728866,-0.02288 3.999805,-0.414043 z M 39.470459,62.933108 c -0.05327,-0.585078 -0.123257,-1.151616 -0.155514,-1.258974 -0.06093,-0.202766 -3.494907,-2.151293 -3.602214,-2.043986 -0.123707,0.123707 0.475716,2.586269 0.674906,2.772664 0.234214,0.219165 2.863258,1.58963 3.054643,1.592317 0.06877,0.001 0.08146,-0.476944 0.02818,-1.062021 z m 17.80335,-1.975087 c 1.983796,-0.378089 4.202631,-1.04115 5.556763,-1.660544 1.341332,-0.613538 2.120681,-0.538954 5.336324,0.510683 4.38794,1.432295 5.165789,1.551821 10.042064,1.543091 4.79326,-0.0086 6.936529,-0.277549 8.975499,-1.126374 1.455362,-0.60587 3.463065,-1.87693 4.556015,-2.884376 0.748241,-0.689704 0.765663,-0.72963 0.765663,-1.754699 0,-1.259149 0.48125,-4.89185 0.674578,-5.092043 0.07546,-0.07814 0.509846,0.82054 0.965296,1.99707 0.45545,1.176529 0.900974,2.116124 0.990054,2.087989 0.474961,-0.150011 1.290933,-2.506469 1.612378,-4.656405 0.100655,-0.67322 0.183011,-2.562277 0.183011,-4.197906 v -2.973871 l -1.141802,-0.90823 c -5.177076,-4.118027 -8.743239,-8.528557 -10.001658,-12.369764 -0.163764,-0.499873 -0.353821,-0.844537 -0.42235,-0.76592 -0.06853,0.07862 -0.336135,0.755674 -0.594681,1.504574 -1.224184,3.54596 -2.715934,5.871408 -5.950551,9.276144 -4.547883,4.787071 -6.396139,7.471645 -6.944755,10.087189 -0.603731,2.878304 1.671922,6.541493 4.418527,7.112643 1.195807,0.248665 2.7389,0.01248 3.959491,-0.60604 0.800657,-0.405724 1.736148,-1.487548 2.176867,-2.517379 0.470059,-1.098394 0.06473,-5.566189 -0.504974,-5.566189 -0.21071,0 -3.510727,0.658748 -3.928393,0.784183 -0.244649,0.07347 -1.660464,2.180458 -1.660464,2.471063 0,0.04766 0.727624,0.380725 1.616943,0.740134 0.889318,0.359409 1.617085,0.698916 1.617259,0.754459 3.4e-4,0.119264 -3.340636,-0.02988 -3.456928,-0.154318 -0.263454,-0.281909 -0.803384,-3.119875 -0.699209,-3.675172 0.147054,-0.783862 1.098531,-1.764517 2.32031,-2.391462 0.785652,-0.403151 1.146909,-0.47083 2.856737,-0.535191 2.214946,-0.08338 2.955819,0.06224 4.141074,0.813906 1.081988,0.686176 1.50836,1.625349 1.613239,3.553488 0.09288,1.707594 -0.151855,2.952589 -0.870877,4.430222 -2.22252,4.567407 -8.18433,6.437602 -12.424785,3.897603 -2.515681,-1.506873 -4.434032,-4.402928 -4.810952,-7.262891 -0.251571,-1.908865 1.427097,-6.041076 3.657783,-9.004004 1.382317,-1.836074 3.608121,-4.418961 5.76637,-6.69146 2.010191,-2.116607 2.302672,-2.476947 2.897772,-3.570085 0.536515,-0.985525 1.463871,-3.61795 1.365666,-3.87663 -0.03232,-0.08513 -0.709788,0.162669 -1.505494,0.550654 -4.705451,2.294372 -9.958113,4.629385 -12.689916,5.641162 -1.677651,0.621352 -2.28896,0.774934 -2.773219,0.696728 -0.700103,-0.113065 -5.236632,-1.813011 -7.163381,-2.684291 -0.696218,-0.314832 -3.070571,-1.426399 -5.276339,-2.470149 -2.205767,-1.04375 -4.063307,-1.865449 -4.127867,-1.826001 -0.184999,0.113043 0.353853,1.737475 1.00577,3.032007 0.802169,1.592895 1.974168,3.160192 4.025123,5.382732 5.051002,5.473577 6.106258,6.848151 7.525643,9.802875 0.47589,0.990656 0.921897,3.080788 0.921897,4.320305 0,2.551927 -1.237902,5.230008 -3.256327,7.044745 -1.614794,1.451839 -3.220599,2.033312 -5.594306,2.025738 -2.685337,-0.0086 -4.54045,-0.791218 -6.382668,-2.692771 -2.000795,-2.065236 -2.912521,-4.812927 -2.505948,-7.552238 0.267985,-1.805558 0.588633,-2.332564 1.806552,-2.96918 1.019877,-0.533096 1.083842,-0.543506 3.337565,-0.543175 2.504782,3.4e-4 3.290002,0.212405 4.481798,1.210242 1.266055,1.06001 1.423641,2.027988 0.702033,4.31228 l -0.432915,1.370422 H 52.58578 c -0.791633,0 -1.439332,-0.027 -1.439332,-0.05999 0,-0.033 0.453515,-0.416296 1.007809,-0.851774 1.060141,-0.832896 1.808767,-1.83347 1.660628,-2.219513 -0.139109,-0.362511 -1.414269,-0.899794 -3.315378,-1.396919 -1.202799,-0.314522 -1.808307,-0.403427 -1.928565,-0.283169 -0.423383,0.423384 -0.998789,2.473966 -0.998789,3.559406 0,1.756499 1.114719,3.672479 2.553068,4.388219 2.851075,1.418729 5.511148,0.724171 7.247986,-1.892487 1.240428,-1.868785 1.536689,-3.613655 0.921902,-5.429684 -0.786838,-2.324257 -1.996774,-4.083376 -5.040597,-7.328495 -2.697709,-2.876115 -4.175033,-4.62129 -5.120488,-6.048875 -1.251354,-1.889477 -2.389885,-4.350365 -2.891692,-6.250279 -0.0349,-0.132135 -0.475053,0.595489 -0.978118,1.616942 -1.664922,3.380554 -4.107114,6.407503 -7.662829,9.49761 -0.742139,0.644957 -1.7273,1.444185 -2.189245,1.776059 l -0.839899,0.603409 0.09369,3.670482 c 0.101265,3.967363 0.429911,6.474897 0.92389,7.049223 0.669954,0.778917 1.719002,1.812497 1.839623,1.812497 0.07057,0 0.07677,-0.823364 0.01379,-1.829698 -0.06299,-1.006334 -0.161421,-2.737625 -0.21874,-3.847314 -0.150655,-2.916609 0.25532,-4.91098 1.395833,-6.857121 0.412356,-0.703629 0.483585,-0.756772 0.639918,-0.477422 0.223291,0.398998 0.264225,10.149223 0.05376,12.804229 -0.148675,1.875497 -0.143028,1.930017 0.242426,2.340312 0.217055,0.231046 0.44062,0.420082 0.49681,0.420082 0.05619,0 0.196606,-0.593573 0.312036,-1.319051 0.213756,-1.343477 1.220682,-3.787084 1.560526,-3.787084 0.09823,0 0.178594,0.0388 0.178594,0.08622 0,0.04742 0.110114,0.832491 0.244698,1.744596 0.134582,0.912106 0.297916,2.554075 0.362963,3.648822 l 0.118266,1.990449 1.807145,0.41964 c 0.993928,0.230802 2.534767,0.504705 3.424085,0.608673 0.889319,0.103968 1.808423,0.220576 2.042454,0.259131 1.134043,0.18682 6.476532,-0.06998 8.169815,-0.392697 z M 34.443063,34.896535 c 2.758654,-2.820205 4.357596,-5.142906 5.33434,-7.74892 0.893468,-2.383828 0.902533,-2.438414 0.876214,-5.276339 -0.02093,-2.256751 -0.09382,-2.984915 -0.425511,-4.250593 l -0.400257,-1.527322 -1.5392,-1.025745 c -2.186422,-1.457066 -4.1428,-3.032491 -6.187935,-4.983 -0.319001,-0.3042409 -0.644843,-0.5531649 -0.724096,-0.5531649 -0.07925,0 -0.145777,0.7467719 -0.147833,1.6594939 -0.0063,2.779925 -0.365669,3.198126 -4.555434,5.300649 -3.158423,1.584971 -3.57754,1.926996 -6.16371,5.029951 -1.356692,1.627796 -3.192083,3.293193 -4.492033,4.075982 l -0.975414,0.587364 0.733821,0.41824 c 2.542473,1.449077 3.410193,1.960682 4.41774,2.604692 l 1.130851,0.722822 0.111707,-0.966004 c 0.173965,-1.504391 0.954171,-2.914452 2.448387,-4.424959 0.71806,-0.725888 1.841708,-1.679356 2.496995,-2.118819 l 1.191432,-0.799025 0.05494,0.433771 c 0.03265,0.257785 -0.240264,1.033449 -0.672678,1.911866 -0.648302,1.316976 -0.981986,1.731165 -3.061191,3.79974 l -2.333576,2.321646 1.729721,1.251129 c 1.874311,1.355712 5.040515,4.086553 6.654024,5.739074 l 1.0096,1.034011 1.117956,-0.967695 c 0.614875,-0.532232 1.681891,-1.544212 2.371144,-2.248845 z m 66.150387,2.165491 c 2.28483,-2.335973 4.60673,-4.36719 6.55027,-5.730252 2.12945,-1.493439 5.19523,-3.471302 6.62891,-4.27659 1.39104,-0.781336 1.56566,-0.927816 1.29481,-1.086169 -0.915,-0.534956 -3.15694,-2.271789 -3.7227,-2.883982 -0.3574,-0.386728 -1.29643,-1.476018 -2.08674,-2.420645 -0.7903,-0.944624 -1.74993,-1.969046 -2.13251,-2.27649 -0.38257,-0.307445 -1.91964,-1.200241 -3.41571,-1.983992 -4.318872,-2.262548 -4.645438,-2.651594 -4.540922,-5.409784 0.0321,-0.847547 -0.0117,-1.3527209 -0.113928,-1.3129879 -0.09137,0.03552 -0.702269,0.5457199 -1.357556,1.1337769 -2.486073,2.231013 -4.15077,3.483412 -6.420195,4.830095 -0.726489,0.431101 -0.867605,0.797346 -1.245638,3.232862 -0.436195,2.810219 -0.250989,5.687243 0.502634,7.808052 0.491552,1.383303 1.713971,3.529944 2.976788,5.22742 1.10823,1.489683 5.613783,6.212464 5.926715,6.212464 0.0634,0 0.583502,-0.4787 1.155772,-1.063778 z M 66.568962,29.424018 c 0.644833,-0.292583 2.491296,-1.057572 4.103254,-1.699975 4.952152,-1.973553 5.542869,-2.300885 9.6643,-5.355261 0.561675,-0.416256 1.720841,-1.219035 2.575924,-1.783956 1.176723,-0.777414 1.577861,-1.139 1.649973,-1.487281 0.0524,-0.253085 0.375474,-1.762218 0.717941,-3.35363 0.342467,-1.591412 0.658305,-3.084957 0.701864,-3.318988 0.0658,-0.353557 -0.01629,-0.46534 -0.485493,-0.661046 -0.310577,-0.129545 -0.794464,-0.335388 -1.075301,-0.457429 -1.117537,-0.485638 -1.837955,-0.753681 -2.020688,-0.751828 -0.105585,0.0011 -1.011949,0.800134 -2.014147,1.775698 -1.769774,1.722741 -2.311746,2.148981 -5.383456,4.23388 -3.508745,2.381533 -4.623579,3.536472 -4.623579,4.789904 0,0.94165 0.375141,1.311402 1.718861,1.694171 0.599232,0.170697 1.462305,0.425243 1.917941,0.56566 0.697828,0.215056 0.851373,0.218563 0.973983,0.02224 0.08006,-0.128184 0.660148,-1.487699 1.289093,-3.021147 1.290264,-3.145823 1.390014,-3.177513 1.403214,-0.445801 0.0091,1.876596 -0.272164,2.79254 -1.143213,3.723325 -0.630075,0.673283 -2.221607,1.402368 -3.598327,1.648402 -0.979648,0.175072 -1.339594,0.163015 -2.439665,-0.08173 -1.54079,-0.342792 -1.991438,-0.663915 -2.574937,-1.834847 -0.358946,-0.720307 -0.440426,-1.12593 -0.440426,-2.192491 0,-2.933382 0.900518,-4.183522 4.957197,-6.881812 1.550122,-1.031059 3.277138,-2.272062 3.837815,-2.757784 0.969943,-0.840276 2.062499,-2.1829509 1.904702,-2.3407469 -0.04055,-0.04056 -0.875297,0.311184 -1.854982,0.7816419 -2.655003,1.274969 -4.852218,2.186403 -6.355573,2.636377 -1.583635,0.474003 -3.823014,0.916996 -4.635518,0.916996 -0.317302,0 -0.576913,0.03195 -0.576913,0.07099 0,0.03905 0.154389,0.431169 0.343088,0.871385 0.656767,1.532171 0.879445,3.471998 0.750912,6.541425 -0.108982,2.602571 -0.147857,2.849226 -0.543208,3.446641 -0.50485,0.762882 -0.71878,0.814491 -0.727059,0.175401 -0.0033,-0.257435 -0.113902,-0.919598 -0.245705,-1.471476 -0.131802,-0.551876 -0.333433,-2.017185 -0.448065,-3.256242 -0.22191,-2.398591 -0.05197,-4.620381 0.444242,-5.807982 l 0.233507,-0.558857 -0.627224,-0.102922 C 61.384777,13.275091 58.640791,12.356591 55.340679,10.815354 52.920724,9.6851721 52.194865,9.3612461 52.082288,9.3612461 c -0.05723,0 0.0343,0.238505 0.203417,0.530011 0.516563,0.8904099 2.323885,2.4171439 4.94423,4.1766349 1.37282,0.921813 2.97741,2.124383 3.565754,2.672378 1.990424,1.85392 2.712392,4.206088 1.928348,6.282541 -0.792141,2.097902 -1.851641,2.627997 -4.90677,2.454986 -2.72918,-0.154551 -3.739634,-0.806632 -4.879576,-3.148957 -0.561942,-1.154669 -1.610008,-4.333238 -1.849913,-5.610406 -0.09483,-0.504841 -0.07475,-0.5413 0.213217,-0.387183 0.667687,0.357335 3.402502,3.67109 4.67749,5.667678 l 0.624967,0.978676 h 1.356405 1.356406 v -1.129133 c 0,-1.411642 -0.27557,-2.354854 -0.856908,-2.932996 -0.247922,-0.24656 -1.430972,-1.137618 -2.628999,-1.98013 -3.003345,-2.1121 -5.245866,-3.905547 -6.563376,-5.249036 l -1.113548,-1.135504 -1.776196,0.692205 c -0.976907,0.380712 -1.802429,0.718438 -1.834493,0.750502 -0.09771,0.09771 1.241749,7.403053 1.376563,7.507696 0.01975,0.01532 0.546898,0.335832 1.171445,0.712233 0.624546,0.3764 2.309571,1.556079 3.744498,2.62151 3.648723,2.709167 4.735118,3.348529 7.119378,4.189872 1.584023,0.558962 1.989501,0.725585 4.914326,2.019465 1.088425,0.481496 2.102398,0.883604 2.253271,0.893573 0.150874,0.01 0.801906,-0.221259 1.446738,-0.513844 z M 67.82655,8.275623 c 0.608447,-0.1290307 1.527122,-0.3737549 2.041502,-0.5438318 1.027285,-0.339666 4.378977,-2.0072294 4.735269,-2.3559321 0.332743,-0.3256572 -1.591696,-0.393195 -9.925617,-0.3483378 -9.582766,0.051579 -9.317759,0.043786 -9.178015,0.2698963 0.14311,0.2315554 3.564938,1.8720956 4.752698,2.278604 2.679797,0.9171542 5.374564,1.1660612 7.574163,0.6996014 z"
     id="path302" /><path
     style="fill:#ffffff;fill-rule:evenodd;stroke-width:0.170204"
     d="m 26.935251,32.892016 c -1.050619,-1.07834 -1.655237,-2.990345 -1.658599,-5.245043 l -0.0013,-0.862279 1.019246,-0.487155 c 0.560585,-0.267935 1.045588,-0.45435 1.077783,-0.414255 0.09327,0.116156 0.499245,4.345823 0.582864,6.072608 0.08884,1.834517 -0.03446,1.947675 -1.020008,0.936124 z"
     id="path304" /><path
     style="fill:#ffffff;fill-rule:evenodd;stroke-width:0.170204"
     d="m 19.828823,24.657189 c 0,-0.736217 2.257362,-3.465049 3.946204,-4.770403 1.979219,-1.529795 5.315894,-3.532835 5.529384,-3.319345 0.449613,0.449614 -1.220272,2.802691 -3.016364,4.250433 -1.234127,0.99477 -6.014603,4.03198 -6.346213,4.03198 -0.06216,0 -0.113011,-0.0867 -0.113011,-0.192665 z"
     id="path306" /><path
     style="fill:#ffffff;fill-rule:evenodd;stroke-width:0.170204"
     d="M 49.955016,20.054352 C 48.519113,19.64632 47.396807,18.214333 46.992163,16.273949 46.618201,14.4807 46.507665,13.446154 46.690027,13.446154 c 0.186262,0 1.397671,1.411621 2.263994,2.63817 1.016503,1.439174 2.378371,3.92733 2.230514,4.075187 -0.129557,0.129557 -0.521497,0.09603 -1.229519,-0.105159 z"
     id="path308" /><path
     style="fill:#ffffff;fill-rule:evenodd;stroke-width:0.170204"
     d="m 64.371345,56.039826 c -0.494963,-3.39516 -0.835753,-8.767994 -0.860964,-13.573808 -0.02134,-4.067336 0.01039,-4.66888 0.276034,-5.233787 0.165078,-0.351047 0.364367,-0.638267 0.442865,-0.638267 0.285558,0 1.234329,2.389175 1.498059,3.772378 0.227452,1.192932 0.253743,2.272566 0.165117,6.7803 -0.05797,2.948792 -0.178564,6.003998 -0.267974,6.789346 -0.191628,1.683193 -0.693668,4.103741 -0.851147,4.103741 -0.06074,0 -0.241635,-0.899957 -0.40199,-1.999903 z"
     id="path310" /><path
     style="fill:#ffffff;fill-rule:evenodd;stroke-width:0.170204"
     d="m 94.722273,30.594256 c -1.283505,-0.655839 -1.350915,-0.835774 -1.897002,-5.063584 -0.210261,-1.627845 -0.122751,-2.919049 0.28298,-4.175321 0.286203,-0.886175 1.318258,-2.462653 1.612198,-2.462653 0.104698,0 0.169066,1.112265 0.169911,2.936027 0.0013,2.775807 0.277507,5.935814 0.66636,7.623244 0.211313,0.916992 0.230918,1.525247 0.04916,1.525247 -0.07378,0 -0.471401,-0.172332 -0.883609,-0.38296 z"
     id="path312" /><path
     style="fill:#ffffff;fill-rule:evenodd;stroke-width:0.170204"
     d="m 99.193618,33.443676 c -0.460578,-0.322599 -1.28524,-1.77527 -1.641737,-2.891971 -0.657071,-2.058228 -0.959365,-5.65499 -0.636573,-7.5741 l 0.128827,-0.76592 0.549132,1.186492 c 0.302022,0.652571 0.804068,1.992932 1.115657,2.978579 1.194784,3.77944 2.119976,7.043754 2.035246,7.180847 -0.14567,0.235704 -1.157532,0.161357 -1.550552,-0.113927 z"
     id="path314" /><path
     style="fill:#ffffff;fill-rule:evenodd;stroke-width:0.170204"
     d="m 102.19857,31.858425 c -1.23888,-0.786567 -2.03323,-2.711257 -2.03323,-4.926458 0,-1.00002 0.21934,-0.898438 1.29975,0.601939 0.85317,1.184805 1.78035,3.141568 2.01465,4.251781 0.0991,0.469624 0.0683,0.553165 -0.20387,0.553165 -0.17634,0 -0.66112,-0.216192 -1.0773,-0.480427 z"
     id="path316" /></svg>
