<?xml version="1.0" encoding="UTF-8" standalone="no"?>
<!-- Created with Inkscape (http://www.inkscape.org/) -->

<svg
   width="512"
   height="512"
   viewBox="0 0 512 512"
   version="1.1"
   id="svg5"
   inkscape:version="1.2.1 (9c6d41e410, 2022-07-14)"
   sodipodi:docname="armor_light.svg"
   xml:space="preserve"
   inkscape:export-filename="armor_light.png"
   inkscape:export-xdpi="96"
   inkscape:export-ydpi="96"
   xmlns:inkscape="http://www.inkscape.org/namespaces/inkscape"
   xmlns:sodipodi="http://sodipodi.sourceforge.net/DTD/sodipodi-0.dtd"
   xmlns="http://www.w3.org/2000/svg"
   xmlns:svg="http://www.w3.org/2000/svg"><sodipodi:namedview
     id="namedview7"
     pagecolor="#ffffff"
     bordercolor="#999999"
     borderopacity="1"
     inkscape:pageshadow="0"
     inkscape:pageopacity="0"
     inkscape:pagecheckerboard="true"
     inkscape:document-units="px"
     showgrid="false"
     height="70mm"
     units="px"
     inkscape:zoom="1.0469406"
     inkscape:cx="-19.10328"
     inkscape:cy="59.69775"
     inkscape:window-width="2560"
     inkscape:window-height="1351"
     inkscape:window-x="2391"
     inkscape:window-y="-9"
     inkscape:window-maximized="1"
     inkscape:current-layer="layer1"
     inkscape:showpageshadow="2"
     inkscape:deskcolor="#d1d1d1" /><defs
     id="defs2" /><g
     inkscape:label="Layer 1"
     inkscape:groupmode="layer"
     id="layer1"><path
       style="fill:#ffffff;fill-rule:evenodd;stroke-width:0.606775"
       d="m 288.23689,478.86724 c -2.0909,-0.47011 -4.41182,-1.18985 -5.15759,-1.59937 -0.83981,-0.46119 -5.74426,-0.91527 -12.88467,-1.19302 -12.87032,-0.50065 -23.79454,-1.4376 -27.00149,-2.31592 -1.16804,-0.31989 -11.6765,-0.75333 -23.35214,-0.96318 -15.79945,-0.28396 -21.85138,-0.59868 -23.66424,-1.23061 -1.79127,-0.62442 -6.12856,-0.86488 -16.39162,-0.90881 -7.6757,-0.0331 -17.09589,-0.31357 -20.93374,-0.62384 -3.83785,-0.31027 -10.28754,-0.78939 -14.33263,-1.06478 -11.22515,-0.7642 -13.5864,-2.80858 -13.57183,-11.75059 0.009,-5.5311 1.24496,-10.27496 3.51046,-13.47406 2.32607,-3.28462 4.88849,-8.8437 5.54601,-12.03191 0.2923,-1.41728 0.98651,-4.07864 1.54269,-5.91414 0.55621,-1.83548 1.29898,-4.7025 1.65063,-6.37113 0.35167,-1.66863 1.01428,-4.06334 1.4725,-5.32157 0.45825,-1.25822 0.83311,-2.95193 0.83311,-3.76378 0,-0.81186 0.25457,-2.10332 0.5657,-2.86991 1.28438,-3.16452 2.51946,-8.37448 3.13533,-13.22591 1.92847,-15.19105 2.38422,-18.23341 3.27225,-21.8439 0.5335,-2.16923 1.26083,-5.71886 1.61622,-7.88808 0.3554,-2.16922 1.02558,-5.04536 1.4893,-6.39142 0.46372,-1.34607 0.84315,-2.80657 0.84315,-3.24557 0,-0.43898 0.3784,-1.65858 0.84097,-2.7102 2.07911,-4.72708 2.98083,-11.24132 2.60406,-18.81238 -0.31933,-6.41755 -1.88004,-14.73435 -3.15079,-16.79046 -0.75254,-1.21763 -2.98399,-9.95533 -4.71699,-18.47027 l -0.73657,-3.61908 -1.16833,2.70891 c -0.6426,1.48991 -1.67737,3.93764 -2.29954,5.43941 -1.59835,3.85807 -2.78433,5.89126 -5.66303,9.7084 -1.38424,1.83549 -3.27681,4.49772 -4.20571,5.91606 -0.9289,1.41833 -1.94757,2.57879 -2.2637,2.57879 -0.31616,0 -2.58529,1.9796 -5.04257,4.39912 -2.45727,2.41952 -4.96108,4.82856 -5.56401,5.35343 -1.44694,1.25957 -4.82768,5.20646 -7.4674,8.7179 -1.16805,1.55376 -2.72923,3.59167 -3.46928,4.52869 -0.74006,0.93701 -2.27618,3.44959 -3.4136,5.58349 -1.13742,2.13392 -3.46624,6.06423 -5.17516,8.73404 -1.70891,2.66981 -4.87589,8.48859 -7.037716,12.93061 -2.16183,4.44201 -5.16632,9.70125 -6.67664,11.68719 -1.51031,1.98594 -2.74603,3.73873 -2.74603,3.8951 0,0.15639 -1.09102,1.72335 -2.4245,3.48218 -1.33346,1.75883 -2.42566,3.41868 -2.42709,3.68854 -0.001,0.26988 -0.79743,1.49859 -1.76887,2.73049 -0.97144,1.23191 -3.20676,5.37989 -4.96739,9.21774 -1.76061,3.83785 -3.5487,7.39676 -3.97353,7.9087 -0.42483,0.51194 -1.46798,2.50361 -2.31813,4.42596 -2.09086,4.72781 -7.05686,11.85887 -9.71212,13.94639 -1.19395,0.93865 -2.77831,2.60963 -3.52082,3.71329 -5.56062,8.26523 -7.13642,10.50547 -8.13824,11.56975 -0.62827,0.66747 -1.5501,1.8023 -2.0485,2.52186 -2.44521,3.5303 -10.80985,11.93437 -13.26609,13.32864 l -2.77497,1.57518 -11.17186,-0.40744 c -9.11385,-0.33238 -11.5729198,-0.6138 -13.3490498,-1.52764 -5.07683,-2.61213 -7.78897999,-8.24821 -7.10734999,-14.76968 0.52501,-5.02305 3.26042999,-14.27001 6.13657999,-20.74446 0.74126,-1.66864 1.96893,-4.67217 2.72815,-6.67453 0.75923,-2.00236 2.1641498,-5.34146 3.1220398,-7.42023 0.9579,-2.07877 1.74163,-3.94416 1.74163,-4.1453 0,-0.20117 0.91957,-1.50389 2.0435,-2.89495 2.72128,-3.3681 3.41748,-4.81042 3.41748,-7.08004 0,-1.04506 0.32085,-2.49652 0.71301,-3.22546 0.72353,-1.3449 1.01857,-2.46785 2.50052,-9.51719 0.45607,-2.16942 1.14832,-4.54065 1.53833,-5.26938 0.39001,-0.72875 0.70911,-1.77951 0.70911,-2.33504 0,-0.55549 0.37852,-1.87046 0.84116,-2.92207 3.75386,-8.53279 4.60097,-11.43631 5.86866,-20.11528 0.34122,-2.33608 0.89638,-5.06657 1.2337,-6.06775 0.33731,-1.00118 1.29039,-5.23344 2.11796,-9.40502 0.82756,-4.17158 1.91507,-8.4646 2.41668,-9.54005 0.81974,-1.75752 1.76533,-4.99391 4.21536,-14.42757 0.43336,-1.66862 1.78998,-5.90088 3.0147,-9.40501 1.22471,-3.50412 2.42936,-7.46333 2.67698,-8.79824 0.24762,-1.3349 0.73663,-2.9732 1.08668,-3.64065 0.70189,-1.33831 1.45322,-3.47793 3.30259,-9.40501 0.67684,-2.16923 1.57668,-4.76319 1.99966,-5.76437 1.31769,-3.11898 2.273,-5.9839 2.73144,-8.19146 0.24257,-1.16804 0.76189,-2.72013 1.15405,-3.44907 0.39216,-0.72894 0.71301,-2.33555 0.71301,-3.57025 0,-1.23469 0.24898,-3.23225 0.55327,-4.43901 0.30431,-1.20676 1.10329,-4.3785 1.77553,-7.04831 0.67221,-2.66981 1.55314,-6.15902 1.95756,-7.75379 0.40442,-1.59477 0.57367,-3.06116 0.37624,-3.25867 -0.1975,-0.1975 -1.66868,-0.60292 -3.2693,-0.90098 -3.31201,-0.61673 -4.58898,-1.92669 -5.68132,-5.82813 -0.83152,-2.9699 -0.42506,-6.39717 1.19206,-10.05154 1.59168,-3.59686 5.91008,-16.90508 7.07926,-21.81649 0.21921,-0.9209 0.64138,-1.82442 0.93815,-2.00783 0.29676,-0.18342 0.53954,-0.86887 0.53954,-1.52326 0,-0.65439 0.70384,-2.89093 1.56403,-4.97009 1.90125,-4.59536 3.29017,-9.62052 3.29017,-11.90396 0,-1.76465 -1.83089,-3.10166 -4.24742,-3.10166 -3.15033,0 -4.88573,-1.95512 -7.00163,-7.88808 -2.71299,-7.60718 -2.62497,-10.04027 0.50036,-13.83168 1.07275,-1.30137 2.63307,-3.50966 3.46739,-4.90728 3.42301,-5.73416 5.9881,-9.56478 6.92617,-10.3433 1.51922,-1.26086 4.03997,-5.26533 6.90219,-10.9649 1.97725,-3.93732 4.10739,-6.80853 9.00325,-12.1355 9.63627,-10.48479 10.54102,-12.88816 10.54102,-28.00126 0,-12.26134 0.27217,-12.96602 6.299886,-16.30913 2.37527,-1.31739 4.9199,-2.39886 5.65472,-2.40328 0.73483,-0.004 3.73837,-0.8441 6.67453,-1.86599 2.93616,-1.02188 6.15762,-2.07872 7.1588,-2.34853 2.23202,-0.60149 4.22039,-1.42038 9.70841,-3.99821 4.17209,-1.95972 6.69881,-2.92545 10.31517,-3.94254 3.25992,-0.91685 7.20886,-2.44463 10.92196,-4.22554 2.00236,-0.96039 6.78071,-3.25469 10.61856,-5.09844 7.12604,-3.42346 9.77294,-5.55779 13.63074,-10.99123 3.87252,-5.45416 7.58671,-7.55507 13.37075,-7.56308 5.96581,-0.008 6.11556,0.0979 9.41642,6.67563 1.63695,3.26199 3.30008,7.21688 3.69585,8.78863 l 0.71959,2.85774 2.63703,-0.36144 c 2.92133,-0.4004 8.11576,-2.82304 9.9187,-4.62598 0.64073,-0.64074 2.47449,-1.79187 4.07501,-2.55807 l 2.91003,-1.3931 44.43498,-0.19053 c 38.30312,-0.16423 45.13387,-0.0597 49.49946,0.75847 2.78546,0.52193 5.77317,0.94899 6.63934,0.94899 0.88461,0 2.85851,0.98492 4.50353,2.24713 1.61076,1.23591 4.43044,2.75054 6.26592,3.36583 l 3.33727,1.11871 1.66863,-1.97767 c 0.91775,-1.08771 1.66863,-2.30834 1.66863,-2.7125 0,-0.40414 0.64418,-1.50667 1.43157,-2.45002 0.78736,-0.94335 1.86057,-2.53434 2.38491,-3.53552 0.5243,-1.00117 2.15762,-3.1173 3.62952,-4.7025 C 350.0786,32.34543 350.69822,32 352.89308,32 c 4.35886,0 8.65331,1.27171 14.58409,4.3188 3.17139,1.62938 6.55818,2.9625 7.52622,2.9625 0.96803,0 2.35005,0.31573 3.07114,0.70168 0.72109,0.38595 2.13665,0.91513 3.14568,1.17602 3.67929,0.95132 24.66867,9.40662 29.13948,11.73848 1.59305,0.83088 2.94838,2.21131 3.94404,4.01708 2.64268,4.79285 20.65047,24.36858 24.91205,27.08113 5.58813,3.55694 10.52518,6.65088 11.99296,7.51577 2.82736,1.66601 3.52397,3.60532 2.59584,7.22668 -0.83953,3.27568 -4.33639,10.47528 -5.97335,12.29839 -0.88789,0.98886 -0.68687,1.33197 2.78129,4.74675 2.0561,2.02445 3.73837,4.05896 3.73837,4.52113 0,0.46221 1.9796,3.0183 4.39912,5.68028 4.78426,5.26371 6.51758,7.44916 7.73499,9.75263 0.43475,0.82264 1.55885,2.31783 2.49793,3.32265 0.93909,1.00482 2.19505,2.78223 2.79102,3.94979 0.59595,1.16757 1.71345,2.81244 2.4833,3.65527 0.76984,0.84283 1.85264,2.2833 2.40623,3.20105 0.55355,0.91775 1.21515,1.66863 1.47013,1.66863 0.255,0 0.98621,1.02394 1.62494,2.27541 0.63872,1.25147 1.74931,2.80719 2.46798,3.45715 0.71864,0.64993 1.86081,2.15172 2.5381,3.33726 0.67724,1.18554 2.25748,2.87162 3.51158,3.74683 1.76745,1.23349 2.45472,2.25679 3.05644,4.55082 1.29749,4.94661 3.16999,10.18896 3.98298,11.15096 0.42304,0.50058 1.37641,2.33777 2.11858,4.08261 1.67341,3.93417 1.28881,5.86974 -1.49239,7.51069 -1.13173,0.66775 -3.05601,2.43238 -4.27617,3.92143 -1.22017,1.48904 -3.07043,3.14792 -4.1117,3.68638 -1.85747,0.96053 -1.87044,0.9976 -0.68702,1.9626 0.66344,0.54098 2.05366,2.21855 3.08945,3.72796 2.27062,3.30889 8.71761,9.28115 14.50707,13.43882 4.90487,3.52242 9.36959,16.73848 6.77261,20.04768 -0.41714,0.53156 -2.76491,1.73737 -5.21721,2.67957 -4.77634,1.83513 -9.32133,5.71339 -14.35129,12.24607 -1.33491,1.7337 -3.19648,3.49298 -4.13681,3.9095 -1.88293,0.83403 -1.87844,0.54313 -0.11931,7.73521 0.53055,2.16922 1.25423,5.24718 1.60814,6.83991 0.5795,2.60794 1.32013,19.21843 2.10294,47.16308 0.55492,19.81012 -2.5644,37.35059 -8.9867,50.5333 -1.26519,2.59699 -2.30034,5.26798 -2.30034,5.93555 0,0.66754 -0.42641,2.22892 -0.94753,3.46968 -0.52114,1.24075 -1.1879,4.9864 -1.48169,8.32367 -0.59567,6.76655 -1.85696,14.52778 -3.25403,20.02358 -0.50899,2.00235 -1.23935,5.00589 -1.62298,6.67453 -0.38365,1.66863 -1.33585,5.35479 -2.11605,8.19146 -0.78019,2.83667 -1.59643,6.9324 -1.81386,9.10163 -0.21741,2.16921 -0.6625,4.81948 -0.98902,5.88948 -0.32651,1.07 -0.84393,4.89267 -1.14978,8.49485 -0.30581,3.60217 -0.82501,9.68947 -1.15371,13.52732 -0.32874,3.83785 -0.86913,7.93358 -1.20094,9.10163 -2.12896,7.49453 -2.22516,7.62847 -7.04665,9.81311 -2.59256,1.1747 -4.28985,1.39783 -12.19561,1.60334 -13.16414,0.34218 -14.5898,-0.14273 -21.72714,-7.3908 -4.35221,-4.41971 -6.02552,-6.6497 -8.04335,-10.71923 -1.40135,-2.82619 -2.79546,-6.25285 -3.09803,-7.61478 -1.26879,-5.711 -1.90115,-5.06758 -1.92032,1.95394 -0.0151,5.55203 -0.20807,6.97592 -1.08031,7.97374 -1.8403,2.10527 -6.62207,3.33328 -14.7143,3.77879 -4.37547,0.24091 -8.99674,0.86514 -10.92194,1.47537 -1.8355,0.5818 -4.97556,1.42866 -6.97792,1.88193 -5.94906,1.34671 -8.98388,2.18892 -11.09424,3.07884 -1.09592,0.46214 -2.54031,0.84027 -3.20973,0.84027 -0.66941,0 -2.28758,0.54608 -3.5959,1.21355 -1.30831,0.66747 -3.27704,1.21753 -4.37494,1.22238 -1.09791,0.005 -3.22491,0.47464 -4.72668,1.04402 -2.40585,0.91211 -5.97695,1.0507 -30.03537,1.16572 -21.6567,0.10349 -28.09127,-0.046 -31.10652,-0.72425 z m 56.59108,-7.03552 c 1.66863,-0.33808 4.2626,-0.7534 5.76437,-0.92297 1.50176,-0.16954 3.84063,-0.83236 5.19746,-1.47287 1.35684,-0.64051 2.82197,-1.16458 3.25583,-1.16458 0.43389,0 2.05421,-0.38932 3.60077,-0.8652 5.70053,-1.75398 9.55104,-2.74776 12.06207,-3.11309 1.41659,-0.20613 2.75462,-0.66438 2.97341,-1.01839 0.27951,-0.45221 -3.73505,-0.4908 -13.49757,-0.12972 -21.93341,0.81121 -36.66724,0.6505 -43.93073,-0.47917 -3.50412,-0.545 -7.73638,-1.16995 -9.40501,-1.38881 -8.67797,-1.13828 -19.97815,-8.47024 -33.505,-21.73925 -3.07634,-3.01769 -5.77764,-5.30242 -6.00288,-5.07717 -0.22524,0.22524 -0.79434,2.63763 -1.26462,5.36084 -1.00822,5.83813 -2.8431,9.71259 -6.04845,12.77167 -2.84955,2.7195 -7.7954,5.65778 -12.30053,7.30762 -3.4423,1.26062 -7.3204,4.3196 -7.3204,5.77421 0,0.44337 0.65252,1.05424 1.4501,1.35748 2.0461,0.77792 13.93826,1.82953 26.76495,2.36678 6.76836,0.28346 11.45189,0.74678 12.31543,1.21822 0.76642,0.41843 2.54123,0.98748 3.94404,1.26458 3.70899,0.73267 52.29787,0.68903 55.94676,-0.0503 z m 108.55795,-0.10802 c 1.01144,-0.73958 0.80623,-1.24978 -2.94072,-7.31166 -2.21541,-3.58412 -5.00616,-7.87809 -6.20168,-9.54215 -2.36599,-3.29329 -5.29517,-5.24427 -6.47085,-4.3099 -0.3932,0.31249 -2.10786,0.69521 -3.81039,0.85056 -4.21556,0.38458 -8.0748,2.38177 -10.368,5.36549 l -1.91247,2.48835 1.27234,2.15645 c 1.51395,2.56596 8.01224,9.14432 10.1596,10.28479 2.11918,1.12551 18.7374,1.14032 20.27217,0.018 z m 4.71233,-7.74919 c 0.22553,-1.4746 0.43037,-4.70957 0.45509,-7.18883 0.0244,-2.47924 0.30172,-5.34626 0.61543,-6.37113 0.31379,-1.02488 0.85396,-4.73042 1.20043,-8.23455 1.06122,-10.73308 2.9037,-20.04466 6.72347,-33.9794 0.32019,-1.16804 0.87892,-3.21591 1.24164,-4.55082 0.9688,-3.56547 2.35718,-12.5152 2.97923,-19.20445 0.29949,-3.22047 0.97417,-7.12095 1.49932,-8.66775 0.52516,-1.54679 0.95481,-3.35434 0.95481,-4.01676 0,-0.66243 0.62183,-2.2229 1.3818,-3.46775 1.24713,-2.04278 2.39972,-4.79021 4.6405,-11.06158 1.47441,-4.12652 1.99693,-6.43533 2.81511,-12.43889 0.4548,-3.33727 1.12207,-8.1109 1.48279,-10.60806 0.3705,-2.56467 0.52905,-8.76932 0.36432,-14.25921 -0.9705,-32.35629 -1.53158,-44.49295 -2.12723,-46.01323 -0.36805,-0.93947 -0.66927,-2.79611 -0.66927,-4.12587 0,-1.32975 -0.41232,-3.21516 -0.91636,-4.18979 -0.50403,-0.97463 -1.09179,-3.84723 -1.30619,-6.38354 -0.38817,-4.59238 -0.3963,-4.60986 -1.9658,-4.2235 -0.86681,0.21339 -4.8526,1.99502 -8.85731,3.95921 -7.96008,3.90416 -15.73757,6.65983 -18.79644,6.65983 -1.26764,0 -2.87025,-0.69348 -4.55721,-1.97202 -4.54827,-3.4471 -10.44406,-7.0984 -16.60455,-10.28335 -8.6745,-4.48466 -8.33029,-3.5433 -7.94041,-21.71569 0.17551,-8.18089 0.5882,-16.9222 0.91702,-19.42515 0.32881,-2.50295 0.85189,-7.96392 1.16234,-12.1355 l 0.5644,-7.58469 -1.64359,-1.2124 c -0.90398,-0.66682 -2.73579,-2.40004 -4.0707,-3.8516 -8.09543,-8.8029 -11.09061,-12.30335 -12.43889,-14.53727 -0.83431,-1.38236 -1.85614,-2.52073 -2.27072,-2.5297 -1.8305,-0.0395 -8.21962,9.3022 -9.3261,13.63612 -0.34081,1.3349 -1.36331,3.51929 -2.27224,4.8542 -1.32456,1.94535 -2.06926,2.45961 -3.75186,2.59089 -4.97152,0.38789 -4.82976,0.21453 -4.82976,5.90681 0,4.93241 0.76047,9.74469 1.892,11.97273 0.29431,0.5795 0.53508,2.40972 0.53508,4.06718 0,1.65745 0.24458,3.64077 0.54356,4.40735 0.29899,0.76659 0.87442,2.62252 1.27877,4.12429 0.40434,1.50176 1.09814,3.68615 1.54177,4.8542 0.44366,1.16803 1.08979,3.762 1.43589,5.76436 0.34613,2.00235 1.06745,5.41547 1.60298,7.58469 0.53551,2.16921 1.19872,5.85537 1.47374,8.19146 0.27505,2.33609 0.79014,5.47615 1.14469,6.97792 1.11547,4.72474 3.17811,22.28767 2.79623,23.80922 -0.336,1.33877 -0.0831,1.53517 3.16189,2.45559 4.6103,1.30767 7.3442,3.05351 7.8333,5.00227 0.21713,0.86501 0.0374,3.25751 -0.39974,5.31667 -0.96529,4.54865 -2.65968,6.49728 -5.64955,6.49728 -3.81252,0 -4.02125,0.27318 -4.02125,5.26239 0,2.48919 0.254,5.00042 0.56448,5.58052 0.31048,0.58007 0.74088,5.13572 0.9565,10.12359 0.21561,4.98788 0.65474,9.76512 0.97579,10.6161 0.32105,0.85097 0.83804,5.35628 1.14882,10.01178 1.24129,18.59469 2.2381,24.91253 5.4967,34.83871 1.05513,3.21407 2.45547,10.30132 3.60078,18.22383 0.54155,3.74604 1.46196,7.80185 2.8917,12.74227 1.6711,5.77445 2.06264,9.60268 2.54443,24.87778 0.38394,12.17385 0.69636,15.67765 1.72492,19.34798 1.52601,5.4454 2.20059,6.29378 3.51373,4.41901 1.56446,-2.23358 3.45274,-3.82845 5.70736,-4.82056 2.21169,-0.97321 9.45739,-2.47627 12.20376,-2.53157 3.24394,-0.0654 6.90229,3.99849 14.35302,15.9438 1.43202,2.29586 2.91916,4.0326 3.33495,3.89466 0.41276,-0.13692 0.93496,-1.45547 1.16053,-2.93008 z m -215.57349,-1.69982 c 2.35788,-2.72173 3.92139,-3.89855 6.58287,-4.95479 6.33234,-2.51304 9.5248,-4.30968 12.18714,-6.85864 3.34096,-3.19866 4.89446,-6.22051 5.61449,-10.9213 0.31429,-2.05211 0.99702,-4.88396 1.5171,-6.29302 0.9152,-2.47959 0.899,-2.62586 -0.50425,-4.55081 -2.32041,-3.18316 -5.13003,-9.06587 -5.58672,-11.69729 -0.23171,-1.33491 -0.95109,-3.33652 -1.59868,-4.44802 -2.55198,-4.38012 -2.90328,-11.02475 -0.58288,-11.02475 0.85794,0 1.14798,0.62277 1.371,2.94382 0.1556,1.6191 0.85343,4.1448 1.5508,5.61267 0.69736,1.46787 1.58608,3.89757 1.97494,5.39934 2.55745,9.87685 13.80762,23.01161 29.99874,35.02404 4.74683,3.52175 13.19743,7.45022 16.02629,7.45022 1.0103,0 3.14734,0.27045 4.74897,0.60106 9.42798,1.94599 17.16469,2.42755 28.85853,1.79624 6.42047,-0.34663 20.38099,-0.73607 31.02339,-0.86547 15.91702,-0.19355 19.58129,-0.0836 20.6546,0.61967 1.03127,0.67574 1.80848,0.71742 3.70764,0.1988 4.13377,-1.12879 4.08375,-0.97839 3.59631,-10.81506 -0.24063,-4.85558 -0.68105,-9.47418 -0.97875,-10.26354 -0.29769,-0.78937 -0.70103,-3.92942 -0.89625,-6.97791 -0.1952,-3.04849 -0.73612,-6.88925 -1.20197,-8.53501 -0.46587,-1.64578 -0.84698,-4.49488 -0.84698,-6.33134 0,-3.67765 -1.17418,-8.84085 -4.56279,-20.06395 -0.54737,-1.81295 -1.24528,-5.90868 -1.55088,-9.10163 -0.58769,-6.14029 -1.04629,-9.79392 -1.50663,-12.003 -0.23057,-1.10627 -0.51992,-1.25456 -1.63911,-0.84001 -0.74753,0.27692 -7.43449,0.36417 -14.8599,0.19398 -8.40246,-0.19262 -13.50075,-0.0903 -13.50075,0.27095 0,0.31918 0.54608,1.71068 1.21355,3.09215 2.30677,4.77446 1.30109,9.87117 -2.62856,13.32144 -1.2114,1.06363 -1.97054,2.07726 -1.68697,2.25251 0.2836,0.17522 4.30583,0.0403 8.93838,-0.30057 4.63255,-0.34052 11.97245,-0.53932 16.3109,-0.44164 7.42438,0.1671 7.88807,0.24889 7.88807,1.39108 0,1.15017 -0.53882,1.2346 -10.31518,1.61638 -12.67311,0.49491 -26.78702,1.49165 -29.00525,2.04839 -0.96494,0.24221 -2.00076,0.12585 -2.4892,-0.2795 -0.52811,-0.43835 -4.71956,-0.78853 -11.36916,-0.94992 -5.79293,-0.14058 -12.17089,-0.50762 -14.17325,-0.81556 -2.00235,-0.30796 -7.48025,-0.41886 -12.17311,-0.24651 l -8.53246,0.31335 -0.97328,1.69585 c -1.09457,1.90719 -2.01632,2.21313 -12.62873,4.1916 -5.98094,1.11505 -7.42252,1.19982 -9.87997,0.58101 -3.2249,-0.81204 -4.23268,-2.09253 -3.94111,-5.00764 l 0.19341,-1.93393 -17.55562,0.24228 -17.55562,0.24228 -2.03311,2.0331 c -1.99492,1.99493 -2.1324,2.03314 -7.32215,2.03482 -2.90898,0.001 -10.3784,0.17961 -16.59872,0.39694 l -11.30966,0.3953 -0.26506,3.09197 c -0.14575,1.70058 -0.84335,4.38895 -1.55019,5.97416 -1.1008,2.46871 -1.53456,2.88218 -3.02364,2.88218 -2.19725,0 -3.00554,-0.66467 -6.2719,-5.15759 -4.11833,-5.66479 -8.40607,-10.21671 -10.68433,-11.34261 -1.97421,-0.97563 -2.31416,-0.96677 -6.74395,0.1758 -2.82148,0.72771 -7.83811,1.35037 -12.6947,1.57563 l -8.02975,0.37243 -0.35705,2.18228 c -0.19643,1.20025 -0.60415,2.72838 -0.9061,3.39583 -0.30193,0.66747 -1.10939,3.53447 -1.79428,6.37114 -0.68486,2.83667 -1.49056,6.11326 -1.79038,7.2813 -1.4239,5.54739 -3.14285,12.00827 -3.63233,13.65244 -0.29805,1.00118 -0.73472,2.776 -0.97039,3.94404 -0.48506,2.40417 -3.06088,7.77181 -6.14364,12.80254 -1.92012,3.13344 -2.06784,3.72298 -1.90044,7.58469 l 0.18148,4.18716 2.12371,0.72423 c 1.16805,0.39831 4.80389,0.73962 8.07966,0.75847 3.27577,0.0187 6.52267,0.33758 7.21533,0.70822 0.78685,0.42109 9.0248,0.88508 21.9557,1.23658 11.38298,0.3094 25.06511,0.77028 30.40473,1.02416 5.33963,0.25385 14.66454,0.51654 20.72202,0.58374 l 11.0136,0.12218 z M 31.453674,456.58778 c 1.18182,-0.74919 3.63926,-2.99597 5.46097,-4.99288 1.82172,-1.9969 3.65326,-3.90824 4.07009,-4.24742 0.59963,-0.48793 0.53069,-1.25015 -0.33014,-3.65057 -0.94159,-2.62559 -1.41104,-3.14717 -3.48836,-3.87574 -3.30958,-1.16075 -12.94279,-1.01273 -21.66546,0.33293 -5.7581698,0.88832 -7.1296098,1.29141 -7.1296098,2.09556 0,0.54759 -0.40957,1.9759 -0.91016,3.17399 -1.15827,2.77212 -1.15317,5.12814 0.0172,7.9291 1.14142,2.73182 2.8275498,3.50227 8.7810998,4.01242 9.81646,0.84118 12.88913,0.684 15.19442,-0.77739 z M 409.85138,445.66893 c -0.16832,-0.41714 -0.30603,-0.0758 -0.30603,0.75847 0,0.83432 0.13771,1.17563 0.30603,0.75847 0.16832,-0.41714 0.16832,-1.09978 0,-1.51694 z M 47.982044,438.19285 c 1.59554,-2.31239 3.56172,-5.20159 4.3693,-6.42044 0.80757,-1.21887 2.58975,-3.13021 3.9604,-4.24743 2.86899,-2.33854 7.53737,-9.09137 8.84265,-12.79091 0.49081,-1.39107 1.2739,-2.95235 1.74024,-3.4695 0.4663,-0.51719 2.35744,-4.155 4.20247,-8.08408 3.06883,-6.53524 6.4037,-12.04795 12.19625,-20.16109 4.62729,-6.48107 6.69962,-9.95082 9.78477,-16.38293 1.76078,-3.67098 4.7074,-8.99544 6.54803,-11.83212 1.840636,-2.83666 4.205456,-6.77381 5.255156,-8.74921 2.92685,-5.50792 6.0332,-9.82872 12.40598,-17.25624 1.33491,-1.55584 3.37382,-4.32776 4.53091,-6.15984 1.1571,-1.83208 2.25084,-3.46757 2.43056,-3.63443 0.17967,-0.16689 1.55391,-1.89759 3.05378,-3.84605 1.49987,-1.94845 3.60347,-4.67894 4.67468,-6.06774 6.56543,-8.51208 8.20492,-11.56235 9.24827,-17.2063 0.6684,-3.61575 4.14442,-11.12454 6.14231,-13.26844 0.64145,-0.68831 1.57848,-2.63954 2.08229,-4.33603 0.50382,-1.69648 1.29768,-3.23097 1.76417,-3.40998 0.46652,-0.17903 1.03619,-1.18146 1.26597,-2.22767 0.22977,-1.04621 0.79995,-2.63469 1.26703,-3.52996 0.46709,-0.89527 0.85091,-1.95358 0.85298,-2.35182 0.006,-1.17522 2.54535,-2.60758 3.98301,-2.24675 1.22695,0.30797 1.35626,0.0618 1.68254,-3.20201 0.19441,-1.94457 0.63052,-4.90083 0.96922,-6.56946 2.31972,-11.42884 2.66412,-15.41896 2.6448,-30.64214 -0.0115,-8.99655 -0.32436,-17.37754 -0.74766,-20.02358 -0.4004,-2.50295 -0.95901,-7.69087 -1.24134,-11.52873 -0.61169,-8.31463 -1.25526,-11.85287 -3.22646,-17.73774 -1.08497,-3.23912 -1.59533,-6.47735 -1.92275,-12.19991 -0.43345,-7.57542 -0.48161,-7.78061 -1.74675,-7.437 -0.71555,0.19434 -3.07586,0.64231 -5.24508,0.99555 -2.16922,0.35317 -4.53444,0.76377 -5.25605,0.91237 -0.84426,0.17385 -2.07177,1.62285 -3.44307,4.06432 -1.18398,2.10795 -4.0779,5.68178 -6.5117,8.04157 -11.56773,11.21595 -11.15682,10.72906 -12.32327,14.60178 -1.04801,3.47952 -1.05348,3.87587 -0.10048,7.2813 0.55434,1.98081 1.25711,6.74153 1.56168,10.57939 0.75103,9.46317 2.44053,17.03857 5.06867,22.72682 1.20678,2.61193 2.19415,5.42533 2.19415,6.252 0,2.03681 -4.40738,11.6905 -7.24503,15.86913 -1.26724,1.86609 -3.28218,5.45407 -4.47766,7.9733 -3.01414,6.3517 -3.83217,6.98187 -8.8221,6.79602 -4.97634,-0.18536 -13.175976,-1.67397 -16.215236,-2.94385 -1.25001,-0.52229 -3.9319,-1.21682 -5.95975,-1.54339 -2.62001,-0.42196 -5.00564,-1.3985 -8.24357,-3.37451 -2.50612,-1.5294 -5.70615,-3.44147 -7.11119,-4.24904 l -2.55463,-1.46831 -0.97316,2.31378 c -0.53523,1.27257 -1.22567,3.63187 -1.5343,5.24288 -0.30861,1.61102 -0.75829,3.2481 -0.99924,3.63795 -0.24091,0.38991 -0.62664,1.93879 -0.85716,3.44204 -1.42156,9.27114 -1.61424,9.9498 -9.30349,32.76855 -1.85552,5.50648 -3.95847,11.92313 -4.67322,14.25922 -0.71475,2.33607 -1.51396,4.79352 -1.77603,5.46097 -0.44098,1.12314 -2.13605,6.96694 -3.69604,12.74228 -0.36058,1.33491 -1.42022,4.74801 -2.35475,7.58469 -0.93453,2.83667 -1.98705,6.65935 -2.33893,8.49485 -1.1809,6.15978 -2.4252,11.54372 -2.8129,12.17103 -0.21148,0.34218 -0.60315,2.59031 -0.87036,4.99582 -0.73037,6.57487 -2.23834,12.63821 -4.20781,16.91903 -2.25782,4.90758 -4.91166,12.84909 -4.91166,14.69791 0,0.78639 -0.81757,3.98895 -1.81682,7.11683 -0.99925,3.12789 -1.8184,6.40761 -1.82033,7.28829 -0.002,0.91399 -1.38875,3.6947 -3.23102,6.4788 -2.8916,4.36989 -4.55719,7.823 -7.51695,15.58419 -0.50908,1.33491 -1.71294,4.2237 -2.67525,6.41954 -2.5931798,5.9172 -2.4915698,6.25162 1.7393,5.72449 1.91893,-0.23911 3.94884,-0.68011 4.51092,-0.98008 1.27617,-0.68105 15.05009,-0.66984 18.59429,0.0151 2.93334,0.56692 6.77846,3.78717 6.77846,5.67691 0,1.95256 1.39422,0.83226 4.41792,-3.54994 z M 409.22557,424.29718 c -0.39162,-8.03088 -1.20709,-13.58366 -2.80954,-19.13049 -1.22017,-4.22359 -2.33427,-10.2067 -3.55909,-19.11371 -0.46091,-3.35187 -0.98252,-5.41441 -2.60855,-10.31488 -1.04655,-3.15406 -2.39887,-8.97508 -2.88977,-12.43889 l -0.47298,-3.33726 -0.0747,3.33726 c -0.041,1.83549 0.19829,4.42946 0.53199,5.76436 1.62356,6.49485 2.55341,12.06941 2.93511,17.59648 0.23049,3.33727 0.75006,6.66416 1.15463,7.39311 0.40456,0.72894 0.73557,1.92101 0.73557,2.64904 0,0.72803 0.40219,2.58907 0.89382,4.13563 2.78691,8.76761 3.06871,10.47169 4.54308,27.47232 0.65461,7.54814 1.46398,10.07211 1.72908,5.39204 0.10342,-1.82611 0.0546,-6.05837 -0.1086,-9.40501 z M 200.3995,406.07686 c 0.17753,-1.33491 0.11723,-8.98027 -0.13396,-16.98971 -0.45466,-14.49531 -0.46314,-14.5635 -1.82591,-14.757 -1.84601,-0.26212 -7.65283,2.4648 -10.88025,5.10943 -2.23449,1.83099 -5.59996,3.49932 -10.73061,5.31939 -0.99786,0.35397 -0.77658,0.78941 1.81882,3.57915 1.62519,1.74687 4.04776,3.89359 5.3835,4.77049 3.18398,2.09026 7.20051,6.37963 11.51008,12.29194 3.7622,5.16139 4.25275,5.22968 4.85835,0.67631 z m 90.72888,-7.24637 c 8.65301,-1.55593 8.68937,-1.57213 9.64278,-4.29633 1.11378,-3.18244 1.18481,-11.1797 0.14108,-15.88241 -0.75518,-3.40256 -1.00501,-3.79828 -2.62218,-4.15348 -2.31581,-0.50863 -2.89432,0.10774 -1.20902,1.28819 1.95358,1.36835 1.81281,4.6403 -0.27009,6.27874 -0.87933,0.69168 -2.32648,1.25759 -3.21592,1.25759 -1.51527,0 -3.07339,0.94437 -3.07339,1.86276 0,0.2236 1.26249,0.54881 2.80553,0.72273 3.20921,0.36173 3.84669,1.05984 3.85971,4.22674 0.0122,3.04883 -1.52798,3.9658 -7.93091,4.72083 -9.14336,1.07818 -9.04951,1.04691 -9.04951,3.01483 0,2.68437 0.89409,2.76294 10.92195,0.95981 z m -72.87914,-0.71951 c 1.51286,-0.30257 1.76581,-0.54995 1.22657,-1.19973 -1.0937,-1.31783 0.24724,-16.52605 1.80348,-20.45418 1.32734,-3.35037 2.37785,-3.20235 -13.12742,-1.84981 l -4.39912,0.38372 v 9.85442 c 0,5.41992 0.1707,10.70768 0.37927,11.75058 l 0.37926,1.89617 h 5.91606 c 3.25384,0 6.77372,-0.17155 7.82196,-0.3812 z m 18.98006,-1.83657 c 0.76435,-0.69176 1.10964,-1.86073 1.10964,-3.75679 0,-3.93313 -1.30142,-16.70774 -1.74808,-17.15908 -0.20663,-0.20878 -3.0075,-0.52638 -6.22422,-0.70584 -5.69952,-0.31796 -5.84769,-0.29281 -5.81302,0.98633 0.0345,1.28021 -0.87702,6.58452 -2.02619,11.78816 -0.31429,1.42313 -0.57144,4.22188 -0.57144,6.21944 v 3.63195 h 7.08182 c 5.73821,0 7.29236,-0.19053 8.19146,-1.00421 z m -73.88715,-3.24322 c 0.3158,-1.50177 0.49325,-3.95921 0.39435,-5.46098 -0.37049,-5.62776 -0.31946,-8.83915 0.16164,-10.16348 0.45947,-1.26481 0.32558,-1.36456 -1.82032,-1.35595 -3.93875,0.0158 -4.09028,0.29826 -5.0406,9.39572 -0.34857,3.33726 -0.79294,6.92989 -0.98741,7.9836 -0.40521,2.19549 0.28626,2.58528 4.30477,2.42677 2.34941,-0.0926 2.42859,-0.16754 2.98752,-2.82568 z m 188.53268,-0.51883 c 4.73071,-1.64547 6.9797,-2.88792 8.08568,-4.46693 1.09462,-1.56278 1.24169,-5.23233 0.29317,-7.31414 l -0.65389,-1.43503 -18.30787,-0.72598 c -10.06934,-0.39924 -22.50109,-0.72204 -27.62612,-0.7172 -8.24554,0.008 -9.27584,0.11923 -8.94993,0.96853 0.20253,0.5279 0.36827,3.9445 0.36827,7.5925 v 6.63271 l 9.86009,-0.046 c 5.42305,-0.0252 12.86363,0.21985 16.53463,0.54493 8.94263,0.7919 16.20656,0.42389 20.39591,-1.03327 z m -180.39986,-1.71758 c 0.14604,-2.00831 -0.0611,-2.6714 -0.99047,-3.16871 -2.51476,-1.34586 -2.24601,-3.77163 0.546,-4.92811 1.17175,-0.48535 1.77955,-1.17575 1.78501,-2.02758 0.005,-0.71038 0.17292,-1.90599 0.37416,-2.65687 0.33478,-1.24932 0.1597,-1.36525 -2.06221,-1.36525 -3.79876,0 -4.36061,1.35357 -4.05805,9.77639 0.13648,3.80046 0.25464,6.99549 0.26254,7.10007 0.008,0.10457 0.90172,0.10457 1.98633,0 1.84556,-0.17795 1.98387,-0.35303 2.1567,-2.72994 z m 5.83295,2.31751 c 0.17867,-0.28914 -0.21475,-1.01407 -0.87435,-1.61099 -1.16587,-1.05509 -1.19924,-1.04045 -1.19924,0.52567 0,1.55875 1.34568,2.26308 2.07359,1.0853 z m 104.41544,-1.03278 c 5.0059,-0.534 9.71599,-1.08965 10.46687,-1.23474 2.39008,-0.46184 1.46795,-1.45423 -1.35125,-1.45423 -2.196,0 -2.89889,-0.27836 -3.66835,-1.45269 -1.88189,-2.87214 1.42788,-8.25572 5.07554,-8.25572 3.36152,0 2.59011,-1.1007 -0.96367,-1.37504 -4.1978,-0.32406 -10.12327,-1.40312 -14.84765,-2.70385 -2.90238,-0.79908 -6.05369,-0.90216 -19.31635,-0.63182 -8.71648,0.17767 -16.08195,0.55938 -16.36768,0.84826 -0.36496,0.36891 0.66854,15.0478 1.19836,17.02137 0.27879,1.03854 27.84821,0.51072 39.77418,-0.76154 z m -100.72467,-13.3089 c 1.66863,-0.82855 4.80869,-2.77757 6.97792,-4.33116 l 3.94403,-2.8247 -3.33726,0.39687 c -1.83549,0.21828 -5.16257,0.85275 -7.39349,1.40992 l -4.05623,1.01306 0.0309,2.26384 c 0.0173,1.24512 -0.15323,2.56234 -0.37869,2.92716 -0.67056,1.08493 0.98049,0.74982 4.21248,-0.855 z m 154.42426,-6.22585 11.83212,-0.44733 -6.67453,-0.44445 c -3.67098,-0.24443 -12.93883,-0.61241 -20.5952,-0.81766 -12.92185,-0.34642 -13.97762,-0.29532 -14.71429,0.7121 -0.43648,0.59696 -0.79362,1.34851 -0.79362,1.67018 0,0.36769 3.54867,0.43439 9.55671,0.17968 5.25618,-0.22287 14.88115,-0.60652 21.38881,-0.85252 z m -169.83874,-0.79253 c 0.74463,-0.39033 1.05251,-1.88738 1.33215,-6.47752 0.20002,-3.28341 0.64994,-6.7227 0.99979,-7.64287 0.34987,-0.92017 0.8695,-3.1615 1.15478,-4.98075 0.56261,-3.58775 0.33686,-3.83079 -2.54154,-2.73641 -1.22352,0.46516 -1.84233,1.62054 -3.3312,6.21945 -1.0057,3.10647 -2.10957,7.55948 -2.45305,9.89557 -0.34347,2.33608 -0.81345,4.89252 -1.04437,5.68098 -0.40859,1.39514 -0.34843,1.4217 2.24756,0.99139 1.46709,-0.24321 3.10324,-0.67063 3.63588,-0.94984 z m 113.20116,0.007 c 0.37531,-0.37532 5.22723,-0.7928 11.67951,-1.00504 10.16142,-0.3342 11.08836,-0.45803 11.67792,-1.55962 0.72025,-1.3458 0.41455,-18.85741 -0.35972,-20.60928 -0.28971,-0.65539 -1.13552,-1.06185 -2.20972,-1.06185 -1.61748,0 -1.6986,0.10989 -1.14864,1.55643 0.89375,2.35073 0.71152,5.19355 -0.41247,6.43556 -0.75466,0.8339 -1.88552,1.10963 -4.55081,1.10963 -2.60193,0 -3.54661,0.22187 -3.54661,0.83296 0,0.55852 1.02102,0.93107 3.09856,1.1307 3.49565,0.33585 4.16017,1.0113 4.17346,4.2418 0.0129,3.19401 -1.72388,4.15578 -8.66073,4.79539 -3.07406,0.28346 -5.99877,0.7167 -6.49936,0.96281 -0.50059,0.24608 -10.6034,0.63577 -22.45069,0.86594 -11.84728,0.2302 -23.17881,0.65244 -25.18116,0.93832 l -3.64065,0.51984 6.88671,0.47723 c 3.78768,0.26247 8.97561,0.32162 11.52872,0.13145 3.65866,-0.27254 27.19038,0.37222 28.63998,0.78476 0.18356,0.0525 0.62262,-0.19391 0.97571,-0.54701 z m 111.46491,-7.09439 c -0.30143,-7.40914 -0.9924,-11.07365 -2.08801,-11.07365 -0.2803,0 -2.90942,0.56972 -5.84244,1.2661 -2.93302,0.69636 -7.51717,1.36986 -10.18698,1.49669 -4.80395,0.22819 -4.85586,0.24809 -5.01443,1.91947 -0.39033,4.11468 -0.89908,5.71705 -2.37006,7.46521 -1.89353,2.25033 -6.46505,4.66535 -9.85846,5.20798 -6.22943,0.99612 -0.99781,1.45458 16.59895,1.45458 h 19.07618 z M 199.24013,362.8445 c -0.57706,-11.52381 -1.64429,-23.32157 -2.2577,-24.95785 -0.53336,-1.42279 -0.56153,-1.42752 -1.80452,-0.30337 -0.69449,0.62808 -1.81912,2.23413 -2.49922,3.56904 -0.68012,1.3349 -1.87157,3.26127 -2.64771,4.28083 -0.77615,1.01955 -1.99913,3.20394 -2.71772,4.8542 -1.68073,3.85988 -2.81879,5.12419 -4.61246,5.12419 -2.00918,0 -6.0755,2.17536 -6.88151,3.68141 -0.94254,1.76114 0.0914,2.77311 2.94741,2.88503 1.28474,0.0503 3.50818,0.50511 4.94098,1.01065 3.30168,1.16491 11.16672,5.4889 12.15928,6.68487 0.4142,0.49907 1.42977,0.90741 2.25683,0.90741 h 1.50374 z m -23.51354,4.89256 c 0.12361,-0.86846 -0.31573,-1.65755 -1.27173,-2.28392 -4.10603,-2.69038 -3.48717,-9.13987 1.11482,-11.61821 1.15046,-0.61953 2.09175,-1.30332 2.09175,-1.51943 0,-0.21611 0.17062,-1.24622 0.37926,-2.28911 0.36504,-1.82528 0.30265,-1.89584 -1.66862,-1.88689 -2.90228,0.0129 -3.33191,0.4852 -3.81334,4.18962 -0.23509,1.80882 -0.79744,4.70938 -1.24969,6.44569 -0.45222,1.7363 -1.01106,4.66794 -1.24181,6.51474 -0.46364,3.71067 -0.12822,4.06623 3.6502,3.86928 1.37332,-0.0719 1.8667,-0.42073 2.00919,-1.42177 z m 9.41876,0.45681 c 0.33556,-0.33557 -0.71814,-0.93314 -2.66441,-1.51111 -1.7707,-0.52581 -3.30641,-0.95608 -3.4127,-0.95608 -0.1063,0 -0.19327,0.85627 -0.19327,1.9028 v 1.9028 l 2.85767,-0.39169 c 1.57172,-0.2154 3.10744,-0.64146 3.41271,-0.94674 z m 172.2592,-1.82925 c 5.83471,-2.21877 7.78118,-6.54028 5.20675,-11.55989 l -1.4004,-2.73049 -3.73238,-0.1791 c -2.05281,-0.0985 -7.24074,0.40262 -11.52872,1.11352 -6.82407,1.1314 -9.27196,1.24689 -19.62847,0.92602 -6.50766,-0.2016 -13.81172,-0.52121 -16.23123,-0.71023 l -4.39912,-0.34362 v 6.65553 c 0,6.3897 0.0546,6.67006 1.36524,7.01936 0.75089,0.20009 6.00708,0.21066 11.68042,0.0237 8.01073,-0.26434 11.26407,-0.13332 14.5626,0.58654 6.37892,1.39209 19.48305,0.95657 24.10531,-0.80115 z M 224.68903,362.7632 c -0.0251,-3.14057 -0.38171,-5.485 -1.0377,-6.82621 -0.54953,-1.12354 -1.3407,-2.9671 -1.75818,-4.09681 l -0.75907,-2.05402 -5.80848,0.38617 c -3.19466,0.21238 -7.37617,0.86365 -9.29225,1.44724 l -3.48377,1.06108 0.009,4.24742 c 0.0115,5.27235 0.80213,8.83145 2.18667,9.84384 0.75219,0.55003 3.80364,0.77472 10.52078,0.77472 h 9.4613 l -0.0388,-4.78343 z m 12.58805,3.16893 c 0.55176,-0.33635 0.59172,-8.99235 0.0618,-13.40318 l -0.38264,-3.18557 h -5.75559 -5.75569 l 0.37394,1.86954 c 0.20562,1.02825 0.9224,2.56684 1.59279,3.41909 1.01516,1.29058 1.21888,2.46039 1.21888,6.9994 v 5.44982 l 4.09573,-0.43582 c 2.25265,-0.2397 4.30052,-0.56067 4.55081,-0.71325 z m 45.96322,-1.60667 c 2.83667,-0.53573 6.24978,-1.07643 7.58469,-1.20155 l 2.4271,-0.22747 -2.48475,-0.10199 c -2.82758,-0.11607 -4.15582,-1.27324 -4.76751,-4.15344 -0.884,-4.16246 1.99458,-6.59282 7.25226,-6.123 1.28584,0.11492 1.82032,-0.10457 1.82032,-0.74751 0,-0.93768 -2.32623,-1.13874 -25.18116,-2.17647 -9.33677,-0.42397 -19.09355,0.52423 -24.63737,2.39433 -3.48228,1.17467 -4.17718,1.63118 -4.14111,2.72055 0.0237,0.71996 0.0921,3.35211 0.15172,5.84923 l 0.10838,4.54022 15.01769,0.19628 c 19.22667,0.25133 20.6616,0.19951 26.8498,-0.96918 z m 94.43799,-12.03727 c 2.38254,-0.36654 4.65083,-0.86349 5.04065,-1.10441 0.77209,-0.47715 -0.28591,-2.43232 -4.36665,-8.0695 -1.25147,-1.72879 -2.2754,-3.33699 -2.2754,-3.57378 0,-0.23681 -0.55255,-0.60587 -1.22788,-0.82023 -0.6753,-0.21432 -3.61061,-2.4132 -6.52283,-4.88635 -3.68426,-3.12879 -5.78839,-4.4993 -6.91703,-4.50538 -2.11499,-0.0115 -5.10373,-2.56265 -6.04209,-5.15765 -0.45164,-1.24904 -1.26561,-2.18613 -2.07536,-2.38937 -1.81467,-0.45545 -8.65493,-7.86961 -9.1521,-9.91995 -0.22071,-0.91035 -1.11183,-2.67329 -1.9802,-3.91764 -1.45092,-2.07912 -1.81719,-2.2635 -4.52013,-2.2754 -2.80791,-0.0122 -3.10369,-0.18313 -6.52283,-3.76522 -2.6648,-2.79179 -3.58156,-4.19736 -3.58156,-5.49111 0,-2.0089 1.4433,-5.09243 2.55744,-5.46381 0.48657,-0.16221 -0.11456,-1.25074 -1.66057,-3.00714 -1.33277,-1.5141 -3.46182,-4.64763 -4.73123,-6.96339 -1.61784,-2.95137 -3.73399,-5.51485 -7.07651,-8.57235 -3.30262,-3.02101 -4.9942,-5.06261 -5.50274,-6.64135 -1.41949,-4.40679 -1.35549,-4.43341 -10.22224,4.25195 -6.78373,6.64493 -9.01018,8.44041 -12.50115,10.08131 -2.33607,1.09805 -5.61266,2.88944 -7.28129,3.98087 -1.66864,1.0914 -5.56017,3.63706 -8.64784,5.657 -3.08768,2.01994 -7.59299,4.49941 -10.01179,5.50993 -2.41881,1.01053 -8.08399,3.72636 -12.5893,6.03519 -4.5053,2.30882 -9.5567,4.63732 -11.22533,5.17445 -10.5082,3.38258 -15.24031,5.15077 -23.09829,8.63088 -3.35972,1.48793 -6.43657,2.70534 -6.83744,2.70534 -0.40089,0 -3.65908,0.93874 -7.24047,2.0861 -3.58139,1.14737 -8.27572,2.535 -10.43186,3.08363 -2.15613,0.54867 -4.61357,1.47633 -5.46097,2.06153 -1.79553,1.23999 -8.57373,3.9678 -11.3354,4.56182 -1.04862,0.22553 -3.12594,1.18339 -4.61626,2.12853 l -2.70969,1.71843 -0.32083,5.98411 c -0.17645,3.29126 -0.22057,6.15428 -0.098,6.36226 0.12261,0.208 1.7982,-0.0237 3.72358,-0.51524 1.92539,-0.49139 6.34807,-1.00977 9.82818,-1.15199 3.52376,-0.14403 6.70388,-0.57094 7.17695,-0.96357 0.46716,-0.38774 1.49942,-1.98763 2.29383,-3.55533 2.03914,-4.02404 5.22056,-7.23767 7.16515,-7.23767 2.33973,0 3.30099,1.9962 4.40309,9.14367 1.32354,8.58371 0.97851,8.00598 4.01065,6.71547 1.43124,-0.60918 4.65012,-1.29984 7.15307,-1.53485 8.58984,-0.80657 24.55867,-1.53293 25.96128,-1.18089 0.93198,0.23394 1.52058,0.93891 1.75265,2.09924 0.41377,2.06886 0.77842,2.1082 5.25756,0.56713 4.3941,-1.51178 12.9573,-2.46072 22.20555,-2.46072 h 7.28963 l 1.0104,-1.97202 c 0.55571,-1.08461 1.31363,-2.17263 1.68422,-2.41782 1.34007,-0.88658 8.2013,-0.46917 11.11821,0.67638 1.59755,0.62744 5.49861,1.34026 8.66901,1.5841 3.1704,0.24385 6.09845,0.7136 6.50678,1.04393 0.4083,0.33032 0.91213,1.50529 1.11957,2.61104 l 0.37718,2.01044 5.55495,0.3439 c 18.09782,1.12051 26.09099,1.07477 34.31357,-0.19635 13.36932,-2.06674 17.82705,-1.61296 19.97866,2.03374 1.13851,1.92963 1.25866,1.97423 4.73387,1.75718 1.96115,-0.12247 5.51506,-0.52258 7.89761,-0.88909 z m 18.47367,-0.58129 c -0.31975,-0.79934 -0.59861,-1.13436 -0.61982,-0.74449 -0.0517,0.94694 0.65547,2.74354 0.95969,2.43929 0.13282,-0.13282 -0.0201,-0.89546 -0.33987,-1.6948 z m -212.5137,-2.36352 c 0.56361,-1.61678 0.50238,-1.82032 -0.54744,-1.82032 -0.90881,0 -1.18199,0.42073 -1.18199,1.82032 0,1.00118 0.24637,1.82033 0.54744,1.82033 0.30107,0 0.83298,-0.81915 1.18199,-1.82033 z m 204.88012,-9.06536 -0.43917,-6.13581 -2.65034,2.44299 c -1.45769,1.34366 -3.22529,2.44301 -3.92801,2.44301 -1.45073,0 -1.48701,-0.15776 0.94716,4.1177 1.32348,2.32456 2.31719,3.33527 3.64066,3.70288 1.00118,0.27807 2.05624,0.29402 2.34459,0.0352 0.28835,-0.25867 0.32665,-3.2314 0.0851,-6.6061 z m -99.81711,6.12888 c 0,-0.98217 -3.12204,-1.91772 -6.39969,-1.91772 -2.45006,0 -3.30871,0.22309 -3.30871,0.8596 0,0.47277 0.34132,0.99732 0.75847,1.16564 1.29504,0.52258 8.94993,0.43058 8.94993,-0.10752 z m 94.10817,-12.27421 c 2.03954,-1.45229 2.1804,-2.73265 0.76791,-6.98021 -0.81274,-2.44405 -8.65573,-15.17083 -9.0376,-14.66526 -0.0611,0.0804 -2.05444,3.36841 -4.43038,7.3066 l -4.31991,7.16031 1.95814,1.71495 c 6.55027,5.7367 7.99205,6.63989 10.66272,6.67943 1.74261,0.0259 3.23446,-0.38652 4.39912,-1.21582 z m -208.54527,-7.96341 c 2.03536,-0.66229 6.00216,-2.27743 8.81513,-3.58917 2.81296,-1.31174 6.77217,-2.80543 8.79824,-3.31931 2.02606,-0.51388 5.18552,-1.44831 7.02102,-2.0765 1.83549,-0.62816 4.99495,-1.56261 7.02102,-2.0765 2.02606,-0.51388 5.98527,-2.00757 8.79824,-3.31931 2.81296,-1.31174 6.77976,-2.92687 8.81513,-3.58917 2.03535,-0.66229 4.49279,-1.61004 5.46097,-2.10608 0.96818,-0.49605 3.92867,-1.49355 6.57887,-2.21669 2.6502,-0.72314 7.94025,-2.9599 11.75569,-4.97058 3.81544,-2.01068 9.42898,-4.74786 12.47456,-6.08263 4.62506,-2.02701 13.67264,-7.36119 20.44965,-12.0565 0.85976,-0.59567 3.72678,-2.17424 6.37114,-3.50793 3.85184,-1.94267 6.13522,-3.73931 11.48246,-9.0348 3.67099,-3.63546 9.09141,-8.78302 12.04539,-11.43904 7.79465,-7.00841 14.68863,-16.19129 8.99558,-11.98224 -0.93399,0.69054 -3.37154,2.10023 -5.41678,3.13267 -2.04524,1.03243 -5.71474,3.55206 -8.15447,5.59918 -5.78967,4.85801 -10.53388,8.16269 -16.87474,11.7545 -6.14802,3.48257 -8.76655,5.17579 -13.63677,8.81796 -2.01097,1.50389 -5.70419,3.80688 -8.20713,5.11774 -5.07712,2.65904 -13.18377,7.86957 -18.5862,11.94626 -4.25598,3.21158 -12.07982,8.41668 -12.65118,8.41668 -0.22359,0 -2.27668,1.09219 -4.56235,2.4271 -5.60892,3.27578 -8.2156,3.16652 -10.22758,-0.42871 -0.49203,-0.87921 -0.74807,-0.85334 -2.59219,0.26182 -1.12542,0.68055 -3.35057,1.42395 -4.94478,1.65194 -6.76601,0.96758 -20.09917,7.05024 -30.74776,14.02729 -3.78235,2.47823 -7.01076,4.14464 -8.39665,4.33409 -2.82836,0.38667 -8.38054,5.02641 -7.80612,6.52332 0.34426,0.89704 0.53343,0.89565 2.29804,-0.0165 1.05761,-0.54694 3.58821,-1.53627 5.62357,-2.19857 z m 214.64579,-15.35612 c 0.21683,-0.3337 0.48822,-2.45411 0.60314,-4.71196 l 0.20893,-4.10518 -6.1595,-0.29654 -6.1595,-0.29654 -0.208,3.42953 c -0.25277,4.16769 0.15143,5.17864 4.87523,12.19281 2.04326,3.03396 3.71501,5.68493 3.71501,5.89104 0,0.20612 0.47363,1.3899 1.05256,2.63066 l 1.05256,2.25591 0.31271,-8.19146 c 0.17199,-4.5053 0.49009,-8.46452 0.70686,-8.79824 z m -26.05841,13.19736 c 0.50525,-0.58403 3.29065,-5.0175 6.18985,-9.85218 4.3197,-7.20348 5.23883,-9.16668 5.09152,-10.87505 -0.23847,-2.76566 -1.45232,-3.06455 -1.93772,-0.47715 -0.37172,1.98148 -8.15893,13.14284 -11.95672,17.13751 -2.03931,2.14503 -2.10979,2.52079 -0.75386,4.01907 1.25891,1.39108 2.19342,1.40435 3.36693,0.0474 z m -194.78004,-2.99571 c 1.43438,-1.37421 1.70184,-2.12287 1.70184,-4.76365 0,-1.72325 -0.25047,-3.92482 -0.55664,-4.89238 -0.3061,-0.96754 -0.72092,-2.51005 -0.92173,-3.4278 -0.20081,-0.91775 -0.60846,-1.66863 -0.90588,-1.66863 -0.86641,0 -5.50386,3.19566 -5.50386,3.79272 0,0.92027 3.88924,12.59021 4.19595,12.59021 0.15869,0 1.05429,-0.73371 1.99029,-1.63047 z m 189.21815,-3.67882 c 3.85901,-4.425 9.98044,-12.86924 11.03724,-15.22537 1.17273,-2.61461 1.17265,-2.64482 -0.0122,-3.94404 -0.65668,-0.72009 -1.76604,-2.53797 -2.46515,-4.03974 -0.69909,-1.50176 -1.61922,-3.27659 -2.04469,-3.94403 -0.42548,-0.66747 -0.80522,-1.2907 -0.84389,-1.38499 -0.0388,-0.0943 -3.45178,1.97183 -7.58469,4.59137 -5.19646,3.29365 -7.77256,5.3118 -8.35137,6.54257 -0.46034,0.97888 -1.37675,2.37433 -2.03645,3.10102 -1.19816,1.3198 -1.19783,1.32346 0.30222,3.33727 0.82594,1.1088 1.69086,2.81301 1.92205,3.78714 0.37783,1.59214 7.09692,8.84744 8.19353,8.84744 0.23552,0 1.08308,-0.75089 1.88345,-1.66864 z m -181.36191,-2.5587 c -0.11924,-1.49071 -0.46055,-3.35156 -0.75848,-4.13522 -0.2979,-0.78367 -0.54169,-2.92783 -0.54169,-4.76482 0,-3.1166 -0.0913,-3.32699 -1.36524,-3.14606 -1.19479,0.16968 -1.35837,0.53479 -1.31013,2.92438 0.0302,1.50177 0.43489,4.85732 0.89904,7.45678 0.74457,4.16982 0.98812,4.70562 2.0686,4.55081 1.05834,-0.15165 1.19524,-0.54356 1.00792,-2.88587 z m 7.09192,-1.58067 c 7.92958,-5.34009 25.67907,-13.00203 30.12025,-13.00203 1.81608,0 5.16653,-1.87566 5.17161,-2.89518 0.002,-0.42433 -0.64037,-1.78956 -1.4278,-3.03388 -0.78739,-1.24432 -2.16415,-3.55938 -3.05945,-5.14458 -0.89531,-1.5852 -1.72511,-2.88218 -1.84402,-2.88218 -0.54335,0 -7.20663,3.71895 -8.97949,5.01171 -2.9266,2.13403 -6.37427,3.35286 -10.52982,3.72252 -4.527,0.4027 -8.23274,2.016 -11.59311,5.04705 -2.24199,2.02228 -2.55539,2.62614 -2.60987,5.02875 -0.0813,3.5838 0.67206,10.31517 1.15446,10.31517 0.20843,0 1.82715,-0.97531 3.59724,-2.16735 z m -18.54641,-9.4075 c 1.74701,-1.02654 4.10417,-2.52831 5.23812,-3.33726 1.40658,-1.00342 2.8827,-1.47082 4.6451,-1.47082 2.06223,0 3.09458,-0.42713 5.11765,-2.11734 3.49405,-2.9192 7.43532,-4.54722 12.44651,-5.14128 5.17329,-0.61328 5.92323,-0.8865 9.48631,-3.45597 1.54648,-1.11523 3.02426,-2.02768 3.28395,-2.02768 0.25967,0 1.65393,-0.69255 3.09829,-1.53901 l 2.62611,-1.539 -1.59157,-2.40504 c -0.87538,-1.32276 -1.72404,-2.40503 -1.88593,-2.40503 -0.16193,0 -1.2273,0.81915 -2.36758,1.82033 -1.14028,1.00118 -2.34337,1.82032 -2.67352,1.82032 -0.33018,0 -1.96324,0.93754 -3.62906,2.08342 -3.00217,2.06514 -6.99594,3.49731 -11.95191,4.28601 -1.82817,0.29093 -3.40913,1.16267 -5.47171,3.01711 -1.59538,1.43438 -5.48981,3.82876 -8.65431,5.32086 -5.80598,2.73758 -11.51133,6.79941 -11.51565,8.19836 -0.003,1.05999 0.221,0.99459 3.7992,-1.10798 z m 177.38151,-3.23046 c 1.13467,-1.13467 2.06304,-2.44883 2.06304,-2.92035 0,-1.31008 2.76299,-3.57523 9.10162,-7.46168 3.17041,-1.94389 6.2422,-4.06496 6.82623,-4.71349 2.28468,-2.53704 0.4622,-7.4218 -3.35962,-9.00487 -1.79212,-0.74231 -1.88873,-0.68414 -5.83003,3.51111 -2.20424,2.34626 -4.92007,4.73662 -6.03518,5.31191 -1.11512,0.57526 -4.11865,2.80002 -6.67453,4.94383 -2.55588,2.14381 -4.9748,3.89871 -5.37538,3.89977 -0.40053,0.001 -0.99234,0.47378 -1.31505,1.0504 -0.46242,0.82631 -0.0553,1.62979 1.92064,3.79235 3.96208,4.33581 5.62805,4.64124 8.67826,1.59102 z M 231.48046,297.6431 c 3.27157,-1.73705 8.13271,-4.7323 10.80252,-6.6561 2.66981,-1.92382 7.78947,-5.46121 11.37703,-7.86087 3.58756,-2.39966 6.52284,-4.54124 6.52284,-4.75906 0,-0.8591 -3.15983,-6.87499 -5.65892,-10.77382 -3.33441,-5.20202 -5.26213,-10.32363 -5.26623,-13.99141 -0.004,-3.36159 -0.68249,-4.52871 -6.13909,-10.55602 -2.21021,-2.44139 -5.00033,-5.98232 -6.20027,-7.86873 -1.94603,-3.05934 -5.11316,-6.31822 -5.63407,-5.7973 -0.10716,0.10716 0.62025,1.81757 1.61651,3.80085 3.00931,5.99064 6.04494,13.04153 6.04494,14.04066 0,0.51761 -1.77482,2.69851 -3.94404,4.84649 -2.16923,2.14798 -3.94404,4.162 -3.94404,4.47559 0,0.31357 0.72456,0.57015 1.61014,0.57015 1.82254,0 5.77051,3.83891 6.74774,6.56133 2.20923,6.15458 3.18232,9.86084 3.17698,12.10039 -0.006,2.32095 -0.35921,2.94413 -3.49585,6.15964 -2.92626,2.99983 -3.93047,3.64328 -6.21944,3.98515 -3.43014,0.51229 -5.32502,-0.20297 -9.20168,-3.47336 -2.24126,-1.89076 -3.68836,-3.86602 -5.42222,-7.40119 -2.433,-4.96063 -2.86154,-7.37563 -1.69546,-9.55446 0.64928,-1.21318 0.56182,-1.2406 -2.88219,-0.90387 -5.13096,0.50166 -9.31613,1.14125 -9.31613,1.4237 0,0.75616 3.56992,7.16465 6.029,10.82286 1.57033,2.33609 4.51015,7.11444 6.53293,10.61857 6.48308,11.23085 7.75629,13.30309 8.18786,13.32631 0.23257,0.0122 3.09956,-1.39849 6.37114,-3.13553 z m -69.1494,0.82178 c 2.13839,-1.83081 2.13265,-2.35525 -0.0822,-7.50412 -0.53371,-1.24075 -0.9704,-2.94731 -0.9704,-3.79234 0,-1.57891 -0.40671,-1.80796 -2.07408,-1.16812 -1.76208,0.67616 -1.09676,14.26356 0.69384,14.16963 0.25859,-0.0136 1.35332,-0.78083 2.43283,-1.70505 z m 227.16423,-1.15246 c 1.78132,-1.4991 2.57153,-1.69946 7.77737,-1.97203 6.42926,-0.33664 6.71056,-0.54025 7.62825,-5.52283 0.37279,-2.02408 0.24738,-2.2771 -1.69694,-3.42429 -1.1547,-0.68134 -2.92089,-1.41914 -3.92486,-1.63965 -1.00396,-0.2205 -3.97295,-1.33846 -6.59775,-2.48435 -5.19862,-2.26953 -7.18762,-2.58137 -7.71408,-1.20944 -0.18758,0.48886 -0.49648,3.01454 -0.68637,5.61267 -0.18995,2.59812 -0.48283,6.43041 -0.65094,8.5162 l -0.30559,3.79234 h 2.09406 c 1.39923,0 2.75195,-0.55362 4.07683,-1.66862 z m -9.53928,-0.50476 c 0.2026,-0.52789 0.36604,-1.96138 0.3633,-3.18556 -0.007,-3.27876 1.21374,-16.98746 1.7805,-19.98812 0.45394,-2.4035 0.35928,-2.70277 -1.29618,-4.09573 -3.45007,-2.90304 -3.81655,-2.36276 -3.81655,5.62636 0,3.92155 -0.24178,10.61145 -0.53724,14.86646 l -0.53724,7.73639 h 1.83759 c 1.11587,0 1.98222,-0.37696 2.20587,-0.9598 z m -210.49116,-2.78889 c 1.07388,-0.4893 1.44588,-1.01582 1.17894,-1.66863 -0.72417,-1.77098 -2.08399,-8.82703 -2.08399,-10.81366 0,-2.32241 -0.3503,-2.4247 -2.2363,-0.65295 -1.12481,1.05672 -1.40435,1.95844 -1.40435,4.53023 0,1.766 0.38961,4.10757 0.86587,5.20351 0.47622,1.09593 1.01375,2.47044 1.1945,3.05446 0.38962,1.25888 0.46185,1.26897 2.48533,0.34699 z m 203.65055,-4.13935 c 0.73262,-8.8724 0.60034,-20.02358 -0.23753,-20.02358 -0.42455,0 -1.72154,-0.77008 -2.88218,-1.71127 -2.05811,-1.66898 -9.04976,-5.85379 -9.12692,-5.46287 -0.0216,0.10795 -0.12628,1.08588 -0.23323,2.17323 -0.10694,1.08735 -0.50058,2.34583 -0.8747,2.79661 -0.87082,1.04927 0.3958,4.81826 2.83311,8.43041 2.17867,3.22883 3.00574,5.40246 3.5184,9.24666 0.22251,1.66862 0.77034,3.45344 1.21738,3.96624 0.44704,0.51281 1.24378,1.96386 1.77054,3.22457 0.75344,1.80324 1.24376,2.25152 2.29855,2.10151 1.20687,-0.17163 1.37834,-0.64526 1.71658,-4.74151 z m -194.33844,-1.47946 c 2.94404,-2.63175 3.834,-3.03821 9.25077,-4.22491 4.52465,-0.99126 12.60329,-5.12972 15.32326,-7.8497 1.11387,-1.11386 1.0885,-1.2469 -1.15936,-6.07956 -2.92313,-6.2844 -3.81965,-7.67125 -4.95902,-7.67125 -1.49221,0 -6.88405,4.13232 -10.37946,7.95483 -4.07683,4.45836 -6.09709,5.70075 -10.86035,6.67872 -3.78797,0.77773 -3.79235,0.7811 -3.79235,2.91877 0,1.17708 0.45315,4.24881 1.00696,6.82606 1.13675,5.28998 1.24049,5.31693 5.56955,1.44704 z m 154.82567,-3.94426 c 0,-0.56526 -1.75083,-2.97166 -3.89074,-5.3476 -2.13992,-2.37595 -4.08805,-4.95185 -4.32919,-5.72423 -0.24113,-0.77237 -1.49384,-2.67093 -2.78378,-4.21901 -3.18575,-3.82329 -3.16616,-5.83825 0.0818,-8.41065 2.2092,-1.74972 2.4273,-2.17647 2.42937,-4.7535 0.003,-3.80658 1.79749,-6.77523 4.09538,-6.77523 0.92861,0 2.69296,0.68264 3.92076,1.51694 1.22781,0.83432 2.37028,1.51694 2.53882,1.51694 0.16853,0 1.13927,-1.21051 2.1572,-2.69001 3.1599,-4.59276 5.51078,-4.30338 8.0893,0.99573 0.8594,1.76617 2.38545,4.98604 3.39121,7.15525 2.1228,4.57841 5.97426,8.74289 7.31779,7.91254 1.20409,-0.74416 -0.0101,-4.79477 -2.64476,-8.82607 -1.09191,-1.67048 -2.47309,-3.99139 -3.06929,-5.15759 -0.59617,-1.16618 -2.67434,-4.49135 -4.61809,-7.38925 -1.94375,-2.8979 -3.94099,-6.24275 -4.43831,-7.433 -0.49735,-1.19024 -1.04698,-2.16408 -1.22148,-2.16408 -0.29316,0 -6.74878,4.82889 -14.00386,10.47513 -1.66864,1.29861 -4.19634,3.91 -5.61712,5.80308 -1.42078,1.8931 -3.96235,4.6707 -5.64795,6.17247 l -3.06471,2.73049 1.21921,2.73049 c 0.72747,1.62919 3.20739,4.68835 6.14855,7.58468 2.71113,2.66982 5.49338,5.9464 6.18277,7.28131 0.68939,1.33491 2.32823,4.01311 3.64186,5.95157 1.95322,2.88225 2.54576,3.3939 3.25186,2.80789 0.47493,-0.39414 0.86344,-1.17906 0.86344,-1.74429 z m 8.99958,-2.73802 c 1.11192,-0.56232 3.80722,-2.91518 5.98956,-5.22857 3.3875,-3.59093 4.26777,-4.20617 6.0181,-4.20617 1.12762,0 2.05021,-0.11421 2.05021,-0.25378 0,-1.06193 -0.91685,-2.17334 -1.79287,-2.17334 -1.66137,0 -7.47249,-6.62549 -9.0473,-10.31518 -3.14207,-7.36169 -3.80869,-8.64649 -4.21659,-8.12675 -0.23394,0.29812 -1.17843,1.38059 -2.09879,2.40546 l -1.67338,1.86339 3.15171,4.48789 c 5.12378,7.29599 6.60193,12.69273 4.14849,15.14616 -2.97017,2.97017 -5.77413,1.19681 -12.74227,-8.05884 -2.16922,-2.88133 -4.23775,-5.25036 -4.59674,-5.2645 -0.359,-0.0144 -1.28061,0.64267 -2.04806,1.45959 l -1.39537,1.4853 1.91267,2.41494 c 1.05197,1.32821 2.20509,3.25379 2.5625,4.27906 0.35742,1.02527 0.8485,1.86413 1.09131,1.86413 0.81082,0 6.73193,7.73801 7.41041,9.68429 0.66876,1.91845 0.67013,1.91896 1.96199,0.73953 0.71102,-0.64914 2.20251,-1.64032 3.31442,-2.20263 z m -180.99647,-1.57157 c 3.32476,-3.4703 7.1131,-5.41406 12.34443,-6.33382 5.56892,-0.97911 7.27785,-2.0272 11.74481,-7.20313 1.58177,-1.83283 4.48559,-4.31022 6.45292,-5.50532 l 3.57698,-2.17289 -3.70307,-7.33678 -3.70307,-7.33678 -1.8397,2.24586 c -3.87574,4.73139 -9.28594,9.57378 -13.36843,11.96541 -8.40319,4.9228 -12.89361,8.85505 -13.31138,11.65676 -0.59567,3.99449 -0.88459,11.86592 -0.43561,11.86592 0.26082,0 1.26978,-0.83035 2.2421,-1.84523 z m 74.70599,-1.02372 c 1.44869,-1.57794 2.63033,-3.28449 2.62586,-3.79234 -0.0194,-2.17954 -3.0144,-10.08775 -4.54927,-12.01135 -1.52166,-1.90704 -1.88945,-2.06665 -4.08386,-1.77232 -1.37752,0.18478 -3.35921,1.08481 -4.62154,2.09903 -1.21548,0.97657 -3.09738,2.23433 -4.18199,2.79503 -1.08461,0.56074 -1.97202,1.42982 -1.97202,1.93135 0,1.94679 3.71081,8.12138 6.48837,10.79631 2.44909,2.35859 3.29687,2.81002 5.28855,2.81605 2.0563,0.006 2.72239,-0.37459 5.0059,-2.86176 z m 157.7679,-2.13694 c -0.18456,-1.08462 -0.7743,-5.65818 -1.31052,-10.16349 -0.53623,-4.5053 -1.26298,-9.28365 -1.61501,-10.61856 -0.35202,-1.33491 -0.86426,-4.33844 -1.13831,-6.67453 -0.46565,-3.96922 -0.86542,-6.0629 -2.31735,-12.1355 -0.31918,-1.3349 -0.86047,-3.65582 -1.20289,-5.15759 -0.34239,-1.50177 -1.4567,-5.46097 -2.47616,-8.79824 -1.01946,-3.33726 -1.85833,-7.14056 -1.86415,-8.45177 -0.0108,-2.3681 -0.22805,-3.32282 -2.08355,-9.14471 -0.53178,-1.66863 -0.96558,-3.64823 -0.96393,-4.39912 0.008,-3.74882 -4.71742,1.14642 -6.57797,6.81401 -1.81394,5.52567 -2.59451,6.87787 -5.65755,9.80071 -3.7652,3.59285 -9.25087,7.0871 -14.1562,9.01716 -5.30065,2.08562 -8.78746,4.0429 -8.79356,4.93617 -0.009,1.40927 2.02598,5.46213 4.52215,9.00353 1.41931,2.01363 3.75751,5.70902 5.19597,8.21196 3.27008,5.68996 5.36825,8.49485 6.35446,8.49485 0.42009,0 1.12145,0.43087 1.55851,0.9575 0.43705,0.5266 2.17705,1.64936 3.86664,2.49498 1.68959,0.84561 3.97645,2.21644 5.08188,3.0463 1.85452,1.39219 2.09275,1.43385 3.08166,0.53889 0.58949,-0.53342 1.68153,-0.96993 2.4268,-0.96993 1.80515,0 7.48474,2.72273 8.86801,4.25122 1.03132,1.1396 1.11606,1.91121 0.7238,6.59082 -0.10515,1.25393 0.38206,1.61347 3.82358,2.82187 5.14976,1.80819 5.0426,1.81894 4.65369,-0.46652 z m -117.9302,-7.98281 c 2.27394,-1.77318 6.77924,-4.67157 10.01178,-6.44088 3.23253,-1.7693 7.57495,-4.44768 9.64983,-5.95195 l 3.7725,-2.73503 -2.59657,-3.6899 c -1.42811,-2.02943 -3.37971,-5.05513 -4.33688,-6.72376 -2.62516,-4.57639 -6.59818,-9.85621 -10.28444,-13.66714 -1.81739,-1.87886 -4.23862,-4.83475 -5.38053,-6.56865 l -2.0762,-3.15255 -0.32601,2.43059 c -0.19362,1.44351 -1.10996,3.42041 -2.25644,4.86795 -1.67851,2.1193 -1.78022,2.43736 -0.77941,2.43736 1.65933,0 4.04211,2.86317 5.30218,6.37114 0.59941,1.66863 2.00952,4.92883 3.13364,7.24488 2.43576,5.01844 2.68633,8.83721 0.81992,12.49568 -1.54303,3.0246 -4.253,4.22706 -9.52652,4.22706 h -3.92775 l -6.99056,-5.85891 c -7.64922,-6.41092 -9.05331,-8.48999 -8.41776,-12.46449 l 0.36892,-2.30696 h -3.74019 -3.74019 l 3.37198,3.53517 c 3.46203,3.62958 4.69093,6.35042 4.69744,10.40037 0.005,2.88168 1.58193,6.83819 4.65065,11.66579 1.41973,2.23344 3.41683,5.71597 4.43804,7.73895 l 1.85672,3.67816 4.0857,-2.15446 c 2.24712,-1.18496 5.9462,-3.60525 8.22016,-5.37842 z m 66.55483,2.71303 c 0,-2.10032 -7.12604,-13.57307 -8.83884,-14.23034 -0.47823,-0.18356 -0.86956,-0.74553 -0.86956,-1.2489 0,-1.12991 -2.74704,-3.01242 -3.61397,-2.47662 -1.24231,0.76778 -0.59524,2.68306 1.98556,5.87693 1.44045,1.78265 3.73141,4.74295 5.09102,6.57845 3.93656,5.31447 6.24579,7.34813 6.24579,5.50048 z M 214.9781,260.95646 c 7.38417,-0.27419 9.95365,-1.12598 11.30483,-3.74766 1.114,-2.16148 6.38616,-8.72834 7.51441,-9.35974 0.49555,-0.27728 0.90095,-0.93624 0.90095,-1.46429 0,-1.17726 -5.24662,-12.88758 -6.33923,-14.14899 -0.4336,-0.50058 -0.97403,-2.00236 -1.20096,-3.33726 -0.85084,-5.00509 -0.45099,-4.91418 -6.76676,-1.53851 -3.14415,1.6805 -8.24233,4.39967 -11.3293,6.0426 -3.08697,1.64293 -8.14049,3.99335 -11.23006,5.22316 -3.08955,1.22979 -5.77576,2.49227 -5.96934,2.80549 -0.19362,0.31322 0.87496,1.64949 2.37454,2.96947 1.49959,1.31998 3.60444,3.96948 4.67745,5.88777 4.20058,7.50962 7.36054,11.77441 8.3986,11.33499 0.54471,-0.23056 3.99388,-0.53069 7.66487,-0.66703 z m 240.49294,0.0331 c 1.88686,-0.53818 6.98029,-2.70629 11.31873,-4.81795 5.05692,-2.46137 9.30366,-4.09294 11.83211,-4.5458 2.16923,-0.38853 4.50232,-0.80555 5.18467,-0.92671 0.68235,-0.12117 3.22277,-2.52924 5.64539,-5.35129 5.64003,-6.56998 9.00198,-9.29937 12.8692,-10.4478 2.50102,-0.74272 3.01877,-1.1179 2.68245,-1.94382 -0.2292,-0.56289 -0.62729,-1.72202 -0.88465,-2.57583 -1.01862,-3.37967 -2.53425,-5.34237 -6.79431,-8.79849 -4.97593,-4.03688 -11.76748,-10.71291 -13.41765,-13.18942 -1.52836,-2.29371 -3.60039,-2.66578 -5.86508,-1.05317 -1.67928,1.19575 -2.37391,1.28418 -7.76178,0.98811 -3.2546,-0.17889 -10.69581,-0.5529 -16.53602,-0.8312 -5.84021,-0.27828 -11.33033,-0.81111 -12.20027,-1.18402 -2.92131,-1.25227 -8.2123,-4.91193 -11.66918,-8.07132 -2.26351,-2.06872 -3.51669,-2.85644 -3.68694,-2.31751 -0.14187,0.44905 -0.42749,3.59586 -0.63476,6.99295 -0.20728,3.39708 -0.6518,7.76586 -0.98781,9.7084 -0.49562,2.86548 -1.03438,15.01112 -1.35964,30.65279 -0.0273,1.31372 0.37941,2.71387 0.98156,3.37927 0.56548,0.62484 4.65279,3.10027 9.08285,5.50087 4.43006,2.40061 9.55208,5.5714 11.38227,7.0462 3.79269,3.05625 5.42188,3.32516 10.81889,1.78571 z M 174.22943,253.9108 c 1.50262,-0.9272 4.18651,-3.35604 5.9642,-5.39742 7.50865,-8.62241 9.21187,-9.92262 17.72659,-13.53213 9.06225,-3.84163 13.11384,-6.0893 13.11384,-7.27505 0,-0.86427 -3.07702,-4.85345 -9.67574,-12.54401 -10.82414,-12.61513 -10.92474,-13.47427 -2.6409,-22.55307 1.76826,-1.93795 3.21442,-3.8493 3.21372,-4.24743 -6.2e-4,-0.39816 -0.78397,-2.22565 -1.74055,-4.06114 -0.95659,-1.8355 -2.05044,-4.30386 -2.43081,-5.48525 -0.38034,-1.18139 -2.018,-3.53868 -3.63919,-5.23841 -1.6212,-1.69973 -4.26906,-4.9654 -5.88412,-7.25703 -1.61506,-2.29164 -3.83601,-5.23968 -4.93543,-6.55123 -1.09943,-1.31154 -1.99896,-2.60043 -1.99896,-2.8642 0,-1.48968 -3.26022,-7.19083 -5.15263,-9.01039 -1.21481,-1.16804 -2.78424,-3.07938 -3.48762,-4.24743 -0.70341,-1.16804 -1.35883,-2.22831 -1.45653,-2.35615 -0.0977,-0.12786 -1.11159,0.58755 -2.25308,1.58981 -1.14149,1.00224 -3.74462,2.7399 -5.78474,3.86146 l -3.7093,2.0392 0.0158,3.3489 c 0.0302,6.43384 1.17693,14.90401 2.46629,18.21489 1.51831,3.89878 2.2197,7.9854 3.0201,17.59648 0.31961,3.83785 0.89386,10.2545 1.27611,14.25921 0.88647,9.28729 0.83728,33.47794 -0.0798,39.25987 -0.74863,4.71971 -1.36376,8.22789 -2.49531,14.2313 -0.38724,2.05459 -0.52516,4.02517 -0.30646,4.37906 0.24666,0.39918 1.86794,-0.32802 4.27015,-1.91529 2.12986,-1.4073 5.1019,-3.31735 6.60453,-4.24455 z m 100.43644,2.01204 c 4.43952,-1.27325 4.8234,-4.77795 1.33916,-12.22603 -1.30959,-2.79944 -2.55468,-5.77251 -2.76687,-6.60683 -0.21216,-0.83431 -0.76838,-2.03243 -1.23598,-2.66247 -0.83042,-1.11894 -0.9458,-1.11448 -4.96951,0.1924 -6.83521,2.22004 -9.46126,3.74355 -10.65296,6.1804 -0.74211,1.5175 -0.91473,2.62027 -0.56016,3.57871 0.28188,0.76193 3.35851,3.78915 6.837,6.72716 6.68952,5.6501 7.6959,6.05373 12.00934,4.81666 z m -160.57388,-2.90501 c 0.51525,-0.58402 1.95882,-3.10972 3.2079,-5.61267 1.24909,-2.50295 3.07351,-5.72023 4.05427,-7.14952 0.98076,-1.42928 2.87263,-5.05309 4.20418,-8.0529 2.48191,-5.59152 2.567,-6.64701 0.76617,-9.5042 -2.58032,-4.09394 -5.69994,-17.98941 -5.69994,-25.38877 0,-4.12948 -1.59083,-9.97535 -2.71458,-9.97535 -0.39041,0 -1.78247,0.81155 -3.0934,1.80345 -2.9357,2.22125 -6.62475,2.40315 -13.89257,0.685 -2.680606,-0.63369 -6.648666,-1.41945 -8.817886,-1.74607 -2.16922,-0.32658 -6.57117,-1.71946 -9.78211,-3.0952 -3.21095,-1.37575 -6.11986,-2.50137 -6.46428,-2.50137 -0.3444,0 -0.74799,1.29698 -0.89685,2.88218 -0.14884,1.5852 -0.55901,3.70133 -0.91146,4.70251 -0.35246,1.00118 -0.96457,2.77599 -1.36027,3.94404 -0.39572,1.16804 -1.53106,4.3081 -2.52302,6.97791 -1.61568,4.34854 -2.31209,6.49985 -4.12491,12.74228 -0.67703,2.33132 -1.57326,4.89164 -3.82324,10.92195 -0.99613,2.66981 -1.94348,5.72927 -2.10523,6.7988 -0.26425,1.74735 -0.11845,1.97978 1.43774,2.29141 2.9922,0.59919 7.16022,3.09296 7.98852,4.77957 0.45968,0.93612 2.12512,2.29353 3.94404,3.21467 1.73157,0.8769 3.96745,2.2077 4.96863,2.95734 2.83926,2.12591 7.99149,4.5326 9.70339,4.5326 0.85375,0 3.11548,0.58115 5.02606,1.29145 4.18432,1.5556 13.335176,3.42119 17.183886,3.50329 1.94989,0.0417 3.0698,-0.25975 3.72496,-1.00239 z m 191.90238,-4.11118 c 1.3349,-1.05687 4.56939,-3.08933 7.18773,-4.5166 2.61835,-1.42727 6.4092,-3.99498 8.42413,-5.70602 2.01493,-1.71105 5.19709,-4.28564 7.07148,-5.72131 4.43354,-3.39586 7.35202,-6.23991 7.35202,-7.16453 0,-0.40622 -2.19499,-2.77776 -4.87777,-5.27011 -2.94572,-2.73664 -5.46595,-5.7016 -6.36274,-7.48557 -0.81673,-1.62471 -2.55738,-4.31926 -3.86813,-5.9879 -2.42473,-3.08681 -8.90724,-13.32226 -10.18379,-16.07954 -0.38623,-0.83431 -1.1077,-2.78654 -1.60321,-4.33828 -1.01584,-3.18132 -5.13465,-9.94859 -5.70682,-9.37643 -0.20548,0.20555 1.31793,3.71672 3.38544,7.80267 2.21181,4.3711 3.75362,8.19294 3.74579,9.285 -0.007,1.02683 -0.96674,3.43935 -2.14742,5.40004 -1.17374,1.9492 -2.06115,3.59132 -1.97201,3.64915 0.0891,0.0575 1.24451,0.50246 2.56751,0.98809 3.53837,1.29878 7.1812,6.28719 9.10299,12.46545 0.84548,2.71808 1.53723,5.61653 1.53723,6.44101 0,3.38541 -6.34497,8.33724 -10.68283,8.33724 -2.24083,0 -3.18444,-0.475 -7.05685,-3.55226 -6.09585,-4.84415 -10.27311,-10.73298 -8.42409,-11.87574 0.67825,-0.41915 1.26812,-3.38203 0.67336,-3.38203 -0.24443,0 -3.26415,1.25022 -6.71053,2.77826 -3.71135,1.64552 -6.83563,2.66939 -7.66293,2.51124 -0.86553,-0.16545 -1.39679,0.0266 -1.39679,0.50454 0,0.94223 3.59429,5.54146 8.35787,10.69469 1.95143,2.11104 4.86588,5.88612 6.47658,8.38907 7.68846,11.9475 9.07277,13.87852 9.68986,13.51665 0.36129,-0.21187 1.74905,-1.24989 3.08395,-2.30676 z m 19.98434,-8.17602 c 0.63276,0 9.73861,-6.88125 12.78151,-9.6589 2.37888,-2.17151 5.63305,-3.94498 14.97687,-8.16213 5.72053,-2.58185 10.94075,-6.36183 12.92348,-9.35793 0.81937,-1.23815 2.01084,-3.76573 2.64772,-5.61686 1.93406,-5.62143 3.48362,-8.0701 6.40474,-10.12101 2.53195,-1.77767 2.79096,-2.18675 2.79096,-4.40804 0,-2.11128 0.2716,-2.61413 1.97202,-3.65089 1.14374,-0.69736 3.05153,-1.20331 4.5422,-1.20463 2.3013,-0.002 2.72503,-0.24034 4.05028,-2.27768 0.81405,-1.25147 1.56881,-2.95802 1.67724,-3.79234 0.17896,-1.37716 0.001,-1.51054 -1.92656,-1.44753 -1.16805,0.0381 -3.62549,0.61939 -5.46098,1.29159 -1.83549,0.67222 -5.67216,1.93721 -8.52592,2.81113 -5.74988,1.7608 -7.63563,3.28114 -10.63003,8.57015 -4.20565,7.42845 -7.86789,11.3536 -13.03711,13.97305 -5.47769,2.77575 -10.87088,6.97553 -12.13189,9.44731 -0.6643,1.30217 -1.47535,2.36758 -1.80229,2.36758 -1.01288,0 -0.65525,1.5772 0.6191,2.73049 1.44542,1.30809 1.56872,3.92424 0.30056,6.37663 -0.50216,0.97104 -3.43741,3.78707 -6.52282,6.25783 -3.08541,2.47076 -6.29246,5.27866 -7.12678,6.23975 -1.05545,1.21584 -1.13321,1.42575 -0.25564,0.68997 0.6937,-0.58166 1.47371,-1.05752 1.73331,-1.05752 z m -67.73798,-7.35872 c 2.43596,-0.96477 5.08018,-2.18077 5.87605,-2.70224 1.52095,-0.99657 6.37643,-7.05706 7.11863,-8.8853 0.44862,-1.10505 -2.7891,-11.98056 -4.62175,-15.52454 -1.12218,-2.17003 -4.49675,-6.18313 -5.19934,-6.18313 -0.25472,0 -3.43476,2.2059 -7.06675,4.902 -3.63199,2.6961 -7.88106,5.55782 -9.44238,6.35936 -2.53884,1.30338 -10.64011,6.43533 -14.33649,9.0818 l -1.3991,1.0017 2.61265,1.6582 c 2.87298,1.82342 8.37702,7.62931 8.37702,8.83642 0,0.41952 0.58618,1.50798 1.30271,2.41884 1.30012,1.65285 1.31363,1.65528 6.82621,1.22356 3.87524,-0.30351 6.84518,-0.95602 9.95254,-2.18667 z m 55.22802,-7.33373 c 1.39558,-1.0726 2.53741,-2.37549 2.53741,-2.89531 0,-2.09532 -2.35904,-9.26815 -3.45732,-10.51227 -0.64505,-0.73071 -1.63628,-2.07511 -2.2027,-2.98755 -1.46301,-2.35677 -3.48284,-2.68055 -6.42088,-1.02928 -3.30358,1.85672 -6.04101,5.38205 -6.21782,8.00749 -0.16983,2.52152 1.62741,4.90456 6.62652,8.78646 4.03293,3.13163 5.72824,3.24864 9.13479,0.63046 z m -93.36703,-2.23502 c 2.18937,-1.30068 4.52617,-2.97821 5.19289,-3.72785 1.20283,-1.35243 11.77235,-8.42405 17.59514,-11.77217 3.389,-1.94867 9.82341,-6.47992 12.64892,-8.90762 l 1.8521,-1.59135 -2.09291,-3.47726 c -1.15112,-1.91249 -2.77895,-4.0634 -3.61741,-4.77979 -0.83846,-0.71642 -2.72781,-3.21217 -4.19854,-5.54617 -1.47073,-2.33401 -3.71999,-5.56685 -4.99835,-7.1841 -1.27836,-1.61725 -2.32429,-3.19484 -2.32429,-3.50575 0,-1.30429 -3.27451,-5.39348 -4.31894,-5.39348 -1.55707,0 -7.02149,3.36567 -9.94028,6.12245 -1.3349,1.2608 -3.92887,3.03936 -5.76437,3.95235 -4.01231,1.99574 -9.52404,6.70455 -9.98158,8.52752 -0.18154,0.72324 -1.69608,2.15551 -3.36569,3.18283 -1.66961,1.02732 -3.03566,2.0796 -3.03566,2.3384 0,0.25881 -1.77481,2.36256 -3.94403,4.67505 -2.16922,2.31249 -3.94404,4.64809 -3.94404,5.19022 0,0.54213 0.89588,2.05878 1.99083,3.37032 1.09496,1.31155 2.39194,2.97236 2.88218,3.69069 0.49024,0.71835 3.18022,3.99492 5.97773,7.2813 2.79751,3.28639 5.62324,6.86265 6.27939,7.94726 0.65611,1.08461 1.62798,1.97202 2.15962,1.97202 0.53164,0 2.75793,-1.06419 4.94729,-2.36487 z m 116.73438,-9.34487 c 1.53512,-2.61948 9.59333,-8.67182 13.52288,-10.15674 2.20046,-0.83151 4.5977,-3.06558 7.46339,-6.95534 2.55928,-3.47385 5.51224,-8.44282 5.51224,-9.27546 0,-0.31048 -1.50056,-1.56083 -3.33458,-2.77855 -1.83402,-1.21772 -3.91795,-3.09945 -4.63097,-4.18164 -0.71303,-1.08219 -2.73589,-2.96155 -4.49528,-4.17639 l -3.1989,-2.20879 -2.7887,3.23014 c -1.53379,1.77658 -2.7887,3.466 -2.7887,3.75428 0,0.91452 -4.40967,4.71014 -8.49485,7.31194 -2.16922,1.38154 -5.52576,4.11251 -7.45898,6.06881 -3.33793,3.37779 -3.48125,3.64637 -2.84605,5.33339 0.36791,0.97706 1.58323,2.73214 2.70077,3.90019 1.11754,1.16804 2.96596,3.89853 4.1076,6.06775 4.12473,7.83731 4.41681,8.01379 6.73013,4.06641 z m -50.68928,-1.95708 c 2.93811,-1.17596 6.58455,-3.15557 8.1032,-4.39912 1.51867,-1.24357 4.28123,-3.35295 6.13903,-4.68753 3.5865,-2.57645 7.12225,-7.10962 7.12225,-9.13144 0,-0.6697 -0.3812,-1.76198 -0.84718,-2.42722 -1.99451,-2.84757 -7.00265,-13.60528 -7.85252,-16.86759 -0.50834,-1.95132 -1.07235,-3.69596 -1.25335,-3.87696 -0.36101,-0.36101 -4.37405,2.45604 -5.8231,4.0877 -1.48108,1.66772 -8.92494,7.35557 -16.07954,12.28638 -3.67099,2.52996 -7.70497,5.66528 -8.9644,6.96737 l -2.28987,2.36743 1.98648,2.33126 c 1.09257,1.28219 3.23887,3.72146 4.76956,5.42058 1.53069,1.69913 3.37907,4.34694 4.10751,5.88403 1.22135,2.57716 2.91158,4.0401 4.78565,4.14213 0.41484,0.0223 3.15818,-0.92108 6.09628,-2.09702 z M 475.235,205.16937 c 0.65115,-0.2499 0.95979,-1.13941 0.95979,-2.76646 0,-2.58724 -0.37726,-2.14975 10.52236,-12.20288 l 4.15123,-3.82884 -1.22334,-2.40057 c -2.25267,-4.42043 -4.34863,-9.93424 -4.34863,-11.43987 0,-0.88736 -0.64591,-1.99923 -1.59507,-2.74585 -1.77657,-1.39746 -6.99932,-7.8335 -10.13208,-12.48585 -1.12362,-1.66863 -3.05705,-4.24011 -4.29653,-5.71438 -1.23949,-1.47428 -2.68438,-3.52215 -3.2109,-4.55081 -0.52653,-1.02867 -1.67031,-2.72977 -2.54177,-3.78021 -0.87147,-1.05045 -2.67669,-3.50153 -4.01159,-5.44684 -1.33491,-1.9453 -4.20192,-5.47936 -6.37114,-7.85345 -2.16922,-2.37408 -5.17276,-5.85997 -6.67453,-7.7464 -1.50177,-1.88644 -2.93184,-3.43174 -3.17796,-3.43401 -0.57389,-0.005 -2.76923,3.47817 -5.56259,8.82646 -4.00142,7.66132 -5.91179,10.85272 -8.46005,14.13311 -1.38577,1.78391 -3.20221,4.25345 -4.03653,5.48784 -3.57518,5.2896 -8.69798,11.70075 -10.06527,12.59664 -0.95377,0.62492 -2.12047,0.83961 -3.29086,0.60551 -1.48179,-0.29632 -1.81324,-0.16077 -1.81324,0.74169 0,0.60738 -0.57404,1.62386 -1.27567,2.25881 -0.70161,0.63498 -1.67551,1.92767 -2.1642,2.87269 -0.83252,1.60989 -0.78063,1.88408 0.8231,4.34948 0.94139,1.4472 3.4853,4.5222 5.65315,6.83334 2.16784,2.31115 4.70403,5.2011 5.63597,6.42214 0.93194,1.22102 3.25286,3.36873 5.15758,4.77267 1.90474,1.40393 5.15792,4.24401 7.22929,6.31129 2.07137,2.06727 4.93838,4.46078 6.37113,5.3189 5.96551,3.57295 6.30072,3.65175 16.25745,3.82161 5.17277,0.0883 10.22417,0.41872 11.22535,0.73433 2.08167,0.65625 8.83184,0.86007 10.26555,0.30991 z M 325.10778,191.11008 c 2.50295,-2.28263 6.26136,-5.18034 8.35204,-6.43937 2.09067,-1.25903 4.27506,-2.95987 4.8542,-3.77965 0.57914,-0.81977 2.11914,-2.86932 3.42223,-4.55453 l 2.36926,-3.06403 -1.15571,-2.35859 -1.1557,-2.35859 -2.4235,2.0436 c -2.35725,1.98773 -2.4236,2.14905 -2.42711,5.90059 -0.002,2.66775 -0.32557,4.31177 -1.0477,5.33191 -1.02803,1.45219 -5.43179,4.19845 -10.78801,6.72756 -1.50177,0.70908 -3.14006,1.65808 -3.64065,2.1088 -0.50059,0.45071 -1.66051,1.00678 -2.57758,1.23565 -1.37933,0.34427 -1.98375,0.0775 -3.49842,-1.54397 -2.30128,-2.46353 -1.78668,-0.95637 1.4234,4.1689 2.39162,3.81848 2.4221,3.8412 3.07899,2.2943 0.36489,-0.85929 2.71131,-3.42996 5.21426,-5.71258 z m -60.7245,0.72148 c 2.13846,-1.86502 6.64176,-5.26591 10.00732,-7.55755 6.95376,-4.73486 8.4592,-5.88582 18.38201,-14.05364 8.271,-6.80814 12.08511,-10.61327 14.44459,-14.41052 1.90558,-3.06679 3.31792,-4.41172 6.36185,-6.0582 4.9154,-2.65878 11.14276,-7.97071 13.36285,-11.39848 1.24849,-1.92764 3.91875,-6.04673 5.9339,-9.15353 3.38907,-5.225 3.69555,-5.98614 4.08538,-10.14635 0.36791,-3.92627 0.75638,-5.00751 3.05806,-8.51188 l 2.6366,-4.01429 -2.90419,-2.90418 c -3.71065,-3.71065 -5.10723,-6.65235 -5.43002,-11.43753 -0.35706,-5.29311 1.1674,-11.13529 5.10621,-19.56867 1.80203,-3.85831 3.27642,-7.32052 3.27642,-7.69382 0,-0.3733 -1.26334,-1.30965 -2.80741,-2.0808 -1.54408,-0.77115 -3.84588,-2.58186 -5.11513,-4.02379 -1.46042,-1.65913 -3.14545,-2.85302 -4.58942,-3.25172 -1.25494,-0.34649 -3.50679,-1.56542 -5.00409,-2.7087 -2.87604,-2.19602 -2.97284,-2.22988 -9.23176,-3.23003 -4.57844,-0.73162 -85.71475,-0.82267 -90.76837,-0.10184 -1.94934,0.27806 -4.09015,1.12363 -5.64849,2.2311 -4.154,2.95213 -7.45266,4.62987 -10.17387,5.17455 -1.41818,0.28389 -3.32952,1.03559 -4.24743,1.67052 -3.7809,2.61529 -7.8635,4.66483 -9.86039,4.9501 -1.4176,0.20253 -2.08918,0.60602 -2.01984,1.21355 0.0568,0.50058 0.43288,5.55199 0.83498,11.22534 0.81026,11.43175 1.45771,13.54164 4.97988,16.22812 2.05033,1.56387 4.09306,6.16432 4.09306,9.21803 0,2.18564 1.89412,7.10062 4.01657,10.42241 1.90368,2.97942 4.47828,9.53803 4.47828,11.40811 0,0.49318 1.11474,3.02747 2.4772,5.63181 1.36246,2.60433 2.86885,6.23692 3.34754,8.07242 0.47867,1.8355 1.78903,5.11208 2.91186,7.2813 1.12283,2.16922 2.60605,5.03624 3.29606,6.37114 2.38823,4.62037 3.74351,8.18551 3.74577,9.85348 0.004,2.47679 2.21667,5.83147 3.51147,5.32224 5.77123,-2.26976 6.24383,-2.31048 7.93224,-0.68357 0.87983,0.84779 2.26707,2.84876 3.08276,4.44658 0.8157,1.59784 2.88067,4.8165 4.58885,7.15258 1.70818,2.33608 3.68389,5.20309 4.39048,6.37114 0.70657,1.16804 2.11733,2.92028 3.13498,3.89384 1.01765,0.97358 2.73276,3.22623 3.81136,5.0059 1.07859,1.77967 2.11019,3.23576 2.29242,3.23576 0.18227,0 2.08099,-1.52592 4.21946,-3.39094 z m -150.05117,-6.65587 c 3.15952,-2.45306 3.75826,-3.28092 5.29937,-7.3273 1.48477,-3.89846 2.32295,-5.10487 5.76436,-8.29671 10.66786,-9.89422 15.11039,-15.69124 13.50623,-17.62414 -0.42584,-0.51309 -2.32333,-1.24375 -4.2166,-1.62362 -5.94733,-1.19327 -12.00612,-5.36177 -21.40703,-14.72818 -5.72904,-5.70803 -6.75055,-7.11053 -8.04278,-11.04254 -0.54838,-1.66864 -1.60914,-3.98955 -2.35727,-5.15759 -0.74811,-1.16804 -1.78932,-3.33567 -2.3138,-4.81694 -0.52445,-1.48128 -1.209076,-2.7784 -1.521336,-2.88248 -0.31228,-0.10407 -1.24997,1.10572 -2.08381,2.68844 -0.83383,1.58273 -4.24654,5.82817 -7.58379,9.43431 -4.97943,5.3806 -6.68618,7.75562 -9.51565,13.24142 -1.89633,3.67665 -4.51407,7.84149 -5.81717,9.25519 -1.99647,2.16591 -5.63041,7.60725 -8.40666,12.58784 -0.3751,0.67293 -1.44069,2.01543 -2.36796,2.98329 l -1.68594,1.75974 1.34857,4.10806 c 1.42366,4.33675 1.97454,5.01306 4.09551,5.02805 2.35049,0.0165 6.76662,2.3006 7.62839,3.94534 0.56894,1.08591 2.35126,2.2651 5.65224,3.73958 8.40415,3.75401 10.46383,4.4368 15.28367,5.06661 2.58882,0.33829 6.754806,0.99335 9.257746,1.45572 2.50295,0.46235 4.85928,0.87009 5.23628,0.90604 0.37704,0.0359 2.28834,-1.1791 4.24743,-2.70013 z m 206.36078,-0.5348 c -1.01257,-0.31343 -2.27652,-1.33306 -2.8088,-2.2659 -1.10279,-1.93269 -1.95573,-2.417 -3.05746,-1.73609 -0.8809,0.54442 -0.27915,2.01227 2.17218,5.29815 l 1.44715,1.93987 2.04397,-1.33309 2.04399,-1.33309 z m 57.03293,-3.92677 c 4.29707,-1.35881 8.32641,-2.84609 8.9541,-3.30506 1.11194,-0.81308 1.10883,-0.87571 -0.12103,-2.4392 -0.69428,-0.88257 -2.85887,-2.67465 -4.81029,-3.9824 -1.95142,-1.30775 -4.96067,-3.76614 -6.68722,-5.46309 -1.72656,-1.69695 -4.20811,-3.69576 -5.51458,-4.44178 -4.84059,-2.7641 -9.16878,-6.60621 -12.3369,-10.95136 -0.9278,-1.27251 -2.73584,-3.07349 -4.01785,-4.00217 -1.43779,-1.04153 -3.11234,-3.17751 -4.37022,-5.57443 -1.12161,-2.13725 -3.30629,-5.38767 -4.85484,-7.22316 -1.54855,-1.8355 -3.325,-4.13911 -3.94767,-5.11914 l -1.13211,-1.78186 -1.43113,1.78186 c -2.06114,2.56628 -7.49414,11.51384 -7.49414,12.34202 0,0.38595 1.57004,3.14964 3.48896,6.14156 5.86919,9.15104 6.60021,10.39728 9.76614,16.6494 2.10397,4.15492 3.71818,6.52748 5.1604,7.58469 6.18411,4.53325 8.25355,6.25793 9.1494,7.62518 0.54428,0.83065 2.67039,2.73332 4.72473,4.22815 l 3.73516,2.71788 1.96311,-1.15827 c 1.0797,-0.63706 5.47889,-2.27001 9.77595,-3.62882 z m -167.66974,0.17472 c 2.63252,-2.20804 6.31868,-4.78041 8.19147,-5.71639 1.87279,-0.93597 4.58974,-2.91795 6.03767,-4.40439 l 2.63259,-2.70261 -1.06635,-2.04593 c -0.5865,-1.12528 -1.26613,-3.00161 -1.51031,-4.16965 -0.73576,-3.51959 -2.76778,-8.52214 -5.54559,-13.65245 -2.84808,-5.26008 -4.72762,-9.77275 -4.72762,-11.35072 0,-0.54723 -1.07249,-2.99555 -2.38332,-5.44069 -1.31082,-2.44515 -2.82221,-6.16052 -3.35862,-8.25639 -1.21823,-4.75977 -1.8942,-6.31413 -4.45612,-10.24665 -2.07568,-3.18613 -2.7798,-5.22057 -3.82053,-11.03875 -0.73893,-4.13093 -1.88399,-6.33494 -4.11749,-7.92533 -0.9743,-0.69377 -1.91736,-1.26139 -2.09569,-1.26139 -0.17831,0 -0.50224,1.29698 -0.71982,2.88219 -0.21755,1.5852 -1.1606,6.43181 -2.09561,10.77025 -0.93501,4.33844 -2.16405,10.47584 -2.7312,13.63866 -1.54949,8.64108 -2.7428,10.50109 -9.58534,14.94068 -2.26315,1.46839 -4.26378,3.05798 -4.44584,3.53244 -0.46896,1.22208 0.62391,3.01215 4.24106,6.94672 1.90768,2.07508 3.72109,4.85921 4.59938,7.06141 0.79748,1.99961 2.28949,4.63912 3.31558,5.86558 1.02609,1.22646 2.82129,3.66042 3.98932,5.40879 1.16805,1.74837 3.66492,4.794 5.54861,6.7681 1.89819,1.98928 3.88872,4.80377 4.46542,6.31384 1.2658,3.31445 3.89545,8.10189 4.44875,8.09921 0.2218,-0.001 2.55709,-1.80851 5.1896,-4.01655 z m 115.78135,-0.98074 c 1.23561,-0.45738 2.82546,-1.56751 3.53299,-2.46698 0.7075,-0.89948 1.76283,-1.63541 2.34511,-1.63541 0.74566,0 1.35678,-0.94561 2.06678,-3.19799 0.76047,-2.41248 1.68106,-3.76053 3.74789,-5.48819 l 2.73982,-2.29022 -1.5413,-3.0416 c -3.33375,-6.57885 -10.41627,-17.53433 -11.33562,-17.53433 -0.30078,0 -2.06905,1.23998 -3.92952,2.75551 -1.86046,1.51553 -4.64079,3.47839 -6.17851,4.36191 -4.00399,2.30056 -6.24589,4.26421 -7.76039,6.79724 -1.26388,2.11386 -1.28168,2.34243 -0.39263,5.04285 0.52782,1.60337 1.5703,3.24736 2.40658,3.79532 1.37547,0.90124 1.58222,0.88265 3.0533,-0.27447 1.8442,-1.45066 4.8415,-1.60018 7.74642,-0.38645 3.62289,1.51374 3.63828,5.97183 0.0323,9.46652 -2.23063,2.16201 -2.61345,3.50224 -1.35893,4.75757 0.78081,0.78132 1.0145,0.7493 4.82537,-0.66129 z m 69.60197,-6.49825 c 1.47192,-2.10217 3.71583,-4.5392 4.98647,-5.41565 1.27065,-0.87643 2.47963,-2.08928 2.68663,-2.69524 0.20699,-0.60594 1.13456,-1.97118 2.06127,-3.03387 3.07456,-3.5257 2.9426,-4.10947 -1.6104,-7.12376 -2.2401,-1.48306 -8.4129,-6.71712 -13.71732,-11.63126 -5.30443,-4.91413 -11.97215,-10.51163 -14.81715,-12.43889 -2.84502,-1.92725 -7.01146,-4.73282 -9.25877,-6.23458 -2.24731,-1.50177 -5.42121,-3.88535 -7.05312,-5.29687 -12.85538,-11.11921 -13.62789,-11.70315 -14.02697,-10.60291 -0.1569,0.43259 -1.2441,2.20741 -2.41596,3.94404 -1.99661,2.95885 -2.11199,3.39325 -1.8339,6.90465 0.31645,3.99578 0.77681,4.87495 5.98113,11.42223 1.59163,2.00236 3.67075,5.13742 4.62024,6.96682 1.02775,1.98016 2.80061,4.14553 4.38095,5.35089 1.46002,1.1136 3.3854,3.16646 4.2786,4.56191 1.87186,2.9244 7.68129,8.1265 11.21973,10.04678 1.33406,0.72399 4.88301,3.49068 7.88654,6.1482 3.00354,2.65751 5.74544,4.83567 6.09311,4.84035 1.12878,0.0151 5.64709,5.11844 6.0747,6.86114 0.22877,0.93228 0.72464,1.59451 1.10197,1.47161 0.37732,-0.1229 1.89034,-1.94342 3.36225,-4.04559 z m -75.50495,-0.51724 c 0.84297,-0.66309 1.53268,-1.62245 1.53268,-2.13193 0,-1.26327 -3.4062,-1.97268 -4.623,-0.96283 -0.82876,0.68781 -3.87185,6.09577 -3.87185,6.88077 0,0.44042 5.14836,-2.35927 6.96217,-3.78601 z m -9.3338,-0.22446 c 0.58719,-1.09709 0.51467,-1.45391 -0.43374,-2.13523 -2.62312,-1.88444 -3.31501,-2.72672 -3.66102,-4.45677 -0.49541,-2.47688 -1.17697,-2.73676 -2.37645,-0.90612 -0.98432,1.50226 -0.95277,1.60423 1.33858,4.32666 1.29067,1.53349 2.61831,3.17077 2.95034,3.63841 0.8368,1.17862 1.36172,1.06631 2.18229,-0.46695 z m 107.34373,-21.164 c 2.16921,-2.99442 5.10468,-6.85869 6.52325,-8.58723 1.41858,-1.72856 3.70937,-5.07026 5.09065,-7.42601 1.38128,-2.35576 3.01937,-5.02302 3.64022,-5.92725 0.62082,-0.90424 1.13509,-1.85991 1.14278,-2.12372 0.008,-0.26384 1.35856,-2.77367 3.00193,-5.57748 2.85691,-4.87429 2.94942,-5.17228 2.10972,-6.79608 -1.34261,-2.59633 -1.08241,-3.78258 1.46498,-6.67899 1.28874,-1.46533 3.23179,-4.42581 4.31789,-6.57886 l 1.97471,-3.91463 -1.7391,-1.42659 c -0.9565,-0.78464 -2.55824,-1.86291 -3.55942,-2.39618 -1.00118,-0.53329 -3.02005,-1.88413 -4.48638,-3.00193 -1.46632,-1.11779 -2.94171,-2.03235 -3.27863,-2.03235 -0.89323,0 -7.04213,-5.92435 -9.44661,-9.10163 -2.96258,-3.91474 -11.4043,-12.74227 -12.18538,-12.74227 -0.21892,0 -1.33947,-1.76371 -2.49019,-3.91936 -1.69575,-3.17666 -2.55214,-4.11663 -4.51932,-4.96041 -1.3349,-0.5726 -3.79234,-1.64095 -5.46098,-2.37414 -9.5099,-4.17867 -25.7836,-9.98322 -27.98901,-9.98322 -0.62039,0 -4.1334,-1.47264 -7.80664,-3.27253 -9.13283,-4.47511 -9.96774,-4.57736 -12.69815,-1.55512 -1.19456,1.32223 -2.17192,2.76523 -2.17192,3.20669 0,0.44143 -0.66847,1.43063 -1.48546,2.19816 -0.81701,0.76754 -1.6537,2.16152 -1.85933,3.09772 -0.20562,0.93621 -0.76589,2.02755 -1.24502,2.4252 -1.18417,0.98277 -1.09426,1.63537 0.28569,2.07334 1.2245,0.38868 3.0906,4.31371 3.0906,6.50064 0,0.71526 -1.80921,5.01026 -4.02046,9.54443 -5.01066,10.27434 -6.26916,13.83323 -6.71962,19.00223 -0.56232,6.45299 1.40006,10.34596 7.08907,14.06319 1.48487,0.97022 4.34729,3.37732 6.36096,5.34911 2.01365,1.9718 5.02644,4.49563 6.69506,5.60852 1.66864,1.11289 3.71651,2.76944 4.55082,3.6812 1.27418,1.39248 7.01826,5.531 10.95122,7.89021 6.32247,3.79255 15.47137,11.50256 23.55486,19.85026 2.65664,2.74349 15.18237,11.37908 16.46303,11.3501 0.50059,-0.0115 2.68498,-2.47058 4.8542,-5.46501 z m -267.89122,-2.6241 c 4.7707,-1.03743 13.69151,-5.87993 17.95064,-9.74419 1.86343,-1.69067 4.96759,-4.16613 6.89814,-5.50103 5.11508,-3.53689 8.26788,-6.41686 8.92934,-8.15661 0.31975,-0.84097 0.98495,-3.85507 1.47827,-6.69801 0.49333,-2.84293 1.70286,-8.85513 2.68788,-13.36043 3.45145,-15.78644 3.82201,-29.56908 1.22355,-45.50814 -1.51971,-9.32185 -0.10508,-11.80472 4.28388,-7.51899 l 2.35982,2.30431 -0.0115,-2.39855 c -0.008,-1.60844 -0.87402,-4.09754 -2.62916,-7.55614 -2.31168,-4.55531 -2.82629,-5.17864 -4.40682,-5.33788 -2.2974,-0.23142 -5.3254,1.79374 -7.99145,5.34481 -4.96897,6.61846 -8.21111,9.24979 -16.00555,12.9901 -4.11697,1.9756 -8.98717,4.34104 -10.82267,5.2565 -1.83549,0.91547 -7.15994,2.93789 -11.83211,4.49428 -4.67217,1.55638 -9.37257,3.37123 -10.44535,4.03299 -1.07276,0.66179 -2.71105,1.44624 -3.64064,1.74326 -0.92959,0.29704 -4.42065,1.53184 -7.75792,2.74404 -3.33726,1.2122 -7.64771,2.55941 -9.57877,2.99381 -1.93106,0.43439 -4.79808,1.45153 -6.37114,2.26027 l -2.86012,1.47046 -0.30337,10.58396 c -0.16688,5.82119 -0.51797,10.91504 -0.78021,11.31969 -0.2729,0.42102 0.14417,1.97822 0.97505,3.64065 0.79854,1.59771 1.64319,3.69773 1.87702,4.66672 0.23379,0.96898 1.19902,2.88659 2.14488,4.26136 0.94587,1.37476 2.07189,3.72203 2.50227,5.21613 0.92561,3.21334 2.42654,5.57984 5.37893,8.48091 1.1887,1.16805 2.91,3.00634 3.82511,4.0851 0.91511,1.07875 2.75819,2.65221 4.09574,3.49656 1.33755,0.84435 2.4319,1.78035 2.4319,2.07996 0,1.14636 8.00346,5.54877 11.62223,6.39297 2.06026,0.4806 4.1693,1.29722 4.68673,1.81466 1.15454,1.15453 5.07575,1.19593 10.08576,0.10644 z m 47.74308,-91.52697 c -0.43539,-0.4354 -0.71799,-0.47119 -0.71799,-0.091 0,0.80991 0.71756,1.52749 1.12253,1.12254 0.17242,-0.17242 -0.009,-0.63664 -0.40449,-1.03152 z"
       id="path303" /><path
       style="fill:#ffffff;fill-rule:evenodd;stroke-width:0.303388"
       d="m 250.23365,82.17209 c -0.10465,-0.10464 -0.70765,-0.29582 -1.33996,-0.42483 -0.63233,-0.12908 -1.93513,-0.52265 -2.89506,-0.87459 -1.35923,-0.49836 -2.90287,-0.69974 -6.97792,-0.91017 -5.67758,-0.29324 -5.93035,-0.35986 -9.17662,-2.41874 -1.16804,-0.74082 -2.80634,-1.77876 -3.64065,-2.30653 -0.83432,-0.52775 -2.06304,-1.30849 -2.73049,-1.73491 -1.15012,-0.73479 -7.10761,-6.09579 -8.5707,-7.71257 -0.73217,-0.80908 -0.92823,-2.76545 -0.41297,-4.12071 0.43554,-1.14558 2.0414,-2.51185 4.22023,-3.5906 1.11813,-0.55362 2.78383,-1.39932 3.70159,-1.8794 3.16612,-1.6562 4.40426,-2.16584 5.91605,-2.43515 2.55609,-0.4553 9.82896,-0.84037 20.47866,-1.08415 7.96512,-0.18234 10.55722,-0.34125 11.98381,-0.73483 1.69325,-0.46709 4.37364,-0.70542 16.53462,-1.47013 6.29573,-0.39586 30.00993,0.4446 34.88957,1.23653 1.08461,0.17601 2.9826,0.46723 4.21777,0.64713 1.23515,0.17989 2.60039,0.47808 3.03386,0.66272 1.65298,0.70398 4.81168,3.00184 5.15145,3.74756 0.36331,0.79741 0.23337,2.34962 -0.31861,3.80454 -0.61802,1.62913 -8.67032,7.71963 -11.5204,8.71365 -0.89425,0.31192 -2.51917,1.05352 -3.61093,1.64804 -2.4785,1.34971 -3.85969,1.70139 -7.87509,2.00519 -1.75207,0.13253 -3.93645,0.47492 -4.8542,0.76079 -0.91775,0.2859 -2.76083,0.6467 -4.09574,0.80189 -3.75243,0.43619 -6.21671,0.78017 -8.03977,1.12227 -1.56196,0.29309 -2.22171,0.5003 -5.30928,1.66704 -6.36818,2.40652 -9.11112,2.81029 -12.04828,1.77355 -3.02699,-1.06844 -4.30895,-1.39222 -5.39927,-1.36363 -1.24243,0.0324 -5.09372,2.02661 -7.01585,3.6325 -1.01801,0.85052 -1.47828,1.02785 -2.66793,1.02785 -0.79071,0 -1.52326,-0.0856 -1.62789,-0.19024 z m 2.24775,-3.71284 c 0.39795,-0.3112 1.47441,-0.94392 2.39216,-1.40606 0.91775,-0.46213 2.28018,-1.25956 3.02763,-1.77205 1.95785,-1.34243 4.15059,-1.28757 8.8613,0.22165 l 3.54578,1.136 2.52198,-0.79956 c 1.38708,-0.43978 2.75904,-0.92678 3.04878,-1.08227 0.28971,-0.15546 0.73531,-0.28274 0.99013,-0.28274 0.25485,0 0.70038,-0.13009 0.99012,-0.28907 0.80648,-0.44251 3.97249,-1.43973 5.8361,-1.83824 1.66321,-0.35569 3.87446,-0.6822 8.19146,-1.20958 1.25148,-0.15287 2.88977,-0.42491 3.64065,-0.60444 0.75089,-0.17953 2.45744,-0.46192 3.79235,-0.62758 5.60939,-0.69586 6.06524,-0.81539 9.7084,-2.54638 2.00236,-0.95139 3.9137,-1.8771 4.24743,-2.05714 0.3337,-0.18004 0.87982,-0.47665 1.21355,-0.6592 0.33369,-0.18256 1.28939,-0.88194 2.12371,-1.55425 0.83432,-0.67229 2.22825,-1.7543 3.09765,-2.4044 1.86341,-1.39339 2.10949,-1.86743 1.385,-2.66798 -2.18546,-2.4149 -6.1164,-3.11996 -19.80372,-3.55204 -4.42187,-0.13958 -10.22416,-0.40845 -12.89398,-0.5974 -3.46792,-0.24544 -6.45707,-0.25514 -10.46686,-0.0338 -11.31761,0.62442 -15.06029,0.94578 -16.98971,1.45887 -1.67877,0.44646 -3.14544,0.51071 -9.86321,0.4323 -5.85168,-0.0683 -8.71372,0.0266 -11.07365,0.36619 -1.75034,0.25205 -5.36684,0.61478 -8.03665,0.80604 -3.71975,0.2665 -4.98412,0.4645 -5.41013,0.84736 -0.30574,0.27483 -2.34772,1.38704 -4.53769,2.47165 -2.18997,1.08461 -4.16385,2.26245 -4.38641,2.61741 -0.37013,0.59035 -0.29503,0.74559 0.88101,1.82033 0.70715,0.64619 2.18027,2.02559 3.2737,3.0653 2.27794,2.166 4.68329,4.02587 6.67581,5.16188 0.759,0.43274 1.58479,0.9562 1.83508,1.16324 0.25032,0.20706 1.27423,0.83244 2.2754,1.38976 1.75305,0.97586 1.98294,1.02124 6.21945,1.22759 5.21976,0.25428 7.36206,0.55233 8.79824,1.22416 0.85383,0.39938 2.42939,0.83809 3.97897,1.10787 0.10264,0.018 0.51223,-0.22215 0.91017,-0.53329 z"
       id="path305" /><path
       style="fill:#ffffff;fill-rule:evenodd;stroke-width:0.303388"
       d="m 307.74401,226.68184 c -0.98816,-0.36482 -2.96227,-1.93846 -5.5923,-4.45785 -0.78386,-0.75088 -1.84095,-1.6802 -2.34908,-2.06514 -1.21956,-0.9239 -1.71284,-2.55469 -1.27009,-4.19894 0.47866,-1.77763 5.3236,-6.45366 6.76868,-6.53271 3.31481,-0.18134 4.87713,0.69132 6.23594,3.4831 1.82331,3.74617 2.43749,5.29524 2.9529,7.44775 0.52797,2.20495 0.13527,3.50107 -1.54136,5.08732 -1.69714,1.60566 -3.22286,1.96812 -5.20469,1.23647 z m 2.9485,-6.16818 c -0.71562,-2.22224 -2.96764,-6.71974 -3.51945,-7.02855 -0.79459,-0.44467 -1.83767,0.18226 -3.41447,2.05226 -0.72547,0.86037 -1.27009,1.60167 -1.21026,1.64734 0.0596,0.046 1.47402,1.31232 3.14265,2.81478 1.66863,1.50245 3.23866,2.80666 3.48895,2.89823 0.25033,0.0916 0.77792,-0.14374 1.17251,-0.52286 0.66639,-0.6403 0.69061,-0.77268 0.34009,-1.8612 z"
       id="path307" /><path
       style="fill:#ffffff;fill-rule:evenodd;stroke-width:0.303388"
       d="m 268.92608,255.2626 c -1.14397,-0.33104 -2.83592,-2.21273 -3.75447,-4.17549 -0.36654,-0.78331 -1.58405,-2.30199 -2.74766,-3.42744 -2.01807,-1.9519 -2.08938,-2.07103 -2.08828,-3.48896 7.6e-4,-0.97669 0.22158,-1.82346 0.65978,-2.52992 0.36223,-0.58402 0.8749,-1.49696 1.13919,-2.02875 0.73691,-1.48273 3.77553,-3.50196 5.85773,-3.89258 0.93757,-0.17587 1.2253,-0.0891 1.88206,0.56764 0.49929,0.49928 0.77528,1.11139 0.77528,1.71948 0,0.51927 0.32314,1.37879 0.71814,1.90996 0.39493,0.5312 1.55541,2.5895 2.5788,4.57408 1.61033,3.12282 1.86068,3.831 1.86068,5.26343 0,2.14294 -0.63031,3.41961 -2.34948,4.75903 -1.47056,1.14571 -2.54723,1.32378 -4.53174,0.7495 z m 2.68576,-4.4155 c 0.30516,-0.27613 0.55484,-0.69485 0.55484,-0.9305 0,-0.56088 -3.51696,-7.23009 -4.48868,-8.51189 -0.73079,-0.96399 -0.7725,-0.97797 -1.35756,-0.45509 -0.33197,0.29669 -0.93988,1.06881 -1.35088,1.71576 l -0.74729,1.1763 1.66601,1.70589 c 0.9163,0.93824 1.96831,2.32024 2.33781,3.07113 1.26015,2.56089 2.27808,3.23084 3.38578,2.22839 z"
       id="path309" /><path
       style="fill:#ffffff;fill-rule:evenodd;stroke-width:0.303388"
       d="m 229.53435,280.49588 c -1.48352,-0.35576 -2.48117,-1.18301 -3.15464,-2.61575 -0.34728,-0.73874 -0.63282,-1.44703 -0.63455,-1.574 -0.002,-0.127 -0.61759,-1.04926 -1.3685,-2.04956 -2.91365,-3.88124 -2.87612,-5.50793 0.20304,-8.79956 1.36237,-1.45639 2.16368,-2.05347 3.09089,-2.30314 1.50473,-0.40521 3.28261,-0.21015 4.32792,0.47478 0.78405,0.51373 1.94131,2.78889 1.94131,3.81661 0,0.64583 1.10581,3.12474 2.2632,5.07339 0.58611,0.98683 0.77067,1.71635 0.77067,3.04655 0,1.66609 -0.0633,1.81109 -1.33408,3.05832 -1.0404,1.02108 -1.72498,1.40127 -3.10973,1.72706 -0.9766,0.22977 -1.8439,0.40593 -1.92733,0.39141 -0.0834,-0.0144 -0.56412,-0.1252 -1.06821,-0.24609 z m 3.15157,-4.59981 c 0.6324,-0.58913 0.64763,-0.68493 0.21461,-1.34589 -0.94262,-1.43862 -1.57739,-2.75548 -1.97033,-4.08757 -0.2215,-0.75088 -0.53608,-1.8185 -0.69909,-2.37249 -0.163,-0.55399 -0.48153,-1.07832 -0.70793,-1.16516 -0.23157,-0.0888 -1.06499,0.49555 -1.90576,1.33632 -1.63689,1.63687 -1.63936,1.71987 -0.10623,3.56658 0.41563,0.50058 1.13893,1.76344 1.60741,2.80634 0.79943,1.77964 0.91429,1.89617 1.86911,1.89617 0.61271,0 1.28814,-0.25227 1.69818,-0.63434 z"
       id="path311" /><path
       style="fill:#ffffff;fill-rule:evenodd;stroke-width:0.303388"
       d="m 328.75474,164.46256 c -1.45407,-1.45407 -1.23822,-4.45608 0.36417,-5.06531 1.33145,-0.50619 2.74103,-0.33442 3.25294,0.39644 0.54924,0.78419 0.62168,2.91325 0.1354,3.9805 -0.66948,1.46937 -2.61474,1.82622 -3.75257,0.68838 z"
       id="path313" /></g></svg>
