<?xml version="1.0" encoding="UTF-8" standalone="no"?>
<svg
   height="118.05px"
   width="94.55px"
   version="1.1"
   id="svg6"
   sodipodi:docname="armor_head.svg"
   xml:space="preserve"
   inkscape:version="1.2.1 (9c6d41e410, 2022-07-14)"
   xmlns:inkscape="http://www.inkscape.org/namespaces/inkscape"
   xmlns:sodipodi="http://sodipodi.sourceforge.net/DTD/sodipodi-0.dtd"
   xmlns="http://www.w3.org/2000/svg"
   xmlns:svg="http://www.w3.org/2000/svg"><defs
     id="defs10" /><sodipodi:namedview
     id="namedview8"
     pagecolor="#ffffff"
     bordercolor="#000000"
     borderopacity="0.25"
     inkscape:showpageshadow="2"
     inkscape:pageopacity="0.0"
     inkscape:pagecheckerboard="0"
     inkscape:deskcolor="#d1d1d1"
     showgrid="false"
     inkscape:zoom="8.6997033"
     inkscape:cx="37.07023"
     inkscape:cy="53.794938"
     inkscape:window-width="3840"
     inkscape:window-height="2066"
     inkscape:window-x="-11"
     inkscape:window-y="-11"
     inkscape:window-maximized="1"
     inkscape:current-layer="svg6" /><path
     style="fill:#ffffff;fill-rule:evenodd;stroke-width:0.114946"
     d="m 39.036361,85.961903 c -0.249807,-0.09241 -1.274863,-0.828757 -1.678765,-1.205938 -0.126441,-0.118076 -0.36909,-0.303987 -0.53922,-0.413135 -0.371912,-0.238602 -2.339597,-2.119766 -4.840298,-4.627468 -1.624354,-1.628901 -2.60926,-2.822922 -2.60926,-3.163259 0,-0.06199 -0.04077,-0.112715 -0.09061,-0.112715 -0.106703,0 -0.943912,0.981396 -0.943912,1.106476 0,0.04711 -0.110647,0.203423 -0.245882,0.347374 -0.135235,0.143951 -0.303344,0.359724 -0.373576,0.479496 -0.358656,0.611641 -0.842263,1.271589 -1.252749,1.709544 -0.251847,0.268702 -0.522853,0.581276 -0.602235,0.694609 -0.255357,0.364573 -1.389971,1.206017 -1.830356,1.357414 -0.356236,0.122469 -0.509594,0.118788 -0.923242,-0.02216 -0.847324,-0.288712 -0.923509,-0.449709 -0.908626,-1.920121 0.0142,-1.402437 0.134744,-2.319607 0.47812,-3.637689 0.403776,-1.549935 0.405409,-1.718684 0.02215,-2.28749 -0.187451,-0.278201 -0.34082,-0.65069 -0.34082,-0.827753 0,-0.719468 0.761101,-3.071509 1.623125,-5.015965 0.118811,-0.267999 0.216018,-0.5169 0.216018,-0.553115 0,-0.03621 0.121409,-0.334201 0.269797,-0.662195 0.381636,-0.843557 0.88039,-2.075399 0.879998,-2.173457 -2.3e-4,-0.04554 0.128985,-0.365514 0.287036,-0.71105 0.158051,-0.345535 0.287366,-0.683989 0.287366,-0.752118 0,-0.06813 0.05029,-0.21369 0.111766,-0.323468 0.199678,-0.356593 0.894901,-2.583029 1.192955,-3.82041 0.45142,-1.874091 0.582411,-3.039185 0.432078,-3.84308 -0.07015,-0.375129 -0.127549,-0.932807 -0.127549,-1.239282 0,-0.347653 -0.05404,-0.572391 -0.143683,-0.597541 -0.842327,-0.236327 -1.231591,-0.377091 -1.52304,-0.550758 -0.285281,-0.169992 -0.61285,-0.205668 -1.896616,-0.206563 -3.528316,-0.0025 -6.230418,0.52732 -8.349205,1.636971 -2.545839,1.333308 -3.820956,3.139812 -4.524129,6.409503 -0.182136,0.846915 -0.0922,3.749526 0.144242,4.655331 0.09902,0.379324 0.23967,0.896583 0.312567,1.149465 0.0729,0.252882 0.176947,0.640826 0.231223,0.862098 0.05428,0.221272 0.183137,0.712668 0.28636,1.091992 0.103222,0.379323 0.214449,0.818993 0.247172,0.977044 0.03272,0.158052 0.103007,0.390818 0.156189,0.517259 0.05318,0.126442 0.128157,0.359208 0.166613,0.517259 0.03846,0.158052 0.15122,0.571859 0.250587,0.919572 0.171573,0.600371 0.256617,0.934648 0.489831,1.925353 0.05581,0.237077 0.190577,0.741405 0.299484,1.120728 0.361582,1.259375 0.433123,1.713005 0.482605,3.060109 0.04604,1.25335 0.03162,1.367013 -0.233306,1.839143 -0.359543,0.640756 -0.676671,0.874233 -1.468216,1.080934 -0.545319,0.142403 -0.74259,0.143581 -1.389187,0.0083 C 9.6119981,80.45627 8.6507585,79.64579 7.8829447,78.074651 7.6133395,77.522971 7.3458183,76.981779 7.2884533,76.872001 7.2310881,76.762219 7.1841531,76.578592 7.1841531,76.463938 c 0,-0.114655 -0.041102,-0.257603 -0.091337,-0.317663 C 7.0425799,76.086215 6.9018565,75.72672 6.7800969,75.347397 6.6583372,74.968074 5.8976876,73.345063 5.0897644,71.740706 4.2818412,70.136349 3.6208131,68.729872 3.6208131,68.6152 c 0,-0.114673 -0.051726,-0.240464 -0.1149464,-0.279536 -0.063221,-0.03907 -0.1149465,-0.19425 -0.1149465,-0.34484 0,-0.150589 -0.045515,-0.301928 -0.1011443,-0.336309 C 3.2341464,67.620135 3.1028352,67.319658 2.9979733,66.986789 2.8931113,66.653921 2.7594566,66.278122 2.7009629,66.151681 2.5984587,65.930106 2.1268897,64.458426 1.5039176,62.415922 1.3400161,61.878547 1.206145,61.35079 1.2064263,61.243129 1.2067079,61.135468 1.1597821,60.928564 1.1021474,60.783343 1.0445128,60.638122 0.91057187,60.026451 0.80450095,59.424074 0.64642363,58.526351 0.62059803,57.790473 0.66129253,55.343475 0.71122306,52.341105 0.77924106,51.732591 1.2326838,50.231598 1.4960519,49.359794 2.2849132,47.707913 2.5987489,47.37105 2.7183404,47.242684 2.816188,47.08631 2.816188,47.023553 c 0,-0.167733 2.5229187,-2.654224 2.6931094,-2.654224 0.079707,0 0.2377795,-0.102607 0.3512729,-0.228016 0.1134934,-0.125408 0.4965231,-0.391982 0.851177,-0.592385 0.354654,-0.200403 0.8258661,-0.467533 1.047138,-0.593623 0.6944711,-0.395739 3.0829017,-1.574583 3.1902267,-1.574583 0.05636,0 0.409071,-0.148025 0.783792,-0.328944 0.374722,-0.180919 0.810627,-0.366132 0.968679,-0.411585 0.158051,-0.04545 0.506638,-0.181921 0.774635,-0.303262 0.267999,-0.121341 0.539813,-0.22062 0.604032,-0.22062 0.06422,0 0.38482,-0.129315 0.712445,-0.287366 0.327624,-0.158052 0.679107,-0.287367 0.781072,-0.287367 0.101965,0 0.234531,-0.04344 0.29459,-0.09652 0.06006,-0.05309 0.29024,-0.164299 0.511512,-0.247136 0.221272,-0.08284 0.583353,-0.225716 0.804625,-0.317509 0.547661,-0.227194 0.735663,-0.301974 1.666724,-0.662963 0.442543,-0.171583 0.908077,-0.357638 1.034518,-0.413457 1.218315,-0.537838 3.204439,-1.093392 4.289123,-1.199744 0.808131,-0.07924 0.986253,-0.161732 1.311955,-0.607625 0.08044,-0.110115 0.318537,-0.320978 0.529118,-0.468583 0.309973,-0.217274 0.430347,-0.245039 0.632206,-0.145818 0.137132,0.06741 0.533823,0.178135 0.881536,0.246067 0.347713,0.06793 0.890835,0.196258 1.206938,0.28517 0.316103,0.08891 0.962677,0.222194 1.436831,0.296183 0.474154,0.07399 1.224179,0.206217 1.666723,0.293838 2.749143,0.544318 2.716161,0.541482 3.089226,0.265663 0.187568,-0.138675 0.64478,-0.539319 1.016027,-0.890321 0.371248,-0.351001 0.79479,-0.717922 0.941206,-0.815379 0.146415,-0.09746 0.566957,-0.448755 0.934537,-0.780663 0.367581,-0.331908 0.712454,-0.603468 0.766386,-0.603468 0.05393,0 0.277357,-0.163159 0.4965,-0.362574 0.219143,-0.199415 0.496386,-0.419251 0.616096,-0.488522 0.119709,-0.06927 0.598537,-0.411006 1.064062,-0.759408 1.056864,-0.790965 2.584123,-1.83789 2.681122,-1.83789 0.04012,0 0.343378,-0.172993 0.673905,-0.384429 1.005158,-0.642991 1.848165,-0.90679 2.951338,-0.923551 0.853946,-0.01297 1.085661,0.03049 1.839143,0.345011 1.009942,0.421568 3.171639,1.685246 3.965652,2.318228 0.06322,0.0504 0.399439,0.30353 0.747152,0.562514 0.347713,0.258984 0.746426,0.580006 0.886029,0.713384 0.139603,0.133377 0.295309,0.242504 0.346013,0.242504 0.05071,0 0.220978,0.118995 0.378383,0.264433 0.157406,0.145438 0.474987,0.392391 0.705737,0.548784 0.230749,0.156393 0.761912,0.606383 1.18036,0.999978 0.418449,0.393595 0.798637,0.716179 0.844866,0.716853 0.04623,6.78e-4 0.34268,0.240278 0.658783,0.532452 0.861376,0.796172 0.949558,0.835782 1.60925,0.722865 0.316103,-0.05411 0.755773,-0.127425 0.977045,-0.16293 0.37976,-0.06094 1.55794,-0.282152 2.796221,-0.525019 0.30512,-0.05985 0.721514,-0.108808 0.925319,-0.108808 0.203804,0 0.419693,-0.04798 0.479753,-0.106612 0.06006,-0.05864 0.666542,-0.222951 1.34774,-0.365142 l 1.238542,-0.25853 0.313235,0.231065 c 0.172279,0.127086 0.416688,0.387967 0.543129,0.579736 0.21399,0.32455 0.291998,0.35393 1.127667,0.424711 1.125019,0.09529 3.108915,0.640133 4.389762,1.205577 0.565736,0.24975 1.731911,0.7037 1.807,0.703401 0.04554,-1.84e-4 0.355898,0.120912 0.689679,0.269096 0.333781,0.148185 0.787916,0.337516 1.009188,0.420736 0.221272,0.08322 0.451452,0.194744 0.511512,0.247832 0.06006,0.05309 0.205562,0.09652 0.323338,0.09652 0.117777,0 0.482444,0.125767 0.810373,0.279481 0.327928,0.153714 1.01004,0.433877 1.515804,0.622583 0.505765,0.188708 1.25579,0.494791 1.666724,0.680185 0.410933,0.185393 0.928192,0.407269 1.149464,0.493058 1.176431,0.456107 4.339213,2.280327 4.864776,2.80589 0.09704,0.09705 0.219731,0.176447 0.272635,0.176447 0.152458,0 1.808163,1.619146 2.174523,2.126509 0.182602,0.252883 0.399101,0.530576 0.481107,0.617098 0.264003,0.278541 0.968575,1.771503 1.2548,2.658876 0.563134,1.745866 0.646822,2.489468 0.646822,5.747323 0,3.0433 -0.02326,3.298429 -0.487414,5.34501 -0.26269,1.158279 -1.258273,4.314835 -1.6677,5.287536 -0.150753,0.358154 -0.229312,0.578031 -0.714572,2.000017 -0.159641,0.467804 -0.357816,0.9592 -0.440388,1.091991 -0.08257,0.132792 -0.182225,0.380068 -0.221451,0.549504 -0.03923,0.169435 -0.137555,0.376339 -0.218507,0.459786 -0.228982,0.236037 -2.09619,4.079996 -2.418785,4.979472 -0.158718,0.442543 -0.403913,1.140843 -0.544877,1.551777 -0.261114,0.761183 -0.326241,0.887394 -0.978692,1.896616 -0.676024,1.045683 -1.409002,1.54871 -2.693215,1.848298 -0.998076,0.232834 -1.894631,0.0093 -2.536404,-0.632519 -0.411312,-0.411311 -0.524538,-0.652801 -0.666735,-1.422017 -0.0853,-0.461451 -0.08681,-0.848165 -0.0049,-1.263848 0.0649,-0.329422 0.163322,-0.831717 0.218712,-1.116209 0.232554,-1.194433 0.497799,-2.2487 0.591408,-2.350655 0.05514,-0.06006 0.10026,-0.276841 0.10026,-0.481738 0,-0.204897 0.04601,-0.400976 0.102246,-0.435731 0.05624,-0.03476 0.126233,-0.23178 0.155551,-0.437833 0.06333,-0.445112 0.524958,-2.230972 0.66138,-2.558624 0.09128,-0.219238 0.227023,-0.71352 0.473505,-1.724197 0.233509,-0.957483 0.318221,-1.290291 0.555904,-2.183983 0.134513,-0.505764 0.29423,-1.078422 0.354928,-1.272572 0.148094,-0.473692 0.139975,-2.375799 -0.01455,-3.409362 -0.19674,-1.315892 -0.441505,-2.131042 -0.992946,-3.306844 -0.934087,-1.991693 -2.740578,-3.436156 -5.426033,-4.338632 -1.518316,-0.510246 -2.837167,-0.688736 -5.832002,-0.78929 -2.12254,-0.07127 -2.215662,-0.06505 -2.545564,0.169859 -0.188336,0.134107 -0.619388,0.314585 -0.957892,0.401062 -0.602669,0.153961 -0.617361,0.167717 -0.706705,0.661656 -0.214611,1.186483 -0.225521,2.859563 -0.02526,3.873158 0.108583,0.549577 0.237874,1.128547 0.287314,1.286598 0.04944,0.158051 0.152963,0.520133 0.230053,0.804625 0.150734,0.556264 0.423228,1.409242 0.569177,1.78167 0.04955,0.126441 0.152924,0.436797 0.229721,0.689679 0.137819,0.453824 0.519109,1.463523 0.933248,2.471348 0.116904,0.284493 0.373209,0.905204 0.569567,1.379358 0.196356,0.474154 0.398777,0.96555 0.449823,1.091991 0.05105,0.126441 0.146428,0.359208 0.21196,0.517259 0.06553,0.158052 0.260363,0.649448 0.432958,1.091991 0.172595,0.442544 0.378214,0.959803 0.45693,1.149465 0.235824,0.568204 0.599932,1.794914 0.745299,2.510977 0.133583,0.658019 0.129083,0.683586 -0.218863,1.243313 -0.402997,0.648288 -0.417643,0.802573 -0.167358,1.763139 0.554354,2.127563 0.79612,5.26764 0.444252,5.770003 -0.225154,0.321452 -1.228281,0.661731 -1.51434,0.513691 -0.115387,-0.05971 -0.408144,-0.204826 -0.650572,-0.322471 -0.496725,-0.24105 -1.343594,-1.021313 -1.854674,-1.708802 -0.187749,-0.252553 -0.428556,-0.554212 -0.535126,-0.670351 -0.106571,-0.116141 -0.534494,-0.710989 -0.950942,-1.321884 -0.416446,-0.610897 -0.878721,-1.25153 -1.027279,-1.423629 l -0.270105,-0.31291 -0.546927,0.800456 c -0.30081,0.440251 -1.104976,1.356949 -1.787037,2.037105 -2.769136,2.761412 -4.681401,4.598887 -5.116296,4.916198 -0.252882,0.184509 -0.614963,0.479413 -0.804625,0.655338 -0.189662,0.175927 -0.619365,0.509378 -0.954897,0.741004 -0.51184,0.353336 -0.703606,0.420038 -1.191124,0.41431 -0.329544,-0.0039 -0.645702,-0.07409 -0.730383,-0.162219 -0.199428,-0.207539 -0.629465,-0.992644 -0.629465,-1.14919 0,-0.261055 -0.810523,-1.840188 -1.249537,-2.43446 -0.835586,-1.13109 -2.46008,-1.702119 -4.900098,-1.72244 -1.600427,-0.01333 -3.324169,0.393338 -4.216686,0.994806 -0.728071,0.490647 -1.376986,1.512928 -1.876505,2.956186 -0.400497,1.157159 -0.670025,1.477789 -1.280289,1.523032 -0.262182,0.01944 -0.585373,-0.0049 -0.718203,-0.054 z m 0.117031,-3.917827 c 0.29725,-0.582659 1.493669,-1.775548 2.43896,-2.431766 0.826649,-0.573856 2.838268,-1.559539 3.210008,-1.572887 0.141157,-0.0051 0.515277,-0.09559 0.83138,-0.201156 l 0.574732,-0.191941 0.03112,-5.804795 c 0.0265,-4.942053 0.0051,-5.884884 -0.143683,-6.343654 -0.266727,-0.82222 -0.230165,-1.816786 0.08382,-2.280206 0.330626,-0.487974 0.438532,-0.517055 0.816217,-0.219966 0.676945,0.532485 0.700415,0.665529 0.77941,4.418387 0.07711,3.663275 0.233096,6.000296 0.435895,6.530694 0.26485,0.692687 -0.0034,2.370043 -0.500248,3.128375 -0.363991,0.555519 -0.27196,0.646986 0.796391,0.791526 0.252883,0.03421 0.673643,0.106972 0.935023,0.161688 0.673878,0.141066 2.557906,1.081055 3.137761,1.565511 0.269144,0.224864 0.535744,0.408842 0.592444,0.408842 0.146325,0 1.599354,1.4422 1.599354,1.587434 0,0.06619 0.06533,0.188695 0.145174,0.272236 0.07984,0.08354 0.236788,0.295014 0.348762,0.46994 0.249236,0.389356 0.328802,0.353501 1.310959,-0.590727 0.392097,-0.376956 0.805904,-0.715433 0.919571,-0.752171 0.224516,-0.07257 3.564362,-3.438375 4.398924,-4.433119 0.311722,-0.371552 0.617782,-0.909485 0.777787,-1.367043 0.439518,-1.256867 1.226374,-1.843771 2.263426,-1.688255 0.570915,0.08561 1.684677,0.844316 2.233569,1.521522 0.196057,0.24189 0.538502,0.664528 0.760988,0.939196 0.222487,0.274669 0.404521,0.542536 0.404521,0.59526 0,0.05272 0.06533,0.164212 0.145174,0.247753 0.07984,0.08354 0.235125,0.292476 0.345067,0.464301 0.120493,0.188315 0.26568,0.287163 0.365512,0.248854 0.256834,-0.09856 0.10074,-1.176592 -0.22274,-1.538306 -0.141344,-0.158052 -0.28582,-0.390818 -0.321055,-0.517259 -0.03524,-0.126441 -0.223106,-0.6437 -0.417488,-1.149465 -0.530247,-1.379655 -0.428723,-2.072796 0.343007,-2.341822 0.33758,-0.117681 0.448073,-0.427938 0.232388,-0.652533 -0.05768,-0.06006 -0.239671,-0.514005 -0.404432,-1.008768 -0.164761,-0.494762 -0.402063,-1.100481 -0.527339,-1.346041 -0.125275,-0.24556 -0.227773,-0.500514 -0.227773,-0.566562 0,-0.06605 -0.129315,-0.388146 -0.287366,-0.715771 -0.158051,-0.327624 -0.287366,-0.642841 -0.287366,-0.700479 0,-0.05764 -0.07504,-0.267795 -0.166756,-0.467011 -0.688594,-1.495698 -1.882431,-4.965453 -2.260304,-6.569319 -0.490268,-2.080924 -0.494769,-5.96082 -0.0095,-8.187833 0.126351,-0.579856 0.264426,-0.764869 0.707912,-0.948567 0.183023,-0.07581 0.356276,-0.199095 0.385006,-0.273965 0.02873,-0.07487 0.0065,-0.729639 -0.0493,-1.455043 -0.281183,-3.652365 -0.259208,-4.153613 0.366489,-8.359386 0.05878,-0.395128 0.151907,-1.041702 0.206939,-1.43683 0.05503,-0.395129 0.155652,-0.889235 0.223597,-1.098015 0.101389,-0.311545 0.09236,-0.391562 -0.05034,-0.446323 -0.09563,-0.0367 -0.286771,-0.01241 -0.424753,0.05397 -0.416499,0.20038 -3.551161,1.153138 -4.044108,1.229177 -0.252882,0.03901 -0.878439,0.09931 -1.390128,0.134008 -0.790076,0.05357 -1.011035,0.02632 -1.465567,-0.180739 -0.294376,-0.134103 -0.535228,-0.294257 -0.535228,-0.355897 0,-0.06164 -0.06561,-0.112074 -0.14579,-0.112074 -0.08019,0 -0.396172,-0.206903 -0.702194,-0.459785 -0.306024,-0.252883 -0.6005,-0.459786 -0.654394,-0.459786 -0.05389,0 -0.302836,-0.206904 -0.553203,-0.459786 -0.250367,-0.252882 -0.501685,-0.459786 -0.558483,-0.459786 -0.0568,0 -0.306553,-0.169316 -0.55501,-0.376258 -0.248457,-0.206942 -0.63278,-0.511064 -0.854052,-0.675827 -0.221272,-0.164763 -0.565107,-0.45635 -0.764077,-0.647972 -0.198971,-0.191622 -0.612778,-0.487491 -0.919571,-0.657488 -0.306795,-0.169996 -0.639469,-0.381529 -0.739278,-0.470073 -0.09981,-0.08854 -0.219804,-0.160989 -0.266657,-0.160989 -0.04685,0 -0.301408,-0.145671 -0.56568,-0.323712 C 51.022543,33.177553 50.521827,32.887272 50.174114,32.710526 49.826401,32.53378 49.46432,32.323266 49.369489,32.242717 49.274659,32.162167 48.93844,31.95844 48.622337,31.78999 48.306234,31.62154 47.841859,31.359633 47.590392,31.207974 L 47.13319,30.932235 46.670832,31.20721 c -0.254298,0.151236 -0.720989,0.413143 -1.037092,0.582016 -0.316103,0.168872 -0.652321,0.37484 -0.747152,0.457704 -0.09483,0.08286 -0.4743,0.309316 -0.843265,0.503225 -0.643745,0.338319 -1.482327,0.827193 -2.620138,1.52748 -0.292749,0.180177 -0.690237,0.478557 -0.883308,0.663066 -0.193071,0.184509 -0.548398,0.469072 -0.789614,0.632362 -0.803537,0.543948 -1.202797,0.852402 -1.821199,1.406992 -0.337283,0.302478 -0.849347,0.696134 -1.137921,0.874791 -0.288574,0.178656 -0.735532,0.500992 -0.993241,0.716301 -0.628796,0.525345 -1.156809,0.666651 -2.188719,0.585739 -1.460336,-0.114503 -1.73869,-0.177202 -4.412785,-0.993973 -0.379323,-0.11586 -0.844856,-0.22807 -1.034518,-0.249356 -0.340166,-0.03818 -0.344577,-0.03169 -0.325492,0.478557 0.01064,0.284492 0.07573,0.801751 0.144644,1.149464 0.06891,0.347713 0.173649,1.046013 0.232743,1.551777 0.0591,0.505765 0.162113,1.100271 0.228931,1.321126 0.07512,0.248311 0.121487,1.897229 0.121487,4.320777 v 3.919225 l 0.281286,0.128163 c 0.609011,0.277483 0.717118,0.62748 1.054714,3.414605 0.297475,2.455897 0.212185,3.58781 -0.472043,6.264581 -0.104879,0.410295 -0.635261,2.177564 -0.776183,2.586295 -0.37457,1.0864 -0.882071,2.467065 -1.035164,2.816188 -0.09703,0.221272 -0.280544,0.660942 -0.407808,0.977045 -0.127265,0.316103 -0.365804,0.891556 -0.530087,1.278785 -0.164284,0.387228 -0.298698,0.734845 -0.298698,0.772481 0,0.03764 -0.123246,0.341525 -0.273878,0.675305 -0.150634,0.333782 -0.311197,0.736191 -0.356809,0.894242 -0.04561,0.158051 -0.150332,0.394602 -0.232711,0.525669 -0.304504,0.484463 -0.250022,0.694412 0.317402,1.223115 0.560287,0.522054 0.680071,0.88809 0.43445,1.327593 -0.06135,0.109779 -0.238803,0.561678 -0.394337,1.004222 -0.155535,0.442544 -0.42193,1.177809 -0.59199,1.633922 -0.17006,0.456114 -0.279059,0.907844 -0.24222,1.003844 0.09461,0.246553 0.395946,0.09958 0.598357,-0.291838 0.09313,-0.1801 0.375713,-0.538003 0.627955,-0.795339 0.252241,-0.257337 0.45862,-0.51682 0.45862,-0.57663 0,-0.265729 1.515906,-1.619161 2.1262,-1.898317 0.631371,-0.288795 0.6607,-0.29159 1.185944,-0.113036 0.861888,0.292995 1.165445,0.638755 1.555991,1.772328 0.09005,0.261369 0.360134,0.760392 0.600187,1.108939 0.437218,0.63482 4.573051,4.761255 5.334212,5.32209 0.22261,0.164023 0.575951,0.443257 0.785203,0.620522 0.209252,0.177266 0.429826,0.291789 0.490165,0.254498 0.06034,-0.03729 0.218037,-0.280147 0.350441,-0.539679 z M 11.896957,77.899132 c 0,-0.614011 -0.895822,-4.311022 -1.170297,-4.829753 -0.09732,-0.183927 -0.140599,-0.190102 -0.360975,-0.05151 -0.3983004,0.250494 -1.1890049,0.469772 -1.4488963,0.401809 -0.3953771,-0.103393 -0.2937384,0.29954 0.4100552,1.625612 0.9327381,1.757441 1.9853381,3.228919 2.3114841,3.231327 0.216356,0.0016 0.258629,-0.0601 0.258629,-0.377489 z m 71.34356,-0.254642 c 0.305494,-0.348723 0.636966,-0.783739 0.736604,-0.966703 0.09964,-0.182963 0.279871,-0.479562 0.400517,-0.659106 0.313118,-0.465977 1.61207,-3.033946 2.083851,-4.119677 0.912617,-2.100251 1.35299,-3.167938 1.777881,-4.310492 0.246859,-0.663816 0.497218,-1.31039 0.556354,-1.436831 0.05914,-0.126441 0.3202,-0.876466 0.580144,-1.666723 0.259942,-0.790257 0.516438,-1.540283 0.56999,-1.666724 0.05355,-0.126441 0.123449,-0.359207 0.155326,-0.517259 0.03188,-0.158051 0.301204,-1.192569 0.598503,-2.298929 l 0.540544,-2.011563 0.0061,-2.298929 c 0.0046,-1.756676 -0.04045,-2.515829 -0.191173,-3.2185 -0.259952,-1.211913 -0.732566,-2.633455 -1.08915,-3.275974 -0.157887,-0.284492 -0.343446,-0.618077 -0.412355,-0.741299 -0.06891,-0.123222 -0.215809,-0.326948 -0.326445,-0.452723 -0.110632,-0.125777 -0.201152,-0.274795 -0.201152,-0.331152 0,-0.133646 -1.329788,-1.463434 -1.463434,-1.463434 -0.05636,0 -0.2056,-0.09608 -0.331651,-0.213516 -0.257221,-0.239638 -2.56516,-1.395734 -2.786333,-1.395734 -0.07837,0 -0.356613,-0.103452 -0.618316,-0.229893 -0.261702,-0.126441 -0.521024,-0.229893 -0.576268,-0.229893 -0.05524,0 -0.472267,-0.175127 -0.926718,-0.389174 -1.071364,-0.504611 -1.651209,-0.76029 -1.724233,-0.76029 -0.03223,0 -0.445182,-0.181041 -0.917679,-0.402313 -0.472496,-0.221272 -0.891478,-0.402312 -0.931069,-0.402312 -0.03959,0 -0.291256,-0.101689 -0.559255,-0.225976 -1.165981,-0.540732 -2.263468,-0.951123 -2.944494,-1.101055 -0.403164,-0.08876 -1.709357,-0.405203 -2.902652,-0.703208 -2.486266,-0.620904 -2.329574,-0.651894 -2.664394,0.526947 -0.64791,2.281181 -0.72065,4.463155 -0.256683,7.699773 0.155406,1.084108 0.313637,2.021396 0.351623,2.082859 0.09011,0.145798 1.285505,0.145465 1.375644,-3.45e-4 0.03812,-0.06167 0.0065,-0.747042 -0.07021,-1.523041 -0.106994,-1.082047 -0.109023,-1.825228 -0.0087,-3.188464 0.118741,-1.613568 0.163623,-1.844212 0.486509,-2.500085 0.289226,-0.587502 0.407301,-0.722529 0.631819,-0.722529 0.467497,0 0.525874,0.295274 0.402057,2.033676 -0.06217,0.872925 -0.164192,2.388888 -0.226707,3.368807 -0.06251,0.979918 -0.145645,1.939745 -0.184732,2.132947 -0.04639,0.229291 -0.01773,0.394016 0.08253,0.474348 0.08447,0.06769 0.743834,0.183684 1.465243,0.25777 1.385294,0.142267 1.498565,0.114839 1.502776,-0.363897 0.005,-0.572354 1.553554,-4.097321 2.146555,-4.886307 0.326566,-0.434494 0.444007,-0.461167 0.615946,-0.139897 0.120571,0.225289 0.06575,0.529908 -0.237188,1.318098 -0.0486,0.126441 -0.153805,0.488523 -0.233794,0.804625 -0.07999,0.316103 -0.321269,1.040266 -0.536177,1.609251 -0.581409,1.539317 -0.639869,1.77251 -0.489719,1.953428 0.07124,0.08584 0.449661,0.25763 0.840928,0.381747 0.391269,0.124118 1.113619,0.386573 1.605224,0.583233 0.491605,0.196661 0.938165,0.357565 0.992357,0.357565 0.05419,0 0.57879,-0.956671 1.165776,-2.125938 1.126187,-2.243345 1.496672,-2.719914 1.723162,-2.216574 0.142865,0.317502 -0.233968,1.670412 -0.810115,2.908477 -0.205227,0.441007 -0.431284,0.931145 -0.50235,1.089196 -0.07106,0.158051 -0.193867,0.355718 -0.272893,0.43926 -0.15789,0.166912 -0.188385,0.587096 -0.05571,0.767678 0.227791,0.310053 1.773392,1.666484 1.89701,1.664832 0.07784,-0.001 0.296707,-0.316457 0.486369,-0.700927 0.189661,-0.38447 0.512948,-0.89617 0.718415,-1.137109 0.205467,-0.24094 0.373576,-0.488489 0.373576,-0.550108 0,-0.06162 0.207278,-0.299299 0.460619,-0.528177 0.40443,-0.365378 0.488718,-0.398594 0.690963,-0.27229 0.28473,0.177817 0.385932,0.473868 0.29112,0.851629 -0.117839,0.469507 -0.727856,1.694905 -1.09835,2.206357 -0.189394,0.261451 -0.344415,0.514608 -0.344492,0.56257 -7.7e-5,0.04796 -0.129392,0.237497 -0.287367,0.421187 -0.331799,0.385812 -0.358339,0.676406 -0.105971,1.160322 0.254319,0.487657 0.96821,2.630621 0.96821,2.90638 0,0.384698 0.346098,0.40666 0.85432,0.05421 0.257161,-0.17834 0.622742,-0.400088 0.812404,-0.492773 0.189661,-0.09269 0.370702,-0.198944 0.402312,-0.236128 0.03161,-0.03718 0.294785,-0.205376 0.584832,-0.37376 0.832169,-0.483107 1.254311,-0.387895 1.254311,0.282906 0,0.460691 -0.983671,1.309318 -2.243232,1.93527 -0.661729,0.328852 -1.231946,0.644518 -1.267151,0.70148 -0.0352,0.05696 -0.08265,0.919165 -0.105443,1.916009 -0.02279,0.996844 -0.0591,1.941758 -0.08069,2.099809 -0.03885,0.284469 -0.03056,0.287367 0.822851,0.287367 0.850739,0 0.86257,0.0041 0.897862,0.309796 0.05578,0.483153 -0.515466,0.995914 -1.44314,1.2954 l -0.776606,0.250715 -0.245081,0.738768 c -0.403157,1.215274 -0.955627,3.357096 -0.892349,3.459481 0.03245,0.05251 0.151388,0.09548 0.2643,0.09548 0.112912,0 0.292847,0.09674 0.399855,0.214987 0.287455,0.317634 0.05145,0.731054 -0.628642,1.101205 -0.306748,0.166954 -0.587364,0.351509 -0.62359,0.410124 -0.03623,0.05862 -0.167253,0.508856 -0.291171,1.000535 -0.123919,0.491679 -0.273055,1.075002 -0.331415,1.296274 -0.575194,2.180871 -0.383973,2.6075 0.643184,1.434995 z M 8.7775001,72.491966 c 0.086084,-0.103212 0.4662965,-0.30061 0.8449163,-0.438662 L 10.310816,71.8023 10.237263,71.333394 c -0.04045,-0.2579 -0.122024,-0.624086 -0.181265,-0.813748 C 9.9967567,70.329985 9.8022004,69.657548 9.6236507,69.025343 L 9.2990151,67.875878 8.3907137,67.841887 c -0.4995657,-0.01869 -0.9754097,-0.08969 -1.057431,-0.157758 -0.082021,-0.06807 -0.1491296,-0.29258 -0.1491296,-0.498907 0,-0.313661 0.064071,-0.405545 0.3909477,-0.560658 0.2150212,-0.102034 0.544906,-0.185517 0.7330773,-0.185517 0.555642,0 0.6198272,-0.186044 0.4196824,-1.21647 C 8.6110149,64.62101 8.5762302,64.053604 8.6252398,63.548641 8.7008603,62.769497 8.5794407,62.302093 8.3008367,62.299852 8.0327257,62.297696 7.0085446,61.744624 6.6094208,61.386462 6.3881489,61.187901 6.064862,60.939202 5.8910055,60.8338 5.3059585,60.479107 5.5774209,59.54226 6.265244,59.54226 c 0.4362709,0 0.9780576,0.20647 1.7527674,0.667962 0.3671904,0.218734 0.685902,0.37776 0.708248,0.353391 0.036206,-0.03948 0.366893,-1.214619 0.6390594,-2.270974 C 9.5038611,57.754918 9.4306424,57.636197 8.7535202,57.300635 8.4277429,57.139189 7.9369324,56.80162 7.6628302,56.550481 7.3887278,56.299344 7.1200853,56.093867 7.0658467,56.093867 c -0.054239,0 -0.4118895,-0.307491 -0.7947798,-0.683313 -0.6158036,-0.604435 -0.6961641,-0.735066 -0.6961641,-1.131649 0,-0.552483 0.3112577,-0.889452 0.7101777,-0.768842 0.2615743,0.07908 1.3564327,0.705714 1.4780305,0.845933 0.033934,0.03913 0.531888,0.529257 1.1065637,1.089171 0.8512068,0.82934 1.090099,1.003666 1.2889223,0.940562 0.134231,-0.0426 0.244057,-0.139581 0.244057,-0.215505 0,-0.138411 0.514726,-0.818003 1.377515,-1.818734 l 0.461634,-0.535439 -0.488526,-0.310917 c -0.418383,-0.266277 -1.9253556,-1.957468 -1.9253556,-2.16072 0,-0.03818 -0.2844925,-0.48722 -0.6322055,-0.997869 -0.6440533,-0.945853 -0.7641182,-1.377883 -0.5132147,-1.8467 0.089598,-0.167415 0.2422881,-0.222337 0.6181308,-0.222337 0.6306712,0 0.803351,0.191175 0.703976,0.779372 -0.06539,0.38704 -0.019932,0.522633 0.3628,1.082153 0.576452,0.842722 2.569677,2.966226 2.784244,2.966226 0.09257,0 0.507644,-0.20347 0.922379,-0.452155 0.414733,-0.248685 0.986827,-0.538838 1.27132,-0.644784 0.284492,-0.105947 0.680254,-0.264558 0.87947,-0.35247 0.199216,-0.08791 0.412718,-0.159841 0.474447,-0.159841 0.06173,0 0.175713,-0.07648 0.253295,-0.169964 0.114587,-0.138068 0.06488,-0.326822 -0.264882,-1.005782 -0.223268,-0.459699 -0.517793,-1.172035 -0.654501,-1.582969 -0.136708,-0.410933 -0.347396,-0.966423 -0.468195,-1.234421 -0.274652,-0.609329 -0.295403,-1.470623 -0.03781,-1.569469 0.293057,-0.112456 0.911207,-0.08023 1.045969,0.05453 0.08897,0.08897 0.0891,0.238995 4.6e-4,0.527747 -0.103688,0.337846 -0.0791,0.537233 0.151253,1.226317 0.151292,0.452581 0.336695,0.926325 0.412007,1.052767 0.07531,0.126441 0.200672,0.436796 0.278575,0.689678 0.0779,0.252882 0.187121,0.508926 0.242704,0.568985 0.05558,0.06006 0.101061,0.216659 0.101061,0.347999 0,0.131342 0.0768,0.348442 0.170656,0.482448 0.147048,0.20994 0.230535,0.230286 0.603469,0.147066 0.937847,-0.209279 2.468473,-0.37074 4.168318,-0.439705 l 1.781416,-0.07228 0.202716,-1.60925 c 0.111494,-0.885088 0.253855,-1.95936 0.316357,-2.387272 0.1659,-1.135807 0.139073,-2.805913 -0.06459,-4.020942 -0.21303,-1.270905 -0.707023,-2.843786 -0.894464,-2.847977 -0.134403,-0.003 -1.53068,0.318245 -3.525139,0.811056 -0.221272,0.05467 -0.764394,0.185792 -1.206938,0.291374 -0.442543,0.105582 -0.959802,0.258724 -1.149464,0.340314 -0.189662,0.08159 -0.810373,0.327964 -1.379357,0.547495 -0.568985,0.219531 -1.3966,0.566917 -1.839144,0.771967 -0.913432,0.423238 -2.141958,0.949245 -2.988607,1.279608 -0.316103,0.123344 -0.900342,0.377176 -1.298309,0.564074 -0.397967,0.186896 -0.7610279,0.339811 -0.8068019,0.339811 -0.1525916,0 -1.7988723,0.716465 -2.0904348,0.909761 -0.1580514,0.104783 -0.4346562,0.264748 -0.6146773,0.355478 -0.4906622,0.247291 -1.9224551,1.694374 -2.3875521,2.413047 -1.0189403,1.574481 -1.542559,3.353517 -1.8269207,6.207109 -0.1105288,1.109164 -0.1017216,1.549899 0.05473,2.73881 0.2059472,1.565046 1.2272677,5.615819 1.8163566,7.204058 0.093796,0.252882 0.3640341,1.002907 0.6005294,1.666723 0.2364952,0.663816 0.5533331,1.480032 0.7040842,1.813814 0.150751,0.33378 0.2740928,0.650817 0.2740928,0.704524 0,0.08873 0.1926723,0.545586 0.8158893,1.934584 0.1202459,0.267999 0.2186287,0.517208 0.2186287,0.553801 0,0.03659 0.2192957,0.53344 0.4873236,1.104105 0.4527387,0.96394 0.4955662,1.017598 0.6034688,0.756082 0.06388,-0.154821 0.1865778,-0.365939 0.2726618,-0.469152 z"
     id="path1256" /><path
     style="fill:#ffffff;fill-rule:evenodd;stroke-width:0.114946"
     d="M 37.928273,71.32735 C 36.949449,71.017962 36.185801,70.525284 35.218615,69.579177 34.674381,69.046805 34.157122,68.471636 34.069151,68.301026 33.981181,68.130415 33.817729,67.922566 33.705928,67.83914 33.594127,67.75571 33.366953,67.419495 33.201097,67.091988 33.035241,66.764481 32.785924,66.341343 32.647058,66.151681 32.327411,65.71511 31.093251,63.27725 31.092306,63.08055 31.091917,62.9995 31.019586,62.795162 30.931577,62.626473 30.725172,62.23086 30.605163,61.47784 30.720558,61.302385 c 0.166677,-0.253429 0.667654,-0.367484 1.144014,-0.260453 0.461504,0.103693 2.340307,1.019666 2.670942,1.302165 0.18781,0.160467 2.009662,0.762849 2.304823,0.762073 0.09483,-2.53e-4 0.456912,0.109111 0.804625,0.243024 0.347713,0.133912 0.994287,0.297633 1.436831,0.363824 0.981551,0.14681 2.970892,0.168834 3.466463,0.03838 0.31686,-0.08341 0.387603,-0.05785 0.557515,0.201473 0.324309,0.494958 0.378087,1.01834 0.281275,2.737454 -0.145967,2.591989 -0.214946,2.766121 -1.342273,3.38847 -1.675244,0.924831 -2.015743,1.093145 -2.522409,1.246866 -0.656131,0.19907 -0.968589,0.199401 -1.594091,0.0017 z"
     id="path1258" /><path
     style="fill:#ffffff;fill-rule:evenodd;stroke-width:0.114946"
     d="m 46.870721,51.090308 c -0.571332,-0.400177 -0.691666,-1.61499 -0.825158,-8.330229 -0.06267,-3.152862 -0.146494,-5.119719 -0.226874,-5.323756 -0.07718,-0.195917 -0.125297,-1.125622 -0.121955,-2.356403 0.0045,-1.674419 0.04008,-2.103481 0.201527,-2.433626 0.107803,-0.220445 0.276882,-0.416385 0.375731,-0.435421 0.484513,-0.09331 1.289491,1.167529 1.598005,2.502955 0.08033,0.347713 0.21927,0.890835 0.308756,1.206937 0.133564,0.471801 0.155442,1.676097 0.122159,6.724368 -0.04439,6.733503 -0.105401,7.429555 -0.722046,8.238018 -0.333437,0.437159 -0.367559,0.447112 -0.710145,0.207157 z"
     id="path1260" /><path
     style="fill:#ffffff;fill-rule:evenodd;stroke-width:0.114946"
     d="m 54.54209,71.332137 c -0.667,-0.24596 -1.540902,-0.65668 -1.724197,-0.810343 -0.09483,-0.0795 -0.456912,-0.301158 -0.804625,-0.492572 -0.926772,-0.510182 -1.076647,-0.767495 -1.175154,-2.017567 -0.239132,-3.034625 -0.238981,-3.092643 0.0095,-3.666778 0.268126,-0.61942 0.620633,-0.783099 1.219864,-0.566414 0.447301,0.161746 1.724725,0.171536 2.386712,0.01829 0.269594,-0.06241 1.059156,-0.244529 1.754582,-0.40471 1.771553,-0.408052 2.187564,-0.560278 4.12145,-1.508113 2.549969,-1.249789 3.178074,-1.249036 3.177278,0.0038 -3.23e-4,0.507922 -0.135187,0.852642 -1.016095,2.597217 -1.565408,3.100178 -2.781139,4.756591 -4.369725,5.953678 -1.278366,0.963319 -2.537801,1.277683 -3.579631,0.893501 z"
     id="path1262" /><path
     style="fill:#ffffff;fill-rule:evenodd;stroke-width:0.114946"
     d="m 38.242684,42.507197 c -0.156219,-0.156219 -0.188105,-1.138119 -0.04237,-1.304642 0.05256,-0.06006 0.157392,-0.326704 0.232955,-0.592542 0.07556,-0.265838 0.252391,-0.627919 0.392953,-0.804625 0.140562,-0.176705 0.353262,-0.502323 0.472665,-0.723595 0.662295,-1.227326 1.677033,-2.413876 2.064347,-2.413876 0.334996,0 0.561047,0.423704 0.480477,0.900595 -0.09472,0.560667 0.119136,0.764067 0.390857,0.371739 0.358514,-0.517646 1.074957,-1.272334 1.207857,-1.272334 0.3175,0 0.562853,0.317834 0.548109,0.710029 -0.0158,0.42023 -1.027081,2.487906 -1.437695,2.939521 -0.502825,0.553033 -1.229594,0.181227 -1.229594,-0.629045 0,-0.513756 -0.151896,-0.4729 -0.413591,0.111242 -0.317107,0.707828 -1.046546,1.794057 -1.58277,2.356946 -0.468033,0.491308 -0.827308,0.607482 -1.084203,0.350587 z"
     id="path1264" /><path
     style="fill:#ffffff;fill-rule:evenodd;stroke-width:0.114946"
     d="m 35.322183,47.324746 c -0.355127,-0.289903 -0.459247,-0.835157 -0.392742,-2.05672 0.118959,-2.185073 0.326159,-3.444701 0.755297,-4.591676 0.285272,-0.762457 0.579645,-1.072187 0.917201,-0.965051 0.298983,0.09489 0.397246,0.474511 0.304979,1.178217 -0.03957,0.301773 -0.11127,0.988349 -0.15934,1.525724 -0.04807,0.537374 -0.133717,1.051754 -0.190329,1.143065 -0.102066,0.164627 -0.246697,1.212285 -0.36586,2.650167 -0.03406,0.410934 -0.117555,0.814634 -0.185554,0.897111 -0.229036,0.2778 -0.503888,0.365912 -0.683652,0.219163 z"
     id="path1266" /><path
     style="fill:#ffffff;fill-rule:evenodd;stroke-width:0.114946"
     d="m 30.196432,49.633877 c -0.229122,-0.229122 -0.162302,-0.388521 0.40806,-0.973432 0.58607,-0.601019 1.178201,-1.681844 1.178201,-2.150587 0,-0.1583 0.04576,-0.316101 0.101694,-0.350668 0.05593,-0.03457 0.129155,-0.205729 0.16272,-0.38036 0.03357,-0.17463 0.168844,-0.622963 0.300619,-0.996294 0.131776,-0.373332 0.244975,-0.864728 0.251555,-1.091992 0.0066,-0.227263 0.148825,-0.80115 0.316102,-1.275304 0.242616,-0.687705 0.355637,-0.869421 0.558707,-0.898298 0.360889,-0.05132 0.429727,0.345394 0.206002,1.18718 -0.100592,0.378489 -0.22886,1.077511 -0.28504,1.55338 -0.06758,0.57247 -0.235526,1.155856 -0.496354,1.724197 -0.216815,0.472438 -0.46077,1.065882 -0.542123,1.318765 -0.224917,0.699154 -0.5227,1.20425 -1.101221,1.867879 -0.526422,0.603866 -0.800219,0.724236 -1.058922,0.465534 z"
     id="path1268" /><path
     style="fill:#ffffff;fill-rule:evenodd;stroke-width:0.114946"
     d="m 21.442893,49.950715 c -0.19519,-0.23519 -0.403635,-1.057102 -0.932847,-3.678278 -0.531805,-2.634015 -0.593054,-3.305342 -0.325945,-3.572551 0.167951,-0.168015 0.197942,-0.161096 0.355627,0.08203 0.266386,0.410734 0.743029,1.679877 0.941528,2.50698 0.452562,1.885728 0.530989,2.380244 0.530989,3.348136 0,1.289491 -0.202211,1.756056 -0.569352,1.313678 z"
     id="path1270" /><path
     style="fill:#ffffff;fill-rule:evenodd;stroke-width:0.114946"
     d="m 32.49869,59.235435 c -0.343721,-0.138295 -0.903069,-1.70795 -1.180945,-3.313988 -0.05469,-0.316102 -0.132276,-0.7345 -0.172411,-0.929772 -0.08939,-0.43495 0.165736,-0.736951 0.62258,-0.736951 0.438888,0 0.589511,0.197315 0.589511,0.772254 0,0.492323 0.282833,1.694795 0.626093,2.661855 0.238629,0.672283 0.226984,1.199216 -0.03167,1.4333 -0.223796,0.202533 -0.228472,0.203702 -0.453153,0.113302 z"
     id="path1272" /><path
     style="fill:#ffffff;fill-rule:evenodd;stroke-width:0.114946"
     d="m 31.676089,69.929413 c -0.131029,-0.166578 -0.238235,-0.337865 -0.238235,-0.380639 0,-0.04277 -0.110315,-0.196179 -0.245145,-0.340902 -0.255717,-0.27448 -0.590706,-0.855649 -1.165119,-2.021352 -0.603053,-1.223824 -0.751484,-1.718377 -0.834592,-2.780753 -0.07571,-0.967838 -0.06407,-1.060281 0.162069,-1.286416 0.286131,-0.286131 0.358139,-0.295895 0.643477,-0.08725 0.157557,0.115209 0.250637,0.425471 0.353464,1.178201 0.163466,1.19663 0.710648,2.770358 1.200334,3.452234 0.189914,0.26445 0.345298,0.53702 0.345298,0.60571 0,0.06869 0.0422,0.124892 0.09378,0.124892 0.167152,0 0.595898,0.883782 0.595898,1.228336 0,0.643795 -0.511165,0.816537 -0.911229,0.30794 z"
     id="path1274" /><path
     style="fill:#ffffff;fill-rule:evenodd;stroke-width:0.114946"
     d="M 35.284736,61.017787 C 34.799484,60.591731 34.341,59.728774 33.855589,58.327851 33.455377,57.172816 33.425685,56.79414 33.708046,56.446174 c 0.170195,-0.209738 0.23043,-0.224967 0.391343,-0.09894 0.241419,0.189074 2.281162,4.249289 2.281162,4.540772 0,0.574081 -0.519689,0.635631 -1.095815,0.129785 z"
     id="path1276" /><path
     style="fill:#ffffff;fill-rule:evenodd;stroke-width:0.114946"
     d="m 38.968314,75.062407 c -0.0902,-0.14595 0.07868,-0.453214 0.693311,-1.261398 1.087621,-1.430127 3.430583,-3.146041 3.99826,-2.928203 0.09592,0.03681 0.205764,0.148634 0.244085,0.248497 0.101974,0.26574 -2.298645,2.599304 -3.49927,3.401526 -0.954957,0.638074 -1.296271,0.766288 -1.436386,0.539578 z"
     id="path1278" /><path
     style="fill:#ffffff;fill-rule:evenodd;stroke-width:0.114946"
     d="m 54.753653,74.210586 c -0.521511,-0.140458 -0.692882,-0.2557 -1.98453,-1.334537 -0.340611,-0.284493 -0.86952,-0.6983 -1.175353,-0.919572 -0.305833,-0.221272 -0.675129,-0.518696 -0.820658,-0.660942 -0.145528,-0.142246 -0.308438,-0.25863 -0.362021,-0.25863 -0.156619,0 -0.255037,-0.372747 -0.131133,-0.496651 0.23409,-0.23409 0.825595,-0.09606 1.318227,0.307616 0.560536,0.459317 1.057429,0.766323 1.79444,1.108694 0.284493,0.132159 0.708199,0.393108 0.941568,0.579886 0.23337,0.186779 0.480224,0.339599 0.548564,0.339599 0.14748,0 1.153637,0.907873 1.153637,1.040947 0,0.166291 -0.357235,0.453518 -0.554206,0.445598 -0.106121,-0.0043 -0.433961,-0.07267 -0.728535,-0.152008 z"
     id="path1280" /><path
     style="fill:#ffffff;fill-rule:evenodd;stroke-width:0.114946"
     d="m 60.409035,71.674745 c -0.111528,-0.134382 -0.0696,-0.266814 0.215818,-0.681653 0.194831,-0.283176 0.354238,-0.561188 0.354238,-0.617802 0,-0.05662 0.130136,-0.225192 0.289191,-0.374617 0.159054,-0.149424 0.426078,-0.505262 0.593386,-0.790751 0.167308,-0.285489 0.460807,-0.691175 0.65222,-0.901524 0.191414,-0.210349 0.411377,-0.566732 0.488807,-0.791961 0.07743,-0.225229 0.243973,-0.520986 0.370095,-0.657239 0.365542,-0.394902 0.847816,-1.881738 0.900609,-2.776553 0.05275,-0.894083 0.213063,-1.321884 0.495359,-1.321884 0.371052,0 0.463352,0.257211 0.463352,1.291222 0,0.855185 -0.04533,1.104804 -0.287366,1.582439 -0.158052,0.3119 -0.287367,0.664314 -0.287367,0.783144 0,0.271822 -0.295018,0.871556 -0.520982,1.05909 -0.09425,0.07822 -0.27443,0.375204 -0.400388,0.659954 -0.125959,0.28475 -0.319682,0.601203 -0.430496,0.70323 -0.110814,0.102026 -0.271585,0.322256 -0.357269,0.489399 -0.08568,0.167143 -0.382755,0.580583 -0.660158,0.918756 -0.277402,0.338173 -0.504368,0.652222 -0.504368,0.697886 0,0.04566 -0.160536,0.265865 -0.356747,0.489337 -0.378817,0.431449 -0.780257,0.525911 -1.017934,0.239527 z"
     id="path1282" /><path
     style="fill:#ffffff;fill-rule:evenodd;stroke-width:0.114946"
     d="m 63.53665,48.482056 c -0.142247,-0.0686 -0.25863,-0.20218 -0.25863,-0.296838 0,-0.09466 -0.126133,-0.435904 -0.280295,-0.758323 -1.033855,-2.16223 -1.107533,-2.356245 -1.444863,-3.804718 -0.249924,-1.073157 -0.26104,-1.395914 -0.05871,-1.704705 0.105584,-0.161142 0.260286,-0.266769 0.343783,-0.234729 0.0835,0.03204 0.265523,0.429795 0.404503,0.883899 0.13898,0.454103 0.29461,0.929094 0.345843,1.055535 0.05123,0.126441 0.313409,0.876467 0.582612,1.666724 0.457665,1.343493 0.712929,1.917255 1.098086,2.468188 0.208431,0.298142 0.201164,0.362817 -0.07138,0.635366 -0.258778,0.258778 -0.298885,0.264215 -0.660942,0.0896 z"
     id="path1284" /></svg>
