<?xml version="1.0" encoding="UTF-8" standalone="no"?>
<!-- Created with Inkscape (http://www.inkscape.org/) -->

<svg
   width="75"
   height="100"
   viewBox="0 0 75 100"
   version="1.1"
   id="svg5"
   inkscape:version="1.2.1 (9c6d41e410, 2022-07-14)"
   sodipodi:docname="armor_ring.svg"
   xml:space="preserve"
   xmlns:inkscape="http://www.inkscape.org/namespaces/inkscape"
   xmlns:sodipodi="http://sodipodi.sourceforge.net/DTD/sodipodi-0.dtd"
   xmlns="http://www.w3.org/2000/svg"
   xmlns:svg="http://www.w3.org/2000/svg"><sodipodi:namedview
     id="namedview7"
     pagecolor="#ffffff"
     bordercolor="#999999"
     borderopacity="1"
     inkscape:pageshadow="0"
     inkscape:pageopacity="0"
     inkscape:pagecheckerboard="0"
     inkscape:document-units="px"
     showgrid="false"
     height="70mm"
     units="px"
     inkscape:zoom="33.502101"
     inkscape:cx="41.295918"
     inkscape:cy="51.728099"
     inkscape:window-width="3840"
     inkscape:window-height="2066"
     inkscape:window-x="-11"
     inkscape:window-y="-11"
     inkscape:window-maximized="1"
     inkscape:current-layer="layer1"
     inkscape:showpageshadow="2"
     inkscape:deskcolor="#d1d1d1" /><defs
     id="defs2" /><g
     inkscape:label="Layer 1"
     inkscape:groupmode="layer"
     id="layer1"><path
       style="fill:#ffffff;fill-rule:evenodd;stroke-width:0.0298489"
       d="m 37.758826,65.7671 c -0.141066,-0.05371 -1.202556,-0.125831 -1.883953,-0.127992 -0.351185,-0.0011 -0.538993,-0.01797 -0.847219,-0.07605 -0.323473,-0.06095 -0.489595,-0.07475 -0.906916,-0.07534 -0.280998,-3.88e-4 -0.564633,-0.01437 -0.630301,-0.03106 -0.06567,-0.01669 -0.394751,-0.04208 -0.731297,-0.05641 -0.364308,-0.01551 -0.67833,-0.04398 -0.776071,-0.07035 -0.09029,-0.02436 -0.321068,-0.05239 -0.512834,-0.06229 -0.462656,-0.02388 -0.782638,-0.06872 -0.964685,-0.135189 -0.08208,-0.02997 -0.330577,-0.09829 -0.552204,-0.151838 -0.221628,-0.05354 -0.445297,-0.116551 -0.497042,-0.140024 -0.05175,-0.02347 -0.165917,-0.06108 -0.253715,-0.08358 -0.18725,-0.04798 -0.606953,-0.196776 -0.706686,-0.250537 -0.03821,-0.0206 -0.132233,-0.05559 -0.208943,-0.07776 -0.07671,-0.02218 -0.246927,-0.08055 -0.378262,-0.12972 -0.131335,-0.04917 -0.297948,-0.111238 -0.370251,-0.137926 -0.183796,-0.06784 -0.402338,-0.192943 -0.788819,-0.451542 -0.09573,-0.06405 -0.219066,-0.143776 -0.274078,-0.177165 -0.05501,-0.03339 -0.125497,-0.08376 -0.156632,-0.111933 -0.03113,-0.02817 -0.07033,-0.05123 -0.08709,-0.05123 -0.01677,0 -0.08611,-0.0403 -0.154098,-0.08955 -0.06799,-0.04925 -0.133806,-0.08979 -0.146261,-0.09009 -0.02373,-5.67e-4 -0.06368,-0.03161 -0.481864,-0.374439 -0.253034,-0.207441 -0.35535,-0.278308 -0.578938,-0.401005 -0.06206,-0.03406 -0.135939,-0.08072 -0.164169,-0.103698 -0.333175,-0.27118 -0.443334,-0.374326 -0.570635,-0.534307 -0.157586,-0.198041 -0.501486,-0.530259 -0.730075,-0.705278 -0.07505,-0.05746 -0.207092,-0.191779 -0.293433,-0.298489 -0.08634,-0.106709 -0.298376,-0.342378 -0.47119,-0.523704 C 22.15299,59.736376 21.928531,59.473727 21.753363,59.209747 21.66457,59.075934 21.517245,58.881624 21.425974,58.77795 21.270551,58.6014 21.072835,58.336551 20.864363,58.025645 20.74856,57.852939 20.620594,57.682878 20.407557,57.418572 20.313042,57.301311 20.21272,57.171788 20.18462,57.130746 c -0.180193,-0.263187 -0.257926,-0.382523 -0.294055,-0.451439 -0.02258,-0.04308 -0.06963,-0.130387 -0.104539,-0.194017 -0.225011,-0.410106 -0.28852,-0.573252 -0.428481,-1.100703 -0.03049,-0.114919 -0.07608,-0.26267 -0.101309,-0.328338 -0.02543,-0.06621 -0.04686,-0.219118 -0.04811,-0.343262 -0.0012,-0.123127 -0.02169,-0.385051 -0.04546,-0.582053 -0.02377,-0.197003 -0.04421,-0.532803 -0.04542,-0.746222 -0.0012,-0.213419 -0.02229,-0.495491 -0.04684,-0.626826 -0.02689,-0.143856 -0.05602,-0.588867 -0.07326,-1.119333 -0.07352,-2.261882 -0.08051,-2.401018 -0.128881,-2.567003 -0.04136,-0.141928 -0.04789,-0.391949 -0.0482,-1.845494 -3.65e-4,-1.732054 -0.01955,-2.171652 -0.119441,-2.736309 -0.08628,-0.487731 -0.146911,-0.941316 -0.179547,-1.343199 -0.06443,-0.793367 -0.01053,-2.314897 0.102214,-2.885414 0.0608,-0.307649 0.106313,-0.838389 0.135244,-1.576993 0.0213,-0.543854 0.03297,-0.640117 0.104905,-0.865617 0.04452,-0.139544 0.109067,-0.347739 0.143447,-0.462658 0.108662,-0.363208 0.359564,-0.931402 0.511736,-1.158878 0.03487,-0.05213 0.135036,-0.239632 0.222592,-0.416681 0.08756,-0.177049 0.215416,-0.391961 0.284133,-0.477582 0.06872,-0.08562 0.170139,-0.229551 0.225384,-0.319844 0.227768,-0.372272 0.402661,-0.638691 0.463321,-0.70579 0.07174,-0.07935 0.170542,-0.214186 0.259292,-0.353845 0.05216,-0.08208 0.143004,-0.221447 0.201869,-0.309693 0.104952,-0.157337 0.176381,-0.272518 0.298475,-0.481302 0.0336,-0.05746 0.0983,-0.154044 0.143765,-0.214633 0.173959,-0.2318 0.913282,-1.051349 1.08261,-1.200085 0.05746,-0.05047 0.191779,-0.185881 0.298489,-0.30091 0.10671,-0.115028 0.256743,-0.272058 0.333408,-0.348955 0.142603,-0.143037 0.526773,-0.412874 0.587813,-0.412874 0.01867,0 0.06294,-0.02899 0.09838,-0.06443 0.03544,-0.03544 0.159684,-0.144963 0.276102,-0.24339 0.247665,-0.209389 0.410417,-0.379561 0.553409,-0.578637 0.135081,-0.188063 0.862256,-0.917138 1.207095,-1.210249 0.217565,-0.184929 0.312345,-0.244336 0.473962,-0.297074 0.1779,-0.05805 0.218037,-0.06164 0.336229,-0.03002 0.17925,0.04794 0.297352,0.04524 0.402667,-0.0092 0.04799,-0.02482 0.185001,-0.06409 0.304469,-0.08728 0.119468,-0.02319 0.264227,-0.06167 0.321686,-0.08553 0.05746,-0.02385 0.171631,-0.05236 0.253716,-0.06336 0.08208,-0.011 0.2567,-0.05161 0.388035,-0.09024 0.252458,-0.07427 1.288728,-0.294297 1.71631,-0.36442 0.139544,-0.02289 0.331003,-0.06814 0.425466,-0.100565 0.09446,-0.03243 0.21535,-0.05897 0.268639,-0.059 0.11222,-4.7e-5 0.526205,-0.07212 0.678944,-0.118195 0.32794,-0.09893 0.822602,-0.150404 1.44547,-0.150404 0.349186,0 0.915638,-0.02159 1.258781,-0.04797 0.879291,-0.06761 1.924085,-0.02426 2.325284,0.09648 0.08531,0.02567 0.3794,0.05719 0.686524,0.07356 0.295504,0.01576 0.584292,0.04167 0.641751,0.05759 0.05746,0.01592 0.426839,0.0292 0.820844,0.0295 0.603954,4.71e-4 0.760872,0.01003 0.999937,0.06089 0.15596,0.03318 0.412526,0.08571 0.570147,0.116746 0.15762,0.03103 0.333474,0.07601 0.390786,0.09996 0.05731,0.02395 0.203706,0.05941 0.32532,0.07882 0.214271,0.03419 0.51059,0.107545 0.818093,0.202533 0.08208,0.02536 0.29028,0.07675 0.462657,0.114201 0.443201,0.0963 0.780742,0.189742 0.852342,0.235957 0.03374,0.02178 0.134481,0.06012 0.223867,0.0852 0.373946,0.104929 0.587112,0.192754 1.142194,0.470586 0.161233,0.0807 0.309184,0.146728 0.32878,0.146728 0.0196,0 0.08244,0.02498 0.139658,0.05552 0.05722,0.03054 0.137609,0.0655 0.178651,0.07769 0.09312,0.02766 0.502582,0.228148 0.701449,0.343453 0.154213,0.08942 0.177491,0.101438 0.328337,0.169589 0.04925,0.02225 0.145412,0.07735 0.213692,0.122451 0.190626,0.125903 0.786702,0.53877 0.920566,0.637622 0.308733,0.227984 0.572317,0.402745 0.691616,0.458554 0.247528,0.115798 0.585417,0.377363 0.92305,0.714546 0.246769,0.246441 0.647768,0.616454 0.863945,0.797187 0.0663,0.05543 0.160328,0.1462 0.208943,0.201706 0.127353,0.145405 0.588924,0.610436 0.849672,0.856042 0.123052,0.115907 0.358052,0.363284 0.522221,0.549727 0.164168,0.186442 0.486536,0.542022 0.716373,0.790176 0.796905,0.860419 1.148229,1.27295 1.149629,1.349919 2.98e-4,0.01355 0.07558,0.10522 0.16741,0.203721 0.09183,0.0985 0.266945,0.326845 0.389146,0.507431 0.39245,0.579964 0.753514,1.092968 0.78781,1.119333 0.01068,0.0082 0.07611,0.108948 0.145412,0.223866 0.173198,0.287211 0.155573,0.256412 0.381508,0.666694 0.111521,0.202513 0.234609,0.424141 0.273532,0.492507 0.08921,0.156693 0.204187,0.459544 0.261721,0.689383 0.02437,0.09738 0.05887,0.204226 0.07664,0.237445 0.08036,0.150159 0.09769,1.187565 0.09452,5.659754 -0.0035,4.958936 -0.03063,6.711423 -0.106963,6.910691 -0.0253,0.06604 -0.05596,0.205949 -0.06814,0.310912 -0.01218,0.104963 -0.03505,0.232263 -0.05082,0.282889 -0.04743,0.152253 -0.169682,0.613696 -0.229998,0.868117 -0.07382,0.311361 -0.185761,0.617325 -0.360392,0.985013 -0.03119,0.06567 -0.08339,0.17984 -0.116008,0.253716 -0.13414,0.303826 -0.15342,0.345199 -0.180833,0.388035 -0.01576,0.02462 -0.07741,0.149769 -0.137,0.278098 -0.05959,0.128328 -0.147887,0.289512 -0.196209,0.358186 -0.09106,0.129414 -0.367034,0.543314 -0.501198,0.751689 -0.04228,0.06567 -0.132073,0.193271 -0.19954,0.283564 -0.06746,0.09029 -0.202928,0.280854 -0.301026,0.423469 -0.0981,0.142618 -0.325314,0.412777 -0.504915,0.600359 -0.179603,0.18758 -0.373373,0.399978 -0.430599,0.471995 -0.115137,0.144892 -0.44094,0.468036 -0.703819,0.698069 -0.09381,0.08208 -0.311918,0.307757 -0.484695,0.501497 -0.373559,0.418879 -0.752842,0.742661 -1.184896,1.01151 -0.08208,0.05108 -0.196256,0.122927 -0.253715,0.159665 -0.115178,0.07364 -0.222133,0.131269 -0.403384,0.217362 -0.0659,0.0313 -0.136863,0.07745 -0.157695,0.102552 -0.02083,0.0251 -0.08109,0.06338 -0.133899,0.08506 -0.05281,0.02168 -0.122058,0.06342 -0.153883,0.09276 -0.03182,0.02934 -0.06829,0.05334 -0.08104,0.05334 -0.05411,0 -0.402497,0.244722 -0.681934,0.479026 -0.09029,0.07571 -0.238044,0.192809 -0.328337,0.260226 -0.241319,0.180176 -0.513872,0.386892 -0.582053,0.441456 -0.08716,0.06975 -0.235938,0.156715 -0.522356,0.30533 -0.139543,0.07241 -0.269356,0.144456 -0.288473,0.160109 -0.05563,0.04555 -0.449126,0.234332 -0.488444,0.234332 -0.01969,0 -0.08464,0.02558 -0.144334,0.05684 -0.05969,0.03126 -0.229423,0.113596 -0.377175,0.18297 -0.147751,0.06937 -0.288787,0.142326 -0.313413,0.162113 -0.02463,0.01979 -0.09178,0.05383 -0.149244,0.07566 -0.05746,0.02182 -0.124619,0.05657 -0.149244,0.07721 -0.02463,0.02064 -0.08507,0.04686 -0.13432,0.05826 -0.08051,0.01864 -0.499336,0.210858 -0.611902,0.280833 -0.119437,0.07425 -0.408654,0.181782 -0.565283,0.210187 -0.09614,0.01743 -0.216694,0.0526 -0.267895,0.07814 -0.0512,0.02554 -0.223839,0.07107 -0.383641,0.101182 -0.644497,0.121425 -1.007893,0.219759 -1.380033,0.373427 -0.09029,0.03728 -0.217433,0.07715 -0.282533,0.08859 -0.0651,0.01144 -0.152408,0.03826 -0.194018,0.0596 -0.04161,0.02134 -0.253732,0.07392 -0.471384,0.116837 -0.387851,0.07647 -0.419351,0.07799 -1.581991,0.07592 -0.986592,-0.0018 -1.206356,-0.0098 -1.305655,-0.04756 z m 2.161599,-1.593897 c 0.321294,-0.05189 1.052998,-0.234496 1.181475,-0.294862 0.06567,-0.03085 0.260432,-0.09202 0.432809,-0.135923 0.172377,-0.0439 0.431543,-0.112265 0.575923,-0.151919 0.144381,-0.03965 0.300492,-0.07209 0.346914,-0.07209 0.04642,0 0.183501,-0.03188 0.304619,-0.07085 0.121118,-0.03897 0.29409,-0.08768 0.384383,-0.108244 0.09029,-0.02057 0.298489,-0.101298 0.462658,-0.179398 0.506466,-0.24094 0.636581,-0.298187 0.677746,-0.298187 0.02183,0 0.08911,-0.03358 0.149509,-0.07462 0.0604,-0.04104 0.117513,-0.07462 0.126918,-0.07462 0.0094,0 0.0672,-0.03105 0.128441,-0.06899 0.06124,-0.03795 0.158353,-0.08717 0.215812,-0.109388 0.05746,-0.02222 0.124619,-0.05709 0.149244,-0.07749 0.02463,-0.0204 0.172377,-0.08539 0.328338,-0.144415 0.15596,-0.05903 0.317144,-0.127091 0.358186,-0.151256 0.04104,-0.02417 0.12835,-0.07196 0.194018,-0.106212 0.06567,-0.03425 0.186555,-0.101453 0.26864,-0.149333 0.08208,-0.04788 0.196256,-0.110695 0.253715,-0.139583 0.123928,-0.0623 0.366614,-0.237495 0.493712,-0.356404 0.04991,-0.0467 0.128034,-0.109298 0.173601,-0.139117 0.04557,-0.02982 0.105469,-0.07284 0.133115,-0.0956 0.323157,-0.266061 0.637574,-0.50056 0.861564,-0.642574 0.10146,-0.06433 0.192895,-0.130592 0.20319,-0.147248 0.01029,-0.01666 0.108614,-0.07138 0.218487,-0.12161 0.109874,-0.05023 0.240066,-0.112963 0.289317,-0.139415 0.04925,-0.02645 0.130245,-0.06975 0.179991,-0.09621 0.04974,-0.02647 0.116903,-0.07222 0.149245,-0.101677 0.03234,-0.02946 0.125959,-0.09496 0.208043,-0.145553 0.417294,-0.257225 0.612783,-0.42437 0.857069,-0.73281 0.16576,-0.209289 0.544232,-0.588301 0.709182,-0.710195 0.09074,-0.06705 0.259008,-0.227693 0.373926,-0.356974 0.287054,-0.322932 0.556401,-0.616917 0.614389,-0.670591 0.0941,-0.0871 0.346602,-0.404948 0.438677,-0.552204 0.09526,-0.152352 0.129523,-0.200708 0.253799,-0.358187 0.03887,-0.04925 0.115628,-0.170138 0.170583,-0.26864 0.05495,-0.0985 0.148379,-0.239537 0.207614,-0.313413 0.05923,-0.07388 0.146298,-0.194764 0.193474,-0.26864 0.04718,-0.07388 0.109549,-0.1679 0.1386,-0.208942 0.178488,-0.252156 0.527051,-1.136849 0.699742,-1.776008 0.04435,-0.164169 0.106545,-0.392512 0.138203,-0.507431 0.185714,-0.674168 0.210151,-0.872049 0.241441,-1.955101 0.01636,-0.566382 0.03152,-1.589698 0.03368,-2.274033 l 0.0039,-1.244248 -0.0788,-0.08403 c -0.04334,-0.04622 -0.122315,-0.162076 -0.175499,-0.257469 -0.101397,-0.181857 -0.138601,-0.230331 -0.357602,-0.465917 -0.07388,-0.07947 -0.194764,-0.216017 -0.26864,-0.303437 -0.07388,-0.08742 -0.161903,-0.18641 -0.195617,-0.219977 -0.03372,-0.03357 -0.09749,-0.123821 -0.141723,-0.200564 -0.06638,-0.115157 -0.469218,-0.629398 -0.745938,-0.95221 -0.210903,-0.246032 -0.470383,-0.530836 -0.580292,-0.636926 -0.06949,-0.06708 -0.203811,-0.202363 -0.298489,-0.300632 -0.385937,-0.400587 -0.478441,-0.482145 -0.649717,-0.572833 -0.0985,-0.05215 -0.272186,-0.181756 -0.385964,-0.288002 -0.149874,-0.13995 -0.269124,-0.219842 -0.432809,-0.289963 -0.270144,-0.115726 -0.397178,-0.195886 -0.671749,-0.423881 -0.113858,-0.09455 -0.217485,-0.171903 -0.230278,-0.171903 -0.02319,0 -0.533853,-0.303473 -0.601598,-0.357512 -0.01962,-0.01565 -0.08268,-0.06635 -0.140134,-0.112672 -0.05746,-0.04632 -0.185063,-0.137457 -0.283565,-0.202518 -0.0985,-0.06506 -0.185809,-0.126926 -0.194017,-0.137477 -0.0372,-0.04782 -0.34529,-0.264381 -0.376115,-0.264381 -0.01895,0 -0.05183,-0.02092 -0.07305,-0.0465 -0.02122,-0.02557 -0.08331,-0.06518 -0.137974,-0.08802 -0.05466,-0.02284 -0.09939,-0.05537 -0.09939,-0.07229 0,-0.01692 -0.05512,-0.06126 -0.122493,-0.09853 -0.497516,-0.275239 -0.796838,-0.430566 -1.047226,-0.543436 -0.09338,-0.04209 -0.181437,-0.07653 -0.195681,-0.07653 -0.01424,0 -0.06977,-0.03237 -0.123398,-0.07193 -0.05813,-0.04288 -0.176911,-0.08576 -0.294146,-0.106178 -0.108155,-0.01883 -0.235535,-0.05435 -0.283066,-0.07893 -0.04753,-0.02458 -0.20992,-0.05808 -0.360866,-0.07446 -0.150946,-0.01637 -0.309602,-0.04893 -0.35257,-0.07235 -0.04297,-0.02342 -0.155379,-0.0627 -0.249803,-0.0873 -0.09442,-0.02459 -0.186872,-0.05688 -0.205441,-0.07175 -0.06002,-0.04806 -0.416224,-0.186494 -0.624461,-0.242687 -0.111466,-0.03008 -0.218922,-0.06795 -0.238791,-0.08416 -0.01987,-0.01621 -0.103287,-0.04977 -0.185371,-0.07458 -0.08208,-0.02481 -0.196256,-0.06931 -0.253715,-0.09888 -0.176268,-0.09073 -0.760662,-0.106911 -4.326424,-0.119772 l -3.386184,-0.01221 -0.35985,0.07594 c -0.602852,0.127227 -0.643523,0.134242 -0.778232,0.134242 -0.07164,0 -0.22173,0.03266 -0.333523,0.07258 -0.115405,0.04121 -0.312921,0.08135 -0.456974,0.09286 -0.145737,0.01165 -0.31088,0.04541 -0.388035,0.07932 -0.07388,0.03247 -0.205321,0.07794 -0.292101,0.101056 -0.08678,0.02311 -0.194235,0.06792 -0.238791,0.09959 -0.04456,0.03166 -0.242194,0.09301 -0.439197,0.136332 -0.197002,0.04332 -0.415041,0.10391 -0.484529,0.134643 -0.06949,0.03073 -0.185539,0.06476 -0.257889,0.07561 -0.07235,0.01085 -0.165254,0.04193 -0.206454,0.06907 -0.0412,0.02714 -0.146777,0.09802 -0.234617,0.157521 -0.171771,0.11635 -0.262869,0.167648 -0.473123,0.26642 -0.235635,0.110696 -0.321885,0.147754 -0.343887,0.147754 -0.02314,0 -0.537465,0.251154 -0.611277,0.298499 -0.02463,0.0158 -0.165661,0.07491 -0.313413,0.131354 -0.147752,0.05645 -0.308936,0.123778 -0.358187,0.14962 -0.04925,0.02584 -0.101976,0.04707 -0.117169,0.04717 -0.01519,8.9e-5 -0.129364,0.04862 -0.253715,0.107821 -0.124351,0.0592 -0.252957,0.118112 -0.285791,0.130914 -0.156116,0.06087 -1.006976,0.495171 -1.179031,0.601802 -0.106709,0.06613 -0.234313,0.139766 -0.283564,0.163626 -0.04925,0.02386 -0.151997,0.07972 -0.228326,0.124142 -0.07633,0.04442 -0.193859,0.111253 -0.261178,0.148524 -0.06732,0.03727 -0.122398,0.07921 -0.122398,0.0932 0,0.01399 -0.07491,0.0708 -0.166471,0.126251 -0.09156,0.05545 -0.210332,0.129204 -0.263938,0.163892 -0.05361,0.03469 -0.183533,0.111301 -0.288725,0.170249 -0.105191,0.05895 -0.260923,0.171602 -0.346072,0.250343 -0.08515,0.07874 -0.22434,0.183461 -0.309315,0.232711 -0.08498,0.04925 -0.23299,0.153349 -0.328921,0.231329 -0.09593,0.07798 -0.186238,0.141782 -0.20068,0.141782 -0.03345,0 -0.311802,0.211648 -0.343489,0.261178 -0.01313,0.02052 -0.06686,0.05941 -0.119396,0.08642 -0.05254,0.02701 -0.238249,0.192466 -0.41269,0.367674 -0.174441,0.175209 -0.416217,0.393706 -0.53728,0.485549 -0.121063,0.09184 -0.326523,0.27898 -0.456578,0.415859 -0.130055,0.136878 -0.259661,0.262302 -0.288013,0.278719 -0.02835,0.01642 -0.22653,0.197749 -0.440395,0.40296 -0.213865,0.205211 -0.451802,0.420122 -0.528748,0.477582 -0.327649,0.244669 -0.483321,0.695152 -0.448692,1.298426 0.01037,0.180585 0.03949,0.435793 0.06473,0.567128 0.04364,0.227127 0.06924,0.734414 0.128035,2.537155 0.0148,0.4539 0.0426,0.839764 0.07096,0.985012 0.02952,0.15121 0.05301,0.496062 0.06404,0.94024 0.02146,0.86419 0.08734,1.333519 0.267051,1.902396 0.116847,0.369885 0.400088,0.874175 0.590687,1.051675 0.08816,0.0821 0.456482,0.554731 0.532937,0.683865 0.06852,0.115733 0.16529,0.254748 0.283026,0.406586 0.02546,0.03283 0.08972,0.127243 0.14281,0.209796 0.08821,0.137168 0.253392,0.365789 0.290537,0.402106 0.0084,0.0082 0.0553,0.06865 0.104236,0.13432 0.04893,0.06567 0.12378,0.155907 0.166324,0.200531 0.04254,0.04462 0.17033,0.184818 0.283969,0.311542 0.113639,0.126723 0.246913,0.272717 0.296164,0.32443 0.221463,0.232532 0.518716,0.557971 0.641751,0.702601 0.07388,0.08684 0.159844,0.17903 0.191041,0.204862 0.0312,0.02583 0.07869,0.06712 0.105537,0.09174 0.02685,0.02463 0.122212,0.10157 0.211919,0.170989 0.08971,0.06942 0.230262,0.202955 0.312347,0.296746 0.252761,0.288809 0.494503,0.51558 0.668937,0.627513 0.310666,0.199351 0.434813,0.289653 0.708473,0.515326 0.293572,0.242095 0.382755,0.30698 0.637389,0.463747 0.09029,0.05559 0.197718,0.12538 0.238724,0.155095 0.04101,0.02971 0.121597,0.07763 0.179093,0.106479 0.0575,0.02885 0.171698,0.09117 0.253782,0.138499 0.252091,0.145337 0.6313,0.3314 0.675419,0.3314 0.02301,0 0.08865,0.02462 0.145868,0.05471 0.120797,0.06353 0.612605,0.234436 0.999495,0.34734 0.147752,0.04312 0.3358,0.103748 0.417884,0.134738 0.193355,0.073 0.502228,0.162416 0.93569,0.270881 0.29231,0.07314 0.408356,0.08709 0.727229,0.08742 0.285793,2.99e-4 0.44415,0.0162 0.64175,0.0645 0.287508,0.07027 0.653017,0.0973 1.906218,0.140949 0.584567,0.02036 0.898335,0.04495 1.134257,0.08889 0.211456,0.03938 0.520322,0.06694 0.878346,0.07836 0.303713,0.0097 0.612648,0.03004 0.686524,0.04522 0.07388,0.01518 0.268333,0.02818 0.432127,0.0289 0.261087,0.0011 0.510617,0.03522 0.881224,0.120375 0.156863,0.03604 1.503491,0.03483 1.72879,-0.0016 z M 20.953676,45.721013 c 0.250918,-0.250357 0.538981,-0.520832 0.640139,-0.601055 0.101158,-0.08022 0.270242,-0.231334 0.375742,-0.3358 0.1055,-0.104467 0.203911,-0.18994 0.218691,-0.18994 0.01478,0 0.146059,-0.122063 0.291733,-0.271251 0.145674,-0.149188 0.358885,-0.335949 0.473803,-0.415025 0.114919,-0.07908 0.265251,-0.195431 0.334071,-0.258566 0.129408,-0.118718 0.197765,-0.168986 0.501698,-0.368937 0.0985,-0.0648 0.234935,-0.169118 0.303186,-0.231814 0.183175,-0.168265 0.356494,-0.284129 0.666902,-0.445824 0.13989,-0.07287 0.370617,-0.226662 0.383327,-0.255508 0.0056,-0.01275 0.05935,-0.05058 0.119396,-0.08407 0.06005,-0.03349 0.157734,-0.09021 0.217078,-0.12606 0.50986,-0.307983 0.683096,-0.418819 0.683096,-0.437041 0,-0.02588 1.021877,-0.538526 1.073468,-0.538526 0.02016,0 0.0723,-0.02511 0.11588,-0.05581 0.04358,-0.03069 0.206834,-0.106777 0.362794,-0.169073 0.15596,-0.0623 0.310059,-0.131207 0.342441,-0.153135 0.03238,-0.02193 0.08233,-0.03987 0.110992,-0.03987 0.05414,0 0.512795,-0.221251 0.591278,-0.28523 0.02463,-0.02007 0.178824,-0.08637 0.342663,-0.147333 0.16384,-0.06096 0.345172,-0.136115 0.40296,-0.167014 0.05779,-0.0309 0.185661,-0.09034 0.284163,-0.132095 0.271129,-0.114929 0.52863,-0.253103 0.611902,-0.328344 0.04104,-0.03708 0.114918,-0.08749 0.164168,-0.112004 0.09943,-0.0495 0.689775,-0.246291 1.104409,-0.368156 0.147752,-0.04343 0.306591,-0.09833 0.352977,-0.122015 0.04639,-0.02368 0.158737,-0.05517 0.24967,-0.06997 0.09093,-0.0148 0.221764,-0.05423 0.290735,-0.08761 0.06897,-0.03339 0.164816,-0.06094 0.212988,-0.06122 0.07649,-4.45e-4 0.248571,-0.04076 0.639789,-0.149878 0.05746,-0.01603 0.232075,-0.04971 0.388035,-0.07485 0.618324,-0.09966 0.79754,-0.132864 0.954207,-0.176764 0.142319,-0.03988 0.604648,-0.04571 3.611714,-0.04552 3.341169,2.09e-4 3.456226,0.0021 3.696646,0.0597 0.170565,0.04089 0.351436,0.05949 0.57853,0.05949 0.272309,0 0.346746,0.01 0.423456,0.05682 0.05119,0.03125 0.153513,0.07414 0.227389,0.09531 0.07388,0.02117 0.161184,0.05449 0.194018,0.07405 0.05982,0.03562 0.336243,0.127136 0.575204,0.190425 0.07011,0.01857 0.176081,0.06675 0.235494,0.107068 0.05941,0.04032 0.127417,0.07331 0.151121,0.07331 0.0237,0 0.13936,0.03835 0.257012,0.08522 0.117654,0.04687 0.295196,0.09425 0.39454,0.105282 0.09934,0.01103 0.273959,0.05299 0.388035,0.09324 0.114076,0.04025 0.23528,0.07346 0.269343,0.07381 0.08907,9.05e-4 0.477152,0.137112 0.57304,0.201123 0.04477,0.02989 0.175425,0.100559 0.290343,0.157049 0.329289,0.161866 0.945656,0.505308 1.051295,0.585785 0.05287,0.04028 0.185118,0.120442 0.293879,0.178141 0.108762,0.0577 0.275629,0.168131 0.370817,0.245404 0.156945,0.12741 0.358133,0.274913 0.53768,0.394212 0.03706,0.02463 0.119264,0.08507 0.182669,0.134319 0.248924,0.193356 0.284385,0.217264 0.414227,0.279279 0.204235,0.09754 0.351128,0.192337 0.701449,0.452649 0.06567,0.04879 0.240283,0.149836 0.388035,0.224535 0.280302,0.141712 0.423616,0.222681 0.556383,0.314341 0.04334,0.02992 0.199286,0.101484 0.346549,0.159027 0.147259,0.05754 0.332504,0.139056 0.411652,0.18114 0.07915,0.04208 0.195498,0.08477 0.258554,0.09485 0.06306,0.01008 0.12041,0.02766 0.127454,0.03906 0.007,0.0114 0.101221,0.0656 0.20928,0.120447 0.229561,0.11652 0.26472,0.102439 0.261589,-0.104771 -0.0025,-0.168526 -0.130371,-0.437535 -0.272771,-0.574059 -0.05565,-0.05335 -0.109378,-0.09725 -0.119395,-0.09755 -0.01002,-2.98e-4 -0.07428,-0.03724 -0.1428,-0.08208 -0.06853,-0.04485 -0.19451,-0.121837 -0.279968,-0.171088 -0.08546,-0.04925 -0.177821,-0.109695 -0.20525,-0.13432 -0.02743,-0.02463 -0.125565,-0.09619 -0.218084,-0.159022 -0.09252,-0.06284 -0.188001,-0.143429 -0.212181,-0.179093 -0.02418,-0.03567 -0.122655,-0.149474 -0.218828,-0.252909 -0.09618,-0.103435 -0.213112,-0.264619 -0.259856,-0.358186 -0.04674,-0.09357 -0.108172,-0.217135 -0.13651,-0.274594 -0.04959,-0.100565 -0.108006,-0.281596 -0.290149,-0.899232 -0.07631,-0.258758 -0.09761,-0.298087 -0.214205,-0.395498 -0.144068,-0.120366 -0.205515,-0.129833 -0.396169,-0.06104 -0.07183,0.02592 -0.217918,0.05974 -0.324627,0.07515 -0.10671,0.01541 -0.258865,0.04935 -0.33812,0.07543 -0.134427,0.04423 -0.153465,0.04378 -0.283564,-0.0068 -0.114103,-0.04438 -0.229015,-0.05445 -0.631969,-0.05541 -0.408317,-9.67e-4 -0.505263,-0.0097 -0.567129,-0.05086 -0.04104,-0.02733 -0.146868,-0.07077 -0.235167,-0.09654 -0.0883,-0.02577 -0.175609,-0.05935 -0.194018,-0.07462 -0.05032,-0.04175 -0.423755,-0.179006 -0.660299,-0.242692 -0.537891,-0.144821 -0.675878,-0.19207 -0.940239,-0.321958 -0.272251,-0.133765 -0.380605,-0.194522 -0.641751,-0.359852 -0.131135,-0.08302 -0.373271,-0.327122 -0.545345,-0.549771 -0.150002,-0.19409 -0.20669,-0.202546 -0.470741,-0.07022 -0.119326,0.0598 -0.227252,0.108727 -0.239836,0.108727 -0.01258,0 -0.04543,0.02041 -0.073,0.04536 -0.02757,0.02495 -0.181457,0.07868 -0.341977,0.119395 -0.26545,0.06734 -0.34925,0.07404 -0.926225,0.07404 -0.59901,0 -0.644966,-0.004 -0.824479,-0.0723 -0.194679,-0.07404 -0.405503,-0.185076 -0.596091,-0.313947 -0.233221,-0.157698 -0.325315,-0.507375 -0.325315,-1.235202 0,-0.265809 0.01253,-0.526989 0.02785,-0.580399 0.03395,-0.118379 0.177135,-0.266928 0.297849,-0.30901 0.145857,-0.05085 0.354518,-0.467916 0.302522,-0.604677 -0.02864,-0.07534 -0.237935,-0.369348 -0.484854,-0.68112 -0.123312,-0.1557 -0.176043,-0.200225 -0.238615,-0.20148 -0.04418,-8.87e-4 -0.08842,0.01149 -0.09832,0.02751 -0.05384,0.08711 -0.714095,0.448443 -0.979483,0.536029 -0.147606,0.04872 -0.181034,0.09866 -0.155933,0.232975 0.01154,0.06174 0.03132,0.125692 0.04396,0.142109 0.01264,0.01642 0.03137,0.07413 0.04163,0.128252 0.01904,0.100444 0.158514,0.444778 0.256348,0.632894 0.09189,0.176694 0.181037,0.471336 0.182907,0.604559 9.79e-4,0.06971 0.01373,0.193899 0.02835,0.275983 0.03742,0.210187 -0.02456,0.713455 -0.105556,0.857152 -0.07297,0.129451 -0.234604,0.247633 -0.394077,0.28813 -0.331295,0.08413 -0.958006,0.05849 -1.145806,-0.04688 -0.05264,-0.02953 -0.157338,-0.08882 -0.23267,-0.131739 -0.07533,-0.04292 -0.208971,-0.115157 -0.296975,-0.160517 -0.088,-0.04536 -0.202176,-0.118553 -0.253715,-0.16265 -0.131266,-0.112312 -0.278684,-0.215387 -0.408055,-0.285314 -0.444356,-0.240178 -0.494686,-0.27547 -0.760212,-0.533063 -0.114919,-0.111484 -0.343262,-0.291771 -0.507431,-0.400636 -0.164169,-0.108866 -0.311921,-0.214313 -0.328338,-0.234327 -0.03026,-0.03689 -0.196028,-0.173512 -0.375523,-0.309493 -0.05418,-0.04104 -0.166461,-0.141782 -0.249524,-0.223866 -0.176023,-0.17395 -0.27324,-0.223867 -0.435992,-0.223867 -0.175705,0 -0.217555,0.06168 -0.295403,0.43534 -0.03733,0.179194 -0.09369,0.399682 -0.125243,0.489975 -0.07395,0.211637 -0.128014,0.739626 -0.08147,0.795707 0.05932,0.07147 0.531531,0.05233 0.782072,-0.0317 0.300025,-0.100632 0.591056,-0.147835 0.757546,-0.122868 0.200222,0.03003 0.3668,0.197271 0.3668,0.36827 0,0.199281 -0.04319,0.269158 -0.216141,0.349677 -0.08633,0.04019 -0.193396,0.07321 -0.237917,0.07337 -0.04452,1.5e-4 -0.185557,0.03475 -0.313413,0.07687 -0.210181,0.06924 -0.293046,0.07822 -0.864393,0.09368 -0.602139,0.01629 -0.641718,0.01389 -0.839632,-0.051 l -0.207705,-0.06809 -0.115532,0.08465 c -0.06354,0.04656 -0.149112,0.113983 -0.190154,0.149829 -0.122546,0.107031 -0.397024,0.19193 -0.620484,0.191922 -0.128456,-4e-6 -0.295403,0.02795 -0.465198,0.07791 -0.243189,0.07155 -0.29809,0.07681 -0.6716,0.06436 -0.223719,-0.0075 -0.427784,-0.02285 -0.453478,-0.03421 -0.07407,-0.03275 -0.216708,0.116352 -0.199155,0.208176 0.03099,0.162087 -0.03664,0.333994 -0.196771,0.500234 -0.08488,0.08812 -0.184557,0.169714 -0.221495,0.18132 -0.03694,0.01161 -0.06716,0.03115 -0.06716,0.04344 0,0.01229 -0.05373,0.05254 -0.119396,0.08945 -0.06567,0.03691 -0.119395,0.07741 -0.119395,0.09002 0,0.05346 -0.543464,0.36055 -0.641513,0.362488 -0.03297,6.51e-4 -0.133812,0.04094 -0.224104,0.08954 -0.09029,0.04859 -0.179148,0.08836 -0.197455,0.08836 -0.01831,4e-6 -0.0686,0.02779 -0.111768,0.06174 -0.04317,0.03395 -0.12221,0.07541 -0.175656,0.09212 -0.138566,0.04333 -0.988147,0.08807 -2.097049,0.110442 l -0.955164,0.01927 -0.179093,0.09485 c -0.0985,0.05216 -0.212674,0.109791 -0.253716,0.128058 -0.04104,0.01827 -0.155214,0.07859 -0.253715,0.134054 -0.0985,0.05546 -0.200708,0.101935 -0.227127,0.103271 -0.08038,0.0041 -0.309125,0.227496 -0.417135,0.407449 -0.05608,0.09343 -0.152909,0.22521 -0.21518,0.292847 -0.06227,0.06764 -0.156295,0.181384 -0.208943,0.25277 -0.180525,0.244783 -0.299832,0.366109 -0.436487,0.443871 -0.07525,0.04282 -0.170396,0.106699 -0.211438,0.141952 -0.04104,0.03525 -0.152024,0.115995 -0.246625,0.179426 -0.0946,0.06343 -0.255786,0.194803 -0.358187,0.291937 -0.102401,0.09713 -0.22648,0.197145 -0.27573,0.222248 -0.04925,0.0251 -0.109695,0.06283 -0.13432,0.08383 -0.05876,0.05011 -0.431065,0.163556 -0.536779,0.163556 -0.192909,0 -0.310968,0.09305 -0.511256,0.40296 -0.04244,0.06567 -0.126932,0.196629 -0.18776,0.291026 -0.06083,0.0944 -0.122842,0.171631 -0.13781,0.171631 -0.01497,0 -0.07606,0.04289 -0.135767,0.09531 l -0.108553,0.09531 0.01706,0.195716 c 0.0094,0.107644 0.03005,0.343468 0.04593,0.524054 0.01588,0.180586 0.02971,0.518976 0.03075,0.751978 0.0017,0.374624 0.0091,0.435925 0.06453,0.529818 0.03446,0.0584 0.08286,0.106177 0.107575,0.106177 0.02471,0 0.250226,-0.204838 0.501145,-0.455196 z m 33.41073,-1.891358 c 0.0091,-1.956893 -2.99e-4,-2.31248 -0.08175,-3.087198 -0.01553,-0.147645 -0.05208,-0.304701 -0.08683,-0.373111 -0.03301,-0.06498 -0.108485,-0.218879 -0.167726,-0.342005 -0.05924,-0.123127 -0.119933,-0.244015 -0.134867,-0.26864 -0.01493,-0.02463 -0.04568,-0.08507 -0.06833,-0.13432 -0.05191,-0.112891 -0.105742,-0.208643 -0.197181,-0.350724 -0.05161,-0.0802 -0.09316,-0.111934 -0.146528,-0.111934 -0.07392,0 -0.100084,0.02337 -0.467198,0.417366 -0.08076,0.08668 -0.204456,0.183084 -0.274866,0.214229 -0.07041,0.03115 -0.135377,0.06854 -0.144373,0.08309 -0.03198,0.05174 -0.424183,0.181344 -0.770874,0.254732 -0.333645,0.07062 -0.468896,0.115218 -0.468896,0.154595 0,0.0096 0.03662,0.111255 0.08137,0.225838 0.06679,0.171005 0.12227,0.249239 0.309628,0.436639 0.370857,0.370937 0.343575,0.362653 0.380263,0.115477 0.02556,-0.172208 0.04801,-0.227709 0.122043,-0.301745 0.07904,-0.07904 0.111837,-0.09072 0.254623,-0.09072 0.24345,0 0.39696,0.136852 0.510159,0.454796 0.02743,0.07703 0.07358,0.200493 0.102575,0.274369 0.029,0.07388 0.06176,0.206316 0.07281,0.29431 0.01105,0.08799 0.03921,0.189179 0.06259,0.224853 0.02337,0.03567 0.05636,0.162589 0.0733,0.282035 0.01694,0.119446 0.04865,0.253322 0.07046,0.297503 0.04307,0.08722 0.176463,0.607295 0.223493,0.871325 0.01608,0.09029 0.05189,0.224612 0.07957,0.298488 0.03983,0.106289 0.04801,0.209072 0.03923,0.492507 -0.0118,0.380271 -0.0428,0.484046 -0.19249,0.644283 -0.05169,0.05533 -0.0655,0.09333 -0.04883,0.13432 0.03295,0.08101 0.348829,0.54716 0.443273,0.654143 0.04348,0.04925 0.125557,0.145841 0.182395,0.214645 0.08561,0.103632 0.114494,0.120973 0.168345,0.101054 l 0.065,-0.02404 z M 20.213575,42.54636 c 0.0096,-0.09674 0.04296,-0.226888 0.07423,-0.289227 0.08307,-0.165614 0.304407,-0.447409 0.456713,-0.581474 0.101459,-0.08931 0.171458,-0.198132 0.297866,-0.463082 0.09088,-0.190488 0.16524,-0.357317 0.16524,-0.370733 0,-0.01342 0.02788,-0.0764 0.06195,-0.139969 0.04509,-0.08412 0.06337,-0.177421 0.06716,-0.34282 l 0.0052,-0.227243 -0.08955,-0.0078 c -0.04925,-0.0043 -0.102979,0.0024 -0.119396,0.01492 -0.05142,0.03911 -0.154781,0.19968 -0.1783,0.276993 -0.01239,0.04072 -0.04609,0.114341 -0.0749,0.163592 -0.02881,0.04925 -0.06102,0.135677 -0.07157,0.192059 -0.01056,0.05638 -0.03793,0.123542 -0.06084,0.149244 -0.0229,0.0257 -0.05737,0.107176 -0.07659,0.181052 -0.08309,0.319371 -0.280968,0.626827 -0.403415,0.626827 -0.0202,0 -0.07211,0.02784 -0.11537,0.06186 -0.07802,0.06137 -0.07865,0.06507 -0.07865,0.46462 0,0.393643 0.03128,0.558584 0.09403,0.495834 0.01584,-0.01584 0.03662,-0.107949 0.04618,-0.204685 z m 1.79997,-0.964763 c 0,-0.03019 0.208422,-0.177562 0.383021,-0.270821 0.190297,-0.101642 0.282341,-0.19418 0.260765,-0.262161 -0.01868,-0.05887 -0.21038,-0.232057 -0.328462,-0.296752 -0.108566,-0.05948 -0.18941,0.01057 -0.227993,0.197557 -0.019,0.09207 -0.05796,0.214417 -0.08659,0.271876 -0.05798,0.116391 -0.100154,0.338371 -0.07001,0.368517 0.02861,0.02861 0.06927,0.02379 0.06927,-0.0082 z m 1.079614,-1.615836 c 0.0294,-0.04001 0.08602,-0.186086 0.125824,-0.324619 0.08774,-0.305413 0.08991,-0.300815 -0.276863,-0.587734 -0.220909,-0.172813 -0.258573,-0.192228 -0.319265,-0.164575 -0.04752,0.02165 -0.07471,0.06641 -0.08787,0.144659 -0.01048,0.06232 -0.04299,0.204321 -0.07224,0.31556 l -0.05318,0.202253 0.167638,0.162492 c 0.196747,0.190708 0.394821,0.34201 0.434462,0.331873 0.01542,-0.0039 0.05209,-0.0399 0.08149,-0.07991 z m 28.500349,-0.759123 c 0.04747,-0.02455 0.183997,-0.05849 0.303393,-0.07542 0.133926,-0.01899 0.240367,-0.05192 0.277857,-0.08596 0.03343,-0.03034 0.0933,-0.07198 0.133045,-0.09254 0.03975,-0.02055 0.10611,-0.07932 0.147463,-0.130587 0.04135,-0.05127 0.145832,-0.163364 0.232179,-0.249092 0.08634,-0.08573 0.170942,-0.181937 0.187994,-0.213798 0.03785,-0.07071 -0.0066,-0.188592 -0.123087,-0.326459 -0.0661,-0.07823 -0.101695,-0.09487 -0.202964,-0.09487 -0.06754,0 -0.159076,0.0183 -0.203408,0.04067 -0.103689,0.05233 -0.593858,0.194395 -0.832691,0.241347 -0.101728,0.02 -0.203238,0.05153 -0.225577,0.07007 -0.02234,0.01854 -0.11724,0.05367 -0.210894,0.07806 -0.221073,0.05758 -0.22135,0.05781 -0.207375,0.172976 0.04088,0.336871 0.07013,0.411365 0.220625,0.561858 0.133982,0.133983 0.161396,0.148367 0.282749,0.148367 0.07391,0 0.173219,-0.02008 0.220691,-0.04463 z m -30.062011,-0.05282 c 0.05335,-0.02804 0.09133,-0.10481 0.158521,-0.320435 0.0486,-0.155961 0.1141,-0.340366 0.145554,-0.409791 0.06564,-0.144888 0.05841,-0.175292 -0.06503,-0.273341 -0.09879,-0.07847 -0.313218,-0.09918 -0.35342,-0.03413 -0.01261,0.0204 -0.0311,0.106186 -0.04108,0.190626 -0.01,0.08444 -0.06539,0.265405 -0.123131,0.402144 -0.05774,0.13674 -0.104979,0.280372 -0.104979,0.319183 0,0.137794 0.222102,0.210607 0.383569,0.125747 z m 6.477396,-0.07837 c 0.02227,-0.01411 0.02839,-0.03315 0.01358,-0.0423 -0.04145,-0.02562 -0.278841,0.01342 -0.260643,0.04287 0.02062,0.03337 0.194131,0.03297 0.247062,-5.73e-4 z M 25.451455,38.96024 c 0.02442,-0.02873 0.07499,-0.126111 0.112383,-0.216404 0.0374,-0.09029 0.08666,-0.185374 0.109479,-0.211292 0.07616,-0.0865 0.04273,-0.131221 -0.175089,-0.234198 -0.118927,-0.05623 -0.339739,-0.161572 -0.490693,-0.234104 -0.150954,-0.07253 -0.286861,-0.124213 -0.302016,-0.114847 -0.01516,0.0094 -0.03662,0.08535 -0.04769,0.168852 -0.01261,0.09503 -0.06982,0.241631 -0.152951,0.391925 -0.07305,0.132057 -0.125247,0.252342 -0.116002,0.2673 0.0092,0.01496 0.08594,0.06223 0.170433,0.105044 0.146978,0.07448 0.222355,0.08654 0.785226,0.125618 0.03439,0.0024 0.08251,-0.01916 0.106925,-0.04789 z m 2.864695,-0.0082 c 0.05993,-0.01665 0.116233,-0.04921 0.125119,-0.07237 0.0089,-0.02316 0.0767,-0.05118 0.150701,-0.06228 0.074,-0.0111 0.178132,-0.05233 0.231405,-0.09164 0.05327,-0.0393 0.10941,-0.07146 0.124752,-0.07146 0.03004,0 0.26742,-0.204402 0.283871,-0.24443 0.02261,-0.05502 -0.220924,-0.02078 -0.321759,0.04524 -0.05834,0.0382 -0.160525,0.105358 -0.227075,0.149245 -0.06655,0.04389 -0.135194,0.07979 -0.152541,0.07979 -0.01735,0 -0.07896,0.03218 -0.136921,0.07151 -0.05796,0.03933 -0.153857,0.08904 -0.213107,0.110467 -0.107368,0.03883 -0.125581,0.05886 -0.08783,0.09661 0.02785,0.02785 0.09642,0.02457 0.223384,-0.0107 z m 19.855997,-0.260428 c -0.02469,-0.101322 -0.289034,-0.413243 -0.397952,-0.469566 -0.08139,-0.04209 -0.26774,-0.23256 -0.321482,-0.328592 -0.02659,-0.04752 -0.0483,-0.04937 -0.22262,-0.01901 -0.106236,0.0185 -0.440549,0.03458 -0.742916,0.03574 -0.302368,0.0012 -0.576623,0.01311 -0.609457,0.02656 -0.05547,0.02273 -0.05374,0.02681 0.02433,0.0576 0.04621,0.01823 0.10149,0.03314 0.122832,0.03314 0.02134,0 0.07374,0.02748 0.116428,0.06106 0.04451,0.03501 0.170377,0.07729 0.295052,0.09912 0.119586,0.02093 0.24673,0.05388 0.282542,0.07322 0.03581,0.01934 0.156701,0.05619 0.26864,0.08189 0.20389,0.04681 0.492635,0.165655 0.576637,0.237334 0.02463,0.02101 0.131962,0.06029 0.238525,0.08728 0.106563,0.02699 0.206631,0.06196 0.222374,0.0777 0.01574,0.01574 0.05977,0.02862 0.09784,0.02862 0.06046,0 0.06669,-0.01039 0.04922,-0.08208 z M 29.460839,38.296106 c 0.04767,-0.02049 0.0368,-0.02608 -0.054,-0.02775 -0.06865,-0.0013 -0.106386,0.0097 -0.09525,0.02775 0.02179,0.03525 0.0672,0.03525 0.149244,0 z m -5.812266,-0.147485 c 0.03738,-0.07977 0.101181,-0.193989 0.141782,-0.253817 0.110536,-0.162884 0.09839,-0.260074 -0.0449,-0.359375 -0.19788,-0.137131 -0.508108,-0.131517 -0.508108,0.0092 0,0.02878 -0.02686,0.105028 -0.0597,0.16943 -0.08529,0.167297 -0.07634,0.255222 0.03731,0.366472 0.270136,0.264425 0.336715,0.274881 0.433611,0.0681 z M 49.09542,38.038672 c 0.05254,-0.02667 0.158661,-0.08894 0.23583,-0.138389 0.188221,-0.1206 0.202715,-0.196864 0.08624,-0.453742 -0.04964,-0.10948 -0.09923,-0.248544 -0.110202,-0.309033 -0.01097,-0.06049 -0.04335,-0.156991 -0.07197,-0.21445 -0.02861,-0.05746 -0.06101,-0.151483 -0.072,-0.208942 -0.01099,-0.05746 -0.04516,-0.164915 -0.07594,-0.238791 -0.05393,-0.129459 -0.187155,-0.554445 -0.226914,-0.723836 -0.01546,-0.06586 -0.03609,-0.08208 -0.104426,-0.08208 -0.07405,0 -0.08934,0.01553 -0.117217,0.119047 -0.03487,0.129488 -0.164828,0.406224 -0.224445,0.47793 -0.02047,0.02463 -0.04749,0.07832 -0.06004,0.119324 -0.01255,0.041 -0.07668,0.187382 -0.142521,0.325288 -0.07158,0.149932 -0.118239,0.289832 -0.116053,0.347976 0.0047,0.124741 0.117686,0.290437 0.289178,0.424046 0.07439,0.05796 0.229759,0.2176 0.345262,0.354762 0.115503,0.137162 0.223431,0.249386 0.239842,0.249386 0.01641,0 0.07282,-0.02182 0.125362,-0.04849 z M 26.374929,37.437951 c 0.04087,-0.04515 0.108206,-0.135813 0.149628,-0.20148 0.04142,-0.06567 0.127684,-0.199988 0.191692,-0.298489 0.280219,-0.431224 0.3714,-0.684112 0.259671,-0.720189 -0.02873,-0.0093 -0.199987,-0.08763 -0.380573,-0.174119 -0.180586,-0.08649 -0.370127,-0.165076 -0.421204,-0.174639 -0.05108,-0.0096 -0.243063,-0.102046 -0.426638,-0.205517 -0.510848,-0.287939 -0.483442,-0.275765 -0.515078,-0.228806 -0.01507,0.02237 -0.02316,0.269019 -0.01797,0.548106 0.0075,0.405591 0.01951,0.526127 0.05965,0.600587 0.02762,0.05123 0.0594,0.185555 0.07064,0.298488 0.03097,0.311352 0.03306,0.314066 0.329462,0.426889 0.145458,0.05537 0.318198,0.124418 0.383865,0.153446 0.168441,0.07446 0.231873,0.0696 0.316862,-0.02428 z m 24.487553,-0.03171 c 0.131335,-0.0482 0.258939,-0.09589 0.283564,-0.105974 0.02463,-0.01009 0.136983,-0.03113 0.24968,-0.04677 0.196845,-0.0273 0.586089,-0.171001 0.586089,-0.216364 0,-0.0258 -0.08744,-0.155427 -0.258172,-0.382719 -0.136947,-0.182317 -0.179786,-0.228984 -0.371168,-0.404323 -0.07249,-0.06642 -0.237582,-0.241034 -0.366863,-0.388036 -0.544697,-0.619354 -1.392973,-1.48459 -1.518565,-1.548927 -0.07844,-0.04018 -0.08208,-0.03886 -0.08208,0.02966 0,0.0764 0.0525,0.26009 0.238415,0.834108 0.0638,0.197002 0.131466,0.445494 0.150357,0.552204 0.01889,0.106709 0.04776,0.210228 0.06417,0.230042 0.0164,0.01981 0.05426,0.127269 0.08412,0.238791 0.02987,0.111521 0.09027,0.29679 0.134218,0.411709 0.04395,0.114918 0.09822,0.26576 0.120593,0.335205 0.04286,0.133034 0.162912,0.355425 0.266046,0.492851 0.07058,0.09405 0.07938,0.09339 0.4196,-0.03146 z m -21.867938,-0.03257 c 0.06565,-0.04158 0.0092,-0.09243 -0.102595,-0.09243 -0.08281,0 -0.10271,0.01157 -0.10271,0.0597 0,0.04534 0.01975,0.05959 0.08209,0.05924 0.04515,-2.39e-4 0.100595,-0.01218 0.12322,-0.02651 z m -6.521091,-0.282287 c 0.0407,-0.21695 0.354165,-0.561054 0.549839,-0.603582 0.219834,-0.04778 0.235932,-0.06395 0.220762,-0.22184 -0.02632,-0.273914 0.12713,-0.670149 0.629738,-1.626094 0.06379,-0.121337 0.04703,-0.164559 -0.06361,-0.164046 -0.09105,4.21e-4 -0.214688,0.108281 -0.513131,0.447646 -0.10671,0.121341 -0.227327,0.254867 -0.268039,0.296723 -0.207166,0.212994 -0.416257,0.496213 -0.579816,0.785376 -0.04422,0.07818 -0.143542,0.225931 -0.220713,0.328337 -0.07717,0.102407 -0.199211,0.303461 -0.271198,0.446788 -0.120999,0.24091 -0.127563,0.265599 -0.08689,0.326851 0.0242,0.03644 0.130106,0.101604 0.235356,0.144805 l 0.191364,0.07855 0.07931,-0.07253 c 0.04362,-0.03989 0.08729,-0.115033 0.09703,-0.166984 z m 9.177726,0.11429 c 0.13759,-0.0241 0.289568,-0.04383 0.337729,-0.04383 0.04816,0 0.154036,-0.02859 0.235278,-0.06354 0.176097,-0.07576 0.192415,-0.116406 0.189294,-0.471562 l -0.0022,-0.251541 -0.176789,-0.158156 c -0.09723,-0.08699 -0.203653,-0.158398 -0.236486,-0.158693 -0.03314,-2.98e-4 -0.08248,0.0359 -0.110901,0.08136 -0.02816,0.04504 -0.105128,0.162488 -0.171037,0.260989 -0.06591,0.0985 -0.120652,0.192526 -0.121651,0.208943 -0.0024,0.03868 -0.12615,0.204966 -0.308963,0.415006 -0.124906,0.14351 -0.139881,0.173758 -0.106143,0.21441 0.02766,0.03333 0.06626,0.04187 0.130499,0.02888 0.05017,-0.01015 0.203792,-0.03817 0.341381,-0.06227 z m 11.485615,0.01854 c 0.08715,-0.03383 0.0924,-0.0434 0.06573,-0.119906 -0.01594,-0.04573 -0.05975,-0.09961 -0.09735,-0.119734 -0.0376,-0.02012 -0.184458,-0.168956 -0.326351,-0.330739 -0.141892,-0.161784 -0.355619,-0.377502 -0.474949,-0.479374 -0.11933,-0.101872 -0.240015,-0.209124 -0.268189,-0.238337 -0.09085,-0.09421 -0.170657,-0.100443 -0.257526,-0.02013 -0.04361,0.04031 -0.121117,0.09717 -0.172246,0.126342 -0.174291,0.09945 -0.205526,0.193737 -0.205526,0.620408 v 0.381438 l 0.102035,0.08122 c 0.177727,0.141471 0.264616,0.155043 0.927751,0.144918 0.391718,-0.006 0.645984,-0.02257 0.706619,-0.0461 z m -15.22581,-0.331877 c 0.03979,-0.01513 0.07252,-0.03791 0.07274,-0.05063 2.39e-4,-0.01272 0.0085,-0.05335 0.01841,-0.09029 0.01323,-0.04937 0.0052,-0.06716 -0.03026,-0.06716 -0.02829,0 -0.04825,0.0246 -0.04825,0.05945 0,0.03269 -0.02686,0.07622 -0.0597,0.09673 -0.04023,0.02512 -0.05837,0.06658 -0.05563,0.127111 0.0033,0.07293 0.0065,0.07689 0.01721,0.02106 0.0072,-0.03782 0.0457,-0.08114 0.08548,-0.09627 z m 11.109305,0.129606 c -0.02854,-0.0075 -0.08227,-0.0077 -0.119395,-6.03e-4 -0.03713,0.0071 -0.01378,0.01325 0.05189,0.01358 0.06567,3.32e-4 0.09605,-0.0055 0.06751,-0.01298 z m 7.731189,-0.100995 0.09167,-0.03196 -0.07409,-0.109173 c -0.04075,-0.06005 -0.08452,-0.116182 -0.09726,-0.12475 -0.01275,-0.0086 -0.06213,-0.08263 -0.109746,-0.164582 -0.07461,-0.128426 -0.08657,-0.179958 -0.08656,-0.373111 1.2e-5,-0.2868 0.07651,-0.430319 0.254987,-0.478378 0.193679,-0.05215 0.324986,0.0018 0.492355,0.202263 0.0787,0.09427 0.152684,0.182723 0.164397,0.196557 0.07076,0.08358 0.240352,-0.183818 0.432433,-0.681827 0.04432,-0.114918 0.105713,-0.265291 0.136419,-0.334163 0.07497,-0.168155 0.07135,-0.203552 -0.03832,-0.374462 -0.116546,-0.181622 -0.143382,-0.385301 -0.07371,-0.559434 0.07087,-0.177114 0.06115,-0.347706 -0.03009,-0.528027 -0.08911,-0.176125 -0.331168,-0.437032 -0.470076,-0.506684 -0.05122,-0.02568 -0.186528,-0.109073 -0.300691,-0.185313 l -0.207568,-0.138618 -0.553578,0.0062 c -0.304468,0.0034 -0.585308,0.01413 -0.624089,0.0238 -0.06557,0.01634 -0.06714,0.02129 -0.02239,0.07075 0.02647,0.02925 0.04812,0.06369 0.04812,0.07653 0,0.01285 0.0521,0.08566 0.115778,0.161818 0.06368,0.07615 0.164328,0.230076 0.223667,0.342047 0.05934,0.111971 0.153855,0.273155 0.210033,0.358187 0.05618,0.08503 0.13536,0.230116 0.17596,0.322412 0.0406,0.0923 0.08822,0.176712 0.105826,0.187592 0.0176,0.01088 0.08828,-0.02098 0.157055,-0.0708 0.106005,-0.07679 0.152171,-0.09058 0.303173,-0.09058 0.167116,0 0.18529,0.0072 0.29401,0.115883 0.106786,0.106786 0.115884,0.128897 0.115884,0.281621 0,0.09116 -0.01386,0.202202 -0.03081,0.246768 -0.04554,0.119778 -0.255362,0.358763 -0.460399,0.524387 -0.09922,0.08015 -0.207257,0.170915 -0.240091,0.201712 -0.101064,0.09479 -0.305217,0.18177 -0.426647,0.18177 -0.08801,0 -0.142975,-0.02365 -0.230222,-0.09907 -0.105417,-0.09113 -0.11568,-0.113843 -0.127929,-0.283184 -0.009,-0.123888 0.0031,-0.234281 0.03685,-0.337491 l 0.05017,-0.153381 -0.09884,-0.08472 c -0.05436,-0.04659 -0.118992,-0.09217 -0.143618,-0.101278 -0.05478,-0.02026 -0.196601,-0.233095 -0.328359,-0.492779 -0.100521,-0.198119 -0.264693,-0.436107 -0.405054,-0.587177 -0.04326,-0.04656 -0.127283,-0.138385 -0.186716,-0.204053 -0.09263,-0.102343 -0.125555,-0.119395 -0.23055,-0.119395 -0.09972,0 -0.141482,0.01902 -0.224665,0.102306 -0.0562,0.05627 -0.156975,0.137102 -0.223954,0.179629 -0.06698,0.04253 -0.165652,0.114239 -0.219276,0.15936 l -0.0975,0.08204 0.145784,0.141293 c 0.08018,0.07771 0.171859,0.178083 0.203728,0.22305 0.06286,0.08869 0.415094,0.389055 0.569192,0.485371 0.180159,0.112606 0.26651,0.177536 0.526146,0.395626 0.262353,0.220372 0.321335,0.313526 0.32181,0.508261 4.51e-4,0.184324 -0.172012,0.394102 -0.324734,0.394996 -0.04293,2.39e-4 -0.09666,0.01224 -0.119403,0.02664 -0.03316,0.021 -0.02912,0.03273 0.02043,0.05924 0.03397,0.01818 0.0969,0.03306 0.139835,0.03306 0.09854,0 0.218809,0.06197 0.310252,0.159861 0.0555,0.05941 0.07571,0.124341 0.09268,0.297646 0.02708,0.276548 0.123965,0.426102 0.294461,0.454525 0.05995,0.01 0.122435,0.02273 0.138852,0.02829 0.07279,0.02469 0.552104,0.01177 0.634967,-0.01712 z M 30.199832,36.746713 c 0.134535,-0.05115 0.594768,-0.55668 0.702571,-0.771718 0.05545,-0.110615 0.146673,-0.270555 0.20271,-0.355422 0.145275,-0.220016 0.135726,-0.298008 -0.05237,-0.42775 -0.0833,-0.05746 -0.237853,-0.168273 -0.343444,-0.246253 -0.105592,-0.07798 -0.20172,-0.141782 -0.213619,-0.141782 -0.02797,0 -0.08892,0.07366 -0.193269,0.233581 -0.04606,0.07059 -0.144189,0.191306 -0.218063,0.268258 -0.07388,0.07695 -0.154129,0.176974 -0.178342,0.222273 -0.02421,0.0453 -0.08055,0.134352 -0.125199,0.197897 -0.273347,0.389053 -0.345705,0.499753 -0.380056,0.581452 l -0.0384,0.09133 0.288037,0.187474 c 0.294136,0.191443 0.392689,0.220261 0.549447,0.160662 z M 24.34129,36.625442 c 0.05468,-0.10218 -0.0099,-0.847813 -0.06722,-0.776079 -0.08171,0.102247 -0.182496,0.341735 -0.214492,0.509656 l -0.04017,0.210842 0.123866,0.05509 c 0.158339,0.07043 0.160585,0.07043 0.19802,4.87e-4 z m 14.155718,-0.601375 c 0.01619,-0.110291 -0.01035,-0.245037 -0.09629,-0.488982 -0.152656,-0.433314 -0.189809,-0.479185 -1.089005,-1.344519 -0.144093,-0.138667 -0.547378,-0.371791 -0.643166,-0.371791 -0.0585,0 -0.297888,-0.1497 -0.476789,-0.298159 -0.07388,-0.0613 -0.174616,-0.132464 -0.223866,-0.158132 -0.04925,-0.02567 -0.176855,-0.135731 -0.283565,-0.244583 -0.106709,-0.108853 -0.236546,-0.218311 -0.288525,-0.24324 -0.245262,-0.117631 -0.325795,-0.462871 -0.161028,-0.690324 0.09371,-0.129358 0.185749,-0.166398 0.40654,-0.163598 0.183517,0.0023 0.327544,0.07719 0.536314,0.278767 0.194611,0.187905 0.305858,0.27231 0.509295,0.386412 0.06421,0.03601 0.177181,0.115336 0.251057,0.176277 0.143646,0.118496 0.464837,0.282718 0.611916,0.312866 0.04926,0.0101 0.167876,0.08519 0.263595,0.166868 0.09572,0.08168 0.18302,0.148522 0.194003,0.148538 0.01098,1.6e-5 0.127426,0.100304 0.258761,0.222863 0.131335,0.122559 0.25455,0.223285 0.273812,0.223837 0.01926,5.52e-4 0.07493,0.03458 0.123704,0.07562 0.09056,0.0762 0.225602,0.09907 0.259655,0.04397 0.02552,-0.04129 0.478921,-0.267838 0.536035,-0.267838 0.02494,0 0.09912,-0.04857 0.164832,-0.107944 0.08871,-0.08015 0.119481,-0.130933 0.119481,-0.197212 0,-0.06921 -0.01063,-0.08519 -0.04731,-0.07111 -0.02602,0.01 -0.116689,0.02608 -0.20148,0.03577 -0.29828,0.03408 -0.610815,-0.183891 -0.89201,-0.622114 -0.167217,-0.260596 -0.346811,-0.432552 -0.571807,-0.54749 -0.288227,-0.14724 -0.41403,-0.21855 -0.462558,-0.262198 -0.02672,-0.02403 -0.143809,-0.09199 -0.260209,-0.151018 -0.116399,-0.05903 -0.241766,-0.139403 -0.278594,-0.178605 -0.135381,-0.144106 -0.138194,-0.43339 -0.0059,-0.601635 0.08736,-0.111067 0.07944,-0.178854 -0.03393,-0.290272 -0.297588,-0.292457 -0.321825,-0.297644 -0.552511,-0.118245 -0.100505,0.07816 -0.246094,0.189123 -0.323529,0.246582 -0.07744,0.05746 -0.215859,0.182972 -0.307608,0.278918 -0.09175,0.09595 -0.348149,0.326934 -0.569777,0.513308 -0.221628,0.186374 -0.490267,0.43634 -0.596977,0.55548 -0.304632,0.340117 -0.507441,0.534254 -0.591508,0.566217 -0.208345,0.07921 -0.4563,-0.08525 -0.497666,-0.330097 -0.02991,-0.177052 0.009,-0.400539 0.08856,-0.508346 0.147309,-0.199666 0.815686,-0.862881 0.987185,-0.979561 0.09932,-0.06757 0.253789,-0.199492 0.343262,-0.29315 0.283998,-0.297288 0.455913,-0.46099 0.647904,-0.616956 l 0.186739,-0.151698 -0.08453,-0.08264 c -0.04649,-0.04545 -0.149126,-0.108015 -0.228079,-0.139029 -0.129393,-0.05083 -0.160083,-0.0525 -0.311154,-0.01694 -0.09218,0.0217 -0.234762,0.03977 -0.316847,0.04017 -0.169823,8.12e-4 -0.789536,0.07836 -0.812896,0.101716 -0.03917,0.03917 -0.0049,0.172679 0.104197,0.405933 0.13858,0.296304 0.164273,0.426884 0.125422,0.637425 -0.02027,0.109818 -0.05352,0.1765 -0.116708,0.234054 -0.20651,0.188083 -0.471799,0.118464 -0.665601,-0.174671 -0.06156,-0.09312 -0.111933,-0.187253 -0.111933,-0.20919 0,-0.06212 -0.177131,-0.05111 -0.198817,0.01235 -0.04681,0.136974 -0.237097,0.51145 -0.321585,0.632851 -0.05196,0.07467 -0.11281,0.18277 -0.135216,0.240229 -0.02241,0.05746 -0.05698,0.124619 -0.07682,0.149244 -0.06515,0.08083 -0.222723,0.430562 -0.222723,0.494322 0,0.07487 0.110949,0.184639 0.269465,0.266603 0.573985,0.29679 0.716982,0.409366 0.93259,0.734193 0.08978,0.135253 0.138776,0.176824 0.274954,0.233267 0.164186,0.06805 0.308228,0.210119 0.400553,0.395062 0.02164,0.04334 0.07132,0.09592 0.110419,0.116841 0.09257,0.04954 0.151802,0.02093 0.399929,-0.193167 0.226584,-0.195508 0.435396,-0.273752 0.653746,-0.244965 0.23861,0.03146 0.395915,0.285973 0.329406,0.53297 -0.03359,0.124736 -0.179266,0.308573 -0.26645,0.336244 -0.03063,0.0097 -0.08332,0.06451 -0.117091,0.12174 l -0.0614,0.104063 0.0761,0.02893 c 0.04185,0.01591 0.104271,0.02893 0.138703,0.02893 0.06949,0 0.312959,0.146846 0.396476,0.239132 0.02954,0.03265 0.06997,0.05936 0.08984,0.05936 0.01987,0 0.07088,0.02734 0.113368,0.06076 0.04249,0.03342 0.121531,0.07608 0.175657,0.0948 0.05412,0.01872 0.192434,0.113401 0.307352,0.210407 0.114918,0.09701 0.262258,0.203874 0.327422,0.237488 0.06516,0.03361 0.152471,0.08495 0.194017,0.114076 0.04155,0.02913 0.128642,0.06205 0.193546,0.07317 0.0649,0.01111 0.165643,0.04439 0.223866,0.07396 0.05822,0.02956 0.179735,0.06908 0.270028,0.08781 0.09029,0.01873 0.217897,0.05328 0.283565,0.07677 0.06567,0.02349 0.168241,0.0433 0.227941,0.04402 0.09906,0.0012 0.109739,-0.0068 0.122205,-0.09176 z m 5.664402,0.08156 c 0,-0.0063 -0.06127,-0.129625 -0.136162,-0.273983 -0.148575,-0.286394 -0.191031,-0.343547 -0.48638,-0.654742 -0.109066,-0.114919 -0.271165,-0.299609 -0.360221,-0.410422 -0.211113,-0.262695 -0.244362,-0.262111 -0.465496,0.0082 -0.199983,0.244438 -0.221346,0.18041 0.198642,0.595332 0.355944,0.35165 0.468483,0.436387 0.755956,0.5692 0.137229,0.0634 0.258222,0.129374 0.268874,0.14661 0.01762,0.02851 0.224787,0.04678 0.224787,0.01982 z m -15.591907,-0.3616 c 0.0094,-0.02463 0.03558,-0.04477 0.05807,-0.04477 0.02249,0 0.0646,-0.03694 0.09358,-0.08209 0.06932,-0.107992 0.07274,-0.112543 0.241439,-0.321058 0.125994,-0.155732 0.23676,-0.313962 0.348389,-0.497678 0.01675,-0.02757 0.105369,-0.148458 0.196927,-0.26864 0.212582,-0.279042 0.225186,-0.314321 0.143399,-0.401379 -0.101401,-0.107937 -0.250998,-0.146648 -0.340384,-0.08808 -0.06263,0.04104 -0.282897,0.447213 -0.282897,0.521663 0,0.01405 -0.01847,0.04087 -0.04105,0.05961 -0.02258,0.01874 -0.05783,0.094 -0.07834,0.167256 -0.02051,0.07325 -0.0549,0.147801 -0.07642,0.165664 -0.02152,0.01786 -0.04837,0.07521 -0.05965,0.127425 -0.01129,0.05222 -0.05245,0.158302 -0.09147,0.235737 -0.03902,0.07743 -0.07094,0.159739 -0.07094,0.1829 0,0.02316 -0.01869,0.05762 -0.04153,0.07658 -0.04699,0.039 -0.08118,0.211637 -0.04191,0.211637 0.01409,0 0.03335,-0.02015 0.0428,-0.04477 z m 4.67671,-0.26864 c 0.05054,-0.3089 0.112816,-0.541957 0.182874,-0.684329 0.06653,-0.135212 0.06885,-0.153834 0.02878,-0.231329 -0.02397,-0.04635 -0.0562,-0.08428 -0.07163,-0.08428 -0.09311,0 -0.347406,-0.320372 -0.402775,-0.507431 -0.03288,-0.111085 -0.156293,-0.228975 -0.357909,-0.341893 -0.09891,-0.05539 -0.270429,-0.168521 -0.381165,-0.251395 -0.260708,-0.195114 -0.290993,-0.210093 -0.387486,-0.191647 -0.07403,0.01415 -0.121354,0.06817 -0.251885,0.287519 -0.01913,0.03215 -0.12488,0.171773 -0.234991,0.310267 -0.177475,0.223223 -0.196619,0.259666 -0.16865,0.321052 0.03112,0.0683 0.305676,0.269245 0.394641,0.288832 0.02517,0.0055 0.09694,-0.04111 0.159504,-0.103662 0.06256,-0.06255 0.148823,-0.127071 0.191694,-0.143371 0.129157,-0.04911 0.292119,-0.0037 0.391096,0.10907 0.102067,0.116248 0.125743,0.240348 0.114816,0.601814 l -0.0074,0.244835 0.149244,0.153546 c 0.202626,0.208465 0.459514,0.383898 0.552204,0.37711 0.06525,-0.0048 0.07769,-0.0242 0.09904,-0.154709 z m -5.649725,-0.142731 c 0.06867,-0.05431 0.211306,-0.280102 0.315233,-0.499019 0.05066,-0.10671 0.127788,-0.269236 0.171399,-0.361169 0.04361,-0.09193 0.07929,-0.176954 0.07929,-0.188935 0,-0.01198 0.05942,-0.147241 0.132038,-0.300575 0.165177,-0.348762 0.174486,-0.403654 0.0769,-0.453513 -0.04104,-0.02097 -0.111063,-0.03833 -0.155601,-0.03857 -0.04454,-2.39e-4 -0.15114,-0.0281 -0.236892,-0.06189 -0.135809,-0.05353 -0.229402,-0.06219 -0.72589,-0.06716 -0.518422,-0.0052 -0.577991,-4.9e-4 -0.658575,0.05194 -0.24247,0.157767 -0.909441,0.93672 -0.909441,1.062134 0,0.06147 0.163874,0.174627 0.507431,0.350403 0.139544,0.0714 0.287296,0.149066 0.328338,0.172603 0.04104,0.02354 0.101293,0.04299 0.133892,0.04323 0.0326,2.38e-4 0.126621,0.03284 0.208942,0.07245 0.533915,0.256858 0.642889,0.289282 0.732929,0.218072 z m 14.559129,-1.352168 c 0.188348,-0.245757 0.254489,-0.387322 0.228795,-0.489704 -0.01035,-0.04123 -0.118456,-0.20662 -0.240241,-0.367528 -0.121785,-0.160907 -0.221427,-0.303818 -0.221427,-0.317579 0,-0.01376 -0.04468,-0.07524 -0.0993,-0.136608 -0.08867,-0.09964 -0.106393,-0.107788 -0.165598,-0.0761 -0.07439,0.03981 -0.123141,0.144954 -0.123141,0.265568 0,0.09919 -0.09455,0.279973 -0.227918,0.435784 -0.194919,0.227719 -0.121344,0.395528 0.34515,0.787213 0.261283,0.219383 0.257525,0.220136 0.503676,-0.101043 z M 23.416442,33.674159 c 0.217821,-0.08011 0.681278,-0.06786 0.931875,0.02463 0.240125,0.08863 0.259497,0.07735 0.288561,-0.167962 0.04357,-0.367721 0.333081,-0.754915 0.928878,-1.242272 0.564334,-0.461622 0.646534,-0.520992 0.954969,-0.689742 0.172377,-0.09431 0.333561,-0.184438 0.358186,-0.200283 0.02463,-0.01585 0.111934,-0.06303 0.194018,-0.104865 0.08209,-0.04183 0.216404,-0.114962 0.298489,-0.162515 0.199245,-0.115427 0.372313,-0.20767 0.641751,-0.342044 0.123126,-0.06141 0.277594,-0.13846 0.343262,-0.171233 0.231318,-0.115444 0.479326,-0.205771 0.63897,-0.232719 0.08876,-0.01498 0.216368,-0.05495 0.283564,-0.08882 0.145771,-0.07347 0.567095,-0.132117 0.787102,-0.109567 0.101349,0.01039 0.209754,0.0483 0.304089,0.106343 0.08063,0.04961 0.183851,0.0942 0.229387,0.09908 0.07233,0.0078 0.09485,-0.01186 0.178279,-0.155285 0.236716,-0.406978 0.385928,-0.477568 1.009563,-0.477606 0.301842,-1.9e-5 0.421358,-0.01205 0.530112,-0.05335 0.07722,-0.02933 0.149982,-0.0629 0.161681,-0.0746 0.0117,-0.0117 0.118128,-0.02127 0.236508,-0.02127 0.240723,0 0.251447,-0.007 0.357936,-0.232551 0.151461,-0.320853 0.280145,-0.381727 0.849624,-0.401915 0.441413,-0.01565 0.596977,-0.04757 0.596977,-0.122508 0,-0.02314 -0.03068,-0.06218 -0.06817,-0.08675 -0.05892,-0.03861 -0.205661,-0.04157 -1.082022,-0.02183 -0.969846,0.02184 -1.02357,0.02607 -1.23772,0.09743 -0.123126,0.04103 -0.344754,0.09025 -0.492506,0.109383 -0.304859,0.03947 -0.591524,0.09198 -1.343199,0.246019 -0.08208,0.01682 -0.241581,0.05759 -0.354436,0.09059 -0.112856,0.03301 -0.294188,0.07127 -0.40296,0.08504 -0.108773,0.01377 -0.285076,0.05195 -0.391786,0.08484 -0.10671,0.03289 -0.281326,0.07391 -0.388035,0.09114 -0.10671,0.01724 -0.267894,0.05207 -0.358187,0.07741 -0.09029,0.02534 -0.241922,0.05795 -0.336954,0.07248 -0.09503,0.01452 -0.229352,0.05297 -0.298489,0.08544 -0.06914,0.03247 -0.159283,0.06852 -0.200325,0.0801 -0.04104,0.01159 -0.135067,0.05244 -0.208943,0.09079 -0.07388,0.03835 -0.181331,0.09148 -0.238791,0.118066 -0.267817,0.123929 -0.371114,0.196991 -0.632275,0.447206 -0.154215,0.147752 -0.353755,0.324863 -0.443422,0.393581 -0.08967,0.06872 -0.292591,0.256765 -0.450942,0.417884 -0.273598,0.278381 -0.385723,0.369561 -0.86871,0.706437 -0.201346,0.140435 -0.296476,0.229178 -0.711733,0.663944 -0.10825,0.113335 -0.301271,0.299168 -0.428936,0.412963 -0.282955,0.252212 -0.463731,0.475358 -0.463731,0.572421 0,0.06365 0.01003,0.07027 0.08208,0.05418 0.04515,-0.01008 0.142528,-0.04056 0.216404,-0.06773 z m 7.07016,-0.31058 c 0.143539,-0.148009 0.434363,-0.491138 0.499653,-0.589515 0.134997,-0.203409 0.260259,-0.374529 0.35722,-0.487998 0.116098,-0.135864 0.105726,-0.189581 -0.04196,-0.217286 -0.131981,-0.02476 -0.374667,-0.134481 -0.451753,-0.204243 -0.06589,-0.05963 -0.165355,-0.03932 -0.209276,0.04275 -0.01604,0.02997 -0.0965,0.133161 -0.178796,0.229307 -0.0823,0.09615 -0.149751,0.184626 -0.149897,0.19662 -2.38e-4,0.01951 -0.07087,0.130839 -0.294929,0.464833 -0.09705,0.144675 -0.153025,0.286081 -0.128622,0.324959 0.01118,0.01781 0.110945,0.08211 0.221702,0.142892 0.110757,0.06078 0.208932,0.122733 0.218166,0.137674 0.0284,0.04596 0.09028,0.03035 0.158488,-0.03999 z m 13.062906,-0.643307 c 0.317369,-0.274142 0.335163,-0.323753 0.192136,-0.535679 -0.174732,-0.258903 -0.215874,-0.473853 -0.134404,-0.702196 0.0365,-0.102302 0.03519,-0.11531 -0.01427,-0.141782 -0.152049,-0.08137 -0.38349,-0.008 -0.78222,0.248053 -0.115514,0.07418 -0.141782,0.107047 -0.141782,0.177432 0,0.04751 0.10074,0.294216 0.223867,0.548224 0.123126,0.254009 0.223866,0.474272 0.223866,0.489474 0,0.02933 0.119076,0.149648 0.147411,0.148942 0.0092,-2.39e-4 0.137646,-0.104841 0.285398,-0.232468 z m -14.51369,-0.07307 c 0.02698,-0.02052 0.101231,-0.140117 0.165011,-0.265768 0.06378,-0.125652 0.163991,-0.295307 0.222691,-0.377012 0.0587,-0.08171 0.127038,-0.187095 0.151864,-0.2342 0.02483,-0.04711 0.111173,-0.163131 0.191881,-0.257835 0.186553,-0.218905 0.228071,-0.297727 0.205078,-0.389339 -0.02879,-0.1147 -0.148966,-0.128548 -0.324637,-0.03741 -0.08077,0.04191 -0.230126,0.0895 -0.331892,0.105754 -0.101765,0.01626 -0.245086,0.05794 -0.31849,0.09262 -0.0734,0.03468 -0.200622,0.09345 -0.282707,0.130581 -0.229944,0.104027 -0.286918,0.132236 -0.447733,0.221687 -0.343652,0.191152 -0.428704,0.237873 -0.642706,0.353059 -0.123652,0.06656 -0.275778,0.155589 -0.338057,0.197853 -0.06228,0.04226 -0.139083,0.08505 -0.170675,0.09507 -0.140488,0.04459 0.0049,0.103755 0.254959,0.103755 0.06921,0 0.191782,0.02161 0.272371,0.04802 0.08059,0.02641 0.334574,0.06479 0.56441,0.08528 0.31922,0.02846 0.44597,0.05236 0.536838,0.101222 0.135307,0.07276 0.22091,0.08058 0.291794,0.02665 z M 40.77756,32.155958 c 0.222165,-0.272982 0.36031,-0.46417 0.40285,-0.557536 0.02739,-0.06012 0.02295,-0.08845 -0.02471,-0.157732 -0.102616,-0.149153 -0.208904,-0.379583 -0.231228,-0.5013 -0.01194,-0.0651 -0.04126,-0.156165 -0.06515,-0.202365 -0.07593,-0.146826 -0.190235,-0.585427 -0.190235,-0.729933 0,-0.175298 0.100685,-0.389191 0.213372,-0.453283 0.04661,-0.02651 0.08483,-0.05717 0.08493,-0.06813 2.68e-4,-0.02827 -0.423279,-0.164708 -0.671411,-0.216287 -0.114919,-0.02389 -0.23141,-0.05207 -0.25887,-0.06262 -0.0955,-0.0367 -0.163039,0.07808 -0.182493,0.31013 -0.02807,0.33477 -0.181997,0.619353 -0.585587,1.082614 -0.213001,0.244495 -0.278965,0.289651 -0.495343,0.339099 -0.09658,0.02207 -0.149244,0.04971 -0.149244,0.07832 0,0.06897 0.605958,0.563173 0.690529,0.563173 0.01111,0 0.06177,0.03165 0.112573,0.07033 0.0508,0.03868 0.123912,0.0803 0.162471,0.09249 0.03856,0.01219 0.214715,0.161876 0.391459,0.332632 0.176744,0.170757 0.334957,0.310467 0.351585,0.310467 0.01663,0 0.0471,0.02033 0.06773,0.04518 0.03331,0.04014 0.04665,0.0393 0.119586,-0.0075 0.04515,-0.02895 0.160885,-0.149455 0.257187,-0.267786 z m 4.339014,-0.263036 c 0.07388,-0.0096 0.176361,-0.02372 0.227744,-0.03146 l 0.09342,-0.01407 -0.08116,-0.08689 c -0.04464,-0.04779 -0.241149,-0.169297 -0.436687,-0.27002 -0.310636,-0.160011 -0.371725,-0.18143 -0.483855,-0.169649 -0.07058,0.0074 -0.135015,0.02017 -0.143183,0.02833 -0.02344,0.02344 0.167501,0.291243 0.321912,0.451477 0.131546,0.136506 0.147926,0.144745 0.25405,0.12779 0.06239,-0.01 0.173882,-0.02595 0.247758,-0.03551 z M 31.942886,31.177478 c 0.01156,-0.03265 0.06006,-0.133392 0.10776,-0.223866 0.0477,-0.09047 0.105023,-0.208076 0.127379,-0.261338 0.03847,-0.09166 0.03702,-0.09775 -0.02705,-0.113832 -0.04622,-0.0116 -0.125469,0.01742 -0.249757,0.09146 -0.100131,0.05965 -0.246808,0.131616 -0.32595,0.159931 -0.103949,0.03719 -0.151493,0.07309 -0.171266,0.129313 -0.02463,0.07004 -0.0068,0.100703 0.177998,0.306389 l 0.205369,0.228557 0.06725,-0.128621 c 0.03699,-0.07074 0.07671,-0.155338 0.08827,-0.187991 z m 10.397311,-0.408504 c 0.145576,-0.143298 0.153006,-0.157319 0.102817,-0.194018 -0.02975,-0.02176 -0.117592,-0.03956 -0.195196,-0.03956 -0.0776,0 -0.159372,-0.007 -0.181707,-0.01558 -0.02233,-0.0086 -0.06452,0.0019 -0.09375,0.02327 -0.04498,0.03289 -0.04799,0.05248 -0.01963,0.127517 0.03296,0.08719 0.170753,0.252828 0.210337,0.252828 0.01112,0 0.09082,-0.06951 0.177129,-0.15446 z m -4.013056,-0.131596 c -0.03248,-0.216589 0.0062,-0.358811 0.143995,-0.529925 0.06827,-0.08476 0.147607,-0.190759 0.176301,-0.235555 0.05117,-0.07989 0.05085,-0.08178 -0.01696,-0.0988 -0.03802,-0.0095 -0.202686,0.01152 -0.365919,0.04682 -0.163233,0.03529 -0.384096,0.08012 -0.490805,0.09962 -0.191069,0.03491 -0.193862,0.0368 -0.183729,0.124179 0.0057,0.0488 0.02581,0.09384 0.04477,0.100083 0.01897,0.0062 0.171807,0.150638 0.339645,0.320875 0.167839,0.170237 0.320474,0.309522 0.33919,0.309522 0.02351,0 0.02768,-0.0423 0.01351,-0.136812 z m 5.423847,-0.360539 c -0.02052,-0.0083 -0.0541,-0.0083 -0.07462,0 -0.02052,0.0083 -0.0037,0.01506 0.03731,0.01506 0.04104,0 0.05783,-0.0068 0.03731,-0.01506 z m -6.917477,-1.07602 c 0.03283,-0.0086 0.08261,-0.03579 0.110615,-0.06036 0.02801,-0.02457 0.162325,-0.06145 0.298489,-0.08195 0.136164,-0.0205 0.227423,-0.04505 0.202798,-0.05455 -0.02463,-0.0095 -0.246253,-0.03035 -0.492506,-0.04633 -0.281662,-0.01828 -0.488896,-0.0466 -0.558708,-0.07634 -0.123862,-0.05277 -0.516548,-0.06685 -0.486003,-0.01743 0.01015,0.01642 0.04267,0.02985 0.07228,0.02985 0.02961,0 0.101408,0.03694 0.159556,0.08209 0.134195,0.10419 0.280537,0.19177 0.394991,0.236388 0.08274,0.03225 0.14085,0.03004 0.298489,-0.01136 z"
       id="path1164" /><path
       style="fill:#ffffff;fill-rule:evenodd;stroke-width:0.0298489"
       d="m 33.400891,60.801536 c -0.114919,-0.03163 -0.276103,-0.05818 -0.358187,-0.059 -0.08208,-8.24e-4 -0.202972,-0.01455 -0.26864,-0.03051 -0.06567,-0.01595 -0.213419,-0.04286 -0.328337,-0.05979 -0.114919,-0.01693 -0.281932,-0.05802 -0.371141,-0.09131 -0.08921,-0.03329 -0.250394,-0.06876 -0.358187,-0.07881 -0.107793,-0.01006 -0.256432,-0.04795 -0.330307,-0.0842 -0.07388,-0.03625 -0.208196,-0.07315 -0.298489,-0.08199 -0.242036,-0.0237 -1.326319,-0.307283 -1.478551,-0.386705 -0.04982,-0.02599 -0.143266,-0.05714 -0.207662,-0.06922 -0.128855,-0.02417 -0.422308,-0.148672 -0.492755,-0.209053 -0.03974,-0.03406 -0.157459,-0.08295 -0.581818,-0.241654 -0.06554,-0.02451 -0.132698,-0.05578 -0.149244,-0.06949 -0.01655,-0.01371 -0.136254,-0.08116 -0.266016,-0.149898 -0.129763,-0.06873 -0.297663,-0.170808 -0.373111,-0.226832 -0.130352,-0.09679 -0.256863,-0.181752 -0.650763,-0.437035 -0.544689,-0.353007 -0.770092,-0.556249 -1.067421,-0.962479 -0.08298,-0.113373 -0.260608,-0.326086 -0.298124,-0.357011 -0.0207,-0.01706 -0.08216,-0.111616 -0.136575,-0.210117 -0.05442,-0.0985 -0.14824,-0.239537 -0.208495,-0.313413 -0.06026,-0.07388 -0.159769,-0.224867 -0.221139,-0.335535 -0.06137,-0.110667 -0.122184,-0.207767 -0.135143,-0.215776 -0.01296,-0.008 -0.07463,-0.118942 -0.13704,-0.246518 -0.06241,-0.127577 -0.160811,-0.305833 -0.218661,-0.396126 -0.155182,-0.242207 -0.262279,-0.478996 -0.348463,-0.770443 -0.04218,-0.142639 -0.110586,-0.333219 -0.152014,-0.423512 -0.162099,-0.353297 -0.187498,-0.409852 -0.274811,-0.611902 -0.09859,-0.228152 -0.183509,-0.595404 -0.184329,-0.797199 -2.87e-4,-0.07046 -0.02038,-0.249004 -0.04466,-0.396756 -0.05653,-0.344045 -0.05628,-0.873778 5.83e-4,-1.251052 0.02453,-0.162739 0.04466,-0.397799 0.04473,-0.522356 9.4e-5,-0.164495 0.02034,-0.283643 0.07399,-0.435409 0.04063,-0.114918 0.0752,-0.249238 0.07684,-0.298489 0.0016,-0.04925 0.04194,-0.14999 0.08955,-0.223866 0.04762,-0.07388 0.134905,-0.23506 0.193973,-0.358187 0.297893,-0.620952 0.415257,-0.836157 0.516268,-0.946662 0.105255,-0.115147 0.302899,-0.408584 0.302899,-0.449706 0,-0.01805 0.0287,-0.05053 0.20148,-0.227967 0.03694,-0.03793 0.06716,-0.07735 0.06716,-0.0876 0,-0.04087 0.273977,-0.372297 0.437869,-0.529689 0.191674,-0.184071 0.326054,-0.272828 0.512855,-0.338735 0.06783,-0.02393 0.14482,-0.06094 0.171087,-0.08224 0.07197,-0.05836 0.314086,-0.302535 0.415406,-0.418943 0.04925,-0.05658 0.170139,-0.164067 0.26864,-0.238848 0.0985,-0.07478 0.212673,-0.17226 0.253716,-0.216619 0.08104,-0.08759 0.362256,-0.283648 0.406852,-0.283648 0.04347,0 0.30806,-0.212585 0.496043,-0.398543 0.124984,-0.123637 0.254717,-0.210462 0.477582,-0.319625 0.168291,-0.08243 0.326132,-0.162244 0.350757,-0.17736 0.02463,-0.01512 0.145514,-0.06856 0.26864,-0.118773 0.123127,-0.05021 0.277595,-0.117925 0.343262,-0.150479 0.06567,-0.03255 0.14267,-0.05915 0.171117,-0.05911 0.04931,7.7e-5 0.586851,-0.24548 0.628468,-0.287096 0.03146,-0.03146 0.340046,-0.15199 0.633115,-0.247289 0.34444,-0.112004 0.631222,-0.169661 1.059681,-0.213048 0.188794,-0.01912 0.444002,-0.05925 0.567129,-0.08919 0.123126,-0.02994 0.405198,-0.07001 0.626826,-0.08905 0.221628,-0.01904 0.468595,-0.04688 0.548816,-0.06186 0.265308,-0.04956 0.930922,-0.03024 1.257041,0.03648 0.201243,0.04117 0.502706,0.06949 0.925315,0.08692 0.344755,0.01422 0.680555,0.03955 0.746222,0.05629 0.06567,0.01674 0.228714,0.03075 0.362326,0.03114 0.133612,3.91e-4 0.415684,0.03296 0.626827,0.07238 0.211142,0.03942 0.504783,0.0867 0.652535,0.10507 0.147752,0.01837 0.463404,0.07264 0.701449,0.120596 0.238045,0.04796 0.550643,0.109908 0.694664,0.13767 0.144021,0.02776 0.268112,0.0606 0.275758,0.07297 0.0076,0.01237 0.09801,0.04353 0.200801,0.06924 0.102795,0.02571 0.301072,0.07522 0.440616,0.11002 0.305022,0.07607 0.701186,0.223209 0.810429,0.300997 0.04363,0.03107 0.09264,0.05649 0.108906,0.05649 0.03751,0 0.412232,0.155561 0.651394,0.270418 0.100516,0.04827 0.204362,0.08777 0.230769,0.08777 0.04681,0 0.58628,0.115552 0.855052,0.183146 0.07388,0.01858 0.261924,0.06504 0.417884,0.103236 0.15596,0.0382 0.39102,0.09674 0.522355,0.130095 0.131335,0.03335 0.287175,0.06074 0.34631,0.06087 0.05913,1.28e-4 0.240467,0.03294 0.402959,0.07291 0.162493,0.03997 0.456626,0.09404 0.653628,0.120137 0.197003,0.0261 0.452211,0.07308 0.567129,0.104405 0.114918,0.03132 0.289208,0.07921 0.38731,0.106421 0.0981,0.02721 0.232423,0.08045 0.298489,0.118304 0.06607,0.03786 0.153701,0.07819 0.194743,0.08962 0.08123,0.02263 0.307593,0.119214 0.40296,0.171937 0.03283,0.01815 0.173869,0.09212 0.313413,0.164374 0.54591,0.282663 0.626627,0.361418 0.883109,0.861654 0.08811,0.171854 0.22248,0.39339 0.298592,0.492304 0.07611,0.09891 0.17843,0.256127 0.227373,0.349363 0.04894,0.09324 0.119102,0.216533 0.155906,0.273993 0.244819,0.382208 0.368014,0.564096 0.437865,0.646469 0.09246,0.109036 0.430644,0.796434 0.489626,0.995219 0.01218,0.04104 0.03317,0.08852 0.04666,0.105511 0.01349,0.01699 0.05885,0.12607 0.100817,0.242402 l 0.0763,0.211513 v 1.139591 c 0,0.956043 -0.0072,1.153576 -0.0449,1.226422 -0.0247,0.04776 -0.05863,0.184768 -0.0754,0.304468 -0.03122,0.222767 -0.272476,0.974492 -0.322877,1.00604 -0.01539,0.0096 -0.08652,0.129454 -0.158051,0.266265 -0.07154,0.136811 -0.166287,0.311427 -0.210557,0.388035 -0.04427,0.07661 -0.105048,0.1863 -0.135062,0.243759 -0.05365,0.102703 -0.143986,0.241281 -0.291878,0.447733 -0.04116,0.05746 -0.107395,0.153031 -0.147187,0.212381 -0.03979,0.05935 -0.155941,0.186955 -0.25811,0.283564 -0.102168,0.09661 -0.287833,0.275964 -0.412587,0.398565 -0.124755,0.122601 -0.293986,0.268699 -0.376071,0.324663 -0.08208,0.05596 -0.176108,0.127677 -0.208942,0.159362 -0.207707,0.200441 -0.356643,0.320734 -0.567129,0.458055 -0.131335,0.08568 -0.292173,0.205701 -0.357418,0.266703 -0.06524,0.061 -0.152553,0.130335 -0.194018,0.154071 -0.04146,0.02374 -0.135834,0.08268 -0.20971,0.13098 -0.07388,0.0483 -0.20148,0.120964 -0.283564,0.16147 -0.08208,0.04051 -0.202973,0.114344 -0.26864,0.164085 -0.412745,0.31264 -0.804377,0.529998 -1.253653,0.695781 -0.114918,0.04241 -0.356694,0.133388 -0.53728,0.202184 -0.180585,0.0688 -0.388089,0.137295 -0.461119,0.152219 -0.07303,0.01492 -0.188489,0.0541 -0.256575,0.08706 -0.06809,0.03296 -0.202329,0.08038 -0.298316,0.105384 -0.09599,0.025 -0.189657,0.05802 -0.208152,0.07337 -0.0185,0.01535 -0.126721,0.0494 -0.240501,0.07566 -0.113781,0.02626 -0.361341,0.09873 -0.550136,0.161037 -0.188794,0.06231 -0.391027,0.121898 -0.449407,0.132428 -0.05838,0.01053 -0.159119,0.04654 -0.223866,0.08003 -0.06475,0.03349 -0.218462,0.0728 -0.341588,0.08737 -0.123127,0.01456 -0.284311,0.05333 -0.358187,0.08614 -0.07388,0.03281 -0.282072,0.0945 -0.462657,0.137081 -0.180586,0.04258 -0.423351,0.103551 -0.539479,0.135489 -0.116127,0.03194 -0.389299,0.07779 -0.607049,0.101899 -0.256617,0.02841 -0.422733,0.06141 -0.472153,0.09379 -0.13354,0.0875 -0.691022,0.110609 -2.903424,0.120361 -2.031177,0.009 -2.14428,0.0066 -2.343136,-0.0481 z m 4.438035,-0.743334 c 0.355076,-0.01946 0.461062,-0.03589 0.558253,-0.08655 0.06598,-0.03439 0.191121,-0.07007 0.278087,-0.07928 0.718727,-0.07612 1.085633,-0.15348 1.844581,-0.388908 0.123127,-0.03819 0.292391,-0.0751 0.376143,-0.08202 0.08375,-0.0069 0.211356,-0.03954 0.283564,-0.0725 0.113686,-0.05189 0.633202,-0.22314 1.429714,-0.471286 0.123127,-0.03836 0.284311,-0.0783 0.358187,-0.08876 0.07388,-0.01046 0.188048,-0.04384 0.253715,-0.07418 0.06567,-0.03034 0.185442,-0.07673 0.266166,-0.103083 0.08072,-0.02636 0.168031,-0.06614 0.194018,-0.08841 0.02599,-0.02227 0.213873,-0.09005 0.417526,-0.150622 0.203654,-0.06057 0.405134,-0.133511 0.447733,-0.162085 0.0426,-0.02857 0.129251,-0.07837 0.192558,-0.110668 0.32238,-0.164453 0.586345,-0.333493 0.586345,-0.37549 0,-0.0139 0.05554,-0.05577 0.123428,-0.09304 0.269961,-0.148219 0.374887,-0.206996 0.508647,-0.284934 0.07676,-0.04473 0.193994,-0.111664 0.260513,-0.148748 0.201449,-0.112311 0.712471,-0.492066 0.898344,-0.667587 0.111804,-0.105576 0.371524,-0.293589 0.409703,-0.296586 0.01271,-9.97e-4 0.07012,-0.06139 0.127577,-0.134204 0.05746,-0.07282 0.139188,-0.151787 0.181619,-0.175493 0.1431,-0.07995 0.534619,-0.469816 0.706923,-0.703937 0.191664,-0.260426 0.242726,-0.341514 0.400321,-0.635722 0.06041,-0.112773 0.129787,-0.227292 0.154175,-0.254487 0.07046,-0.07857 0.310733,-0.592742 0.407299,-0.871608 0.04857,-0.140269 0.101814,-0.350225 0.118314,-0.466568 0.0165,-0.116344 0.04371,-0.247587 0.06046,-0.291651 0.0183,-0.04812 0.03046,-0.443488 0.03046,-0.990046 0,-0.741104 -0.0081,-0.925632 -0.04376,-0.994557 -0.02407,-0.04655 -0.08987,-0.217136 -0.146229,-0.379091 -0.141545,-0.406767 -0.238195,-0.602915 -0.364266,-0.739271 -0.05923,-0.06406 -0.153714,-0.203232 -0.209971,-0.309275 -0.05626,-0.106043 -0.12559,-0.223959 -0.154073,-0.262036 -0.02848,-0.03808 -0.09208,-0.137067 -0.141334,-0.219979 -0.04925,-0.08291 -0.09808,-0.151002 -0.1085,-0.151312 -0.03826,-0.0011 -0.111552,0.143167 -0.130154,0.25625 -0.04344,0.264056 -0.110489,0.535238 -0.150081,0.60697 -0.02321,0.04205 -0.0625,0.123468 -0.08731,0.180927 -0.06379,0.147733 -0.08748,0.180959 -0.403514,0.566059 -0.447284,0.545025 -0.750846,0.826658 -1.284485,1.191693 -0.05746,0.0393 -0.158199,0.09712 -0.223867,0.12849 -0.06567,0.03137 -0.186555,0.09593 -0.268639,0.143481 -0.08208,0.04755 -0.202973,0.114719 -0.26864,0.149264 -0.06567,0.03454 -0.199988,0.107601 -0.298489,0.162345 -0.0985,0.05475 -0.232821,0.128461 -0.298489,0.163812 -0.06567,0.03535 -0.186555,0.103431 -0.26864,0.151288 -0.08208,0.04786 -0.196256,0.108596 -0.253715,0.134977 -0.258562,0.118709 -0.293745,0.133781 -0.31231,0.133781 -0.01085,0 -0.08941,0.03216 -0.174583,0.07147 -0.08517,0.03931 -0.208586,0.0879 -0.274253,0.107996 -0.06567,0.02009 -0.159692,0.05419 -0.208943,0.07577 -0.176099,0.07717 -0.542674,0.158854 -0.865617,0.19289 -0.180586,0.01903 -0.449225,0.06135 -0.596977,0.09404 -0.403194,0.08921 -0.628382,0.135109 -0.925315,0.188608 -0.147752,0.02662 -0.329084,0.06281 -0.40296,0.08042 -0.276069,0.06581 -0.830088,0.09187 -2.208937,0.103907 -1.54891,0.01352 -1.416646,0.02409 -2.238546,-0.178892 -0.435101,-0.107457 -0.636013,-0.14314 -1.104408,-0.196153 -0.139543,-0.01579 -0.374603,-0.05546 -0.522355,-0.08816 -0.147752,-0.03269 -0.429824,-0.08619 -0.626827,-0.118886 -0.375238,-0.06228 -0.694439,-0.136104 -1.119332,-0.25889 -0.416163,-0.120262 -0.603937,-0.163667 -0.708036,-0.163667 -0.211242,0 -0.707545,-0.135161 -1.321688,-0.359943 -0.139543,-0.05107 -0.343532,-0.117719 -0.453308,-0.148099 -0.109776,-0.03038 -0.230664,-0.07485 -0.26864,-0.09883 -0.03798,-0.02398 -0.102627,-0.05335 -0.143669,-0.06527 -0.0957,-0.02781 -0.45721,-0.203393 -0.611902,-0.297194 -0.113579,-0.06887 -0.206196,-0.116664 -0.373111,-0.192534 -0.04104,-0.01866 -0.108202,-0.05342 -0.149244,-0.07726 -0.04104,-0.02384 -0.176325,-0.08251 -0.300628,-0.130367 -0.387075,-0.14904 -0.616597,-0.321808 -1.00267,-0.754739 -0.112239,-0.125861 -0.257799,-0.269176 -0.323466,-0.318476 -0.06567,-0.0493 -0.159692,-0.125243 -0.208942,-0.168761 -0.109339,-0.09661 -0.381406,-0.297689 -0.641751,-0.4743 -0.263026,-0.17843 -0.734926,-0.675322 -0.77805,-0.819257 -0.01829,-0.06104 -0.06898,-0.154493 -0.112645,-0.20767 l -0.07939,-0.09669 -0.0818,0.08244 c -0.110537,0.111387 -0.200007,0.229833 -0.321559,0.425697 -0.05604,0.09029 -0.150467,0.224612 -0.209847,0.298488 -0.130611,0.162494 -0.29718,0.425959 -0.29718,0.470053 0,0.04817 -0.156729,0.369866 -0.231041,0.474228 -0.03588,0.05039 -0.07852,0.164118 -0.09475,0.25273 -0.01623,0.08861 -0.04988,0.241705 -0.07476,0.340206 -0.100948,0.399546 -0.117823,1.497594 -0.03243,2.110573 0.01662,0.119331 0.169697,0.594424 0.235531,0.731012 0.166213,0.344847 0.228755,0.504581 0.305662,0.780659 0.05093,0.182825 0.242252,0.597356 0.346826,0.751454 0.08866,0.130648 0.220512,0.376319 0.259672,0.483832 0.0317,0.08702 0.287999,0.495069 0.342396,0.545117 0.01784,0.01642 0.0851,0.117157 0.149456,0.223866 0.06436,0.10671 0.166145,0.254462 0.226197,0.328338 0.06005,0.07388 0.161852,0.220794 0.226223,0.326484 0.145683,0.239196 0.493889,0.600256 0.659756,0.684112 0.06866,0.03471 0.133051,0.07641 0.143097,0.09266 0.02115,0.03422 0.359613,0.256209 0.71212,0.467054 0.07935,0.04747 0.186811,0.121375 0.238791,0.164245 0.05198,0.04287 0.134806,0.100126 0.184056,0.127237 0.04925,0.02711 0.109695,0.06204 0.13432,0.07761 0.02463,0.01557 0.145513,0.06969 0.26864,0.120251 0.123127,0.05056 0.306667,0.131674 0.407868,0.180245 0.101201,0.04857 0.195423,0.08831 0.209384,0.08831 0.01396,0 0.0722,0.02489 0.129412,0.0553 0.05722,0.03042 0.177905,0.07275 0.268198,0.09407 0.09029,0.02132 0.191208,0.05634 0.224255,0.07782 0.03305,0.02147 0.133787,0.05371 0.223867,0.07163 0.09008,0.01792 0.193826,0.04496 0.230548,0.06008 0.100405,0.04134 0.712373,0.198946 0.933169,0.240322 0.10671,0.02 0.247746,0.06335 0.313413,0.09633 0.06899,0.03466 0.220198,0.06956 0.358187,0.08267 0.131335,0.01248 0.299235,0.0496 0.373111,0.08249 0.08626,0.0384 0.26248,0.0719 0.492506,0.09362 0.477128,0.04505 0.739075,0.0814 0.955164,0.132529 0.143738,0.03401 0.52086,0.04252 1.910328,0.0431 0.952179,3.97e-4 1.928464,-0.01009 2.169521,-0.0233 z m 2.312303,-8.207035 c 0.232307,-0.01874 0.479381,-0.05419 0.549052,-0.07877 0.06967,-0.02458 0.246803,-0.0583 0.393625,-0.07493 0.146822,-0.01663 0.302709,-0.04872 0.346414,-0.0713 0.113632,-0.05871 0.304383,-0.106227 0.551487,-0.137381 0.117976,-0.01487 0.375685,-0.04725 0.572688,-0.07195 0.197003,-0.0247 0.455316,-0.07894 0.57403,-0.120538 0.118714,-0.0416 0.238541,-0.07563 0.266281,-0.07563 0.04705,0 0.387791,-0.147822 0.487964,-0.211692 0.02463,-0.0157 0.111933,-0.06264 0.194018,-0.104318 0.08208,-0.04168 0.216404,-0.113977 0.298488,-0.160671 0.08208,-0.04669 0.229837,-0.125817 0.328338,-0.175828 0.0985,-0.05001 0.248556,-0.13521 0.333456,-0.18933 0.244251,-0.155702 0.34653,-0.21348 0.44267,-0.250066 0.179993,-0.0685 0.614434,-0.380486 0.844366,-0.606371 0.255306,-0.250813 0.540121,-0.665514 0.572486,-0.83356 0.114997,-0.597088 0.127755,-0.696534 0.09779,-0.762289 -0.02908,-0.06384 -0.360211,-0.247884 -0.544613,-0.30271 -0.04104,-0.0122 -0.09138,-0.03559 -0.111869,-0.05198 -0.03306,-0.02645 -0.233056,-0.09126 -0.666869,-0.2161 -0.07534,-0.02168 -0.290255,-0.05555 -0.477582,-0.07526 -0.187327,-0.01971 -0.351261,-0.04234 -0.364297,-0.05028 -0.01304,-0.0079 -0.154072,-0.03852 -0.313414,-0.06796 -0.605216,-0.111808 -0.94913,-0.188146 -1.026172,-0.227779 -0.04388,-0.02257 -0.210656,-0.0621 -0.370606,-0.08784 -0.15995,-0.02574 -0.314819,-0.05964 -0.344153,-0.07534 -0.02933,-0.0157 -0.178214,-0.05515 -0.330843,-0.08767 -0.431639,-0.09196 -0.714465,-0.171714 -0.843486,-0.237853 -0.06503,-0.03334 -0.13891,-0.06103 -0.164169,-0.06155 -0.02526,-5.14e-4 -0.113084,-0.03397 -0.195168,-0.07435 -0.08208,-0.04038 -0.168331,-0.07354 -0.191659,-0.07369 -0.03795,-2.44e-4 -0.186599,-0.06453 -0.554563,-0.239816 -0.103695,-0.0494 -0.523779,-0.160198 -0.850693,-0.224375 -0.05746,-0.01128 -0.178564,-0.0514 -0.269122,-0.08915 -0.09056,-0.03775 -0.265588,-0.08268 -0.388956,-0.09984 -0.123368,-0.01716 -0.270903,-0.05059 -0.327855,-0.0743 -0.110524,-0.04601 -0.756208,-0.138411 -0.967152,-0.138411 -0.06975,0 -0.255063,-0.02678 -0.411796,-0.05951 -0.348198,-0.07271 -0.795501,-0.113495 -1.624472,-0.14811 -0.483316,-0.02018 -0.69095,-0.04156 -0.885519,-0.09119 -0.222855,-0.05684 -0.310549,-0.0631 -0.711846,-0.05078 -0.488885,0.01501 -1.076389,0.08413 -1.327891,0.156239 -0.08461,0.02426 -0.19671,0.04411 -0.24911,0.04411 -0.164193,0 -0.26542,0.08417 -0.317763,0.26422 -0.05962,0.205095 -0.206718,0.368106 -0.42356,0.46939 -0.141768,0.06622 -0.232855,0.08309 -0.56391,0.104441 -0.282218,0.0182 -0.431205,0.04188 -0.522356,0.08302 -0.07014,0.03165 -0.208115,0.07343 -0.306617,0.09283 -0.0985,0.0194 -0.259685,0.0601 -0.358186,0.09043 -0.0985,0.03033 -0.259685,0.07496 -0.358187,0.09917 -0.394485,0.09698 -0.537317,0.148768 -0.834748,0.302653 -0.170672,0.0883 -0.348179,0.186692 -0.394458,0.218643 -0.04628,0.03195 -0.164426,0.109656 -0.262547,0.172676 -0.2449,0.157291 -0.274115,0.181154 -0.478272,0.390645 -0.283421,0.290825 -0.303919,0.317946 -0.319055,0.42216 -0.01562,0.107562 -0.03657,0.08587 0.351628,0.364156 0.496681,0.356055 0.624203,0.469305 1.055507,0.93738 0.161934,0.175739 0.418627,0.368896 0.547712,0.412145 0.05249,0.01759 0.11559,0.04892 0.140216,0.06962 0.02463,0.0207 0.111933,0.05831 0.194017,0.08356 0.202241,0.06223 0.51792,0.194859 0.610641,0.256552 0.212531,0.141409 0.269966,0.175004 0.448994,0.262633 0.245362,0.120095 0.651362,0.261885 1.089484,0.380486 0.0985,0.02666 0.279316,0.07553 0.401811,0.108596 0.122494,0.03306 0.33069,0.07407 0.462657,0.09113 0.131967,0.01706 0.300385,0.05044 0.374261,0.07418 0.07388,0.02374 0.365754,0.09588 0.648618,0.160309 0.282864,0.06443 0.558824,0.135752 0.613244,0.15849 0.05442,0.02274 0.204773,0.05126 0.334118,0.06338 0.129346,0.01212 0.303358,0.04137 0.386694,0.065 0.08334,0.02363 0.198532,0.05567 0.255991,0.07119 0.05746,0.01553 0.262133,0.04238 0.454831,0.05967 0.192698,0.01729 0.405206,0.05079 0.47224,0.07444 0.06703,0.02365 0.238456,0.05741 0.380938,0.07502 0.142481,0.01761 0.346365,0.05834 0.453075,0.09051 0.10671,0.03217 0.274609,0.07062 0.373111,0.08544 0.239688,0.03607 2.21994,0.01876 2.750589,-0.02405 z"
       id="path1166" /></g></svg>
