<?xml version="1.0" encoding="UTF-8" standalone="no"?>
<!-- Created with Inkscape (http://www.inkscape.org/) -->

<svg
   width="75"
   height="100"
   viewBox="0 0 75 100"
   version="1.1"
   id="svg5"
   inkscape:version="1.2.1 (9c6d41e410, 2022-07-14)"
   sodipodi:docname="armor_head_light.svg"
   xml:space="preserve"
   xmlns:inkscape="http://www.inkscape.org/namespaces/inkscape"
   xmlns:sodipodi="http://sodipodi.sourceforge.net/DTD/sodipodi-0.dtd"
   xmlns="http://www.w3.org/2000/svg"
   xmlns:svg="http://www.w3.org/2000/svg"><sodipodi:namedview
     id="namedview7"
     pagecolor="#ffffff"
     bordercolor="#999999"
     borderopacity="1"
     inkscape:pageshadow="0"
     inkscape:pageopacity="0"
     inkscape:pagecheckerboard="0"
     inkscape:document-units="px"
     showgrid="false"
     height="70mm"
     units="px"
     inkscape:zoom="16.75105"
     inkscape:cx="4.8653667"
     inkscape:cy="41.012355"
     inkscape:window-width="3840"
     inkscape:window-height="2066"
     inkscape:window-x="-11"
     inkscape:window-y="-11"
     inkscape:window-maximized="1"
     inkscape:current-layer="layer1"
     inkscape:showpageshadow="2"
     inkscape:deskcolor="#d1d1d1" /><defs
     id="defs2" /><g
     inkscape:label="Layer 1"
     inkscape:groupmode="layer"
     id="layer1"><path
       style="fill:#ffffff;fill-rule:evenodd;stroke-width:0.0844254"
       d="m 30.355339,91.183916 c -0.06722,-0.04253 -0.239255,-0.279392 -0.382299,-0.526366 -0.34925,-0.603 -0.867253,-0.874469 -1.629296,-0.853863 -0.54797,0.01482 -0.926023,0.131734 -2.101131,0.649795 -0.378994,0.167084 -0.769744,0.303789 -0.868331,0.303789 -0.09859,0 -0.272616,0.06118 -0.386728,0.135945 -0.129132,0.08461 -0.287236,0.115927 -0.418695,0.08293 -0.3136,-0.07871 -0.710518,-0.917265 -0.796416,-1.682561 -0.08383,-0.746862 -0.554948,-1.731674 -1.23227,-2.575892 -0.480321,-0.598672 -0.807503,-0.894626 -1.919277,-1.73609 -0.359863,-0.272369 -0.654296,-0.519008 -0.654296,-0.548088 0,-0.02908 -0.31792,-0.420334 -0.706489,-0.869454 -0.388569,-0.44912 -0.882077,-1.075413 -1.096685,-1.391762 -0.83294,-1.22782 -1.784579,-2.343528 -2.284291,-2.678118 -0.611497,-0.409438 -0.845428,-0.857241 -0.841987,-1.611779 0.0042,-0.9227 0.131821,-1.18086 1.009413,-2.042057 0.805027,-0.789988 0.944152,-1.028335 0.840826,-1.440489 -0.123153,-0.491238 -0.958151,-2.052474 -1.663732,-3.110757 -0.688911,-1.033282 -1.029615,-1.634708 -2.004104,-3.537741 -0.213998,-0.417905 -0.493682,-0.911794 -0.621521,-1.09753 -0.269202,-0.39112 -0.584877,-1.208673 -1.352837,-3.503652 -0.302992,-0.905462 -0.721775,-2.102192 -0.930629,-2.6594 -0.5482875,-1.462786 -0.6478593,-2.046887 -0.6478593,-3.800425 0,-1.42349 -0.027837,-1.746027 -0.2986309,-3.460156 C 9.302054,52.812289 9.1861541,52.052461 9.1105185,51.541687 8.9307071,50.327406 8.7336271,49.589675 8.2684294,48.389489 7.5024704,46.413355 7.1741676,45.703558 6.7391437,45.083147 6.4949525,44.734892 6.1782648,44.229242 6.0353934,43.959479 5.8925219,43.689716 5.644498,43.28648 5.4842291,43.063396 5.3239601,42.840314 5.1154736,42.482912 5.0209257,42.269171 4.9263776,42.055429 4.6436303,41.582386 4.3925982,41.217963 4.1415661,40.85354 3.7823638,40.205848 3.5943708,39.778649 3.4063778,39.351448 3.1984059,38.917024 3.132211,38.813263 2.803462,38.297945 2.3135813,36.455949 1.9369337,34.318912 1.7525742,33.272887 1.7196478,32.868902 1.7477057,31.997215 c 0.018683,-0.580425 0.076763,-1.133204 0.1290684,-1.228399 0.052305,-0.0952 0.3732651,-0.338316 0.7132449,-0.540269 0.3399797,-0.201952 0.9509815,-0.598958 1.3577816,-0.882235 0.4068,-0.283277 0.9700119,-0.662245 1.2515818,-0.842152 0.5834815,-0.372811 2.5223907,-2.427068 2.7989712,-2.965486 0.2961845,-0.576581 1.1122191,-1.58017 1.7309198,-2.128749 0.3376476,-0.29938 0.7793206,-0.809717 1.0286046,-1.188516 0.528999,-0.803839 1.602742,-1.757937 2.584028,-2.296096 0.369988,-0.20291 0.938645,-0.563099 1.263683,-0.800421 0.325037,-0.237323 0.761939,-0.54773 0.970891,-0.689795 0.208953,-0.142064 0.702842,-0.479482 1.09753,-0.749818 0.394689,-0.270335 1.054758,-0.636059 1.466819,-0.81272 0.886694,-0.380147 1.924519,-0.933235 2.627812,-1.400441 0.673468,-0.447393 1.22653,-0.718217 1.941783,-0.950854 0.731621,-0.237961 1.202486,-0.466832 1.477444,-0.718135 0.434523,-0.397139 1.809484,-1.333572 2.226677,-1.516504 0.467342,-0.204922 1.67689,-0.557931 3.330198,-0.971927 1.277352,-0.319855 2.854815,-0.410508 4.594149,-0.264015 0.986367,0.08308 1.2427,0.07843 1.714852,-0.03107 0.988738,-0.229304 1.93306,-0.162835 4.323387,0.304313 1.498277,0.292813 4.11957,1.146681 5.2603,1.713506 0.413755,0.205594 0.971188,0.418743 1.238741,0.473664 1.011902,0.207718 2.411462,0.712864 3.880062,1.400439 0.334837,0.156766 0.634617,0.285028 0.666177,0.285028 0.03156,0 0.308756,0.127459 0.615988,0.283242 0.307233,0.155783 0.710571,0.331751 0.896307,0.39104 0.881782,0.281474 2.916636,1.207252 4.127718,1.877949 0.412887,0.228657 1.043809,0.523811 1.402051,0.655899 0.713492,0.263073 2.977953,1.37315 3.714809,1.821063 0.255387,0.155242 0.768271,0.399169 1.139742,0.542061 0.907701,0.34916 1.781406,0.758646 2.147528,1.006498 0.165445,0.112 0.965658,0.545279 1.778252,0.962844 2.448852,1.258379 3.391541,1.914475 4.780163,3.326913 0.625266,0.635989 0.790579,0.858528 0.879681,1.184199 0.06035,0.220569 0.179259,0.491639 0.264251,0.602377 0.224499,0.292505 0.192355,0.47392 -0.151386,0.854401 -0.231196,0.255906 -0.391013,0.35146 -0.654297,0.391201 -0.294562,0.04446 -0.443672,0.151956 -0.965251,0.69584 -0.33928,0.353789 -0.773662,0.852205 -0.965294,1.107592 -0.84784,1.129912 -2.122687,2.69596 -2.227349,2.736123 -0.063,0.02418 -0.249374,0.254718 -0.414156,0.512315 -0.272941,0.426676 -1.235677,1.592754 -1.569921,1.901509 -0.503913,0.465486 -1.74033,2.229269 -1.985973,2.833046 -0.1,0.24579 -0.294852,0.6112 -0.43301,0.812025 -0.391691,0.569354 -0.987591,1.90983 -1.373225,3.089063 -0.193389,0.591367 -0.425199,1.264401 -0.515132,1.495631 -0.08993,0.231229 -0.310814,1.048045 -0.490847,1.815145 -0.471069,2.007173 -0.636795,3.765352 -0.636795,6.755739 0,2.112095 0.02401,2.555715 0.196508,3.63029 0.442082,2.754004 0.493508,3.014951 0.865174,4.39012 0.131772,0.487556 0.279299,1.138805 0.327837,1.447219 0.04854,0.308414 0.180838,0.840294 0.293998,1.181955 0.314039,0.948164 0.692737,2.479084 1.012651,4.093726 0.266966,1.347404 1.531628,3.839591 2.904245,5.723204 0.840617,1.153561 1.810905,3.066411 1.955952,3.85602 0.09236,0.502794 -0.01406,1.239808 -0.334099,2.313669 -0.09687,0.325038 -0.22944,0.855298 -0.294602,1.178356 -0.137102,0.679717 -0.260521,0.805641 -0.78962,0.805641 -0.843732,0 -3.972458,-1.322951 -5.264098,-2.225872 -1.108442,-0.774856 -2.077683,-1.721594 -2.628665,-2.567633 -0.442626,-0.679659 -0.578554,-0.825721 -0.894447,-0.961129 l -0.3725,-0.159672 -0.599801,0.359246 c -0.329891,0.197586 -0.82775,0.525631 -1.106353,0.728989 -0.278604,0.203358 -0.734501,0.484945 -1.013105,0.62575 -0.278603,0.140804 -0.624113,0.345658 -0.767797,0.455231 -0.383251,0.292264 -0.736277,0.249656 -1.173986,-0.141694 -0.09287,-0.08303 -0.339812,-0.244458 -0.548765,-0.358724 -0.208953,-0.114267 -0.607863,-0.333827 -0.886467,-0.487913 -0.278603,-0.154086 -0.857462,-0.561521 -1.286353,-0.905411 -0.875826,-0.702248 -1.59933,-1.022935 -3.300692,-1.463005 -0.526216,-0.136109 -1.191066,-0.34494 -1.477444,-0.464069 -1.34644,-0.560095 -1.935045,-0.713299 -3.137876,-0.816738 -0.662752,-0.05699 -2.053474,-0.08891 -3.165951,-0.07265 l -1.983996,0.02899 -0.590978,0.261517 C 36.22087,73.5288 36.006794,73.572426 35.267703,73.60268 l -0.866354,0.03547 -0.526664,0.573719 c -0.377255,0.410961 -0.614658,0.773481 -0.83684,1.277874 -0.170596,0.387286 -0.447373,1.015835 -0.61506,1.396776 l -0.304884,0.69262 0.09656,1.69563 c 0.137149,2.408262 0.06106,7.650798 -0.125314,8.634143 -0.462537,2.440427 -1.112475,3.668098 -1.733813,3.275008 z M 26.01625,89.481701 c 0.317757,-0.144356 0.840838,-0.353309 1.162399,-0.46434 1.091111,-0.376744 2.431985,-0.205667 3.045011,0.388501 0.433087,0.419765 0.422886,0.431833 0.748926,-0.885863 0.06894,-0.278604 0.167462,-0.810484 0.218946,-1.181955 0.05148,-0.371472 0.136361,-0.931383 0.188612,-1.244247 0.106466,-0.637485 0.04815,-4.229656 -0.113053,-6.964526 -0.110149,-1.868635 -0.136786,-1.739279 0.772221,-3.750093 0.511436,-1.131351 1.181951,-2.068241 1.773675,-2.478307 0.267645,-0.185478 0.392437,-0.210629 1.045077,-0.210629 0.651781,0 0.814099,-0.03261 1.346269,-0.270499 0.602163,-0.269176 0.614846,-0.270887 2.589124,-0.349322 1.421463,-0.05647 2.414872,-0.04995 3.503653,0.02299 1.613468,0.108095 1.971014,0.190956 3.46144,0.802171 0.824458,0.338106 1.119992,0.430003 1.772932,0.551302 0.480946,0.08935 1.792565,0.544408 2.385373,0.827595 0.151107,0.07218 0.542567,0.356689 0.869913,0.632232 0.645107,0.54302 1.41998,1.053171 2.0213,1.330757 0.208953,0.09646 0.521074,0.272843 0.693603,0.391967 l 0.31369,0.216588 0.277288,-0.175184 c 0.152508,-0.09635 0.460368,-0.273542 0.684132,-0.393756 0.223765,-0.120214 0.660666,-0.397395 0.970892,-0.615956 1.549507,-1.091664 1.86208,-1.18862 2.754957,-0.854552 0.513273,0.192041 0.770753,0.459795 1.415268,1.471746 0.207018,0.325038 0.563072,0.739957 0.791232,0.922042 0.22816,0.182085 0.471824,0.396849 0.541475,0.477253 0.365767,0.422236 1.74949,1.330384 2.296438,1.507171 0.171844,0.05554 0.456144,0.198507 0.631778,0.317695 0.330014,0.223954 0.794165,0.406948 1.88403,0.742792 l 0.63319,0.195118 0.100618,-0.188047 c 0.05534,-0.103426 0.220511,-0.659978 0.367045,-1.236782 0.375204,-1.476918 0.344496,-1.716818 -0.414385,-3.237141 -0.326315,-0.653734 -0.718741,-1.35626 -0.872055,-1.561169 -1.655957,-2.213228 -3.051538,-4.957124 -3.36373,-6.613536 -0.232667,-1.234471 -0.569119,-2.588348 -0.888417,-3.574973 -0.151679,-0.468683 -0.301154,-1.038554 -0.332169,-1.26638 -0.03101,-0.227826 -0.146706,-0.756151 -0.257096,-1.174057 -0.415924,-1.574585 -0.719079,-3.029417 -0.804288,-3.859763 -0.04847,-0.472309 -0.144971,-1.088788 -0.214449,-1.369954 -0.171759,-0.695063 -0.255263,-4.621832 -0.127568,-5.998857 0.33973,-3.663559 0.400783,-3.998395 1.185347,-6.500753 0.616074,-1.964965 1.043138,-3.079655 1.497935,-3.909803 0.221045,-0.403476 0.574346,-1.077537 0.785112,-1.497914 0.210767,-0.420376 0.459195,-0.868912 0.552063,-0.996745 0.736262,-1.01347 1.441815,-1.893973 2.005199,-2.502414 0.365462,-0.394689 0.76664,-0.884586 0.891508,-1.088661 0.124868,-0.204074 0.511967,-0.681969 0.860222,-1.061987 0.719033,-0.784616 1.287416,-1.495586 1.899571,-2.376107 0.818403,-1.177189 2.059754,-2.3117 2.529397,-2.3117 0.0715,0 0.130002,-0.03918 0.130002,-0.08708 0,-0.190794 -0.260457,-0.164627 -0.801018,0.08047 -0.816495,0.370217 -1.775823,0.512565 -3.456469,0.512883 -0.786081,1.68e-4 -1.545909,0.035 -1.688508,0.07745 -0.142598,0.04245 -0.373244,0.109644 -0.512546,0.149326 -0.238069,0.06782 -0.255811,0.102468 -0.295489,0.577119 -0.03125,0.373819 -0.0751,0.504971 -0.168851,0.504971 -0.09476,0 -0.132969,-0.12076 -0.151785,-0.479701 l -0.02515,-0.479702 -0.73468,0.04747 c -0.527387,0.03407 -0.94633,0.0054 -1.484802,-0.101516 -0.692413,-0.137522 -0.756064,-0.138368 -0.827343,-0.011 -0.103631,0.185179 -0.276088,0.174136 -0.41734,-0.02672 -0.107951,-0.153505 -0.23355,-0.165509 -1.846549,-0.176478 -0.951896,-0.0065 -1.762312,-0.0083 -1.800925,-0.0041 -0.03861,0.0042 0.0054,0.131098 0.09769,0.282008 0.09234,0.150911 0.180922,0.46434 0.196843,0.696509 0.02575,0.375492 0.01029,0.422127 -0.139904,0.422127 -0.132739,0 -0.179078,-0.07222 -0.216672,-0.337701 -0.0263,-0.185736 -0.151929,-0.540148 -0.279174,-0.787582 l -0.231351,-0.449881 -2.478834,0.02775 c -1.363358,0.01526 -2.507387,0.05636 -2.542286,0.09132 -0.07879,0.07893 0.264974,0.827882 0.580195,1.264054 0.233227,0.322715 0.240223,0.487527 0.0207,0.487527 -0.181314,0 -0.510008,-0.447355 -0.840905,-1.144477 l -0.305747,-0.644141 -0.820954,0.04037 c -0.722176,0.03551 -2.152575,0.281933 -2.57278,0.443223 -0.221635,0.08507 -0.18324,0.22447 0.211555,0.768078 0.626617,0.862814 0.836354,1.223728 0.786555,1.353502 -0.08683,0.226289 -0.249747,0.07338 -0.892578,-0.837782 -0.348255,-0.493623 -0.685579,-0.919419 -0.749609,-0.946215 -0.06403,-0.0268 -0.234991,-0.01033 -0.379914,0.03659 -0.144923,0.04692 -0.567427,0.179334 -0.938899,0.294251 -0.881303,0.272637 -1.357272,0.444927 -1.656188,0.599503 l -0.242863,0.125588 0.632931,0.947188 c 0.58964,0.882404 0.740667,1.251679 0.558071,1.364531 -0.09389,0.05802 -0.226667,-0.09942 -0.600544,-0.712069 -0.471671,-0.772901 -0.878144,-1.342383 -0.989844,-1.386802 -0.150026,-0.05966 -1.171465,0.232974 -1.711768,0.490411 -0.981583,0.467693 -1.461426,0.791145 -1.402289,0.945254 0.05897,0.153674 -0.02395,0.373629 -0.140859,0.373629 -0.04942,0 -0.158615,-0.06223 -0.24266,-0.138289 -0.131174,-0.118712 -0.172748,-0.121742 -0.293648,-0.0214 -0.177638,0.147426 -1.315177,0.775628 -2.521727,1.392614 -0.510773,0.261191 -0.947431,0.492467 -0.970352,0.513947 -0.06522,0.06112 0.479083,0.486586 1.286948,1.005957 0.499231,0.320953 0.738722,0.526487 0.738722,0.63398 0,0.338321 -0.272775,0.196471 -2.056534,-1.069452 -0.225632,-0.160127 -0.488454,-0.291141 -0.58405,-0.291141 -0.27928,0 -2.428471,1.001933 -2.822289,1.315726 -0.270374,0.215433 -0.22992,0.29037 0.360727,0.668202 0.448591,0.28696 0.575638,0.509278 0.342222,0.598848 -0.06409,0.02459 -0.399915,-0.147559 -0.746277,-0.382563 -0.346363,-0.235004 -0.706743,-0.427281 -0.800847,-0.427281 -0.0941,0 -0.527606,0.165901 -0.963337,0.368669 -0.435731,0.202768 -1.049653,0.486163 -1.364271,0.629766 l -0.572032,0.261097 0.02327,1.333124 0.02327,1.333124 h 0.251442 c 0.381407,0 0.390264,0.265271 0.01411,0.422441 -0.162918,0.06807 -0.316433,0.156482 -0.341146,0.196469 -0.04791,0.07753 -0.383778,2.016186 -0.562423,3.24639 -0.08539,0.587997 -0.08612,0.762827 -0.0035,0.844254 0.119061,0.117389 0.213967,0.01639 0.577807,-0.614924 0.298613,-0.518135 0.443123,-0.675403 0.620613,-0.675403 0.209116,0 0.297227,0.17523 0.144408,0.28719 -0.06961,0.051 -0.195141,0.225435 -0.278958,0.387637 -0.08382,0.162201 -0.361123,0.556512 -0.616232,0.876244 -0.441529,0.553374 -0.467086,0.612274 -0.531429,1.224744 -0.03718,0.353877 -0.06964,0.846207 -0.07215,1.094067 l -0.0046,0.450654 0.358808,-0.05902 c 0.197345,-0.03246 0.517719,-0.130565 0.711945,-0.218011 0.3659,-0.164738 0.617755,-0.141423 0.617755,0.05719 0,0.15775 -0.269581,0.290171 -1.013105,0.497649 -0.594487,0.16589 -0.634616,0.192019 -0.656512,0.427467 -0.01283,0.137927 -0.09491,0.535713 -0.182399,0.883967 -0.225692,0.89835 -0.275372,1.246061 -0.185932,1.301339 0.04283,0.02647 0.419551,-0.103539 0.837162,-0.288905 0.760796,-0.337697 0.987082,-0.389801 1.174736,-0.270492 0.155414,0.09881 0.355601,0.531868 0.305825,0.661581 -0.07119,0.185518 -0.275008,0.134543 -0.379562,-0.09493 -0.125279,-0.274957 -0.232124,-0.266862 -0.948309,0.07185 -0.329009,0.155601 -0.738683,0.328853 -0.910384,0.385007 -0.279318,0.09135 -0.317613,0.139338 -0.363726,0.455813 -0.02835,0.194543 -0.03983,0.714633 -0.02552,1.155756 0.02227,0.686207 0.0463,0.800525 0.16639,0.791545 0.0772,-0.0058 0.428572,-0.0375 0.780824,-0.07051 0.552716,-0.05179 0.647792,-0.0409 0.693992,0.07949 0.08672,0.225989 -0.05305,0.284124 -0.855354,0.355782 l -0.759828,0.06786 -0.07103,1.204391 c -0.07072,1.199113 -0.07016,1.205135 0.126638,1.37422 l 0.197667,0.169831 -0.189957,0.134627 c -0.182861,0.129598 -0.189957,0.182918 -0.189957,1.427426 0,0.71104 0.03838,1.393745 0.08529,1.517123 0.08067,0.212188 0.109219,0.221974 0.527659,0.18091 0.243305,-0.02388 0.558507,-0.0686 0.700449,-0.09938 0.29909,-0.06486 0.547499,0.12414 0.355047,0.270133 -0.128101,0.09718 -0.648551,0.244018 -1.140341,0.321741 -0.197101,0.03115 -0.378644,0.08945 -0.40343,0.129551 -0.06112,0.09889 0.215748,1.616607 0.318827,1.747749 0.06444,0.08199 0.133792,0.07419 0.320389,-0.03604 0.20147,-0.119011 0.259288,-0.123128 0.375434,-0.02673 0.123482,0.102481 0.102841,0.145431 -0.205218,0.427024 l -0.342509,0.313084 0.180782,0.411056 c 0.09943,0.22608 0.386626,0.724484 0.638212,1.107564 0.36047,0.54887 0.499985,0.69651 0.658181,0.69651 0.249081,0 0.342886,0.136234 0.206749,0.300268 -0.08376,0.100925 -0.04663,0.208811 0.199377,0.579327 0.166268,0.250417 0.403586,0.69633 0.527372,0.990916 0.288929,0.687596 0.707698,1.493601 0.808328,1.555794 0.04306,0.02662 0.299685,-0.156573 0.570268,-0.407086 0.560076,-0.518532 1.125436,-0.760187 2.710868,-1.158725 0.533991,-0.134231 1.084866,-0.288818 1.224168,-0.343527 0.343503,-0.134904 1.598392,-0.404654 2.574974,-0.553514 0.441122,-0.06724 1.029989,-0.161289 1.308593,-0.208996 0.278604,-0.04771 0.905462,-0.115527 1.393018,-0.150711 0.902995,-0.06516 1.187306,-0.159872 2.026209,-0.674961 0.551982,-0.338917 1.622701,-0.238175 3.165952,0.29788 0.464339,0.16129 1.216919,0.366405 1.672399,0.455811 0.616927,0.121095 0.902232,0.221669 1.118633,0.394335 0.159768,0.12748 0.290489,0.254897 0.290491,0.283148 4e-6,0.07903 0.84265,0.62039 1.416711,0.910175 0.282774,0.142744 0.830026,0.525322 1.216114,0.850172 0.386089,0.324851 0.861809,0.666895 1.057155,0.760099 0.929506,0.44349 1.797668,1.105 1.797668,1.369763 0,0.165871 -0.288572,0.216424 -0.381072,0.06676 -0.102356,-0.165616 -0.932159,-0.731496 -1.536625,-1.047892 -0.335007,-0.175354 -0.883324,-0.560141 -1.218481,-0.855084 -0.335157,-0.294943 -0.934863,-0.709393 -1.33268,-0.921 -0.397816,-0.211607 -0.936165,-0.566758 -1.19633,-0.789224 -0.444309,-0.379928 -0.541696,-0.421303 -1.604082,-0.681495 -0.62208,-0.152355 -1.302015,-0.352013 -1.510968,-0.443685 -0.863872,-0.379 -2.363091,-0.531499 -2.786037,-0.283394 -0.923849,0.541942 -1.29903,0.660763 -2.291545,0.725742 -0.540623,0.03539 -1.39543,0.140426 -1.899571,0.233406 -0.50414,0.09298 -1.296533,0.233336 -1.760873,0.311906 -0.464339,0.07857 -1.053206,0.212718 -1.308593,0.298108 -0.255387,0.08539 -0.910451,0.270769 -1.455698,0.411952 -1.588132,0.411219 -2.051909,0.627585 -2.655819,1.23902 -0.376764,0.381459 -0.550399,0.63151 -0.619649,0.892355 -0.07836,0.295153 -0.265143,0.526872 -1.006683,1.248859 -0.537841,0.52366 -1.077337,1.145614 -1.318179,1.519657 -0.224239,0.348255 -0.713418,1.007329 -1.087065,1.46461 -0.738058,0.903259 -0.952702,1.184209 -1.493317,1.954617 -0.567845,0.809215 -1.320996,1.706482 -1.597889,1.903648 -0.316929,0.225673 -0.565721,0.146072 -1.02612,-0.328307 -0.288436,-0.297195 -0.69967,-0.509546 -2.560086,-1.321968 -0.234288,-0.102311 -0.566891,-0.309743 -0.739116,-0.460958 -0.442932,-0.3889 -1.38332,-0.668532 -2.472313,-0.735162 -0.617291,-0.03777 -0.879349,-0.02605 -0.879349,0.03933 0,0.05123 0.05699,0.311924 0.126638,0.579332 0.06965,0.267409 0.126639,0.825151 0.126639,1.239428 0,0.89356 0.06079,1.017794 0.89365,1.826408 0.526794,0.511456 1.30058,1.477405 1.565075,1.953748 0.06394,0.115146 0.242314,0.378477 0.396394,0.585178 0.54846,0.735766 1.711809,2.573407 1.760856,2.781468 0.02743,0.116346 0.234774,0.520746 0.46077,0.898667 0.225998,0.37792 0.410903,0.740738 0.410903,0.806263 0,0.06552 0.03564,0.155226 0.0792,0.199338 0.159704,0.161724 0.858612,2.20827 0.950009,2.781816 0.06954,0.436405 0.147228,0.640662 0.297017,0.780935 0.266454,0.249525 0.404413,0.240373 1.093132,-0.07251 z m -3.518304,-4.94887 c -0.246303,-0.500227 -0.594123,-1.118456 -0.772935,-1.373843 -0.178812,-0.255387 -0.689629,-1.015215 -1.13515,-1.688507 -0.808253,-1.22147 -1.222024,-1.739507 -2.090424,-2.617187 -0.72706,-0.734831 -0.764212,-0.824087 -0.812322,-1.951648 -0.02322,-0.544127 -0.06871,-1.01579 -0.101106,-1.048138 -0.09336,-0.09324 -1.406779,1.156041 -1.501721,1.428393 -0.04712,0.135181 -0.08568,0.412803 -0.08568,0.616937 0,0.391645 0.03181,0.435187 0.727957,0.996412 0.301796,0.243305 1.841605,2.103055 2.129531,2.572005 0.155536,0.253326 0.745468,1.003036 1.446218,1.837916 0.254293,0.302968 0.729186,0.754909 1.055317,1.004315 0.326131,0.249405 0.796548,0.626657 1.045371,0.838337 0.248823,0.21168 0.472736,0.364541 0.497586,0.339693 0.02485,-0.02485 -0.15634,-0.454458 -0.402642,-0.954685 z m 3.086921,-7.214014 c 0.284397,-0.249704 0.616312,-0.679072 1.279678,-1.655404 0.148805,-0.219008 0.459879,-0.626146 0.691277,-0.904749 0.231398,-0.278604 0.59465,-0.715505 0.807227,-0.970892 0.212577,-0.255387 0.638112,-0.844254 0.945634,-1.308593 0.340676,-0.514401 0.87043,-1.152 1.355896,-1.631926 0.529739,-0.523694 0.780381,-0.830368 0.747877,-0.915072 -0.02689,-0.07007 0.02786,-0.224974 0.121669,-0.34423 0.202552,-0.257502 0.197086,-0.279909 -0.350672,-1.437629 -0.225723,-0.477078 -0.410406,-0.900218 -0.410406,-0.940311 0,-0.06789 -0.529193,-0.88632 -0.680897,-1.05305 -0.07135,-0.07842 -0.610856,0.303796 -1.057121,0.748918 -0.284286,0.283559 -0.868694,0.50981 -0.993771,0.384733 -0.127517,-0.127517 0.0065,-0.329124 0.300886,-0.452541 0.152931,-0.06412 0.484738,-0.293269 0.737349,-0.50922 0.252612,-0.215951 0.485993,-0.392638 0.518626,-0.392638 0.03263,0 0.0826,-0.06063 0.111037,-0.13474 0.03195,-0.08326 -0.173634,-0.510674 -0.53805,-1.118636 -0.324365,-0.541143 -0.619726,-1.035464 -0.656359,-1.09849 -0.05564,-0.09573 -0.139618,-0.09291 -0.510184,0.01713 -0.641305,0.190447 -1.41681,0.266182 -1.49131,0.145639 -0.106858,-0.172901 0.114341,-0.320808 0.567657,-0.379569 0.575745,-0.07463 1.055146,-0.218424 1.163504,-0.348988 0.05973,-0.07197 0.04841,-0.270479 -0.03655,-0.640633 -0.0677,-0.294992 -0.167282,-0.7569 -0.221289,-1.026465 l -0.0982,-0.490117 -0.562771,0.02578 c -0.521325,0.02388 -0.564679,0.01239 -0.588684,-0.156046 -0.0277,-0.194345 0.181463,-0.293573 0.859737,-0.407874 l 0.327271,-0.05515 -0.05289,-0.385869 c -0.02909,-0.212228 -0.05289,-0.897763 -0.05289,-1.52341 v -1.137542 l -0.274383,0.05784 c -0.15091,0.03181 -0.454841,0.07778 -0.675402,0.102155 -0.351586,0.03886 -0.401021,0.02481 -0.401021,-0.11398 0,-0.125056 0.122875,-0.189953 0.585115,-0.309029 0.321814,-0.0829 0.623671,-0.197187 0.670797,-0.253969 0.04712,-0.05678 0.112304,-0.641104 0.144842,-1.298495 l 0.05916,-1.195255 -0.205595,-0.0516 c -0.113077,-0.02838 -0.29909,-0.01696 -0.413362,0.02538 -0.247704,0.09178 -0.418832,0.04607 -0.418832,-0.111888 0,-0.163435 0.156246,-0.240436 0.590977,-0.291245 l 0.379915,-0.0444 0.0237,-1.034211 c 0.01304,-0.568816 -0.0081,-1.034211 -0.04693,-1.034211 -0.03885,0 -0.309029,0.08051 -0.600404,0.178908 -0.370609,0.125156 -0.556455,0.152226 -0.618581,0.0901 -0.174245,-0.174245 0.0084,-0.320682 0.651541,-0.522382 0.406,-0.127327 0.693475,-0.269615 0.760974,-0.376649 0.101683,-0.161243 0.380149,-1.2142 0.508613,-1.923208 0.09995,-0.551638 0.05152,-0.571804 -0.734527,-0.305834 -0.854128,0.289005 -1.168562,0.310187 -1.168562,0.07872 0,-0.173087 0.0562,-0.200297 0.709632,-0.343593 0.227779,-0.04995 0.598195,-0.169997 0.823147,-0.266769 l 0.409004,-0.175949 0.0017,-0.517262 c 9.37e-4,-0.284494 0.03722,-0.763094 0.08065,-1.063554 0.06639,-0.459383 0.05732,-0.570191 -0.057,-0.696509 -0.121928,-0.134729 -0.122696,-0.165451 -0.0075,-0.297962 0.09144,-0.105136 0.144774,-0.439918 0.184951,-1.160849 0.03105,-0.557207 0.145634,-1.506993 0.254623,-2.110634 0.10899,-0.603641 0.167424,-1.130818 0.129854,-1.171503 -0.03837,-0.04155 -0.27054,0.0098 -0.529772,0.117292 -0.481409,0.199533 -1.201712,0.821258 -1.462031,1.261942 -0.148665,0.251672 -0.392867,0.337583 -0.494079,0.17382 -0.05944,-0.09617 0.562118,-0.955829 0.915919,-1.266795 0.13284,-0.116758 0.588737,-0.383247 1.013104,-0.5922 l 0.771577,-0.379914 0.0236,-1.177889 c 0.01298,-0.64784 0.0051,-1.226062 -0.01748,-1.284938 -0.05495,-0.14321 -0.310026,-0.02989 -1.23182,0.547281 -0.393847,0.246601 -0.773072,0.481922 -0.842723,0.522937 -0.292415,0.172192 -2.774552,1.271871 -3.123739,1.383932 -1.027379,0.329707 -3.465872,1.234867 -4.172025,1.548643 -0.987791,0.438919 -1.90942,0.966993 -2.003539,1.147985 -0.0522,0.100381 -0.260697,0.378528 -0.463325,0.618103 -0.339608,0.401531 -0.368416,0.472711 -0.368416,0.910285 0,0.261081 -0.05685,0.610754 -0.126334,0.777052 -0.302138,0.723117 -0.46457,1.947274 -0.467277,3.521588 -0.0015,0.842402 -0.05764,1.987537 -0.124872,2.544744 -0.155028,1.284866 -0.16587,5.511264 -0.01527,5.951989 l 0.100972,0.295488 0.675196,-0.0014 c 0.37136,-7.6e-4 0.844966,-0.01978 1.052459,-0.04221 0.306293,-0.03311 0.382688,-0.01406 0.406114,0.101269 0.04694,0.231085 -0.275566,0.331034 -1.123808,0.348284 -0.873445,0.01776 -0.901148,0.03873 -0.662024,0.501149 0.07551,0.146014 0.279546,0.837471 0.453418,1.53657 l 0.316133,1.27109 0.285304,-0.02249 c 0.156917,-0.01237 0.525124,-0.06461 0.818239,-0.116086 0.431113,-0.07571 0.56722,-0.139971 0.712385,-0.336317 0.178543,-0.241492 0.429104,-0.317686 0.526495,-0.160105 0.06364,0.102977 -0.261552,0.551863 -0.524716,0.724295 -0.108132,0.07085 -0.49945,0.172959 -0.869595,0.226908 -0.538713,0.07852 -0.672993,0.126732 -0.672993,0.24164 0,0.131757 0.498939,1.086511 0.685237,1.31125 0.04384,0.05289 0.18805,0.393317 0.320462,0.756506 0.132411,0.36319 0.278575,0.672954 0.324807,0.688364 0.04623,0.01541 0.295205,-0.205305 0.553273,-0.490479 0.258068,-0.285175 0.509662,-0.493501 0.559099,-0.462948 0.198236,0.122517 0.06423,0.407398 -0.447625,0.951577 l -0.537508,0.571453 0.324844,0.802041 c 0.178665,0.441123 0.325565,0.869718 0.326444,0.952435 0.0029,0.276673 0.265569,0.275269 0.513977,-0.0028 0.342306,-0.383107 0.528346,-0.463132 0.721236,-0.310238 0.156119,0.123747 0.156063,0.128467 -0.0028,0.228898 -0.356975,0.225736 -0.813587,0.683489 -0.857899,0.860044 -0.02768,0.110297 0.07166,0.495682 0.242039,0.93896 0.158946,0.413532 0.312352,0.818362 0.340902,0.899622 0.06372,0.181372 0.237106,0.185506 0.797732,0.01902 0.351988,-0.104529 0.516421,-0.224098 0.874764,-0.636093 0.389467,-0.447781 0.455959,-0.492704 0.566153,-0.382511 0.110195,0.110195 0.108097,0.147719 -0.01787,0.3195 -0.0785,0.107052 -0.218443,0.313347 -0.310987,0.458432 -0.169603,0.265895 -0.91228,0.663905 -1.346036,0.721357 -0.298931,0.0396 -0.311839,0.353592 -0.04342,1.056277 0.317806,0.831974 0.523325,1.202018 0.905884,1.631078 l 0.33874,0.379914 0.416948,-0.464339 c 0.413819,-0.460843 1.421165,-1.907569 1.421165,-2.04103 0,-0.03828 0.07598,-0.0696 0.168851,-0.0696 0.0974,0 0.16885,0.05628 0.16885,0.133015 0,0.246136 -0.692156,1.320877 -1.369531,2.12653 l -0.672159,0.799447 0.297537,0.567984 c 0.163646,0.31239 0.509052,0.92423 0.76757,1.359643 0.288792,0.486404 0.470031,0.888886 0.470031,1.043806 0,0.176876 0.09332,0.347718 0.312623,0.572301 0.171942,0.176085 0.360577,0.320155 0.419189,0.320155 0.05861,0 0.243972,-0.120643 0.411911,-0.268097 z M 17.555242,42.614166 c 0.182857,-0.09231 0.583146,-0.426594 0.889531,-0.74286 0.509915,-0.526358 0.937124,-0.778019 1.07933,-0.635813 0.0309,0.03091 0.01014,0.129931 -0.04614,0.220057 -0.05628,0.09013 -0.102336,0.183377 -0.102336,0.207224 0,0.09432 0.276959,0.03471 0.596803,-0.128465 0.366445,-0.186946 1.725913,-0.706988 2.864637,-1.095819 0.394689,-0.134771 0.945564,-0.323351 1.224168,-0.419066 0.278604,-0.09572 0.696509,-0.265337 0.928679,-0.376936 0.23217,-0.111598 0.859028,-0.411297 1.393019,-0.665998 0.53399,-0.2547 1.217836,-0.624396 1.519656,-0.821547 0.301821,-0.19715 0.710229,-0.430349 0.907573,-0.518218 0.223811,-0.09965 0.357321,-0.213863 0.354857,-0.303556 -0.0089,-0.322103 -0.403028,-1.32525 -0.514407,-1.309122 -0.317463,0.04597 -0.764387,0.194163 -1.310938,0.434686 -0.332821,0.146466 -0.642436,0.266302 -0.688032,0.266302 -0.0456,0 -0.285151,0.151966 -0.532343,0.337702 -0.517675,0.388974 -0.665045,0.418986 -0.665045,0.135439 0,-0.148917 0.105766,-0.270092 0.40102,-0.45944 0.439343,-0.281754 1.382659,-0.695817 2.173953,-0.954247 0.278604,-0.09099 0.538246,-0.197126 0.576982,-0.23586 0.123496,-0.123488 -0.201106,-1.044499 -0.537545,-1.525206 -0.178741,-0.255386 -0.469689,-0.682001 -0.64655,-0.948032 -0.176861,-0.266032 -0.359557,-0.483521 -0.405991,-0.483309 -0.04643,1.69e-4 -0.293378,0.152396 -0.548765,0.338188 -0.255387,0.185793 -0.627568,0.441273 -0.827068,0.567735 -0.199501,0.126461 -0.628471,0.44838 -0.953267,0.715376 -0.623672,0.512683 -0.836851,0.593386 -0.836851,0.316805 0,-0.168197 1.092954,-1.10516 1.585488,-1.359201 0.316946,-0.163476 1.369931,-0.929258 1.367051,-0.994187 -0.0055,-0.125107 -0.517173,-0.696597 -1.249086,-1.395245 -0.770043,-0.735045 -0.790469,-0.747849 -0.942772,-0.590978 -0.08562,0.08819 -0.225318,0.277603 -0.310435,0.420918 -0.451854,0.760808 -1.411295,2.139906 -1.51694,2.180445 -0.137411,0.05273 -0.245084,-0.148923 -0.165139,-0.309277 0.0657,-0.131779 0.353806,-0.572078 1.086549,-1.660513 0.314783,-0.467587 0.592014,-0.901447 0.616069,-0.964135 0.02654,-0.06915 -0.148747,-0.258968 -0.445693,-0.482644 -0.269188,-0.202766 -0.839729,-0.707069 -1.267868,-1.120674 -0.465568,-0.44976 -0.825358,-0.734002 -0.895179,-0.707209 -0.130612,0.05012 -0.597036,0.954671 -0.85787,1.663691 -0.205703,0.559158 -0.428766,0.636911 -0.413451,0.144115 0.0063,-0.203043 0.18395,-0.673921 0.485446,-1.286787 0.261521,-0.531608 0.475494,-1.004316 0.475494,-1.050461 0,-0.125456 -2.238466,-2.365836 -2.363815,-2.365836 -0.153407,0 -0.285663,0.191773 -0.727796,1.055317 -0.213966,0.417905 -0.475194,0.911794 -0.580506,1.097529 -0.105312,0.185736 -0.214638,0.437987 -0.242947,0.56056 -0.05599,0.242442 -0.285617,0.380265 -0.41612,0.249762 -0.113931,-0.113931 0.08309,-0.578092 0.876083,-2.064011 0.367985,-0.689529 0.669064,-1.263156 0.669064,-1.274725 0,-0.07725 -1.979161,-1.819492 -2.066915,-1.819492 -0.138592,0 -0.381421,0.595857 -0.381421,0.935938 0,0.378486 -0.14817,0.621557 -0.301377,0.494407 -0.171323,-0.142186 -0.149522,-0.675696 0.0481,-1.177069 0.231993,-0.588572 0.215056,-0.680608 -0.178679,-0.970892 -0.445806,-0.328674 -1.003276,-0.933558 -1.003276,-1.088607 0,-0.285741 0.252255,-0.158019 0.874804,0.442931 l 0.66374,0.640714 0.180513,-0.223591 c 0.09928,-0.122974 0.308423,-0.397296 0.464756,-0.609602 0.162827,-0.221126 0.352157,-0.386012 0.443233,-0.386012 0.228734,0 0.199987,0.269754 -0.05419,0.508544 -0.117252,0.110152 -0.307357,0.368769 -0.422455,0.574703 l -0.209272,0.374427 0.397891,0.347586 c 0.218841,0.191172 0.655881,0.593015 0.971202,0.892984 0.31532,0.29997 0.625263,0.574473 0.688761,0.610008 0.153634,0.08598 0.355067,-0.145531 0.49303,-0.566646 0.06307,-0.192498 0.163726,-0.335483 0.236179,-0.335483 0.170092,0 0.143359,0.646619 -0.0374,0.904694 -0.214716,0.306549 -0.157146,0.456757 0.338991,0.884479 0.258944,0.223238 0.739908,0.709817 1.068809,1.081289 0.367906,0.415525 0.68083,0.691737 0.813267,0.717854 0.159839,0.03152 0.229344,0.111285 0.269942,0.309788 0.09527,0.465824 2.353485,2.560707 2.6413,2.450262 0.06397,-0.02455 0.1686,-0.221711 0.232503,-0.438138 0.12629,-0.42772 0.266825,-0.597437 0.417564,-0.504275 0.11289,0.06977 0.06898,0.355455 -0.135825,0.883736 l -0.147287,0.379915 1.098818,1.118636 c 0.60435,0.61525 1.124493,1.118636 1.155871,1.118636 0.03138,0 0.165876,-0.08046 0.298883,-0.178794 0.411526,-0.304253 0.594918,-0.0086 0.215672,0.347645 -0.116085,0.109056 -0.211064,0.256465 -0.211064,0.327577 0,0.07111 0.288755,0.557431 0.641676,1.08071 0.381233,0.565256 0.702674,1.149302 0.791963,1.438966 0.12821,0.415926 0.182774,0.491473 0.371429,0.514263 0.26556,0.03208 0.289593,0.2262 0.04426,0.357499 -0.145488,0.07786 -0.167406,0.145177 -0.123491,0.379266 0.05251,0.279919 0.363278,1.051666 0.423482,1.051666 0.149111,0 2.641467,-1.163352 2.701923,-1.261171 0.02088,-0.03379 -0.06326,-0.210242 -0.186984,-0.392127 -0.278973,-0.410119 -0.696263,-1.420148 -0.696263,-1.685269 0,-0.236079 0.117966,-0.330506 0.231444,-0.185262 0.04495,0.05753 0.190439,0.38568 0.323311,0.729219 0.299123,0.773386 0.649671,1.274953 0.891068,1.274953 0.09811,0 0.392306,-0.127926 0.653767,-0.28428 0.593517,-0.354924 1.931357,-1.019682 2.184997,-1.0857 0.289692,-0.0754 0.232909,-0.183957 -0.281572,-0.538295 -0.483057,-0.332694 -0.673078,-0.564437 -0.58271,-0.710656 0.09197,-0.148806 0.215395,-0.08927 0.878714,0.423872 0.360143,0.278604 0.694184,0.506552 0.742314,0.506552 0.285385,0 3.746338,-1.837443 3.807702,-2.021534 0.07675,-0.230259 -0.663406,-0.760112 -1.531766,-1.096535 -0.290631,-0.112598 -0.255855,-0.2911 0.06404,-0.328711 0.288539,-0.03392 1.267265,0.449753 1.496172,0.739394 0.349909,0.442744 0.432131,0.453967 0.971382,0.132585 0.725037,-0.432105 1.662515,-0.868688 2.002163,-0.932407 0.163563,-0.03068 0.364175,-0.104627 0.445804,-0.164315 0.137527,-0.100563 0.117717,-0.159535 -0.269962,-0.80368 -0.230108,-0.382335 -0.560846,-0.857855 -0.734973,-1.056713 -0.340816,-0.389218 -0.405624,-0.631332 -0.168851,-0.630811 0.186274,4.22e-4 0.672452,0.59611 1.230935,1.508232 0.237926,0.388583 0.48462,0.726479 0.548208,0.75088 0.06359,0.0244 0.311404,-0.03631 0.550702,-0.134918 0.239297,-0.09861 0.909979,-0.334475 1.490403,-0.524151 0.580424,-0.189678 1.091028,-0.380031 1.134676,-0.423008 0.0494,-0.04864 0.02441,-0.19336 -0.06619,-0.383356 -0.149801,-0.314134 -0.116973,-0.659178 0.05731,-0.602404 0.0541,0.01762 0.185392,0.2137 0.291754,0.435725 0.144119,0.300838 0.230151,0.392491 0.337702,0.35976 0.07937,-0.02416 0.258289,-0.08194 0.397591,-0.1284 0.473617,-0.157974 1.770894,-0.385638 2.36391,-0.414854 0.831742,-0.04098 0.815678,-0.02755 0.62699,-0.524133 -0.212697,-0.559773 -0.213701,-0.848377 -0.003,-0.848377 0.100618,0 0.179616,0.07936 0.213535,0.214502 0.02961,0.117977 0.12833,0.413604 0.219378,0.65695 l 0.16554,0.442448 2.470281,-0.03301 c 1.358654,-0.01816 2.483393,-0.04513 2.499419,-0.05993 0.01603,-0.01481 -0.309966,-0.362068 -0.724431,-0.771685 -0.805603,-0.796182 -1.166913,-1.382802 -1.020862,-1.657463 0.11513,-0.21651 0.264732,-0.13482 0.359734,0.196432 0.0751,0.26184 1.711229,2.100349 2.06494,2.320353 0.07465,0.04643 0.886064,0.09736 1.803135,0.113167 1.775556,0.0306 1.845314,0.01396 1.512874,-0.361002 -0.184443,-0.208032 -1.196279,-1.888802 -1.196279,-1.987147 0,-0.09788 0.210779,-0.165862 0.310071,-0.100011 0.04603,0.03053 0.306178,0.435423 0.578102,0.899762 0.901321,1.5391 0.972814,1.594558 2.351319,1.823938 0.566065,0.09419 1.71074,0.07243 1.885953,-0.03586 0.05558,-0.03435 0.06379,-0.186245 0.02241,-0.414592 -0.118535,-0.65409 -0.134506,-2.029214 -0.02401,-2.067241 0.131734,-0.04534 0.242935,0.403795 0.358967,1.449829 0.08894,0.801816 0.185347,1.031539 0.380722,0.907223 0.04865,-0.03096 0.886276,-0.0821 1.861389,-0.113649 1.965472,-0.06359 2.992521,-0.215644 3.623493,-0.536444 0.228431,-0.116138 0.465877,-0.211161 0.527659,-0.211161 0.254366,0 0.07432,-0.28274 -0.58418,-0.917399 -0.771855,-0.743906 -1.533724,-1.359836 -2.148835,-1.737219 -0.730434,-0.448134 -2.108721,-1.208991 -2.30013,-1.269741 -0.103125,-0.03273 -0.516736,-0.251856 -0.919134,-0.486943 -1.198006,-0.699894 -1.889601,-1.076347 -1.977395,-1.076347 -0.152344,0 -2.042384,-0.852734 -2.426742,-1.09488 -0.541997,-0.341456 -2.437705,-1.300501 -2.87829,-1.456134 -0.888197,-0.313749 -1.313448,-0.501568 -1.838673,-0.812081 -0.772224,-0.456538 -2.214602,-1.134066 -3.472298,-1.631042 -1.022363,-0.403984 -1.4109,-0.572475 -3.29259,-1.427845 -1.121238,-0.509687 -1.901027,-0.78486 -2.982289,-1.052392 -0.481742,-0.119196 -1.281427,-0.410083 -1.828518,-0.665128 -0.534781,-0.249306 -1.067309,-0.478666 -1.183394,-0.509689 -0.116085,-0.03102 -0.344033,-0.108247 -0.506552,-0.17161 -1.296227,-0.505373 -2.822166,-0.900664 -4.263481,-1.104443 -2.11557,-0.299108 -2.205746,-0.305733 -2.58801,-0.190121 -0.269635,0.08155 -1.071766,0.110959 -3.026277,0.110959 -2.883372,0 -2.858807,-0.0029 -4.727821,0.551386 -0.441122,0.130814 -0.927426,0.26316 -1.080674,0.294103 -0.743944,0.150214 -1.464935,0.539631 -2.579477,1.393211 -1.012777,0.775643 -1.240672,0.912066 -1.815048,1.086528 -0.826688,0.251098 -1.568009,0.598967 -2.207509,1.035885 -0.664127,0.453742 -2.163566,1.251126 -2.743825,1.459132 -0.426819,0.153003 -2.227307,1.301514 -3.081526,1.965672 -0.255386,0.198563 -0.505941,0.361049 -0.556786,0.361078 -0.05085,2.9e-5 -0.16482,0.08023 -0.253276,0.178218 -0.08846,0.09799 -0.407806,0.302654 -0.709666,0.454808 -0.748816,0.377443 -1.814665,1.318017 -2.295931,2.026076 -0.218038,0.320787 -0.768913,0.947846 -1.224168,1.393467 -0.4552547,0.44562 -0.9702035,1.026806 -1.1443309,1.291526 -0.1741273,0.264719 -0.4590629,0.698037 -0.6331902,0.962927 -0.1741274,0.264891 -0.5445437,0.71269 -0.8231474,0.995109 -0.2786037,0.282419 -0.6217845,0.64506 -0.7626239,0.805868 -0.4461733,0.509433 -1.1574101,1.101944 -1.5794902,1.315828 -0.22437,0.113697 -0.6629845,0.395648 -0.9746991,0.626557 -0.3117146,0.230909 -0.8136979,0.583458 -1.1155186,0.783442 l -0.5487649,0.363608 -0.025144,0.474048 -0.025144,0.474049 0.5059573,0.343589 c 0.2782765,0.188974 0.5460332,0.343589 0.5950151,0.343589 0.057488,0 0.089058,-0.357366 0.089058,-1.008122 0,-0.994822 0.066078,-1.239055 0.2779169,-1.027216 0.055155,0.05515 0.1088401,0.529484 0.129223,1.14174 l 0.034869,1.047387 0.3066539,0.05551 c 0.1686598,0.03053 0.6015217,0.206209 0.9619153,0.390403 L 6.2071939,33.944915 6.2788333,33.752 c 0.039402,-0.106104 0.097692,-0.522328 0.1295341,-0.924941 0.098206,-1.241719 0.5222892,-2.412079 0.780471,-2.153898 0.034646,0.03465 0.016788,0.223261 -0.039686,0.419141 -0.3399389,1.179094 -0.5624421,2.932178 -0.3992267,3.145472 0.048691,0.06363 0.2641108,0.189958 0.4787111,0.280727 0.2146003,0.09077 0.5800561,0.301444 0.812124,0.468168 0.2320678,0.166725 0.4619471,0.303135 0.5108429,0.303135 0.048896,0 0.1320496,-0.142468 0.1847862,-0.316595 0.052737,-0.174127 0.1664281,-0.487557 0.2526477,-0.696509 0.08622,-0.208953 0.2409188,-0.599675 0.3437758,-0.86827 0.1028569,-0.268595 0.2586153,-0.526676 0.3461297,-0.573511 0.2672934,-0.143052 0.2871406,0.141739 0.04658,0.668378 -0.3231461,0.707437 -0.6287958,1.535637 -0.6907613,1.871715 -0.052483,0.284649 -0.035378,0.310401 0.4360644,0.656487 0.2698797,0.198119 0.5470278,0.349367 0.6158848,0.336106 0.212151,-0.04086 1.135885,-1.585281 1.442285,-2.411407 0.130178,-0.350992 0.383481,-0.340017 0.357952,0.01551 -0.02312,0.321984 -0.623605,1.516442 -1.156894,2.301247 -0.116396,0.171291 -0.194131,0.339748 -0.172746,0.37435 0.02138,0.0346 0.314138,0.215406 0.650562,0.401786 0.336425,0.186379 0.717777,0.474649 0.84745,0.640599 0.129674,0.165951 0.267605,0.301728 0.306515,0.301728 0.154607,0 1.330058,-1.481357 1.693566,-2.134309 0.385259,-0.692023 0.526226,-0.811154 0.576984,-0.487609 0.04422,0.281842 -0.489798,1.175998 -1.229858,2.059283 -0.38308,0.457218 -0.696509,0.882608 -0.696509,0.945311 0,0.0627 0.218451,0.283398 0.485446,0.490431 0.266995,0.207033 0.618416,0.518174 0.780934,0.691425 0.347038,0.369955 1.233729,0.969575 1.427215,0.965146 0.07406,-0.0017 0.24282,-0.173749 0.375022,-0.382342 0.132202,-0.208593 0.426917,-0.602517 0.654922,-0.875387 0.371498,-0.444599 1.004282,-1.560593 1.004282,-1.771178 0,-0.141203 0.171162,-0.19493 0.29461,-0.09248 0.08907,0.07392 0.09789,0.154074 0.03562,0.323863 -0.190462,0.519352 -0.643347,1.267898 -1.265639,2.0919 -0.364498,0.482647 -0.700549,0.948217 -0.746779,1.034599 -0.08418,0.157286 -0.0028,0.315234 0.867846,1.683667 0.254713,0.400362 0.295092,0.403832 0.935746,0.08043 z"
       id="path1174" /><path
       style="fill:#ffffff;fill-rule:evenodd;stroke-width:0.0298489"
       d="m 18.215276,48.255239 c -0.09194,-0.08547 -0.102615,-0.171972 -0.03977,-0.322368 0.07686,-0.183944 0.130546,-0.210279 0.382202,-0.187474 0.15756,0.01428 0.243158,0.009 0.293721,-0.01804 0.03925,-0.021 0.11197,-0.04869 0.161607,-0.06152 0.04964,-0.01283 0.184273,-0.05881 0.299191,-0.102162 0.114918,-0.04336 0.249238,-0.09006 0.298489,-0.103792 0.04925,-0.01373 0.182184,-0.05968 0.295408,-0.102112 0.269369,-0.100947 0.383277,-0.100578 0.463572,0.0015 0.07617,0.09683 0.07726,0.134517 0.0064,0.221985 -0.05006,0.06182 -0.222764,0.137585 -0.466923,0.204842 -0.04925,0.01357 -0.183571,0.0614 -0.298489,0.106293 -0.114918,0.04489 -0.258546,0.08813 -0.319172,0.09609 -0.06063,0.008 -0.241012,0.08045 -0.400857,0.161104 -0.181985,0.09182 -0.347205,0.153243 -0.441975,0.164303 -0.134122,0.01565 -0.160689,0.009 -0.233431,-0.05864 z"
       id="path1176" /><path
       style="fill:#ffffff;fill-rule:evenodd;stroke-width:0.0298489"
       d="m 16.810684,53.617527 c -0.02966,-0.0077 -0.06662,-0.04736 -0.08213,-0.08816 -0.05105,-0.134284 -0.0045,-0.212791 0.191637,-0.323377 0.10077,-0.05681 0.223928,-0.140574 0.273686,-0.18615 0.04976,-0.04557 0.137065,-0.115405 0.194017,-0.155177 0.05695,-0.03977 0.202846,-0.178095 0.324207,-0.307384 0.121361,-0.129288 0.258896,-0.254844 0.305632,-0.279012 0.04674,-0.02417 0.152727,-0.104116 0.235535,-0.177661 0.08281,-0.07355 0.160323,-0.133718 0.172257,-0.133718 0.01193,0 0.07653,-0.05322 0.143543,-0.118264 0.17463,-0.169497 0.389409,-0.269772 0.577823,-0.269772 0.08488,0 0.180958,0.01425 0.213499,0.03166 0.08067,0.04317 0.124394,0.165527 0.08527,0.238622 -0.03723,0.06956 -0.179727,0.1471 -0.27374,0.148948 -0.08997,0.0018 -0.288325,0.108143 -0.431702,0.231514 -0.06299,0.0542 -0.234471,0.186438 -0.381075,0.293866 -0.146605,0.107428 -0.341369,0.267104 -0.432809,0.354836 -0.609984,0.585242 -0.676203,0.639674 -0.851619,0.700026 -0.09607,0.03305 -0.182646,0.05854 -0.192389,0.05663 -0.0097,-0.0019 -0.04198,-0.0098 -0.07164,-0.01744 z"
       id="path1178" /><path
       style="fill:#ffffff;fill-rule:evenodd;stroke-width:0.0298489"
       d="m 16.680331,56.04437 c -0.07236,-0.06224 -0.07935,-0.08217 -0.0539,-0.153657 0.01608,-0.04518 0.06324,-0.10745 0.104797,-0.138381 0.07432,-0.05532 0.490498,-0.172684 0.614785,-0.173374 0.03493,-1.94e-4 0.111736,-0.0205 0.170673,-0.04513 0.08719,-0.03643 0.274445,-0.04477 1.005024,-0.04477 0.836781,0 0.906274,-0.0041 1.021427,-0.0597 0.157972,-0.07632 0.35453,-0.07871 0.421134,-0.0051 0.124338,0.137391 0.0209,0.288072 -0.288908,0.420872 -0.135716,0.05817 -0.20086,0.06188 -1.104375,0.06288 -0.776132,8.55e-4 -0.974453,0.0092 -1.034774,0.04372 -0.04104,0.02346 -0.136957,0.04313 -0.213144,0.04371 -0.07619,5.82e-4 -0.197076,0.02763 -0.26864,0.0601 -0.172677,0.07835 -0.273529,0.07534 -0.374099,-0.01116 z"
       id="path1180" /><path
       style="fill:#ffffff;fill-rule:evenodd;stroke-width:0.0298489"
       d="m 32.569749,55.762811 c -0.05775,-0.06381 -0.06229,-0.17232 -0.01103,-0.263922 0.01994,-0.03564 0.218523,-0.257264 0.441297,-0.492507 0.222774,-0.235242 0.43097,-0.459906 0.462657,-0.499254 0.03169,-0.03935 0.171882,-0.187098 0.311542,-0.328337 0.139659,-0.141239 0.428447,-0.43813 0.641751,-0.659758 0.213303,-0.221628 0.423028,-0.425639 0.466055,-0.453359 0.04303,-0.02772 0.12362,-0.09277 0.179094,-0.144562 0.05547,-0.05179 0.154589,-0.128454 0.220257,-0.170364 0.06567,-0.04191 0.19985,-0.137019 0.298183,-0.211352 0.09833,-0.07433 0.23937,-0.157759 0.313413,-0.185393 0.29474,-0.109999 0.889213,-0.397199 1.447976,-0.699542 0.197003,-0.106597 0.378534,-0.19408 0.403404,-0.194406 0.02487,-3.26e-4 0.12561,-0.03872 0.223867,-0.08531 0.09826,-0.04659 0.265957,-0.107993 0.372666,-0.136443 0.10671,-0.02845 0.27461,-0.07777 0.373111,-0.109605 0.0985,-0.03183 0.22363,-0.05774 0.278065,-0.05757 0.05443,1.79e-4 0.12831,-0.01572 0.164168,-0.0353 0.03586,-0.01958 0.125642,-0.04532 0.199518,-0.05721 0.07388,-0.01188 0.188048,-0.03584 0.253716,-0.05324 0.06567,-0.01739 0.191646,-0.03195 0.279952,-0.03234 0.09378,-4.15e-4 0.248962,-0.032 0.373111,-0.07594 0.227502,-0.08051 0.223925,-0.07907 0.543272,-0.21973 0.116228,-0.0512 0.222885,-0.09308 0.237017,-0.09308 0.01413,0 0.120516,-0.04582 0.23641,-0.101825 0.235553,-0.113827 0.477287,-0.197034 0.571779,-0.196812 0.03442,9e-5 0.108292,-0.02313 0.164169,-0.05158 0.05588,-0.02845 0.209051,-0.06098 0.340386,-0.07229 0.131335,-0.01131 0.332815,-0.04938 0.447733,-0.0846 0.114918,-0.03522 0.271851,-0.07561 0.348739,-0.08976 0.07689,-0.01415 0.166672,-0.04012 0.199518,-0.0577 0.03285,-0.01758 0.173087,-0.03196 0.311645,-0.03196 0.147634,0 0.30446,-0.01853 0.378826,-0.04477 0.0698,-0.02463 0.168867,-0.04478 0.220158,-0.04479 0.05129,-8e-6 0.163918,-0.02687 0.250283,-0.0597 0.08636,-0.03283 0.185731,-0.05968 0.220816,-0.05968 0.07433,0 0.701111,-0.323624 0.875809,-0.4522 0.340376,-0.250515 0.765983,-0.532155 0.921269,-0.609638 0.09628,-0.04804 0.246021,-0.147788 0.332767,-0.221664 0.08675,-0.07388 0.243034,-0.192031 0.347308,-0.262566 0.104274,-0.07054 0.256749,-0.173664 0.338833,-0.229173 0.08208,-0.05551 0.232887,-0.149893 0.335117,-0.209741 0.319906,-0.187279 0.909562,-0.812756 1.082705,-1.148476 0.05746,-0.111412 0.147751,-0.251207 0.200649,-0.310655 0.0529,-0.05945 0.132464,-0.185281 0.176813,-0.279627 0.04435,-0.09435 0.143787,-0.245414 0.220973,-0.335707 0.07719,-0.09029 0.175219,-0.220393 0.217851,-0.289112 0.04263,-0.06872 0.165195,-0.222298 0.272364,-0.341288 0.107168,-0.118989 0.195215,-0.230665 0.195659,-0.248168 4.45e-4,-0.0175 0.06159,-0.09898 0.135874,-0.181067 0.07429,-0.08209 0.160691,-0.196257 0.19201,-0.253716 0.03132,-0.05746 0.105792,-0.158199 0.165495,-0.223866 0.168264,-0.185073 0.361345,-0.498583 0.550065,-0.893153 0.312315,-0.652978 0.360744,-0.746744 0.479112,-0.927629 0.06446,-0.0985 0.158594,-0.259417 0.209194,-0.357591 0.10297,-0.199785 0.128513,-0.223351 0.242798,-0.224005 0.116008,-6.63e-4 0.18323,0.07889 0.164451,0.194612 -0.01504,0.09269 -0.27281,0.640121 -0.315635,0.670329 -0.05336,0.03764 -0.182483,0.234529 -0.182483,0.278254 0,0.02669 -0.03218,0.11945 -0.07151,0.206125 -0.03933,0.08667 -0.113653,0.251098 -0.165159,0.365384 -0.05151,0.114286 -0.105134,0.215026 -0.119173,0.223867 -0.03117,0.01963 -0.178501,0.256648 -0.297574,0.478731 -0.126627,0.236171 -0.154468,0.270857 -0.76598,0.954285 -0.136936,0.15304 -0.403661,0.51538 -0.462066,0.627705 -0.02134,0.04104 -0.09007,0.128351 -0.152736,0.194018 -0.06266,0.06567 -0.155692,0.206704 -0.206727,0.313413 -0.05103,0.10671 -0.136669,0.247746 -0.190297,0.313414 -0.05363,0.06567 -0.131909,0.18735 -0.173957,0.270406 -0.17001,0.335814 -0.845734,1.058105 -1.148056,1.227174 -0.103839,0.05807 -0.205141,0.120989 -0.225117,0.139821 -0.01998,0.01883 -0.09551,0.07451 -0.167851,0.123735 -0.07234,0.04922 -0.193231,0.132981 -0.26864,0.186132 -0.07541,0.05315 -0.190837,0.131842 -0.256504,0.17487 -0.06567,0.04303 -0.132828,0.09357 -0.149245,0.112305 -0.04549,0.05193 -0.328473,0.236329 -0.618767,0.403214 -0.235196,0.135211 -0.361032,0.220547 -0.786496,0.533366 -0.215585,0.158507 -0.428905,0.26516 -0.728931,0.364442 -0.155961,0.05161 -0.330577,0.109333 -0.388036,0.128275 -0.109769,0.03619 -0.27767,0.06142 -0.746222,0.112144 -0.15596,0.01688 -0.334206,0.05065 -0.396101,0.07505 -0.0619,0.02439 -0.158082,0.04435 -0.213748,0.04435 -0.05567,0 -0.172924,0.02538 -0.260574,0.0564 -0.191489,0.06777 -0.395468,0.112191 -0.636945,0.138702 -0.0985,0.01081 -0.224387,0.0385 -0.279747,0.06152 -0.05536,0.02302 -0.132378,0.04186 -0.171151,0.04186 -0.03877,0 -0.194958,0.05493 -0.347079,0.122076 -0.15212,0.06714 -0.316878,0.135986 -0.366129,0.152989 -0.04925,0.017 -0.190286,0.0753 -0.313413,0.129558 -0.320331,0.141148 -0.468017,0.192355 -0.554771,0.192355 -0.04179,0 -0.105319,0.01591 -0.141178,0.03535 -0.03586,0.01944 -0.165937,0.04502 -0.289064,0.05685 -0.217845,0.02092 -0.350417,0.04903 -0.626826,0.132893 -0.07388,0.02241 -0.200097,0.04992 -0.280492,0.06112 -0.08039,0.0112 -0.181134,0.03861 -0.223866,0.06091 -0.04273,0.0223 -0.117706,0.04062 -0.166609,0.04073 -0.0988,2.08e-4 -0.424045,0.117418 -0.630682,0.227287 -0.07384,0.03926 -0.148744,0.07138 -0.166451,0.07138 -0.05579,0 -0.551953,0.263101 -0.762581,0.404376 -0.111101,0.07452 -0.235583,0.143556 -0.276625,0.153414 -0.04104,0.0099 -0.12835,0.04063 -0.194018,0.06839 -0.158741,0.06709 -0.310797,0.121429 -0.406638,0.145308 -0.04307,0.01073 -0.110226,0.04285 -0.149245,0.07138 -0.03902,0.02853 -0.130204,0.09569 -0.202633,0.149245 -0.07243,0.05355 -0.174654,0.124236 -0.227165,0.15707 -0.271705,0.169891 -1.041895,0.928309 -2.058904,2.027435 -0.61575,0.665469 -0.686873,0.733586 -0.765956,0.733586 -0.04152,0 -0.09771,-0.02456 -0.124884,-0.05459 z"
       id="path1182" /><path
       style="fill:#ffffff;fill-rule:evenodd;stroke-width:0.0298489"
       d="m 35.028705,60.02805 c -0.0856,-0.159944 0.0027,-0.358357 0.228025,-0.512275 0.07922,-0.05412 0.157468,-0.114244 0.173885,-0.133611 0.07069,-0.08339 1.02532,-0.578849 1.119123,-0.580829 0.02474,-5.22e-4 0.07106,-0.02067 0.102924,-0.04477 0.03187,-0.0241 0.08311,-0.04382 0.113862,-0.04382 0.05758,0 0.219684,-0.06114 0.561875,-0.211941 0.139116,-0.0613 0.244425,-0.08655 0.361063,-0.08655 0.09557,0 0.207297,-0.02136 0.266259,-0.0509 0.05588,-0.028 0.162039,-0.06039 0.235915,-0.072 0.50614,-0.07949 0.688048,-0.114605 0.741262,-0.143084 0.0334,-0.01788 0.115072,-0.0325 0.181487,-0.0325 0.06641,0 0.171395,-0.01962 0.233291,-0.04361 0.259478,-0.100549 0.851708,-0.254881 0.978074,-0.254881 0.07498,0 0.184539,-0.02015 0.243475,-0.04477 0.05894,-0.02463 0.155888,-0.04492 0.215446,-0.0451 0.05956,-1.78e-4 0.174225,-0.02033 0.254814,-0.04477 0.08059,-0.02445 0.223343,-0.04445 0.31723,-0.04445 0.09389,0 0.219674,-0.02046 0.279527,-0.04547 0.09283,-0.03879 0.274316,-0.04366 1.234911,-0.03318 1.3277,0.01448 2.031891,0.05195 2.200649,0.117089 0.09766,0.03769 0.345931,0.04944 1.363687,0.06452 1.143454,0.01694 1.259564,0.02339 1.432746,0.07959 0.10365,0.03364 0.247232,0.09363 0.319071,0.133325 0.07184,0.03969 0.149521,0.07217 0.172624,0.07217 0.0231,0 0.106547,0.0327 0.18543,0.07268 0.171722,0.08702 0.451153,0.183126 0.615738,0.211777 0.06567,0.01143 0.236133,0.05956 0.378813,0.106955 0.142681,0.04739 0.314606,0.08617 0.382056,0.08617 0.06745,0 0.159182,0.0189 0.203849,0.042 0.04467,0.0231 0.208542,0.05077 0.364167,0.0615 0.155625,0.01072 0.339588,0.03978 0.408807,0.06456 0.10363,0.0371 0.274925,0.04337 0.970088,0.03551 0.736049,-0.0083 0.856477,-0.01624 0.939762,-0.06178 0.05254,-0.02873 0.136034,-0.05224 0.185543,-0.05224 0.04951,0 0.134126,-0.01839 0.188038,-0.04087 0.121298,-0.05058 0.239607,-0.0908 0.545755,-0.18553 0.677373,-0.209596 0.849299,-0.269346 0.997242,-0.346578 0.213105,-0.111249 0.233991,-0.130584 0.316108,-0.292634 0.03848,-0.07594 0.0912,-0.155695 0.117159,-0.177237 0.113998,-0.09461 0.31565,-0.0041 0.31565,0.141672 0,0.09503 -0.123354,0.357153 -0.213979,0.454698 -0.0951,0.102362 -0.877405,0.494817 -1.024871,0.514142 -0.0656,0.0086 -0.199866,0.04548 -0.298367,0.08196 -0.0985,0.03648 -0.232822,0.07741 -0.298489,0.09096 -0.06567,0.01355 -0.28058,0.0818 -0.477582,0.151655 l -0.358187,0.127014 -0.90923,0.01067 c -0.742525,0.0087 -0.931333,0.0027 -1.029786,-0.03294 -0.06631,-0.02398 -0.235206,-0.05073 -0.375334,-0.05944 -0.232656,-0.01447 -0.348399,-0.03598 -0.745159,-0.138548 -0.07388,-0.0191 -0.194764,-0.04562 -0.26864,-0.05894 -0.07388,-0.01332 -0.174616,-0.03827 -0.223867,-0.05544 -0.04925,-0.01718 -0.223866,-0.07389 -0.388035,-0.126039 -0.164169,-0.05215 -0.342911,-0.120235 -0.397204,-0.151309 -0.05429,-0.03107 -0.113666,-0.0565 -0.131939,-0.0565 -0.02972,0 -0.193294,-0.06773 -0.583526,-0.241608 -0.118816,-0.05294 -0.212421,-0.05688 -1.351621,-0.05688 -1.033154,0 -1.241069,-0.0071 -1.333685,-0.04584 -0.171883,-0.07182 -0.844517,-0.110604 -2.134683,-0.123094 -1.019746,-0.0099 -1.199049,-0.0051 -1.274557,0.03395 -0.05553,0.02871 -0.169429,0.04544 -0.309467,0.04544 -0.121878,0 -0.278701,0.02015 -0.348497,0.04477 -0.06979,0.02463 -0.170584,0.04477 -0.223974,0.04477 -0.05339,0 -0.142367,0.0184 -0.197727,0.04089 -0.05536,0.02249 -0.19147,0.04974 -0.302467,0.06056 -0.110997,0.01082 -0.238601,0.03455 -0.283564,0.05274 -0.04496,0.01819 -0.13548,0.04365 -0.201147,0.05657 -0.06567,0.01292 -0.21342,0.05594 -0.328338,0.09558 -0.114918,0.03965 -0.289663,0.08042 -0.388322,0.0906 -0.09866,0.01018 -0.238025,0.03921 -0.309704,0.0645 -0.07168,0.02529 -0.168763,0.04598 -0.215744,0.04598 -0.04698,0 -0.216551,0.03537 -0.376821,0.0786 -0.160269,0.04323 -0.358559,0.08845 -0.440644,0.100493 -0.08208,0.01204 -0.229836,0.052 -0.328337,0.08881 -0.0985,0.0368 -0.333561,0.119895 -0.522356,0.184653 -0.401445,0.137701 -0.861859,0.365557 -1.130325,0.55939 -0.104548,0.07548 -0.245583,0.175785 -0.313413,0.222891 -0.06783,0.04711 -0.147357,0.110908 -0.176726,0.141782 -0.0695,0.07307 -0.189604,0.07223 -0.229116,-0.0016 z"
       id="path1184" /></g></svg>
