<?xml version="1.0" encoding="UTF-8" standalone="no"?>
<!-- Created with Inkscape (http://www.inkscape.org/) -->

<svg
   width="75"
   height="100"
   viewBox="0 0 75 100"
   version="1.1"
   id="svg5"
   inkscape:version="1.2.1 (9c6d41e410, 2022-07-14)"
   sodipodi:docname="armor_feet_heavy.svg"
   xml:space="preserve"
   xmlns:inkscape="http://www.inkscape.org/namespaces/inkscape"
   xmlns:sodipodi="http://sodipodi.sourceforge.net/DTD/sodipodi-0.dtd"
   xmlns="http://www.w3.org/2000/svg"
   xmlns:svg="http://www.w3.org/2000/svg"><sodipodi:namedview
     id="namedview7"
     pagecolor="#ffffff"
     bordercolor="#999999"
     borderopacity="1"
     inkscape:pageshadow="0"
     inkscape:pageopacity="0"
     inkscape:pagecheckerboard="0"
     inkscape:document-units="px"
     showgrid="false"
     height="70mm"
     units="px"
     inkscape:zoom="16.75105"
     inkscape:cx="-9.7605821"
     inkscape:cy="75.219165"
     inkscape:window-width="3840"
     inkscape:window-height="2066"
     inkscape:window-x="-11"
     inkscape:window-y="-11"
     inkscape:window-maximized="1"
     inkscape:current-layer="layer1"
     inkscape:showpageshadow="2"
     inkscape:deskcolor="#d1d1d1" /><defs
     id="defs2" /><g
     inkscape:label="Layer 1"
     inkscape:groupmode="layer"
     id="layer1"><path
       style="fill:#ffffff;fill-rule:evenodd;stroke-width:0.119396"
       d="m 29.132502,88.705304 c -0.722343,-0.04855 -1.796902,-0.176746 -2.38791,-0.284884 -0.591008,-0.108137 -2.014799,-0.301132 -3.163981,-0.428877 -1.918662,-0.213282 -4.575676,-0.568402 -5.820531,-0.777937 -0.505115,-0.08502 -0.50743,-0.08374 -0.50743,0.280262 0,0.940492 -0.41738,1.23201 -1.405345,0.981561 -0.310574,-0.07873 -0.967641,-0.189541 -1.460147,-0.246246 C 13.894651,88.172478 13.035004,88.017105 12.47683,87.88391 11.918656,87.750714 10.787603,87.58888 9.9633797,87.524277 9.1391562,87.459676 8.1473325,87.324132 7.759327,87.223069 7.3713215,87.122006 6.7940686,87.039319 6.4765428,87.039319 c -0.4620025,0 -0.6391043,-0.06179 -0.8866355,-0.309316 C 5.296136,86.436232 5.2852027,86.380731 5.3723493,85.625595 5.4758822,84.728468 5.4765502,84.809671 5.347589,82.615742 5.2447748,80.866635 5.2869885,80.984149 4.309285,79.72533 3.9292055,79.235967 3.7514468,78.878825 3.692582,78.486286 3.5580162,77.588936 3.7210284,76.51027 4.1619955,75.380137 4.3887123,74.799096 4.6095903,74.055058 4.6528354,73.726721 4.6960806,73.398383 4.9112497,72.216368 5.130989,71.10002 5.3507282,69.983672 5.5927945,68.264377 5.6689141,67.279364 5.7450336,66.294351 5.8551227,64.924288 5.9135566,64.234779 6.1414309,61.545906 6.1632295,60.368925 6.0373889,57.548631 5.9656023,55.939776 5.8002785,53.763793 5.6700024,52.713113 5.5397263,51.662432 5.3549002,49.830625 5.2592778,48.642428 5.1016004,46.683145 4.9178607,45.082881 4.5930504,42.839985 4.5294048,42.400497 4.4773312,41.815015 4.4773312,41.538916 c 0,-0.276101 -0.2088627,-1.1254 -0.4641395,-1.88733 C 3.3189462,37.579454 3.0532575,36.537445 2.8590926,35.125303 2.762546,34.42313 2.6058829,33.311344 2.5109527,32.654669 2.1531696,30.179726 1.8545356,26.048752 1.8506602,23.520913 1.8495025,22.765737 1.768897,21.476265 1.671537,20.655421 1.5741769,19.834577 1.4940519,18.297624 1.4934812,17.23997 l -0.00104,-1.923007 0.4115676,-0.539014 c 1.1886717,-1.556756 3.1000459,-2.029285 8.3640012,-2.067746 1.842887,-0.01346 3.664543,-0.08439 4.059447,-0.158057 0.394005,-0.0735 1.119333,-0.134668 1.611839,-0.135935 0.863468,-0.0022 4.218546,-0.547864 9.096978,-1.479459 2.255391,-0.430694 5.564872,-0.788135 7.2972,-0.788135 1.071575,0 2.115091,0.236285 2.999066,0.679081 0.759857,0.380624 0.986535,0.58022 1.221656,1.075702 0.218183,0.459785 0.270037,0.46608 1.853513,0.225024 2.410744,-0.366994 3.376666,-0.451576 6.3656,-0.557412 1.707356,-0.06045 3.399787,-0.159528 3.760958,-0.220161 0.361173,-0.06063 2.173643,-0.114164 4.027715,-0.118958 l 3.37104,-0.0087 0.355784,0.328338 c 0.208375,0.192299 0.481232,0.66814 0.658559,1.148472 0.27357,0.741029 0.302774,0.990744 0.302774,2.588934 0,1.832717 -0.08978,2.5251 -0.827458,6.381362 -0.561334,2.934416 -0.82185,4.396419 -1.08504,6.089171 -0.596334,3.835451 -0.74565,4.526825 -2.385193,11.044083 -0.69024,2.743733 -1.055182,4.450889 -1.569689,7.342823 -0.213579,1.200479 -0.263515,2.044743 -0.308029,5.207853 -0.04813,3.42017 -0.02981,3.914096 0.194879,5.253402 0.219773,1.310032 0.837075,3.821734 1.18495,4.821369 0.06856,0.197003 0.257981,0.792253 0.420943,1.322778 0.435916,1.41914 1.732143,4.63086 2.156241,5.342618 0.475084,0.797327 1.288724,1.241188 3.233259,1.763823 2.039648,0.548198 2.368034,0.647957 3.674058,1.116121 1.039568,0.37265 4.386971,1.140557 4.971826,1.140557 0.123647,0 0.82931,0.233459 1.56814,0.518797 1.576922,0.609012 2.24627,1.131412 3.179649,2.481594 0.703983,1.018345 1.633371,3.259727 1.825772,4.40316 0.07173,0.426273 0.163447,1.637441 0.203822,2.691483 0.08912,2.326622 -0.06075,3.00776 -0.731843,3.326216 -0.505982,0.240104 -0.557846,0.238659 -1.692045,-0.04712 -1.190894,-0.300065 -1.708771,-0.299181 -3.39701,0.0058 -1.24926,0.225674 -1.488436,0.234254 -2.841455,0.101923 -0.849426,-0.08308 -2.059299,-0.113308 -2.846464,-0.07112 -1.46935,0.07875 -1.525136,0.09711 -3.487098,1.147651 -0.487299,0.260928 -1.148111,0.530627 -1.468472,0.599332 -0.888918,0.190639 -3.049688,0.15592 -3.779207,-0.06072 -0.791461,-0.235039 -3.094747,-0.186851 -4.970104,0.103981 -0.722343,0.112022 -1.691092,0.258819 -2.152775,0.326215 -0.461684,0.0674 -1.348195,0.255256 -1.970026,0.417466 -2.441446,0.636874 -4.036456,0.767011 -9.189797,0.749801 -2.593868,-0.0087 -5.30713,-0.05547 -6.029473,-0.104021 z M 40.703118,87.45728 c 0.990925,-0.09846 2.097184,-0.259433 2.458355,-0.357719 1.422698,-0.387161 2.755816,-0.648448 4.275624,-0.838007 0.874075,-0.10902 1.760232,-0.247262 1.969238,-0.307205 0.209007,-0.05994 0.662439,-0.108985 1.007627,-0.108985 0.763792,0 0.769367,-0.03028 0.256049,-1.390339 -0.335553,-0.889057 -0.407468,-0.992361 -0.741993,-1.065834 -0.653203,-0.143467 -1.569394,-0.06048 -2.297267,0.208076 -0.665765,0.245643 -0.923512,0.262348 -4.290185,0.27805 -3.221709,0.01503 -3.685633,0.04235 -4.613867,0.271746 -0.5676,0.140272 -1.50784,0.315189 -2.089421,0.388703 -0.58158,0.07351 -1.365544,0.210201 -1.74214,0.303746 -0.376598,0.09355 -0.89108,0.170083 -1.143296,0.170083 -0.400929,0 -2.275734,0.35157 -3.815134,0.715427 -0.805603,0.190414 -2.167766,0.139143 -4.803955,-0.180819 -1.346185,-0.163389 -2.743112,-0.32905 -3.104283,-0.368136 -1.049765,-0.113601 -2.942559,-0.506554 -4.298238,-0.892335 -1.546726,-0.440146 -3.266602,-0.706663 -4.566092,-0.707574 -0.54219,-3.81e-4 -1.308167,-0.05537 -1.702172,-0.122193 -0.394005,-0.06682 -1.361109,-0.202934 -2.1491191,-0.302464 -0.7880103,-0.09953 -1.7181295,-0.255219 -2.0669315,-0.345976 -0.7563193,-0.196793 -0.8222977,-0.123606 -0.6744178,0.748109 0.110799,0.653132 0.1268511,1.232048 0.050031,1.804374 l -0.054778,0.408111 0.8559667,0.146007 c 0.4707817,0.0803 0.9104602,0.179686 0.9770633,0.220849 0.066603,0.04116 0.7828415,0.125701 1.591641,0.187862 0.8087994,0.06216 2.0078244,0.22933 2.6644994,0.371488 0.656675,0.142157 1.580201,0.300587 2.05228,0.352067 0.472077,0.05148 0.969061,0.128748 1.104408,0.171705 0.217518,0.06904 0.246084,0.02803 0.246084,-0.353253 0,-0.29879 0.09006,-0.521422 0.293062,-0.724418 0.315285,-0.315286 0.655793,-0.357296 1.438172,-0.177432 0.763326,0.175484 3.680634,0.595541 5.432496,0.782214 2.005758,0.213729 4.322828,0.537906 4.465,0.62469 0.436707,0.266572 10.534491,0.335917 13.015693,0.08938 z m 17.281073,-1.78026 c 0.482784,-0.251239 1.182746,-0.617429 1.555472,-0.813757 1.031555,-0.543358 3.346,-0.722636 5.759561,-0.446138 0.879187,0.100719 1.242837,0.08672 2.089421,-0.08043 1.331163,-0.262829 3.317094,-0.272709 4.214522,-0.02097 0.616757,0.173012 0.696976,0.173563 0.835768,0.0058 0.183164,-0.221456 0.207833,-2.947958 0.02827,-3.124654 -0.103615,-0.101961 -1.300397,0.101739 -1.567458,0.266792 -0.277902,0.171754 -2.163445,0.46206 -3.606145,0.555218 -0.935568,0.06041 -1.803533,0.180249 -2.043964,0.282206 -0.416947,0.17681 -1.186038,0.375492 -2.849278,0.736065 -0.483589,0.104836 -1.074596,0.289645 -1.31335,0.410686 -0.653334,0.331218 -1.268296,0.375785 -5.718605,0.414431 -2.249803,0.01954 -4.122448,0.06742 -4.16143,0.106401 -0.03898,0.03898 0.05986,0.463764 0.219659,0.943958 l 0.290539,0.87308 0.886004,0.07735 c 0.487302,0.04254 1.047189,0.135067 1.244191,0.205612 0.202299,0.07244 0.989429,0.114539 1.808609,0.09673 1.421714,-0.03091 1.467798,-0.04058 2.328212,-0.488333 z M 29.936708,85.130363 c 1.704777,-0.395179 3.440107,-0.718662 3.853006,-0.718237 0.263104,2.39e-4 0.666064,-0.05438 0.895467,-0.121443 0.229402,-0.06706 1.008103,-0.201725 1.730446,-0.299243 0.722343,-0.09752 1.635719,-0.263621 2.029724,-0.369113 0.563598,-0.150899 1.495348,-0.200815 4.369045,-0.234063 3.548746,-0.04106 3.680807,-0.05115 4.641509,-0.354633 0.773768,-0.244434 1.178901,-0.304442 1.862711,-0.275904 0.480631,0.02006 0.912424,-0.0021 0.959543,-0.0492 0.151302,-0.151303 -0.210269,-2.156117 -0.500158,-2.773242 -0.329994,-0.702504 -2.450137,-3.274891 -3.182405,-3.861239 -0.279914,-0.224135 -0.688708,-0.484188 -0.908433,-0.577896 -0.219725,-0.09371 -0.698534,-0.368981 -1.064021,-0.611718 -0.662094,-0.43973 -0.67022,-0.44158 -2.2272,-0.507231 -1.131771,-0.04772 -1.694375,-0.124951 -2.040263,-0.280072 -0.26267,-0.117799 -0.892079,-0.315227 -1.398686,-0.438728 l -0.921104,-0.224546 -0.57134,0.281119 c -0.314237,0.154615 -1.028028,0.42932 -1.586202,0.610455 -0.813092,0.26386 -1.111742,0.429155 -1.502154,0.831404 -0.572493,0.589853 -1.352986,1.833467 -1.488029,2.37098 -0.0522,0.207761 -0.264161,0.807572 -0.471028,1.332912 -0.206868,0.52534 -0.459829,1.19694 -0.562136,1.492444 -0.2264,0.653937 -0.400055,0.860475 -0.612857,0.728906 -0.189957,-0.117444 -0.04954,-0.653578 0.613073,-2.340745 0.232109,-0.591008 0.4762,-1.277685 0.542423,-1.52595 0.157569,-0.59071 1.386269,-2.412286 1.882406,-2.790709 0.213734,-0.163022 0.879858,-0.46894 1.480275,-0.679817 0.600418,-0.210878 1.090673,-0.429613 1.089459,-0.486077 -0.0022,-0.102924 -1.513292,-0.784687 -1.744058,-0.786878 -0.282138,-0.0027 -1.383293,-0.602382 -1.81104,-0.986315 -0.253505,-0.227539 -0.694604,-0.532081 -0.980219,-0.676759 -0.624057,-0.316115 -1.523564,-1.123077 -1.758679,-1.577738 -0.234656,-0.453777 -0.738659,-0.524729 -2.553887,-0.359533 -1.989008,0.181012 -3.027188,0.526085 -6.154274,2.045568 -0.789926,0.383832 -1.995084,0.804456 -2.923435,1.020333 -0.0985,0.02291 -1.199925,0.104825 -2.447608,0.182044 -2.481613,0.153587 -2.297033,0.171213 -6.268264,-0.598577 C 9.1546327,71.316676 8.2570052,71.050483 8.1056044,70.89736 8.0210263,70.811821 7.8443617,70.257528 7.7130163,69.665599 7.5139347,68.768405 7.4858115,68.33143 7.5439643,67.038898 c 0.038367,-0.852756 0.1280999,-1.623964 0.1994075,-1.713795 0.1544334,-0.19455 1.4514186,-0.110281 2.7222962,0.176877 0.437048,0.09875 1.05492,0.162967 1.373048,0.142698 l 0.578416,-0.03685 -0.02708,-1.253653 c -0.01489,-0.689509 -0.08381,-2.140164 -0.153144,-3.223678 -0.06934,-1.083515 -0.17584,-2.963994 -0.236676,-4.178843 -0.118572,-2.367807 -0.278154,-4.087067 -0.475282,-5.120454 -0.06747,-0.353717 -0.122682,-0.657611 -0.122682,-0.67532 0,-0.01771 -0.270036,-0.06934 -0.60008,-0.114729 -0.911602,-0.125378 -1.0498973,-0.346933 -0.8754276,-1.402471 0.073711,-0.445946 0.076327,-0.447733 0.6553616,-0.447733 h 0.581355 l -9.06e-4,-2.716248 c -4.98e-4,-1.493936 -0.05434,-3.172935 -0.119649,-3.731109 -0.06531,-0.558174 -0.169518,-2.089422 -0.231575,-3.402772 -0.06206,-1.313351 -0.192559,-2.92519 -0.290003,-3.581865 C 10.423904,35.102278 10.283962,33.83967 10.210371,32.953159 10.090255,31.506144 9.964852,30.527601 9.7796624,29.592238 9.7296251,29.339506 9.6283864,29.259412 9.2761496,29.193887 8.5879472,29.065861 7.7157697,28.650724 7.6411665,28.41567 7.5521072,28.135069 7.9068917,27.218279 8.2069918,26.953534 8.368276,26.81125 8.6434562,26.744592 9.0695423,26.744592 h 0.6257055 l 0.077635,-1.402897 C 9.9968015,21.295398 10.002501,21.048081 9.8736626,20.968455 9.6733541,20.844657 6.2005187,21.25206 4.2385402,21.629519 l -1.2536527,0.241185 0.029818,1.213141 c 0.0164,0.667226 0.061808,1.763005 0.100908,2.435064 0.068132,1.171076 0.080926,1.21666 0.3074582,1.095424 0.2483332,-0.132904 1.070786,-0.04683 1.4483865,0.151585 0.3957107,0.207929 0.9192237,0.846912 0.9192237,1.121973 0,0.153854 -0.1410051,0.38303 -0.3244482,0.527327 -0.2893248,0.227582 -0.4169688,0.246541 -1.1790994,0.175123 -0.5718542,-0.05359 -0.8813768,-0.03684 -0.9354192,0.0506 -0.085341,0.138085 0.02593,1.321345 0.4279685,4.55101 0.2665741,2.14145 0.8520667,4.725493 1.4337892,6.327961 0.2279289,0.627875 0.4045673,1.401849 0.4632286,2.029724 0.052149,0.558174 0.156932,1.525277 0.2328505,2.149119 0.075919,0.623841 0.2332283,2.044904 0.3495769,3.157916 0.1163486,1.113014 0.260025,2.039909 0.3192812,2.05977 0.6490067,0.217518 0.9467701,0.487546 1.092655,0.99088 0.2181117,0.752529 0.061869,1.074559 -0.5213579,1.074559 H 6.7126804 l 0.077182,0.746222 c 0.3964977,3.833464 0.5491811,9.9509 0.3133085,12.553052 -0.3467418,3.825263 -0.3495357,3.927496 -0.118316,4.329387 0.1901762,0.330551 0.4410629,1.626576 0.6609326,3.414229 0.041051,0.333763 0.1824577,0.701706 0.3441432,0.895466 0.7350374,0.880847 1.0296996,1.831025 1.1757543,3.791374 0.1441946,1.935383 0.1323867,3.053166 -0.042883,4.059447 -0.068626,0.394005 -0.1544702,0.94045 -0.1907649,1.21432 l -0.06599,0.497947 0.5815873,0.07173 c 0.319873,0.03945 1.0651396,0.149759 1.6561466,0.245126 0.591008,0.09537 1.936353,0.229026 2.989654,0.297019 1.430707,0.09236 2.18568,0.20242 2.984888,0.435146 1.391319,0.405147 4.097302,0.948151 5.606822,1.125109 0.656675,0.07698 1.919282,0.234097 2.805794,0.349149 1.863032,0.241783 3.714308,0.293319 4.445769,0.123761 z m 29.28346,-1.909891 c 0.771161,-0.07075 1.447631,-0.212134 1.910328,-0.39925 0.394005,-0.159337 1.280516,-0.406541 1.970025,-0.54934 0.689509,-0.142801 1.576021,-0.359645 1.970026,-0.481875 0.41986,-0.130251 1.25998,-0.24839 2.029724,-0.285422 1.922018,-0.09247 5.220004,-0.835761 5.29121,-1.192523 0.06293,-0.315274 -0.304483,-1.568877 -0.833181,-2.842815 -0.51758,-1.247154 -1.415525,-2.547786 -2.108813,-3.054519 -0.70073,-0.512175 -2.17983,-0.994134 -4.13432,-1.347154 -1.0591,-0.191294 -2.388469,-0.491296 -2.954154,-0.66667 l -1.028519,-0.318862 -1.318616,0.429157 c -1.869372,0.608408 -2.437117,0.922793 -2.89336,1.602183 -0.209979,0.312676 -0.581883,0.783415 -0.826454,1.046085 -0.641917,0.68942 -1.477968,2.680702 -1.845046,4.39448 -0.329341,1.537593 -0.459462,1.873783 -0.725244,1.873783 -0.231776,0 -0.221072,-0.247804 0.06794,-1.572972 0.362848,-1.663712 0.46293,-1.996225 0.856198,-2.844661 0.197851,-0.426839 0.436626,-0.990983 0.530614,-1.253653 0.09399,-0.26267 0.404395,-0.719358 0.689795,-1.014862 0.285398,-0.295503 0.657823,-0.762165 0.827613,-1.037025 0.374234,-0.605821 1.406231,-1.245021 2.486434,-1.540052 1.329916,-0.363235 1.351967,-0.410906 0.336287,-0.726996 C 59.02615,71.284236 58.09207,71.02193 57.442923,70.854607 56.298894,70.559724 55.54466,70.239576 54.802534,69.733845 54.502562,69.529426 54.255526,69.489626 53.28256,69.488967 c -1.123129,-7.16e-4 -1.183524,-0.01469 -1.815047,-0.418671 -0.359292,-0.229836 -0.700201,-0.417884 -0.757576,-0.417884 -0.05738,0 -0.227888,-0.131533 -0.378916,-0.292296 -0.29811,-0.317324 -0.824809,-0.483388 -1.177804,-0.371352 -0.122204,0.03879 -0.497018,0.405454 -0.832919,0.814817 -0.335902,0.409363 -0.880811,1.034341 -1.210911,1.388841 l -0.60018,0.644542 -0.867948,-0.07681 c -0.477371,-0.04225 -1.351121,-0.211404 -1.941667,-0.375904 -0.862882,-0.240358 -1.345913,-0.299089 -2.459893,-0.299089 -2.171414,0 -8.03838,0.242634 -8.132755,0.336338 -0.191773,0.190412 1.2142,1.152752 2.138142,1.463486 0.512463,0.172347 1.157953,0.428901 1.434424,0.570118 0.276471,0.141218 0.618448,0.256759 0.759948,0.256759 0.363793,0 2.424262,0.573331 3.081691,0.857488 0.446989,0.193201 0.801538,0.236356 1.87965,0.22879 1.455681,-0.01022 1.138045,-0.110223 3.327677,1.047737 0.908472,0.480436 1.851558,1.247363 2.447608,1.990421 0.295504,0.368386 0.834572,1.03006 1.19793,1.470387 1.025466,1.242691 1.428771,2.392282 1.428771,4.072609 0,0.439766 0.03582,0.835392 0.0796,0.87917 0.11927,0.11927 6.963678,0.08809 8.337786,-0.03799 z M 8.3470401,82.054557 C 8.5422593,81.112304 8.7843444,78.700347 8.7152342,78.386142 8.6715407,78.187491 8.5957259,77.326495 8.5467569,76.472817 8.4485548,74.76086 8.2687044,74.181693 7.5623349,73.30271 7.2026799,72.855168 7.1531344,72.689981 6.9871612,71.385056 6.8872715,70.599696 6.7523051,69.956539 6.687236,69.955819 c -0.065069,-7.16e-4 -0.2635909,0.766845 -0.4411594,1.705702 -0.1775685,0.938857 -0.3843788,2.029381 -0.4595784,2.423386 -0.0752,0.394005 -0.3199336,1.185336 -0.5438535,1.758513 -0.6920944,1.771584 -0.563968,2.655724 0.5583738,3.853076 0.4487876,0.478782 0.7060362,1.129092 0.7060362,1.784823 0,0.490672 0.02935,0.545312 0.3283376,0.611256 0.1805857,0.03983 0.4626576,0.117202 0.6268264,0.171941 0.5838627,0.194679 0.8122133,0.140494 0.8848214,-0.209959 z M 17.192952,71.462626 c 2.457073,-0.21467 2.982622,-0.354776 5.074309,-1.352757 2.856224,-1.362755 3.462519,-1.558149 5.517205,-1.77806 1.514729,-0.16212 1.899081,-0.168253 2.410799,-0.03847 0.644657,0.163494 1.536693,0.703658 1.731168,1.048291 0.217849,0.386056 0.396562,-0.03768 0.512072,-1.214135 l 0.111882,-1.139518 -0.604617,-1.167654 c -0.332538,-0.642211 -0.826731,-1.635091 -1.098208,-2.206399 -0.677818,-1.426439 -0.78405,-1.474585 -3.147806,-1.426639 l -1.790933,0.03633 -0.556871,0.466763 c -0.306279,0.256721 -0.924151,0.66065 -1.373048,0.897622 -0.448898,0.23697 -0.977361,0.519044 -1.174364,0.626831 l -0.358186,0.195974 0.584345,0.06863 c 0.668175,0.07848 1.02118,0.417089 1.25765,1.206354 0.254232,0.848548 0.223976,0.875428 -1.662902,1.477363 -0.558174,0.178064 -1.283502,0.433303 -1.611839,0.567198 -1.335348,0.544552 -2.144232,0.356032 -2.28653,-0.532899 -0.06049,-0.37788 -0.02239,-0.484646 0.26949,-0.75515 0.186966,-0.173273 0.932198,-0.611558 1.656071,-0.973964 1.661587,-0.831871 1.760784,-0.929356 0.838551,-0.824085 -0.394005,0.04498 -1.441701,0.155043 -2.328212,0.244595 -0.967386,0.09772 -2.566586,0.386426 -3.99975,0.72208 -2.888252,0.676442 -3.560555,0.746532 -4.587859,0.4783 C 10.153407,65.979052 9.4415112,65.858169 8.9933785,65.8206 L 8.1785917,65.75229 v 0.365738 c 0,0.201155 -0.027489,0.437292 -0.061087,0.524747 -0.049,0.127545 0.2556029,0.15901 1.5393751,0.15901 1.4266322,0 1.6288162,0.02564 1.8615232,0.236047 0.198285,0.179287 0.244251,0.320095 0.191156,0.585569 -0.08654,0.432692 -0.661659,1.359135 -0.903966,1.456171 -0.398301,0.159506 -1.9907286,0.199252 -2.2577391,0.05635 -0.1486747,-0.07957 -0.298992,-0.115995 -0.3340382,-0.08095 -0.035046,0.03505 0.012185,0.374726 0.1049583,0.754844 0.1372527,0.562362 0.2233232,0.706219 0.4619816,0.772151 0.1613166,0.04456 0.5955303,0.166557 0.9649194,0.271093 0.369389,0.104536 1.040988,0.243916 1.492443,0.309733 0.451455,0.06582 1.223787,0.193718 1.716294,0.284223 1.168685,0.214766 1.927087,0.217558 4.23854,0.01561 z m 29.647623,-1.825201 c 0.359402,-0.377588 0.866581,-0.955164 1.127066,-1.283502 0.598528,-0.754435 0.835772,-0.885993 1.607185,-0.891235 0.513792,-0.0035 0.691251,0.05454 1.014862,0.33186 0.215704,0.184849 0.700312,0.507217 1.076905,0.716373 0.587405,0.326236 0.803752,0.380282 1.522293,0.380282 0.460667,0 0.837577,-0.02865 0.837577,-0.06367 0,-0.03502 -0.132904,-0.325941 -0.295341,-0.646496 -0.162438,-0.320555 -0.544793,-1.218713 -0.849678,-1.995906 -0.304885,-0.777192 -0.592293,-1.454606 -0.638684,-1.505363 -0.04639,-0.05076 -0.280182,-0.01046 -0.519535,0.08955 -0.500749,0.209226 -1.03969,0.230374 -1.636813,0.06423 -0.343296,-0.09552 -0.467145,-0.223818 -0.69386,-0.718778 -0.158194,-0.345363 -0.260105,-0.766212 -0.238791,-0.986094 0.03343,-0.344884 0.08538,-0.392075 0.514767,-0.467632 0.26267,-0.04622 0.786517,-0.08714 1.164106,-0.09092 0.377588,-0.0038 0.686524,-0.03025 0.686524,-0.05881 0,-0.02856 -0.0524,-0.189743 -0.116441,-0.358186 -0.102614,-0.269896 -0.184131,-0.306178 -0.686524,-0.305557 -1.314751,0.0016 -4.575147,0.672913 -6.957743,1.432544 -0.883266,0.281609 -1.662657,0.414648 -3.522167,0.601223 -1.31335,0.131777 -2.710278,0.295394 -3.104283,0.363594 -1.279442,0.221463 -2.576679,0.258506 -3.907262,0.111572 -0.717185,-0.0792 -1.325767,-0.122201 -1.352406,-0.09556 -0.02664,0.02664 0.225833,0.582361 0.561048,1.234939 l 0.609481,1.186504 -0.07502,1.253653 c -0.04126,0.689509 -0.109592,1.409725 -0.15185,1.60048 -0.07107,0.320792 -0.05536,0.341005 0.209258,0.269274 0.157351,-0.04265 2.320692,-0.142542 4.807424,-0.221972 l 4.52133,-0.14442 1.090259,0.285079 c 1.267939,0.331538 2.331675,0.575213 2.573232,0.589462 0.09329,0.0055 0.463678,-0.298929 0.823079,-0.676517 z M 10.44057,68.50114 c 0.370244,-0.187373 0.798615,-0.895341 0.638579,-1.055376 -0.06408,-0.06408 -0.639233,-0.100446 -1.2875035,-0.08141 l -1.1716875,0.0344 -0.1540686,0.445808 c -0.1427644,0.413097 -0.1351064,0.45909 0.1043717,0.626826 0.3151542,0.220743 1.4570219,0.238904 1.8703089,0.02975 z m 9.897847,-1.163937 c 0.28532,-0.129473 0.795736,-0.311218 1.134257,-0.403877 0.338522,-0.09266 0.991589,-0.304957 1.451262,-0.47177 0.905122,-0.328467 0.995965,-0.500344 0.591065,-1.1183 -0.279248,-0.426187 -0.748268,-0.339527 -2.166455,0.400292 -2.076792,1.08339 -2.318222,1.295707 -1.922898,1.69103 0.191307,0.191307 0.302811,0.179412 0.912769,-0.09737 z m -3.981234,-2.572926 c 1.029273,-0.247467 1.063654,-0.267147 0.871416,-0.498782 -0.122874,-0.148054 -0.155043,-1.51453 -0.155043,-6.585971 v -6.399157 l -0.85111,-0.06631 c -1.037966,-0.08087 -1.423877,-0.307489 -1.592968,-0.935447 -0.185273,-0.688052 -0.07739,-0.847929 0.576373,-0.854142 0.304895,-0.0029 0.822995,-0.07695 1.151332,-0.164565 l 0.596978,-0.159296 -0.04302,-0.641355 c -0.02366,-0.352745 0.01767,-1.984554 0.09184,-3.626242 0.07417,-1.641688 0.21675,-5.322054 0.316835,-8.178592 0.100085,-2.856537 0.213856,-5.632176 0.252824,-6.168085 l 0.07085,-0.974382 -0.702856,-0.08554 C 15.688309,29.274 15.222916,28.867645 15.222916,27.926599 c 0,-0.787254 0.150274,-0.874777 1.346502,-0.784243 0.539941,0.04086 1.054401,0.02866 1.143245,-0.02713 0.130397,-0.08188 0.145996,-0.466862 0.08092,-1.997115 -0.07657,-1.800647 0.0048,-2.875526 0.372004,-4.915207 l 0.07072,-0.392821 -0.820173,0.07568 c -0.933526,0.08614 -4.664355,0.571945 -6.028605,0.785015 l -0.910194,0.142155 -0.08666,2.898375 c -0.04766,1.594106 -0.05604,2.947915 -0.01862,3.008464 0.03742,0.06055 0.351686,0.140064 0.698366,0.176699 0.887468,0.09378 1.287002,0.269277 1.287002,0.56531 0,0.357563 -0.476536,1.715252 -0.63813,1.818081 -0.07587,0.04828 -0.420012,0.0886 -0.764767,0.08961 -0.344754,9.55e-4 -0.626826,0.05613 -0.626826,0.122509 0,0.06638 0.08256,0.633754 0.18347,1.260844 0.100909,0.627089 0.263201,1.956279 0.360649,2.953753 0.09745,0.997474 0.254835,2.431462 0.349749,3.186638 0.09491,0.755177 0.174617,1.964056 0.177118,2.686399 0.0025,0.722343 0.08428,2.172998 0.181739,3.223678 0.09746,1.050681 0.177828,2.931851 0.178606,4.18038 0.0014,2.238974 0.0051,2.271665 0.270055,2.38791 0.220224,0.09662 0.275054,0.228255 0.304233,0.730412 0.02611,0.449413 -0.01771,0.665853 -0.164535,0.812681 -0.176722,0.176722 -0.184398,0.300575 -0.06563,1.058983 0.258759,1.652353 0.493069,4.174783 0.493967,5.317727 5.02e-4,0.633995 0.0512,1.590033 0.112662,2.124528 0.06147,0.534495 0.14596,2.065743 0.187766,3.402772 0.04181,1.337029 0.09483,2.492777 0.117825,2.568331 0.04055,0.133203 0.739155,0.003 3.341799,-0.622733 z m 4.932679,-0.713409 c 0.529458,-0.100458 1.199258,-0.341778 1.701385,-0.612989 0.974871,-0.526551 0.930933,-0.305366 0.648101,-3.262547 -0.09735,-1.017847 -0.231395,-2.710278 -0.297879,-3.760959 -0.117763,-1.861072 -0.26323,-3.266478 -0.451064,-4.357895 -0.08281,-0.48114 -0.145492,-0.562366 -0.600326,-0.777869 -0.669087,-0.317017 -1.154303,-1.093641 -1.057186,-1.692105 0.102544,-0.631907 0.278118,-0.774321 0.906154,-0.73502 l 0.546098,0.03417 0.02861,-0.533879 c 0.01574,-0.293634 0.107269,-1.124888 0.203407,-1.847231 0.220397,-1.655993 0.492525,-4.015452 0.667869,-5.790682 0.207454,-2.10031 0.678178,-4.773043 1.075748,-6.108011 0.317258,-1.065289 0.789331,-3.303349 0.895916,-4.247468 0.06584,-0.583157 0.04844,-0.75466 -0.08042,-0.79276 -0.720442,-0.213022 -1.368862,-0.503299 -1.567108,-0.701544 -0.195286,-0.195287 -0.226921,-0.351563 -0.181659,-0.897383 0.07376,-0.8894 0.251044,-1.011297 1.398972,-0.961889 l 0.889195,0.03827 0.09344,-0.417885 c 0.05139,-0.229836 0.204086,-1.277532 0.339327,-2.328212 0.402279,-3.125316 0.59853,-4.383995 0.780599,-5.006432 0.307848,-1.052446 0.342117,-1.02139 -1.051576,-0.952979 -1.885625,0.09256 -2.996777,0.261875 -4.686273,0.714089 -0.853678,0.228497 -1.774247,0.473143 -2.04571,0.543658 -0.342493,0.08896 -0.536073,0.221499 -0.632436,0.432995 -0.394961,0.866842 -0.578267,3.865308 -0.380683,6.227056 l 0.07394,0.883827 0.755867,0.206347 c 0.415727,0.11349 0.808808,0.259288 0.873514,0.323994 0.132085,0.132085 -0.157665,1.412054 -0.36705,1.621439 -0.06849,0.06849 -0.442498,0.147519 -0.83114,0.175631 l -0.706619,0.05111 -0.06845,0.493915 c -0.154873,1.117599 -0.585924,13.385526 -0.602575,17.149586 l -0.0087,1.970026 0.298489,0.03343 c 0.633717,0.07097 0.799524,0.150243 0.934695,0.446913 0.364209,0.799348 0.01401,1.609083 -0.695903,1.609083 h -0.358186 l -0.02985,3.253527 c -0.01642,1.789441 -0.02985,4.750783 -0.02985,6.580763 v 3.327234 l 1.373048,-0.08282 c 0.755177,-0.04555 1.766003,-0.157379 2.24628,-0.248504 z m 30.263744,0.154062 c 0.184213,-0.13782 0.178568,-0.185802 -0.07374,-0.626827 -0.27294,-0.477081 -0.273954,-0.477557 -0.967211,-0.453156 -0.38169,0.01344 -0.719266,0.04971 -0.750165,0.08061 -0.121829,0.121829 0.277248,0.944929 0.502465,1.036339 0.367888,0.149314 1.066453,0.129276 1.288655,-0.03696 z m -14.123117,-0.594424 1.014862,-0.155971 0.0039,-4.833432 c 0.0037,-4.618635 0.01608,-4.884748 0.277984,-5.988193 l 0.27408,-1.154762 -0.253688,-0.253688 C 38.53375,51.010583 38.499494,50.854539 38.529341,50.230103 l 0.0354,-0.740669 0.453561,-0.0374 c 0.342715,-0.02826 0.478784,-0.103746 0.556771,-0.308869 0.149192,-0.392401 0.646097,-2.714903 1.024348,-4.787733 0.179745,-0.985013 0.563873,-2.7849 0.853617,-3.999749 0.289743,-1.214849 0.661052,-2.826689 0.825131,-3.581865 0.420034,-1.933201 0.933126,-3.935462 1.420653,-5.543857 0.229795,-0.758117 0.41781,-1.430196 0.41781,-1.493509 0,-0.06737 -0.238321,-0.08689 -0.5746,-0.04706 -0.540771,0.06405 -0.594329,0.04461 -0.909687,-0.330173 -0.305602,-0.36319 -0.329542,-0.459357 -0.272085,-1.093001 0.08736,-0.963462 0.177499,-1.045855 0.951803,-0.870042 0.828717,0.188169 1.181582,0.09166 1.304072,-0.356671 0.16339,-0.598032 0.56263,-3.495114 0.698784,-5.070728 0.07093,-0.820844 0.20643,-1.769353 0.301108,-2.107797 0.09468,-0.338445 0.172142,-0.850401 0.172142,-1.137681 v -0.522327 l -1.641688,0.03768 c -2.197773,0.05044 -5.811784,0.62982 -6.172025,0.989462 -0.06199,0.06188 -0.152389,1.496337 -0.200895,3.187673 -0.04851,1.691336 -0.143201,3.316932 -0.210435,3.612436 -0.197036,0.866009 -0.176709,0.955164 0.217772,0.955164 0.422335,0 0.983908,0.20047 1.107923,0.395505 0.150397,0.236526 0.104531,0.976941 -0.07578,1.223363 -0.137592,0.188036 -0.293748,0.226474 -0.827682,0.203734 l -0.658096,-0.02803 -0.133617,0.684703 c -0.07349,0.376587 -0.265842,1.159547 -0.427452,1.739909 -0.188608,0.67732 -0.358376,1.789015 -0.474056,3.104283 -0.376186,4.277226 -0.680431,6.393886 -1.247002,8.675528 -0.387737,1.561461 -0.783633,3.568581 -0.894909,4.537029 -0.0415,0.361171 -0.103742,0.804427 -0.138319,0.985013 -0.06061,0.316572 -0.04434,0.328578 0.454051,0.335076 1.116248,0.01455 1.645548,0.424268 1.649416,1.276763 0.003,0.666169 -0.323751,0.865617 -1.418212,0.865617 -0.69658,0 -0.959083,0.0435 -1.006385,0.166767 -0.134531,0.350585 -0.561738,9.127794 -0.559546,11.496213 l 0.0011,1.096478 0.328337,0.05572 c 0.537021,0.09114 2.87917,-0.01892 3.969901,-0.186553 z m -4.895806,-1.196509 c -3.59e-4,-0.673092 0.05245,-1.895403 0.117277,-2.716247 0.06483,-0.820844 0.174807,-2.916235 0.244398,-4.656425 0.06959,-1.740189 0.155521,-3.378893 0.190956,-3.641563 0.06385,-0.473295 0.05956,-0.479544 -0.477656,-0.696307 -0.646084,-0.260688 -0.741883,-0.487684 -0.539339,-1.277966 0.159242,-0.621332 0.377044,-0.790043 0.862599,-0.668176 0.143557,0.03603 0.316792,0.02745 0.384963,-0.01907 0.06817,-0.04652 0.189279,-0.614736 0.269126,-1.262706 0.16749,-1.359197 0.50193,-3.037958 0.978371,-4.911043 0.490348,-1.927757 0.739081,-3.68286 1.082925,-7.641311 0.164031,-1.88837 0.345291,-2.975371 0.754137,-4.522489 0.424576,-1.606646 0.417431,-1.700996 -0.136057,-1.796269 -1.041056,-0.179197 -1.119316,-0.211963 -1.235375,-0.517219 -0.06415,-0.168741 -0.08238,-0.535307 -0.0405,-0.814591 l 0.07615,-0.507789 0.883428,0.06681 c 0.485885,0.03675 0.883581,0.04562 0.883769,0.01973 2.39e-4,-0.0259 0.10749,-0.691818 0.238448,-1.479828 0.287532,-1.730152 0.351058,-5.916622 0.08955,-5.901377 -0.08208,0.0048 -0.6592,0.101469 -1.282478,0.214854 l -1.133236,0.206155 -0.16357,0.770158 c -0.16974,0.799203 -0.778567,2.742296 -1.434481,4.578192 -0.459051,1.284879 -2.627679,10.046685 -3.002601,12.131265 -0.147634,0.820844 -0.397784,2.029724 -0.555892,2.686399 -0.467989,1.943723 -0.571512,3.427001 -0.396632,5.682925 0.0835,1.077113 0.17343,2.629987 0.199849,3.450831 0.02642,0.820844 0.07751,1.573035 0.113529,1.671537 0.03602,0.0985 0.05787,1.716761 0.04855,3.596134 -0.01305,2.63288 0.02339,3.591863 0.158807,4.178842 0.09666,0.418991 0.241496,1.307563 0.321851,1.974605 0.131521,1.091777 0.175334,1.228447 0.439047,1.369582 0.161121,0.08623 0.447565,0.463076 0.636543,0.837439 0.343184,0.679846 0.47791,0.778802 1.0958,0.804866 l 0.328338,0.01385 -5.97e-4,-1.223804 z m 8.716462,0.795232 c 0.611428,-0.04727 1.560684,-0.243588 2.38791,-0.493855 0.755176,-0.22847 1.72228,-0.503917 2.149119,-0.612104 l 0.776071,-0.196704 -0.0053,-0.537279 c -0.0029,-0.295504 -0.124803,-1.208173 -0.270901,-2.028155 -0.35177,-1.974309 -0.451887,-4.245192 -0.260626,-5.911646 0.218943,-1.90765 0.230907,-1.786152 -0.179579,-1.823672 -0.911285,-0.08329 -0.895466,-0.06485 -0.895466,-1.044095 0,-0.630549 0.04388,-0.895621 0.149244,-0.901455 0.08208,-0.0045 0.444062,-0.01798 0.804395,-0.02985 l 0.655149,-0.02159 0.09759,-0.656675 c 0.302007,-2.032132 1.113171,-5.715831 1.81228,-8.230032 0.09917,-0.35663 0.265626,-1.270006 0.369912,-2.029724 0.104284,-0.759718 0.264078,-1.730537 0.355097,-2.157376 0.375491,-1.760884 1.355015,-6.042452 1.421012,-6.21134 0.04909,-0.125625 -0.04043,-0.223953 -0.289501,-0.317966 -0.343164,-0.129529 -0.361532,-0.171183 -0.38047,-0.862845 -0.01095,-0.399708 -0.02438,-0.820767 -0.02985,-0.935685 -0.008,-0.16809 0.118341,-0.220615 0.646195,-0.26864 l 0.656144,-0.0597 0.315882,-1.31335 c 1.007648,-4.189506 1.18442,-4.97973 1.299053,-5.807123 0.06949,-0.501549 0.178048,-1.092202 0.241247,-1.312563 0.0632,-0.22036 0.114905,-0.683081 0.114905,-1.028269 v -0.627615 l -1.164106,0.01014 c -0.640259,0.0056 -2.158074,0.07274 -3.372923,0.149244 l -2.208817,0.139104 -0.07891,0.716373 c -0.0434,0.394005 -0.163355,1.092469 -0.266567,1.552142 -0.103211,0.459672 -0.189653,1.104408 -0.192094,1.432746 -0.0024,0.328337 -0.05629,0.946209 -0.119666,1.373048 -0.06338,0.426839 -0.222107,1.495344 -0.352735,2.374456 -0.13063,0.879112 -0.208862,1.644735 -0.17385,1.701386 0.03501,0.05665 0.241956,0.103 0.459876,0.103 0.541693,0 0.686624,0.225302 0.754415,1.172769 0.07702,1.07649 -0.06772,1.238121 -1.021546,1.140744 l -0.68046,-0.06947 -0.334136,1.116646 c -0.765173,2.557107 -1.039616,3.581398 -1.338878,4.996997 -0.173528,0.820844 -0.578033,2.540139 -0.898899,3.820656 -0.320867,1.280517 -0.748543,3.265245 -0.950391,4.410508 -0.368427,2.090403 -0.84463,4.382013 -1.063441,5.11754 -0.133037,0.447201 -0.136939,0.444357 0.756364,0.551342 0.759534,0.09096 1.046288,0.345879 0.99953,0.888557 -0.03426,0.397563 -0.06789,0.4245 -0.864817,0.692626 -0.456047,0.153438 -0.94986,0.278977 -1.097362,0.278977 -0.351653,0 -0.42311,0.12866 -0.663116,1.193955 -0.353366,1.568457 -0.503736,4.861925 -0.358456,7.851008 0.07103,1.461516 0.165332,2.71584 0.20955,2.787384 0.04863,0.07868 0.275334,0.103566 0.573708,0.06298 0.271323,-0.03691 0.950003,-0.102408 1.508177,-0.145558 z M 25.20628,62.08566 l 0.518114,-0.477582 1.405566,-0.02701 c 0.773061,-0.01486 1.633908,-0.02491 1.912995,-0.02235 0.502929,0.0046 0.50743,8.36e-4 0.50729,-0.420719 -7.7e-5,-0.233962 -0.082,-0.828346 -0.182054,-1.320853 -0.393664,-1.937806 -0.442774,-2.586989 -0.38387,-5.074309 0.03266,-1.379018 0.02333,-2.641087 -0.02072,-2.804598 -0.06009,-0.22302 -0.18322,-0.31444 -0.492878,-0.365929 -0.817232,-0.135887 -1.188854,-0.496299 -1.188854,-1.152993 0,-0.607693 0.29291,-0.870184 0.971025,-0.870184 h 0.599299 l -0.05201,-0.925315 c -0.02861,-0.508923 -0.117464,-1.823426 -0.197459,-2.921116 -0.169308,-2.323219 -0.05799,-3.891849 0.398972,-5.622184 0.159467,-0.603838 0.430048,-1.876942 0.601291,-2.829121 0.318307,-1.769919 0.938018,-4.487363 1.451108,-6.36314 0.157972,-0.577524 0.287223,-1.091213 0.287223,-1.141535 0,-0.05032 -0.282072,-0.162095 -0.626827,-0.248385 -0.344754,-0.08629 -0.72085,-0.239095 -0.835768,-0.339566 -0.445121,-0.389159 -0.105747,-1.748652 0.472768,-1.89385 0.162298,-0.04073 0.518563,-0.0019 0.7917,0.08624 0.273139,0.08817 0.542869,0.162374 0.599402,0.164902 0.05653,0.0025 0.228905,-0.432255 0.383051,-0.966187 0.154147,-0.533932 0.502684,-1.554763 0.774527,-2.268514 0.271844,-0.713752 0.672246,-1.996194 0.889783,-2.849872 0.217537,-0.853678 0.480914,-1.751896 0.585282,-1.99604 0.104368,-0.244144 0.18976,-0.635001 0.18976,-0.868572 0,-0.352837 -0.05554,-0.446199 -0.328338,-0.551917 -0.83882,-0.325074 -3.640617,-0.227702 -5.845647,0.203156 -0.466588,0.09117 -0.793998,1.564557 -1.470216,6.616145 -0.136251,1.017846 -0.276919,2.017675 -0.312596,2.221843 -0.05509,0.315274 -0.02272,0.382496 0.214856,0.446102 0.153847,0.04119 0.392284,0.07562 0.529857,0.07652 0.523953,0.0034 0.840414,0.732361 0.6373,1.467978 -0.169826,0.615061 -0.509526,0.820925 -1.202854,0.728952 l -0.559364,-0.0742 -0.08174,0.700534 c -0.105169,0.901335 -0.608177,3.187329 -0.959935,4.362562 -0.322207,1.076498 -0.796027,3.867716 -1.070721,6.307496 -0.107205,0.952179 -0.303327,2.590882 -0.435824,3.641562 -0.598528,4.746247 -0.606697,4.434384 0.118756,4.534159 0.398067,0.05475 0.757826,0.216366 1.164106,0.522963 0.527391,0.397992 0.599087,0.508666 0.695592,1.073763 0.156613,0.917072 0.02429,1.013996 -1.159552,0.84934 -0.505943,-0.07037 -0.965979,-0.09947 -1.0223,-0.06466 -0.05632,0.03481 -0.03568,0.480981 0.04587,0.991494 0.08155,0.510513 0.209495,1.787853 0.284324,2.838533 0.07483,1.050681 0.187094,2.39388 0.249475,2.984888 0.06238,0.591008 0.176351,1.759591 0.253264,2.596852 0.07745,0.843059 0.193166,1.522293 0.25935,1.522293 0.06573,0 0.352658,-0.214912 0.637622,-0.477582 z m 23.686177,-0.65495 c 0.623841,-0.09892 1.362601,-0.180075 1.641688,-0.180339 0.621329,-5.97e-4 0.619954,0.01582 0.145202,-1.731715 -0.661466,-2.43482 -0.831754,-4.009434 -0.831487,-7.688573 2.38e-4,-4.112751 0.206093,-5.693536 1.486025,-11.414707 0.08815,-0.394005 0.331562,-1.361108 0.540925,-2.149119 0.209363,-0.78801 0.477539,-1.862569 0.595947,-2.38791 0.118408,-0.52534 0.38233,-1.599899 0.586495,-2.387909 0.37966,-1.465369 0.951971,-4.57865 1.273002,-6.924939 0.09884,-0.722343 0.254648,-1.662583 0.346253,-2.089422 0.0916,-0.426839 0.25591,-1.31335 0.365124,-1.970025 0.109213,-0.656676 0.299706,-1.677507 0.423318,-2.268515 0.442157,-2.114037 0.452297,-2.195799 0.289121,-2.331223 -0.08804,-0.07307 -0.549898,-0.111967 -1.089462,-0.09176 -0.86366,0.03234 -0.934063,0.054 -0.903632,0.278024 0.0784,0.577192 -0.515186,3.786315 -1.276067,6.898793 -0.334161,1.366925 -0.607565,2.527004 -0.607565,2.577953 0,0.05095 0.214036,0.156763 0.475634,0.23514 0.562116,0.168413 0.718321,0.411592 0.718321,1.118277 0,0.770309 -0.192635,0.958621 -1.043593,1.020174 l -0.717494,0.0519 -0.144324,0.481713 c -0.07938,0.264942 -0.2971,1.158914 -0.483825,1.986604 -0.186725,0.82769 -0.478469,2.104822 -0.64832,2.838071 -0.169851,0.73325 -0.43922,2.210769 -0.5986,3.283377 -0.159381,1.072607 -0.456904,2.487475 -0.661165,3.14415 -0.309854,0.996151 -1.331579,5.778134 -1.610361,7.536977 -0.07766,0.489974 -0.07577,0.493077 0.348698,0.572709 0.483465,0.0907 0.759805,0.429424 0.861478,1.05596 0.08299,0.511409 -0.0381,0.601916 -0.914082,0.683227 l -0.656675,0.06095 -0.141751,0.895467 c -0.292759,1.849407 -0.112657,6.12978 0.321632,7.644059 0.06523,0.227458 0.118607,0.673392 0.118607,0.990963 0,0.566768 0.0061,0.576153 0.328338,0.509465 0.180586,-0.03737 0.838753,-0.148876 1.462595,-0.247797 z M 25.132753,51.049349 c 0,-0.488217 -0.669112,-1.012459 -1.529285,-1.19818 l -0.395027,-0.08529 0.03684,0.577535 c 0.03405,0.533827 0.06395,0.58329 0.395027,0.653572 0.42232,0.08965 1.492444,0.127197 1.492444,0.05236 z m 3.773732,-0.256329 c -0.03986,-0.103872 -0.07247,-0.29192 -0.07247,-0.417885 0,-0.1876 -0.08638,-0.229025 -0.477582,-0.229025 -0.41875,0 -0.477582,0.03383 -0.477582,0.274609 0,0.384137 0.218716,0.561159 0.693329,0.561159 0.321875,0 0.391653,-0.03942 0.334307,-0.188858 z m 12.016322,-0.181868 c 0.722223,-0.236992 0.594859,-0.358033 -0.535871,-0.50927 -0.419348,-0.05609 -0.452565,-0.03671 -0.5496,0.320603 -0.165628,0.609896 -0.186928,0.606194 1.085471,0.188667 z m 5.462344,0.01254 c 0,-0.338287 -0.02653,-0.358187 -0.477582,-0.358187 -0.45105,0 -0.477582,0.0199 -0.477582,0.358187 0,0.338286 0.02653,0.358186 0.477582,0.358186 0.45105,0 0.477582,-0.0199 0.477582,-0.358186 z m 1.432746,0.290639 c 0,-0.245457 -0.290437,-0.52943 -0.54148,-0.52943 -0.23431,0 -0.294288,0.06083 -0.294288,0.298488 0,0.261534 0.05174,0.298489 0.417884,0.298489 0.229837,0 0.417884,-0.0304 0.417884,-0.06755 z M 17.072302,50.625723 c 0.03989,-0.06455 0.03648,-0.309549 -0.0076,-0.54444 -0.06287,-0.335135 -0.121951,-0.409109 -0.274431,-0.343618 -0.106871,0.0459 -0.504105,0.10937 -0.882743,0.141043 -0.768305,0.06427 -0.86797,0.134295 -0.638255,0.448447 0.217134,0.296949 1.656687,0.535329 1.803014,0.298568 z m 5.529536,-0.509462 c -0.03519,-0.611268 -0.04572,-0.627755 -0.424124,-0.66424 -0.337928,-0.03258 -0.388035,-0.0013 -0.388035,0.242074 0,0.397603 0.462783,1.041635 0.752461,1.047164 0.05268,9.55e-4 0.07955,-0.280244 0.0597,-0.624998 z m 16.689728,-0.0592 c -0.152597,-0.152598 -0.330974,0.189639 -0.242394,0.465066 l 0.09026,0.280658 0.113128,-0.3358 c 0.06222,-0.18469 0.07977,-0.369157 0.039,-0.409924 z m -20.964357,0.212644 c 0,-0.232995 -0.08246,-0.398117 -0.241259,-0.483102 -0.319672,-0.171085 -0.475114,-0.05767 -0.475114,0.346654 0,0.403751 0.07738,0.490435 0.437784,0.490435 0.229212,0 0.278589,-0.06274 0.278589,-0.353987 z M 11.26059,50.116261 c -0.03416,-0.354259 -0.07639,-0.391262 -0.485146,-0.425092 -0.425935,-0.03525 -0.447733,-0.01965 -0.447733,0.320407 0,0.361598 0.0435,0.386988 0.813484,0.474831 0.107543,0.01227 0.145055,-0.104023 0.119395,-0.370146 z M 7.1325626,50.082793 C 7.0745566,49.779354 6.7232851,49.492096 6.5824509,49.63293 c -0.041468,0.04147 -0.075396,0.227625 -0.075396,0.413684 0,0.292633 0.046104,0.338287 0.3416297,0.338287 0.3011151,0 0.3347808,-0.03583 0.283878,-0.302108 z m 28.3649044,-0.0779 c 0.04844,-0.419309 -0.286287,-0.599281 -1.026081,-0.551686 -0.558352,0.03592 -0.563377,0.04002 -0.600455,0.489585 l -0.03739,0.45336 0.813463,-0.03548 c 0.783342,-0.03416 0.814833,-0.04734 0.850466,-0.355783 z m -23.65545,-5.97e-4 c -0.03811,-0.09525 -0.0664,-0.06696 -0.07213,0.07213 -0.0052,0.125862 0.02303,0.196381 0.06271,0.156707 0.03967,-0.03967 0.04392,-0.142654 0.0094,-0.228842 z m 21.45387,-0.109272 c 0.04075,-0.203746 0.04429,-0.418658 0.0079,-0.477582 -0.137019,-0.221703 -0.537775,-0.100647 -0.67678,0.204436 -0.121862,0.267458 -0.109817,0.33507 0.08508,0.477582 0.348371,0.254734 0.502807,0.200656 0.583825,-0.204436 z M 50.841396,29.401142 c 0.02899,-0.04925 0.09015,-0.264163 0.135928,-0.477582 0.07294,-0.340063 0.05253,-0.388036 -0.165052,-0.388036 -0.210061,0 -0.248278,0.07351 -0.248278,0.477582 0,0.429695 0.138696,0.623706 0.277402,0.388036 z M 27.520663,28.645651 c 0,-0.256423 -0.06672,-0.334431 -0.328338,-0.383902 -0.180586,-0.03415 -0.442406,-0.09846 -0.581821,-0.142909 -0.219315,-0.06993 -0.264612,-0.0215 -0.336037,0.359225 -0.09646,0.514166 -0.06954,0.552491 0.509746,0.725667 0.511455,0.152899 0.73645,-0.0176 0.73645,-0.558081 z m 24.884196,0.65317 c 0.380246,-0.145913 0.09905,-1.005796 -0.327101,-1.00026 -0.352934,0.0046 -0.691536,0.641648 -0.503097,0.94655 0.08566,0.138597 0.533487,0.167569 0.830198,0.05371 z M 44.30974,28.972089 c 0.0077,-0.01028 0.05044,-0.22016 0.09496,-0.466414 l 0.08095,-0.447733 -0.602388,-0.01791 c -0.331313,-0.0099 -0.669548,-0.02328 -0.751632,-0.02985 -0.204203,-0.01634 -0.262567,0.734747 -0.07469,0.96113 0.114813,0.138343 0.279705,0.16218 0.69467,0.100427 0.299266,-0.04453 0.550425,-0.08938 0.558131,-0.09965 z m 1.597829,-0.436565 V 27.938547 H 45.49196 c -0.426715,0 -0.465165,0.05265 -0.566042,0.775123 -0.03261,0.233524 -0.0062,0.245434 0.892105,0.403115 0.04925,0.0086 0.08955,-0.252923 0.08955,-0.581261 z M 25.79048,28.408485 c 0.04574,-0.332543 0.05265,-0.635123 0.01538,-0.672402 -0.03728,-0.03728 -0.378593,-0.07414 -0.758476,-0.0819 l -0.690697,-0.01412 -0.03607,0.431178 c -0.03227,0.385793 0.0054,0.45053 0.358187,0.615047 0.339954,0.158544 0.645002,0.259021 0.95018,0.312973 0.04309,0.0076 0.115764,-0.258229 0.161501,-0.590771 z m 5.78963,0.435293 c 0,-0.09313 0.03177,-0.25212 0.0706,-0.353311 0.04725,-0.123143 -0.06132,-0.26441 -0.328337,-0.427203 -0.704283,-0.429379 -1.055614,-0.289956 -1.055614,0.418914 0,0.219308 0.08976,0.311229 0.388035,0.397351 0.585481,0.169052 0.925316,0.155922 0.925316,-0.03575 z M 17.78091,28.38721 c 0.06071,-0.245741 0.08757,-0.46935 0.0597,-0.49691 -0.02787,-0.02756 -0.493934,-0.08864 -1.035691,-0.135743 l -0.985013,-0.08563 v 0.355099 c 0,0.586603 0.503591,0.864839 1.492443,0.824576 0.31023,-0.01263 0.372964,-0.07441 0.468563,-0.461387 z m 1.604061,0.347647 c 0.07251,-0.08737 0.146249,-0.285709 0.163863,-0.440756 0.02785,-0.245113 -0.03635,-0.295845 -0.491852,-0.388707 -0.399046,-0.08135 -0.547977,-0.06879 -0.624999,0.05272 -0.120938,0.190793 -0.137208,0.743966 -0.02518,0.855997 0.141295,0.141297 0.842258,0.0845 0.978164,-0.07926 z m -7.791462,-0.552759 c 0.08611,-0.292884 0.131979,-0.557109 0.101923,-0.587165 -0.03006,-0.03006 -0.350089,-0.07915 -0.711184,-0.109092 l -0.656537,-0.05445 v 0.591863 c 0,0.325525 0.03835,0.63021 0.08521,0.677079 0.04687,0.04687 0.296445,0.06925 0.554614,0.04975 0.443347,-0.0335 0.478089,-0.06502 0.625969,-0.567986 z M 9.7071239,28.028093 9.6710354,27.401267 9.1068693,27.364997 c -0.5384876,-0.03462 -0.5716945,-0.01831 -0.7295609,0.358187 -0.090967,0.216951 -0.1395782,0.440058 -0.1080247,0.495793 0.094255,0.16649 0.7805232,0.426257 1.1393515,0.43127 0.3291018,0.0046 0.3339865,-0.0056 0.2984887,-0.622154 z m 28.6687401,0.04814 c 0.161276,-0.301346 -0.05502,-0.495874 -0.55137,-0.495874 -0.3375,0 -0.394005,0.04155 -0.394005,0.289735 0,0.427527 0.74048,0.588989 0.945375,0.206139 z M 5.1227146,27.956817 C 5.2403524,27.766475 4.537954,27.241017 4.059447,27.161396 3.7967769,27.117688 3.487841,27.056134 3.3729229,27.024609 c -0.170911,-0.04688 -0.2089422,0.02091 -0.2089422,0.37246 0,0.334103 0.059802,0.453815 0.2686399,0.537757 0.3442582,0.138375 1.6080023,0.154818 1.690094,0.02199 z M 36.811967,27.729605 c 0.03295,-0.232048 -0.01584,-0.268862 -0.358187,-0.27027 -0.217986,-9.55e-4 -0.517227,-0.03403 -0.664979,-0.07362 -0.227244,-0.0609 -0.26864,-0.02502 -0.26864,0.232857 0,0.254044 0.06467,0.313211 0.388035,0.355025 0.68543,0.08863 0.863353,0.0406 0.903771,-0.243988 z M 3.72628,21.130568 c 0.6617657,-0.152726 2.5461224,-0.414943 5.0950587,-0.709002 1.1360221,-0.131057 3.1620033,-0.39919 4.5021803,-0.595851 1.340178,-0.196661 3.04153,-0.413838 3.780784,-0.482616 0.845705,-0.07868 2.197097,-0.340048 3.644524,-0.704871 2.520642,-0.635325 2.65009,-0.654527 6.11516,-0.907104 1.313351,-0.09573 2.661129,-0.226052 2.995064,-0.289597 1.329778,-0.253047 2.935613,-0.286584 3.924759,-0.08197 0.522526,0.10809 1.074755,0.27824 1.227176,0.378109 0.34106,0.223471 0.448244,0.162183 0.749672,-0.428664 0.306923,-0.601618 0.299011,-0.84732 -0.0614,-1.906984 -0.347984,-1.023114 -0.400929,-2.107585 -0.113168,-2.318001 0.164353,-0.120178 0.154102,-0.182454 -0.09061,-0.550442 -0.553962,-0.833029 -2.099976,-1.275208 -4.02301,-1.15063 -3.064001,0.198493 -3.831524,0.302758 -8.130647,1.104516 -0.492506,0.09185 -1.701386,0.304404 -2.686399,0.472343 -0.985013,0.16794 -2.178195,0.383181 -2.651516,0.478314 -0.473321,0.09513 -1.233834,0.172968 -1.690029,0.172968 -0.456196,0 -1.519588,0.08032 -2.363095,0.178481 -0.98096,0.114162 -2.544788,0.174632 -4.3394433,0.167799 -2.2275497,-0.0085 -2.9411281,0.02826 -3.4624695,0.178288 -0.3611714,0.103934 -0.8024117,0.189608 -0.980534,0.190388 -0.5041388,0.0022 -1.5387741,0.434811 -2.051669,0.857851 l -0.4651998,0.383701 0.065593,2.589838 c 0.060628,2.393802 0.1569912,3.101085 0.4212744,3.092047 0.04694,-0.0016 0.3115164,-0.05512 0.5879473,-0.118912 z m 32.689347,-2.144927 c 0.591008,-0.128644 1.531248,-0.372396 2.089421,-0.541673 1.35495,-0.410913 2.990775,-0.646542 5.372798,-0.773914 1.083514,-0.05794 2.856537,-0.173573 3.940051,-0.256968 1.083515,-0.08339 3.380385,-0.14796 5.104158,-0.14348 l 3.134132,0.0081 v -1.81741 c 0,-1.584144 -0.03269,-1.896078 -0.25471,-2.430311 l -0.254709,-0.612899 h -2.958015 c -1.837573,0 -3.493557,0.06503 -4.371867,0.171689 -0.777618,0.09443 -2.569002,0.197451 -3.980854,0.228938 -1.411851,0.03149 -2.916235,0.11315 -3.343074,0.181472 -3.290282,0.526658 -4.338173,0.644356 -4.551381,0.511205 -0.121659,-0.07598 -0.253564,-0.13814 -0.293121,-0.13814 -0.134051,0 0.04025,1.367957 0.303114,2.378895 l 0.26154,1.005848 -0.49256,0.994027 c -0.416988,0.841517 -0.537469,0.994027 -0.785266,0.994027 -0.213108,0 -0.292705,0.06494 -0.292705,0.238791 0,0.292433 0.03742,0.292481 1.373048,0.0018 z"
       id="path249" /><path
       style="fill:#ffffff;fill-rule:evenodd;stroke-width:0.0596978"
       d="M 13.256712,68.827843 C 13.09464,68.800719 12.89316,68.72843 12.808979,68.667201 12.58009,68.500719 12.387283,68.07835 12.387283,67.74342 c 0,-0.240841 0.03104,-0.320128 0.194018,-0.495537 0.417697,-0.449564 1.549459,-0.646589 2.552079,-0.444281 1.282964,0.258875 1.671537,0.45706 1.671537,0.852538 0,0.158559 -0.06371,0.285143 -0.449525,0.893111 -0.203641,0.320898 -0.299521,0.340792 -1.610048,0.33405 -0.656675,-0.0034 -1.326559,-0.02833 -1.488632,-0.05546 z m 2.607692,-0.578391 c 0.05107,-0.05746 0.133787,-0.203613 0.183816,-0.324787 0.0746,-0.180685 0.07691,-0.231979 0.01284,-0.28515 -0.161579,-0.134099 -0.743494,-0.245035 -1.47053,-0.280342 -0.826503,-0.04014 -1.267364,0.02699 -1.480323,0.225387 -0.128418,0.11964 -0.164722,0.37697 -0.07349,0.520905 0.09136,0.14414 0.733621,0.232772 1.744145,0.240693 0.874407,0.0069 1.001583,-0.0045 1.083539,-0.09671 z"
       id="path251" /><path
       style="fill:#ffffff;fill-rule:evenodd;stroke-width:0.0596978"
       d="m 27.336805,65.184922 c -0.206963,-0.106441 -0.338814,-0.403073 -0.369444,-0.831154 -0.03245,-0.453565 0.04601,-0.75917 0.241621,-0.941153 0.150689,-0.140187 0.767929,-0.28252 1.609791,-0.371212 0.762003,-0.08028 0.867258,-0.0755 0.97417,0.04419 0.261277,0.292522 0.444726,0.58509 0.477966,0.76227 0.02038,0.108618 0.08739,0.251525 0.148925,0.317572 0.194262,0.208517 0.353902,0.511441 0.354133,0.671989 4.59e-4,0.320618 -0.07534,0.336788 -1.760861,0.375604 -1.052752,0.02424 -1.592089,0.0152 -1.676301,-0.02811 z m 2.064337,-0.532902 c 0.213419,-6.52e-4 0.422385,-0.02298 0.464369,-0.04963 0.123004,-0.07806 -0.103889,-0.506938 -0.411376,-0.777599 l -0.26614,-0.234266 -0.47548,0.05329 c -0.639851,0.07171 -0.962541,0.14155 -1.071366,0.231866 -0.112364,0.09325 -0.124095,0.658366 -0.01601,0.77154 0.05697,0.05965 0.229982,0.0696 0.731297,0.04206 0.361171,-0.01984 0.831291,-0.03661 1.044711,-0.03727 z"
       id="path253" /><path
       style="fill:#ffffff;fill-rule:evenodd;stroke-width:0.0596978"
       d="m 35.095061,67.018065 c -0.265704,-0.120711 -0.500215,-0.451201 -0.500215,-0.704937 0,-0.114809 0.04001,-0.340617 0.0889,-0.501796 0.0489,-0.161178 0.08919,-0.363305 0.08955,-0.44917 9.62e-4,-0.232486 0.213914,-0.470708 0.420777,-0.470708 0.09497,0 0.287785,-0.03697 0.428476,-0.08215 0.640499,-0.205696 0.820256,-0.226816 1.754732,-0.206169 0.790653,0.01747 0.983481,0.03978 1.157619,0.133965 0.114919,0.06215 0.240089,0.155522 0.278157,0.207488 0.100778,0.13757 0.199425,0.686898 0.199425,1.110523 0,0.316073 -0.02118,0.387568 -0.150899,0.509436 -0.156269,0.146806 -0.284293,0.17411 -1.371393,0.29247 -0.295504,0.03217 -0.685032,0.08795 -0.865618,0.123942 -0.56942,0.113498 -1.321214,0.131738 -1.529508,0.03711 z m 1.432567,-0.600108 c 0.299571,-0.04694 0.822828,-0.118811 1.162793,-0.159725 0.805041,-0.09688 0.853892,-0.143967 0.716303,-0.690381 -0.09892,-0.392849 -0.277773,-0.454898 -1.209365,-0.419563 -0.397119,0.01506 -0.82949,0.05618 -0.960825,0.09137 -0.131335,0.03519 -0.386413,0.100849 -0.566839,0.145902 -0.313324,0.07824 -0.330225,0.09243 -0.376555,0.316258 -0.108112,0.522306 -0.112442,0.615569 -0.03276,0.705679 0.104568,0.118256 0.555457,0.121976 1.26725,0.01046 z"
       id="path255" /><path
       style="fill:#ffffff;fill-rule:evenodd;stroke-width:0.0596978"
       d="m 42.796484,66.0373 c -0.353602,-0.145613 -0.439057,-0.235101 -0.629211,-0.658905 -0.17867,-0.398208 -0.209288,-0.574951 -0.110208,-0.636186 0.03283,-0.02029 0.0597,-0.112612 0.0597,-0.205155 0,-0.343817 0.252524,-0.411025 1.815543,-0.483196 0.62096,-0.02867 1.260302,-0.08029 1.42076,-0.114699 0.160458,-0.03441 0.597405,-0.06257 0.970994,-0.06257 0.662704,0 0.682268,0.0038 0.802981,0.157295 0.106201,0.135012 0.123729,0.240808 0.123729,0.746806 0,0.515432 -0.01499,0.602344 -0.119272,0.691635 -0.132578,0.113517 -0.677314,0.24478 -1.044834,0.25177 -0.290709,0.0055 -0.743334,0.125852 -1.104409,0.293589 -0.233046,0.108262 -0.379376,0.124529 -1.104408,0.122773 -0.645471,-0.0016 -0.891688,-0.02505 -1.081362,-0.10316 z m 2.090733,-0.606052 c 0.27431,-0.125636 0.578175,-0.201732 1.053274,-0.263768 0.367256,-0.04795 0.693144,-0.112596 0.724197,-0.143648 0.03105,-0.03105 0.04802,-0.174281 0.03771,-0.318285 l -0.01875,-0.261826 -0.555082,0.0083 c -0.305295,0.0046 -0.735119,0.05133 -0.955164,0.103885 -0.220045,0.05255 -0.641858,0.135342 -0.937362,0.183983 -0.692857,0.114047 -1.413754,0.31129 -1.46993,0.402185 -0.02422,0.03918 -0.01788,0.120098 0.01407,0.179809 0.105718,0.197536 0.407245,0.275908 1.081254,0.281034 0.588182,0.0045 0.671612,-0.0095 1.02579,-0.171709 z"
       id="path257" /></g></svg>
