<?xml version="1.0" encoding="UTF-8" standalone="no"?>
<!-- Created with Inkscape (http://www.inkscape.org/) -->

<svg
   width="75"
   height="100"
   viewBox="0 0 75 100"
   version="1.1"
   id="svg5"
   inkscape:version="1.2.1 (9c6d41e410, 2022-07-14)"
   sodipodi:docname="armor_circlet.svg"
   xml:space="preserve"
   xmlns:inkscape="http://www.inkscape.org/namespaces/inkscape"
   xmlns:sodipodi="http://sodipodi.sourceforge.net/DTD/sodipodi-0.dtd"
   xmlns="http://www.w3.org/2000/svg"
   xmlns:svg="http://www.w3.org/2000/svg"><sodipodi:namedview
     id="namedview7"
     pagecolor="#ffffff"
     bordercolor="#999999"
     borderopacity="1"
     inkscape:pageshadow="0"
     inkscape:pageopacity="0"
     inkscape:pagecheckerboard="0"
     inkscape:document-units="px"
     showgrid="false"
     height="70mm"
     units="px"
     inkscape:zoom="5.9223906"
     inkscape:cx="11.566275"
     inkscape:cy="102.8301"
     inkscape:window-width="3840"
     inkscape:window-height="2066"
     inkscape:window-x="-11"
     inkscape:window-y="-11"
     inkscape:window-maximized="1"
     inkscape:current-layer="layer1"
     inkscape:showpageshadow="2"
     inkscape:deskcolor="#d1d1d1" /><defs
     id="defs2" /><g
     inkscape:label="Layer 1"
     inkscape:groupmode="layer"
     id="layer1"><path
       style="fill:#ffffff;fill-rule:evenodd;stroke-width:0.168851"
       d="m 41.706131,67.033741 c -0.168089,-0.185735 -0.381486,-0.337701 -0.474217,-0.337701 -0.09273,0 -0.555846,-0.180886 -1.029147,-0.401969 -0.4733,-0.221084 -1.685306,-0.614529 -2.693345,-0.874321 -1.831627,-0.472051 -2.989441,-1.03479 -4.27631,-2.078438 -0.354706,-0.287664 -1.246549,-0.999228 -1.981875,-1.58125 -0.735325,-0.582024 -1.548429,-1.324163 -1.806897,-1.649201 -0.556946,-0.700387 -0.820958,-2.062689 -0.822866,-4.245989 -0.0013,-1.459238 -0.0016,-1.460209 -0.598128,-1.983996 -0.328268,-0.288224 -0.658283,-0.524044 -0.733368,-0.524044 -0.07508,0 -0.212796,0.716336 -0.30603,1.591858 -0.116683,1.095719 -0.305103,1.871956 -0.604543,2.490549 -0.239265,0.494279 -0.528113,1.392578 -0.641886,1.996219 -0.113772,0.603642 -0.421271,1.527838 -0.683332,2.053771 -0.420726,0.844356 -0.5886,1.007574 -1.434777,1.394967 -1.259524,0.576627 -2.041835,0.686721 -3.134405,0.441095 -1.993636,-0.448197 -3.769496,-1.441102 -5.415077,-3.027633 l -0.970892,-0.936053 v 0.510326 c 0,0.673235 -0.754317,2.163947 -1.443937,2.853567 -0.30286,0.302859 -0.982614,0.797796 -1.510564,1.099858 C 10.245401,64.339789 10.10608,64.36952 8.9440335,64.294944 7.4588576,64.199631 5.5784922,63.373556 3.6440894,61.96659 2.269093,60.966501 0.42212684,58.925946 0.42212684,58.406918 c 0,-1.031391 0.72911006,-1.253685 2.10939566,-0.643119 0.6088008,0.269302 1.2736875,0.374837 2.7652886,0.438924 l 1.9637705,0.08438 0.3664988,-0.903264 c 0.2015743,-0.496794 0.4464256,-1.481162 0.544114,-2.187484 0.1579204,-1.14182 0.9277158,-3.434278 1.4154791,-4.215312 0.098401,-0.157564 0.4131045,-0.426562 0.6993415,-0.597774 0.800937,-0.479075 3.329824,-0.399975 4.994976,0.156237 0.69651,0.232655 1.295804,0.394097 1.331764,0.35876 0.03596,-0.03534 0.125932,-0.693343 0.199934,-1.462238 0.16429,-1.706973 0.545894,-3.012275 1.001063,-3.424198 0.187587,-0.169763 0.450641,-0.67764 0.584567,-1.128614 0.337036,-1.134926 1.201126,-2.707694 1.804925,-3.28522 0.489776,-0.468467 0.555954,-0.482503 2.223605,-0.471604 1.481522,0.0097 1.876526,0.07641 2.861275,0.483387 0.62836,0.259684 1.274214,0.637931 1.435232,0.840548 0.180634,0.2273 0.616107,0.431772 1.137015,0.533875 l 0.844254,0.165481 0.885055,-0.792473 c 0.931698,-0.834235 1.754355,-1.151814 2.144634,-0.827912 0.152865,0.126867 0.249492,0.692612 0.288572,1.68958 0.03231,0.824367 0.116804,1.556806 0.187757,1.627642 0.268599,0.268164 2.395153,-0.317042 3.224745,-0.887417 0.451544,-0.310453 0.900988,-0.564459 0.998764,-0.564459 0.09778,0 0.646361,-0.436902 1.219074,-0.970892 0.572713,-0.533991 1.354679,-1.182392 1.737702,-1.440893 0.383022,-0.2585 0.911005,-0.79038 1.173293,-1.181955 0.736311,-1.099247 1.108159,-1.04712 2.392981,0.335462 2.927529,3.150281 4.513721,4.609084 5.011569,4.609084 0.337219,0 0.30972,-1.188293 -0.051,-2.203927 -0.277245,-0.780602 -0.276171,-0.828322 0.02617,-1.162405 0.634102,-0.700675 2.644103,-0.262244 4.230937,0.922872 0.494665,0.369438 0.583972,0.376263 3.805775,0.290854 3.294499,-0.08734 3.299871,-0.08689 3.750905,0.314956 0.248423,0.22133 0.577108,0.744341 0.730409,1.162247 1.040474,2.83638 1.112098,3.108476 1.005457,3.819612 -0.05922,0.394903 -0.288539,0.984527 -0.509598,1.310277 -0.414397,0.610649 -1.10024,2.777288 -1.10024,3.475758 0,0.352207 0.105069,0.294627 0.972947,-0.533187 1.27835,-1.21934 1.83973,-1.393737 4.030482,-1.252102 1.941402,0.125515 2.879131,0.394015 3.66556,1.04956 0.89228,0.743779 0.993093,1.071746 0.705028,2.293629 -0.3326,1.410789 -0.320639,2.215748 0.03941,2.652124 0.254875,0.308905 0.54207,0.372844 2.089514,0.4652 1.509959,0.09012 1.856791,0.06311 2.190418,-0.170573 0.90046,-0.630706 1.672056,-0.220024 1.672056,0.889953 0,0.72425 -1.425082,2.782373 -2.797036,4.03952 -0.928292,0.85061 -1.345171,1.098764 -2.481704,1.477264 -1.557813,0.518799 -2.80105,0.584959 -3.699428,0.196865 -0.8184,-0.353541 -1.111668,-0.840866 -1.299371,-2.159163 -0.0855,-0.600486 -0.284903,-1.535711 -0.443122,-2.078281 l -0.287669,-0.986488 -0.646197,1.324189 c -0.355409,0.728306 -0.914543,1.63634 -1.24252,2.017855 C 61.193936,63.218863 59.2344,63.70298 56.859761,63.25252 55.3193,62.960293 54.382985,62.544363 53.334159,61.68637 l -0.698077,-0.571063 -0.793237,0.88227 c -0.847715,0.942865 -2.093659,1.965232 -3.702611,3.038201 -1.435907,0.957569 -1.765198,1.103737 -2.979834,1.322704 -0.646494,0.116546 -1.309164,0.362734 -1.627858,0.604763 -0.655159,0.497554 -1.413441,0.526824 -1.826411,0.0705 z m 0.875501,-7.682708 c -0.05586,-2.561172 -0.18851,-4.396356 -0.42715,-5.909776 -0.617578,-3.916593 -0.87044,-6.448316 -0.872337,-8.734027 -10e-4,-1.232699 -0.04863,-2.524175 -0.105785,-2.869947 l -0.103927,-0.628676 -0.844308,0.628676 c -0.46437,0.345772 -1.233583,0.996083 -1.70936,1.445136 -0.475778,0.449053 -1.168983,0.9729 -1.540454,1.164105 -0.371472,0.191205 -0.905006,0.522432 -1.185633,0.736059 -0.679791,0.517491 -4.072597,1.239772 -5.863885,1.24834 -0.631362,0.003 -0.633201,0.0051 -0.636512,0.720644 -0.0018,0.394689 -0.11028,1.324669 -0.241006,2.066623 -0.130724,0.741954 -0.201464,1.385224 -0.157198,1.42949 0.04427,0.04427 0.741586,-0.08931 1.549597,-0.296833 2.267505,-0.582369 2.832946,-0.612971 4.21212,-0.227958 1.571023,0.43857 2.675123,1.0452 3.647941,2.004309 0.860921,0.848787 1.530553,2.327413 1.360631,3.004435 -0.06631,0.264184 0.01368,0.570877 0.228864,0.87753 0.181938,0.259274 0.415224,0.737347 0.518417,1.062385 0.351282,1.106487 0.676528,3.459157 0.586152,4.239955 -0.06549,0.565756 -0.01206,0.897638 0.195495,1.214405 0.366422,0.55923 0.283459,1.199715 -0.163705,1.263817 -0.229158,0.03285 -0.546157,-0.199441 -0.979296,-0.717615 -0.468095,-0.55999 -0.763156,-0.766616 -1.09639,-0.767778 -0.250765,-8.75e-4 -1.215764,-0.152444 -2.144443,-0.33682 -3.119543,-0.619346 -6.103464,-2.477407 -5.959431,-3.710885 0.08447,-0.723427 0.643802,-0.622331 1.371167,0.247829 1.166821,1.395892 3.169146,2.185861 6.825536,2.692848 0.707434,0.09809 0.717616,0.09229 0.717616,-0.409044 0,-0.494942 -0.02171,-0.508548 -0.811363,-0.508548 -1.071073,0 -2.660884,-0.566746 -4.499704,-1.604082 -1.213184,-0.684396 -1.638409,-1.036083 -2.245738,-1.857358 -0.412051,-0.557207 -0.82268,-1.214445 -0.912505,-1.460528 -0.155881,-0.427045 -0.554656,-0.642785 -1.197395,-0.647801 -0.63181,-0.0049 -0.248458,3.890424 0.476392,4.840751 0.851126,1.115884 5.124407,4.173657 6.22187,4.452097 1.616124,0.410034 3.460295,0.995885 4.403674,1.398949 l 1.013105,0.432852 0.224988,-1.38442 c 0.159905,-0.983944 0.20155,-2.458999 0.14396,-5.099139 z m 2.37942,5.831711 c 1.034675,-0.195313 1.102654,-0.228232 2.820715,-1.365981 1.52182,-1.007792 3.850386,-3.175964 4.126299,-3.842075 0.121233,-0.292686 0.174936,-1.330135 0.145181,-2.804734 l -0.04722,-2.340233 -0.993251,1.247551 c -1.778532,2.23389 -3.072089,3.146662 -4.874312,3.439466 -0.677687,0.110103 -0.685271,0.12266 -0.533207,0.882975 l 0.09998,0.499914 1.090994,-0.381224 c 1.186305,-0.414527 1.721445,-0.775726 3.260871,-2.200963 1.026978,-0.950802 1.551461,-1.110058 1.667716,-0.506393 0.136403,0.708281 -2.958465,3.309694 -4.455125,3.744785 -0.709814,0.206347 -0.968666,0.382269 -1.240576,0.843124 -0.651004,1.103369 -1.097,0.711606 -1.479335,-1.299445 -0.44722,-2.352351 -0.05424,-5.767834 0.988013,-8.586933 0.402479,-1.088637 0.852201,-1.552838 1.854781,-1.914497 0.401434,-0.144808 1.627853,-0.583313 2.725374,-0.974454 1.942225,-0.692182 1.992569,-0.722812 1.885996,-1.147435 -0.152552,-0.607817 -0.364787,-0.821315 -0.942615,-0.948227 -0.634136,-0.13928 -3.737497,-1.668255 -4.627381,-2.279834 -0.776962,-0.533973 -2.801035,-2.49068 -3.545866,-3.42785 l -0.506552,-0.637361 0.02983,2.74337 c 0.03082,2.834839 0.332897,5.942085 0.933217,9.599393 0.271367,1.653234 0.350923,2.95225 0.367104,5.994201 0.01136,2.135962 -0.04084,4.365012 -0.116012,4.953445 -0.126198,0.987895 -0.113259,1.062514 0.16885,0.973744 0.168036,-0.05287 0.706475,-0.171822 1.196531,-0.264329 z M 10.316959,62.882232 c 1.69569,-0.895402 2.38794,-1.880393 2.445941,-3.480285 0.05816,-1.604358 -0.230639,-1.911754 -0.851818,-0.906665 -0.196977,0.318716 -0.710089,0.812605 -1.14025,1.09753 -0.9406246,0.623044 -1.8042969,0.671985 -2.9192729,0.165423 -0.574775,-0.261134 -1.314988,-0.377464 -3.0393132,-0.477648 -1.2537167,-0.07284 -2.3121242,-0.104806 -2.3520169,-0.07103 -0.1210228,0.102461 1.5318596,1.576202 2.5208677,2.247654 1.0509585,0.713509 2.260038,1.290912 3.3770146,1.612713 1.0456665,0.301255 1.0300592,0.302751 1.9588477,-0.187692 z m 59.278679,-0.432271 c 1.238093,-0.394056 2.272322,-1.245155 3.352474,-2.758851 0.415379,-0.582101 0.755345,-1.086708 0.75548,-1.121348 6.75e-4,-0.176199 -3.058485,0.183018 -3.714963,0.436221 -0.61487,0.237156 -1.049745,0.272088 -2.279485,0.183109 -0.835811,-0.06048 -1.66412,-0.152528 -1.840687,-0.204558 -0.259395,-0.07643 -0.297135,-0.03412 -0.196568,0.220376 0.06846,0.173235 0.20497,0.732879 0.303364,1.243653 0.395493,2.053007 0.431529,2.135114 1.016201,2.315416 0.648803,0.200076 1.196396,0.134047 2.604184,-0.314018 z m -47.50507,-0.255872 c 0.06151,-0.06151 -0.260463,-0.362548 -0.715488,-0.66898 -1.054916,-0.71042 -3.500786,-3.430434 -3.907066,-4.344985 -0.415736,-0.935835 -1.58123,-2.013446 -2.570018,-2.376226 -0.929275,-0.340946 -1.344493,-0.696542 -1.270008,-1.087647 0.08826,-0.463443 0.697291,-0.402035 2.005638,0.202226 1.412185,0.652219 2.303178,1.490063 2.858248,2.687754 0.38387,0.828287 1.645663,2.345605 2.798179,3.364839 1.74878,1.546541 2.413399,1.70228 2.829246,0.662975 0.144974,-0.362323 0.31222,-1.027173 0.371657,-1.477444 0.122255,-0.926119 0.126031,-0.921884 -2.116944,-2.374605 -1.926983,-1.248062 -3.535707,-2.463335 -4.355146,-3.289996 -1.660562,-1.675193 -5.507491,-2.846258 -6.950697,-2.115899 -0.527947,0.267176 -1.5212111,2.5218 -1.6467264,3.737928 l -0.090414,0.87603 1.5515104,0.275007 c 1.809126,0.320668 2.768174,0.885205 4.463464,2.62739 1.349234,1.386557 3.202215,2.637697 4.528872,3.057914 1.082042,0.342737 2.014147,0.445265 2.215693,0.243719 z m 38.495255,-0.433436 c 0.783704,-0.432315 1.399388,-1.365454 2.648237,-4.013702 1.402205,-2.97345 2.441129,-4.183402 3.839957,-4.472096 0.300757,-0.06207 0.588113,-0.179654 0.638572,-0.261297 0.126341,-0.204425 -0.579477,-0.641514 -1.253664,-0.776351 -0.524275,-0.104855 -0.629317,-0.03666 -1.779414,1.155198 -0.952995,0.987601 -1.401505,1.634651 -2.035975,2.937226 -1.033738,2.122277 -2.431427,4.259211 -3.115205,4.762859 -1.109449,0.81718 -1.856753,0.04043 -0.799525,-0.831024 0.60342,-0.49739 2.33951,-3.106352 2.567769,-3.858791 0.206244,-0.679873 1.44301,-2.642706 2.237184,-3.550566 l 0.740132,-0.846083 h -0.642796 c -1.299765,0 -3.368452,2.070361 -4.015655,4.018906 -0.340435,1.024954 -1.185442,2.213592 -1.791789,2.520435 -0.594288,0.300743 -2.269298,0.267096 -2.913335,-0.05852 -0.297209,-0.150266 -0.787324,-0.458066 -1.089145,-0.683998 l -0.548764,-0.410785 v 1.239817 c 0,1.237461 0.0014,1.241132 0.717615,1.932015 0.394689,0.38071 0.983556,0.826562 1.308593,0.990783 1.584394,0.800492 4.036305,0.896011 5.287208,0.205974 z M 38.357696,54.243298 c -0.242422,-0.79497 -1.352634,-1.922234 -2.419928,-2.457097 -2.023838,-1.014225 -3.802258,-0.991053 -6.684378,0.08709 -0.547254,0.204718 -0.621329,0.762839 -0.168851,1.272226 0.38104,0.428964 2.031433,0.717457 4.114099,0.719155 1.254654,0.001 1.936206,0.10456 3.273121,0.497233 2.197604,0.645471 2.12042,0.650326 1.885937,-0.118611 z M 46.98814,54.09785 c 1.064319,-0.461296 2.944289,-0.952359 3.950017,-1.031775 1.101759,-0.087 1.107294,-0.09468 1.261105,-1.749621 0.07503,-0.807264 0.05077,-1.167786 -0.07859,-1.167786 -0.200725,0 -3.633723,1.21962 -4.55305,1.617534 -0.549091,0.237663 -0.994412,0.982493 -1.279113,2.139395 -0.133826,0.543813 -0.120163,0.547567 0.699629,0.192253 z m -21.442069,-3.78961 -0.04961,-1.191233 -0.974235,-0.395358 c -1.242561,-0.504248 -2.006359,-1.090119 -2.660289,-2.040572 -0.484178,-0.703729 -1.535848,-1.42908 -2.071991,-1.42908 -0.284211,0 -0.794238,1.738155 -0.794238,2.706737 0,0.847701 0.400145,1.285485 1.838725,2.011678 1.213047,0.612344 3.817031,1.520588 4.373936,1.525586 0.372212,0.0033 0.385377,-0.04297 0.337702,-1.187758 z m 31.280652,0.188523 c 1.956676,-0.608986 3.368564,-1.92609 3.368564,-3.142423 0,-0.538523 -0.44823,-1.933493 -0.621268,-1.933493 -0.04292,0 -0.576377,0.355601 -1.185447,0.790225 -0.609485,0.43492 -1.488473,0.889073 -1.954937,1.010072 -0.466146,0.120917 -0.871623,0.243934 -0.90106,0.273371 -0.02944,0.02944 -0.105336,0.790629 -0.168663,1.691539 -0.132749,1.888521 -0.200024,1.828241 1.462811,1.310709 z M 25.637862,45.481057 25.741786,43.092932 24.77487,42.69502 c -0.738483,-0.303905 -1.28509,-0.397911 -2.313687,-0.397911 h -1.346772 l -0.552799,0.842322 c -0.623008,0.949302 -0.662997,1.099461 -0.292797,1.099461 0.579053,0 1.587869,0.711573 2.529707,1.78434 0.663725,0.755992 1.277707,1.265067 1.839917,1.525543 0.464081,0.215012 0.85542,0.375063 0.86964,0.355669 0.01422,-0.01939 0.07263,-1.109917 0.129783,-2.423387 z m 26.547244,0.352563 c 0.145281,-0.968801 0.0015,-1.884074 -0.358602,-2.281923 -0.361396,-0.399338 -2.384383,-1.448578 -2.523912,-1.309049 -0.05897,0.05897 -0.03047,0.385164 0.06332,0.724873 0.109314,0.395903 0.115051,0.958599 0.01599,1.567306 -0.08501,0.522309 -0.136126,0.968085 -0.113598,0.990614 0.168974,0.168974 2.290336,1.077123 2.516319,1.077228 0.209044,9.8e-5 0.315924,-0.205144 0.400488,-0.769049 z m 4.802017,-0.03045 c 1.073276,-0.660896 2.026209,-1.492308 2.026209,-1.767821 0,-0.274068 -0.187514,-0.303005 -1.963537,-0.303005 h -1.963536 l 0.115618,0.886466 c 0.211746,1.623485 0.240917,1.677785 0.834893,1.5542 0.290525,-0.06045 0.718183,-0.226876 0.950353,-0.36984 z m -26.07791,-0.612671 c 0.0052,-0.01261 -0.03275,-0.542685 -0.08443,-1.17795 l -0.09395,-1.155026 -0.353552,0.395198 c -0.64414,0.720015 -0.912829,1.224525 -0.912829,1.71399 0,0.475234 0.01273,0.481719 0.717616,0.365267 0.394688,-0.06521 0.721902,-0.128872 0.727144,-0.141479 z"
       id="path249" /></g></svg>
