<?xml version="1.0" encoding="UTF-8" standalone="no"?>
<!-- Created with Inkscape (http://www.inkscape.org/) -->

<svg
   width="512"
   height="512"
   viewBox="0 0 512 512"
   version="1.1"
   id="svg5"
   inkscape:version="1.2.1 (9c6d41e410, 2022-07-14)"
   sodipodi:docname="bow.svg"
   xml:space="preserve"
   inkscape:export-filename="bow.png"
   inkscape:export-xdpi="96"
   inkscape:export-ydpi="96"
   xmlns:inkscape="http://www.inkscape.org/namespaces/inkscape"
   xmlns:sodipodi="http://sodipodi.sourceforge.net/DTD/sodipodi-0.dtd"
   xmlns="http://www.w3.org/2000/svg"
   xmlns:svg="http://www.w3.org/2000/svg"><sodipodi:namedview
     id="namedview7"
     pagecolor="#ffffff"
     bordercolor="#999999"
     borderopacity="1"
     inkscape:pageshadow="0"
     inkscape:pageopacity="0"
     inkscape:pagecheckerboard="true"
     inkscape:document-units="px"
     showgrid="false"
     height="70mm"
     units="px"
     inkscape:zoom="2.9611953"
     inkscape:cx="242.46965"
     inkscape:cy="151.12141"
     inkscape:window-width="2560"
     inkscape:window-height="1351"
     inkscape:window-x="2391"
     inkscape:window-y="-9"
     inkscape:window-maximized="1"
     inkscape:current-layer="layer1"
     inkscape:showpageshadow="2"
     inkscape:deskcolor="#d1d1d1" /><defs
     id="defs2" /><g
     inkscape:label="Layer 1"
     inkscape:groupmode="layer"
     id="layer1"><path
       style="fill:#ffffff;fill-rule:evenodd;stroke-width:0.922046"
       d="m 382.92689,511.24863 c -13.10658,-1.71499 -16.70393,-4.12114 -20.75326,-13.88128 -7.6587,-18.45992 -12.00585,-25.26846 -22.05285,-34.5394 -5.65953,-5.22235 -15.91113,-11.53303 -23.85963,-14.68749 -2.48664,-0.98687 -11.15994,-3.73638 -19.27395,-6.11001 -26.06865,-7.62602 -52.71423,-17.83322 -62.25244,-23.84726 -5.4292,-3.42317 -18.9024,-17.70241 -25.34517,-26.86138 -2.47861,-3.52363 -6.08513,-8.33133 -8.0144,-10.68377 -1.92927,-2.35244 -3.50774,-4.9212 -3.50774,-5.70836 0,-0.78715 -0.38662,-1.67018 -0.8593,-1.96227 -1.46281,-0.90409 -4.48493,-16.97173 -5.52154,-29.35627 -0.91532,-10.936 -1.30036,-12.52023 -5.26609,-21.66805 -2.35318,-5.42817 -4.96842,-10.9067 -5.81172,-12.1745 -0.84324,-1.26782 -2.06911,-3.54988 -2.72418,-5.07125 -1.74224,-4.04653 -13.5656,-22.94179 -19.07294,-30.48114 -2.61469,-3.57937 -7.73915,-9.38825 -11.38769,-12.90862 -15.10752,-14.57674 -30.28449,-33.54671 -31.8466,-39.80562 -0.35069,-1.40511 -1.25415,-3.23907 -2.0077,-4.07545 -0.75355,-0.8364 -2.26549,-4.9856 -3.35986,-9.22045 -3.28148,-12.69822 -2.39368,-40.46362 1.56472,-48.93579 0.7766,-1.66215 2.21778,-5.51161 3.20263,-8.55435 0.98486,-3.04275 2.89795,-8.22925 4.25132,-11.52556 13.78267,-33.56944 13.73039,-33.4186 12.01694,-34.67151 -1.18204,-0.86432 -1.4989,-2.0145 -1.16644,-4.23409 0.25102,-1.676075 0.9862,-6.471105 1.6337,-10.655615 1.02153,-6.60183 0.97528,-8.6361 -0.34965,-15.37932 -0.83979,-4.27413 -1.52689,-8.61837 -1.52689,-9.65385 0,-2.95028 -4.14188,-11.08482 -8.7318,-17.14903 -5.91345,-7.81287 -8.13597,-12.91611 -8.06922,-18.52807 C 112.97155,17.453745 125.58732,0.16219543 133.9339,3.0543472e-4 136.15349,-0.04269457 140.40698,4.4637054 141.22571,7.7257454 c 0.28849,1.14932 0.0615,5.4709796 -0.50435,9.6036896 -1.5791,11.53307 0.49162,20.689 8.29205,36.66407 5.55138,11.3691 8.28326,19.73345 10.20892,31.25726 1.15467,6.90989 3.10192,11.5214 6.66421,15.782145 1.22255,1.46231 4.38714,6.99815 7.03236,12.30187 4.48296,8.98832 7.86806,15.12214 15.2867,27.69967 3.02403,5.1269 6.92139,13.21655 12.42027,25.78039 1.65574,3.78317 5.6028,10.42189 8.77115,14.75271 6.52069,8.91302 10.33734,16.12421 13.30152,25.13165 1.9338,5.87642 10.40024,21.19141 13.90706,25.15663 0.89703,1.01424 3.67363,6.20223 6.17027,11.52885 2.49658,5.32662 5.77098,11.1355 7.27633,12.90862 2.68198,3.15898 7.9598,11.56966 10.70195,17.05453 0.76063,1.52137 3.09759,5.9028 5.1933,9.73651 2.09571,3.83373 4.8212,9.75732 6.05669,13.16356 1.23548,3.40624 3.28265,7.96142 4.5492,10.12263 1.26651,2.16121 3.14428,6.40314 4.17275,9.42653 4.22145,12.40995 14.22066,33.47606 19.98957,42.11361 3.32541,4.97902 7.09794,11.84715 8.38334,15.26252 1.28545,3.41536 3.39017,8.49181 4.67715,11.28099 1.28698,2.78919 3.75953,8.36671 5.49456,12.3945 1.73509,4.02779 4.60267,9.33881 6.37248,11.80228 3.41901,4.75895 6.84271,12.4966 6.84271,15.46452 0,1.18138 2.42755,3.50956 7.14588,6.85329 11.65806,8.26178 15.98491,12.78953 21.63434,22.63874 1.30898,2.28206 4.2896,6.6074 6.62362,9.61186 2.33401,3.00446 5.93344,8.90559 7.99868,13.11361 4.52042,9.21046 10.48876,15.08661 17.71038,17.43694 5.75815,1.87404 7.64532,3.39812 10.05584,8.12113 2.01724,3.95252 1.67179,7.41231 -0.87372,8.75046 -2.96478,1.55848 -10.76103,1.7969 -19.85409,0.60712 z m 16.30507,-4.91922 c 1.12228,-1.81596 -2.98401,-6.28555 -6.83452,-7.43919 -2.17784,-0.6525 -5.44978,-2.12897 -7.27093,-3.28104 -3.43314,-2.17183 -10.10001,-8.95902 -11.87245,-12.08678 -0.95043,-1.67717 -1.11644,-1.69316 -2.57904,-0.24858 -1.45664,1.43868 -1.46046,1.80087 -0.0557,5.31126 0.82905,2.072 3.37614,6.33555 5.66025,9.47454 2.28405,3.13899 4.15286,6.01473 4.15286,6.39054 0,1.78909 17.75833,3.5642 18.79969,1.87925 z m -21.56587,-1.58798 c 0,-0.27522 -1.64547,-2.68006 -3.65665,-5.34379 -2.01112,-2.66376 -4.5201,-6.79515 -5.57538,-9.18089 -1.81973,-4.1138 -3.02818,-5.21069 -4.00303,-3.63343 -0.23918,0.38733 0.77237,3.83198 2.24834,7.65477 2.24375,5.81145 3.25054,7.27918 6.14357,8.95605 3.50124,2.02936 4.84315,2.45808 4.84315,1.54729 z m -13.38184,-21.60875 c 0.30689,-0.49627 -0.38716,-2.1799 -1.54139,-3.74141 -2.38977,-3.2323 -3.33475,-2.1329 -1.65416,1.92443 1.15832,2.79642 2.21786,3.39889 3.19555,1.81698 z m 5.92132,-3.1455 c 0.82347,-0.9922 0.62017,-2.03338 -0.9002,-4.61022 -2.23834,-3.79371 -2.42401,-3.86758 -4.6523,-1.85098 -1.55767,1.40967 -1.53981,1.62103 0.38825,4.5988 2.19073,3.38316 3.5078,3.85815 5.16408,1.8624 z m -18.43715,-18.73971 c -3.66649,-6.48404 -9.60872,-15.79949 -13.20498,-20.701 -9.02289,-12.29795 -11.45219,-13.40854 -31.02233,-14.18262 -20.99478,-0.83043 -40.35943,-5.52143 -57.11714,-13.83639 -16.0447,-7.96117 -27.45507,-19.24167 -36.39277,-35.97862 -4.77905,-8.94941 -5.47627,-10.98864 -7.04546,-20.60692 -0.95781,-5.87104 -1.74159,-14.34956 -1.74175,-18.84116 -1.6e-4,-7.42804 -0.14635,-8.1036 -1.61375,-7.4706 -0.88747,0.38279 -3.00137,1.15327 -4.69746,1.71223 -3.02365,0.99643 -3.07274,1.09735 -2.51297,5.16548 0.314,2.28206 0.79689,7.2611 1.07309,11.06454 0.27631,3.80343 1.36135,11.06452 2.41145,16.13577 1.68697,8.1466 2.35886,9.75737 5.76896,13.83067 2.12274,2.53562 6.17409,7.86114 9.00301,11.83447 6.05527,8.50504 18.8093,21.92139 23.88541,25.1258 9.31291,5.87899 32.48842,14.43457 67.64593,24.97251 22.47294,6.73593 38.6392,17.23773 48.65447,31.60654 5.38961,7.7324 3.57239,1.95802 -3.09371,-9.8307 z m 12.01809,9.4768 c 1.27108,-1.53157 1.11322,-1.88741 -4.93506,-11.12347 -8.14192,-12.43326 -10.25712,-15.21699 -13.68743,-18.01378 -3.96628,-3.23378 -4.41023,-2.77449 -1.28556,1.32995 1.95248,2.56475 4.05474,6.13365 7.86189,13.34695 2.90286,5.49997 9.5706,15.78448 10.23353,15.78448 0.39262,0 1.20823,-0.59585 1.81263,-1.32413 z M 328.35667,420.5048 c -0.33911,-1.54392 -2.58275,-5.82652 -4.98584,-9.51689 -4.2338,-6.50158 -11.10091,-21.03604 -17.11927,-36.23343 -1.61063,-4.06702 -5.16397,-10.70574 -7.89634,-14.75271 -6.67271,-9.88301 -15.8188,-28.8467 -20.44729,-42.39581 -1.03939,-3.04275 -3.05303,-7.60687 -4.47467,-10.14249 -1.42169,-2.53563 -3.7977,-7.92959 -5.28001,-11.98658 -1.48237,-4.05699 -4.34137,-10.07333 -6.35337,-13.36964 -2.012,-3.29631 -3.93733,-6.74001 -4.27852,-7.65266 -1.10459,-2.95474 -9.09382,-15.79255 -11.30416,-18.16459 -1.18136,-1.26781 -4.11049,-6.45431 -6.50916,-11.52555 -2.39867,-5.07125 -5.66515,-11.08758 -7.25886,-13.36965 -5.75155,-8.23586 -10.79795,-17.53722 -12.9238,-23.8206 -3.10895,-9.18931 -7.28191,-17.05107 -13.58067,-25.58564 -3.0254,-4.09928 -6.73671,-10.32308 -8.24736,-13.83067 -4.96482,-11.52756 -10.62506,-22.83513 -15.88487,-31.73366 -2.84771,-4.81769 -7.71456,-13.73846 -10.81526,-19.82395 -6.02005,-11.81507 -9.71405,-17.141985 -10.44033,-15.05543 -0.23448,0.67362 -1.05778,4.02548 -1.82959,7.44858 -1.67159,7.4138 -5.20423,14.35884 -12.07683,23.74262 -5.05264,6.89882 -11.44678,18.977 -15.13193,28.58338 -4.52783,11.80306 -5.80972,25.25252 -3.3395,35.03768 2.2959,9.09468 9.34916,24.16482 15.31715,32.72692 4.10489,5.88917 19.77211,19.96114 29.73866,26.71068 7.90372,5.35253 13.32812,11.65266 20.73737,24.08537 13.38031,22.45211 15.65661,29.8944 16.8969,55.24473 0.77547,15.84899 1.70308,24.43915 3.15099,29.17915 0.36478,1.1937 2.97767,6.31955 5.8067,11.3908 8.7125,15.61767 18.71422,25.274 33.82433,32.65628 10.03803,4.90426 13.54168,6.05266 30.88849,10.12448 9.41868,2.21086 13.74389,2.72594 23.66097,2.81781 6.94291,0.0643 13.8471,0.625 16.13579,1.31038 2.20017,0.65889 4.14353,1.08778 4.3186,0.95308 0.17474,-0.13466 0.0382,-1.50808 -0.29815,-3.05199 z M 162.2247,261.04773 l 3.45734,-3.54066 -10.98199,-9.75102 c -6.0401,-5.36306 -12.43014,-11.54951 -14.20007,-13.74767 -3.30655,-4.10651 -9.19838,-14.96698 -15.17372,-27.9698 -3.38021,-7.35561 -3.38989,-7.41265 -3.44013,-20.28497 -0.0475,-12.22078 0.10932,-13.37538 2.94723,-21.66805 4.05948,-11.86231 12.06898,-27.60567 18.20555,-35.78452 6.71044,-8.94374 8.26494,-12.1863 10.64686,-22.20846 1.95327,-8.218565 1.96715,-8.686365 0.51495,-17.353165 -0.82084,-4.8988 -2.25643,-10.38478 -3.19021,-12.19107 -0.93377,-1.80629 -3.46832,-6.7664 -5.63232,-11.02248 -4.83573,-9.51073 -7.18297,-12.056 -10.52827,-11.41651 -2.82757,0.54056 -2.73255,0.30553 -1.46824,3.63094 2.45218,6.44971 4.87312,24.21592 4.94238,36.26989 l 0.0715,12.447605 -6.71933,16.5968 c -3.69562,9.12823 -7.37359,18.04901 -8.17326,19.82395 -4.8371,10.73638 -8.73666,24.62094 -9.6736,34.44336 -1.44591,15.15789 0.4463,31.15626 4.41291,37.31056 0.75845,1.17676 1.95587,3.77456 2.66092,5.7729 1.71721,4.86709 5.81224,10.67738 14.35568,20.36876 7.38195,8.37382 22.12466,23.58141 23.00401,23.7294 0.2774,0.0464 2.06022,-1.50842 3.96178,-3.45579 z M 135.8655,50.904605 c -0.20827,-0.38033 -0.95617,-2.04002 -1.66204,-3.68817 -1.30618,-3.04979 -3.64062,-3.84716 -6.31156,-2.15582 -2.22997,1.41211 2.13814,6.53553 5.57206,6.53553 1.5291,0 2.60979,-0.31121 2.40154,-0.69154 z m 3.46161,-4.21478 c -1.45487,-3.482 -3.23664,-4.53942 -3.23664,-1.92084 0,1.84348 3.93223,7.47806 4.34809,6.23048 0.16824,-0.50468 -0.33196,-2.444 -1.11145,-4.30964 z m -10.90897,-4.49935 c 1.68416,-0.609 3.0621,-1.38658 3.0621,-1.72796 0,-1.06633 -4.84195,-9.40777 -8.16089,-14.05912 -3.63517,-5.09453 -4.71099,-4.57946 -4.73361,2.26629 -0.0153,4.58303 1.18958,8.1024 4.13508,12.07991 2.16802,2.92762 1.82541,2.84098 5.69732,1.44088 z m 8.29494,-3.73346 c -2.09126,-8.6884 -2.49192,-14.05811 -1.55793,-20.8796 1.0299,-7.52195 0.15651,-12.0834896 -2.31367,-12.0834896 -1.28262,0 -8.8894,7.9024796 -10.49549,10.9034796 -0.95331,1.78128 -0.54291,2.84684 3.35173,8.70231 2.44094,3.66986 5.46596,8.64335 6.72229,11.05219 2.38488,4.5727 5.20309,6.0859 4.29307,2.30511 z"
       id="path303" /></g></svg>
