<?xml version="1.0" encoding="UTF-8" standalone="no"?>
<!-- Created with Inkscape (http://www.inkscape.org/) -->

<svg
   width="512"
   height="512"
   viewBox="0 0 512 512"
   version="1.1"
   id="svg5"
   inkscape:version="1.2.1 (9c6d41e410, 2022-07-14)"
   sodipodi:docname="crossbow.svg"
   xml:space="preserve"
   inkscape:export-filename="crossbow.png"
   inkscape:export-xdpi="96"
   inkscape:export-ydpi="96"
   xmlns:inkscape="http://www.inkscape.org/namespaces/inkscape"
   xmlns:sodipodi="http://sodipodi.sourceforge.net/DTD/sodipodi-0.dtd"
   xmlns="http://www.w3.org/2000/svg"
   xmlns:svg="http://www.w3.org/2000/svg"><sodipodi:namedview
     id="namedview7"
     pagecolor="#ffffff"
     bordercolor="#999999"
     borderopacity="1"
     inkscape:pageshadow="0"
     inkscape:pageopacity="0"
     inkscape:pagecheckerboard="true"
     inkscape:document-units="px"
     showgrid="false"
     height="70mm"
     units="px"
     inkscape:zoom="1.4805977"
     inkscape:cx="37.822564"
     inkscape:cy="144.87393"
     inkscape:window-width="2560"
     inkscape:window-height="1351"
     inkscape:window-x="2391"
     inkscape:window-y="-9"
     inkscape:window-maximized="1"
     inkscape:current-layer="layer1"
     inkscape:showpageshadow="2"
     inkscape:deskcolor="#d1d1d1" /><defs
     id="defs2" /><g
     inkscape:label="Layer 1"
     inkscape:groupmode="layer"
     id="layer1"><path
       style="fill:#ffffff;fill-rule:evenodd;stroke-width:1.60799"
       d="m 471.79806,505.75868 c -9.26876,-7.43339 -15.17334,-13.71026 -31.66396,-33.66012 -6.80928,-8.23771 -16.88442,-18.67151 -22.38915,-23.18623 -5.5048,-4.51473 -21.59657,-19.84439 -35.75943,-34.06591 -14.16293,-14.22152 -28.02088,-27.66629 -30.7955,-29.87727 -5.92586,-4.72215 -26.0057,-23.15975 -43.78019,-40.19964 -6.91891,-6.63294 -16.11965,-13.81986 -20.44609,-15.97093 -4.32651,-2.15107 -10.0742,-5.51528 -12.77272,-7.47604 -3.25805,-2.36729 -6.32761,-3.2933 -9.13671,-2.75631 -3.35791,0.64187 -5.82809,-0.6552 -11.97745,-6.28926 -4.26092,-3.90386 -11.36508,-9.9148 -15.78707,-13.35765 -4.42199,-3.44284 -10.93431,-9.20046 -14.47187,-12.79471 -3.53757,-3.59425 -9.68107,-9.05485 -13.65223,-12.13469 -3.9711,-3.07984 -9.39805,-8.00945 -12.05988,-10.95467 -2.66176,-2.94523 -7.89626,-7.86267 -11.63221,-10.92765 l -6.79251,-5.57269 -48.82454,48.71531 c -45.161455,45.06038 -65.608055,66.58758 -82.495175,86.85496 -8.21131,9.85496 -15.3051,14.27904 -23.47939,14.64306 -5.98979,0.26672 -6.41928,-0.0411 -8.58155,-6.15114 -1.25191,-3.53757 -2.28709,-6.88336 -2.3004,-7.43507 -0.0135,-0.5517 3.91338,-5.41606 8.726,-10.80965 10.68172,-11.97124 15.74954,-20.43418 22.01788,-36.76847 2.64298,-6.88721 5.8794,-14.17534 7.19203,-16.19584 1.31263,-2.0205 4.93645,-10.99917 8.05293,-19.95259 5.54437,-15.92857 7.89232,-20.7578 26.0391,-53.55707 11.17701,-20.2018 21.700425,-34.62543 37.541735,-51.45554 11.77395,-12.50886 5.46177,-21.14922 -16.67967,-22.83181 -6.441025,-0.48949 -12.615445,-1.6108 -13.720935,-2.49183 -2.7736,-2.21047 -2.58833,-28.25876 0.28882,-40.60376 2.05348,-8.81096 3.27186,-10.61199 14.044755,-20.76127 25.46211,-23.988187 30.54234,-26.649827 50.89557,-26.665337 16.30551,-0.0121 18.34499,1.32168 17.04152,11.14773 -0.76416,5.76036 -0.0889,10.956747 2.60149,20.019317 3.49703,11.77988 5.05275,14.08176 7.18503,10.63161 0.54679,-0.8844 2.09039,-1.60798 3.4307,-1.60798 2.81853,0 24.64014,-15.79369 32.36792,-23.426697 2.8858,-2.85042 8.31275,-6.72954 12.05988,-8.62026 13.31978,-6.72085 24.79636,-13.915 38.01615,-23.83055 7.3694,-5.52745 14.1477,-10.0499 15.06297,-10.0499 0.91527,0 11.86399,-4.98131 24.33059,-11.06957 12.46652,-6.08826 24.47542,-11.5965 26.68642,-12.24054 2.211,-0.64403 5.82896,-2.81605 8.03989,-4.82672 2.211,-2.01065 6.19078,-4.75065 8.84392,-6.08886 2.65321,-1.33822 7.56691,-5.40092 10.91943,-9.02822 3.35245,-3.6273 8.89078,-8.02119 12.30734,-9.76419 5.74829,-2.93255005 6.5835,-2.98371005 11.1904,-0.68549 3.7785,1.88498 4.94898,3.52104 4.85619,6.78779 -0.19932,7.01801 -3.66268,14.68819 -9.58996,21.23943 -9.17792,10.14414 -56.6878,57.37822 -61.36366,61.00752 -2.38951,1.85466 -13.14308,13.839107 -23.89692,26.632087 -10.75384,12.793 -20.17061,23.25999 -20.92615,23.25999 -0.75554,0 -8.61294,7.36689 -17.46097,16.37088 l -16.08733,16.37087 6.15711,5.73893 c 3.38632,3.1564 7.16375,7.58579 8.39423,9.84307 1.23041,2.2573 8.74951,12.59905 16.709,22.98172 7.95956,10.38265 15.96511,21.36907 17.79005,24.41424 1.82501,3.04519 7.79465,9.58768 13.26591,14.53887 9.89453,8.95407 12.16068,13.91612 8.17531,17.90145 -1.29115,1.29115 -0.89904,3.01561 1.44428,6.35154 1.76919,2.51854 7.22092,10.72972 12.11502,18.24705 5.0675,7.78368 15.24331,19.89821 23.63653,28.13974 8.79483,8.63595 18.90915,20.76385 25.08134,30.07465 5.68884,8.58153 12.31139,17.01363 14.71686,18.738 2.40553,1.72437 7.99161,7.64027 12.41353,13.14646 20.29411,25.26994 47.45359,56.49253 58.70183,67.48373 6.78807,6.63293 14.16421,14.95426 16.39137,18.49183 4.14334,6.58113 10.7498,13.8982 17.04475,18.87808 1.94548,1.53904 3.52942,4.43341 3.51985,6.43194 C 498.54987,499.1452 486.63215,512 482.53109,512 c -1.62286,0 -6.45272,-2.80859 -10.73303,-6.24132 z m 15.41677,-6.03542 c 4.10409,-5.21757 4.16261,-6.53896 0.34343,-7.7512 -1.64421,-0.52181 -5.80486,-5.023 -9.24593,-10.00253 -3.44107,-4.97954 -12.7975,-15.99794 -20.79221,-24.48531 -22.05165,-23.41072 -40.88511,-44.82291 -49.63859,-56.43522 -4.33324,-5.74854 -13.10053,-15.87885 -19.48282,-22.51179 -6.38228,-6.63294 -14.70379,-16.76325 -18.49219,-22.5118 -3.78833,-5.74855 -14.30259,-18.10687 -23.36488,-27.46291 -11.88998,-12.2754 -20.75989,-23.57831 -31.86194,-40.60163 -8.46177,-12.97485 -15.96874,-23.59063 -16.68213,-23.59063 -0.71345,0 -6.09919,-3.79887 -11.96836,-8.44193 -5.86916,-4.64305 -15.10715,-11.64387 -20.52892,-15.55736 -12.29569,-8.87517 -20.59376,-20.00588 -23.65551,-31.73069 -2.40897,-9.22499 -5.82998,-15.99599 -9.73461,-19.26718 -1.73956,-1.45737 -6.30168,2.13318 -22.22228,17.48967 -11.01835,10.62793 -20.03337,19.94834 -20.03337,20.71204 0,2.55238 15.22412,12.59541 19.15454,12.63581 4.9607,0.0512 15.85918,6.44569 21.04506,12.34822 6.27327,7.14016 19.29582,24.9705 19.29582,26.4196 0,0.7176 3.61796,5.65215 8.03996,10.96567 4.42192,5.31352 8.03989,10.41704 8.03989,11.34116 0,3.01395 13.36921,14.7424 21.50324,18.86422 8.1471,4.12847 28.3443,19.46338 28.3443,21.5207 0,0.63116 12.03577,11.89789 26.74616,25.03722 14.71039,13.13935 33.34291,30.73487 41.40564,39.10117 22.64173,23.49429 31.20673,31.59034 41.80731,39.51841 5.59523,4.18464 11.157,10.44956 29.93565,33.72057 6.25427,7.75042 25.04713,24.91253 27.27981,24.91253 0.78679,0 2.93024,-1.90657 4.7632,-4.23681 z M 35.785305,384.38239 c 2.04725,-1.95846 9.51102,-10.03709 16.58616,-17.95251 22.23603,-24.8769 34.20097,-37.3321 77.437015,-80.60998 23.13377,-23.15611 42.56116,-43.6766 43.17193,-45.60109 0.61076,-1.92447 12.98685,-15.54841 27.5023,-30.27544 31.76982,-32.23295 32.36206,-32.86001 47.30888,-50.09219 6.52039,-7.51733 13.69903,-15.05554 15.95258,-16.75157 8.07552,-6.07771 15.05146,-13.17498 23.83747,-24.25205 4.91033,-6.19075 26.74885,-29.041317 48.52999,-50.779047 36.22204,-36.14973 49.91683,-51.80415 49.91683,-57.05963 0,-3.40081 -5.1079,-4.09802 -9.47252,-1.29296 -2.30742,1.48297 -7.19897,5.84095 -10.87,9.68439 -3.67103,3.84344 -7.40139,6.98808 -8.28979,6.98808 -0.88833,0 -4.64643,2.53258 -8.3514,5.62795 -3.7049,3.09537 -7.83822,5.62795 -9.18519,5.62795 -1.34691,0 -11.95146,4.76517 -23.56561,10.58927 -11.61416,5.82411 -23.8636,11.59254 -27.2209,12.81876 -3.3573,1.22621 -11.6786,6.52722 -18.49179,11.78003 -11.35645,8.7555 -18.7031,13.31959 -34.09549,21.18158 -3.09536,1.58103 -9.60767,6.307497 -14.47181,10.503247 -4.8642,4.19576 -13.18551,10.83428 -18.49186,14.75227 -13.06658,9.64784 -14.91274,15.16174 -6.40316,19.12464 2.19511,1.02228 3.99116,1.3224 3.99116,0.66692 0,-2.52088 16.35204,-17.91913 42.52514,-40.044827 12.65926,-10.70157 60.3315,-39.05146 90.24075,-53.66466 7.90063,-3.86012 16.34732,-8.33717 18.77037,-9.949 3.87628,-2.5785 4.52003,-2.63239 5.35806,-0.44854 0.66329,1.72922 -10.44388,13.85333 -36.61988,39.97184 -39.09821,39.012217 -61.12622,61.915387 -77.86343,80.956857 -34.67751,39.45159 -58.52144,65.22981 -69.67035,75.32229 -3.05341,2.76403 -9.92753,9.70737 -15.2759,15.42965 -5.34837,5.72228 -14.77659,15.129 -20.9516,20.90381 -16.17191,15.12366 -22.91325,21.98775 -33.79625,34.4113 -9.152365,10.44794 -23.196575,25.8786 -42.395805,46.58114 -5.59272,6.03065 -9.47531,8.97859 -11.03633,8.37957 -2.79449,-1.07236 -2.62605,-1.77882 4.81177,-20.18088 3.03838,-7.51733 7.89985,-19.81842 10.80329,-27.33576 2.90342,-7.51733 9.79537,-20.54201 15.31543,-28.94373 5.52006,-8.40173 10.97314,-17.08485 12.11795,-19.29583 1.14481,-2.21098 5.85909,-7.99972 10.476165,-12.86388 4.61708,-4.86416 10.82662,-11.87793 13.79902,-15.58617 11.32164,-14.1245 19.59049,-24.0221 24.95185,-29.86671 l 5.55638,-6.05723 -3.41555,-4.79667 c -3.14155,-4.41196 -9.62848,-6.69083 -9.62848,-3.38253 0,0.77778 -5.28204,7.47103 -11.73793,14.87387 -6.45582,7.40285 -14.65742,17.43948 -18.22574,22.30364 -10.349755,14.10829 -35.206835,60.62027 -40.561435,75.89754 -2.69689,7.69455 -6.30545,16.73947 -8.01901,20.09982 -1.71357,3.36035 -5.3877,12.00298 -8.16473,19.20586 -5.73531,14.87584 -14.71443,29.39156 -23.10334,37.34903 -4.94464,4.69033 -5.48972,5.9172 -4.04132,9.09608 1.46005,3.20448 2.25367,3.47253 6.20403,2.09542 2.49139,-0.86851 6.20483,-3.18148 8.25208,-5.13994 z m 53.28163,-77.17936 c 3.97695,-6.07911 19.104515,-22.29995 30.839935,-33.06873 5.30635,-4.86929 17.74063,-17.19859 27.63173,-27.39848 15.22957,-15.70497 17.69221,-18.94305 16.07985,-21.14265 -1.04718,-1.42858 -4.59626,-6.45263 -7.88683,-11.16456 l -5.9829,-8.56715 -5.50419,6.34059 c -20.85039,24.01901 -39.80913,47.22659 -45.575295,55.78915 -3.72116,5.52581 -9.50991,14.01498 -12.86388,18.86484 -6.41479,9.2758 -13.27074,23.80773 -18.21924,38.61765 l -2.95505,8.84391 10.75405,-11.3196 c 5.91472,-6.22577 12.07155,-13.33351 13.68182,-15.79497 z m 173.550995,-1.875 c -1.54899,-2.13018 -3.4544,-3.8958 -4.23425,-3.9236 -0.77985,-0.0276 -10.40287,-8.55274 -21.38445,-18.94435 -40.15119,-37.99392 -52.5252,-48.72849 -54.21863,-47.03511 -1.87754,1.87752 9.33441,13.97647 27.17342,29.32336 6.19077,5.32587 15.95925,13.922 21.70781,19.10248 25.89965,23.34034 38.83869,32.31737 30.9561,21.47722 z m 37.29772,-50.6057 c -8.45881,-8.36753 -34.48613,-42.38997 -34.48613,-45.07958 0,-2.05527 -26.61464,-28.88776 -28.65325,-28.88776 -2.30615,0 5.91354,10.89732 16.37392,21.70781 4.27876,4.42196 13.63371,15.63766 20.78878,24.92377 24.57327,31.89222 32.02213,40.26573 33.7056,37.88954 0.70207,-0.99093 -2.54769,-5.42836 -7.72892,-10.55378 z m -74.75294,3.89626 c -3.94281,-4.04782 -8.6159,-8.07818 -10.38469,-8.9564 -1.76878,-0.87822 1.12557,2.4054 6.43192,7.29694 11.74931,10.83081 13.67283,11.63836 3.95277,1.65946 z m 42.35673,-27.09317 C 265.15,227.3001 250.24695,209.87343 249.5764,210.54397 c -1.00571,1.00575 4.26489,8.51396 11.44359,16.30193 6.5977,7.15766 8.76351,8.71706 6.49945,4.67952 z m -92.13707,-8.19076 c 0,-5.56119 -16.15918,-27.33295 -21.28082,-28.6723 -2.76519,-0.72311 -2.51179,-0.0377 1.58051,4.27363 2.68048,2.82413 5.40022,6.94378 6.04384,9.15476 1.29519,4.44917 10.54967,17.55975 12.45044,17.63812 0.66328,0.0276 1.20603,-1.05005 1.20603,-2.39421 z m 25.85399,-26.91279 c 7.57822,-8.17458 16.10457,-17.52254 18.94761,-20.77322 l 5.16904,-5.91035 -7.50529,-5.16375 c -4.12786,-2.84007 -11.39154,-8.32918 -16.1414,-12.19801 -4.74987,-3.86882 -8.63611,-6.44703 -8.63611,-5.72934 0,0.71769 0.81877,2.12369 1.81955,3.12444 1.88872,1.88878 -4.002,9.43857 -24.95535,31.98362 l -9.46788,10.18712 6.44128,8.47617 c 3.54275,4.66191 7.68798,10.43922 9.21172,12.83848 l 2.77044,4.36227 4.28395,-3.16726 c 2.35618,-1.742 10.48429,-9.85557 18.06244,-18.03017 z m -18.01934,-36.38884 c 4.6601,-5.61506 6.49164,-9.01053 5.43194,-10.07023 -1.05971,-1.05968 -4.78091,2.09995 -11.03626,9.37078 -5.19067,6.03322 -13.16174,14.70473 -17.71363,19.27001 -5.8965,5.9138 -7.7797,8.79695 -6.54955,10.02709 1.80696,1.80695 15.57313,-11.37395 29.8675,-28.59765 z m -38.16254,22.19153 c -4.04099,-3.27611 -9.87178,-4.14411 -9.87178,-1.46957 0,0.8844 1.72037,1.60799 3.82309,1.60799 2.10271,0 4.73841,1.10287 5.85711,2.45084 1.11869,1.34797 2.47355,2.00927 3.01084,1.46957 0.53736,-0.53972 -0.73143,-2.36616 -2.81926,-4.05883 z m 23.10845,-19.25829 c 15.48984,-17.69121 15.55899,-17.80799 12.6204,-21.3058 -1.62508,-1.9344 -3.06282,-3.73806 -3.19494,-4.00814 -0.13199,-0.2701 -2.31059,1.45704 -4.84111,3.83806 -2.53045,2.38102 -6.47569,5.49636 -8.76715,6.923 -14.18374,8.83062 -27.86768,27.51765 -20.15041,27.51765 1.21829,0 3.11589,1.08539 4.21688,2.41198 1.10099,1.32658 2.57314,2.41197 3.27144,2.41197 0.69837,0 8.27855,-8.00491 16.84489,-17.78872 z m -31.71291,7.89931 c 0.33399,-1.7205 -4.07392,-3.90237 -15.787,-7.81441 -18.13435,-6.05665 -20.1497,-8.04142 -18.56989,-18.28812 2.36683,-15.35141 5.55871,-21.32192 17.34096,-32.43668 12.48626,-11.77894 21.19227,-16.448187 33.35369,-17.888537 7.75646,-0.91863 7.97841,-0.8269 8.93516,3.69392 3.23097,15.266637 4.5966,19.442237 8.71934,26.660897 5.37301,9.40775 7.86771,7.90199 3.61487,-2.18187 -4.94198,-11.71775 -7.17924,-21.94889 -6.27454,-28.693627 l 0.86179,-6.42531 h -11.97098 c -9.02001,0 -13.61654,0.83954 -18.64681,3.40578 -7.41391,3.78229 -27.05503,20.032297 -33.59568,27.795237 -5.327505,6.32307 -8.239425,19.3872 -7.561135,33.92239 l 0.52524,11.2559 10.451905,1.07389 c 10.61955,1.09113 21.42781,4.71524 23.35315,7.83054 1.40745,2.27729 4.66738,1.09129 5.24993,-1.91 z m 24.82249,-31.58387 c 5.48298,-3.23886 5.52534,-4.77471 0.41009,-14.8696 -2.22864,-4.39802 -4.49775,-11.24811 -5.04252,-15.22241 -1.09721,-8.0053 -2.3089,-8.52689 -11.98001,-5.15698 -9.63393,3.35696 -26.62071,17.88513 -31.05381,26.55918 -1.49329,2.92182 -3.11603,8.71057 -3.60613,12.86389 l -0.89109,7.55148 14.73896,5.00805 14.73894,5.00805 9.11199,-9.55298 c 5.01161,-5.25413 11.11983,-10.73904 13.57385,-12.18868 z m 75.85998,13.6106 c 4.50845,-4.71177 15.43313,-16.38929 24.27705,-25.95004 19.35191,-20.92043 20.64865,-22.23983 45.88386,-46.686367 10.95505,-10.6127 21.67906,-21.33339 23.831,-23.82375 l 3.91271,-4.52792 -9.47805,5.21218 c -5.21288,2.86671 -16.3521,8.94104 -24.75387,13.49853 -21.87515,11.86613 -39.88978,22.89005 -48.23957,29.519947 -16.23338,12.88969 -38.46906,32.72031 -42.25673,37.68617 l -4.03688,5.29259 8.53739,9.17276 c 4.69552,5.04502 9.79474,9.17276 11.33161,9.17276 1.5368,0 6.48302,-3.85508 10.99148,-8.56686 z m -48.17337,-13.54294 c -0.68154,-1.54768 -1.30159,-4.44206 -1.37802,-6.43194 -0.0761,-1.98989 -0.2606,-3.61797 -0.40942,-3.61797 -0.14882,0 -1.41505,0.43918 -2.81394,0.97603 -3.2963,1.26489 -3.24404,5.23256 0.11784,8.94727 3.38955,3.74544 6.11104,3.82229 4.48367,0.1266 z"
       id="path303" /><path
       style="fill:#ffffff;fill-rule:evenodd;stroke-width:0.803989"
       d="m 317.80435,328.85254 c -3.15879,-3.00579 -7.3193,-6.4734 -9.24552,-7.70581 -1.92629,-1.23241 -7.97391,-6.40009 -13.43924,-11.48373 -9.67622,-9.00049 -9.98457,-9.20965 -11.75147,-7.97205 -0.99795,0.69901 -2.27941,1.27094 -2.84761,1.27094 -1.6568,0 -12.22809,-11.31705 -14.26926,-15.27586 -1.02597,-1.98988 -2.98727,-5.02445 -4.35855,-6.74349 -2.89664,-3.63142 -3.12775,-5.59275 -0.8851,-7.51293 2.22756,-1.90734 2.0345,-2.95467 -1.20604,-6.54152 -1.74912,-1.93608 -2.81394,-3.93453 -2.81394,-5.28112 0,-6.04606 4.42232,-7.08801 9.73036,-2.29257 l 3.30302,2.98409 2.94701,-1.69609 c 2.61631,-1.50577 3.18195,-1.57297 5.04104,-0.59891 2.42345,1.26978 10.97208,9.31274 12.74625,11.99228 0.66329,1.00178 3.13933,3.91328 5.50224,6.47 3.66369,3.96417 4.22846,4.98754 3.83581,6.9507 -0.38248,1.91158 0.0916,2.87895 2.79166,5.7028 1.78858,1.87039 5.67031,7.01673 8.62608,11.43632 2.95569,4.41958 7.89181,10.75102 10.96911,14.06987 9.54822,10.29769 9.47037,10.19391 8.92911,11.89912 -0.80787,2.5455 -4.24409,5.79304 -6.12964,5.79304 -1.04024,0 -4.0259,-2.18277 -7.47532,-5.46507 z m 8.96984,1.2843 c 0.93998,-0.93997 1.36569,-3.85916 0.56295,-3.85916 -0.98173,0 -3.62881,3.35195 -3.19785,4.04929 0.64039,1.03602 1.46866,0.97625 2.63503,-0.1901 z m -3.85918,-5.0177 c 0,-1.52151 -1.36994,-2.32082 -2.94303,-1.71717 -1.01675,0.39016 -1.06759,0.71222 -0.26532,1.67923 1.26664,1.52619 3.20808,1.54915 3.20808,0.0377 z m -4.92885,-4.50183 1.90501,-1.58691 -4.79834,-6.22527 c -2.63907,-3.4239 -5.80654,-7.85336 -7.03884,-9.84324 -3.92086,-6.33142 -9.2396,-11.97671 -17.60514,-18.68609 -8.90028,-7.13825 -25.17279,-21.27727 -26.92676,-23.39636 -0.60672,-0.73324 -1.60179,-1.33316 -2.21093,-1.33316 -1.49613,0 -1.40751,2.77017 0.12929,4.04571 0.68032,0.56464 3.21636,3.95557 5.63557,7.53538 2.41927,3.57981 6.22074,8.67953 8.44783,11.33271 2.22709,2.65317 5.66984,6.99474 7.65061,9.64791 3.97655,5.32643 12.26047,14.06987 13.33042,14.06987 0.37507,0 0.68221,-0.87864 0.68221,-1.95255 0,-3.99463 5.45119,-6.20626 7.20765,-2.92426 2.23766,4.18112 -0.0694,8.86078 -3.73244,7.57118 -2.31228,-0.81402 5.30183,6.78714 10.19264,10.17533 2.43207,1.68486 4.60286,3.08437 4.82393,3.11002 0.22088,0.0256 1.2593,-0.66746 2.30709,-1.54027 z m -15.69407,-16.47517 c -0.24915,-0.64915 -0.77601,-1.18025 -1.17088,-1.18025 -0.82497,0 -0.97008,1.8919 -0.20404,2.65812 0.85763,0.85766 1.85821,-0.21798 1.37472,-1.47787 z m -18.14001,-6.73764 c -0.1266,-0.28027 -1.497,-2.20569 -3.04472,-4.27869 -3.06424,-4.10431 -5.30406,-4.80264 -7.52677,-2.34662 -1.27384,1.4076 -1.13135,1.70121 2.72755,5.62148 4.00288,4.06653 4.10537,4.11419 6.07307,2.82486 1.10085,-0.72129 1.89774,-1.54076 1.77087,-1.82103 z m -9.5971,-10.2594 c 0.15488,-0.0859 0.0269,-0.56551 -0.2808,-1.06594 -0.71157,-1.15136 -3.61864,1.30858 -3.61864,3.06207 0,0.97806 0.34208,0.91814 1.80891,-0.31703 0.995,-0.83766 1.93572,-1.59325 2.09053,-1.6791 z m -3.09549,-4.38147 c 0,-0.83025 -0.27137,-1.51019 -0.60268,-1.51098 -0.33198,-7.9e-4 -1.64111,-1.64463 -2.90997,-3.65297 -2.33241,-3.69181 -3.37299,-4.09384 -4.78838,-1.84993 -0.58383,0.92589 0.0687,2.38093 2.61631,5.82907 2.77186,3.75214 3.60477,4.42082 4.53983,3.64477 0.62962,-0.52275 1.14523,-1.62971 1.14523,-2.45996 z m 21.87461,-2.61434 c -3.89937,-4.12299 -4.9908,-4.66707 -4.9908,-2.48794 0,1.03756 8.18023,7.74046 8.75045,7.17019 0.18923,-0.18896 -1.50286,-2.29601 -3.75965,-4.68225 z m -6.45568,-5.59999 c 0.94382,-0.71757 1.12038,-1.37408 0.58786,-2.18541 -0.64173,-0.97696 -0.949,-0.91378 -1.95207,0.40094 -2.07363,2.7179 -1.26112,3.78062 1.36434,1.78446 z m -6.21892,-8.25636 c -1.96979,-1.94188 -3.87197,-3.53069 -4.22705,-3.53069 -0.92604,0 -3.84214,2.22507 -3.3637,2.5666 0.2202,0.15737 2.14588,1.847 4.27883,3.75478 3.6909,3.30127 3.95089,3.40285 5.38568,2.10435 1.45855,-1.31995 1.39108,-1.47925 -2.07376,-4.89504 z"
       id="path305" /></g></svg>
