<?xml version="1.0" encoding="UTF-8" standalone="no"?>
<svg
   height="512"
   width="512"
   version="1.1"
   id="svg612"
   sodipodi:docname="dagger.svg"
   xml:space="preserve"
   inkscape:version="1.2.1 (9c6d41e410, 2022-07-14)"
   inkscape:export-filename="dagger.png"
   inkscape:export-xdpi="96"
   inkscape:export-ydpi="96"
   xmlns:inkscape="http://www.inkscape.org/namespaces/inkscape"
   xmlns:sodipodi="http://sodipodi.sourceforge.net/DTD/sodipodi-0.dtd"
   xmlns="http://www.w3.org/2000/svg"
   xmlns:svg="http://www.w3.org/2000/svg"><defs
     id="defs616" /><sodipodi:namedview
     id="namedview614"
     pagecolor="#ffffff"
     bordercolor="#000000"
     borderopacity="0.25"
     inkscape:showpageshadow="2"
     inkscape:pageopacity="0.0"
     inkscape:pagecheckerboard="true"
     inkscape:deskcolor="#d1d1d1"
     showgrid="false"
     inkscape:zoom="1.2705825"
     inkscape:cx="465.14099"
     inkscape:cy="160.16276"
     inkscape:window-width="2560"
     inkscape:window-height="1351"
     inkscape:window-x="2391"
     inkscape:window-y="-9"
     inkscape:window-maximized="1"
     inkscape:current-layer="svg612" /><path
     style="fill:#ffffff;fill-rule:evenodd;stroke-width:1.58534"
     d="m 412.73174,507.23737 c -9.29381,-8.16006 -12.76015,-17.45758 -12.68163,-34.01501 0.0466,-9.87473 0.90835,-16.21098 2.79788,-20.5782 2.38465,-5.51141 2.43557,-6.52566 0.40239,-8.0124 -1.28037,-0.93629 -11.47859,-9.65418 -22.66271,-19.37323 -18.75358,-16.29692 -40.45071,-38.29972 -57.72006,-58.53319 -3.85226,-4.51346 -7.53915,-8.25882 -8.1931,-8.323 -0.65387,-0.0633 -4.04261,2.73687 -7.53033,6.2246 -7.23302,7.23301 -9.05102,7.61465 -14.78562,3.1038 -3.43836,-2.70459 -4.0147,-4.2544 -3.50132,-9.41487 0.40275,-4.04811 -0.16394,-6.82415 -1.64661,-8.05391 -2.86938,-2.38139 -2.81444,-9.04328 0.11736,-14.17104 2.67204,-4.67422 3.06151,-14.78463 0.73696,-19.12822 -1.31185,-2.45116 -3.36072,-3.06646 -10.21111,-3.06646 -4.71351,0 -9.01091,0.71331 -9.54979,1.58533 -2.22558,3.60108 -8.31562,1.0393 -19.67817,-8.27781 -35.14541,-28.81798 -91.53302,-85.01202 -100.82426,-100.47751 -3.09016,-5.14366 -7.90148,-11.78116 -10.69181,-14.75002 -2.79035,-2.96885 -7.58641,-9.14978 -10.65791,-13.73542 -15.39862,-22.98937 -30.293188,-42.31288 -41.128578,-53.35823 -6.60882,-6.73687 -13.0873,-14.22757 -14.39666,-16.64601 -1.30933,-2.41844 -3.93497,-6.89796 -5.83471,-9.9545 C 56.095852,83.8081 43.937522,35.45418 44.000242,14.39994 44.037542,1.88635 45.094322,0 52.067522,0 c 5.57148,0 7.3349,1.20239 19.23545,13.11577 7.20591,7.21368 17.33392,18.80644 22.50671,25.76169 10.999928,14.79042 33.766288,41.40982 41.025538,47.96885 6.6928,6.04722 27.87121,28.37234 40.6967,42.90023 5.65137,6.40151 21.66888,21.73962 35.59447,34.0847 13.92559,12.34505 32.48725,29.66347 41.24814,38.48533 15.52594,15.634 25.91092,25.53827 71.28246,67.98297 12.11678,11.33514 23.16751,20.45333 24.55718,20.26263 1.38971,-0.19076 4.84655,-0.80682 7.68197,-1.36941 7.60122,-1.50783 13.07604,2.55961 13.07604,9.71474 0,4.27819 -1.4661,7.13809 -6.4074,12.49875 l -6.40741,6.95121 15.53148,15.07107 c 8.54232,8.28911 17.48955,16.6113 19.88275,18.49379 2.39321,1.88249 4.35125,4.16303 4.35125,5.06785 0,2.09043 14.55456,22.28792 22.04854,30.59694 13.66297,15.14895 23.53344,23.58197 32.6349,27.8822 13.82656,6.53274 17.26345,10.68401 17.36617,20.97599 0.0726,7.24432 -1.06837,10.3814 -8.77635,24.13709 -4.87272,8.69584 -10.14267,19.7343 -11.711,24.52994 -4.46687,13.65868 -8.4638,20.47623 -13.97451,23.83628 -7.49476,4.56981 -14.25967,4.01267 -20.77886,-1.71124 z m 17.73696,-3.99842 c 4.06131,-2.84465 8.22687,-10.54919 12.09041,-22.36222 1.47486,-4.50943 6.23879,-14.57801 10.58656,-22.37461 13.27297,-23.8017 12.15627,-28.9244 -8.51185,-39.04769 l -11.4556,-5.61096 -9.17473,9.87276 c -12.97909,13.96661 -14.13735,15.85275 -12.48233,20.32667 1.03297,2.79224 0.52552,5.43155 -1.94853,10.13604 -2.55416,4.85677 -3.33687,9.17208 -3.31038,18.25074 0.041,14.01703 2.24119,21.2259 8.60518,28.1936 5.14921,5.63766 10.10141,6.46793 15.60127,2.61567 z m -10.83623,-79.55432 11.61236,-13.07505 -12.89271,-13.42932 c -7.09097,-7.38612 -15.52836,-17.55389 -18.74973,-22.59499 -3.22138,-5.04112 -14.23512,-17.68584 -24.47497,-28.09937 l -18.61794,-18.9337 -12.39632,11.76536 c -6.818,6.47095 -14.04664,13.72095 -16.06369,16.11114 l -3.66731,4.34575 17.69988,19.11575 c 9.73496,10.51366 22.73125,23.55494 28.88066,28.98061 6.14943,5.42566 16.5502,14.69409 23.11287,20.59652 6.56264,5.90243 12.38491,10.18283 12.93832,9.512 0.55346,-0.67082 6.2318,-7.10343 12.61858,-14.2947 z m -87.99105,-91.88041 c 31.41451,-30.60497 34.95711,-35.45309 26.76337,-36.62629 -2.3876,-0.34184 -4.74474,1.27851 -7.91048,5.43816 -2.48022,3.25881 -14.72151,15.96248 -27.20289,28.23034 -18.81306,18.4912 -27.24463,28.92439 -27.24463,33.71236 0,2.99229 8.44321,-4.30284 35.59463,-30.75457 z m 19.31709,-9.17086 c -1.70995,-3.62323 -1.81334,-3.5789 -10.51041,4.50282 -4.83093,4.48914 -11.65832,11.37238 -15.17199,15.29608 -5.40254,6.03298 -6.14364,7.66597 -4.802,10.5809 1.49162,3.24071 2.5025,2.54458 16.89888,-11.6368 14.04241,-13.83271 15.1692,-15.38724 13.58552,-18.743 z m -18.84536,-6.77337 c 7.19345,-7.38085 13.06839,-13.8741 13.05541,-14.42941 -0.0522,-2.25829 -11.7733,-13.90699 -39.51768,-39.2755 -16.08012,-14.70311 -38.19553,-35.663 -49.14537,-46.57756 -20.00114,-19.93675 -28.41575,-27.81118 -51.6398,-48.32473 -17.29106,-15.273 -22.80762,-20.77716 -43.79816,-43.69977 C 151.03512,112.59716 135.74569,96.45138 127.09104,87.67353 118.43639,78.89567 107.07491,66.22203 101.84331,59.50988 75.754412,26.03781 57.346062,6.34134 52.151962,6.34134 c -2.24674,0 -2.46654,14.75174 -0.36159,24.267 0.80869,3.65586 2.65204,12.71093 4.09617,20.12237 6.05941,31.09757 15.39528,49.95818 34.92051,70.54738 6.615,6.97547 19.116068,22.67028 27.780148,34.87735 8.66407,12.2071 17.45048,24.02332 19.52533,26.25828 2.07485,2.23497 7.00575,9.01227 10.95752,15.06067 9.29163,14.22129 51.89767,59.2088 78.17141,82.54079 28.86304,25.63141 35.66048,30.74317 38.71048,29.11087 3.24393,-1.73603 18.8517,-2.13592 22.8898,-0.58644 6.85041,2.62874 9.49127,19.87615 4.61634,30.1493 -2.4451,5.15271 -2.42312,5.61658 0.39624,8.36405 2.90518,2.83099 3.28187,2.63216 14.08237,-7.43225 6.10353,-5.68758 16.98289,-16.37993 24.17634,-23.76079 z"
     id="path248" /><path
     style="fill:#ffffff;fill-rule:evenodd;stroke-width:0.5605"
     d="m 280.28936,277.17294 c -3.92424,-1.50373 -4.87584,-3.00052 -4.75153,-7.47415 0.22821,-8.21547 4.83529,-11.25802 13.53893,-8.9414 4.39701,1.17027 5.12827,2.04492 5.12827,6.13343 0,2.57848 -0.36327,4.1261 -1.492,6.35704 -2.57295,5.08535 -6.31237,6.26676 -12.42367,3.92508 z m 7.6861,-3.00859 c 1.53576,-1.07563 3.39722,-4.90002 3.41475,-7.01552 0.0261,-3.11083 -7.96878,-5.41342 -10.58294,-3.04811 -1.42605,1.29024 -2.46657,4.49077 -2.20591,6.78501 0.15276,1.3465 0.68014,1.91204 2.71215,2.9094 3.03474,1.48956 4.91373,1.5937 6.66195,0.36922 z"
     id="path250" /></svg>
