<?xml version="1.0" encoding="UTF-8" standalone="no"?>
<!-- Created with Inkscape (http://www.inkscape.org/) -->

<svg
   width="512"
   height="512"
   viewBox="0 0 512 512"
   version="1.1"
   id="svg5"
   inkscape:version="1.2.1 (9c6d41e410, 2022-07-14)"
   sodipodi:docname="destruction.svg"
   xml:space="preserve"
   inkscape:export-filename="destruction.png"
   inkscape:export-xdpi="96"
   inkscape:export-ydpi="96"
   xmlns:inkscape="http://www.inkscape.org/namespaces/inkscape"
   xmlns:sodipodi="http://sodipodi.sourceforge.net/DTD/sodipodi-0.dtd"
   xmlns="http://www.w3.org/2000/svg"
   xmlns:svg="http://www.w3.org/2000/svg"><sodipodi:namedview
     id="namedview7"
     pagecolor="#ffffff"
     bordercolor="#999999"
     borderopacity="1"
     inkscape:pageshadow="0"
     inkscape:pageopacity="0"
     inkscape:pagecheckerboard="true"
     inkscape:document-units="px"
     showgrid="false"
     height="70mm"
     units="px"
     inkscape:zoom="2.0938812"
     inkscape:cx="250.25297"
     inkscape:cy="254.31242"
     inkscape:window-width="2560"
     inkscape:window-height="1351"
     inkscape:window-x="2391"
     inkscape:window-y="-9"
     inkscape:window-maximized="1"
     inkscape:current-layer="layer1"
     inkscape:showpageshadow="2"
     inkscape:deskcolor="#d1d1d1" /><defs
     id="defs2" /><g
     inkscape:label="Layer 1"
     inkscape:groupmode="layer"
     id="layer1"><path
       style="fill:#ffffff;fill-rule:evenodd;stroke-width:0.47343"
       d="m 198.94675,511.27755 c -2.86423,-0.36103 -8.19029,-0.8522 -11.83572,-1.09151 -9.60647,-0.63063 -14.74681,-1.90262 -26.51209,-6.56048 -10.56435,-4.1824 -19.42743,-8.73623 -24.58459,-12.63151 -6.03214,-4.55616 -15.00827,-13.24563 -16.08886,-15.57507 -1.39316,-3.00323 -3.99519,-12.37797 -4.31912,-15.5612 -0.16594,-1.63039 -0.69736,-4.34913 -1.18099,-6.04163 -0.4836,-1.69252 -1.22273,-4.67513 -1.64245,-6.62803 -0.41974,-1.9529 -0.95109,-4.4029 -1.18082,-5.44444 -1.60915,-7.29555 -1.82398,-21.92196 -1.07087,-72.90825 0.35839,-24.26129 0.62589,-32.07529 1.26427,-36.92755 0.44536,-3.38503 0.99732,-8.6046 1.2266,-11.59904 0.22929,-2.99445 0.74646,-8.85315 1.14931,-13.01933 1.46205,-15.12038 1.76824,-25.27323 1.52062,-50.42031 -0.33304,-33.82337 -1.09364,-62.85511 -1.69913,-64.85681 -0.27517,-0.90963 -0.50547,-2.93355 -0.51187,-4.49759 -0.006,-1.56403 -0.22632,-3.77506 -0.48876,-4.91339 -0.26244,-1.13833 -0.68456,-4.22746 -0.93802,-6.86474 -1.30143,-13.54137 -1.86665,-15.58762 -7.99399,-28.93998 -3.18957,-6.95055 -5.789657,-11.67746 -7.793507,-14.16844 -1.86409,-2.31724 -5.97223,-9.83114 -5.97223,-10.92336 0,-0.14148 -0.87994,-2.11673 -1.95543,-4.38948 -3.26305,-6.89556 -3.10952,-13.34209 0.44419,-18.65052 2.62469,-3.92071 5.02297,-6.6501 10.48883,-11.93694 2.724377,-2.63516 6.239597,-6.08752 7.811597,-7.67192 3.29916,-3.32518 9.73951,-8.25753 11.94387,-9.14722 2.93906,-1.18621 6.77422,1.22873 6.77422,4.26562 0,0.73802 -0.42977,2.1664 -0.95505,3.17417 -0.81985,1.57292 -0.99744,3.09966 -1.2545,10.78514 -0.37673,11.26271 -0.0622,13.23973 4.48164,28.16833 1.20073,3.94497 3.57527,6.99149 8.11298,10.40891 4.24858,3.19967 14.77017,13.67768 17.48771,17.41527 3.73686,5.13955 5.53709,10.1436 7.60312,21.13422 1.07894,5.73955 1.34749,16.27523 0.48883,19.17704 -0.27147,0.91751 -0.70142,11.45563 -0.96558,23.66838 -0.48361,22.35709 -0.3723,26.22413 1.19942,41.66186 0.3844,3.7756 0.88591,8.69616 1.1145,10.93456 0.22857,2.23841 0.5719,4.3227 0.76291,4.63177 0.191,0.30904 0.538,9.66243 0.7711,20.78525 0.23311,11.12283 0.65381,21.50158 0.93494,23.0639 0.28111,1.56232 0.71007,4.01232 0.95322,5.44445 0.74281,4.37512 1.04964,21.10199 0.53407,29.11596 -0.63163,9.81826 -2.37147,14.98855 -6.93005,20.5942 -3.89266,4.78676 -7.26489,9.71444 -8.43527,12.32606 -0.63764,1.42285 -1.74063,3.84265 -2.4511,5.37734 -1.90566,4.11646 -2.57731,6.19089 -3.59702,11.1096 -1.15629,5.57754 -1.24612,16.15871 -0.18921,22.2834 1.32185,7.65967 5.21847,17.73506 8.09647,20.9348 0.38586,0.42898 1.27415,1.63805 1.97402,2.68683 5.13174,7.69007 9.39702,12.22893 15.18472,16.15871 15.78073,10.71489 19.40103,12.71699 27.97663,15.47166 4.54788,1.46089 5.43546,1.59066 10.65217,1.5575 3.12998,-0.0196 7.92785,-0.33988 10.66188,-0.71104 2.73408,-0.37117 8.80579,-0.89397 13.4928,-1.16176 10.05529,-0.57451 12.15514,-0.98536 16.19878,-3.16932 3.49212,-1.88606 9.61907,-6.41384 11.8101,-8.72755 4.50527,-4.7576 9.24241,-15.48484 10.62857,-24.06856 0.27309,-1.69252 0.69339,-4.24904 0.9334,-5.68117 0.93995,-5.60774 1.85423,-13.06334 1.85423,-15.1206 0,-4.79064 -3.52723,-18.96636 -4.71925,-18.96636 -0.19907,0 -0.25964,5.80543 -0.13459,12.90097 0.21366,12.09306 0.16319,13.16539 -0.80548,17.12336 -1.54122,6.29831 -2.31171,7.98213 -6.7337,14.71481 -8.90527,13.55886 -17.83051,19.09405 -38.09497,23.62545 -8.69145,1.94353 -25.47393,-0.27617 -33.87227,-4.48004 -11.59677,-5.80486 -25.03383,-19.56735 -29.53212,-30.24735 -3.3275,-7.90032 -3.68172,-9.95352 -3.72033,-21.56473 -0.0493,-14.77943 0.57593,-17.92338 5.88288,-29.58939 1.3622,-2.99444 2.89205,-6.38402 3.39968,-7.53239 0.78398,-1.77354 2.49098,-4.2396 6.06355,-8.75986 2.8857,-3.65118 8.56405,-9.62432 10.5876,-11.13726 4.16616,-3.11489 9.32478,-5.58832 16.78102,-8.04608 3.94697,-1.30103 8.12704,-2.79861 9.28901,-3.32795 1.16196,-0.52931 3.21039,-1.19785 4.55208,-1.48559 3.21359,-0.68919 15.97033,-0.26031 21.52552,0.72366 2.3435,0.41508 5.85867,0.96341 7.8116,1.21848 9.38047,1.22517 17.10431,2.77594 19.16222,3.84731 1.04796,0.54563 4.46192,2.49382 7.58657,4.32936 5.01775,2.94762 6.39062,4.06098 11.75649,9.53402 3.34139,3.40818 7.202,7.68798 8.57908,9.51069 1.37707,1.82271 2.98227,3.7401 3.56715,4.26087 1.93218,1.72046 6.95419,9.39429 9.13995,13.96619 3.64494,7.62409 4.71382,18.44432 3.27376,33.14011 -0.29328,2.99445 -0.74941,7.68141 -1.01325,10.41546 -1.82502,18.91233 -3.97343,24.96042 -13.05198,36.74316 -1.5623,2.0277 -4.43836,5.97564 -6.39129,8.77321 -9.49396,13.60036 -14.99504,19.80362 -20.14266,22.71388 -10.00673,5.65737 -15.62372,8.29203 -20.27472,9.50993 -2.11662,0.55426 -5.23309,1.63263 -6.92565,2.39641 -3.64241,1.64376 -6.08786,2.40721 -10.88888,3.3994 -4.50756,0.93155 -21.13213,0.9107 -28.64249,-0.0359 z m 28.40586,-9.15911 c 2.34345,-0.59602 5.64564,-1.71849 7.33815,-2.49436 1.69251,-0.77589 5.10119,-1.93704 7.5749,-2.58035 2.58043,-0.67107 6.21292,-2.08166 8.52171,-3.30919 2.21329,-1.17675 5.02251,-2.64458 6.24269,-3.26185 4.52629,-2.28978 7.43438,-4.49845 10.05159,-7.63406 3.47003,-4.15739 8.23846,-10.51378 12.36044,-16.47659 1.79995,-2.60387 4.45098,-6.22781 5.89109,-8.05321 5.04433,-6.3937 7.69749,-11.52517 8.54823,-16.533 0.22431,-1.31962 0.75204,-4.3167 1.17312,-6.66018 1.32886,-7.39622 2.78943,-23.56631 2.7582,-30.53624 -0.0224,-5.26431 -0.98796,-11.28691 -2.35854,-14.72933 -0.77817,-1.95449 -4.59459,-8.85563 -6.0329,-10.9091 -0.36002,-0.51378 -1.79642,-2.1455 -3.1924,-3.62611 -1.39597,-1.4806 -3.11758,-3.53263 -3.82578,-4.56006 -1.81133,-2.62769 -12.75561,-13.62603 -14.39563,-14.46674 -0.74812,-0.38351 -2.74496,-1.56838 -4.43747,-2.6331 -4.91378,-3.09114 -9.02398,-4.29932 -19.17393,-5.63608 -5.48302,-0.72212 -8.9779,-1.25101 -14.40024,-2.17925 -1.41044,-0.24147 -5.24525,-0.43392 -8.5217,-0.42775 -5.32141,0.0101 -6.26053,0.14058 -8.79789,1.22301 -1.5623,0.66647 -4.22538,1.65185 -5.91789,2.18972 -7.76792,2.46863 -14.18927,5.28814 -17.23043,7.56563 -4.94242,3.70136 -15.43623,16.57361 -15.43623,18.9349 0,0.34448 -0.69544,1.94236 -4.28424,9.84363 -1.00528,2.21328 -2.10367,5.08937 -2.44086,6.39131 -0.70912,2.73802 -0.86478,23.89041 -0.19857,26.98551 0.63511,2.95065 4.18483,10.09108 6.73904,13.55588 2.31982,3.14686 8.11699,9.42384 11.00878,11.91996 2.47375,2.13528 9.57611,6.57737 11.99436,7.50173 2.70537,1.0341 6.87563,1.92857 14.18911,3.04338 5.83781,0.88987 5.24985,0.92987 13.88612,-0.94463 13.60344,-2.95262 22.43115,-8.32295 28.47488,-17.32269 7.1757,-10.68534 7.26912,-11.0454 7.26912,-28.01698 0,-11.7313 -0.0897,-13.11674 -1.18114,-18.25907 -1.33996,-6.31271 -1.4682,-8.95248 -0.54114,-11.14256 0.91018,-2.15051 2.28911,-3.21957 4.54249,-3.52181 3.24354,-0.43505 5.12615,0.77773 8.8354,5.69182 1.7916,2.37355 3.4942,4.75048 3.78345,5.28206 3.04412,5.59384 3.99928,7.65755 5.04887,10.90855 2.85229,8.83434 3.34004,16.26282 1.78761,27.22224 -2.06558,14.58166 -3.8477,21.85944 -6.91987,28.25864 -2.31961,4.83166 -6.0315,10.26707 -8.88475,13.01018 -5.08358,4.88733 -14.32974,10.48021 -20.43706,12.36208 -1.48979,0.45904 -5.25294,0.83472 -10.15326,1.01356 -4.28236,0.15629 -9.07586,0.48725 -10.65217,0.73551 -7.405,1.16612 -12.84237,1.54179 -18.98423,1.31162 -6.32552,-0.23704 -6.85819,-0.33747 -12.52435,-2.36142 -8.68392,-3.10184 -11.7619,-4.63405 -18.55321,-9.23574 -3.36267,-2.2785 -7.57491,-5.10142 -9.36053,-6.27316 -6.8796,-4.51444 -9.94448,-7.50567 -16.26524,-15.87438 -7.00272,-9.27161 -8.995,-13.06486 -12.12954,-23.09431 -1.82031,-5.82436 -2.37893,-10.50162 -2.38811,-19.99553 -0.0101,-10.34286 0.71176,-14.75847 3.61909,-22.14079 4.21544,-10.70392 7.1721,-15.92484 12.35414,-21.81524 1.12078,-1.27399 2.78318,-3.86609 3.69422,-5.76021 1.42723,-2.96734 1.72702,-4.21619 2.16659,-9.02557 0.7058,-7.72223 0.24954,-27.98818 -0.76076,-33.79162 -0.58593,-3.36571 -0.87736,-9.39552 -1.15801,-23.95988 -0.20625,-10.70426 -0.50705,-19.67588 -0.66837,-19.93693 -0.53828,-0.87093 -2.46013,-18.63871 -3.199,-29.57515 -0.59618,-8.82429 0.20389,-52.10269 1.03985,-56.2479 0.59689,-2.95981 0.30461,-11.0686 -0.5546,-15.38648 -1.24549,-6.2591 -2.38099,-10.42212 -3.52324,-12.91712 -1.1632,-2.54079 -5.15912,-7.84336 -7.41489,-9.83955 -0.60839,-0.53839 -2.27791,-2.24621 -3.71003,-3.79519 -1.43213,-1.54898 -4.62778,-4.32705 -7.10145,-6.17348 -5.27615,-3.9383 -5.87547,-4.56894 -8.45009,-8.89146 -2.09924,-3.52441 -3.96803,-8.83546 -6.01292,-17.08854 -1.04986,-4.23719 -1.34438,-6.74465 -1.58034,-13.45453 -0.19161,-5.4488 -0.47059,-8.30657 -0.82225,-8.42298 -0.58265,-0.19291 -11.68674,10.56566 -14.658667,14.20251 -3.20263,3.91915 -4.09773,5.93351 -3.80168,8.55537 0.14288,1.26536 0.66376,2.98534 1.15751,3.82218 0.49376,0.83685 1.34755,2.72381 1.89734,4.19325 1.72707,4.61599 3.835327,8.5442 5.770347,10.75155 1.02717,1.17174 1.87091,2.31259 1.87498,2.53521 0.004,0.22263 0.60266,1.28784 1.3302,2.36715 0.72754,1.07931 1.66624,2.81455 2.086,3.8561 0.41979,1.04155 2.16798,4.80162 3.88494,8.35571 1.71694,3.5541 3.12172,6.66375 3.12172,6.91036 0,0.24662 0.30517,1.06696 0.6781,1.82304 1.12525,2.28116 2.98101,10.52931 3.55809,15.81428 0.29855,2.73407 0.84233,7.3145 1.20843,10.17876 0.36613,2.86425 0.89848,7.12511 1.18305,9.4686 1.45345,11.96941 2.31004,103.76907 1.04698,112.20294 -0.31195,2.0831 -0.78574,6.55701 -1.05282,9.94204 -0.58492,7.41333 -1.33403,15.60523 -1.92653,21.06764 -0.24006,2.21329 -0.64555,17.76547 -0.90107,34.5604 -0.25554,16.79494 -0.68114,31.83907 -0.94583,33.43142 -0.82474,4.96163 -0.47312,18.87652 0.87796,34.74252 0.35654,4.18711 2.48498,15.03942 3.16564,16.14074 0.11311,0.18303 0.63703,2.9029 1.16425,6.04415 1.67769,9.99599 3.66113,15.25177 6.67003,17.6744 1.06962,0.86122 3.46661,3.01146 5.32664,4.77831 4.11099,3.90505 9.13356,7.35764 14.23811,9.78747 8.85888,4.21696 11.59383,5.43168 15.18242,6.74322 10.83424,3.95963 15.03096,4.90513 24.85506,5.59967 10.1158,0.71516 16.17501,1.32583 16.50345,1.66329 0.16655,0.17142 3.81855,0.21724 8.11493,0.10178 6.06285,-0.16291 8.76547,-0.45249 12.07248,-1.29354 z"
       id="path862" /><path
       style="fill:#ffffff;fill-rule:evenodd;stroke-width:0.47343"
       d="m 254.33809,331.59938 c -2.86423,-0.22705 -7.27259,-0.83643 -9.79633,-1.35412 -2.52373,-0.5177 -5.08027,-0.94683 -5.68119,-0.95366 -2.3642,-0.0269 -5.5645,-2.13444 -11.35532,-7.4781 -4.00854,-3.69903 -3.79959,-1.59804 -4.26879,-42.9298 -0.22767,-20.04976 -0.28543,-45.93456 -0.12785,-57.52176 0.27533,-20.31215 0.24954,-21.23742 -0.72659,-25.80195 -1.33676,-6.25192 -1.88861,-21.28124 -0.90727,-24.70985 0.9371,-3.27405 0.84766,-12.04361 -0.15477,-15.20485 -1.24255,-3.91732 -3.87978,-7.85866 -6.53474,-9.76605 -1.7035,-1.22385 -2.67727,-2.39006 -3.48825,-4.17762 -3.90502,-8.60753 -4.5213,-17.02191 -2.17539,-29.70205 0.26525,-1.43213 0.70814,-3.88212 0.98488,-5.44445 2.35719,-13.30803 6.08988,-20.56388 11.32874,-22.02159 2.42263,-0.67409 12.77642,-0.57723 14.15725,0.1324 2.51275,1.29135 2.98654,2.63251 2.98783,8.45818 6.7e-4,2.96047 -0.23496,5.98241 -0.52376,6.71543 -0.70079,1.77955 -0.66591,4.70242 0.0667,5.61232 0.32525,0.40409 1.65701,1.45678 2.95895,2.33927 2.13579,1.44772 2.69297,1.60455 5.70059,1.60455 3.02703,0 3.75154,-0.20754 7.88193,-2.25758 5.081,-2.52186 5.66207,-3.27008 7.1928,-9.26134 1.13308,-4.43498 1.01325,-8.01181 -0.3359,-10.03062 -0.60608,-0.90667 -2.42858,-4.31156 -4.04998,-7.56639 -3.78726,-7.60234 -4.6293,-11.63473 -5.4432,-26.06495 l -0.60227,-10.67847 -2.2231,-3.28772 c -1.2227,-1.80825 -3.39108,-4.77903 -4.81862,-6.60173 -3.87143,-4.94307 -4.65774,-6.85174 -4.6809,-11.36233 -0.0168,-3.83729 0.76292,-6.32169 3.05725,-9.70531 0.44132,-0.65097 1.29027,-2.53009 1.88642,-4.1758105 1.65769,-4.57601 3.23288,-6.44283 6.45315,-7.64767996 5.30951,-1.98654004 8.40759,-0.0616 9.38674,5.83206996 0.3802,2.28873 4.2287,6.4619205 5.96696,6.4704405 2.73818,0.0134 17.92819,4.38795 20.60227,5.93318 3.36606,1.94508 3.73886,2.91612 3.71811,9.68442 -0.0168,4.8632 -0.19683,6.38194 -1.02104,8.52174 -1.0243,2.65937 -1.75638,5.6747 -2.29881,9.46861 -0.16767,1.17174 -0.63311,3.15791 -1.03462,4.41371 -0.51759,1.61864 -0.64886,3.25065 -0.45142,5.60651 0.24674,2.94095 0.50021,3.61635 2.20242,5.8713 1.99325,2.64004 7.01868,7.11537 8.73906,7.78244 0.54114,0.20984 3.30869,0.97106 6.14999,1.69161 3.75445,0.95211 5.57555,1.66963 6.66467,2.62587 3.55975,3.12553 3.45528,10.10439 -0.25066,16.74771 -1.918,3.43808 -4.31029,6.30349 -10.94995,13.11558 -3.48562,3.57611 -5.44628,6.01506 -6.32602,7.86912 -0.70112,1.47774 -1.7538,3.6455 -2.33918,4.81724 -0.58544,1.17174 -1.63161,3.89332 -2.32494,6.04795 -0.69328,2.15463 -1.87415,5.25729 -2.62412,6.89481 -1.25539,2.74094 -3.67869,10.07927 -6.43514,19.48721 -0.61034,2.08309 -1.36261,5.49179 -1.67165,7.57488 -0.30898,2.08309 -0.74745,4.85266 -0.97417,6.15459 -0.22655,1.30194 -0.62351,3.81886 -0.88175,5.59318 -0.25795,1.77432 -0.58185,3.40783 -0.71918,3.63004 -0.31403,0.508 -1.11492,9.09204 -1.65735,17.7623 -0.22823,3.64542 -0.8545,11.63455 -1.39211,17.75363 -0.84715,9.64283 -0.97758,14.75685 -0.97876,38.37157 -10e-4,25.83546 0.38132,37.08393 1.43775,42.28411 0.8065,3.96963 1.15535,24.7802 0.48619,29.00398 -0.97125,6.13057 -3.75058,11.09953 -7.40679,13.24222 -2.08768,1.22347 -2.27425,1.23411 -10.37835,0.59161 z m 6.53659,-9.76922 c 2.12632,-2.34952 2.36526,-4.01859 2.33952,-16.34037 -0.0112,-6.45796 -0.25178,-13.06231 -0.52936,-14.67633 -1.37052,-7.96854 -1.70103,-15.32026 -1.83349,-40.78089 -0.13514,-26.01848 0.0168,-30.77479 1.50903,-46.89769 0.40936,-4.42658 0.96429,-11.45702 1.23296,-15.6232 0.80683,-12.51194 1.38223,-16.64966 5.16826,-37.16426 0.66148,-3.58428 6.68339,-21.78114 8.4857,-25.64181 0.80981,-1.73462 1.47235,-3.35796 1.47235,-3.60741 0,-2.26512 5.21469,-13.51974 7.94479,-17.14694 0.68593,-0.91135 2.61963,-2.93527 4.29705,-4.49759 7.8457,-7.30742 13.53379,-16.05531 11.65875,-17.93033 -0.35833,-0.35822 -2.74002,-1.13827 -5.29286,-1.73343 -2.55284,-0.59516 -5.39615,-1.55529 -6.31839,-2.13363 -0.9223,-0.57833 -3.84182,-3.15399 -6.48786,-5.72368 -6.36073,-6.17723 -7.35906,-8.22257 -7.61214,-15.59504 -0.14356,-4.19044 0.0112,-5.94702 0.77453,-8.75846 0.52488,-1.93422 1.08918,-4.50702 1.25382,-5.71734 0.16487,-1.21033 0.82119,-3.87338 1.45901,-5.91789 0.63787,-2.0445 1.29184,-4.7959 1.45328,-6.1142 0.35104,-2.86745 -0.26916,-3.71528 -3.26961,-4.47022 -1.09495,-0.27547 -3.37559,-0.91599 -5.0681,-1.42339 -1.69251,-0.5074 -4.88816,-1.26808 -7.10145,-1.69041 -4.83668,-0.92291 -7.40662,-2.31612 -10.70394,-5.80283 -2.9258,-3.09388 -3.2003,-3.01288 -5.39845,1.59294 -2.27711,4.77127 -1.94373,6.34398 2.4759,11.67899 3.23042,3.89955 3.04402,3.65689 4.40573,5.73507 3.08198,4.70366 3.14478,4.97915 3.79219,16.64172 0.3331,5.9994 0.73079,11.22757 0.88377,11.61815 0.15309,0.39058 0.57282,2.4145 0.93284,4.49759 0.43908,2.53931 1.15439,4.63456 2.17118,6.358 0.83408,1.41381 1.85849,3.43773 2.27643,4.49759 0.41778,1.05986 1.45906,2.95256 2.31351,4.20599 1.96151,2.87741 2.23656,4.39709 1.92892,10.65751 -0.36954,7.51828 -2.52637,14.02465 -5.66717,17.09538 -1.58938,1.55388 -11.03204,6.35022 -14.08727,7.15551 -2.56601,0.67635 -9.26702,0.27164 -11.59286,-0.70017 -0.87861,-0.36707 -3.32569,-1.77606 -5.43799,-3.13106 -2.89704,-1.85836 -4.08569,-2.94357 -4.83813,-4.41713 -1.30749,-2.56054 -1.63234,-7.37604 -0.84082,-12.46423 0.53385,-3.43197 0.52656,-4.0709 -0.0505,-4.4468 -0.78642,-0.51204 -4.17957,-0.0765 -5.08083,0.65213 -1.35207,1.09315 -3.49712,7.65117 -4.60166,14.0687 -0.42563,2.47367 -1.07634,5.81963 -1.44572,7.43547 -0.39085,1.70999 -0.67163,5.45781 -0.67163,8.96719 0,5.23211 0.16767,6.55572 1.26823,10.01058 1.11268,3.49311 1.48536,4.11836 3.03953,5.09947 0.97428,0.61502 2.295,1.81865 2.93495,2.67473 2.26741,3.03317 5.02627,8.70842 6.04995,12.44543 0.91136,3.32687 1.00411,4.53587 0.7627,9.94203 -0.15141,3.38503 -0.52544,7.43286 -0.83122,8.99518 -0.70349,3.59182 -0.26973,14.82645 0.74913,19.41063 1.62583,7.31372 1.77763,9.33659 1.38588,18.46378 -0.46208,10.76709 -0.42619,35.68481 0.10766,74.56525 l 0.3931,28.64252 2.52379,2.3494 c 3.49426,3.25278 3.60664,3.31158 8.12839,4.25202 2.21329,0.46034 4.76983,1.00296 5.68119,1.20584 0.9113,0.20289 3.70112,0.39338 6.19957,0.42333 3.80514,0.0454 4.66682,-0.0829 5.308,-0.79139 z"
       id="path864" /><path
       style="fill:#ffffff;fill-rule:evenodd;stroke-width:0.47343"
       d="m 183.43746,333.36163 c -3.19969,-1.14177 -3.87861,-2.08678 -5.12592,-7.13491 -1.73045,-7.00347 -2.37934,-9.5331 -2.91462,-11.36233 -0.3945,-1.34817 -0.62824,-13.48661 -0.81133,-42.13528 -0.14142,-22.13286 -0.44025,-40.52519 -0.66398,-40.87185 -0.22375,-0.34667 -0.48445,-15.89884 -0.5794,-34.5604 -0.15887,-31.23187 -0.48938,-41.32964 -1.55988,-47.65959 -0.22015,-1.30193 -0.67162,-4.28454 -1.0032,-6.62803 -1.01001,-7.13831 -1.26916,-7.80654 -4.03825,-10.41291 -2.70725,-2.54816 -7.49411,-9.55354 -8.89801,-13.02187 -0.4743,-1.17175 -1.31329,-2.98262 -1.86444,-4.02416 -5.42421,-10.25042 -5.55824,-10.58863 -5.55824,-14.02567 0,-4.08552 1.11751,-9.64435 2.62335,-13.04931 1.49061,-3.37055 5.26285,-7.42962 12.38253,-13.3241 3.1757,-2.6292 5.98456,-5.17381 6.24193,-5.6547 0.25739,-0.48091 1.30952,-1.89278 2.33814,-3.13755 1.02861,-1.24476 2.69365,-3.86322 3.7001,-5.81881 l 1.82991,-3.55561 -0.0151,-6.69782 c -0.008,-3.6838 -0.19784,-9.46738 -0.42114,-12.85241 -0.59169,-8.96988 0.66159,-13.88973 3.88094,-15.23486 3.4472,-1.44033 5.6381,0.19054 11.04257,8.21992 2.93052,4.35378 5.58688,9.35781 7.74499,14.58982 0.42955,1.04155 1.32341,4.09992 1.98624,6.79638 l 1.20514,4.90266 -0.27141,17.34856 c -0.25122,16.03242 -0.60675,23.17064 -1.67877,33.6819 -0.22599,2.21329 -0.64886,7.11329 -0.94029,10.88889 -0.2916,3.77561 -0.74033,7.4824 -0.99755,8.23732 -0.25739,0.75492 -0.46768,4.60961 -0.46768,8.56599 0,11.03895 1.25001,13.92105 10.16599,23.4388 2.46844,2.63502 3.47059,4.1008 3.88432,5.68116 0.30674,1.17144 1.03125,3.94077 1.61019,6.15405 1.40186,5.35947 1.77825,10.31587 2.319,30.53625 0.25066,9.37391 0.69782,18.32174 0.99373,19.88406 0.74403,3.92851 1.08862,62.959 0.46824,80.24641 -0.56615,15.78101 -1.05794,20.24706 -2.5216,22.89815 -1.30429,2.36257 -2.89614,3.46305 -7.82854,5.41215 -5.12895,2.02679 -8.3302,2.83507 -14.50588,3.66259 -6.31654,0.84641 -9.41531,0.85092 -11.75196,0.0168 z m 11.72187,-9.03525 c 2.60387,-0.39114 5.79951,-1.05849 7.10145,-1.48297 2.70654,-0.88244 6.67717,-2.79496 7.04784,-3.39471 0.13739,-0.22257 0.61381,-2.7299 1.05834,-5.57181 0.7138,-4.56395 0.81288,-10.00253 0.84855,-46.59223 0.0337,-33.69906 -0.0802,-41.82248 -0.60473,-43.55557 -0.45759,-1.51188 -0.76237,-7.2851 -1.04897,-19.88407 -0.45423,-19.96689 -0.76153,-24.06758 -2.35697,-31.45084 l -1.11834,-5.17547 -3.33314,-3.6221 c -6.12179,-6.65248 -8.37445,-10.13348 -9.99434,-15.44434 -1.12625,-3.69245 -1.1812,-4.38673 -1.03181,-13.04328 0.0869,-5.02878 0.41104,-11.38019 0.72058,-14.11424 0.30955,-2.73407 0.78575,-7.63407 1.05817,-10.8889 0.27254,-3.25483 0.69664,-7.51571 0.94254,-9.4686 0.81031,-6.43446 1.4294,-19.94412 1.42519,-31.09804 -0.004,-9.15943 -0.15309,-11.58983 -0.90345,-14.67634 -0.89476,-3.68068 -1.20666,-4.73408 -1.9365,-6.53965 -0.21029,-0.52079 -0.66087,-1.69252 -1.0008,-2.60387 -0.81199,-2.17701 -2.31524,-4.7343 -2.78298,-4.7343 -0.20412,0 -0.45703,4.20761 -0.56218,9.35024 l -0.19083,9.35025 -2.05777,4.02415 c -3.36554,6.58163 -9.84406,14.44499 -15.1107,18.34074 -3.13189,2.31667 -9.01091,8.26881 -9.79104,9.9128 -1.03794,2.18729 -2.34095,9.15945 -1.97943,10.59146 0.16106,0.63792 1.07734,2.43811 2.03619,4.00043 0.95885,1.56233 2.75505,5.03475 3.99154,7.71651 2.50804,5.4395 5.06959,9.54249 6.94219,11.1197 4.25203,3.5813 5.92419,6.61717 6.73541,12.22841 0.27797,1.92268 0.83357,5.5197 1.23469,7.99337 1.42232,8.77149 1.72641,16.69785 1.84519,48.09534 0.0681,18.00421 0.30646,32.05133 0.55023,32.42997 0.24387,0.37874 0.54988,18.50213 0.70674,41.85639 0.29379,43.73522 0.33921,44.6188 2.67883,52.07731 0.65343,2.0831 1.26104,4.05375 1.35023,4.37923 0.21062,0.76859 1.75199,0.74301 7.53002,-0.12499 z"
       id="path866" /><path
       style="fill:#ffffff;fill-rule:evenodd;stroke-width:0.47343"
       d="m 313.30517,391.20501 c -0.84441,-0.58588 -2.03116,-2.02392 -2.63724,-3.19566 -2.50926,-4.85093 -6.88925,-14.62371 -7.68784,-17.15333 -1.01903,-3.2278 -6.09044,-9.96414 -12.91218,-17.15124 -5.43434,-5.72534 -7.07594,-8.04378 -8.56163,-12.09159 -1.08526,-2.95669 -1.12726,-3.54113 -1.07253,-14.91304 0.0336,-6.50967 0.29441,-18.51117 0.58528,-26.67001 0.34935,-9.81152 0.37122,-15.50213 0.0645,-16.80677 -1.64635,-6.99922 -1.47925,-57.40959 0.23945,-72.27689 1.17924,-10.19998 1.656,-14.60674 2.10013,-19.41064 0.2288,-2.47368 0.66289,-5.98889 0.9648,-7.8116 0.3017,-1.82271 0.86611,-5.2314 1.25371,-7.57488 1.71057,-10.34161 6.0965,-23.37823 11.54755,-34.32369 4.9116,-9.86219 12.13148,-22.80252 17.16936,-30.77296 0.90525,-1.43213 2.48712,-4.20169 3.51534,-6.15459 1.02822,-1.9529 2.40754,-4.4029 3.06527,-5.44445 3.07497,-4.86971 5.59708,-11.84655 5.59708,-15.48307 0,-1.94382 -2.02466,-9.21034 -4.26016,-15.28989 -2.26286,-6.15389 -2.60459,-8.91797 -2.60459,-21.06764 V 36.01403 l 1.96122,-5.68116 c 1.07864,-3.12464 2.49951,-7.06595 3.15746,-8.75846 0.65795,-1.69251 1.32841,-3.86994 1.48996,-4.83872 0.44806,-2.6853 2.31838,-4.62988 4.45368,-4.62988 3.56222,0 5.27099,2.58281 5.27099,7.96704 0,2.70324 0.20356,3.56354 1.18804,5.0138 0.65341,0.96286 1.61355,2.58476 2.13366,3.60423 0.51984,1.01947 2.06268,2.68972 3.42792,3.71166 4.47358,3.3486 9.66068,9.428 12.37222,14.50039 0.69591,1.30193 2.73464,4.33694 4.53038,6.74445 4.75514,6.37508 5.87253,10.73776 5.91167,23.08165 0.0224,7.11885 -0.10374,8.4857 -1.09204,11.83575 -1.92741,6.53197 -5.14515,15.91645 -7.06836,20.61464 -1.71842,4.19794 -6.84473,12.46795 -9.81843,15.83948 -1.76591,2.00219 -4.7391,8.4284 -5.58552,12.07247 -1.37024,5.89931 -3.11843,12.10519 -4.73445,16.80677 -1.53073,4.45343 -2.39818,7.98909 -3.6008,14.67633 -1.46114,8.12489 -2.52351,13.77112 -3.47413,18.46378 -1.23677,6.10567 -1.40433,14.81086 -0.37795,19.64735 0.64802,3.05397 2.60656,7.53939 4.4032,10.08388 0.51479,0.72898 2.20314,2.38007 3.75204,3.66908 l 2.81623,2.34367 h 4.49562 c 4.13331,0 4.57962,-0.0912 5.5382,-1.13123 1.817,-1.9714 9.6018,-17.8153 11.65819,-23.72711 3.44934,-9.91614 5.35438,-11.87996 11.16533,-11.50994 4.22668,0.26911 5.38657,1.29657 8.2757,7.33076 2.53416,5.29274 4.70103,11.79744 6.28228,18.85877 0.70842,3.16344 1.00747,6.57765 1.16112,13.25604 0.24282,10.55067 -0.0392,12.57097 -2.96001,21.05136 -1.8821,5.46848 -3.93081,8.88049 -7.54759,12.56989 l -3.32087,3.38753 -5.68119,1.749 c -3.12466,0.96195 -6.63983,2.08589 -7.81161,2.49765 -1.17172,0.41178 -4.04779,1.38519 -6.39129,2.16318 -6.64723,2.20673 -11.33682,4.11902 -12.88156,5.25279 -5.08925,3.73522 -6.43986,4.91833 -9.07317,7.94789 -1.61899,1.86259 -3.46218,4.40978 -4.0959,5.66043 -2.70111,5.33037 -2.57751,3.18743 -2.58503,44.82706 -0.004,22.55557 -0.1929,39.29425 -0.45702,40.47828 -0.24786,1.11038 -0.70231,3.51018 -1.01056,5.33289 -0.8374,4.95188 -2.20175,9.01073 -3.57899,10.6475 -2.4943,2.96433 -5.93813,3.6718 -8.6647,1.78004 z m 3.81114,-16.80678 c 0.45029,-1.69009 0.66541,-12.36407 0.86683,-42.96378 l 0.26805,-40.715 1.55495,-3.60206 c 2.24952,-5.21116 3.66165,-7.17885 9.0813,-12.65415 7.0839,-7.1566 13.31442,-10.85617 22.03043,-13.08129 1.56235,-0.39882 4.43842,-1.33916 6.39135,-2.0896 1.95287,-0.75044 5.68113,-1.95626 8.285,-2.6796 4.37253,-1.21467 4.90807,-1.49641 7.00775,-3.68672 2.27885,-2.37718 2.95653,-3.59014 5.20336,-9.31288 2.66769,-6.79468 3.50048,-18.10708 1.94901,-26.47519 -1.62455,-8.76255 -5.68254,-20.1468 -7.00113,-19.64081 -0.33366,0.12796 -1.09995,1.87486 -1.70345,3.88203 -1.20811,4.01827 -10.50654,22.5614 -13.17809,26.28 -0.94742,1.31868 -2.36639,2.6309 -3.23939,2.99568 -2.05308,0.85782 -16.95307,0.89053 -18.47012,0.0404 -4.08923,-2.29114 -11.63951,-10.98074 -13.28985,-15.29515 -2.39078,-6.25019 -2.72741,-8.31911 -2.72741,-16.76294 0,-7.97729 0.28712,-10.49559 2.13047,-18.70049 0.23384,-1.04155 0.76068,-3.81111 1.17043,-6.1546 1.37473,-7.86351 1.66279,-9.45223 2.36067,-13.01932 0.38188,-1.9529 1.63548,-6.3203 2.78539,-9.70532 1.14991,-3.38503 2.66185,-8.49807 3.35989,-11.36232 2.40177,-9.85494 4.01919,-13.91848 7.34152,-18.44417 7.92488,-10.79534 8.91284,-12.70687 13.30701,-25.74646 3.83891,-11.39175 3.93149,-11.92685 3.628,-20.96922 -0.31907,-9.50975 -0.8453,-11.50929 -4.17727,-15.87472 -3.08428,-4.04096 -3.28049,-4.33082 -5.51801,-8.15174 -2.08404,-3.55883 -7.12405,-9.34904 -9.8676,-11.33648 -1.06524,-0.77152 -2.74053,-2.38372 -3.72288,-3.58251 -1.91093,-2.33207 -2.61884,-2.69089 -2.61884,-1.32745 0,0.46869 -0.18394,1.05456 -0.40936,1.30193 -0.94344,1.03729 -1.48408,5.31272 -1.47527,11.66666 0.0112,9.27079 0.48114,11.94106 4.02222,22.92116 2.91425,9.03709 3.06986,9.75302 3.06986,14.12243 0,3.91308 -0.21477,5.21091 -1.43253,8.66147 -1.3814,3.91373 -4.28433,10.02062 -5.46121,11.48869 -0.31291,0.39057 -1.43326,2.35413 -2.48925,4.36346 -1.05598,2.0093 -2.93017,5.31148 -4.16487,7.33816 -2.79863,4.59367 -5.03418,8.46855 -7.179,12.44332 -0.91327,1.69251 -1.92893,3.39686 -2.25704,3.78745 -0.32805,0.39057 -2.85901,5.11202 -5.62427,10.4921 -3.81451,7.42142 -5.59742,11.5343 -7.38828,17.04349 -3.69058,11.353 -4.2638,13.66005 -5.44074,21.89721 -0.406,2.84191 -0.83745,5.32759 -0.95869,5.52376 -0.12112,0.19616 -0.43235,2.66445 -0.69126,5.48509 -0.25907,2.82062 -0.6612,6.83277 -0.89397,8.91586 -0.23272,2.0831 -0.81805,7.30266 -1.30076,11.59904 -0.75457,6.71703 -0.87754,11.65917 -0.87754,35.27054 0,20.64274 0.15757,28.45788 0.63478,31.48311 0.52488,3.32844 0.53386,6.88889 0.0505,20.59421 -0.32132,9.11353 -0.60114,20.93746 -0.62116,26.27538 -0.0449,12.55364 0.0566,12.84863 7.16672,20.39727 2.79997,2.97257 5.97482,6.59572 7.05525,8.05146 1.08043,1.45574 2.25383,2.94704 2.60751,3.31401 2.08129,2.15933 4.33272,6.00471 5.41662,9.25149 1.74225,5.21874 3.5251,8.69593 4.45861,8.69593 0.20748,0 0.64656,-1.01196 0.97596,-2.2488 z"
       id="path868" /><path
       style="fill:#ffffff;fill-rule:evenodd;stroke-width:0.47343"
       d="m 295.50343,497.43671 c -5.04012,-0.22862 -6.94371,-0.49381 -7.85916,-1.09476 -2.8187,-1.85033 -3.74553,-7.79792 -1.69049,-10.84743 0.59369,-0.88097 1.4991,-1.81841 2.01209,-2.0832 0.5131,-0.26479 3.16957,-1.67277 5.90365,-3.12884 2.73408,-1.45608 5.71669,-2.9301 6.62805,-3.27563 2.02297,-0.76699 7.83258,-4.98206 11.36227,-8.24382 1.43215,-1.32339 3.40235,-3.04413 4.37825,-3.82387 0.9759,-0.77973 2.76778,-2.69596 3.98196,-4.25828 1.21417,-1.56232 2.99472,-3.69275 3.95677,-4.7343 2.54078,-2.75068 7.38217,-9.78962 9.23467,-13.42631 5.90247,-11.58722 10.52903,-23.59016 11.61344,-30.12926 0.21589,-1.30194 0.73085,-4.17803 1.1443,-6.39131 0.41329,-2.21329 0.87256,-7.32633 1.02021,-11.36232 0.14748,-4.036 0.45758,-8.08003 0.68873,-8.98675 0.23104,-0.90672 0.63804,-10.06759 0.90435,-20.3575 0.26637,-10.2899 0.72188,-20.62617 1.01241,-22.96949 0.56548,-4.56051 2.15694,-9.89409 4.09686,-13.72977 1.45597,-2.87887 4.08485,-10.17077 5.29106,-14.67634 1.69577,-6.33413 2.48622,-8.54485 4.50577,-12.60133 2.00262,-4.02235 7.65605,-12.5625 10.14894,-15.33104 0.70337,-0.78117 2.15851,-2.59204 3.23361,-4.02416 1.07516,-1.43213 2.6609,-3.28125 3.52392,-4.10916 1.5923,-1.52749 7.15316,-4.88602 8.09003,-4.88602 0.28151,0 2.41921,-0.96899 4.75015,-2.15331 2.33094,-1.18432 6.5007,-2.90015 9.26613,-3.81295 2.76542,-0.9128 6.0933,-2.15245 7.39523,-2.75476 2.35949,-1.09157 9.62104,-3.11473 11.17941,-3.11473 0.45142,0 1.47588,0.55152 2.277,1.22566 3.5067,2.95068 0.9104,8.04424 -6.6765,13.09849 -2.87265,1.91371 -4.03069,3.11047 -5.60903,5.79663 -1.18024,2.0086 -4.50189,6.46681 -5.99645,8.04831 -1.07466,1.13709 -3.93289,5.25846 -3.93289,5.67085 0,0.16088 -0.70141,1.40076 -1.55865,2.75528 -0.85725,1.35452 -2.00733,3.52799 -2.55576,4.82992 -0.54843,1.30193 -2.18447,5.09183 -3.63574,8.42201 -1.45126,3.33017 -3.41967,8.33669 -4.37415,11.12561 -1.69666,4.95717 -1.74068,5.26667 -1.96734,13.8182 -0.15365,5.79997 -0.028,10.10712 0.36898,12.78262 0.67034,4.50024 0.94759,31.85828 0.3746,36.93855 -0.99391,8.80936 -1.80242,17.61035 -1.80803,19.68139 -0.006,2.50407 -1.10129,8.96354 -3.00252,17.71959 -3.66333,16.87139 -9.72713,33.58901 -14.77841,40.74318 -5.5977,7.92818 -23.27898,25.94068 -27.66206,28.18029 -3.82937,1.95669 -9.6304,3.88316 -14.20289,4.71668 -4.59802,0.83816 -20.59986,1.22664 -31.03277,0.75338 z m 29.84921,-9.69844 c 4.46601,-1.02243 8.36407,-2.24274 10.32121,-3.23111 2.51583,-1.27054 17.14754,-15.70949 21.98545,-21.69584 3.60888,-4.46561 5.55531,-7.81835 8.6577,-14.91305 1.28208,-2.93189 4.80409,-14.07291 6.0615,-19.17393 3.55976,-14.4416 3.52701,-14.26251 4.59146,-25.09179 0.39702,-4.036 1.058,-10.10774 1.46943,-13.49276 1.02161,-8.40444 1.36082,-28.38797 0.59509,-35.05446 -0.32749,-2.85291 -0.67046,-10.00248 -0.76175,-15.88795 -0.14468,-9.34496 -0.0449,-11.2362 0.77521,-14.92598 1.31376,-5.89798 3.61285,-11.88001 8.88233,-23.11108 0.60428,-1.28796 1.09871,-2.57777 1.09871,-2.86625 0,-0.28846 0.67618,-1.57817 1.50264,-2.86599 0.82646,-1.28781 2.08084,-3.51322 2.78752,-4.94534 0.70668,-1.43213 2.64026,-4.28275 4.29688,-6.33472 4.51227,-5.58917 5.18289,-6.59683 4.70697,-7.07271 -0.25403,-0.2538 -1.35655,0.0631 -2.71798,0.78111 -1.26005,0.6645 -3.93143,1.87532 -5.93646,2.69072 -4.25836,1.73181 -6.92088,3.5434 -8.45228,5.75099 -0.60311,0.86941 -2.61727,3.49814 -4.47594,5.84161 -6.47905,8.16911 -9.61655,13.78814 -11.76367,21.06765 -3.11501,10.56117 -4.88916,15.7266 -6.1851,18.00767 -1.07185,1.88661 -2.68983,6.12824 -3.42461,8.97784 -0.44188,1.71299 -0.82937,7.54426 -1.13308,17.04349 -0.25403,7.94179 -0.69435,18.27441 -0.97877,22.96136 -0.28431,4.68696 -0.67701,11.93044 -0.87244,16.09663 -0.52712,11.23353 -3.04278,23.70347 -6.23097,30.88615 -0.49011,1.10381 -0.89083,2.1755 -0.89083,2.38153 0,1.95609 -8.85722,19.79588 -12.20253,24.57788 -6.88572,9.8427 -17.25931,20.8954 -23.54147,25.08255 -1.04152,0.6942 -2.61868,1.88822 -3.50475,2.65337 -0.88612,0.76515 -3.60242,2.31542 -6.03627,3.44505 -4.27613,1.98469 -5.08414,2.67017 -3.83335,3.25203 1.14262,0.53155 22.30263,-0.16902 25.21015,-0.83467 z"
       id="path870" /></g></svg>
