<?xml version="1.0" encoding="UTF-8" standalone="no"?>
<svg
   height="512"
   width="512"
   version="1.1"
   id="svg1164"
   sodipodi:docname="destruction_fire.svg"
   inkscape:version="1.2.1 (9c6d41e410, 2022-07-14)"
   xml:space="preserve"
   inkscape:export-filename="destruction_fire.png"
   inkscape:export-xdpi="96"
   inkscape:export-ydpi="96"
   xmlns:inkscape="http://www.inkscape.org/namespaces/inkscape"
   xmlns:sodipodi="http://sodipodi.sourceforge.net/DTD/sodipodi-0.dtd"
   xmlns="http://www.w3.org/2000/svg"
   xmlns:svg="http://www.w3.org/2000/svg"><defs
     id="defs1168" /><sodipodi:namedview
     id="namedview1166"
     pagecolor="#ffffff"
     bordercolor="#000000"
     borderopacity="0.25"
     inkscape:showpageshadow="2"
     inkscape:pageopacity="0.0"
     inkscape:pagecheckerboard="true"
     inkscape:deskcolor="#d1d1d1"
     showgrid="false"
     inkscape:zoom="1.0893085"
     inkscape:cx="-159.73437"
     inkscape:cy="136.32502"
     inkscape:window-width="2560"
     inkscape:window-height="1351"
     inkscape:window-x="2391"
     inkscape:window-y="-9"
     inkscape:window-maximized="1"
     inkscape:current-layer="svg1164" /><path
     style="fill:#ffffff;fill-rule:evenodd;stroke-width:1.50193"
     d="m 316.27228,510.98006 c -2.59024,-1.04221 -6.57099,-8.95532 -8.18317,-16.26699 -0.72855,-3.30426 -2.10898,-9.38706 -3.06761,-13.51738 -0.95863,-4.13031 -1.74299,-16.97184 -1.74299,-28.53669 0,-19.66925 0.91013,-27.14455 5.12004,-42.05411 0.933,-3.30422 3.04855,-14.45606 4.70122,-24.78186 3.80856,-23.79619 3.17691,-47.07471 -1.67095,-61.57918 -5.86354,-17.5433 -17.17263,-37.54827 -21.22659,-37.54827 -0.64438,0 -1.44235,11.3208 -1.77326,25.15734 -0.90602,37.88607 -1.14544,38.59005 -25.66848,75.47206 -19.30253,29.0305 -22.27635,37.06318 -26.41157,71.34176 -1.79375,14.86911 -3.53582,30.41411 -3.87127,34.54438 -0.66571,8.19696 -4.3535,12.76643 -10.30311,12.76643 -5.25897,0 -9.29553,-5.03874 -12.6836,-15.83279 -3.01685,-9.61126 -8.98391,-20.82447 -14.75662,-27.73035 -1.49338,-1.78654 -8.89557,-7.91649 -16.44931,-13.62205 -7.55369,-5.70561 -16.42945,-12.57665 -19.72386,-15.26902 -3.29445,-2.69236 -9.47373,-7.59871 -13.73172,-10.90298 -7.67669,-5.9572 -24.83503,-26.43155 -29.10699,-34.73226 -3.14369,-6.10839 -8.56249,-24.90333 -8.56249,-29.69866 0,-2.21643 -1.40754,-8.38664 -3.12786,-13.71164 -4.112219,-12.72863 -3.25572,-27.15555 2.89529,-48.77064 2.51985,-8.85489 16.12154,-46.56643 21.66847,-60.07725 9.89738,-24.10724 11.60659,-31.29193 11.60659,-48.78862 0,-15.67781 -0.16011,-16.44481 -6.07391,-29.06414 -6.76665,-14.43969 -10.45406,-19.09391 -17.44987,-22.02518 -6.84031,-2.86611 -11.02065,-7.62053 -11.02065,-12.53413 0,-7.59602 3.68256,-9.24437 20.6526,-9.24437 22.58518,0 37.51274,5.41887 59.30676,21.52902 2.26155,1.67171 4.52578,2.62554 5.03171,2.11962 1.33609,-1.3361 -3.69617,-20.37284 -7.24397,-27.40346 -1.66738,-3.30425 -6.75434,-10.400882 -11.30428,-15.770287 -12.60608,-14.87632 -42.44894,-43.41618 -48.88675,-46.75221 -12.52649,-6.49114 -22.14433,-13.62895 -24.575329,-18.23842 -3.65258,-6.92574 -3.4809,-19.8040905 0.3142,-23.5735705 4.560119,-4.52926 21.735529,-6.48692998 50.209249,-5.72287998 18.91544,0.50757 26.44437,1.29625998 31.59237,3.30944998 10.3394,4.04334 11.84662,4.57566 25.30559,8.9374605 19.05987,6.17694 38.80085,15.22104 52.83924,24.20765 10.00913,6.40731 31.3708,28.19606 41.67253,42.50563 19.81878,27.529297 25.89866,38.167207 30.21967,52.875177 0.84938,2.89122 2.33268,7.6223 3.29617,10.51352 0.96349,2.89122 2.06474,15.39479 2.4472,27.78573 l 0.69533,22.52897 8.49867,-8.05611 c 13.68013,-12.96772 32.11019,-28.12437 37.78637,-31.07503 3.61342,-1.87839 8.70191,-2.76238 16.2773,-2.82779 9.83051,-0.0849 11.33079,0.28773 13.8929,3.45058 2.78247,3.4349 3.99552,13.60451 1.87562,15.72443 -1.08798,1.08793 -4.2201,9.45189 -11.3444,30.29357 -4.21255,12.32353 -4.63434,15.30815 -4.7759,33.79346 -0.13327,17.39705 0.33642,21.7689 3.30658,30.78959 14.64889,44.48841 13.81039,40.3292 13.81039,68.50297 0,14.1736 -0.61727,28.21416 -1.37164,31.20121 -0.75442,2.98705 -2.17363,9.14828 -3.15382,13.69165 -1.85239,8.58617 -13.44861,30.75923 -21.57709,41.25735 -2.57788,3.32939 -15.25625,16.52946 -28.17413,29.33341 -25.17584,24.95385 -29.83152,31.8634 -29.83152,44.27378 0,14.3718 -6.61389,21.64992 -16.17735,17.80212 z m 42.83362,-86.1068 c 16.38087,-16.66296 23.93979,-27.05742 31.38344,-43.15611 6.12292,-13.24232 7.83967,-21.55552 9.0542,-43.84366 0.85873,-15.75904 -0.56298,-27.07646 -4.73092,-37.66054 -1.13854,-2.89121 -4.8261,-14.04305 -8.19455,-24.78186 -5.76743,-18.38667 -6.12398,-20.59355 -6.11556,-37.84984 0.004,-10.07861 0.73503,-21.90631 1.62245,-26.2838 2.15678,-10.63897 7.56443,-28.63641 9.13805,-30.41294 0.69514,-0.78475 1.26391,-2.98133 1.26391,-4.88127 0,-3.45027 -2.22832,-4.38872 -5.47312,-2.305 -3.13069,2.01044 -23.62225,20.49909 -31.60075,28.51197 -7.69654,7.72971 -19.99952,26.65843 -19.99952,30.77016 0,3.33392 -5.82583,8.65934 -9.4456,8.63427 -8.36003,-0.0578 -10.16827,-5.50516 -8.50339,-25.61575 2.79292,-33.7366 1.02295,-63.28725 -4.76155,-79.49645 -3.64462,-10.21283 -11.37041,-23.33804 -25.79366,-43.820327 -7.80501,-11.08376 -29.50759,-33.28649 -39.07133,-39.9717 -9.07202,-6.34149 -42.80479,-21.12407 -55.85891,-24.47882 -4.13031,-1.06144 -11.38248,-3.49362 -16.11594,-5.40485 -7.51329,-3.03363 -11.17378,-3.47494 -28.82356,-3.47494 -11.1195,0 -20.53515,0.51435 -20.92368,1.14301 -1.10129,1.78198 1.82277,4.84793 15.1141,15.84726 6.78265,5.61302 20.68083,18.94581 30.88482,29.62842 24.78903,25.95168 29.45984,34.201157 37.55754,66.333487 5.83439,23.15109 6.17247,25.70433 6.25276,47.21726 0.0759,20.32646 -0.21888,23.07904 -2.77631,25.90832 -1.57363,1.74106 -4.39705,3.16559 -6.27419,3.16559 -3.85637,0 -9.23722,-6.02039 -10.62163,-11.88401 -1.05581,-4.47185 -4.46229,-12.38877 -12.68234,-29.47448 -6.45924,-13.42581 -11.99262,-19.4827 -23.12022,-25.30753 -13.27221,-6.9475 -15.02288,-4.75611 -8.06229,10.09203 4.86622,10.38056 5.06372,11.52133 5.52902,31.9371 0.35308,15.49739 -0.12263,23.34722 -1.77548,29.28766 -1.24188,4.46361 -3.22462,11.54335 -4.40616,15.73275 -1.18149,4.18941 -4.66234,12.97571 -7.73523,19.5251 -3.07284,6.54942 -7.90973,19.00463 -10.7486,27.67829 -2.83893,8.67365 -5.75448,16.83139 -6.47901,18.12832 -2.69718,4.82785 -6.26243,21.93964 -6.39015,30.66984 -0.0726,4.96441 0.98927,12.74348 2.35965,17.2868 1.37043,4.54336 3.0839,12.39821 3.80774,17.45528 2.01231,14.05939 8.192,25.02979 22.07088,39.18086 6.71727,6.84901 12.81978,12.45273 13.5612,12.45273 0.74137,0 3.6938,2.2547 6.56091,5.01042 2.86715,2.75576 10.61991,8.94976 17.22844,13.76448 6.60848,4.81472 15.99359,12.74134 20.85575,17.61473 5.30121,5.31343 9.38668,8.31432 10.20506,7.4959 0.75062,-0.75063 2.00065,-7.51112 2.77788,-15.02329 2.26035,-21.84803 7.91857,-34.84051 29.24873,-67.16152 7.63222,-11.56485 14.97448,-23.18468 16.31618,-25.82184 5.10639,-10.03708 6.98543,-40.2728 3.79107,-61.00247 -1.8367,-11.91943 -3.02189,-14.80721 -8.40436,-20.47809 -4.22439,-4.45075 -7.35897,-10.03582 -10.28169,-18.31978 -2.40209,-6.80818 -1.0218,-12.21217 3.77478,-14.77924 5.37091,-2.87443 11.85356,1.8743 36.41043,26.67165 19.38902,19.57891 24.31184,25.46815 28.80981,34.46542 2.98376,5.96833 5.42916,11.71322 5.43425,12.76641 0.004,1.0532 0.93457,3.68831 2.06553,5.85579 1.13096,2.16749 2.85489,7.57444 3.83097,12.01546 0.97603,4.44101 2.41208,10.95671 3.19121,14.47934 1.8919,8.55388 1.79098,24.04053 -0.236,36.22708 -2.08122,12.51196 -7.12463,38.07637 -9.07151,45.98208 -4.13055,16.77323 -5.43315,33.55664 -2.80811,36.18168 1.70098,1.70097 15.24982,-10.11432 37.18466,-32.42684 z"
     id="path741" /></svg>
