<?xml version="1.0" encoding="UTF-8" standalone="no"?>
<!-- Created with Inkscape (http://www.inkscape.org/) -->

<svg
   width="512"
   height="512"
   viewBox="0 0 512 512"
   version="1.1"
   id="svg5"
   inkscape:version="1.2.1 (9c6d41e410, 2022-07-14)"
   sodipodi:docname="food.svg"
   xml:space="preserve"
   inkscape:export-filename="food.png"
   inkscape:export-xdpi="96"
   inkscape:export-ydpi="96"
   xmlns:inkscape="http://www.inkscape.org/namespaces/inkscape"
   xmlns:sodipodi="http://sodipodi.sourceforge.net/DTD/sodipodi-0.dtd"
   xmlns="http://www.w3.org/2000/svg"
   xmlns:svg="http://www.w3.org/2000/svg"><sodipodi:namedview
     id="namedview7"
     pagecolor="#ffffff"
     bordercolor="#999999"
     borderopacity="1"
     inkscape:pageshadow="0"
     inkscape:pageopacity="0"
     inkscape:pagecheckerboard="true"
     inkscape:document-units="px"
     showgrid="false"
     height="70mm"
     units="px"
     inkscape:zoom="2.0938812"
     inkscape:cx="180.04842"
     inkscape:cy="270.07262"
     inkscape:window-width="2560"
     inkscape:window-height="1351"
     inkscape:window-x="2391"
     inkscape:window-y="-9"
     inkscape:window-maximized="1"
     inkscape:current-layer="layer1"
     inkscape:showpageshadow="2"
     inkscape:deskcolor="#d1d1d1" /><defs
     id="defs2" /><g
     inkscape:label="Layer 1"
     inkscape:groupmode="layer"
     id="layer1"><path
       style="fill:#ffffff;fill-rule:evenodd;stroke-width:0.437438"
       d="m 294.06375,433.40152 c -2.11025,-0.30349 -4.64929,-0.76722 -5.6423,-1.0305 -4.26724,-1.13141 -10.89137,-3.98505 -14.59038,-6.28547 -6.83085,-4.24813 -9.38525,-5.2009 -16.69655,-6.22759 -8.32207,-1.16861 -23.39197,-4.67974 -26.09706,-6.08029 -1.60214,-0.82952 -7.17262,-2.10857 -10.3239,-2.37046 -3.21555,-0.26726 -7.10957,-0.90061 -14.51537,-2.36096 -4.84483,-0.95539 -14.21133,-3.91851 -19.31136,-6.10922 -2.81351,-1.20857 -5.78733,-2.09904 -12.21464,-3.65755 -7.27878,-1.76496 -9.418,-2.3448 -10.40277,-2.81961 -0.82503,-0.39782 -9.05127,-1.96088 -16.22903,-3.08368 -1.73786,-0.27185 -4.07374,-0.75687 -5.19099,-1.0778 -5.17797,-1.48754 -6.95788,-1.95165 -8.93316,-2.32932 -1.16919,-0.22352 -3.54763,-0.80052 -5.28542,-1.28222 -3.73788,-1.03598 -10.99212,-2.7209 -13.54162,-3.14525 -0.99305,-0.16532 -2.00867,-0.44742 -2.25694,-0.6269 -1.1368,-0.8219 -2.46856,-0.91516 -30.017159,-2.10192 -4.59286,-0.19784 -9.36626,-0.594 -10.60758,-0.8804 -7.25411,-1.67334 -15.73647,-5.07319 -21.66653,-8.68423 -2.4065,-1.46542 -6.64249,-4.86045 -12.41309,-9.94875 -9.02179,-7.95507 -11.26523,-9.6592 -15.34714,-11.65781 -4.11839,-2.01649 -6.7534,-4.04585 -9.55975,-7.36246 -5.04562,-5.96301 -6.41501,-9.60016 -6.41536,-17.03924 -2.2e-4,-4.36951 0.17361,-5.76404 0.99095,-7.95019 0.54517,-1.45814 0.9912,-2.94838 0.9912,-3.31163 0,-0.66977 -1.40817,-3.52856 -3.41224,-6.92742 -0.6059,-1.02759 -1.10161,-2.04797 -1.10161,-2.2675 0,-0.21961 -0.28162,-1.00028 -0.62573,-1.73498 -0.82122,-1.75331 -2.30054,-5.88557 -3.05811004,-8.54247 -0.76986,-2.70006 -0.7932,-21.21214 -0.0303,-23.73951 0.28162,-0.93264 0.62837004,-3.6987 0.77025004,-6.14684 0.14198,-2.44813 0.44586,-5.69112 0.67534,-7.20664 0.22937,-1.51551 0.63578,-5.04464 0.90285,-7.84251 0.79319,-8.30821 2.1219,-14.89082 4.23556,-20.98403 1.39708,-4.02747 2.05878,-6.29186 2.84918,-9.75016 1.23971,-5.42423 1.47349,-6.32909 2.2101,-8.55448 1.47968,-4.47026 2.4235,-6.63979 4.86915,-11.19254 1.36744,-2.5456 3.03444,-5.96371 3.70442,-7.59581 0.66997,-1.63209 1.71117,-4.01664 2.31374,-5.299 0.60258,-1.28235 1.2667,-2.71308 1.47586,-3.1794 2.21204,-4.93152 6.91964,-13.17171 9.17221,-16.05509 1.54503,-1.97767 3.57565,-4.70647 4.51248,-6.06402 4.37252,-6.33602 7.0973,-9.54841 11.62225,-13.70211 4.47122,-4.10437 6.37432,-6.38345 8.52922,-10.21421 3.00174,-5.33623 6.81041,-9.04035 12.45052,-12.1088 1.21999,-0.66372 7.94437,-3.78644 11.28466,-5.24044 7.86474,-3.42347 9.87322,-4.46919 14.21865,-7.40296 2.60676,-1.75991 6.872349,-4.16313 9.479109,-5.3405 2.60675,-1.17735 5.08218,-2.313 5.50096,-2.52364 1.55533,-0.78236 6.01596,-2.10519 7.12221,-2.11214 1.24481,-0.008 7.5984,-1.61617 10.84411,-2.74509 2.08841,-0.7264 6.98353,-2.940419 10.16096,-4.595759 4.91855,-2.56238 6.72333,-2.82809 22.34362,-3.28955 12.76026,-0.37702 19.77705,-0.87141 20.80106,-1.46578 0.32057,-0.18621 1.61159,-0.58315 2.86849,-0.88215 1.25682,-0.2989 3.70703,-0.94064 5.44489,-1.42584 1.73778,-0.48521 4.48,-1.14404 6.09371,-1.46402 5.57192,-1.10487 7.63484,-2.26081 10.0424,-5.62722 0.55874,-0.78177 2.13369,-2.12426 3.49917,-2.98329 2.35523,-1.48176 2.70259,-1.56975 6.77073,-1.71523 4.84015,-0.17304 4.92832,-0.15624 16.47562,3.14836 1.24132,0.35525 4.38971,1.12745 6.99652,1.71602 7.7245,1.74409 11.17747,3.02543 24.88455,9.23435 1.96893,0.89182 2.28174,0.91633 5.41661,0.42418 1.82989,-0.28728 4.54579,-0.90988 6.03541,-1.38358 1.48956,-0.47369 3.90416,-1.06531 5.36565,-1.3147 1.46158,-0.24939 2.89148,-0.63588 3.17752,-0.85881 0.28581,-0.22303 1.32456,-0.59702 2.30782,-0.83128 0.98334,-0.23416 3.68918,-0.91184 6.01304,-1.50592 3.5211,-0.90012 5.20875,-1.08005 10.12731,-1.08005 3.68298,0 6.93126,-0.23621 8.63926,-0.62837 3.28761,-0.75472 12.14418,-1.7733 20.79259,-2.39135 6.59102,-0.47105 16.04605,-0.30271 25.27767,0.44996 2.9791,0.24285 9.68225,0.5441 14.8957,0.66938 8.60191,0.20672 21.68004,1.46518 22.96257,2.2096 0.2533,0.14706 1.69031,0.60054 3.19339,1.00776 11.83765,3.20724 20.69619,5.69203 25.07639,7.03387 5.97984,1.83187 10.5031,2.96067 14.89569,3.71725 7.96639,1.37215 19.68208,5.326479 23.52325,7.939669 0.98446,0.66977 3.15308,1.89925 4.81904,2.73216 4.79289,2.39622 9.15267,5.25502 11.69739,7.6703 3.52071,3.34154 5.9499,7.54593 10.47444,18.12862 0.1996,0.46636 1.01773,2.37395 1.81862,4.2392 2.07947,4.84327 4.05053,9.93228 4.51531,11.6578 0.22,0.81604 0.84036,2.53292 1.37909,3.81527 2.88308,6.86326 4.06345,13.03856 4.05159,21.19599 -0.005,3.61392 -0.19051,7.33381 -0.41208,8.26644 -0.72513,3.05809 -1.54022,21.21753 -1.01555,22.63108 0.26082,0.70375 1.27513,2.29018 2.25316,3.5255 1.90777,2.40955 2.86698,4.92252 3.93175,10.30053 0.52623,2.65706 0.67368,7.29229 0.68051,21.40794 0.005,9.90914 0.21024,19.25656 0.45592,20.77208 0.24578,1.51551 0.64956,4.28159 0.89817,6.14683 0.24802,1.86525 0.7387,4.72672 1.08956,6.3588 1.81151,8.42384 2.10617,11.74404 1.93786,21.83187 -0.22762,13.61576 -0.84485,18.65832 -2.7717,22.62926 -1.65106,3.40262 -4.32327,6.2293 -7.52452,7.95938 -1.92523,1.0405 -2.82925,1.35397 -9.66691,3.35218 -1.73779,0.50787 -3.36284,1.07367 -3.61108,1.25737 -0.51187,0.37878 -4.26262,1.56786 -9.25338,2.93362 -4.72128,1.29201 -8.48282,2.58654 -10.633,3.65937 -1.00699,0.50249 -3.34295,1.36105 -5.19098,1.908 -2.00575,0.5936 -4.79773,1.89746 -6.92733,3.23498 -1.96198,1.23231 -3.62046,2.24055 -3.68548,2.24055 -0.0683,0 -1.75987,1.03789 -3.76638,2.30643 -2.00651,1.26854 -5.62924,3.20208 -8.05055,4.29676 -2.42125,1.09467 -5.62106,2.87706 -7.11062,3.96085 -5.74484,4.17987 -10.71995,7.12408 -14.89569,8.81506 -2.58154,1.04539 -4.31057,1.93026 -10.22492,5.23281 -2.32069,1.29586 -4.57748,2.48307 -5.01504,2.63821 -0.43776,0.15516 -2.16409,1.11915 -3.83678,2.1422 -1.67269,1.02305 -3.52548,2.00291 -4.11729,2.17747 -1.22174,0.36032 -5.11046,2.44022 -9.75719,5.21861 -4.50518,2.69378 -4.60272,2.75841 -17.67655,11.70863 -6.83796,4.68125 -9.13248,6.18862 -9.42026,6.18862 -0.26843,0 -3.00051,1.74727 -3.37175,2.1563 -0.43171,0.47574 -6.22218,3.70135 -10.47959,5.83775 -3.43308,1.72275 -8.48728,4.78987 -11.00531,6.67852 -1.01729,0.76302 -3.15007,2.09755 -4.73958,2.96561 -1.58944,0.86809 -4.00706,2.3882 -5.37253,3.37807 -1.36548,0.98988 -3.89152,2.50806 -5.6135,3.37372 -2.89307,1.4544 -6.75986,3.80138 -8.37947,5.08601 -2.31939,1.83965 -9.90909,4.69449 -11.64544,4.38039 -0.17391,-0.0312 -2.04281,-0.30554 -4.15306,-0.60903 z m 6.31942,-16.01341 c 0.86897,-0.37155 3.10327,-1.71692 4.96521,-2.98974 1.86202,-1.27283 4.59546,-2.91932 6.07435,-3.65887 1.4789,-0.73949 3.81485,-2.1568 5.19091,-3.14945 1.37613,-0.99265 3.41607,-2.239 4.53331,-2.76967 1.11717,-0.53061 2.13279,-1.08283 2.25687,-1.22704 0.12401,-0.14423 1.13977,-0.83343 2.25694,-1.53156 1.11724,-0.69818 2.13286,-1.37478 2.25694,-1.50359 0.12401,-0.1288 1.54603,-1.02549 3.15974,-1.99261 1.61371,-0.96711 3.19657,-1.97429 3.51747,-2.23815 0.32058,-0.26385 2.25066,-1.26177 4.28817,-2.21756 2.03759,-0.95578 4.66745,-2.37137 5.84413,-3.14576 1.17667,-0.77435 2.25134,-1.40797 2.38805,-1.40797 0.25554,0 2.9686,-1.72339 3.37175,-2.14197 0.12402,-0.1289 1.03816,-0.68735 2.03125,-1.24107 0.993,-0.55366 2.11025,-1.26654 2.48263,-1.58411 0.65932,-0.56255 6.13614,-4.35811 8.1245,-5.63084 0.54664,-0.34968 2.37369,-1.5897 4.06081,-2.75548 7.1284,-4.92573 14.12386,-9.16642 19.4117,-11.76756 2.35849,-1.16015 5.91315,-3.00533 7.89925,-4.10041 1.98609,-1.09507 3.96909,-2.11681 4.40666,-2.27052 0.43776,-0.1537 2.26239,-1.17874 4.05522,-2.27785 3.51966,-2.15775 8.80062,-4.80689 9.58237,-4.80689 0.26541,0 1.49416,-0.62515 2.72982,-1.38909 1.23565,-0.76399 3.56692,-2.13976 5.18062,-3.05724 2.87772,-1.63613 5.99361,-3.69196 8.01554,-5.28858 0.56031,-0.44263 3.1875,-1.78463 5.83785,-2.98234 5.01904,-2.26819 8.12964,-4.04015 12.32701,-7.02229 2.68036,-1.90434 9.49179,-5.26978 12.41312,-6.13319 0.99302,-0.29353 3.61184,-1.27712 5.81947,-2.18586 2.20772,-0.90871 6.06703,-2.19482 8.57636,-2.85799 2.50926,-0.66313 6.39049,-1.87051 8.62482,-2.68299 2.23441,-0.81244 5.77463,-2.00561 7.86735,-2.6514 4.16115,-1.28418 5.74968,-2.4834 6.09696,-4.60293 1.65363,-10.09102 1.49273,-22.84664 -0.39625,-31.42443 -1.92834,-8.75615 -2.10073,-11.09063 -2.47342,-33.48966 -0.38415,-23.08663 -0.49302,-24.06173 -3.05412,-27.3836 -0.69867,-0.90569 -1.71661,-2.23505 -2.26299,-2.95426 -2.59492,-3.41575 -2.87605,-7.73193 -1.5998,-24.55977 0.43327,-5.71232 0.77943,-13.1521 0.76937,-16.53287 l -0.0146,-6.14684 -2.30269,-6.78271 c -1.26643,-3.7305 -2.40907,-7.16425 -2.53904,-7.63057 -0.40983,-1.46959 -5.65721,-13.82277 -8.25259,-19.42763 -3.02947,-6.54236 -5.61222,-8.53831 -21.17436,-16.3638 -4.14148,-2.08257 -21.03773,-6.42512 -25.50329,-6.5547 -1.55745,-0.0459 -1.58339,-0.0166 -1.82564,1.96192 -0.13534,1.10427 -0.65483,2.52238 -1.15483,3.15136 -0.98643,1.24075 -6.16516,3.91611 -7.62712,3.94014 -0.49673,0.008 -2.12152,0.38278 -3.61107,0.83245 -4.06634,1.22752 -7.4635,2.08079 -9.47909,2.38096 -0.99309,0.14794 -2.0087,0.41042 -2.25693,0.58326 -0.24803,0.17293 -1.77175,0.75003 -3.38546,1.28259 -1.6137,0.53248 -4.35584,1.58155 -6.09371,2.33116 -1.73779,0.74965 -4.27683,1.8176 -5.64231,2.37328 -1.36541,0.55562 -3.19354,1.50757 -4.06247,2.11529 -0.86897,0.60776 -2.39237,1.55516 -3.38538,2.10541 -0.99308,0.55025 -2.60725,1.58418 -3.5871,2.29765 -0.97993,0.71341 -3.09874,1.93087 -4.70858,2.70537 -9.01029,4.33486 -12.14494,6.87104 -17.91844,14.49729 -1.32388,1.74867 -3.0281,3.84708 -3.78717,4.66312 -0.75902,0.81605 -2.44431,2.87392 -3.7449,4.57306 -1.3006,1.69914 -3.53328,4.36983 -4.96158,5.93487 -1.42831,1.56505 -3.75663,4.18089 -5.17405,5.81299 -2.47455,2.84936 -8.19316,9.09806 -8.72901,9.53819 -1.18628,0.97423 -7.66327,8.69086 -10.21615,12.17132 -1.74634,2.38084 -4.64484,5.84758 -6.44108,7.70387 -1.79631,1.85629 -3.87814,4.48666 -4.62632,5.84528 -1.1406,2.07121 -4.18587,7.05432 -5.78415,9.46487 -2.08017,3.13726 -5.40829,8.86236 -7.10616,12.22403 -1.13811,2.25329 -2.56899,4.84887 -3.17979,5.76796 -2.06677,3.1099 -4.18247,10.16937 -4.5811,15.28573 -0.19959,2.56471 -0.6185,5.58263 -0.93019,6.70648 -0.6684,2.40938 -0.36218,10.70952 0.48013,13.00579 1.0377,2.83 2.27797,5.18589 3.53894,6.72226 0.69711,0.84934 1.93907,3.45181 2.76,5.78337 1.18717,3.37174 1.50149,4.97654 1.53613,7.84252 0.0527,4.39098 -0.49371,5.61661 -4.23337,9.49212 -3.1763,3.29168 -3.94127,4.62429 -5.74506,10.00819 -3.12731,9.33415 -3.07506,8.80122 -3.0021,30.59888 0.0527,16.10073 0.19051,20.16968 0.73187,21.83187 0.36599,1.12363 1.01162,3.95059 1.43428,6.28215 0.42263,2.33155 1.05872,5.47917 1.41334,6.99468 0.35466,1.51551 0.64419,3.82204 0.6435,5.12563 -4.6e-4,1.3036 0.30174,3.30662 0.67065,4.45117 0.36979,1.14454 0.67445,2.62599 0.67748,3.2921 0.008,1.98972 1.34242,7.05309 2.75303,10.44669 1.48434,3.57082 1.5167,3.78215 0.80443,5.25039 -1.2138,2.5018 -4.96929,2.32292 -6.60198,-0.31442 -1.77401,-2.86583 -3.72124,-9.75026 -3.72124,-13.15691 0,-0.81068 -0.23211,-2.01102 -0.51646,-2.66738 -0.28357,-0.65639 -0.66312,-2.71948 -0.8428,-4.58474 -0.17996,-1.86524 -0.57241,-4.53593 -0.87268,-5.93488 -0.30017,-1.39893 -0.82737,-3.97424 -1.171,-5.72291 -0.34402,-1.74866 -0.85979,-4.2286 -1.14689,-5.51095 -1.2066,-5.39023 -1.97914,-36.73673 -1.12835,-45.78335 0.20867,-2.21498 0.74701,-5.36259 1.19709,-6.99468 0.44986,-1.63208 1.05357,-3.82587 1.34105,-4.87507 1.2073,-4.40516 4.12281,-9.59452 7.58841,-13.5065 l 2.86879,-3.23834 -0.245,-2.26463 c -0.17092,-1.57946 -1.05664,-3.82402 -2.92743,-7.41861 -5.58031,-10.7221 -5.64329,-10.96687 -5.35967,-20.83898 0.4567,-15.88888 1.45318,-20.33958 6.98654,-31.19894 1.47359,-2.892 3.03952,-6.02123 3.47973,-6.95385 0.4401,-0.93264 1.38241,-2.51599 2.09377,-3.51859 0.71146,-1.0026 1.29342,-1.92302 1.29342,-2.04537 0,-0.12235 0.87639,-1.49583 1.94746,-3.05217 1.07111,-1.55634 3.02613,-4.73264 4.34443,-7.05842 3.31081,-5.84116 5.5323,-8.9159 8.90481,-12.32524 2.26617,-2.29088 4.94562,-5.44039 6.28903,-7.39212 1.4069,-2.04416 2.06042,-2.82641 5.03113,-6.02228 1.05404,-1.13388 2.27274,-2.58079 2.70835,-3.21538 0.75228,-1.09557 1.13357,-1.53456 3.95034,-4.54513 0.65483,-0.69946 2.13989,-2.32097 3.30091,-3.60332 1.1611,-1.28236 3.94051,-4.2784 6.17651,-6.65787 2.236,-2.37947 5.4873,-6.17609 7.22518,-8.43691 1.73786,-2.26083 4.48885,-5.65539 6.11337,-7.54345 1.62452,-1.88806 3.35104,-4.02675 3.83677,-4.75264 3.42113,-5.11292 7.99974,-8.50493 17.65848,-13.08221 1.77862,-0.8429 4.11449,-2.15245 5.19098,-2.91016 3.17524,-2.23511 8.46824,-5.17328 12.33895,-6.84947 7.16998,-3.10485 8.1444,-3.4967 9.37868,-3.7717 0.68959,-0.1536 2.31456,-0.72553 3.61107,-1.27092 1.2966,-0.54537 3.37304,-1.18685 4.61437,-1.42547 5.92827,-1.13965 9.06503,-1.88583 9.45647,-2.24956 0.23592,-0.21913 0.84524,-0.39958 1.35422,-0.40105 0.50884,-0.001 1.5071,-0.28757 2.21823,-0.63588 0.71078,-0.34831 1.54641,-0.63325 1.85634,-0.63325 0.31004,0 1.3161,-0.56177 2.23608,-1.24841 l 1.67268,-1.2484 -1.72342,-0.82171 c -0.94797,-0.45191 -3.75474,-1.33186 -6.23738,-1.95538 -2.48264,-0.62358 -5.32633,-1.39847 -6.31942,-1.72212 -0.99301,-0.3237 -4.24296,-1.27247 -7.22214,-2.10847 -2.97918,-0.83597 -6.33069,-1.79771 -7.44785,-2.13712 -3.01404,-0.915639 -9.5643,-1.431819 -23.92345,-1.885079 -7.07554,-0.22333 -14.83045,-0.63325 -17.23325,-0.91096 -7.64428,-0.88333 -26.27165,0.20047 -36.88189,2.14594 -1.33727,0.245189 -4.52643,0.445859 -7.0871,0.445859 -5.41049,0 -7.76814,0.39079 -13.95357,2.31308 -2.48265,0.77151 -6.08086,1.72281 -7.99604,2.11394 -4.15948,0.84944 -7.09428,2.23404 -8.9557,4.22508 -1.75071,1.87259 -4.40991,3.0638 -8.05312,3.60747 -1.63518,0.24403 -3.2405,0.75834 -3.70225,1.18628 -1.05835,0.98063 -1.5719,1.34624 -4.01841,2.86075 -3.87548,2.39916 -5.48934,3.7485 -7.95656,6.65261 -1.36404,1.60552 -3.9452,4.39321 -5.73599,6.19489 -1.79072,1.80167 -3.75239,4.03883 -4.35925,4.97144 -0.60718,0.93264 -1.48299,2.07721 -1.94694,2.54353 -1.15406,1.15988 -2.30616,3.33601 -3.60948,6.8178 -1.03044,2.75263 -3.36533,7.81652 -4.47887,9.71356 -0.27293,0.46549 -0.64878,2.37312 -0.83392,4.23919 -0.18523,1.86608 -0.8634,4.89564 -1.50657,6.73236 -1.15293,3.29247 -1.16941,3.518 -1.16941,16.01659 0,10.30953 0.12626,12.96132 0.67748,14.19897 0.37272,0.83704 0.67602,2.02319 0.67446,2.63589 -0.005,2.32267 4.3665,12.38374 6.17696,14.21739 1.62286,1.64371 2.85299,4.15827 2.85299,5.83189 0,1.24591 -0.26844,1.74681 -1.31097,2.44382 -1.52025,1.01664 -1.84681,1.05251 -3.42673,0.37643 -3.18703,-1.36359 -11.05476,-16.14683 -11.06406,-20.78834 -0.001,-0.76508 -0.2987,-1.9241 -0.66088,-2.57552 -0.86223,-1.55262 -1.23496,-32.00842 -0.40377,-32.97854 0.69945,-0.81624 2.42109,-7.23093 2.42109,-9.02173 0,-0.79807 0.58599,-2.75845 1.30188,-4.35641 1.82377,-4.06991 3.28277,-7.41951 3.66605,-8.41634 2.37081,-6.16606 5.85335,-11.48483 10.8776,-16.61309 2.24106,-2.28744 4.75032,-5.1128 5.57607,-6.27858 2.39191,-3.3768 5.77812,-6.33887 9.9497,-8.70348 1.97884,-1.12163 3.34704,-2.44893 3.3704,-3.2696 0.0147,-0.59477 -3.4358,-3.07607 -4.28047,-3.07607 -0.30163,0 -2.45496,-0.83558 -4.78464,-1.85682 -4.7575,-2.08553 -10.72471,-4.074819 -12.25185,-4.084419 -0.5565,-0.004 -2.63658,-0.48043 -4.62268,-1.05975 -1.9861,-0.57934 -4.4236,-1.06177 -5.41669,-1.07204 -0.99301,-0.01 -2.61798,-0.31139 -3.61107,-0.66918 -2.32204,-0.83645 -4.70381,-1.27634 -5.94657,-1.09819 -1.12374,0.16112 -2.67841,2.12167 -2.10754,2.65781 0.20946,0.19656 2.67757,0.22049 5.48505,0.0537 l 5.10448,-0.30417 1.17735,1.44958 c 2.09324,2.577429 1.15497,5.552109 -2.01581,6.390809 -0.93332,0.24686 -3.4851,0.57173 -5.67067,0.72201 -3.60267,0.24764 -4.15019,0.40436 -5.86484,1.6786 -1.04011,0.77298 -3.0839,1.82439 -4.5417,2.33641 -2.13498,0.74984 -3.42553,1.65943 -6.63456,4.67603 -4.07617,3.83183 -7.10518,7.30662 -8.99283,10.31637 -0.5852,0.93263 -1.75019,2.50205 -2.58949,3.48763 -2.01822,2.36996 -6.0919,10.54159 -7.24285,14.52895 -1.76646,6.11978 -2.69845,10.12542 -3.69886,15.897 -0.28279,1.63209 -0.81028,4.49355 -1.17199,6.35879 -0.47857,2.46745 -0.65708,6.74997 -0.65551,15.71963 0.002,13.31685 0.20789,14.75895 2.90009,20.31356 1.39119,2.87056 4.32417,12.18464 4.32417,13.73193 0,0.51685 0.42418,1.83548 0.94279,2.93019 1.75284,3.70054 4.18399,8.24232 5.12339,9.57111 0.98923,1.39939 2.5488,4.33778 4.52643,8.5282 2.13898,4.53235 2.65859,5.38435 7.24181,11.87482 2.48521,3.51939 5.83678,7.77961 7.44792,9.46714 1.61106,1.68755 3.6854,4.15733 4.60953,5.48839 2.01899,2.90803 3.23633,4.25713 4.86139,5.38755 0.67065,0.46637 2.47734,1.92622 4.01559,3.24424 1.53825,1.31802 3.88994,2.88245 5.22592,3.47652 1.33599,0.59409 4.38141,2.13871 6.76764,3.4325 2.38625,1.29381 4.43056,2.35238 4.54292,2.35238 0.11268,0 1.98269,0.95764 4.15623,2.12814 2.17362,1.17046 4.56273,2.29993 5.30924,2.50991 2.96717,0.8346 6.25447,2.14725 7.03154,2.80771 1.90466,1.6188 1.38187,5.45274 -0.8141,5.97036 -1.22476,0.28865 -6.67842,-1.07012 -9.60981,-2.39432 -2.36416,-1.06806 -11.76884,-5.79336 -13.09522,-6.57973 -0.87727,-0.52007 -4.08592,-2.14427 -7.13036,-3.60938 -5.17306,-2.48945 -5.86559,-2.978 -10.5803,-7.46365 -2.77473,-2.6399 -5.83096,-5.90012 -6.7916,-7.24493 -0.96076,-1.34481 -3.11272,-3.87583 -4.78224,-5.6245 -3.32321,-3.48077 -3.49757,-3.70304 -7.98355,-10.17408 -3.92079,-5.65577 -4.5786,-6.35331 -5.19205,-5.50528 -0.68129,0.94133 -0.12176,5.63966 0.87971,7.39499 0.4817,0.84377 2.03079,2.51887 3.44276,3.72244 3.17457,2.70602 4.29877,4.68165 4.29877,7.55439 0,2.56398 -0.9551,4.67129 -2.76559,6.10206 -1.76909,1.39799 -8.23526,3.19758 -11.51833,3.20564 -1.45364,0.003 -2.87235,0.14667 -3.15264,0.31794 -0.28054,0.17128 -0.6601,1.36065 -0.84348,2.64301 -0.49303,3.44251 -1.47912,5.43376 -3.10379,6.26837 -1.1515,0.59145 -2.65685,0.7264 -8.18189,0.73304 -6.39911,0.008 -6.90336,0.0693 -9.18586,1.12795 -2.37558,1.10139 -5.03281,3.12716 -5.03281,3.83682 0,0.19901 -0.39469,0.87864 -0.87648,1.51039 -1.10726,1.45096 -1.97929,4.25847 -2.96921,9.55893 -0.70013,3.74778 -0.93986,4.32226 -2.36468,5.66036 -1.56516,1.46996 -1.62731,1.487 -4.79697,1.3154 -2.24621,-0.12157 -4.27283,-0.58061 -6.7436,-1.52714 -3.38091,-1.29527 -3.79844,-1.3533 -9.73729,-1.3533 -7.04514,0 -9.77315,-0.60356 -11.43759,-2.53045 -6.68269,-7.73653 -6.85315,-8.07762 -6.87335,-13.75411 l -0.0166,-4.62677 -1.35417,-0.39225 c -7.09571,-2.05556 -10.07543,-5.60685 -10.722389,-12.77917 -0.12148,-1.34621 -0.27644,-1.455 -4.0524,-2.84401 -1.42307,-0.52349 -3.14962,-1.50304 -3.83679,-2.17678 -1.11997,-1.0981 -1.24589,-1.51852 -1.2156,-4.05836 0.0371,-3.13235 0.8678,-5.07196 3.75428,-8.76824 3.28991,-4.2129 3.3645,-4.37625 2.53889,-5.55962 -0.4026,-0.577 -1.24715,-1.23297 -1.87695,-1.45786 -0.62973,-0.22488 -2.32902,-1.52076 -3.77605,-2.87975 -4.27184,-4.01188 -4.54583,-6.82924 -1.26898,-13.04782 2.10584,-3.9963 2.00146,-4.58209 -1.08588,-6.09322 -4.0562,-1.98534 -5.57435,-4.63035 -5.14542,-8.96462 0.15702,-1.58679 0.63472,-3.605 1.06156,-4.48492 0.839,-1.72965 4.62468,-7.21465 7.10216,-10.29021 0.84514,-1.0492 1.55015,-2.12713 1.56663,-2.39541 0.042,-0.68266 5.86107,-5.95411 8.226229,-7.45206 1.07796,-0.68265 3.07711,-1.71324 4.44255,-2.29005 1.36544,-0.5768 3.092,-1.31844 3.83679,-1.64806 3.38068,-1.49616 6.19585,-2.28149 9.16266,-2.55604 2.77707,-0.25701 3.45712,-0.17567 5.04936,0.60375 1.01199,0.49537 2.03411,0.90071 2.27138,0.90071 0.23738,0 1.12942,-0.71537 1.98247,-1.5897 l 1.5511,-1.5897 h 4.90608 c 3.92524,0 5.14902,0.1494 6.12139,0.7472 2.32438,1.42911 2.12401,4.65629 -0.36071,5.80907 -0.73871,0.34284 -2.92467,0.6976 -4.85708,0.78841 -3.61372,0.16971 -5.31439,-0.20965 -7.62168,-1.70012 l -1.20465,-0.77816 -1.278,1.43 c -1.63018,1.82412 -2.49775,2.21618 -5.63588,2.54684 -2.56144,0.2699 -7.24075,1.69527 -8.50661,2.59123 -0.37243,0.26356 -1.83482,0.99513 -3.24984,1.62567 -3.63852,1.62134 -7.36344,5.04706 -11.719849,10.77846 -6.63723,8.73214 -7.10388,10.11976 -3.85444,11.46136 2.09041,0.86311 4.18995,0.62309 6.567,-0.75052 1.210439,-0.69945 2.824649,-1.27177 3.587129,-1.27177 2.84039,0 4.27678,4.23422 2.37283,6.99468 -0.48238,0.69945 -2.22248,2.60711 -3.86675,4.2392 -2.721629,2.70146 -6.110769,7.84383 -6.069749,9.20968 0.0205,0.67094 1.77895,2.64356 2.69209,3.01943 0.37233,0.15331 1.89582,0.92073 3.385389,1.70535 6.32061,3.32944 6.26727,6.91418 -0.22527,15.13782 -1.489819,1.88706 -2.708759,3.68679 -2.708759,3.99941 0,0.77552 2.175339,2.32562 3.263749,2.32562 1.23371,0 3.39278,1.53026 4.18242,2.96435 0.36403,0.66107 0.78538,2.31514 0.93644,3.67588 0.54752,4.93133 1.996,7.1953 4.88576,7.63619 2.20332,0.3362 5.32114,1.93051 6.33969,3.2419 0.814,1.04799 0.9341,1.84567 0.96242,6.39306 l 0.0322,5.19565 1.71084,2.29729 c 2.83591,3.80794 3.01298,3.87587 11.04667,4.2383 6.08941,0.27478 7.40393,0.46402 9.74698,1.4038 1.48955,0.59741 2.98047,1.09076 3.31301,1.0963 1.11225,0.0186 2.27312,-1.87466 2.59312,-4.22914 0.44918,-3.30157 1.68319,-6.42367 4.0193,-10.16591 2.33157,-3.73505 3.29184,-4.63689 6.09878,-5.72763 1.11716,-0.43414 2.94531,-1.17296 4.06248,-1.64184 1.60176,-0.67221 3.29357,-0.89085 8.00139,-1.03362 l 5.97017,-0.18104 0.26844,-1.34319 c 0.20721,-1.03904 -0.10507,-2.01196 -1.37991,-4.29638 -0.90657,-1.62424 -1.97537,-3.19162 -2.37513,-3.48307 -0.53159,-0.38776 -3.43263,-0.52983 -10.81273,-0.52983 -8.60872,0 -10.25206,-0.10234 -11.22141,-0.69877 -1.67722,-1.0321 -2.4437,-2.76944 -2.4437,-5.53922 0,-1.69686 -0.29636,-2.98424 -0.95128,-4.13177 -1.25402,-2.19738 -1.03188,-5.69158 0.4567,-7.17944 2.26435,-2.2636 8.49764,-2.57772 11.64317,-0.58676 1.51542,0.95919 2.34972,1.11966 7.13277,1.37195 11.60507,0.61216 12.35824,0.73148 13.73332,2.17688 1.12631,1.18383 1.26853,1.70409 1.51829,5.55459 0.34255,5.28385 1.77642,8.82745 3.76063,9.29514 1.93181,0.45533 8.29666,-1.37966 8.29666,-2.392 0,-0.26238 -1.08676,-1.55976 -2.41496,-2.88309 -2.98902,-2.97814 -4.56016,-6.08229 -5.2471,-10.36715 -0.90734,-5.65915 0.27752,-7.93592 4.12963,-7.93592 2.77662,0 2.81027,-0.47486 0.37282,-5.24869 -0.99309,-1.94481 -1.80554,-3.67789 -1.80554,-3.85128 0,-0.17343 -0.60796,-1.16146 -1.35134,-2.1957 -2.06572,-2.87456 -5.68851,-10.25649 -6.31503,-12.86775 -0.30779,-1.28236 -0.82239,-3.09462 -1.14386,-4.02724 -0.32136,-0.93263 -0.68051,-2.45874 -0.79876,-3.39136 -0.11796,-0.93264 -0.92717,-3.12641 -1.79835,-4.87508 -3.82612,-7.67996 -4.63766,-13.48578 -4.23684,-30.31027 0.18221,-7.6558 0.46959,-11.79871 0.94083,-13.56543 0.37273,-1.39894 0.68501,-3.3476 0.69409,-4.33036 0.008,-0.98277 0.33649,-2.67362 0.72816,-3.75745 0.39166,-1.08383 0.8925,-2.85507 1.11278,-3.93607 2.72732,-13.38705 4.90419,-18.41438 12.96623,-29.94418 3.77621,-5.40042 5.74196,-7.71969 9.64574,-11.38023 2.69661,-2.52864 4.90297,-4.77011 4.90297,-4.98107 0,-0.65844 -3.69636,-0.39684 -6.99652,0.49527 -5.93561,1.60462 -8.5914,2.17987 -17.82974,3.86202 -1.36548,0.24861 -8.37319,0.59194 -15.57279,0.76302 -13.88992,0.32996 -14.38245,0.40075 -18.73256,2.69453 -7.70727,4.06394 -13.66322,6.05557 -22.34361,7.47153 -3.24419,0.52916 -12.99159,5.0248 -16.8216,7.75828 -1.42339,1.01589 -3.29892,2.24618 -4.16783,2.734 -2.855959,1.60335 -9.539549,4.78393 -10.052819,4.78393 -1.06942,0 -14.18431,6.44728 -15.54591,7.64237 -1.31782,1.15668 -3.16056,3.58673 -5.36346,7.07292 -2.47806,3.92163 -5.59535,7.61313 -8.40307,9.95089 -1.72794,1.43871 -4.40838,4.15563 -5.95653,6.0376 -2.82021,3.42831 -5.68484,7.30858 -5.68484,7.70041 0,0.11493 -0.79553,1.20222 -1.76794,2.41628 -4.78347,5.97241 -5.47452,7.1021 -10.42658,17.04459 -0.8301,1.66673 -3.60398,8.37958 -3.60398,8.72187 0,0.19188 -1.51732,3.30717 -3.37184,6.92286 -1.85451,3.61569 -3.49878,7.10692 -3.65393,7.75829 -0.15517,0.65141 -0.55279,1.94738 -0.88362,2.88001 -0.33083,0.93263 -1.2319,4.21559 -2.00234,7.29548 -0.77044,3.0799 -1.99547,7.3721 -2.72226,9.5382 -2.05575,6.12681 -4.06615,16.39843 -4.069,20.78938 -9.5e-4,1.45713 -0.30203,4.3662 -0.66919,6.4646 -0.36706,2.09839 -0.67103,5.27691 -0.67533,7.06337 -0.004,1.78645 -0.31247,4.74328 -0.6849,6.57075 -0.84261,4.13544 -0.86546,13.4938 -0.041,16.67615 1.10601,4.26776 2.19705,6.9579 4.47012,11.02192 4.58323,8.19428 4.5116,8.01253 4.51059,11.44583 -7.2e-4,2.43399 -0.28161,3.85252 -1.19792,6.05053 -1.28376,3.07924 -1.6116,7.28344 -0.73647,9.44506 0.60767,1.50089 3.58904,5.08272 4.73045,5.68306 0.49654,0.26121 1.31026,0.7057 1.80829,0.98794 0.4981,0.2822 2.25865,1.22903 3.91244,2.10404 1.65381,0.87502 3.07443,1.73671 3.15695,1.91489 0.082,0.17821 1.16565,1.07852 2.40696,2.00072 1.24132,0.92219 3.98349,3.24233 6.09371,5.15582 2.11024,1.91349 4.44153,3.92177 5.18068,4.46285 0.7392,0.54106 2.03404,1.70093 2.87754,2.57746 0.84349,0.87659 2.5239,2.19633 3.73421,2.93286 1.21029,0.73656 2.20054,1.46423 2.20054,1.61712 0,0.50445 10.09411,5.0055 13.31588,5.93762 2.39384,0.69261 5.12907,1.00698 11.28465,1.29711 18.273699,0.86136 24.496769,1.19679 26.857469,1.44792 2.79981,0.29783 10.39706,1.89793 16.47558,3.47002 11.51486,2.97808 24.23777,5.96847 26.63179,6.25953 3.80623,0.46275 12.5816,2.34149 18.05545,3.86552 1.98609,0.55298 5.64231,1.50069 8.12495,2.10603 5.18433,1.26408 6.3554,1.63655 14.67007,4.66604 9.18578,3.3469 13.95357,4.80176 16.70123,5.0963 1.36547,0.14637 3.49826,0.51949 4.73958,0.82903 1.24132,0.30964 4.93912,0.8759 8.21742,1.25836 4.61914,0.53892 7.26018,1.12427 11.73603,2.60104 5.79353,1.91154 10.52563,3.06105 19.76851,4.80208 9.34956,1.76111 14.8966,3.06576 16.92701,3.98122 1.11716,0.50367 4.87492,2.4585 8.35057,4.34398 10.46408,5.67655 15.68139,7.00739 20.08668,5.12376 z M 165.56405,257.71514 c -1.03951,-0.39352 -9.06292,-0.24275 -9.51159,0.1786 -0.14442,0.13602 2.15728,0.23513 5.11574,0.22039 3.55845,-0.0176 5.04626,-0.15282 4.39585,-0.39899 z"
       id="path249" /><path
       style="fill:#ffffff;fill-rule:evenodd;stroke-width:0.437438"
       d="m 108.74231,234.47021 c -2.03602,-0.33698 -3.25073,-3.96141 -1.87655,-5.59913 1.41936,-1.69158 2.7251,-2.10015 6.71178,-2.10015 2.66475,0 4.1218,-0.18104 4.52627,-0.56255 0.3281,-0.30944 1.20808,-1.21551 1.95564,-2.01362 2.90199,-3.09834 5.23801,-4.47667 8.79699,-5.1904 5.03077,-1.00888 11.84619,-1.22816 13.07375,-0.42057 2.31683,1.52402 2.22276,4.65598 -0.18143,6.05164 -1.15293,0.66918 -2.25504,0.86379 -4.89292,0.86379 -5.49449,0 -9.90932,1.89182 -12.7428,5.46048 -0.74251,0.93508 -2.06654,2.00653 -2.94244,2.38099 -1.51284,0.64672 -10.44193,1.45834 -12.42792,1.12958 z"
       id="path251" /><path
       style="fill:#ffffff;fill-rule:evenodd;stroke-width:0.437438"
       d="m 160.90485,214.18104 c -3.66415,-1.28981 -3.87088,-5.25028 -0.35163,-6.74061 2.80884,-1.18953 5.17503,-1.04619 6.49356,0.39333 1.26158,1.37741 1.32796,1.99694 0.39547,3.6899 -0.99422,1.80553 -4.68983,3.30772 -6.53748,2.65735 z"
       id="path253" /><path
       style="fill:#ffffff;fill-rule:evenodd;stroke-width:0.437438"
       d="m 150.68416,182.28136 c -1.17048,-0.46588 -2.41807,-2.05354 -2.41807,-3.07709 0,-0.41071 0.59204,-1.36982 1.31641,-2.13126 1.29969,-1.36687 1.37439,-1.38628 5.89598,-1.53094 5.13398,-0.16425 7.0673,0.32048 7.72134,1.936 0.69261,1.7102 0.46958,2.88829 -0.75004,3.96552 -1.06348,0.93928 -1.5784,1.03612 -5.9809,1.12527 -2.64951,0.0537 -5.25254,-0.0762 -5.78461,-0.28758 z"
       id="path255" /><path
       style="fill:#ffffff;fill-rule:evenodd;stroke-width:0.437438"
       d="m 353.42099,214.464 c -0.49674,-0.20887 -1.75511,-0.58208 -2.79697,-0.82932 -2.55582,-0.60659 -3.74808,-2.0933 -3.74808,-4.67373 0,-1.96755 0.76957,-4.1996 1.91087,-5.5423 2.21951,-2.61114 6.64772,-1.93862 6.68046,1.0146 0.008,0.74456 0.39625,1.78291 0.86233,2.30752 0.74779,0.84182 1.26687,0.95382 4.42019,0.95382 4.14951,0 5.08135,-0.58579 5.97818,-3.75802 1.01161,-3.57823 3.98211,-4.97882 5.84427,-2.75556 1.22763,1.46575 1.21698,4.04247 -0.0303,7.46572 -2.09211,5.73879 -3.08512,6.26438 -11.7628,6.22581 -3.55005,-0.0156 -6.86094,-0.19959 -7.35741,-0.40846 z"
       id="path257" /><path
       style="fill:#ffffff;fill-rule:evenodd;stroke-width:0.437438"
       d="m 431.014,242.37739 c -1.64222,-0.41247 -2.7863,-1.48657 -3.12474,-2.93352 -0.39089,-1.67037 0.91721,-5.19964 2.58978,-6.98871 1.10007,-1.17669 1.67541,-1.44503 3.0982,-1.44503 1.47821,0 1.85317,0.19246 2.43584,1.25071 0.37877,0.68783 0.68881,1.62129 0.68881,2.07424 0,0.93791 0.8301,1.33816 2.77488,1.33816 2.05234,0 2.87598,-0.61645 3.94664,-2.95376 1.22294,-2.66982 0.82239,-3.60448 -1.70717,-3.98437 -2.75582,-0.41383 -4.32961,-2.80004 -3.37978,-5.12459 0.74555,-1.82469 6.43072,-2.59647 9.39509,-1.2754 3.55761,1.58547 4.44522,6.89382 2.23093,13.34117 -1.43647,4.1824 -2.66789,5.66031 -5.23643,6.28425 -2.26548,0.55034 -12.00195,0.84632 -13.71192,0.41686 z"
       id="path259" /><path
       style="fill:#ffffff;fill-rule:evenodd;stroke-width:0.437438"
       d="m 438.53685,158.57164 c -0.86604,-1.51972 -0.58218,-3.36123 0.63285,-4.10912 2.45029,-1.50783 5.07463,0.93879 3.76745,3.51241 -0.78587,1.54728 -3.63844,1.93408 -4.40054,0.59672 z"
       id="path261" /><path
       style="fill:#ffffff;fill-rule:evenodd;stroke-width:0.437438"
       d="m 346.97409,293.48065 c -2.41777,-0.82307 -4.05877,-2.72205 -5.12535,-5.93111 -1.06462,-3.20287 -1.11619,-8.39159 -0.10282,-10.373 0.99475,-1.94568 4.52189,-5.35267 6.57324,-6.34928 3.38159,-1.6429 13.14415,-3.7806 19.41849,-4.25206 3.96267,-0.29773 6.81347,-0.74515 8.40654,-1.31936 4.99635,-1.80083 8.42702,-1.30718 10.57576,1.5218 0.8385,1.10404 1.00034,1.85886 0.96886,4.51823 -0.0527,4.49675 -1.22469,6.13118 -5.91512,8.25334 -4.47509,2.02471 -6.4602,1.09974 -6.4602,-3.01012 0,-3.21522 -0.26541,-3.3211 -6.8748,-2.74043 -5.52397,0.48531 -6.53822,0.66146 -12.08338,2.09878 -3.60298,0.9339 -5.26773,1.72491 -7.20286,3.4226 -1.39322,1.22227 -1.47474,1.44388 -1.21803,3.31292 0.24343,1.77496 0.5852,2.2685 2.99695,4.33459 2.20386,1.88779 2.72134,2.57971 2.71878,3.63539 -0.007,2.68644 -3.19733,4.06188 -6.67578,2.87771 z"
       id="path263" /><path
       style="fill:#ffffff;fill-rule:evenodd;stroke-width:0.437438"
       d="m 389.51138,318.99277 c -1.42537,-1.33864 -1.4054,-2.80166 0.0605,-4.43791 2.33951,-2.61113 6.96598,-1.16396 6.9495,2.17378 -0.008,1.63447 -0.31306,2.15339 -1.65613,2.81727 -1.71269,0.84661 -4.12939,0.59693 -5.35401,-0.55317 z"
       id="path265" /><path
       style="fill:#ffffff;fill-rule:evenodd;stroke-width:0.437438"
       d="m 462.79088,282.70789 c -1.21886,-1.14476 -1.34695,-1.495 -1.12216,-3.06909 0.44078,-3.08704 3.07702,-4.13747 6.07504,-2.4208 1.84455,1.05622 2.55848,2.47911 2.18405,4.35327 -0.54137,2.70953 -4.74858,3.37959 -7.13693,1.13662 z"
       id="path267" /><path
       style="fill:#ffffff;fill-rule:evenodd;stroke-width:0.437438"
       d="m 206.26919,373.5785 c -2.45043,-0.29959 -3.63731,-0.98706 -4.46057,-2.58364 -0.44684,-0.86624 -1.05373,-2.04899 -1.34907,-2.62842 -0.43405,-0.85237 -1.30997,-1.25786 -4.58579,-2.1237 -4.55297,-1.20341 -6.27677,-1.98205 -7.81744,-3.53113 -1.07989,-1.0858 -4.09105,-8.64128 -4.11668,-10.32941 -0.0146,-1.22713 -0.45221,-1.43084 -3.90082,-1.8325 -3.39937,-0.39587 -4.75221,-1.11584 -6.18309,-3.29028 -1.44532,-2.19637 -1.99699,-4.3241 -2.33278,-8.99757 -0.26921,-3.75008 -0.72591,-5.83453 -2.31448,-10.56753 -0.34626,-1.03245 -0.62983,-2.31118 -0.62983,-2.84163 0,-0.73021 -0.47633,-1.16218 -1.95985,-1.77865 -1.76388,-0.73275 -5.75831,-4.20902 -6.79578,-5.91423 -0.69486,-1.14253 -0.37272,-3.11806 0.68051,-4.17119 1.6776,-1.67709 3.79776,-1.38632 6.49808,0.89114 2.37732,2.00502 3.20043,2.21247 5.68481,1.43269 2.12749,-0.66781 3.69326,-2.14582 5.06963,-4.78576 1.28419,-2.46306 3.72548,-4.74007 5.54091,-5.16797 1.78853,-0.42164 4.38284,0.5771 5.26993,2.02869 1.0138,1.65895 1.07157,7.29485 0.0937,9.13593 -0.80677,1.51882 -3.17253,3.0978 -8.11702,5.41754 -3.61062,1.69394 -3.61448,1.69755 -3.75398,3.51414 -0.0771,1.00015 0.15575,2.81241 0.51647,4.02724 0.36139,1.21483 0.92267,4.40257 1.24812,7.08386 0.73266,6.03524 1.29335,6.78272 5.09034,6.78272 2.00947,0 2.73194,0.20809 3.88473,1.11911 1.66111,1.3127 2.99286,3.88364 3.30348,6.37728 0.28806,2.31027 2.32075,6.31893 3.60555,7.10957 0.55494,0.34167 2.32734,0.93703 3.93764,1.32295 4.84052,1.15993 6.84499,2.36444 9.02155,5.42114 1.2501,1.7556 1.26756,1.75702 6.04896,0.49127 2.92013,-0.77308 3.84721,-0.66264 7.29587,0.86965 1.27331,0.56568 2.58283,1.02856 2.91,1.02856 0.32741,0 2.09271,-0.66762 3.92327,-1.48372 1.83064,-0.81605 3.47301,-1.4849 3.64971,-1.48633 0.17694,-10e-4 0.82913,-0.24598 1.44979,-0.54351 0.62075,-0.29744 3.19127,-1.08695 5.71248,-1.75437 6.51086,-1.72359 6.56575,-1.94827 2.71915,-11.12362 -2.18503,-5.2121 -4.82056,-13.74176 -4.82056,-15.60164 0,-0.65151 -0.4401,-1.85268 -0.97713,-2.66938 -0.91858,-1.39583 -1.01388,-1.43776 -1.58914,-0.69906 -0.33649,0.43219 -0.81751,1.55485 -1.06877,2.49468 -0.72895,2.72579 -2.00849,4.85612 -5.15908,8.58952 -3.2489,3.84993 -5.41926,5.20097 -8.35504,5.20097 -2.94902,0 -4.9345,-1.08047 -8.87033,-4.82706 -3.29298,-3.13462 -3.73047,-3.73778 -4.01825,-5.54026 -0.40221,-2.52016 0.0225,-6.53219 0.89504,-8.4987 0.36442,-0.81976 1.38355,-2.50987 2.26413,-3.75577 1.47435,-2.08609 1.60101,-2.5149 1.60101,-5.42101 0,-2.9695 -0.0977,-3.27964 -1.655,-5.25512 -0.91018,-1.15466 -2.96338,-3.14859 -4.5625,-4.43095 -1.59919,-1.28235 -4.16637,-3.47613 -5.70484,-4.87507 -1.53855,-1.39893 -5.27015,-4.73162 -8.29244,-7.40594 -5.82022,-5.15005 -6.67864,-6.38787 -5.89463,-8.50001 0.79925,-2.15349 3.34689,-2.77444 5.70008,-1.38934 0.67367,0.39674 3.56132,2.85275 6.41635,5.45785 2.85504,2.6051 6.91751,6.31021 9.02776,8.23359 2.11018,1.92338 4.54768,3.99437 5.41661,4.60219 2.51924,1.76228 3.66529,3.04908 5.14365,5.77553 1.33993,2.4712 1.38423,2.73435 1.3927,8.27529 0.007,4.81565 -0.12626,5.95813 -0.84417,7.20663 -0.46881,0.81605 -1.00194,1.5791 -1.18408,1.69568 -0.18221,0.11659 -0.86467,0.95393 -1.51685,1.86081 -1.94769,2.70839 -1.53205,4.82085 1.45092,7.37512 1.68251,1.44068 3.2873,2.06556 4.09725,1.59543 0.25633,-0.14871 1.37984,-1.38597 2.49701,-2.74946 2.08031,-2.53903 3.08617,-4.7564 3.64268,-8.03046 0.48091,-2.82919 1.77688,-4.52395 4.39714,-5.75021 4.35917,-2.0401 7.75187,-1.12761 9.9109,2.66559 1.51284,2.65798 2.59402,5.42856 2.60324,6.67109 0.004,0.48541 0.42262,2.2022 0.93097,3.81527 0.50816,1.61307 1.24828,3.98206 1.64396,5.26442 0.84807,2.7481 2.41383,6.81643 2.85518,7.41859 0.17088,0.23309 0.67064,1.47312 1.11096,2.75549 0.4401,1.28235 1.07958,3.10098 1.42105,4.0414 0.80403,2.21462 0.7929,5.43821 -0.0225,6.92159 -1.34657,2.44555 -3.59942,3.70023 -9.18307,5.1143 -2.91159,0.73734 -7.47166,2.28609 -10.13357,3.44164 -4.32327,1.87672 -5.17239,2.10097 -7.95536,2.10097 -1.71352,0 -3.97908,-0.28621 -5.03455,-0.63588 -1.05546,-0.34968 -2.57889,-0.63589 -3.38536,-0.63589 -0.80648,0 -2.32992,0.28621 -3.38545,0.63589 -1.87269,0.62045 -2.87575,0.68158 -5.64232,0.34323 z"
       id="path269" /><path
       style="fill:#ffffff;fill-rule:evenodd;stroke-width:0.437438"
       d="m 43.047041,297.87036 c -1.71178,-1.07919 -2.9549,-3.11684 -3.34073,-5.47592 -0.14794,-0.90471 -1.08132,-2.60803 -2.20671,-4.02724 -1.07266,-1.35269 -2.89354,-4.22546 -4.0464,-6.38392 -2.41632,-4.524 -2.56026,-5.84461 -1.25873,-11.54861 0.91418,-4.00653 1.31905,-5.09051 3.16659,-8.47839 0.69936,-1.28237 1.42062,-2.90386 1.60291,-3.60332 0.50123,-1.92326 2.33136,-3.92136 3.88532,-4.24189 1.70249,-0.35114 3.46332,0.6229 3.86882,2.14023 0.35945,1.34493 -1.2144,6.13764 -3.40469,10.36809 -0.90539,1.74867 -1.91691,4.52969 -2.24791,6.18003 -0.59145,2.94903 -0.58139,3.03493 0.58453,4.9961 0.65248,1.09751 1.18624,2.26742 1.18624,2.59982 0,0.33239 0.93293,1.67996 2.07306,2.99463 2.10633,2.42864 3.24813,4.47401 3.76556,6.74542 0.21854,0.95929 0.63813,1.35476 1.7575,1.65624 1.87148,0.50416 2.19312,0.19881 3.5063,-3.32792 0.57065,-1.53249 1.46486,-3.35001 1.9872,-4.03894 1.21892,-1.60764 4.47595,-2.54426 8.84761,-2.54426 5.27955,0 5.44175,-0.21581 3.52428,-4.68872 -1.76275,-4.11199 -1.70536,-7.80129 0.17869,-11.4888 1.71314,-3.35294 1.86045,-5.46796 0.46588,-6.68819 -1.3605,-1.19038 -2.33344,-0.93254 -8.9534,2.37281 -1.80482,0.9012 -3.43406,0.7018 -4.4811,-0.54829 -2.84915,-3.40172 1.6613,-7.74352 10.11644,-9.73814 5.03089,-1.18683 7.7537,-0.0117 9.91456,4.27766 0.97169,1.92905 1.15139,2.88798 1.15139,6.14495 0,3.40093 -0.16083,4.18223 -1.35416,6.57933 -0.74476,1.49607 -1.35416,3.02468 -1.35416,3.39692 0,0.37224 0.60932,2.02166 1.35416,3.66539 1.16335,2.5675 1.35416,3.51791 1.35416,6.74535 0,3.68942 -0.0274,3.78198 -1.49863,5.16419 -1.80546,1.69561 -4.74055,2.4361 -9.65585,2.4361 -3.07808,0 -3.51652,0.10585 -4.47943,1.08165 -0.58706,0.59497 -1.06738,1.45541 -1.06738,1.91225 0,1.52951 -1.93055,4.72049 -3.34653,5.53139 -1.10789,0.63452 -2.28019,0.79808 -5.72729,0.79935 -3.76467,10e-4 -4.53581,-0.12548 -5.868,-0.96535 z"
       id="path271" /><path
       style="fill:#ffffff;fill-rule:evenodd;stroke-width:0.437438"
       d="m 77.097351,307.2762 c -0.78626,-0.21473 -1.95422,-0.976 -2.59547,-1.69173 -0.93937,-1.04842 -1.15948,-1.72737 -1.13294,-3.49432 0.0566,-3.79438 1.45251,-9.94835 2.81846,-12.42909 1.87783,-3.41037 6.76946,-6.93271 9.62774,-6.93271 1.9473,0 3.90024,2.09828 3.48257,3.74174 -0.40758,1.60358 -0.43394,1.63245 -2.95336,3.22588 -1.2501,0.79066 -2.62581,1.98251 -3.05714,2.64861 -1.03518,1.59864 -2.87032,7.20685 -2.52831,7.72656 0.16571,0.25164 3.42271,0.31687 8.49741,0.17 6.9746,-0.20183 8.44511,-0.36032 9.64778,-1.03962 1.566589,-0.88489 3.023079,-3.30966 2.604009,-4.33526 -0.45445,-1.1123 0.66137,-3.49977 1.87935,-4.02094 2.4582,-1.05188 4.63072,-0.14901 6.08543,2.52892 1.01316,1.86514 1.11265,3.56851 0.31247,5.35095 -0.80989,1.80415 -6.637,7.50128 -8.23779,8.05401 -1.734229,0.59877 -22.529829,1.02154 -24.450269,0.49703 z"
       id="path273" /></g></svg>
