<?xml version="1.0" encoding="UTF-8" standalone="no"?>
<!-- Created with Inkscape (http://www.inkscape.org/) -->

<svg
   width="150"
   height="24"
   viewBox="0 0 150 24"
   version="1.1"
   id="svg5"
   inkscape:version="1.2.1 (9c6d41e410, 2022-07-14)"
   sodipodi:docname="frame_gold.svg"
   xml:space="preserve"
   xmlns:inkscape="http://www.inkscape.org/namespaces/inkscape"
   xmlns:sodipodi="http://sodipodi.sourceforge.net/DTD/sodipodi-0.dtd"
   xmlns="http://www.w3.org/2000/svg"
   xmlns:svg="http://www.w3.org/2000/svg"><sodipodi:namedview
     id="namedview7"
     pagecolor="#ffffff"
     bordercolor="#999999"
     borderopacity="1"
     inkscape:pageshadow="0"
     inkscape:pageopacity="0"
     inkscape:pagecheckerboard="0"
     inkscape:document-units="px"
     showgrid="false"
     height="70mm"
     units="px"
     inkscape:zoom="11.844781"
     inkscape:cx="77.291424"
     inkscape:cy="34.44555"
     inkscape:window-width="3840"
     inkscape:window-height="2066"
     inkscape:window-x="-11"
     inkscape:window-y="-11"
     inkscape:window-maximized="1"
     inkscape:current-layer="layer1"
     inkscape:showpageshadow="2"
     inkscape:deskcolor="#d1d1d1" /><defs
     id="defs2" /><g
     inkscape:label="Layer 1"
     inkscape:groupmode="layer"
     id="layer1"><g
       id="g292"
       transform="matrix(0.33692885,0,0,0.09210258,-13.978465,-5.2070721)"><path
         d="m 41.5,57.5 v 73.75 h 2.3 2.45 l 1.05,-0.95 1.05,-0.95 1.4,0.35 1.35,0.45 1.95,-0.7 1.9,-0.75 -0.7,-3.2 -0.75,-3.25 -1,-1 -0.9,-1 1.1,-1.55 1.15,-1.45 h 0.7 0.65 v -1.3 -1.25 l -1,-0.35 -1.05,-0.35 v -0.85 -0.95 l 2.25,0.45 2.3,0.35 1.3,1.35 1.35,1.35 0.3,-0.8 0.35,-0.8 h 0.7 0.7 l 2.1,1.6 2.1,1.55 1.65,-0.3 1.7,-0.3 0.7,-0.35 0.75,-0.4 v -0.5 -0.55 l -1.9,-0.8 -1.85,-0.85 -0.35,-0.75 -0.25,-0.7 h 1.4 1.45 l 1.9,0.7 1.8,0.75 2,-2.1 1.9,-2.05 -0.35,-1.15 -0.35,-1.2 -1.5,0.45 -1.5,0.4 -2.4,0.3 -2.5,0.3 -1.2,-2.4 -1.25,-2.4 0.6,-1.55 0.7,-1.5 1.8,-1 1.85,-1.05 V 97.15 96 l 2.4,-2.4 2.45,-2.3 v -0.75 l 0.05,-0.6 -2.3,-0.65 -2.25,-0.65 1.75,-0.6 1.8,-0.65 3.15,0.65 3.1,0.6 2.55,0.6 2.55,0.6 0.8,-0.4 L 88.2,89 v -1.1 -1.15 l 2.45,-1.25 2.5,-1.35 V 83.6 83.05 l -0.9,-0.1 -0.85,-0.05 -2.45,-0.1 -2.5,-0.05 -0.2,-1.25 -0.2,-1.3 1.45,-1.1 1.45,-1.15 V 76 74.05 L 87.65,73 86.35,72.05 83,71.55 l -3.3,-0.6 -0.4,0.85 -0.35,0.85 0.35,0.95 0.45,0.9 -1.45,0.65 -1.4,0.6 -0.95,-0.25 -0.95,-0.3 -1.25,1.15 -1.2,1.2 h -0.6 -0.55 v -1.5 -1.5 l 1.55,-0.4 1.6,-0.45 1.9,-1.55 1.95,-1.55 V 69.9 69.2 L 76.6,67.7 74.85,66.3 75,65.35 75.2,64.25 74.25,63.3 73.3,62.2 74.6,60.1 75.9,58 75.3,57.5 H 41.5 M 77,58 v 0.3 0.25 l 0.65,0.35 0.65,0.35 0.45,-0.6 0.4,-0.65 H 78.1 77 m -16.15,0.65 3.15,0.05 3.15,0.15 0.75,0.75 0.75,0.8 -1,1.7 -1.1,1.75 -1.9,0.75 -1.9,0.8 -0.6,-0.8 -0.65,-0.8 0.35,-1.65 0.4,-1.7 -0.7,-0.35 -0.7,-0.35 V 59.2 58.65 m 22.2,0 0.5,0.4 0.45,0.35 0.45,-0.35 0.5,-0.4 H 84 83.05 m 8.7,1.2 v 0.8 0.85 l -1.1,0.8 -1.05,0.75 v 0.85 0.85 l 1.05,0.35 1.1,0.35 1.35,-1.45 1.4,-1.4 v -1.35 l 0.05,-1.4 h -1.4 -1.4 m 227.8,0.05 -1,0.35 -1.05,0.35 -0.6,1.25 -0.55,1.35 0.2,0.15 0.15,0.2 1.9,-0.4 1.8,-0.35 v -1.05 -1.1 l -0.4,-0.4 -0.45,-0.35 m -260.65,0.4 0.75,0.65 0.75,0.7 -0.3,0.3 -0.3,0.2 -1.95,0.45 -1.9,0.4 v -0.9 -0.95 l 1.45,-0.4 1.5,-0.45 m 20.3,2 -0.35,0.75 -0.35,0.75 -0.05,0.75 -0.05,0.7 0.65,0.35 0.7,0.35 0.7,-1.2 0.75,-1.2 v -0.6 -0.65 h -1 -1 m 0.6,4.15 -0.7,0.45 -0.7,0.35 v 0.85 0.8 l 0.65,0.4 0.65,0.35 0.45,-0.65 0.45,-0.7 -0.4,-0.95 -0.4,-0.9 m 21.05,0.5 v 0.85 0.75 l 0.45,-0.4 0.45,-0.35 -0.45,-0.45 -0.45,-0.4 m -46.3,4.35 1,0.3 0.9,0.35 L 56,74 55.55,76 H 54.2 52.75 l -0.2,-2 -0.2,-1.95 1.1,-0.4 1.1,-0.35 m 170.35,19 -0.65,0.4 -0.65,0.3 v 0.65 0.55 h 0.6 0.55 l 0.45,-0.45 0.5,-0.35 -0.45,-0.55 -0.35,-0.55 M 78.65,94.6 78.2,95 77.7,95.45 v 0.75 0.85 h 1.05 1.05 v -1.2 -1.25 h -0.6 -0.55 m 156.4,1.85 -0.5,0.4 -0.45,0.4 0.05,0.4 V 98 l 0.95,1.05 0.9,1.05 0.4,-0.3 0.35,-0.35 -0.35,-1.45 -0.35,-1.55 h -0.5 -0.5 m -7.15,5.9 -2.85,1.7 -2.85,1.7 v 0.85 0.75 l -1.4,0.35 -1.4,0.45 v 0.75 0.85 l -1.35,1.4 -1.3,1.4 -1.1,-0.75 -1.1,-0.8 -1.45,0.4 -1.45,0.4 v 0.5 0.5 l 1.15,0.35 1.15,0.4 -0.6,1.65 -0.5,1.7 -0.15,5.2 -0.15,5.15 0.7,0.75 0.7,0.8 2.8,-0.45 2.8,-0.35 0.65,0.85 0.55,0.85 0.05,2.55 v 2.55 l 0.4,1 0.45,0.95 0.95,-0.7 1,-0.7 v -3.3 -3.25 l 1.75,-0.7 1.75,-0.7 v -0.45 -0.35 l 1.35,-1.25 1.4,-1.3 4.65,-0.7 4.7,-0.7 1.5,1.2 1.5,1.2 3,-1.55 3.05,-1.55 0.6,-1.5 0.7,-1.4 h 0.75 0.85 l -0.35,1.15 -0.4,1.2 1.05,1.1 1,1.1 -0.35,-0.75 -0.45,-0.7 0.45,-0.9 0.4,-1 h 0.95 0.9 l 0.5,-0.6 0.4,-0.6 -1.1,-1.4 -1.1,-1.35 v -1.25 -1.3 l -0.8,-0.7 -0.85,-0.75 h -1.9 -1.95 l -2.05,-1.5 -2.1,-1.55 h -1.5 -1.5 l -0.4,0.85 -0.4,0.9 -3.75,0.45 -3.75,0.4 -1.95,-1.65 -1.95,-1.6 -2,-0.4 -1.95,-0.35 0.2,-1 0.2,-0.95 2.3,-0.95 2.2,-0.9 -0.6,-0.85 -0.65,-0.85 m 65.15,3.9 v 0.25 0.3 h 0.35 0.35 v -0.3 -0.25 h -0.35 -0.35 m -204.85,8.5 v 0.3 0.35 h 0.35 0.4 v -0.35 -0.3 h -0.4 -0.35 m 118.25,1.2 -2.65,2.25 -2.65,2.25 v 0.85 0.8 h 1.4 1.4 l 2.1,-2.55 2.1,-2.55 v -0.5 -0.55 h -0.8 -0.9 m 66.2,1.05 -2.85,0.85 -2.85,0.8 1.85,1.4 1.9,1.4 1.75,0.45 1.8,0.35 0.55,-0.8 0.55,-0.7 -0.35,-1.1 -0.3,-1.2 -1.05,-0.75 -1,-0.7 m -7.65,0.1 -0.7,0.4 -0.7,0.35 v 1.2 1.2 h 0.65 0.65 l 0.5,-0.6 0.4,-0.65 -0.35,-0.95 -0.45,-0.95 m -21.1,2.45 0.75,0.35 0.65,0.45 v 0.25 0.35 l -0.65,-0.4 -0.75,-0.35 v -0.35 -0.3 m 16.85,0.1 v 0.6 0.6 h 0.75 0.65 v -0.6 -0.6 h -0.65 -0.75 m 30.8,0.45 -1.7,0.35 -1.7,0.45 v 1.05 l -0.05,1.05 -0.95,1.5 -1,1.55 0.7,1.1 0.7,1.15 1.5,-0.35 1.55,-0.35 h 0.9 0.95 l -0.2,-2 -0.25,-2 2.1,-0.15 2.1,-0.25 0.5,-0.45 0.6,-0.45 -2.9,-1.05 -2.85,-1.15 m -233,6.65 -0.95,1.15 -1,1.1 1,0.9 1,0.85 0.75,-0.4 0.8,-0.45 v -1.1 -1.15 l -0.85,-0.4 -0.75,-0.5 m 211.25,2.35 -0.75,1.1 -0.65,1.15 -1,-0.8 -1,-0.7 -1.1,0.8 -1,0.75 0.35,0.5 0.35,0.5 -1.2,2.1 -1.2,2.2 1.2,1.1 1.15,1.15 v 1.4 1.35 l -1.35,0.35 -1.45,0.3 v 0.85 0.75 l 0.75,0.45 0.65,0.35 1.2,-1.2 1.2,-1.3 1.95,0.35 2,0.35 v -1.6 -1.7 l 1.4,-1.55 1.45,-1.6 -0.7,-0.6 -0.75,-0.6 v -1.45 -1.3 l -0.75,-1.7 -0.75,-1.75 m -58.05,1.55 -0.7,1.05 -0.75,1.05 0.15,1.25 0.2,1.2 1.05,-0.25 1.05,-0.25 1.9,-0.25 1.95,-0.3 v -0.3 -0.2 l -1.15,-1.55 -1.15,-1.45 h -1.3 -1.25 m -155.05,1.2 -0.9,0.25 -0.9,0.3 -1.9,0.65 -1.95,0.6 0.4,1 0.5,1 1.25,-0.35 1.3,-0.3 1.25,0.85 1.25,0.85 h 0.8 0.85 l 0.45,-1.3 0.5,-1.25 -1.45,-1.1 -1.45,-1.2 m -5.7,5.9 v 0.8 0.8 l 0.45,-0.4 0.5,-0.4 -0.5,-0.4 -0.45,-0.4 m 196.45,0.65 v 0.75 0.85 l 0.45,-0.4 0.5,-0.45 -0.5,-0.4 -0.45,-0.35 m 39.8,2.45 -0.55,0.85 -0.65,0.85 v 1.5 1.55 l 0.65,0.8 0.6,0.85 1.1,-0.35 1.15,-0.4 1.05,0.35 1.05,0.35 v 1.2 1.15 h 0.7 0.7 v -1.85 -1.85 h -1.7 -1.7 l -0.45,-0.55 -0.4,-0.55 0.75,-0.35 0.7,-0.45 v -0.85 -0.85 l -1.5,-0.7 -1.5,-0.7 m -33.25,3.2 -0.45,0.4 -0.5,0.4 v 0.6 0.5 l 1.9,-0.15 1.85,-0.2 0.3,-0.8 0.3,-0.75 h -1.7 -1.7 m 232,0.6 v 0.3 0.35 h 0.3 0.2 v -0.65 h -0.2 -0.3 m -247.05,1.55 -1.05,1.2 -1.05,1.2 0.2,1.2 0.2,1.3 h 2.35 2.3 l -0.2,-1.8 -0.2,-1.75 -1.25,-0.7 -1.3,-0.65 m 247.55,3.35 -0.4,0.9 -0.05,0.75 -0.05,0.8 h 0.5 v -2.45 m -251.55,3.65 -1.1,0.35 -1.15,0.4 v 0.7 0.8 l 0.4,0.35 0.5,0.35 0.9,-0.3 1,-0.35 v -1.1 -1.2 h -0.25 -0.3 m 37.3,1.85 -0.5,0.4 -0.5,0.4 0.2,1 0.2,0.95 h 1.05 1.05 l 0.25,-1.35 0.2,-1.4 h -1 -0.95 m -6.95,0.25 -0.35,2.2 -0.4,2.1 0.4,0.45 0.45,0.5 2.2,0.35 2.3,0.4 0.35,-0.9 0.45,-0.95 -1.35,-2.05 -1.3,-2.1 h -1.35 -1.4 m 214.35,7.7 v 0.3 0.25 h 0.35 0.35 V 163.3 163 H 480 479.65 m -5.55,6.55 -1.1,0.35 -1.1,0.35 v 0.95 0.9 h 1.1 1.1 l 0.4,-0.9 0.4,-0.95 -0.4,-0.35 -0.4,-0.35 m 6.95,1.35 v 0.65 0.55 h 1.05 1.1 v -0.55 -0.65 h -1.1 -1.05 m -6,1.55 -1.55,0.15 -1.55,0.2 -1,2.9 -0.9,2.8 0.65,0.3 0.75,0.2 0.85,-1 0.85,-0.95 h 1.4 1.4 l 0.9,-0.95 0.8,-0.9 -1.3,-1.4 -1.3,-1.35 m -177.3,0.9 0.45,0.35 0.5,0.45 0.45,-0.45 0.45,-0.35 h -0.9 -0.95 m 185.75,0.45 -1.9,0.4 -1.85,0.5 -0.35,0.8 -0.4,0.8 0.6,0.4 0.6,0.25 0.5,1.7 0.45,1.7 1.45,1.4 1.5,1.35 h -0.55 -0.65 l 1.3,1.2 1.25,1.25 -0.85,2.35 -0.9,2.4 -2.65,-0.3 -2.65,-0.35 -1.2,1.55 -1.15,1.55 0.7,1.2 0.7,1.2 -1,1.25 -1,1.3 1.85,1.25 1.85,1.3 1.85,0.35 1.8,0.35 2.6,0.55 1.1,0.2 V 174 l -1.15,-0.05 -1.85,-0.15 m -219.3,0.15 0.25,1.05 0.2,1.05 1.25,0.2 1.3,0.2 1.15,-0.35 1.2,-0.4 -1.75,-0.85 -1.75,-0.85 h -0.95 l -0.9,-0.05 m 31.2,8.5 -1.55,1.5 -1.55,1.4 0.4,0.9 0.4,0.95 -1.95,1.1 -2,1.05 -1.6,1.8 -1.6,1.75 h -2 -2 v 2.65 2.75 l 0.7,0.4 0.65,0.4 -0.4,1.05 -0.45,1.15 1,0.25 0.95,0.35 3.1,-1.65 3.1,-1.7 2.25,-0.65 2.3,-0.7 1.2,1.6 1.2,1.7 1.35,1.35 1.4,1.4 h 1.3 1.25 l 1.25,-1.7 1.2,-1.65 0.9,-0.85 0.95,-0.8 -0.5,-1.35 -0.5,-1.35 -0.55,-2.1 -0.6,-2.1 1.95,-1.35 1.85,-1.35 -0.75,-1.1 -0.8,-1.05 h -1.3 l -1.35,-0.1 -2.55,-0.75 -2.55,-0.8 -1.25,-1.2 -1.25,-1.2 h -0.75 -0.85 m 186.2,1.35 -1.15,0.35 -1.15,0.35 -0.9,0.65 -0.9,0.55 0.05,0.7 v 0.65 l 0.55,0.75 0.55,0.7 0.85,-0.45 0.85,-0.45 0.65,-1.9 0.6,-1.9 m -375.2,13.9 -0.75,0.4 -0.7,0.35 -0.6,1.35 -0.55,1.25 0.65,1.15 0.7,1.15 1.85,0.7 1.9,0.7 0.6,0.85 0.6,0.75 1.6,-0.35 1.6,-0.25 2.6,1.45 2.6,1.55 1,-0.7 0.95,-0.7 v -1.05 -1.05 l -1.25,-1 -1.25,-1 -1.35,-0.15 -1.4,-0.2 -0.7,-0.35 -0.7,-0.35 -2.65,-0.4 -2.6,-0.45 -1.05,-1.85 -1.1,-1.8 m 195.3,6.85 v 0.85 0.9 h 0.55 0.65 v -0.55 -0.6 l -0.65,-0.35 -0.55,-0.25 m 182.15,0.55 v 1.2 1.2 h -0.75 -0.7 l -0.4,-0.95 -0.4,-0.9 h -2.05 -2.05 l -1.5,2.2 -1.45,2.2 -1.75,-0.35 -1.75,-0.45 -2,-0.35 -2.05,-0.35 v 0.3 0.2 l 1,2.75 1,2.8 -0.3,1.5 -0.35,1.5 2.5,1.55 2.45,1.45 0.4,1.05 0.4,1.05 1.4,0.4 1.4,0.4 -0.5,1.95 -0.4,2.05 1.2,1.65 1.2,1.55 0.15,2.8 0.15,2.75 2,1.4 1.95,1.35 -0.45,1.65 -0.5,1.7 h -1.4 -1.35 v 0.55 0.65 l 1.75,0.7 1.75,0.7 v 0.5 0.45 h -0.65 -0.6 l -0.4,1 -0.5,1 1.15,3.25 1.2,3.15 -0.45,2.2 -0.5,2.2 -0.95,0.25 -0.95,0.35 0.15,1.85 0.15,1.85 0.75,0.75 0.7,0.8 0.5,1.7 0.45,1.7 h 0.7 0.7 l 1.7,1.65 0.9,0.85 V 213.4 l -1.4,-0.2 -2.3,-0.35 -0.85,-0.65 -0.9,-0.55 v -0.4 l 0.05,-0.35 0.65,-1 0.65,-1 1.75,0.3 1.75,0.25 0.6,0.65 v -4.65 l -0.35,0.4 -1.15,-0.35 -1.15,-0.4 m -86.2,0.55 -2.6,2.1 -2.55,2.2 1.1,0.35 1.15,0.35 v 1.2 1.15 h -1.35 -1.35 l -0.35,1.05 -0.45,1.15 0.35,1.45 0.35,1.5 -0.65,1.9 -0.55,1.9 -1.75,1.6 -1.8,1.65 0.1,2.75 0.1,2.65 0.85,0.8 0.9,0.75 v 1.1 0.95 l 0.85,0.3 0.9,0.3 4.55,-0.15 4.6,-0.15 1.85,-0.65 1.9,-0.7 1.05,-1.35 1,-1.4 -0.8,-3.15 -0.85,-3.2 -1.3,-0.85 -1.3,-0.85 0.1,-4.5 0.05,-4.5 0.75,-0.55 0.65,-0.65 V 211 209.95 h -0.6 -0.65 l -1.45,-2.1 -1.45,-2.2 h -0.65 -0.7 m -90.8,4.4 -0.65,0.25 -0.6,0.35 -1.1,2.4 -1.1,2.4 h -0.45 -0.55 l -0.8,-0.75 -0.85,-0.7 v -1.1 -1.05 l -0.7,-0.4 -0.75,-0.35 -1.05,0.7 -0.95,0.75 v 1.5 1.5 l 1.75,2.65 1.75,2.6 1.1,0.8 1.05,0.75 1.2,-1.05 1.2,-1.05 -1.8,-1.1 -1.7,-1.2 1.25,-0.45 1.3,-0.4 1.25,1.2 1.2,1.1 -0.6,2.55 -0.6,2.45 -1.65,0.65 -1.7,0.7 -0.85,2.25 -0.85,2.2 1.45,1.35 1.5,1.25 0.85,-0.75 0.85,-0.7 1.55,1.25 1.55,1.25 1.3,-0.2 1.3,-0.2 0.2,-2.1 0.2,-2.2 0.4,-0.95 0.4,-0.8 0.1,-2.15 0.1,-2.05 1.4,-0.7 1.4,-0.6 0.2,-0.15 0.25,-0.1 -0.45,-1.25 -0.45,-1.25 H 313.35 312 l 0.4,-1.55 0.45,-1.55 -0.85,-0.85 -0.85,-0.95 0.4,-1.05 0.4,-1.1 -2.55,-1.1 -2.55,-0.95 m 169.1,3.3 1.3,0.85 1.35,0.9 0.9,0.95 0.85,0.8 v 1.5 1.5 l -1.6,-0.45 -1.55,-0.4 -0.1,-0.15 -0.1,-0.05 -0.55,-2.7 -0.5,-2.75 m -147.75,9.45 -0.75,1.1 -0.7,1.2 v 1.3 1.25 h -1.05 -1.05 l -1.35,2.25 -1.35,2.35 0.6,0.2 0.6,0.15 1.25,-0.8 1.25,-0.85 0.25,-1.1 0.2,-1.2 1.55,-1.05 1.55,-1.15 h 0.7 0.75 l 0.8,-0.75 0.85,-0.7 -1.15,-1.15 -1.15,-1.05 h -0.95 -0.85 m 81.2,1.2 -0.7,0.35 -0.6,0.35 v 0.2 0.3 h 1.1 1.1 l -0.5,-0.65 -0.4,-0.55 m -94.3,0.65 -0.9,0.7 -0.8,0.7 v 0.15 0.1 l 0.65,1.65 0.7,1.55 h 1.35 1.35 l 0.35,-1.7 0.35,-1.7 -0.7,-0.75 -0.75,-0.7 h -0.8 -0.8 m -22,0.45 -0.7,0.35 -0.75,0.45 v 0.5 0.55 l 2.2,1.55 2.2,1.65 0.25,-0.25 0.3,-0.25 -0.65,-1.5 -0.65,-1.5 -1.1,-0.75 -1.1,-0.8 m 164.75,0.1 v 0.65 0.6 h 1.85 1.8 l -0.45,-0.6 -0.4,-0.65 h -1.35 -1.45 m -84.05,1.25 -0.4,0.6 -0.45,0.6 h -2.25 -2.25 l 0.95,0.5 0.95,0.55 2.15,-0.4 2.15,-0.35 0.3,-0.8 0.3,-0.7 h -0.7 -0.75 m -89.85,2.4 v 0.3 0.35 h 0.35 0.35 v -0.35 -0.3 h -0.35 -0.35 m 167.4,0.65 0.8,0.7 0.85,0.7 1.2,0.3 1.25,0.2 1.4,0.15 1.35,0.05 0.25,-0.9 0.2,-0.9 -3.7,-0.15 -3.6,-0.15 M 41.5,243.55 v 0.7 l 0.05,-0.1 0.4,-0.6 H 41.5 m 428.3,4.2 v 1.15 l 0.05,1.05 1,1.1 0.95,1.15 1.3,-0.3 1.25,-0.2 0.25,-1 0.2,-0.95 -2.2,-1 -2.3,-1 h -0.2 -0.3 m -150.85,2 -3.5,1.25 -3.45,1.25 v 0.8 0.7 l 2.95,0.45 2.95,0.35 0.9,-1.1 0.9,-1.05 v -1 -0.95 l -0.4,-0.35 -0.35,-0.35 m -85.75,10.15 -0.55,0.85 -0.65,0.75 v 1.35 1.35 l 0.45,0.9 0.4,1 h 2.1 2 l 0.3,-0.8 0.35,-0.75 -0.55,-2.1 -0.5,-2.15 -1.65,-0.2 -1.7,-0.2 m 239.6,1.2 -0.8,0.4 -0.8,0.35 v 0.6 0.45 l 1.1,0.8 1.15,0.75 0.65,-0.8 0.6,-0.95 -1,-0.75 -0.9,-0.85 m -130,9.85 0.4,0.65 0.4,0.65 h 0.75 0.7 l -0.45,-0.65 -0.4,-0.65 h -0.75 -0.65 m 136.85,0 v 0.65 0.65 h 0.65 0.65 l 0.45,-0.65 0.4,-0.65 h -1.05 -1.1 m -158.7,0.5 0.3,1.05 0.2,1.15 0.95,0.25 0.95,0.3 -0.25,-1.15 -0.25,-1.05 -0.95,-0.25 -0.95,-0.3 m 127.05,0 -1.35,1.05 -1.35,1.05 0.35,0.6 0.45,0.5 1.3,-0.6 1.3,-0.6 0.4,-0.6 0.4,-0.55 -0.75,-0.4 -0.75,-0.45 m -406.5,1.2 v 3.05 l 0.4,-0.35 v -1.2 -1.3 l -0.4,-0.2 m 432.55,1.7 -1.9,1.75 -1.8,1.85 0.65,0.2 0.7,0.2 1.85,-0.6 1.9,-0.65 v -0.45 -0.45 l -0.75,-0.95 -0.65,-0.9 m -186,0.9 -1.65,1.05 -1.65,1.1 1.4,0.2 1.45,0.2 0.7,-0.65 0.7,-0.55 -0.45,-0.7 -0.5,-0.65 m 198.45,1.35 -0.7,0.8 -1.5,1.65 1.65,1.2 0.55,0.35 v -4 m -160.85,4.25 0.25,2.4 0.25,2.4 1.7,0.35 1.6,0.35 0.7,-0.35 0.8,-0.45 v -1.1 -1.2 l -1.6,-0.35 -1.55,-0.45 -1.1,-0.85 -1.05,-0.75 m -12.85,1.6 -0.65,0.35 -0.75,0.35 0.1,3.6 0.1,3.55 -1.2,1.45 -1.1,1.5 -0.05,0.5 -0.05,0.4 h 0.35 0.35 l 2.7,-1.45 2.7,-1.5 -0.2,-3.55 -0.25,-3.45 -1,-0.9 -1.05,-0.85 m -104.65,10.5 v 0.3 0.25 h 0.4 0.3 v -0.25 -0.3 h -0.3 -0.4 m -4.75,0.55 -0.35,0.8 -0.4,0.8 -0.05,0.45 -0.05,0.45 h 1.05 1.05 v -0.85 -0.9 l -0.65,-0.35 -0.6,-0.4 m 125.65,0 -0.45,0.45 -0.4,0.35 0.4,1.9 0.4,1.9 0.7,1.15 0.6,1.1 1.6,-0.9 1.5,-0.9 -0.2,-1.7 -0.3,-1.75 -0.7,-0.8 -0.75,-0.8 h -1.2 -1.2 M 41.5,294.15 v 0.45 l 0.4,0.4 0.5,-0.4 0.45,-0.45 H 41.9 41.5 m 274.95,0 -0.5,0.45 -0.5,0.4 0.2,1 0.25,0.9 1.15,0.2 1.25,0.25 v -1.65 -1.55 h -0.9 -0.95 m -103.35,1.05 -1.25,0.95 -1.25,0.9 -1.6,0.4 -1.6,0.45 0.2,1.95 0.2,1.95 1.8,0.2 1.75,0.2 0.6,0.55 0.7,0.6 h 2.25 2.2 l 0.85,-0.85 0.75,-0.85 -1.25,-1.9 -1.2,-1.85 -1.15,-0.3 -1.2,-0.25 -0.45,0.95 -0.4,0.95 -0.4,-0.35 -0.35,-0.35 0.85,-1.2 0.95,-1.3 -0.5,-0.4 -0.5,-0.45 m 273.4,2.5 -0.05,0.05 0.05,0.15 v -0.2 m -183.5,0.75 -0.35,0.95 -0.45,0.9 h -1.65 -1.65 l -0.5,0.35 -0.45,0.4 v 0.85 0.85 l 0.7,1.15 0.65,1.05 0.25,1.75 0.25,1.75 3.55,0.25 3.5,0.2 -0.05,2.55 -0.05,2.5 h 1.95 2 l 0.65,1.1 0.7,1.1 h 1.35 1.35 l 0.35,-0.55 0.4,-0.55 -0.4,-0.95 -0.4,-0.9 -1.9,-0.7 -1.85,-0.7 -1.3,-1.5 -1.25,-1.55 0.4,-1.75 0.5,-1.75 2.45,0.2 2.5,0.15 0.65,0.85 0.6,0.85 1.2,-1.3 1.25,-1.35 1.05,-0.25 1.05,-0.35 -1.5,-0.1 h -1.6 l -0.4,-0.6 -0.4,-0.65 -0.3,-1.35 -0.35,-1.25 -0.65,-0.65 -0.7,-0.55 -1.6,0.9 -1.6,0.9 -1.5,-0.5 -1.5,-0.45 -0.5,-0.65 -0.45,-0.65 h -2 -2 m 15.3,0.6 v 0.35 0.25 h 0.35 0.35 v -0.25 -0.35 h -0.35 -0.35 m 3.3,0.35 -0.55,1.45 -0.5,1.55 -0.1,0.8 -0.05,0.85 1.25,-0.25 1.2,-0.2 -0.2,-1.2 -0.25,-1.2 -0.4,-0.9 -0.4,-0.9 m -11,3.3 h 1 1 l 0.45,0.65 0.5,0.7 -0.3,0.25 -0.4,0.3 -1.15,-0.45 -1.1,-0.35 v -0.55 -0.55 m -19.85,1.25 0.45,0.35 0.45,0.45 0.5,-0.45 0.45,-0.35 h -0.95 -0.9 m -249.25,3.9 v 9.1 l 0.45,-0.35 2.2,-1.65 -0.5,-2.05 -0.5,-1.95 -0.6,-0.2 -0.65,-0.25 v -1.1 -1.2 l -0.4,-0.35 m 209.45,1 v 1.1 1.2 l 1,0.3 1.05,0.35 0.4,-0.5 0.4,-0.55 -0.5,-0.95 -0.4,-0.95 h -1 -0.95 m 73.7,0 -0.6,0.95 -0.65,1 0.3,1.05 0.35,1.05 -2.2,0.35 -2.15,0.45 v 0.55 0.65 h 0.45 0.45 l 2.7,-0.7 2.7,-0.7 v -2.35 -2.3 h -0.65 -0.7 m 69.65,4.85 -0.5,0.4 -0.45,0.45 v 0.5 0.5 h 1.1 1 v -0.95 -0.9 h -0.55 -0.6 m -154.6,1.75 -0.65,0.35 -0.75,0.45 v 0.55 0.65 l 0.75,-0.35 0.65,-0.45 v -0.55 -0.65 m 79.35,1.25 -0.25,0.8 h 1.6 v -0.05 l -0.7,-0.35 -0.65,-0.4"
         fill="#000000"
         fill-opacity="0.8"
         fill-rule="evenodd"
         stroke="none"
         id="path288" /><path
         d="m 75.3,57.5 0.6,0.5 -1.3,2.1 -1.3,2.15 0.95,1.05 0.95,0.95 -0.2,1.1 -0.15,0.95 1.75,1.45 1.8,1.45 v 0.7 0.7 l -1.95,1.55 -1.9,1.55 -1.6,0.45 -1.55,0.4 v 1.5 1.5 h 0.55 0.6 l 1.2,-1.2 1.25,-1.15 0.95,0.3 0.95,0.25 1.4,-0.6 1.45,-0.65 -0.45,-0.9 -0.35,-0.95 0.35,-0.85 0.4,-0.85 3.3,0.6 3.35,0.5 1.3,0.95 1.3,1.05 V 76 77.95 l -1.45,1.15 -1.45,1.1 0.2,1.3 0.2,1.25 2.5,0.05 2.45,0.1 0.85,0.05 0.9,0.1 v 0.55 0.55 l -2.5,1.35 -2.45,1.25 V 87.9 89 l -0.75,0.45 -0.8,0.4 -2.55,-0.6 -2.55,-0.6 -3.1,-0.6 -3.15,-0.65 -1.8,0.65 -1.75,0.6 2.25,0.65 2.3,0.65 -0.05,0.6 V 91.3 L 73.8,93.6 71.4,96 v 1.15 1.1 l -1.85,1.05 -1.8,1 -0.7,1.5 -0.6,1.55 1.25,2.4 1.2,2.4 2.5,-0.3 2.4,-0.3 1.5,-0.4 1.5,-0.45 0.35,1.2 0.35,1.15 -1.9,2.05 -2,2.1 -1.8,-0.75 -1.9,-0.7 h -1.45 -1.4 l 0.25,0.7 0.35,0.75 1.85,0.85 1.9,0.8 v 0.55 0.5 l -0.75,0.4 -0.7,0.35 -1.7,0.3 -1.65,0.3 -2.1,-1.55 -2.1,-1.55 H 61.7 61 l -0.35,0.75 -0.3,0.8 L 59,114.35 57.7,113 55.4,112.65 53.15,112.2 v 0.95 0.85 l 1.05,0.35 1,0.35 v 1.25 1.3 h -0.65 -0.7 l -1.15,1.45 -1.1,1.55 0.9,1 1,1 0.75,3.25 0.7,3.2 -1.9,0.75 -1.95,0.7 -1.35,-0.45 -1.4,-0.35 -1.05,0.9 -1.05,1 H 43.8 41.5 v 112.3 h 0.45 l -0.4,0.6 -0.05,0.1 v 28.4 l 0.4,0.2 v 1.3 1.2 l -0.4,0.35 v 18.45 h 0.4 0.95 l -0.45,0.45 -0.5,0.4 -0.4,-0.4 v 13.25 l 0.4,0.35 v 1.2 1.1 l 0.65,0.25 0.6,0.2 0.5,1.95 0.5,2.05 -2.2,1.65 -0.45,0.35 v 0.55 h 277.3 l 0.25,-0.8 0.65,0.4 0.7,0.35 v 0.05 h 166.1 v -19.6 l -0.05,-0.15 0.05,-0.05 v -17.1 l -0.55,-0.35 -1.65,-1.2 1.55,-1.65 0.65,-0.8 v -6.15 l -0.9,-0.85 -1.7,-1.65 h -0.7 -0.7 l -0.45,-1.7 -0.5,-1.7 -0.7,-0.8 -0.75,-0.75 -0.15,-1.85 -0.15,-1.85 0.95,-0.35 0.95,-0.25 0.5,-2.2 0.45,-2.2 -1.2,-3.15 -1.15,-3.25 0.5,-1 0.4,-1 h 0.6 0.65 v -0.45 -0.5 l -1.75,-0.7 -1.75,-0.7 v -0.65 -0.55 h 1.35 1.4 l 0.5,-1.7 0.45,-1.65 -1.95,-1.35 -2,-1.4 -0.15,-2.75 -0.15,-2.8 -1.2,-1.55 -1.2,-1.65 0.4,-2.05 0.5,-1.95 -1.4,-0.4 -1.4,-0.4 -0.4,-1.05 -0.4,-1.05 -2.45,-1.45 -2.5,-1.55 0.35,-1.5 0.3,-1.5 -1,-2.8 -1,-2.75 v -0.2 -0.3 l 2.05,0.35 2,0.35 1.75,0.45 1.75,0.35 1.45,-2.2 1.5,-2.2 h 2.05 2.05 l 0.4,0.95 0.4,0.9 h 0.7 0.75 v -1.2 -1.2 l 1.15,0.4 1.15,0.35 0.35,-0.4 v -3.75 l -1.1,-0.2 -2.6,-0.55 -1.8,-0.35 -1.85,-0.35 -1.85,-1.3 -1.85,-1.25 1,-1.3 1,-1.25 -0.7,-1.2 -0.7,-1.2 1.15,-1.55 1.2,-1.55 2.65,0.35 2.65,0.3 0.9,-2.4 0.85,-2.35 -1.25,-1.25 -1.3,-1.2 h 0.65 0.55 l -1.5,-1.35 -1.45,-1.4 -0.45,-1.7 -0.5,-1.7 -0.6,-0.25 -0.6,-0.4 0.4,-0.8 0.35,-0.8 1.85,-0.5 1.9,-0.4 1.85,0.15 1.15,0.05 V 152 H 486 l 0.05,-0.8 0.05,-0.75 0.4,-0.9 v -4.25 h -0.2 -0.3 v -0.35 -0.3 h 0.3 0.2 V 57.5 H 75.3 M 77,58 h 1.1 1.05 l -0.4,0.65 -0.45,0.6 L 77.65,58.9 77,58.55 V 58.3 58 m -16.15,0.65 v 0.55 0.55 l 0.7,0.35 0.7,0.35 -0.4,1.7 -0.35,1.65 0.65,0.8 0.6,0.8 1.9,-0.8 1.9,-0.75 1.1,-1.75 1,-1.7 L 67.9,59.6 67.15,58.85 64,58.7 60.85,58.65 m 22.2,0 H 84 84.95 l -0.5,0.4 -0.45,0.35 -0.45,-0.35 -0.5,-0.4 m 8.7,1.2 h 1.4 1.4 l -0.05,1.4 V 62.6 L 93.1,64 91.75,65.45 90.65,65.1 89.6,64.75 V 63.9 63.05 l 1.05,-0.75 1.1,-0.8 v -0.85 -0.8 m 227.8,0.05 0.45,0.35 0.4,0.4 v 1.1 1.05 l -1.8,0.35 -1.9,0.4 -0.15,-0.2 -0.2,-0.15 0.55,-1.35 0.6,-1.25 1.05,-0.35 1,-0.35 m -260.65,0.4 -1.5,0.45 -1.45,0.4 V 62.1 63 l 1.9,-0.4 1.95,-0.45 0.3,-0.2 0.3,-0.3 -0.75,-0.7 -0.75,-0.65 m 20.3,2 h 1 1 v 0.65 0.6 l -0.75,1.2 -0.7,1.2 -0.7,-0.35 -0.65,-0.35 0.05,-0.7 0.05,-0.75 0.35,-0.75 0.35,-0.75 m 0.6,4.15 0.4,0.9 0.4,0.95 L 80.15,69 79.7,69.65 79.05,69.3 78.4,68.9 v -0.8 -0.85 l 0.7,-0.35 0.7,-0.45 m 21.05,0.5 0.45,0.4 0.45,0.45 -0.45,0.35 -0.45,0.4 V 67.8 66.95 m -46.3,4.35 -1.1,0.35 -1.1,0.4 0.2,1.95 0.25,2 h 1.4 1.35 l 0.45,-2 0.45,-2.05 -0.9,-0.35 -1,-0.3 m 170.35,19 0.35,0.55 0.45,0.55 -0.5,0.35 -0.45,0.45 h -0.55 -0.6 V 91.65 91 l 0.65,-0.3 0.65,-0.4 M 78.65,94.6 h 0.55 0.6 v 1.25 1.2 H 78.75 77.7 V 96.2 95.45 L 78.2,95 78.65,94.6 m 156.4,1.85 h 0.5 0.5 l 0.35,1.55 0.35,1.45 -0.35,0.35 -0.4,0.3 -0.9,-1.05 -0.95,-1.05 v -0.35 l -0.05,-0.4 0.45,-0.4 0.5,-0.4 m -7.15,5.9 0.65,0.85 0.6,0.85 -2.2,0.9 -2.3,0.95 -0.2,0.95 -0.2,1 1.95,0.35 2,0.45 1.95,1.55 2,1.65 3.7,-0.4 3.75,-0.45 0.4,-0.9 0.4,-0.85 h 1.5 1.5 l 2.1,1.55 2.05,1.5 h 1.95 1.9 l 0.85,0.75 0.8,0.7 v 1.3 1.25 l 1.1,1.35 1.1,1.4 -0.4,0.6 -0.5,0.6 h -0.9 -0.95 l -0.4,1 -0.45,0.9 0.45,0.7 0.35,0.75 -1,-1.1 -1.05,-1.1 0.4,-1.2 0.35,-1.15 h -0.85 -0.75 l -0.7,1.4 -0.6,1.5 -3.05,1.55 -3,1.55 -1.5,-1.2 -1.5,-1.2 -4.7,0.7 -4.65,0.7 -1.4,1.3 -1.35,1.25 v 0.35 0.45 l -1.75,0.7 -1.75,0.7 v 3.25 3.3 l -1,0.7 -0.95,0.7 -0.45,-0.95 -0.4,-1 v -2.55 l -0.05,-2.55 -0.55,-0.85 -0.65,-0.85 -2.8,0.35 -2.8,0.45 -0.7,-0.8 -0.7,-0.75 0.15,-5.15 0.15,-5.2 0.5,-1.7 0.6,-1.65 -1.15,-0.4 -1.15,-0.35 v -0.5 -0.5 l 1.45,-0.4 1.45,-0.4 1.1,0.8 1.1,0.75 1.3,-1.4 1.35,-1.4 v -0.85 -0.75 l 1.4,-0.45 1.4,-0.35 v -0.75 -0.85 l 2.85,-1.7 2.85,-1.7 m 65.15,3.9 h 0.35 0.35 v 0.25 0.3 h -0.35 -0.35 v -0.3 -0.25 m -204.85,8.5 h 0.35 0.4 v 0.3 0.35 h -0.4 -0.35 v -0.35 -0.3 m 118.25,1.2 h 0.9 0.8 v 0.55 0.5 l -2.1,2.55 -2.1,2.55 h -1.4 -1.4 v -0.8 -0.85 l 2.65,-2.25 2.65,-2.25 m 66.2,1.05 1,0.7 1.05,0.75 0.3,1.2 0.35,1.1 -0.55,0.7 -0.55,0.8 -1.8,-0.35 -1.75,-0.45 -1.9,-1.4 -1.85,-1.4 2.85,-0.8 2.85,-0.85 m -7.65,0.1 0.45,1 0.35,0.9 -0.4,0.65 -0.5,0.6 h -0.65 -0.65 v -1.2 -1.2 l 0.7,-0.35 0.7,-0.4 m -21.1,2.45 v 0.3 0.35 l 0.75,0.35 0.65,0.4 v -0.35 -0.25 l -0.65,-0.45 -0.75,-0.35 m 16.85,0.1 h 0.75 0.65 v 0.6 0.6 h -0.65 -0.75 v -0.6 -0.6 m 30.8,0.45 2.85,1.15 2.9,1.05 -0.6,0.45 -0.5,0.45 -2.1,0.25 -2.1,0.15 0.25,2 0.2,2 h -0.95 -0.9 l -1.55,0.35 -1.5,0.35 -0.7,-1.15 -0.7,-1.1 1,-1.55 0.95,-1.5 0.05,-1.05 v -1.05 l 1.7,-0.45 1.7,-0.35 m -233,6.65 0.75,0.5 0.85,0.4 v 1.15 1.1 l -0.8,0.45 -0.75,0.4 -1,-0.85 -1,-0.9 1,-1.1 0.95,-1.15 m 211.25,2.35 0.75,1.75 0.75,1.7 v 1.3 1.45 l 0.75,0.6 0.7,0.6 -1.45,1.6 -1.4,1.55 v 1.7 1.6 l -2,-0.35 -1.95,-0.35 -1.2,1.3 -1.2,1.2 -0.65,-0.35 -0.75,-0.45 v -0.75 -0.85 l 1.45,-0.3 1.35,-0.35 v -1.35 -1.4 l -1.15,-1.15 -1.2,-1.1 1.2,-2.2 1.2,-2.1 -0.35,-0.5 -0.35,-0.5 1.05,-0.75 1.05,-0.8 1,0.7 1,0.8 0.65,-1.15 0.75,-1.1 m -58.05,1.55 h 1.25 1.3 l 1.15,1.45 1.15,1.55 v 0.2 0.3 l -1.95,0.3 -1.9,0.25 -1.05,0.25 -1.05,0.25 -0.2,-1.2 -0.15,-1.25 0.75,-1.05 0.7,-1.05 m -155.05,1.2 1.45,1.2 1.45,1.1 -0.5,1.25 -0.45,1.3 H 57.8 57 l -1.25,-0.85 -1.25,-0.85 -1.3,0.3 -1.25,0.35 -0.45,-1 -0.45,-1 1.95,-0.6 1.9,-0.65 0.9,-0.3 0.9,-0.25 m -5.7,5.9 0.5,0.4 0.45,0.4 -0.45,0.4 -0.5,0.4 v -0.8 -0.8 m 196.45,0.65 0.45,0.35 0.5,0.4 -0.5,0.45 -0.45,0.4 v -0.85 -0.75 m 39.8,2.45 1.5,0.7 1.5,0.7 v 0.85 0.85 l -0.7,0.45 -0.75,0.35 0.45,0.55 0.4,0.55 h 1.7 1.7 v 1.85 1.85 h -0.7 -0.7 v -1.15 -1.2 l -1.05,-0.35 -1.05,-0.35 -1.15,0.4 -1.1,0.35 -0.6,-0.85 -0.65,-0.8 v -1.55 -1.5 l 0.65,-0.85 0.55,-0.85 m -33.25,3.2 h 1.7 1.7 l -0.3,0.75 -0.3,0.8 -1.85,0.2 -1.9,0.15 v -0.5 -0.6 l 0.5,-0.4 0.45,-0.4 m -15.05,2.15 1.3,0.65 1.25,0.7 0.2,1.75 0.2,1.8 h -2.3 -2.35 l -0.2,-1.3 -0.2,-1.2 1.05,-1.2 1.05,-1.2 m -4,7 h 0.3 0.25 v 1.2 1.1 l -1,0.35 -0.9,0.3 -0.5,-0.35 -0.4,-0.35 v -0.8 -0.7 l 1.15,-0.4 1.1,-0.35 m 37.3,1.85 h 0.95 1 l -0.2,1.4 -0.25,1.35 h -1.05 -1.05 l -0.2,-0.95 -0.2,-1 0.5,-0.4 0.5,-0.4 m -6.9,0.25 h 1.35 1.35 l 1.3,2.1 1.35,2.05 -0.45,0.95 -0.35,0.9 -2.3,-0.4 -2.2,-0.35 -0.45,-0.5 -0.4,-0.45 0.4,-2.1 0.4,-2.2 m 214.3,7.7 h 0.35 0.35 v 0.3 0.25 H 480 479.65 V 163.3 163 m -5.55,6.55 0.4,0.35 0.4,0.35 -0.4,0.95 -0.4,0.9 h -1.1 -1.1 v -0.9 -0.95 l 1.1,-0.35 1.1,-0.35 m 6.95,1.35 h 1.05 1.1 v 0.65 0.55 h -1.1 -1.05 v -0.55 -0.65 m -6,1.55 1.3,1.35 1.3,1.4 -0.8,0.9 -0.9,0.95 h -1.4 -1.4 l -0.85,0.95 -0.85,1 -0.75,-0.2 -0.65,-0.3 0.9,-2.8 1,-2.9 1.55,-0.2 1.55,-0.15 m -177.3,0.9 h 0.95 0.9 l -0.45,0.35 -0.45,0.45 -0.5,-0.45 -0.45,-0.35 m -33.55,0.6 0.9,0.05 h 0.95 l 1.75,0.85 1.75,0.85 -1.2,0.4 -1.15,0.35 -1.3,-0.2 -1.25,-0.2 -0.2,-1.05 -0.25,-1.05 m 31.2,8.5 h 0.85 0.75 l 1.25,1.2 1.25,1.2 2.55,0.8 2.55,0.75 1.35,0.1 h 1.3 l 0.8,1.05 0.75,1.1 -1.85,1.35 -1.95,1.35 0.6,2.1 0.55,2.1 0.5,1.35 0.5,1.35 -0.95,0.8 -0.9,0.85 -1.2,1.65 -1.25,1.7 h -1.25 -1.3 l -1.4,-1.4 -1.35,-1.35 -1.2,-1.7 -1.2,-1.6 -2.3,0.7 -2.25,0.65 -3.1,1.7 -3.1,1.65 -0.95,-0.35 -1,-0.25 0.45,-1.15 0.4,-1.05 -0.65,-0.4 -0.7,-0.4 v -2.75 -2.65 h 2 2 l 1.6,-1.75 1.6,-1.8 2,-1.05 1.95,-1.1 -0.4,-0.95 -0.4,-0.9 1.55,-1.4 1.55,-1.5 m 186.2,1.35 -0.6,1.9 -0.65,1.9 -0.85,0.45 -0.85,0.45 -0.55,-0.7 -0.55,-0.75 v -0.65 l -0.05,-0.7 0.9,-0.55 0.9,-0.65 1.15,-0.35 1.15,-0.35 m -375.2,13.9 1.1,1.8 1.1,1.85 2.55,0.45 2.65,0.4 0.7,0.35 0.75,0.35 1.35,0.2 1.35,0.15 1.3,1 1.2,1 v 1.05 1.05 l -0.95,0.7 -1,0.7 -2.6,-1.55 -2.6,-1.45 -1.6,0.25 -1.6,0.35 -0.6,-0.75 -0.6,-0.85 -1.9,-0.7 -1.85,-0.7 -0.7,-1.15 -0.65,-1.1 0.55,-1.3 0.6,-1.35 0.7,-0.35 0.75,-0.4 m 195.3,6.85 0.55,0.25 0.65,0.35 v 0.6 0.55 h -0.65 -0.55 v -0.9 -0.85 m 95.95,1.1 h 0.7 0.65 l 1.45,2.2 1.45,2.1 h 0.65 0.6 v 1.05 1.15 l -0.65,0.65 -0.75,0.55 -0.05,4.5 -0.1,4.5 1.3,0.85 1.3,0.85 0.85,3.2 0.8,3.15 -1,1.4 -1.05,1.35 -1.9,0.7 -1.85,0.65 -4.6,0.15 -4.55,0.15 -0.9,-0.3 -0.85,-0.3 v -0.95 -1.1 l -0.9,-0.75 -0.85,-0.8 -0.1,-2.65 -0.1,-2.75 1.8,-1.65 1.75,-1.6 0.55,-1.9 0.65,-1.9 -0.35,-1.5 -0.35,-1.45 0.45,-1.15 0.35,-1.05 h 1.35 1.35 v -1.15 -1.2 l -1.15,-0.35 -1.1,-0.35 2.55,-2.2 2.6,-2.1 m 84.75,3.25 -0.65,1 -0.65,1 -0.05,0.35 v 0.4 l 0.9,0.55 0.85,0.65 2.3,0.35 1.4,0.2 v -3.3 l -0.6,-0.65 -1.75,-0.25 -1.75,-0.3 m -175.55,1.15 2.55,0.95 2.55,1.1 -0.4,1.1 -0.4,1.05 0.85,0.95 0.85,0.8 -0.45,1.6 -0.4,1.55 h 1.35 1.35 l 0.45,1.25 0.45,1.25 -0.25,0.1 -0.2,0.15 -1.4,0.6 -1.4,0.7 -0.1,2.05 -0.1,2.15 -0.4,0.8 -0.4,0.95 -0.2,2.2 -0.2,2.1 -1.3,0.2 -1.3,0.2 -1.55,-1.25 -1.55,-1.25 -0.85,0.7 -0.85,0.75 -1.5,-1.25 -1.45,-1.35 0.85,-2.2 0.85,-2.25 1.7,-0.7 1.65,-0.65 0.6,-2.45 0.6,-2.55 -1.2,-1.1 -1.25,-1.2 -1.3,0.4 -1.25,0.45 1.7,1.2 1.8,1.1 -1.2,1.05 -1.2,1.05 -1.05,-0.75 -1.1,-0.8 -1.75,-2.6 -1.75,-2.65 v -1.5 -1.5 l 0.95,-0.75 1.05,-0.7 0.75,0.35 0.7,0.4 v 1.05 1.1 l 0.85,0.7 0.8,0.75 h 0.55 0.45 l 1.1,-2.4 1.1,-2.4 0.6,-0.35 0.65,-0.25 m 169.1,3.3 0.5,2.75 0.55,2.7 0.1,0.05 0.1,0.15 1.55,0.4 1.6,0.45 v -1.5 -1.5 l -0.85,-0.8 -0.9,-0.95 -1.35,-0.9 -1.3,-0.85 M 328.2,222.8 h 0.9 0.9 l 1.15,1.05 1.15,1.15 -0.85,0.7 -0.8,0.75 h -0.75 -0.7 l -1.55,1.15 -1.55,1.05 -0.2,1.2 -0.25,1.1 -1.25,0.85 -1.25,0.8 -0.6,-0.15 -0.6,-0.2 1.35,-2.35 1.35,-2.25 h 1.05 1.05 v -1.25 -1.3 l 0.7,-1.2 0.75,-1.1 m 81.2,1.2 0.4,0.55 0.5,0.65 h -1.1 -1.1 v -0.3 -0.2 l 0.6,-0.35 0.7,-0.35 m -94.3,0.65 h 0.8 0.8 l 0.75,0.7 0.7,0.75 -0.35,1.7 -0.35,1.7 h -1.35 -1.35 l -0.7,-1.55 -0.65,-1.65 v -0.1 -0.15 l 0.8,-0.7 0.9,-0.7 m -22,0.45 1.1,0.8 1.1,0.75 0.65,1.5 0.65,1.5 -0.3,0.25 -0.25,0.25 -2.2,-1.65 -2.2,-1.55 v -0.55 -0.5 l 0.75,-0.45 0.7,-0.35 m 164.75,0.1 h 1.45 1.35 l 0.4,0.65 0.45,0.6 h -1.8 -1.85 v -0.6 -0.65 m -84.05,1.25 h 0.75 0.7 l -0.3,0.7 -0.3,0.8 -2.15,0.35 -2.15,0.4 -0.95,-0.55 -0.95,-0.5 h 2.25 2.25 l 0.45,-0.6 0.4,-0.6 m -89.85,2.4 h 0.35 0.35 v 0.3 0.35 h -0.35 -0.35 v -0.35 -0.3 m 167.4,0.65 3.6,0.15 3.7,0.15 -0.2,0.9 -0.25,0.9 -1.35,-0.05 -1.4,-0.15 -1.25,-0.2 -1.2,-0.3 -0.85,-0.7 -0.8,-0.7 m 18.45,18.25 h 0.3 0.2 l 2.3,1 2.2,1 -0.2,0.95 -0.25,1 -1.25,0.2 -1.3,0.3 -0.95,-1.15 -1,-1.1 -0.05,-1.05 v -1.15 m -150.85,2 0.35,0.35 0.4,0.35 v 0.95 1 l -0.9,1.05 -0.9,1.1 -2.95,-0.35 -2.95,-0.45 v -0.7 -0.8 l 3.45,-1.25 3.5,-1.25 m -85.75,10.15 1.7,0.2 1.65,0.2 0.5,2.15 0.55,2.1 -0.35,0.75 -0.3,0.8 h -2 -2.1 l -0.4,-1 -0.45,-0.9 v -1.35 -1.35 l 0.65,-0.75 0.55,-0.85 m 239.6,1.2 0.9,0.85 1,0.75 -0.6,0.9 -0.65,0.85 -1.15,-0.75 -1.05,-0.8 v -0.45 -0.6 l 0.75,-0.35 0.8,-0.4 m -130,9.85 h 0.65 0.75 l 0.4,0.65 0.45,0.65 h -0.7 -0.75 l -0.4,-0.65 -0.4,-0.65 m 136.85,0 h 1.1 1.05 l -0.4,0.65 -0.45,0.65 h -0.65 -0.65 v -0.65 -0.65 m -158.7,0.5 0.95,0.3 0.95,0.25 0.25,1.05 0.25,1.15 -0.95,-0.3 -0.95,-0.25 -0.2,-1.15 -0.3,-1.05 m 127.05,0 0.75,0.45 0.75,0.4 -0.4,0.55 -0.4,0.6 -1.3,0.6 -1.3,0.6 -0.45,-0.5 -0.35,-0.6 1.35,-1.05 1.35,-1.05 m 26.05,2.9 0.65,0.9 0.75,0.95 v 0.45 0.45 l -1.9,0.65 -1.85,0.6 -0.7,-0.2 -0.65,-0.2 1.8,-1.85 1.9,-1.75 m -186,0.9 0.5,0.65 0.45,0.7 -0.7,0.55 -0.7,0.65 -1.45,-0.2 -1.4,-0.2 1.65,-1.1 1.65,-1.05 m 37.6,5.6 1.05,0.75 1.1,0.85 1.55,0.45 1.6,0.35 v 1.2 1.1 l -0.8,0.45 -0.7,0.35 -1.6,-0.35 -1.7,-0.35 -0.25,-2.4 -0.25,-2.4 m -12.85,1.6 1.05,0.85 1,0.9 0.25,3.45 0.2,3.55 -2.7,1.5 -2.7,1.45 h -0.35 -0.35 l 0.05,-0.4 0.05,-0.5 1.1,-1.5 1.2,-1.45 -0.1,-3.55 -0.1,-3.6 0.75,-0.35 0.65,-0.35 m -104.65,10.5 h 0.4 0.3 v 0.3 0.25 h -0.3 -0.4 v -0.25 -0.3 m -4.75,0.55 0.6,0.4 0.65,0.35 v 0.9 0.85 h -1.05 -1.05 l 0.05,-0.45 0.05,-0.45 0.4,-0.8 0.35,-0.8 m 125.7,0 h 1.15 1.2 l 0.75,0.8 0.7,0.8 0.3,1.75 0.2,1.7 -1.5,0.9 -1.6,0.9 -0.6,-1.1 -0.7,-1.15 -0.4,-1.9 -0.4,-1.9 0.4,-0.35 0.5,-0.45 m -12.65,0.65 h 0.95 0.9 v 1.55 1.65 l -1.25,-0.25 -1.15,-0.2 -0.25,-0.9 -0.2,-1 0.5,-0.4 0.5,-0.45 m -103.35,1.05 0.5,0.45 0.5,0.4 -0.95,1.3 -0.85,1.2 0.35,0.35 0.4,0.35 0.4,-0.95 0.45,-0.95 1.2,0.25 1.15,0.3 1.2,1.85 1.25,1.9 -0.75,0.85 -0.85,0.85 h -2.2 -2.25 l -0.7,-0.6 -0.6,-0.55 -1.75,-0.2 -1.8,-0.25 -0.2,-1.9 -0.2,-1.95 1.6,-0.45 1.6,-0.4 1.25,-0.9 1.25,-0.95 m 89.9,3.25 h 2 2 l 0.45,0.65 0.5,0.65 1.5,0.45 1.5,0.5 1.6,-0.9 1.6,-0.9 0.7,0.55 0.65,0.65 0.35,1.25 0.3,1.35 0.4,0.65 0.4,0.6 h 1.6 l 1.5,0.1 -1.05,0.35 -1.05,0.25 -1.25,1.35 -1.2,1.3 -0.6,-0.85 -0.65,-0.85 -2.5,-0.15 -2.45,-0.2 -0.5,1.75 -0.4,1.75 1.25,1.55 1.3,1.5 1.85,0.7 1.9,0.7 0.4,0.9 0.4,0.95 -0.4,0.55 -0.35,0.55 h -1.35 -1.35 l -0.7,-1.1 -0.65,-1.1 h -2 -1.95 l 0.05,-2.5 0.05,-2.55 -3.5,-0.2 -3.55,-0.25 -0.25,-1.75 -0.25,-1.75 -0.65,-1.05 -0.7,-1.15 v -0.85 -0.85 l 0.45,-0.4 0.5,-0.35 h 1.65 1.65 l 0.45,-0.9 0.35,-0.95 m 15.3,0.55 h 0.35 0.35 v 0.4 0.25 h -0.35 -0.35 V 299.4 299 m 3.3,0.4 0.4,0.9 0.45,0.9 0.2,1.2 0.2,1.2 -1.2,0.2 -1.25,0.25 0.05,-0.85 0.1,-0.8 0.5,-1.55 0.55,-1.45 m -11,3.3 v 0.55 0.55 l 1.1,0.35 1.15,0.45 0.4,-0.3 0.3,-0.25 -0.5,-0.7 -0.45,-0.65 h -1 -1 m -19.85,1.25 h 0.9 0.95 l -0.45,0.35 -0.5,0.45 -0.45,-0.45 -0.45,-0.35 m -39.8,4.9 h 0.95 1 l 0.4,0.95 0.5,0.95 -0.4,0.55 -0.4,0.5 -1.05,-0.35 -1,-0.3 v -1.2 -1.1 m 73.7,0 h 0.7 0.65 v 2.3 2.35 l -2.7,0.7 -2.7,0.7 h -0.45 -0.45 v -0.65 -0.55 l 2.15,-0.45 2.2,-0.35 -0.35,-1.05 -0.3,-1.05 0.65,-1 0.6,-0.95 m 69.65,4.85 h 0.6 0.55 v 0.9 0.95 h -1 -1.1 v -0.5 -0.5 l 0.45,-0.45 0.5,-0.4 m -154.6,1.75 v 0.65 0.55 l -0.65,0.45 -0.75,0.35 v -0.65 -0.55 l 0.75,-0.45 0.65,-0.35"
         fill="#000000"
         fill-rule="evenodd"
         stroke="none"
         id="path290" /></g></g></svg>
