<?xml version="1.0" encoding="UTF-8" standalone="no"?>
<svg
   height="512"
   width="512"
   version="1.1"
   id="svg6"
   sodipodi:docname="handtohand.svg"
   xml:space="preserve"
   inkscape:version="1.2.1 (9c6d41e410, 2022-07-14)"
   inkscape:export-filename="handtohand.png"
   inkscape:export-xdpi="96"
   inkscape:export-ydpi="96"
   xmlns:inkscape="http://www.inkscape.org/namespaces/inkscape"
   xmlns:sodipodi="http://sodipodi.sourceforge.net/DTD/sodipodi-0.dtd"
   xmlns="http://www.w3.org/2000/svg"
   xmlns:svg="http://www.w3.org/2000/svg"><defs
     id="defs10" /><sodipodi:namedview
     id="namedview8"
     pagecolor="#ffffff"
     bordercolor="#000000"
     borderopacity="0.25"
     inkscape:showpageshadow="2"
     inkscape:pageopacity="0.0"
     inkscape:pagecheckerboard="true"
     inkscape:deskcolor="#d1d1d1"
     showgrid="false"
     inkscape:zoom="1.3484769"
     inkscape:cx="-96.405061"
     inkscape:cy="129.40525"
     inkscape:window-width="2560"
     inkscape:window-height="1351"
     inkscape:window-x="2391"
     inkscape:window-y="-9"
     inkscape:window-maximized="1"
     inkscape:current-layer="svg6" /><path
     style="fill:#ffffff;fill-rule:evenodd;stroke-width:1.04126"
     d="m 170.48719,510.86553 c -7.68645,-2.18703 -17.57394,-12.82321 -21.78772,-23.43755 -2.75516,-6.9401 -12.82524,-7.35661 -31.99451,-1.32333 -20.282924,6.38378 -26.562224,6.63476 -34.317854,1.37165 l -3.96762,-2.6925 -8.65768,1.81686 c -14.57102,3.05782 -28.27863,0.67794 -35.67946,-6.19457 -2.17489,-2.01965 -4.39737,-2.58838 -13.50941,-3.45711 l -10.9062803,-1.03977 -3.87905,-4.37115 c -5.92058996,-6.67168 -6.21743996,-11.23589 -1.62323,-24.95819 2.6863,-8.02364 3.82549,-13.47386 4.18761,-20.03472 0.60581,-10.97614 2.9803603,-16.65173 11.9123603,-28.47265 10.45296,-13.83379 30.22259,-31.69054 53.60527,-48.41851 5.17344,-3.70107 8.23281,-6.64776 8.6486,-8.33007 1.95604,-7.91407 8.1132,-17.76415 17.36245,-27.77604 7.071924,-7.65501 12.050294,-14.43917 18.410894,-25.08897 8.62029,-14.4333 15.1604,-23.24655 33.78064,-45.52175 11.63687,-13.92108 32.91837,-37.99935 42.34515,-47.91004 7.89352,-8.29875 11.51257,-15.85309 18.88718,-39.42483 2.35383,-7.52364 5.43148,-16.95931 6.83923,-20.96815 3.98909,-11.35974 6.40514,-22.77154 8.14674,-38.479841 2.08441,-18.80022 4.13554,-28.52817 7.95581,-37.7325 10.23759,-24.66578 43.48054,-49.44005 75.06927,-55.94527 11.9758,-2.46624004 30.93769,-3.20984004 43.03198,-1.68753004 29.58945,3.72444004 62.80171,20.41306004 83.12426,41.76859004 13.52082,14.20807 20.10147,25.17218 22.61234,37.67476 l 1.19378,5.94426 -4.4,5.82776 c -2.42001,3.20528 -7.3241,8.953991 -10.89799,12.774921 -13.53593,14.47162 -17.77177,20.73805 -34.29577,50.73671 -3.80263,6.90349 -6.91385,12.8205 -6.91385,13.14891 0,0.32839 3.05167,-0.0427 6.78148,-0.82443 16.07848,-3.37034 40.98291,-3.52685 52.8472,-0.33216 8.84449,2.38158 19.94014,9.31234 26.5523,16.58556 5.33331,5.86651 12.84548,18.52306 15.99638,26.95078 3.15747,8.44534 3.3806,9.95841 3.7968,25.74698 0.38877,14.74875 0.16473,17.89219 -1.85523,26.03146 -3.49932,14.10003 -7.73064,24.13496 -14.48132,34.34365 -8.86337,13.40359 -10.41028,14.60016 -19.8733,15.37241 -14.93553,1.21883 -33.41756,6.60078 -59.35173,17.28314 -7.15865,2.94866 -20.74707,8.39068 -30.19649,12.09337 -27.3153,10.70331 -30.45148,12.13911 -34.49566,15.79278 -2.8821,2.6038 -7.28617,10.41597 -17.92698,31.79986 -20.1914,40.57684 -31.57759,58.84533 -45.91431,73.66698 -6.35254,6.5674 -10.57665,8.27988 -20.56729,8.33809 -5.26387,0.0303 -5.68311,0.24072 -8.83366,4.42535 -6.05431,8.04155 -14.66807,16.05855 -20.23399,18.83215 -4.87406,2.42885 -6.72811,2.74176 -16.24546,2.74176 h -10.74349 l -5.76245,4.69358 c -9.26993,7.55047 -14.80607,9.89998 -23.06843,9.79013 -3.8847,-0.0517 -8.70309,-0.56052 -10.70751,-1.13085 z m 21.32223,-25.94618 3.91684,-6.34577 -4.71072,-4.84776 c -5.39706,-5.55407 -12.58884,-16.38118 -14.27532,-21.4913 -0.84464,-2.55928 -2.16667,-3.88561 -5.00212,-5.01839 l -3.85405,-1.53973 -0.32244,10.03896 c -0.34789,10.83036 0.77755,18.79026 4.10614,29.0419 l 2.11302,6.50786 h 7.05591 7.05592 z m 41.61696,-13.60554 c 14.33008,-12.61384 20.52735,-28.48776 27.57759,-70.63816 4.3946,-26.27349 6.13519,-33.22987 9.04189,-36.13657 2.24923,-2.24924 3.22218,-2.44967 10.55094,-2.17353 l 8.07321,0.30418 -0.23825,8.8507 c -0.34721,12.89825 -4.37119,35.18361 -10.31018,57.09883 -1.449,5.34686 -2.41682,9.93928 -2.15073,10.20537 0.53906,0.53907 17.72231,-23.44946 24.3431,-33.98393 6.22789,-9.90933 12.82599,-21.12675 12.82317,-21.80068 -10e-4,-0.3225 -1.444,-2.22636 -3.20591,-4.23078 -10.60315,-12.06259 -14.36091,-19.33966 -12.506,-24.21844 0.55457,-1.4586 1.50034,-2.9561 2.10176,-3.32779 1.99038,-1.23012 10.40083,3.39671 16.37012,9.0057 3.23385,3.03864 6.06586,5.05623 6.29338,4.48354 9.60429,-24.17559 13.57426,-34.40581 13.42192,-34.58697 -0.10424,-0.12401 -2.75503,-1.36002 -5.89061,-2.74672 l -5.70103,-2.52127 -6.74217,5.10404 c -7.44328,5.63482 -11.05556,6.95892 -30.17047,11.05926 -12.3296,2.64483 -14.55268,2.79397 -42.17097,2.82925 -26.69786,0.0343 -30.10687,-0.16737 -40.44587,-2.39055 -21.16846,-4.55179 -25.56126,-6.6603 -31.12023,-14.93741 -4.98993,-7.42982 -4.84193,-7.51738 11.45326,-6.77611 7.88542,0.35872 21.12242,1.80219 29.41555,3.20775 20.46689,3.46884 32.20611,4.12997 49.43994,2.78435 13.13692,-1.02573 46.5433,-7.22183 48.27543,-8.95395 0.35546,-0.35546 -1.69263,-2.79775 -4.55129,-5.42731 -17.48387,-16.08264 -23.50268,-22.1835 -26.40483,-26.7648 -1.79428,-2.83241 -3.26232,-5.57986 -3.26232,-6.10546 0,-1.6863 9.655,0.3462 16.37853,3.44791 9.63731,4.44588 14.62608,8.22693 29.6608,22.4803 7.4958,7.10623 13.96242,12.92044 14.37029,12.92044 1.08119,0 2.06589,-8.4549 2.06589,-17.73835 v -8.07637 l -10.15227,-7.12703 c -5.58375,-3.91985 -14.19911,-11.17447 -19.14524,-16.12135 -8.68235,-8.68365 -15.40938,-17.99175 -14.01239,-19.38874 1.25781,-1.25782 13.59802,1.96619 19.47075,5.08693 3.21019,1.70588 9.69593,6.15325 14.41276,9.88302 4.71683,3.72978 8.69219,6.62914 8.83415,6.44302 0.14198,-0.18613 0.7774,-5.25834 1.41211,-11.27161 l 1.15401,-10.93321 -13.40594,-13.13132 c -11.30074,-11.06924 -14.85872,-13.88165 -22.65723,-17.90943 -19.02422,-9.82563 -40.10731,-13.8099 -67.95403,-12.84192 -24.82631,0.86297 -23.91751,0.5944 -29.95193,8.85154 -8.85818,12.121 -20.25799,25.08563 -41.33207,47.00561 -11.28714,11.74018 -22.44787,24.14829 -24.8016,27.57359 -5.70461,8.30164 -9.59705,17.85146 -12.5945,30.89966 -2.44842,10.65824 -5.54035,34.86381 -4.57647,35.82767 0.27464,0.27465 2.03519,-3.8452 3.91236,-9.15519 10.27866,-29.0754 13.28096,-32.30348 26.47636,-28.46748 3.19809,0.92972 5.81473,1.87388 5.81473,2.09815 0,0.22426 -2.77805,7.82538 -6.17343,16.89136 -11.76824,31.42225 -17.81873,54.89518 -19.92991,77.31827 -1.59966,16.99023 -0.0292,24.68212 7.9561,38.96952 1.52186,2.72289 2.97315,4.74457 3.2251,4.49262 0.25195,-0.25196 1.11272,-6.36537 1.91283,-13.58538 2.24185,-20.22982 3.525,-29.36798 5.79241,-41.25166 3.88814,-20.37798 10.86439,-41.9994 14.65946,-45.43389 3.12279,-2.82608 8.24707,-2.0519 11.65548,1.76092 3.68725,4.12474 3.64553,4.63884 -2.74148,33.78102 -2.63582,12.02653 -5.83334,27.42762 -7.10559,34.22465 l -2.3132,12.35824 2.51835,2.00611 c 4.28187,3.41093 7.2686,4.22045 10.55264,2.86015 1.63113,-0.67564 3.1038,-1.04822 3.2726,-0.82796 2.84842,3.71681 17.6618,20.70964 17.86067,20.48845 0.71655,-0.79698 6.85897,-23.93402 6.568,-24.74003 -0.18304,-0.507 -2.45381,-3.18191 -5.04619,-5.9443 -7.98332,-8.50688 -12.2497,-14.23904 -15.00736,-20.16338 -2.59179,-5.568 -3.43739,-10.83627 -1.88534,-11.74616 1.97934,-1.16038 12.07808,4.21807 19.32752,10.29355 4.39804,3.68582 8.15944,6.7015 8.35867,6.7015 0.19921,0 0.67035,-7.6142 1.04695,-16.92044 0.66816,-16.51104 1.58531,-23.21567 4.00346,-29.26652 1.14551,-2.86636 1.37811,-2.94961 6.38553,-2.28536 5.83875,0.77454 10.58546,2.88955 11.43116,5.09341 1.17863,3.07145 -2.05809,32.07491 -6.1773,55.35339 -3.20109,18.08998 -6.38402,31.05703 -12.47023,50.80303 -0.46476,1.50787 0.40725,1.25983 4.56524,-1.29861 2.82685,-1.73938 7.35761,-5.11477 10.06837,-7.50086 z m -112.76254,-2.95323 c 3.6923,-3.69229 3.52744,-6.34089 -0.48245,-7.75107 -3.34949,-1.17796 -5.27424,-0.28442 -8.3971,3.89834 -1.99826,2.67646 -2.0027,2.81956 -0.1512,4.86546 2.65896,2.93812 5.38565,2.63234 9.03072,-1.01273 z m -47.440554,0.018 c 9.16611,-2.29382 23.21438,-9.05511 34.238544,-16.47866 l 7.25955,-4.88851 0.0832,-24.46957 c 0.0708,-20.83226 0.41708,-26.06712 2.32962,-35.21688 l 2.24646,-10.74731 -3.30697,-3.6341 c -5.19543,-5.7094 -8.791,-11.67064 -10.19774,-16.90726 -0.71225,-2.65135 -1.60676,-5.17807 -1.98782,-5.61491 -0.81208,-0.93099 -27.097374,15.49455 -38.359264,23.97048 -8.06191,6.06757 -19.07607,16.55864 -23.51617,22.39931 -3.67378,4.83262 -10.1641,16.57515 -9.51833,17.22092 0.30117,0.30115 2.30452,-0.85356 4.45189,-2.56607 18.32972,-14.61775 51.57081,-38.88457 53.26471,-38.88457 0.98447,0 -21.28008,28.71711 -27.65607,35.67116 -1.44806,1.57933 -8.18076,7.32481 -14.96156,12.76772 -13.79249,11.07115 -19.63361,17.30306 -23.40404,24.96983 -4.18048,8.50055 -3.96602,9.74436 2.08362,12.08424 2.86346,1.10754 9.42339,4.3109 14.57762,7.11858 8.63021,4.70117 9.95515,5.11127 16.75388,5.18581 4.16499,0.0455 10.97223,-0.81737 15.61888,-1.9802 z m 296.200904,-137.65314 6.82482,-3.03478 3.75215,-9.58331 c 7.90494,-20.18985 9.2234,-27.67026 5.99487,-34.01282 -2.37114,-4.6582 -7.25716,-17.97289 -7.25716,-19.77619 0,-4.12804 9.85332,-8.21732 14.46925,-6.00496 3.62567,1.73774 7.39314,8.91065 9.66432,18.39997 2.10755,8.80568 2.53467,27.78657 0.79505,35.33222 -0.57856,2.50952 -0.78462,4.83007 -0.45791,5.15677 0.32671,0.32671 2.56865,-0.18135 4.9821,-1.12907 2.41346,-0.9477 9.6285,-3.73681 16.03345,-6.19803 13.32064,-5.11873 12.46501,-3.8804 15.03313,-21.75678 1.21667,-8.46912 1.16067,-9.26058 -1.03867,-14.67939 -1.27856,-3.15018 -4.87632,-10.00469 -7.995,-15.23223 -3.11868,-5.22753 -5.67034,-9.74237 -5.67034,-10.03296 0,-1.27119 10.65275,-5.76973 13.66296,-5.76973 9.03436,0 19.62296,20.77937 21.24682,41.69536 1.16688,15.02994 0.57073,14.01196 8.20583,14.01196 5.99787,0 6.88595,-0.28105 8.88078,-2.81023 3.60075,-4.56535 10.192,-18.57291 11.90665,-25.30374 3.33187,-13.07912 3.79999,-22.03957 1.76799,-33.8409 -3.04708,-17.69665 -8.11435,-28.00115 -19.24656,-39.1387 -7.0818,-7.0852 -13.64601,-9.93507 -27.27087,-11.83973 -4.06917,-0.56882 -8.16913,-1.32996 -9.11102,-1.6914 -3.00975,-1.15495 -1.86272,1.42233 4.02381,9.04104 6.04235,7.82038 13.34405,21.86011 12.80438,24.62031 -0.17529,0.89646 -2.2645,2.45585 -4.64273,3.46531 l -4.32405,1.83538 -5.56791,-7.86602 c -6.16349,-8.70743 -24.0988,-26.33285 -26.77117,-26.30861 -5.173,0.0472 -27.21524,13.78926 -27.21524,16.96745 0,0.69322 1.09805,2.4446 2.44012,3.89195 4.20267,4.53238 10.25169,13.6647 12.93849,19.53343 2.71062,5.92077 4.50195,18.94344 2.60576,18.94344 -3.12869,0 -12.23311,-10.55315 -19.08918,-22.12674 -1.95072,-3.29299 -3.84713,-5.98724 -4.21422,-5.98724 -0.36709,0 -2.15318,4.25466 -3.96906,9.45481 -1.81588,5.20014 -5.16688,13.49219 -7.44665,18.42676 l -4.14507,8.97196 -0.41179,22.96325 c -0.22652,12.62979 -0.91843,28.11749 -1.53761,34.4171 -2.34083,23.81578 -2.36532,21.54905 0.22421,20.74456 1.26527,-0.39309 5.37166,-2.08035 9.12532,-3.74947 z M 353.51941,216.2734 c -0.65359,-9.49672 -9.02739,-23.51487 -17.31796,-28.99111 -1.91964,-1.26799 -8.71385,-3.94101 -15.09825,-5.94003 -23.5677,-7.37932 -25.665,-8.68059 -25.665,-15.92383 0,-3.6856 0.34625,-4.28923 2.86345,-4.99235 5.77445,-1.6129 20.28982,-0.80946 27.85367,1.54173 8.42617,2.61923 21.50838,9.89025 33.97628,18.88382 7.97626,5.75358 8.83283,6.13553 10.10109,4.50417 1.90323,-2.4481 7.46492,-13.45168 7.46492,-14.76906 0,-2.02387 -13.96031,-21.23303 -19.34317,-26.61589 -5.89919,-5.8992 -14.85279,-9.83545 -27.16403,-11.9421 -10.12023,-1.73172 -16.88176,-4.06089 -18.03293,-6.21189 -1.2613,-2.35676 -1.3701,-8.34391 -0.18551,-10.2104 1.42619,-2.24723 12.39036,-3.46134 19.94374,-2.20846 18.50967,3.0702 33.17911,10.39728 51.11825,25.53254 5.16312,4.35612 9.53882,7.74859 9.72378,7.53883 0.18495,-0.20977 1.98062,-3.42707 3.99035,-7.14957 7.83454,-14.51144 12.22855,-23.12217 12.22855,-23.96374 0,-1.37499 -11.54461,-12.04243 -18.15721,-16.777611 -6.58409,-4.71476 -12.73929,-6.62405 -24.53438,-7.61033 -4.29519,-0.35918 -11.26168,-1.20747 -15.48109,-1.88513 -8.89335,-1.42833 -10.18671,-2.7135 -10.72174,-10.65375 l -0.34923,-5.18325 4.16503,-0.74398 c 11.12143,-1.98658 34.04601,0.78946 47.94702,5.80614 8.86825,3.20042 21.42805,9.24481 27.02358,13.00506 2.29077,1.53942 4.70702,3.1314 5.36944,3.53774 1.45193,0.89063 12.85258,-8.13004 12.85258,-10.16949 0,-0.78087 -2.61845,-6.65037 -5.81878,-13.04336 -4.46607,-8.92131 -7.31044,-13.11855 -12.23483,-18.054 -12.9499,-12.97898 -41.94738,-26.20627 -66.7003,-30.42556 -29.12622,-4.96475 -59.91428,2.55875 -75.90367,18.54816 -17.93982,17.93981 -25.48732,36.04223 -30.49598,73.143531 -2.9596,21.92296 -7.10956,38.39887 -14.66589,58.22555 -1.94658,5.10753 -3.17302,9.63142 -2.72544,10.05311 0.44758,0.42169 10.65369,0.98614 22.68022,1.25438 28.34273,0.63214 41.59305,3.49401 60.60002,13.08869 6.44384,3.25284 20.72652,13.47332 29.3235,20.98347 0.98335,0.85904 3.6115,3.14471 5.84031,5.07926 l 4.05241,3.51737 0.9391,-2.47611 c 0.51649,-1.36186 0.75865,-5.09801 0.53812,-8.30255 z"
     id="path248" /></svg>
