<?xml version="1.0" encoding="UTF-8" standalone="no"?>
<!-- Created with Inkscape (http://www.inkscape.org/) -->

<svg
   width="75"
   height="100"
   viewBox="0 0 75 100"
   version="1.1"
   id="svg5"
   inkscape:version="1.2.1 (9c6d41e410, 2022-07-14)"
   sodipodi:docname="item_torch.svg"
   xml:space="preserve"
   xmlns:inkscape="http://www.inkscape.org/namespaces/inkscape"
   xmlns:sodipodi="http://sodipodi.sourceforge.net/DTD/sodipodi-0.dtd"
   xmlns="http://www.w3.org/2000/svg"
   xmlns:svg="http://www.w3.org/2000/svg"><sodipodi:namedview
     id="namedview7"
     pagecolor="#ffffff"
     bordercolor="#999999"
     borderopacity="1"
     inkscape:pageshadow="0"
     inkscape:pageopacity="0"
     inkscape:pagecheckerboard="0"
     inkscape:document-units="px"
     showgrid="false"
     height="70mm"
     units="px"
     inkscape:zoom="16.75105"
     inkscape:cx="36.564872"
     inkscape:cy="51.340065"
     inkscape:window-width="3840"
     inkscape:window-height="2066"
     inkscape:window-x="-11"
     inkscape:window-y="-11"
     inkscape:window-maximized="1"
     inkscape:current-layer="layer1"
     inkscape:showpageshadow="2"
     inkscape:deskcolor="#d1d1d1" /><defs
     id="defs2" /><g
     inkscape:label="Layer 1"
     inkscape:groupmode="layer"
     id="layer1"><path
       style="fill:#ffffff;fill-rule:evenodd;stroke-width:0.0596978"
       d="m 38.624444,99.101266 c -0.131335,-0.0391 -0.279086,-0.0886 -0.328337,-0.10991 -0.04925,-0.0214 -0.331323,-0.1162 -0.626827,-0.21075 -0.855421,-0.27372 -1.378963,-0.58979 -1.691448,-1.021171 -0.394427,-0.544491 -0.634787,-1.929335 -0.580974,-3.347318 0.01931,-0.508924 0.05827,-4.59225 0.08656,-9.074058 0.03234,-5.122425 0.07417,-8.259596 0.11265,-8.447232 0.09229,-0.450055 0.114035,-5.795284 0.02465,-6.058927 -0.04802,-0.141651 -0.07116,-0.773605 -0.07213,-1.970026 -7.82e-4,-0.968811 -0.02817,-1.868934 -0.06087,-2.000269 -0.05972,-0.239901 -0.128202,-0.845266 -0.239741,-2.11927 -0.03521,-0.402177 -0.05311,-2.330773 -0.04321,-4.656424 0.01551,-3.642953 0.0083,-3.997724 -0.08766,-4.307747 -0.05751,-0.185816 -0.13242,-0.61564 -0.166463,-0.955164 -0.03404,-0.339525 -0.07446,-0.659144 -0.08982,-0.710265 -0.05104,-0.169926 -0.215916,-1.450556 -0.264718,-2.056172 -0.02646,-0.328337 -0.07684,-0.758161 -0.111962,-0.955163 -0.03512,-0.197003 -0.09397,-0.532803 -0.130775,-0.746222 -0.141682,-0.821567 -0.144794,-0.828833 -0.484696,-1.131783 -0.564184,-0.502849 -0.659907,-0.777738 -0.881797,-2.532261 -0.03271,-0.258618 -0.09803,-0.580986 -0.145175,-0.716373 -0.301096,-0.864758 -0.29399,-0.798404 -0.340599,-3.180122 -0.05069,-2.590442 0.009,-2.309994 -0.652899,-3.065661 -0.572103,-0.653116 -0.929133,-1.106736 -1.196635,-1.520368 -0.188842,-0.292002 -0.317615,-0.412648 -0.638995,-0.598666 -1.031357,-0.59696 -1.445953,-0.911195 -2.39178,-1.812802 -1.05088,-1.001749 -1.589936,-1.674107 -1.963196,-2.448667 -0.116772,-0.242318 -0.334171,-0.618414 -0.483109,-0.835769 -0.472157,-0.68905 -0.549169,-0.954144 -0.549169,-1.890373 0,-0.460636 0.02753,-0.862468 0.06372,-0.930088 0.06467,-0.120838 0.143098,-0.614463 0.226443,-1.425235 0.02531,-0.246253 0.07784,-0.506411 0.116724,-0.578128 0.03888,-0.07172 0.0707,-0.343792 0.0707,-0.604611 0,-0.286476 0.03545,-0.559063 0.08955,-0.688532 0.04925,-0.117873 0.08955,-0.361666 0.08955,-0.541761 0,-0.180095 0.0266,-0.389154 0.05912,-0.464575 0.03252,-0.07542 0.0873,-0.405769 0.121735,-0.734107 0.03444,-0.328337 0.08239,-0.785025 0.106567,-1.014861 0.02417,-0.229837 0.07685,-0.476563 0.117057,-0.54828 0.04021,-0.07172 0.0731,-0.261798 0.0731,-0.422402 0,-0.228045 0.03026,-0.32044 0.138168,-0.421809 0.187203,-0.175869 0.524177,-0.173743 0.716351,0.0045 0.244861,0.227133 0.296382,0.669553 0.345864,2.969963 0.05206,2.420438 0.149917,3.396378 0.463888,4.626575 0.03352,0.131335 0.09087,0.373111 0.127451,0.53728 0.176704,0.793068 0.441055,1.250529 1.348394,2.333401 0.329227,0.392919 0.585234,0.877328 0.651919,1.23354 0.04771,0.254844 0.183177,0.296498 0.353217,0.108605 0.227052,-0.25089 -0.02479,-1.483137 -0.427874,-2.093556 -0.07588,-0.114918 -0.218011,-0.328512 -0.315836,-0.474653 -0.153634,-0.229514 -0.177863,-0.320717 -0.177863,-0.669513 0,-0.222092 0.03732,-0.518914 0.08292,-0.659605 0.04561,-0.140691 0.09769,-0.356797 0.115734,-0.480235 0.07663,-0.524176 0.502203,-0.814679 1.204239,-0.822032 0.495621,-0.0052 1.204627,-0.07856 1.256048,-0.129986 0.02004,-0.02004 0.0055,-0.300812 -0.03223,-0.623944 -0.03776,-0.323133 -0.08959,-0.82929 -0.115183,-1.124794 -0.03947,-0.455832 -0.08166,-0.605153 -0.278268,-0.985013 -0.216882,-0.419023 -0.234353,-0.491755 -0.272472,-1.134257 -0.0224,-0.377589 -0.06782,-0.834276 -0.100939,-1.014862 -0.03312,-0.180586 -0.06217,-0.72862 -0.06457,-1.217854 -0.0042,-0.852776 0.0024,-0.903323 0.159169,-1.223804 0.218224,-0.446103 1.20753,-1.444647 2.134837,-2.154773 0.367532,-0.281453 1.020617,-0.811357 1.104408,-0.896101 0.01642,-0.0166 0.191033,-0.149838 0.388036,-0.296077 0.668494,-0.496234 1.321107,-1.275544 1.42667,-1.703641 0.02426,-0.0984 0.14973,-0.4 0.278812,-0.670221 0.129082,-0.270221 0.234694,-0.540204 0.234694,-0.599962 0,-0.05976 0.02818,-0.136832 0.06262,-0.171275 0.101841,-0.10184 0.14434,-2.087085 0.05157,-2.408865 -0.0892,-0.3094 -0.09357,-1.311424 -0.0094,-2.14912 0.0859,-0.8545402 0.280408,-1.1454462 1.148833,-1.7181527 0.909714,-0.599936 1.157291,-0.8194598 1.799472,-1.5955688 0.21757,-0.2629441 0.71433,-0.7878123 1.103911,-1.1663746 0.709246,-0.6891842 1.007908,-1.0053019 1.266417,-1.3404336 0.076,-0.098501 0.22337,-0.2731172 0.32753,-0.3880353 0.19949,-0.2201014 0.79451,-1.0986981 0.95009,-1.4028971 0.0504,-0.098501 0.138,-0.2999812 0.19473,-0.4477332 0.0567,-0.1477519 0.12415,-0.3223678 0.14985,-0.3880353 0.0257,-0.065668 0.10797,-0.2940115 0.18283,-0.5074309 0.17583,-0.50129344 0.26019,-0.62841934 0.47642,-0.71798684 0.35227,-0.1459125 0.58226,-0.04566 1.06044,0.46223384 0.64622,0.6863826 0.78379,0.9027702 1.07346,1.688499 0.0676,0.183377 0.0993,0.459611 0.1,0.8703379 8.1e-4,0.5326344 -0.0174,0.6388432 -0.15858,0.9253151 -0.20954,0.4251648 -0.40287,0.8697385 -0.63916,1.4697989 -0.24781,0.6292884 -0.70094,1.418464 -1.14721,1.9979519 -0.19387,0.251754 -0.3525,0.494871 -0.3525,0.54026 0,0.05327 0.13228,0.10966 0.37311,0.159065 0.55376,0.113598 0.73744,0.21897 0.84343,0.4838645 0.106,0.264919 0.0801,0.389537 -0.19512,0.9376542 -0.10211,0.203369 -0.18565,0.450639 -0.18565,0.549489 0,0.292431 -0.26872,0.946325 -0.56623,1.377814 l -0.27738,0.402293 0.0424,0.374687 c 0.0514,0.454624 0.31055,0.979143 0.79643,1.612229 0.189,0.246253 0.43767,0.595949 0.55262,0.777102 0.11494,0.181154 0.24774,0.369202 0.2951,0.417884 0.0474,0.04868 0.20971,0.249699 0.36078,0.446702 0.27573,0.359583 1.10571,1.31905 1.79811,2.078656 0.31841,0.349309 0.37761,0.450428 0.41692,0.712115 0.0252,0.167748 0.17295,0.56212 0.32834,0.876383 l 0.28252,0.571386 v 1.07456 c 0,0.875022 -0.0204,1.141071 -0.1101,1.432746 -0.0606,0.197002 -0.14614,0.505938 -0.19019,0.686524 -0.12578,0.515569 -0.42402,1.473899 -0.56665,1.820781 -0.027,0.06567 -0.0659,0.196236 -0.0864,0.290152 -0.0205,0.09392 -0.0907,0.284386 -0.15597,0.423267 -0.25328,0.538829 -0.3658,1.632768 -0.20489,1.991998 0.0541,0.120875 0.12029,0.273501 0.14698,0.339168 0.0662,0.16286 0.29566,0.621315 0.59756,1.193955 0.24448,0.46375 0.25117,0.491415 0.23077,0.955164 -0.0348,0.790905 -0.28092,1.116098 -1.00059,1.32196 -0.70234,0.200907 -1.07831,0.462131 -1.07831,0.749221 0,0.0632 -0.10745,0.340044 -0.23879,0.615218 -0.17988,0.376902 -0.23879,0.57383 -0.23879,0.798339 0,0.233562 0.0226,0.303969 0.10447,0.325512 0.0575,0.01512 0.23879,0.06237 0.40296,0.10501 0.42219,0.109647 0.65359,0.261801 0.88527,0.582106 0.31486,0.435292 0.51763,1.157409 0.51763,1.843412 0,0.385463 0.0878,0.713287 0.33972,1.268632 0.17468,0.385043 0.27191,0.668153 0.41077,1.196008 0.12924,0.491251 0.15983,2.768137 0.0417,3.104283 -0.0404,0.114919 -0.10184,0.437286 -0.13659,0.716373 -0.0348,0.279087 -0.10428,0.829799 -0.15452,1.223804 -0.13729,1.076653 -0.19628,1.742986 -0.25632,2.895341 -0.0932,1.787699 -0.26625,2.129382 -1.20792,2.384344 -0.35701,0.09666 -0.39872,0.193767 -0.44404,1.03391 -0.0199,0.369073 -0.0624,0.757206 -0.0944,0.862517 -0.032,0.105311 -0.0814,0.400815 -0.10989,0.656675 -0.0285,0.25586 -0.0966,0.73384 -0.15136,1.062178 -0.11168,0.669161 -0.17289,1.352088 -0.26219,2.92519 -0.0735,1.294814 -0.11518,1.642123 -0.36177,3.014736 -0.0265,0.147752 -0.0792,0.496984 -0.1171,0.776071 -0.0379,0.279087 -0.097,0.668615 -0.13134,0.865617 -0.0344,0.197003 -0.088,0.734283 -0.11926,1.193955 -0.0615,0.906027 -0.0608,0.89823 -0.24446,2.567003 -0.12249,1.112952 -0.16751,2.263076 -0.25354,6.477206 -0.0385,1.883882 -0.002,3.046567 0.15491,4.925065 0.13641,1.634237 0.0672,5.398049 -0.12729,6.924939 -0.0335,0.26267 -0.10032,0.867109 -0.14858,1.343199 -0.0913,0.900296 -0.16361,1.544763 -0.28153,2.507305 -0.0458,0.374031 -0.0722,1.95946 -0.0774,4.656425 -0.008,4.157745 -0.0273,4.571194 -0.24419,5.253402 -0.26266,0.826181 -0.71402,1.390468 -1.35764,1.697288 -0.61655,0.29391 -1.303959,0.51086 -1.919056,0.60567 -0.640514,0.0987 -1.814828,0.0978 -2.149119,-0.002 z m 2.089422,-1.428834 c 0.528988,-0.122422 1.060037,-0.342689 1.282146,-0.531806 0.2087,-0.177702 0.47515,-0.740311 0.47752,-1.008295 7.8e-4,-0.08815 0.0436,-0.356789 0.0951,-0.596977 0.0803,-0.374156 0.0836,-0.543608 0.0232,-1.182935 -0.0489,-0.517639 -0.0603,-1.633115 -0.0373,-3.641563 0.0343,-2.988009 0.0784,-3.896669 0.24618,-5.074308 0.0538,-0.377589 0.12151,-1.028557 0.15045,-1.446602 0.0289,-0.41804 0.0706,-0.789151 0.0925,-0.824683 0.0548,-0.08861 0.12831,-1.020515 0.20945,-2.65378 0.0772,-1.554386 0.0452,-3.74241 -0.0716,-4.895215 -0.0583,-0.575761 -0.0758,-1.873841 -0.0677,-5.029237 l 0.011,-4.253172 -0.16082,-0.04507 c -0.2807,-0.07867 -3.459412,-0.05275 -3.951625,0.03222 -0.799576,0.138027 -1.639718,0.330731 -1.724928,0.395647 -0.06953,0.05298 -0.07661,0.358377 -0.04298,1.854815 0.02214,0.985263 0.06799,1.925712 0.101887,2.089881 0.04276,0.207091 0.04008,1.258166 -0.0087,3.43262 -0.0387,1.723773 -0.08854,6.774202 -0.110752,11.223177 -0.0297,5.949167 -0.05907,8.152217 -0.111027,8.327836 -0.107068,0.361948 -0.08692,1.227529 0.04795,2.059573 0.140166,0.864739 0.18708,1.004635 0.40783,1.216126 0.139286,0.133443 0.93145,0.463709 1.530305,0.638002 0.234437,0.06823 1.157811,0.01882 1.61184,-0.08626 z m -1.731235,-33.88215 c 0.101006,-0.04174 0.673645,-0.09699 1.31335,-0.126721 0.623842,-0.029 1.308874,-0.09269 1.522293,-0.141549 0.213418,-0.04886 0.633238,-0.08977 0.932928,-0.09093 0.42207,-0.0016 0.56255,-0.02337 0.62323,-0.09648 0.1077,-0.129777 0.17043,-0.559267 0.23034,-1.577155 0.028,-0.47609 0.0796,-1.013369 0.11454,-1.193955 0.035,-0.180586 0.0923,-0.54325 0.12737,-0.80592 0.0351,-0.26267 0.0859,-0.606143 0.11295,-0.763273 0.027,-0.157129 0.0331,-0.295143 0.0135,-0.306696 -0.12365,-0.07289 -3.057801,-0.159912 -4.838621,-0.143496 l -2.116594,0.01951 -0.0415,0.149245 c -0.05656,0.203402 -0.06475,5.102444 -0.0086,5.160136 0.07029,0.07226 1.812871,7.16e-4 2.014799,-0.08272 z m 5.207681,-8.136929 c 0.0869,-0.110914 0.19211,-0.725426 0.24949,-1.456788 0.0279,-0.356157 0.1083,-0.99679 0.17858,-1.423629 0.24676,-1.498639 0.30174,-1.915256 0.32709,-2.478598 0.0168,-0.372685 0.0617,-0.643939 0.13041,-0.788127 0.14014,-0.293875 0.0785,-0.359346 -0.52126,-0.553493 -0.26262,-0.08501 -0.75715,-0.299269 -1.09895,-0.476121 -0.77702,-0.402038 -1.10949,-0.47416 -1.99904,-0.433659 -0.668569,0.03044 -0.708173,0.04003 -1.276342,0.309094 -0.3225,0.152724 -0.670177,0.338189 -0.772616,0.412144 -0.321749,0.232285 -0.714458,0.385997 -1.5593,0.610329 -0.391097,0.103849 -0.699706,0.143219 -1.134258,0.144699 -0.756179,0.0026 -0.786235,0.01992 -0.688075,0.39709 0.08403,0.322852 0.156372,0.875388 0.237245,1.811932 0.02977,0.344754 0.08104,0.78801 0.113925,0.985013 0.126032,0.754928 0.244312,1.626944 0.269997,1.990541 0.03536,0.500556 0.178151,0.666009 0.574789,0.666009 0.152969,0 0.423643,0.02551 0.601496,0.05669 0.541285,0.09489 2.134721,0.186185 4.114179,0.235709 1.03426,0.02588 1.95106,0.05126 2.03734,0.05642 0.0863,0.0052 0.18316,-0.02421 0.2153,-0.06525 z M 32.74055,38.819919 c 0.03217,-0.14262 0.02001,-0.273923 -0.03808,-0.41136 -0.12073,-0.285651 -0.275809,-2.123486 -0.231058,-2.738262 0.0462,-0.634633 0.197071,-0.900961 0.583075,-1.029262 l 0.256853,-0.08537 0.03012,-0.535587 c 0.0311,-0.553078 0.109792,-0.756762 0.383248,-0.992018 0.405526,-0.348878 1.096312,-0.391087 2.362579,-0.144363 0.728817,0.142006 1.040083,0.164262 3.253527,0.232637 1.346185,0.04158 3.078908,0.07564 3.850508,0.07568 0.77159,3.7e-5 1.56787,0.02374 1.7695,0.05267 0.35066,0.05031 0.37079,0.04622 0.46264,-0.09397 0.0528,-0.08061 0.16055,-0.336227 0.23939,-0.568034 0.0788,-0.231808 0.18883,-0.490885 0.24442,-0.575727 0.14745,-0.225034 0.58168,-0.492159 1.03588,-0.637245 0.71572,-0.228621 0.71917,-0.23079 0.79095,-0.497372 0.093,-0.345512 0.0248,-0.726457 -0.19011,-1.061373 -0.10113,-0.157602 -0.30015,-0.54472 -0.44226,-0.860263 -0.14211,-0.315543 -0.27417,-0.589502 -0.29346,-0.608798 -0.0193,-0.01929 -0.0351,-0.36153 -0.0351,-0.760521 0,-0.676718 0.0687,-1.109994 0.23684,-1.493329 0.0288,-0.06567 0.13525,-0.388035 0.23657,-0.716373 0.28361,-0.919146 0.31092,-1.002078 0.39315,-1.193955 0.0422,-0.0985 0.10881,-0.353709 0.14798,-0.567128 0.0392,-0.21342 0.12915,-0.549219 0.19994,-0.746222 0.11153,-0.310373 0.12872,-0.485689 0.12872,-1.313351 v -0.955164 l -0.24764,-0.50743 c -0.13619,-0.279087 -0.26411,-0.641051 -0.28425,-0.804364 -0.0289,-0.234343 -0.0844,-0.347594 -0.26353,-0.537279 -0.1248,-0.132192 -0.31595,-0.347804 -0.42478,-0.479139 -0.10882,-0.131335 -0.36235,-0.414388 -0.56339,-0.629007 -0.39775,-0.424607 -0.79093,-0.896629 -0.94299,-1.132076 -0.053,-0.08208 -0.17521,-0.229837 -0.27154,-0.328338 -0.0963,-0.0985 -0.2914,-0.353709 -0.43348,-0.567129 -0.14209,-0.213419 -0.39744,-0.576083 -0.56744,-0.805919 -0.40204,-0.54354 -0.74694,-1.229348 -0.74694,-1.485225 0,-0.110869 -0.0411,-0.299867 -0.0913,-0.419995 -0.10741,-0.257068 -0.051,-0.552246 0.16776,-0.877461 0.39821,-0.592079 0.54428,-0.890565 0.62379,-1.274715 0.0742,-0.358438 0.165,-0.639809 0.3399,-1.0531552 0.0455,-0.107606 -0.0929,-0.175586 -0.59245,-0.291013 -0.64411,-0.148818 -0.801,-0.5857865 -0.43035,-1.1985595 0.10806,-0.178654 0.34471,-0.5263059 0.52588,-0.7725591 0.43743,-0.5945675 0.74099,-1.1615625 0.99081,-1.8506302 0.11309,-0.3119208 0.3008,-0.7598338 0.41715,-0.9953623 0.24971,-0.5055397 0.29955,-0.8403433 0.20023,-1.3451816 -0.11745,-0.5969621 -0.6342,-1.4204144 -0.89138,-1.4204144 -0.10653,0 -0.21735,0.2071224 -0.39731,0.7425756 -0.0545,0.1621632 -0.20376,0.4671287 -0.33168,0.677701 -0.12793,0.2105722 -0.23307,0.400261 -0.23364,0.4215306 -6e-4,0.02127 -0.1484,0.2267199 -0.3285,0.4565562 -0.18011,0.2298363 -0.43941,0.5656362 -0.57623,0.7462219 -0.13683,0.1805857 -0.70761,0.7850814 -1.268415,1.3433238 -0.560803,0.5582423 -1.173597,1.2079156 -1.361764,1.4437187 -0.390518,0.4893798 -1.161336,1.1606238 -1.687602,1.4695973 -0.587864,0.345139 -0.793365,0.562059 -0.887731,0.9370642 -0.139619,0.554832 -0.177004,1.696134 -0.07138,2.178969 0.167342,0.764938 0.09548,2.556963 -0.12245,3.053607 -0.0454,0.103463 -0.08255,0.216682 -0.08255,0.251597 0,0.03491 -0.06716,0.183777 -0.149244,0.330804 -0.08208,0.147027 -0.149245,0.309529 -0.149245,0.361115 0,0.05159 -0.02556,0.14044 -0.05681,0.197454 -0.03124,0.05701 -0.103326,0.211116 -0.160184,0.342452 -0.131511,0.303771 -0.405037,0.711249 -0.67592,1.00693 -0.20387,0.222534 -0.415012,0.400439 -2.241221,1.888425 -1.403287,1.143389 -1.875711,1.608156 -2.093492,2.059558 -0.12275,0.254428 -0.143989,0.38661 -0.143882,0.895466 5.9e-5,0.355681 0.03733,0.729691 0.09217,0.925315 0.05062,0.180586 0.114231,0.680702 0.141353,1.11137 0.04346,0.690165 0.06819,0.815241 0.208464,1.054605 0.217975,0.371946 0.281756,0.59026 0.335176,1.14725 0.02519,0.26267 0.09258,0.79995 0.149738,1.193955 0.05716,0.394005 0.103834,0.79166 0.103712,0.883678 -2.39e-4,0.202207 -0.118069,0.437114 -0.249299,0.497125 -0.05284,0.02416 -0.545307,0.05917 -1.094365,0.07779 -1.286078,0.04361 -1.252569,0.01527 -1.397196,1.181622 -0.03779,0.304766 -0.03099,0.32346 0.293376,0.805946 0.335935,0.499701 0.508559,0.94436 0.633468,1.631743 0.171387,0.943148 0.01144,1.339262 -0.720788,1.785035 -0.517183,0.314856 -0.77144,0.319208 -1.032105,0.01766 -0.104938,-0.121394 -0.225504,-0.335696 -0.267926,-0.476225 -0.137677,-0.456078 -0.365699,-0.967001 -0.529364,-1.186129 -0.08801,-0.117838 -0.389651,-0.520798 -0.67031,-0.895467 -0.543176,-0.725117 -0.766616,-1.131094 -0.834914,-1.516985 -0.02324,-0.131335 -0.09746,-0.453702 -0.164911,-0.716373 -0.223338,-0.869668 -0.310981,-1.310438 -0.310823,-1.563179 8.4e-5,-0.137407 -0.03069,-0.325454 -0.06838,-0.417884 -0.0377,-0.09243 -0.08471,-0.369535 -0.104471,-0.615789 -0.02009,-0.250253 -0.06227,-0.44169 -0.09563,-0.434033 -0.03283,0.0075 -0.07621,0.182151 -0.0964,0.388035 -0.02019,0.205885 -0.06822,0.548952 -0.106737,0.762371 -0.03852,0.21342 -0.116023,0.643244 -0.172236,0.955164 -0.06342,0.35192 -0.102205,0.872952 -0.102205,1.373049 0,0.904397 0.0096,0.934502 0.561028,1.760151 0.153845,0.230349 0.342107,0.565242 0.418361,0.744207 0.332388,0.7801 0.764537,1.294889 2.219712,2.64418 0.507192,0.470288 0.769542,0.651909 2.081609,1.441073 0.192678,0.115888 0.367391,0.295685 0.534895,0.550458 0.136814,0.208096 0.281587,0.412721 0.321716,0.454724 0.04013,0.042 0.16457,0.197255 0.276533,0.345007 0.111965,0.147752 0.284987,0.356195 0.384496,0.463207 0.153094,0.164639 0.193491,0.182001 0.26262,0.112871 0.04493,-0.04493 0.102957,-0.175964 0.128943,-0.291182 z m 9.316512,-2.168215 c 0.36303,-0.105955 2.00564,-0.220699 3.29306,-0.230036 0.44858,-0.0033 0.83151,-0.02171 0.85096,-0.04101 0.0632,-0.06269 -0.0939,-0.413426 -0.21388,-0.477645 -0.0642,-0.03437 -0.34319,-0.08585 -0.61994,-0.1144 -0.29312,-0.03024 -0.57993,-0.09709 -0.68701,-0.160122 -0.25064,-0.147536 -0.41437,-0.431966 -0.41437,-0.719845 0,-0.393124 -0.0358,-0.403223 -1.42761,-0.403223 -0.67592,0 -2.343796,-0.03378 -3.706397,-0.07507 -1.984534,-0.06014 -2.630139,-0.100398 -3.244848,-0.20236 -0.83903,-0.13917 -0.923819,-0.119819 -0.801426,0.182903 0.0343,0.08483 0.09307,0.299973 0.130614,0.478107 0.06606,0.313465 0.07685,0.326552 0.335347,0.406977 1.024968,0.31889 1.463817,0.481583 1.908776,0.707635 0.279087,0.141785 0.622147,0.283069 0.762355,0.313966 0.140208,0.0309 0.320165,0.09892 0.399905,0.151171 0.07974,0.05225 0.327689,0.149126 0.550997,0.215287 0.360877,0.106919 0.52547,0.117135 1.480573,0.09189 0.735382,-0.01943 1.178197,-0.05865 1.402894,-0.124228 z"
       id="path1059" /><path
       style="fill:#ffffff;fill-rule:evenodd;stroke-width:0.0596978"
       d="m 26.194336,18.057183 c -0.308806,-0.129844 -0.323756,-0.290904 -0.07657,-0.824949 0.228769,-0.494258 0.237069,-0.832656 0.02798,-1.140767 -0.08311,-0.122474 -0.230865,-0.380664 -0.328338,-0.573757 -0.159613,-0.316193 -0.177223,-0.407718 -0.177223,-0.921095 0,-0.49687 0.01816,-0.598784 0.141513,-0.794188 0.350055,-0.554523 1.228223,-1.227631 2.306095,-1.767602 0.704112,-0.352732 0.925209,-0.579765 0.980575,-1.006905 0.02226,-0.171696 0.0683,-0.41963 0.102331,-0.550965 0.12961,-0.5002633 0.246949,-0.9099057 0.3762,-1.3133504 0.139799,-0.4363728 0.241034,-0.8492407 0.307394,-1.2536528 0.05638,-0.3435747 0.227762,-0.5078699 0.527345,-0.5055322 0.460882,0.0036 0.499108,0.088389 0.658499,1.4606962 0.04576,0.3940052 0.114771,0.837261 0.15335,0.9850129 0.122994,0.4710513 0.136687,1.3010403 0.02856,1.7312343 -0.334159,1.329499 -0.698463,2.171308 -1.150384,2.658229 -0.369015,0.397594 -0.972992,1.293673 -1.073049,1.592009 -0.06272,0.18702 -0.187747,0.446392 -0.277831,0.576383 -0.167145,0.24119 -0.667042,0.61302 -0.933037,0.694005 -0.326063,0.09927 -0.607027,0.308019 -0.808689,0.600822 -0.249967,0.362941 -0.497976,0.474939 -0.784721,0.354372 z m 1.469936,-1.802043 c 0.292271,-0.220302 0.345591,-0.297379 0.451037,-0.651994 0.07432,-0.249926 0.529934,-0.977127 0.687056,-1.096594 0.04994,-0.03797 0.837772,-1.110739 0.97393,-1.326174 0.05634,-0.08914 0.102429,-0.21583 0.102429,-0.281539 0,-0.107339 0.104606,-0.394605 0.245325,-0.673708 0.05133,-0.101811 0.131839,-0.395701 0.23359,-0.85271 0.07292,-0.327506 0.07114,-0.824238 -0.0036,-1.020952 -0.0617,-0.162282 -0.06246,-0.162474 -0.149699,-0.03792 -0.04823,0.06885 -0.143053,0.401379 -0.210725,0.738945 -0.09098,0.453857 -0.16766,0.674432 -0.294308,0.846647 -0.215527,0.29307 -0.277954,0.335896 -1.114994,0.764905 -0.625728,0.320705 -1.1402,0.633504 -1.307494,0.794956 -0.03564,0.03439 -0.178794,0.155069 -0.318123,0.268165 -0.309256,0.251029 -0.482696,0.574322 -0.482696,0.89975 0,0.240924 0.225562,0.779357 0.470727,1.123659 0.06265,0.08798 0.144583,0.273893 0.182077,0.413135 0.0829,0.307872 0.217808,0.330904 0.535516,0.09143 z"
       id="path1061" /></g></svg>
