<?xml version="1.0" encoding="UTF-8" standalone="no"?>
<!-- Created with Inkscape (http://www.inkscape.org/) -->

<svg
   width="512"
   height="512"
   viewBox="0 0 512 512"
   version="1.1"
   id="svg5"
   inkscape:version="1.2.1 (9c6d41e410, 2022-07-14)"
   sodipodi:docname="mace.svg"
   xml:space="preserve"
   inkscape:export-filename="mace.png"
   inkscape:export-xdpi="96"
   inkscape:export-ydpi="96"
   xmlns:inkscape="http://www.inkscape.org/namespaces/inkscape"
   xmlns:sodipodi="http://sodipodi.sourceforge.net/DTD/sodipodi-0.dtd"
   xmlns="http://www.w3.org/2000/svg"
   xmlns:svg="http://www.w3.org/2000/svg"><sodipodi:namedview
     id="namedview7"
     pagecolor="#ffffff"
     bordercolor="#999999"
     borderopacity="1"
     inkscape:pageshadow="0"
     inkscape:pageopacity="0"
     inkscape:pagecheckerboard="true"
     inkscape:document-units="px"
     showgrid="false"
     height="70mm"
     units="px"
     inkscape:zoom="1.4805976"
     inkscape:cx="-54.032236"
     inkscape:cy="184.72271"
     inkscape:window-width="2560"
     inkscape:window-height="1351"
     inkscape:window-x="2391"
     inkscape:window-y="-9"
     inkscape:window-maximized="1"
     inkscape:current-layer="layer1"
     inkscape:showpageshadow="2"
     inkscape:deskcolor="#d1d1d1" /><defs
     id="defs2" /><g
     inkscape:label="Layer 1"
     inkscape:groupmode="layer"
     id="layer1"><path
       style="fill:#ffffff;fill-rule:evenodd;stroke-width:0.880039"
       d="m 355.65026,510.01022 c -1.18806,-1.18806 -2.16014,-2.98497 -2.16014,-3.99306 0,-1.00815 -1.54445,-6.66939 -3.43215,-12.58055 -1.88771,-5.91116 -4.73165,-14.90574 -6.31983,-19.98794 -1.58817,-5.08225 -3.20299,-9.83444 -3.58841,-10.56046 -0.38516,-0.72602 -3.46895,-8.25037 -6.85222,-16.72072 -3.38327,-8.47036 -8.33288,-20.74688 -10.99915,-27.28116 -2.66626,-6.53428 -4.8572,-12.39886 -4.86877,-13.03242 -0.073,-3.99736 -7.01582,-21.60018 -16.72762,-42.40994 -3.27538,-7.0183 -6.58548,-14.95442 -7.3557,-17.63582 -0.77021,-2.68141 -3.43976,-9.21569 -5.93231,-14.52062 -2.49255,-5.30494 -5.23194,-11.62542 -6.08753,-14.04552 -1.83809,-5.19938 -6.45601,-17.23912 -15.86448,-41.36176 -3.77562,-9.68041 -7.1456,-18.98681 -7.48875,-20.68088 -0.34295,-1.69407 -1.50964,-4.86221 -2.5921,-7.0403 -1.08241,-2.17809 -3.04199,-6.73228 -4.35456,-10.12043 -1.31263,-3.38814 -3.89983,-9.5264 -5.74938,-13.64058 -7.5771,-16.85468 -17.55867,-40.80862 -22.91945,-55.00234 -2.86932,-7.59713 -6.91987,-17.24528 -8.31286,-19.80084 -0.65962,-1.21005 -1.86551,-4.7742 -2.67982,-7.92034 -1.51114,-5.83827 -7.84264,-22.93548 -11.00967,-29.72982 -0.96613,-2.07279 -2.36319,-4.00145 -3.10448,-4.2859 -0.84027,-0.32246 -3.24187,1.1022 -6.37782,3.78343 -2.76652,2.36534 -6.46827,5.36749 -8.22612,6.67142 -5.32168,3.94754 -10.82633,9.89276 -13.98458,15.10385 -4.86415,8.02579 -6.54607,7.73537 -13.89536,-2.39938 -6.96653,-9.60693 -10.57097,-16.56485 -12.15571,-23.46506 -0.72255,-3.14613 -2.04747,-8.123779 -2.94427,-11.061439 -1.83633,-6.01533 -2.27169,-16.69573 -0.71965,-17.65494 0.55036,-0.34013 9.34694,-0.7242 19.54796,-0.85348 19.82612,-0.25121 25.28559,-0.94836 27.80687,-3.5507 1.53305,-1.58234 1.53299,-1.82941 -0.002,-6.92114 -0.87541,-2.90412 -2.85898,-10.23043 -4.40793,-16.28069 -1.54895,-6.05026 -4.13261,-15.35665 -5.74147,-20.68088 -4.07029,-13.46987 -6.37146,-27.1821302 -4.86606,-28.9960202 2.88149,-3.47198 6.63056,-0.47866001 14.34979,11.4571402 3.15231,4.87423 6.62501,10.61648 7.71707,12.76054 1.09211,2.14407 2.88944,5.08635 3.99411,6.53841 1.10466,1.45206 4.78043,8.38236 8.16833,15.40066 8.36019,17.3186 7.31338,16.24271 14.24055,14.63553 21.62412,-5.01704 35.08553,-5.44035 49.03843,-1.54205 15.44017,4.31383 20.93537,10.09005 11.21388,11.7874 -1.4521,0.25351 -6.60028,1.902 -11.44049,3.66329 -4.84021,1.76128 -12.88081,4.57514 -17.86805,6.25301 -4.98718,1.67788 -12.03829,4.51955 -15.66908,6.31484 -7.54072,3.72859 -7.42882,3.23004 -3.01958,13.450299 6.84847,15.87409 9.78393,23.42609 13.16975,33.88144 2.03766,6.29227 4.51306,13.42057 5.50093,15.84067 0.98782,2.42011 2.00586,5.39023 2.26229,6.60029 0.25643,1.21005 1.98017,4.7742 3.83066,7.92033 3.27841,5.57397 8.94596,19.33268 10.51271,25.52109 0.42895,1.69407 2.21215,6.44627 3.96274,10.56044 1.75058,4.11418 3.80856,9.2624 4.5733,11.44049 0.7647,2.1781 1.90507,4.75869 2.53409,5.73465 0.62903,0.97596 1.76857,3.55007 2.53227,5.72025 0.7637,2.17017 3.38551,8.49995 5.82626,14.06619 2.44069,5.56623 5.63899,12.89255 7.10729,16.28069 1.46836,3.38814 3.38421,7.74433 4.25746,9.68041 0.87326,1.93609 2.44617,6.09426 3.49528,9.2404 4.25183,12.75029 6.33462,18.16343 9.77564,25.40708 1.98423,4.17688 4.9013,11.55449 6.48249,16.39469 1.58114,4.84021 3.67821,10.18644 4.66009,11.8805 0.98192,1.69408 2.05454,4.4662 2.38367,6.16027 0.73071,3.76087 6.93635,23.27116 9.51709,29.92127 1.03311,2.66211 3.77234,8.32599 6.08716,12.58639 2.31483,4.26041 4.20879,8.17148 4.20879,8.69127 0,0.51979 1.35395,4.36031 3.00874,8.5345 1.65484,4.17419 4.76589,12.14362 6.91346,17.70986 14.9157,38.65933 25.79731,63.37824 33.75493,76.67839 2.86896,4.79503 3.55683,7.87871 2.41891,10.84399 -0.78085,2.03484 -7.04199,4.83229 -12.20164,5.45167 -2.58756,0.31063 -7.08342,1.94045 -10.86827,3.93996 -7.55662,3.99217 -9.15777,4.15807 -12.06566,1.25018 z m 10.98325,-6.97663 c 3.1776,-1.63707 7.55953,-3.25297 9.73759,-3.59091 5.3884,-0.836 9.68162,-2.39358 9.67464,-3.50987 -0.003,-0.50764 -0.80639,-2.1113 -1.78488,-3.56334 -2.85572,-4.23782 -16.69009,-32.97544 -16.69009,-34.66968 0,-1.4314 -2.495,-1.7671 -3.56361,-0.47949 -0.57868,0.69725 -1.49863,1.26821 -2.04437,1.26879 -0.5458,6.2e-4 -2.13304,0.98208 -3.52717,2.18114 -1.39419,1.199 -2.83441,1.99491 -3.20044,1.76866 -0.36588,-0.22619 -1.1338,0.15271 -1.70612,0.84246 -0.57232,0.68959 -2.20126,1.50875 -3.61989,1.82032 -1.41858,0.31167 -2.57928,0.74686 -2.57928,0.96733 0,0.43363 2.22878,7.58533 7.85557,25.20716 1.97167,6.17499 3.58492,12.01625 3.58492,12.98056 0,2.40536 1.17482,2.22263 7.86313,-1.22313 z m -14.90945,-42.55308 c 1.93936,-0.84021 3.52618,-1.83027 3.52618,-2.20011 0,-0.37004 0.79201,-0.67244 1.76007,-0.67244 0.96801,0 1.76007,-0.39611 1.76007,-0.88003 0,-0.48419 0.56732,-0.88004 1.26076,-0.88004 0.6934,0 1.50406,-0.76657 1.8014,-1.70352 0.2976,-0.93689 1.10566,-1.82792 1.79624,-1.98006 0.85736,-0.18867 1.00423,-0.67854 0.46334,-1.54408 -0.86961,-1.39117 -0.71716,-1.42604 -13.46199,3.07769 -6.96897,2.46264 -7.73835,3.34392 -5.72858,6.56213 1.33722,2.14121 2.31602,2.17285 6.82262,0.22046 z m 1.76606,-10.98496 c 4.11419,-1.47284 7.61703,-2.79588 7.78412,-2.94006 0.66124,-0.57066 -0.94023,-5.66823 -1.78076,-5.66823 -0.49357,0 -2.14502,0.57683 -3.67024,1.28184 -1.52521,0.70499 -4.97488,2.09132 -7.66596,3.08073 -6.71879,2.47022 -7.89909,3.50135 -6.91257,6.03898 0.90322,2.32353 0.637,2.36252 12.24541,-1.79326 z m -3.52013,-8.19822 c 4.59822,-1.80234 8.46933,-3.3679 8.60249,-3.47904 0.13343,-0.11111 -0.54579,-2.04019 -1.5088,-4.28678 -1.41561,-3.30252 -2.17196,-4.08473 -3.9497,-4.08473 -1.20932,0 -4.19242,-0.78581 -6.62905,-1.74625 l -4.43029,-1.74625 -2.6426,5.82814 c -3.07686,6.78585 -3.11679,7.17067 -1.16893,11.25537 0.95925,2.01159 1.804,2.81909 2.4201,2.31339 0.52067,-0.42727 4.70861,-2.25153 9.30678,-4.05385 z m -11.52424,-14.13586 c 1.36062,-3.34127 4.07635,-8.55302 6.03499,-11.58166 2.27949,-3.52489 3.39604,-6.13774 3.10245,-7.26031 -0.65967,-2.52273 -1.31586,-2.19103 -3.60931,1.82463 -2.69618,4.7208 -9.84455,21.8347 -9.84455,23.56882 0,2.43415 1.72093,-0.17793 4.31642,-6.55148 z m -4.51635,-1.58756 c 0.79571,-1.74634 0.70575,-2.18693 -0.51858,-2.54026 -0.81478,-0.23511 -2.1913,-0.71927 -3.05899,-1.0759 -1.50911,-0.62026 -1.51156,-0.50994 -0.0568,2.54027 1.78863,3.75081 2.34146,3.91444 3.6348,1.07589 z m 20.2474,0.21255 c -0.5483,-1.64492 -9.40868,-4.69039 -10.4926,-3.60648 -0.64169,0.64169 0.50608,1.46962 3.78229,2.72812 5.42703,2.08472 7.18933,2.31541 6.71031,0.87836 z m -17.40737,-6.06503 c 0,-0.87249 -3.27262,-2.51687 -7.7003,-3.86914 -3.52296,-1.07595 -2.17056,1.27355 1.76006,3.05771 4.23594,1.92278 5.94024,2.15559 5.94024,0.81143 z m 14.96063,0.0863 c 0,-1.2544 -1.96396,-5.32165 -2.56969,-5.32165 -0.62267,0 -2.961,3.58886 -2.5515,3.91608 0.85444,0.68277 3.89586,2.19451 4.4612,2.21742 0.36275,0.0146 0.65999,-0.3506 0.65999,-0.81187 z m -10.18233,-10.94767 c 3.38222,-6.3484 3.43023,-6.56482 2.18385,-9.83961 -1.09399,-2.87436 -1.83283,-3.4964 -5.21834,-4.39348 -2.16915,-0.57478 -5.13192,-1.6854 -6.58402,-2.46804 -1.45204,-0.78265 -3.0361,-1.42415 -3.52013,-1.42555 -0.48419,-0.002 -2.02906,2.79904 -3.43341,6.22324 -2.45711,5.99105 -2.50553,6.37991 -1.28417,10.3127 1.20036,3.86521 1.55368,4.19189 6.5135,6.02251 2.88444,1.0646 5.8384,1.96348 6.56442,1.99752 0.77179,0.036 2.75644,-2.63419 4.7783,-6.42929 z m -9.75193,-31.41207 c 1.63732,-2.33763 1.84095,-3.44363 0.63403,-3.44363 -0.94716,0 -11.50106,20.98887 -11.50106,22.87257 0,0.69132 2.11803,-2.93046 4.70674,-8.0484 2.58871,-5.11795 5.36083,-10.23919 6.16029,-11.38054 z m -11.46186,12.9231 c 0.54324,-1.41556 -0.0928,-2.28613 -1.66954,-2.28613 -0.65774,0 -0.90823,0.69898 -0.63075,1.76007 0.53532,2.04711 1.62133,2.29547 2.30029,0.52606 z m 19.94218,0.57399 c -0.0542,-2.66795 -8.62876,-6.18641 -10.50458,-4.31056 -0.71445,0.71443 0.15114,1.49128 3.23103,2.89997 4.34752,1.98845 7.29701,2.56045 7.27355,1.41059 z m -17.33992,-6.76435 c 0.1058,-0.45328 -1.19343,-1.18198 -2.88746,-1.6194 -1.69408,-0.43743 -3.57517,-1.20411 -4.18017,-1.70376 -1.88823,-1.55937 -1.28318,0.88405 0.7133,2.88052 1.8112,1.81116 5.96672,2.10064 6.35433,0.44264 z m 14.71327,-0.0996 c 0,-0.26607 -0.62288,-1.6883 -1.38424,-3.16055 -1.30689,-2.52729 -1.45282,-2.5863 -2.61211,-1.05634 -1.70143,2.24544 -1.58573,2.87594 0.69621,3.79315 2.37486,0.95457 3.30014,1.07338 3.30014,0.42373 z m -9.46038,-9.00049 2.61686,-4.644 -1.93149,-5.16474 c -1.73891,-4.64991 -2.297,-5.29689 -5.5986,-6.4904 -2.01696,-0.7291 -4.91052,-1.54375 -6.43021,-1.81033 -2.66788,-0.46798 -2.84217,-0.30224 -5.06021,4.81213 -2.75914,6.36204 -2.78609,6.93265 -0.53594,11.34333 1.97928,3.87968 7.49428,7.04656 11.78098,6.76498 2.08112,-0.13671 3.01604,-1.00861 5.15861,-4.81097 z m -9.37657,-32.82682 c 1.34145,-1.50765 1.71436,-6.97101 0.47585,-6.97101 -0.41799,0 -3.04084,5.04922 -5.82802,11.22048 -2.78713,6.17127 -5.54158,12.22703 -6.12094,13.45726 -0.57941,1.23023 -0.87847,2.7617 -0.66463,3.40326 0.21369,0.64157 2.75419,-3.53311 5.6452,-9.27708 2.891,-5.74396 5.81265,-11.06876 6.4926,-11.83291 z m -12.17266,11.00813 c -0.56189,-0.56188 -5.07193,-1.40101 -5.07193,-0.94366 0,0.27806 0.66848,1.90731 1.48545,3.62056 l 1.48545,3.115 1.16815,-2.77829 c 0.64253,-1.52806 1.0623,-2.88418 0.93288,-3.01361 z m 19.04162,1.91111 c -0.56649,-1.47632 -7.9264,-3.48752 -9.40909,-2.57118 -0.61845,0.38224 0.92871,1.25601 3.78531,2.13785 6.14737,1.89772 6.18693,1.90077 5.62378,0.43332 z m -16.72481,-5.66143 c 0.43728,-0.70779 -8.98255,-4.12799 -9.6183,-3.49222 -0.69772,0.69772 1.05985,2.25372 3.54964,3.14257 3.29185,1.17519 5.48049,1.30129 6.06866,0.34967 z m 14.58104,-0.36822 c -0.0156,-0.60502 -0.55325,-2.04176 -1.19129,-3.19274 l -1.16007,-2.0927 -1.44887,2.0685 c -1.83345,2.61759 -1.81885,3.2112 0.0912,3.71035 2.82388,0.73796 3.74045,0.61604 3.70897,-0.49341 z m -10.23007,-9.08864 c 1.37459,-2.86658 3.10177,-5.8859 3.83811,-6.70961 1.20656,-1.34962 1.1449,-1.81154 -0.62423,-4.67403 -1.403,-2.27009 -2.37258,-3.01209 -3.39813,-2.60054 -0.78929,0.31673 -3.5883,1.1473 -6.22017,1.84569 -4.89691,1.29949 -12.37556,4.32555 -12.37556,5.00746 0,0.209 0.98506,2.60736 2.18896,5.32971 1.45741,3.29538 2.70744,4.95413 3.74018,4.96296 0.85314,0.007 3.13523,0.58296 5.07131,1.27927 1.93607,0.69632 3.91619,1.15466 4.40017,1.01854 0.48418,-0.13613 2.00471,-2.59287 3.37936,-5.45945 z m -6.20157,-15.40725 c 5.07068,-1.46286 6.7336,-2.30311 6.38023,-3.22391 -0.26268,-0.68496 -0.47793,-1.58767 -0.47793,-2.00604 0,-0.41836 -2.07909,-0.0438 -4.62017,0.83214 -5.74093,1.97917 -16.50069,7.18674 -16.50069,7.98608 0,1.48918 1.28698,1.48897 4.68755,-7.7e-4 2.02004,-0.88493 6.75893,-2.49931 10.53096,-3.5875 z m -6.41817,-4.29719 c 4.59822,-1.98078 9.00975,-3.88649 9.80342,-4.23488 1.0859,-0.47669 1.25628,-1.12349 0.68839,-2.61355 -0.87112,-2.28559 -2.99008,-2.56722 -4.90536,-0.65195 -0.7305,0.73049 -1.68991,1.10458 -2.13204,0.8313 -0.44197,-0.27326 -2.13069,0.51515 -3.75233,1.75199 -1.62158,1.23686 -3.60399,2.24883 -4.40532,2.24883 -0.80139,0 -1.457,0.44218 -1.457,0.98268 0,0.54941 -0.77605,0.77974 -1.76012,0.52241 -1.10508,-0.289 -1.76006,-0.0271 -1.76006,0.70406 0,0.64038 -0.41852,1.30389 -0.93039,1.47446 -0.51181,0.17059 -0.65863,1.01837 -0.32626,1.88399 0.332,0.86562 1.04786,1.37771 1.59042,1.13797 0.54256,-0.23975 4.74863,-2.05652 9.34686,-4.03731 z m -12.32053,-4.32842 c 0,-0.42904 1.70827,-1.03627 3.79616,-1.34937 2.44012,-0.36593 4.8374,-1.5203 6.71114,-3.23167 1.60319,-1.46434 3.44638,-2.45848 4.096,-2.20921 0.64956,0.24929 1.43177,0.0474 1.73823,-0.44838 0.30646,-0.49586 1.09851,-0.69388 1.76006,-0.43999 2.41026,0.9249 2.09374,-1.25046 -1.2889,-8.85768 -1.89897,-4.27056 -5.1166,-12.51684 -7.1503,-18.32509 -2.03374,-5.80825 -4.44572,-12.00043 -5.35999,-13.76039 -0.91423,-1.75998 -1.66229,-3.64001 -1.66229,-4.17784 0,-0.53783 -1.18806,-3.49239 -2.64011,-6.56568 -1.45204,-3.0733 -2.6401,-5.84401 -2.6401,-6.15714 0,-0.31313 -1.72139,-4.23495 -3.82524,-8.71515 -2.10389,-4.4802 -4.33559,-9.72989 -4.9593,-11.66597 -0.62376,-1.93608 -1.9233,-5.08902 -2.88793,-7.00653 -3.69687,-7.34864 -12.0778,-29.00574 -16.05982,-41.49983 -1.34311,-4.21423 -4.33783,-10.31251 -6.73636,-13.71741 -0.92256,-1.30967 -2.40765,-4.4778 -3.30024,-7.0403 -0.89254,-2.56249 -2.23274,-6.24314 -2.9781,-8.17922 -0.7454,-1.93609 -3.14779,-9.06439 -5.33857,-15.84067 -2.19089,-6.77629 -6.01149,-17.07273 -8.49033,-22.88098 -2.47879,-5.80825 -5.32685,-12.63954 -6.329,-15.180639 -1.72692,-4.37894 -3.42846,-5.72946 -4.67583,-3.7112 -0.30906,0.49993 0.2408,2.26915 1.22158,3.93155 1.67652,2.841509 9.7968,22.406319 9.7968,23.604189 0,0.30381 1.13114,3.03743 2.51361,6.07469 1.38251,3.03725 3.0214,7.10634 3.64204,9.04242 0.62069,1.93608 2.83159,7.33021 4.91323,11.98695 6.8616,15.35006 7.6695,22.52116 3.16411,28.08511 l -1.58474,1.95705 -3.97055,-1.75638 c -3.54781,-1.56936 -4.2977,-2.44827 -7.0423,-8.25401 -1.6894,-3.5737 -3.93115,-8.67573 -4.98167,-11.33784 -1.05046,-2.66211 -3.33578,-8.40436 -5.07844,-12.76054 -3.7923,-9.47981 -8.53422,-22.41526 -10.00091,-27.28116 -0.93429,-3.09972 -1.83949,-5.65817 -5.50587,-15.56148 -0.61558,-1.66271 -1.30517,-2.2079 -2.33187,-1.84347 -3.48944,1.23856 -3.54145,1.98443 -0.49149,7.04905 1.64676,2.73468 2.99405,5.4444 2.99405,6.02163 0,0.57721 1.62471,4.95329 3.61051,9.7246 1.98574,4.7713 4.34356,11.54152 5.2396,15.04492 0.89603,3.5034 2.11109,7.26897 2.70014,8.36793 1.73932,3.24503 8.75666,20.1614 10.06704,24.26816 0.66499,2.08409 2.18578,6.04426 3.37957,8.80038 1.19374,2.75611 4.98771,11.74341 8.43107,19.97176 3.44336,8.22835 8.00156,18.9208 10.12938,23.76101 7.11928,16.19445 11.65063,27.25804 12.25485,29.92127 0.32939,1.45206 3.4049,9.76842 6.83435,18.48079 3.42944,8.71237 7.14174,18.41478 8.24959,21.56091 1.10784,3.14614 2.87959,7.89834 3.93724,10.56046 1.05766,2.66211 2.56948,6.52327 3.35961,8.58036 1.29881,3.38148 2.7705,4.95384 2.7705,2.96004 z M 244.76446,172.09174 c 1.1067,-4.39314 -0.80795,-11.69663 -6.08331,-23.20524 -2.19782,-4.79476 -3.99603,-9.2384 -3.99603,-9.87475 0,-0.63635 -1.17227,-3.7627 -2.60503,-6.94743 -1.43281,-3.18474 -4.63929,-11.1245 -7.12559,-17.64393 -2.48629,-6.51941 -5.02831,-12.57842 -5.64894,-13.46445 -1.05703,-1.509139 -1.16393,-1.469129 -1.69153,0.63302 -0.31949,1.27258 -1.19265,2.24397 -2.01723,2.24397 -1.83553,0 -4.6727,-2.5189 -4.6727,-4.148489 0,-0.67959 -0.38464,-0.998 -0.85433,-0.7076 -0.504,0.31156 0.41956,4.030259 2.254,9.072319 1.70956,4.69937 3.65069,10.5244 4.31365,12.94451 0.66295,2.4201 2.44689,7.3703 3.96429,11.00046 1.5174,3.63016 4.1722,10.36244 5.89954,14.96064 3.1664,8.42904 4.15661,10.81498 8.7036,20.97062 2.34062,5.22776 5.54789,8.39651 7.84061,7.74644 0.48419,-0.13723 1.25759,-1.74827 1.719,-3.58009 z m -79.31312,-43.87981 c 2.18234,-3.72388 9.06043,-10.8993 14.23142,-14.8466 1.45206,-1.10845 5.12055,-4.10271 8.15219,-6.65391 3.03165,-2.55121 6.07743,-4.63856 6.76837,-4.63856 2.20898,0 2.24145,-1.40765 0.13395,-5.816599 -3.49673,-7.31613 -4.77501,-10.36937 -5.41355,-12.93061 -0.5236,-2.10013 -0.95852,-2.39658 -2.92799,-1.9957 -8.7503,1.78108 -16.38836,2.40185 -28.38547,2.30698 l -13.75189,-0.10872 -0.47903,2.45204 c -0.65991,3.37785 5.09976,24.916189 8.19081,30.629549 1.36856,2.52959 4.10283,6.7289 6.07616,9.33178 1.97332,2.60289 3.58956,5.02953 3.59164,5.39255 0.01,1.76003 1.82086,0.27737 3.81314,-3.12218 z m 45.7283,-32.893129 c 5.42567,-2.26267 10.42151,-4.61555 11.10188,-5.22861 1.049,-0.94525 0.62678,-2.3597 -2.77796,-9.30662 -2.20824,-4.50558 -4.23495,-8.87832 -4.50383,-9.71719 -0.52214,-1.62901 -1.34124,-1.51923 -6.71578,0.90006 -1.69403,0.76258 -6.05026,2.40325 -9.68037,3.64594 -6.57057,2.24926 -6.59986,2.27334 -6.49901,5.33958 0.0558,1.69407 1.5408,6.13095 3.30014,9.85973 1.75939,3.72878 3.19887,7.19392 3.19887,7.70032 0,1.638909 2.52888,0.99679 12.57606,-3.19321 z m 5.88703,1.89258 c -0.61224,-0.73772 -1.34228,-1.11221 -1.62232,-0.83218 -0.27988,0.28004 0.0735,0.87756 0.78544,1.32784 1.863,1.17821 2.10645,1.03404 0.83688,-0.49565 z m 31.69904,-20.08836 c 5.0822,-1.68662 11.22044,-3.90614 13.64054,-4.93227 l 4.40022,-1.86568 -10.56045,0.39251 c -8.75192,0.32527 -12.06759,0.87401 -19.36085,3.20402 -4.84021,1.54632 -10.06985,3.58419 -11.6215,4.52859 l -2.82116,1.71709 1.74709,3.35181 1.74704,3.35181 6.79432,-3.34065 c 3.73689,-1.83736 10.95249,-4.72062 16.03475,-6.40724 z m -12.93668,-5.93914 c 6.33442,-2.07111 10.77076,-2.83737 20.38473,-3.52094 6.75851,-0.48054 12.40271,-0.98817 12.5426,-1.12807 0.13968,-0.13989 -2.47342,-0.91274 -5.80739,-1.71743 -9.1326,-2.20428 -31.20062,-0.64655 -42.93668,3.0308 l -2.79228,0.87492 1.79519,4.3197 1.7952,4.31969 3.46108,-1.76572 c 1.9036,-0.97114 7.10448,-2.95697 11.55755,-4.41295 z m -35.46538,-0.0349 c 0,-0.38901 -1.0293,-2.99568 -2.28731,-5.7926 -1.25805,-2.79689 -3.04746,-7.24775 -3.97654,-9.89077 -0.92908,-2.64302 -2.84957,-7.39522 -4.26781,-10.56045 -1.41823,-3.16523 -3.64704,-8.52708 -4.95291,-11.91522 -1.30587,-3.38814 -2.95899,-6.9523 -3.67359,-7.92033 l -1.29928,-1.76008 0.61147,1.76008 c 0.33633,0.96803 1.9648,6.90829 3.61886,13.20056 10.03023,38.15638 9.12388,35.76617 13.09943,34.54604 1.7202,-0.52795 3.12768,-1.27819 3.12768,-1.6672 z m 6.55884,-1.77877 c 1.23283,-0.56171 2.24149,-1.35801 2.24149,-1.76955 0,-0.41154 -1.69252,-4.01113 -3.76118,-7.99909 -2.06867,-3.98793 -5.05526,-10.06655 -6.63687,-13.50802 -1.58161,-3.44146 -4.54224,-8.86337 -6.57922,-12.04869 -2.03696,-3.18532 -5.00594,-8.0919 -6.59773,-10.90352 -4.50367,-7.95501 -6.91662,-10.48171 -3.62126,-3.79198 2.79447,5.67291 8.07561,18.22075 16.76017,39.8217 2.48113,6.17126 4.83557,11.22047 5.23214,11.22047 0.39663,0 1.72963,-0.45959 2.96246,-1.02129 z"
       id="path303" /><path
       style="fill:#ffffff;fill-rule:evenodd;stroke-width:0.220009"
       d="m 307.28817,342.21293 c -1.13573,-0.40117 -2.66428,-2.05429 -2.97856,-3.22126 -0.51963,-1.92986 0.25486,-3.62301 2.06346,-4.50994 1.00121,-0.49101 1.34332,-0.55478 2.25759,-0.42065 0.93247,0.13676 1.24586,0.33012 2.3264,1.4351 1.49665,1.53052 1.88572,2.53933 1.51302,3.92337 -0.35806,1.32966 -1.31721,2.32093 -2.66793,2.75716 -1.34577,0.43463 -1.38445,0.4352 -2.51398,0.0365 z m 2.26115,-2.65245 c 0.64648,-0.45281 0.62683,-1.30532 -0.0521,-2.19346 -0.66723,-0.87476 -1.19531,-1.02729 -2.07743,-0.60006 -0.58566,0.28363 -0.68312,0.44974 -0.68312,1.16385 0,0.66008 0.14072,0.95124 0.67687,1.40258 0.77298,0.65041 1.4301,0.72033 2.13428,0.22709 z"
       id="path305" /><path
       style="fill:#ffffff;fill-rule:evenodd;stroke-width:0.220009"
       d="m 319.86554,373.46895 c -1.41306,-0.37979 -2.09535,-0.91639 -2.93926,-2.31161 -1.50052,-2.48079 -1.36527,-4.08003 0.49878,-5.89829 1.11425,-1.08681 1.25029,-1.15505 2.30336,-1.15505 0.80618,0 1.56691,0.20692 2.72062,0.73994 2.47441,1.14326 3.33933,2.61436 2.66345,4.53012 -0.37422,1.06124 -1.59276,2.99901 -2.23461,3.55416 -0.3148,0.27227 -1.80515,0.92297 -1.92701,0.84134 -0.0104,-0.008 -0.50086,-0.14343 -1.08538,-0.30062 z m 1.42744,-2.81967 c 0.46126,-0.37516 1.28584,-1.78972 1.28584,-2.20651 0,-0.43123 -1.18259,-1.43577 -1.90324,-1.61664 -0.72571,-0.18215 -1.56332,0.21969 -1.87249,0.89831 -0.37786,0.82962 0.2804,2.38835 1.2001,2.84193 0.85981,0.42394 0.8695,0.42456 1.28979,0.0829 z"
       id="path307" /><path
       style="fill:#ffffff;fill-rule:evenodd;stroke-width:0.220009"
       d="m 333.0293,407.57153 c -0.8879,-0.39965 -3.12454,-2.44075 -3.52659,-3.21819 -0.46855,-0.90644 -0.40288,-1.58229 0.30594,-3.14596 0.72128,-1.59064 1.40336,-2.16338 3.03506,-2.54831 1.07178,-0.25283 1.22131,-0.23115 2.70488,0.39215 2.89054,1.21449 3.79095,3.27083 2.56781,5.86452 -0.61818,1.31089 -1.22652,1.9084 -2.55707,2.51162 -1.15512,0.52368 -1.62727,0.55058 -2.53013,0.14416 z m 2.38717,-2.95146 c 0.32992,-0.34415 0.65743,-0.98307 0.72831,-1.41986 0.1105,-0.68124 0.0313,-0.88948 -0.54136,-1.4644 -0.5252,-0.52522 -0.86205,-0.67024 -1.5568,-0.67024 -1.18649,0 -1.92393,0.36745 -2.23248,1.11237 -0.35858,0.86558 -0.13186,1.36232 1.03853,2.27403 1.22882,0.95735 1.77346,0.99306 2.5638,0.16808 z"
       id="path309" /><path
       style="fill:#ffffff;fill-rule:evenodd;stroke-width:0.220009"
       d="m 345.71112,439.2159 c -1.18603,-0.31376 -2.3019,-0.84416 -2.84811,-1.35376 -0.16209,-0.15125 -0.38308,-0.27504 -0.49096,-0.27504 -0.47168,0 -1.31226,-1.66297 -1.31226,-2.59647 0,-1.39292 1.19874,-4.14743 2.24509,-5.15886 0.75432,-0.72911 0.98119,-0.82503 1.95139,-0.82503 1.41624,0 2.41808,0.43082 3.85344,1.65707 1.30918,1.11848 1.66552,1.92046 1.68913,3.8015 0.0156,1.34674 -0.80873,3.56404 -1.54591,4.15172 -0.98406,0.78449 -2.11619,0.97592 -3.54166,0.59885 z m 1.94008,-2.50416 c 0.41956,-0.22464 0.88874,-1.30084 0.88874,-2.03932 0,-1.25955 -1.8285,-3.24556 -2.98815,-3.24556 -0.58749,0 -1.17857,0.76269 -1.73099,2.23356 -0.54052,1.43915 -0.33408,1.8646 1.27495,2.62572 1.45089,0.68641 1.92163,0.76481 2.55545,0.42561 z"
       id="path311" /><path
       style="fill:#ffffff;fill-rule:evenodd;stroke-width:0.220009"
       d="m 240.3634,171.71331 c -0.3862,-0.16792 -1.00569,-0.72453 -1.37688,-1.23694 -1.4017,-1.93498 -1.42812,-3.684 -0.0751,-4.96019 1.39638,-1.31695 3.19496,-0.93177 4.50472,0.96471 0.55955,0.81021 0.71398,1.25057 0.68787,1.96154 -0.0521,1.39043 -0.84366,2.63437 -2.0928,3.28429 -0.71638,0.37276 -0.76084,0.3724 -1.64796,-0.0136 z m 1.32342,-2.84639 c 0.19232,-0.50076 -0.087,-1.20657 -0.53324,-1.34819 -0.79309,-0.25174 -1.10169,0.35097 -0.63048,1.23143 0.26424,0.49424 0.99089,0.56713 1.16372,0.11674 z"
       id="path313" /><path
       style="fill:#ffffff;fill-rule:evenodd;stroke-width:0.220009"
       d="m 203.88378,90.893851 c -2.39128,-1.17068 -3.68274,-2.6567 -4.28889,-4.93508 -0.38829,-1.45867 -0.18919,-2.9333 0.63137,-4.68729 1.20443,-2.5738 3.06931,-3.84589 5.62179,-3.83484 1.27369,0.006 2.55802,0.5236 4.09501,1.65188 0.97323,0.71438 1.31435,1.15255 2.44101,3.13519 0.96613,1.70021 0.14698,5.25732 -1.67496,7.2741 -0.94184,1.04251 -2.63228,1.80935 -4.28363,1.94324 -1.02742,0.0833 -1.43156,-0.004 -2.5417,-0.5472 z m 4.18018,-2.4359 c 1.12937,-0.70617 1.595,-1.2831 2.07836,-2.57494 0.39662,-1.0597 0.42894,-1.36835 0.21629,-2.04454 -0.48992,-1.55626 -1.25253,-2.44051 -2.69326,-3.12209 -2.4704,-1.1687 -4.32277,-0.67862 -5.21109,1.37865 -0.7796,1.80557 -0.81223,2.78424 -0.1402,4.20495 0.77298,1.63394 2.14116,2.53537 3.8797,2.55619 0.82239,0.01 1.42145,-0.11774 1.87004,-0.39825 z"
       id="path315" /><path
       style="fill:#ffffff;fill-rule:evenodd;stroke-width:0.110004"
       d="m 205.70191,85.160091 c -0.50295,-0.25413 -0.73796,-0.95592 -0.50556,-1.51155 0.18242,-0.43691 0.23923,-0.47444 0.90162,-0.59821 0.50243,-0.0938 0.53844,-0.083 0.88738,0.26597 0.49669,0.49675 0.51337,1.13302 0.0417,1.60429 -0.17669,0.17684 -0.39559,0.32158 -0.48628,0.32158 -0.0907,0 -0.23036,0.025 -0.31115,0.0555 -0.0808,0.0307 -0.31845,-0.0313 -0.52849,-0.13749 z"
       id="path317" /></g></svg>
