<?xml version="1.0" encoding="UTF-8" standalone="no"?>
<!-- Created with Inkscape (http://www.inkscape.org/) -->

<svg
   width="512"
   height="512"
   viewBox="0 0 512 512"
   version="1.1"
   id="svg5"
   inkscape:version="1.2.1 (9c6d41e410, 2022-07-14)"
   sodipodi:docname="one_handed_sword.svg"
   xml:space="preserve"
   inkscape:export-filename="one_handed_sword.png"
   inkscape:export-xdpi="96"
   inkscape:export-ydpi="96"
   xmlns:inkscape="http://www.inkscape.org/namespaces/inkscape"
   xmlns:sodipodi="http://sodipodi.sourceforge.net/DTD/sodipodi-0.dtd"
   xmlns="http://www.w3.org/2000/svg"
   xmlns:svg="http://www.w3.org/2000/svg"><sodipodi:namedview
     id="namedview7"
     pagecolor="#ffffff"
     bordercolor="#999999"
     borderopacity="1"
     inkscape:pageshadow="0"
     inkscape:pageopacity="0"
     inkscape:pagecheckerboard="true"
     inkscape:document-units="px"
     showgrid="false"
     height="70mm"
     units="px"
     inkscape:zoom="2.0938813"
     inkscape:cx="102.68013"
     inkscape:cy="317.35323"
     inkscape:window-width="2560"
     inkscape:window-height="1351"
     inkscape:window-x="2391"
     inkscape:window-y="-9"
     inkscape:window-maximized="1"
     inkscape:current-layer="layer1"
     inkscape:showpageshadow="2"
     inkscape:deskcolor="#d1d1d1" /><defs
     id="defs2" /><g
     inkscape:label="Layer 1"
     inkscape:groupmode="layer"
     id="layer1"><path
       style="fill:#ffffff;fill-rule:evenodd;stroke-width:0.433239"
       d="m 156.66283,510.74617 c -1.16449,-0.68551 -2.88366,-1.36898 -3.82038,-1.51876 -0.97524,-0.15595 -2.18054,-0.74976 -2.8202,-1.38944 -1.10874,-1.10874 -1.11497,-1.15415 -0.83388,-6.07583 0.27157,-4.75432 0.23585,-5.06062 -0.86559,-7.42953 -1.05565,-2.27043 -6.24483,-9.59026 -8.69093,-12.25936 -2.07962,-2.26917 -2.18694,-6.21637 -0.23354,-8.59 1.34415,-1.63331 9.30232,-4.5325 14.94109,-5.44309 l 1.62465,-0.26238 v -2.18941 c 0,-2.60689 1.00397,-4.93112 2.55588,-5.91701 1.59837,-1.01537 1.65213,-1.14457 1.99395,-4.79235 0.27778,-2.96427 0.66325,-3.99516 3.94436,-10.54881 2.00007,-3.99494 3.6365,-7.48884 3.6365,-7.76429 0,-0.85863 5.70144,-14.79886 6.70788,-16.40097 1.02936,-1.63861 1.47509,-2.57885 3.90423,-8.23573 0.86973,-2.02539 2.71329,-5.6321 4.09681,-8.01492 3.1063,-5.34994 4.93433,-8.9987 5.64337,-11.26421 0.67544,-2.15817 3.74756,-8.41806 4.58586,-9.34437 0.40237,-0.4446 0.62295,-1.65031 0.62295,-3.40482 0,-1.62785 0.2867,-3.32068 0.71546,-4.22418 0.68635,-1.44639 0.67663,-1.57241 -0.23919,-3.09815 -1.68296,-2.80379 -4.84796,-9.74018 -5.66775,-12.4214 -1.13276,-3.70483 -1.74034,-10.87359 -1.74034,-20.53382 v -8.36322 l 1.47301,-1.47301 c 1.27252,-1.27252 1.76063,-1.47301 3.58613,-1.47301 2.65319,0 3.88154,0.83947 4.4799,3.06161 0.54614,2.02818 1.13679,1.88847 1.5603,-0.36907 0.74207,-3.95561 4.74882,-13.53384 7.7413,-18.50577 1.14732,-1.90625 4.31765,-7.85245 7.04517,-13.21378 2.72752,-5.36134 5.11039,-9.94284 5.29526,-10.18112 0.18489,-0.23826 1.26923,-2.18785 2.4097,-4.33239 4.87489,-9.1668 7.94965,-15.42727 9.46871,-19.27913 4.16396,-10.55847 5.62277,-13.72385 16.07295,-34.87574 4.35577,-8.81641 8.4488,-17.52398 9.09564,-19.35016 0.64685,-1.82618 1.83425,-4.55559 2.63868,-6.06535 0.80444,-1.50976 3.12403,-6.0593 5.15472,-10.11008 2.03063,-4.05079 5.25909,-9.99699 7.17441,-13.21379 1.91528,-3.2168 4.36116,-7.70082 5.43536,-9.9645 1.07416,-2.26367 2.70606,-5.67542 3.62642,-7.58168 0.92041,-1.90625 2.08641,-4.85903 2.59121,-6.56174 0.50495,-1.70271 1.31765,-3.60416 1.80638,-4.22545 1.19705,-1.52179 6.69702,-13.1112 9.27284,-19.53953 1.14579,-2.85938 2.3334,-5.58879 2.63914,-6.06535 0.30585,-0.47657 1.65125,-3.56298 2.98984,-6.8587 2.40293,-5.91605 3.53142,-8.29417 8.97772,-18.91901 4.97762,-9.710551 13.08573,-23.324561 17.85773,-29.984241 2.64227,-3.68747 7.22984,-11.01907 8.10257,-12.94914 0.39052,-0.86382 1.89116,-3.42627 3.33453,-5.69432 1.44332,-2.26806 3.31615,-5.62159 4.16174,-7.4523 0.84564,-1.83072 2.12326,-4.17993 2.83917,-5.22048 0.71592,-1.04055 1.30169,-1.99389 1.30169,-2.11854 0,-0.12465 2.1715,-4.18363 4.82557,-9.01996 2.65408,-4.83633 5.80284,-10.64542 6.99727,-12.9091 4.17196,-7.9067601 9.53671,-15.7132301 11.37347,-16.55013007 1.36127,-0.62022 3.07728,-0.11747 3.90357,1.14362997 0.37564,0.57356 0.86817,2.34835 1.09417,3.944 0.3664,2.58702 0.27608,3.42333 -0.83579,7.7233801 -0.68563,2.65222 -1.69123,6.7718 -2.23461,9.15461 -0.54344,2.38281 -1.63437,6.49801 -2.42434,9.14488 -0.79001,2.64688 -1.83193,6.64351 -2.31549,8.8814 -0.48339,2.2379 -1.44947,5.72605 -2.14655,7.75144 -0.69708,2.02539 -1.889,5.72958 -2.64874,8.23154 -0.75969,2.50195 -2.22959,7.18093 -3.26643,10.39773 -1.03679,3.2168 -2.56201,7.99326 -3.38938,10.61436 -0.82738,2.62109 -2.40679,7.20259 -3.50983,10.18111 -1.10309,2.97852 -3.04413,8.63229 -4.31343,12.56393 -1.26936,3.931651 -3.08421,9.098021 -4.03305,11.480831 -0.94888,2.38282 -2.15405,5.79457 -2.67819,7.58168 -0.52414,1.78711 -2.38261,7.63584 -4.12988,12.99717 -1.74726,5.36133 -4.28285,13.35459 -5.63467,17.7628 -1.35187,4.40821 -3.24703,10.15945 -4.21152,12.78055 -0.96449,2.62109 -3.07784,8.37234 -4.69631,12.78055 -1.61846,4.4082 -3.3686,8.9897 -3.88915,10.18111 -0.52055,1.19141 -1.99168,5.19584 -3.26915,8.89874 -2.40504,6.97133 -3.2301,9.04647 -7.22763,18.1787 -1.30384,2.97851 -3.06753,7.56001 -3.91933,10.18111 -0.85179,2.6211 -2.12834,6.52025 -2.83676,8.66478 -1.78113,5.39187 -12.32974,31.36622 -14.15126,34.84528 -3.97937,7.60051 -6.35803,13.61713 -11.31646,28.62423 -2.95232,8.93555 -5.96438,17.31872 -6.69337,18.62927 -2.08606,3.75009 -3.88654,7.72118 -5.20542,11.48083 -2.36896,6.75311 -7.28213,18.94025 -7.92014,19.64616 -0.35614,0.39385 -1.16252,2.08078 -1.79222,3.74875 -3.19454,8.46135 -3.79422,10.21532 -3.56945,10.4401 0.13445,0.13455 2.09904,0.002 4.36557,-0.2945 3.66475,-0.47945 4.24016,-0.46103 5.19823,0.16672 1.46123,0.95744 1.73038,2.62058 0.92528,5.7175 -0.58813,2.26239 -1.08061,3.0111 -3.79842,5.77435 -3.56391,3.62353 -7.91368,6.69535 -12.0041,8.47734 -1.54882,0.67475 -3.24682,1.49644 -3.77338,1.82598 -1.9325,1.20945 -11.16614,4.57325 -13.92726,5.07368 l -2.84367,0.51539 -0.50567,2.52436 c -0.39144,1.95404 -0.8735,2.90106 -2.13371,4.19163 -1.43435,1.4689 -1.70115,2.09066 -2.24265,5.22621 -0.33802,1.95743 -0.99875,4.31193 -1.46826,5.23223 -1.24996,2.45014 -7.20647,16.91569 -8.6249,20.94581 -1.75351,4.9822 -4.7457,11.18827 -7.22225,14.97958 -1.17917,1.80518 -2.69523,4.82702 -3.36902,6.71521 -1.93601,5.4254 -5.29478,13.34423 -8.25521,19.46291 -2.45846,5.0812 -2.74438,5.95799 -2.92316,8.96393 -0.18905,3.17872 -0.37102,3.68197 -2.24299,6.20316 -0.25801,0.34756 -0.0878,0.96504 0.49079,1.78048 0.4872,0.68668 1.39607,2.86692 2.0197,4.84504 0.90842,2.88151 1.13386,4.46015 1.13386,7.93993 0,4.26103 -0.0251,4.36835 -1.31707,5.66044 -1.15807,1.15809 -1.48497,1.27203 -2.70774,0.94407 -0.76488,-0.20511 -3.34025,-0.3742 -5.72306,-0.37564 -3.97876,-0.004 -4.50275,0.0975 -6.41943,1.22416 -1.14786,0.67468 -2.90248,2.13405 -3.89914,3.24297 -4.45558,4.95742 -5.8747,6.14488 -7.33449,6.13722 -0.7752,-0.004 -2.36222,-0.56828 -3.52671,-1.25384 z m 5.22923,-6.41904 c 2.09305,-2.59237 3.35323,-3.79162 5.65635,-5.38282 2.83397,-1.95798 5.11785,-2.60246 10.29419,-2.90491 l 4.76563,-0.27844 0.14435,-1.26649 c 0.0794,-0.69656 -0.18238,-2.45118 -0.58173,-3.89915 -0.91503,-3.31787 -4.43762,-10.61808 -5.60928,-11.62462 -1.3134,-1.12833 -9.24034,-4.90262 -11.6022,-5.52415 -1.31816,-0.34689 -3.7977,-0.46949 -6.93182,-0.34274 -4.19639,0.16976 -5.51303,0.41879 -9.40425,1.77884 -5.86325,2.04935 -6.18011,2.36098 -4.53435,4.45946 4.10875,5.23894 7.34332,9.81234 8.54824,12.08646 1.30883,2.47024 1.37873,2.84629 1.40625,7.5666 l 0.0287,4.96722 2.2205,0.8926 c 1.22127,0.49089 2.36174,1.03384 2.53436,1.20644 0.68063,0.68066 1.48048,0.228 3.06482,-1.7343 z m 19.41686,-29.58012 c 0.7454,-3.39378 -0.76519,-5.98836 -3.92599,-6.74319 -0.70031,-0.16724 -2.71926,-1.0575 -4.48657,-1.97839 -1.7673,-0.92085 -3.63341,-1.67429 -4.1469,-1.67429 -0.5135,0 -1.85272,-0.31314 -2.97605,-0.69591 -1.68673,-0.57474 -2.26701,-0.6029 -3.33198,-0.1618 -1.61176,0.66757 -1.95452,1.939 -1.28037,4.74916 0.47144,1.96522 0.63745,2.17386 1.72948,2.17386 2.46819,0 12.25656,3.97094 14.73459,5.97753 0.96224,0.77919 1.19471,0.80726 2.2343,0.26967 0.71405,-0.36927 1.27153,-1.10641 1.44949,-1.91665 z m 1.43775,-8.58853 c 0.0762,-0.51746 -0.0513,-0.94087 -0.2828,-0.94087 -0.2317,0 -1.10435,-1.02352 -1.93925,-2.2745 -0.83491,-1.25098 -2.11972,-2.84582 -2.85515,-3.54407 l -1.33713,-1.26952 -5.29958,0.54615 c -5.70468,0.58794 -5.97071,0.65708 -5.97071,1.55168 0,0.60576 1.64902,1.25522 4.33239,1.70627 0.83398,0.14019 2.80008,0.91387 4.3691,1.71931 1.56902,0.80539 3.42493,1.59007 4.12424,1.74365 0.69932,0.15359 1.85254,0.66221 2.56272,1.1302 1.52627,1.00585 2.10769,0.91257 2.29617,-0.3683 z m 2.22913,-3.94508 c 0.68096,-1.27238 0.59329,-1.50485 -1.42287,-3.77242 -1.02924,-1.15762 -2.48184,-2.98207 -3.22799,-4.05434 -0.74616,-1.07227 -2.33375,-3.00373 -3.52799,-4.2921 -1.19423,-1.28841 -2.9097,-3.27888 -3.81214,-4.42332 -0.90243,-1.14445 -1.78252,-2.08861 -1.95574,-2.09818 -0.17319,-0.01 -0.63488,0.47093 -1.02592,1.06771 -0.69187,1.05594 -0.66228,1.14826 1.10029,3.43286 0.99621,1.29127 3.60241,4.27386 5.79156,6.62799 2.18915,2.35414 4.60987,5.19588 5.37937,6.31503 1.53749,2.23607 2.02874,2.45369 2.70143,1.19677 z m 2.59892,-4.55849 c 0.64949,-0.7826 0.23241,-1.53532 -0.85072,-1.53532 -0.44845,0 -0.94111,0.20352 -1.09483,0.4522 -0.28727,0.46483 0.51065,1.71399 1.09483,1.71399 0.17991,0 0.56275,-0.28389 0.85072,-0.63089 z m -14.13725,-1.9566 c 0.19828,-0.18869 0.10263,-0.75596 -0.21255,-1.26059 -0.5085,-0.81427 -0.97583,-0.91756 -4.15134,-0.91756 h -3.57832 v 1.56759 1.56759 l 3.79084,-0.30697 c 2.08497,-0.16883 3.95307,-0.46139 4.15134,-0.65004 z m 15.62299,-2.43021 c 0.67479,-1.75847 0.39672,-1.91413 -3.41956,-1.91413 -3.78963,0 -4.08937,0.16323 -3.23405,1.76142 0.37645,0.70345 0.92554,0.83801 3.41956,0.83801 2.30957,0 3.02963,-0.15256 3.23405,-0.6853 z m -19.66602,-2.9442 c 0,-0.97262 -1.05892,-1.63686 -1.65662,-1.03917 -0.85032,0.85032 -0.57489,1.636 0.57352,1.636 0.63114,0 1.0831,-0.24904 1.0831,-0.59683 z m 21.66903,-1.88351 c 0.15872,-0.18463 0.73426,-1.70042 1.279,-3.36839 0.54473,-1.66797 1.33255,-3.71502 1.75071,-4.54901 l 0.7603,-1.51633 -2.46692,-2.7168 -2.46693,-2.7168 -4.95542,0.43855 c -2.72548,0.24124 -6.27621,0.44024 -7.8905,0.44229 -2.7889,0.004 -2.9603,0.0631 -3.44117,1.19514 -0.27834,0.65527 -0.51722,2.27996 -0.53083,3.61044 -0.0226,2.22052 0.13522,2.62651 1.92484,4.94767 1.07226,1.39079 2.51329,3.09294 3.20229,3.78261 l 1.25271,1.25397 5.64668,-0.23385 c 3.10567,-0.1286 5.77653,-0.38487 5.93524,-0.56949 z m 6.25031,-13.21266 c 0.83117,-1.18664 0.85309,-1.63656 0.0797,-1.63656 -0.93756,0 -4.15898,-3.75927 -5.13234,-5.98924 -0.73918,-1.69347 -2.31086,-3.70322 -6.09437,-7.79304 -0.28927,-0.31267 -1.28579,-1.05742 -2.21453,-1.65501 -1.33117,-0.85651 -1.76539,-0.96544 -2.05126,-0.5146 -0.56634,0.8932 -0.44635,1.45694 0.49059,2.30486 0.47657,0.43132 0.86648,1.10907 0.86648,1.50619 0,1.35523 11.64015,14.67546 12.86429,14.72104 0.28434,0.0103 0.82047,-0.41402 1.1914,-0.94364 z m 3.21379,-6.17568 c 0.74789,-1.78168 1.35979,-3.43882 1.35979,-3.68253 0,-0.26921 -1.53055,-0.44312 -3.89915,-0.44312 -4.11638,0 -4.4011,0.16919 -3.34225,1.98594 0.79006,1.35557 3.95378,5.33954 4.25697,5.36067 0.14569,0.0103 0.87676,-1.43928 1.62464,-3.22095 z m -13.42332,2.12791 c 0.09,-0.0849 -0.76032,-1.29588 -1.88958,-2.69096 l -2.05323,-2.53651 -2.60753,0.10658 c -1.43414,0.0586 -2.78341,0.28245 -2.99838,0.49746 -0.66352,0.66352 -2.07127,4.74815 -1.74966,5.07665 0.28989,0.2961 10.95791,-0.13178 11.29838,-0.45317 z m -6.59109,-7.79903 c 0.36111,-0.94097 -0.5556,-1.82588 -1.21175,-1.16974 -0.55456,0.55456 -0.21102,1.84872 0.49078,1.84872 0.25325,0 0.57768,-0.30553 0.72099,-0.67898 z m 22.73302,-1.42932 c 0.15164,-0.15097 1.00372,-2.11204 1.89349,-4.3579 1.5364,-3.87804 1.57829,-4.11226 0.83288,-4.65732 -0.43167,-0.31565 -0.91434,-0.57393 -1.07255,-0.57393 -0.15821,0 -1.07451,-1.121 -2.03622,-2.49112 -2.87456,-4.09531 -2.65566,-3.99703 -9.34073,-4.19401 l -5.89921,-0.17381 -2.06047,4.04011 c -1.94161,3.80705 -2.0246,4.10711 -1.43879,5.2017 0.34192,0.63888 1.35258,1.53447 2.24592,1.99022 0.89333,0.45574 1.84877,1.26665 2.12319,1.80201 0.27444,0.53535 1.20699,1.71572 2.07237,2.62304 l 1.57342,1.64968 5.41549,-0.2921 c 2.97852,-0.16062 5.53956,-0.41561 5.69121,-0.56657 z m 5.37849,-12.82452 c 0.34526,-0.82634 0.62775,-1.81368 0.62775,-2.1941 0,-0.77057 -2.25018,-3.59555 -6.52594,-8.19293 -3.71176,-3.99099 -5.52038,-6.36851 -6.092,-8.00827 -0.5087,-1.45922 -0.88808,-1.63407 -1.62333,-0.74815 -1.21997,1.46998 -1.02437,3.03818 0.68383,5.4825 0.91586,1.31055 2.19209,3.28744 2.83606,4.39309 0.64396,1.10565 2.19871,3.28131 3.45498,4.83481 1.25629,1.55349 2.8286,3.5245 3.49403,4.38 1.51834,1.95204 2.34534,1.966 3.14462,0.0531 z m 3.38464,-7.97471 c 0.62824,-1.39991 1.14226,-2.78592 1.14226,-3.08002 0,-0.39078 -0.86693,-0.49095 -3.22014,-0.3721 -1.77107,0.0894 -3.35562,0.2981 -3.52123,0.46369 -0.29533,0.29533 3.66958,5.52894 4.19108,5.53212 0.14615,8.6e-4 0.77979,-1.14377 1.40803,-2.54369 z m -14.45434,1.90386 c 0,-0.27603 -2.95935,-4.93289 -3.95486,-6.22338 l -0.78385,-1.0161 -1.70086,3.48057 c -0.93548,1.91431 -1.59139,3.59003 -1.45759,3.72384 0.29553,0.29553 7.89716,0.32929 7.89716,0.0349 z m 14.14563,-8.02333 c 1.69683,0 1.88421,-0.10279 1.88421,-1.0334 0,-0.81269 -0.62602,-1.41164 -2.93131,-2.80451 -1.61221,-0.97412 -4.00044,-2.13939 -5.30717,-2.58949 -1.30673,-0.4501 -3.40988,-1.26365 -4.67366,-1.80787 -1.53009,-0.65889 -2.44236,-0.84491 -2.73052,-0.55675 -0.67497,0.67496 1.42999,4.96682 3.57992,7.29922 l 1.87611,2.03533 3.2091,-0.27126 c 1.76501,-0.14922 4.05701,-0.27125 5.09332,-0.27125 z m 4.65628,-5.74042 c 0.84049,-0.75342 1.11304,-1.46338 1.20018,-3.12637 0.11023,-2.10305 0.0816,-2.15796 -1.26945,-2.43427 -0.76022,-0.15549 -2.57062,-0.99063 -4.02313,-1.85588 -1.45251,-0.86526 -2.87065,-1.57846 -3.15142,-1.58491 -1.03157,-0.0236 -6.52527,-2.59266 -7.49743,-3.50597 -0.81338,-0.76412 -1.12344,-0.84157 -1.64298,-0.41037 -0.98584,0.81816 -1.52899,3.09419 -1.19335,5.00055 0.36409,2.06793 1.95578,3.13483 7.04222,4.72037 1.80637,0.56308 4.31395,1.73205 5.57242,2.59772 2.66352,1.83218 3.47776,1.93048 4.96294,0.59915 z m 6.81981,-8.5246 c 5.13311,-1.05646 7.24371,-1.77023 13.15317,-4.44813 5.69763,-2.58192 8.64457,-4.07588 10.39774,-5.27115 1.6824,-1.14704 7.14845,-6.37731 7.14845,-6.84011 0,-0.79125 -5.50541,0.26238 -8.43367,1.61407 -1.67594,0.77362 -4.21691,1.62214 -5.64663,1.88561 -1.42967,0.26346 -4.66095,0.87083 -7.18059,1.3497 -3.84076,0.72996 -4.96108,0.79225 -6.93182,0.38539 -2.89001,-0.59665 -8.0078,-3.5744 -8.74119,-5.08599 -0.50495,-1.04079 -0.72066,-1.10817 -3.21405,-1.00402 -2.8397,0.11859 -3.75483,-0.20403 -7.68207,-2.7085 -1.86009,-1.18621 -2.34927,-1.83738 -3.94636,-5.25321 -1.00269,-2.14453 -1.97132,-4.38654 -2.15251,-4.98225 -0.89252,-2.93433 -2.50619,-5.61378 -3.86295,-6.41429 -1.26862,-0.74849 -1.55464,-1.28003 -2.40768,-4.47431 -0.9531,-3.56897 -1.4876,-4.68524 -1.99869,-4.17415 -0.38672,0.38672 0.6193,19.73543 1.14358,21.99458 0.85455,3.68235 6.80463,15.5966 7.78906,15.5966 0.20917,0 1.02065,0.55395 1.80335,1.231 1.51655,1.31185 6.0415,3.5314 7.21587,3.53949 0.38821,0.003 2.07052,0.87492 3.73849,1.93831 3.49437,2.22779 4.09759,2.29676 9.8085,1.12137 z m 8.86023,-14.10745 c 1.16971,-0.35485 2.69882,-0.64727 3.39804,-0.64986 2.31563,-0.009 6.3104,-1.35502 6.3104,-2.127 0,-1.69712 6.93133,-20.50848 7.98613,-21.67401 0.63971,-0.70689 5.52234,-12.98173 7.92261,-19.91735 0.6102,-1.7632 2.27726,-5.4674 3.70457,-8.23154 2.41396,-4.67488 4.64637,-10.62747 8.38388,-22.35526 4.46857,-14.02177 5.15467,-15.75586 10.79904,-27.29406 1.51537,-3.09766 3.62159,-7.87412 4.68055,-10.61436 2.61595,-6.76898 6.41483,-16.12655 7.81269,-19.2445 0.63247,-1.41065 1.72407,-4.52996 2.42576,-6.93183 2.02397,-6.92756 4.20367,-12.89779 6.78601,-18.58687 1.31713,-2.90174 3.84953,-9.27252 5.62754,-14.15729 1.77805,-4.88477 3.88659,-10.53854 4.68573,-12.56393 0.7991,-2.02539 2.16118,-5.63211 3.02684,-8.01492 0.8656,-2.38282 2.33042,-6.28196 3.25509,-8.66478 0.92466,-2.38281 2.88084,-8.13406 4.34699,-12.78055 4.7234,-14.96912 9.99543,-31.24535 12.2088,-37.69179 1.18627,-3.45508 3.13865,-9.20632 4.33863,-12.78054 1.19992,-3.574221 3.79452,-10.982611 5.76573,-16.463081 1.97121,-5.48048 4.30754,-12.49113 5.19182,-15.57924 0.88423,-3.0881 1.97511,-6.59734 2.42412,-7.7983 1.75271,-4.68772 6.57587,-20.61332 7.5498,-24.92861 0.56468,-2.50195 1.3473,-5.42631 1.73916,-6.49858 0.7858,-2.15007 2.78072,-10.17806 3.12212,-12.56393 0.15087,-1.05394 0.0775,-1.38422 -0.23964,-1.0831 -0.51542,0.48886 -3.94258,8.50382 -5.46492,12.78055 -0.55129,1.54883 -1.70698,4.34977 -2.56817,6.22431 -1.42105,3.09325 -4.2283,9.72472 -6.41309,15.14945 -0.4639,1.15204 -2.80849,6.41589 -5.20998,11.69745 -6.45276,14.19138 -8.32672,18.35977 -11.91321,26.49915 -1.78488,4.05078 -3.63519,8.24237 -4.11171,9.31464 -0.47673,1.072261 -1.99631,4.971411 -3.37733,8.664771 -1.38102,3.69336 -4.07096,10.32192 -5.97767,14.73012 -1.90676,4.40821 -4.38908,10.25694 -5.51629,12.99717 -1.12726,2.74024 -2.7353,6.54191 -3.57356,8.44816 -1.69379,3.85211 -2.5226,5.79295 -3.97757,9.31464 -0.54143,1.31055 -1.28064,3.06517 -1.64268,3.89915 -2.53861,5.84824 -7.04335,17.65649 -7.04335,18.46271 0,0.5386 -0.28686,2.21594 -0.63735,3.72743 -0.35049,1.51147 -0.91989,5.97231 -1.2652,9.91295 -0.6178,7.04954 -0.66973,7.27586 -3.228,14.06675 -1.43002,3.79606 -3.20767,9.04647 -3.95032,11.66756 -1.93493,6.82936 -2.8423,9.23427 -5.96607,15.81322 -2.77492,5.84426 -6.47051,14.85093 -8.82541,21.50876 -0.68656,1.94114 -2.19962,5.54786 -3.36229,8.01492 -1.16267,2.46707 -2.94827,6.63011 -3.96798,9.25121 -5.27392,13.55633 -11.81822,28.6996 -16.85049,38.9915 -1.16509,2.38282 -2.87823,5.89205 -3.807,7.79831 -8.11306,16.65154 -12.46172,24.76745 -14.55544,27.16479 -2.29082,2.62301 -4.32191,4.05683 -5.08162,3.58731 -0.77808,-0.48089 -0.4291,-1.91609 0.63547,-2.61365 2.61969,-1.71648 5.5092,-6.58461 13.80151,-23.25221 4.65639,-9.35932 9.4816,-19.35643 10.72268,-22.2158 1.24113,-2.85938 3.61056,-8.21097 5.2655,-11.89242 4.0761,-9.06751 4.97142,-11.23178 6.69887,-16.19257 0.81526,-2.34126 2.84318,-7.19143 4.50649,-10.77814 1.66326,-3.58672 3.89977,-8.93695 4.97003,-11.88941 2.6026,-7.1799 4.48965,-11.70303 8.01672,-19.21556 1.6553,-3.52581 3.64093,-8.65795 4.52573,-11.69744 1.9048,-6.54353 5.27756,-16.54304 6.28351,-18.62928 0.89593,-1.85813 1.54939,-5.72931 2.28527,-13.53872 0.44645,-4.73818 0.45107,-5.95703 0.0205,-5.95703 -0.29661,0 -0.74276,0.38081 -0.99184,0.84629 -0.24889,0.46544 -1.56038,1.74841 -2.91394,2.85101 -5.69898,4.64234 -9.41986,11.4435 -16.10965,29.44548 -0.70842,1.90625 -2.2459,5.70792 -3.41663,8.44815 -1.17078,2.74024 -2.7349,6.54192 -3.47591,8.44817 -5.39066,13.86785 -5.33729,13.73853 -8.85235,21.44533 -0.70642,1.54882 -1.58895,3.59588 -1.9612,4.549 -0.37204,0.95313 -0.83143,1.93643 -1.02037,2.18512 -0.64977,0.85526 -12.59587,25.97839 -13.88073,29.19172 -0.70734,1.76897 -2.22887,4.98577 -3.38119,7.14844 -2.62685,4.9301 -7.16695,15.86954 -10.26247,24.72761 -0.58289,1.66797 -2.12355,6.86022 -3.42368,11.53831 -2.3321,8.39128 -2.36388,8.58515 -2.36388,14.41879 0,5.08757 -0.0995,5.95133 -0.71251,6.18657 -0.4386,0.16832 -0.95162,-0.0452 -1.33454,-0.55515 -1.08757,-1.44864 -0.52039,-12.02539 0.90403,-16.8584 0.63206,-2.14453 1.85399,-6.33611 2.71541,-9.31463 0.86142,-2.97852 2.19957,-7.07263 2.97367,-9.09802 4.22937,-11.06599 6.26014,-15.93101 8.77092,-21.01209 1.53068,-3.09766 3.72198,-7.77664 4.86952,-10.39774 1.94272,-4.4374 6.98269,-15.02403 11.24076,-23.61152 3.60804,-7.27658 9.43597,-20.72788 11.73165,-27.07743 0.77534,-2.14454 1.54293,-4.09411 1.7057,-4.33239 0.16268,-0.23827 0.84949,-1.89542 1.52599,-3.68253 0.67645,-1.78711 1.90594,-4.80896 2.73208,-6.7152 0.82619,-1.90626 2.16611,-5.22054 2.97762,-7.36507 3.82275,-10.1023 5.16564,-13.30986 7.25514,-17.32956 2.22804,-4.28614 6.88263,-11.04759 7.60521,-11.04759 0.54688,0 8.68999,-8.21868 8.68999,-8.77063 0,-0.25745 0.95228,-2.6297 2.11618,-5.27167 1.1639,-2.64197 2.25191,-5.29099 2.41776,-5.88669 0.31303,-1.12516 6.18417,-15.37446 7.58628,-18.41266 1.92826,-4.1782 2.72115,-6.02935 5.38138,-12.56393 4.58495,-11.26234 5.26237,-12.84671 6.85405,-16.02984 0.83399,-1.66797 2.15322,-4.98225 2.93154,-7.36506 0.77836,-2.38281 3.07625,-8.134061 5.10647,-12.780551 2.03028,-4.64649 4.32006,-9.91034 5.08852,-11.69745 0.76841,-1.78711 1.98819,-4.51651 2.71057,-6.06535 3.41956,-7.33131 13.0609,-28.92883 13.33272,-29.86644 0.16832,-0.58083 1.27608,-3.31024 2.46159,-6.06535 5.95283,-13.8344 7.92625,-18.84787 7.25595,-18.43359 -0.61553,0.3804 -2.02909,2.66277 -4.55785,7.35896 -1.15472,2.14453 -3.25755,6.04368 -4.6729,8.66478 -1.41536,2.62109 -3.77334,7.00764 -5.2399,9.74788 -1.46657,2.74023 -3.36327,6.05451 -4.21486,7.36506 -0.85159,1.31055 -2.08554,3.45508 -2.74208,4.76562 -1.49592,2.9859 -2.8032,5.06918 -8.29326,13.21614 -4.28716,6.36189 -9.92928,15.36361 -13.17574,21.02121 -3.14964,5.488911 -11.98424,23.208601 -13.17041,26.416111 -0.6609,1.78711 -2.25345,5.46222 -3.53897,8.16692 -1.28552,2.7047 -2.33735,5.01094 -2.33735,5.12498 0,1.1625 -7.51824,17.57861 -9.61958,21.00437 -0.68148,1.11099 -1.53344,3.1503 -1.89332,4.5318 -0.35972,1.3815 -1.41689,3.98175 -2.349,5.77833 -0.9321,1.79657 -2.39462,4.82616 -3.25006,6.73242 -0.85539,1.90624 -2.30178,4.73313 -3.21424,6.28196 -0.91245,1.54883 -2.94976,5.01404 -4.52732,7.70047 -1.57761,2.68643 -4.12279,7.51178 -5.65597,10.72301 -1.53317,3.21122 -3.46471,6.95944 -4.29229,8.32936 -0.82758,1.36994 -2.03418,4.05045 -2.68138,5.9567 -0.6472,1.90625 -4.8344,10.87429 -9.30496,19.92899 -4.47057,9.05469 -8.86036,18.12022 -9.75511,20.14561 -0.8948,2.02539 -1.78411,3.88344 -1.97619,4.12899 -0.19212,0.24554 -1.74944,3.94974 -3.46071,8.23154 -3.40639,8.52325 -5.01732,11.88541 -10.37261,21.64873 -1.96049,3.57422 -5.6257,10.59269 -8.14489,15.5966 -2.5192,5.00391 -5.64274,10.85264 -6.94122,12.99717 -2.76324,4.56371 -4.2845,8.0256 -6.66323,15.16336 -0.95291,2.85938 -2.29745,6.69993 -2.98786,8.53455 -0.69041,1.83463 -1.2553,3.58992 -1.2553,3.90066 0,0.31072 0.68236,1.97155 1.51634,3.69068 0.83399,1.71914 1.51634,3.29433 1.51634,3.50041 0,0.20609 0.66959,1.91817 1.48799,3.80462 2.31553,5.33745 4.94374,7.20266 10.62829,7.54281 3.54946,0.21239 3.68962,0.2615 4.33239,1.5192 0.36537,0.71484 0.80407,1.36255 0.97493,1.43937 0.17088,0.0768 1.04818,0.64724 1.94958,1.26762 3.35203,2.307 6.48442,2.80067 10.34314,1.63008 z"
       id="path303" /><path
       style="fill:#ffffff;fill-rule:evenodd;stroke-width:0.433239"
       d="m 55.769056,212.70306 c -1.012177,-0.70895 -1.839835,-3.04919 -1.843776,-5.21334 -0.0037,-2.03595 2.042847,-3.77676 4.502658,-3.83 1.583865,-0.0344 2.177968,0.18967 3.264583,1.23056 1.119438,1.07233 1.328361,1.59804 1.328361,3.34253 0,1.69764 -0.241904,2.34557 -1.344597,3.60148 -1.135879,1.29369 -1.625297,1.5314 -3.152894,1.5314 -0.994564,0 -2.234015,-0.29819 -2.754335,-0.66263 z m 3.860107,-2.6538 c 1.49868,-1.35629 0.754544,-3.61539 -1.19089,-3.61539 -1.344243,0 -2.071717,1.05346 -1.713386,2.48116 0.477035,1.90069 1.580965,2.33181 2.904276,1.13423 z"
       id="path305" /><path
       style="fill:#ffffff;fill-rule:evenodd;stroke-width:0.433239"
       d="m 41.990331,238.37095 c -0.829013,-0.71309 -1.211663,-1.53721 -1.371287,-2.9534 -0.283471,-2.51476 0.969307,-4.14395 3.647746,-4.74381 2.466154,-0.55232 5.78135,0.61745 6.352495,2.24148 0.55948,1.59088 -0.04567,4.20152 -1.254451,5.41012 -1.472113,1.47211 -5.685799,1.49817 -7.374503,0.0457 z m 5.78892,-3.2343 c 0.103864,-0.73117 -0.163186,-1.08873 -1.070821,-1.43381 -1.502128,-0.57111 -3.183303,0.0855 -3.183303,1.24331 0,1.19657 0.437009,1.43534 2.367099,1.29329 1.435694,-0.10566 1.773431,-0.30303 1.887025,-1.10279 z"
       id="path307" /><path
       style="fill:#ffffff;fill-rule:evenodd;stroke-width:0.433239"
       d="m 19.35834,296.43926 c -0.244625,-0.29784 -0.422333,-2.29616 -0.39493,-4.4407 0.04567,-3.59096 -0.06014,-4.11218 -1.341262,-6.59453 -0.765088,-1.48247 -1.395795,-2.94465 -1.401574,-3.24929 -0.0056,-0.30467 -0.687329,-1.43122 -1.514551,-2.50349 -3.513328,-4.55404 -3.847797,-5.17976 -3.419594,-6.39735 0.328629,-0.93444 1.045095,-1.37481 3.865429,-2.37588 5.41854,-1.92329 6.186066,-2.04451 10.393246,-1.64152 10.071934,0.96477 13.215708,3.23255 15.144864,10.92486 0.978944,3.90344 0.779345,6.02191 -0.630748,6.69447 -4.612398,2.19993 -7.166375,3.24205 -8.894761,3.62939 -2.938315,0.65849 -4.913758,1.81499 -7.33541,4.29441 -2.152844,2.20419 -3.586439,2.73638 -4.470704,1.65963 z m 6.740486,-6.9901 c 0.6552,-0.33884 2.358447,-0.95471 3.784991,-1.36865 1.426544,-0.41392 4.022369,-1.43003 5.768496,-2.25798 l 3.174779,-1.50537 -0.296248,-2.22464 c -0.162929,-1.22356 -0.687663,-3.14628 -1.166033,-4.27272 -0.733944,-1.72825 -1.284932,-2.27855 -3.528379,-3.52403 -4.81893,-2.67528 -11.787886,-3.14049 -16.9555,-1.13186 -1.42969,0.55571 -2.675514,1.0678 -2.768499,1.13798 -0.09298,0.0702 0.519325,0.88956 1.36069,1.82086 1.579118,1.74789 5.099835,8.64711 5.919976,11.60081 0.255914,0.92157 0.466362,2.42686 0.467645,3.3451 l 0.0024,1.66952 1.522182,-1.33649 c 0.837203,-0.73507 2.058262,-1.61371 2.713462,-1.95253 z"
       id="path311" /><path
       style="fill:#ffffff;fill-rule:evenodd;stroke-width:0.433239"
       d="m 21.122421,284.98609 c -0.17899,-0.46651 0.0062,-0.89708 0.512495,-1.19141 3.518722,-2.04554 6.312494,-4.24784 7.592018,-5.98469 1.496483,-2.03136 2.730242,-2.60781 3.163721,-1.47819 0.852393,2.22131 -6.849821,9.3848 -10.090583,9.3848 -0.493508,0 -1.023481,-0.32873 -1.177661,-0.73051 z"
       id="path313" /></g></svg>
