<?xml version="1.0" encoding="UTF-8" standalone="no"?>
<!-- Created with Inkscape (http://www.inkscape.org/) -->

<svg
   width="512"
   height="512"
   viewBox="0 0 512 512"
   version="1.1"
   id="svg5"
   inkscape:version="1.2.1 (9c6d41e410, 2022-07-14)"
   sodipodi:docname="potion_magicka.svg"
   xml:space="preserve"
   inkscape:export-filename="potion_magicka.png"
   inkscape:export-xdpi="96"
   inkscape:export-ydpi="96"
   xmlns:inkscape="http://www.inkscape.org/namespaces/inkscape"
   xmlns:sodipodi="http://sodipodi.sourceforge.net/DTD/sodipodi-0.dtd"
   xmlns="http://www.w3.org/2000/svg"
   xmlns:svg="http://www.w3.org/2000/svg"><sodipodi:namedview
     id="namedview7"
     pagecolor="#ffffff"
     bordercolor="#999999"
     borderopacity="1"
     inkscape:pageshadow="0"
     inkscape:pageopacity="0"
     inkscape:pagecheckerboard="true"
     inkscape:document-units="px"
     showgrid="false"
     height="70mm"
     units="px"
     inkscape:zoom="1.4805976"
     inkscape:cx="107.38907"
     inkscape:cy="204.30939"
     inkscape:window-width="2560"
     inkscape:window-height="1351"
     inkscape:window-x="2391"
     inkscape:window-y="-9"
     inkscape:window-maximized="1"
     inkscape:current-layer="layer1"
     inkscape:showpageshadow="2"
     inkscape:deskcolor="#d1d1d1" /><defs
     id="defs2" /><g
     inkscape:label="Layer 1"
     inkscape:groupmode="layer"
     id="layer1"><path
       style="fill:#ffffff;fill-rule:evenodd;stroke-width:0.893807"
       d="m 269.37069,511.10738 c -36.001,-1.02527 -39.1629,-1.03451 -69.9176,-0.20411 -29.7221,0.80252 -27.7307,1.27786 -37.2635,-8.89482 -12.2634,-13.08664 -18.002,-21.69323 -20.8667,-31.29537 -1.0888,-3.64966 0.8044,-56.46158 2.289,-63.85123 0.6413,-3.19256 2.8155,-13.03816 4.8314,-21.8791 3.1295,-13.72472 3.805,-18.55469 4.6207,-33.04189 0.5255,-9.33211 1.5315,-19.98141 2.2357,-23.66515 2.2575,-11.8097 2.6594,-23.75836 1.0667,-31.71777 -4.9533,-24.75439 -5.0825,-39.47994 -0.5167,-58.92417 2.4726,-10.53012 7.121,-24.52554 8.8995,-26.79471 0.6768,-0.8636 13.7716,-24.92331 22.1125,-40.62862 4.1474,-7.80928 5.4866,-10.09426 12.4411,-21.22774 l 4.0557,-6.49284 -0.5929,-7.34903 c -0.6106,-7.56798 -0.6659,-9.67887 -0.6734,-25.65604 -0.01,-15.485718 0,-16.416068 0.1091,-19.200008 0.059,-1.47349 -0.051,-7.77998 -0.2434,-14.01442 -0.4097,-13.25887 0.5725,-15.98591 6.6102,-18.35343 3.4752,-1.36272 3.5192,-1.43772 2.9614,-5.04728 -0.3114,-2.01519 -1.7347,-8.28539 -3.1627,-13.93377 -1.4281,-5.64838 -2.9613,-13.64293 -3.4072,-17.76567 -1.0532,-9.73733 0.087,-12.83879 5.6173,-15.28086 6.3545,-2.80595 14.0331,-4.46005 20.7378,-4.46723 3.4638,-0.004 8.8853,-0.4258 12.0477,-0.93803 3.9931,-0.64675 14.0796,-0.64549 33.0129,0.004 30.8982,1.06016 31.8335,1.27158 33.9916,7.68398 1.4417,4.28344 0.8592,9.76606 -2.0825,19.60086 -1.1754,3.92931 -2.3756,8.75164 -2.6674,10.71629 -0.2917,1.96466 -0.9705,5.87259 -1.5085,8.68429 l -0.9781,5.11219 4.952,5.3394 c 5.7317,6.17998 6.9998,10.27803 4.804,15.52407 -1.2227,2.92116 -1.1916,3.46076 0.3761,6.53026 1.4804,2.89865 1.6505,4.71849 1.2722,13.61221 -0.3878,9.118568 -0.2282,10.695928 1.4273,14.109868 1.65,3.40238 1.7352,4.22953 0.7426,7.20524 -1.0098,3.02758 -1.4165,6.80074 -1.7578,16.31048 -0.062,1.71908 0.1475,5.13489 0.4649,7.5907 0.8751,6.7728 -1.7622,10.82793 -10.1196,15.55971 -0.9637,0.54566 -0.7652,1.55689 0.9939,5.0634 1.209,2.40987 3.06,6.99366 4.1133,10.18623 1.0533,3.19256 3.3186,8.12749 5.0338,10.9665 3.6467,6.03554 8.2682,17.06841 18.7863,44.84751 2.4446,6.45662 6.3541,15.20107 9.582,21.43258 6.3635,12.28494 6.377,12.32645 7.0928,21.87909 2.7026,36.06709 3.5934,45.88226 4.7008,51.79541 0.6899,3.68372 1.7307,11.92187 2.313,18.30699 0.5823,6.38512 1.4796,15.02514 1.9941,19.20002 0.5144,4.17489 1.2538,15.02513 1.6431,24.11166 0.8493,19.82396 2.3119,38.66419 3.5704,45.99073 0.5062,2.94699 1.5079,9.37676 2.226,14.28839 0.718,4.91164 1.7259,10.93955 2.2397,13.39536 1.3381,6.39597 0.362,10.5249 -3.7012,15.65626 -1.9602,2.47547 -4.7224,7.70732 -6.2341,11.80826 -3.8452,10.43039 -10.0509,23.14771 -12.2358,25.0744 -1.3459,1.18677 -4.7643,1.97925 -12.4389,2.88363 -11.4941,1.35447 -22.5149,1.3802 -65.6006,0.15319 z m -65.058,-14.07783 c 4.0461,-0.9976 10.1746,-2.56726 13.6188,-3.48813 30.5971,-8.18084 30.7076,-8.2004 32.7149,-5.78602 1.9023,2.28805 -0.1461,4.24445 -5.582,5.33147 -15.0403,3.00759 -8.9896,4.07508 27.4373,4.84061 17.221,0.36188 31.4673,0.52637 31.6585,0.36543 0.5769,-0.48544 -4.4009,-2.16546 -11.9774,-4.04244 -13.4387,-3.32927 -16.5261,-4.41028 -17.4344,-6.10435 -1.2173,-2.27067 0.8327,-4.24536 5.1625,-4.97275 4.7707,-0.80148 18.7305,-4.53134 30.1638,-8.05934 5.4123,-1.6701 12.6585,-3.65951 16.1026,-4.42093 8.677,-1.91823 9.1929,-2.12536 7.6559,-3.07365 -2.8981,-1.78796 -43.8249,-2.99138 -105.2671,-3.0953 -29.0992,-0.0495 -36.4553,0.16434 -35.2297,1.02291 5.1834,3.63109 30.5122,9.53633 46.9599,10.94841 9.6345,0.82714 12.589,1.4429 17.221,3.58903 4.1747,1.93428 5.5912,3.05066 5.5912,4.40655 0,2.68591 -3.4227,3.13022 -8.5554,1.11061 -2.433,-0.95731 -9.0515,-2.22579 -14.7078,-2.81886 -16.758,-1.7571 -35.9272,-5.74536 -45.1484,-9.39339 -2.9658,-1.17331 -9.0155,-2.75748 -13.4437,-3.52038 -11.7167,-2.01856 -14.4899,-2.93684 -15.0238,-4.97482 -0.775,-2.95841 0.3488,-5.33029 2.83,-5.97307 5.479,-1.41939 108.1149,-0.31488 168.6465,1.81488 5.2396,0.18437 7.3235,2.25715 4.8009,4.7753 -1.4193,1.41683 -1.4245,1.6481 -0.07,3.14234 1.3552,1.49489 1.3473,1.73976 -0.1089,3.34595 -1.5279,1.68542 -4.1367,2.52185 -15.2561,4.89142 -2.9522,0.6291 -8.9907,2.369 -13.4189,3.86641 -4.4283,1.49739 -10.2655,3.21707 -12.9716,3.8215 -6.7551,1.50877 -7.9146,2.18742 -5.7307,3.35417 2.7266,1.45663 24.3167,7.06678 31.6739,8.23037 10.7927,1.70695 11.6053,1.41489 14.9066,-5.35733 1.5562,-3.19256 3.7233,-8.61769 4.8157,-12.05583 1.676,-5.27508 3.9096,-9.35009 9.294,-16.95616 0.5365,-0.7579 0.3064,-3.69463 -0.6414,-8.18727 -0.813,-3.85298 -2.1156,-12.22963 -2.8947,-18.61475 -0.7791,-6.38512 -1.7954,-14.22141 -2.2585,-17.41397 -0.4629,-3.19256 -1.2368,-15.44932 -1.7195,-27.23724 -0.4827,-11.78792 -1.2685,-23.84374 -1.7462,-26.79072 -0.4777,-2.94698 -1.3412,-11.58699 -1.919,-19.20002 -0.5778,-7.61304 -1.8401,-17.86049 -2.805,-22.77212 -0.965,-4.91163 -2.1237,-15.15908 -2.5748,-22.77212 -2.2823,-38.51098 -1.8034,-35.29272 -6.4995,-43.67757 -2.3134,-4.13054 -4.4507,-8.55101 -4.7495,-9.82326 -0.2989,-1.27225 -1.2672,-3.51876 -2.1518,-4.99225 -1.5349,-2.55658 -2.3901,-4.68455 -9.3322,-23.21863 -5.1532,-13.75821 -10.3138,-25.72277 -12.9149,-29.94278 -3.0208,-4.90076 -5.8098,-11.07634 -6.6426,-14.70843 -0.3379,-1.47348 -2.922,-7.16491 -5.7425,-12.6476 l -5.1282,-9.96851 -11.1824,-0.59059 c -6.1503,-0.32486 -13.3965,-0.66131 -16.1027,-0.74777 l -4.9202,-0.15718 0.2033,12.94885 c 0.7289,46.40474 0.7357,46.28353 -3.7842,66.49207 -1.1568,5.17193 -5.8616,20.18764 -8.0165,25.58505 -0.4118,1.03153 0.2068,1.75759 2.1996,2.5816 1.525,0.63057 3.3868,2.33196 4.1374,3.78093 1.2447,2.40276 1.2288,2.78443 -0.1808,4.33934 -1.1481,1.26638 -2.7565,1.70484 -6.2538,1.70484 h -4.7083 l -5.0918,10.04652 c -2.8006,5.52559 -6.2554,11.77458 -7.6775,13.88665 -1.422,2.11206 -2.5855,4.07759 -2.5855,4.36782 0,1.85487 -7.2309,9.41492 -11.4435,11.96431 l -5.0337,3.04638 h -13.4553 c -12.7054,0 -13.6202,-0.11743 -16.4142,-2.10673 -1.6275,-1.1587 -3.1405,-1.92551 -3.3624,-1.70401 -0.2219,0.22147 -0.7961,4.58533 -1.2761,9.69743 -0.4801,5.11209 -1.4685,13.11239 -2.1966,17.77844 -0.7281,4.66606 -1.7679,15.91815 -2.3108,25.00468 -0.6864,11.49023 -1.6589,19.37622 -3.1934,25.8977 -1.2134,5.15722 -2.9713,12.59164 -3.9064,16.52095 -3.0108,12.65249 -3.4947,16.67228 -4.0306,33.4884 -1.1019,34.57452 -1.1898,32.80576 1.9531,39.29307 1.5467,3.19256 5.04,8.32389 7.7628,11.40296 2.7229,3.07906 5.2684,6.09302 5.6566,6.69767 0.3883,0.6047 2.418,2.60637 4.5105,4.44823 l 3.8046,3.34884 h 8.9671 c 6.0017,0 11.3999,-0.59983 16.3238,-1.8138 z m -17.0456,-196.04169 c -1.2732,-0.89019 -1.9883,-2.31657 -1.9883,-3.96591 0,-2.8826 -1.3261,-4.28076 -2.1146,-2.2295 -0.2967,0.77163 -1.6396,1.33441 -3.1843,1.33441 -2.3058,0 -2.7458,-0.39713 -3.2154,-2.90233 -0.2992,-1.59628 -0.126,-4.7107 0.385,-6.92093 1.265,-5.47255 1.2702,-5.45521 -1.2969,-4.28761 -1.87,0.85053 -2.5343,0.76799 -3.7733,-0.46888 -1.534,-1.53133 -1.5101,-1.70333 1.1082,-7.96913 0.498,-1.19185 0.2182,-1.56279 -1.179,-1.56279 -1.0077,0 -2.0809,-0.40186 -2.385,-0.89302 -1.3212,-2.13403 -2.2326,-0.54965 -2.1832,3.79534 0.079,6.93657 1.3214,13.33789 2.8021,14.43655 0.7176,0.5325 2.0758,2.17371 3.0183,3.64719 0.9424,1.47349 3.0903,4.18606 4.7731,6.02792 2.6806,2.93405 3.565,3.34884 7.1405,3.34884 3.9488,0 4.0166,-0.0451 2.0928,-1.39017 z m 19.0347,-0.78555 c 2.467,-1.49369 3.1616,-2.30326 2.2365,-2.60667 -0.738,-0.24209 -2.8193,-0.89304 -4.6251,-1.44663 -1.8057,-0.55357 -3.7672,-1.58877 -4.3588,-2.30039 -1.1793,-1.41844 -7.1188,-1.80119 -7.1188,-0.45876 0,0.45927 1.6045,1.96628 3.5656,3.34884 1.9612,1.38255 3.7998,3.21698 4.086,4.07652 0.6958,2.08995 1.9556,1.9657 6.2146,-0.61291 z m 9.0234,-10.11704 c 1.0312,-0.69611 5.7374,-8.44054 5.7374,-9.44153 0,-0.32523 -2.4104,-0.59133 -5.3564,-0.59133 -5.2717,0 -5.3918,0.0562 -7.604,3.55435 -2.8432,4.49606 -2.8172,5.21647 0.2124,5.8835 1.3531,0.29788 2.8627,0.67572 3.3547,0.83953 1.5336,0.5107 2.6473,0.43614 3.6558,-0.24453 z m -17.5309,-5.56301 c 0.9145,-0.48861 3.174,-3.40205 5.021,-6.47442 1.8471,-3.07237 4.0916,-6.5445 4.9879,-7.71586 3.1438,-4.10857 2.372,-4.60107 -6.2526,-3.98995 -8.968,0.63544 -12.0895,-0.31488 -11.6294,-3.54074 0.2623,-1.83947 0.9491,-1.99902 12.2339,-2.84191 l 11.9559,-0.89302 2.9851,-5.80466 c 1.6418,-3.19256 3.0046,-6.29139 3.0285,-6.8863 0.024,-0.59488 -4.415,-5.41723 -9.8642,-10.71628 -5.4491,-5.29907 -10.2323,-10.43838 -10.6294,-11.42071 -0.8487,-2.10001 0.3875,-4.91163 2.1596,-4.91163 0.6824,0 5.801,4.41935 11.3746,9.82079 5.5736,5.40143 10.4358,9.82191 10.8048,9.82326 0.3691,0.002 0.6709,-0.55031 0.6709,-1.22594 0,-0.67564 0.936,-3.38818 2.0799,-6.0279 1.144,-2.63973 2.8046,-8.21532 3.6902,-12.39021 0.8857,-4.17488 2.4658,-11.20745 3.5113,-15.62792 3.3447,-14.14059 1.9946,-40.72896 -2.5085,-49.40529 -1.3318,-2.56596 -2.1285,-1.74796 -5.0654,5.20059 -1.1418,2.7014 -3.402,7.18949 -5.0228,9.97353 -1.6208,2.78404 -2.9468,5.28469 -2.9468,5.55699 0,0.27232 -0.982,2.61585 -2.1821,5.20788 -1.2002,2.59204 -2.8092,6.26586 -3.5756,8.16407 -0.7665,1.89821 -3.6592,7.24152 -6.4284,11.87402 -2.7692,4.63249 -6.2103,11.51849 -7.6469,15.30223 -1.4366,3.78371 -2.9785,7.6832 -3.4264,8.66553 -5.8802,12.89515 -8.9827,23.52009 -9.518,32.59539 -0.4812,8.15901 -0.2563,9.91463 2.6036,20.32806 2.0087,7.31411 5.1552,9.72928 9.5893,7.3604 z m -16.9884,-6.36129 c 0,-0.49119 -0.4026,-0.64468 -0.8946,-0.34111 -0.492,0.30357 -0.8946,0.95378 -0.8946,1.44494 0,0.4912 0.4026,0.64468 0.8946,0.34111 0.492,-0.3035 0.8946,-0.95378 0.8946,-1.44494 z m 47.2231,-10.66029 c 1.1254,-2.55579 1.8643,-4.82837 1.6421,-5.05017 -0.6177,-0.6166 -3.8401,1.31369 -6.3116,3.7809 -1.2186,1.21644 -2.9585,2.2117 -3.8665,2.2117 -1.853,0 -3.798,1.61894 -3.798,3.16133 0,0.67159 1.7507,0.93725 5.1439,0.78059 l 5.1439,-0.23743 z m -53.7502,-7.74953 c 3.3423,-3.28756 4.9739,-6.48945 3.3068,-6.48945 -0.2951,0 -2.6991,1.30605 -5.3422,2.90233 -4.7904,2.89307 -4.8056,2.91657 -4.7841,7.36745 0.021,4.45911 0.024,4.46211 1.4989,2.23256 0.8125,-1.22792 3.2068,-3.93372 5.3206,-6.01289 z m 56.365,-12.78614 c 0.5955,-0.82191 2.407,-2.02927 4.0257,-2.68304 3.132,-1.26496 4.2491,-2.36967 4.2713,-4.2238 0.01,-0.85839 -0.4225,-0.91467 -1.7167,-0.22324 -0.9517,0.50849 -2.7321,0.92444 -3.9563,0.92444 -1.7837,0 -2.4406,0.66537 -3.3065,3.34883 -0.5943,1.84186 -1.5313,3.92831 -2.0822,4.63655 -0.8013,1.03009 -0.7332,1.13035 0.3402,0.50117 0.738,-0.43259 1.8291,-1.45899 2.4245,-2.2809 z m -58.6982,0.2995 c 3.1789,-1.87457 3.3208,-2.93304 0.3931,-2.93304 -1.2645,0 -2.6,0.73683 -3.1311,1.72734 -1.7236,3.21494 -1.1201,3.48071 2.7379,1.2057 z m 7.7234,-2.57955 c -0.2973,-0.29677 -1.0689,-0.32848 -1.7146,-0.0702 -0.7137,0.2851 -0.5017,0.49667 0.5404,0.53953 0.9431,0.0384 1.4715,-0.17233 1.1742,-0.46903 z m -0.9623,-8.86339 c 2.6306,-1.24229 4.783,-2.6488 4.783,-3.12557 0,-0.47679 -2.4254,-0.86687 -5.3898,-0.86687 -4.9725,0 -5.4577,0.17861 -6.2685,2.30751 -1.7124,4.49605 0.022,4.9212 6.8753,1.68493 z m 63.1415,-6.14217 c 1.1461,-1.70171 0.8084,-5.1713 -0.4336,-4.45422 -6.5313,3.77099 -8.2077,6.98055 -3.1311,5.99469 1.5991,-0.31052 3.2032,-1.00374 3.5647,-1.54047 z m -53.8856,-8.16745 c 0,-0.57507 -2.3147,-1.50979 -5.1439,-2.07719 -4.5596,-0.91443 -5.2709,-0.85832 -6.2622,0.49393 -1.9868,2.71057 -1.2154,3.55813 4.0257,4.42267 4.1952,0.69205 5.3502,0.60485 6.2622,-0.47265 0.615,-0.72664 1.1182,-1.79167 1.1182,-2.36674 z m 57.7904,-9.9608 c 0.8713,-3.22244 0.093,-3.74996 -3.2202,-2.1833 -2.4645,1.16531 -3.1893,2.07892 -3.4048,4.29182 l -0.2737,2.81136 3.1829,-1.47445 c 1.7689,-0.81943 3.4196,-2.35002 3.7158,-3.44543 z m -52.904,-2.02203 c 0.632,-1.24199 1.4285,-3.16235 1.77,-4.26747 0.5923,-1.91673 0.3923,-2.00931 -4.3414,-2.00931 -4.8958,0 -4.9871,0.048 -6.8036,3.60273 -1.0127,1.98149 -1.6015,3.98982 -1.3086,4.46296 0.2929,0.47317 2.558,0.77227 5.0335,0.66471 3.8153,-0.16568 4.676,-0.53945 5.6501,-2.45365 z m 52.7567,-12.50584 c 2.9409,-1.11617 3.047,-3.5942 0.1539,-3.5942 -1.9364,0 -3.2268,1.45763 -3.2268,3.64514 0,1.02639 0.2449,1.02233 3.0729,-0.051 z m -48.4039,-2.1306 c 3.8985,-1.02599 5.9172,-2.50596 5.9552,-4.36592 0.01,-0.36838 -2.3875,-0.66974 -5.3224,-0.66974 -5.4998,0 -7.1882,1.1399 -7.1882,4.85292 0,1.66043 0.8506,1.68415 6.5554,0.18275 z m 48.9682,-10.42526 c 1.8415,-0.98381 2.1608,-2.37388 0.9742,-4.24069 -1.2403,-1.95132 -3.7168,-0.23123 -3.7168,2.5816 0,2.85891 0.233,2.99984 2.7426,1.65909 z m -37.7753,-4.92223 c 0.571,-1.25102 1.0382,-2.49432 1.0382,-2.76287 0,-1.10977 -9.4773,0.84021 -10.5115,2.16275 -1.8868,2.41281 -1.299,2.8747 3.6584,2.8747 4.2505,0 4.891,-0.25052 5.8149,-2.27458 z m 36.7129,-10.1416 c 0.6781,-0.42868 0.9441,-1.24581 0.5913,-1.81573 -0.4861,-0.78517 -0.9474,-0.78286 -1.9038,0.01 -2.3584,1.95383 -1.2762,3.44304 1.3125,1.80623 z m -32.9109,-0.96935 c 1.3624,-0.01 3.999,-4.27282 3.1602,-5.11013 -1.036,-1.03421 -8.9562,2.1533 -10.2739,4.13478 l -1.4365,2.16007 3.5641,-0.58749 c 1.9603,-0.32308 4.204,-0.59185 4.9861,-0.59724 z m 29.7007,-10.72613 c 0.2574,-0.98233 0.1031,-1.78605 -0.3429,-1.78605 -0.446,0 -0.8109,0.80372 -0.8109,1.78605 0,0.98232 0.1543,1.78605 0.343,1.78605 0.1886,0 0.5535,-0.80373 0.8108,-1.78605 z m -22.2441,-4.46512 c 1.5618,0 4.4372,-4.97293 3.6295,-6.2774 -0.2951,-0.47671 -1.6862,-0.86679 -3.0911,-0.86679 -2.1082,0 -2.9587,0.72183 -4.8675,4.13108 -2.9674,5.29992 -2.9116,6.0471 0.3264,4.37558 1.4517,-0.74935 3.2529,-1.36247 4.0027,-1.36247 z m 65.9084,-13.89292 c -1.0327,-1.74715 -1.8776,-3.75645 -1.8776,-4.46512 0,-0.70868 -0.7548,-1.28849 -1.6773,-1.28849 -0.9226,0 -2.984,-0.26086 -4.581,-0.57973 l -2.9037,-0.57973 1.4625,2.22812 c 0.8044,1.22546 2.5465,2.72118 3.8715,3.3238 1.3249,0.60264 2.9524,1.87014 3.6165,2.81672 0.6642,0.94656 1.8284,1.72103 2.5871,1.72103 1.1497,0 1.0667,-0.52941 -0.498,-3.17663 z m -15.9388,-0.97589 c -0.4134,-2.54327 -0.167,-3.5244 1.1218,-4.46511 1.448,-1.05698 0.9245,-1.20564 -4.2456,-1.20564 h -5.8974 l 0.1352,4.46415 0.1351,4.46415 4.6404,8.9e-4 4.6404,9e-4 -0.5299,-3.2595 z m -16.3549,-1.65214 v -4.01861 h -4.0439 -4.0438 l 1.7904,3.50337 c 1.5599,3.05227 2.7449,3.98537 5.6263,4.43026 0.3691,0.0569 0.6709,-1.70478 0.6709,-3.91502 z m 47.4134,3.085 c 0,-1.43352 -4.2176,-5.31756 -5.7742,-5.31756 -1.9983,0 -1.6975,2.31657 0.5753,4.43033 2.0706,1.92568 5.1989,2.45953 5.1989,0.88723 z m -75.1458,-0.34776 c 0,-0.21364 -0.3927,-1.41919 -0.8725,-2.67907 -0.7088,-1.86092 -1.464,-2.2907 -4.0257,-2.2907 -6.1478,0 -2.7499,4.73463 3.7799,5.26698 0.6151,0.0502 1.1183,-0.0836 1.1183,-0.29721 z m 13.4189,-0.0896 c 0,-1.52384 -3.1471,-4.88022 -4.5759,-4.88022 -2.0838,0 -2.1005,0.43496 -0.1207,3.15279 1.3574,1.86356 4.6966,3.09172 4.6966,1.72743 z m -14.3135,-13.36391 c 0,-0.9641 -0.9882,-1.33954 -3.5256,-1.33954 -3.3976,0 -5.0975,0.91766 -3.9051,2.108 0.3147,0.31414 2.1153,0.57108 4.0014,0.57108 2.4518,0 3.4293,-0.38183 3.4293,-1.33953 z m 12.9268,-0.54684 c 0.5073,-0.47317 -0.3041,-0.79266 -2.0128,-0.79266 -2.0029,0 -2.8627,0.4204 -2.8627,1.39971 0,1.03608 0.5229,1.24201 2.0128,0.79265 1.1071,-0.33387 2.3953,-0.96375 2.8627,-1.3997 z m 50.5893,-0.79266 c 0,-1.48838 -0.5964,-1.78605 -3.5784,-1.78605 -3.8326,0 -3.8584,0.0185 -3.0353,2.15952 0.3474,0.90404 1.6358,1.41258 3.5784,1.41258 2.4389,0 3.0353,-0.35094 3.0353,-1.78605 z m 10.0519,-0.005 c 1.4288,-1.32878 1.6655,-2.05077 0.9174,-2.79765 -1.5618,-1.55897 -3.8125,-0.1846 -3.8125,2.32804 0,2.72877 0.3967,2.79313 2.8951,0.46962 z m -26.1546,0.005 c 0,-0.49711 -2.4032,-0.89303 -5.4203,-0.89303 -3.3858,0 -5.2129,0.3352 -4.8675,0.89303 0.3041,0.4912 2.7433,0.89302 5.4204,0.89302 2.6771,0 4.8674,-0.40185 4.8674,-0.89302 z m -19.0101,-0.63966 c -1.3531,-0.20462 -3.5672,-0.20462 -4.9203,0 -1.353,0.20462 -0.246,0.372 2.4602,0.372 2.7061,0 3.8132,-0.16738 2.4601,-0.372 z m -31.9817,-7.28825 c 0,-0.43104 -0.568,-1.25425 -1.2623,-1.82941 -1.4019,-1.16143 -2.8357,0.15829 -1.8688,1.72006 0.6813,1.10041 3.1311,1.18597 3.1311,0.1093 z m 18.6156,0.11395 c -2.6296,-5.50524 -3.8561,-6.46314 -8.2831,-6.46878 -3.4441,-0.004 -4.1896,0.23248 -3.3547,1.06599 0.5905,0.58941 1.0735,2.19684 1.0735,3.57209 0,2.46459 0.078,2.50047 5.4421,2.50047 2.9932,0 5.2982,-0.30142 5.1222,-0.66973 z m 17.4233,-0.77561 c 0.3043,-0.3038 -0.6304,-2.02278 -2.0772,-3.81993 -2.3838,-2.96115 -2.9724,-3.23501 -6.2766,-2.92046 -2.7604,0.26278 -3.5235,0.66619 -3.1413,1.66041 0.2776,0.72235 0.5048,2.28508 0.5048,3.47282 0,2.03721 0.2956,2.15951 5.2185,2.15951 2.8702,0 5.4675,-0.24859 5.7718,-0.55238 z m 19.4259,-0.86957 c 0,-0.29086 -0.8051,-1.55069 -1.7892,-2.79951 -0.984,-1.24882 -1.7892,-2.81919 -1.7892,-3.4897 0,-1.4213 -6.7972,-1.7012 -8.9103,-0.36698 -1.127,0.71156 -1.0963,1.05659 0.2236,2.51246 0.8415,0.9282 1.53,2.35925 1.53,3.1801 0,1.22879 0.9483,1.49248 5.3675,1.49248 2.9522,0 5.3676,-0.23802 5.3676,-0.52888 z m 13.0745,-2.56527 c -0.7946,-1.21062 -1.4448,-3.019 -1.4448,-4.0186 0,-1.52503 -0.5758,-1.81747 -3.5784,-1.81747 -3.4545,0 -4.6284,1.03281 -2.5977,2.28561 0.5393,0.33269 0.8103,1.76296 0.6021,3.17829 -0.3733,2.53954 -0.3203,2.57332 4.0426,2.57332 h 4.4209 z m 9.0573,-3.43834 c -0.9839,-2.11525 -2.4507,-3.25001 -2.4507,-1.89595 0,0.6455 3.0618,4.74636 3.3453,4.48059 0.1178,-0.11048 -0.2847,-1.27356 -0.8946,-2.58464 z m -76.1944,-8.64892 -1.0152,-3.572088 c -0.329,-1.15772 -1.2732,-1.78605 -2.6838,-1.78605 -2.4179,0 -2.5436,0.23019 -1.3469,2.46794 0.4561,0.85287 1.0473,2.25392 1.3138,3.113458 0.2665,0.85954 1.3294,1.56279 2.3621,1.56279 1.4503,0 1.762,-0.40636 1.37,-1.78605 z m 14.9947,0.22325 c -0.7953,-2.283768 -3.0069,-3.795358 -5.5529,-3.795358 h -2.2328 l 2.5712,2.67908 c 2.8782,2.998878 6.1111,3.690958 5.2145,1.116278 z m 13.4988,1.02073 c 2.4928,-0.9549 1.6239,-3.030038 -1.2687,-3.030038 -2.0874,0 -2.6838,0.39691 -2.6838,1.786048 0,1.80565 1.3649,2.23522 3.9525,1.24399 z m 20.8725,-1.848168 c 3.3354,-0.38257 4.6966,-0.92643 4.6966,-1.87648 0,-1.12693 -1.0899,-1.2392 -6.9144,-0.7123 -3.803,0.34399 -7.0732,0.78396 -7.2673,0.97768 -0.1941,0.19376 -0.097,1.01794 0.2159,1.831588 0.4012,1.0438 1.1581,1.30842 2.5706,0.89879 1.1011,-0.31931 4.1154,-0.82298 6.6986,-1.119268 z m 17.2209,-2.5214 c -0.6125,-0.73676 -1.6682,-1.33954 -2.346,-1.33954 -0.6778,0 -1.2324,0.60278 -1.2324,1.33954 0,0.85016 0.8571,1.33953 2.3461,1.33953 1.9839,0 2.1741,-0.20676 1.2323,-1.33953 z m -27.673,-6.63595 c 2.6735,-0.4572 7.9808,-1.09429 11.794,-1.41573 l 6.9331,-0.58446 v -3.49591 -3.4959 h -5.3676 c -5.2824,0 -5.3675,0.0399 -5.3675,2.50047 0,2.63524 -1.404,4.64373 -3.2461,4.64373 -1.8171,0 -3.9107,-2.66368 -3.9107,-4.97542 0,-2.12626 -0.1491,-2.16878 -7.6041,-2.16878 -6.9031,0 -9.1281,0.74036 -6.7094,2.23256 1.2077,0.74507 1.1387,4.65561 -0.096,5.41707 -1.6309,1.00617 1.0445,2.14481 5.0751,2.15997 2.0008,0.007 5.8252,-0.3604 8.4987,-0.81762 z m -20.0072,-1.86558 c -1.2635,-0.99211 -2.4249,-2.70002 -2.5808,-3.79535 -0.2164,-1.52047 -0.9712,-2.0577 -3.191,-2.27135 -2.4414,-0.235 -2.9074,0.0192 -2.9074,1.5849 0,1.21164 -0.8599,2.19109 -2.4552,2.79655 -2.1894,0.83095 -2.7268,0.62835 -4.9643,-1.87143 -1.5476,-1.729 -3.6921,-2.99489 -5.5961,-3.30333 -1.6979,-0.27504 -3.0871,-0.26551 -3.0871,0.0214 0,1.85132 2.397,5.17285 3.9554,5.48099 4.9889,0.98643 18.2579,2.95924 20.5429,3.05427 l 2.5808,0.1073 z m 53.5614,-0.98505 c 4.537,-1.14043 5.476,-2.08447 3.9268,-3.94789 -1.2266,-1.47535 -11.5972,-1.87722 -11.5972,-0.44937 0,1.53729 2.0591,5.40017 2.8786,5.40017 0.4411,0 2.5975,-0.4513 4.7918,-1.00287 z m 1.9206,-15.87776 c 1.1933,-1.5221 2.0346,-3.4673 1.8696,-4.32268 -0.6936,-3.59543 -3.5268,-3.84773 -32.6041,-2.90348 -30.1918,0.98046 -43.2863,1.93724 -47.0692,3.43925 -3.1816,1.26324 -3.4587,5.16704 -0.4474,6.30292 1.1071,0.4176 18.6783,0.64498 39.0471,0.50532 l 37.0343,-0.25392 z m -35.0869,-13.47356 c 11.8086,-0.46053 22.5218,-0.85178 23.807,-0.86948 2.542,-0.0347 2.2583,0.84645 5.3273,-16.55313 0.6064,-3.43815 2.2434,-10.65197 3.6378,-16.03071 1.6844,-6.49754 2.22,-9.97404 1.5959,-10.3591 -1.7378,-1.07214 -48.4077,-1.82475 -54.0491,-0.87162 -2.9521,0.49881 -7.9842,0.91144 -11.1824,0.91702 -6.7,0.0118 -12.1429,1.29196 -12.8039,3.01168 -0.2517,0.65481 0.3059,3.96231 1.2392,7.35001 1.605,5.82598 3.5176,13.83061 6.8866,28.8219 l 1.4805,6.58801 6.2954,-0.58364 c 3.4625,-0.32101 15.9571,-0.96043 27.7657,-1.42094 z"
       id="path249" /><path
       style="fill:#ffffff;fill-rule:evenodd;stroke-width:0.893807"
       d="m 337.98499,413.30926 c -0.832,-0.91764 -3.2753,-5.05441 -5.4297,-9.19282 -2.1545,-4.1384 -5.9805,-10.50941 -8.5023,-14.1578 -2.5218,-3.6484 -4.5868,-7.06421 -4.589,-7.59071 0,-0.52652 -1.6566,-3.13351 -3.6766,-5.79337 -2.02,-2.65985 -5.1115,-7.48218 -6.8699,-10.71629 -1.7584,-3.23411 -4.658,-8.09042 -6.4437,-10.79182 -5.0361,-7.61878 -9.0154,-15.09397 -10.8157,-20.31765 -0.904,-2.62291 -2.4759,-5.85561 -3.4931,-7.18379 -5.1216,-6.68746 -8.1575,-11.16244 -9.9359,-14.64556 -1.0794,-2.11406 -3.8161,-6.58617 -6.0815,-9.93802 -8.497,-12.57213 -10.4522,-16.2669 -11.5812,-21.88444 -1.2321,-6.13091 -0.5737,-8.18876 2.6202,-8.18876 1.9738,0 3.1173,1.92535 3.9877,6.71412 0.8281,4.55593 2.0526,6.91352 9.2584,17.82534 3.2502,4.92192 7.1173,11.04253 8.5933,13.60135 1.4761,2.55881 4.7553,7.65349 7.2871,11.32151 2.5317,3.66801 5.31,8.80793 6.1738,11.42203 0.8638,2.61411 3.7102,8.16874 6.3254,12.34363 2.6151,4.17489 5.9507,9.80095 7.4123,12.50233 1.4617,2.70141 4.0676,6.92095 5.7909,9.37676 1.7233,2.45582 4.213,6.2735 5.5327,8.48373 1.3197,2.21024 4.5492,7.2335 7.1766,11.1628 2.6275,3.92931 5.4319,8.75164 6.2321,10.7163 0.8001,1.96465 2.9119,5.70582 4.6927,8.31371 2.5598,3.74875 3.0393,5.0577 2.29,6.25117 -1.3471,2.14574 -4.1832,2.32018 -5.9546,0.36623 z"
       id="path251" /><path
       style="fill:#ffffff;fill-rule:evenodd;stroke-width:0.893807"
       d="m 164.40499,410.73163 c -1.165,-1.1629 -0.5705,-4.55478 1.1897,-6.78863 0.9824,-1.24668 3.1383,-5.41995 4.791,-9.27393 1.6526,-3.85397 3.8057,-8.61468 4.7845,-10.57933 7.6955,-15.44638 13.208,-25.74287 16.0167,-29.91631 1.818,-2.7014 4.714,-8.12652 6.4357,-12.05583 1.7216,-3.9293 4.0157,-8.55071 5.0978,-10.26978 1.0822,-1.71906 3.4134,-5.80319 5.1805,-9.07582 1.7671,-3.27263 7.4594,-11.7117 12.6497,-18.7535 13.9953,-18.98814 14.3236,-19.48005 17.045,-25.54419 1.8476,-4.11715 3.086,-5.74064 4.6845,-6.14114 3.1191,-0.78145 4.4685,0.8721 3.2124,3.93637 -0.551,1.34384 -1.5421,3.84986 -2.2026,5.56893 -1.3519,3.51837 -10.5285,17.71331 -14.2389,22.02557 -3.0998,3.60266 -15.1452,20.54057 -15.1452,21.29677 0,0.31392 -1.6287,3.35455 -3.6193,6.75698 -1.9906,3.40244 -4.8578,9.0986 -6.3715,12.65815 -1.5137,3.55955 -4.5543,9.25842 -6.757,12.66416 -4.248,6.56845 -18.2696,34.08427 -21.7553,42.69255 -3.3473,8.26621 -8.4831,13.30922 -10.9977,10.79898 z"
       id="path253" /><path
       style="fill:#ffffff;fill-rule:evenodd;stroke-width:0.893807"
       d="m 273.84359,266.87457 c -1.8515,-0.66966 -2.6539,-2.06325 -2.6701,-4.63713 -0.016,-2.49071 7.8372,-10.47274 22.1323,-22.4965 4.7946,-4.03284 9.4102,-8.03618 10.2569,-8.89631 5.5929,-5.68188 11.4864,-7.8479 12.7079,-4.67047 0.6326,1.64575 -7.692,10.04704 -16.4838,16.63548 -7.3262,5.49024 -18.2208,16.34251 -17.5285,17.46059 0.4136,0.66804 5.8539,0.85839 17.3406,0.60678 20.8406,-0.45647 30.4891,0.27297 31.8321,2.4066 2.2151,3.51896 0.1097,3.80759 -28.7787,3.94531 -15.1067,0.0717 -28.0706,-0.0875 -28.8087,-0.35441 z"
       id="path255" /><path
       style="fill:#ffffff;fill-rule:evenodd;stroke-width:0.158004"
       d="m 242.14999,24.231862 c -0.3981,-0.15969 -0.9836,-1.59017 -0.9836,-2.40321 0,-0.66833 0.076,-0.8639 0.5186,-1.3322 0.7023,-0.74334 1.6454,-0.895 2.8278,-0.45469 1.005,0.37429 1.3615,0.80449 1.4971,1.80688 0.088,0.65318 0.048,0.81666 -0.3245,1.30385 -0.5928,0.77586 -1.4707,1.18838 -2.4964,1.17309 -0.4601,-0.007 -0.9277,-0.0488 -1.0391,-0.0937 z"
       id="path257" /><path
       style="fill:#ffffff;fill-rule:evenodd;stroke-width:0.158004"
       d="m 226.01979,31.400362 c -0.4869,-0.51736 -0.8259,-1.42498 -0.8259,-2.2114 0,-0.57175 0.089,-0.77054 0.54,-1.20691 0.7648,-0.74 1.7213,-0.90151 2.735,-0.46179 1.2092,0.52445 1.4694,0.84236 1.4694,1.79518 0,0.78546 -0.034,0.85001 -0.8604,1.63008 -0.8351,0.78844 -0.8875,0.81222 -1.791,0.81222 -0.7625,0 -0.9916,-0.0643 -1.2671,-0.35737 z"
       id="path259" /><path
       style="fill:#ffffff;fill-rule:evenodd;stroke-width:0.158004"
       d="m 241.65539,41.678882 c -0.8686,-0.59673 -1.1725,-1.12812 -1.249,-2.18401 -0.048,-0.65444 0,-1.02991 0.1457,-1.20768 0.3578,-0.43046 1.5413,-0.84634 2.4065,-0.84572 1.8883,0.001 2.7659,1.44803 1.9366,3.19237 -0.47,0.98872 -0.8076,1.2271 -1.89,1.3347 -0.674,0.0673 -0.9019,0.0177 -1.3498,-0.28968 z"
       id="path261" /><path
       style="fill:#ffffff;fill-rule:evenodd;stroke-width:0.158004"
       d="m 252.05459,48.119742 c -0.8096,-0.25362 -1.181,-0.64254 -1.3848,-1.45032 -0.2154,-0.85399 -0.025,-1.84663 0.4518,-2.35309 0.7664,-0.81436 2.7456,-0.89753 3.6324,-0.1526 0.6603,0.55468 0.8918,1.61292 0.5665,2.59054 -0.3094,0.92993 -0.5978,1.19989 -1.505,1.40853 -0.8492,0.19531 -1.0126,0.19132 -1.7609,-0.0429 z"
       id="path263" /><path
       style="fill:#ffffff;fill-rule:evenodd;stroke-width:0.158004"
       d="m 262.47769,36.029452 c -1.0203,-0.13945 -1.8023,-0.8822 -1.897,-1.80177 -0.086,-0.83871 0.5333,-2.23345 1.1289,-2.54091 1.3019,-0.6721 2.5539,-0.36276 3.4097,0.8425 0.4034,0.56805 0.4634,0.78395 0.4314,1.55047 -0.044,1.0307 -0.1872,1.2521 -1.0559,1.62333 -0.9315,0.39816 -1.1882,0.43969 -2.0171,0.32641 z"
       id="path265" /><path
       style="fill:#ffffff;fill-rule:evenodd;stroke-width:0.158004"
       d="m 278.88359,45.630672 c -0.5144,-0.29419 -1.1981,-0.97582 -1.4374,-1.43318 -0.1227,-0.23447 -0.2231,-0.77263 -0.2231,-1.19594 0,-0.90224 0.3002,-1.25254 1.4286,-1.66663 1.7265,-0.63367 3.1811,0.0687 3.3784,1.63127 0.1047,0.82962 -0.3571,1.91811 -1.0116,2.38433 -0.5048,0.35966 -1.7176,0.51876 -2.1349,0.28015 z"
       id="path267" /><path
       style="fill:#ffffff;fill-rule:evenodd;stroke-width:0.158004"
       d="m 284.87659,23.375952 c -0.7587,-0.17824 -1.1737,-0.5937 -1.5252,-1.52701 -0.2341,-0.6217 -0.2332,-0.73691 0.012,-1.49432 0.3101,-0.95995 0.9109,-1.44885 1.9765,-1.60838 0.8851,-0.1325 2.0833,0.29242 2.5365,0.89952 0.3912,0.52394 0.4572,1.96411 0.126,2.74733 -0.3563,0.84273 -1.7952,1.29525 -3.1251,0.98286 z"
       id="path269" /></g></svg>
