<?xml version="1.0" encoding="UTF-8" standalone="no"?>
<!-- Created with Inkscape (http://www.inkscape.org/) -->

<svg
   width="512"
   height="512"
   viewBox="0 0 512 512"
   version="1.1"
   id="svg5"
   inkscape:version="1.2.1 (9c6d41e410, 2022-07-14)"
   sodipodi:docname="potion_stamina.svg"
   xml:space="preserve"
   inkscape:export-filename="potion_stamina.png"
   inkscape:export-xdpi="96"
   inkscape:export-ydpi="96"
   xmlns:inkscape="http://www.inkscape.org/namespaces/inkscape"
   xmlns:sodipodi="http://sodipodi.sourceforge.net/DTD/sodipodi-0.dtd"
   xmlns="http://www.w3.org/2000/svg"
   xmlns:svg="http://www.w3.org/2000/svg"><sodipodi:namedview
     id="namedview7"
     pagecolor="#ffffff"
     bordercolor="#999999"
     borderopacity="1"
     inkscape:pageshadow="0"
     inkscape:pageopacity="0"
     inkscape:pagecheckerboard="true"
     inkscape:document-units="px"
     showgrid="false"
     height="70mm"
     units="px"
     inkscape:zoom="1.4805976"
     inkscape:cx="102.66125"
     inkscape:cy="179.99489"
     inkscape:window-width="2560"
     inkscape:window-height="1351"
     inkscape:window-x="2391"
     inkscape:window-y="-9"
     inkscape:window-maximized="1"
     inkscape:current-layer="layer1"
     inkscape:showpageshadow="2"
     inkscape:deskcolor="#d1d1d1" /><defs
     id="defs2" /><g
     inkscape:label="Layer 1"
     inkscape:groupmode="layer"
     id="layer1"><path
       style="fill:#ffffff;fill-rule:evenodd;stroke-width:0.651048"
       d="m 159.38339,511.39575 c -2.92838,-0.74582 -3.79732,-1.65601 -6.33789,-6.63886 -1.94637,-3.81749 -3.40847,-10.56714 -3.40847,-15.73491 0,-5.09133 -4.04167,-17.25024 -8.38538,-25.22656 -1.78688,-3.28121 -3.59233,-7.86553 -4.49599,-11.41596 -0.83054,-3.26309 -2.24441,-7.03671 -3.14197,-8.38581 -0.89755,-1.34911 -2.12887,-3.75917 -2.73625,-5.3557 -0.60741,-1.59653 -1.92065,-4.64446 -2.91835,-6.77317 -0.99769,-2.1287 -2.18418,-5.03149 -2.63662,-6.45062 -0.45241,-1.41914 -1.08052,-3.24703 -1.39569,-4.06199 -0.31511,-0.81496 -0.57302,-2.19695 -0.57302,-3.07108 0,-0.87414 -0.55797,-2.81987 -1.24004,-4.32383 -2.35042,-5.18303 -5.23009,-13.06391 -5.99034,-16.39397 -1.05,-4.5992 -1.19275,-27.96725 -0.19825,-32.46251 0.43171,-1.95131 1.12943,-5.72493 1.55054,-8.38581 0.92243,-5.82849 1.64613,-8.47359 3.30723,-12.0879 0.69117,-1.50397 1.25674,-3.14901 1.25674,-3.65564 0,-0.50662 0.55422,-2.19046 1.23163,-3.74187 0.67736,-1.5514 1.43015,-3.70803 1.67278,-4.79254 0.41883,-1.87227 0.29066,-2.02824 -2.54136,-3.09001 -3.4981,-1.3115 -6.40853,-4.50087 -7.58143,-8.30806 -1.27682,-4.14456 -1.03243,-10.75593 0.50771,-13.73488 3.99363,-7.7245 6.38498,-11.36309 9.73158,-14.80724 2.05006,-2.1098 5.14408,-5.86795 6.87561,-8.35144 1.73154,-2.48349 3.92982,-5.38627 4.88507,-6.45062 0.95524,-1.06436 2.39174,-2.66089 3.19222,-3.54785 0.8005,-0.88696 3.65142,-4.51544 6.33545,-8.06329 2.68402,-3.54784 6.59168,-8.33341 8.68369,-10.63459 2.09201,-2.30116 3.80366,-4.42595 3.80366,-4.72173 0,-0.8406 3.82887,-6.21612 7.21088,-10.12366 4.93746,-5.70469 9.50604,-12.92643 10.81405,-17.09417 2.31493,-7.37618 4.28141,-16.14093 4.29859,-19.15915 0.0184,-3.30895 0.99284,-7.25638 3.62568,-14.69402 0.98222,-2.77474 1.96332,-7.45485 2.30864,-11.01292 0.37838,-3.8983 1.13864,-7.36353 2.0549,-9.36603 2.02708,-4.4302 2.52468,-16.48974 0.90594,-21.95616 -0.82984,-2.80235 -1.07581,-5.81165 -0.96786,-11.84162 0.0795,-4.44646 -0.22371,-13.46374 -0.67401,-20.03841 -0.73905,-10.78994 -0.70917,-12.43731 0.30633,-16.91804 0.61871,-2.73028 2.08395,-6.93018 3.25604,-9.33315 1.43008,-2.93188 2.28542,-5.85268 2.60035,-8.87951 0.46514,-4.47066 2.75409,-10.61704 5.19449,-13.94848 1.6083,-2.19553 5.32563,-4.18737 8.87926,-4.75772 l 2.83184,-0.45452 -0.42742,-3.64591 c -0.23516,-2.00524 -1.4355,-7.72848 -2.66757,-12.71831 -2.02579,-8.2044 -2.24011,-9.97568 -2.24011,-18.5138 0,-11.06375 0.64092,-14.5959 3.48938,-19.2305804 3.95672,-6.43789998 6.7722,-7.04752998 32.51817,-7.041099983435 C 252.8875,0.00304962 263.50016,0.29649962 265.73741,0.65308962 c 2.23726,0.35644998 8.74234,0.91984998 14.45579,1.25199998 5.71345,0.33214 11.27517,0.89126 12.3593,1.24249 1.08427,0.35121 3.30192,0.97793 4.92815,1.39269 7.05365,1.79894 10.70862,4.4427 12.70043,9.1865704 1.50351,3.5808 2.58663,9.92874 2.13306,12.5013 -0.67626,3.83783 -1.55704,10.32593 -2.21758,16.34126 -0.33098,3.01566 -1.26481,7.2247 -2.0749,9.35341 -1.75236,4.60523 -2.65003,8.61802 -2.19081,9.79308 0.1832,0.4678 1.1186,0.85046 2.0794,0.85046 0.9608,0 2.64165,0.50791 3.73519,1.12885 8.68662,4.93195 9.60472,5.60648 11.14637,8.18904 1.49977,2.51234 1.62924,3.37164 1.62924,10.81801 0,6.35276 0.20907,8.25886 0.97196,8.88081 2.80306,2.28377 3.98213,10.39677 2.21023,15.20739 -0.62315,1.69129 -0.55777,2.56103 0.36162,4.81573 0.91497,2.24487 1.04151,3.89279 0.68682,8.94778 -0.4522,6.44946 -1.653,13.25559 -2.91161,16.5055 -0.5782,1.49389 -0.49715,2.7493 0.38478,5.94903 0.95563,3.46584 1.00698,4.71701 0.35278,8.6045 -1.00766,5.99018 -3.14814,9.15319 -7.55864,11.16989 -1.85268,0.84713 -4.47383,1.73456 -5.82466,1.9721 -1.35083,0.23754 -2.72406,0.92737 -3.05157,1.53298 -0.32962,0.60959 -0.49987,8.95796 -0.38069,18.70338 l 0.21452,17.60228 2.64138,5.29745 c 1.45271,2.91359 4.17752,7.76481 6.05499,10.78049 1.87747,3.01567 5.00756,8.53095 6.95585,12.25619 4.52308,8.64864 10.13355,16.4504 16.23587,22.57721 5.14254,5.16313 7.45274,8.26034 10.92682,14.64907 1.198,2.20305 3.34346,5.51691 4.76756,7.36415 4.36133,5.6569 6.13767,9.73623 8.38323,19.25259 0.58569,2.48086 2.38491,5.83509 6.05635,11.2886 7.23426,10.74583 20.45364,37.13611 21.81992,43.55995 0.56594,2.66088 1.46674,6.72478 2.00156,9.03088 0.53665,2.31522 1.16381,9.53709 1.39972,16.12657 0.65447,18.29579 -0.2908,22.70834 -11.60962,54.18527 -2.23276,6.20874 -5.69043,15.91347 -7.68381,21.56608 -1.99345,5.65261 -4.13441,11.16891 -4.75769,12.25838 -1.37521,2.40361 -2.34963,6.53101 -3.36028,14.23278 -0.41815,3.19304 -1.30758,7.69234 -1.97458,9.99851 -0.66673,2.30609 -1.50481,6.7261 -1.86201,9.82225 -1.318,11.42615 -2.17515,11.75089 -32.90889,12.46914 -48.23933,1.1273 -60.44254,1.48994 -73.50548,2.18434 -7.72181,0.41073 -18.21869,0.613 -23.32643,0.45009 -43.03568,-1.37351 -63.49219,-1.68897 -67.43854,-1.03997 -2.34906,0.38601 -4.86241,0.7933 -5.5852,0.90425 -0.72275,0.11114 -2.3985,-0.0772 -3.72381,-0.41148 z m 130.54067,-13.94123 c 11.92603,-0.36054 30.28964,-0.87005 40.80811,-1.13224 12.09056,-0.30109 19.46525,-0.73579 20.05135,-1.18157 0.51009,-0.38758 1.47593,-3.1722 2.14682,-6.18783 0.67081,-3.01569 1.64149,-7.35573 2.15689,-9.64444 1.14352,-5.0779 0.96639,-8.21682 -0.44131,-7.80948 -0.5421,0.15671 -15.62212,0.40304 -33.51113,0.5466 -31.68991,0.25402 -45.03582,-0.23319 -51.63413,-1.88563 -10.47025,-2.62202 -10.86654,-2.64727 -28.76658,-1.82934 -31.66127,1.44663 -41.40041,1.76078 -56.9957,1.83853 -16.84817,0.0842 -19.64624,-0.31348 -19.64624,-2.78864 0,-3.36328 0.15221,-3.38266 30.22577,-3.84644 15.35929,-0.237 29.84795,-0.7049 32.19704,-1.03912 2.34908,-0.33507 11.54335,-0.61457 20.43177,-0.62151 14.36821,-0.007 16.59123,0.12817 20.041,1.26125 2.13422,0.70104 5.06497,1.2814 6.51291,1.29012 1.44801,0.007 3.64032,0.29959 4.8719,0.64623 1.33183,0.37525 17.70635,0.65393 40.40631,0.68792 l 38.16693,0.0538 1.4162,-3.75179 c 1.47662,-3.91156 5.13648,-13.13187 6.09803,-15.36284 0.30579,-0.70961 1.01658,-2.74152 1.57938,-4.51544 0.99165,-3.12549 1.98092,-5.91407 7.66658,-21.60961 5.62492,-15.52771 7.37524,-21.10511 8.59388,-27.38363 2.1396,-11.02274 1.51911,-24.75188 -1.73159,-38.31832 -1.3556,-5.65744 -2.85176,-9.25468 -8.49036,-20.41394 -3.76454,-7.45048 -9.49284,-17.51192 -12.72951,-22.35876 -4.88313,-7.31242 -6.06513,-9.59087 -6.94428,-13.38562 -1.79275,-7.73803 -2.98659,-10.44843 -7.7671,-17.63457 -3.24314,-4.87518 -4.99142,-6.93443 -5.88732,-6.93443 -1.6056,0 -3.67552,-1.03484 -5.78747,-2.89334 -0.90353,-0.79508 -3.71244,-2.80118 -6.24227,-4.45799 -4.33722,-2.84057 -10.69309,-8.22702 -18.34659,-15.5484 -1.95715,-1.87218 -4.43679,-5.24667 -5.91061,-8.0434 -3.37846,-6.41149 -4.79555,-8.86198 -6.91057,-11.95033 -4.60527,-6.7244 -5.50267,-9.53886 -11.31275,-35.48168 -0.39773,-1.77392 -1.32904,-4.53156 -2.07048,-6.12809 -1.29457,-2.78755 -1.99951,-7.55645 -2.83895,-19.20531 -0.41951,-5.82361 0.11101,-7.24225 2.7084,-7.24225 2.94444,0 3.51583,1.90302 4.84207,16.12657 0.28535,3.05611 1.02495,6.44636 1.6718,7.65942 0.6388,1.19702 1.84375,5.26091 2.67884,9.03088 0.83508,3.76997 1.97839,8.74131 2.54072,11.0474 0.56253,2.3061 1.37105,5.78944 1.79697,7.74076 0.85177,3.90237 2.56674,7.54327 6.60124,14.01428 1.46225,2.34522 4.0659,6.92106 5.78605,10.16851 2.98714,5.63953 4.61774,7.53632 11.86446,13.80205 2.08757,1.80495 3.94256,2.57849 3.94256,1.64412 0,-0.78085 -1.6387,-3.34062 -4.42098,-6.90579 -1.59791,-2.04758 -4.10949,-6.24554 -5.58133,-9.32878 -1.47171,-3.08325 -4.50932,-8.51976 -6.75012,-12.08117 -2.24086,-3.56138 -5.12987,-8.5072 -6.42009,-10.99069 -4.43991,-8.54595 -4.42493,-8.43661 -4.42493,-32.31809 0,-12.87657 0.26015,-22.10699 0.64357,-22.80946 1.30588,-2.39545 -0.24857,-2.55881 -16.75801,-1.76125 -16.43848,0.79414 -41.25024,0.99824 -54.19305,0.4458 l -7.55643,-0.32253 -0.16719,3.87037 c -0.0919,2.1287 -0.49137,6.9183 -0.88773,10.64353 -0.39629,3.72524 -0.97515,9.53081 -1.2863,12.90126 -0.3111,3.37046 -0.89508,9.03088 -1.29759,12.57873 -0.40256,3.54784 -0.97543,9.35341 -1.27316,12.90125 -0.29775,3.54785 -0.97688,8.04716 -1.50923,9.99848 -0.53236,1.95131 -1.31761,5.28952 -1.74501,7.41822 -0.94521,4.7077 -3.13201,12.31535 -4.17199,14.51392 -0.41958,0.88695 -3.10432,5.096 -5.96614,9.35341 -5.23126,7.78235 -12.723,16.74054 -22.25215,26.60786 -2.82614,2.92643 -5.94534,6.55529 -6.93157,8.06414 -0.98623,1.50884 -2.8249,4.19436 -4.08593,5.96781 -2.49638,3.51078 -4.04405,6.81125 -7.94896,16.95135 -1.40449,3.64716 -3.57486,8.5204 -4.82304,10.82943 -3.34674,6.19122 -4.51076,12.32027 -4.58492,24.14158 -0.0538,8.58601 0.13607,10.59672 1.3412,14.19574 0.77216,2.30609 1.89149,5.78943 2.48737,7.74075 1.50349,4.92353 10.09306,19.85446 15.21492,26.44757 4.18818,5.39124 5.62934,7.44123 14.28487,20.31948 2.38452,3.54785 5.8446,8.33744 7.68908,10.64355 5.60795,7.01145 8.56032,11.58811 12.57515,19.49355 4.08726,8.04808 4.53467,10.00669 2.66522,11.66758 -2.46927,2.19378 -4.01445,0.77694 -7.88695,-7.23186 -4.07578,-8.42982 -8.02079,-14.49132 -14.94378,-22.96147 -2.60981,-3.19306 -5.26593,-6.82154 -5.90249,-8.06328 -1.37423,-2.68075 -9.56629,-14.60503 -11.30064,-16.4491 -0.66734,-0.70953 -2.14328,-2.6514 -3.27986,-4.31518 -1.13658,-1.66377 -2.63285,-3.84085 -3.32507,-4.83797 -6.8835,-9.9154 -10.64051,-17.55933 -13.73162,-27.93797 l -2.97789,-9.99847 0.30708,-10.17375 c 0.17523,-5.80413 0.0497,-10.3301 -0.29298,-10.53781 -1.68171,-1.02033 -4.01994,3.17546 -7.69959,13.81631 -4.09767,11.84972 -5.53558,22.09456 -5.22305,37.2132 l 0.24006,11.61113 3.42282,8.38582 c 1.88256,4.6122 3.83212,10.27263 4.33238,12.57873 0.96934,4.46866 5.56774,15.66367 9.27365,22.57719 1.23615,2.30611 2.75707,6.22487 3.37982,8.70835 0.62274,2.48349 2.74373,7.69089 4.71328,11.57199 4.53455,8.93557 7.87681,19.89538 8.74138,28.66439 0.71311,7.23281 1.35348,9.11171 3.1048,9.10955 10.00214,-0.007 57.71835,0.87584 57.94186,1.07804 0.43382,0.39296 39.72098,-0.18449 65.40222,-0.96084 z M 136.33111,316.26826 c 3.50853,-0.37906 4.8291,-1.48238 1.77434,-1.48238 -2.14325,0 -5.27392,-1.58203 -5.80148,-2.93169 -0.63568,-1.6262 -0.50499,-2.13378 0.906,-3.51894 1.52243,-1.49459 6.91313,-1.78048 10.49014,-0.55633 2.07706,0.71084 2.23355,0.6369 4.999,-2.36247 1.57015,-1.70294 2.70176,-3.33941 2.51467,-3.63658 -0.18708,-0.29714 -1.70124,-0.54026 -3.36479,-0.54026 -2.07302,0 -3.9433,-0.52855 -5.94456,-1.67991 l -2.91994,-1.67989 -2.79283,2.69082 c -1.53605,1.47995 -3.43761,3.90501 -4.22567,5.38901 -0.78806,1.484 -2.0133,3.70964 -2.72276,4.94585 -1.30722,2.2778 -1.69316,5.20475 -0.80171,6.07992 0.26853,0.26355 1.37736,0.294 2.46406,0.0674 1.08669,-0.22645 3.52816,-0.57956 5.42549,-0.78458 z m 24.47631,-26.45202 c 1.98766,-2.69554 3.71251,-5.14676 3.83298,-5.44718 0.12047,-0.30041 -1.06229,-0.55899 -2.62833,-0.57452 -1.56605,-0.0157 -4.03011,-0.47666 -5.47569,-1.0247 -1.44557,-0.54803 -3.08342,-1.04326 -3.63966,-1.10056 -1.27935,-0.13178 -8.51635,7.73474 -8.51635,9.25715 0,1.40439 3.67284,3.201 6.67012,3.26277 1.21026,0.0245 2.79186,0.27506 3.51465,0.55579 1.91212,0.74272 2.26647,0.46296 6.24228,-4.92877 z m 17.63664,-21.15236 c 3.11636,-3.54784 6.3209,-7.1566 7.12121,-8.01946 1.74497,-1.88137 1.5273,-2.38688 -1.2747,-2.96029 -5.01885,-1.02709 -6.773,-4.35373 -3.42973,-6.50424 1.30748,-0.84104 2.75757,-1.002 6.90404,-0.76636 l 5.24892,0.29822 1.65021,-2.12395 c 2.86294,-3.68484 6.71113,-11.3955 7.526,-15.07992 0.43157,-1.95132 1.0547,-4.59751 1.38474,-5.88042 0.33009,-1.28291 0.60006,-3.09714 0.60006,-4.03163 0,-1.55606 -0.22427,-1.69909 -2.66438,-1.69909 -1.46541,0 -4.00753,-0.60067 -5.64916,-1.33485 -1.64161,-0.73416 -3.12371,-1.19845 -3.29352,-1.03176 -0.58854,0.57772 -3.48253,11.63539 -3.13461,11.97694 0.19232,0.18878 1.29622,0.64357 2.45323,1.01073 1.70805,0.54196 2.14182,1.05433 2.30655,2.72428 0.28869,2.92685 -2.07506,4.37718 -6.32808,3.88268 -3.12277,-0.36312 -3.12965,-0.35965 -4.99091,2.52862 -1.02511,1.59071 -2.20763,3.23893 -2.62783,3.6627 -4.47731,4.51545 -10.88201,13.12217 -10.12374,13.60443 0.11707,0.0741 1.04324,0.64582 2.05831,1.26988 1.49502,0.91909 1.80706,1.52443 1.6427,3.18686 -0.28767,2.90986 -2.77937,4.03082 -6.51651,2.93162 l -2.72402,-0.80119 -2.56144,2.86818 c -1.40879,1.5775 -3.00699,3.67009 -3.55155,4.65019 -0.94457,1.70002 -0.91681,1.80937 0.60353,2.37683 0.87653,0.32717 2.67696,0.79434 4.00099,1.0382 1.48998,0.27438 2.80649,1.04146 3.45492,2.01299 l 1.04763,1.56963 2.6005,-2.45463 c 1.43027,-1.35005 5.15024,-5.35743 8.26659,-8.90527 z m 28.3591,-59.34038 c 0,-6.13109 -0.1104,-6.72601 -1.31772,-7.1022 -2.56129,-0.79806 -5.25309,-3.58526 -5.25309,-5.43929 0,-3.36963 2.58366,-4.48196 6.75794,-2.90943 1.18812,0.44758 1.61129,-1.37282 2.48258,-10.67953 0.34868,-3.72524 0.80516,-8.44226 1.01425,-10.48227 0.34637,-3.37944 0.26581,-3.70911 -0.90619,-3.70911 -0.70749,0 -2.08104,-0.61368 -3.05229,-1.36366 -0.97126,-0.75 -1.84458,-1.25801 -1.94071,-1.12886 -0.53516,0.71894 -2.23656,8.01097 -1.96848,8.43679 0.17537,0.27847 0.82691,0.50634 1.44796,0.50634 2.03895,0 4.04992,1.90077 4.04992,3.82797 0,2.3116 -1.38635,3.4375 -4.46714,3.62787 -1.33773,0.0827 -2.6159,0.18061 -2.84039,0.21766 -0.22447,0.0368 -0.60578,1.53012 -0.8474,3.318 -0.24163,1.78789 -1.31331,5.57789 -2.38159,8.42222 -1.07916,2.8733 -2.23321,7.66368 -2.59688,10.77942 -0.82102,7.03424 -0.84387,6.5755 0.32744,6.5755 0.99225,0 5.77902,1.92102 8.84602,3.5501 0.89391,0.47482 1.85489,0.72397 2.13551,0.55375 0.28058,-0.17033 0.51029,-3.32081 0.51029,-7.00121 z m 2.81818,-47.41752 c 1.65091,0 1.84446,-0.20669 1.66077,-1.77393 -0.18735,-1.59846 -0.49395,-1.794 -3.09966,-1.97703 -3.16674,-0.22243 -3.98102,0.42122 -3.99755,3.15965 -0.0136,2.25666 0.56083,2.65892 2.1937,1.53612 0.75576,-0.51962 2.21496,-0.94481 3.24274,-0.94481 z m 37.59684,-10.72738 c -0.86307,-1.2931 -1.06895,-2.67358 -0.86579,-5.80557 l 0.26696,-4.10906 h -8.36763 -8.36764 l 0.39977,2.41898 c 0.21929,1.33045 1.10981,3.94295 1.97812,5.80557 l 1.5787,3.38658 h 7.25531 7.25537 z m 13.21277,0.10651 c -1.24138,-1.85992 -1.41198,-6.8385 -0.27309,-7.95697 0.43381,-0.42571 1.62644,-0.77406 2.6505,-0.77406 1.43147,0 2.1757,0.52201 3.2189,2.25771 1.71722,2.85723 2.54127,2.86762 2.54127,0.0313 0,-1.38567 0.40385,-2.44753 1.07004,-2.81352 2.19224,-1.20442 -0.59931,-1.54516 -8.93187,-1.09017 l -8.41646,0.45956 0.95133,3.96375 c 0.52303,2.18007 0.79286,4.76203 0.59931,5.73768 l -0.3521,1.77392 h 4.00161 4.00168 z m -36.81543,-4.37687 0.0906,-4.99924 h -2.17031 c -2.21964,0 -3.45636,0.87947 -2.25864,1.60617 1.06288,0.64494 0.77352,4.95071 -0.41965,6.24507 -0.59808,0.64882 -1.85478,1.18409 -2.7926,1.18952 -1.35431,0.007 -1.50235,0.14186 -0.71953,0.65107 0.5421,0.35257 2.60432,0.56594 4.58274,0.47386 l 3.59711,-0.16719 z m 62.03752,3.74719 c 0,-0.51125 -0.27855,-1.09856 -0.61906,-1.30516 -0.99799,-0.60544 -1.59968,-6.04875 -0.77604,-7.02267 0.39977,-0.47291 0.53257,-1.05082 0.29489,-1.28428 -0.55368,-0.54298 -9.7141,-0.55838 -10.26547,-0.017 -0.22814,0.22399 0.0136,1.01429 0.54755,1.75619 0.52916,0.74189 0.96244,1.83884 0.96244,2.43763 0,0.59883 0.7921,2.27587 1.75944,3.72685 1.65661,2.48398 1.94462,2.63813 4.92815,2.63813 2.32082,0 3.16864,-0.24871 3.16864,-0.92952 z m 26.68085,-0.6961 c 1.00963,-1.51265 1.00827,-1.82294 -0.0136,-4.46463 -1.41028,-3.62531 -2.35814,-4.36147 -5.29339,-4.11112 l -2.37864,0.20288 1.71825,2.25772 c 1.22218,1.60599 1.65048,2.85171 1.48362,4.31541 -0.17911,1.57172 0.0831,2.20888 1.10743,2.69787 1.97281,0.94117 2.19367,0.88252 3.38221,-0.89815 z m -98.74854,-0.47086 c -0.29386,-0.79827 -0.47543,-2.68507 -0.40344,-4.19291 0.12837,-2.68843 0.09,-2.74079 -1.97406,-2.70433 -1.15771,0.0211 -3.28768,0.24626 -4.73326,0.50192 -2.59921,0.45962 -2.62576,0.49313 -2.39627,3.02686 0.39724,4.38621 0.91448,4.81984 5.74908,4.81984 4.17141,0 4.27716,-0.0409 3.75792,-1.4514 z m 87.83766,1.06934 c 0,-0.21009 -0.59114,-1.12012 -1.31419,-2.02218 -1.38304,-1.72612 -1.78205,-5.62157 -0.6463,-6.31062 0.36708,-0.2229 0.49716,-0.67537 0.29012,-1.00567 -0.40725,-0.64725 -9.02946,-0.84708 -9.66404,-0.22399 -0.4563,0.44832 1.8016,4.3539 3.15542,5.45694 0.52371,0.42639 0.95154,1.41697 0.95154,2.20136 0,0.78438 0.19682,1.61967 0.4379,1.85619 0.54142,0.53168 6.78982,0.57582 6.78982,0.0477 z m -85.74924,-14.56328 c 5.05956,-0.28794 10.91037,-0.69895 13.00189,-0.91344 3.51419,-0.36041 3.77033,-0.49552 3.37587,-1.78026 -0.23495,-0.76467 -0.68941,-1.66607 -1.01017,-2.00312 -0.32077,-0.33704 -0.58297,-1.14249 -0.58297,-1.78988 0,-1.27018 -2.92305,-2.70981 -4.38434,-2.15932 -0.48013,0.18074 -0.87227,1.20187 -0.87227,2.26918 0,1.34385 -0.4917,2.25676 -1.59865,2.96887 -2.22017,1.4281 -4.05877,0.34058 -5.67255,-3.35538 -1.32392,-3.03209 -2.75018,-3.47168 -3.12568,-0.96336 -0.2795,1.86692 -2.97727,3.56465 -4.90832,3.08885 -0.87973,-0.21677 -1.98042,-1.32957 -2.62249,-2.65136 -2.13028,-4.38554 -4.41312,-2.52177 -4.41312,3.603 0,4.41089 0.56819,5.40457 2.62832,4.59637 0.5421,-0.21262 5.12524,-0.62219 10.18478,-0.91015 z m 29.40052,-4.24527 c -0.18456,-1.68523 -0.3698,-3.09622 -0.41202,-3.13555 -0.0409,-0.0395 -1.33353,-0.26049 -2.86946,-0.49143 l -2.79257,-0.41992 v 2.53511 c 0,1.39431 -0.17979,2.99429 -0.39909,3.55547 -0.3337,0.85399 0.18865,1.02036 3.20467,1.02036 h 3.60361 z m 20.2748,1.22134 c 1.41777,-3.99257 5.41584,-4.03167 7.50089,-0.0733 0.9988,1.89603 1.06751,1.91608 6.57767,1.91608 3.06254,0 5.55886,-0.21773 5.54742,-0.48388 -0.007,-0.26607 -0.45493,-1.04727 -0.98559,-1.73594 -0.52984,-0.68869 -0.96482,-1.77723 -0.96482,-2.41898 0,-1.0918 -0.96843,-1.16684 -15.05884,-1.16684 h -15.05891 l 0.24177,2.74151 c 0.1328,1.50784 0.25606,2.81409 0.27445,2.90279 0.0136,0.0887 2.56184,0.16127 5.6525,0.16127 5.59032,0 5.62273,-0.0102 6.27366,-1.8427 z m 35.7411,0.71386 c -1.01807,-2.4277 -1.09837,-3.419 -0.42973,-5.30189 0.64766,-1.82278 0.58773,-1.95507 -0.88187,-1.95507 -0.86695,0 -3.08902,0.31845 -4.93803,0.70775 -3.25424,0.68514 -3.32541,0.74721 -2.22581,1.94001 0.6715,0.72853 1.10061,2.15319 1.0496,3.48513 l -0.0858,2.2529 h 3.99283 c 3.54497,0 3.9397,-0.1266 3.51943,-1.12886 z m 11.41552,-1.09877 c 0.49443,-0.9954 0.93751,-2.71564 0.98566,-3.82274 0.0851,-1.95781 0.002,-2.01831 -3.03352,-2.20953 -3.51882,-0.22167 -3.91355,0.45554 -1.80691,3.0994 0.70691,0.88695 1.29151,2.43511 1.29954,3.44033 0.0136,2.2696 1.30411,2.01423 2.55523,-0.50751 z M 252.7989,121.6276 c 0,-0.51125 -0.29557,-1.10893 -0.6572,-1.3282 -0.36163,-0.21929 -0.65719,-1.38105 -0.65719,-2.58174 0,-2.30732 1.83102,-4.19143 4.07338,-4.19143 1.40974,0 6.43984,6.0915 6.43984,7.79869 0,1.16252 0.60408,1.23195 10.67763,1.22792 7.60522,-0.003 12.82982,-0.36803 18.15726,-1.26851 4.11384,-0.69532 7.62232,-1.40429 7.79673,-1.57546 0.17434,-0.17114 -0.007,-1.23127 -0.40862,-2.35579 -0.39908,-1.12451 -0.5564,-2.70622 -0.35005,-3.51491 0.34937,-1.36651 0.13961,-1.48637 -2.96433,-1.69745 -3.6126,-0.24565 -3.8637,3e-4 -2.33628,2.28874 0.75588,1.13207 0.84237,1.91784 0.3521,3.1846 -1.88476,4.86657 -9.89696,0.79982 -9.89696,-5.02339 0,-1.58013 -0.15528,-1.64469 -3.94243,-1.64469 -2.9947,0 -3.94256,0.22345 -3.94256,0.92954 0,0.51125 0.29557,1.10892 0.65719,1.32819 0.36163,0.21929 0.6572,1.3873 0.6572,2.59563 0,5.80959 -8.6378,3.65825 -9.62407,-2.39699 l -0.39977,-2.45637 h -11.96988 c -6.58333,0 -15.08765,-0.18721 -18.8985,-0.41611 l -6.92868,-0.41618 0.33438,1.71584 c 0.18388,0.94372 0.59454,1.87383 0.91272,2.06691 0.85606,0.51943 0.70208,4.41109 -0.20976,5.30642 -1.37691,1.35169 -4.98855,0.94418 -6.00282,-0.67735 -5.07455,-8.11294 -5.17639,-8.22455 -7.50437,-8.22455 h -2.24689 l 0.45098,2.62055 c 1.10154,6.40065 -6.80494,6.97713 -8.13494,0.59318 -0.53781,-2.58164 -2.46786,-3.36364 -3.82031,-1.54788 -0.92488,1.24171 -1.16141,5.90923 -0.3619,7.14158 0.31096,0.47931 3.99011,0.87447 10.33899,1.11045 5.42093,0.20152 12.47835,0.53005 15.68315,0.73 l 5.82698,0.36367 -0.43382,-2.27142 c -0.66332,-3.4705 1.07821,-6.12986 4.02722,-6.14997 1.89061,-0.0129 6.29444,5.49319 5.74723,7.18578 -0.65175,2.01556 0.28535,2.48028 4.99925,2.48028 3.53292,0 4.5608,-0.20948 4.5608,-0.92952 z m 61.76571,-4.08745 c 0,-4.07129 -1.38311,-5.30404 -5.95092,-5.30404 -2.14798,0 -3.90531,0.18245 -3.90531,0.40528 0,0.2229 0.90883,1.96457 2.01946,3.87038 1.96389,3.36966 2.09955,3.4651 4.92815,3.4651 h 2.90862 z m -0.58569,-14.31445 c 0.61702,-2.02091 0.6068,-2.7664 -0.0477,-3.5413 -0.72781,-0.86108 -0.98776,-0.78444 -2.11678,0.62457 -2.27819,2.8433 -6.44815,1.36546 -6.44815,-2.28523 0,-2.68791 -1.18799,-3.26184 -5.36898,-2.59382 -1.9961,0.31893 -4.74543,1.03773 -6.10974,1.59734 -1.36424,0.5596 -3.60334,1.01746 -4.97576,1.01746 h -2.49516 l 0.1219,3.38659 0.12191,3.38657 3.43914,0.19491 c 3.42273,0.1941 3.43921,0.18585 3.43921,-1.72784 0,-2.21302 1.48043,-3.95017 3.36634,-3.95017 2.13109,0 6.40456,2.77131 7.21193,4.6767 0.70773,1.67101 0.99315,1.77392 4.91643,1.77392 h 4.16499 z m -92.22711,0.88702 10.67756,-0.395 v -1.82282 c 0,-3.41744 3.49519,-5.0313 6.02625,-2.78258 0.70793,0.62893 1.20168,1.95415 1.20168,3.22531 0,2.13229 0.034,2.15774 3.00389,2.15774 2.72726,0 2.9883,-0.13362 2.83432,-1.45139 -0.0933,-0.79826 0.0545,-2.10451 0.32622,-2.90278 0.4127,-1.20994 0.97367,-1.45139 3.3707,-1.45139 3.15705,0 4.92106,1.55449 4.92106,4.33644 v 1.46912 l 12.64888,4e-4 12.6488,4e-4 -0.22746,-3.2257 c -0.26084,-3.69592 -1.21721,-4.12565 -2.86286,-1.28647 -0.82799,1.42839 -1.59776,1.92854 -2.95697,1.92124 -2.39491,-0.0129 -3.2462,-0.59215 -4.09647,-2.78758 -0.56662,-1.46192 -1.04082,-1.76494 -2.50518,-1.59954 -1.51209,0.17087 -1.84062,0.55143 -2.0151,2.33414 -0.42837,4.37583 -5.81568,4.27689 -7.69614,-0.14138 -0.86484,-2.03203 -1.30431,-2.28482 -5.71529,-3.28722 -5.96686,-1.35599 -14.07564,-1.84428 -19.23425,-1.15827 l -3.94249,0.52433 -0.36367,3.10764 c -0.46583,3.97992 -2.25143,5.22321 -5.24354,3.6512 -0.85898,-0.45125 -1.38712,-1.67254 -1.68875,-3.9047 -0.42837,-3.16727 -0.48967,-3.24316 -2.47759,-3.05242 -1.80816,0.17346 -2.08481,0.47665 -2.44672,2.68176 -0.43627,2.65789 -1.39493,3.61624 -3.63337,3.63205 -1.82039,0.0129 -2.84599,-1.26183 -3.31936,-4.12547 -0.33132,-2.00386 -0.62546,-2.31529 -2.18754,-2.31529 -0.99264,0 -2.10653,0.36286 -2.47531,0.80634 -0.99073,1.19145 -2.8154,7.63982 -2.36448,8.35608 0.22331,0.35475 2.24524,0.46072 4.75252,0.24912 2.4001,-0.20254 9.16874,-0.54598 15.04141,-0.76326 z m 71.12908,-13.56048 c 1.62638,-0.56267 6.01059,-1.36041 9.74292,-1.7727 7.79277,-0.86081 8.17715,-1.16799 7.86837,-6.2879 -0.18388,-3.05614 -0.40249,-3.43619 -3.05627,-5.31898 l -2.85761,-2.02765 -11.59818,0.2718 c -17.06291,0.39976 -38.49758,0.30837 -61.69693,-0.26336 l -20.53013,-0.50594 -1.11118,2.50646 c -0.61116,1.37855 -1.23501,4.58127 -1.38631,7.11716 l -0.27507,4.6107 2.10218,0.45329 c 1.1562,0.24933 9.83584,0.26063 19.28811,0.0245 14.04022,-0.34971 18.00968,-0.25144 21.68671,0.53713 2.47548,0.53093 4.66847,1.12988 4.87333,1.33102 0.20499,0.2011 7.93722,0.36149 17.18291,0.35631 13.6487,-0.007 17.36645,-0.20179 19.76715,-1.03248 z m -3.94242,-21.73301 2.29971,-0.76991 0.45561,-6.45062 c 0.31055,-4.40168 1.00936,-7.98733 2.1996,-11.28861 0.95943,-2.66088 1.98302,-7.20089 2.27471,-10.08891 0.29148,-2.88803 1.15135,-6.62933 1.9105,-8.31402 1.24636,-2.76626 1.30867,-3.46568 0.64357,-7.21794 -0.44607,-2.51335 -1.29096,-4.76388 -2.13891,-5.69635 -2.05863,-2.26358 -10.09351,-4.15999 -17.65262,-4.16639 -3.34952,-0.003 -9.62707,-0.43831 -13.95006,-0.96759 -9.05609,-1.1089 -40.43381,-1.35396 -42.38088,-0.33098 -1.95164,1.02536 -2.65437,4.25935 -2.65215,12.2048 0.002,6.07594 0.36381,8.93894 1.92576,15.22398 2.21355,8.90746 3.88665,18.42393 4.13938,23.5448 l 0.17502,3.54785 12.07313,0.45622 c 6.64027,0.2509 12.23365,0.61375 12.42986,0.80634 0.75192,0.73825 35.9247,0.28528 38.24838,-0.49266 z"
       id="path303" /><path
       style="fill:#ffffff;fill-rule:evenodd;stroke-width:0.325523"
       d="m 346.92595,327.68496 c -2.05563,-1.03137 -4.63633,-4.13548 -7.10405,-8.54491 -0.29829,-0.53215 -0.74307,-1.08365 -0.98974,-1.22551 -0.24654,-0.14193 -0.44812,-0.44594 -0.44812,-0.67572 0,-0.22978 -0.29557,-0.68049 -0.6572,-1.00156 -0.36162,-0.3211 -0.65719,-0.82935 -0.65719,-1.12949 0,-0.3002 -0.29557,-0.88042 -0.6572,-1.28949 -0.36163,-0.40903 -0.65719,-0.89518 -0.65719,-1.08025 0,-0.44607 -1.50134,-2.62627 -2.94628,-4.27833 -0.63881,-0.72984 -1.38223,-1.63618 -1.65328,-2.01414 -0.27037,-0.37798 -0.86246,-1.20768 -1.31418,-1.84383 -0.45153,-0.63608 -1.93734,-2.55999 -3.30131,-4.27522 -1.36397,-1.71524 -2.66344,-3.48145 -2.88778,-3.92493 -0.86048,-1.70154 -1.32426,-2.3214 -3.20486,-4.28391 -1.06738,-1.11384 -2.16248,-2.37413 -2.43353,-2.80063 -0.68199,-1.07284 -4.84262,-4.95914 -5.61225,-5.24189 -0.34596,-0.12735 -0.62996,-0.38131 -0.62996,-0.56444 0,-0.18313 -0.16889,-0.33289 -0.37524,-0.33289 -0.67286,0 -3.80581,-2.86045 -5.56764,-5.08366 -2.47807,-3.12705 -7.07667,-7.67692 -9.11814,-9.0215 -0.96529,-0.63581 -1.83122,-1.35072 -1.92425,-1.58871 -0.0933,-0.23796 -0.37525,-0.43266 -0.62655,-0.43266 -0.2513,0 -0.45765,-0.11898 -0.45765,-0.26445 0,-0.14547 -0.45698,-0.76226 -1.01529,-1.37076 -1.24322,-1.35473 -3.25574,-4.27776 -3.25574,-4.72869 0,-0.18163 -0.2118,-0.50321 -0.47127,-0.71463 -0.25948,-0.21139 -0.56458,-0.79967 -0.67831,-1.30733 -0.11305,-0.50764 -0.41475,-1.09277 -0.66945,-1.30025 -0.25471,-0.20744 -0.55505,-0.86057 -0.6681,-1.45133 -0.11237,-0.5908 -0.39363,-1.14501 -0.62314,-1.23168 -0.22951,-0.0866 -0.52031,-0.55694 -0.64494,-1.04511 -0.12463,-0.48809 -0.5135,-1.24514 -0.86361,-1.68219 -0.35005,-0.43709 -0.63677,-1.00618 -0.63677,-1.26471 0,-0.25846 -0.29557,-0.8391 -0.6572,-1.29013 -0.36162,-0.45105 -0.65719,-1.073 -0.65719,-1.38214 0,-0.30912 -0.2118,-0.73501 -0.47127,-0.94638 -0.25948,-0.21132 -0.56935,-0.82142 -0.68921,-1.35566 -0.11986,-0.5342 -0.79449,-1.95383 -1.49956,-3.15466 -0.70535,-1.20083 -1.28225,-2.36363 -1.28225,-2.58398 0,-0.22038 -0.29557,-0.76968 -0.6572,-1.22072 -0.36162,-0.45104 -0.65719,-1.14084 -0.65719,-1.5329 0,-0.39207 -0.29557,-0.97555 -0.6572,-1.29663 -0.36163,-0.3211 -0.65719,-0.92867 -0.65719,-1.35024 0,-0.42156 -0.21793,-0.84848 -0.48354,-0.94874 -0.26628,-0.10032 -0.58296,-0.71255 -0.70534,-1.36064 -0.12191,-0.64807 -0.49579,-1.68419 -0.83025,-2.30243 -0.33506,-0.61824 -0.60884,-1.63821 -0.60884,-2.26658 0,-0.62839 -0.21657,-1.44624 -0.48149,-1.81747 -0.27037,-0.37994 -0.57615,-1.85639 -0.69887,-3.37771 -0.13144,-1.6396 -0.44267,-3.08337 -0.79048,-3.67035 -0.316,-0.53216 -0.66945,-1.36673 -0.78645,-1.85456 -0.11714,-0.48782 -0.35073,-0.88696 -0.52031,-0.88696 -0.16958,0 -0.4059,-0.54421 -0.52644,-1.20949 -0.12054,-0.66523 -0.49647,-1.66204 -0.83624,-2.21515 -0.33915,-0.55314 -0.62178,-1.35139 -0.62791,-1.77393 -0.006,-0.42258 -0.29693,-1.34882 -0.64562,-2.05838 -0.38274,-0.77744 -0.64017,-1.99509 -0.64834,-3.06405 -0.007,-1.08109 -0.237,-2.15184 -0.58637,-2.74152 -0.51077,-0.86303 -0.57275,-2.0371 -0.57275,-10.86389 v -9.89632 l 0.96496,-0.98915 c 0.80457,-0.82476 1.21748,-0.98914 2.48474,-0.98914 1.26679,0 1.68038,0.16454 2.48468,0.98848 0.92436,0.94686 0.97496,1.15395 1.20216,4.91861 1.05716,17.52026 1.23437,19.35297 2.00121,20.70175 0.30306,0.53216 0.55095,1.37426 0.55163,1.87129 10e-4,0.49708 0.2983,1.47672 0.65856,2.17709 0.36163,0.70035 0.95283,1.84642 1.31412,2.54679 0.36163,0.70034 0.65788,1.53491 0.65992,1.85455 0.001,0.31961 0.29557,1.01658 0.65447,1.54876 0.44131,0.65324 0.65311,1.51383 0.65447,2.64895 0.001,0.92473 0.2983,2.41778 0.65992,3.31787 0.36163,0.9001 0.65788,2.24801 0.65924,2.99537 10e-4,0.81304 0.26424,1.74745 0.65448,2.3264 0.3589,0.53216 0.65379,1.20242 0.65447,1.48943 0.001,0.28699 0.66741,1.80181 1.48056,3.36623 0.81322,1.56442 1.47845,3.03498 1.47845,3.26791 0,0.23292 0.14234,0.42347 0.31532,0.42347 0.17366,0 0.47059,0.56369 0.65992,1.25256 0.18865,0.68891 0.56389,1.43237 0.83406,1.65215 0.26969,0.21977 0.49102,0.57997 0.49102,0.8004 0,0.22045 0.29557,0.76983 0.6572,1.22088 0.36163,0.45104 0.6572,1.10415 0.6572,1.45139 0,0.34719 0.29556,1.00035 0.65719,1.45139 0.36163,0.45105 0.6572,1.02896 0.6572,1.28427 0,0.25532 0.29557,0.7989 0.65719,1.20797 0.36163,0.4091 0.6572,0.91969 0.6572,1.13471 0,0.215 0.29557,0.75995 0.65719,1.21102 0.36163,0.45104 0.6572,1.03159 0.6572,1.29012 0,0.25852 0.29557,0.83909 0.6572,1.29013 0.36162,0.45105 0.65719,1.02799 0.65719,1.28211 0,0.39602 0.82909,2.09827 2.55591,5.24787 0.5278,0.96277 5.14575,5.6382 5.5688,5.6382 0.39773,0 6.06698,5.48118 7.80953,7.54985 2.02403,2.40285 5.48939,5.99648 5.78244,5.99648 0.14438,0 0.89835,0.42401 1.67541,0.94224 1.44685,0.96496 7.1622,6.50882 7.1622,6.94728 0,0.13389 0.72945,0.98972 1.6212,1.90187 1.53355,1.56873 4.49345,5.60785 4.87877,6.65771 0.0981,0.26608 0.38138,0.7015 0.62996,0.96759 0.24926,0.26608 1.11117,1.35464 1.91622,2.41899 0.80518,1.06435 1.61881,2.11715 1.80814,2.33955 0.18932,0.22236 1.09482,1.3835 2.01224,2.58025 0.91735,1.19674 1.93904,2.4292 2.27029,2.73881 0.33098,0.3096 1.20863,1.61585 1.94973,2.90278 0.74069,1.28693 1.49016,2.55757 1.66464,2.82366 0.17435,0.26608 0.53802,0.9555 0.80791,1.53202 0.26969,0.5765 0.6068,1.04823 0.74709,1.04823 0.14166,0 0.75915,0.97969 1.37378,2.17709 1.10014,2.14446 2.65793,4.41531 3.50847,5.11442 0.23836,0.19641 0.87867,0.90576 1.42159,1.57638 1.44263,1.78222 1.37963,3.43231 -0.1866,4.88225 -1.33019,1.23157 -2.29678,1.33551 -4.0834,0.43906 z"
       id="path305" /><path
       style="fill:#ffffff;fill-rule:evenodd;stroke-width:0.325523"
       d="m 342.48603,362.45941 c -0.5026,-0.38839 -1.34143,-1.63076 -1.86344,-2.76079 -0.52235,-1.13005 -1.72744,-3.09821 -2.67904,-4.37369 -0.95154,-1.2755 -2.1253,-2.99218 -2.60842,-3.81486 -0.48285,-0.82268 -1.65784,-2.33492 -2.61081,-3.36053 -0.9529,-1.02561 -2.62272,-2.81987 -3.71053,-3.98725 -1.08795,-1.16738 -2.48863,-2.8482 -3.11273,-3.73517 -1.3752,-1.95437 -2.52519,-3.23866 -5.02002,-5.606 -1.04341,-0.9901 -2.2965,-2.38345 -2.78467,-3.09633 -0.4883,-0.71284 -1.24233,-1.65899 -1.67581,-2.10246 -0.43382,-0.44349 -1.41866,-1.6046 -2.18931,-2.58026 -0.77039,-0.97566 -3.74595,-3.94869 -6.61187,-6.60675 -9.53336,-8.84192 -12.3087,-11.60216 -13.30103,-13.22893 -0.54142,-0.88697 -1.42309,-2.19322 -1.96008,-2.90279 -0.53665,-0.70961 -1.11287,-1.60879 -1.27973,-1.99829 -0.16685,-0.38948 -0.85571,-1.47802 -1.53102,-2.41898 -0.67559,-0.94095 -1.58007,-2.21881 -2.01061,-2.83967 -0.43042,-0.6209 -1.32631,-1.72392 -1.99046,-2.45121 -1.60253,-1.75483 -3.9412,-4.70624 -10.83603,-13.67538 -0.34052,-0.44349 -1.33666,-2.04 -2.21274,-3.54783 -0.87615,-1.50785 -1.70306,-2.81727 -1.83763,-2.90985 -0.33166,-0.22828 -1.92691,-2.55081 -1.92691,-2.80576 0,-0.11217 -0.64903,-1.15797 -1.44284,-2.32404 -1.89279,-2.78124 -3.30702,-6.70499 -5.53059,-15.34389 -0.54755,-2.1287 -1.29512,-5.03148 -1.66056,-6.45063 -0.92184,-3.57999 -2.54311,-8.51309 -2.86122,-8.70609 -0.14506,-0.0883 -0.67422,-1.28598 -1.17519,-2.6616 -0.50124,-1.37563 -1.02236,-2.64787 -1.15877,-2.82718 -0.54074,-0.71053 -2.3008,-8.19108 -2.46438,-10.47327 -0.18797,-2.62402 -1.12207,-8.65857 -2.09751,-13.55183 -1.84383,-9.24883 -1.94925,-10.21137 -2.3151,-21.12581 -0.20976,-6.24914 -0.4958,-10.41841 -0.80839,-11.7724 -0.67899,-2.94038 -0.65788,-8.75829 0.0409,-10.0758 1.24002,-2.354 3.27917,-2.86077 4.88593,-1.21425 0.90986,0.93227 0.95113,1.11595 1.17791,5.24113 0.1294,2.35125 0.41747,4.78299 0.64017,5.40386 0.36708,1.02124 0.61293,5.23461 1.13984,19.51315 0.0981,2.65561 0.43042,5.71104 0.80818,7.41823 1.25814,5.69141 1.66724,7.77102 1.9673,9.99847 0.16685,1.24175 0.53257,3.27369 0.81206,4.51544 0.27923,1.24174 0.51146,3.20112 0.51623,4.35418 0.0136,3.14452 2.00203,10.23462 3.80022,13.54631 1.15837,2.13349 2.20566,5.16097 3.29136,9.51468 1.11928,4.48835 1.9579,7.72955 2.58724,9.99848 0.29557,1.06435 0.7567,2.7967 1.02591,3.84966 0.26901,1.05296 0.61225,2.06893 0.76234,2.25771 0.15051,0.18879 0.37934,0.77868 0.50942,1.31085 0.49238,2.01606 2.09179,4.82582 4.95777,8.70835 0.91667,1.24174 2.39506,3.48845 3.28523,4.99269 0.89025,1.50423 1.81019,2.95562 2.04432,3.22532 1.69407,1.95147 4.06365,4.90638 5.1501,6.42201 0.71012,0.9909 1.64579,2.16617 2.07913,2.61169 0.43313,0.44547 1.34844,1.60908 2.03376,2.58568 0.68526,0.97661 1.68487,2.21029 2.22126,2.74152 0.53665,0.53127 1.54315,1.90928 2.23739,3.06233 1.20338,1.99859 1.92487,3.06078 5.58596,8.22456 0.88044,1.24175 2.55503,3.12855 3.72143,4.1929 11.09885,10.12795 15.09718,14.00993 16.39686,15.91961 0.64698,0.95053 2.83405,3.3954 4.86019,5.43305 3.4943,3.51412 5.07552,5.30616 5.07552,5.75228 0,0.30388 3.65456,4.57214 5.84598,6.82774 1.06977,1.10114 2.18952,2.33483 2.48822,2.74152 7.24829,9.86867 8.47932,12.1622 7.96698,14.84327 -0.25879,1.35152 -1.81263,2.82909 -2.97617,2.82909 -0.41339,0 -1.16334,-0.31777 -1.66628,-0.70622 z"
       id="path307" /><path
       style="fill:#ffffff;fill-rule:evenodd;stroke-width:0.325523"
       d="m 242.55625,287.53656 c -0.59795,-0.41114 -1.86242,-2.70764 -3.55438,-6.45522 -2.39376,-5.30203 -3.1228,-7.0212 -3.1228,-7.36381 0,-0.22106 -0.3017,-0.97678 -0.67014,-1.67951 -0.36844,-0.70274 -1.04926,-2.36622 -1.5125,-3.69667 -0.4631,-1.33044 -1.04865,-2.74036 -1.30091,-3.13314 -0.73218,-1.14007 -4.32312,-10.90071 -4.69292,-12.75593 -0.93567,-4.69354 -1.02264,-7.2569 -1.02264,-30.13481 0,-22.83932 0.0272,-23.89784 0.6572,-26.0619 0.585,-2.00873 0.65719,-3.22257 0.65719,-11.08823 0,-8.3239 0.0409,-8.89381 0.66946,-9.89591 1.2424,-1.9735 3.8577,-1.85521 4.93782,0.22338 0.62314,1.1991 0.64494,1.72886 0.47672,11.65356 -0.0967,5.71854 -0.25402,21.21022 -0.34869,34.42593 -0.14778,20.58734 -0.10011,24.48023 0.33099,27.18208 0.27718,1.73442 0.73639,3.69379 1.021,4.35418 0.28467,0.66033 1.0037,2.57951 1.59797,4.26475 0.59454,1.68521 1.52626,4.00744 2.07109,5.16049 0.54482,1.15305 1.38522,3.25757 1.86759,4.67671 0.94057,2.76706 2.19742,5.87232 4.04376,9.99067 0.63473,1.41485 1.36105,3.25915 1.61487,4.09843 0.25402,0.83928 0.60543,1.61333 0.78162,1.72013 0.89685,0.54407 0.0892,3.90979 -1.13937,4.74721 -0.59931,0.40862 -2.63464,0.26806 -3.36232,-0.23237 z"
       id="path309" /><path
       style="fill:#ffffff;fill-rule:evenodd;stroke-width:0.325523"
       d="m 238.48531,150.68771 c -3.58802,-3.63886 -4.20149,-5.94403 -2.12441,-7.9831 0.99199,-0.97383 1.34824,-1.11811 2.7609,-1.11811 1.35825,0 1.81509,0.16781 2.80912,1.03172 1.67248,1.45363 3.14732,4.14131 3.14732,5.73562 0,1.03387 -0.23836,1.55371 -1.18819,2.58514 -1.027,1.11595 -1.37228,1.28966 -2.54618,1.28075 -1.18166,-0.01 -1.55302,-0.20799 -2.85856,-1.53202 z"
       id="path311" /><path
       style="fill:#ffffff;fill-rule:evenodd;stroke-width:0.325523"
       d="m 262.72126,395.3365 c -0.50601,-0.39827 -1.31882,-1.32327 -1.80698,-2.05558 -1.85329,-2.7806 -3.68248,-5.23408 -4.56823,-6.12751 -0.50532,-0.50975 -1.36193,-1.57995 -1.90355,-2.37821 -0.54142,-0.79827 -1.05941,-1.52397 -1.15074,-1.61266 -0.0919,-0.0887 -0.6068,-0.8144 -1.14413,-1.61266 -2.04582,-3.03598 -5.05973,-6.44388 -9.5557,-10.8048 -2.56034,-2.48349 -5.45084,-5.52348 -6.42329,-6.75554 -2.20327,-2.79152 -5.87478,-8.26724 -5.87478,-8.76167 0,-0.20301 -0.1975,-0.52998 -0.43859,-0.72651 -0.24108,-0.19654 -0.85095,-1.41175 -1.35477,-2.70037 -0.86124,-2.20263 -3.48014,-7.88924 -4.12413,-8.95486 -0.16072,-0.26608 -0.61633,-1.11685 -1.01262,-1.89059 -0.39637,-0.77374 -1.63319,-2.73312 -2.74879,-4.35418 -3.54213,-5.14691 -6.04033,-10.65156 -7.5586,-16.65496 -1.21826,-4.81715 -1.55248,-5.97563 -1.8133,-6.28545 -0.87944,-1.04463 -4.07834,-11.42222 -4.61211,-14.96223 -0.17714,-1.17471 -0.50512,-3.22439 -0.72886,-4.55483 -0.27186,-1.61671 -0.40773,-6.43039 -0.40984,-14.51392 -0.003,-10.18146 0.0747,-12.22248 0.4898,-12.90125 0.39411,-0.64481 0.52834,-2.61538 0.67013,-9.83721 0.1518,-7.72977 0.25907,-9.17658 0.74451,-10.04214 0.31192,-0.5562 0.8348,-2.0459 1.16193,-3.31049 0.9735,-3.76325 3.0038,-5.17544 5.1064,-3.5518 1.15259,0.89005 1.84472,2.25908 1.84472,3.64889 0,1.476 -0.76219,4.21929 -1.61844,5.82488 -0.63602,1.1926 -0.68137,1.80873 -0.68137,9.25235 0,6.85338 -0.0921,8.35167 -0.65482,10.65596 -0.55238,2.26189 -0.65508,3.80707 -0.65712,9.87783 -0.003,8.87982 0.85821,16.27886 2.62504,22.55703 2.02517,7.19611 3.06473,10.31304 3.62218,10.86028 0.17673,0.17346 0.32124,0.59536 0.32124,0.93752 0,0.34222 0.35911,1.72823 0.79785,3.08017 0.43886,1.35195 1.123,3.6192 1.52038,5.03834 0.39704,1.41914 0.87185,2.76441 1.05451,2.98951 0.18251,0.22508 1.10007,1.89996 2.03887,3.72193 0.9388,1.82195 2.4556,4.39542 3.37077,5.71883 0.9151,1.32339 1.90069,2.91416 2.1902,3.53504 0.28943,0.62089 0.90951,1.78198 1.37779,2.58025 0.46855,0.79826 1.2975,2.53077 1.84253,3.85001 0.54483,1.31925 1.11097,2.62549 1.25746,2.90278 0.14642,0.27725 0.88173,1.76699 1.63373,3.31046 1.24649,2.55814 3.10891,5.66205 3.63814,6.06332 0.11714,0.0887 0.45016,0.61538 0.73906,1.1705 0.29011,0.55504 1.23702,1.78876 2.10534,2.74152 0.86838,0.95275 2.15267,2.43637 2.85393,3.29693 1.67806,2.059 4.01816,4.31288 5.44771,5.24703 0.632,0.41332 1.51945,1.20768 1.97125,1.76535 0.45152,0.55763 1.23886,1.4685 1.74916,2.02404 0.51009,0.55552 1.4683,1.80832 2.12897,2.78398 0.6606,0.97565 1.31031,1.82076 1.44372,1.87802 0.13348,0.0572 0.7093,0.9049 1.27959,1.88367 0.57003,0.97876 1.64708,2.39673 2.3924,3.15104 1.12248,1.13592 3.448,4.34727 5.38751,7.43992 0.80838,1.28897 1.12963,2.28314 1.13957,3.52667 0.0136,2.4672 -3.01908,3.67861 -5.1057,2.03539 z"
       id="path313" /><path
       style="fill:#ffffff;fill-rule:evenodd;stroke-width:0.325523"
       d="m 187.74778,361.92642 c -0.71543,-0.42953 -1.13891,-1.07018 -1.54478,-2.33715 -1.28648,-4.01575 -1.9049,-6.2477 -1.9049,-6.87501 0,-0.36674 -0.35924,-1.39452 -0.79842,-2.28403 -0.43913,-0.88951 -1.19501,-2.63326 -1.67975,-3.875 -0.48476,-1.24175 -0.99996,-2.40287 -1.14489,-2.58026 -0.35176,-0.43048 -1.43287,-3.69283 -2.08424,-6.28936 -1.04952,-4.18371 -2.17772,-9.45693 -2.17772,-10.17872 0,-0.85109 -1.09658,-5.91699 -1.84749,-8.53486 -0.9149,-3.18965 -0.28153,-11.41969 1.11646,-14.50716 0.36796,-0.81261 0.58916,-2.93594 0.78958,-7.57949 0.31661,-7.33255 0.5972,-9.27945 1.6305,-11.31058 0.74773,-1.46978 2.40332,-2.71953 3.60267,-2.71953 1.12039,0 2.48252,0.89413 2.91168,1.91127 0.33956,0.80476 0.32302,1.24195 -0.0953,2.51482 -1.00671,3.06349 -1.19238,4.18942 -1.371,8.31389 -0.2863,6.61154 -0.63043,9.93518 -1.11631,10.78124 -0.45813,0.79785 -0.89457,3.15607 -1.23024,6.64787 -0.14282,1.48603 0.0177,2.76599 0.67681,5.40084 0.47522,1.89928 0.99053,4.43364 1.14517,5.6319 0.15466,1.19825 0.50587,3.12205 0.78035,4.2751 0.27459,1.15305 0.67674,2.96728 0.89364,4.03164 0.70603,3.46406 2.70879,9.70514 3.30683,10.30489 0.16808,0.16855 0.30558,0.49191 0.30558,0.71863 0,0.22665 0.51118,1.48399 1.13586,2.79394 1.10685,2.32088 2.70523,7.51812 3.464,11.26338 0.50955,2.51505 0.0279,3.99478 -1.50413,4.62328 -1.45455,0.59665 -2.0753,0.56968 -3.25999,-0.14152 z"
       id="path315" /><path
       style="fill:#ffffff;fill-rule:evenodd;stroke-width:0.325523"
       d="m 239.43249,440.87402 c -1.04981,-0.76936 -1.36602,-1.63513 -2.23024,-6.10645 -0.35959,-1.86263 -1.03837,-4.69283 -1.50747,-6.28936 -0.46923,-1.59653 -0.99288,-3.45996 -1.16395,-4.14093 -0.17094,-0.68096 -0.58228,-1.76953 -0.91408,-2.41899 -0.33166,-0.6495 -1.00936,-2.18835 -1.50583,-3.41976 -0.49647,-1.23141 -1.29328,-2.81547 -1.77055,-3.52013 -1.10879,-1.63684 -2.21948,-3.41531 -2.64765,-4.23942 -0.18456,-0.35475 -0.77303,-1.22562 -1.30819,-1.93519 -0.53529,-0.70961 -1.37977,-1.94325 -1.87706,-2.74151 -1.22252,-1.9624 -3.00274,-4.15865 -5.93566,-7.3226 -3.2837,-3.54237 -5.87856,-6.9931 -6.84055,-9.09683 -0.27643,-0.60455 -2.48025,-3.04397 -4.89732,-5.42096 -3.04604,-2.99551 -4.73333,-4.93472 -5.49814,-6.31905 -2.18451,-3.95397 -2.30078,-5.09215 -0.69005,-6.7546 1.6222,-1.67425 3.51032,-1.00174 5.46545,1.94671 1.94843,2.93837 2.96663,4.12246 7.01924,8.16278 4.01721,4.00505 4.47056,4.55911 5.47727,6.69404 0.71736,1.52124 4.77783,6.49726 7.85888,9.63082 2.49204,2.53449 2.95521,3.12004 3.90136,4.93184 0.5891,1.12769 1.5864,2.62398 2.25776,3.38658 0.31259,0.35475 0.92076,1.29819 1.35199,2.09645 0.99852,1.84819 1.87249,3.21327 2.58124,4.03164 0.30715,0.35475 0.66605,1.00792 0.79674,1.45139 0.13076,0.44356 0.64834,1.67716 1.1504,2.74153 1.71736,3.64267 2.18169,4.84092 2.93722,7.57947 0.41611,1.50785 1.02727,3.68493 1.35846,4.83799 0.7238,2.51851 1.61936,7.42253 1.61936,8.86373 0,1.83094 -0.65175,3.10045 -1.8409,3.58842 -1.45816,0.59815 -2.09472,0.55409 -3.1478,-0.21766 z"
       id="path317" /><path
       style="fill:#ffffff;fill-rule:evenodd;stroke-width:0.325523"
       d="m 311.93637,393.67691 c -1.06397,-0.46031 -2.79271,-2.02326 -2.79271,-2.52482 0,-0.16965 -0.29556,-0.67735 -0.65719,-1.12838 -0.36163,-0.45105 -0.6572,-1.07524 -0.6572,-1.38712 0,-0.31191 -0.20839,-0.64535 -0.46174,-0.74103 -0.25402,-0.0957 -0.55844,-0.60707 -0.67694,-1.13643 -0.11782,-0.52929 -0.42837,-1.04258 -0.68839,-1.14053 -0.26015,-0.098 -0.47264,-0.38996 -0.47264,-0.64902 0,-0.25893 -0.2152,-0.68212 -0.47808,-0.94036 -0.51554,-0.50662 -1.57209,-2.14899 -2.21642,-3.44698 -0.21997,-0.44349 -0.66537,-1.15245 -0.98831,-1.57551 -0.32349,-0.42299 -0.58773,-1.02213 -0.58773,-1.33127 0,-0.30912 -0.21793,-0.73956 -0.48422,-0.95651 -0.2656,-0.21697 -0.57751,-0.88266 -0.69165,-1.47939 -0.11442,-0.59672 -0.41339,-1.25304 -0.66605,-1.45848 -0.25198,-0.20546 -0.45902,-0.62382 -0.45902,-0.92973 0,-0.30592 -0.25879,-0.85768 -0.57547,-1.22612 -0.31668,-0.36844 -0.94452,-1.13209 -1.39632,-1.69699 -1.28211,-1.60324 -2.02614,-2.47146 -3.52454,-4.11251 -0.76398,-0.83673 -1.3923,-1.68497 -1.39625,-1.885 -0.004,-0.19995 -0.21453,-0.53256 -0.46787,-0.73894 -0.25335,-0.20636 -0.55845,-0.75694 -0.67695,-1.22353 -0.1185,-0.46657 -0.50328,-1.20587 -0.8536,-1.64292 -0.35005,-0.43709 -0.63677,-1.04758 -0.63677,-1.35673 0,-0.30912 -0.22202,-0.74272 -0.49307,-0.96358 -0.27037,-0.22079 -0.49306,-0.59202 -0.49306,-0.82483 0,-0.55742 -0.49035,-1.62235 -1.47464,-3.20681 -0.44131,-0.70954 -1.02673,-1.75191 -1.30139,-2.31631 -0.27445,-0.56437 -0.64902,-1.11723 -0.83297,-1.22853 -0.18319,-0.11135 -0.3337,-0.54544 -0.3337,-0.9649 0,-0.41938 -0.33235,-1.17396 -0.73906,-1.67681 -0.89099,-1.10207 -1.43214,-1.93009 -1.96416,-3.0056 -0.21929,-0.44349 -0.95746,-1.56212 -1.64034,-2.48586 -0.6828,-0.92373 -1.24152,-1.82364 -1.24152,-1.99978 0,-0.17619 -0.19273,-0.43627 -0.42905,-0.5782 -0.23631,-0.14193 -1.2172,-1.20133 -2.1808,-2.35439 -0.96359,-1.15305 -1.95333,-2.21252 -2.19946,-2.35437 -0.24585,-0.14193 -0.44744,-0.46127 -0.44744,-0.70969 0,-0.24844 -0.18796,-0.56777 -0.41815,-0.70969 -0.3841,-0.23686 -1.22987,-1.33117 -2.04548,-2.64735 -0.18047,-0.29162 -1.03782,-1.17954 -1.90457,-1.97316 -3.45202,-3.16041 -5.51343,-5.36555 -6.28089,-6.71874 -0.16549,-0.29135 -0.43722,-0.61906 -0.60475,-0.72814 -0.16686,-0.1091 -0.47536,-0.48088 -0.68519,-0.82617 -1.2059,-1.98727 -1.95892,-3.00715 -2.2205,-3.00715 -0.16277,0 -0.29625,-0.19518 -0.29625,-0.43375 0,-0.23856 -0.29557,-0.69648 -0.6572,-1.01758 -0.36163,-0.3211 -0.65719,-0.73493 -0.65719,-0.91961 0,-0.18476 -0.40658,-0.92421 -0.90346,-1.64331 -0.98539,-1.42598 -0.93751,-1.36732 -2.95534,-3.62044 -2.87143,-3.20629 -4.02612,-4.99676 -4.02612,-6.243 0,-2.20914 2.33314,-3.76119 4.55174,-3.02789 1.24765,0.41237 3.9903,2.62646 3.9903,3.22122 0,0.21541 0.19818,0.4663 0.44131,0.55769 0.3664,0.13791 1.76435,1.95921 3.33747,4.34694 0.18047,0.27425 0.55027,0.75038 0.82132,1.05801 0.27037,0.30762 1.0842,1.3802 1.80698,2.38348 0.72299,1.00329 1.64211,2.1956 2.04289,2.64961 0.40113,0.45397 0.81731,1.09955 0.92559,1.43456 0.10829,0.335 0.32486,0.60911 0.48149,0.60911 0.15664,0 0.37798,0.29039 0.49307,0.64521 0.1151,0.35496 1.97281,2.37287 4.12889,4.4844 2.15622,2.11153 3.92036,4.00281 3.92036,4.20284 0,0.20002 0.2084,0.44219 0.46242,0.53795 0.25471,0.0959 0.63813,0.58888 0.8515,1.09556 0.21384,0.50669 0.59658,0.99968 0.85142,1.09556 0.25471,0.0958 0.46243,0.38935 0.46243,0.65216 0,0.26281 0.20158,0.59392 0.44743,0.73578 0.94316,0.5436 6.44992,7.30233 6.45128,7.91805 2.8e-4,0.133 0.25948,0.52174 0.57547,0.86384 1.08325,1.17183 1.39959,1.61269 1.80167,2.51061 0.22202,0.4945 0.49716,0.97166 0.61293,1.06035 0.38138,0.29278 2.26736,3.9523 2.26736,4.39958 0,0.24108 0.14234,0.43838 0.31464,0.43838 0.17366,0 0.49239,0.58051 0.70936,1.29012 0.21657,0.70954 0.50669,1.29013 0.64494,1.29013 0.13825,0 0.42905,0.54421 0.6463,1.20949 0.21793,0.66524 0.58705,1.4272 0.82126,1.69329 0.23359,0.26608 0.52439,0.87243 0.64493,1.34742 0.12055,0.47495 0.41339,0.93689 0.65175,1.02644 0.23768,0.0895 0.52916,0.59801 0.64834,1.12991 0.11918,0.53189 0.41952,1.13229 0.66673,1.3342 0.24858,0.20193 0.54551,0.79249 0.66197,1.31242 0.11645,0.5199 0.32076,0.94531 0.45288,0.94531 0.1328,0 0.4883,0.50791 0.78973,1.12885 0.30101,0.6209 0.6749,1.12887 0.82943,1.12887 0.15391,0 0.4413,0.3444 0.63608,0.76535 0.19546,0.42095 1.47573,1.94164 2.84535,3.37933 1.36956,1.4377 2.49013,2.89543 2.49013,3.23941 0,0.34405 0.15595,0.6764 0.34596,0.73879 0.19069,0.0627 0.49511,0.76173 0.67626,1.55414 0.18116,0.79244 0.53189,1.66065 0.77761,1.92936 0.24653,0.26873 0.54687,0.87719 0.66741,1.35219 0.12054,0.47495 0.40862,0.93496 0.64017,1.02217 0.23155,0.0872 0.52303,0.55797 0.64766,1.04611 0.12463,0.48816 0.5135,1.24515 0.86368,1.68221 0.35005,0.43708 0.63677,1.06534 0.63677,1.39621 0,0.33085 0.12258,0.60163 0.27309,0.60163 0.15051,0 0.70535,0.68938 1.23267,1.53203 0.5278,0.8426 1.14502,1.82229 1.3716,2.17708 0.22678,0.35475 0.49238,0.86277 0.59045,1.12886 0.0981,0.26608 0.46651,1.02053 0.81928,1.67656 0.40726,0.75748 0.64086,1.83027 0.64086,2.93955 0,1.65887 -0.0613,1.78958 -1.2497,2.59698 -1.40667,0.95703 -1.78525,1.00439 -3.18559,0.39854 z"
       id="path319" /><path
       style="fill:#ffffff;fill-rule:evenodd;stroke-width:0.325523"
       d="m 269.95607,450.89286 c -1.20339,-0.92927 -1.42336,-2.68031 -0.61838,-4.92734 0.35482,-0.99076 0.75029,-2.41315 0.8788,-3.16087 0.12872,-0.74775 0.42224,-1.80969 0.65311,-2.35993 0.23087,-0.55027 0.52712,-1.93025 0.65788,-3.06667 0.13144,-1.13642 0.46991,-2.58782 0.75268,-3.22532 0.62246,-1.40398 0.66264,-7.1367 0.14233,-20.15985 -0.20022,-4.9966 -0.22542,-8.99328 -0.0613,-9.41859 0.3269,-0.84408 1.89232,-1.74245 3.0086,-1.7266 1.0274,0.015 2.13197,0.98171 2.81565,2.4653 0.64903,1.40929 1.10069,9.83798 1.15408,21.55256 0.0272,6.06457 -0.0409,7.02839 -0.68845,9.21272 -0.395,1.34176 -0.71897,2.8341 -0.71897,3.31631 0,0.48217 -0.23427,1.41635 -0.52031,2.07588 -0.28603,0.65951 -0.63949,1.99984 -0.78564,2.97849 -0.37456,2.51633 -2.12093,6.01123 -3.30334,6.61147 -1.2892,0.65448 -2.3721,0.60061 -3.36675,-0.16753 z"
       id="path321" /><path
       style="fill:#ffffff;fill-rule:evenodd;stroke-width:0.325523"
       d="m 321.11232,455.42096 c -1.85669,-0.73771 -2.42733,-3.67565 -1.28293,-6.60563 0.56866,-1.45697 0.62451,-2.60153 0.63609,-13.22379 l 0.0136,-11.62878 -0.91701,-3.2253 c -0.50464,-1.77393 -1.49561,-4.82186 -2.2028,-6.77316 -0.70691,-1.95132 -1.44174,-4.41868 -1.6325,-5.48304 -0.19069,-1.06435 -0.5673,-2.64768 -0.83624,-3.51847 -0.95555,-3.09114 -0.58024,-4.6501 1.33544,-5.54237 1.09081,-0.50811 1.23525,-0.50614 2.45689,0.0347 1.76829,0.78276 2.70185,2.48515 3.5987,6.56251 0.40386,1.8381 1.31038,4.88602 2.01334,6.77317 0.70289,1.88714 1.36955,4.01172 1.48131,4.7213 0.11169,0.70952 0.4883,2.33718 0.83726,3.61692 0.58297,2.13995 0.6211,3.17605 0.474,12.90126 -0.0885,5.81595 -0.2874,11.88071 -0.44335,13.47724 -0.63472,6.4934 -2.47521,9.12739 -5.53059,7.9134 z"
       id="path323" /><path
       style="fill:#ffffff;fill-rule:evenodd;stroke-width:0.325523"
       d="m 360.88765,434.7188 c -1.95831,-0.49824 -2.09785,-1.24775 -2.27247,-12.20742 -0.21044,-13.22985 -0.66809,-17.79924 -2.25959,-22.57721 -0.44336,-1.33043 -0.96605,-3.14468 -1.16219,-4.03164 -2.00666,-9.07833 -2.81933,-11.56019 -4.96329,-15.15897 -1.3325,-2.2368 -1.34762,-4.06682 -0.0409,-5.34659 1.04375,-1.02464 1.66546,-1.13496 3.2808,-0.58214 0.75588,0.25872 1.33149,0.84381 2.03656,2.07023 0.54074,0.9403 1.19726,1.88434 1.45932,2.09787 0.26151,0.21357 0.47604,0.57036 0.47604,0.79306 0,0.2227 0.1866,0.55654 0.41338,0.74196 0.58433,0.47556 1.68515,3.94128 3.04422,9.57903 0.64085,2.66088 1.6814,6.72478 2.31094,9.03088 0.83529,3.05936 1.23247,5.37005 1.46912,8.54708 0.17844,2.39479 0.46719,4.93473 0.64222,5.6443 0.44744,1.81835 0.41202,14.64462 -0.0477,17.21825 -0.61566,3.44235 -2.02035,4.78252 -4.38367,4.18132 z"
       id="path325" /><path
       style="fill:#ffffff;fill-rule:evenodd;stroke-width:0.325523"
       d="m 240.22323,28.52094 c -0.53256,-0.36626 -0.72863,-0.82438 -0.72543,-1.69328 0.003,-0.65516 0.11646,-1.36355 0.25334,-1.5742 0.75752,-1.16911 3.67921,-0.99304 4.36392,0.26295 0.49307,0.90465 0.0981,2.77567 -0.67218,3.18015 -0.91115,0.47869 -2.38511,0.39833 -3.21978,-0.17564 z"
       id="path327" /><path
       style="fill:#ffffff;fill-rule:evenodd;stroke-width:0.325523"
       d="m 254.00609,44.72565 c -0.89909,-0.93953 -0.91156,-2.14576 -0.0341,-3.24166 0.8893,-1.10983 2.13449,-1.10351 3.32576,0.017 1.30465,1.22708 1.28292,2.80362 -0.0477,3.47923 -1.36731,0.69409 -2.41542,0.61197 -3.24444,-0.25437 z"
       id="path329" /><path
       style="fill:#ffffff;fill-rule:evenodd;stroke-width:0.325523"
       d="m 231.77231,56.17546 c -1.15483,-0.22215 -1.80698,-1.05857 -1.80698,-2.31751 0,-1.49949 0.80859,-2.25772 2.40779,-2.25772 1.46374,0 2.52029,0.91638 2.52029,2.18595 0,1.71003 -1.33591,2.73267 -3.1211,2.38928 z"
       id="path331" /><path
       style="fill:#ffffff;fill-rule:evenodd;stroke-width:0.325523"
       d="m 283.86894,51.19232 c -1.61425,-0.80548 -1.38733,-3.74131 0.33098,-4.27657 2.71289,-0.84529 4.73188,1.97921 2.78256,3.89281 -0.88671,0.8705 -1.8898,0.99416 -3.11314,0.3837 z"
       id="path333" /><path
       style="fill:#ffffff;fill-rule:evenodd;stroke-width:0.325523"
       d="m 275.70772,27.51704 c -0.22951,-0.0907 -0.62246,-0.55382 -0.87281,-1.0291 -0.38001,-0.72196 -0.3841,-1.03055 -0.0272,-1.87527 0.49988,-1.16634 1.39571,-1.54245 2.97986,-1.2507 2.74312,0.50526 2.20416,4.41233 -0.59931,4.34547 -0.58705,-0.0136 -1.25562,-0.0996 -1.48533,-0.19042 z"
       id="path335" /></g></svg>
