<?xml version="1.0" encoding="UTF-8" standalone="no"?>
<!-- Created with Inkscape (http://www.inkscape.org/) -->

<svg
   width="75"
   height="100"
   viewBox="0 0 75 100"
   version="1.1"
   id="svg5"
   inkscape:version="1.2.1 (9c6d41e410, 2022-07-14)"
   sodipodi:docname="potion_alcohol.svg"
   xml:space="preserve"
   xmlns:inkscape="http://www.inkscape.org/namespaces/inkscape"
   xmlns:sodipodi="http://sodipodi.sourceforge.net/DTD/sodipodi-0.dtd"
   xmlns="http://www.w3.org/2000/svg"
   xmlns:svg="http://www.w3.org/2000/svg"><sodipodi:namedview
     id="namedview7"
     pagecolor="#ffffff"
     bordercolor="#999999"
     borderopacity="1"
     inkscape:pageshadow="0"
     inkscape:pageopacity="0"
     inkscape:pagecheckerboard="0"
     inkscape:document-units="px"
     showgrid="false"
     height="70mm"
     units="px"
     inkscape:zoom="11.844781"
     inkscape:cx="7.3872197"
     inkscape:cy="55.720743"
     inkscape:window-width="3840"
     inkscape:window-height="2066"
     inkscape:window-x="-11"
     inkscape:window-y="-11"
     inkscape:window-maximized="1"
     inkscape:current-layer="layer1"
     inkscape:showpageshadow="2"
     inkscape:deskcolor="#d1d1d1" /><defs
     id="defs2" /><g
     inkscape:label="Layer 1"
     inkscape:groupmode="layer"
     id="layer1"><path
       style="fill:#ffffff;fill-rule:evenodd;stroke-width:0.0717894"
       d="m 32.180811,84.881507 c -0.235379,-0.01111 -0.684735,-0.05319 -0.998572,-0.09352 -0.313837,-0.04033 -1.052068,-0.124812 -1.640512,-0.18774 -0.588445,-0.06293 -1.284679,-0.144756 -1.547185,-0.181837 -0.262508,-0.03708 -0.634858,-0.06742 -0.827445,-0.06742 -0.644101,0 -1.045884,-0.2247 -1.300329,-0.727206 -0.111139,-0.219494 -0.215959,-0.291474 -0.709357,-0.48712 -0.318422,-0.126259 -0.778189,-0.364455 -1.021707,-0.52932 -1.01225,-0.685311 -1.123369,-0.907915 -1.167431,-2.338771 -0.02894,-0.939867 -0.115412,-1.560582 -0.241574,-1.734125 -0.118392,-0.162849 -0.202095,-0.943205 -0.240586,-2.242955 -0.02241,-0.75674 -0.07232,-1.553353 -0.110916,-1.770252 -0.206825,-1.162364 -0.30484,-4.220094 -0.156934,-4.895804 0.05516,-0.251985 0.08429,-1.240141 0.0852,-2.890208 0.001,-1.802131 0.03044,-2.71053 0.104731,-3.229865 0.05684,-0.397404 0.104354,-0.999142 0.105604,-1.337198 0.0012,-0.338055 0.03724,-0.728234 0.07999,-0.867063 0.04681,-0.151978 0.07664,-0.899309 0.07499,-1.878159 -0.0024,-1.450374 0.0164,-1.722514 0.17472,-2.522874 0.310383,-1.569054 0.347362,-2.167206 0.348798,-5.641964 0.0012,-2.971357 0.01398,-3.332791 0.132598,-3.757271 0.07218,-0.258313 0.20686,-0.794807 0.299286,-1.192212 0.159143,-0.684254 0.21655,-0.894603 0.502841,-1.842507 0.06602,-0.218572 0.144839,-0.755067 0.175164,-1.192211 0.06362,-0.917148 0.161108,-1.307271 0.514695,-2.059727 0.301832,-0.64232 1.048631,-2.90193 1.229474,-3.720052 0.0702,-0.317572 0.151873,-0.626464 0.1815,-0.686424 0.02963,-0.05997 0.109144,-0.255338 0.176716,-0.434171 0.06757,-0.17883 0.14906,-0.390177 0.181093,-0.469658 0.03204,-0.07948 0.184161,-0.534688 0.338064,-1.011573 0.153902,-0.476884 0.385195,-1.192211 0.513984,-1.589615 0.128787,-0.397402 0.311663,-0.901383 0.406391,-1.119955 0.09473,-0.218572 0.199178,-0.462433 0.232111,-0.541915 0.03293,-0.07948 0.138452,-0.323342 0.234485,-0.541913 0.09604,-0.218573 0.231137,-0.559978 0.300232,-0.75868 0.06909,-0.198702 0.152037,-0.426305 0.184316,-0.505787 0.03228,-0.07948 0.111986,-0.323342 0.177127,-0.541914 0.06514,-0.218572 0.181494,-0.538948 0.258563,-0.711946 0.12718,-0.28549 0.352422,-0.957395 0.681769,-2.033751 0.06687,-0.218573 0.145275,-0.446176 0.174214,-0.505787 0.08094,-0.166726 0.256084,-1.032231 0.393087,-1.94249 l 0.1238,-0.822532 -0.178078,-0.155172 c -0.09794,-0.08535 -0.287585,-0.316729 -0.421426,-0.514187 -0.133841,-0.197461 -0.397597,-0.553243 -0.586125,-0.790629 -0.679406,-0.855475 -0.657849,-0.741172 -0.674878,-3.578553 -0.0082,-1.371043 0.0183,-2.834212 0.05894,-3.251484 0.04065,-0.417275 0.09837,-1.008762 0.128273,-1.314417 0.03032,-0.310001 0.106976,-0.637076 0.173342,-0.739687 0.122752,-0.18978 0.597904,-0.474829 0.791503,-0.474829 0.160729,0 2.180249,-0.695468 2.26303,-0.779326 0.0464,-0.047 0.02893,-0.228395 -0.05118,-0.531153 C 31.950137,10.5528 31.823704,6.0176203 31.95161,5.5647936 32.0497,5.2175191 32.638236,4.5519831 33.023148,4.3530587 33.301403,4.2092555 33.411551,4.205743 37.341903,4.2153722 c 4.021325,0.00989 4.03405,0.010315 4.315889,0.1698101 0.28419,0.1607862 0.547748,0.5657019 0.742353,1.1405043 0.139898,0.4132135 0.105029,1.2924348 -0.08364,2.1089297 -0.09404,0.4070117 -0.224965,1.113942 -0.290928,1.5709565 -0.06595,0.4570133 -0.16694,1.0933482 -0.224398,1.4140752 -0.158189,0.882994 0.01294,1.178448 0.768297,1.326467 0.738507,0.144717 1.266145,0.549793 1.653767,1.269621 0.226113,0.419901 0.494836,1.595456 0.619385,2.709572 0.04664,0.417272 0.113945,0.857854 0.14955,0.979067 0.13494,0.459393 0.27683,1.4608 0.27591,1.947269 -0.0017,0.830937 -0.294225,1.874338 -0.720263,2.567964 -0.224588,0.365648 -0.420028,1.183015 -0.419397,1.754007 4.27e-4,0.368318 0.07538,0.888379 0.210251,1.458445 0.394312,1.666648 0.735418,2.775083 1.033954,3.359868 0.131871,0.258312 0.421251,1.022411 0.64307,1.697997 0.221817,0.675586 0.429482,1.293368 0.461479,1.372849 0.03199,0.07948 0.09731,0.242055 0.145137,0.361276 0.14333,0.357274 0.270615,0.764192 0.418131,1.336721 0.180764,0.701581 0.410352,1.399386 0.592425,1.800605 0.07971,0.175655 0.205809,0.517061 0.280215,0.75868 0.07441,0.241618 0.281321,0.715683 0.459811,1.053475 0.686164,1.298567 0.702122,1.345838 1.048889,3.106975 0.04303,0.218572 0.189437,0.625008 0.325335,0.90319 0.135896,0.278183 0.320156,0.700876 0.409467,0.939318 0.08931,0.238442 0.227524,0.596105 0.307138,0.794807 0.07961,0.198702 0.177418,0.540109 0.21734,0.758679 0.03991,0.218573 0.124294,0.689017 0.187493,1.045431 0.104034,0.586692 0.339264,1.565909 0.554244,2.307165 0.05859,0.202023 0.08253,2.093241 0.08461,6.683606 0.0023,5.049779 0.02237,6.455271 0.0951,6.654754 0.07007,0.1922 0.0963,1.145944 0.109267,3.974035 0.01,2.172101 0.04506,3.766261 0.0843,3.829527 0.07053,0.113683 0.167029,2.357635 0.221955,5.160915 0.02566,1.309539 0.0095,1.769008 -0.07715,2.19345 -0.06609,0.323753 -0.109609,0.913274 -0.109609,1.484912 0,0.522217 -0.04593,1.192138 -0.102252,1.491571 -0.177184,0.941868 -0.254379,1.577584 -0.254379,2.094866 0,0.526856 -0.128463,1.145664 -0.310004,1.493299 -0.05942,0.113787 -0.247409,0.358906 -0.417754,0.544725 -0.193129,0.21066 -0.341712,0.459015 -0.394708,0.659747 -0.119392,0.452203 -0.366373,0.72092 -0.760832,0.827793 -0.18143,0.04916 -0.392535,0.08938 -0.469123,0.08938 -0.07659,0 -0.301148,0.145659 -0.499025,0.323688 -0.533702,0.48018 -0.722889,0.554999 -1.567265,0.619848 -0.771386,0.05925 -1.750111,0.168427 -2.571296,0.28684 -0.254994,0.03676 -1.458631,0.08385 -2.674748,0.104629 -1.21612,0.02079 -2.467902,0.06856 -2.781739,0.106171 -0.502995,0.06028 -5.714989,0.0821 -6.847355,0.02865 z m 9.522102,-1.814242 c 1.353423,-0.03511 2.508915,-0.08453 2.56776,-0.109813 0.120014,-0.05156 1.196943,-0.180516 2.18922,-0.26215 0.624755,-0.05141 0.668093,-0.06614 0.918355,-0.31238 0.144461,-0.142148 0.395046,-0.327627 0.556854,-0.412195 0.161808,-0.08456 0.391907,-0.242018 0.511331,-0.34991 0.35978,-0.325041 1.007719,-1.193099 1.063277,-1.424504 0.02862,-0.119222 0.09653,-0.802034 0.150899,-1.517361 0.05436,-0.715326 0.130602,-1.463167 0.16941,-1.661869 0.227242,-1.163532 0.296599,-4.42279 0.161446,-7.586798 -0.07487,-1.752746 -0.156478,-2.396835 -0.318243,-2.511692 -0.09858,-0.06999 -1.44952,-0.02321 -2.870455,0.09938 -0.931776,0.08039 -1.681328,0.200836 -2.211125,0.355301 -0.515485,0.150292 -1.481063,0.276945 -2.512406,0.329548 l -1.014547,0.05174 -0.251769,-0.278446 c -0.241981,-0.267622 -0.260968,-0.275077 -0.488375,-0.191775 -0.130135,0.04767 -0.398919,0.08667 -0.597298,0.08667 -0.343713,0 -0.532266,-0.05735 -1.212286,-0.368759 -0.521049,-0.238607 -3.185517,-0.169625 -4.230015,0.109512 -0.215762,0.05766 -0.729314,0.155584 -1.141226,0.217602 -0.411911,0.06202 -1.021754,0.164268 -1.355205,0.227217 -0.442396,0.08351 -0.924398,0.1079 -1.783166,0.09021 l -1.176889,-0.02425 -0.567959,-0.306401 c -0.312377,-0.168523 -0.607924,-0.306403 -0.656769,-0.306403 -0.04885,0 -0.216348,-0.12193 -0.37223,-0.270957 -0.401597,-0.38393 -0.541648,-0.456366 -1.034255,-0.534926 -1.142036,-0.182132 -1.383126,-0.215504 -1.648383,-0.228181 l -0.285307,-0.01363 -0.04013,1.806381 c -0.02207,0.993509 -0.08233,2.141422 -0.133891,2.550918 -0.07201,0.571828 -0.07511,0.838607 -0.01335,1.150069 0.04422,0.223044 0.08274,0.733388 0.0856,1.134099 0.0029,0.40071 0.03612,0.907397 0.07389,1.12597 0.03778,0.21857 0.09639,1.177758 0.130252,2.131528 0.05968,1.680973 0.06831,1.752948 0.281786,2.348293 0.194904,0.54357 0.220526,0.705537 0.222876,1.408978 0.0032,0.950141 0.07713,1.321228 0.298102,1.495964 0.274038,0.216679 0.736099,0.465404 1.094282,0.58904 0.460762,0.159039 0.879551,0.419606 1.153533,0.717717 0.221965,0.241507 0.251764,0.251088 1.034236,0.332418 0.443127,0.04606 0.998269,0.113859 1.233646,0.150666 0.235378,0.03681 0.84522,0.104481 1.355206,0.15037 0.509985,0.0459 0.959342,0.09444 0.998572,0.10787 0.119699,0.04098 7.047924,-0.02716 9.664755,-0.09505 z M 31.051976,66.865554 c 1.490021,-0.311326 2.166384,-0.433859 2.394842,-0.433859 0.146258,0 0.515033,-0.0702 0.8195,-0.155997 0.500909,-0.141155 0.736806,-0.156622 2.479397,-0.162574 l 1.925818,-0.0066 0.408922,0.20337 c 0.260193,0.129403 0.493672,0.195103 0.64194,0.180639 0.208547,-0.02034 0.256829,-0.07176 0.459769,-0.489615 0.254932,-0.524903 0.388227,-0.653077 0.679162,-0.653077 0.330853,0 0.536266,0.378736 0.685802,1.264466 0.04856,0.287669 0.05047,0.289136 0.405429,0.313495 0.498988,0.03424 1.730199,-0.165008 2.817401,-0.45595 0.472264,-0.126381 0.865081,-0.181536 1.296269,-0.182011 0.340268,-3.62e-4 0.773576,-0.03401 0.96291,-0.07475 0.189334,-0.04074 0.873842,-0.09764 1.521132,-0.126446 l 1.176888,-0.05238 0.05035,-0.90319 c 0.02769,-0.496754 0.0166,-1.943666 -0.02462,-3.215358 -0.04123,-1.271691 -0.09804,-3.629018 -0.126243,-5.238503 -0.0282,-1.609485 -0.07673,-2.983237 -0.107828,-3.052782 -0.0628,-0.140431 -0.266243,-0.164252 -0.468104,-0.05482 -0.433391,0.234965 -1.273241,0.363269 -3.317833,0.506871 -0.549216,0.03857 -1.223252,0.104704 -1.49786,0.146954 -0.274607,0.04225 -1.485383,0.09952 -2.690614,0.127276 -2.640957,0.06081 -2.486666,-2.17e-4 -2.53869,1.003888 -0.0365,0.704389 -0.10045,0.810587 -0.490542,0.814523 -0.163382,0.0016 -0.354775,-0.09492 -0.677596,-0.341898 -0.379054,-0.289994 -0.476493,-0.412089 -0.618777,-0.775348 -0.09288,-0.237135 -0.191824,-0.602457 -0.21987,-0.811828 -0.02804,-0.209373 -0.07309,-0.403064 -0.100106,-0.430426 -0.13057,-0.13227 -1.776883,-0.08203 -3.541112,0.108059 l -0.463624,0.04996 -0.06165,0.28902 c -0.130518,0.611904 -0.377047,0.830935 -0.935252,0.830935 -0.16742,0 -0.352124,0.07307 -0.547942,0.216766 -0.644727,0.473118 -1.129906,0.182448 -1.129906,-0.676927 0,-0.659688 0.07612,-0.623248 -1.309343,-0.626814 -0.672514,-0.0017 -1.367188,-0.03492 -1.543722,-0.07377 -0.176533,-0.03884 -0.449358,-0.08749 -0.606276,-0.108103 -0.156919,-0.02062 -0.520036,-0.08925 -0.806931,-0.15252 -0.398973,-0.08799 -0.562491,-0.09618 -0.695433,-0.03481 -0.161654,0.07461 -0.17381,0.118038 -0.17381,0.620854 0,0.767873 -0.126593,1.913457 -0.299905,2.713954 -0.123485,0.570357 -0.152143,0.985753 -0.169486,2.456676 -0.01148,0.97364 -0.05423,1.900313 -0.09501,2.059274 -0.04078,0.158962 -0.07488,0.500368 -0.07581,0.758679 -9.3e-4,0.258313 -0.05378,0.935676 -0.117463,1.505253 -0.143115,1.279938 -0.12329,1.34765 0.413093,1.411 1.074189,0.126866 2.060076,0.314589 2.40433,0.457808 0.142097,0.05911 0.402795,0.228938 0.579328,0.377381 0.301091,0.253183 1.359886,0.817932 1.676176,0.894052 0.267533,0.06439 1.307792,0.05128 1.652902,-0.02083 z m 0.794778,-12.789501 c 0.05362,-0.429039 0.170365,-0.725627 0.318648,-0.809524 0.391697,-0.221618 4.758994,-0.452727 5.217576,-0.276105 0.243133,0.09364 0.446822,0.447993 0.50536,0.87916 0.05148,0.379249 0.206226,0.468577 0.399997,0.230913 0.05384,-0.06604 0.274425,-0.20262 0.490187,-0.30352 0.384505,-0.179812 0.436924,-0.184494 2.639085,-0.235755 1.235733,-0.02877 2.423323,-0.09011 2.639086,-0.136327 0.215762,-0.04622 0.825605,-0.110234 1.355205,-0.142267 1.441998,-0.08722 2.611629,-0.254517 3.245364,-0.464195 0.311659,-0.103119 0.606535,-0.187484 0.655279,-0.187484 0.240231,0 0.269907,-0.294861 0.295574,-2.93684 l 0.02537,-2.611693 -0.354723,-1.470727 c -0.195098,-0.8089 -0.406628,-1.763361 -0.470067,-2.121024 -0.108679,-0.612725 -0.494964,-1.740159 -0.816956,-2.384422 -0.243676,-0.487565 -0.489611,-1.268623 -0.614284,-1.950891 -0.146534,-0.801906 -0.28757,-1.235181 -0.493918,-1.51736 -0.234881,-0.321195 -0.647198,-1.233778 -0.868696,-1.922683 -0.107209,-0.333437 -0.270031,-0.776481 -0.361832,-0.984542 -0.0918,-0.208062 -0.251106,-0.679527 -0.354011,-1.047701 -0.309495,-1.107308 -0.462406,-1.593692 -0.596616,-1.897746 -0.07017,-0.158961 -0.293824,-0.809259 -0.497019,-1.445104 -0.203193,-0.635846 -0.492143,-1.399944 -0.642109,-1.697997 -0.284993,-0.56641 -0.540981,-1.323259 -0.757606,-2.239912 -0.07044,-0.298053 -0.18409,-0.720745 -0.252565,-0.939318 -0.25126,-0.802043 -0.298612,-1.262324 -0.261888,-2.545643 0.03851,-1.345781 0.08421,-1.557779 0.474265,-2.199944 0.509294,-0.838484 0.682058,-1.834406 0.474067,-2.732827 -0.15991,-0.690736 -0.233367,-1.114713 -0.325486,-1.878636 -0.105051,-0.871135 -0.414316,-2.096299 -0.58449,-2.315456 -0.07575,-0.09755 -0.209795,-0.177349 -0.297903,-0.177349 -0.371036,0 -0.914112,-0.236447 -1.341911,-0.584249 -0.327943,-0.266616 -0.484855,-0.35095 -0.590479,-0.317354 -0.368498,0.117211 -0.762842,0.19198 -1.320739,0.250417 -0.333452,0.03492 -0.734665,0.08297 -0.891583,0.106756 -0.570479,0.08649 -3.831936,0.16704 -4.069756,0.100525 -0.242854,-0.06793 -0.515144,7.22e-4 -1.921679,0.484251 -0.806418,0.277247 -0.939377,0.338425 -1.020111,0.469383 -0.143469,0.232721 -0.222637,1.83487 -0.200447,4.056469 0.02416,2.419311 0.01416,2.358905 0.464996,2.80704 0.101722,0.101109 0.26519,0.292221 0.363266,0.424689 0.09807,0.132467 0.330048,0.415061 0.5155,0.627986 0.18545,0.212925 0.358548,0.473369 0.38466,0.578764 0.02612,0.105395 0.02915,0.63423 0.0067,1.175191 -0.04268,1.030853 -0.247724,2.107919 -0.579258,3.042839 -0.0916,0.258313 -0.218805,0.648491 -0.282676,0.867063 -0.201402,0.689207 -0.314012,1.040898 -0.404881,1.264466 -0.04847,0.119221 -0.128045,0.314311 -0.176861,0.433532 -0.04882,0.11922 -0.124127,0.330567 -0.167356,0.469658 -0.215609,0.693736 -0.449357,1.3304 -0.602671,1.641505 -0.232426,0.471639 -0.895982,2.289451 -1.299825,3.560871 -0.183031,0.576235 -0.375306,1.145245 -0.427278,1.264466 -0.272633,0.625403 -0.4864,1.260295 -0.638274,1.895685 -0.09314,0.389642 -0.263701,1.000412 -0.379037,1.357268 -0.115334,0.356855 -0.281386,0.876432 -0.369001,1.154615 -0.08762,0.278182 -0.251647,0.684618 -0.364515,0.90319 -0.346052,0.670145 -0.43499,1.013823 -0.495508,1.914763 -0.04323,0.643524 -0.112287,1.034717 -0.267868,1.517359 -0.232478,0.721193 -0.256895,0.811294 -0.597229,2.203784 l -0.238403,0.975446 v 2.215745 c 0,1.21866 0.02642,2.242543 0.05871,2.275296 0.03229,0.03275 0.305111,0.08415 0.606276,0.114208 0.301164,0.03006 0.740154,0.08487 0.975531,0.121801 1.150197,0.180452 1.586766,0.2164 2.674748,0.220245 0.647289,0.0023 1.250392,0.02411 1.34023,0.04848 0.202187,0.05487 0.371608,0.372523 0.371608,0.696751 0,0.316019 0.04296,0.351967 0.389709,0.326114 0.246587,-0.01839 0.291134,-0.04738 0.310472,-0.2021 z M 37.245001,12.30766 c 0.313837,-0.03813 0.779243,-0.08619 1.034236,-0.106784 0.254992,-0.02059 0.640156,-0.07176 0.855918,-0.113711 0.215764,-0.04194 0.460262,-0.08922 0.543332,-0.105054 0.140745,-0.02683 0.148628,-0.06283 0.115742,-0.528441 -0.02118,-0.300029 0.0089,-0.74067 0.07522,-1.102919 0.06078,-0.331796 0.148088,-0.8633859 0.194011,-1.1813087 0.04592,-0.3179233 0.148547,-0.8869332 0.228051,-1.2644661 0.0795,-0.3775339 0.171418,-0.8164842 0.204258,-0.9754453 0.09473,-0.4585702 0.07715,-0.8037987 -0.04622,-0.9075208 -0.08766,-0.073705 -0.791207,-0.098344 -3.223622,-0.1129249 -1.711317,-0.010209 -3.161388,0.00968 -3.22238,0.044227 -0.09733,0.05518 -0.108204,0.3353398 -0.08889,2.2897981 0.01687,1.7074788 0.04704,2.3174507 0.129328,2.6150207 0.06098,0.220516 0.100039,0.610514 0.09046,0.90319 l -0.01686,0.515095 0.351159,0.04284 c 0.571588,0.06974 2.161707,0.06309 2.776264,-0.0116 z"
       id="path303" /><path
       style="fill:#ffffff;fill-rule:evenodd;stroke-width:0.0717894"
       d="m 30.621471,63.319657 c -0.103237,-0.08227 -0.317732,-0.36677 -0.476653,-0.632233 -0.158919,-0.265462 -0.359627,-0.584411 -0.446018,-0.708775 -0.08639,-0.124365 -0.190141,-0.282879 -0.230556,-0.352254 -0.06913,-0.118671 -0.09342,-0.116932 -0.410513,0.02939 -0.185368,0.08554 -0.521415,0.331939 -0.746774,0.547543 -0.225359,0.215605 -0.50922,0.44707 -0.630805,0.514368 -0.403195,0.223177 -0.822375,-0.03607 -0.678435,-0.419597 0.09318,-0.248273 0.701991,-0.831402 1.125511,-1.07803 0.682408,-0.397392 0.678682,-0.52139 -0.02666,-0.887604 -0.40726,-0.211449 -0.532729,-0.324355 -0.785702,-0.70703 -0.324348,-0.490643 -0.549725,-1.148606 -0.619007,-1.807116 -0.03822,-0.363302 -0.02477,-0.42997 0.112981,-0.559977 0.290554,-0.274218 0.659237,-0.137523 0.736159,0.272942 0.101877,0.543642 0.272573,1.194293 0.359757,1.371331 0.167387,0.339903 0.479607,0.6381 0.884492,0.844768 0.21381,0.109135 0.513921,0.282344 0.666914,0.384909 l 0.278171,0.186481 0.367322,-0.131813 c 0.516335,-0.185286 1.239044,-0.711905 1.605736,-1.170058 0.278825,-0.348368 0.339727,-0.388779 0.585935,-0.388779 0.30963,0 0.464303,0.182471 0.394273,0.465131 -0.118943,0.48007 -0.996989,1.271538 -1.928845,1.738654 -0.52297,0.26215 -0.536828,0.380782 -0.109964,0.941279 0.156096,0.204964 0.284123,0.402174 0.284504,0.438243 3.78e-4,0.03607 0.11272,0.208345 0.249643,0.382835 0.255689,0.325839 0.318872,0.630714 0.163359,0.788251 -0.1336,0.135339 -0.51791,0.102002 -0.724818,-0.06287 z"
       id="path305" /><path
       style="fill:#ffffff;fill-rule:evenodd;stroke-width:0.0717894"
       d="m 35.265687,62.885402 c -0.202891,-0.119712 -0.144505,-0.383477 0.176565,-0.797645 0.165761,-0.213829 0.318405,-0.405037 0.339207,-0.424906 0.09361,-0.08942 0.425231,-0.57955 0.660856,-0.97674 0.141874,-0.239156 0.324348,-0.512377 0.405498,-0.607162 0.08114,-0.09478 0.147544,-0.213369 0.147544,-0.263522 0,-0.141671 -0.589117,-0.632855 -1.071272,-0.893187 -0.651743,-0.351897 -0.753132,-0.746104 -0.230918,-0.897822 0.181794,-0.05282 0.299079,-0.01892 0.732311,0.21171 0.283717,0.151032 0.694102,0.414819 0.911965,0.586195 0.217864,0.171378 0.433481,0.311595 0.479152,0.311595 0.04568,0 0.192521,-0.0824 0.326335,-0.183142 0.702165,-0.528555 1.108755,-0.755838 1.352425,-0.756004 0.299514,-2.03e-4 0.424505,0.105161 0.424089,0.357491 -2.42e-4,0.146443 -0.111788,0.265801 -0.54359,0.581655 -0.298808,0.218572 -0.626399,0.466645 -0.727982,0.551272 l -0.184697,0.153869 0.206531,0.279662 c 0.113592,0.153815 0.432696,0.49101 0.709119,0.749322 0.965614,0.902348 1.539496,1.504836 1.539496,1.616232 0,0.159635 -0.283865,0.406915 -0.467119,0.406915 -0.240422,0 -0.55905,-0.260076 -1.624339,-1.325836 -0.542243,-0.542483 -1.026126,-0.986331 -1.075298,-0.986331 -0.129568,0 -0.343681,0.257522 -0.677955,0.815401 -0.361824,0.603859 -0.976252,1.403569 -1.151296,1.498469 -0.167229,0.09067 -0.496639,0.0869 -0.656627,-0.0075 z"
       id="path307" /><path
       style="fill:#ffffff;fill-rule:evenodd;stroke-width:0.0717894"
       d="m 44.284938,62.298697 c -0.178276,-0.180597 -0.09167,-0.461817 0.27181,-0.882593 0.608475,-0.704391 0.70065,-1.011842 0.386352,-1.288679 -0.100924,-0.08889 -0.36572,-0.3845 -0.588445,-0.656907 -0.222724,-0.272408 -0.462503,-0.563714 -0.532841,-0.647347 -0.168445,-0.20028 -0.129694,-0.418396 0.09716,-0.546947 0.264337,-0.149787 0.554154,-0.05004 0.849777,0.292472 0.137964,0.159847 0.402946,0.454241 0.588849,0.654208 0.389568,0.41904 0.448147,0.405996 0.732876,-0.163207 0.295665,-0.59106 0.930694,-1.028114 1.300019,-0.894729 0.408665,0.147593 0.395506,0.556632 -0.02537,0.788312 -0.193043,0.106267 -0.346033,0.29443 -0.578097,0.710995 -0.17357,0.311566 -0.29819,0.612394 -0.276934,0.668507 0.03613,0.09538 0.600083,0.486702 1.10497,0.766729 0.26054,0.144506 0.296512,0.400305 0.08372,0.595382 -0.198062,0.181579 -0.603654,0.09362 -1.173362,-0.254462 -0.255086,-0.155852 -0.508361,-0.283367 -0.562833,-0.283367 -0.05447,0 -0.222034,0.180906 -0.372359,0.402013 -0.358443,0.527218 -0.720631,0.826325 -1.000595,0.826325 -0.12052,0 -0.257643,-0.03902 -0.304717,-0.08671 z"
       id="path309" /><path
       style="fill:#ffffff;fill-rule:evenodd;stroke-width:0.0717894"
       d="m 27.124998,81.280354 c -0.209899,-0.105374 -0.230659,-0.407144 -0.04004,-0.582024 0.120674,-0.110713 0.30782,-0.151685 0.877127,-0.192037 0.398047,-0.02821 0.96445,-0.104671 1.258671,-0.16991 0.55799,-0.123722 3.737471,-0.250623 6.776028,-0.270446 1.903184,-0.01242 8.551956,0.153443 8.651589,0.215821 0.04231,0.0265 0.464125,0.07485 0.93735,0.107456 0.927788,0.06392 1.570482,0.150244 1.77044,0.237783 0.189447,0.08294 0.236014,0.379685 0.08595,0.547672 -0.146372,0.163848 -0.48162,0.182174 -1.31694,0.07199 -0.294221,-0.03881 -0.888016,-0.105363 -1.319542,-0.147907 -0.881508,-0.0869 -7.269623,-0.254838 -8.915827,-0.23439 -2.150214,0.02671 -5.854478,0.144136 -6.062762,0.192196 -1.037422,0.239375 -2.439645,0.355513 -2.702035,0.223794 z"
       id="path311" /><path
       style="fill:#ffffff;fill-rule:evenodd;stroke-width:0.0717894"
       d="m 34.142294,22.067732 c -0.333453,-0.02763 -0.68652,-0.07535 -0.784594,-0.106044 -0.257974,-0.08075 -0.499286,-0.328496 -0.499286,-0.512609 0,-0.256582 0.166772,-0.34282 0.551075,-0.284966 0.187279,0.02819 1.672532,0.0653 3.300562,0.08246 l 2.960055,0.0312 0.765644,-0.200853 c 0.729605,-0.1914 0.77493,-0.195178 0.962909,-0.08025 0.236723,0.14473 0.289929,0.419651 0.111483,0.576049 -0.17192,0.150678 -1.276454,0.428339 -1.982689,0.498416 -0.693352,0.0688 -4.54307,0.06636 -5.385159,-0.0034 z"
       id="path313" /><path
       style="fill:#ffffff;fill-rule:evenodd;stroke-width:0.0253814"
       d="m 34.763692,8.3407395 c -0.133981,-0.034136 -0.183303,-0.076002 -0.220707,-0.1873372 -0.03116,-0.092783 -0.03155,-0.1238834 -0.0027,-0.2085428 0.04745,-0.1386477 0.07051,-0.1602169 0.20679,-0.1933348 0.326378,-0.079309 0.571219,0.1568417 0.4415,0.4258405 -0.06659,0.1380799 -0.249017,0.2082088 -0.424998,0.1633743 z"
       id="path315" /><path
       style="fill:#ffffff;fill-rule:evenodd;stroke-width:0.0253814"
       d="M 36.692852,8.7649657 C 36.658182,8.7472277 36.609562,8.6892617 36.584803,8.6361588 36.461046,8.3706426 36.7049,8.12442 37.006812,8.2100503 c 0.134951,0.038272 0.187731,0.092262 0.216492,0.2214504 0.02839,0.127516 -0.04403,0.3041223 -0.139846,0.3410259 -0.09201,0.035443 -0.314988,0.031115 -0.390606,-0.00755 z"
       id="path317" /><path
       style="fill:#ffffff;fill-rule:evenodd;stroke-width:0.0253814"
       d="m 38.801092,7.0451697 c -0.146976,-0.038155 -0.19436,-0.080936 -0.230865,-0.2084173 -0.02107,-0.073599 -0.01913,-0.1200816 0.0085,-0.2045251 0.04496,-0.137108 0.141149,-0.1927489 0.333225,-0.1927489 0.194067,0 0.287913,0.055276 0.335863,0.1978373 0.03019,0.089763 0.03256,0.1338656 0.01106,0.2049686 -0.03487,0.1150762 -0.08322,0.1587505 -0.222626,0.2010648 -0.09085,0.027574 -0.134662,0.027915 -0.235181,0.00181 z"
       id="path319" /><path
       style="fill:#ffffff;fill-rule:evenodd;stroke-width:0.0253814"
       d="m 38.622011,9.7960871 c -0.133114,-0.03254 -0.183212,-0.07493 -0.22049,-0.186559 -0.03166,-0.09481 -0.03169,-0.123279 -2.51e-4,-0.21815 0.04574,-0.1379943 0.141975,-0.1928749 0.338537,-0.1930557 0.172226,-1.595e-4 0.261658,0.051097 0.315054,0.1805497 0.07526,0.182461 -0.01445,0.363894 -0.203794,0.412194 -0.123679,0.03155 -0.120805,0.03149 -0.229056,0.005 z"
       id="path321" /><path
       style="fill:#ffffff;fill-rule:evenodd;stroke-width:0.0253814"
       d="m 36.612854,10.425446 c -0.08851,-0.06822 -0.110593,-0.101716 -0.116872,-0.177287 -0.01299,-0.156362 0.09912,-0.3371219 0.226673,-0.3655029 0.13303,-0.0296 0.246301,0.0101 0.363974,0.1276449 0.09344,0.0933 0.110583,0.126024 0.110583,0.210979 0,0.113569 -0.06712,0.196194 -0.183066,0.225347 -0.03827,0.0096 -0.07582,0.02772 -0.08345,0.04022 -0.0076,0.01249 -0.05769,0.02271 -0.111282,0.02271 -0.07127,0 -0.12673,-0.02259 -0.206558,-0.08412 z"
       id="path323" /><path
       style="fill:#ffffff;fill-rule:evenodd;stroke-width:0.0253814"
       d="m 34.759594,10.115322 c -0.192854,-0.05012 -0.276076,-0.1936929 -0.222353,-0.3836119 0.04303,-0.152153 0.131486,-0.205988 0.335497,-0.204216 0.206618,0.0018 0.287396,0.0485 0.329371,0.19042 0.03789,0.128108 5.5e-5,0.2903139 -0.08005,0.3432239 -0.09242,0.06104 -0.247101,0.08417 -0.362462,0.05418 z"
       id="path325" /></g></svg>
