<?xml version="1.0" encoding="UTF-8" standalone="no"?>
<svg
   height="512"
   width="512"
   version="1.1"
   id="svg6"
   sodipodi:docname="potion_fire_resist.svg"
   xml:space="preserve"
   inkscape:version="1.2.1 (9c6d41e410, 2022-07-14)"
   inkscape:export-filename="potion_fire_resist.png"
   inkscape:export-xdpi="96"
   inkscape:export-ydpi="96"
   xmlns:inkscape="http://www.inkscape.org/namespaces/inkscape"
   xmlns:sodipodi="http://sodipodi.sourceforge.net/DTD/sodipodi-0.dtd"
   xmlns="http://www.w3.org/2000/svg"
   xmlns:svg="http://www.w3.org/2000/svg"><defs
     id="defs10" /><sodipodi:namedview
     id="namedview8"
     pagecolor="#ffffff"
     bordercolor="#000000"
     borderopacity="0.25"
     inkscape:showpageshadow="2"
     inkscape:pageopacity="0.0"
     inkscape:pagecheckerboard="true"
     inkscape:deskcolor="#d1d1d1"
     showgrid="false"
     inkscape:zoom="1.5466868"
     inkscape:cx="153.87731"
     inkscape:cy="244.71665"
     inkscape:window-width="2560"
     inkscape:window-height="1351"
     inkscape:window-x="2391"
     inkscape:window-y="-9"
     inkscape:window-maximized="1"
     inkscape:current-layer="svg6" /><path
     style="fill:#ffffff;fill-rule:evenodd;stroke-width:0.410093"
     d="m 280.33575,511.61629 c -1.24838,-0.1877 -5.33472,-0.52824 -9.08038,-0.7529 -3.74568,-0.22447 -7.73899,-0.58282 -8.87404,-0.79638 -1.13653,-0.21356 -12.08525,-0.39876 -24.36918,-0.41236 l -22.30547,-0.023 -6.38032,-1.27079 c -10.6815,-2.12845 -13.03969,-2.41726 -22.89013,-2.80445 -5.22123,-0.20523 -10.32896,-0.47957 -11.3505,-0.60962 -1.02155,-0.12976 -3.9933,-0.398 -6.60392,-0.59524 -7.22732,-0.5463 -7.29325,-0.57851 -13.20785,-6.48386 -6.77207,-6.76133 -11.3147,-11.76233 -13.69991,-15.08238 -2.91848,-4.0622 -3.48806,-4.85736 -6.05349,-8.45004 -1.29976,-1.82024 -4.92956,-5.97946 -8.06615,-9.24262 -3.1366,-3.26314 -5.92631,-6.35779 -6.19937,-6.87693 -1.0711,-2.03633 -2.15767,-3.49009 -4.42703,-5.92284 -1.3002,-1.3938 -3.10217,-3.77746 -4.00442,-5.29701 -1.68987,-2.84603 -2.06548,-3.69751 -4.99338,-11.31952 -2.28097,-5.93798 -2.01564,-5.32228 -5.09272,-11.81638 -6.118904,-12.91376 -5.443954,-10.86627 -11.819904,-35.8566 -1.51438,-5.93555 -1.67478,-6.97322 -2.9125,-18.84156 -0.19254,-1.84692 -0.7679,-5.88078 -1.27838,-8.96415 -0.85572,-5.16844 -0.89025,-6.00349 -0.44259,-10.69923 0.26696,-2.80131 0.65783,-6.10174 0.86843,-7.33431 1.06677,-6.24182 1.82547,-10.36407 2.58722,-14.05743 0.46223,-2.24101 0.98631,-4.91711 1.16455,-5.94689 0.45358,-2.61983 1.30569,-5.28408 3.03406,-9.48597 0.81817,-1.98907 1.48753,-3.76403 1.48753,-3.94434 0,-0.18003 0.53561,-1.48665 1.19041,-2.90287 0.6548,-1.41636 1.60308,-3.76689 2.10744,-5.22356 1.515244,-4.37629 4.145284,-8.84427 8.874454,-15.07608 2.46597,-3.24949 4.60196,-5.99985 4.74664,-6.11191 0.1448,-0.11301 1.321,-1.62551 2.61402,-3.36322 3.48181,-4.67931 3.79888,-5.04121 8.30759,-9.48149 2.28096,-2.24635 5.72595,-5.80156 7.65553,-7.90047 1.92958,-2.09891 4.52989,-4.5587 5.77843,-5.46625 3.24225,-2.35663 6.1187,-4.78781 11.17071,-9.44144 2.43288,-2.24104 6.55837,-5.99986 9.16778,-8.35296 2.6094,-2.35309 7.1004,-6.49598 9.97999,-9.20647 6.02338,-5.66959 5.97375,-5.56542 6.00041,-12.59271 0.01,-2.5273 0.29988,-5.72603 0.66549,-7.33431 0.35664,-1.56862 0.81455,-3.58566 1.01752,-4.48207 0.20296,-0.89636 0.63932,-2.82167 0.96954,-4.27834 0.33021,-1.45659 0.99195,-4.75711 1.47048,-7.33431 2.15044,-11.58171 3.03052,-15.28629 6.04993,-25.46632 0.33238,-1.12045 1.03887,-3.68753 1.57012,-5.70447 1.38454,-5.25677 4.54887,-15.01814 5.81185,-17.92832 0.29179,-0.67246 0.74595,-2.04747 1.00926,-3.05595 0.26334,-1.00859 0.73339,-2.75036 1.04439,-3.87089 0.31116,-1.12044 1.0243,-4.32927 1.58512,-7.13056 0.56076,-2.80131 1.11198,-5.55169 1.2251,-6.11193 0.56826,-2.81443 3.18236,-10.73803 3.71667,-11.26549 0.15571,-0.15322 0.28283,-0.51176 0.28283,-0.79599 0,-0.28423 0.21769,-1.03273 0.48361,-1.66363 1.05652,-2.50566 1.57479,-5.07461 2.20407,-10.926107 0.36142,-3.36157 1.11026,-8.12887 1.66401,-10.59401 2.08474,-9.28131 2.33188,-11.02649 1.8287,-12.9134 -0.2574,-0.96546 -1.1725,-2.85535 -2.03363,-4.19997 -0.86107,-1.34466 -1.91033,-3.04484 -2.33165,-3.77828 -0.42136,-0.73338 -1.46969,-1.81498 -2.32968,-2.40323 -2.42728,-1.66052 -4.34771,-3.99264 -4.87289,-5.91737 -0.29512,-1.0816 -0.41976,-3.88023 -0.32486,-7.29566 0.14518,-5.22527 0.21813,-5.63655 1.2804,-7.22107 0.61955,-0.92417 1.73078,-1.98894 2.46951,-2.36627 1.65042,-0.84297 5.08503,-1.77011 6.58133,-1.77666 1.48956,-0.006 1.62489,-0.35974 0.7884,-2.05743 -0.38929,-0.79016 -1.04265,-2.62271 -1.45176,-4.07225 -0.40909,-1.44949 -1.36982,-3.64404 -2.13485,-4.87661 -1.87604,-3.02251 -2.5453,-5.43722 -2.8819,-10.39788 -0.22953,-3.38267 -0.14952,-4.5941 0.42063,-6.36355 0.91437,-2.8378599 3.70691,-6.3990499 6.02723,-7.6862599 l 1.83621,-1.01866 17.12893,-0.0437 c 10.87683,-0.0278 18.10816,-0.21442 19.81175,-0.51201996 7.28948,-1.27298 54.37693,-0.86322 58.19708,0.50645996 6.00641,2.15346 8.21381,4.55181 9.15002,9.9415599 0.64048,3.68724 -0.12066,8.63361 -2.11251,13.74023 -0.1762,0.4483 -0.64449,1.91505 -1.04364,3.25968 -0.39896,1.34466 -0.88506,2.90318 -1.07984,3.46344 -0.65523,1.88486 -1.09498,4.39717 -0.8366,4.78031 0.14173,0.20906 1.31542,0.58627 2.60956,0.83821 4.51743,0.8795 6.90251,3.14328 7.79805,7.40176 0.53589,2.54828 0.21661,4.46963 -1.52592,9.18632 -2.25323,6.09839 -3.90348,8.50746 -8.23409,12.02011 -0.69085,0.56026 -2.06287,2.10049 -3.04919,3.42271 -1.78256,2.38969 -1.7952,2.43113 -2.12349,6.92685 -0.92566,12.68298 -0.20378,19.72328 3.32612,32.433887 1.45179,5.22768 3.72544,16.26873 3.72548,18.09137 2e-5,1.43551 0.91819,6.30056 2.27653,12.06078 0.55486,2.35309 1.28823,6.57032 1.62992,9.37161 0.68069,5.58334 0.91436,6.79301 2.98491,15.45737 0.77301,3.23514 1.77318,8.27746 2.22248,11.2052 0.44914,2.92773 0.98198,5.87323 1.18366,6.54553 0.20148,0.67246 0.67284,3.14765 1.0469,5.50074 0.76267,4.7967 0.82759,5.04063 2.92379,11.00145 3.44253,9.78824 3.9513,12.02705 4.25942,18.74323 l 0.25224,5.50073 5.82738,2.86489 c 4.98129,2.44895 7.44474,3.91233 9.44418,5.61024 0.22696,0.19268 1.74196,1.20683 3.36684,2.25334 3.07441,1.98036 7.82573,5.66086 10.6665,8.26264 0.90804,0.83162 2.57967,2.19355 3.71471,3.02643 1.135,0.83296 4.01392,3.37555 6.39754,5.65038 2.3836,2.27482 6.35147,5.59795 8.81747,7.38474 6.2515,4.52965 9.60851,7.38524 12.24099,10.41255 1.24398,1.43035 2.81883,3.05451 3.49987,3.60897 3.10389,2.52696 7.37045,7.22257 10.91413,12.01163 1.00859,1.36292 2.66521,3.48607 3.68146,4.71792 1.80555,2.18865 4.16688,6.72761 4.77019,9.16917 0.16663,0.67246 1.57322,3.78937 3.12726,6.92683 3.24969,6.56166 5.36726,11.12611 5.36726,11.56935 0,0.16854 0.6784,1.85228 1.50753,3.74056 2.28276,5.19918 3.81275,11.14069 4.26924,16.57901 0.51235,6.10232 0.53265,21.21172 0.0306,23.44725 -0.40068,1.78774 -1.30872,6.51321 -2.05118,10.67256 -0.2398,1.34472 -0.73184,4.09499 -1.09287,6.11193 -1.1011,6.15165 -1.77184,8.89002 -2.59438,10.59398 -1.2074,2.50103 -1.8812,4.10053 -3.77606,8.96417 -0.96052,2.46512 -2.74825,6.89623 -3.97301,9.84685 -1.22483,2.95064 -2.22685,5.52185 -2.22685,5.71378 0,0.48016 -2.17512,6.01563 -3.33556,8.48841 -0.52364,1.11566 -2.46818,4.5955 -4.32138,7.73296 -3.61213,6.11536 -4.37231,7.54936 -9.83343,18.54994 -1.94969,3.92762 -4.38989,8.28726 -5.42246,9.68809 -1.03253,1.40085 -2.83946,3.96318 -4.01537,5.69398 -1.17599,1.73085 -3.44544,4.92636 -5.04339,7.10122 -1.59793,2.17485 -3.55542,5.09615 -4.34996,6.49183 -0.79446,1.39567 -3.11519,5.0253 -5.157,8.06587 -2.04182,3.04055 -3.78771,5.70239 -3.87976,5.91514 -0.0919,0.21279 -1.23823,1.87449 -2.5472,3.69266 -4.57164,6.35025 -14.07881,14.57449 -19.16556,16.57928 -3.05135,1.20242 -7.79316,2.021 -13.82268,2.38571 -7.45757,0.45105 -44.80091,0.39283 -47.8827,-0.0728 z m 53.11948,-12.10912 c 4.38959,-1.00648 6.54538,-2.09694 10.61207,-5.36791 4.04489,-3.25345 6.65714,-6.2641 10.60121,-12.21797 5.03624,-7.60254 7.65144,-11.75195 9.7575,-15.48166 0.70655,-1.25107 5.39199,-7.80174 10.90894,-15.25137 3.5458,-4.78796 4.85869,-7.56634 3.57541,-7.56634 -0.26623,0 -1.2413,0.83602 -2.16693,1.85783 -5.14836,5.68457 -7.27664,7.71658 -9.90394,9.45596 -1.60214,1.06069 -3.16755,2.16451 -3.47852,2.45284 -0.31104,0.28825 -2.17047,1.55177 -4.13228,2.80751 -5.71068,3.65561 -7.63792,4.96425 -8.74728,5.93971 -3.20034,2.81397 -6.3045,4.42649 -12.4308,6.45758 -6.37449,2.11338 -8.28661,2.88968 -9.42368,3.82601 -0.34054,0.2804 -1.73353,1.10609 -3.09557,1.83485 -2.29487,1.22771 -6.33373,3.9877 -7.52883,5.14485 -0.98982,0.95822 -3.47679,1.4809 -5.77789,1.21391 -3.90183,-0.45258 -5.02722,-1.44413 -5.04733,-4.44651 -0.0268,-4.04504 2.09177,-6.72911 11.33735,-14.36177 1.81608,-1.49929 5.71654,-4.96863 8.66766,-7.70976 2.95112,-2.74111 6.09799,-5.60622 6.99304,-6.36684 3.1199,-2.65138 6.25558,-5.88206 8.0655,-8.30979 1.00246,-1.34473 2.06691,-2.68986 2.36548,-2.98941 0.2986,-0.29936 1.05073,-1.20702 1.67186,-2.01695 0.62075,-0.80979 1.59295,-1.95734 2.16066,-2.55003 0.56751,-0.59259 1.4652,-1.58337 1.99478,-2.20143 1.35507,-1.58146 4.84102,-8.16984 6.01868,-11.37497 0.54432,-1.4811 1.53376,-3.56632 2.19883,-4.63377 2.07652,-3.33238 3.08521,-6.80791 2.73983,-9.44042 -0.35127,-2.67775 -0.3461,-2.77731 0.45699,-8.82586 0.66518,-5.00986 1.13002,-6.18711 2.58779,-6.55245 1.24839,-0.31296 10.63698,1.99154 13.38526,3.28545 1.20606,0.56789 3.26885,1.87105 4.58404,2.8961 2.092,1.63049 2.65992,2.40938 4.5385,6.22409 2.07698,4.21751 2.15206,4.492 2.29234,8.38056 0.14173,3.91888 -0.24363,6.41939 -1.38916,9.01854 -0.2963,0.67246 -0.66863,2.09334 -0.8276,3.15784 -0.63377,4.2459 1.57207,1.52572 6.69152,-8.2511 2.0909,-3.9932 3.18582,-6.48727 6.52908,-14.87233 4.19284,-10.51592 5.20831,-13.10551 5.83195,-14.87233 0.35586,-1.0086 1.16948,-2.95816 1.80823,-4.33263 1.06663,-2.2958 2.05831,-6.43682 3.30474,-13.79942 0.26546,-1.56882 0.95229,-5.23589 1.52611,-8.14923 1.00342,-5.09376 1.03445,-5.71129 0.8094,-16.09473 -0.27982,-12.91143 -0.46063,-13.79487 -5.12302,-25.05885 -1.02047,-2.46514 -3.20397,-7.25362 -4.85236,-10.64104 -1.6485,-3.38745 -3.31185,-7.09446 -3.69654,-8.23782 -0.9655,-2.86953 -2.67275,-5.84593 -4.42687,-7.71754 -0.81228,-0.86667 -1.94832,-2.29622 -2.52476,-3.17689 -0.57631,-0.88066 -1.48742,-2.05963 -2.02431,-2.6199 -0.53686,-0.56022 -1.41368,-1.66036 -1.94832,-2.44477 -0.53456,-0.78432 -2.38674,-2.80248 -4.11573,-4.48468 -1.72894,-1.6822 -4.53611,-4.50613 -6.23808,-6.27536 -3.11622,-3.23944 -5.13702,-4.88586 -10.49772,-8.5529 -3.46793,-2.37226 -6.84727,-5.2041 -12.30936,-10.31514 -2.21431,-2.072 -4.53603,-4.09122 -5.1593,-4.48717 -0.62324,-0.39589 -1.84999,-1.39184 -2.72635,-2.21335 -5.08595,-4.76797 -14.09311,-10.73204 -22.245,-14.72945 -10.04731,-4.92684 -9.83555,-4.61252 -10.24349,-15.20605 -0.32062,-8.32503 -0.42596,-8.7957 -4.0262,-18.00857 -1.03617,-2.65145 -2.53918,-9.24433 -3.96423,-17.38895 -1.94853,-11.13664 -2.40161,-13.39301 -3.96761,-19.76186 -0.85422,-3.47362 -1.77356,-8.3326 -2.04335,-10.79775 -0.26967,-2.46514 -0.95248,-6.68235 -1.51749,-9.37159 -1.3543,-6.44696 -1.9568,-9.69262 -3.25184,-17.52085 -0.59317,-3.58568 -2.07122,-10.36991 -3.28454,-15.07608 -2.95499,-11.461737 -3.51904,-14.764667 -3.79247,-22.206637 -0.25512,-6.94345 0.39512,-17.32583 1.29589,-20.69348 0.83296,-3.11437 2.74683,-5.83287 7.53861,-10.70828 4.10536,-4.177 5.8684,-6.95977 5.31362,-8.38697 -0.35739,-0.9194 -3.05507,-1.09808 -5.74199,-0.38019 -3.53653,0.94501 -24.85735,0.69765 -32.26387,-0.37423 -3.12685,-0.45254 -9.06133,-0.81882 -16.09697,-0.99354 -6.46302,-0.16088 -11.75092,-0.47309 -12.58872,-0.74409 -1.0356,-0.33512 -4.13225,-0.37919 -10.93775,-0.15495 -8.86105,0.29124 -9.61681,0.37623 -11.35049,1.27775 -1.4195,0.73814 -2.71636,1.00875 -5.50143,1.14792 -3.32889,0.16682 -3.68203,0.26444 -4.08282,1.13282 -0.57304,1.24162 0.26766,2.54131 2.72179,4.20822 1.35509,0.92039 2.20569,1.98961 3.34144,4.20035 0.83796,1.63114 1.77475,3.24147 2.08173,3.57856 0.30695,0.33711 1.26712,2.07901 2.13377,3.8709 l 1.57561,3.25795 -0.0331,5.70446 c -0.0287,4.73531 -0.22665,6.50055 -1.16815,10.39027 -0.62389,2.57718 -1.40219,6.79442 -1.7294,9.3716 -0.32732,2.5772 -0.79634,6.152667 -1.04251,7.945517 -0.43479,3.16847 -2.23344,9.14109 -4.33724,14.40295 -0.56886,1.42249 -1.75096,6.03548 -2.62702,10.25075 -2.13035,10.25042 -2.6315,12.13633 -5.01747,18.88165 -3.68317,10.41259 -3.4609,9.69146 -7.115,23.08458 -3.64508,13.36007 -3.8605,14.2435 -4.57014,18.74323 -0.37111,2.35309 -1.11934,6.2036 -1.6628,8.55667 -2.73301,11.83383 -3.26146,14.66521 -3.28166,17.58214 -0.0203,2.98698 0.0331,3.16928 1.29817,4.36325 2.7895,2.63378 2.70676,6.64661 -0.18559,9.00018 -0.8407,0.68414 -1.81407,1.24398 -2.16298,1.24398 -0.91683,0 -3.79827,1.59716 -4.66883,2.58791 -0.40966,0.46618 -1.18926,1.13538 -1.73257,1.48722 -0.54328,0.35184 -3.80984,3.35669 -7.25895,6.67744 -3.44909,3.32076 -7.31282,6.86871 -8.58605,7.88437 -1.27318,1.01549 -3.89366,3.37327 -5.82324,5.23926 -3.32998,3.22022 -4.36333,4.10111 -10.03141,8.55121 -1.31754,1.03445 -3.9179,3.44514 -5.77844,5.35704 -1.86053,1.91185 -5.51875,5.61566 -8.12936,8.23059 -2.61061,2.61491 -5.67526,6.11795 -6.8103,7.78448 -1.13508,1.6665 -2.5015,3.49099 -3.03658,4.05433 -0.53504,0.56329 -1.46374,1.7615 -2.06372,2.6627 -0.59991,0.90115 -1.67581,2.27635 -2.39075,3.05599 -2.85236,3.11047 -6.50856,9.19143 -7.34443,12.2152 -0.35448,1.2821 -0.65826,2.0098 -2.21187,5.297 -0.68845,1.45658 -1.57284,3.65696 -1.96528,4.88953 -0.39246,1.23249 -1.13424,3.25106 -1.64828,4.4855 -0.51409,1.23441 -1.4269,4.71829 -2.02839,7.74179 -0.6015,3.0235 -1.36173,6.68911 -1.68958,8.14578 -0.807044,3.58649 -2.655664,16.47171 -2.657024,18.51914 -5.7e-4,0.90766 0.35838,3.94216 0.79768,6.74348 0.43927,2.80129 1.01173,7.0185 1.27189,9.37159 0.964634,8.72349 1.269284,10.5114 2.707254,15.89098 0.80877,3.02542 1.62097,6.23417 1.80499,7.13058 0.18406,0.89636 0.65003,2.82169 1.03571,4.27837 0.38555,1.45658 0.84691,3.29024 1.02502,4.07461 1.0594,4.66359 3.05797,9.56465 7.90537,19.38606 1.11473,2.25844 2.02668,4.24769 2.02668,4.42048 0,0.32733 1.03052,2.77109 1.68566,3.99714 0.20787,0.38919 0.37919,0.93926 0.38063,1.22234 0.001,0.28308 0.25812,0.99845 0.57043,1.58951 0.31231,0.59086 0.89111,2.05783 1.28605,3.25969 1.07225,3.26265 2.64271,6.01167 4.78299,8.37221 1.05347,1.16182 2.80573,3.45381 3.89398,5.09326 1.08829,1.63949 2.09596,3.07248 2.2394,3.18452 0.14308,0.113 1.43758,1.57897 2.87597,3.2597 1.43829,1.68086 4.13595,4.61451 5.99467,6.51939 1.85872,1.90495 3.77283,4.10516 4.25357,4.88953 0.48074,0.78412 1.21136,1.79712 1.62373,2.25074 0.41226,0.45354 1.83942,2.43112 3.17137,4.39456 1.33199,1.96349 3.58134,4.80107 4.99868,6.3059 1.41733,1.50484 3.51187,3.8362 4.65454,5.18083 1.14261,1.34473 3.38796,3.71414 4.98953,5.26562 l 2.91192,2.82086 4.25151,0.33997 c 9.67038,0.77301 15.65205,1.10991 20.0479,1.12906 4.51692,0.0192 14.0362,1.41598 21.14431,3.1018 2.15717,0.51158 7.17131,0.70445 25.5902,0.9835 23.42693,0.35491 35.567,0.88698 42.51274,1.86263 3.01218,0.42309 9.231,0.52191 26.82845,0.42672 21.68582,-0.11683 23.10978,-0.17046 26.70377,-0.99442 z m -10.54231,-26.28736 c 3.96008,-2.37066 9.08554,-4.74277 10.24785,-4.74277 0.25953,0 1.48723,-0.45833 2.72788,-1.01874 1.24073,-0.56022 2.48255,-1.02679 2.75957,-1.03656 1.37365,-0.0479 3.75611,-1.28956 6.76603,-3.52425 1.83026,-1.35871 4.88456,-3.50558 6.78755,-4.77088 12.36742,-8.22312 15.32461,-10.54563 19.14426,-15.0355 5.87997,-6.9117 6.80642,-8.23227 7.77494,-11.08196 4.09429,-12.04705 5.0644,-15.91278 4.6829,-18.66044 -0.39953,-2.87671 -3.25219,-8.51401 -5.04807,-9.97536 -1.80152,-1.46597 -7.88719,-4.16485 -9.39135,-4.16485 -1.92742,0 -2.28723,1.27252 -2.70731,9.57534 l -0.28863,5.70447 -2.31553,4.88953 c -1.27367,2.68925 -2.45219,5.33567 -2.61921,5.88097 -0.96071,3.13694 -7.42517,13.33891 -9.69916,15.30703 -0.5177,0.44837 -1.96666,2.1901 -3.21936,3.87086 -2.13017,2.85791 -15.37174,16.31432 -17.85423,18.14386 -0.61711,0.45489 -2.48793,2.08944 -4.15762,3.63268 -1.66976,1.54316 -4.17556,3.69275 -5.56855,4.77663 -2.44393,1.9015 -3.86485,3.51912 -3.86485,4.39956 0,0.93562 1.72587,0.29477 5.84285,-2.16977 z M 292.09755,42.374333 c 0.13216,-0.8404 0.32292,-2.03222 0.42118,-2.64848 0.0996,-0.61625 0.55486,-1.93549 1.01472,-2.93175 0.45967,-0.99624 0.83794,-2.32553 0.84043,-2.95412 0.003,-0.62856 0.58052,-2.97643 1.28439,-5.21748 0.70388,-2.24103 1.70864,-5.54147 2.23289,-7.3343 0.52403,-1.79275 1.16833,-3.96864 1.43111,-4.83515 0.62573,-2.06233 0.28308,-3.25424 -1.12543,-3.91628 -2.84547,-1.33751 -46.47044,-1.52017 -53.56359,-0.22415 -2.70915,0.49493 -6.00657,0.55808 -18.36715,0.3522 -14.99439,-0.24994 -15.06887,-0.24697 -15.84543,0.61426 -1.23793,1.37305 -0.72803,4.99854 1.17568,8.3589 0.83204,1.46893 1.96876,4.09965 2.52597,5.84623 0.55716,1.74669 1.63236,4.45914 2.38927,6.02786 0.75692,1.56879 1.6185,3.76901 1.91471,4.88955 0.86382,3.26776 0.64511,3.18092 7.20498,2.86196 7.95316,-0.38674 10.58418,-0.31407 14.3828,0.39727 2.26723,0.42465 5.97255,0.61166 12.11787,0.61166 4.8686,0 9.63076,0.18464 10.58257,0.41097 3.07159,0.7294 9.34912,1.10681 19.35672,1.16341 l 9.78399,0.0555 z"
     id="path249" /><path
     style="fill:#ffffff;fill-rule:evenodd;stroke-width:0.410093"
     d="m 255.87499,494.23914 c -0.40049,-0.0843 -1.03714,-0.73586 -1.41502,-1.447 -0.59432,-1.11854 -0.73107,-3.68775 -1.01224,-19.01789 -0.17812,-9.74852 -0.5447,-21.11669 -0.81304,-25.26261 -0.26833,-4.14592 -0.57784,-14.04722 -0.68778,-22.00291 -0.14173,-10.23584 -0.31526,-14.04793 -0.59451,-13.03876 -0.217,0.7845 -0.4792,2.15953 -0.58244,3.05596 -0.33517,2.90707 -0.5359,3.35288 -1.7297,3.84105 -1.55771,0.63683 -3.16297,-0.067 -3.7598,-1.6529 -0.24247,-0.64316 -0.66058,-1.76533 -0.9293,-2.49377 -0.98599,-2.67256 -3.62025,-5.95626 -6.22085,-7.7547 -13.78282,-9.53142 -12.57237,-8.59128 -15.85277,-12.31296 -3.005,-3.40922 -3.6082,-4.51258 -4.47996,-8.19462 -0.36546,-1.54373 -1.04121,-4.05719 -1.50151,-5.5854 -0.86265,-2.86382 -0.86108,-4.70838 0.007,-8.50852 0.42035,-1.83983 2.62027,-7.91738 3.39756,-9.38603 0.20597,-0.38919 0.37442,-0.91915 0.37442,-1.17771 0,-0.25876 0.90556,-2.32392 2.01238,-4.58949 1.10685,-2.26556 2.14,-4.5776 2.29604,-5.13785 0.15705,-0.56022 0.43458,-1.38533 0.61921,-1.8337 0.18387,-0.44837 0.54433,-1.32768 0.79945,-1.95454 0.25531,-0.62706 0.46407,-2.69326 0.46407,-4.59208 0,-3.27299 -0.0958,-3.63983 -1.83504,-7.05933 -1.00936,-1.98386 -2.07723,-3.72596 -2.37328,-3.87135 -4.92145,-2.41685 -6.17426,-3.89863 -4.67704,-5.53188 0.66562,-0.72628 1.26206,-0.82722 4.88054,-0.82722 6.03172,0 10.76364,1.44279 15.11013,4.60715 l 2.23134,1.62436 -0.26948,-1.94165 c -0.51677,-3.72004 -2.08608,-6.30222 -6.38469,-10.50497 -5.55956,-5.43556 -9.81869,-8.80295 -13.3824,-10.5804 -4.06199,-2.02602 -4.94796,-3.01098 -5.17865,-5.75714 -0.31635,-3.76551 0.62389,-4.15807 11.00953,-4.59661 5.63399,-0.23788 8.70598,0.0958 12.42575,1.35047 1.02162,0.34437 3.1575,0.94922 4.74658,1.34358 1.58912,0.39455 4.08208,1.19936 5.54002,1.7885 4.64265,1.87603 4.4087,2.159 4.75711,-5.75381 0.16475,-3.75376 0.44706,-19.47668 0.62614,-34.93982 0.20111,-17.35978 0.49836,-28.97213 0.77704,-30.35587 0.62132,-3.08421 2.61202,-4.51162 4.57878,-3.28317 0.8523,0.53245 0.6805,52.19433 -0.20475,61.51373 -0.32809,3.45356 -0.59642,8.68627 -0.59642,11.6282 v 5.34901 l 1.95772,1.61421 c 4.5279,3.7336 7.83808,7.1719 11.34826,11.78754 5.631,7.40439 6.91852,10.83162 6.91852,18.41631 0,2.76431 0.11492,5.02598 0.25301,5.02598 0.1379,0 2.32161,-1.62417 4.84975,-3.60923 7.06094,-5.54412 7.69998,-5.87482 11.44829,-5.92431 2.57316,-0.0345 3.33052,0.10343 4.03928,0.73432 1.03732,0.92298 1.11719,2.4846 0.21834,4.26367 -0.3595,0.71192 -1.38112,3.32403 -2.2701,5.80493 -1.49374,4.16942 -1.61613,4.8402 -1.61613,8.86574 0,4.02712 0.12641,4.72231 1.68469,9.23189 0.92662,2.68227 1.78448,5.29213 1.90668,5.79966 0.12258,0.50755 0.38555,1.02258 0.5857,1.14458 0.52038,0.31756 0.45009,12.99613 -0.0824,14.99872 -1.1827,4.44153 -1.75863,5.8861 -3.33556,8.36777 -0.93697,1.47458 -2.36633,3.41236 -3.17619,4.30628 -1.41751,1.56461 -6.92013,6.68248 -8.55368,7.95563 -3.65111,2.84561 -4.51908,3.68292 -5.45939,5.26656 -0.63052,1.06146 -1.19113,2.78875 -1.35737,4.18103 -0.39589,3.31536 -1.24399,4.48187 -3.14216,4.32177 -1.90974,-0.16089 -2.82262,-1.36542 -3.64654,-4.8108 -0.3484,-1.45658 -0.82549,-3.29026 -1.06031,-4.07461 -0.83162,-2.77787 -0.13024,-10.32853 1.41847,-15.27981 1.91569,-6.12297 2.50147,-14.34071 1.31255,-18.41383 -0.96646,-3.31091 -3.36462,-7.97377 -4.89925,-9.52598 l -1.29282,-1.30757 -0.26029,5.86327 c -0.37999,8.55564 -0.89636,10.0976 -5.33467,15.93137 -2.04279,2.68502 -2.43376,3.48392 -2.69179,5.50073 -0.16663,1.29761 -0.18003,16.38635 -0.0306,33.53027 0.22313,25.67516 0.37923,31.56592 0.88429,33.41182 0.89713,3.27802 0.9113,29.15724 0.0173,30.41817 -0.65426,0.92241 -1.64638,1.29321 -2.80425,1.04844 z m 22.23498,-87.28873 c 3.34018,-2.69614 10.89322,-9.46927 10.89392,-9.76913 2.9e-4,-0.11683 0.46906,-0.75137 1.04173,-1.40889 1.61038,-1.84864 4.20419,-7.49738 4.70124,-10.2383 0.74409,-4.10313 0.56827,-9.48913 -0.39914,-12.23794 -0.46599,-1.32347 -1.27904,-3.68966 -1.80708,-5.25838 -0.52805,-1.56882 -1.3001,-3.58566 -1.71572,-4.48207 -0.59662,-1.2867 -0.75252,-2.61658 -0.74046,-6.31565 0.0159,-5.0372 0.73011,-8.64613 2.49295,-12.6015 1.59621,-3.58123 0.44703,-3.79812 -3.39662,-0.64105 -7.60923,6.2502 -9.69359,8.52814 -11.28288,12.33089 -0.58072,1.38955 -1.84213,1.9922 -3.24791,1.55177 -1.4043,-0.44013 -1.71802,-1.87162 -1.3137,-5.99714 0.91857,-9.37441 0.3367,-15.0386 -2.06551,-20.10934 -2.92895,-6.18279 -11.64122,-15.67667 -17.2215,-18.76664 -2.50126,-1.38514 -11.66889,-5.06983 -12.61347,-5.06983 -0.26297,0 -2.27836,-0.55563 -4.47844,-1.23479 -3.70151,-1.14267 -4.3887,-1.22637 -9.20425,-1.12045 -2.86223,0.0632 -5.24989,0.28653 -5.30589,0.49702 -0.0575,0.21049 1.94122,1.94998 4.43834,3.86586 5.72909,4.39541 13.83116,12.2896 15.08562,14.69854 1.15416,2.21626 3.61004,10.60023 4.17754,14.26114 0.22582,1.45658 0.34878,4.23391 0.27312,6.17159 -0.14939,3.85562 -0.84885,5.23733 -2.64781,5.23733 -1.05782,0 -2.53522,-1.62915 -2.92343,-3.22401 -0.41485,-1.70423 -3.93162,-8.12906 -5.33656,-9.7494 -1.44682,-1.66841 -5.9237,-3.9844 -6.95058,-3.59537 -0.57383,0.21739 -0.46465,0.64642 0.78871,3.10332 1.43858,2.82 1.45448,2.90822 1.45448,8.08186 0,4.73658 -0.11684,5.57479 -1.24169,8.87246 -0.68299,2.00296 -1.80784,4.69529 -2.49978,5.983 -1.28018,2.38228 -4.67165,10.7547 -5.4063,13.34599 -1.00304,3.53822 -1.12504,5.29391 -0.51732,7.43979 0.33269,1.17465 0.85594,3.41904 1.16258,4.98779 1.20587,6.16701 3.73184,8.88908 15.7256,16.94607 2.0431,1.3725 4.70352,3.41577 5.91203,4.54065 1.50216,1.39835 2.33131,1.91299 2.62085,1.62723 0.23309,-0.23003 0.59489,-1.93113 0.80461,-3.78047 0.28576,-2.52167 0.77608,-4.18736 1.96121,-6.66208 1.4742,-3.07835 5.55241,-9.09768 8.49197,-12.53375 2.2638,-2.64619 2.89414,-5.12242 2.88734,-11.34275 -0.007,-6.35025 -0.48246,-8.4113 -2.40471,-10.42318 -2.79125,-2.9214 -3.89025,-6.3031 -2.49574,-7.67976 1.55254,-1.53261 2.88491,-0.74907 10.59619,6.23086 6.56451,5.94191 7.44955,7.11414 9.73266,12.89073 1.30278,3.29591 2.21463,8.57785 1.92602,11.15497 -0.3461,3.0895 -1.74081,10.22409 -2.54958,13.04097 -0.86629,3.01798 -1.57304,8.30398 -1.22809,9.1907 0.35873,0.92298 0.55965,0.82837 3.82593,-1.80842 z"
     id="path251" /><path
     style="fill:#ffffff;fill-rule:evenodd;stroke-width:0.410093"
     d="m 373.82252,386.84189 c -1.46252,-0.43209 -1.99252,-0.99212 -4.64338,-4.90671 -3.29534,-4.86632 -3.52273,-5.78446 -2.43268,-9.82274 0.84599,-3.13439 1.63088,-4.339 5.30248,-8.13772 4.65661,-4.81795 6.416,-5.91969 9.45327,-5.91969 1.30834,0 2.84768,-0.17621 3.4207,-0.39091 1.72893,-0.64909 2.78485,-3.30507 3.15312,-7.93167 0.29553,-3.71301 0.42424,-4.16852 1.41694,-5.01135 0.60044,-0.50985 1.35143,-0.927 1.66841,-0.927 1.12006,0 2.59381,0.91704 3.04493,1.89442 0.2511,0.54432 1.26889,1.85324 2.26131,2.90917 2.9803,3.17026 3.3261,4.13489 3.31735,9.2539 -0.008,4.91889 -0.29706,7.39972 -1.25605,10.79775 -1.5171,5.37533 -2.82621,8.87597 -3.90032,10.43017 -1.38131,1.99875 -5.33925,5.64231 -7.11233,6.54747 -0.70406,0.35931 -3.58353,0.89253 -6.45082,1.19438 -6.01985,0.63377 -5.17639,0.63128 -7.24291,0.0211 z m 12.20352,-7.06996 c 3.04407,-2.06754 4.6579,-4.36898 5.94254,-8.47441 0.63109,-2.01693 1.2888,-4.03385 1.46194,-4.48207 0.38038,-0.98638 1.24092,-7.31056 1.22254,-8.98531 -0.0122,-1.11834 -0.79179,-2.62734 -1.35737,-2.62734 -0.28347,0 -0.96359,2.36192 -1.30393,4.528 -0.12641,0.80959 -0.55257,1.75173 -0.94539,2.09328 -0.94079,0.8184 -4.46953,1.52783 -7.59799,1.52783 h -2.50919 l -3.71415,3.56528 c -3.7911,3.63917 -5.23475,5.85725 -5.2509,8.06771 -0.0104,1.4313 3.22486,6.14306 4.36932,6.36349 0.38708,0.0728 2.30046,0.0383 4.25184,-0.0804 3.10942,-0.19153 3.78066,-0.37483 5.43066,-1.49527 z"
     id="path253" /><path
     style="fill:#ffffff;fill-rule:evenodd;stroke-width:0.410093"
     d="m 197.19496,224.98558 c -2.183,-0.7893 -3.12295,-1.70308 -3.12295,-3.03592 0,-2.04541 0.40953,-2.12061 12.07504,-2.21697 7.08141,-0.0575 11.40399,-0.26124 12.4833,-0.58569 2.12844,-0.63971 18.93027,-1.34243 34.46422,-1.44184 8.06806,-0.0517 12.99613,-0.25377 14.60693,-0.59929 3.06242,-0.65714 32.97504,-0.26872 36.68682,0.47633 3.0127,0.60466 4.35455,1.83485 3.77525,3.46094 -0.56693,1.59141 -2.05103,2.23894 -4.30135,1.8766 -1.02161,-0.16471 -9.4725,-0.27044 -18.77991,-0.2352 -9.30739,0.0364 -22.40547,0.0575 -29.10683,0.0536 -8.63929,-0.008 -12.54213,0.13407 -13.41422,0.48457 -0.76324,0.3076 -5.14513,0.61768 -11.54856,0.81726 -6.09981,0.19153 -11.66865,0.57535 -13.6206,0.94175 -4.47035,0.83947 -17.87938,0.84196 -20.19714,0.004 z"
     id="path255" /><path
     style="fill:#ffffff;fill-rule:evenodd;stroke-width:0.205047"
     d="m 226.95714,23.376443 c -0.85192,-1.00694 -0.9994,-2.18312 -0.37253,-2.96998 0.56425,-0.70816 1.59544,-0.88684 2.49406,-0.4322 0.88391,0.4473 0.99825,0.62856 1.00227,1.58885 0.006,1.57276 -2.22928,2.8704 -3.12373,1.81319 z"
     id="path257" /><path
     style="fill:#ffffff;fill-rule:evenodd;stroke-width:0.205047"
     d="m 239.06124,32.790343 c -0.11492,-0.0318 -0.46772,-0.11511 -0.78719,-0.18463 -0.83602,-0.18272 -1.41789,-1.49475 -1.10685,-2.49555 0.55678,-1.79076 3.45211,-1.87157 3.90408,-0.10917 0.14556,0.57058 -0.10917,2.28814 -0.34169,2.28814 -0.0383,0 -0.38325,0.12507 -0.76592,0.27913 -0.38287,0.15284 -0.78891,0.25334 -0.9023,0.22157 z"
     id="path259" /><path
     style="fill:#ffffff;fill-rule:evenodd;stroke-width:0.205047"
     d="m 253.24383,25.837273 c -0.14556,-0.0576 -0.45028,-0.46614 -0.67859,-0.90808 -0.51866,-1.00379 -0.36984,-2.04802 0.37464,-2.62598 0.61461,-0.47728 1.25087,-0.51062 2.20864,-0.11511 1.39395,0.57495 1.53664,1.81776 0.34379,2.99531 -0.7755,0.76534 -1.46348,0.96566 -2.24831,0.65417 z"
     id="path261" /><path
     style="fill:#ffffff;fill-rule:evenodd;stroke-width:0.205047"
     d="m 266.61229,26.217123 c -1.89843,-0.91643 -1.23996,-3.89585 0.86342,-3.90727 1.37978,-0.007 2.0929,0.75204 2.05534,2.18905 -0.0249,0.9474 -0.35031,1.43163 -1.19744,1.78104 -0.89062,0.36727 -0.82511,0.36967 -1.72128,-0.0636 z"
     id="path263" /><path
     style="fill:#ffffff;fill-rule:evenodd;stroke-width:0.205047"
     d="m 278.86155,29.562293 c -0.91857,-0.50388 -1.1055,-0.78083 -1.1055,-1.63788 0,-0.69962 0.12449,-0.97064 0.6941,-1.516 0.60217,-0.57635 0.81342,-0.65575 1.59429,-0.60015 0.80615,0.0576 0.94941,0.14881 1.3748,0.87891 0.57688,0.99028 0.48552,1.78084 -0.30032,2.59018 -0.59719,0.61525 -1.45735,0.72385 -2.25742,0.2851 z"
     id="path265" /><path
     style="fill:#ffffff;fill-rule:evenodd;stroke-width:0.205047"
     d="m 263.31002,38.044743 c -1.36943,-0.67541 -1.49986,-2.9958 -0.20647,-3.66961 0.66116,-0.34445 2.16762,-0.20291 2.67617,0.25153 0.55581,0.49652 0.71957,1.73259 0.34647,2.61453 -0.24037,0.56781 -0.47805,0.77169 -1.09708,0.94144 -0.99193,0.27199 -0.86782,0.28191 -1.71897,-0.13694 z"
     id="path267" /></svg>
