<?xml version="1.0" encoding="UTF-8" standalone="no"?>
<svg
   height="512"
   width="512"
   version="1.1"
   id="svg6"
   sodipodi:docname="potion_frost_resist.svg"
   xml:space="preserve"
   inkscape:version="1.2.1 (9c6d41e410, 2022-07-14)"
   inkscape:export-filename="potion_frost_resist.png"
   inkscape:export-xdpi="96"
   inkscape:export-ydpi="96"
   xmlns:inkscape="http://www.inkscape.org/namespaces/inkscape"
   xmlns:sodipodi="http://sodipodi.sourceforge.net/DTD/sodipodi-0.dtd"
   xmlns="http://www.w3.org/2000/svg"
   xmlns:svg="http://www.w3.org/2000/svg"><defs
     id="defs10" /><sodipodi:namedview
     id="namedview8"
     pagecolor="#ffffff"
     bordercolor="#000000"
     borderopacity="0.25"
     inkscape:showpageshadow="2"
     inkscape:pageopacity="0.0"
     inkscape:pagecheckerboard="true"
     inkscape:deskcolor="#d1d1d1"
     showgrid="false"
     inkscape:zoom="1.5466868"
     inkscape:cx="181.03213"
     inkscape:cy="251.82863"
     inkscape:window-width="2560"
     inkscape:window-height="1351"
     inkscape:window-x="2391"
     inkscape:window-y="-9"
     inkscape:window-maximized="1"
     inkscape:current-layer="svg6" /><path
     style="fill:#ffffff;fill-rule:evenodd;stroke-width:0.386874"
     d="m 277.95091,511.61597 c -1.11109,-0.18885 -4.74767,-0.52805 -8.08115,-0.75275 -3.33352,-0.22451 -6.88739,-0.58286 -7.89753,-0.79629 -1.01142,-0.21363 -10.75538,-0.3989 -21.68758,-0.41242 l -19.85094,-0.0244 -5.67823,-1.27085 c -9.5061,-2.12749 -11.6048,-2.41629 -20.37127,-2.80351 -4.6467,-0.20527 -9.19236,-0.47957 -10.10147,-0.60971 -0.90916,-0.12994 -3.5539,-0.39794 -5.87723,-0.59529 -6.43203,-0.54635 -6.49069,-0.57843 -11.75446,-6.48386 -6.02686,-6.76135 -10.0696,-11.76234 -12.19235,-15.08239 -2.59733,-4.06224 -3.10424,-4.85734 -5.38736,-8.45005 -1.1567,-1.82018 -4.3871,-5.97947 -7.17855,-9.24263 -2.79145,-3.26313 -5.27417,-6.35777 -5.51717,-6.87692 -0.95321,-2.03632 -1.92016,-3.49012 -3.93989,-5.92287 -1.15711,-1.3938 -2.76079,-3.77743 -3.56378,-5.29699 -1.50387,-2.84605 -1.83811,-3.69752 -4.44388,-11.31951 -2.03,-5.938 -1.79387,-5.32228 -4.53233,-11.8164 -5.44555,-12.91377 -4.84489,-10.86628 -10.51922,-35.85661 -1.34768,-5.93554 -1.49053,-6.97322 -2.59202,-18.84156 -0.17176,-1.84695 -0.68344,-5.88077 -1.13772,-8.96417 -0.76164,-5.16842 -0.79235,-6.00344 -0.39384,-10.69922 0.23765,-2.80132 0.58543,-6.10175 0.77296,-7.33432 0.94938,-6.24181 1.62452,-10.36406 2.30252,-14.05741 0.41143,-2.24103 0.87784,-4.91714 1.03646,-5.94692 0.40355,-2.6198 1.16195,-5.28407 2.70018,-9.48597 0.7281,-1.9891 1.32382,-3.764 1.32382,-3.94433 0,-0.1802 0.47691,-1.48653 1.05951,-2.90287 0.5826,-1.41633 1.42669,-3.76688 1.8755,-5.22355 1.34848,-4.37632 3.68912,-8.84429 7.89789,-15.07609 2.19463,-3.24951 4.09558,-5.99987 4.22434,-6.1119 0.12934,-0.11075 1.1757,-1.62544 2.32635,-3.36327 3.09867,-4.6793 3.38086,-5.04116 7.3934,-9.48144 2.02998,-2.24637 5.09587,-5.80161 6.81312,-7.90051 1.71727,-2.0989 4.03143,-4.55871 5.14258,-5.46623 2.88546,-2.35663 5.44538,-4.78783 9.94147,-9.44145 2.16516,-2.24105 5.83668,-5.99987 8.15896,-8.35297 2.32226,-2.35307 6.31905,-6.49598 8.88178,-9.20645 5.36055,-5.6696 5.31639,-5.56546 5.34011,-12.59272 0.008,-2.52729 0.26696,-5.72603 0.5921,-7.33432 0.31747,-1.56875 0.72485,-3.58566 0.90553,-4.48206 0.17983,-0.89635 0.56906,-2.82169 0.86288,-4.27836 0.29381,-1.45668 0.88268,-4.7571 1.30867,-7.33431 1.91389,-11.58171 2.69703,-15.28631 5.38416,-25.46634 0.29584,-1.12049 0.92451,-3.68754 1.39738,-5.70444 1.23229,-5.2568 4.04833,-15.01816 5.17231,-17.92832 0.25967,-0.67241 0.66384,-2.04751 0.89824,-3.05597 0.23443,-1.00841 0.65272,-2.75035 0.92937,-3.87089 0.27685,-1.12048 0.91157,-4.32928 1.41071,-7.13057 0.49914,-2.8013 0.98959,-5.55167 1.09043,-6.11193 0.50581,-2.81445 2.83219,-10.73804 3.3077,-11.26551 0.13948,-0.15393 0.25179,-0.5119 0.25179,-0.79592 0,-0.2842 0.194,-1.03301 0.43043,-1.66392 0.94028,-2.50565 1.40142,-5.07458 1.96159,-10.926116 0.32171,-3.36156 0.98817,-8.12886 1.48085,-10.594 1.85525,-9.28119 2.07524,-11.02637 1.62751,-12.91328 -0.22916,-0.96541 -1.04354,-2.85537 -1.80982,-4.19998 -0.76628,-1.34468 -1.70009,-3.04486 -2.07507,-3.77827 -0.37506,-0.73335 -1.30807,-1.8149 -2.07334,-2.40324 -2.16017,-1.6606 -3.86926,-3.99265 -4.33665,-5.91739 -0.2627,-1.08175 -0.37365,-3.88023 -0.28918,-7.29566 0.12933,-5.22526 0.194,-5.63654 1.13953,-7.22108 0.55127,-0.9242 1.54025,-1.98889 2.19776,-2.36625 1.46871,-0.84298 4.52547,-1.77002 5.85711,-1.77672 1.32564,-0.006 1.44608,-0.35957 0.70162,-2.05742 -0.34637,-0.7902 -0.92794,-2.6227 -1.29209,-4.07226 -0.36415,-1.44964 -1.21915,-3.64405 -1.89995,-4.87661 -1.66959,-3.02252 -2.26522,-5.43721 -2.56478,-10.39788 -0.2043,-3.38268 -0.13337,-4.59409 0.37445,-6.36356 0.81378,-2.8378503 3.299,-6.3990403 5.36398,-7.6862603 l 1.63421,-1.01861 15.24404,-0.0426 c 9.67995,-0.0284 16.11553,-0.21439 17.63166,-0.51204995 6.48731,-1.27301 48.39325,-0.86309 51.79301,0.50635995 5.34546,2.15345 7.30998,4.55182 8.14316,9.9415703 0.5701,3.68723 -0.107,8.6336 -1.88014,13.74022 -0.1558,0.44829 -0.57366,1.91499 -0.92882,3.25971 -0.35516,1.34467 -0.78766,2.90316 -0.96093,3.4634 -0.58322,1.88495 -0.97461,4.39717 -0.74466,4.78034 0.12577,0.20911 1.17059,0.58635 2.32239,0.8383 4.02034,0.87933 6.14295,3.14327 6.9399,7.40175 0.47698,2.54828 0.19204,4.46964 -1.35794,9.18634 -2.00522,6.09838 -3.47394,8.50745 -7.32801,12.02012 -0.61477,0.56016 -1.83587,2.10048 -2.71365,3.4227 -1.58658,2.38969 -1.59785,2.43111 -1.88984,6.92685 -0.82389,12.68299 -0.18209,19.7233 2.96011,32.433896 1.29206,5.2277 3.31549,16.26873 3.31552,18.09141 4e-5,1.43566 0.81714,6.30056 2.02604,12.06079 0.49388,2.35309 1.14657,6.57031 1.45049,9.37161 0.60576,5.58333 0.81375,6.79297 2.65647,15.45738 0.68818,3.23511 1.57813,8.27746 1.97793,11.20519 0.39965,2.92773 0.87401,5.87324 1.05347,6.54553 0.18021,0.6724 0.59882,3.14764 0.93164,5.50075 0.6786,4.79671 0.73642,5.04065 2.60206,11.00142 3.06371,9.78827 3.51649,12.02705 3.79068,18.74324 l 0.2245,5.50073 5.18614,2.8649 c 4.43316,2.44896 6.62552,3.91234 8.40493,5.61026 0.20198,0.19297 1.55036,1.20665 2.99636,2.25332 2.7361,1.98038 6.96458,5.66085 9.49275,8.26263 0.80812,0.83159 2.29575,2.19355 3.30593,3.02643 1.0103,0.83309 3.57224,3.37559 5.69356,5.65038 2.1213,2.27483 5.65254,5.59797 7.84718,7.38476 5.56357,4.52965 8.55118,7.38524 10.89399,10.41259 1.10695,1.43059 2.50864,3.05451 3.11474,3.60896 2.76233,2.52695 6.55939,7.22254 9.71313,12.0116 0.89766,1.36302 2.37192,3.4861 3.27634,4.71797 1.60667,2.18863 3.70836,6.72758 4.24529,9.16914 0.14829,0.6724 1.40018,3.78939 2.78309,6.92683 2.89214,6.56166 4.77666,11.12611 4.77666,11.56933 0,0.16894 0.60388,1.8522 1.34161,3.7406 2.03157,5.19916 3.3932,11.14069 3.79944,16.57901 0.45596,6.1023 0.47398,21.21175 0.0281,23.44725 -0.35647,1.78763 -1.16478,6.5132 -1.82536,10.67256 -0.21362,1.34462 -0.65138,4.09498 -0.97256,6.11194 -0.98007,6.15164 -1.57682,8.89002 -2.30892,10.59401 -1.07467,2.50099 -1.67424,4.10051 -3.36052,8.96415 -0.85487,2.46513 -2.44584,6.89622 -3.53582,9.84687 -1.09008,2.95063 -1.98179,5.52185 -1.98179,5.71375 0,0.48037 -1.93571,6.01566 -2.96853,8.48845 -0.46591,1.11561 -2.19659,4.59547 -3.84585,7.73292 -3.21465,6.11539 -3.89118,7.54936 -8.75135,18.54996 -1.73525,3.92762 -3.90681,8.28724 -4.82576,9.6881 -0.91888,1.40093 -2.52701,3.96318 -3.57355,5.694 -1.04653,1.73075 -3.06627,4.92636 -4.48839,7.10117 -1.42195,2.17487 -3.16417,5.09617 -3.87127,6.49184 -0.70713,1.39568 -2.77241,5.02534 -4.58954,8.06589 -1.8171,3.04055 -3.37091,5.70237 -3.45281,5.91515 -0.0826,0.21269 -1.1019,1.87454 -2.26691,3.69266 -4.06855,6.35026 -12.52955,14.57449 -17.05656,16.57927 -2.71557,1.20252 -6.93559,2.02098 -12.30162,2.38575 -6.63693,0.45109 -39.87097,0.3929 -42.61368,-0.0751 z m 47.27416,-12.10915 c 3.90658,-1.00635 5.82514,-2.09691 9.44432,-5.3679 3.59977,-3.25345 5.92459,-6.2641 9.43466,-12.21798 4.48203,-7.60252 6.80946,-11.75195 8.68378,-15.48165 0.62866,-1.25113 4.79862,-7.80177 9.70849,-15.25136 3.15561,-4.78797 4.32404,-7.56637 3.18195,-7.56637 -0.23709,0 -1.10471,0.83609 -1.92845,1.85784 -4.58182,5.68456 -6.4759,7.71658 -8.81409,9.45597 -1.4259,1.06078 -2.81899,2.16449 -3.09574,2.4528 -0.27688,0.28833 -1.93169,1.55186 -3.67757,2.80755 -5.08226,3.65557 -6.79743,4.96424 -7.78471,5.93967 -2.84817,2.81398 -5.61074,4.42651 -11.06291,6.45761 -5.67303,2.11335 -7.37476,2.88966 -8.38668,3.82601 -0.30298,0.28045 -1.54266,1.10621 -2.75495,1.83474 -2.04232,1.22767 -5.63675,3.9877 -6.70034,5.14484 -0.88076,0.9583 -3.09418,1.48072 -5.14206,1.21397 -3.47249,-0.45277 -4.47405,-1.44411 -4.49194,-4.44649 -0.0244,-4.04503 1.86159,-6.7291 10.0898,-14.36175 1.61624,-1.49911 5.08747,-4.96867 7.71385,-7.70979 2.62637,-2.7411 5.42696,-5.60623 6.22352,-6.36684 2.77657,-2.65139 5.56723,-5.88208 7.17795,-8.3098 0.89222,-1.34462 1.83963,-2.68986 2.10517,-2.98938 0.26581,-0.2996 0.93521,-1.20702 1.48766,-2.01691 0.55245,-0.80981 1.41782,-1.95742 1.92299,-2.55 0.50495,-0.59263 1.30407,-1.5834 1.77524,-2.20145 1.20608,-1.58152 4.30833,-8.16985 5.35637,-11.37497 0.48412,-1.48109 1.36488,-3.5663 1.95692,-4.63378 1.84808,-3.33237 2.74574,-6.80791 2.43837,-9.44042 -0.31255,-2.67773 -0.30804,-2.77731 0.40679,-8.82588 0.59206,-5.00981 1.00578,-6.1871 2.30304,-6.55243 1.1111,-0.31293 9.46647,1.99154 11.91233,3.28544 1.07317,0.56784 2.90912,1.87116 4.07959,2.89612 1.86178,1.63051 2.36725,2.40937 4.03909,6.22408 1.84844,4.21753 1.91531,4.49201 2.04008,8.38055 0.12577,3.9189 -0.21681,6.4194 -1.2361,9.01857 -0.26375,0.67241 -0.59507,2.09333 -0.73661,3.15784 -0.56427,4.2459 1.39924,1.52557 5.95517,-8.25111 1.86065,-3.99321 2.83524,-6.48728 5.8106,-14.87236 3.73146,-10.51589 4.63519,-13.10549 5.19019,-14.87234 0.31668,-1.00841 1.0409,-2.95814 1.60912,-4.33262 0.94908,-2.2958 1.83192,-6.4368 2.94108,-13.7994 0.23615,-1.56857 0.84754,-5.23589 1.35832,-8.14924 0.89297,-5.09376 0.92038,-5.71127 0.72027,-16.09475 -0.2491,-12.91144 -0.40978,-13.79486 -4.55928,-25.05886 -0.90817,-2.46514 -2.85138,-7.25362 -4.31839,-10.64105 -1.4672,-3.38743 -2.94741,-7.09443 -3.28976,-8.23779 -0.85919,-2.86954 -2.37865,-5.84595 -3.93975,-7.71754 -0.72289,-0.8665 -1.73413,-2.29623 -2.24693,-3.17693 -0.51285,-0.88077 -1.3236,-2.05961 -1.80152,-2.61987 -0.47793,-0.56034 -1.25808,-1.66036 -1.73413,-2.44477 -0.47587,-0.78428 -2.12411,-2.80247 -3.66282,-4.4847 -1.53872,-1.68213 -4.03697,-4.50611 -5.55164,-6.27536 -2.77333,-3.23942 -4.57175,-4.88586 -9.34254,-8.5529 -3.08634,-2.37226 -6.0938,-5.2041 -10.95484,-10.31513 -1.97067,-2.07202 -4.03685,-4.09122 -4.59157,-4.48715 -0.55471,-0.3959 -1.64647,-1.39192 -2.42634,-2.21337 -4.52628,-4.76798 -12.54226,-10.73204 -19.79713,-14.72945 -8.94167,-4.92686 -8.75323,-4.61255 -9.11626,-15.20609 -0.28533,-8.32501 -0.37881,-8.79567 -3.58316,-18.00856 -0.92207,-2.65145 -2.2598,-9.24432 -3.52803,-17.38893 -1.73413,-11.13666 -2.1373,-13.39304 -3.53099,-19.76189 -0.76026,-3.47363 -1.57851,-8.33259 -1.8186,-10.79773 -0.2401,-2.46514 -0.84774,-6.68237 -1.35044,-9.37163 -1.20533,-6.44694 -1.74145,-9.69258 -2.894,-17.52086 -0.52785,-3.58564 -1.84337,-10.36986 -2.92312,-15.07606 -2.6298,-11.461786 -3.13182,-14.764686 -3.37515,-22.206656 -0.22695,-6.94346 0.35159,-17.32583 1.15295,-20.69349 0.74149,-3.11438 2.44457,-5.83287 6.70908,-10.70827 3.65358,-4.17701 5.22263,-6.95977 4.72891,-8.38698 -0.31818,-0.91953 -2.71891,-1.0982 -5.11016,-0.38007 -3.14735,0.94491 -22.12202,0.69761 -28.71352,-0.37418 -2.78286,-0.45255 -8.0643,-0.81882 -14.32573,-0.99344 -5.75183,-0.16031 -10.45784,-0.47306 -11.20345,-0.74411 -0.92169,-0.3352 -3.67754,-0.37926 -9.73416,-0.15637 -7.88598,0.29115 -8.55855,0.37623 -10.10146,1.27768 -1.2634,0.73822 -2.41743,1.00866 -4.89604,1.14795 -2.96259,0.1665 -3.27687,0.26434 -3.63356,1.1327 -0.51004,1.24155 0.23825,2.54132 2.42229,4.20823 1.20601,0.92034 1.963,1.98971 2.97375,4.20035 0.74566,1.63115 1.57945,3.24146 1.85267,3.57857 0.2732,0.33703 1.12759,2.07902 1.89893,3.87089 l 1.40223,3.25794 -0.0302,5.70445 c -0.0242,4.73532 -0.20208,6.50055 -1.03971,10.39027 -0.55532,2.57719 -1.24785,6.79444 -1.53902,9.37163 -0.2914,2.57719 -0.70869,6.152666 -0.92776,7.945496 -0.38718,3.1685 -1.98765,9.14109 -3.85996,14.40297 -0.50622,1.42271 -1.55824,6.03546 -2.33795,10.25074 -1.89591,10.25045 -2.34191,12.13639 -4.46534,18.8817 -3.27788,10.41258 -3.08006,9.69146 -6.33205,23.08457 -3.24398,13.36007 -3.43567,14.24351 -4.06723,18.74322 -0.3302,2.35309 -0.99625,6.2036 -1.47983,8.55669 -2.43227,11.83384 -2.90257,14.66519 -2.92056,17.58211 -0.018,2.98703 0.0302,3.1693 1.15529,4.3633 2.48255,2.63378 2.40891,6.64661 -0.16575,9.00019 -0.74811,0.68423 -1.61443,1.244 -1.92501,1.244 -0.81601,0 -3.38031,1.59729 -4.15508,2.58794 -0.36455,0.46611 -1.0585,1.13532 -1.54187,1.48729 -0.48358,0.35178 -3.39057,3.35668 -6.46014,6.67745 -3.06957,3.32075 -6.50811,6.86872 -7.64124,7.88435 -1.13305,1.01555 -3.46526,3.37337 -5.18251,5.23933 -2.96353,3.22021 -3.88318,4.10106 -8.92753,8.55117 -1.17246,1.03451 -3.48676,3.44514 -5.14258,5.35705 -1.65583,1.91194 -4.91146,5.61567 -7.23479,8.23057 -2.32335,2.61494 -5.05074,6.11797 -6.0609,7.7845 -1.0102,1.66655 -2.22624,3.49101 -2.70242,4.05433 -0.47611,0.56316 -1.30261,1.76154 -1.8367,2.6627 -0.53409,0.90104 -1.49136,2.27637 -2.12766,3.05598 -2.53848,3.11047 -5.79236,9.19143 -6.53624,12.2152 -0.31544,1.28211 -0.58582,2.00981 -1.96846,5.297 -0.6127,1.45669 -1.3998,3.65699 -1.74899,4.88956 -0.34919,1.23255 -1.0094,3.25106 -1.4669,4.48552 -0.4575,1.23443 -1.26987,4.71823 -1.80517,7.74176 -0.53531,3.02352 -1.21187,6.68911 -1.50367,8.14579 -0.71819,3.58649 -2.36347,16.47173 -2.36464,18.51918 -5.2e-4,0.9078 0.31888,3.94213 0.70991,6.74343 0.39101,2.8013 0.90046,7.01852 1.13184,9.37161 0.85843,8.72352 1.12963,10.51143 2.40934,15.89102 0.71979,3.02538 1.44263,6.23413 1.60632,7.13055 0.16369,0.89635 0.57856,2.82167 0.92169,4.27836 0.34313,1.45668 0.75376,3.29025 0.91219,4.07462 0.94291,4.66359 2.72147,9.56466 7.03546,19.38609 0.99201,2.25841 1.80376,4.24763 1.80376,4.42046 0,0.32757 0.91703,2.77108 1.50023,3.99715 0.18584,0.38914 0.33748,0.93915 0.33868,1.22242 0.001,0.28326 0.22977,0.99828 0.50763,1.58959 0.27785,0.59093 0.79295,2.05781 1.14458,3.25967 0.95422,3.26265 2.35191,6.01168 4.25666,8.37222 0.93765,1.16178 2.497,3.45381 3.46549,5.09329 0.96856,1.63952 1.8654,3.07248 1.99291,3.18451 0.12727,0.11075 1.27936,1.57889 2.5595,3.25971 1.27996,1.68063 3.68082,4.61448 5.335,6.51935 1.65422,1.90485 3.35767,4.10521 3.78549,4.88955 0.42781,0.78428 1.0781,1.7972 1.44507,2.25073 0.36698,0.45352 1.63704,2.43114 2.82238,4.39457 1.1854,1.96352 3.18726,4.80107 4.44862,6.3059 1.26138,1.50493 3.12542,3.83623 4.14235,5.18084 1.01686,1.34462 3.01515,3.71412 4.44047,5.26562 l 2.59149,2.82086 3.78368,0.34015 c 8.60624,0.7732 13.92969,1.10997 17.8418,1.12911 4.01989,0.0206 12.49165,1.41595 18.81758,3.1018 1.91975,0.51153 6.38217,0.70432 22.77423,0.98345 20.84902,0.35517 31.65318,0.88697 37.8346,1.86253 2.68072,0.42312 8.21521,0.52205 23.87622,0.42668 19.2995,-0.11826 20.56676,-0.17082 23.76527,-0.99433 z m -9.3822,-26.28738 c 3.5243,-2.37064 8.08575,-4.74272 9.12017,-4.74272 0.23089,0 1.32341,-0.45822 2.42769,-1.01856 1.10414,-0.56033 2.20936,-1.02681 2.45593,-1.03657 1.2226,-0.0488 3.34273,-1.28962 6.02146,-3.52424 1.62882,-1.3587 4.34705,-3.5056 6.04065,-4.77089 11.00648,-8.22311 13.63828,-10.54564 17.0376,-15.0355 5.23291,-6.91169 6.05743,-8.23226 6.91937,-11.08197 3.64376,-12.04705 4.50713,-15.91277 4.16758,-18.66044 -0.35553,-2.87673 -2.89429,-8.51402 -4.49255,-9.97538 -1.60329,-1.46607 -7.01928,-4.16482 -8.35793,-4.16482 -1.71516,0 -2.03554,1.27253 -2.40938,9.57533 l -0.25679,5.70447 -2.06074,4.88954 c -1.13344,2.68923 -2.18235,5.33565 -2.331,5.88095 -0.85505,3.13694 -6.60808,13.33892 -8.63184,15.30704 -0.46103,0.44826 -1.75028,2.19009 -2.86511,3.87087 -1.89571,2.8579 -13.68022,16.31433 -15.88952,18.14386 -0.54907,0.45484 -2.21416,2.08942 -3.70012,3.63268 -1.48597,1.54322 -3.71607,3.69275 -4.95577,4.77663 -2.175,1.9016 -3.43958,3.51913 -3.43958,4.39957 0,0.93577 1.53609,0.2949 5.19994,-2.16977 z M 288.41844,42.373834 c 0.12014,-0.84036 0.2874,-2.03222 0.37469,-2.6485 0.0864,-0.6162 0.49388,-1.9355 0.90292,-2.93173 0.40903,-0.99628 0.74561,-2.32554 0.74805,-2.95411 0.002,-0.62859 0.51678,-2.97646 1.1432,-5.2175 0.62621,-2.24104 1.52068,-5.54147 1.98723,-7.3343 0.46667,-1.79277 1.03977,-3.96865 1.27348,-4.83514 0.55677,-2.06233 0.25191,-3.25425 -1.00147,-3.91629 -2.53239,-1.33758 -41.35683,-1.5201 -47.66943,-0.22416 -2.41106,0.49499 -5.34564,0.55814 -16.34602,0.35225 -13.3444,-0.24992 -13.41068,-0.24709 -14.10179,0.61438 -1.10173,1.3731 -0.64787,4.99855 1.04637,8.35892 0.74041,1.46892 1.75204,4.09963 2.24801,5.84623 0.49591,1.74667 1.45274,4.45913 2.12634,6.02785 0.67374,1.56883 1.44043,3.76903 1.70395,4.88954 0.76872,3.26779 0.57411,3.18093 6.41213,2.86197 7.078,-0.38677 9.41948,-0.31409 12.8001,0.39732 2.01777,0.42454 5.31531,0.61153 10.78439,0.61153 4.33288,0 8.57101,0.18471 9.41806,0.41093 2.73362,0.72949 8.32035,1.10672 17.22671,1.16338 l 8.70734,0.0548 z"
     id="path303" /><path
     style="fill:#ffffff;fill-rule:evenodd;stroke-width:0.386874"
     d="m 255.98413,494.09693 c -0.44996,-0.18396 -1.00428,-0.84492 -1.23179,-1.46701 -0.26619,-0.72759 -0.51454,-7.14205 -0.69568,-17.97572 -0.44696,-26.69673 -0.77227,-33.47722 -1.60574,-33.47722 -0.25811,0 -1.1141,0.51772 -1.90196,1.15052 -1.76661,1.41895 -6.53264,3.80222 -11.17363,5.58743 -4.40622,1.6949 -8.57992,2.29194 -17.63203,2.52213 -5.93812,0.15018 -7.57913,0.0657 -9.5505,-0.50777 -2.35161,-0.68179 -4.66543,-1.17267 -8.27202,-1.75459 -5.23118,-0.84436 -17.14607,-10.37012 -20.19899,-16.14873 -0.49893,-0.94459 -1.25289,-3.16814 -1.67545,-4.94167 -0.68,-2.85367 -0.80325,-4.98222 -1.07284,-18.5044 -0.29099,-14.5912 -0.272,-15.39235 0.41811,-17.77739 1.03445,-3.57403 2.52122,-5.93851 4.97467,-7.91063 1.17772,-0.94647 3.05031,-2.69687 4.16146,-3.88952 2.07496,-2.22707 4.05788,-3.42683 5.66385,-3.42683 1.13225,0 3.90504,-0.80399 7.74357,-2.24528 2.84002,-1.06624 3.14193,-1.09683 8.99949,-0.90574 3.84895,0.12577 6.8028,0.42875 8.09385,0.8314 4.09837,1.27779 9.91265,6.01074 13.85537,11.2785 3.38626,4.5243 3.54649,5.04887 3.5485,11.61813 0.001,4.93165 -0.11451,6.09086 -0.86913,8.55669 -0.47886,1.56856 -1.20082,3.49396 -1.60384,4.27833 -0.40322,0.78429 -0.914,1.7927 -1.13513,2.24103 -1.93208,3.91634 -4.72135,7.00374 -7.68624,8.50809 -3.91074,1.98422 -9.92608,2.88069 -12.23106,1.82254 -0.57977,-0.26618 -1.75365,-0.77395 -2.60869,-1.12911 -2.79708,-1.16066 -5.53302,-3.68555 -6.54515,-6.04007 -1.27149,-2.95787 -1.3798,-6.77005 -0.24291,-8.54142 0.44681,-0.69606 0.81237,-1.45237 0.81237,-1.68064 0,-1.02794 1.90945,-2.86386 3.2205,-3.09663 2.22071,-0.39402 5.26494,0.33507 6.05392,1.45011 1.52691,2.15824 1.74779,2.36458 2.28623,2.13541 0.43163,-0.18208 0.56118,-0.91793 0.56118,-3.18019 0,-2.54771 -0.11526,-3.0599 -0.85015,-3.8273 -0.46761,-0.48732 -0.9809,-0.88603 -1.14074,-0.88603 -0.15956,0 -0.75275,-0.43137 -1.31776,-0.95867 -1.68495,-1.57288 -4.446,-2.38566 -6.42875,-1.89287 -3.58524,0.89129 -7.57478,3.88333 -8.88971,6.66708 -0.33181,0.70262 -0.74951,2.92782 -0.92794,4.94475 -0.17777,2.01691 -0.41224,4.5215 -0.51934,5.56572 -0.17382,1.69921 0.005,2.33028 1.70778,6.00757 1.33513,2.88342 2.40137,4.59587 3.57452,5.74134 0.91946,0.89785 1.81528,1.63239 1.99069,1.63239 0.17589,0 1.70494,0.9919 3.39888,2.20399 2.72855,1.95254 3.3672,2.2337 5.59837,2.46457 1.38505,0.14454 4.14722,0.54645 6.1379,0.8956 4.48496,0.78691 7.95423,0.59131 10.15529,-0.57272 4.48852,-2.37339 6.58497,-4.13186 11.65057,-9.77241 1.62883,-1.81372 1.76473,-2.20487 3.4344,-9.88771 0.99884,-4.59607 1.35756,-11.76707 0.72946,-14.57829 -0.23652,-1.05834 -1.31138,-3.6659 -2.38822,-5.79488 -1.07712,-2.12901 -2.40032,-5.10652 -2.94055,-6.61671 -1.50793,-4.2149 -2.5401,-6.00614 -4.97474,-8.63241 -1.23086,-1.32792 -3.42899,-4.25024 -4.8846,-6.49428 -1.45575,-2.24405 -3.32549,-4.91648 -4.15508,-5.93875 -2.2569,-2.78098 -4.66057,-6.56239 -5.3319,-8.38798 -0.32777,-0.8909 -1.11872,-3.45352 -1.75789,-5.69456 -0.63918,-2.24103 -1.33233,-4.67037 -1.54004,-5.39852 -0.20794,-0.72816 -0.52803,-3.51847 -0.71153,-6.20076 -0.18396,-2.68229 -0.42255,-5.29528 -0.53086,-5.80668 -0.21361,-1.00691 0.26331,-6.45467 0.88955,-10.16216 0.65554,-3.88017 2.50922,-9.61825 4.30407,-13.32262 0.93866,-1.93733 2.1946,-4.53102 2.79088,-5.76359 1.58772,-3.28231 4.58521,-7.06094 6.83682,-8.61892 1.08425,-0.74993 2.65445,-1.91824 3.48959,-2.59581 2.21756,-1.79908 5.74045,-3.4246 8.38642,-3.86965 1.27328,-0.21419 3.80867,-0.63148 5.63403,-0.92733 1.82537,-0.29584 3.51968,-0.67559 3.76512,-0.84379 0.34108,-0.23389 0.44827,-5.55417 0.45428,-22.59038 0.01,-28.01941 0.32944,-31.05785 3.26309,-31.03867 2.13885,0.014 2.02874,-1.50474 1.91309,26.38984 l -0.107,25.63543 2.29013,0.26562 c 1.25958,0.14642 4.5387,0.26656 7.28696,0.26825 3.71451,0.002 5.26688,0.15768 6.049,0.61121 0.57855,0.33489 1.22261,0.60877 1.43135,0.60877 0.20855,0 1.22279,0.65044 2.25382,1.44579 1.03094,0.79498 2.45318,1.88861 3.16028,2.42985 0.70713,0.54138 1.65865,1.27516 2.11458,1.63145 0.45597,0.35591 1.4687,1.60029 2.25067,2.7653 0.78203,1.16497 2.19913,3.0349 3.14918,4.1554 3.37237,3.97739 3.37652,3.98473 4.24362,7.53804 0.2461,1.00842 0.58812,2.20031 0.76007,2.6485 1.65266,4.30914 1.80771,5.52373 1.7957,14.04331 -0.0142,9.74744 -0.23953,10.85134 -3.11695,15.26241 -3.85647,5.9117 -5.42278,7.71065 -8.08718,9.28839 -1.40732,0.83347 -2.84233,1.52089 -3.1891,1.52802 -0.34671,0.007 -2.85452,1.20477 -5.57279,2.66138 -4.55482,2.44083 -5.13302,2.64848 -7.37394,2.64848 -1.38873,0 -3.40976,-0.34127 -4.7123,-0.79573 -1.25452,-0.43776 -3.0246,-0.85036 -3.93373,-0.91681 l -1.65304,-0.12202 -0.092,5.297 c -0.0507,2.91334 0.0338,5.51239 0.18791,5.77567 0.79461,1.35681 13.61759,2.34255 17.1681,1.31965 0.80812,-0.23296 2.54374,-0.57085 3.85693,-0.75143 2.21311,-0.30392 3.45967,-0.69212 11.01981,-3.43185 4.88889,-1.77167 5.92342,-1.89346 16.07835,-1.89346 9.21857,0 10.01535,0.0601 12.94298,0.96749 1.71592,0.53218 4.70357,1.79082 6.63944,2.79683 4.70908,2.44761 7.12594,5.17488 10.21139,11.52276 1.2361,2.54326 2.24756,4.87077 2.24756,5.1722 0,0.30148 0.59488,1.91804 1.32209,3.59253 1.34969,3.10826 2.21921,6.28196 3.26729,11.92522 0.48769,2.6256 0.57085,5.52208 0.47981,16.70593 l -0.11075,13.52961 -1.14883,2.68975 c -0.63186,1.47921 -2.32578,4.61068 -3.76414,6.95854 -2.32359,3.79288 -2.83034,4.37841 -4.54462,5.25163 -1.06117,0.54044 -3.30439,1.9564 -4.98485,3.14638 -4.96378,3.51495 -6.38067,4.19358 -13.92859,6.67117 -0.65401,0.21456 -3.95986,0.41954 -7.34653,0.4554 -5.86882,0.0638 -6.29537,0.0118 -9.09616,-1.07112 -5.32542,-2.05931 -9.71127,-4.69628 -12.93071,-7.77454 -1.65698,-1.58452 -3.52063,-3.3109 -4.1412,-3.8366 -1.36245,-1.15428 -1.82048,-2.09648 -3.42381,-7.04326 -0.68048,-2.09951 -1.53703,-4.73408 -1.9036,-5.8546 -0.96712,-2.95765 -1.19182,-11.88779 -0.42368,-16.84802 l 0.58192,-3.75782 3.07669,-3.95824 c 6.60494,-8.49743 7.23252,-8.81069 17.695,-8.83295 l 6.9792,-0.0143 2.77055,1.46776 c 2.06771,1.09533 3.4538,2.23242 5.46391,4.48206 3.96998,4.44308 3.84935,4.12094 3.8697,10.33453 l 0.018,5.37832 -1.32472,2.41117 c -1.76999,3.22162 -3.67706,4.32917 -7.87506,4.57359 -3.56845,0.20762 -5.3949,-0.33676 -5.99013,-1.78594 -0.23182,-0.56428 -0.4216,-2.37299 -0.4216,-4.01923 0,-2.25859 -0.13328,-3.04965 -0.54044,-3.22321 -0.70638,-0.30073 -1.36752,0.46779 -2.08633,2.42603 -1.14169,3.10978 -1.41388,4.53544 -1.41388,7.40332 0,2.79611 0.0488,2.95876 1.31158,4.31851 2.24725,2.42093 4.77305,3.32935 10.54233,3.79157 3.1768,0.25454 4.21403,-0.3944 9.35957,-5.85503 3.64958,-3.87309 3.79932,-4.10267 4.86528,-7.4595 1.02944,-3.24199 1.09983,-3.84627 1.10152,-9.45165 l 0.002,-5.98824 -1.25733,-2.36471 c -1.89288,-3.55975 -4.44519,-6.33832 -8.03779,-8.75015 -1.779,-1.19426 -3.92772,-2.67185 -4.77523,-3.28362 -0.84755,-0.61177 -1.95431,-1.32209 -2.45927,-1.57833 -2.73971,-1.39023 -14.46945,-1.80696 -18.03993,-0.64086 -1.97169,0.64387 -9.15261,5.8447 -10.69482,7.74581 -2.11086,2.60211 -8.36524,15.58527 -8.36524,17.36496 0,3.02016 -8.02242,22.89045 -10.54883,26.12778 -0.5992,0.76795 -1.25733,1.7392 -1.46269,2.15878 -0.58944,1.20458 -0.18584,25.19378 0.4691,27.82216 0.77696,3.12158 0.76232,29.32492 -0.0167,30.55918 -0.65532,1.03789 -1.59897,1.35569 -2.6934,0.90649 z m -27.7464,-48.23425 c 1.58358,-0.33602 3.38157,-0.61121 3.99572,-0.61121 1.36339,-7e-5 5.07632,-1.03019 6.65273,-1.84601 0.63655,-0.32926 1.25733,-0.599 1.37915,-0.599 0.12202,0 1.07844,-0.45822 2.12538,-1.01856 1.04689,-0.56033 2.08617,-1.01855 2.30935,-1.01855 0.58736,0 6.05482,-3.84276 7.3695,-5.1796 0.61458,-0.62491 1.5207,-1.77769 2.01372,-2.56217 0.49313,-0.78429 1.29018,-1.91966 1.77128,-2.52296 0.98064,-1.22955 0.87702,-1.02475 4.91189,-9.70088 3.28116,-7.05533 3.97951,-8.94001 5.05802,-13.64995 0.87082,-3.80241 2.65964,-8.63236 4.12011,-11.12376 0.56484,-0.96374 1.02719,-1.83212 1.02719,-1.9298 0,-0.78616 4.04642,-7.38485 5.28383,-8.61674 1.96687,-1.95803 8.06327,-6.67404 9.5635,-7.39799 3.35004,-1.61643 11.6249,-2.54419 15.08979,-1.69171 1.01028,0.24854 3.07635,0.58624 4.59157,0.74993 2.74464,0.29697 4.33249,0.97444 6.43061,2.74294 0.60745,0.51209 1.51657,1.17736 2.02019,1.47846 4.68475,2.80005 7.0438,4.63785 8.83529,6.88306 2.16588,2.71441 4.00073,5.87202 4.68738,8.06658 0.62941,2.01184 0.56615,13.15734 -0.0901,15.95433 -1.3938,5.93574 -1.87342,6.80192 -6.60162,11.92259 -2.63261,2.8511 -5.11938,5.16706 -6.09832,5.67943 -2.04495,1.07037 -7.42242,1.43998 -10.76082,0.73961 -2.82721,-0.593 -6.87081,-2.02748 -6.87081,-2.43726 0,-0.16895 -0.44113,-0.5656 -0.98026,-0.88359 -0.53912,-0.31799 -1.44824,-1.29337 -2.0204,-2.16729 -1.00466,-1.53534 -1.04014,-1.7559 -1.04408,-6.51936 -0.004,-4.29953 0.12202,-5.33375 0.98063,-8.08387 0.58568,-1.87529 1.46363,-3.73344 2.16598,-4.58393 1.1064,-1.33974 1.32453,-1.43041 3.4515,-1.43041 1.24869,0 2.57533,0.18021 2.94806,0.40228 1.26071,0.74861 2.21265,3.0178 2.21265,5.27519 0,2.75721 0.46722,3.69414 1.84206,3.69414 1.93997,0 3.81972,-1.13475 4.8775,-2.94434 0.88152,-1.50812 0.99434,-2.09153 0.99434,-5.14696 0,-3.41467 -0.0142,-3.46596 -1.51675,-5.62692 -1.9634,-2.82287 -3.5868,-4.38297 -5.74275,-5.51854 -1.52257,-0.80193 -2.45369,-0.93446 -7.45405,-1.06079 -7.38346,-0.18772 -8.96267,0.26336 -11.76981,3.3521 -3.18337,3.5028 -5.46052,6.59649 -5.92778,8.05336 -0.26224,0.81751 -0.44038,3.93606 -0.4494,7.8734 l -0.0154,6.51938 1.727,5.44023 c 2.03402,6.4075 2.31285,6.93459 4.58571,8.66925 0.95286,0.72721 2.48438,2.11683 3.40341,3.08815 2.22325,2.34966 5.64934,4.41314 10.09985,6.08297 3.38592,1.27029 3.99414,1.3709 8.30185,1.3709 2.55655,0 5.1275,-0.16519 5.7132,-0.36736 0.58568,-0.20311 2.30471,-0.77208 3.81993,-1.26671 3.17579,-1.03677 5.4509,-2.1846 8.81582,-4.44768 1.31309,-0.88321 3.49065,-2.29067 4.83878,-3.1278 2.18681,-1.35794 2.68636,-1.92108 4.63197,-5.22225 1.19933,-2.03512 2.52049,-4.44169 2.9357,-5.34793 1.29976,-2.83673 1.68833,-7.61608 1.42309,-17.50299 -0.41242,-15.3791 -1.55937,-20.28976 -7.89356,-33.79856 -1.48747,-3.17255 -4.91949,-7.19953 -6.77102,-7.94503 -0.65194,-0.26224 -1.80377,-0.83779 -2.55973,-1.27798 -3.59749,-2.09633 -5.57256,-2.48112 -13.86953,-2.702 -5.42452,-0.14454 -8.76019,-0.0507 -10.65245,0.29734 -1.51525,0.27914 -3.4988,0.64162 -4.40793,0.80531 -0.90912,0.16519 -2.56211,0.75612 -3.67324,1.31646 -2.38741,1.2042 -5.93391,2.30361 -8.99951,2.79009 -1.21209,0.19298 -2.78249,0.54983 -3.4896,0.79442 -2.51583,0.87026 -10.92521,0.98345 -15.46406,0.20818 -4.70018,-0.80268 -6.50665,-1.49085 -10.34758,-3.94166 -1.46138,-0.93258 -3.40102,-2.10771 -4.31014,-2.61149 -2.12295,-1.17661 -11.04878,-11.24314 -11.7222,-13.2205 -0.6709,-1.97002 -1.38216,-3.76585 -2.90511,-7.3343 -1.24456,-2.91635 -1.30463,-3.26079 -1.31496,-7.53804 -0.0207,-8.72021 1.35307,-14.50794 5.0297,-21.18802 2.06302,-3.7483 2.82779,-4.7497 4.22026,-5.52589 0.54926,-0.30616 1.41201,-0.86275 1.91693,-1.23687 1.25883,-0.9322 3.51373,-2.35365 5.60284,-3.53197 1.61005,-0.90817 2.03885,-0.96749 5.50991,-0.7625 7.05605,0.41635 11.31831,1.36939 15.26765,3.41386 3.17146,1.64177 4.79551,2.94239 5.9495,4.76486 0.57667,0.9108 1.48897,2.20614 2.02697,2.87847 1.83249,2.28966 2.80695,5.00231 3.01678,8.3982 0.18791,3.05718 0.15018,3.26202 -1.22898,6.27234 -0.9643,2.10687 -2.14591,3.88062 -3.65863,5.49191 -2.65273,2.82561 -4.27369,3.30977 -8.22427,2.45654 -2.82667,-0.61045 -3.39619,-0.90141 -5.31873,-2.71653 -3.22383,-3.04381 -3.60362,-5.27034 -1.36339,-7.99333 1.77468,-2.15728 2.2561,-3.17105 2.2561,-4.75178 v -1.24925 h -2.77328 c -3.13795,0 -4.16028,0.4462 -6.90749,3.01443 -2.60574,2.43601 -3.17574,3.9387 -3.17574,8.37243 0,5.18101 1.16047,10.26999 2.68786,11.78726 4.31137,4.28281 5.64159,5.11839 9.91788,6.22988 4.99878,1.29919 7.24694,1.39756 9.14589,0.39984 4.70701,-2.47342 8.16061,-4.13362 8.5988,-4.13362 1.20965,0 5.52231,-3.4182 6.85591,-5.43398 5.25704,-7.94618 5.01293,-7.21924 5.29049,-15.75405 l 0.20555,-6.31565 -1.51561,-5.24703 c -0.83366,-2.88587 -1.51544,-5.41928 -1.51544,-5.62978 0,-0.55546 -1.68796,-3.0175 -4.02462,-5.87016 -1.11992,-1.36715 -2.61482,-3.20079 -3.32191,-4.07463 -1.29468,-1.6001 -3.30281,-3.3157 -6.7583,-5.77423 l -1.87379,-1.33317 -5.69357,0.19091 c -7.20271,0.24253 -11.00256,0.5716 -11.9381,1.03319 -0.40396,0.19898 -2.3876,0.56616 -4.40793,0.81507 -9.19832,1.13306 -9.43384,1.2059 -13.2219,4.08332 -0.80906,0.61458 -2.13231,1.49798 -2.94043,1.96269 -0.80812,0.46498 -2.25694,1.91845 -3.21963,3.23043 -2.49315,3.39745 -7.02273,12.80771 -8.11995,16.8692 -1.52347,5.63913 -2.53784,11.93999 -2.27166,14.10985 0.1314,1.06266 0.36536,3.7657 0.52218,6.00674 0.29867,4.26788 2.21517,11.95191 3.91256,15.68727 0.94778,2.08599 3.52837,6.07492 6.06259,9.37161 0.94741,1.23236 2.42418,3.40401 3.28156,4.82538 0.85749,1.42121 2.92753,4.18636 4.60039,6.14441 2.92518,3.42387 4.38177,6.05546 5.88139,10.62568 0.25736,0.78428 1.28454,2.98862 2.28242,4.89836 2.53174,4.84475 2.73352,5.63215 2.952,11.51879 0.18997,5.1137 -0.29302,8.99695 -1.77843,14.30514 -0.18209,0.64968 -0.33057,1.75966 -0.33057,2.46662 0,1.78519 -1.67049,5.32403 -3.45952,7.32876 -4.54358,5.09135 -7.02817,7.23478 -10.78733,9.30605 l -3.86134,2.12761 h -5.73127 c -3.8933,0 -7.08523,-0.24741 -9.95504,-0.77208 -3.94015,-0.72027 -5.06095,-1.14883 -7.89751,-3.01981 -0.60604,-0.39984 -2.09377,-1.3555 -3.30594,-2.12377 -3.31857,-2.10339 -5.28081,-4.53333 -7.45163,-9.22776 -1.84073,-3.98049 -1.9151,-4.26922 -1.9151,-7.42018 0,-5.57681 0.72547,-11.46009 1.66431,-13.49703 1.87955,-4.07785 7.08904,-7.8428 11.96213,-8.64512 2.10679,-0.34672 3.02813,-0.30223 5.03664,0.24328 1.35192,0.36736 2.87144,1.02831 3.37649,1.46888 0.50521,0.44058 1.67384,1.27498 2.5972,1.85465 2.38107,1.49404 3.03187,2.93629 3.21103,7.11536 0.25483,5.9435 -0.65797,7.88476 -4.02952,8.56863 -2.14898,0.43588 -3.68388,-0.17645 -5.0018,-1.9956 -1.13004,-1.55993 -2.2543,-2.22928 -2.91425,-1.73507 -0.49792,0.37299 -1.57642,3.57809 -1.57642,4.68517 0,2.92334 2.03051,5.14775 6.27881,6.87839 2.3286,0.94853 2.3881,0.95191 5.65927,0.31142 3.9736,-0.77808 6.15048,-2.08422 8.39712,-5.03857 3.66047,-4.81353 5.19396,-9.52615 5.19396,-15.96162 0,-4.38145 -0.03,-4.54101 -1.19557,-6.5194 -2.46696,-4.18498 -7.44691,-9.03113 -11.44426,-11.13688 -2.74899,-1.44824 -2.81296,-1.46025 -8.54714,-1.62225 -5.66594,-0.15956 -5.84514,-0.13891 -9.28907,1.10978 -1.93147,0.7 -4.68839,1.49667 -6.1266,1.77017 -2.4542,0.46704 -2.74184,0.63768 -4.67841,2.7803 -1.13488,1.25545 -2.83762,2.86477 -3.78384,3.57592 -2.20782,1.65942 -3.06468,3.02617 -4.18252,6.67188 -0.72688,2.37036 -0.83196,3.19002 -0.53188,4.14477 0.21926,0.69775 0.37709,6.0098 0.38133,12.84378 0.007,10.93122 0.0627,11.88799 0.88208,15.4329 0.93463,4.03768 1.34302,4.92673 3.45423,7.51899 2.34287,2.87659 11.25302,9.8293 13.68925,10.68187 0.48641,0.17082 1.75223,0.47417 2.81283,0.67541 4.99538,0.94816 5.87877,1.13437 7.19197,1.51581 0.77356,0.2247 1.50367,0.51623 1.62229,0.648 0.45649,0.50646 10.75349,0.22395 13.56024,-0.37168 z m 25.46966,-92.58546 v -5.13681 l -2.85655,-3.09025 c -2.95001,-3.19136 -3.28306,-3.85059 -4.66774,-9.23904 -0.49276,-1.91763 -0.60558,-3.58467 -0.49689,-7.33432 0.16895,-5.87868 1.06209,-8.53307 3.62486,-10.79459 0.86801,-0.76589 2.12937,-1.97002 2.80339,-2.67587 l 1.22561,-1.28361 v -4.08199 c 0,-4.45807 -0.16707,-5.37107 -0.9874,-5.37107 -0.72064,0 -5.30214,2.56703 -7.29214,4.08583 -0.87288,0.66621 -1.74971,1.21115 -1.94865,1.21115 -0.45728,0 -2.55333,3.17839 -4.04718,6.13687 -2.35382,4.66165 -2.9061,7.23809 -3.57567,16.68097 -0.20874,2.94346 -0.16707,3.16101 1.13175,5.90819 0.74185,1.56875 1.60328,3.67736 1.91448,4.68583 0.89034,2.88514 1.75515,4.10106 7.45297,10.48203 2.10036,2.35211 6.73877,5.54184 7.44355,5.11876 0.15206,-0.092 0.27539,-2.47694 0.27539,-5.30216 z m 18.64925,-25.01723 c 0.82464,-0.92394 2.02649,-2.7769 2.67077,-4.11774 1.00316,-2.08774 1.14808,-2.75014 1.00898,-4.61131 -0.17083,-2.29445 -0.68892,-3.32547 -3.7542,-7.48241 -2.45647,-3.33124 -7.78451,-6.11143 -12.69752,-6.6256 l -1.28567,-0.13328 v 3.87087 3.87088 l 2.9386,0.107 c 4.53797,0.16519 5.32622,0.97632 5.32622,5.48874 0,2.81637 -0.96243,5.51623 -2.41967,6.78775 -1.21922,1.06398 -1.12574,1.45425 0.67502,2.81705 2.00383,1.51638 2.32137,1.63915 4.3507,1.67763 1.50718,0.0282 1.84789,-0.14829 3.18693,-1.64759 z"
     id="path305" /><path
     style="fill:#ffffff;fill-rule:evenodd;stroke-width:0.386874"
     d="m 203.01636,224.69165 c -1.50773,-0.87101 -1.66271,-1.10265 -1.76497,-2.63493 -0.101,-1.52407 -0.005,-1.74126 1.03888,-2.34018 0.95139,-0.54569 1.4671,-0.58473 2.97683,-0.22582 2.91155,0.69249 10.69183,0.51303 16.4829,-0.38069 3.65049,-0.56315 7.33026,-0.81807 11.91576,-0.82464 4.15244,-0.006 7.18388,-0.19692 8.10355,-0.5074 1.7146,-0.5808 16.82131,-0.86125 40.7732,-0.75725 15.96637,0.0695 18.33925,0.26412 19.76161,1.62094 1.06004,1.01142 0.67822,2.91414 -0.80681,4.02047 -1.24981,0.93107 -3.12702,1.24024 -3.49703,0.57629 -0.10699,-0.19485 -6.60596,-0.4845 -14.43922,-0.64444 -11.21741,-0.2292 -14.63238,-0.17833 -16.07893,0.24103 -1.28586,0.37262 -5.03167,0.54607 -12.4891,0.57911 -11.81913,0.0526 -26.63051,0.74449 -30.30441,1.41651 -1.31312,0.24028 -6.35475,0.52205 -11.20346,0.62623 -8.6938,0.18584 -8.83871,0.17645 -10.46881,-0.76551 z"
     id="path307" /><path
     style="fill:#ffffff;fill-rule:evenodd;stroke-width:0.386874"
     d="m 361.15032,386.84152 c -1.30163,-0.43212 -1.77318,-0.99208 -4.13241,-4.90671 -2.93271,-4.86633 -3.13509,-5.78445 -2.165,-9.82273 0.75293,-3.13441 1.4516,-4.33901 4.71901,-8.13775 4.14419,-4.81793 5.70997,-5.91969 8.413,-5.91969 1.16441,0 2.53431,-0.17646 3.04428,-0.39102 1.53872,-0.64894 2.47843,-3.30508 2.80618,-7.93169 0.26317,-3.71298 0.37768,-4.1685 1.26089,-5.01133 0.53424,-0.51003 1.20252,-0.92713 1.48484,-0.92713 0.99678,0 2.30838,0.91681 2.70987,1.89427 0.22357,0.54438 1.1293,1.85333 2.01251,2.90916 2.65236,3.17028 2.96011,4.1349 2.9523,9.25393 -0.007,4.91886 -0.26431,7.3997 -1.11786,10.79773 -1.35024,5.37534 -2.51523,8.87598 -3.47114,10.43019 -1.22955,1.99885 -4.7517,5.64232 -6.32968,6.54748 -0.6266,0.35929 -3.1892,0.89259 -5.74097,1.19444 -5.3574,0.63373 -4.60676,0.63129 -6.4459,0.0225 z m 10.86064,-7.06995 c 2.70907,-2.06755 4.14531,-4.36898 5.28862,-8.47443 0.56165,-2.01691 1.14695,-4.03385 1.30107,-4.48207 0.33845,-0.98626 1.10434,-7.31055 1.08801,-8.9853 -0.0109,-1.11823 -0.70469,-2.62737 -1.20777,-2.62737 -0.25248,0 -0.85768,2.36194 -1.16028,4.52802 -0.11263,0.80963 -0.49164,1.75159 -0.84154,2.09326 -0.83722,0.81844 -3.9777,1.52801 -6.7619,1.52801 h -2.23319 l -3.30543,3.56531 c -3.37393,3.63916 -4.65873,5.85723 -4.67307,8.06769 -0.009,1.43116 2.86999,6.14306 3.88849,6.3635 0.34446,0.0751 2.04731,0.0394 3.78395,-0.0807 2.76729,-0.19091 3.36466,-0.37487 4.8331,-1.49554 z"
     id="path309" /><path
     style="fill:#ffffff;fill-rule:evenodd;stroke-width:0.386874"
     d="m 229.98224,22.510984 c -0.43982,-1.94322 0.48562,-2.96958 2.23738,-2.48186 0.70338,0.19491 0.91737,0.51996 0.91737,1.38853 0,0.62331 -0.19804,1.35319 -0.44076,1.62201 -0.24253,0.26881 -0.90048,0.4889 -1.46231,0.4889 -0.78297,0 -1.07525,-0.23755 -1.2517,-1.0178 z"
     id="path311" /><path
     style="fill:#ffffff;fill-rule:evenodd;stroke-width:0.193437"
     d="m 240.43086,32.601344 c -0.80981,-0.40098 -1.24081,-1.49897 -0.95942,-2.44421 0.269,-0.90451 0.752,-1.3469 1.59485,-1.4612 1.41031,-0.19086 2.28603,0.98956 1.99776,2.69391 -0.19805,1.1711 -1.50249,1.77125 -2.63324,1.21149 z"
     id="path315" /><path
     style="fill:#ffffff;fill-rule:evenodd;stroke-width:0.193437"
     d="m 253.84024,25.836754 c -0.12953,-0.0569 -0.40472,-0.47468 -0.6129,-0.92725 -0.47117,-1.02469 -0.34728,-2.00513 0.32794,-2.59431 0.56053,-0.4893 1.12218,-0.52544 1.97977,-0.12784 1.24062,0.57498 1.36752,1.81774 0.30598,2.99532 -0.69004,0.76544 -1.30237,0.96562 -2.00098,0.65416 z"
     id="path317" /><path
     style="fill:#ffffff;fill-rule:evenodd;stroke-width:0.193437"
     d="m 265.79115,26.265474 c -0.6876,-0.33378 -0.97425,-0.83994 -1.00597,-1.77571 -0.0357,-1.08703 0.39683,-1.85042 1.17248,-2.06363 1.43566,-0.39449 2.43859,0.47346 2.38472,2.06363 -0.0319,0.96115 -0.32006,1.44071 -1.07299,1.78953 -0.76664,0.35531 -0.71671,0.35591 -1.47827,-0.0139 z"
     id="path319" /><path
     style="fill:#ffffff;fill-rule:evenodd;stroke-width:0.193437"
     d="m 276.42962,29.340704 c -0.59713,-0.37032 -0.68968,-0.53052 -0.73905,-1.2795 -0.0488,-0.74816 0.0263,-0.94633 0.59094,-1.57368 0.52523,-0.58251 0.78578,-0.71772 1.38366,-0.71772 0.88115,0 1.29356,0.54473 1.42872,1.88738 0.17082,1.71399 -1.20834,2.58649 -2.66407,1.68354 z"
     id="path321" /><path
     style="fill:#ffffff;fill-rule:evenodd;stroke-width:0.193437"
     d="m 262.79873,38.044234 c -1.21866,-0.67528 -1.33486,-2.99581 -0.18397,-3.66963 0.5885,-0.34435 1.92906,-0.20304 2.38167,0.25156 0.49464,0.4966 0.64031,1.73267 0.30824,2.61453 -0.21381,0.56789 -0.42537,0.77173 -0.9765,0.94146 -0.88264,0.27185 -0.77227,0.2818 -1.52989,-0.13797 z"
     id="path323" /></svg>
