<?xml version="1.0" encoding="UTF-8" standalone="no"?>
<!-- Created with Inkscape (http://www.inkscape.org/) -->

<svg
   width="512"
   height="512"
   viewBox="0 0 512 512"
   version="1.1"
   id="svg5"
   inkscape:version="1.2.1 (9c6d41e410, 2022-07-14)"
   sodipodi:docname="power.svg"
   xml:space="preserve"
   inkscape:export-filename="power.png"
   inkscape:export-xdpi="96"
   inkscape:export-ydpi="96"
   xmlns:inkscape="http://www.inkscape.org/namespaces/inkscape"
   xmlns:sodipodi="http://sodipodi.sourceforge.net/DTD/sodipodi-0.dtd"
   xmlns="http://www.w3.org/2000/svg"
   xmlns:svg="http://www.w3.org/2000/svg"><sodipodi:namedview
     id="namedview7"
     pagecolor="#ffffff"
     bordercolor="#999999"
     borderopacity="1"
     inkscape:pageshadow="0"
     inkscape:pageopacity="0"
     inkscape:pagecheckerboard="true"
     inkscape:document-units="px"
     showgrid="false"
     height="70mm"
     units="px"
     inkscape:zoom="1.4805977"
     inkscape:cx="-26.340714"
     inkscape:cy="219.16825"
     inkscape:window-width="2560"
     inkscape:window-height="1351"
     inkscape:window-x="2391"
     inkscape:window-y="-9"
     inkscape:window-maximized="1"
     inkscape:current-layer="layer1"
     inkscape:showpageshadow="2"
     inkscape:deskcolor="#d1d1d1" /><defs
     id="defs2" /><g
     inkscape:label="Layer 1"
     inkscape:groupmode="layer"
     id="layer1"><path
       style="fill:#ffffff;fill-rule:evenodd;stroke-width:0.291673"
       d="m 255.14163,510.89116 c -1.11527,-1.15005 -1.13037,-1.19665 -1.28711,-3.95792 -0.13685,-2.40668 -0.25439,-2.89523 -0.84785,-3.52265 -0.64047,-0.67666 -0.70298,-1.0471 -0.88221,-5.20398 -0.17729,-4.10925 -0.24605,-4.52616 -0.84514,-5.09446 -0.6045,-0.57402 -0.66643,-0.97263 -0.84681,-5.46699 -0.10731,-2.66642 -0.19464,-5.82716 -0.19464,-7.02387 0,-1.85857 -0.0963,-2.27665 -0.66212,-2.86779 -0.65667,-0.68642 -0.6627,-0.7723 -0.73677,-10.57114 -0.0386,-5.43353 -0.14199,-10.16823 -0.22417,-10.5216 -0.0822,-0.35363 -0.44583,-0.91369 -0.80807,-1.24515 l -0.65853,-0.60286 -0.14714,-16.44006 -0.14708,-16.44006 -0.73561,-0.76881 -0.73568,-0.7688 -0.0996,-28.29552 -0.0996,-28.29545 -0.70902,-0.69668 -0.70902,-0.69661 -0.16705,-15.14623 c -0.0919,-8.33047 -0.22675,-15.43901 -0.30065,-15.7968 -0.10921,-0.5298 -0.33081,-0.6505 -1.19275,-0.6505 -0.85047,0 -1.28576,0.2296 -2.21294,1.16858 -0.63469,0.64272 -1.31454,1.6119 -1.51041,2.15375 -0.36812,1.01879 -5.94812,6.81563 -18.96072,19.69848 -4.58558,4.53985 -6.90921,7.04794 -7.06223,7.62281 -0.24537,0.92106 -2.70335,3.59926 -9.57068,10.42687 -2.54814,2.53345 -4.34025,4.54366 -4.34025,4.86842 0,0.855 -1.7862,2.84624 -8.59102,9.5774 -2.16463,2.14121 -3.52928,3.72806 -3.67819,4.27703 -0.26211,0.96514 -3.02449,3.9907 -9.57948,10.49097 -3.02314,2.99787 -4.34032,4.5027 -4.34032,4.95865 0,0.66027 -1.47033,2.27432 -8.61722,9.45935 -2.06931,2.08031 -3.40993,3.67306 -3.5945,4.27028 -0.29035,0.94002 -2.9835,3.84526 -10.5197,11.34823 -2.15724,2.14779 -3.45752,3.66588 -3.45752,4.03687 0,0.32723 -0.40085,1.01622 -0.89037,1.53154 -3.89379,4.09734 -12.50266,12.67712 -30.32247,30.22002 -14.46114,14.23635 -20.869032,20.7344 -21.103772,21.40062 -0.19464,0.55252 -1.57029,2.17001 -3.25813,3.83072 -2.28167,2.24491 -3.09797,2.87392 -3.72927,2.87392 -0.59422,0 -1.2785,0.4592 -2.58463,1.73468 -1.8983,1.8536 -2.93205,2.1891 -3.87875,1.25896 -0.44969,-0.44141 -0.42976,-0.5298 0.27623,-1.22875 5.01663,-4.96879 5.97048,-6.07869 6.14809,-7.15428 0.11886,-0.71852 0.44712,-1.30125 0.92628,-1.64431 0.77589,-0.55559 0.95833,-1.18522 0.43555,-1.50286 -0.43041,-0.26093 -1.16416,0.40398 -1.16416,1.05513 0,0.87575 -1.64911,0.7488 -1.87729,-0.14428 -0.0964,-0.37819 -0.52356,-0.91124 -0.94856,-1.18492 l -0.77291,-0.49726 0.84302,-0.8224 c 0.4638,-0.45248 1.17411,-1.22752 1.5787,-1.72283 0.4047,-0.49545 1.96054,-2.11832 3.45759,-3.60676 1.68745,-1.67783 2.72185,-2.93605 2.72185,-3.31097 0,-0.34871 0.84604,-1.49145 1.99723,-2.69792 4.10706,-4.30447 6.731782,-7.00515 8.337012,-8.57831 0.95686,-0.93769 1.73519,-1.9854 1.84722,-2.48636 0.19531,-0.87384 1.66395,-2.55217 6.21966,-7.10779 1.94783,-1.94784 2.49123,-2.6706 2.49123,-3.31393 0,-0.80208 0.23128,-1.10351 2.57475,-3.35634 0.58458,-0.56173 0.95724,-1.20763 0.95865,-1.66113 0.002,-0.68249 1.65406,-2.72063 4.23747,-5.22842 0.41242,-0.40028 0.83255,-1.13347 0.9334,-1.62902 0.16252,-0.79754 1.795,-2.77405 4.384,-5.30743 0.4079,-0.39906 0.74184,-1.00222 0.74184,-1.34006 0,-0.62472 2.5019,-3.86079 2.98492,-3.86079 0.14518,0 0.41433,-0.32292 0.59744,-0.71724 0.18311,-0.39475 0.5743,-0.79256 0.86994,-0.88472 0.32056,-0.10008 0.67079,-0.65468 0.86833,-1.3756 0.18182,-0.66438 0.5833,-1.46965 0.89107,-1.7895 0.3077,-0.31984 1.81716,-1.85795 3.35372,-3.41816 2.15666,-2.18978 2.79374,-3.01863 2.79374,-3.63469 0,-0.62699 0.72038,-1.52368 3.36322,-4.18611 2.36564,-2.38316 3.42329,-3.66343 3.56552,-4.31589 0.22036,-1.01192 0.3186,-1.12894 4.23046,-5.05119 1.53084,-1.53491 2.67091,-2.92009 2.67091,-3.24509 0,-0.64124 2.78571,-3.96737 5.35113,-6.38927 1.03877,-0.98055 1.71104,-1.85802 1.71104,-2.23319 0,-0.70195 2.53338,-3.69178 6.0845,-7.18079 1.52513,-1.49838 2.50819,-2.71879 2.68209,-3.32951 0.29421,-1.03291 1.91223,-2.89461 6.01987,-6.92577 1.82847,-1.79442 2.57481,-2.73101 2.57481,-3.23117 0,-0.78894 1.36157,-2.32416 6.98861,-7.87985 2.52997,-2.4979 3.60483,-3.75883 3.60522,-4.22933 5.8e-4,-0.75862 2.24834,-3.19623 10.37201,-11.24842 2.87269,-2.8474 5.22509,-5.4051 5.2276,-5.6837 0.002,-0.27872 0.12207,-0.68893 0.26529,-0.91178 0.37646,-0.58445 8.81528,-9.09849 18.93027,-19.09936 5.35531,-5.29497 8.75419,-8.87017 8.75419,-9.20856 0,-0.30451 0.72829,-1.30973 1.6184,-2.23459 0.89011,-0.92487 1.6184,-1.81063 1.6184,-1.96834 0,-0.15776 -1.35727,-1.56033 -3.01613,-3.11685 -1.65888,-1.55659 -3.21478,-3.01716 -3.45754,-3.24578 -0.24281,-0.22837 -0.94408,-0.94782 -1.55853,-1.59827 -0.61478,-0.65044 -1.3669,-1.31396 -1.67204,-1.47438 -0.30513,-0.16023 -0.63726,-0.54759 -0.73857,-0.86028 -0.11693,-0.36219 -0.55571,-0.63706 -1.20984,-0.75763 -1.09632,-0.20196 -2.56349,-1.41416 -7.40707,-6.11909 -1.5142,-1.47088 -2.85579,-2.67428 -2.98125,-2.67428 -0.12526,0 -0.37064,-0.30697 -0.54413,-0.68163 -0.19978,-0.43094 -0.66867,-0.75094 -1.27574,-0.87023 -1.09928,-0.21611 -3.52106,-2.23563 -8.45265,-7.04917 -2.18595,-2.13354 -3.55305,-3.25381 -3.97401,-3.25645 -0.71885,-0.004 -3.80321,-2.72113 -10.53525,-9.27959 -3.08294,-3.00334 -4.59361,-4.27469 -5.22734,-4.39926 -1.06606,-0.20935 -1.67075,-0.76175 -14.02393,-12.80869 -6.33324,-6.17618 -9.80085,-9.35497 -10.34702,-9.48512 -1.12808,-0.26887 -8.53817,-7.52526 -8.77741,-8.59556 -0.12011,-0.53596 -2.72345,-3.33443 -7.8818,-8.47155 -23.24354,-23.14765 -24.77438,-24.71467 -25.12898,-25.72284 -0.24152,-0.68617 -1.86425,-2.49201 -4.94816,-5.50566 -4.09055,-3.99739 -4.69614,-4.48454 -5.57508,-4.48454 -0.73169,0 -1.13499,0.20074 -1.56366,0.77913 -0.51073,0.68868 -0.81232,0.79293 -2.59929,0.89766 -1.57876,0.0927 -2.182812,0.26216 -2.757312,0.77341 -0.4047,0.3604 -1.25685,0.73259 -1.89399,0.82756 -0.7624,0.11357 -1.37133,0.43526 -1.78157,0.94071 -0.58586,0.72202 -0.65326,0.73866 -1.12221,0.2781 -0.29612,-0.29097 -0.49914,-0.94224 -0.49914,-1.60183 0,-0.86243 0.17086,-1.23373 0.76079,-1.65616 0.61606,-0.4408 0.80075,-0.87747 0.97067,-2.29322 0.21394,-1.78097 0.7509,-2.74286 2.45609,-4.39786 0.44197,-0.4291 0.89493,-1.23151 1.00658,-1.78342 0.11177,-0.5519 0.58266,-1.39383 1.04679,-1.87085 0.463842,-0.47699 1.166922,-1.19498 1.561872,-1.59544 0.39509,-0.40029 0.80069,-1.13354 0.90155,-1.62903 0.1882,-0.92382 1.53623,-2.47261 6.15567,-7.0717 1.4948,-1.48819 2.50125,-2.72781 2.50125,-3.08057 0,-0.56849 1.1869,-2.14717 2.87366,-3.82298 0.44258,-0.43956 0.96642,-0.97778 1.16422,-1.19591 0.19788,-0.21796 0.51005,-0.54513 0.69398,-0.72663 1.73044,-1.70858 2.3307,-2.49526 2.33269,-3.0573 10e-4,-0.40459 0.68917,-1.38812 1.77533,-2.53934 0.97517,-1.03359 2.16586,-2.29856 2.64599,-2.81106 0.4799,-0.51263 0.87296,-1.16736 0.87296,-1.45535 0,-0.62116 0.78141,-1.52294 5.37021,-6.1973 1.90164,-1.93709 3.45753,-3.61891 3.45753,-3.7374 0,-0.11849 0.2621,-0.29712 0.58202,-0.39721 0.36168,-0.11295 0.69996,-0.61207 0.89351,-1.3182 0.32571,-1.18884 1.35187,-2.37763 7.24789,-8.39714 0.13813,-0.14121 1.26469,-1.22231 2.50311,-2.4025 1.5523,-1.47929 2.3174,-2.44019 2.46355,-3.09383 0.22036,-0.98644 1.24079,-2.15159 5.95171,-6.79709 1.95142,-1.92427 2.72185,-2.88486 2.72185,-3.39355 0,-0.79017 1.28178,-2.41054 3.69374,-4.66945 1.12741,-1.05581 1.60292,-1.72111 1.60292,-2.24276 0,-0.7513 1.42966,-2.4575 5.06784,-6.04799 0.92615,-0.91399 1.77386,-2.02395 1.88371,-2.46659 0.22999,-0.92615 2.71511,-3.80757 6.21651,-7.20774 1.43551,-1.39396 2.42763,-2.59429 2.42763,-2.93704 0,-0.81313 1.32746,-2.36345 6.16474,-7.19957 1.5009,-1.50054 2.66301,-2.90616 2.66301,-3.22104 0,-0.74572 1.25332,-2.2136 5.86158,-6.86493 1.76596,-1.78251 2.67278,-2.93219 2.8152,-3.56937 0.20296,-0.90749 1.37081,-2.26965 5.18854,-6.05119 0.95518,-0.94611 1.73602,-2.0064 1.84863,-2.5103 0.18949,-0.84806 1.55847,-2.45671 5.18097,-6.08839 1.15471,-1.15766 1.76371,-2.00548 1.76525,-2.45744 0.002,-0.62454 1.75877,-2.77043 4.2374,-5.17655 0.41243,-0.40029 0.83095,-1.12512 0.92968,-1.61036 0.15676,-0.77139 1.64847,-2.58588 4.3752,-5.32296 0.3957,-0.39721 0.81264,-1.11309 0.92577,-1.59011 0.11307,-0.47699 0.51134,-1.19259 0.88503,-1.5901 0.37389,-0.39782 1.44746,-1.52601 2.38627,-2.50779 0.93874,-0.98177 1.92925,-2.0226 2.20112,-2.31287 0.27172,-0.29035 0.70214,-0.69562 0.95634,-0.90067 0.25439,-0.20504 0.46189,-0.68188 0.46189,-1.05968 0,-0.63368 1.27838,-2.18953 4.34031,-5.28226 0.52611,-0.53104 0.95634,-1.06975 0.95634,-1.19658 0,-0.12708 0.32891,-0.40396 0.73118,-0.61508 0.48628,-0.25601 0.79594,-0.73179 0.92455,-1.42214 0.10602,-0.57094 0.57109,-1.42797 1.03304,-1.90498 0.46189,-0.47701 1.56617,-1.61595 2.4541,-2.53087 0.88793,-0.91498 1.70314,-2.02083 1.81157,-2.45745 0.23061,-0.92848 1.08386,-2.03046 3.41815,-4.41442 1.24825,-1.2748 1.69196,-1.94292 1.69196,-2.54751 0,-0.62552 0.51391,-1.34435 2.16945,-3.03569 1.88435,-1.92487 2.30333,-2.21611 3.18823,-2.21611 0.77044,0 1.21883,-0.2204 1.83965,-0.90522 L 249.72224,0 l 0.86101,0.90522 c 0.61349,0.64498 1.12857,0.90522 1.79147,0.90522 0.92402,0 1.15754,0.16821 3.50904,2.5297 0.52293,0.5249 1.23644,0.9396 1.61718,0.9396 0.84142,0 1.85853,0.95458 1.85853,1.74432 0,0.32353 0.43039,1.02788 0.95634,1.56573 2.97091,3.03778 4.34032,4.76737 4.34032,5.48196 0,0.35485 0.42782,1.02825 0.95634,1.50496 2.2319,2.0134 5.68667,6.00477 5.95872,6.88433 0.16191,0.52306 0.95814,1.58753 1.76949,2.36523 2.56871,2.46205 5.05852,5.43236 5.26441,6.28042 0.10921,0.45064 0.89287,1.49115 1.74123,2.31287 2.60841,2.52646 5.20216,5.66977 5.20216,6.30437 0,0.3524 0.76497,1.364 1.83907,2.43185 2.93654,2.9196 3.45753,3.57716 3.45753,4.36402 0,0.51385 0.51844,1.25754 1.69202,2.42669 2.83832,2.82769 3.23185,3.316 3.4468,4.27752 0.12078,0.54149 0.86872,1.6087 1.79821,2.56672 1.04704,1.0792 1.6561,1.98092 1.78144,2.63744 0.12979,0.67869 0.71833,1.52092 1.84189,2.63518 2.49097,2.47021 3.26975,3.47488 3.26975,4.21809 0,0.43218 0.63405,1.31918 1.76558,2.4696 1.30728,1.32907 1.76551,2.00622 1.76551,2.60896 0,0.44756 0.20812,0.98184 0.46188,1.18682 0.25439,0.20504 0.68448,0.61767 0.95635,0.91701 1.26553,1.39335 2.4575,2.68662 2.96243,3.21422 0.30451,0.31799 0.68499,1.03359 0.84591,1.59011 0.16062,0.55682 0.96714,1.72614 1.79172,2.59907 0.82459,0.87299 1.5814,1.97883 1.68181,2.45745 0.17153,0.81619 0.54155,1.29769 2.55695,3.32533 0.44582,0.44879 0.89435,1.25092 0.9961,1.78245 0.10149,0.53164 0.5666,1.35675 1.03241,1.83376 0.46574,0.47699 1.1664,1.1926 1.55621,1.59011 0.38994,0.39782 0.8005,1.21383 0.91247,1.814 0.11178,0.60041 0.43235,1.25073 0.71159,1.44559 1.24927,0.87139 4.42627,4.79566 4.42627,5.46729 0,0.42054 0.38803,1.07282 0.95634,1.60846 1.93638,1.82455 2.57474,2.69963 2.57474,3.52965 0,0.5378 0.24923,1.01842 0.70696,1.36148 1.27877,0.95869 4.25404,4.60302 4.46276,5.46618 0.11239,0.46536 0.55117,1.1934 0.97497,1.61792 1.84472,1.84819 2.33089,2.50287 2.53433,3.41306 0.13299,0.59489 0.81592,1.57095 1.77245,2.53358 1.03915,1.04568 1.62001,1.90013 1.74817,2.57157 0.12979,0.67868 0.73677,1.56204 1.86759,2.71725 2.88347,2.94557 3.29404,3.46439 3.29404,4.16297 0,0.43279 0.63983,1.34631 1.76313,2.51791 1.2575,1.31127 1.7639,2.06356 1.76557,2.62284 0.002,0.5691 0.48695,1.26638 1.76789,2.54057 1.34756,1.34048 1.76557,1.95642 1.76557,2.6014 0,0.46474 0.20493,1.01284 0.45546,1.21789 0.25052,0.20504 0.61477,0.54149 0.80923,0.74781 0.19463,0.20627 1.10351,1.16552 2.0199,2.1317 1.15272,1.21537 1.76461,2.1406 1.9854,3.00229 0.21008,0.82069 0.52035,1.30826 0.90861,1.42939 0.32443,0.10131 0.58908,0.30081 0.58908,0.44325 0,0.14305 0.38804,0.69403 0.86269,1.22495 0.47475,0.53103 0.95357,1.34865 1.06458,1.81701 0.11116,0.46843 0.51263,1.17687 0.89288,1.57438 3.32326,3.47606 4.24202,4.60603 4.24202,5.21724 0,0.29282 0.79452,1.43675 1.76558,2.54248 1.10731,1.26098 1.76551,2.27118 1.76551,2.70982 0,0.4187 0.38417,1.04765 0.95634,1.56635 1.88461,1.70853 3.90426,4.20152 4.20014,5.18452 0.16577,0.55067 0.66219,1.32962 1.10345,1.73161 0.76639,0.69821 0.80224,0.85525 0.80224,3.51283 v 2.78202 l -1.73012,1.61528 c -1.09883,1.02585 -1.80206,1.94359 -1.92714,2.51509 -0.10859,0.49483 -0.48823,1.15705 -0.84462,1.47137 -0.35587,0.3143 -1.83932,1.8501 -3.29591,3.4127 -1.45658,1.56266 -3.79581,3.9624 -5.1983,5.33278 -1.64044,1.603 -2.63751,2.82242 -2.79541,3.41896 -0.25567,0.96563 -2.49457,3.42921 -8.70543,9.57912 -2.47408,2.44977 -3.45753,3.61977 -3.45753,4.11336 0,0.6979 -2.24686,3.20329 -7.7523,8.64412 -1.58133,1.56273 -2.5874,2.80763 -2.74279,3.39361 -0.23061,0.8701 -3.49832,4.47072 -8.55813,9.43024 -1.11791,1.09572 -1.83913,2.04661 -1.83913,2.42484 0,0.67458 -0.56917,1.3497 -4.48743,5.32186 -1.4161,1.43564 -2.57474,2.70424 -2.57474,2.81916 0,0.1148 -0.3289,0.38189 -0.73079,0.59305 -0.40214,0.21119 -0.80134,0.60286 -0.88761,0.86986 -0.0861,0.26702 -0.47408,0.6524 -0.86165,0.85622 -0.44583,0.23453 -0.77397,0.73321 -0.89345,1.35909 -0.21394,1.12095 -1.3265,2.31428 -12.29575,13.18919 -3.84374,3.8107 -6.98861,7.02166 -6.98861,7.13549 0,0.11356 -0.32375,0.35178 -0.71981,0.52918 -0.4921,0.22037 -0.78238,0.65032 -0.91793,1.36001 -0.22674,1.18866 -1.0121,2.06515 -8.73485,9.75113 -4.0682,4.04885 -5.2231,5.36416 -5.2231,5.94879 0,0.43895 -0.3604,1.11702 -0.86731,1.63265 -0.47732,0.48499 -3.18168,3.19408 -6.0103,6.01987 -3.36509,3.36181 -5.20544,5.41739 -5.32364,5.94628 -0.17668,0.79053 -4.25134,5.22491 -9.50027,10.33914 -1.33523,1.30089 -2.42763,2.44443 -2.42763,2.54106 0,0.31923 2.27859,2.48924 2.61386,2.48924 0.19274,0 0.32891,-0.53041 0.32891,-1.28032 0,-1.58261 0.56017,-2.18897 2.02195,-2.18897 1.41219,0 1.80341,0.41254 1.80341,1.90166 0,1.433 -0.4837,1.92359 -1.82442,1.85084 -0.53383,-0.0308 -1.13653,-0.0369 -1.33889,-0.0246 -0.609,0.0492 -0.41561,0.85978 0.36359,1.52539 0.40214,0.34379 0.81881,1.0816 0.92538,1.63965 0.12722,0.66714 0.64176,1.44264 1.50232,2.26419 0.71974,0.68727 1.40763,1.24956 1.52859,1.24956 0.12078,0 0.36359,0.30882 0.53836,0.68636 0.21908,0.47273 0.66546,0.75032 1.4323,0.89165 1.01916,0.18786 1.18214,0.12341 1.91313,-0.75665 l 0.79915,-0.96195 1.35109,1.34651 c 1.23348,1.22924 1.3105,1.38647 0.88453,1.80497 -0.25696,0.25231 -0.76292,0.45858 -1.12504,0.45858 -0.3623,0 -0.90386,0.17618 -1.20386,0.39168 -0.50748,0.36465 -0.35716,0.58199 2.1408,3.10795 1.47746,1.49384 3.02179,3.04619 3.43183,3.44971 0.42592,0.4187 0.74551,1.06521 0.74551,1.50637 0,0.42485 0.20812,0.94058 0.46256,1.14563 0.25438,0.20504 0.70452,0.6133 1.00047,0.90761 0.29612,0.29405 0.67041,0.66494 0.83223,0.82394 1.56515,1.53774 5.98711,6.09343 7.19463,7.41205 0.60707,0.66285 1.10345,1.49121 1.10345,1.84089 0,0.43649 1.6069,2.22551 5.12791,5.70905 7.54191,7.4616 45.78017,45.03388 47.4429,46.61656 0.78405,0.74634 1.5778,1.5074 1.76391,1.69127 0.18629,0.18418 0.60321,0.59489 0.92692,0.91265 0.32375,0.318 0.71935,0.70988 0.87931,0.87078 0.37707,0.37942 3.03824,2.99401 3.53455,3.47274 0.44516,0.42916 1.2381,1.20751 1.719,1.6868 1.56233,1.55744 2.52336,2.29604 2.98743,2.29604 0.72905,0 3.60277,2.67894 19.30953,18.00095 15.51007,15.13014 13.21303,12.8724 16.65052,16.36534 3.59526,3.65323 4.11959,4.29354 4.11959,5.03092 0,0.35911 0.75167,1.34742 1.83913,2.41821 1.01152,0.9959 2.00898,1.98 2.21653,2.1869 0.20751,0.20688 1.3635,1.35184 2.56864,2.54437 6.05347,5.9901 7.12802,7.21222 7.31085,8.315 0.1407,0.84678 0.69501,1.60306 2.55849,3.48895 2.14979,2.17572 2.38433,2.52418 2.43257,3.61388 0.0515,1.11592 -0.006,1.21285 -0.75578,1.29751 -1.22737,0.13874 -1.00099,0.7782 0.95634,2.70129 1.14553,1.12555 1.76558,1.97079 1.76558,2.40698 0,0.70723 0.90591,1.88608 3.4484,4.48742 0.8447,0.86421 1.61976,1.94704 1.72241,2.40631 0.11497,0.51447 1.19178,1.83966 2.8046,3.45162 2.21846,2.21728 2.61791,2.7609 2.61791,3.56262 0,0.72116 0.21007,1.09283 0.88272,1.56364 0.48566,0.33948 0.88278,0.78894 0.88278,0.99835 0,0.20935 0.33086,0.59366 0.73568,0.85426 0.84431,0.54334 0.9602,1.26111 0.24734,1.52988 -0.31861,0.11973 -0.70266,-0.0688 -1.10352,-0.54272 -0.33791,-0.39967 -0.84791,-0.80816 -1.13249,-0.90786 -0.28459,-0.0995 -0.67002,-0.51016 -0.85644,-0.91209 -0.1863,-0.40214 -0.45226,-0.73093 -0.59101,-0.73093 -0.13875,0 -6.11746,-5.7737 -13.28614,-12.83048 -9.83097,-9.67741 -13.25613,-12.87837 -13.93759,-13.02546 -0.49724,-0.10741 -1.23572,-0.54575 -1.64166,-0.97447 -0.40599,-0.42848 -6.7188,-6.56903 -14.02848,-13.64496 -7.30975,-7.076 -22.26587,-21.66031 -33.2359,-32.40955 -14.10043,-13.81679 -20.1965,-19.60529 -20.80209,-19.75257 -0.47089,-0.1148 -1.19852,-0.55682 -1.61634,-0.98263 -0.41819,-0.42608 -5.55291,-5.39282 -11.41129,-11.03772 -5.85831,-5.64484 -16.51715,-16.0005 -23.68621,-23.01259 -8.23693,-8.05648 -13.32096,-12.81979 -13.81239,-12.94098 -0.96733,-0.23821 -4.58841,-3.58232 -17.60937,-16.26092 -1.88846,-1.8388 -2.60737,-2.37628 -2.79547,-2.08995 -0.13941,0.21181 -0.31928,24.97748 -0.40023,55.03438 l -0.14708,54.64904 -0.66212,0.82682 -0.66206,0.82688 -0.0386,16.36798 c -0.0257,9.00241 -0.12207,24.62934 -0.22098,34.72654 -0.17668,18.08296 -0.18759,18.35928 -0.76754,18.41343 -0.35268,0.0308 -1.04101,-0.41131 -1.71707,-1.10879 z M 90.594848,485.11141 c 0.9812,-0.96404 1.20771,-1.35602 0.99719,-1.7256 -0.20297,-0.3567 -0.5133,-0.4334 -1.21921,-0.30205 -1.299,0.24191 -1.5794,0.51448 -1.78093,1.73469 -0.32119,1.9431 0.23962,2.02513 2.00295,0.29282 z M 414.38077,468.65079 c -0.0675,-0.46597 -0.32376,-0.67648 -0.90322,-0.74198 -0.53321,-0.0614 -0.80923,0.0431 -0.80923,0.30389 0,0.55989 0.61028,1.0889 1.25634,1.0889 0.40214,0 0.52482,-0.17499 0.45612,-0.65051 z m -1.85956,-1.63487 c 0,-0.62422 -0.94189,-1.09694 -1.36247,-0.68378 -0.26854,0.26401 -0.26015,0.44757 0.0386,0.80098 0.45288,0.53658 1.32405,0.4592 1.32405,-0.11726 z m -1.82005,-1.58237 c 0.1741,-0.44571 -0.31732,-1.04715 -0.85568,-1.04715 -0.50301,0 -0.72174,0.73848 -0.33209,1.12119 0.4503,0.44203 0.99964,0.40762 1.18786,-0.0743 z m -1.71104,-1.88693 c 0,-0.21919 -0.23575,-0.54272 -0.52353,-0.71883 -0.66476,-0.407 -1.24529,0.31005 -0.73748,0.91087 0.40214,0.47637 1.26084,0.34563 1.26084,-0.19217 z m -1.81452,-1.59648 c 0.22417,-0.57463 -0.60771,-1.22637 -1.03253,-0.8089 -0.406,0.39906 -0.10216,1.22139 0.45226,1.22139 0.23061,0 0.49142,-0.18541 0.58008,-0.41254 z m -1.69915,-1.63904 c 0.10982,-0.17433 0.019,-0.49484 -0.20303,-0.71226 -0.51072,-0.50155 -1.29411,-0.0761 -1.04326,0.56603 0.20683,0.5298 0.95056,0.61661 1.24658,0.14613 z m -1.77502,-1.71958 c 0.10473,-0.16576 0.0257,-0.49785 -0.17796,-0.73725 -0.32185,-0.38127 -0.42143,-0.38306 -0.7958,-0.0185 -0.23514,0.23145 -0.33791,0.56296 -0.22871,0.73725 0.25248,0.40152 0.95371,0.4107 1.20245,0.0185 z M 239.93889,272.40409 v -12.95234 l -0.77249,-0.90202 -0.77255,-0.90197 -0.14456,-20.58664 -0.14456,-20.58656 -0.77499,-0.81412 -0.77493,-0.81411 0.1426,-47.61183 c 0.14457,-48.07792 0.15419,-65.87406 0.0578,-101.03402 -0.0448,-16.91235 -0.10859,-19.32792 -0.49724,-19.47452 -0.66501,-0.25047 -4.45184,3.66581 -4.71034,4.87166 -0.11239,0.52309 -0.52163,1.27677 -0.90932,1.67428 -0.38803,0.39721 -1.47797,1.50336 -2.42224,2.45744 -0.94432,0.95409 -1.81362,2.11697 -1.93175,2.58428 -0.26339,1.04231 -1.05817,2.01549 -4.36891,5.35065 -2.01341,2.02826 -2.57474,2.77281 -2.57474,3.41528 0,0.65763 -0.67838,1.50495 -3.40004,4.24676 -2.41626,2.43424 -3.44924,3.68473 -3.57008,4.3221 -0.0938,0.49299 -0.49528,1.22212 -0.89248,1.61963 -4.31507,4.31724 -5.86403,6.05161 -6.11463,6.84645 -0.32314,1.02377 -2.1566,3.14331 -6.10589,7.05721 -1.77187,1.75605 -2.57474,2.76391 -2.57474,3.23221 0,0.72374 -1.49571,2.44332 -5.93392,6.82208 -1.59174,1.5704 -2.6422,2.85852 -2.79541,3.42786 -0.23962,0.89098 -1.7995,2.74329 -5.13779,6.10196 -0.95879,0.96465 -1.73879,2.03863 -1.85358,2.55217 -0.10921,0.48746 -0.48952,1.15091 -0.84579,1.47389 -0.35587,0.32292 -1.44206,1.47364 -2.41311,2.55709 -0.97106,1.08337 -2.19592,2.35712 -2.72192,2.83046 -0.54346,0.48929 -0.95634,1.14531 -0.95634,1.52024 0,0.3628 -0.36426,1.04028 -0.80917,1.50556 -0.44516,0.46536 -2.00102,2.11685 -3.45759,3.67011 -1.45658,1.55328 -3.40877,3.56323 -4.33827,4.46649 -1.03709,1.00787 -1.75882,1.9805 -1.86816,2.51767 -0.14647,0.71871 -3.06702,4.08567 -5.7157,6.5891 -0.16828,0.159 -0.46764,0.45797 -0.66552,0.66408 -0.19788,0.20627 -1.0035,1.00479 -1.79031,1.77458 -0.78688,0.76979 -1.56148,1.53129 -1.72144,1.6922 -1.01307,1.01934 -1.41907,1.40439 -1.82924,1.73498 -0.25439,0.20504 -0.4625,0.68354 -0.4625,1.06337 0,0.87802 -1.10519,2.04631 -14.05085,14.85309 -5.7049,5.64373 -10.37259,10.34761 -10.37259,10.45309 0,0.10557 -0.33723,0.36896 -0.74942,0.58567 -0.65936,0.34686 -0.73896,0.55252 -0.66206,1.71123 0.0854,1.28972 0.10988,1.319 1.16602,1.40544 1.00562,0.0822 4.8509,3.79302 56.79176,54.80404 40.23498,39.51465 55.81532,54.64075 56.08095,54.44583 0.28459,-0.20873 0.36812,-3.19703 0.36812,-13.22228 z m 24.88712,7.13499 c 2.00089,-1.95875 3.06734,-3.21962 3.06734,-3.62633 0,-0.34317 0.43038,-1.05895 0.95641,-1.59109 0.52611,-0.53226 2.47908,-2.5604 4.34025,-4.50731 1.86122,-1.94691 4.14483,-4.26783 5.0747,-5.15757 1.10641,-1.05852 1.75093,-1.93285 1.86489,-2.52965 0.16381,-0.8561 0.86069,-1.63595 7.72975,-8.64651 0.46765,-0.47699 0.92808,-1.19259 1.02374,-1.59011 0.21969,-0.91295 2.43071,-3.35713 8.95667,-9.90086 0.11821,-0.1185 0.83364,-0.78686 1.58975,-1.48501 0.77531,-0.71595 1.49538,-1.69336 1.65148,-2.24177 0.32057,-1.12685 1.79262,-2.77318 7.78783,-8.71116 3.07131,-3.04196 4.34031,-4.49375 4.34031,-4.96554 0,-0.7693 1.43114,-2.3432 8.73215,-9.60331 3.55672,-3.53677 5.11204,-5.28539 5.24997,-5.90249 0.21969,-0.98393 1.5934,-2.50024 7.86651,-8.68489 2.61367,-2.57679 4.34032,-4.50302 4.34032,-4.84202 0,-0.92321 1.68559,-2.76766 10.37258,-11.34996 3.19402,-3.15553 5.22311,-5.37962 5.22311,-5.72507 0,-0.63682 1.42144,-2.33184 3.83963,-4.57865 1.51015,-1.40304 1.62328,-1.59833 1.50656,-2.59993 -0.0751,-0.64548 -0.46765,-1.46659 -0.97067,-2.03262 -0.46446,-0.52242 -0.84443,-1.20002 -0.84443,-1.50612 0,-0.30574 -0.3199,-0.85445 -0.71037,-1.21862 -1.47617,-1.3761 -2.82072,-3.19789 -2.82072,-3.822 0,-0.35609 -0.36426,-0.97447 -0.80923,-1.37394 -1.80489,-1.62006 -4.06062,-4.37716 -4.28931,-5.2426 -0.1336,-0.50648 -0.57367,-1.24601 -0.97703,-1.64351 -2.45969,-2.42282 -4.21903,-4.55655 -4.22108,-5.11939 -0.002,-0.57708 -0.67967,-1.39469 -4.3427,-5.24057 -0.55822,-0.58568 -0.95634,-1.30887 -0.95634,-1.73616 0,-0.5157 -0.56981,-1.29266 -1.92842,-2.62995 -3.68591,-3.62739 -5.13375,-5.36231 -5.13375,-6.15169 0,-0.3407 -0.43039,-1.021 -0.95634,-1.51128 -2.04226,-1.90344 -4.02978,-4.3456 -4.21659,-5.18089 -0.10792,-0.48376 -0.93559,-1.64573 -1.85159,-2.60006 -0.91087,-0.94893 -1.97108,-2.05232 -2.35607,-2.45186 -0.3848,-0.39967 -0.82285,-1.16392 -0.97311,-1.69858 -0.15033,-0.53473 -0.99393,-1.71485 -1.87479,-2.62277 -1.1761,-1.21224 -1.60163,-1.87104 -1.60163,-2.47961 0,-0.63436 -0.45483,-1.27879 -1.93967,-2.74764 -3.29159,-3.25634 -3.35699,-3.33805 -3.35699,-4.1952 0,-0.62644 -0.46127,-1.2856 -1.92045,-2.74341 -3.01261,-3.01009 -3.06805,-3.07934 -3.27362,-4.08923 -0.12397,-0.60839 -0.8163,-1.59606 -1.9051,-2.71744 -2.75435,-2.83678 -2.96474,-3.10427 -3.2555,-4.13902 -0.15933,-0.56726 -1.00702,-1.72289 -1.99876,-2.72499 -3.0681,-3.10028 -3.24226,-3.31969 -3.24226,-4.085 0,-0.53657 -0.53193,-1.28811 -1.83913,-2.59877 -2.70264,-2.70964 -3.45753,-3.66618 -3.45753,-4.38151 0,-0.40947 -0.90135,-1.56703 -2.499,-3.20907 -1.75748,-1.80626 -2.55316,-2.85158 -2.68132,-3.52277 -0.11821,-0.61993 -0.74043,-1.51165 -1.77533,-2.54481 -1.00851,-1.00688 -1.66151,-1.93469 -1.77952,-2.52866 -0.11564,-0.58138 -0.77962,-1.54332 -1.74502,-2.52822 -2.39712,-2.44554 -3.2422,-3.53573 -3.47391,-4.48122 -0.11693,-0.47699 -0.56724,-1.20181 -1.0006,-1.61055 -3.17635,-2.99542 -5.93759,-6.26784 -5.93759,-7.03695 0,-0.35486 -0.42781,-1.02825 -0.95634,-1.50489 -2.23799,-2.01887 -5.68685,-6.00582 -5.95871,-6.88833 -0.16191,-0.52549 -0.69155,-1.33226 -1.17708,-1.79312 -0.48566,-0.46105 -1.80739,-1.84108 -2.93757,-3.06707 -1.83707,-1.99289 -2.102,-2.18253 -2.50118,-1.79011 -0.39509,0.38859 -0.44645,5.83128 -0.44645,47.62546 v 47.18663 l -0.66205,0.6505 -0.66207,0.65051 v 37.97894 37.979 l 0.65795,0.82185 c 0.64581,0.80662 0.66167,1.02327 0.85677,11.6757 0.10921,5.9696 0.21069,15.6591 0.22485,21.53224 0.0257,10.6536 0.0257,10.68006 0.68692,11.36961 0.65705,0.68716 0.66212,0.76482 0.87231,13.31768 0.11626,6.94462 0.28907,12.9343 0.38351,13.31038 0.33147,1.31986 1.67685,0.60471 5.021,-2.66907 z"
       id="path377" /><path
       style="fill:#ffffff;fill-rule:evenodd;stroke-width:0.291673"
       d="m 281.19457,301.98926 c -1.10036,-1.15133 -1.23983,-1.43975 -1.07389,-2.22078 0.30193,-1.4225 0.82278,-1.75525 2.74613,-1.75525 2.17022,0 2.68208,0.38922 2.68208,2.03931 0,1.0029 -0.13231,1.32489 -0.65653,1.60067 -0.36101,0.18971 -0.90032,0.64976 -1.19839,1.02204 -0.29808,0.37204 -0.69778,0.66794 -0.88838,0.65702 -0.19078,-0.0123 -0.91549,-0.61527 -1.61102,-1.34301 z"
       id="path379" /><path
       style="fill:#ffffff;fill-rule:evenodd;stroke-width:0.072918"
       d="m 280.76719,310.37014 c -0.37836,-0.17254 -0.58651,-0.37204 -0.78232,-0.74886 -0.14328,-0.27564 -0.15352,-0.38367 -0.1195,-1.21218 0.0386,-0.94758 0.11497,-1.21408 0.4503,-1.57665 0.33405,-0.36096 0.63405,-0.44449 1.59091,-0.44449 0.98063,0 1.21144,0.0614 1.6351,0.42546 0.3957,0.34133 0.48824,0.64873 0.50558,1.68042 0.0129,0.77537 -0.005,0.9326 -0.13556,1.18301 -0.18629,0.35912 -0.33595,0.49361 -0.75553,0.68077 -0.46255,0.20627 -1.9482,0.21427 -2.38947,0.0123 z"
       id="path381" /><path
       style="fill:#ffffff;fill-rule:evenodd;stroke-width:0.072918"
       d="m 277.30979,317.04604 c -0.34239,-0.17986 -0.47794,-0.3266 -0.70022,-0.75892 -0.20493,-0.39905 -0.64639,-0.84358 -1.1093,-1.11763 -0.13427,-0.0798 -0.33981,-0.27872 -0.45673,-0.44203 -0.20107,-0.28179 -0.20683,-0.3082 -0.10216,-0.50585 0.167,-0.31492 0.34177,-0.48376 0.79259,-0.7658 0.4375,-0.27318 0.68551,-0.53719 0.83532,-0.88822 0.13941,-0.32661 0.46765,-0.67604 0.78322,-0.83431 0.23318,-0.11665 0.43234,-0.14121 1.14938,-0.13998 1.0087,10e-4 1.27606,0.10194 1.6915,0.63725 l 0.24219,0.31251 v 1.80418 c 0,2.03452 -0.0319,2.17099 -0.56339,2.57126 -0.26339,0.1971 -0.29936,0.20381 -1.30645,0.22345 -0.83839,0.0185 -1.07801,-0.002 -1.25647,-0.0952 z"
       id="path383" /><path
       style="fill:#ffffff;fill-rule:evenodd;stroke-width:0.072918"
       d="m 277.09368,302.19265 c -0.73015,-0.1228 -1.02546,-0.54759 -1.02758,-1.47733 -0.001,-0.43464 0.0386,-0.66229 0.15161,-0.91001 0.21841,-0.47273 0.52936,-0.609 1.38643,-0.609 1.19133,-6e-5 1.54016,0.33523 1.54318,1.48372 0.002,0.80557 -0.15094,1.1657 -0.57881,1.36289 -0.36745,0.16945 -0.98557,0.23206 -1.4745,0.14982 z"
       id="path389" /><path
       style="fill:#ffffff;fill-rule:evenodd;stroke-width:0.206245"
       d="m 227.34488,67.53931 c -1.30953,-1.28665 -1.44668,-1.49919 -1.44668,-2.24178 0,-0.73774 0.14327,-0.96489 1.42375,-2.25577 1.34512,-1.35608 1.4754,-1.43546 2.35645,-1.43546 0.68609,0 1.03851,0.1148 1.33318,0.43402 0.22037,0.23883 0.79844,0.8248 1.2848,1.30243 0.80351,0.789 0.88433,0.96133 0.88433,1.8857 0,0.95998 -0.0675,1.08657 -1.19641,2.24442 -1.04962,1.0765 -1.31891,1.24305 -2.19457,1.35743 l -0.99816,0.13013 z"
       id="path393" /><path
       style="fill:#ffffff;fill-rule:evenodd;stroke-width:0.206245"
       d="m 210.59543,89.11164 c -0.81064,-0.79643 -0.63983,-2.87687 0.27559,-3.35824 0.21455,-0.11295 0.86763,-0.26702 1.45118,-0.34317 0.9593,-0.12526 1.11239,-0.0878 1.5965,0.38798 0.45741,0.44941 0.53579,0.70687 0.53579,1.76201 0,0.96329 -0.0919,1.32605 -0.41629,1.64474 -0.32443,0.31861 -0.69354,0.40885 -1.67404,0.40885 -1.0581,0 -1.33895,-0.0798 -1.76859,-0.50155 z"
       id="path395" /><path
       style="fill:#ffffff;fill-rule:evenodd;stroke-width:0.206245"
       d="m 224.27992,91.33954 c -0.40795,-0.28056 -0.46256,-0.49908 -0.46256,-1.84917 0,-1.35289 0.0579,-1.5893 0.51073,-2.03274 0.28073,-0.27626 0.74904,-0.50155 1.04037,-0.50155 0.58137,0 1.36196,0.64265 1.36196,1.12168 0,0.167 0.32761,0.43833 0.72777,0.60287 1.31917,0.5415 1.4993,2.12311 0.30899,2.71474 -0.743,0.36957 -2.92061,0.33461 -3.48747,-0.0554 z"
       id="path397" /><path
       style="fill:#ffffff;fill-rule:evenodd;stroke-width:0.206245"
       d="m 227.86542,79.0945 c -0.61863,-0.60778 -0.65692,-1.39887 -0.0944,-1.9514 0.88048,-0.86506 2.50048,-0.23452 2.49367,0.9711 -0.004,0.67653 -0.16319,0.93659 -0.76343,1.24705 -0.68062,0.35178 -1.07069,0.28851 -1.63568,-0.26647 z"
       id="path399" /><path
       style="fill:#ffffff;fill-rule:evenodd;stroke-width:0.206245"
       d="m 223.03418,75.91533 c -1.05059,-0.42854 -0.99424,-2.05999 0.0848,-2.46321 0.66623,-0.24862 2.28104,-0.0614 2.93494,0.34502 0.31352,0.1934 0.46832,0.48868 0.46832,0.89306 0,0.40336 -0.15547,0.70072 -0.46832,0.89576 -0.60707,0.37881 -2.41607,0.57586 -3.02006,0.32969 z"
       id="path401" /></g></svg>
