<?xml version="1.0" encoding="UTF-8" standalone="no"?>
<!-- Created with Inkscape (http://www.inkscape.org/) -->

<svg
   width="512"
   height="512"
   viewBox="0 0 512 512"
   version="1.1"
   id="svg5"
   inkscape:version="1.2.1 (9c6d41e410, 2022-07-14)"
   sodipodi:docname="restoration.svg"
   xml:space="preserve"
   inkscape:export-filename="restoration.png"
   inkscape:export-xdpi="96"
   inkscape:export-ydpi="96"
   xmlns:inkscape="http://www.inkscape.org/namespaces/inkscape"
   xmlns:sodipodi="http://sodipodi.sourceforge.net/DTD/sodipodi-0.dtd"
   xmlns="http://www.w3.org/2000/svg"
   xmlns:svg="http://www.w3.org/2000/svg"><sodipodi:namedview
     id="namedview7"
     pagecolor="#ffffff"
     bordercolor="#999999"
     borderopacity="1"
     inkscape:pageshadow="0"
     inkscape:pageopacity="0"
     inkscape:pagecheckerboard="true"
     inkscape:document-units="px"
     showgrid="false"
     height="70mm"
     units="px"
     inkscape:zoom="2.0938812"
     inkscape:cx="83.576851"
     inkscape:cy="259.56582"
     inkscape:window-width="2560"
     inkscape:window-height="1351"
     inkscape:window-x="2391"
     inkscape:window-y="-9"
     inkscape:window-maximized="1"
     inkscape:current-layer="layer1"
     inkscape:showpageshadow="2"
     inkscape:deskcolor="#d1d1d1" /><defs
     id="defs2" /><g
     inkscape:label="Layer 1"
     inkscape:groupmode="layer"
     id="layer1"><path
       style="fill:#ffffff;fill-rule:evenodd;stroke-width:0.58377"
       d="m 218.65153,87.523818 c -3.48757,-1.24475 -5.67848,-3.14625 -6.33063,-5.49436 -1.34051,-4.82664 -0.37063,-9.62943 2.59956,-12.8729 l 1.95422,-2.13402 7.36407,-0.19395 7.36407,-0.19403 2.38964,2.38964 c 2.20938,2.20939 2.36721,2.57628 2.09244,4.86415 -0.26095,2.1725 -2.96893,7.48717 -5.16049,10.12784 -1.05413,1.27015 -5.68941,3.5057 -8.1194,3.9159 -1.12402,0.18974 -2.99256,0.006 -4.15348,-0.40831 z"
       id="path791" /><path
       style="fill:#ffffff;fill-rule:evenodd;stroke-width:0.58377"
       d="m 258.5646,488.19025 c -1.74738,-0.69526 -3.42115,-3.53296 -4.811,-8.15658 -2.26645,-7.53976 -2.8091,-12.37043 -3.2126,-28.59865 -0.39538,-15.90239 -0.38507,-16.11233 1.09953,-22.27822 0.82428,-3.42351 2.58273,-8.67743 3.90767,-11.6754 4.98003,-11.26841 6.98427,-17.10245 7.85276,-22.85806 0.53284,-3.53109 0.66429,-6.09028 0.34242,-6.66544 -0.39905,-0.71305 -0.61713,-0.37333 -0.92315,1.43785 -0.58774,3.47896 -3.27904,8.75033 -6.3766,12.48981 -2.49827,3.01598 -8.78569,7.73792 -10.87159,8.16472 -1.77022,0.36219 -3.90465,-0.65917 -4.60925,-2.20557 -1.05168,-2.30817 -0.25667,-9.2976 1.81472,-15.95422 2.3635,-7.59539 2.67838,-13.26033 1.1519,-20.72384 -0.65668,-3.21073 -1.64693,-8.33331 -2.20058,-11.38351 -0.55365,-3.0502 -1.33392,-6.20255 -1.73395,-7.00524 -0.68503,-1.37463 -13.88033,-14.99269 -18.5227,-19.11617 -3.84767,-3.41762 -7.34261,-12.28546 -7.83194,-19.8723 l -0.34968,-5.42169 -1.98671,3.96227 c -3.04044,6.06381 -4.62283,8.03174 -7.93342,9.86633 -2.97325,1.64766 -3.22791,1.684 -11.50521,1.64178 -8.39475,-0.0429 -8.52252,-0.0636 -15.4699,-2.49721 -3.85289,-1.34972 -7.92468,-2.82548 -9.04843,-3.27948 -1.12376,-0.45402 -5.5896,-1.92475 -9.9241,-3.26834 -10.88468,-3.374 -14.30132,-5.06237 -17.90575,-8.84826 -4.97835,-5.22899 -4.85599,-10.25115 0.34552,-14.17991 1.47077,-1.11089 3.91277,-3.04859 5.42668,-4.30601 1.51391,-1.25741 4.00952,-2.7542 5.54582,-3.32621 1.53629,-0.57197 4.50078,-2.13694 6.58775,-3.47766 2.08698,-1.34071 4.36678,-2.6172 5.06621,-2.83664 0.69943,-0.2194 2.93235,-1.73411 4.96204,-3.36596 4.12357,-3.3153 3.38458,-3.29095 -3.89866,0.12841 -2.56859,1.20591 -5.75193,2.48179 -7.0741,2.83527 -1.32216,0.35347 -4.60586,1.6723 -7.29712,2.93071 -6.90866,3.23045 -13.42389,4.75882 -22.69817,5.32466 -4.33449,0.26449 -8.93167,0.79117 -10.21597,1.17047 -3.33514,0.98501 -9.13796,0.40133 -11.29739,-1.1363 -1.69493,-1.2069 -11.577051,-11.98296 -18.211351,-19.85876 -2.07488,-2.46318 -4.25291,-6.04835 -6.05979,-9.97483 -1.55139,-3.37127 -4.15206,-8.09981 -5.77927,-10.50785 -9.51811,-14.08557 -10.26986,-15.34847 -10.65165,-17.89445 -0.77746,-5.18451 0.54743,-8.51514 4.4412,-11.16491 3.07856,-2.09497 4.38629,-2.17052 9.2384,-0.53367 2.45366,0.82774 5.38063,1.67388 6.50439,1.88031 1.12376,0.20647 3.65639,1.00651 5.62808,1.77794 7.52669,2.94486 16.790811,3.0062 34.360161,0.22756 8.5234,-1.34802 19.63756,-4.15068 19.60773,-4.94448 -0.038,-1.00737 -9.31753,-1.55653 -15.10161,-0.89372 -8.58232,0.98348 -31.095341,-0.7815 -37.781001,-2.96196 -1.80589,-0.58898 -11.82182,-2.90466 -25.10214,-5.80365 -15.56752,-3.39826 -26.63257,-9.74479 -40.31519,-23.1234 -6.68233,-6.53385 -11.36408,-12.2462 -15.70944,-19.16755 -2.3717,-3.77769 -3.29008,-5.98358 -4.35233,-10.45405 -0.74048,-3.11632 -2.19817,-7.68732 -3.2393,-10.15776 -3.15328004,-7.48222 -3.27249004,-15.2343 -0.27596,-17.94611 0.82925,-0.75048 2.36795,-1.16292 4.95241,-1.32749 6.21586,-0.39579 7.08818,-0.0214 13.44918,5.7667 3.18685,2.90001 6.71533,5.75908 7.84107,6.35349 3.62125,1.91209 27.11221,6.72537 37.35767,7.65455 8.50258,0.77112 37.773221,0.44351 46.993481,-0.52606 22.06468,-2.32009 24.55857,-2.93931 35.56552,-8.83078 7.76728,-4.15745 23.30916,-9.01847 40.32456,-12.61228 2.56859,-0.54252 7.29713,-1.01659 10.50786,-1.05351 4.94483,-0.0567 6.19485,0.12508 8.17278,1.18953 3.15413,1.69747 4.60359,3.3651 6.47191,7.44606 2.23119,4.87354 2.23157,8.98269 0.001,13.65764 -2.03508,4.26577 -1.72072,4.96218 2.79757,6.19761 6.91266,1.89012 6.05105,2.21535 13.44353,-5.07443 7.04654,-6.94864 9.09546,-9.6898 9.099,-12.17309 0.004,-2.66801 -3.74499,-10.03749 -5.96882,-11.73369 -3.37261,-2.57241 -9.29315,-5.57839 -13.00152,-6.60112 -3.45996,-0.95421 -3.57371,-0.94654 -9.34032,0.63048 -7.61102,2.08144 -14.73523,3.27619 -16.92932,2.8391 -0.96323,-0.19188 -3.43455,-1.13164 -5.49185,-2.08835 l -3.74053,-1.73941 -2.75994,1.50215 c -3.24805,1.76781 -6.62521,1.91323 -10.42266,0.44882 -4.53275,-1.74799 -5.02779,-2.99531 -4.98654,-12.5642 0.0311,-7.243072 0.20619,-8.710182 1.40475,-11.776442 2.33864,-5.98305 4.75214,-9.12471 10.65037,-13.86357 2.35914,-1.89542 2.77451,-2.55929 3.10465,-4.96205 1.33889,-9.74435 3.89742,-11.97544 19.55182,-17.04951 2.99439,-0.97057 8.74798,-2.4437 12.78573,-3.27361 4.03776,-0.82991 9.18026,-2.22843 11.42777,-3.10782 2.24752,-0.87938 5.22995,-1.96189 6.62765,-2.40556 2.94393,-0.9345 6.23064,-4.59894 9.71792,-10.8348 4.7556,-8.50364 11.59028,-12.21345 17.17792,-9.32396 1.79561,0.92854 3.54599,4.50168 3.54599,7.23858 0,0.90569 0.39123,2.93628 0.86934,4.5124 0.47815,1.57613 0.87218,5.03293 0.87565,7.68179 0.003,2.64886 0.12481,4.8161 0.26974,4.8161 0.14486,0 1.77625,-0.39406 3.62527,-0.87565 1.84903,-0.4816 4.68583,-0.87348 6.30401,-0.87081 4.48567,0.008 14.87937,1.51979 17.82827,2.59421 1.44484,0.52641 4.59719,1.63696 7.00525,2.46786 5.42213,1.87092 8.11491,3.69031 12.67216,8.56202 4.14258,4.42843 6.00847,8.64166 6.00847,13.56725 0,3.64731 -0.99682,5.98425 -3.33815,7.82593 l -1.61016,1.26656 1.86792,1.5579 c 1.92797,1.60797 3.90032,5.53281 4.56745,9.08891 0.69765,3.71876 -0.77216,9.776832 -3.5768,14.742422 -3.36023,5.94925 -5.35901,7.7907 -8.45632,7.7907 -2.95353,0 -5.38266,-1.20715 -8.64439,-4.29581 -2.87595,-2.72334 -2.86664,-2.76468 -0.90209,4.00393 0.55911,1.92645 1.01319,5.3415 1.00903,7.58901 -0.0104,5.43198 -2.01398,14.63233 -4.20849,19.32188 -1.59108,3.40007 -1.66992,3.8197 -0.76978,4.09704 0.55158,0.16996 1.86555,0.68386 2.91993,1.14203 3.10812,1.35061 4.35963,1.02521 7.74991,-2.01496 l 3.17597,-2.84799 -1.40385,-2.84376 c -1.84776,-3.74299 -2.39946,-11.38805 -1.015,-14.06529 1.26445,-2.44519 5.13965,-4.24527 9.17057,-4.25985 1.7448,-0.006 5.27394,-0.39123 7.84253,-0.8553 8.74268,-1.57962 11.32002,-1.26409 30.9398,3.78781 4.8161,1.2401 11.38351,3.09073 14.59425,4.11251 12.06333,3.83901 19.95323,6.08535 23.35079,6.6482 1.28429,0.21276 6.93227,1.5294 12.55106,2.92587 11.14163,2.7691 18.36378,3.47966 35.60996,3.50351 6.99926,0.01 9.81884,-0.26752 16.28689,-1.6014 4.30224,-0.88723 9.42481,-2.24735 11.38352,-3.02251 1.9587,-0.77516 4.34937,-1.59419 5.31259,-1.82007 0.96321,-0.2259 2.44556,-0.89562 3.29411,-1.4883 2.13323,-1.49002 8.77557,-4.58856 9.84071,-4.59054 0.4816,-10e-4 3.75574,-1.44593 7.27587,-3.2112 5.60756,-2.81207 6.8298,-3.20956 9.86898,-3.20956 4.56945,0 6.84982,1.64026 8.30745,5.9755 1.8051,5.36867 1.33015,10.10268 -1.86038,18.54283 -1.51714,4.01342 -3.11022,8.28234 -3.54018,9.48649 -0.42995,1.20415 -2.18397,4.6192 -3.89779,7.589 -1.71383,2.96982 -3.98089,6.97583 -5.0379,8.90227 -2.62524,4.78454 -4.15236,6.74843 -9.93464,12.77601 -8.68089,9.04914 -13.75881,12.10354 -22.44608,13.50146 -3.06109,0.49259 -5.89919,1.02241 -6.30689,1.1774 -1.18876,0.45194 -23.50534,1.9942 -38.10256,2.63327 -7.38469,0.32333 -16.44771,0.97011 -20.14006,1.43735 -3.69234,0.46723 -9.41165,1.02057 -12.70956,1.22961 -3.29793,0.20903 -6.11857,0.57806 -6.26811,0.82001 -0.33495,0.54197 2.05827,1.52764 5.55097,2.28624 1.44483,0.31378 4.89948,1.23068 7.67698,2.03749 8.91009,2.58819 25.3687,4.42435 39.6675,4.42538 10.7234,5.9e-4 12.7812,0.14541 14.53513,1.0216 2.44334,1.22058 3.63636,4.01543 3.17454,7.43686 -0.3673,2.72136 -4.51294,10.49415 -7.68142,14.40221 -5.48679,6.76751 -13.10934,15.19801 -16.60946,18.36995 -2.1039,1.90665 -6.00499,5.82195 -8.6691,8.70068 -8.81396,9.52404 -13.09413,11.94741 -21.10166,11.94741 -3.1856,0 -4.93004,-0.39393 -8.79654,-1.9865 -7.0135,-2.88876 -10.53146,-3.80965 -17.0821,-4.47154 -3.21074,-0.32443 -8.38137,-0.99488 -11.49029,-1.48992 -8.25074,-1.31376 -8.7914,-1.06067 -4.4693,2.09226 3.3142,2.41768 7.26198,4.18411 17.7109,7.92473 5.56689,1.9929 6.86117,3.39079 7.17656,7.75098 0.17695,2.44622 -0.0318,4.02512 -0.7174,5.42572 -1.35869,2.77572 -5.87087,6.05932 -11.9491,8.69559 -5.30362,2.30031 -9.97322,4.73387 -14.65012,7.6349 -1.44484,0.89621 -4.59719,2.45141 -7.00525,3.45599 -2.40804,1.00458 -5.5604,2.37285 -7.00523,3.04059 -1.44483,0.66775 -3.78518,1.56891 -5.20077,2.00259 -3.32483,1.01858 -11.36679,0.97006 -14.33318,-0.0865 -1.272,-0.45305 -2.42629,-0.71017 -2.56509,-0.57136 -0.13877,0.13878 0.17149,1.63747 0.68953,3.33038 1.80244,5.89033 2.26572,10.7568 2.00084,21.01772 -0.25764,9.97981 -0.28392,10.1488 -2.61562,16.7946 -1.29547,3.69235 -2.94018,8.15819 -3.65492,9.92409 -0.71474,1.7659 -1.50986,4.86313 -1.76694,6.88273 -0.75234,5.91046 -6.29358,16.09465 -14.36004,26.39216 -1.38331,1.7659 -3.43979,4.39287 -4.56996,5.83769 -3.72025,4.75605 -9.79617,14.22119 -12.15816,18.9401 -9.90373,19.78628 -12.79416,28.68779 -13.88679,42.76647 -0.76786,9.89384 -1.89634,15.80164 -3.26977,17.11783 -1.42337,1.36406 -3.11391,1.76875 -4.71972,1.12981 z m 3.80838,-40.45569 c 4.84956,-15.07802 14.87234,-33.73262 25.44814,-47.36456 6.08328,-7.84119 11.69911,-16.05089 13.81009,-20.18875 0.66892,-1.31124 1.42897,-4.28074 1.68893,-6.59888 0.25999,-2.31815 0.86986,-4.99215 1.35529,-5.94223 0.89538,-1.75236 4.19045,-10.90291 5.91686,-16.43135 0.68344,-2.18864 0.94574,-5.30594 0.94574,-11.24048 0,-7.48836 -0.17832,-8.89566 -2.02351,-15.97123 -2.20943,-8.47216 -3.78302,-12.50283 -6.04204,-15.47634 -0.80804,-1.06362 -2.10038,-3.29654 -2.87186,-4.96205 -1.85172,-3.99762 -4.71263,-8.25792 -8.0029,-11.9175 -3.13016,-3.4815 -4.41048,-6.22403 -4.41048,-9.4476 0,-2.52285 1.49218,-4.13823 3.82263,-4.13823 1.43086,0 3.44353,2.00721 4.06725,4.05622 0.23931,0.78609 2.05816,3.41305 4.04195,5.83769 1.9838,2.42464 4.67957,5.99421 5.99062,7.93237 2.50795,3.70758 7.11046,7.89738 14.88623,13.55135 2.15508,1.56702 7.17562,1.79439 10.75472,0.48707 6.46977,-2.36319 15.01453,-6.24889 18.89997,-8.59469 2.40806,-1.45384 6.871,-3.8036 9.91766,-5.22171 3.04665,-1.41811 6.59305,-3.12485 7.8809,-3.79274 2.45765,-1.27461 3.48324,-3.16392 1.71747,-3.16392 -0.99361,0 -8.36435,-2.90744 -13.97021,-5.51066 -1.60537,-0.74548 -4.41706,-2.5032 -6.24821,-3.90602 -1.83115,-1.40283 -5.4798,-3.86408 -8.10812,-5.46945 -8.1512,-4.97872 -9.26825,-6.74444 -7.49136,-11.84165 1.06149,-3.04501 2.91412,-3.81458 8.05676,-3.34673 2.44783,0.22272 6.15814,0.75296 8.24511,1.17839 4.42794,0.90261 14.86277,2.36447 22.76703,3.1895 6.20816,0.64804 9.58858,1.53992 17.16787,4.52972 4.57419,1.80438 5.59373,2.0053 8.46466,1.66806 4.03686,-0.47421 6.15501,-1.88832 12.14354,-8.10723 6.32493,-6.56827 7.51326,-7.75613 12.14773,-12.1429 2.2412,-2.12142 5.65109,-5.77854 7.57753,-8.12692 1.92644,-2.34838 4.44763,-5.34121 5.60264,-6.65073 2.69726,-3.05807 5.39478,-7.7184 4.91601,-8.49307 -0.23296,-0.37691 -4.5513,-0.61242 -11.5747,-0.63116 -6.16171,-0.0166 -13.04199,-0.26794 -15.2895,-0.55877 -2.24752,-0.29083 -6.34498,-0.79646 -9.10548,-1.1236 -2.7605,-0.32713 -6.56959,-0.97375 -8.46467,-1.43691 -7.60074,-1.85764 -16.50676,-4.40587 -20.3749,-5.82974 -2.24751,-0.82733 -4.87448,-1.51554 -5.8377,-1.52937 -3.19321,-0.0456 -6.66314,-2.07181 -7.66818,-4.47722 -1.54567,-3.69931 -0.41764,-7.26822 2.68215,-8.4857 3.09173,-1.21433 13.36437,-3.24181 18.41274,-3.63407 2.88966,-0.22452 8.40629,-0.81401 12.25917,-1.30995 3.85288,-0.49599 12.91591,-1.10032 20.14006,-1.34305 25.98876,-0.8732 47.99452,-3.22526 52.70101,-5.63287 4.77655,-2.44346 13.87606,-11.01171 17.62072,-16.592 4.69927,-7.00281 9.57023,-16.13891 12.01663,-22.53867 1.3309,-3.48163 2.92011,-7.56106 3.53159,-9.06541 1.61352,-3.96962 1.43884,-9.23211 -0.30646,-9.23211 -0.39026,0 -2.13534,0.75638 -3.87799,1.68083 -1.74265,0.92445 -5.79542,2.68132 -9.00616,3.90416 -3.21073,1.22282 -7.15118,2.99671 -8.75654,3.94195 -7.76198,4.57028 -28.79757,9.80426 -39.98824,9.9497 -3.37127,0.0436 -10.98947,-0.25384 -16.92933,-0.66138 -10.41271,-0.7145 -13.67856,-1.28313 -27.43718,-4.77715 -2.40805,-0.61153 -5.95446,-1.41209 -7.8809,-1.77904 -3.71549,-0.7077 -8.22835,-2.00044 -21.89137,-6.27088 -9.86992,-3.08489 -21.15594,-6.05397 -29.6633,-7.8037 -5.82761,-1.19857 -6.21477,-1.20803 -12.07618,-0.29511 -3.33054,0.51873 -6.97016,0.94313 -8.08804,0.94313 -4.44367,0 -4.82942,1.22482 -2.10968,6.69849 0.95314,1.91827 1.73042,4.15119 1.72729,4.96205 -0.0104,2.69917 -2.64346,7.25282 -5.88895,10.18455 -5.64312,5.09757 -11.74975,6.85059 -15.41294,4.42455 -2.07809,-1.37626 -4.30714,-1.4941 -5.87207,-0.31046 -1.86911,1.41371 -4.66857,1.11589 -6.05285,-0.64396 -2.3855,-3.03268 -1.28891,-9.06286 2.79075,-15.34637 2.61748,-4.03146 3.03201,-5.23841 4.44209,-12.9337 0.90648,-4.94695 0.8999,-5.06931 -0.53954,-10.0366 -0.80148,-2.76573 -1.63095,-6.16011 -1.84328,-7.54306 -0.21235,-1.38294 -1.00592,-3.58832 -1.76355,-4.90082 -1.86507,-3.231 -1.8183,-6.274342 0.12633,-8.218942 1.27586,-1.27587 1.88446,-1.4609 4.01516,-1.22074 3.22319,0.3633 8.50513,3.615672 12.59105,7.752992 1.73674,1.75857 3.3604,3.19741 3.60814,3.19741 0.88251,0 3.41277,-4.72391 4.24815,-7.931122 1.29422,-4.96885 0.23676,-6.7503 -6.12181,-10.31318 -8.33629,-4.67102 -9.97791,-5.1065 -19.25008,-5.1065 -7.58757,0 -8.21591,-0.0859 -9.61093,-1.31348 -0.82093,-0.72242 -1.6544,-2.15672 -1.85215,-3.18734 -0.30065,-1.56682 -0.0685,-2.16467 1.41514,-3.64857 1.76825,-1.76825 1.79872,-1.77469 8.38702,-1.77421 3.63676,2.7e-4 9.50197,0.30964 13.03378,0.68752 9.67312,1.03488 13.13482,0.76758 13.13482,-1.01423 0,-3.37776 -6.66912,-10.50762 -11.38521,-12.17176 -1.60443,-0.56617 -4.69874,-1.68996 -6.87626,-2.49735 -3.72588,-1.38153 -7.30367,-2.06809 -15.129,-2.90318 -3.31736,-0.35403 -4.66588,-0.0505 -16.18802,3.64316 -3.51911,1.12813 -6.07247,1.04051 -7.68304,-0.26366 -2.06538,-1.67244 -1.77409,-4.38223 0.90289,-8.39929 2.79213,-4.18987 3.24941,-7.57988 1.77558,-13.16319 -0.56721,-2.1487 -1.24005,-4.13752 -1.49524,-4.41961 -0.64051,-0.70804 -3.064,2.03752 -5.27581,5.97699 -2.32271,4.13698 -7.10658,10.20804 -9.24174,11.72841 -2.50625,1.78461 -15.76905,6.25282 -22.70829,7.65037 -7.15074,1.44015 -21.10986,5.83972 -23.83825,7.51323 -1.54239,0.94604 -1.9599,1.69468 -2.52565,4.52871 -1.65561,8.29343 -1.38177,7.84788 -8.66127,14.09262 -5.14922,4.41728 -6.1177,6.55915 -6.40844,14.17274 -0.20184,5.285672 -0.0995,6.241932 0.70093,6.549082 1.52388,0.58477 2.39758,-0.0736 3.95938,-2.98347 1.87708,-3.497302 4.08789,-4.990542 9.26835,-6.260082 2.29823,-0.56319 4.88041,-1.6378 5.805,-2.41579 0.91596,-0.77074 2.49649,-1.69106 3.5123,-2.04517 2.54787,-0.88819 4.87857,0.79342 5.12924,3.70076 0.15226,1.76606 -0.15606,2.32554 -2.33285,4.233662 -2.89135,2.53444 -4.66244,3.52507 -7.32886,4.09929 -4.16152,0.89619 -0.91159,2.9535 3.88381,2.45857 1.78995,-0.18476 6.6188,-1.18789 10.73077,-2.22921 7.1488,-1.81038 7.66055,-1.86219 11.68186,-1.18271 5.08391,0.85904 13.45526,4.87909 18.31796,8.79655 2.73381,2.20241 3.83203,3.66212 5.97916,7.9472 2.29964,4.58947 2.65926,5.81965 2.86123,9.78758 0.34276,6.73333 -1.05569,9.14321 -11.3528,19.56409 -9.36844,9.48106 -9.45281,9.52231 -17.01135,8.31808 -6.02623,-0.9601 -9.55555,-2.55574 -12.34397,-5.58082 -3.61373,-3.92044 -3.93461,-8.77872 -0.87171,-13.19848 1.25595,-1.81233 1.50037,-2.69882 1.25286,-4.54409 -0.39842,-2.9705 -2.01112,-5.14878 -4.30139,-5.80993 -4.42677,-1.27791 -20.02463,1.74614 -36.06044,6.99125 -3.82141,1.24994 -7.16354,2.27261 -7.42694,2.27261 -0.26338,0 -4.755,2.09096 -9.98132,4.64658 -5.22632,2.55561 -10.81587,4.94252 -12.42124,5.30423 -5.29861,1.19386 -13.36662,2.2867 -17.22121,2.33268 -2.08697,0.0249 -5.10799,0.29747 -6.71335,0.60572 -5.31406,1.02029 -32.036181,1.69278 -42.323321,1.06511 -11.50216,-0.70191 -18.04317,-1.76515 -35.91141,-5.83751 -9.10241,-2.07453 -11.59507,-3.39942 -18.47379,-9.81916 -3.18514,-2.97259 -5.53711,-4.71919 -6.35488,-4.71919 -1.19413,0 -1.26966,0.199 -0.94164,2.48102 0.19616,1.36456 1.11759,4.32997 2.04765,6.58981 0.93007,2.25983 2.13415,6.06894 2.67575,8.46467 1.06171,4.69647 3.18066,8.91686 6.98076,13.90387 1.32015,1.73248 2.98241,3.95023 3.69391,4.92833 0.7115,0.9781 4.27499,4.68847 7.91886,8.24526 7.35461,7.17887 16.09983,13.39176 23.13023,16.43249 4.68799,2.02761 5.60856,2.28357 16.69395,4.64185 3.85288,0.81966 11.20838,2.50223 16.34555,3.73907 15.231971,3.66725 15.902661,3.73779 36.485621,3.83665 21.90477,0.10524 24.24834,0.4684 28.14077,4.36084 2.63735,2.63734 2.91915,5.20011 1.0063,9.15153 -1.53574,3.17242 -3.56999,4.39736 -10.46644,6.30246 -19.60903,5.41686 -42.71079,7.36684 -52.247401,4.41012 -5.89836,-1.82873 -16.19806,-4.73272 -17.22093,-4.85543 -2.05389,-0.24637 -1.15273,2.61644 2.67038,8.48341 2.15247,3.3032 4.54379,6.76038 5.31404,7.68261 0.77024,0.92223 3.22787,5.42128 5.4614,9.99787 3.97315,8.1412 4.25036,8.52951 12.822871,17.96275 5.17185,5.69113 9.3438,9.7877 10.18204,9.99809 0.78106,0.19603 3.0786,-0.0346 5.10564,-0.51244 2.02703,-0.47787 6.06208,-0.87275 8.96678,-0.8775 7.08166,-0.0117 15.02585,-1.80698 21.86403,-4.94134 3.0502,-1.39809 6.5966,-2.85263 7.8809,-3.2323 1.28429,-0.37968 3.64856,-1.28775 5.25393,-2.01796 8.05387,-3.66333 13.6929,-5.57872 16.41793,-5.57663 3.77197,0.003 6.39904,1.63754 7.82975,4.87191 1.30088,2.94083 0.84109,5.66753 -1.32234,7.84207 -2.08942,2.10014 -14.24257,11.0705 -15.56866,11.49139 -0.65793,0.20882 -2.57304,1.32675 -4.25583,2.4843 -1.68279,1.15755 -4.91549,2.96211 -7.18377,4.01013 -4.92538,2.27566 -10.29442,6.36842 -9.85535,7.51262 0.75325,1.96295 5.77787,4.1533 22.40293,9.76601 l 17.80498,6.01106 6.5207,0.004 c 6.0937,0.004 6.61897,-0.0888 8.02136,-1.40656 2.13712,-2.00816 7.42279,-12.7393 9.65684,-19.60563 2.94751,-9.05917 6.03323,-14.54272 9.88448,-17.56544 3.84333,-3.01649 5.9642,-3.63629 7.96251,-2.32695 2.0245,1.3265 2.40653,3.54661 1.19653,6.95344 -1.59417,4.48848 -3.71192,13.17227 -4.15204,17.02534 -0.22002,1.92644 -0.91995,5.07551 -1.55534,6.99794 -0.88607,2.68091 -1.10678,4.65317 -0.94724,8.46467 0.33812,8.0792 1.51731,9.98095 13.53935,21.83618 6.16793,6.08235 10.63481,10.98435 11.42579,12.53879 1.8111,3.55921 5.87248,25.66877 5.87248,31.96898 0,2.64595 -0.40692,6.56553 -0.90432,8.71017 -0.49737,2.14465 -0.77755,4.02613 -0.62259,4.18108 0.70199,0.70198 1.5666,-0.77264 2.7372,-4.66834 2.11894,-7.05182 2.97688,-9.38339 4.20461,-11.42662 2.54916,-4.24241 8.06841,-5.52283 11.46965,-2.66088 l 1.79611,1.51133 -0.0125,10.01813 c -0.0138,10.9642 -0.92738,16.71851 -3.74526,23.59079 -2.99103,7.29456 -4.29473,10.41417 -5.44938,13.03979 -2.04526,4.65081 -3.7462,11.73914 -4.06422,16.93684 -0.32935,5.38215 0.28792,16.29312 0.92085,16.27794 0.21083,-0.005 1.50772,-3.505 2.88194,-7.77765 z"
       id="path793" /></g></svg>
