<?xml version="1.0" encoding="UTF-8" standalone="no"?>
<!-- Created with Inkscape (http://www.inkscape.org/) -->

<svg
   width="512"
   height="512"
   viewBox="0 0 512 512"
   version="1.1"
   id="svg5"
   inkscape:version="1.2.1 (9c6d41e410, 2022-07-14)"
   sodipodi:docname="scroll.svg"
   xml:space="preserve"
   inkscape:export-filename="scroll.png"
   inkscape:export-xdpi="96"
   inkscape:export-ydpi="96"
   xmlns:inkscape="http://www.inkscape.org/namespaces/inkscape"
   xmlns:sodipodi="http://sodipodi.sourceforge.net/DTD/sodipodi-0.dtd"
   xmlns="http://www.w3.org/2000/svg"
   xmlns:svg="http://www.w3.org/2000/svg"><sodipodi:namedview
     id="namedview7"
     pagecolor="#ffffff"
     bordercolor="#999999"
     borderopacity="1"
     inkscape:pageshadow="0"
     inkscape:pageopacity="0"
     inkscape:pagecheckerboard="true"
     inkscape:document-units="px"
     showgrid="false"
     height="70mm"
     units="px"
     inkscape:zoom="1.4805977"
     inkscape:cx="141.15921"
     inkscape:cy="193.50294"
     inkscape:window-width="2560"
     inkscape:window-height="1351"
     inkscape:window-x="2391"
     inkscape:window-y="-9"
     inkscape:window-maximized="1"
     inkscape:current-layer="layer1"
     inkscape:showpageshadow="2"
     inkscape:deskcolor="#d1d1d1" /><defs
     id="defs2" /><g
     inkscape:label="Layer 1"
     inkscape:groupmode="layer"
     id="layer1"><path
       style="fill:#ffffff;fill-rule:evenodd;stroke-width:1.28676"
       d="m 288.10493,488.74293 c -6.42045,-2.27812 -28.01121,-23.74848 -45.48172,-45.22806 -2.23205,-2.74427 -9.56903,-11.58576 -16.30438,-19.6478 -6.73536,-8.06204 -14.25431,-17.26391 -16.70877,-20.44858 -2.45447,-3.18475 -9.68257,-11.3054 -16.06246,-18.04587 -6.3799,-6.74054 -14.20548,-15.71562 -17.39019,-19.9447 C 163.2962,348.34919 150.90674,334.3499 135.43398,319.41303 126.47891,310.76816 114.63361,297.90472 109.11109,290.82757 99.142797,278.05314 67.629727,245.19715 43.007047,221.90644 35.945637,215.22709 27.481617,206.71977 24.198097,203.00142 16.209657,193.9551 7.4575774,178.60062 3.1143674,166.01251 0.02714744,157.06465 -0.35054256,154.37227 0.22627744,145.4244 1.4386374,126.61777 8.3146574,114.10099 21.544677,106.61758 c 3.29599,-1.86439 10.33551,-5.85815 15.64337,-8.87509 5.30786,-3.01694 14.57248,-6.9998 20.58805,-8.85086 6.01557,-1.85105 13.65043,-4.50914 16.96633,-5.90692 3.31592,-1.3977 7.86622,-2.54133 10.11178,-2.54133 4.94954,0 29.843393,8.23305 35.627653,11.78298 4.33313,2.65938 6.77892,2.29808 6.77892,-1.00143 0,-3.17012 11.66372,-37.97769 14.82351,-44.23715 1.60764,-3.18467 5.25185,-8.4308 8.09823,-11.658 4.68018,-5.30641 6.38287,-6.22432 17.79925,-9.5957 9.57984,-2.82901 15.26813,-3.7294 23.58904,-3.73404 17.51344,-0.008 32.63108,1.1908 35.41335,2.81232 1.41542,0.82494 7.78485,7.08881 14.15428,13.91982 6.36943,6.83092 18.57399,19.73429 27.12125,28.67401 15.41762,16.12561 23.91284,26.59791 28.01554,34.53559 1.17326,2.26996 5.921,8.34988 10.55052,13.51089 4.62953,5.16101 13.27275,16.62171 19.20718,25.46815 11.77784,17.55715 18.52555,26.01936 43.76096,54.88008 29.04861,33.22179 48.78205,52.5089 70.33414,68.74334 9.56835,7.20754 42.14507,37.72262 50.2205,47.04223 4.01526,4.63396 9.32612,12.28152 11.80191,16.99474 4.72557,8.99619 9.84956,26.1797 9.84956,33.0309 0,10.5575 -8.43914,26.03947 -21.07691,38.66659 -6.77379,6.76806 -11.02796,9.42706 -30.42175,19.01499 -20.83042,10.29809 -23.14037,11.14658 -30.34535,11.14658 -11.34089,0 -30.53345,-6.94356 -40.21337,-14.54852 l -7.45156,-5.85426 -2.13603,14.3833 c -2.46554,16.60243 -8.58044,30.8321 -17.70295,41.19589 -6.03618,6.85745 -9.93383,9.22998 -17.33109,10.54958 -2.8064,0.50067 -6.9575,2.02846 -9.22466,3.39523 -8.37347,5.04761 -26.93272,10.07588 -36.79157,9.96781 -5.09833,-0.0533 -10.13825,-0.40999 -11.19983,-0.78637 z m 18.27291,-10.79771 c 8.218,-1.6773 18.22686,-5.22502 26.46905,-9.38217 3.34664,-1.68797 8.5439,-3.47921 11.54949,-3.98057 10.89224,-1.81676 22.05516,-19.6571 25.38902,-40.57595 2.53909,-15.9322 2.6517,-15.15215 -2.54513,-17.63031 -3.45121,-1.64576 -4.50364,-2.93388 -4.50364,-5.51225 0,-4.16195 2.15873,-6.45279 6.08079,-6.45279 2.85488,0 2.90785,-0.16384 1.1513,-3.5606 -1.0127,-1.95836 -5.15546,-7.00994 -9.20615,-11.22568 -4.05069,-4.21583 -8.74513,-9.85153 -10.43207,-12.52379 -2.06835,-3.2765 -4.00478,-4.85306 -5.94624,-4.84117 -4.07393,0.0229 -8.66945,1.38833 -8.66945,2.5722 0,0.55173 3.20742,4.09206 7.12761,7.86764 8.89772,8.56966 11.58714,16.25074 10.50806,30.01136 -0.79941,10.19446 -3.05602,16.49864 -7.69906,21.50861 -5.88443,6.34938 -8.33368,10.70954 -9.27682,16.51457 -0.7835,4.82251 -2.14163,6.9079 -8.12519,12.47616 -14.96675,13.92804 -24.91813,16.4088 -42.78138,10.66503 -8.73171,-2.80768 -9.33722,-3.25745 -11.65064,-8.65447 -4.65341,-10.85593 -4.17023,-12.77367 11.41798,-45.31753 9.06591,-18.92704 17.85067,-28.78283 27.49959,-30.85214 17.31022,-3.71233 29.41361,1.0675 29.41361,11.61593 0,3.83952 -1.0426,5.93291 -5.14701,10.33453 -4.73865,5.08175 -5.14701,6.09302 -5.14701,12.74623 0,9.85259 -3.28153,18.75824 -8.87573,24.0876 -4.76811,4.54236 -16.17632,9.36753 -21.95695,9.28683 -5.24054,-0.0762 -13.20008,-5.54928 -17.4085,-11.97685 l -2.39541,-3.6586 -2.29297,4.30194 c -2.65253,4.97651 -2.99364,10.58128 -0.99321,16.31971 1.22038,3.50077 2.52214,4.38218 9.78619,6.62577 15.4384,4.76848 22.17708,3.20876 35.56935,-8.23259 6.06626,-5.18258 7.30477,-7.01489 8.49606,-12.56974 1.4409,-6.71867 3.74066,-10.69429 10.16395,-17.57049 5.94412,-6.36317 8.46018,-21.53361 5.36271,-32.33383 -1.38604,-4.83286 -11.37966,-15.85119 -17.11299,-18.86767 -3.25889,-1.71465 -4.42835,-1.61695 -12.76338,1.06605 -10.40646,3.34974 -17.97337,9.35352 -27.3831,21.72649 -8.76687,11.52769 -13.00002,19.90256 -16.81887,33.27437 -2.9409,10.29772 -3.37005,13.79507 -2.80472,22.85656 0.62215,9.97239 0.98859,11.09049 5.3986,16.47227 l 4.73113,5.77372 11.81632,-0.0152 c 15.10579,-0.0229 23.78594,-2.37209 32.20494,-8.72847 3.69736,-2.79153 9.11454,-6.29589 12.03817,-7.7874 6.7045,-3.42038 9.07499,-6.87223 15.15735,-22.0714 6.86338,-17.15097 7.30631,-18.01454 9.23956,-18.01454 3.22904,0 2.13601,4.8638 -4.19289,18.65788 -0.97412,2.12311 -2.65845,6.42619 -3.74297,9.56232 -2.49827,7.22438 -7.63417,13.99975 -12.0263,15.86536 -1.87327,0.79568 -7.02592,3.97075 -11.45034,7.05574 -11.04856,7.70365 -15.59147,9.35862 -28.11535,10.24247 -10.21418,0.72091 -13.58032,2.04035 -8.55494,3.35362 3.90646,1.02086 6.43847,0.92583 13.44758,-0.50449 z m -37.01938,-57.79893 c 3.79805,-13.57331 12.32604,-27.76396 24.74852,-41.18172 7.75932,-8.38097 12.24524,-10.84038 32.22336,-17.66636 l 14.42046,-4.92706 -24.71449,-25.31162 c -13.59297,-13.92142 -27.0764,-27.80023 -29.96318,-30.84171 -2.88678,-3.04148 -10.66426,-10.45188 -17.28327,-16.4674 -6.66164,-6.0543 -16.05483,-16.395 -21.03929,-23.16161 -12.26764,-16.65365 -19.92286,-25.44377 -34.10888,-39.16552 -11.63044,-11.24984 -29.76377,-33.52524 -29.76377,-36.56253 0,-1.65612 2.54143,-1.93397 4.50364,-0.4923 1.72981,1.2709 10.18524,11.93631 11.79437,14.87705 0.7075,1.29299 9.67178,10.84716 19.92062,21.23145 10.24885,10.38428 22.04253,23.80235 26.20818,29.81795 6.06067,8.75217 21.46951,25.1775 40.20763,42.86016 3.11667,2.94112 60.16862,61.81754 63.72045,65.75818 9.77879,10.8493 20.12453,23.53838 24.96106,30.61492 3.45321,5.05257 6.90962,8.51456 9.65064,9.66619 2.34881,0.98687 6.94529,4.04878 10.21442,6.80425 4.24201,3.57546 9.91208,6.3807 19.80326,9.7975 16.31551,5.63601 18.45737,5.40876 35.00055,-3.71278 5.51307,-3.03981 12.84391,-6.59698 16.29078,-7.90483 18.78419,-7.12737 37.09155,-31.87941 34.72287,-46.94629 l -0.9318,-5.92719 -1.06839,5.7904 c -2.29313,12.42815 -3.49127,15.02443 -8.44672,18.30382 -2.66292,1.76228 -6.28168,3.63551 -8.04168,4.16286 -3.84204,1.15126 -17.92106,9.88735 -25.07481,15.5591 -4.85337,3.84789 -7.74238,5.35488 -23.00344,11.99895 -3.52115,1.53297 -8.98442,2.73215 -12.44711,2.73215 -8.01969,0 -12.22127,-3.48523 -18.41819,-15.27804 -6.9104,-13.15051 -33.09399,-43.72801 -64.19087,-74.96279 -10.43878,-10.4851 -18.97961,-19.75083 -18.97961,-20.5904 0,-0.83964 -16.72348,-18.37119 -37.16329,-38.959 -20.43979,-20.58781 -39.04052,-39.61681 -41.33492,-42.28679 -2.2944,-2.66989 -9.45628,-8.84529 -15.9153,-13.72304 -12.05794,-9.10608 -18.40936,-15.2622 -27.2394,-26.40161 -2.78,-3.5071 -9.40584,-10.75854 -14.72406,-16.11434 -5.31824,-5.35579 -12.2752,-13.48048 -15.45992,-18.05478 -10.21997,-14.67944 -23.49334,-29.69944 -28.50534,-32.25632 -2.66624,-1.36022 -6.86843,-2.47314 -9.33817,-2.47314 -2.81022,0 -7.16338,-1.61016 -11.63382,-4.30308 -3.92884,-2.36674 -12.9337,-6.24992 -20.010813,-8.62932 -14.48661,-4.87051 -11.34559,-5.16185 -36.669,3.40102 -7.78485,2.6324 -18.20756,7.22438 -23.16156,10.20452 -4.954,2.98005 -10.87062,6.36919 -13.14804,7.53134 -6.57045,3.35286 -10.2535,8.27237 -13.31016,17.77861 -3.7229796,11.57851 -2.9629096,20.54894 2.88772,34.08132 6.72165,15.54713 12.4575,23.08045 32.27579,42.39043 34.04351,33.17027 61.495483,61.56887 66.577533,68.8732 6.05318,8.70012 21.44702,25.42037 34.73456,37.72758 5.30786,4.91616 17.12185,18.22807 26.25331,29.58186 9.13145,11.35378 21.30212,25.56516 27.04593,31.58068 5.74381,6.01559 13.3081,14.70116 16.8095,19.30129 7.81772,10.27089 32.6565,39.81907 39.80526,47.35231 l 5.25042,5.53275 0.81896,-9.39307 c 0.45045,-5.16612 2.3582,-14.89388 4.2395,-21.61713 z m 43.96181,17.82128 c 9.14253,-4.29752 12.63734,-10.61077 13.19777,-23.84122 l 0.45388,-10.71518 -4.31413,-4.04641 c -5.90873,-5.54205 -11.76526,-7.81491 -17.40863,-6.75625 -4.08255,0.76588 -5.01315,1.73965 -8.34418,8.73122 -2.06205,4.328 -4.925,9.72715 -6.36211,11.99811 -1.43711,2.27088 -2.94337,7.33061 -3.34724,11.24374 -0.71947,6.97123 -0.63473,7.20609 4.19922,11.63377 4.04728,3.70722 5.93104,4.51897 10.48649,4.51897 3.05412,0 8.20165,-1.24506 11.43895,-2.76675 z m 125.56568,-39.0583 c 12.78805,-6.18005 30.77137,-17.93681 35.37011,-23.12358 3.32745,-3.75295 6.87068,-15.20458 6.83953,-22.10531 -0.0549,-12.18757 -6.21153,-30.04063 -10.3593,-30.04063 -0.65957,0 -1.208,2.46094 -1.21884,5.46874 -0.0107,3.00772 -0.53421,6.2814 -1.16313,7.27468 -0.74758,1.18074 -0.22526,3.5676 1.50867,6.89417 4.55941,8.74737 4.50424,16.42587 -0.18647,25.95405 -5.64367,11.46391 -11.27378,16.17256 -19.33749,16.17256 -5.17554,0 -6.58798,0.52963 -8.27354,3.10198 -2.50689,3.82603 -9.92325,6.42018 -15.39679,5.3856 -11.58034,-2.18881 -18.47401,-12.15914 -17.25766,-24.95971 0.38324,-4.03308 1.10195,-8.34614 1.59715,-9.58465 2.03664,-5.09364 -2.03135,-1.77691 -5.713,4.65798 -5.0603,8.84445 -6.21076,14.31639 -3.62714,17.25171 1.0732,1.21931 3.4328,5.17435 5.24357,8.7889 8.42214,16.81216 12.93685,18.0637 31.9743,8.86351 z m -105.11106,-2.15664 c 4.5346,-3.94278 4.17812,-8.214 -0.95528,-11.44608 -3.52557,-2.21982 -5.47843,-2.51062 -12.4424,-1.85303 -11.35205,1.07199 -13.43696,2.48227 -6.36067,4.30269 3.47739,0.89459 7.57264,3.35035 10.76086,6.45279 2.83086,2.75472 5.28737,5.08519 5.45892,5.17885 0.17154,0.0937 1.7639,-1.09212 3.53857,-2.63522 z m 93.72643,-13.60051 c -1.96031,-2.65397 -4.83592,-6.40387 -6.39024,-8.33311 -1.55433,-1.92925 -3.21174,-5.26382 -3.68314,-7.41002 -1.22029,-5.55607 -3.22118,-3.49468 -3.22118,3.31849 0,9.00426 6.2818,17.16598 13.2547,17.22131 l 3.60406,0.0305 -3.5642,-4.82532 z m 19.06195,-3.01412 c 8.16368,0.25376 8.73267,0.0762 12.54484,-3.98942 6.50644,-6.9338 9.55783,-14.71106 8.67997,-22.12322 -0.8211,-6.93296 -5.40583,-14.95828 -10.42364,-18.24606 -1.74366,-1.14248 -5.47182,-2.38595 -8.28482,-2.76325 -13.36366,-1.79245 -22.88666,4.72931 -26.52336,18.16445 -2.64251,9.76213 -1.59568,14.35304 5.53655,24.28055 3.72372,5.18319 4.98608,6.11847 7.21607,5.34642 1.48655,-0.51439 6.55102,-0.81587 11.25439,-0.66985 z m 40.96113,-9.51767 c 4.60612,-2.38191 5.08978,-3.91442 6.39787,-20.27224 l 1.05538,-13.19745 -4.3227,-7.07715 c -2.37749,-3.8924 -6.21973,-9.26504 -8.53831,-11.9392 -4.06576,-4.6893 -4.36424,-4.80506 -8.39754,-3.25646 -4.91446,1.88687 -5.27722,3.04453 -1.28676,4.10624 4.7547,1.2651 9.46958,9.51568 11.74706,20.55603 2.56168,12.41816 2.611,18.94868 0.20301,26.88422 -1.02006,3.36163 -1.56407,6.11207 -1.20893,6.11207 0.35512,0 2.31305,-0.8622 4.3509,-1.91606 z m -87.19093,-8.17429 c 3.60313,-6.61664 6.25633,-9.71253 10.74442,-12.5372 3.3746,-2.12388 6.98739,-5.75733 8.32878,-8.3764 2.97313,-5.80503 10.30539,-12.31307 17.20406,-15.27019 2.91372,-1.24903 6.11586,-3.25676 7.11586,-4.46167 2.4515,-2.95391 8.31793,-5.88131 11.78581,-5.88131 2.45762,0 16.59825,-6.06749 16.59825,-7.12204 0,-1.11101 -37.77245,-35.08359 -50.72163,-45.61907 -17.10087,-13.91326 -35.92872,-32.91719 -57.36564,-57.90205 -8.13871,-9.48573 -17.16616,-19.88442 -20.061,-23.10819 -9.7155,-10.8195 -17.27865,-20.7704 -25.8017,-33.94773 -4.65656,-7.19939 -12.34169,-17.43255 -17.07807,-22.74042 -4.73638,-5.30786 -9.99269,-11.96679 -11.6807,-14.79771 -5.80233,-9.73074 -14.69004,-20.61844 -29.53211,-36.17777 -8.17911,-8.5743 -20.03008,-21.09435 -26.33549,-27.82225 l -11.46438,-12.2326 -12.34056,-0.91257 c -18.21717,-1.3471 -24.40531,-0.92919 -36.82137,2.48677 -12.70547,3.49567 -15.50026,5.61422 -20.98753,15.90934 -4.65125,8.72664 -15.65242,42.39416 -15.65242,47.90199 0,3.30196 0.78308,4.24638 5.13715,6.19575 6.00464,2.68841 18.13499,15.88518 30.8878,33.60335 4.83916,6.72325 12.39453,15.67714 16.78975,19.89753 4.39522,4.2204 11.02283,11.45842 14.72803,16.08446 7.6676,9.57315 16.81169,18.14151 30.21526,28.31272 5.0983,3.86878 11.67945,9.91592 14.62479,13.43804 2.94533,3.52211 20.49083,21.59709 38.98999,40.16664 18.49916,18.56948 36.28443,37.2061 39.52283,41.41461 3.23838,4.2085 11.78692,13.07818 18.99673,19.71037 7.20981,6.63218 14.79586,14.37461 16.85787,17.20545 4.7233,6.4845 30.64433,35.38873 31.72585,35.37714 0.4426,-0.005 2.95782,-3.96251 5.58937,-8.79499 z m 64.05667,-34.22673 c 0,-2.43518 -0.58253,-4.78768 -1.29456,-5.22777 -2.31484,-1.43063 -11.53608,-0.98428 -13.51007,0.65385 -2.76317,2.29321 -2.37042,3.85346 0.97203,3.86124 1.59235,0.004 4.63231,1.11955 6.75545,2.47945 5.68497,3.64153 7.07715,3.29395 7.07715,-1.76685 z"
       id="path1365" /></g></svg>
