<?xml version="1.0" encoding="UTF-8" standalone="no"?>
<!-- Created with Inkscape (http://www.inkscape.org/) -->

<svg
   width="512"
   height="512"
   viewBox="0 0 512 512"
   version="1.1"
   id="svg5"
   inkscape:version="1.2.1 (9c6d41e410, 2022-07-14)"
   sodipodi:docname="shout.svg"
   xml:space="preserve"
   inkscape:export-filename="shout.png"
   inkscape:export-xdpi="96"
   inkscape:export-ydpi="96"
   xmlns:inkscape="http://www.inkscape.org/namespaces/inkscape"
   xmlns:sodipodi="http://sodipodi.sourceforge.net/DTD/sodipodi-0.dtd"
   xmlns="http://www.w3.org/2000/svg"
   xmlns:svg="http://www.w3.org/2000/svg"><sodipodi:namedview
     id="namedview7"
     pagecolor="#ffffff"
     bordercolor="#999999"
     borderopacity="1"
     inkscape:pageshadow="0"
     inkscape:pageopacity="0"
     inkscape:pagecheckerboard="true"
     inkscape:document-units="px"
     showgrid="false"
     height="70mm"
     units="px"
     inkscape:zoom="2.0938812"
     inkscape:cx="175.75018"
     inkscape:cy="262.90889"
     inkscape:window-width="2560"
     inkscape:window-height="1351"
     inkscape:window-x="2391"
     inkscape:window-y="-9"
     inkscape:window-maximized="1"
     inkscape:current-layer="layer1"
     inkscape:showpageshadow="2"
     inkscape:deskcolor="#d1d1d1" /><defs
     id="defs2" /><g
     inkscape:label="Layer 1"
     inkscape:groupmode="layer"
     id="layer1"><path
       style="fill:#ffffff;fill-rule:evenodd;stroke-width:0.580605"
       d="m 69.01136,428.14674 c -1.14315,-1.0263 -1.84884,-2.92449 -3.29176,-8.85422 -1.01017,-4.15132 -2.07508,-9.24613 -2.36648,-11.32179 -1.35579,-9.65763 -2.34813,-34.23247 -3.30575,-81.86523 -0.5067,-25.20348 -0.65773,-27.92875 -1.7536,-31.64294 -0.65952,-2.23533 -1.37658,-5.58866 -1.59341,-7.45184 -0.44867,-3.85519 -1.27092,-4.53621 -3.72593,-3.08599 -0.89184,0.52685 -2.23449,0.95785 -2.98367,0.95785 -2.09556,0 -8.67187,1.48785 -10.94169,2.47548 -3.26752,1.42176 -4.25404,2.45375 -4.90395,5.13009 -0.7667,3.15723 -2.88257,4.61325 -5.18165,3.56572 -2.23619,-1.01887 -4.10352,-5.34824 -6.45939,-14.97601 -1.73531,-7.09166 -2.06448,-9.35528 -1.81001,-12.44707 0.17104,-2.07849 0.57404,-8.48196 0.89554,-14.22994 1.10306,-19.72237 1.62913,-24.8078 2.8986,-28.0204 1.87761,-4.75159 1.71127,-5.36436 -1.45618,-5.36436 -2.44809,0 -2.91209,-0.25095 -5.74603,-3.10762 -3.19475,-3.22038 -4.75989,-3.83872 -9.7533695,-3.85324 -2.87111,-0.008 -5.95778,-1.32926 -6.80486004,-2.91204 -1.85003996,-3.45684 0.006,-11.36145 3.54841004,-15.11092 3.37048,-3.56763 13.9790695,-9.48714 18.5390295,-10.34462 1.74365,-0.3279 4.34599,-1.02665 5.78298,-1.55282 3.40359,-1.24623 14.63775,-3.5774 20.90177,-4.33727 2.71432,-0.32928 7.09407,-1.14593 9.73276,-1.8148 4.46664,-1.13224 4.89674,-1.15121 6.23403,-0.27495 0.79002,0.51764 1.94981,1.94754 2.57732,3.17756 0.62754,1.23001 1.7573,2.98978 2.51065,3.91059 2.40828,2.94361 4.3254,6.76004 6.42303,12.78638 1.12428,3.22998 2.84999,7.46904 3.83489,9.42012 2.14854,4.25625 3.19363,8.72154 2.68091,11.45459 -0.20672,1.10203 -1.48546,3.36969 -2.84161,5.03925 -3.33523,4.10605 -3.22438,3.86668 -4.15462,8.97063 -0.45265,2.48369 -1.70951,6.86725 -2.79296,9.74125 l -1.96991,5.22544 6.44604,0.39777 c 9.76723,0.60271 13.02073,1.41571 20.90519,5.22395 2.52388,1.21905 4.61406,2.21666 4.64484,2.21691 0.0309,2.5e-4 0.0902,-4.37606 0.13204,-9.72513 0.0763,-9.7411 1.08113,-43.08485 1.69293,-56.17394 l 0.32563,-6.96725 -1.36993,2.32242 c -0.75347,1.27733 -2.72269,4.28547 -4.37605,6.68475 -2.22962,3.23552 -3.27971,5.47538 -4.0653,8.67132 -0.81527,3.31661 -1.42537,4.58235 -2.64912,5.49601 -1.45263,1.08455 -1.72142,1.11288 -3.11308,0.32804 -0.8601,-0.48504 -2.34433,-2.46849 -3.40946,-4.5562 -1.03741,-2.0335 -2.65359,-4.51558 -3.59144,-5.51577 -4.44911,-4.74477 -6.94452,-9.63023 -7.65824,-14.99313 -0.31064,-2.33394 -2.06382,-8.73232 -3.89601,-14.21861 -3.29436,-9.86455 -3.35873,-9.99244 -5.80913,-11.54132 -1.36283,-0.86143 -2.63309,-2.05532 -2.82281,-2.65307 -0.26876,-0.84669 -0.91358,-1.08682 -2.91854,-1.08682 -4.4352,0 -5.84826,-2.67457 -5.37122,-10.16635 0.41531,-6.52227 3.19526,-9.00051 10.76386,-9.59565 2.80355,-0.22048 6.40372,-0.88715 8.00038,-1.48155 2.40611,-0.89573 4.60092,-1.0832 12.82233,-1.09522 l 9.9193,-0.0144 3.0384,1.88738 c 2.87288,1.78456 3.01646,1.8162 2.6353,0.58064 -1.12343,-3.64183 -3.01177,-5.78453 -7.97812,-9.05274 -2.46534,-1.62235 -3.26943,-1.8364 -6.96725,-1.85459 -5.18308,-0.0254 -6.45674,-0.69728 -9.40572,-4.96085 -2.17334,-3.14216 -4.00017,-4.51424 -8.44172,-6.34037 -1.69165,-0.69551 -2.61579,-3.01512 -2.06908,-5.19339 0.58703,-2.33907 2.97264,-4.279458 8.28447,-6.738438 4.5631,-2.11238 6.54844,-3.73795 12.11429,-9.91898 2.91516,-3.23738 11.71785,-5.30991 22.91619,-5.39546 4.73357,-0.0365 6.10797,0.18967 9.69199,1.59262 2.29695,0.89912 6.33463,2.94569 8.97263,4.54794 4.38887,2.66567 5.37747,3.00914 11.63598,4.04256 5.246,0.86622 7.92967,1.6565 11.51794,3.39175 3.20776,1.55124 5.86393,2.38935 8.45014,2.66631 6.48033,0.69398 6.36644,0.43023 6.17113,14.291168 -0.19847,14.08804 -0.4759,16.63584 -1.99196,18.29733 -0.63345,0.69424 -3.59361,2.10395 -6.57806,3.13268 -3.09953,1.0684 -5.5785,2.26712 -5.78129,2.79555 -0.19524,0.50884 -0.60456,6.2841 -0.90953,12.83395 -0.56248,12.07998 -1.58718,20.9277 -3.09375,26.71345 -0.45727,1.7559 -0.7556,3.26827 -0.66303,3.36081 0.0926,0.0926 1.31217,-0.74874 2.71027,-1.86955 1.3981,-1.12081 3.52176,-2.57317 4.71926,-3.22748 2.17097,-1.18618 2.17727,-1.20055 2.17727,-4.96727 0,-3.82698 1.1915,-8.34635 4.70957,-17.8634 0.92239,-2.49524 1.67708,-4.88729 1.67708,-5.31566 0,-0.42837 0.93648,-1.89973 2.08106,-3.26971 1.14458,-1.36997 2.85045,-4.01501 3.79081,-5.87785 4.06052,-8.04385 6.21487,-7.75662 16.7717,2.2361 2.49703,2.3636 4.15233,3.34976 7.59151,4.52272 2.419,0.82502 5.11001,1.50003 5.98003,1.50003 2.83472,0 4.85674,1.57332 7.04039,5.47804 1.14899,2.05458 2.42088,5.38566 2.82643,7.4024 0.5882,2.92513 1.01427,3.78422 2.10639,4.2474 8.37402,3.55144 8.81842,4.50398 8.13133,17.42885 -0.21092,3.96788 0.31146,5.26524 3.54903,8.81318 1.37267,1.50428 2.48409,3.47014 2.90345,5.13558 0.37371,1.48408 1.53552,3.94284 2.58183,5.46389 2.38221,3.46313 3.73797,7.94297 3.73797,12.35135 0,2.88427 -0.2286,3.63323 -1.49565,4.90029 -1.32147,1.32146 -1.81171,1.45361 -4.20939,1.13464 -1.49254,-0.19854 -6.16099,-0.53009 -10.37432,-0.73674 -6.11315,-0.29984 -8.34152,-0.1883 -11.03148,0.55223 -1.854,0.51042 -5.06917,1.09414 -7.14482,1.29721 -2.07567,0.20308 -5.93268,0.75487 -8.57117,1.22622 -9.07386,1.62099 -10.24906,1.27567 -24.37441,-7.16225 -3.90978,-2.33553 -7.31335,-4.24643 -7.56349,-4.24643 -0.25012,0 -1.88477,-1.03734 -3.6325,-2.30519 -1.74773,-1.26786 -4.25093,-3.07702 -5.56266,-4.02036 l -2.38495,-1.71516 -0.37446,5.32671 c -0.20597,2.9297 -0.76533,7.54753 -1.24304,10.26186 -0.5851,3.3245 -0.8688,8.88383 -0.86934,17.03429 l -5.8e-4,12.09915 1.72993,-1.45563 c 1.33539,-1.12366 2.62644,-1.53251 5.6609,-1.79267 2.16202,-0.18541 6.72193,-0.76422 10.13312,-1.28635 3.41119,-0.52211 7.51392,-0.82327 9.11718,-0.66921 2.55473,0.24551 3.3399,0.67348 6.35292,3.46299 5.51972,5.11029 10.66376,6.84872 20.29507,6.85871 5.12174,0.005 7.82585,1.03593 9.44101,3.59823 1.11695,1.77193 1.19106,2.55615 0.94975,10.05037 -0.23217,7.21056 -0.46668,8.71854 -2.07654,13.3539 -0.99814,2.87399 -3.18339,7.9478 -4.85612,11.27515 l -3.0413,6.04971 0.20556,7.59449 c 0.11306,4.17697 0.24365,10.72976 0.29028,14.56175 l 0.0847,6.96726 -2.00731,2.78839 c -2.76308,3.83796 -7.58449,6.79158 -11.08659,6.79158 h -2.67914 l -6.20983,7.40271 c -6.7169,8.00718 -8.46058,11.05175 -9.83692,17.17587 -0.49034,2.18192 -1.3449,4.46806 -1.89897,5.08029 -1.74396,1.92706 -4.4671,1.19279 -5.95803,-1.60654 -0.85022,-1.59635 -0.88202,-23.71123 -0.0392,-27.47172 0.32199,-1.437 0.73413,-3.97582 0.91595,-5.64182 l 0.33058,-3.02908 -2.53788,0.95383 c -2.87289,1.07974 -5.45186,3.21009 -6.64089,5.48571 -0.4433,0.84841 -1.36642,3.59176 -2.05136,6.09634 -1.02717,3.75596 -1.87985,5.36768 -4.86693,9.19933 -1.99187,2.55505 -4.41024,6.21286 -5.37415,8.12846 -1.70923,3.3968 -2.21743,4.92261 -4.83426,14.5144 -1.44648,5.30198 -2.39523,6.67695 -4.6072,6.67695 -2.33209,0 -3.50139,-1.74559 -4.14631,-6.18984 -1.35506,-9.3379 -1.87441,-11.65997 -3.16062,-14.13131 -0.74789,-1.437 -1.78521,-3.52718 -2.30518,-4.64484 -0.51998,-1.11766 -2.12041,-4.54519 -3.55652,-7.61673 -1.43612,-3.07153 -2.91444,-7.12125 -3.28516,-8.99936 l -0.67409,-3.41477 -2.5104,-0.33505 c -2.04325,-0.27268 -2.92671,-0.8132 -4.74518,-2.90305 -2.18491,-2.51099 -2.25507,-2.54222 -3.1603,-1.4068 -2.03733,2.55539 -2.04707,2.87148 -0.24318,7.88444 0.96759,2.68888 2.01876,6.32586 2.33592,8.08219 0.96639,5.35137 -0.2288,25.69893 -1.87567,31.93324 -1.16784,4.42083 -1.33444,17.86547 -0.29627,23.90916 1.49849,8.72351 1.01487,13.32271 -1.63172,15.51762 -0.56007,0.46448 -3.16478,1.00654 -6.04113,1.25716 -6.16427,0.53711 -10.8959,1.97433 -13.08433,3.9743 -0.90263,0.82491 -2.68835,3.06745 -3.96827,4.98345 -3.34671,5.0099 -5.18034,5.87591 -7.68332,3.62878 z m 7.16355,-14.57336 c 3.33008,-3.11489 10.13497,-5.60265 15.32524,-5.60265 h 3.38603 l -0.3528,-3.91908 c -0.80998,-8.99714 -1.0034,-26.02345 -0.33141,-29.17538 0.37446,-1.75632 0.93725,-4.35504 1.25067,-5.77493 0.31346,-1.41989 0.72321,-7.5816 0.91062,-13.69269 0.36221,-11.8114 0.46296,-11.08489 -2.69315,-19.42467 -1.73846,-4.59377 -1.63516,-9.27861 0.25411,-11.52385 3.00612,-3.57257 3.23709,-4.9517 3.05937,-18.26751 l -0.16429,-12.31067 1.59666,-3.61128 c 0.87817,-1.98621 1.60214,-4.20702 1.60885,-4.93514 0.0158,-1.75536 2.5314,-10.26643 3.7043,-12.53456 1.21581,-2.35112 1.17927,-4.85067 -0.0877,-6.00079 -0.55883,-0.50726 -1.72097,-1.84073 -2.58253,-2.9632 -1.79038,-2.33258 -7.2725,-5.12095 -13.52924,-6.88141 -4.82673,-1.35809 -17.31971,-2.2019 -17.93201,-1.21118 -0.21794,0.35266 -0.53318,2.41547 -0.70053,4.58398 -0.81479,10.55977 -3.69905,15.26228 -9.36298,15.26544 -1.60827,10e-4 -1.60646,0.005 0.41614,1.01606 2.58542,1.29199 3.53744,3.33281 4.11322,8.81733 0.25349,2.41479 0.90032,5.69688 1.43735,7.29354 0.83677,2.4878 1.03091,6.8892 1.35729,30.77204 0.20948,15.32796 0.62045,28.25237 0.91329,28.72093 0.29283,0.46854 0.71965,9.50281 0.94846,20.07614 0.56365,26.04484 2.33371,43.80934 4.36522,43.80934 0.21429,0 1.60475,-1.13661 3.08991,-2.52581 z m 55.8364,-62.06644 c 1.00323,-1.99582 3.35694,-5.55481 5.23046,-7.90884 1.99733,-2.50962 3.65983,-5.27155 4.01907,-6.67696 0.33698,-1.31828 1.40895,-4.41186 2.38218,-6.87462 1.96364,-4.96902 5.09651,-8.44562 8.82579,-9.79414 1.1663,-0.4217 2.12055,-1.07769 2.12055,-1.45767 0,-0.96693 -1.8254,-4.88954 -3.08297,-6.62502 -0.57796,-0.79762 -1.91205,-2.82002 -2.9646,-4.49423 -1.05256,-1.67422 -2.58561,-3.57253 -3.40679,-4.21847 -0.82119,-0.6459 -1.78083,-2.04638 -2.13255,-3.11209 -0.35169,-1.06572 -1.26842,-2.52852 -2.03712,-3.25068 -2.058,-1.93339 -4.80468,-1.0935 -7.35659,2.24953 -3.0637,4.01348 -4.71756,4.98363 -8.50075,4.98656 -3.64737,0.003 -3.72706,0.0825 -5.72297,5.72394 -1.22739,3.46925 -2.15123,4.43916 -4.22825,4.43916 -2.09465,0 -3.26341,-1.35955 -4.66109,-5.422 -1.54379,-4.48708 -1.45479,-4.40584 -4.09313,-3.73616 l -2.32578,0.59033 v 5.97837 5.97837 l 1.88696,1.16788 c 1.03784,0.64233 2.65435,1.97002 3.59226,2.95038 0.9379,0.98037 2.18734,1.78249 2.77652,1.78249 0.58916,0 1.98669,0.3825 3.1056,0.85001 2.28792,0.95596 3.28392,2.81541 4.21598,7.87098 0.52239,2.83342 9.4878,22.63165 10.24851,22.63165 0.15659,0 1.10548,-1.63295 2.10871,-3.62878 z m 38.40847,-14.93212 c 6.37926,-8.4587 8.8077,-10.46932 12.64489,-10.46932 2.0757,0 3.25537,-0.40005 5.08246,-1.72359 3.3808,-2.44904 3.78123,-3.48023 3.36115,-8.65562 -0.19758,-2.43441 -0.51462,-8.29676 -0.70455,-13.02743 -0.31972,-7.9645 -0.24833,-8.86703 0.96393,-12.19182 0.72005,-1.97483 1.91357,-4.548 2.65225,-5.71815 1.93655,-3.06767 5.24315,-11.81877 5.98305,-15.83441 0.83577,-4.53607 0.80703,-9.21398 -0.0619,-10.08298 -0.40919,-0.40912 -2.38619,-0.69854 -4.79,-0.70111 -9.28648,-0.01 -17.16327,-2.72967 -22.93519,-7.91912 l -3.01668,-2.71226 -3.73683,0.68854 c -2.05526,0.37872 -6.2816,0.92854 -9.39186,1.22187 -5.42722,0.51187 -5.72961,0.61461 -7.50704,2.55057 -2.55004,2.77754 -3.33225,5.95186 -2.4792,10.06096 0.36841,1.77473 0.57926,5.21886 0.46847,7.65362 -0.16877,3.70897 -0.0605,4.39166 0.66949,4.20991 0.47899,-0.11932 1.78536,-0.43966 2.90302,-0.7119 1.11767,-0.27227 3.54455,-0.50121 5.39308,-0.50884 3.09826,-0.0131 3.54586,0.15866 5.72669,2.19288 2.25538,2.10379 2.38828,2.42202 2.84923,6.8221 0.26594,2.53846 0.49756,10.51243 0.51482,17.71994 0.0261,10.82142 0.23362,14.05126 1.19252,18.53837 1.38269,6.47023 1.48824,12.281 0.28505,15.69124 -0.48188,1.36582 -1.0408,3.94607 -1.24203,5.73389 l -0.36586,3.25056 1.55949,-1.43307 c 0.85771,-0.7882 2.64947,-2.87837 3.98168,-4.64483 z m -12.5663,-39.935 c -0.17248,-5.66815 -0.48223,-11.70917 -0.68842,-13.42448 l -0.37487,-3.11876 -2.60137,0.35658 c -1.43075,0.19606 -3.37516,0.90755 -4.32092,1.58099 -2.04238,1.4543 -5.96896,2.11249 -7.08364,1.18737 -1.1193,-0.92892 -1.5488,-0.23526 -1.5488,2.50147 0,2.08104 0.20865,2.46741 1.62017,3.00021 0.90506,0.34165 2.83534,2.25575 4.37326,4.33667 1.51418,2.04882 3.46314,4.53572 4.33102,5.52644 0.86787,0.99072 2.46045,3.27685 3.53908,5.08028 1.07862,1.80344 2.21018,3.27898 2.51459,3.27898 0.34186,0 0.4336,-3.94009 0.23987,-10.30573 z m -41.00341,2.19218 c 0,-1.11161 3.78097,-2.50321 6.80121,-2.50321 3.03839,0 3.06443,-0.0158 4.94873,-2.95989 1.04185,-1.62793 2.63781,-3.80912 3.54658,-4.84707 1.27669,-1.45818 1.75958,-2.7521 2.12415,-5.69178 0.37336,-3.0107 0.93723,-4.47998 2.70222,-7.04139 2.16649,-3.14408 2.2302,-3.38035 2.22394,-8.24808 -0.004,-2.7562 -0.48127,-7.23208 -1.0616,-9.94641 -0.7953,-3.71973 -1.1314,-8.58136 -1.36472,-19.74055 -0.27653,-13.22542 -0.17874,-15.61465 0.91645,-22.38846 1.00054,-6.18846 1.22706,-10.13922 1.23169,-21.48237 0.005,-13.29711 0.064,-14.02509 1.34885,-16.80234 1.2177,-2.63183 2.13349,-6.29661 2.97428,-11.90239 0.16766,-1.11767 0.67231,-8.31196 1.12153,-15.98733 0.87306,-14.91755 1.34282,-17.13371 4.08995,-19.2946 0.85389,-0.67168 3.63497,-1.91474 6.18019,-2.76237 l 4.62765,-1.54116 -0.15865,-9.91988 -0.15866,-9.91989 -2.90302,-0.67024 c -1.59667,-0.36862 -4.71183,-1.5248 -6.92259,-2.56924 -3.73108,-1.76269 -6.37193,-2.41205 -14.05334,-3.455598 -2.1095,-0.28657 -4.56315,-1.35225 -8.41877,-3.65644 -2.99286,-1.78859 -7.23664,-3.95474 -9.43061,-4.81365 -4.33972,-1.69894 -6.65275,-1.74995 -15.46121,-0.3409 -7.70525,1.23254 -8.4279,1.5461 -10.99569,4.77111 -2.69113,3.37992 -7.41767,7.131018 -10.63183,8.437698 -1.1975,0.48683 -2.17727,0.99539 -2.17727,1.13014 0,0.13473 0.90444,1.0391 2.00986,2.00968 1.10542,0.97057 2.54091,2.62394 3.18997,3.67414 1.15036,1.86133 1.30217,1.91708 6.02147,2.2115 4.41839,0.27564 5.09079,0.48518 7.69637,2.39864 6.23109,4.57584 7.86778,5.94057 8.79516,7.3337 1.93689,2.90964 8.28465,15.75215 8.28465,16.76115 0,0.57053 0.66743,2.67986 1.4831,4.68732 1.71635,4.22395 1.5141,6.7186 -0.62368,7.69264 -2.25948,1.02948 -4.08869,0.15549 -5.38467,-2.5728 -1.46201,-3.07781 -3.96551,-5.43444 -8.82865,-8.31071 -2.07567,-1.22764 -4.1777,-2.56402 -4.6712,-2.96975 -1.54632,-1.27132 -13.34566,-1.69128 -17.25938,-0.61427 -7.08687,1.95019 -8.20605,2.16397 -11.3289,2.16397 -4.43126,0 -5.06042,0.33258 -5.06042,2.67484 0,1.86436 0.10901,1.97 2.03212,1.97 1.35279,0 2.37178,0.40678 3.04816,1.21681 0.55884,0.66928 2.50335,2.6941 4.32113,4.49969 3.26649,3.24454 3.34594,3.40486 6.80686,13.73375 1.92599,5.74798 3.77439,12.38327 4.10758,14.74509 0.67038,4.75212 2.39235,8.39763 5.61085,11.8784 1.71228,1.85183 2.19435,2.10236 2.7931,1.45152 1.72604,-1.87621 7.39316,-10.63171 8.22149,-12.7019 1.011,-2.52672 7.74304,-8.69616 9.48918,-8.69616 2.15321,0 3.50766,1.89132 4.15794,5.80604 0.6723,4.0472 0.25686,20.14551 -0.65168,25.2563 -0.28389,1.59667 -0.53167,9.28649 -0.55072,17.08852 -0.0193,7.80201 -0.33843,16.55433 -0.7097,19.44958 -0.70093,5.46556 -0.41758,12.52953 1.58516,39.52109 1.07528,14.49161 2.3984,22.35328 3.76206,22.35328 0.30431,0 0.55333,-0.2546 0.55333,-0.56572 z m -9.99576,-1.66688 c 0.41001,-0.26016 0.62774,-0.844 0.48394,-1.29747 -0.1438,-0.45348 -0.43216,-1.59579 -0.64081,-2.53849 l -0.37927,-1.714 -1.1207,2.50316 c -0.6164,1.37674 -1.1207,2.7359 -1.1207,3.02036 0,0.64425 1.77723,0.66116 2.77754,0.0261 z M 36.14605,280.40816 c 2.14741,-1.04069 5.65068,-2.12311 8.12846,-2.51149 2.395,-0.37542 4.63162,-0.75885 4.97028,-0.85211 0.33863,-0.0932 0.91777,-1.17653 1.28691,-2.40727 1.10682,-3.69022 3.55818,-6.13903 6.5456,-6.53882 3.35672,-0.44922 4.10265,-1.9796 4.69555,-9.63339 0.46001,-5.9383 0.9776,-7.90032 5.10116,-19.33651 1.30156,-3.60976 2.36649,-7.10876 2.36649,-7.77556 0,-3.0824 2.39877,-9.09896 4.6452,-11.65105 2.87991,-3.27174 2.93648,-4.71997 0.36614,-9.37126 -1.07576,-1.94668 -2.67949,-5.76024 -3.56382,-8.47456 -1.94017,-5.95494 -3.18985,-8.51744 -6.32175,-12.96283 -2.19022,-3.10878 -2.52443,-3.35547 -4.12513,-3.04485 -0.95799,0.18589 -4.48517,0.71893 -7.83815,1.18453 -6.73737,0.93556 -16.42827,3.07047 -23.8048,5.24422 -1.43699,0.4235 -3.44661,0.91347 -4.46583,1.08892 -2.88234,0.49611 -11.84075,5.54575 -14.2586595,8.03721 -1.31688,1.35695 -2.17727,2.80743 -2.17727,3.67058 0,1.33374 0.1993,1.42743 3.0481795,1.43273 3.76992,0.007 8.07278,1.93377 10.85913,4.86255 1.72237,1.81041 2.26473,2.05865 3.84855,1.76153 3.87329,-0.72664 7.78444,3.08737 7.78849,7.59505 10e-4,1.27733 -0.67595,4.4126 -1.50473,6.96726 -1.63649,5.0445 -2.29005,11.16557 -2.85168,26.70781 -0.18465,5.10932 -0.61001,10.73776 -0.9453,12.50765 -0.53188,2.80749 -0.41215,4.04365 0.93809,9.69072 1.32412,5.53771 1.68834,6.41244 2.52133,6.05531 0.53552,-0.22956 2.67191,-1.24045 4.74756,-2.24637 z m 155.8923,-68.36024 c 2.55467,-0.4739 5.73824,-0.87071 7.07461,-0.88185 1.33638,-0.011 3.16528,-0.31003 4.06423,-0.6642 2.37447,-0.93546 13.93426,-1.64426 18.25157,-1.1191 2.03723,0.24778 3.79423,0.37267 3.90445,0.27742 0.56145,-0.48511 -0.76946,-3.93091 -2.22623,-5.76402 -0.91106,-1.14643 -2.19185,-3.6697 -2.84617,-5.60727 -0.73539,-2.17762 -2.07199,-4.48004 -3.50024,-6.0295 -3.21987,-3.49315 -4.26388,-7.37642 -4.01479,-14.93328 l 0.19435,-5.89573 -2.90303,-1.06096 c -4.06006,-1.48382 -5.75225,-3.52971 -6.63635,-8.02353 -0.40101,-2.03835 -1.36243,-4.95584 -2.13646,-6.48331 -1.30081,-2.56702 -1.57137,-2.7775 -3.57481,-2.7808 -1.19212,-0.002 -2.87263,-0.37143 -3.73448,-0.82109 -0.86185,-0.44962 -3.03357,-1.24384 -4.82606,-1.76493 -2.72358,-0.79177 -3.97015,-1.65853 -7.58689,-5.27526 -2.3803,-2.38032 -4.53649,-4.32784 -4.79154,-4.32784 -0.255,0 -0.89834,0.84913 -1.42957,1.88697 -0.53125,1.03783 -1.92132,3.58523 -3.0891,5.66089 -3.37971,6.00723 -4.11661,7.62541 -5.1569,11.32436 -0.53848,1.91458 -1.34718,4.77904 -1.79716,6.36546 -0.44997,1.58642 -0.81813,4.40348 -0.81813,6.26015 0,5.01385 -1.11986,7.17734 -4.45512,8.607 -1.52047,0.65174 -3.86528,2.08702 -5.21069,3.18948 -2.00659,1.64424 -2.57191,2.56618 -3.14566,5.12996 -1.01957,4.55593 -0.5468,5.60197 3.85613,8.53216 5.44541,3.62395 15.31617,9.53353 21.43834,12.83503 5.79279,3.12386 5.66801,3.1126 15.09572,1.3638 z"
       id="path249" /><path
       style="fill:#ffffff;fill-rule:evenodd;stroke-width:0.580605"
       d="m 231.24393,417.27518 c -1.68736,-1.68736 -1.962,-3.54707 -1.5241,-10.32031 0.54281,-8.39559 2.14293,-11.32598 8.92263,-16.34032 2.14967,-1.58991 5.02604,-3.75659 6.39194,-4.81483 l 2.48344,-1.92408 -2.03449,-1.64214 c -1.95952,-1.58162 -7.34016,-8.35201 -8.92513,-11.23036 -1.65411,-3.0039 1.63553,-6.57463 6.05909,-6.57684 2.39649,-0.001 13.39999,-3.72421 14.82886,-5.01732 0.6188,-0.56001 1.93602,-2.53958 2.92707,-4.39898 2.2773,-4.27265 11.62817,-13.32074 18.32359,-17.73027 2.69081,-1.77213 5.20192,-3.90633 5.67686,-4.82477 2.05136,-3.96688 0.38396,-12.53027 -3.20292,-16.44913 -3.79711,-4.14858 -4.84375,-6.87214 -5.12576,-13.33828 -0.26346,-6.04029 0.41834,-9.48375 2.19619,-11.0927 2.26158,-2.0467 30.62697,-1.62018 34.77111,0.52287 1.97932,1.02355 2.87167,2.11947 5.39707,6.62836 0.95566,1.70626 1.8124,3.01262 1.90385,2.90303 0.42054,-0.50396 -1.3909,-12.24005 -2.45037,-15.8756 -0.6514,-2.23532 -1.75099,-6.61162 -2.4435,-9.72512 l -1.25908,-5.66089 h -3.944 c -2.1692,0 -4.75067,-0.16134 -5.73661,-0.35851 -1.60962,-0.32192 -2.1397,-0.011 -5.19274,3.04817 -1.87007,1.87368 -4.37053,5.14541 -5.55657,7.2705 -2.4893,4.46017 -3.31465,5.28072 -5.31166,5.28072 -1.9632,0 -3.16691,-1.1114 -4.5273,-4.18007 l -1.14526,-2.58341 -1.39899,1.71251 c -2.0841,2.55114 -5.27166,8.38709 -7.4664,13.66985 -1.06998,2.57545 -2.83725,5.77217 -3.92726,7.10383 -3.11712,3.80809 -5.41947,7.93854 -6.45958,11.58856 -1.05132,3.68936 -2.55625,4.91867 -5.20707,4.25335 -2.51087,-0.63022 -2.78299,-1.94509 -2.0877,-10.088 0.6942,-8.13018 1.0937,-10.9974 2.96819,-21.30313 0.93476,-5.13922 1.08391,-6.99831 0.575,-7.16793 -1.98431,-0.66145 -4.17219,-3.35004 -5.08652,-6.25058 -1.13692,-3.60676 -1.38313,-3.6871 -6.2095,-2.02659 -3.85467,1.32621 -6.20755,0.84798 -7.26688,-1.47699 -0.43202,-0.94826 -0.66062,-6.02975 -0.66062,-14.68653 0,-15.59832 -0.16904,-15.15838 5.82502,-15.15838 2.0358,0 6.51066,-0.31236 9.94414,-0.69415 6.22176,-0.69183 6.25589,-0.68878 10.18733,0.91111 2.16955,0.88291 4.86559,2.23513 5.99119,3.00494 1.12559,0.76982 2.9184,1.57405 3.984,1.78717 1.89153,0.37831 1.92914,0.34763 1.58607,-1.29473 -0.19325,-0.92523 -0.90257,-5.07876 -1.57622,-9.23009 -1.37223,-8.45613 -1.41159,-7.84045 2.35715,-36.86838 0.31091,-2.39499 0.82659,-6.57535 1.14588,-9.28967 1.53721,-13.06798 1.89959,-15.61227 2.64617,-18.57935 1.22693,-4.87598 2.02687,-13.5486 2.34994,-25.47683 0.30582,-11.29076 0.0807,-11.80097 -1.8239,-4.134 -0.74335,2.9924 -1.09598,6.61125 -1.12728,11.56888 l -0.0454,7.21434 -3.73928,3.35801 c -2.05661,1.8469 -5.43561,4.18606 -7.50889,5.19813 -2.07329,1.01206 -4.90398,2.83863 -6.29044,4.05904 -1.38645,1.2204 -3.41325,2.51344 -4.504,2.87342 -1.74813,0.57693 -1.98316,0.89222 -1.98316,2.66024 0,3.61767 -1.33665,5.70247 -5.13567,8.01026 -3.22156,1.95699 -8.21823,6.79637 -8.21823,7.95953 0,0.90759 -3.59242,2.35416 -4.98091,2.00567 -2.41688,-0.60663 -2.73124,-2.16231 -2.64081,-13.06866 0.0468,-5.60775 0.2125,-11.241 0.36889,-12.51833 0.15639,-1.27733 0.65752,-5.06577 1.11367,-8.41877 0.45616,-3.35299 1.00977,-10.88292 1.2303,-16.73318 l 0.40101,-10.63684 -2.67635,-2.49233 c -2.05256,-1.91144 -3.28686,-2.57601 -5.29577,-2.85137 -4.68556,-0.64225 -8.48245,-3.2788 -11.14538,-7.7394 -0.60512,-1.0136 -2.56331,-3.04742 -4.35154,-4.51959 -1.78824,-1.47217 -3.60591,-3.51685 -4.03929,-4.54373 -1.06832,-2.53143 -0.80199,-7.5054 0.61117,-11.414368 0.64143,-1.77429 1.44845,-4.33709 1.79334,-5.6951 0.95751,-3.77027 2.61245,-4.5942 7.3403,-3.65446 3.83563,0.76241 6.48665,0.59818 19.67084,-1.21859 2.56135,-0.35294 7.26424,-0.53263 10.45088,-0.39929 4.75653,0.19903 6.40961,0.52645 9.23286,1.82858 l 3.43898,1.58615 3.81858,-1.26913 c 2.10022,-0.69802 5.64011,-2.14126 7.86643,-3.20721 3.8108,-1.8246 4.40581,-1.9369 10.16058,-1.9177 3.36199,0.011 7.81099,0.39392 9.88665,0.85051 2.07566,0.45657 5.60284,0.84847 7.83816,0.87091 2.23533,0.0227 5.7625,0.41434 7.83817,0.8709 2.07565,0.45658 4.84033,0.8393 6.14371,0.85052 2.97616,0.0254 9.49926,2.04456 11.95424,3.69993 1.21822,0.82143 2.3042,2.35572 3.14063,4.43713 0.70319,1.74985 2.04579,4.101298 2.98355,5.225438 0.93777,1.12415 2.66448,3.44491 3.83716,5.15723 1.83583,2.68067 2.13206,3.56823 2.13155,6.38665 -4.8e-4,2.77487 -0.44419,4.15231 -2.91375,9.04552 -1.60225,3.1747 -3.27168,6.17933 -3.70985,6.67695 -1.44798,1.64443 -6.09178,11.4818 -6.77268,14.34717 -0.36786,1.54798 -1.45293,5.15314 -2.41127,8.01146 -2.04497,6.0992 -1.93028,9.8401 0.44109,14.38777 1.03532,1.98546 1.43253,3.66711 1.43253,6.06487 v 3.31769 l 1.6635,-2.62309 c 0.95421,-1.50462 2.52381,-3.03131 3.68114,-3.5805 5.99709,-2.84581 23.32099,-5.3292 27.33282,-3.91818 1.483,0.52156 2.91437,0.44688 6.93777,-0.36215 6.48317,-1.30358 9.78421,-0.70142 15.31977,2.79461 3.16629,1.9997 4.66932,2.56622 7.61796,2.87142 4.24215,0.43911 5.6649,1.44419 6.63701,4.68878 0.36772,1.22739 0.81201,2.08823 0.98728,1.91297 0.1753,-0.1753 0.36311,-8.32549 0.41744,-18.11162 0.0895,-16.12887 -0.0172,-18.36648 -1.14478,-23.92531 l -1.24361,-6.13237 -2.60537,-0.18747 c -4.13517,-0.29751 -7.25737,0.40375 -9.9638,2.23793 -3.07324,2.08277 -4.51936,2.15222 -6.2589,0.30054 -1.53211,-1.63086 -2.16394,-5.74862 -2.73304,-17.81195 -0.45396,-9.6219 0.15088,-16.926418 1.54419,-18.649648 1.00714,-1.24563 1.56442,-1.32273 11.99542,-1.65967 10.04615,-0.32453 11.15251,-0.46668 13.55193,-1.74181 2.24239,-1.19166 3.39454,-1.38451 8.12847,-1.36058 5.05346,0.0254 6.29431,0.28402 14.80541,3.08441 12.77404,4.20298 12.95987,4.30911 15.22653,8.695678 1.04572,2.02373 1.9013,4.47771 1.9013,5.4533 v 1.7738 l 3.62878,-0.41304 c 1.99583,-0.22716 6.1529,-0.62651 9.23793,-0.88737 3.08504,-0.26092 5.82839,-0.60787 6.09635,-0.77099 0.26793,-0.16312 6.88835,-0.0724 14.712,0.20157 14.46375,0.50657 19.32845,1.22225 25.31719,3.72451 3.12213,1.30451 4.11366,2.36378 5.15927,5.51181 0.50244,1.51281 1.68653,3.96937 2.63125,5.45904 0.94473,1.48967 2.00229,3.8388 2.35016,5.2203 1.28458,5.10156 -1.67048,10.32141 -7.26223,12.82809 -1.61664,0.7247 -3.54359,1.97507 -4.28212,2.7786 -1.78584,1.94301 -2.93872,8.31013 -3.39081,18.72672 -0.31766,7.3184 -0.22241,8.59136 0.95547,12.7733 1.41362,5.0189 1.58722,8.42824 0.79957,15.70239 -0.79929,7.38152 -2.81533,9.34171 -10.348,10.06122 -4.77822,0.45644 -7.08931,1.94255 -10.51598,6.76223 -2.39108,3.36311 -2.83441,4.7359 -4.02742,12.47099 -0.99336,6.44074 -2.17956,8.70908 -4.55424,8.70908 -3.14688,0 -4.3139,-3.20999 -6.43808,-17.70843 -0.79535,-5.42865 -2.23973,-13.71392 -3.20973,-18.4117 -1.54498,-7.48245 -1.76364,-9.72039 -1.76364,-18.05053 0,-5.23 -0.17207,-14.64592 -0.3823,-20.92425 l -0.3823,-11.41515 -1.50467,-0.005 c -0.94782,-0.003 -2.04182,0.62148 -2.95617,1.68825 -2.0529,2.39513 -3.62616,2.71194 -5.44228,1.09593 -1.24325,-1.10626 -1.63898,-2.26528 -2.3751,-6.95605 -0.48581,-3.09574 -1.49059,-7.25247 -2.23282,-9.23717 l -1.3495,-3.60856 -0.65849,5.75355 c -0.36215,3.16444 -0.92214,9.15007 -1.24438,13.30138 -0.3911,5.03823 -1.00562,8.70616 -1.84827,11.03149 -1.07795,2.97464 -1.32536,5.3075 -1.6933,15.96663 -0.37219,10.78132 -0.63855,13.25567 -1.95395,18.15115 -1.44524,5.37856 -1.52208,6.37229 -1.50405,19.45025 0.0103,7.58015 0.2517,15.48036 0.53614,17.55603 1.71775,12.53486 3.07311,21.10324 3.88706,24.57339 2.00171,8.53391 -0.59116,13.7465 -6.83789,13.7465 -1.98076,0 -2.92538,1.32289 -4.22983,5.92356 -0.8218,2.89846 -1.35353,3.63328 -4.26902,5.89961 -1.83166,1.42383 -4.85773,4.14726 -6.72459,6.05208 -3.09284,3.15573 -3.46728,3.81776 -4.21604,7.4543 -0.88219,4.2846 -2.21687,6.0231 -4.62406,6.0231 -3.04593,0 -4.17186,-3.09562 -5.7803,-15.89229 -0.44667,-3.55354 -1.23961,-9.07371 -1.7621,-12.26703 -0.76051,-4.648 -0.85163,-7.31151 -0.45684,-13.35391 0.27123,-4.15132 0.49309,-13.81839 0.49309,-21.48236 0,-7.66398 0.22962,-16.45322 0.51035,-19.53164 0.28065,-3.07841 0.32322,-7.09451 0.0946,-8.92465 l -0.41572,-3.32754 -1.10211,1.81226 c -0.60615,0.99674 -1.38053,1.81225 -1.72085,1.81225 -2.75877,0 -4.77067,25.19155 -3.24587,40.64231 0.59219,6.00063 -0.01,8.07727 -3.78382,13.06361 -1.45036,1.91599 -2.99726,4.64282 -3.43757,6.05961 -1.17969,3.79592 -3.05613,5.69696 -6.65635,6.74357 -2.66323,0.77422 -3.76647,1.59787 -7.68466,5.73715 -2.51624,2.65824 -5.56124,6.31903 -6.76667,8.1351 -4.45673,6.71433 -6.5954,5.85739 -9.88028,-3.9589 -1.24232,-3.71245 -2.4604,-6.74991 -2.70684,-6.74991 -0.24648,0 -1.18353,1.06854 -2.08241,2.37455 -0.89887,1.30599 -2.54877,3.46883 -3.66643,4.80629 -1.11766,1.33747 -3.05848,4.77586 -4.31293,7.64089 -2.54246,5.80667 -5.26586,9.91685 -8.16169,12.3177 -1.56378,1.2965 -5.36401,7.12603 -4.80193,7.36616 5.148,2.19938 5.28657,2.34222 8.71263,8.9812 3.01571,5.8438 3.33848,6.81931 3.33848,10.08984 0,4.33055 -0.65182,6.84792 -2.32796,8.99021 -0.6842,0.87448 -2.53448,3.5981 -4.11178,6.05251 -2.03662,3.16912 -5.43157,6.90706 -11.7131,12.89643 -4.8649,4.63863 -9.89036,9.78599 -11.16769,11.43858 -2.11481,2.73612 -5.50397,6.96386 -11.50147,14.34728 -1.21648,1.4976 -3.50013,4.40899 -5.07478,6.46975 -3.59456,4.70428 -9.25233,9.67511 -13.03458,11.45201 -1.59666,0.75011 -4.34001,2.40949 -6.09634,3.68752 -5.02985,3.66007 -7.3211,4.53248 -13.64421,5.19515 -16.65525,1.7455 -19.09433,2.48603 -23.21661,7.0489 -3.26452,3.61343 -5.27639,4.24308 -7.25035,2.26911 z m 9.09411,-13.10696 c 3.49143,-1.85641 6.00873,-2.48042 12.95409,-3.21114 14.11502,-1.48505 12.92164,-1.18849 17.37163,-4.3172 2.26384,-1.59167 5.4249,-3.54992 7.02457,-4.35166 4.23015,-2.1201 8.0872,-5.67542 12.75506,-11.75724 2.26448,-2.95042 5.34802,-6.84289 6.85231,-8.64993 1.5043,-1.80704 4.9559,-6.05493 7.67023,-9.43975 2.71432,-3.38482 6.89468,-7.91265 9.28967,-10.06184 6.54567,-5.87388 9.97206,-9.41208 12.52486,-12.93355 3.73931,-5.15821 6.63509,-10.22835 6.63509,-11.61721 0,-2.10412 -4.75075,-10.49692 -6.57466,-11.61496 -0.90173,-0.55279 -2.62963,-1.16335 -3.83977,-1.35685 -2.78477,-0.4453 -5.67024,-3.48197 -9.92568,-10.44574 -1.70793,-2.79492 -3.32719,-5.21878 -3.59837,-5.38639 -1.10553,-0.68324 -16.9846,-1.48284 -21.68021,-1.09169 l -5.04352,0.42012 0.2887,3.59667 c 0.329,4.09835 1.42889,6.55455 4.50509,10.06024 3.12076,3.55646 4.64549,8.84267 4.64549,16.10574 0,8.56692 -1.55465,11.05816 -10.05693,16.11568 -4.71352,2.8038 -13.95739,11.94948 -15.82998,15.66183 -2.76433,5.48016 -6.12471,7.68558 -16.63428,10.91705 -1.19305,0.36682 -2.34904,0.958 -2.56887,1.31369 -0.49873,0.80693 5.511,6.22056 6.91532,6.22941 1.70578,0.011 3.33847,2.14443 3.33847,4.36285 0,1.74717 -0.55271,2.57219 -3.91907,5.85011 -2.1555,2.09885 -5.61736,5.01149 -7.69302,6.47253 -6.19549,4.36096 -8.70906,7.1633 -8.70906,9.70959 0,1.1652 0.0296,1.15997 3.30284,-0.58036 z m 89.67147,-111.01794 c 1.98494,-2.21715 2.58538,-3.288 5.61248,-10.00951 0.9348,-2.07566 2.6379,-4.94965 3.78468,-6.38665 6.80439,-8.52639 8.22203,-10.49512 9.8249,-13.64421 1.72869,-3.39628 2.04847,-5.62991 1.29725,-9.06094 -0.37357,-1.70634 -3.10719,-2.82272 -7.02005,-2.86693 -1.24029,-0.0137 -3.30015,-0.43085 -4.57748,-0.92638 -1.27733,-0.49549 -3.49814,-1.10653 -4.93514,-1.35789 -3.59618,-0.62905 -8.80673,-1.71354 -9.93175,-2.06715 -0.68125,-0.21416 -1.20181,0.41242 -1.93279,2.32648 -0.66433,1.73961 -2.01616,3.48732 -4.02429,5.20293 -1.66313,1.42085 -3.854,3.73929 -4.86859,5.15208 l -1.84471,2.56872 3.24347,0.33477 c 4.80692,0.49612 5.58475,1.49841 7.44639,9.59517 0.85683,3.72652 1.94554,8.21249 2.41938,9.96882 1.59577,5.91493 2.50136,10.15091 2.51354,11.75724 0.0165,2.14006 0.66563,2.01278 2.99271,-0.58649 z m -62.20405,-3.91316 c 1.00472,-2.55466 2.50485,-5.82057 3.33363,-7.25756 1.83177,-3.17604 7.87224,-10.67987 9.53423,-11.84397 1.36524,-0.95626 1.3719,-0.85716 -0.75009,-11.17514 l -1.33102,-6.47189 -2.2142,-0.29696 c -1.21782,-0.16333 -3.31785,-0.88228 -4.66674,-1.59763 -1.34888,-0.71535 -3.9872,-2.07601 -5.86294,-3.0237 l -3.41041,-1.72306 -7.33077,0.50292 -7.33077,0.50293 v 7.54786 7.54785 l 1.45152,-0.16766 c 0.79832,-0.0922 2.93215,-0.22282 4.74182,-0.29029 4.25487,-0.15858 5.95272,1.26359 6.88824,5.76993 0.60849,2.93119 0.81615,3.20477 3.3562,4.422 4.17527,2.00085 4.3245,3.33837 1.89379,16.97382 -0.28465,1.59667 -0.70565,3.68684 -0.93558,4.64484 -0.73962,3.08148 0.69158,0.8724 2.63309,-4.06423 z m 151.32697,-23.56834 c 1.7044,-5.76499 5.06926,-9.23582 8.9538,-9.23582 2.10582,0 2.09385,0.33787 0.3495,-9.87028 -3.5694,-20.88893 -3.56084,-20.79114 -3.37065,-38.50143 0.15831,-14.74381 0.318,-17.18945 1.34535,-20.61145 0.92737,-3.08885 1.25734,-6.4943 1.61392,-16.656 0.40451,-11.52833 0.59789,-13.23332 1.98385,-17.49309 1.648,-5.0651 2.21441,-9.86619 3.27899,-27.79406 0.36029,-6.06732 0.89785,-12.12696 1.19459,-13.46586 1.33674,-6.03142 0.29909,-7.83514 -5.48136,-9.52825 -2.27684,-0.66687 -6.49114,-2.01335 -9.36513,-2.992168 -6.86302,-2.33737 -10.94838,-2.42928 -15.67632,-0.35266 -3.05713,1.342768 -4.54704,1.576868 -12.16949,1.912148 -4.77723,0.21016 -8.82694,0.52355 -8.99937,0.69656 -0.46324,0.46468 -0.30706,13.3214 0.20955,17.25673 0.43622,3.32294 0.47961,3.38801 1.99354,2.99363 0.85118,-0.22172 4.8135,-0.52857 8.80515,-0.6818 8.95116,-0.34372 9.12245,-0.24929 10.26265,5.65684 3.19945,16.57294 3.03871,13.92104 2.47843,40.88896 -1.17384,56.49903 -1.62417,96.48479 -1.11814,99.28337 0.2887,1.59665 0.82744,4.7933 1.19721,7.10364 l 0.67231,4.20062 5.59162,-5.29145 c 4.13248,-3.91065 5.7634,-5.87253 6.24994,-7.51818 z m -52.85592,4.68835 c 4.52292,-4.57575 6.36846,-6.03573 8.65226,-6.84468 2.6433,-0.93628 2.97431,-1.26 3.69988,-3.61843 0.43828,-1.42458 2.0964,-4.28842 3.68473,-6.36408 l 2.88786,-3.77393 -0.46868,-5.22544 c -0.75339,-8.4001 -0.54274,-19.63918 0.5523,-29.46833 1.14525,-10.27981 1.99301,-13.28456 4.46881,-15.83894 0.94156,-0.97145 2.11669,-3.12926 2.61141,-4.79514 0.81126,-2.73184 0.81177,-3.61955 0.005,-9.05161 -0.49192,-3.31249 -0.89431,-6.15147 -0.89431,-6.30885 0,-0.15735 -1.25525,-0.45265 -2.78944,-0.65615 -1.90784,-0.25308 -4.21016,-1.26715 -7.28468,-3.20859 -5.78126,-3.65063 -7.24605,-3.9017 -13.37894,-2.29319 -4.37953,1.14865 -5.17177,1.20542 -7.24989,0.51957 -2.36093,-0.77918 -3.75177,-0.7274 -14.04494,0.52287 -8.62786,1.04797 -11.26116,2.6021 -11.88752,7.01582 -0.28024,1.97477 -0.21065,2.05514 3.2125,3.70913 2.108,1.01855 4.7318,2.98042 6.60024,4.93514 1.70572,1.78448 3.99005,3.77052 5.07628,4.41341 1.08624,0.64287 3.28134,3.08585 4.878,5.4288 l 2.90302,4.2599 -0.096,10.82813 c -0.0529,5.95547 -0.28121,15.13911 -0.5076,20.4081 -0.32577,7.58142 -0.21416,10.85177 0.53504,15.67632 0.52067,3.35299 1.03711,9.62352 1.14766,13.93451 0.16388,6.39058 0.96986,11.61209 1.7924,11.61209 0.0798,0 2.73232,-2.61738 5.89439,-5.81639 z m -74.78802,-0.20625 c 0.73039,-1.07276 2.67002,-2.96519 4.3103,-4.20541 3.21804,-2.43317 8.07157,-7.19871 14.97319,-14.70173 l 4.35453,-4.73399 0.0138,-3.89261 c 0.008,-2.14093 0.38278,-5.85214 0.83379,-8.24714 0.90154,-4.78739 1.0413,-19.03854 0.33877,-34.54596 -0.3594,-7.93379 -0.28025,-9.67101 0.54267,-11.9024 0.52995,-1.43699 1.88997,-5.56481 3.02226,-9.17294 l 2.05872,-6.56023 -1.63044,-3.60035 c -2.46348,-5.43983 -2.66654,-12.40932 -0.54474,-18.69655 0.86205,-2.55439 2.0423,-6.47326 2.62277,-8.70859 0.96639,-3.72149 5.66471,-13.62669 8.12422,-17.12783 2.26097,-3.21853 5.27355,-9.97843 4.92973,-11.06174 -0.19448,-0.61269 -1.5782,-2.61481 -3.075,-4.4492 -1.49679,-1.83439 -3.51799,-4.88988 -4.49155,-6.78996 -1.59328,-3.109588 -2.05728,-3.555758 -4.64484,-4.466408 -1.58109,-0.55643 -4.05044,-1.04113 -5.48744,-1.0771 -1.437,-0.0358 -4.31098,-0.43897 -6.38665,-0.89552 -2.07566,-0.45657 -5.73347,-0.84847 -8.12846,-0.8709 -2.395,-0.0227 -6.0528,-0.41435 -8.12846,-0.87091 -2.07566,-0.45657 -5.71283,-0.83929 -8.08258,-0.85051 -3.5929,-0.0172 -4.89498,0.26106 -7.83816,1.67378 -3.42532,1.64416 -10.98223,4.50008 -13.45969,5.08671 -0.71418,0.16911 -2.76298,-0.49446 -4.93515,-1.59835 -4.46376,-2.26852 -10.09079,-2.82146 -17.8825,-1.75724 -2.74531,0.37494 -7.47355,1.02591 -10.50721,1.44654 -3.03366,0.42061 -6.71258,0.64948 -8.17539,0.50857 l -2.65965,-0.25625 -0.99712,2.610938 c -0.54838,1.436 -1.14302,3.50994 -1.32133,4.60874 -0.30005,1.84889 -0.0979,2.1882 2.71179,4.55212 1.6698,1.40488 3.87474,3.86068 4.89987,5.45734 2.08571,3.24851 3.45886,4.11496 7.33124,4.62597 1.97825,0.26105 3.67104,1.11205 6.60252,3.31921 5.38871,4.05724 6.36012,6.2554 6.3672,14.40809 0.006,6.94996 -1.15027,23.24786 -1.95667,27.57872 -0.2973,1.59666 -0.55616,5.60901 -0.57514,8.91634 -0.0385,6.69296 -0.20535,6.53036 3.98544,3.88486 2.30587,-1.45564 2.36661,-1.57689 2.36661,-4.72468 0,-2.79665 0.22804,-3.45874 1.69715,-4.92786 0.93343,-0.93344 2.31229,-1.69716 3.06413,-1.69716 1.50125,0 3.3126,-1.06603 5.9799,-3.5194 0.958,-0.88115 3.44008,-2.41086 5.51574,-3.39935 2.07566,-0.98848 4.58967,-2.54598 5.58667,-3.4611 1.79413,-1.64675 1.81576,-1.73468 2.10534,-8.56044 0.40424,-9.52847 3.44318,-20.89406 6.55351,-24.51003 1.83071,-2.12832 5.86973,-2.19752 8.06187,-0.13809 2.27098,2.13348 2.65189,4.55538 2.65489,16.88064 0.003,13.32234 -0.67328,21.50506 -2.56802,31.06234 -0.7597,3.83199 -1.55333,8.9268 -1.76363,11.32179 -0.2103,2.39499 -0.86756,8.14297 -1.46059,12.77329 -0.59302,4.63033 -1.37668,11.03149 -1.74143,14.22482 -0.36476,3.19332 -0.90824,7.55436 -1.20773,9.69118 -0.78441,5.59642 -0.66874,8.68873 0.58235,15.56936 0.61007,3.35532 1.40274,9.36458 1.76147,13.3539 0.35871,3.98932 1.17529,9.47412 1.81459,12.18845 0.6393,2.71433 1.31745,6.56809 1.507,8.56392 0.18953,1.99583 0.50278,3.62699 0.69612,3.62481 0.19332,-0.002 0.94909,-0.88168 1.67948,-1.95445 z m 58.49662,-50.00569 0.43333,-13.3539 -1.8065,-2.84317 c -1.17442,-1.84835 -2.80687,-3.41449 -4.66555,-4.47603 -1.57248,-0.89808 -3.43737,-2.56861 -4.1442,-3.71228 -1.30962,-2.11901 -6.40289,-5.50039 -8.3,-5.5103 -1.94002,-0.0103 -3.81128,-2.59621 -4.24513,-5.86676 l -0.40664,-3.06525 -1.3755,4.02783 c -0.75652,2.2153 -1.63081,4.80992 -1.94288,5.7658 -0.8365,2.56222 -0.68873,10.33756 0.30348,15.97046 1.10728,6.28599 1.10487,13.9737 -0.008,23.48167 -0.48305,4.12935 -0.67898,7.69996 -0.43546,7.93466 0.48573,0.46812 7.98146,2.15051 12.74786,2.86124 1.65846,0.24731 3.35002,0.65649 3.75901,0.90923 0.40899,0.2528 2.57925,0.73454 4.82277,1.07059 l 4.07918,0.61096 0.37508,-5.22543 c 0.20631,-2.874 0.57011,-11.2347 0.80844,-18.57935 z M 471.8572,202.1562 c 4.28326,-6.2191 9.26964,-9.58972 14.18671,-9.58972 3.81369,0 4.71545,-0.41545 4.71545,-2.17244 0,-0.80718 0.30315,-3.11296 0.67369,-5.12394 0.60904,-3.30529 0.5393,-4.14793 -0.72576,-8.77602 -1.14471,-4.1877 -1.38772,-6.38795 -1.33497,-12.08692 0.0688,-7.44119 1.51318,-19.24292 2.83469,-23.16266 0.93028,-2.75935 3.99236,-5.60425 8.87453,-8.2451 4.10754,-2.22184 4.33293,-3.22738 1.7125,-7.64013 -1.08964,-1.83493 -2.31503,-4.18456 -2.72309,-5.2214 -1.20074,-3.05094 -5.87697,-4.2259 -19.47219,-4.89266 -6.06732,-0.29758 -12.86039,-0.40424 -15.09572,-0.23713 -2.23533,0.16719 -7.25556,0.52005 -11.15606,0.78422 -3.90051,0.26415 -7.29573,0.68421 -7.54494,0.93341 -0.24923,0.24923 0.41936,2.84942 1.48574,5.77824 1.06637,2.92881 2.25936,6.63148 2.65109,8.22813 l 0.71222,2.90303 4.02295,0.29805 c 4.24162,0.31429 5.66064,0.85554 7.46251,2.84659 1.03461,1.14321 1.11598,2.54545 1.292,22.26189 l 0.18789,21.04184 2.45428,12.62814 c 1.34986,6.94549 2.48569,12.62815 2.52408,12.62815 0.0385,0 1.05647,-1.4326 2.2624,-3.18357 z"
       id="path251" /></g></svg>
