<?xml version="1.0" encoding="UTF-8" standalone="no"?>
<!-- Created with Inkscape (http://www.inkscape.org/) -->

<svg
   width="75"
   height="100"
   viewBox="0 0 75 100"
   version="1.1"
   id="svg5"
   inkscape:version="1.2.1 (9c6d41e410, 2022-07-14)"
   sodipodi:docname="weapon_pickaxe.svg"
   xml:space="preserve"
   xmlns:inkscape="http://www.inkscape.org/namespaces/inkscape"
   xmlns:sodipodi="http://sodipodi.sourceforge.net/DTD/sodipodi-0.dtd"
   xmlns="http://www.w3.org/2000/svg"
   xmlns:svg="http://www.w3.org/2000/svg"><sodipodi:namedview
     id="namedview7"
     pagecolor="#ffffff"
     bordercolor="#999999"
     borderopacity="1"
     inkscape:pageshadow="0"
     inkscape:pageopacity="0"
     inkscape:pagecheckerboard="0"
     inkscape:document-units="px"
     showgrid="false"
     height="70mm"
     units="px"
     inkscape:zoom="11.844781"
     inkscape:cx="2.6593991"
     inkscape:cy="65.007534"
     inkscape:window-width="3840"
     inkscape:window-height="2066"
     inkscape:window-x="-11"
     inkscape:window-y="-11"
     inkscape:window-maximized="1"
     inkscape:current-layer="layer1"
     inkscape:showpageshadow="2"
     inkscape:deskcolor="#d1d1d1" /><defs
     id="defs2" /><g
     inkscape:label="Layer 1"
     inkscape:groupmode="layer"
     id="layer1"><path
       style="fill:#ffffff;fill-rule:evenodd;stroke-width:0.0844254"
       d="m 36.537777,92.78754 c -0.314679,-0.29317 -0.575308,-1.46867 -0.702842,-3.17001 -0.145719,-1.9439 -0.241936,-3.04436 -0.328045,-3.75191 -0.0477,-0.39193 -0.130589,-2.191012 -0.1842,-3.997961 -0.07533,-2.538816 -0.07429,-3.670682 0.0046,-4.981069 0.265023,-4.403452 0.297867,-7.105352 0.301932,-24.838351 0.0033,-14.542962 0.02584,-18.153998 0.117663,-18.878664 0.118045,-0.931613 0.08342,-3.080593 -0.07331,-4.549375 -0.04211,-0.394689 -0.10369,-1.479902 -0.136835,-2.411584 l -0.06026,-1.693968 -0.241836,-0.138795 c -0.13301,-0.07634 -0.279484,-0.237817 -0.325499,-0.358844 -0.04601,-0.121026 -0.08424,-0.9869 -0.08495,-1.924165 -6.76e-4,-0.937264 -0.03728,-1.761105 -0.08127,-1.830756 -0.089,-0.140913 0.130451,-0.138489 -6.291549,-0.06948 -2.97777,0.032 -3.744103,0.06437 -4.263481,0.180087 -0.842294,0.187666 -2.022216,0.313966 -3.714716,0.397627 -1.564393,0.07733 -1.804518,0.120002 -2.997101,0.532631 -0.956797,0.331047 -1.592477,0.478795 -2.060003,0.478795 -0.373818,0 -1.842436,0.350026 -2.331453,0.555672 -0.185003,0.0778 -0.67676,0.235101 -1.092795,0.349561 -1.08917,0.299654 -1.879353,0.632361 -2.5831197,1.087626 -0.800603,0.517907 -1.319041,0.709827 -2.148102,0.795201 -0.371471,0.03825 -1.003619,0.116785 -1.404773,0.174518 -0.90963,0.13091 -1.144898,0.05211 -1.499104,-0.502122 -0.350246,-0.54803 -0.463031,-1.07411 -0.406601,-1.896561 0.06208,-0.904877 0.334635,-1.718147 0.677036,-2.020233 0.144734,-0.127693 0.296212,-0.23217 0.336617,-0.23217 0.0868,0 1.190934,-0.4641 1.494784,-0.628305 0.116085,-0.06273 0.571982,-0.230577 1.013105,-0.372984 0.441122,-0.142407 1.124968,-0.377069 1.519656,-0.52147 0.394689,-0.144402 0.983556,-0.333023 1.3085927,-0.41916 0.325038,-0.08614 1.255828,-0.390817 2.068422,-0.677068 1.732088,-0.610159 2.687763,-0.927796 3.503653,-1.164506 1.836359,-0.532775 2.539165,-0.759926 3.363719,-1.087175 1.43535,-0.569663 3.756665,-1.204524 4.427791,-1.210965 0.407653,-0.0039 1.033468,-0.163639 2.12847,-0.543247 0.487557,-0.169023 1.209394,-0.4039 1.604082,-0.521949 0.394689,-0.118049 1.021547,-0.322144 1.393019,-0.453545 1.818171,-0.64314 2.491625,-0.765407 4.474545,-0.812364 0.882245,-0.02089 1.68679,-0.05517 1.787878,-0.07617 0.124447,-0.02585 0.251968,-0.187087 0.394912,-0.499317 0.160368,-0.350291 0.26839,-0.477111 0.449393,-0.527596 0.131054,-0.03655 1.229778,-0.06239 2.441611,-0.05742 2.177343,0.0089 2.208917,0.0116 2.676855,0.225828 0.368585,0.168743 0.507073,0.287174 0.624918,0.534408 0.192597,0.404062 0.360771,0.452672 1.755477,0.507413 0.690389,0.0271 1.208191,0.08968 1.39584,0.168704 0.164071,0.0691 0.9239,0.290313 1.688507,0.491593 0.764609,0.201281 1.675133,0.444105 2.023388,0.539609 0.348254,0.0955 0.994108,0.237512 1.435231,0.315572 0.779373,0.137918 1.632145,0.402003 2.321697,0.71898 0.185736,0.08538 0.641633,0.266925 1.013105,0.403432 0.371471,0.136508 1.15023,0.42282 1.730573,0.63625 0.580343,0.213429 1.114517,0.388053 1.187053,0.388053 0.16229,0 0.949869,0.309137 1.683556,0.660823 0.740785,0.355087 2.919754,1.287702 3.777158,1.616651 0.382599,0.146786 0.940824,0.394686 1.240503,0.550889 0.299678,0.156203 1.107391,0.463072 1.794916,0.68193 0.687525,0.218858 1.412291,0.491424 1.61059,0.605701 0.362918,0.209147 1.139508,0.505789 2.470532,0.943695 0.396243,0.130364 0.871135,0.31388 1.055317,0.407813 0.184182,0.09393 0.664723,0.271376 1.067869,0.394317 0.679669,0.207269 0.751012,0.250735 0.98069,0.597485 0.492284,0.743214 0.674306,2.498254 0.315843,3.045336 -0.250057,0.381637 -0.46767,0.399105 -1.594217,0.127976 -1.148827,-0.276485 -1.664869,-0.378737 -2.588179,-0.512836 -0.348255,-0.05058 -1.0321,-0.190026 -1.519657,-0.309881 -1.204135,-0.296011 -1.893856,-0.428093 -3.039314,-0.582033 -1.186487,-0.159453 -1.461061,-0.217024 -2.321698,-0.486801 -0.650492,-0.203905 -2.099313,-0.735228 -2.448336,-0.897874 -0.09287,-0.04328 -0.662739,-0.16215 -1.26638,-0.264163 -1.012138,-0.171047 -1.666239,-0.220336 -4.981097,-0.375347 -0.668166,-0.03125 -1.328752,-0.107842 -1.519656,-0.176209 -0.602361,-0.215719 -1.498706,-0.380927 -2.490549,-0.459041 -0.53399,-0.04205 -1.160849,-0.11603 -1.393018,-0.16439 -0.832485,-0.173401 -1.149911,-0.189712 -2.517789,-0.129374 l -1.387397,0.0612 -0.04049,0.941252 c -0.02896,0.673355 -0.105396,1.16725 -0.268544,1.735294 -0.284834,0.991724 -0.463445,1.338303 -0.842325,1.634465 -0.192728,0.15065 -0.330155,0.350446 -0.387479,0.563332 -0.05742,0.213227 -0.08154,1.6533 -0.06821,4.072246 0.01305,2.368936 -0.01744,4.238101 -0.0831,5.093168 -0.05704,0.742944 -0.14013,2.053647 -0.184632,2.912675 -0.07571,1.461486 -0.140143,2.196435 -0.347859,3.967993 -0.118921,1.014261 -0.11732,19.309296 0.0018,20.684215 0.320275,3.696371 0.354943,7.016104 0.207185,19.839962 -0.08887,7.71315 -0.100339,8.0876 -0.264543,8.63893 -0.401613,1.34846 -1.591871,2.07612 -3.404097,2.0811 -0.601918,0.002 -0.752386,-0.0256 -0.899686,-0.1628 z m 1.81296,-1.09967 c 0.684682,-0.18213 0.730108,-0.20371 1.108802,-0.52676 0.35348,-0.30154 0.490463,-0.65144 0.591363,-1.51053 0.04974,-0.42346 0.09374,-5.58208 0.109391,-12.823495 0.02077,-9.612838 0.0038,-12.228381 -0.08232,-12.663805 -0.17775,-0.899023 -0.266399,-8.793591 -0.185339,-16.50516 0.0412,-3.919175 0.109969,-7.142664 0.158504,-7.429432 0.04715,-0.278604 0.127171,-1.285376 0.177817,-2.237272 0.05065,-0.951896 0.131422,-2.110635 0.1795,-2.574974 0.04808,-0.46434 0.115781,-2.952777 0.150452,-5.529862 0.03467,-2.577084 0.09448,-4.776895 0.132905,-4.888469 0.06906,-0.200512 0.06556,-0.202001 -0.302162,-0.128488 -0.730908,0.14612 -2.412892,0.03634 -3.326917,-0.217145 -0.621175,-0.172267 -0.588614,-0.208051 -0.614346,0.675132 -0.01285,0.441123 0.01439,1.16296 0.06053,1.604082 0.04614,0.441123 0.147268,1.675844 0.224723,2.743825 0.123486,1.702711 0.126705,2.082108 0.02614,3.081526 -0.09323,0.926535 -0.110623,4.250985 -0.09298,17.77154 0.01288,9.86661 -0.01192,17.421641 -0.06097,18.573581 -0.04547,1.067981 -0.121453,3.176504 -0.168852,4.685608 -0.0474,1.509103 -0.127363,3.237713 -0.177698,3.841354 -0.108085,1.296206 0.01362,5.849223 0.20987,7.851564 0.06827,0.69651 0.18359,2.0452 0.256273,2.9971 0.119616,1.56656 0.324506,3.13527 0.432271,3.30964 0.06938,0.11226 0.546383,0.0725 1.193038,-0.0996 z M 41.426916,24.1202 c 0.139015,-0.128903 0.280639,-0.402709 0.364531,-0.704758 0.07545,-0.271675 0.172608,-0.6041 0.215895,-0.738722 0.04329,-0.134623 0.0787,-0.773902 0.0787,-1.42062 0,-1.175845 10e-7,-1.175852 0.236877,-1.412729 l 0.236877,-0.236877 1.810438,-0.06165 c 1.658431,-0.05647 1.882686,-0.04667 2.670927,0.116735 0.473268,0.09811 1.116161,0.178379 1.428652,0.178379 0.692781,0 1.813332,0.20216 2.463371,0.444421 0.370303,0.138006 0.784819,0.194989 1.790454,0.246132 2.678009,0.136191 4.024116,0.229828 4.516757,0.314192 0.278604,0.04771 0.715505,0.112813 0.970892,0.144674 0.255387,0.03186 0.965854,0.258501 1.578816,0.503646 1.339131,0.535565 2.420931,0.838122 3.444493,0.963352 0.417906,0.05113 0.949786,0.129305 1.181955,0.173724 1.064134,0.203588 1.653881,0.332564 2.279486,0.498516 0.371472,0.09854 1.188287,0.254431 1.815146,0.346426 0.626858,0.092 1.511681,0.26152 1.966272,0.376725 0.454592,0.115203 0.84891,0.209461 0.876265,0.209461 0.08827,0 -0.06456,-1.037075 -0.188017,-1.275816 -0.09091,-0.175807 -0.236177,-0.264512 -0.606111,-0.370119 -0.267597,-0.07639 -0.733484,-0.24628 -1.035305,-0.377527 -0.30182,-0.131247 -0.776713,-0.315518 -1.055317,-0.409491 -1.251535,-0.422143 -2.164172,-0.770806 -2.543688,-0.971786 -0.226161,-0.119768 -0.953435,-0.390482 -1.616168,-0.601586 -0.662731,-0.211104 -1.499659,-0.531995 -1.859839,-0.71309 -0.360181,-0.181095 -0.99568,-0.463148 -1.41222,-0.626784 -0.909094,-0.357133 -2.68061,-1.118538 -3.670022,-1.57739 -0.394688,-0.183041 -1.040542,-0.426444 -1.435231,-0.540895 -0.394689,-0.11445 -1.078534,-0.346965 -1.519657,-0.516699 -0.441122,-0.169733 -1.149555,-0.435188 -1.574294,-0.589899 -0.424739,-0.154711 -0.918627,-0.354832 -1.09753,-0.444714 -0.503947,-0.253188 -1.071453,-0.414479 -2.309272,-0.65632 -0.626855,-0.12247 -1.424675,-0.310076 -1.772929,-0.4169 -0.348255,-0.106823 -0.975113,-0.276586 -1.393019,-0.377251 -0.417905,-0.100664 -1.044764,-0.272589 -1.393018,-0.382054 -0.448723,-0.141046 -0.916042,-0.211423 -1.604082,-0.241572 -0.533991,-0.0234 -1.171068,-0.08647 -1.415727,-0.140163 -0.436807,-0.09586 -0.450191,-0.09292 -0.74166,0.162996 -0.163253,0.143339 -0.385651,0.260616 -0.494218,0.260616 -0.108567,0 -0.363687,0.07181 -0.566933,0.159579 -0.218204,0.09423 -0.692571,0.183511 -1.158331,0.218016 -0.745466,0.05523 -0.824295,0.04463 -1.435231,-0.19289 -0.696124,-0.270643 -1.32834,-0.437981 -1.654726,-0.437981 -0.112102,0 -0.254025,-0.04829 -0.315384,-0.107311 -0.08692,-0.08361 -0.503193,-0.09485 -1.884495,-0.05091 -2.217199,0.07053 -2.627761,0.137785 -4.331097,0.70945 -0.756915,0.254032 -1.413926,0.461876 -1.460024,0.461876 -0.0461,0 -0.433577,0.128012 -0.861064,0.284472 -1.394841,0.510511 -2.200151,0.735804 -2.930094,0.819721 -1.065989,0.12255 -3.554416,0.795764 -4.521337,1.223194 -0.521057,0.230335 -1.951718,0.709136 -2.865883,0.95913 -1.216142,0.332573 -2.098705,0.610416 -2.82825,0.890373 -0.701382,0.269149 -2.44967,0.848803 -3.714716,1.231633 -0.3482537,0.105389 -1.0109567,0.337268 -1.4726717,0.515286 -0.461715,0.178018 -0.891609,0.323668 -0.955319,0.323668 -0.06371,0 -0.40778,0.140079 -0.7646,0.311287 -0.35682,0.171207 -0.876712,0.389657 -1.155315,0.485446 -0.63138,0.217077 -0.736279,0.406345 -0.786213,1.418555 -0.02944,0.596714 -0.0088,0.779901 0.107669,0.957719 0.159552,0.243506 0.130218,0.242703 1.56501,0.04289 1.220025,-0.169909 1.545739,-0.259294 2.026209,-0.556052 1.111403,-0.686448 1.3634267,-0.809517 2.3222067,-1.133981 0.556927,-0.188471 1.07425,-0.342951 1.149607,-0.34329 0.07536,-3.38e-4 0.308984,-0.07668 0.519171,-0.16966 0.592229,-0.261971 1.969436,-0.597342 2.767982,-0.674046 0.437353,-0.04201 1.020519,-0.174605 1.477444,-0.335931 1.37218,-0.484472 1.95932,-0.607807 3.076588,-0.646267 1.199213,-0.04128 3.525326,-0.259739 3.967992,-0.372658 0.761174,-0.194167 1.976413,-0.258448 3.818241,-0.20197 1.254873,0.03848 2.56925,0.02128 3.799141,-0.04971 1.114343,-0.06432 2.219162,-0.08271 2.711791,-0.04513 0.734368,0.05602 0.859811,0.0895 1.075621,0.287089 0.386453,0.353832 0.502527,0.986156 0.477818,2.602977 l -0.02085,1.364114 0.379914,0.354275 c 0.497244,0.463689 1.036502,0.642542 2.321714,0.77003 0.851473,0.08446 1.151356,0.08305 1.607254,-0.0076 0.494757,-0.09834 0.576055,-0.09582 0.693381,0.02151 0.150029,0.150028 0.27522,0.105892 0.628297,-0.221503 z M 39.679923,12.942171 c 0.185735,-0.06755 0.484258,-0.153459 0.663383,-0.190915 0.179125,-0.03746 0.395147,-0.13894 0.480048,-0.225521 0.137858,-0.140583 0.142096,-0.186147 0.03963,-0.426038 -0.168355,-0.39413 -0.484026,-0.447985 -2.629057,-0.448526 -2.013592,-5.06e-4 -1.958095,-0.01291 -2.121665,0.474157 -0.08598,0.256019 -0.07968,0.266174 0.21992,0.354785 0.169638,0.05017 0.517385,0.153105 0.772772,0.228739 0.255387,0.07564 0.597309,0.207028 0.759828,0.291986 0.235707,0.123217 0.415052,0.145331 0.886466,0.109307 0.325038,-0.02484 0.742944,-0.100426 0.92868,-0.167974 z"
       id="path249" /></g></svg>
