<?xml version="1.0" encoding="UTF-8" standalone="no"?>
<!-- Created with Inkscape (http://www.inkscape.org/) -->

<svg
   width="75"
   height="100"
   viewBox="0 0 75 100"
   version="1.1"
   id="svg5"
   inkscape:version="1.2.1 (9c6d41e410, 2022-07-14)"
   sodipodi:docname="weapon_2h_warhammer.svg"
   xml:space="preserve"
   xmlns:inkscape="http://www.inkscape.org/namespaces/inkscape"
   xmlns:sodipodi="http://sodipodi.sourceforge.net/DTD/sodipodi-0.dtd"
   xmlns="http://www.w3.org/2000/svg"
   xmlns:svg="http://www.w3.org/2000/svg"><sodipodi:namedview
     id="namedview7"
     pagecolor="#ffffff"
     bordercolor="#999999"
     borderopacity="1"
     inkscape:pageshadow="0"
     inkscape:pageopacity="0"
     inkscape:pagecheckerboard="0"
     inkscape:document-units="px"
     showgrid="false"
     height="70mm"
     units="px"
     inkscape:zoom="8.375525"
     inkscape:cx="-18.088418"
     inkscape:cy="62.563243"
     inkscape:window-width="3840"
     inkscape:window-height="2066"
     inkscape:window-x="-11"
     inkscape:window-y="-11"
     inkscape:window-maximized="1"
     inkscape:current-layer="layer1"
     inkscape:showpageshadow="2"
     inkscape:deskcolor="#d1d1d1" /><defs
     id="defs2" /><g
     inkscape:label="Layer 1"
     inkscape:groupmode="layer"
     id="layer1"><path
       style="fill:#ffffff;fill-rule:evenodd;stroke-width:0.0844254"
       d="m 54.007839,99.668311 c -0.33204,-0.11866 -0.74104,-0.38674 -0.92118,-0.60378 -0.0626,-0.0754 -0.29804,-0.23052 -0.52319,-0.3446 -0.68214,-0.34567 -1.03731,-0.73094 -1.33661,-1.44989 -0.24487,-0.58822 -0.26537,-0.70409 -0.21985,-1.24264 0.0276,-0.32667 0.18118,-0.992074 0.34126,-1.478693 l 0.29105,-0.884761 -0.20255,-0.214263 c -0.1114,-0.117841 -0.29914,-0.45198 -0.4172,-0.74253 -0.187214,-0.460734 -0.202995,-0.57156 -0.123457,-0.866947 0.05016,-0.186268 0.224307,-0.486012 0.386997,-0.666099 0.26592,-0.294341 0.28973,-0.359796 0.23568,-0.647931 -0.0773,-0.412005 -0.62326,-1.887118 -1.049148,-2.834633 -0.24189,-0.538152 -0.318393,-0.8047 -0.28249,-0.984214 0.05832,-0.291613 -0.128703,-1.07866 -0.533333,-2.244414 C 49.49239,83.997844 49.214988,83.199422 49.037369,82.688649 48.612642,81.467276 47.32935,78.155367 47.003585,77.43988 46.81812,77.032534 46.23867,75.421835 45.687582,73.781773 45.192217,72.307545 44.694793,71.001351 44.428989,70.476812 44.17964,69.984745 43.517667,68.144277 43.331178,67.424593 43.259198,67.146804 43.055047,66.630442 42.877516,66.277123 42.699985,65.923804 42.506992,65.484631 42.448643,65.301184 42.390293,65.117737 42.248926,64.756819 42.134489,64.499143 42.020051,64.241468 41.773762,63.575148 41.58718,63.018434 41.400597,62.461719 41.124296,61.720886 40.973178,61.372139 40.82206,61.023391 40.631658,60.5291 40.550061,60.273714 40.28403,59.441068 40.028388,59.020238 39.707048,58.885973 c -0.250294,-0.104579 -0.350876,-0.24097 -0.68022,-0.922392 -0.351922,-0.728135 -0.37886,-0.827312 -0.301157,-1.108732 0.04694,-0.169986 0.186135,-0.441218 0.309332,-0.602737 0.261318,-0.342606 0.242375,-0.510224 -0.125386,-1.109512 -0.134582,-0.219312 -0.271709,-0.512722 -0.304726,-0.652024 -0.03302,-0.139302 -0.188904,-0.486737 -0.346415,-0.772078 -0.157512,-0.285341 -0.339683,-0.722243 -0.404825,-0.970891 -0.11563,-0.441368 -0.658406,-1.831459 -1.08802,-2.786509 -0.118029,-0.262382 -0.310456,-0.865439 -0.427615,-1.340125 -0.117159,-0.474687 -0.388271,-1.247787 -0.602472,-1.718 -0.2142,-0.470213 -0.524794,-1.215852 -0.690208,-1.656975 -0.635457,-1.694617 -0.633088,-1.690013 -0.991615,-1.927402 -0.386553,-0.255947 -0.805016,-0.984899 -0.804509,-1.401432 4.22e-4,-0.314635 0.251936,-0.748128 0.545909,-0.940746 0.199612,-0.130791 0.212517,-0.175807 0.164681,-0.574459 -0.09106,-0.758829 -0.193108,-1.021857 -0.595567,-1.535008 -0.216379,-0.275891 -0.543105,-0.824547 -0.726058,-1.219236 -0.182953,-0.394689 -0.592078,-1.249496 -0.909167,-1.899571 -0.317089,-0.650075 -0.638178,-1.421043 -0.713532,-1.713262 -0.07535,-0.292219 -0.209214,-0.672134 -0.297468,-0.844254 -0.642767,-1.253567 -1.098087,-2.608232 -1.353752,-4.027663 -0.05855,-0.325037 -0.238577,-1.027878 -0.400071,-1.561869 -0.161494,-0.53399 -0.322783,-1.201935 -0.358419,-1.484322 -0.03564,-0.282387 -0.202241,-0.856968 -0.370232,-1.276848 -0.167991,-0.41988 -0.305438,-0.831449 -0.305438,-0.914598 0,-0.08315 -0.146485,-0.420363 -0.325521,-0.749361 -0.179038,-0.328999 -0.350549,-0.701966 -0.381138,-0.828814 -0.03235,-0.134162 -0.157193,-0.283163 -0.298455,-0.356212 -0.564261,-0.291791 -1.101615,-1.412996 -0.942723,-1.96702 0.0995,-0.346939 0.01751,-1.17288 -0.128456,-1.294022 -0.262784,-0.218091 -2.028477,0.565666 -2.212682,0.982166 -0.06046,0.136694 -0.139891,0.305522 -0.176523,0.375173 -0.195503,0.37172 -1.497297,0.759628 -2.549697,0.759759 -0.33661,4.3e-5 -0.750656,0.06681 -1.047428,0.16892 -0.766728,0.263793 -1.198791,0.193644 -1.533666,-0.249003 C 18.214411,20.60909 18.005028,19.888718 17.878594,19.200772 17.763085,18.572271 17.466219,17.625979 17.123757,16.794649 16.90179,16.255822 16.745455,16.041932 16.074725,15.359418 14.881564,14.145294 14.703034,13.744564 14.966006,12.870775 15.033016,12.64811 15.113638,12.170262 15.145161,11.80889 15.209951,11.066143 15.0358,10.331005 14.582175,9.432378 14.282822,8.839362 14.087118,8.046974 14.086005,7.423433 14.084605,6.644832 14.201298,6.559554 15.985543,6.03514 16.820455,5.789748 18.016449,5.3973642 18.643308,5.1631764 19.270166,4.9289886 20.105977,4.6620732 20.500666,4.5700312 L 21.218281,4.4026819 22.020322,3.599896 c 0.441123,-0.4415324 0.929322,-0.9605745 1.084887,-1.153427 0.155566,-0.1928526 0.429858,-0.4479284 0.609538,-0.5668352 0.378943,-0.2507726 0.33107,-0.2539781 2.175177,0.1456431 1.010187,0.2189091 1.32552,0.2592803 1.435232,0.1837488 0.740926,-0.5100967 1.664034,-0.835225 3.179916,-1.1200012 0.756907,-0.14219394 1.637647,-0.41306414 2.094228,-0.64407674 0.497744,-0.25184 1.375498,-0.5328133 1.669091,-0.5342839 0.119599,-5.994e-4 0.297279,0.084391 0.394845,0.1888679 0.326959,0.3501193 0.872039,2.13825374 1.209931,3.96918414 0.07477,0.405159 0.13587,0.5182431 0.364918,0.675403 0.503474,0.3454531 1.562767,1.3610301 1.657059,1.5886721 0.123634,0.298477 -0.01427,1.053866 -0.355534,1.947558 -0.389243,1.019326 -0.291069,1.387296 0.83489,3.129278 0.629601,0.974061 0.868456,1.561749 0.868531,2.136966 8.4e-5,0.723537 -0.204659,0.997816 -0.970825,1.300473 -0.23217,0.09171 -0.663138,0.266458 -0.957706,0.38832 -0.430263,0.177998 -0.667827,0.220703 -1.208125,0.217172 -0.812272,-0.0053 -1.148731,0.10302 -1.768176,0.569295 -0.419319,0.315633 -0.484811,0.406753 -0.581226,0.808653 -0.08303,0.346131 -0.08607,0.517728 -0.01288,0.727691 0.20333,0.583272 0.08644,1.511776 -0.28878,2.293944 -0.127536,0.265853 -0.135433,0.363868 -0.05181,0.642985 0.05427,0.181125 0.09867,0.403953 0.09867,0.495172 0,0.09122 0.09717,0.352752 0.215923,0.581182 0.20262,0.389743 0.478474,1.100908 0.766934,1.977198 0.06878,0.208953 0.181858,0.702842 0.251275,1.09753 0.06942,0.394689 0.238042,1.056606 0.37472,1.470928 0.136678,0.414323 0.248507,0.798113 0.248507,0.852869 0,0.05476 0.210968,0.529417 0.468819,1.054803 0.25785,0.525386 0.522491,1.18636 0.58809,1.46883 0.186339,0.802378 0.756831,2.258013 1.392451,3.552894 0.231846,0.472316 0.771998,1.937426 1.120524,3.039314 0.161558,0.510773 0.447484,1.270601 0.635392,1.688507 0.187907,0.417906 0.365276,0.855546 0.394152,0.972533 0.03658,0.148218 0.193305,0.286424 0.51694,0.455869 0.509232,0.266617 0.662877,0.485988 0.750738,1.071886 0.04546,0.303152 0.01806,0.480509 -0.125969,0.815307 l -0.184067,0.427877 0.211231,0.365536 c 0.116177,0.201045 0.330602,0.706927 0.4765,1.124181 0.145897,0.417254 0.42882,1.139091 0.628717,1.604082 0.416933,0.969848 0.691325,1.740438 1.067629,2.998284 0.316153,1.056785 0.982112,2.771175 1.153486,2.969442 0.06712,0.07766 0.141326,0.305604 0.164898,0.506552 0.02357,0.200948 0.237777,0.943631 0.476014,1.650404 0.387978,1.151009 0.458109,1.295379 0.672373,1.384131 0.244441,0.10125 0.527727,0.564774 0.733559,1.200277 0.147683,0.455969 0.04507,1.174942 -0.21115,1.479441 l -0.201455,0.239414 0.251702,0.87835 c 0.138437,0.483093 0.325033,1.068308 0.414661,1.300478 0.08963,0.232169 0.32277,0.859028 0.518094,1.393018 0.195324,0.533991 0.408911,1.054003 0.474639,1.155582 0.06573,0.10158 0.171336,0.405512 0.234687,0.675403 0.220193,0.938086 0.722857,2.421847 1.138715,3.361255 0.230089,0.519761 0.461997,1.148575 0.515353,1.397362 0.119603,0.557696 0.509648,1.588154 1.084839,2.866039 0.240355,0.533991 0.506945,1.179845 0.592415,1.435232 0.2357,0.704299 1.04785,2.915922 1.33309,3.63029 0.39703,0.994288 1.11752,3.179634 1.11899,3.393999 7.6e-4,0.106744 0.15425,0.630981 0.34114,1.164971 0.1869,0.533991 0.41589,1.232677 0.50887,1.552638 0.1668,0.573984 0.47271,1.408283 1.36544,3.723948 0.25062,0.650075 0.66169,1.764769 0.91348,2.477091 0.43194,1.221914 0.47691,1.307859 0.79552,1.520239 0.38641,0.257565 0.71762,0.838319 0.71762,1.258293 0,0.154532 -0.076,0.429902 -0.16885,0.61194 -0.0929,0.182038 -0.16885,0.369327 -0.16885,0.416209 0,0.04687 0.27543,0.213292 0.61208,0.369817 0.33665,0.156524 0.77311,0.420244 0.96992,0.586047 0.19681,0.165803 0.49216,0.384481 0.65634,0.485944 0.38853,0.240131 0.53123,0.531905 0.68168,1.393879 0.10749,0.615799 0.10783,0.781872 0.003,1.286288 -0.17739,0.85079 -0.30123,1.08977 -0.99927,1.92847 -0.85935,1.0325 -1.20881,1.311 -2.15788,1.71974 -0.7243,0.31195 -1.09459,0.42015 -2.3405,0.68386 -0.4909,0.10391 -1.1368,0.0875 -1.48715,-0.0376 z m 1.19165,-0.96254 c 0,-0.0363 -0.29443,-0.21158 -0.65429,-0.38962 -0.99023,-0.48988 -1.23103,-0.71266 -1.41028,-1.30471 -0.16115,-0.53223 -0.13561,-0.94544 0.0848,-1.37163 0.14356,-0.277623 0.61648,-0.685498 0.74514,-0.642661 0.1796,0.05979 0.15233,0.330205 -0.0558,0.553611 -0.4289,0.46031 -0.50071,0.85024 -0.26506,1.43918 0.15737,0.39331 0.48255,0.63516 1.47112,1.09412 0.68929,0.32002 0.74093,0.33085 1.30859,0.27448 0.78075,-0.0775 1.77215,-0.53929 2.23168,-1.03943 1.14159,-1.24249 1.38509,-1.67842 1.3869,-2.482901 0.002,-0.935872 -0.29793,-1.402229 -1.3391,-2.081431 -0.5572,-0.363494 -0.72642,-0.368652 -1.19347,-0.03636 -0.81157,0.577393 -2.2888,1.156593 -2.94988,1.156593 -0.31818,0 -1.53897,0.194567 -1.91208,0.304742 -0.17885,0.05282 -0.56748,1.217532 -0.63204,1.894177 -0.0372,0.38943 -0.009,0.53856 0.1682,0.88646 0.25422,0.49953 0.44617,0.6803 1.11401,1.04909 0.27748,0.15324 0.60615,0.38742 0.73038,0.52041 0.19657,0.21042 0.2872,0.24179 0.69855,0.24179 0.25997,0 0.47268,-0.0297 0.47268,-0.0659 z m -1.09753,-5.249646 c 0.82224,-0.08529 1.6181,-0.317338 2.4622,-0.717902 0.60605,-0.287595 0.81164,-0.497502 0.66286,-0.676771 -0.14093,-0.169813 -0.29262,-0.161818 -0.83393,0.04392 -0.24899,0.09464 -0.85685,0.279499 -1.35081,0.410806 -2.41652,0.642367 -2.37555,0.628293 -2.37555,0.816401 0,0.24984 0.0886,0.30925 0.37944,0.254501 0.13956,-0.02626 0.61467,-0.0852 1.05579,-0.130953 z m -1.07628,-0.88791 c 0.29606,-0.06865 0.70682,-0.185237 0.91282,-0.259067 0.20599,-0.07383 0.69745,-0.205677 1.09214,-0.29299 0.39469,-0.08731 0.99987,-0.268861 1.34485,-0.403435 0.67913,-0.264944 0.63179,-0.202883 0.98881,-1.296056 0.0531,-0.162528 -0.10399,-0.494074 -0.23407,-0.494074 -0.0492,0 -0.20212,0.08017 -0.33973,0.178162 -0.39785,0.28329 -1.4589,0.657058 -2.25308,0.793683 -1.48367,0.255227 -1.74522,0.349943 -2.20626,0.79901 -0.46023,0.448282 -0.52002,0.666142 -0.25541,0.930756 0.20202,0.202013 0.25756,0.204588 0.94993,0.04401 z m 1.1185,-2.188744 c 1.04257,-0.199227 1.8155,-0.452773 2.24047,-0.734948 0.18828,-0.125017 0.18955,-0.135731 0.0591,-0.502492 -1.12548,-3.164702 -1.60354,-4.456308 -1.82612,-4.933725 -0.25496,-0.546878 -1.60713,-4.602535 -1.82022,-5.459502 -0.10777,-0.433387 -0.48825,-1.585795 -0.84552,-2.560908 -0.35727,-0.975113 -0.90956,-2.49477 -1.227309,-3.377015 C 50.100612,71.078394 49.782023,70.281585 49.543475,69.856869 49.365849,69.540621 48.849917,68.118691 48.670122,67.44987 48.601472,67.194483 48.403873,66.662603 48.231023,66.267915 47.824096,65.338733 47.498544,64.406534 47.213828,63.35524 47.088073,62.8909 46.892299,62.324806 46.778775,62.097253 46.66525,61.8697 46.522626,61.527777 46.461831,61.337425 c -0.06079,-0.190353 -0.267908,-0.764001 -0.460254,-1.274775 -0.192345,-0.510773 -0.465683,-1.327589 -0.607416,-1.815145 -0.141732,-0.487557 -0.286437,-0.916997 -0.321564,-0.954312 -0.03513,-0.03732 -0.192902,-0.01359 -0.350609,0.05272 -0.157707,0.06631 -0.55268,0.200687 -0.877718,0.298612 -1.081315,0.325774 -2.776458,0.866461 -2.840404,0.905982 -0.03469,0.02144 0.0488,0.275465 0.185536,0.5645 0.136736,0.289034 0.248642,0.566689 0.248678,0.61701 3.7e-5,0.05032 0.193511,0.582202 0.429942,1.181955 0.236431,0.599755 0.537428,1.41339 0.668882,1.808078 0.30287,0.909367 0.842483,2.260579 1.31491,3.29259 0.201935,0.441122 0.406222,0.981349 0.453972,1.200505 0.08864,0.406814 0.543371,1.712647 0.860829,2.471998 0.09706,0.23217 0.308351,0.745054 0.46953,1.139743 0.16118,0.394688 0.323561,0.755607 0.360846,0.802041 0.03729,0.04643 0.24444,0.641293 0.460342,1.321909 0.453515,1.429668 1.216284,3.513374 1.763951,4.818692 0.660654,1.574613 2.395887,6.307421 2.670246,7.283032 0.104469,0.371472 0.299679,1.017419 0.433799,1.435443 0.13412,0.418015 0.24386,0.865723 0.24386,0.994902 0,0.129179 0.1662,0.660966 0.36932,1.181744 0.4909,1.258588 0.55936,1.475528 0.55936,1.77257 0,0.237936 0.015,0.248987 0.27438,0.201852 0.15091,-0.02743 0.76828,-0.144249 1.37192,-0.259599 z M 41.844423,57.710636 c 0.635582,-0.20241 1.459535,-0.456416 1.831006,-0.564458 1.304697,-0.379472 1.805383,-0.764039 1.811715,-1.391542 0.0019,-0.187014 -0.05266,-0.420105 -0.121217,-0.517984 l -0.124649,-0.177959 -0.698499,0.19703 c -0.384174,0.108366 -1.021426,0.365695 -1.416115,0.571843 -0.541538,0.282847 -0.945481,0.420434 -1.646294,0.560743 -0.935085,0.187213 -1.574985,0.409132 -1.682815,0.583604 -0.125857,0.203641 0.503444,1.003805 0.864913,1.099746 0.01449,0.0038 0.546373,-0.158613 1.181955,-0.361023 z m -0.194052,-2.738939 c 0.217185,-0.143858 0.704684,-0.36459 1.083332,-0.490516 0.569199,-0.189298 0.750445,-0.296057 1.046357,-0.616333 0.353605,-0.38272 0.429405,-0.610866 0.28091,-0.845501 -0.08538,-0.134913 -0.0401,-0.159505 -0.860341,0.467216 -0.249634,0.190737 -0.749787,0.467887 -1.111452,0.615892 -0.361665,0.148003 -0.943989,0.442985 -1.294053,0.655513 -0.574834,0.348991 -0.631359,0.406813 -0.583619,0.59702 0.02907,0.115831 0.07468,0.319699 0.101345,0.453038 l 0.04849,0.242435 0.447077,-0.408603 c 0.245892,-0.224732 0.624773,-0.526305 0.841957,-0.670161 z m 1.234407,0.332409 c 0.442248,-0.22585 1.001883,-0.46133 1.243634,-0.523289 0.429755,-0.110143 0.43832,-0.118392 0.384441,-0.370297 -0.03031,-0.141705 -0.06966,-0.27347 -0.08745,-0.292811 -0.01779,-0.01934 -0.174812,0.117617 -0.348946,0.304353 -0.257786,0.276443 -0.46561,0.389441 -1.118647,0.608233 -0.441123,0.147792 -0.916016,0.362065 -1.055317,0.476161 l -0.253277,0.207449 0.215736,4.23e-4 c 0.118654,2.53e-4 0.577574,-0.184368 1.019822,-0.410218 z m -1.445884,-1.565184 c 1.021181,-0.432723 1.250772,-0.554067 1.59341,-0.842158 0.203489,-0.171093 0.462142,-0.383574 0.574786,-0.472179 0.192552,-0.151462 0.198661,-0.18161 0.102103,-0.503893 -0.05649,-0.188535 -0.125184,-0.342011 -0.152659,-0.341057 -0.02747,9.54e-4 -0.328345,0.28206 -0.668599,0.624681 -0.590853,0.594963 -0.671137,0.644566 -1.787213,1.104195 -0.642714,0.264687 -1.250605,0.568571 -1.35087,0.675297 -0.172901,0.184045 -0.17538,0.20743 -0.04808,0.453608 l 0.134224,0.259559 0.611859,-0.398689 c 0.336523,-0.219278 0.782489,-0.470992 0.991036,-0.559364 z m -1.820742,-0.380225 c 0.02602,-0.04211 0.474667,-0.256071 0.99698,-0.47547 1.207812,-0.507342 1.582853,-0.69701 1.582853,-0.80049 0,-0.04549 -0.07413,-0.08271 -0.164731,-0.08271 -0.0906,0 -0.382188,-0.05664 -0.647968,-0.125868 -0.376687,-0.09811 -0.633554,-0.10876 -1.164968,-0.04828 -0.77875,0.08863 -1.045243,0.173561 -1.244451,0.396632 -0.122647,0.137337 -0.126645,0.197747 -0.03132,0.473261 0.207975,0.601094 0.521264,0.909418 0.673604,0.662927 z m -0.68868,-1.814615 c 0.212741,-0.13453 0.95703,-0.303883 1.335533,-0.303883 0.201632,0 0.356567,-0.108405 0.754139,-0.527658 0.275204,-0.290213 0.501061,-0.551271 0.501904,-0.58013 0.0037,-0.128354 -3.355924,-0.296344 -3.478344,-0.173924 -0.06418,0.06418 0.0049,0.323977 0.238426,0.897045 0.180828,0.443682 0.358607,0.806717 0.395066,0.806744 0.03646,2.7e-5 0.150434,-0.05316 0.253276,-0.118194 z m 3.733956,-0.237587 c 0.210893,-0.0564 0.456395,-0.18021 0.54556,-0.275121 0.160285,-0.170616 0.159065,-0.180075 -0.107847,-0.836619 -0.148481,-0.365229 -0.307957,-0.666579 -0.354391,-0.669667 -0.04643,-0.0031 -0.198399,0.154501 -0.337701,0.350197 -0.139302,0.195696 -0.433736,0.581195 -0.654297,0.856664 -0.220561,0.275469 -0.40102,0.518871 -0.40102,0.540892 0,0.136099 0.845442,0.157824 1.309696,0.03365 z m -0.426247,-2.158918 0.316288,-0.289856 -0.283274,-1.01599 c -0.361871,-1.29789 -0.385024,-1.33036 -0.723306,-1.014357 -0.200315,0.187122 -0.275185,0.344146 -0.315496,0.661684 -0.104512,0.823264 -0.21519,1.076116 -0.646806,1.477686 -0.228152,0.212269 -0.386713,0.414052 -0.352358,0.448408 0.03436,0.03436 0.428359,0.05342 0.875565,0.04237 0.796901,-0.01969 0.8194,-0.02587 1.129387,-0.309948 z m -2.638528,-0.137231 0.313343,-0.260695 -0.349924,-0.150855 c -0.638104,-0.275091 -1.075861,-0.334854 -1.627568,-0.222201 -0.278603,0.05689 -0.515921,0.110149 -0.527371,0.118355 -0.01145,0.0082 0.03719,0.210247 0.10808,0.448977 l 0.128901,0.434055 0.820598,-0.05347 c 0.754921,-0.04919 0.845677,-0.07433 1.133941,-0.314166 z m 1.049589,-1.456522 c 0.122909,-0.737312 0.185453,-0.860056 0.633786,-1.243812 0.351201,-0.300614 0.352097,-0.302882 0.251965,-0.637094 -0.05527,-0.184473 -0.131571,-0.354615 -0.169557,-0.378092 -0.191116,-0.118116 -2.336815,2.381024 -2.179421,2.538417 0.113479,0.11348 0.952976,0.365037 1.153474,0.345641 0.190153,-0.01839 0.217984,-0.07456 0.309753,-0.62506 z m -2.595499,0.230271 c 0.204332,-0.03946 0.404625,-0.130903 0.445095,-0.203219 0.04047,-0.07232 0.120474,-0.180848 0.177786,-0.241183 0.05731,-0.06033 0.210005,-0.237947 0.339319,-0.394694 0.220907,-0.267774 0.226635,-0.294366 0.09479,-0.440056 -0.230885,-0.255124 -0.70609,-0.364836 -1.574358,-0.363475 -0.451691,6.76e-4 -0.838584,0.01862 -0.859762,0.03979 -0.02118,0.02118 0.09868,0.408275 0.266357,0.860215 0.338512,0.912402 0.314528,0.896367 1.110775,0.742619 z m 2.922533,-3.433414 c -0.07045,-0.148469 -0.128097,-0.311691 -0.128097,-0.362716 0,-0.16016 -0.154813,-0.101356 -0.312654,0.118758 -0.08343,0.116343 -0.41414,0.558043 -0.734919,0.981556 l -0.583234,0.770024 0.194929,0.147035 c 0.193814,0.146195 0.199205,0.142659 0.9435,-0.618839 l 0.748572,-0.765874 z m -2.196518,1.067536 c 0,-0.244131 -1.543248,-0.764493 -2.25959,-0.761904 -0.552673,0.002 -0.604338,0.07033 -0.404929,0.535528 l 0.169915,0.396396 1.247302,-0.02338 c 1.026612,-0.01924 1.247302,-0.04519 1.247302,-0.146645 z m 0.928679,-1.16376 c 0.185736,-0.266247 0.456426,-0.600938 0.601534,-0.743757 l 0.263833,-0.259673 -0.142242,-0.374426 c -0.109654,-0.288647 -0.493984,-1.030293 -0.645503,-1.245637 -0.01043,-0.01483 -0.08915,0.01089 -0.174932,0.05716 -0.08578,0.04626 -0.218869,0.103314 -0.295749,0.126783 -0.07688,0.02347 -0.16655,0.164539 -0.199265,0.313488 -0.100818,0.45902 -0.681838,1.62893 -0.916214,1.844836 -0.1222,0.112571 -0.222182,0.237791 -0.222182,0.278267 0,0.11801 0.862419,0.486267 1.139742,0.486675 0.212878,3.38e-4 0.307141,-0.07684 0.590978,-0.483712 z m -2.159141,-0.424407 0.266586,-0.266587 -0.492324,-0.248525 c -0.63435,-0.320218 -1.411491,-0.478985 -1.736526,-0.354764 -0.261881,0.100084 -0.260208,0.139944 0.03375,0.804483 l 0.159661,0.360941 0.751134,-0.01448 c 0.721911,-0.01392 0.761504,-0.02485 1.017719,-0.281068 z m 0.806913,-1.282857 c 0.212169,-0.418695 0.275883,-0.762635 0.141277,-0.762635 -0.231932,0 -1.617754,0.57421 -1.616847,0.669933 5.06e-4,0.0562 1.007264,0.494918 1.158974,0.505061 0.05726,0.0038 0.199729,-0.181733 0.316596,-0.412359 z m -3.03557,-0.118073 c 0.09159,-0.0634 0.261508,-0.143369 0.377593,-0.177718 0.116085,-0.03435 0.53399,-0.205943 0.928679,-0.38132 0.942301,-0.418706 1.942325,-0.727708 2.595086,-0.801867 0.630111,-0.07159 0.95078,-0.28433 0.95078,-0.630785 0,-0.208198 -0.05631,-0.260197 -0.458553,-0.423456 l -0.458553,-0.186113 -0.91336,0.356716 c -0.502348,0.196194 -1.179299,0.460276 -1.504337,0.58685 -0.325037,0.126573 -0.79993,0.29294 -1.055317,0.369705 -0.575109,0.172869 -1.383798,0.649769 -1.419925,0.837359 -0.03704,0.192336 0.355905,0.565895 0.595262,0.565895 0.107863,0 0.271054,-0.05187 0.362645,-0.115266 z m 0.969914,-2.03179 c 1.322035,-0.469276 2.068145,-0.764991 2.446992,-0.969847 0.368932,-0.199494 0.362389,-0.257527 -0.166879,-1.480194 C 38.34759,37.434268 37.929969,36.292688 37.64162,35.410443 37.353271,34.528198 37.022433,33.635399 36.906425,33.426446 36.443516,32.592656 35.67704,30.6482 35.485183,29.820929 35.412083,29.50574 35.188488,28.943822 34.988299,28.572222 34.57965,27.81367 33.882688,25.713205 33.765824,24.888001 c -0.08592,-0.606689 -0.679653,-2.396073 -0.943321,-2.842956 -0.09435,-0.159916 -0.224502,-0.517741 -0.289221,-0.795166 -0.06472,-0.277426 -0.136589,-0.523329 -0.159711,-0.546451 -0.02312,-0.02312 -0.168058,-0.0035 -0.32208,0.04359 -0.154021,0.0471 -0.545979,0.131641 -0.871016,0.187871 -0.325038,0.05623 -0.780935,0.187489 -1.013105,0.291685 -0.232169,0.104196 -0.707062,0.236854 -1.055317,0.294798 -1.074311,0.178745 -1.117746,0.26655 -0.600962,1.214867 0.180244,0.330754 0.351834,0.738017 0.381312,0.905028 0.02948,0.167011 0.18106,0.622908 0.33685,1.013104 0.155789,0.390197 0.309437,0.950651 0.341439,1.245454 0.032,0.294804 0.187023,0.921662 0.344489,1.393019 0.157466,0.471357 0.365644,1.301274 0.462617,1.844261 0.171066,0.957861 0.421668,1.820482 0.722604,2.487348 0.08055,0.1785 0.288383,0.628476 0.461849,0.999947 0.173466,0.371472 0.3424,0.837293 0.37541,1.035158 0.03301,0.197866 0.266487,0.767737 0.518839,1.266381 0.252353,0.498644 0.576335,1.172565 0.71996,1.497603 0.143626,0.325038 0.337056,0.761939 0.429844,0.970892 0.09279,0.208953 0.367489,0.645854 0.610447,0.970892 0.49589,0.663417 0.600106,0.901753 0.675164,1.544068 0.05806,0.496877 0.175367,0.862055 0.276912,0.862055 0.03671,0 0.54104,-0.168356 1.120726,-0.374124 z m -8.40977,-19.547476 c 0.265469,-0.09133 0.717816,-0.207666 1.005215,-0.258514 0.287399,-0.05085 0.750493,-0.181914 1.029096,-0.291258 0.278604,-0.109344 0.838477,-0.255584 1.244163,-0.324979 1.030402,-0.176256 1.337288,-0.342441 1.507869,-0.816544 0.07518,-0.208953 0.162091,-0.485552 0.193136,-0.614666 l 0.05645,-0.234753 -0.572128,0.04998 c -1.508737,0.131803 -2.430798,0.310041 -3.285718,0.635141 -0.481843,0.183231 -0.92321,0.333518 -0.980815,0.333972 -0.05761,4.22e-4 -0.302442,0.09287 -0.544082,0.205378 -0.356252,0.165866 -0.453586,0.257524 -0.514634,0.484621 -0.08176,0.304128 -0.0055,0.608231 0.213113,0.849784 0.160817,0.177701 0.0718,0.180195 0.648339,-0.01816 z m -7.723091,-0.935048 c 0.344805,-0.09127 0.691078,-0.224013 0.769495,-0.294979 0.07842,-0.07097 0.470992,-0.192343 0.872388,-0.269724 0.617375,-0.119016 0.791393,-0.191581 1.129534,-0.471004 0.421376,-0.348204 1.43614,-0.890146 2.004889,-1.070723 0.185735,-0.05897 0.365941,-0.123313 0.400458,-0.142982 0.07087,-0.04038 -0.935777,-0.920576 -1.339597,-1.171322 -0.598917,-0.371888 -0.971609,-0.643034 -1.369127,-0.996087 -0.404599,-0.359341 -0.433326,-0.370427 -0.786555,-0.303542 -0.201641,0.03818 -0.504249,0.127399 -0.672463,0.198264 -0.173876,0.07325 -0.702085,0.150165 -1.224167,0.17826 -0.984964,0.053 -1.879349,0.255478 -1.950782,0.441628 -0.02418,0.06301 0.07295,0.426211 0.215834,0.807116 0.314332,0.837938 0.549132,1.647111 0.739913,2.549912 0.173583,0.821411 0.177981,0.829752 0.402833,0.763941 0.09924,-0.02904 0.462542,-0.127486 0.807347,-0.218758 z m 8.078122,-1.143032 c 0.598566,-0.212732 1.202277,-0.423004 1.341579,-0.467271 0.41101,-0.13061 1.575737,-0.324664 1.958734,-0.326343 0.443628,-0.0019 1.207217,-0.161614 1.207217,-0.252431 0,-0.12411 -0.441875,-2.323457 -0.473881,-2.358651 -0.01728,-0.019 -0.25173,0.170952 -0.520995,0.422126 -0.269265,0.251174 -0.677953,0.63002 -0.908197,0.841882 -0.230244,0.211861 -0.632579,0.619426 -0.894079,0.9057 l -0.475453,0.520499 -0.706502,-0.04825 c -0.388575,-0.02654 -0.915987,-0.07913 -1.172026,-0.116866 -0.480194,-0.07078 -0.927493,-0.02976 -0.927493,0.08506 0,0.03595 0.07515,0.230976 0.166996,0.433392 0.09185,0.202415 0.167831,0.453508 0.168851,0.557984 0.001,0.104477 0.0345,0.189957 0.0744,0.189957 0.0399,0 0.562281,-0.174054 1.160849,-0.386785 z m 1.330059,-1.538375 c 0.122379,-0.176593 0.439697,-0.509018 0.705153,-0.738722 0.265454,-0.229704 0.835508,-0.75612 1.266785,-1.169815 0.891313,-0.854973 0.910348,-0.898009 0.982329,-2.220833 0.02725,-0.50086 0.09855,-0.962208 0.170082,-1.100529 0.06774,-0.130988 0.344845,-0.414458 0.615798,-0.629935 0.270953,-0.215477 0.58762,-0.480258 0.703705,-0.588402 0.402172,-0.374661 1.665827,-1.463205 1.959737,-1.688166 C 36.209429,8.91256 36.320337,8.713414 36.571463,8.014246 36.978799,6.880169 36.973662,6.70482 36.520383,6.270678 36.323035,6.081667 35.953083,5.765382 35.698264,5.567822 35.443444,5.3702617 35.188546,5.1423625 35.131823,5.0613791 35.039908,4.930152 34.89746,4.91783 33.822198,4.9480934 c -0.66357,0.018676 -1.510423,0.077318 -1.881895,0.1303143 -1.129074,0.1610808 -1.284377,0.1404176 -1.932691,-0.2571478 -0.320037,-0.1962558 -0.60067,-0.3380439 -0.62363,-0.3150846 -0.127458,0.1274586 0.112273,2.4853477 0.268583,2.6416577 0.02055,0.02055 0.308704,-0.0047 0.640345,-0.05619 0.331641,-0.05146 0.638521,-0.07159 0.681955,-0.04475 0.144951,0.08958 0.08143,0.400739 -0.174304,0.853884 -0.139302,0.246829 -0.253276,0.501734 -0.253276,0.566455 0,0.135946 0.272498,0.252177 0.928679,0.396116 0.798154,0.175082 0.839805,0.302377 0.334593,1.022607 l -0.340811,0.485859 0.361917,0.230582 c 0.440243,0.280484 0.575151,0.431862 0.517881,0.581106 -0.05865,0.152844 -1.141026,1.015138 -1.653555,1.317335 -0.227011,0.133851 -0.678269,0.314577 -1.002797,0.401616 -0.324528,0.08704 -0.599713,0.172079 -0.611523,0.188974 -0.653129,0.934483 -1.722647,1.536639 -2.238727,1.260442 -0.136731,-0.07318 -0.323317,-0.0568 -0.832037,0.07305 -0.360679,0.09206 -1.197422,0.238932 -1.859427,0.326392 -0.662007,0.08746 -1.226184,0.181552 -1.253729,0.209097 -0.02754,0.02754 -0.02698,0.08746 0.0013,0.133156 0.07441,0.120402 1.229439,0.977835 1.527435,1.133889 0.139302,0.07295 0.424237,0.289167 0.63319,0.480482 0.771677,0.70654 0.936732,0.776093 1.71431,0.722397 0.380497,-0.02628 0.976749,-0.01425 1.325003,0.02673 1.188281,0.139811 1.217091,0.135416 1.465925,-0.223651 z m 4.28053,-2.109002 c 0.634199,-0.475722 1.073805,-0.621232 2.004082,-0.663351 0.663746,-0.03005 0.905741,-0.08452 1.561869,-0.351525 0.768807,-0.312862 0.776682,-0.319034 0.802536,-0.629004 0.02595,-0.311162 -0.311993,-1.050048 -0.78173,-1.709178 -0.373126,-0.523564 -0.908006,-1.500282 -1.004931,-1.835053 -0.05528,-0.190944 -0.137875,-0.359625 -0.183536,-0.374845 -0.07861,-0.0262 -0.449679,0.276759 -1.740049,1.420688 -0.308219,0.27324 -0.753114,0.653568 -0.988656,0.845172 -0.466809,0.379732 -0.476523,0.408143 -0.558145,1.632546 -0.02167,0.325038 -0.06517,0.939 -0.09667,1.36436 -0.0315,0.425361 -0.03178,0.839801 -5.91e-4,0.920979 0.05132,0.133743 0.07819,0.128078 0.286314,-0.06037 0.126321,-0.114381 0.441116,-0.366569 0.699543,-0.560419 z m -15.455372,0.170248 c 0.355119,-0.112539 0.88111,-0.189158 1.490582,-0.217129 0.624608,-0.02867 1.029886,-0.08877 1.203302,-0.178441 0.143817,-0.07437 0.533013,-0.162682 0.86488,-0.196246 l 0.603394,-0.06103 0.160562,-0.46434 c 0.272437,-0.787876 0.268767,-0.759266 0.09835,-0.766742 -0.08668,-0.0038 -0.376201,-0.0011 -0.64339,0.006 -0.39093,0.01038 -0.496785,-0.01573 -0.542061,-0.133717 -0.0587,-0.152983 0.268286,-0.860115 0.63326,-1.36945 0.110323,-0.15396 0.181868,-0.298647 0.158988,-0.321527 -0.02288,-0.02288 -0.416128,-0.08314 -0.873886,-0.133918 -1.24264,-0.137834 -1.317684,-0.362612 -0.329434,-0.986749 0.30158,-0.190464 0.579988,-0.346299 0.618685,-0.346299 0.0387,0 0.140402,-0.05122 0.226011,-0.113816 0.148443,-0.108545 0.143612,-0.131027 -0.104309,-0.485446 -0.434284,-0.620836 -1.211318,-1.35386 -1.264863,-1.193223 -0.09326,0.279792 -0.717946,1.124756 -1.001825,1.355099 -1.438708,1.167383 -3.254345,2.463595 -3.450824,2.463595 -0.05804,0 -0.164095,0.302948 -0.250955,0.716852 l -0.150436,0.716852 0.2379,0.317359 c 0.331835,0.442667 1.580476,1.624199 1.682876,1.592427 0.04643,-0.01441 0.33137,-0.104451 0.63319,-0.200099 z m 6.12084,-1.073274 c 0.464339,-0.06702 1.139708,-0.20008 1.500818,-0.295698 0.479898,-0.127071 0.699896,-0.15066 0.817598,-0.08767 0.194772,0.104238 0.256557,0.10835 0.256557,0.01707 0,-0.03801 -0.112956,-0.12349 -0.251015,-0.189957 -0.168982,-0.08136 -0.444819,-0.424345 -0.844042,-1.049528 -0.326164,-0.510773 -0.593122,-0.970988 -0.593238,-1.022698 -4.22e-4,-0.173353 0.432851,-0.529383 0.827675,-0.680167 0.215107,-0.08215 0.523773,-0.217003 0.685926,-0.299672 0.162152,-0.08267 0.378618,-0.15031 0.481035,-0.15031 0.237046,0 0.921164,0.290922 1.005676,0.427666 0.03533,0.05717 0.05647,0.554199 0.04698,1.104517 -0.0095,0.550318 0.0021,1.000578 0.02565,1.000578 0.0236,0 0.131136,-0.08823 0.238974,-0.196069 0.116375,-0.116374 0.430949,-0.255069 0.773934,-0.341224 0.317826,-0.07984 0.7162,-0.215729 0.885276,-0.301984 0.360011,-0.183664 1.276134,-0.921196 1.276134,-1.027362 0,-0.04016 -0.15378,-0.170103 -0.341734,-0.288754 -0.187954,-0.11865 -0.36068,-0.265097 -0.383835,-0.325439 -0.02316,-0.06034 0.09263,-0.314294 0.257309,-0.56434 0.164675,-0.250047 0.29941,-0.480828 0.29941,-0.512847 0,-0.03202 -0.275438,-0.142188 -0.612084,-0.244819 -0.771337,-0.235152 -0.932346,-0.366724 -0.85876,-0.701759 0.03036,-0.138252 0.126641,-0.368508 0.213947,-0.511679 0.08731,-0.14317 0.158878,-0.291537 0.159051,-0.329704 1.69e-4,-0.03817 -0.199139,-0.04452 -0.442917,-0.01411 -0.39495,0.04926 -0.4627,0.03383 -0.621924,-0.141669 -0.20995,-0.231408 -0.4545,-1.555944 -0.4545,-2.4616681 0,-0.8651002 -0.270744,-0.8543631 -0.876101,0.034744 C 27.837668,5.2797882 27.50638,5.68826 27.246476,5.974533 26.85921,6.401089 26.706835,6.508665 26.402222,6.570574 c -1.99746,0.405963 -2.051582,0.422049 -2.294471,0.681941 -0.29256,0.313037 -0.422305,0.318244 -1.859042,0.0746 -1.258164,-0.21336 -1.320941,-0.193488 -1.163637,0.368345 0.07234,0.258358 0.187921,0.424306 0.393785,0.565367 0.160268,0.109817 0.430111,0.39373 0.599651,0.630918 0.169539,0.237187 0.419274,0.550658 0.554964,0.696599 0.332188,0.357285 0.2293,0.534869 -0.532018,0.918263 -0.323229,0.162776 -0.587689,0.329904 -0.587689,0.371397 0,0.08385 0.701916,0.206154 1.224168,0.213302 0.299787,0.0041 0.340573,0.02937 0.363278,0.225002 0.01606,0.138363 -0.05056,0.311173 -0.179006,0.46434 -0.242575,0.289265 -0.564186,0.872788 -0.564186,1.023644 0,0.07511 0.162298,0.106782 0.547156,0.106782 0.507846,0 0.550827,0.01463 0.598247,0.20356 0.03093,0.12324 -0.0184,0.360663 -0.12503,0.60171 -0.313229,0.708107 -0.3038,0.712312 1.132474,0.505019 z m 3.208164,-1.077988 c 0.05731,-0.05867 0.01665,-0.06955 -0.126638,-0.03388 -0.116085,0.0289 -0.287047,0.05365 -0.379915,0.05499 -0.139825,0.002 -0.147081,0.0164 -0.04221,0.08365 0.136531,0.08755 0.41233,0.0349 0.548765,-0.104766 z m -0.172823,-0.66798 c 0.11827,-0.05389 0.215035,-0.120372 0.215033,-0.147744 -2e-6,-0.02737 -0.136757,-0.158884 -0.303899,-0.292247 -0.167144,-0.133364 -0.355613,-0.361313 -0.41882,-0.506552 l -0.114923,-0.264073 -0.0033,0.262599 c -0.0018,0.144429 -0.02746,0.438863 -0.05699,0.654297 l -0.05369,0.391697 h 0.260779 c 0.143429,0 0.357546,-0.04409 0.475816,-0.09798 z m -1.220196,-0.743627 c 0,-0.188093 -0.0316,-0.238501 -0.126638,-0.202031 -0.138378,0.0531 -0.153275,0.116156 -0.07539,0.319115 0.08427,0.219608 0.202031,0.151363 0.202031,-0.117084 z m -9.189863,-0.704844 c 0.923403,-0.660156 2.068661,-1.537307 2.379365,-1.82235 0.131461,-0.120605 0.370155,-0.45311 0.53043,-0.738901 0.160275,-0.285792 0.345537,-0.564543 0.411693,-0.619448 0.07838,-0.06505 0.103218,-0.18515 0.0713,-0.344752 -0.04812,-0.240605 0.06306,-0.495017 0.335273,-0.767236 C 20.97,6.62846 21.176071,5.90164 21.176071,5.634317 c 0,-0.119873 -0.878779,-0.0323 -1.322575,0.131805 -0.178046,0.06583 -0.45669,0.168669 -0.619209,0.22852 -0.162519,0.05985 -0.621033,0.234014 -1.01892,0.387029 -0.397887,0.153016 -1.214702,0.415298 -1.815145,0.582849 -0.600443,0.167551 -1.144407,0.321159 -1.20881,0.341351 -0.224469,0.07038 -0.06136,0.976531 0.31409,1.744945 0.363839,0.744648 0.689472,1.802802 0.689472,2.240463 0,0.161947 0.042,0.266734 0.105532,0.263312 0.05804,-0.0031 0.434084,-0.240574 0.835649,-0.527659 z m 10.779787,0.226686 c -0.04124,-0.214136 -0.323543,-0.261358 -0.323543,-0.05412 0,0.202723 0.178019,0.385379 0.278078,0.285319 0.0415,-0.0415 0.06196,-0.145541 0.04547,-0.2312 z M 23.831064,6.787877 c 0.193457,-0.147556 0.576053,-0.27848 1.239641,-0.424201 0.527902,-0.115925 1.076376,-0.238333 1.218829,-0.272018 0.284828,-0.06735 1.171299,-0.9861245 1.478045,-1.5319049 0.09814,-0.1746143 0.288828,-0.3826914 0.423753,-0.4623937 0.134925,-0.079702 0.245318,-0.1734434 0.245318,-0.2083136 0,-0.1362125 -0.788244,-0.6147186 -0.94507,-0.5737077 -0.152475,0.039873 -0.724972,-0.061711 -2.471828,-0.4386033 L 24.262253,2.713301 23.929659,3.0632643 C 23.746733,3.255744 23.167482,3.8501288 22.642436,4.3841192 l -0.95463,0.9708918 -0.09492,0.621072 c -0.06783,0.443861 -0.06896,0.64703 -0.0039,0.712048 0.09155,0.09155 1.161375,0.284287 1.682276,0.303075 0.181186,0.0065 0.378776,-0.06523 0.559835,-0.203329 z m 8.03217,-2.1921967 c 0.460294,-0.069377 1.314956,-0.1263643 1.89925,-0.126638 0.584294,-2.702e-4 1.082212,-0.020357 1.106484,-0.04463 0.08594,-0.085942 -0.468287,-2.5169084 -0.693727,-3.0428402 -0.148687,-0.3468724 -0.18205,-0.3742555 -0.3966,-0.3255163 -0.128841,0.029269 -0.405217,0.1387033 -0.61417,0.2431879 -0.535028,0.2675352 -1.604898,0.601907 -2.448336,0.7651906 -1.141676,0.2210207 -1.923971,0.4415118 -2.283607,0.6436385 -0.183468,0.1031151 -0.333579,0.2130987 -0.333579,0.2444081 0,0.049721 0.825758,0.6414553 1.055317,0.7562351 0.04643,0.023217 0.350365,0.2175621 0.675403,0.431878 1.020601,0.6729408 0.846569,0.6339945 2.033565,0.4550863 z"
       id="path249" /><path
       style="fill:#ffffff;fill-rule:evenodd;stroke-width:0.0298489"
       d="m 27.486774,9.046906 c -0.307766,-0.07763 -0.419983,-0.372148 -0.248951,-0.653388 0.0722,-0.118725 0.22431,-0.214666 0.340575,-0.214815 0.117285,-1.49e-4 0.320738,0.101485 0.432989,0.216298 0.06763,0.06917 0.0912,0.120992 0.09084,0.199679 -5.76e-4,0.124472 -0.102268,0.316517 -0.208452,0.393657 -0.08865,0.06441 -0.27662,0.09145 -0.406999,0.05857 z"
       id="path251" /><path
       style="fill:#ffffff;fill-rule:evenodd;stroke-width:0.0298489"
       d="m 24.669902,9.941636 c -0.144648,-0.044 -0.264396,-0.121375 -0.329634,-0.212994 -0.115583,-0.162321 -0.06812,-0.498831 0.09022,-0.639659 0.09235,-0.08214 0.408684,-0.07716 0.597886,0.0094 0.164452,0.07524 0.292044,0.204112 0.300995,0.304013 0.02108,0.235275 -0.03565,0.322301 -0.308098,0.47266 -0.175894,0.09707 -0.222252,0.105857 -0.351369,0.06658 z"
       id="path253" /><path
       style="fill:#ffffff;fill-rule:evenodd;stroke-width:0.0298489"
       d="m 25.915016,10.42472 c -0.10725,-0.0816 -0.20021,-0.252204 -0.20021,-0.367442 0,-0.07621 0.106296,-0.289833 0.189923,-0.381685 0.152828,-0.167857 0.531877,-0.263625 0.843003,-0.212988 0.201862,0.03285 0.460733,0.168774 0.510675,0.268129 0.04452,0.08857 0.04998,0.323803 0.01,0.429051 -0.03858,0.101468 -0.134985,0.147664 -0.259437,0.124317 -0.08419,-0.01579 -0.114079,-0.0431 -0.167485,-0.153029 -0.08304,-0.170926 -0.15889,-0.192183 -0.350337,-0.09819 -0.145412,0.07139 -0.178176,0.121281 -0.178926,0.272438 -5.28e-4,0.106336 -0.09712,0.20148 -0.204544,0.20148 -0.04661,0 -0.133291,-0.03694 -0.192631,-0.08209 z"
       id="path255" /><path
       style="fill:#ffffff;fill-rule:evenodd;stroke-width:0.0298489"
       d="m 33.121937,8.308369 c -0.194704,-0.09836 -0.181111,-0.277296 0.03051,-0.40163 0.0747,-0.04389 0.18131,-0.0896 0.236907,-0.101586 0.0556,-0.01198 0.134665,-0.0387 0.175707,-0.05937 0.04104,-0.02067 0.182078,-0.06494 0.313413,-0.09837 0.260314,-0.06627 0.448726,-0.138498 0.475883,-0.182439 0.0095,-0.0154 0.06081,-0.0373 0.113975,-0.04867 0.05317,-0.01137 0.110098,-0.03024 0.126515,-0.04193 0.01642,-0.01169 0.09701,-0.04534 0.179093,-0.07478 0.08208,-0.02943 0.178683,-0.07184 0.214663,-0.09423 0.03598,-0.0224 0.116572,-0.05986 0.179093,-0.08325 0.06252,-0.02339 0.287833,-0.110904 0.500692,-0.194471 0.498944,-0.195882 0.583211,-0.198084 0.643037,-0.01681 0.02616,0.07926 0.02385,0.117706 -0.01113,0.185357 -0.04793,0.09269 -0.271339,0.227313 -0.434569,0.26187 -0.05619,0.0119 -0.22312,0.0805 -0.370945,0.152445 -0.147824,0.07195 -0.29246,0.130814 -0.321412,0.130814 -0.02895,0 -0.06034,0.01245 -0.06974,0.02767 -0.0094,0.01522 -0.06729,0.0438 -0.12862,0.06352 -0.06133,0.01972 -0.219357,0.08757 -0.351161,0.15078 -0.276747,0.132725 -1.118495,0.426007 -1.327422,0.462501 -0.04104,0.0072 -0.11956,-0.0097 -0.174483,-0.03742 z"
       id="path257" /><path
       style="fill:#ffffff;fill-rule:evenodd;stroke-width:0.0298489"
       d="m 37.385731,13.547705 c -0.04103,-0.01636 -0.102756,-0.05619 -0.137161,-0.08852 -0.07395,-0.06948 -0.276284,-0.176439 -0.333752,-0.176439 -0.02222,0 -0.103325,-0.0251 -0.180244,-0.05579 -0.07692,-0.03068 -0.244657,-0.08012 -0.37275,-0.109857 -0.128093,-0.02974 -0.23922,-0.0643 -0.246949,-0.07681 -0.0077,-0.01251 -0.07754,-0.03122 -0.155139,-0.04159 -0.0776,-0.01037 -0.204818,-0.04507 -0.282713,-0.07711 -0.07789,-0.03204 -0.277993,-0.07865 -0.444663,-0.103567 -0.166669,-0.02492 -0.324565,-0.05631 -0.350879,-0.06974 -0.02631,-0.01344 -0.119784,-0.03254 -0.207711,-0.04244 -0.08793,-0.0099 -0.175235,-0.03067 -0.194018,-0.04613 -0.01878,-0.01547 -0.113699,-0.04277 -0.210925,-0.06067 -0.21828,-0.04019 -0.308214,-0.09693 -0.363562,-0.2294 -0.03762,-0.09004 -0.03728,-0.113304 0.0028,-0.190811 0.0251,-0.04855 0.07367,-0.103268 0.107922,-0.121599 0.08433,-0.04513 0.323196,-0.02127 0.593781,0.05932 0.228392,0.06802 0.582937,0.142191 0.850693,0.177957 0.08209,0.01097 0.165635,0.03015 0.185667,0.04264 0.02003,0.01249 0.147636,0.05064 0.283564,0.08478 0.135928,0.03414 0.283413,0.08061 0.327744,0.103259 0.04433,0.02265 0.124924,0.04126 0.179094,0.04137 0.05417,1.01e-4 0.134742,0.0191 0.17905,0.04221 0.09536,0.04975 0.38521,0.136697 0.455701,0.136697 0.06718,0 0.367395,0.142988 0.482788,0.229944 0.10377,0.0782 0.249529,0.28209 0.249529,0.34905 0,0.07473 -0.101268,0.223011 -0.163777,0.239811 -0.08576,0.02305 -0.168219,0.01767 -0.254092,-0.01657 z"
       id="path259" /><path
       style="fill:#ffffff;fill-rule:evenodd;stroke-width:0.0298489"
       d="m 28.690613,17.013124 c -0.04226,-0.03324 -0.09596,-0.09704 -0.119332,-0.141782 -0.108502,-0.207665 -0.214454,-0.377514 -0.278812,-0.446957 -0.0387,-0.04175 -0.07036,-0.08936 -0.07036,-0.105781 0,-0.01642 -0.04439,-0.09841 -0.09864,-0.182197 -0.05425,-0.08378 -0.124044,-0.212778 -0.155093,-0.286654 -0.03105,-0.07388 -0.0791,-0.1679 -0.106771,-0.208942 -0.06809,-0.100974 -0.146928,-0.340743 -0.146928,-0.446833 0,-0.202905 0.150586,-0.352513 0.313628,-0.311592 0.08382,0.02104 0.193253,0.143327 0.194816,0.217709 5.57e-4,0.02651 0.02697,0.101938 0.05869,0.167605 0.03172,0.06567 0.05813,0.131679 0.05869,0.146691 0.0013,0.03543 0.195262,0.426795 0.262518,0.529734 0.02855,0.04369 0.09104,0.144435 0.13887,0.223866 0.04783,0.07943 0.09488,0.151136 0.104565,0.159344 0.07585,0.06431 0.222405,0.365 0.23408,0.480253 0.01236,0.122049 0.0049,0.144025 -0.06811,0.20148 -0.102749,0.08082 -0.222297,0.08233 -0.321805,0.0041 z"
       id="path261" /><path
       style="fill:#ffffff;fill-rule:evenodd;stroke-width:0.0298489"
       d="m 20.192764,18.903312 c -0.08007,-0.0289 -0.147902,-0.141 -0.148581,-0.245538 -6.27e-4,-0.09652 0.192533,-0.542261 0.244569,-0.56438 0.01287,-0.0055 0.02341,-0.02878 0.02341,-0.0518 0,-0.02302 0.0392,-0.11928 0.0871,-0.213917 0.1933,-0.381862 0.390481,-0.802778 0.390481,-0.83355 0,-0.01796 0.02015,-0.04938 0.04477,-0.06981 0.02463,-0.02044 0.04477,-0.06142 0.04477,-0.09107 0,-0.02965 0.02015,-0.07406 0.04477,-0.09868 0.02463,-0.02463 0.04477,-0.06408 0.04477,-0.08769 0,-0.0236 0.0668,-0.115228 0.148445,-0.203612 0.08164,-0.08838 0.148804,-0.173268 0.149244,-0.188631 0.0012,-0.04366 0.375585,-0.396491 0.475427,-0.448122 0.126344,-0.06534 0.200681,-0.05789 0.31836,0.03186 0.08043,0.06134 0.102479,0.09947 0.102479,0.17715 0,0.151326 -0.03916,0.218598 -0.267191,0.458967 -0.115715,0.121977 -0.210391,0.230228 -0.210391,0.240557 0,0.01033 -0.05658,0.08281 -0.125736,0.161064 -0.08633,0.09769 -0.150194,0.214067 -0.203783,0.371345 -0.09627,0.282552 -0.580907,1.26597 -0.658469,1.336163 -0.0312,0.02823 -0.05672,0.0694 -0.05672,0.09148 0,0.02208 -0.01318,0.04015 -0.02928,0.04015 -0.0161,0 -0.03796,0.03456 -0.04856,0.0768 -0.0274,0.109175 -0.217385,0.166323 -0.369897,0.111268 z"
       id="path263" /><path
       style="fill:#ffffff;fill-rule:evenodd;stroke-width:0.0298489"
       d="m 17.268935,13.648983 c -0.08706,-0.03427 -0.153409,-0.12159 -0.169979,-0.223698 -0.01406,-0.08663 -0.0024,-0.120386 0.06837,-0.197507 0.07838,-0.08545 0.112038,-0.09682 0.413663,-0.139729 0.180586,-0.02569 0.40893,-0.07299 0.507431,-0.105105 0.0985,-0.03212 0.221954,-0.05839 0.27434,-0.05839 0.05239,4e-6 0.102827,-0.01226 0.11209,-0.02725 0.0093,-0.01499 0.07043,-0.03631 0.135925,-0.04737 0.0655,-0.01107 0.126662,-0.03238 0.135925,-0.04737 0.0093,-0.01499 0.03753,-0.02725 0.06281,-0.02725 0.02528,0 0.08829,-0.0187 0.14002,-0.04156 0.20778,-0.09181 0.62942,-0.217018 0.870129,-0.258393 0.0985,-0.01693 0.252969,-0.05819 0.343262,-0.09169 0.09029,-0.0335 0.208203,-0.07193 0.262024,-0.0854 0.05382,-0.01347 0.114264,-0.03769 0.13432,-0.05384 0.109379,-0.08805 0.51919,-0.09694 0.551354,-0.01196 0.01048,0.02768 0.03783,0.06932 0.06079,0.09253 0.07313,0.07395 -0.0036,0.301065 -0.101747,0.301065 -0.02262,0 -0.04112,0.01376 -0.04112,0.03059 0,0.03297 -0.01949,0.04161 -0.447733,0.198587 -0.279942,0.102615 -0.485166,0.158797 -0.80592,0.220626 -0.151201,0.02915 -0.72109,0.210533 -0.832609,0.265006 -0.08579,0.04191 -0.254256,0.09629 -0.376683,0.121604 -0.0659,0.01362 -0.193499,0.05206 -0.283565,0.0854 -0.276367,0.102331 -0.861592,0.16073 -1.013087,0.101094 z"
       id="path265" /><path
       style="fill:#ffffff;fill-rule:evenodd;stroke-width:0.0298489"
       d="M 17.939174,8.994652 C 17.606256,8.913246 17.482417,8.864921 16.955598,8.610841 16.377495,8.332028 16.255393,8.260643 16.017549,8.062426 15.73966,7.830837 15.67276,7.642992 15.825407,7.52292 c 0.103077,-0.08108 0.220153,-0.05881 0.382532,0.07277 0.364929,0.295703 0.575907,0.432185 0.925315,0.59859 0.213419,0.10164 0.435047,0.199358 0.492506,0.217151 0.271141,0.08396 0.559252,0.155392 0.626827,0.155407 0.07608,1.8e-5 0.265819,0.09955 0.305494,0.160257 0.04369,0.06685 0.02134,0.188728 -0.04624,0.252218 -0.08311,0.07808 -0.293088,0.08371 -0.572667,0.015339 z"
       id="path267" /><path
       style="fill:#ffffff;fill-rule:evenodd;stroke-width:0.0298489"
       d="m 24.5162,5.3054893 c -0.101077,-0.085444 -0.133565,-0.1521509 -0.160017,-0.3285564 -0.01172,-0.078182 -0.03203,-0.1487704 -0.04512,-0.156863 -0.01309,-0.00809 -0.03295,-0.071729 -0.04412,-0.1414151 -0.01117,-0.069686 -0.05264,-0.2435038 -0.09214,-0.3862624 -0.0897,-0.3241267 -0.09024,-0.4171594 -0.003,-0.5185763 0.1529,-0.177757 0.339856,-0.067553 0.423633,0.249716 0.02906,0.1100461 0.07626,0.2739597 0.104898,0.3642526 0.129448,0.408173 0.148862,0.495925 0.148862,0.6728609 0,0.1680049 -0.0085,0.1951276 -0.07865,0.2502878 -0.100429,0.078997 -0.155853,0.077811 -0.254341,-0.00544 z"
       id="path269" /><path
       style="fill:#ffffff;fill-rule:evenodd;stroke-width:0.0596978"
       d="m 31.351268,3.9599508 c -0.02189,-0.021889 -0.0398,-0.097349 -0.0398,-0.1676896 0,-0.226636 1.553389,-2.0013287 1.751764,-2.0013287 0.118341,0 0.218261,0.1304517 0.218261,0.2849526 0,0.094955 -0.152652,0.3026548 -0.462889,0.6298112 -0.25459,0.2684733 -0.529946,0.5785807 -0.611902,0.6891274 -0.357524,0.4822441 -0.48989,0.6049256 -0.652678,0.6049256 -0.08963,0 -0.180869,-0.017909 -0.202758,-0.039798 z"
       id="path271" /></g></svg>
