<?xml version="1.0" encoding="UTF-8" standalone="no"?>
<svg
   version="1.1"
   preserveAspectRatio="none"
   x="0px"
   y="0px"
   width="100px"
   height="100px"
   viewBox="0 0 100 100"
   id="svg38"
   sodipodi:docname="Vector Source0053.svg"
   inkscape:version="1.2.1 (9c6d41e410, 2022-07-14)"
   xmlns:inkscape="http://www.inkscape.org/namespaces/inkscape"
   xmlns:sodipodi="http://sodipodi.sourceforge.net/DTD/sodipodi-0.dtd"
   xmlns:xlink="http://www.w3.org/1999/xlink"
   xmlns="http://www.w3.org/2000/svg"
   xmlns:svg="http://www.w3.org/2000/svg">
  <sodipodi:namedview
     id="namedview40"
     pagecolor="#ffffff"
     bordercolor="#000000"
     borderopacity="0.25"
     inkscape:showpageshadow="2"
     inkscape:pageopacity="0.0"
     inkscape:pagecheckerboard="0"
     inkscape:deskcolor="#d1d1d1"
     showgrid="false"
     inkscape:zoom="10.27"
     inkscape:cx="42.55112"
     inkscape:cy="50"
     inkscape:window-width="2400"
     inkscape:window-height="1261"
     inkscape:window-x="5591"
     inkscape:window-y="431"
     inkscape:window-maximized="1"
     inkscape:current-layer="svg38" />
  <defs
     id="defs20">
    <g
       id="Layer3_0_FILL">
      <path
         fill="#353535"
         stroke="none"
         d=" M 84.95 77.8 Q 83.7 50.5 84.95 23.15 84.95 17.3 79.1 17.3 L 21.9 17.3 Q 16.05 17.3 16.05 23.15 17.3 50.5 16.05 77.8 16.05 83.65 21.9 83.65 L 79.1 83.65 Q 84.95 83.65 84.95 77.8 M 54.15 26.45 L 55.4 26.45 71.55 26.45 Q 75.8 26.45 75.8 30.7 74.65 50.5 75.8 70.25 75.8 74.45 71.55 74.45 L 55.4 74.45 54.15 74.45 29.45 74.45 Q 25.2 74.45 25.2 70.25 26.35 50.5 25.2 30.7 25.2 26.45 29.45 26.45 L 54.15 26.45 Z"
         id="path2" />
      <path
         fill="#595959"
         stroke="none"
         d=" M 55.4 26.45 L 54.15 26.45 29.45 26.45 Q 25.2 26.45 25.2 30.7 26.35 50.5 25.2 70.25 25.2 74.45 29.45 74.45 L 54.15 74.45 55.4 74.45 71.55 74.45 Q 75.8 74.45 75.8 70.25 74.65 50.5 75.8 30.7 75.8 26.45 71.55 26.45 L 55.4 26.45 M 51.5 35.7 Q 53.35 35.7 55 36.2 56.6 36.7 57.85 37.7 59.05 38.7 59.8 40.2 60.5 41.65 60.5 43.6 60.5 44.75 60.25 45.7 60 46.65 59.45 47.55 58.85 48.5 57.9 49.4 57 50.35 55.55 51.45 54.6 52.2 54.3 52.9 54 53.55 54 54.25 L 54 55.4 48 55.4 48 53.65 Q 48 52.45 48.3 51.6 48.65 50.75 49.4 50.05 50.5 48.95 51.45 48.15 52.4 47.35 53.05 46.65 53.75 45.95 54.15 45.35 54.5 44.7 54.5 44.05 54.5 42.7 53.7 42 52.85 41.25 51.65 41.25 49.75 41.25 48.75 42.25 47.8 43.3 47.65 44.8 L 41.5 44.4 Q 41.95 40.15 44.6 37.95 47.3 35.7 51.5 35.7 M 51 57.6 Q 51.75 57.6 52.4 57.9 53.1 58.2 53.6 58.7 54.1 59.2 54.4 59.85 54.65 60.55 54.65 61.3 54.65 62.05 54.4 62.75 54.1 63.4 53.6 63.95 53.1 64.4 52.4 64.7 51.75 65 51 65 50.25 65 49.55 64.7 48.85 64.4 48.35 63.95 47.85 63.4 47.55 62.75 47.3 62.05 47.3 61.3 47.3 60.55 47.55 59.85 47.85 59.2 48.35 58.7 48.85 58.2 49.55 57.9 50.25 57.6 51 57.6 Z"
         id="path4" />
      <path
         fill="#CDCDCD"
         stroke="none"
         d=" M 52.4 57.9 Q 51.75 57.6 51 57.6 50.25 57.6 49.55 57.9 48.85 58.2 48.35 58.7 47.85 59.2 47.55 59.85 47.3 60.55 47.3 61.3 47.3 62.05 47.55 62.75 47.85 63.4 48.35 63.95 48.85 64.4 49.55 64.7 50.25 65 51 65 51.75 65 52.4 64.7 53.1 64.4 53.6 63.95 54.1 63.4 54.4 62.75 54.65 62.05 54.65 61.3 54.65 60.55 54.4 59.85 54.1 59.2 53.6 58.7 53.1 58.2 52.4 57.9 M 55 36.2 Q 53.35 35.7 51.5 35.7 47.3 35.7 44.6 37.95 41.95 40.15 41.5 44.4 L 47.65 44.8 Q 47.8 43.3 48.75 42.25 49.75 41.25 51.65 41.25 52.85 41.25 53.7 42 54.5 42.7 54.5 44.05 54.5 44.7 54.15 45.35 53.75 45.95 53.05 46.65 52.4 47.35 51.45 48.15 50.5 48.95 49.4 50.05 48.65 50.75 48.3 51.6 48 52.45 48 53.65 L 48 55.4 54 55.4 54 54.25 Q 54 53.55 54.3 52.9 54.6 52.2 55.55 51.45 57 50.35 57.9 49.4 58.85 48.5 59.45 47.55 60 46.65 60.25 45.7 60.5 44.75 60.5 43.6 60.5 41.65 59.8 40.2 59.05 38.7 57.85 37.7 56.6 36.7 55 36.2 Z"
         id="path6" />
    </g>
    <g
       id="Layer2_0_FILL">
      <path
         fill="#D7D7D7"
         stroke="none"
         d=" M 84.95 77.8 Q 83.7 50.5 84.95 23.15 84.95 17.3 79.1 17.3 L 21.9 17.3 Q 16.05 17.3 16.05 23.15 17.3 50.5 16.05 77.8 16.05 83.65 21.9 83.65 L 79.1 83.65 Q 84.95 83.65 84.95 77.8 M 54.15 26.45 L 55.4 26.45 71.55 26.45 Q 75.8 26.45 75.8 30.7 74.65 50.5 75.8 70.25 75.8 74.45 71.55 74.45 L 55.4 74.45 54.15 74.45 29.45 74.45 Q 25.2 74.45 25.2 70.25 26.35 50.5 25.2 30.7 25.2 26.45 29.45 26.45 L 54.15 26.45 Z"
         id="path9" />
      <path
         fill="#F5F5F5"
         stroke="none"
         d=" M 55.4 26.45 L 54.15 26.45 29.45 26.45 Q 25.2 26.45 25.2 30.7 26.35 50.5 25.2 70.25 25.2 74.45 29.45 74.45 L 54.15 74.45 55.4 74.45 71.55 74.45 Q 75.8 74.45 75.8 70.25 74.65 50.5 75.8 30.7 75.8 26.45 71.55 26.45 L 55.4 26.45 M 51.5 35.7 Q 53.35 35.7 55 36.2 56.6 36.7 57.85 37.7 59.05 38.7 59.8 40.2 60.5 41.65 60.5 43.6 60.5 44.75 60.25 45.7 60 46.65 59.45 47.55 58.85 48.5 57.9 49.4 57 50.35 55.55 51.45 54.6 52.2 54.3 52.9 54 53.55 54 54.25 L 54 55.4 48 55.4 48 53.65 Q 48 52.45 48.3 51.6 48.65 50.75 49.4 50.05 50.5 48.95 51.45 48.15 52.4 47.35 53.05 46.65 53.75 45.95 54.15 45.35 54.5 44.7 54.5 44.05 54.5 42.7 53.7 42 52.85 41.25 51.65 41.25 49.75 41.25 48.75 42.25 47.8 43.3 47.65 44.8 L 41.5 44.4 Q 41.95 40.15 44.6 37.95 47.3 35.7 51.5 35.7 M 51 57.6 Q 51.75 57.6 52.4 57.9 53.1 58.2 53.6 58.7 54.1 59.2 54.4 59.85 54.65 60.55 54.65 61.3 54.65 62.05 54.4 62.75 54.1 63.4 53.6 63.95 53.1 64.4 52.4 64.7 51.75 65 51 65 50.25 65 49.55 64.7 48.85 64.4 48.35 63.95 47.85 63.4 47.55 62.75 47.3 62.05 47.3 61.3 47.3 60.55 47.55 59.85 47.85 59.2 48.35 58.7 48.85 58.2 49.55 57.9 50.25 57.6 51 57.6 Z"
         id="path11" />
      <path
         fill="#404040"
         stroke="none"
         d=" M 52.4 57.9 Q 51.75 57.6 51 57.6 50.25 57.6 49.55 57.9 48.85 58.2 48.35 58.7 47.85 59.2 47.55 59.85 47.3 60.55 47.3 61.3 47.3 62.05 47.55 62.75 47.85 63.4 48.35 63.95 48.85 64.4 49.55 64.7 50.25 65 51 65 51.75 65 52.4 64.7 53.1 64.4 53.6 63.95 54.1 63.4 54.4 62.75 54.65 62.05 54.65 61.3 54.65 60.55 54.4 59.85 54.1 59.2 53.6 58.7 53.1 58.2 52.4 57.9 M 55 36.2 Q 53.35 35.7 51.5 35.7 47.3 35.7 44.6 37.95 41.95 40.15 41.5 44.4 L 47.65 44.8 Q 47.8 43.3 48.75 42.25 49.75 41.25 51.65 41.25 52.85 41.25 53.7 42 54.5 42.7 54.5 44.05 54.5 44.7 54.15 45.35 53.75 45.95 53.05 46.65 52.4 47.35 51.45 48.15 50.5 48.95 49.4 50.05 48.65 50.75 48.3 51.6 48 52.45 48 53.65 L 48 55.4 54 55.4 54 54.25 Q 54 53.55 54.3 52.9 54.6 52.2 55.55 51.45 57 50.35 57.9 49.4 58.85 48.5 59.45 47.55 60 46.65 60.25 45.7 60.5 44.75 60.5 43.6 60.5 41.65 59.8 40.2 59.05 38.7 57.85 37.7 56.6 36.7 55 36.2 Z"
         id="path13" />
    </g>
    <path
       id="Layer3_0_1_STROKES"
       stroke="#1D1D1D"
       stroke-width="5"
       stroke-linejoin="round"
       stroke-linecap="round"
       fill="none"
       d=" M 84.95 23.15 Q 83.7 50.5 84.95 77.8 84.95 83.65 79.1 83.65 L 21.9 83.65 Q 16.05 83.65 16.05 77.8 17.3 50.5 16.05 23.15 16.05 17.3 21.9 17.3 L 79.1 17.3 Q 84.95 17.3 84.95 23.15 Z" />
    <path
       id="Layer3_0_2_STROKES"
       stroke="#696969"
       stroke-width="4"
       stroke-linejoin="round"
       stroke-linecap="round"
       fill="none"
       d=" M 54.15 26.45 L 29.45 26.45 Q 25.2 26.45 25.2 30.7 26.35 50.5 25.2 70.25 25.2 74.45 29.45 74.45 L 54.15 74.45 M 55.4 74.45 L 71.55 74.45 Q 75.8 74.45 75.8 70.25 74.65 50.5 75.8 30.7 75.8 26.45 71.55 26.45 L 55.4 26.45" />
    <path
       id="Layer2_0_1_STROKES"
       stroke="#404040"
       stroke-width="5"
       stroke-linejoin="round"
       stroke-linecap="round"
       fill="none"
       d=" M 84.95 23.15 Q 83.7 50.5 84.95 77.8 84.95 83.65 79.1 83.65 L 21.9 83.65 Q 16.05 83.65 16.05 77.8 17.3 50.5 16.05 23.15 16.05 17.3 21.9 17.3 L 79.1 17.3 Q 84.95 17.3 84.95 23.15 Z" />
    <path
       id="Layer2_0_2_STROKES"
       stroke="#FFFFFF"
       stroke-width="4"
       stroke-linejoin="round"
       stroke-linecap="round"
       fill="none"
       d=" M 54.15 26.45 L 29.45 26.45 Q 25.2 26.45 25.2 30.7 26.35 50.5 25.2 70.25 25.2 74.45 29.45 74.45 L 54.15 74.45 M 55.4 74.45 L 71.55 74.45 Q 75.8 74.45 75.8 70.25 74.65 50.5 75.8 30.7 75.8 26.45 71.55 26.45 L 55.4 26.45" />
  </defs>
  <g
     transform="matrix( 1, 0, 0, 1, 0,0) "
     id="g28">
    <use
       xlink:href="#Layer3_0_FILL"
       id="use22" />
    <use
       xlink:href="#Layer3_0_1_STROKES"
       id="use24" />
    <use
       xlink:href="#Layer3_0_2_STROKES"
       id="use26" />
  </g>
  <g
     id="g36"
     style="display:none">
    <use
       xlink:href="#Layer2_0_FILL"
       id="use30" />
    <use
       xlink:href="#Layer2_0_1_STROKES"
       id="use32" />
    <use
       xlink:href="#Layer2_0_2_STROKES"
       id="use34" />
  </g>
</svg>
