
<svg xmlns="http://www.w3.org/2000/svg" version="1.1" xmlns:xlink="http://www.w3.org/1999/xlink" preserveAspectRatio="none" x="0px" y="0px" width="100px" height="100px" viewBox="0 0 100 100">
<defs>
<g id="Layer3_0_FILL">
<path fill="#1D1D1D" stroke="none" d="
M 83.6 48.25
Q 83.6 47.95 83.6 47.7 83.5 46.1 83.4 44.75 83.25 40.65 83.1 38.05 82.9 35.55 82.8 34.45 82.65 30.3 82.25 25.95 81.9 21.55 80.6 14.95
L 80.6 14.9
Q 80.45 14.65 80.45 14.45 79.25 10.3 76.35 8.25 74.4 6.7 71.9 6 66.4 4.45 54.9 3.95 54.85 3.95 54.8 3.95 54.75 3.95 54.7 3.95
L 54.65 3.95 54.6 3.9
Q 52.8 2.2 50.45 2.05
L 49.9 2.05
Q 47.35 2.05 45.45 3.95
L 45.35 3.95
Q 45.25 3.95 45.2 3.95
L 45.1 3.95
Q 33.65 4.45 28.25 6 25.5 6.7 23.7 8.25
L 23.85 8.2
Q 20.8 10.25 19.65 14.45 19.6 14.65 19.55 14.9
L 19.5 14.95
Q 18.15 21.5 17.8 25.95 17.35 30.25 17.2 34.4 17.1 35.45 16.95 38.05 16.75 40.65 16.65 44.75
L 16.7 44.7
Q 16.6 46.15 16.5 47.85
L 16.5 47.9
Q 16.45 48.05 16.45 48.25 16.45 48.3 16.45 48.35 16 55.9 15 67.65 14.75 70.1 14.9 72.4 15.6 84.2 25.75 90.5 25.95 90.65 26.2 90.85 36.65 96 49.15 96.1 49.55 96.1 50 96.1 50.45 96.1 50.9 96.1
L 50.95 96.1
Q 63.35 96 73.85 90.85 74.1 90.65 74.4 90.5 84.4 84.2 85.15 72.4 85.25 70.1 85.05 67.65 84.05 55.8 83.6 48.25
M 61.9 20.5
Q 62.0939453125 20.273828125 62.3 20.05 62.3939453125 19.923828125 62.5 19.8 63.75 18.05 63.75 15.8 63.75 15.3 63.7 14.8 63.4 12.75 61.9 11.2
L 60.6 9.9
Q 66.745703125 10.4328125 70.2 11.4 71.65 11.75 72.75 12.7
L 72.8 12.75
Q 74.35 13.95 75.1 16.2 76.4 22.5 76.8 26.65 77.2 30.8 77.3 34.85 77.3 34.95 77.35 35.05 77.5 36 77.7 38.65 77.8 41.15 78.05 45.2
L 78.1 45.2
Q 78.05 45.45 78.1 45.75
L 52.7 45.75 52.75 38.2
Q 52.75 38 52.75 37.8 54.2 37.2 55.4 36.1 57.65 33.95 57.7 30.95
L 57.8 22.3
Q 57.9375 22.3125 58.05 22.3 60.25 22.05 61.9 20.5
M 51.95 6.6
Q 52.15 6.7 52.35 7
L 59.2 13.85
Q 60 14.7 60 15.8 60 16.95 59.2 17.75 58.55 18.4 57.75 18.55 57.6328125 18.56953125 57.5 18.55 57.35234375 18.6 57.2 18.6 56.1 18.6 55.25 17.75
L 50.1 12.6 44.85 17.75
Q 44 18.6 42.95 18.6
L 42.9 18.6
Q 42.8072265625 18.6 42.7 18.6 41.5869140625 18.5443359375 40.8 17.85 40 17 40 15.9 40 14.7 40.8 13.85
L 48.05 6.6
Q 48.6 5.95 49.45 5.85
L 50 5.8 50.55 5.85
Q 51.3 5.95 51.95 6.6
M 45.8 21.7
Q 46.7 21.2 47.45 20.4
L 50 17.85 52.6 20.5
Q 53.4630859375 21.3177734375 54.45 21.8
L 54.45 22.15
Q 54.45 22.2 54.45 22.3
L 54.45 22.35
Q 54.45 22.5 54.45 22.65
L 54.4 31
Q 54.4 32.75 53.1 34 51.8 35.2 50 35.25 48.2 35.2 46.9 34 45.6 32.75 45.6 31
L 45.55 22.65
Q 45.55 22.55 45.6 22.45
L 45.55 21.8
Q 45.69296875 21.753515625 45.8 21.7
M 42.35 30.95
Q 42.4 33.95 44.6 36.1 45.8 37.2 47.35 37.8 47.3 38 47.3 38.2
L 47.35 45.75 21.95 45.75
Q 21.95 45.45 22 45.2 22.2 41.15 22.35 38.55 22.5 36 22.7 35.05 22.7 34.95 22.7 34.85 22.85 30.8 23.3 26.65
L 23.3 26.6
Q 23.65 22.4 25.05 16.2 25.65 13.95 27.25 12.75 27.3 12.65 27.4 12.65 28.4 11.75 29.85 11.45
L 29.9 11.4
Q 33.287890625 10.43203125 39.35 9.9
L 38.1 11.2
Q 36.60625 12.793359375 36.35 14.8
L 36.35 14.85
Q 36.25 15.35 36.25 15.9 36.25 18.4099609375 37.95 20.25 38.049609375 20.349609375 38.15 20.45 38.15 20.5 38.2 20.5 39.91484375 22.11953125 42.25 22.3
L 42.35 30.95
M 28.55 87
Q 18.9 80.8 20.15 68.25 21.1 57.85 21.65 50.75
L 78.45 50.75
Q 78.95 57.9 79.95 68.25 81.1 80.8 71.5 87 62.1 91.7 50.9 91.8 50.45 91.8 50 91.8 49.6 91.8 49.15 91.8 37.95 91.7 28.55 87 Z"/>

<path fill="#353535" stroke="none" d="
M 20.15 68.25
Q 18.9 80.8 28.55 87 37.95 91.7 49.15 91.8 49.6 91.8 50 91.8 50.45 91.8 50.9 91.8 62.1 91.7 71.5 87 81.1 80.8 79.95 68.25 78.95 57.9 78.45 50.75
L 21.65 50.75
Q 21.1 57.85 20.15 68.25
M 25.45 67.55
Q 30.65 70.65 33.3 72.85 40.55 76.6 49.15 76.7
L 49.3 76.7
Q 49.65 76.7 50 76.7 50.35 76.7 50.8 76.7
L 50.95 76.7
Q 59.4 76.65 66.6 72.95 69.35 70.75 74.7 67.55 73.25 72.55 69.05 75.8 68.8 75.95 68.55 76.1 68.5 76.1 68.45 76.15 60.45 80.3 51 80.4
L 50.8 80.4
Q 50.35 80.4 50 80.4 49.65 80.4 49.3 80.4
L 49.1 80.4
Q 39.6 80.3 31.55 76.1 31.4 76.05 31.35 76 31.2 75.9 31.1 75.85
L 31.05 75.8
Q 26.7 72.55 25.45 67.55 Z"/>

<path fill="#595959" stroke="none" d="
M 33.3 72.85
Q 30.65 70.65 25.45 67.55 26.7 72.55 31.05 75.8
L 31.1 75.85
Q 31.2 75.9 31.35 76 31.4 76.05 31.55 76.1 39.6 80.3 49.1 80.4
L 49.3 80.4
Q 49.65 80.4 50 80.4 50.35 80.4 50.8 80.4
L 51 80.4
Q 60.45 80.3 68.45 76.15 68.5 76.1 68.55 76.1 68.8 75.95 69.05 75.8 73.25 72.55 74.7 67.55 69.35 70.75 66.6 72.95 59.4 76.65 50.95 76.7
L 50.8 76.7
Q 50.35 76.7 50 76.7 49.65 76.7 49.3 76.7
L 49.15 76.7
Q 40.55 76.6 33.3 72.85
M 44.6 36.1
Q 42.4 33.95 42.35 30.95
L 42.25 22.3
Q 39.91484375 22.11953125 38.2 20.5 38.15 20.5 38.15 20.45 38.049609375 20.349609375 37.95 20.25 37.945703125 20.54609375 37.95 20.85 38.05 26.5 38.3 32.15 38.4 33.25 38.75 34.35 38.85 34.85 39.1 35.4 39.3 35.9 39.6 36.4 40.85 38.6 43.1 40.2
L 43.15 41.65 26.75 41.65
Q 26.75 39.7 26.9 38.2 27.05 36.65 27.25 35.1 27.5 32.2 27.7 29.2 27.75 28.2 27.85 27.2 28.3 22.3 29.5 17.6 29.9 16.1 31.4 15.75 33.8 15.1390625 36.35 14.8 36.60625 12.793359375 38.1 11.2
L 39.35 9.9
Q 33.287890625 10.43203125 29.9 11.4
L 29.85 11.45
Q 28.4 11.75 27.4 12.65 27.3 12.65 27.25 12.75 25.65 13.95 25.05 16.2 23.65 22.4 23.3 26.6
L 23.3 26.65
Q 22.85 30.8 22.7 34.85 22.7 34.95 22.7 35.05 22.5 36 22.35 38.55 22.2 41.15 22 45.2 21.95 45.45 21.95 45.75
L 47.35 45.75 47.3 38.2
Q 47.3 38 47.35 37.8 45.8 37.2 44.6 36.1
M 63.7 14.8
Q 66.3576171875 15.115625 68.85 15.75 70.3 16.1 70.75 17.6 71.95 22.3 72.4 27.2 72.45 28.2 72.55 29.2 72.7 32.2 73 35.1 73.15 36.65 73.35 38.2 73.5 39.7 73.5 41.65
L 57.1 41.65 57.1 40.2
Q 59.35 38.6 60.65 36.4 60.9 35.9 61.15 35.4 61.35 34.85 61.5 34.35 61.8 33.25 61.9 32.15 62.15 26.5 62.3 20.85 62.305859375 20.4443359375 62.3 20.05 62.0939453125 20.273828125 61.9 20.5 60.25 22.05 58.05 22.3 57.9375 22.3125 57.8 22.3
L 57.7 30.95
Q 57.65 33.95 55.4 36.1 54.2 37.2 52.75 37.8 52.75 38 52.75 38.2
L 52.7 45.75 78.1 45.75
Q 78.05 45.45 78.1 45.2
L 78.05 45.2
Q 77.8 41.15 77.7 38.65 77.5 36 77.35 35.05 77.3 34.95 77.3 34.85 77.2 30.8 76.8 26.65 76.4 22.5 75.1 16.2 74.35 13.95 72.8 12.75
L 72.75 12.7
Q 71.65 11.75 70.2 11.4 66.745703125 10.4328125 60.6 9.9
L 61.9 11.2
Q 63.4 12.75 63.7 14.8 Z"/>

<path fill="#696969" stroke="none" d="
M 43.15 41.65
L 43.1 40.2
Q 40.85 38.6 39.6 36.4 39.3 35.9 39.1 35.4 38.85 34.85 38.75 34.35 38.4 33.25 38.3 32.15 38.05 26.5 37.95 20.85 37.945703125 20.54609375 37.95 20.25 36.25 18.4099609375 36.25 15.9 36.25 15.35 36.35 14.85
L 36.35 14.8
Q 33.8 15.1390625 31.4 15.75 29.9 16.1 29.5 17.6 28.3 22.3 27.85 27.2 27.75 28.2 27.7 29.2 27.5 32.2 27.25 35.1 27.05 36.65 26.9 38.2 26.75 39.7 26.75 41.65
L 43.15 41.65
M 68.85 15.75
Q 66.3576171875 15.115625 63.7 14.8 63.75 15.3 63.75 15.8 63.75 18.05 62.5 19.8 62.3939453125 19.923828125 62.3 20.05 62.305859375 20.4443359375 62.3 20.85 62.15 26.5 61.9 32.15 61.8 33.25 61.5 34.35 61.35 34.85 61.15 35.4 60.9 35.9 60.65 36.4 59.35 38.6 57.1 40.2
L 57.1 41.65 73.5 41.65
Q 73.5 39.7 73.35 38.2 73.15 36.65 73 35.1 72.7 32.2 72.55 29.2 72.45 28.2 72.4 27.2 71.95 22.3 70.75 17.6 70.3 16.1 68.85 15.75 Z"/>

<path fill="#FFFFFF" stroke="none" d="
M 47.45 20.4
Q 46.7 21.2 45.8 21.7 45.69296875 21.753515625 45.55 21.8
L 45.6 22.45
Q 45.55 22.55 45.55 22.65
L 45.6 31
Q 45.6 32.75 46.9 34 48.2 35.2 50 35.25 51.8 35.2 53.1 34 54.4 32.75 54.4 31
L 54.45 22.65
Q 54.45 22.5 54.45 22.35
L 54.45 22.3
Q 54.45 22.2 54.45 22.15
L 54.45 21.8
Q 53.4630859375 21.3177734375 52.6 20.5
L 50 17.85 47.45 20.4
M 52.35 7
Q 52.15 6.7 51.95 6.6 51.3 5.95 50.55 5.85
L 50 5.8 49.45 5.85
Q 48.6 5.95 48.05 6.6
L 40.8 13.85
Q 40 14.7 40 15.9 40 17 40.8 17.85 41.5869140625 18.5443359375 42.7 18.6 42.8072265625 18.6 42.9 18.6
L 42.95 18.6
Q 44 18.6 44.85 17.75
L 50.1 12.6 55.25 17.75
Q 56.1 18.6 57.2 18.6 57.35234375 18.6 57.5 18.55 57.6328125 18.56953125 57.75 18.55 58.55 18.4 59.2 17.75 60 16.95 60 15.8 60 14.7 59.2 13.85
L 52.35 7 Z"/>
</g>

<g id="Layer2_0_FILL">
<path fill="#404040" stroke="none" d="
M 83.6 48.25
Q 83.6 47.95 83.6 47.7 83.5 46.1 83.4 44.75 83.25 40.65 83.1 38.05 82.9 35.55 82.8 34.45 82.65 30.3 82.25 25.95 81.9 21.55 80.6 14.95
L 80.6 14.9
Q 80.45 14.65 80.45 14.45 79.25 10.3 76.35 8.25 74.4 6.7 71.9 6 66.4 4.45 54.9 3.95 54.85 3.95 54.8 3.95 54.75 3.95 54.7 3.95
L 54.65 3.95 54.6 3.9
Q 52.8 2.2 50.45 2.05
L 49.9 2.05
Q 47.35 2.05 45.45 3.95
L 45.35 3.95
Q 45.25 3.95 45.2 3.95
L 45.1 3.95
Q 33.65 4.45 28.25 6 25.5 6.7 23.7 8.25
L 23.85 8.2
Q 20.8 10.25 19.65 14.45 19.6 14.65 19.55 14.9
L 19.5 14.95
Q 18.15 21.5 17.8 25.95 17.35 30.25 17.2 34.4 17.1 35.45 16.95 38.05 16.75 40.65 16.65 44.75
L 16.7 44.7
Q 16.6 46.15 16.5 47.85
L 16.5 47.9
Q 16.45 48.05 16.45 48.25 16.45 48.3 16.45 48.35 16 55.9 15 67.65 14.75 70.1 14.9 72.4 15.6 84.2 25.75 90.5 25.95 90.65 26.2 90.85 36.65 96 49.15 96.1 49.55 96.1 50 96.1 50.45 96.1 50.9 96.1
L 50.95 96.1
Q 63.35 96 73.85 90.85 74.1 90.65 74.4 90.5 84.4 84.2 85.15 72.4 85.25 70.1 85.05 67.65 84.05 55.8 83.6 48.25
M 61.9 20.5
Q 62.0939453125 20.273828125 62.3 20.05 62.3939453125 19.923828125 62.5 19.8 63.75 18.05 63.75 15.8 63.75 15.3 63.7 14.8 63.4 12.75 61.9 11.2
L 60.6 9.9
Q 66.745703125 10.4328125 70.2 11.4 71.65 11.75 72.75 12.7
L 72.8 12.75
Q 74.35 13.95 75.1 16.2 76.4 22.5 76.8 26.65 77.2 30.8 77.3 34.85 77.3 34.95 77.35 35.05 77.5 36 77.7 38.65 77.8 41.15 78.05 45.2
L 78.1 45.2
Q 78.05 45.45 78.1 45.75
L 52.7 45.75 52.75 38.2
Q 52.75 38 52.75 37.8 54.2 37.2 55.4 36.1 57.65 33.95 57.7 30.95
L 57.8 22.3
Q 57.9375 22.3125 58.05 22.3 60.25 22.05 61.9 20.5
M 51.95 6.6
Q 52.15 6.7 52.35 7
L 59.2 13.85
Q 60 14.7 60 15.8 60 16.95 59.2 17.75 58.55 18.4 57.75 18.55 57.6328125 18.56953125 57.5 18.55 57.35234375 18.6 57.2 18.6 56.1 18.6 55.25 17.75
L 50.1 12.6 44.85 17.75
Q 44 18.6 42.95 18.6
L 42.9 18.6
Q 42.8072265625 18.6 42.7 18.6 41.5869140625 18.5443359375 40.8 17.85 40 17 40 15.9 40 14.7 40.8 13.85
L 48.05 6.6
Q 48.6 5.95 49.45 5.85
L 50 5.8 50.55 5.85
Q 51.3 5.95 51.95 6.6
M 45.8 21.7
Q 46.7 21.2 47.45 20.4
L 50 17.85 52.6 20.5
Q 53.4630859375 21.3177734375 54.45 21.8
L 54.45 22.15
Q 54.45 22.2 54.45 22.3
L 54.45 22.35
Q 54.45 22.5 54.45 22.65
L 54.4 31
Q 54.4 32.75 53.1 34 51.8 35.2 50 35.25 48.2 35.2 46.9 34 45.6 32.75 45.6 31
L 45.55 22.65
Q 45.55 22.55 45.6 22.45
L 45.55 21.8
Q 45.69296875 21.753515625 45.8 21.7
M 42.35 30.95
Q 42.4 33.95 44.6 36.1 45.8 37.2 47.35 37.8 47.3 38 47.3 38.2
L 47.35 45.75 21.95 45.75
Q 21.95 45.45 22 45.2 22.2 41.15 22.35 38.55 22.5 36 22.7 35.05 22.7 34.95 22.7 34.85 22.85 30.8 23.3 26.65
L 23.3 26.6
Q 23.65 22.4 25.05 16.2 25.65 13.95 27.25 12.75 27.3 12.65 27.4 12.65 28.4 11.75 29.85 11.45
L 29.9 11.4
Q 33.287890625 10.43203125 39.35 9.9
L 38.1 11.2
Q 36.60625 12.793359375 36.35 14.8
L 36.35 14.85
Q 36.25 15.35 36.25 15.9 36.25 18.4099609375 37.95 20.25 38.049609375 20.349609375 38.15 20.45 38.15 20.5 38.2 20.5 39.91484375 22.11953125 42.25 22.3
L 42.35 30.95
M 28.55 87
Q 18.9 80.8 20.15 68.25 21.1 57.85 21.65 50.75
L 78.45 50.75
Q 78.95 57.9 79.95 68.25 81.1 80.8 71.5 87 62.1 91.7 50.9 91.8 50.45 91.8 50 91.8 49.6 91.8 49.15 91.8 37.95 91.7 28.55 87 Z"/>

<path fill="#D7D7D7" stroke="none" d="
M 20.15 68.25
Q 18.9 80.8 28.55 87 37.95 91.7 49.15 91.8 49.6 91.8 50 91.8 50.45 91.8 50.9 91.8 62.1 91.7 71.5 87 81.1 80.8 79.95 68.25 78.95 57.9 78.45 50.75
L 21.65 50.75
Q 21.1 57.85 20.15 68.25
M 25.45 67.55
Q 30.65 70.65 33.3 72.85 40.55 76.6 49.15 76.7
L 49.3 76.7
Q 49.65 76.7 50 76.7 50.35 76.7 50.8 76.7
L 50.95 76.7
Q 59.4 76.65 66.6 72.95 69.35 70.75 74.7 67.55 73.25 72.55 69.05 75.8 68.8 75.95 68.55 76.1 68.5 76.1 68.45 76.15 60.45 80.3 51 80.4
L 50.8 80.4
Q 50.35 80.4 50 80.4 49.65 80.4 49.3 80.4
L 49.1 80.4
Q 39.6 80.3 31.55 76.1 31.4 76.05 31.35 76 31.2 75.9 31.1 75.85
L 31.05 75.8
Q 26.7 72.55 25.45 67.55 Z"/>

<path fill="#F5F5F5" stroke="none" d="
M 33.3 72.85
Q 30.65 70.65 25.45 67.55 26.7 72.55 31.05 75.8
L 31.1 75.85
Q 31.2 75.9 31.35 76 31.4 76.05 31.55 76.1 39.6 80.3 49.1 80.4
L 49.3 80.4
Q 49.65 80.4 50 80.4 50.35 80.4 50.8 80.4
L 51 80.4
Q 60.45 80.3 68.45 76.15 68.5 76.1 68.55 76.1 68.8 75.95 69.05 75.8 73.25 72.55 74.7 67.55 69.35 70.75 66.6 72.95 59.4 76.65 50.95 76.7
L 50.8 76.7
Q 50.35 76.7 50 76.7 49.65 76.7 49.3 76.7
L 49.15 76.7
Q 40.55 76.6 33.3 72.85
M 44.6 36.1
Q 42.4 33.95 42.35 30.95
L 42.25 22.3
Q 39.91484375 22.11953125 38.2 20.5 38.15 20.5 38.15 20.45 38.049609375 20.349609375 37.95 20.25 37.945703125 20.54609375 37.95 20.85 38.05 26.5 38.3 32.15 38.4 33.25 38.75 34.35 38.85 34.85 39.1 35.4 39.3 35.9 39.6 36.4 40.85 38.6 43.1 40.2
L 43.15 41.65 26.75 41.65
Q 26.75 39.7 26.9 38.2 27.05 36.65 27.25 35.1 27.5 32.2 27.7 29.2 27.75 28.2 27.85 27.2 28.3 22.3 29.5 17.6 29.9 16.1 31.4 15.75 33.8 15.1390625 36.35 14.8 36.60625 12.793359375 38.1 11.2
L 39.35 9.9
Q 33.287890625 10.43203125 29.9 11.4
L 29.85 11.45
Q 28.4 11.75 27.4 12.65 27.3 12.65 27.25 12.75 25.65 13.95 25.05 16.2 23.65 22.4 23.3 26.6
L 23.3 26.65
Q 22.85 30.8 22.7 34.85 22.7 34.95 22.7 35.05 22.5 36 22.35 38.55 22.2 41.15 22 45.2 21.95 45.45 21.95 45.75
L 47.35 45.75 47.3 38.2
Q 47.3 38 47.35 37.8 45.8 37.2 44.6 36.1
M 63.7 14.8
Q 66.3576171875 15.115625 68.85 15.75 70.3 16.1 70.75 17.6 71.95 22.3 72.4 27.2 72.45 28.2 72.55 29.2 72.7 32.2 73 35.1 73.15 36.65 73.35 38.2 73.5 39.7 73.5 41.65
L 57.1 41.65 57.1 40.2
Q 59.35 38.6 60.65 36.4 60.9 35.9 61.15 35.4 61.35 34.85 61.5 34.35 61.8 33.25 61.9 32.15 62.15 26.5 62.3 20.85 62.305859375 20.4443359375 62.3 20.05 62.0939453125 20.273828125 61.9 20.5 60.25 22.05 58.05 22.3 57.9375 22.3125 57.8 22.3
L 57.7 30.95
Q 57.65 33.95 55.4 36.1 54.2 37.2 52.75 37.8 52.75 38 52.75 38.2
L 52.7 45.75 78.1 45.75
Q 78.05 45.45 78.1 45.2
L 78.05 45.2
Q 77.8 41.15 77.7 38.65 77.5 36 77.35 35.05 77.3 34.95 77.3 34.85 77.2 30.8 76.8 26.65 76.4 22.5 75.1 16.2 74.35 13.95 72.8 12.75
L 72.75 12.7
Q 71.65 11.75 70.2 11.4 66.745703125 10.4328125 60.6 9.9
L 61.9 11.2
Q 63.4 12.75 63.7 14.8 Z"/>

<path fill="#FFFFFF" stroke="none" d="
M 43.15 41.65
L 43.1 40.2
Q 40.85 38.6 39.6 36.4 39.3 35.9 39.1 35.4 38.85 34.85 38.75 34.35 38.4 33.25 38.3 32.15 38.05 26.5 37.95 20.85 37.945703125 20.54609375 37.95 20.25 36.25 18.4099609375 36.25 15.9 36.25 15.35 36.35 14.85
L 36.35 14.8
Q 33.8 15.1390625 31.4 15.75 29.9 16.1 29.5 17.6 28.3 22.3 27.85 27.2 27.75 28.2 27.7 29.2 27.5 32.2 27.25 35.1 27.05 36.65 26.9 38.2 26.75 39.7 26.75 41.65
L 43.15 41.65
M 68.85 15.75
Q 66.3576171875 15.115625 63.7 14.8 63.75 15.3 63.75 15.8 63.75 18.05 62.5 19.8 62.3939453125 19.923828125 62.3 20.05 62.305859375 20.4443359375 62.3 20.85 62.15 26.5 61.9 32.15 61.8 33.25 61.5 34.35 61.35 34.85 61.15 35.4 60.9 35.9 60.65 36.4 59.35 38.6 57.1 40.2
L 57.1 41.65 73.5 41.65
Q 73.5 39.7 73.35 38.2 73.15 36.65 73 35.1 72.7 32.2 72.55 29.2 72.45 28.2 72.4 27.2 71.95 22.3 70.75 17.6 70.3 16.1 68.85 15.75 Z"/>

<path fill="#E02727" stroke="none" d="
M 47.45 20.4
Q 46.7 21.2 45.8 21.7 45.69296875 21.753515625 45.55 21.8
L 45.6 22.45
Q 45.55 22.55 45.55 22.65
L 45.6 31
Q 45.6 32.75 46.9 34 48.2 35.2 50 35.25 51.8 35.2 53.1 34 54.4 32.75 54.4 31
L 54.45 22.65
Q 54.45 22.5 54.45 22.35
L 54.45 22.3
Q 54.45 22.2 54.45 22.15
L 54.45 21.8
Q 53.4630859375 21.3177734375 52.6 20.5
L 50 17.85 47.45 20.4
M 52.35 7
Q 52.15 6.7 51.95 6.6 51.3 5.95 50.55 5.85
L 50 5.8 49.45 5.85
Q 48.6 5.95 48.05 6.6
L 40.8 13.85
Q 40 14.7 40 15.9 40 17 40.8 17.85 41.5869140625 18.5443359375 42.7 18.6 42.8072265625 18.6 42.9 18.6
L 42.95 18.6
Q 44 18.6 44.85 17.75
L 50.1 12.6 55.25 17.75
Q 56.1 18.6 57.2 18.6 57.35234375 18.6 57.5 18.55 57.6328125 18.56953125 57.75 18.55 58.55 18.4 59.2 17.75 60 16.95 60 15.8 60 14.7 59.2 13.85
L 52.35 7 Z"/>
</g>
</defs>

<g transform="matrix( 1, 0, 0, 1, 0,0) ">
<use xlink:href="#Layer3_0_FILL"/>
</g>

<g transform="matrix( 1, 0, 0, 1, 0,0) ">
<use xlink:href="#Layer2_0_FILL"/>
</g>
</svg>
