<?xml version="1.0" encoding="UTF-8" standalone="no"?>
<svg
   version="1.1"
   preserveAspectRatio="none"
   x="0px"
   y="0px"
   width="100px"
   height="100px"
   viewBox="0 0 100 100"
   id="svg13256"
   sodipodi:docname="Vector Source0035.svg"
   inkscape:version="1.2.1 (9c6d41e410, 2022-07-14)"
   xmlns:inkscape="http://www.inkscape.org/namespaces/inkscape"
   xmlns:sodipodi="http://sodipodi.sourceforge.net/DTD/sodipodi-0.dtd"
   xmlns:xlink="http://www.w3.org/1999/xlink"
   xmlns="http://www.w3.org/2000/svg"
   xmlns:svg="http://www.w3.org/2000/svg">
  <sodipodi:namedview
     id="namedview13258"
     pagecolor="#ffffff"
     bordercolor="#000000"
     borderopacity="0.25"
     inkscape:showpageshadow="2"
     inkscape:pageopacity="0.0"
     inkscape:pagecheckerboard="0"
     inkscape:deskcolor="#d1d1d1"
     showgrid="false"
     inkscape:zoom="10.27"
     inkscape:cx="42.55112"
     inkscape:cy="50"
     inkscape:window-width="2400"
     inkscape:window-height="1261"
     inkscape:window-x="5591"
     inkscape:window-y="431"
     inkscape:window-maximized="1"
     inkscape:current-layer="svg13256" />
  <defs
     id="defs13238">
    <g
       id="Layer3_0_FILL">
      <path
         fill="#353535"
         stroke="none"
         d=" M 84.95 77.8 Q 83.7 50.5 84.95 23.15 84.95 17.3 79.1 17.3 L 21.9 17.3 Q 16.05 17.3 16.05 23.15 17.3 50.5 16.05 77.8 16.05 83.65 21.9 83.65 L 79.1 83.65 Q 84.95 83.65 84.95 77.8 M 54.15 26.45 L 55.4 26.45 71.55 26.45 Q 75.8 26.45 75.8 30.7 74.65 50.5 75.8 70.25 75.8 74.45 71.55 74.45 L 55.4 74.45 54.15 74.45 29.45 74.45 Q 25.2 74.45 25.2 70.25 26.35 50.5 25.2 30.7 25.2 26.45 29.45 26.45 L 54.15 26.45 Z"
         id="path13220" />
      <path
         fill="#595959"
         stroke="none"
         d=" M 55.4 26.45 L 54.15 26.45 29.45 26.45 Q 25.2 26.45 25.2 30.7 26.35 50.5 25.2 70.25 25.2 74.45 29.45 74.45 L 54.15 74.45 55.4 74.45 71.55 74.45 Q 75.8 74.45 75.8 70.25 74.65 50.5 75.8 30.7 75.8 26.45 71.55 26.45 L 55.4 26.45 M 47.3 38.8 Q 48.8 38.4 50.5 38.4 52.2 38.4 53.7 38.8 55.2 39.25 56.35 40.1 57.45 40.95 58.15 42.2 58.8 43.5 58.8 45.2 58.8 47.25 57.7 48.7 56.6 50.1 54.6 50.7 L 54.6 50.8 Q 56.85 51.4 58.05 52.95 59.2 54.5 59.2 56.8 59.2 58.6 58.5 59.95 57.8 61.35 56.55 62.2 55.4 63.1 53.8 63.55 52.2 64.05 50.5 64.05 48.8 64.05 47.2 63.55 45.65 63.1 44.45 62.2 43.25 61.35 42.5 59.95 41.8 58.6 41.8 56.8 41.8 54.5 43 52.95 44.15 51.4 46.4 50.8 L 46.4 50.7 Q 44.4 50.1 43.3 48.7 42.2 47.25 42.2 45.2 42.2 43.5 42.85 42.2 43.5 40.95 44.65 40.1 45.8 39.25 47.3 38.8 M 53.05 58.3 Q 54 57.35 54 56.1 54 54.75 53.05 53.8 52.1 52.9 50.5 52.9 48.95 52.9 48 53.8 47.05 54.75 47.05 56.1 47.05 57.35 48 58.3 48.95 59.2 50.5 59.2 52.1 59.2 53.05 58.3 M 48.3 47.9 Q 49.15 48.7 50.5 48.7 51.85 48.7 52.7 47.9 53.55 47.1 53.55 45.95 53.55 44.85 52.7 44.05 51.85 43.25 50.5 43.25 49.15 43.25 48.3 44.05 47.45 44.85 47.45 45.95 47.45 47.1 48.3 47.9 Z"
         id="path13222" />
      <path
         fill="#CDCDCD"
         stroke="none"
         d=" M 50.5 38.4 Q 48.8 38.4 47.3 38.8 45.8 39.25 44.65 40.1 43.5 40.95 42.85 42.2 42.2 43.5 42.2 45.2 42.2 47.25 43.3 48.7 44.4 50.1 46.4 50.7 L 46.4 50.8 Q 44.15 51.4 43 52.95 41.8 54.5 41.8 56.8 41.8 58.6 42.5 59.95 43.25 61.35 44.45 62.2 45.65 63.1 47.2 63.55 48.8 64.05 50.5 64.05 52.2 64.05 53.8 63.55 55.4 63.1 56.55 62.2 57.8 61.35 58.5 59.95 59.2 58.6 59.2 56.8 59.2 54.5 58.05 52.95 56.85 51.4 54.6 50.8 L 54.6 50.7 Q 56.6 50.1 57.7 48.7 58.8 47.25 58.8 45.2 58.8 43.5 58.15 42.2 57.45 40.95 56.35 40.1 55.2 39.25 53.7 38.8 52.2 38.4 50.5 38.4 M 50.5 48.7 Q 49.15 48.7 48.3 47.9 47.45 47.1 47.45 45.95 47.45 44.85 48.3 44.05 49.15 43.25 50.5 43.25 51.85 43.25 52.7 44.05 53.55 44.85 53.55 45.95 53.55 47.1 52.7 47.9 51.85 48.7 50.5 48.7 M 54 56.1 Q 54 57.35 53.05 58.3 52.1 59.2 50.5 59.2 48.95 59.2 48 58.3 47.05 57.35 47.05 56.1 47.05 54.75 48 53.8 48.95 52.9 50.5 52.9 52.1 52.9 53.05 53.8 54 54.75 54 56.1 Z"
         id="path13224" />
    </g>
    <g
       id="Layer2_0_FILL">
      <path
         fill="#D7D7D7"
         stroke="none"
         d=" M 84.95 77.8 Q 83.7 50.5 84.95 23.15 84.95 17.3 79.1 17.3 L 21.9 17.3 Q 16.05 17.3 16.05 23.15 17.3 50.5 16.05 77.8 16.05 83.65 21.9 83.65 L 79.1 83.65 Q 84.95 83.65 84.95 77.8 M 54.15 26.45 L 55.4 26.45 71.55 26.45 Q 75.8 26.45 75.8 30.7 74.65 50.5 75.8 70.25 75.8 74.45 71.55 74.45 L 55.4 74.45 54.15 74.45 29.45 74.45 Q 25.2 74.45 25.2 70.25 26.35 50.5 25.2 30.7 25.2 26.45 29.45 26.45 L 54.15 26.45 Z"
         id="path13227" />
      <path
         fill="#F5F5F5"
         stroke="none"
         d=" M 55.4 26.45 L 54.15 26.45 29.45 26.45 Q 25.2 26.45 25.2 30.7 26.35 50.5 25.2 70.25 25.2 74.45 29.45 74.45 L 54.15 74.45 55.4 74.45 71.55 74.45 Q 75.8 74.45 75.8 70.25 74.65 50.5 75.8 30.7 75.8 26.45 71.55 26.45 L 55.4 26.45 M 47.3 38.8 Q 48.8 38.4 50.5 38.4 52.2 38.4 53.7 38.8 55.2 39.25 56.35 40.1 57.45 40.95 58.15 42.2 58.8 43.5 58.8 45.2 58.8 47.25 57.7 48.7 56.6 50.1 54.6 50.7 L 54.6 50.8 Q 56.85 51.4 58.05 52.95 59.2 54.5 59.2 56.8 59.2 58.6 58.5 59.95 57.8 61.35 56.55 62.2 55.4 63.1 53.8 63.55 52.2 64.05 50.5 64.05 48.8 64.05 47.2 63.55 45.65 63.1 44.45 62.2 43.25 61.35 42.5 59.95 41.8 58.6 41.8 56.8 41.8 54.5 43 52.95 44.15 51.4 46.4 50.8 L 46.4 50.7 Q 44.4 50.1 43.3 48.7 42.2 47.25 42.2 45.2 42.2 43.5 42.85 42.2 43.5 40.95 44.65 40.1 45.8 39.25 47.3 38.8 M 53.05 58.3 Q 54 57.35 54 56.1 54 54.75 53.05 53.8 52.1 52.9 50.5 52.9 48.95 52.9 48 53.8 47.05 54.75 47.05 56.1 47.05 57.35 48 58.3 48.95 59.2 50.5 59.2 52.1 59.2 53.05 58.3 M 48.3 47.9 Q 49.15 48.7 50.5 48.7 51.85 48.7 52.7 47.9 53.55 47.1 53.55 45.95 53.55 44.85 52.7 44.05 51.85 43.25 50.5 43.25 49.15 43.25 48.3 44.05 47.45 44.85 47.45 45.95 47.45 47.1 48.3 47.9 Z"
         id="path13229" />
      <path
         fill="#404040"
         stroke="none"
         d=" M 50.5 38.4 Q 48.8 38.4 47.3 38.8 45.8 39.25 44.65 40.1 43.5 40.95 42.85 42.2 42.2 43.5 42.2 45.2 42.2 47.25 43.3 48.7 44.4 50.1 46.4 50.7 L 46.4 50.8 Q 44.15 51.4 43 52.95 41.8 54.5 41.8 56.8 41.8 58.6 42.5 59.95 43.25 61.35 44.45 62.2 45.65 63.1 47.2 63.55 48.8 64.05 50.5 64.05 52.2 64.05 53.8 63.55 55.4 63.1 56.55 62.2 57.8 61.35 58.5 59.95 59.2 58.6 59.2 56.8 59.2 54.5 58.05 52.95 56.85 51.4 54.6 50.8 L 54.6 50.7 Q 56.6 50.1 57.7 48.7 58.8 47.25 58.8 45.2 58.8 43.5 58.15 42.2 57.45 40.95 56.35 40.1 55.2 39.25 53.7 38.8 52.2 38.4 50.5 38.4 M 50.5 48.7 Q 49.15 48.7 48.3 47.9 47.45 47.1 47.45 45.95 47.45 44.85 48.3 44.05 49.15 43.25 50.5 43.25 51.85 43.25 52.7 44.05 53.55 44.85 53.55 45.95 53.55 47.1 52.7 47.9 51.85 48.7 50.5 48.7 M 54 56.1 Q 54 57.35 53.05 58.3 52.1 59.2 50.5 59.2 48.95 59.2 48 58.3 47.05 57.35 47.05 56.1 47.05 54.75 48 53.8 48.95 52.9 50.5 52.9 52.1 52.9 53.05 53.8 54 54.75 54 56.1 Z"
         id="path13231" />
    </g>
    <path
       id="Layer3_0_1_STROKES"
       stroke="#1D1D1D"
       stroke-width="5"
       stroke-linejoin="round"
       stroke-linecap="round"
       fill="none"
       d=" M 84.95 23.15 Q 83.7 50.5 84.95 77.8 84.95 83.65 79.1 83.65 L 21.9 83.65 Q 16.05 83.65 16.05 77.8 17.3 50.5 16.05 23.15 16.05 17.3 21.9 17.3 L 79.1 17.3 Q 84.95 17.3 84.95 23.15 Z" />
    <path
       id="Layer3_0_2_STROKES"
       stroke="#696969"
       stroke-width="4"
       stroke-linejoin="round"
       stroke-linecap="round"
       fill="none"
       d=" M 54.15 26.45 L 29.45 26.45 Q 25.2 26.45 25.2 30.7 26.35 50.5 25.2 70.25 25.2 74.45 29.45 74.45 L 54.15 74.45 M 55.4 74.45 L 71.55 74.45 Q 75.8 74.45 75.8 70.25 74.65 50.5 75.8 30.7 75.8 26.45 71.55 26.45 L 55.4 26.45" />
    <path
       id="Layer2_0_1_STROKES"
       stroke="#404040"
       stroke-width="5"
       stroke-linejoin="round"
       stroke-linecap="round"
       fill="none"
       d=" M 84.95 23.15 Q 83.7 50.5 84.95 77.8 84.95 83.65 79.1 83.65 L 21.9 83.65 Q 16.05 83.65 16.05 77.8 17.3 50.5 16.05 23.15 16.05 17.3 21.9 17.3 L 79.1 17.3 Q 84.95 17.3 84.95 23.15 Z" />
    <path
       id="Layer2_0_2_STROKES"
       stroke="#FFFFFF"
       stroke-width="4"
       stroke-linejoin="round"
       stroke-linecap="round"
       fill="none"
       d=" M 54.15 26.45 L 29.45 26.45 Q 25.2 26.45 25.2 30.7 26.35 50.5 25.2 70.25 25.2 74.45 29.45 74.45 L 54.15 74.45 M 55.4 74.45 L 71.55 74.45 Q 75.8 74.45 75.8 70.25 74.65 50.5 75.8 30.7 75.8 26.45 71.55 26.45 L 55.4 26.45" />
  </defs>
  <g
     transform="matrix( 1, 0, 0, 1, 0,0) "
     id="g13246">
    <use
       xlink:href="#Layer3_0_FILL"
       id="use13240" />
    <use
       xlink:href="#Layer3_0_1_STROKES"
       id="use13242" />
    <use
       xlink:href="#Layer3_0_2_STROKES"
       id="use13244" />
  </g>
  <g
     id="g13254"
     style="display:none">
    <use
       xlink:href="#Layer2_0_FILL"
       id="use13248" />
    <use
       xlink:href="#Layer2_0_1_STROKES"
       id="use13250" />
    <use
       xlink:href="#Layer2_0_2_STROKES"
       id="use13252" />
  </g>
</svg>
