<?xml version="1.0" encoding="UTF-8" standalone="no"?>
<svg
   version="1.1"
   preserveAspectRatio="none"
   x="0px"
   y="0px"
   width="100px"
   height="100px"
   viewBox="0 0 100 100"
   id="svg3680"
   sodipodi:docname="Vector Source0044.svg"
   inkscape:version="1.2.1 (9c6d41e410, 2022-07-14)"
   xmlns:inkscape="http://www.inkscape.org/namespaces/inkscape"
   xmlns:sodipodi="http://sodipodi.sourceforge.net/DTD/sodipodi-0.dtd"
   xmlns:xlink="http://www.w3.org/1999/xlink"
   xmlns="http://www.w3.org/2000/svg"
   xmlns:svg="http://www.w3.org/2000/svg">
  <sodipodi:namedview
     id="namedview3682"
     pagecolor="#ffffff"
     bordercolor="#000000"
     borderopacity="0.25"
     inkscape:showpageshadow="2"
     inkscape:pageopacity="0.0"
     inkscape:pagecheckerboard="0"
     inkscape:deskcolor="#d1d1d1"
     showgrid="false"
     inkscape:zoom="10.27"
     inkscape:cx="42.55112"
     inkscape:cy="50"
     inkscape:window-width="2400"
     inkscape:window-height="1261"
     inkscape:window-x="5591"
     inkscape:window-y="431"
     inkscape:window-maximized="1"
     inkscape:current-layer="svg3680" />
  <defs
     id="defs3662">
    <g
       id="Layer3_0_FILL">
      <path
         fill="#353535"
         stroke="none"
         d=" M 84.95 77.8 Q 83.7 50.5 84.95 23.15 84.95 17.3 79.1 17.3 L 21.9 17.3 Q 16.05 17.3 16.05 23.15 17.3 50.5 16.05 77.8 16.05 83.65 21.9 83.65 L 79.1 83.65 Q 84.95 83.65 84.95 77.8 M 54.15 26.45 L 55.4 26.45 71.55 26.45 Q 75.8 26.45 75.8 30.7 74.65 50.5 75.8 70.25 75.8 74.45 71.55 74.45 L 55.4 74.45 54.15 74.45 29.45 74.45 Q 25.2 74.45 25.2 70.25 26.35 50.5 25.2 30.7 25.2 26.45 29.45 26.45 L 54.15 26.45 Z"
         id="path3644" />
      <path
         fill="#595959"
         stroke="none"
         d=" M 55.4 26.45 L 54.15 26.45 29.45 26.45 Q 25.2 26.45 25.2 30.7 26.35 50.5 25.2 70.25 25.2 74.45 29.45 74.45 L 54.15 74.45 55.4 74.45 71.55 74.45 Q 75.8 74.45 75.8 70.25 74.65 50.5 75.8 30.7 75.8 26.45 71.55 26.45 L 55.4 26.45 M 64.95 48.95 L 68.7 48.95 68.7 67.85 64.95 67.85 64.95 48.95 M 32 50.15 L 37.85 50.15 Q 40 50.15 41.9 50.65 43.8 51.1 45.2 52.15 46.65 53.25 47.45 54.9 48.3 56.6 48.3 59.05 48.3 61.2 47.5 62.85 46.7 64.5 45.3 65.6 43.95 66.7 42.15 67.3 40.35 67.85 38.4 67.85 L 32 67.85 32 50.15 M 62.2 59.15 Q 62.6 60.35 62.6 61.8 L 62.6 62.95 53.9 62.95 Q 54.1 64.05 54.9 64.7 55.6 65.3 56.7 65.3 57.65 65.3 58.3 64.9 58.95 64.5 59.4 63.85 L 62.05 65.75 Q 61.15 66.9 59.75 67.55 58.4 68.15 56.9 68.15 55.5 68.15 54.25 67.7 53 67.25 52.1 66.4 51.2 65.6 50.7 64.4 50.15 63.2 50.15 61.8 50.15 60.35 50.7 59.15 51.2 57.95 52.1 57.15 53 56.3 54.25 55.85 55.5 55.4 56.9 55.4 58.2 55.4 59.25 55.85 60.3 56.3 61.05 57.15 61.8 57.95 62.2 59.15 M 54.65 58.8 Q 54.3 59.1 54.1 59.55 53.9 59.95 53.9 60.4 L 58.85 60.4 Q 58.9 59.45 58.2 58.75 57.55 58.1 56.55 58.1 55.95 58.1 55.45 58.3 54.95 58.5 54.65 58.8 M 35.9 64.25 L 37.95 64.25 Q 39.25 64.25 40.45 63.95 41.6 63.7 42.45 63.05 43.3 62.45 43.75 61.4 44.25 60.35 44.25 58.85 44.25 57.55 43.75 56.6 43.3 55.65 42.45 55 41.65 54.35 40.55 54.05 39.4 53.75 38.2 53.75 L 35.9 53.75 35.9 64.25 Z"
         id="path3646" />
      <path
         fill="#CDCDCD"
         stroke="none"
         d=" M 62.6 61.8 Q 62.6 60.35 62.2 59.15 61.8 57.95 61.05 57.15 60.3 56.3 59.25 55.85 58.2 55.4 56.9 55.4 55.5 55.4 54.25 55.85 53 56.3 52.1 57.15 51.2 57.95 50.7 59.15 50.15 60.35 50.15 61.8 50.15 63.2 50.7 64.4 51.2 65.6 52.1 66.4 53 67.25 54.25 67.7 55.5 68.15 56.9 68.15 58.4 68.15 59.75 67.55 61.15 66.9 62.05 65.75 L 59.4 63.85 Q 58.95 64.5 58.3 64.9 57.65 65.3 56.7 65.3 55.6 65.3 54.9 64.7 54.1 64.05 53.9 62.95 L 62.6 62.95 62.6 61.8 M 54.1 59.55 Q 54.3 59.1 54.65 58.8 54.95 58.5 55.45 58.3 55.95 58.1 56.55 58.1 57.55 58.1 58.2 58.75 58.9 59.45 58.85 60.4 L 53.9 60.4 Q 53.9 59.95 54.1 59.55 M 37.85 50.15 L 32 50.15 32 67.85 38.4 67.85 Q 40.35 67.85 42.15 67.3 43.95 66.7 45.3 65.6 46.7 64.5 47.5 62.85 48.3 61.2 48.3 59.05 48.3 56.6 47.45 54.9 46.65 53.25 45.2 52.15 43.8 51.1 41.9 50.65 40 50.15 37.85 50.15 M 37.95 64.25 L 35.9 64.25 35.9 53.75 38.2 53.75 Q 39.4 53.75 40.55 54.05 41.65 54.35 42.45 55 43.3 55.65 43.75 56.6 44.25 57.55 44.25 58.85 44.25 60.35 43.75 61.4 43.3 62.45 42.45 63.05 41.6 63.7 40.45 63.95 39.25 64.25 37.95 64.25 M 68.7 48.95 L 64.95 48.95 64.95 67.85 68.7 67.85 68.7 48.95 Z"
         id="path3648" />
    </g>
    <g
       id="Layer2_0_FILL">
      <path
         fill="#D7D7D7"
         stroke="none"
         d=" M 84.95 77.8 Q 83.7 50.5 84.95 23.15 84.95 17.3 79.1 17.3 L 21.9 17.3 Q 16.05 17.3 16.05 23.15 17.3 50.5 16.05 77.8 16.05 83.65 21.9 83.65 L 79.1 83.65 Q 84.95 83.65 84.95 77.8 M 55.4 26.45 L 71.55 26.45 Q 75.8 26.45 75.8 30.7 74.65 50.5 75.8 70.25 75.8 74.45 71.55 74.45 L 55.4 74.45 54.15 74.45 29.45 74.45 Q 25.2 74.45 25.2 70.25 26.35 50.5 25.2 30.7 25.2 26.45 29.45 26.45 L 54.15 26.45 55.4 26.45 Z"
         id="path3651" />
      <path
         fill="#F5F5F5"
         stroke="none"
         d=" M 71.55 26.45 L 55.4 26.45 54.15 26.45 29.45 26.45 Q 25.2 26.45 25.2 30.7 26.35 50.5 25.2 70.25 25.2 74.45 29.45 74.45 L 54.15 74.45 55.4 74.45 71.55 74.45 Q 75.8 74.45 75.8 70.25 74.65 50.5 75.8 30.7 75.8 26.45 71.55 26.45 M 64.95 48.95 L 68.7 48.95 68.7 67.85 64.95 67.85 64.95 48.95 M 32 50.15 L 37.85 50.15 Q 40 50.15 41.9 50.65 43.8 51.1 45.2 52.15 46.65 53.25 47.45 54.9 48.3 56.6 48.3 59.05 48.3 61.2 47.5 62.85 46.7 64.5 45.3 65.6 43.95 66.7 42.15 67.3 40.35 67.85 38.4 67.85 L 32 67.85 32 50.15 M 62.2 59.15 Q 62.6 60.35 62.6 61.8 L 62.6 62.95 53.9 62.95 Q 54.1 64.05 54.9 64.7 55.6 65.3 56.7 65.3 57.65 65.3 58.3 64.9 58.95 64.5 59.4 63.85 L 62.05 65.75 Q 61.15 66.9 59.75 67.55 58.4 68.15 56.9 68.15 55.5 68.15 54.25 67.7 53 67.25 52.1 66.4 51.2 65.6 50.7 64.4 50.15 63.2 50.15 61.8 50.15 60.35 50.7 59.15 51.2 57.95 52.1 57.15 53 56.3 54.25 55.85 55.5 55.4 56.9 55.4 58.2 55.4 59.25 55.85 60.3 56.3 61.05 57.15 61.8 57.95 62.2 59.15 M 54.65 58.8 Q 54.3 59.1 54.1 59.55 53.9 59.95 53.9 60.4 L 58.85 60.4 Q 58.9 59.45 58.2 58.75 57.55 58.1 56.55 58.1 55.95 58.1 55.45 58.3 54.95 58.5 54.65 58.8 M 35.9 64.25 L 37.95 64.25 Q 39.25 64.25 40.45 63.95 41.6 63.7 42.45 63.05 43.3 62.45 43.75 61.4 44.25 60.35 44.25 58.85 44.25 57.55 43.75 56.6 43.3 55.65 42.45 55 41.65 54.35 40.55 54.05 39.4 53.75 38.2 53.75 L 35.9 53.75 35.9 64.25 Z"
         id="path3653" />
      <path
         fill="#404040"
         stroke="none"
         d=" M 62.6 61.8 Q 62.6 60.35 62.2 59.15 61.8 57.95 61.05 57.15 60.3 56.3 59.25 55.85 58.2 55.4 56.9 55.4 55.5 55.4 54.25 55.85 53 56.3 52.1 57.15 51.2 57.95 50.7 59.15 50.15 60.35 50.15 61.8 50.15 63.2 50.7 64.4 51.2 65.6 52.1 66.4 53 67.25 54.25 67.7 55.5 68.15 56.9 68.15 58.4 68.15 59.75 67.55 61.15 66.9 62.05 65.75 L 59.4 63.85 Q 58.95 64.5 58.3 64.9 57.65 65.3 56.7 65.3 55.6 65.3 54.9 64.7 54.1 64.05 53.9 62.95 L 62.6 62.95 62.6 61.8 M 54.1 59.55 Q 54.3 59.1 54.65 58.8 54.95 58.5 55.45 58.3 55.95 58.1 56.55 58.1 57.55 58.1 58.2 58.75 58.9 59.45 58.85 60.4 L 53.9 60.4 Q 53.9 59.95 54.1 59.55 M 37.85 50.15 L 32 50.15 32 67.85 38.4 67.85 Q 40.35 67.85 42.15 67.3 43.95 66.7 45.3 65.6 46.7 64.5 47.5 62.85 48.3 61.2 48.3 59.05 48.3 56.6 47.45 54.9 46.65 53.25 45.2 52.15 43.8 51.1 41.9 50.65 40 50.15 37.85 50.15 M 37.95 64.25 L 35.9 64.25 35.9 53.75 38.2 53.75 Q 39.4 53.75 40.55 54.05 41.65 54.35 42.45 55 43.3 55.65 43.75 56.6 44.25 57.55 44.25 58.85 44.25 60.35 43.75 61.4 43.3 62.45 42.45 63.05 41.6 63.7 40.45 63.95 39.25 64.25 37.95 64.25 M 68.7 48.95 L 64.95 48.95 64.95 67.85 68.7 67.85 68.7 48.95 Z"
         id="path3655" />
    </g>
    <path
       id="Layer3_0_1_STROKES"
       stroke="#1D1D1D"
       stroke-width="5"
       stroke-linejoin="round"
       stroke-linecap="round"
       fill="none"
       d=" M 84.95 23.15 Q 83.7 50.5 84.95 77.8 84.95 83.65 79.1 83.65 L 21.9 83.65 Q 16.05 83.65 16.05 77.8 17.3 50.5 16.05 23.15 16.05 17.3 21.9 17.3 L 79.1 17.3 Q 84.95 17.3 84.95 23.15 Z" />
    <path
       id="Layer3_0_2_STROKES"
       stroke="#696969"
       stroke-width="4"
       stroke-linejoin="round"
       stroke-linecap="round"
       fill="none"
       d=" M 54.15 26.45 L 29.45 26.45 Q 25.2 26.45 25.2 30.7 26.35 50.5 25.2 70.25 25.2 74.45 29.45 74.45 L 54.15 74.45 M 55.4 74.45 L 71.55 74.45 Q 75.8 74.45 75.8 70.25 74.65 50.5 75.8 30.7 75.8 26.45 71.55 26.45 L 55.4 26.45" />
    <path
       id="Layer2_0_1_STROKES"
       stroke="#404040"
       stroke-width="5"
       stroke-linejoin="round"
       stroke-linecap="round"
       fill="none"
       d=" M 84.95 23.15 Q 83.7 50.5 84.95 77.8 84.95 83.65 79.1 83.65 L 21.9 83.65 Q 16.05 83.65 16.05 77.8 17.3 50.5 16.05 23.15 16.05 17.3 21.9 17.3 L 79.1 17.3 Q 84.95 17.3 84.95 23.15 Z" />
    <path
       id="Layer2_0_2_STROKES"
       stroke="#FFFFFF"
       stroke-width="4"
       stroke-linejoin="round"
       stroke-linecap="round"
       fill="none"
       d=" M 55.4 74.45 L 71.55 74.45 Q 75.8 74.45 75.8 70.25 74.65 50.5 75.8 30.7 75.8 26.45 71.55 26.45 L 55.4 26.45 M 54.15 26.45 L 29.45 26.45 Q 25.2 26.45 25.2 30.7 26.35 50.5 25.2 70.25 25.2 74.45 29.45 74.45 L 54.15 74.45" />
  </defs>
  <g
     transform="matrix( 1, 0, 0, 1, 0,0) "
     id="g3670">
    <use
       xlink:href="#Layer3_0_FILL"
       id="use3664" />
    <use
       xlink:href="#Layer3_0_1_STROKES"
       id="use3666" />
    <use
       xlink:href="#Layer3_0_2_STROKES"
       id="use3668" />
  </g>
  <g
     id="g3678"
     style="display:none">
    <use
       xlink:href="#Layer2_0_FILL"
       id="use3672" />
    <use
       xlink:href="#Layer2_0_1_STROKES"
       id="use3674" />
    <use
       xlink:href="#Layer2_0_2_STROKES"
       id="use3676" />
  </g>
</svg>
