<?xml version="1.0" encoding="UTF-8" standalone="no"?>
<svg
   version="1.1"
   preserveAspectRatio="none"
   x="0px"
   y="0px"
   width="100px"
   height="100px"
   viewBox="0 0 100 100"
   id="svg2530"
   sodipodi:docname="Vector Source0019.svg"
   inkscape:version="1.2.1 (9c6d41e410, 2022-07-14)"
   xmlns:inkscape="http://www.inkscape.org/namespaces/inkscape"
   xmlns:sodipodi="http://sodipodi.sourceforge.net/DTD/sodipodi-0.dtd"
   xmlns:xlink="http://www.w3.org/1999/xlink"
   xmlns="http://www.w3.org/2000/svg"
   xmlns:svg="http://www.w3.org/2000/svg">
  <sodipodi:namedview
     id="namedview2532"
     pagecolor="#ffffff"
     bordercolor="#000000"
     borderopacity="0.25"
     inkscape:showpageshadow="2"
     inkscape:pageopacity="0.0"
     inkscape:pagecheckerboard="0"
     inkscape:deskcolor="#d1d1d1"
     showgrid="false"
     inkscape:zoom="10.27"
     inkscape:cx="42.55112"
     inkscape:cy="50"
     inkscape:window-width="2400"
     inkscape:window-height="1261"
     inkscape:window-x="5591"
     inkscape:window-y="431"
     inkscape:window-maximized="1"
     inkscape:current-layer="svg2530" />
  <defs
     id="defs2390">
    <linearGradient
       id="Gradient_1"
       gradientUnits="userSpaceOnUse"
       x1="-0.05"
       y1="-29.2375"
       x2="-0.05"
       y2="19.337500000000002"
       spreadMethod="pad">
      <stop
         offset="0%"
         stop-color="#000000"
         stop-opacity="0.2"
         id="stop2166" />
      <stop
         offset="99.2156862745098%"
         stop-color="#000000"
         stop-opacity="0"
         id="stop2168" />
    </linearGradient>
    <linearGradient
       id="Gradient_2"
       gradientUnits="userSpaceOnUse"
       x1="-0.05"
       y1="-28.2875"
       x2="-0.05"
       y2="15.487500000000002"
       spreadMethod="pad">
      <stop
         offset="0%"
         stop-color="#000000"
         stop-opacity="0.2"
         id="stop2171" />
      <stop
         offset="99.2156862745098%"
         stop-color="#000000"
         stop-opacity="0"
         id="stop2173" />
    </linearGradient>
    <linearGradient
       id="Gradient_3"
       gradientUnits="userSpaceOnUse"
       x1="-0.05"
       y1="-27.0375"
       x2="-0.05"
       y2="6.9375"
       spreadMethod="pad">
      <stop
         offset="0%"
         stop-color="#000000"
         stop-opacity="0.2"
         id="stop2176" />
      <stop
         offset="99.2156862745098%"
         stop-color="#000000"
         stop-opacity="0"
         id="stop2178" />
    </linearGradient>
    <linearGradient
       id="Gradient_4"
       gradientUnits="userSpaceOnUse"
       x1="0.1"
       y1="9.6625"
       x2="0.1"
       y2="-7.1625"
       spreadMethod="pad">
      <stop
         offset="0%"
         stop-color="#796C4B"
         stop-opacity="0"
         id="stop2181" />
      <stop
         offset="19.607843137254903%"
         stop-color="#796C4B"
         id="stop2183" />
    </linearGradient>
    <linearGradient
       id="Gradient_5"
       gradientUnits="userSpaceOnUse"
       x1="-0.25"
       y1="-3.6999999999999993"
       x2="-0.25"
       y2="-14.7"
       spreadMethod="pad">
      <stop
         offset="0%"
         stop-color="#F1B776"
         id="stop2186" />
      <stop
         offset="100%"
         stop-color="#876B47"
         id="stop2188" />
    </linearGradient>
    <linearGradient
       id="Gradient_6"
       gradientUnits="userSpaceOnUse"
       x1="0.1"
       y1="28.45"
       x2="0.1"
       y2="1.9499999999999993"
       spreadMethod="pad">
      <stop
         offset="0%"
         stop-color="#876B47"
         stop-opacity="0"
         id="stop2191" />
      <stop
         offset="19.607843137254903%"
         stop-color="#876B47"
         id="stop2193" />
    </linearGradient>
    <linearGradient
       id="Gradient_7"
       gradientUnits="userSpaceOnUse"
       x1="-0.05"
       y1="-27.012500000000003"
       x2="-0.05"
       y2="3.8125000000000018"
       spreadMethod="pad">
      <stop
         offset="0%"
         stop-color="#000000"
         stop-opacity="0.2"
         id="stop2196" />
      <stop
         offset="99.2156862745098%"
         stop-color="#000000"
         stop-opacity="0"
         id="stop2198" />
    </linearGradient>
    <linearGradient
       id="Gradient_8"
       gradientUnits="userSpaceOnUse"
       x1="8.399999999999999"
       y1="50"
       x2="32.9"
       y2="50"
       spreadMethod="pad">
      <stop
         offset="0%"
         stop-color="#404040"
         id="stop2201" />
      <stop
         offset="100%"
         stop-color="#1B1B1B"
         id="stop2203" />
    </linearGradient>
    <g
       id="Layer21_0_FILL">
      <path
         fill="#A91818"
         stroke="none"
         d=" M 24.95 67.8 L 24.95 67.75 Q 21.75 64.5 17.2 64.45 12.7 64.45 9.45 67.65 6.2 70.85 6.15 75.4 6.2 77.35 6.25 79.35 7.45 99.9 22.8 113.6 37 126.25 55.5 126.2 L 55.65 128.45 Q 55.7 129.6 56.4 130.65 57.05 131.7 58.25 132.25 59.35 132.75 60.5 132.6 L 62.1 132.55 Q 63.55 132.35 64.7 131.4 L 80.45 117.1 Q 81.4 116.15 81.8 114.95 82.15 113.55 81.6 112.3 81.1 111 80.05 110.2 L 62.8 97.65 Q 61.45 96.65 59.8 96.7 L 58.25 96.95 Q 56.35 97.1 55.2 98.55 54 99.85 54.1 101.7 L 54.25 104.3 Q 44.8 103.75 37.45 97.2 28.9 89.55 28.25 78.1 28.2 76.75 28.15 75.5 28.25 71 24.95 67.8 M 12.65 70.9 Q 14.5 69 17.15 69 19.95 68.95 21.75 70.85 23.7 72.8 23.6 75.45 23.65 76.9 23.75 78.35 24.5 91.6 34.5 100.5 L 34.6 100.55 Q 44.5 109.4 57.85 108.7 58.2 108.65 58.55 108.65 58.8 108.65 59 108.65 L 58.65 101.4 60.2 101.25 77.4 113.85 61.7 128 60.15 128.15 59.75 121.65 Q 59.6 121.65 59.25 121.6 58.95 121.65 58.6 121.6 39.85 122.75 25.95 110.2 11.8 97.75 10.75 79 10.65 77.25 10.65 75.45 10.7 72.7 12.65 70.9 M 40.3 -0.5 L 39.95 -2.65 Q 39.7 -3.9 38.9 -4.8 38.1 -5.7 36.9 -6.1 35.75 -6.5 34.55 -6.25 L 33 -5.9 Q 31.55 -5.65 30.65 -4.45 L 16.65 11.5 Q 15.7 12.45 15.5 13.8 15.35 15.15 16 16.45 16.65 17.65 17.75 18.3 L 36.35 28.8 Q 37.85 29.6 39.5 29.25 L 41.05 28.95 Q 42.85 28.65 43.8 27.05 44.85 25.55 44.5 23.75 L 44.1 21.2 Q 53.5 20.65 61.55 26.25 71.05 32.9 73.05 44.2 73.25 45.5 73.4 46.75 73.85 51.2 77.45 54 L 77.5 54.1 Q 81 56.95 85.6 56.35 90.05 55.85 92.9 52.35 95.75 48.75 95.2 44.2 94.95 42.35 94.65 40.45 91.1 20.1 74.2 8.25 L 74.25 8.3 74.15 8.25 74.2 8.25 Q 58.7 -2.6 40.3 -0.5 M 34 -1.55 L 35.45 -1.9 36.6 4.65 Q 36.85 4.55 37.1 4.55 37.45 4.5 37.8 4.4 56.25 1.15 71.6 11.95 86.95 22.7 90.3 41.2 90.55 42.95 90.75 44.7 91.05 47.4 89.4 49.5 87.75 51.65 85 51.9 82.4 52.2 80.25 50.55 78.1 48.8 77.9 46.2 77.7 44.8 77.45 43.45 75.15 30.25 64.15 22.6 L 64.1 22.55 Q 53.15 14.9 40.05 17.25 39.7 17.25 39.35 17.35 39.1 17.4 38.8 17.35 L 40.1 24.55 38.6 24.9 20.05 14.4 34 -1.55 Z"
         id="path2206" />
      <path
         fill="#E02727"
         stroke="none"
         d=" M 17.15 69 Q 14.5 69 12.65 70.9 10.7 72.7 10.65 75.45 10.65 77.25 10.75 79 11.8 97.75 25.95 110.2 39.85 122.75 58.6 121.6 58.95 121.65 59.25 121.6 59.6 121.65 59.75 121.65 L 60.15 128.15 61.7 128 77.4 113.85 60.2 101.25 58.65 101.4 59 108.65 Q 58.8 108.65 58.55 108.65 58.2 108.65 57.85 108.7 44.5 109.4 34.6 100.55 L 34.5 100.5 Q 24.5 91.6 23.75 78.35 23.65 76.9 23.6 75.45 23.7 72.8 21.75 70.85 19.95 68.95 17.15 69 M 35.45 -1.9 L 34 -1.55 20.05 14.4 38.6 24.9 40.1 24.55 38.8 17.35 Q 39.1 17.4 39.35 17.35 39.7 17.25 40.05 17.25 53.15 14.9 64.1 22.55 L 64.15 22.6 Q 75.15 30.25 77.45 43.45 77.7 44.8 77.9 46.2 78.1 48.8 80.25 50.55 82.4 52.2 85 51.9 87.75 51.65 89.4 49.5 91.05 47.4 90.75 44.7 90.55 42.95 90.3 41.2 86.95 22.7 71.6 11.95 56.25 1.15 37.8 4.4 37.45 4.5 37.1 4.55 36.85 4.55 36.6 4.65 L 35.45 -1.9 Z"
         id="path2208" />
    </g>
    <g
       id="Finger_Front_0_Layer1_0_FILL">
      <path
         fill="url(#Gradient_1)"
         stroke="none"
         d=" M -16.2 -19.55 Q -16.3 -19.35 -16.35 -19.15 -16.65 -18.6 -16.85 -17.75 L -17.85 -13.8 -19.05 -0.95 -19.1 -0.95 -19.55 10.5 -19.3 24.3 -15.9 24.3 -16.1 10.5 -15.75 -0.95 -15.7 -0.95 -14.55 -13.8 -13.75 -17.65 Q -13.7 -17.95 -13.65 -18.05 L -13.6 -18.15 Q -13.4 -18.85 -13.1 -19.55 L -16.2 -19.55 M 16.3 -19.2 Q 16.2 -19.4 16.15 -19.55 L 13.05 -19.55 Q 13.3 -18.9 13.6 -18.15 13.6 -17.95 13.75 -17.65 L 14.55 -13.8 15.75 -0.95 15.7 -0.95 16.05 10.5 15.85 24.3 19.25 24.3 19.5 10.5 19.55 10.5 19.35 4.4 Q 19.35 4.45 19.4 4.55 L 17.85 -13.8 16.8 -17.75 Q 16.7 -18.15 16.6 -18.5 16.4 -18.95 16.3 -19.2 Z"
         id="path2211" />
      <path
         fill="url(#Gradient_2)"
         stroke="none"
         d=" M -13.1 -19.55 Q -12.35 -21.25 -11.4 -22.7 L -14.55 -22.7 Q -15.45 -21.25 -16.2 -19.55 L -13.1 -19.55 M 11.3 -22.7 Q 12.2 -21.35 13.05 -19.55 L 16.15 -19.55 Q 15.35 -21.25 14.5 -22.7 L 11.3 -22.7 Z"
         id="path2213" />
      <path
         fill="#876B47"
         stroke="none"
         d=" M -8.4 -23.9 L -8.4 -23.8 Q -8.3794921875 -23.855859375 -8.35 -23.9 -8.2734375 -24.1626953125 -8.2 -24.4 -8.3333984375 -24.1666015625 -8.4 -23.9 M -8.65 -19.55 L -8.55 -22.85 -10.35 -22.85 -10.35 -22.7 -10.85 -19.55 -8.65 -19.55 M 7.25 -26.1 L 7.15 -26.1 Q 7.3275390625 -25.9046875 7.5 -25.7 8.05 -24.9 8.35 -23.9 8.4 -23.7 8.5 -23.5 8.5 -23.35 8.6 -23.15 L 8.65 -19.55 10.75 -19.55 10.3 -22.7 11.3 -22.7 Q 11.2 -22.85 11.1 -22.95 L 10.95 -23.05 Q 9.2 -24.95 7.25 -26.1 Z"
         id="path2215" />
      <path
         fill="url(#Gradient_3)"
         stroke="none"
         d=" M -7.45 -26.1 L -11.3 -26.1 Q -13.1 -24.6 -14.55 -22.7 L -11.4 -22.7 Q -9.75 -24.75 -7.45 -26.1 M 11.15 -26.1 L 7.25 -26.1 Q 9.2 -24.95 10.95 -23.05 L 11.1 -22.95 Q 11.2 -22.85 11.3 -22.7 L 14.5 -22.7 Q 13.8 -23.6 13.1 -24.35 L 13.1 -24.4 Q 12.95 -24.45 12.9 -24.55 12.05 -25.4 11.15 -26.1 Z"
         id="path2217" />
      <path
         fill="url(#Gradient_4)"
         stroke="none"
         d=" M -7.2 -26.1 Q -7.082421875 -26.2298828125 -7 -26.35 -7.22421875 -26.2291015625 -7.45 -26.1 L -7.2 -26.1 M 7.15 -26.1 L 7.25 -26.1 Q 7.1501953125 -26.16640625 7.05 -26.2 7.1005859375 -26.1556640625 7.15 -26.1 Z"
         id="path2219" />
      <path
         fill="#FBCF9B"
         stroke="none"
         d=" M 3.2 2.6 Q 3.15 0.8 1.9 0.5 1.05 0.3 0.55 -0.25 0.25 -0.25 -0.05 -0.25 -2.9 -0.25 -5.7 -0.95 L -5.75 -0.95 Q -6.95 -1.25 -8.2 -1.65 -8.5 -1.75 -8.7 -1.9 -8.85 -2.05 -8.95 -2.1 -9.55 -2.55 -10 -3.15 -11.25 -4.9 -11.65 -7.55 -11.75 -7.95 -11.75 -8.1 L -11.7 -9.4 -12.25 -3.15 -12.2 -3.15 -12.65 10.5 -12.7 10.5 -12.55 26.75 Q -8.35 29.4 -3.85 30.3 -1.05 30.85 1.7 30.6 2.45 30.45 3.3 30.35 3.5 27.2 3.05 24.3 2.65 22.35 2.1 20.65 1.6 19.45 0.8 19.15 -2.2 18.65 -5.45 18.1 -8.5 17.6 -8.65 16.55 L -8.6 16.55 Q -9.35 15.9 -8.9 14.85 -7.9 14.65 -4.9 15.3 -2.05 15.8 2.15 14.9 L 2.55 14.15 2.55 12.45 1.7 11.65 Q 0.3 11.75 -1.1 11.95 -2.9 12.1 -4.7 11.9 -6.7 11.9 -8.1 10.85 L -8.15 10.5 -8.1 10.5 -8.2 9.9 Q -8.15 9.2 -7.4 8.9 -4.25 9.35 -0.8 8.6 3.2 7.7 3.2 2.6 Z"
         id="path2221" />
      <path
         fill="#F1B776"
         stroke="none"
         d=" M 9.95 -3.15 L 10 -3.15 Q 9.6 -2.7 9.2 -2.35 8.95 -2.15 8.65 -1.9 8.45 -1.75 8.15 -1.65 6.9 -1.25 5.65 -0.95 L 5.6 -0.95 Q 3.05 -0.35 0.55 -0.25 1.05 0.3 1.9 0.5 3.15 0.8 3.2 2.6 3.2 7.7 -0.8 8.6 -4.25 9.35 -7.4 8.9 -8.15 9.2 -8.2 9.9 L -8.1 10.5 -8.15 10.5 -8.1 10.85 Q -6.7 11.9 -4.7 11.9 -2.9 12.1 -1.1 11.95 0.3 11.75 1.7 11.65 L 2.55 12.45 2.55 14.15 2.15 14.9 Q -2.05 15.8 -4.9 15.3 -7.9 14.65 -8.9 14.85 -9.35 15.9 -8.6 16.55 L -8.65 16.55 Q -8.5 17.6 -5.45 18.1 -2.2 18.65 0.8 19.15 1.6 19.45 2.1 20.65 2.65 22.35 3.05 24.3 3.5 27.2 3.3 30.35 7.45 29.9 11.3 27.5 11.95 27.15 12.55 26.75 L 12.6 10.5 12.65 10.5 12.2 -3.15 12.15 -3.15 11.55 -10.8 11.65 -8.1 Q 11.65 -7.95 11.6 -7.55 11.15 -4.85 9.95 -3.15 Z"
         id="path2223" />
      <path
         fill="#FFFFFF"
         stroke="none"
         d=" M 0 -3.2 Q 0.85 -3.3 1.75 -3.3 4.3 -3.55 6.9 -4.45 7 -4.7 7.25 -4.75 4.15 -7.75 0.2 -7.65 -2.4 -7.8 -4.5 -6.5 -5.9 -5.85 -7 -4.65 L -6.9 -4.45 Q -5.7 -4.1 -4.45 -3.7 -3.3 -3.45 -1.95 -3.3 -1.65 -3.3 -1.15 -3.2 -0.6 -3.2 0 -3.2 M 0.9 -28.95 L 0.2 -29 Q 0 -29 -0.15 -29 L -1 -28.95 Q -3.6 -28.8 -5.8 -27.4 -6.492578125 -26.93828125 -7 -26.35 -7.082421875 -26.2298828125 -7.2 -26.1 -7.2150390625 -26.05078125 -7.25 -26 -7.8357421875 -25.2970703125 -8.2 -24.4 -8.2734375 -24.1626953125 -8.35 -23.9 -8.3794921875 -23.855859375 -8.4 -23.8 -8.55 -23.5337890625 -8.55 -23.15 L -8.55 -22.85 Q -8.4970703125 -22.959765625 -8.45 -23.1 -7.778125 -24.2853515625 -6.4 -25.25 -3.65 -27.25 0.15 -27.15 3.85 -27.25 6.65 -25.25 7.75 -24.55 8.5 -23.5 8.4 -23.7 8.35 -23.9 8.05 -24.9 7.5 -25.7 7.3275390625 -25.9046875 7.15 -26.1 7.1005859375 -26.1556640625 7.05 -26.2 6.4646484375 -26.8576171875 5.85 -27.4 3.35 -28.75 0.9 -28.95 Z"
         id="path2225" />
      <path
         fill="url(#Gradient_5)"
         stroke="none"
         d=" M 11.5 -13.8 L 11.45 -13.8 10.75 -19.55 8.65 -19.55 8.85 -8.5 Q 8.35 -6.15 7.25 -4.75 7 -4.7 6.9 -4.45 4.3 -3.55 1.75 -3.3 0.85 -3.3 0 -3.2 -0.6 -3.2 -1.15 -3.2 -1.65 -3.3 -1.95 -3.3 -3.3 -3.45 -4.45 -3.7 -5.7 -4.1 -6.9 -4.45 L -7 -4.65 Q -8.45 -5.9 -8.85 -8.5 L -8.65 -19.55 -10.85 -19.55 -11.6 -13.8 -11.55 -13.8 -11.7 -9.4 -11.75 -8.1 Q -11.75 -7.95 -11.65 -7.55 -11.25 -4.9 -10 -3.15 -9.55 -2.55 -8.95 -2.1 -8.85 -2.05 -8.7 -1.9 -8.5 -1.75 -8.2 -1.65 -6.95 -1.25 -5.75 -0.95 L -5.7 -0.95 Q -2.9 -0.25 -0.05 -0.25 0.25 -0.25 0.55 -0.25 3.05 -0.35 5.6 -0.95 L 5.65 -0.95 Q 6.9 -1.25 8.15 -1.65 8.45 -1.75 8.65 -1.9 8.95 -2.15 9.2 -2.35 9.6 -2.7 10 -3.15 L 9.95 -3.15 Q 11.15 -4.85 11.6 -7.55 11.65 -7.95 11.65 -8.1 L 11.55 -10.8 11.5 -13.8 Z"
         id="path2227" />
      <path
         fill="url(#Gradient_6)"
         stroke="none"
         d=" M 11.3 -22.7 L 10.3 -22.7 10.75 -19.55 11.45 -13.8 11.5 -13.8 11.55 -10.8 12.15 -3.15 12.2 -3.15 12.65 10.5 12.6 10.5 12.55 26.75 Q 11.95 27.15 11.3 27.5 7.45 29.9 3.3 30.35 2.45 30.45 1.7 30.6 -1.05 30.85 -3.85 30.3 -8.35 29.4 -12.55 26.75 L -12.7 10.5 -12.65 10.5 -12.2 -3.15 -12.25 -3.15 -11.7 -9.4 -11.55 -13.8 -11.6 -13.8 -10.85 -19.55 -10.35 -22.7 -10.35 -22.85 -8.55 -22.85 -8.55 -23.15 Q -8.55 -23.5337890625 -8.4 -23.8 L -8.4 -23.9 Q -8.3333984375 -24.1666015625 -8.2 -24.4 -7.8357421875 -25.2970703125 -7.25 -26 -7.2150390625 -26.05078125 -7.2 -26.1 L -7.45 -26.1 Q -9.75 -24.75 -11.4 -22.7 -12.35 -21.25 -13.1 -19.55 -13.4 -18.85 -13.6 -18.15 L -13.65 -18.05 Q -13.7 -17.95 -13.75 -17.65 L -14.55 -13.8 -15.7 -0.95 -15.75 -0.95 -16.1 10.5 -15.9 24.3 -15.8 28.05 Q -15.85 28.1 -15.8 28.25 -15.9 28.75 -15.55 29.35 L -15.55 29.25 Q -15.4 29.75 -14.85 30.15 -7.55 34.85 -0.15 34.9 1.2 34.85 2.65 34.75 L 2.7 34.75 Q 4.7 34.4 6.55 34 6.5 33.95 6.65 34 10.75 32.6 14.8 30.15 15.2 29.8 15.55 29.35 15.75 28.8 15.85 28.25 15.8 28.1 15.85 28.05 L 15.85 24.3 16.05 10.5 15.7 -0.95 15.75 -0.95 14.55 -13.8 13.75 -17.65 Q 13.6 -17.95 13.6 -18.15 13.3 -18.9 13.05 -19.55 12.2 -21.35 11.3 -22.7 Z"
         id="path2229" />
      <path
         fill="#FFFCF4"
         stroke="none"
         d=" M 6.65 -25.25 Q 3.85 -27.25 0.15 -27.15 -3.65 -27.25 -6.4 -25.25 -7.778125 -24.2853515625 -8.45 -23.1 -8.4970703125 -22.959765625 -8.55 -22.85 L -8.65 -19.55 -8.85 -8.5 Q -8.45 -5.9 -7 -4.65 -5.9 -5.85 -4.5 -6.5 -2.4 -7.8 0.2 -7.65 4.15 -7.75 7.25 -4.75 8.35 -6.15 8.85 -8.5 L 8.65 -19.55 8.6 -23.15 Q 8.5 -23.35 8.5 -23.5 7.75 -24.55 6.65 -25.25 Z"
         id="path2231" />
      <path
         fill="url(#Gradient_7)"
         stroke="none"
         d=" M 0.2 -29 L 0.9 -28.95 Q 3.35 -28.75 5.85 -27.4 6.4646484375 -26.8576171875 7.05 -26.2 7.1501953125 -26.16640625 7.25 -26.1 L 11.15 -26.1 Q 9.85 -27.05 8.5 -27.7 7.65 -28.4 6.65 -29.05 6.45 -29.1 6.25 -29.25 3 -30.55 -0.15 -30.5 -3.35 -30.55 -6.35 -29.2 -6.6 -29.1 -6.75 -29.05 -7.6 -28.6 -8.25 -27.95 -9.9 -27.15 -11.3 -26.1 L -7.45 -26.1 Q -7.22421875 -26.2291015625 -7 -26.35 -6.492578125 -26.93828125 -5.8 -27.4 -3.6 -28.8 -1 -28.95 L -0.15 -29 Q 0 -29 0.2 -29 Z"
         id="path2233" />
    </g>
    <g
       id="Layer19_0_FILL">
      <path
         fill="#D7D7D7"
         stroke="none"
         d=" M 62.65 90.45 Q 61.8283203125 90.6896484375 61 90.9 61.88125 90.7033203125 62.75 90.45 L 62.75 90.4 62.75 90.35 Q 62.703515625 90.38359375 62.65 90.4 L 62.65 90.45 M 32.75 67.35 L 32.75 67.4 37.3 90.35 37.3 90.4 37.35 90.45 Q 38.5267578125 90.8244140625 39.7 91.1 44.6556640625 92.3748046875 49.75 92.35 55.28984375 92.375 61 90.9 61.8283203125 90.6896484375 62.65 90.45 L 62.65 90.4 67.25 67.4 60.65 62.35 60.6 62.3 Q 59.2 64 58.8 66.3 L 55.2 84.25 Q 54.53125 84.35 53.85 84.4 L 49.9 84.65 Q 47.9943359375 84.672265625 46.1 84.45 45.4244140625 84.39921875 44.75 84.3 L 41.15 66.3 Q 40.705859375 63.8330078125 39.1 62 39.071875 61.9744140625 39.05 61.95 L 32.75 67.35 Z"
         id="path2236" />
      <path
         fill="#353535"
         stroke="none"
         d=" M 37.3 90.4 L 37.3 90.35 32.75 67.4 9.65 62.8 Q 12.6 72.3 20.15 79.85 27.75 87.45 37.3 90.4 M 31.15 82.75 L 31.2 82.85 Q 27 80.35 23.3 76.7 19.7 73.05 17.25 68.9 L 28.9 71.25 31.15 82.75 M 37.35 9.65 L 37.35 9.65 Q 27.75 12.55 20.15 20.15 12.5 27.8 9.55 37.45 L 32.7 32.9 37.35 9.65 M 23.3 23.35 Q 27.05 19.6 31.25 17.2 L 31.2 17.25 28.85 29.05 17.05 31.4 Q 19.55 27.1 23.3 23.35 M 90.35 62.75 L 90.35 62.75 67.3 67.35 67.25 67.4 62.65 90.4 Q 62.703515625 90.38359375 62.75 90.35 72.2923828125 87.4076171875 79.85 79.85 87.44140625 72.25859375 90.35 62.75 M 82.75 68.85 L 82.7 68.85 Q 80.33984375 73.01015625 76.65 76.7 73.048828125 80.301171875 68.85 82.75 68.80703125 82.8166015625 68.75 82.85 L 71.1 71.2 82.75 68.85 M 90.45 62.75 L 90.35 62.75 Q 87.44140625 72.25859375 79.85 79.85 72.2923828125 87.4076171875 62.75 90.35 L 62.75 90.4 Q 72.35 87.45 79.95 79.85 87.55 72.25 90.45 62.75 M 90.4 37.4 L 90.5 37.45 Q 87.6169921875 27.8169921875 79.95 20.15 72.35 12.55 62.75 9.65 L 62.75 9.65 Q 72.2921875 12.5921875 79.85 20.15 87.50859375 27.80859375 90.4 37.4 M 90.4 37.45 L 90.4 37.4 Q 87.50859375 27.80859375 79.85 20.15 72.2921875 12.5921875 62.75 9.65 62.7033203125 9.666015625 62.65 9.65 L 67.25 32.9 90.4 37.45 M 82.85 31.35 L 82.9 31.4 71.05 29.05 68.7 17.15 Q 68.756640625 17.1826171875 68.8 17.2 72.99921875 19.65 76.65 23.35 80.440234375 27.090234375 82.85 31.35 Z"
         id="path2238" />
      <path
         fill="#4D4D4D"
         stroke="none"
         d=" M 31.2 82.85 L 31.15 82.75 28.9 71.25 17.25 68.9 Q 19.7 73.05 23.3 76.7 27 80.35 31.2 82.85 M 31.25 17.2 Q 27.05 19.6 23.3 23.35 19.55 27.1 17.05 31.4 L 28.85 29.05 31.2 17.25 31.25 17.2 M 82.7 68.85 L 82.75 68.85 71.1 71.2 68.75 82.85 Q 68.80703125 82.8166015625 68.85 82.75 73.048828125 80.301171875 76.65 76.7 80.33984375 73.01015625 82.7 68.85 M 82.9 31.4 L 82.85 31.35 Q 80.440234375 27.090234375 76.65 23.35 72.99921875 19.65 68.8 17.2 68.756640625 17.1826171875 68.7 17.15 L 71.05 29.05 82.9 31.4 Z"
         id="path2240" />
      <path
         fill="#6E6E6E"
         stroke="none"
         d=" M 62.65 9.65 Q 62.7033203125 9.666015625 62.75 9.65 L 62.75 9.65 62.75 9.6 Q 61.88125 9.3466796875 61 9.15 61.8283203125 9.3603515625 62.65 9.6 L 62.65 9.65 M 84.2 55.35 Q 84.95 50.25 84.15 44.95 L 66.05 41.35 Q 63.3 40.8 61.3 38.8 59.3 36.85 58.8 34.05 L 55.2 15.85 Q 49.85 15.05 44.75 15.8 L 41.1 34.1 Q 40.6 36.85 38.55 38.8 36.6 40.8 33.85 41.35 L 15.75 44.95 Q 14.95 50.25 15.7 55.35 L 33.9 59 Q 36.7 59.55 38.65 61.55 38.85 61.75 39.05 61.95 39.071875 61.9744140625 39.1 62 40.705859375 63.8330078125 41.15 66.3 L 44.75 84.3 Q 45.4244140625 84.39921875 46.1 84.45 47.9943359375 84.672265625 49.9 84.65 L 53.85 84.4 Q 54.53125 84.35 55.2 84.25 L 58.8 66.3 Q 59.2 64 60.6 62.3 60.95 61.9 61.3 61.55 63.3 59.55 66 59 L 84.2 55.35 M 82.95 45.1 Q 83.7 50.2 83 55.15 L 65.45 58.65 Q 62.85 59.2 60.9 61.1 60.5 61.5 60.15 61.95 58.9 63.6 58.5 65.7 L 55.05 83 Q 54.40625 83.09375 53.75 83.15 L 49.95 83.4 Q 48.094140625 83.3974609375 46.25 83.2 45.6056640625 83.1427734375 44.95 83.05 L 41.5 65.7 Q 41.1 63.6 39.85 61.95 39.5 61.5 39.1 61.1 37.2 59.2 34.5 58.65 L 16.95 55.15 Q 16.25 50.2 17 45.1 L 34.45 41.65 Q 37.1 41.1 39 39.2 40.95 37.3 41.45 34.65 L 44.95 17 Q 45.578515625 16.9111328125 46.2 16.85 L 53.7 16.85 Q 54.3779296875 16.9521484375 55.05 17.05 L 58.5 34.6 Q 59 37.3 60.9 39.2 62.85 41.1 65.5 41.65 L 82.95 45.1 M 91.85 44.25 L 91.05 39.95 Q 90.76015625 38.6830078125 90.4 37.45 L 67.25 32.9 62.65 9.65 62.65 9.6 Q 61.8283203125 9.3603515625 61 9.15 55.664453125 7.88359375 49.75 7.65 44.75 7.837890625 39.7 8.9 38.5265625 9.2255859375 37.35 9.6 L 37.35 9.65 37.35 9.65 32.7 32.9 9.55 37.45 Q 5.7 50.7 9.55 62.75 L 9.65 62.8 32.75 67.4 32.75 67.35 39.05 61.95 Q 38.85 61.75 38.65 61.55 36.7 59.55 33.9 59 L 15.7 55.35 Q 14.95 50.25 15.75 44.95 L 33.85 41.35 Q 36.6 40.8 38.55 38.8 40.6 36.85 41.1 34.1 L 44.75 15.8 Q 49.85 15.05 55.2 15.85 L 58.8 34.05 Q 59.3 36.85 61.3 38.8 63.3 40.8 66.05 41.35 L 84.15 44.95 Q 84.95 50.25 84.2 55.35 L 66 59 Q 63.3 59.55 61.3 61.55 60.95 61.9 60.6 62.3 L 60.65 62.35 67.25 67.4 67.3 67.35 90.35 62.75 90.4 62.75 Q 93.25 53.8 91.85 44.25 M 91.05 39.95 L 91.85 44.25 Q 93.25 53.8 90.4 62.75 L 90.35 62.75 90.35 62.75 90.45 62.75 90.5 62.75 Q 93.35 53.8 91.95 44.25 L 91.15 39.95 Q 90.86015625 38.6830078125 90.5 37.45 L 90.4 37.4 90.4 37.45 Q 90.76015625 38.6830078125 91.05 39.95 Z"
         id="path2242" />
      <path
         fill="#F5F5F5"
         stroke="none"
         d=" M 39.9 61.9 Q 39.882421875 61.9275390625 39.85 61.95 41.1 63.6 41.5 65.7 L 44.95 83.05 Q 45.6056640625 83.1427734375 46.25 83.2 48.094140625 83.3974609375 49.95 83.4 L 53.75 83.15 Q 54.40625 83.09375 55.05 83 L 58.5 65.7 Q 58.9 63.6 60.15 61.95 49.9330078125 54.9724609375 39.9 61.9 Z"
         id="path2244" />
      <path
         fill="#888888"
         stroke="none"
         d=" M 83 55.15 Q 83.7 50.2 82.95 45.1 L 65.5 41.65 Q 62.85 41.1 60.9 39.2 59 37.3 58.5 34.6 L 55.05 17.05 Q 54.3779296875 16.9521484375 53.7 16.85 L 46.2 16.85 Q 45.578515625 16.9111328125 44.95 17 L 41.45 34.65 Q 40.95 37.3 39 39.2 37.1 41.1 34.45 41.65 L 17 45.1 Q 16.25 50.2 16.95 55.15 L 34.5 58.65 Q 37.2 59.2 39.1 61.1 39.5 61.5 39.85 61.95 39.882421875 61.9275390625 39.9 61.9 49.9330078125 54.9724609375 60.15 61.95 60.5 61.5 60.9 61.1 62.85 59.2 65.45 58.65 L 83 55.15 Z"
         id="path2246" />
    </g>
    <g
       id="Layer18_0_FILL">
      <path
         fill="#313131"
         stroke="none"
         d=" M 75.25 24.7 Q 64.85 14.3 50 14.3 35.2 14.3 24.75 24.7 14.3 35.15 14.3 50 14.3 64.8 24.75 75.25 35.2 85.7 50 85.7 64.85 85.7 75.25 75.25 85.7 64.8 85.7 50 85.7 35.15 75.25 24.7 M 50 22.8 Q 61.3 22.8 69.25 30.75 77.2 38.7 77.2 50 77.2 61.3 69.25 69.25 61.3 77.2 50 77.2 38.75 77.2 30.75 69.25 22.8 61.3 22.8 50 22.8 38.7 30.75 30.75 38.75 22.8 50 22.8 Z"
         id="path2249" />
      <path
         fill="#4F4F4F"
         stroke="none"
         d=" M 69.25 30.75 Q 61.3 22.8 50 22.8 38.75 22.8 30.75 30.75 22.8 38.7 22.8 50 22.8 61.3 30.75 69.25 38.75 77.2 50 77.2 61.3 77.2 69.25 69.25 77.2 61.3 77.2 50 77.2 38.7 69.25 30.75 M 57.55 39.75 L 57.55 47 65 47 65 61.4 42.95 61.4 42.95 54.15 35.5 54.15 35.5 39.75 57.55 39.75 M 65 47 L 57.55 47 42.95 47 42.95 54.15 42.95 61.4 65 61.4 65 47 M 57.55 47 L 57.55 39.75 35.5 39.75 35.5 54.15 42.95 54.15 42.95 47 57.55 47 Z"
         id="path2251" />
    </g>
    <g
       id="Layer17_0_FILL">
      <path
         fill="#313131"
         stroke="none"
         d=" M 35.15 71.8 L 33.95 91.75 37.35 95.1 62.65 95.1 66.05 91.75 64.85 71.8 55.45 59.4 44.55 59.4 35.15 71.8 M 48.1 66.1 L 49.35 66.1 50.65 66.1 51.9 66.1 58.15 73.9 59.05 88.4 40.95 88.4 41.85 73.9 48.1 66.1 M 66.05 8.25 L 62.65 4.9 37.35 4.9 33.95 8.25 35.15 28.2 44.55 40.6 55.45 40.6 64.85 28.2 66.05 8.25 M 40.95 11.6 L 59.05 11.6 58.15 26.1 51.9 33.9 50.65 33.9 49.35 33.9 48.1 33.9 41.85 26.1 40.95 11.6 M 95.1 37.35 L 91.75 33.95 71.8 35.15 59.4 44.55 59.4 55.45 71.8 64.85 91.75 66.05 95.1 62.65 95.1 37.35 M 88.4 40.95 L 88.4 59.05 73.9 58.15 66.1 51.9 66.1 50.65 66.1 49.35 66.1 48.1 73.9 41.85 88.4 40.95 Z"
         id="path2254" />
      <path
         fill="#4F4F4F"
         stroke="none"
         d=" M 49.35 66.1 L 48.1 66.1 41.85 73.9 40.95 88.4 59.05 88.4 58.15 73.9 51.9 66.1 50.65 66.1 49.35 66.1 M 59.05 11.6 L 40.95 11.6 41.85 26.1 48.1 33.9 49.35 33.9 50.65 33.9 51.9 33.9 58.15 26.1 59.05 11.6 M 88.4 59.05 L 88.4 40.95 73.9 41.85 66.1 48.1 66.1 49.35 66.1 50.65 66.1 51.9 73.9 58.15 88.4 59.05 Z"
         id="path2256" />
      <path
         fill="#D7D7D7"
         stroke="none"
         d=" M 8.25 33.95 L 4.9 37.35 4.9 62.65 8.25 66.05 28.2 64.85 40.6 55.45 40.6 44.55 28.2 35.15 8.25 33.95 M 11.6 40.95 L 26.1 41.85 33.9 48.1 33.9 49.35 33.9 50.65 33.9 51.9 26.1 58.15 11.6 59.05 11.6 40.95 Z"
         id="path2258" />
      <path
         fill="#F5F5F5"
         stroke="none"
         d=" M 26.1 41.85 L 11.6 40.95 11.6 59.05 26.1 58.15 33.9 51.9 33.9 50.65 33.9 49.35 33.9 48.1 26.1 41.85 Z"
         id="path2260" />
    </g>
    <g
       id="Layer16_0_FILL">
      <path
         fill="#313131"
         stroke="none"
         d=" M 33.95 91.75 L 37.35 95.1 62.65 95.1 66.05 91.75 64.85 71.8 55.45 59.4 44.55 59.4 35.15 71.8 33.95 91.75 M 50.65 66.1 L 51.9 66.1 58.15 73.9 59.05 88.4 40.95 88.4 41.85 73.9 48.1 66.1 49.35 66.1 50.65 66.1 M 8.25 33.95 L 4.9 37.35 4.9 62.65 8.25 66.05 28.2 64.85 40.6 55.45 40.6 44.55 28.2 35.15 8.25 33.95 M 11.6 40.95 L 26.1 41.85 33.9 48.1 33.9 49.35 33.9 50.65 33.9 51.9 26.1 58.15 11.6 59.05 11.6 40.95 M 66.05 8.25 L 62.65 4.9 37.35 4.9 33.95 8.25 35.15 28.2 44.55 40.6 55.45 40.6 64.85 28.2 66.05 8.25 M 40.95 11.6 L 59.05 11.6 58.15 26.1 51.9 33.9 50.65 33.9 49.35 33.9 48.1 33.9 41.85 26.1 40.95 11.6 Z"
         id="path2263" />
      <path
         fill="#4F4F4F"
         stroke="none"
         d=" M 51.9 66.1 L 50.65 66.1 49.35 66.1 48.1 66.1 41.85 73.9 40.95 88.4 59.05 88.4 58.15 73.9 51.9 66.1 M 26.1 41.85 L 11.6 40.95 11.6 59.05 26.1 58.15 33.9 51.9 33.9 50.65 33.9 49.35 33.9 48.1 26.1 41.85 M 59.05 11.6 L 40.95 11.6 41.85 26.1 48.1 33.9 49.35 33.9 50.65 33.9 51.9 33.9 58.15 26.1 59.05 11.6 Z"
         id="path2265" />
      <path
         fill="#D7D7D7"
         stroke="none"
         d=" M 95.1 37.35 L 91.75 33.95 71.8 35.15 59.4 44.55 59.4 55.45 71.8 64.85 91.75 66.05 95.1 62.65 95.1 37.35 M 88.4 40.95 L 88.4 59.05 73.9 58.15 66.1 51.9 66.1 50.65 66.1 49.35 66.1 48.1 73.9 41.85 88.4 40.95 Z"
         id="path2267" />
      <path
         fill="#F5F5F5"
         stroke="none"
         d=" M 88.4 59.05 L 88.4 40.95 73.9 41.85 66.1 48.1 66.1 49.35 66.1 50.65 66.1 51.9 73.9 58.15 88.4 59.05 Z"
         id="path2269" />
    </g>
    <g
       id="Layer13_0_FILL">
      <path
         fill="#313131"
         stroke="none"
         d=" M 86.5 61.85 L 86.5 19.7 Q 85.6 14.55 79.05 12.5 L 22.8 12.5 Q 18.75 16.6 18.35 26.5 21.9 47.75 18.35 70.8 17.15 77.65 22.25 84.65 27.35 89.35 35.4 90.6 51.3 93.1 62.05 83.95 L 68.6 70.35 Q 75.9 61.45 86.5 61.85 M 60.25 18.9 Q 64.45 21.3 63.75 26.25 63.9 40.25 60.4 53.4 57.95 62.65 53.15 70.75 50.15 76.5 45.05 81.65 39.35 84.9 33 83.5 24.55 80.65 24.35 73.85 26.9 60.65 26.9 44.3 26.45 34.1 24.65 24.7 24.45 21 27.1 18.9 L 60.25 18.9 Z"
         id="path2272" />
      <path
         fill="#4F4F4F"
         stroke="none"
         d=" M 63.75 26.25 Q 64.45 21.3 60.25 18.9 L 27.1 18.9 Q 24.45 21 24.65 24.7 26.45 34.1 26.9 44.3 26.9 60.65 24.35 73.85 24.55 80.65 33 83.5 39.35 84.9 45.05 81.65 50.15 76.5 53.15 70.75 57.95 62.65 60.4 53.4 63.9 40.25 63.75 26.25 M 56.65 27.8 Q 57 28.7 57 29.85 57 30.6 56.85 31.2 56.7 31.8 56.45 32.3 56.15 32.8 55.8 33.2 55.4 33.65 55 34.05 L 50.25 38.1 57.15 38.1 57.15 41 46.3 41 46.3 37.5 52.35 32.05 Q 52.8 31.65 53.25 31.1 53.7 30.6 53.7 29.9 53.7 29.1 53.15 28.65 52.6 28.2 51.8 28.2 50.9 28.2 50.35 28.75 49.85 29.35 49.8 30.15 L 46.5 29.95 Q 46.55 28.7 47 27.85 47.4 26.95 48.15 26.35 48.85 25.75 49.85 25.45 50.85 25.15 52 25.15 53.05 25.15 53.95 25.45 54.9 25.75 55.55 26.35 56.25 26.9 56.65 27.8 M 42.9 37.85 L 42.9 41 33.1 41 33.1 25.4 36.55 25.4 36.55 37.85 42.9 37.85 Z"
         id="path2274" />
      <path
         fill="#8C8C8C"
         stroke="none"
         d=" M 42.9 41 L 42.9 37.85 36.55 37.85 36.55 25.4 33.1 25.4 33.1 41 42.9 41 M 57 29.85 Q 57 28.7 56.65 27.8 56.25 26.9 55.55 26.35 54.9 25.75 53.95 25.45 53.05 25.15 52 25.15 50.85 25.15 49.85 25.45 48.85 25.75 48.15 26.35 47.4 26.95 47 27.85 46.55 28.7 46.5 29.95 L 49.8 30.15 Q 49.85 29.35 50.35 28.75 50.9 28.2 51.8 28.2 52.6 28.2 53.15 28.65 53.7 29.1 53.7 29.9 53.7 30.6 53.25 31.1 52.8 31.65 52.35 32.05 L 46.3 37.5 46.3 41 57.15 41 57.15 38.1 50.25 38.1 55 34.05 Q 55.4 33.65 55.8 33.2 56.15 32.8 56.45 32.3 56.7 31.8 56.85 31.2 57 30.6 57 29.85 Z"
         id="path2276" />
    </g>
    <g
       id="Layer12_0_FILL">
      <path
         fill="#313131"
         stroke="none"
         d=" M 75.25 24.7 Q 64.85 14.3 50 14.3 35.2 14.3 24.75 24.7 14.3 35.15 14.3 50 14.3 64.8 24.75 75.25 35.2 85.7 50 85.7 64.85 85.7 75.25 75.25 85.7 64.8 85.7 50 85.7 35.15 75.25 24.7 M 50 22.8 Q 61.3 22.8 69.25 30.75 77.2 38.7 77.2 50 77.2 61.3 69.25 69.25 61.3 77.2 50 77.2 38.75 77.2 30.75 69.25 22.8 61.3 22.8 50 22.8 38.7 30.75 30.75 38.75 22.8 50 22.8 Z"
         id="path2279" />
      <path
         fill="#4F4F4F"
         stroke="none"
         d=" M 69.25 30.75 Q 61.3 22.8 50 22.8 38.75 22.8 30.75 30.75 22.8 38.7 22.8 50 22.8 61.3 30.75 69.25 38.75 77.2 50 77.2 61.3 77.2 69.25 69.25 77.2 61.3 77.2 50 77.2 38.7 69.25 30.75 M 63.15 41.45 L 36.95 41.45 63.15 41.45 M 63.15 50.25 L 36.95 50.25 63.15 50.25 M 63.15 59.05 L 36.95 59.05 63.15 59.05 Z"
         id="path2281" />
    </g>
    <g
       id="Layer9_0_FILL">
      <path
         fill="#FFFFFF"
         stroke="none"
         d=" M 87.25 46.1 Q 88.05 43.6 86.35 41.95 84 40.15 80.35 41.95 76.7 43.7 73.5 47.35 70.8 50.35 69.95 53.9 66 56.8 65 49.45 64.85 47.2 64.8 44.75 64.7 30.8 63.8 21.5 63 12.1 61.45 10.8 59.85 9.55 57.9 9.75 55.95 9.85 54.85 11.3 53.65 12.75 53.9 14.75 55.45 27 54.25 39.55 50.7 26.5 48.15 12.5 47.75 10.5 46.15 9.3 44.55 8.05 42.7 8.4 40.75 8.6 39.6 10.15 38.4 11.75 38.9 13.65 41.55 28.65 44.4 43.75 39 31.5 35.9 18.5 35.35 16.5 33.65 15.5 32.05 14.4 30.1 14.75 28.25 15 27.15 16.7 26.15 18.3 26.55 20.2 30 33.85 33.35 47.65 27.9 37 23.9 25.9 23.2 24.1 21.5 23.1 19.7 22.15 17.85 22.7 16.1 23.25 15.15 25.05 14.4 26.7 15 28.5 19.3 40.55 23.6 52.6 24.4 55.35 28.5 66.35 L 34.4 84.25 Q 37.05 89.75 44.5 88.15 L 70.4 83.9 Q 78.4 81.75 79.05 73.8 L 79.15 73.85 Q 79.15 73.75 79.2 73.6 79.6 71.45 79.75 69.3 80.3 61.75 82.25 54.9 83.3 50.15 87.25 46.1 Z"
         id="path2284" />
    </g>
    <g
       id="Layer8_0_FILL">
      <path
         fill="#1B1B1B"
         stroke="none"
         d=" M 82.05 17.85 L 82.15 17.85 Q 68.85 4.6 50 4.6 31.15 4.6 17.8 17.85 4.55 31.15 4.55 50 4.55 68.8 17.8 82.15 L 17.8 82.2 Q 31.15 95.45 50 95.45 68.8 95.45 82.05 82.2 L 82.15 82.15 Q 95.45 68.8 95.45 50 95.45 31.1 82.05 17.85 M 50 9.1 Q 66.95 9.1 78.95 21.05 90.95 33 90.95 50 90.95 66.95 78.95 79 66.95 90.95 50 90.95 33 90.95 21 79 L 20.95 79 Q 9.05 66.95 9.05 50 9.05 33 20.95 21.05 L 21 21 Q 33 9.1 50 9.1 Z"
         id="path2287" />
      <path
         fill="#313131"
         stroke="none"
         d=" M 78.95 21.05 Q 66.95 9.1 50 9.1 33 9.1 21 21 L 20.95 21.05 Q 9.05 33 9.05 50 9.05 66.95 20.95 79 L 21 79 Q 33 90.95 50 90.95 66.95 90.95 78.95 79 90.95 66.95 90.95 50 90.95 33 78.95 21.05 M 76.7 23.2 L 76.8 23.2 Q 87.8 34.25 87.8 50 87.8 65.7 76.8 76.8 65.7 87.8 50 87.8 34.25 87.8 23.2 76.8 L 23.2 76.7 Q 12.15 65.6 12.15 50 12.15 34.3 23.2 23.2 34.3 12.15 50 12.15 65.6 12.15 76.7 23.2 Z"
         id="path2289" />
      <path
         fill="#626262"
         stroke="none"
         d=" M 76.8 23.2 L 76.7 23.2 Q 65.6 12.15 50 12.15 34.3 12.15 23.2 23.2 12.15 34.3 12.15 50 12.15 65.6 23.2 76.7 L 23.2 76.8 Q 34.25 87.8 50 87.8 65.7 87.8 76.8 76.8 87.8 65.7 87.8 50 87.8 34.25 76.8 23.2 M 50 17.05 Q 63.65 17.05 73.3 26.65 82.95 36.3 82.95 50 82.95 63.6 73.3 73.3 63.6 82.95 50 82.95 36.3 82.95 26.65 73.3 17.05 63.65 17.05 50 17.05 36.3 26.6 26.65 L 26.65 26.6 Q 36.3 17.05 50 17.05 Z"
         id="path2291" />
      <path
         fill="#4F4F4F"
         stroke="none"
         d=" M 73.3 26.65 Q 63.65 17.05 50 17.05 36.3 17.05 26.65 26.6 L 26.6 26.65 Q 17.05 36.3 17.05 50 17.05 63.65 26.65 73.3 36.3 82.95 50 82.95 63.6 82.95 73.3 73.3 82.95 63.6 82.95 50 82.95 36.3 73.3 26.65 M 50.75 28.75 Q 54.75 24.9 60.35 24.9 66 24.9 69.85 28.75 73.85 32.75 73.85 38.35 73.85 44 69.85 47.85 66.821875 50.99609375 62.65 51.65 62.5427734375 51.6802734375 62.4 51.7 L 52.5 61.85 Q 52.95 63.2744140625 52.95 64.9 52.95 69.1 49.95 72.05 47.05 75.05 42.8 75.05 38.6 75.05 35.6 72.05 34.0818359375 70.5056640625 33.35 68.6 L 28.55 67.8 Q 24.458203125 63.5921875 22.85 55.5 L 35.25 58.05 Q 35.4224609375 57.88046875 35.6 57.7 37.9828125 55.3568359375 41.1 54.85 41.18203125 54.8595703125 41.25 54.85 L 47.25 41.55 Q 46.9 40.044921875 46.9 38.35 46.9 32.75 50.75 28.75 M 36.55 69.15 Q 36.9609375 69.7109375 37.45 70.2 39.65 72.4 42.8 72.4 45.9 72.4 48.05 70.2 50.3 68.05 50.3 64.95 50.3 61.8 48.05 59.6 45.9 57.45 42.8 57.45 40.3658203125 57.45 38.5 58.7 L 43.55 59.8 Q 43.91015625 59.8513671875 44.25 59.95 45.48046875 60.28046875 46.45 61.25 48 62.8 48 64.95 48 67.1 46.45 68.6 44.95 70.15 42.8 70.15 42.362109375 70.15 41.95 70.1 41.887890625 70.090234375 41.8 70.05 41.7759765625 70.06640625 41.7 70.05 L 36.55 69.15 M 60.35 29.15 Q 56.5 29.15 53.75 31.85 51.1 34.55 51.1 38.4 51.1 42.25 53.75 44.95 56.5 47.65 60.35 47.65 64.2 47.65 66.85 44.95 69.6 42.25 69.6 38.4 69.6 34.55 66.85 31.85 64.2 29.15 60.35 29.15 M 55.7 33.8 Q 57.65 31.9 60.35 31.9 63.05 31.9 64.95 33.8 66.85 35.7 66.85 38.4 66.85 41.1 64.95 43 63.05 44.9 60.35 44.9 57.65 44.9 55.7 43 53.85 41.1 53.85 38.4 53.85 35.7 55.7 33.8 Z"
         id="path2293" />
      <path
         fill="#CCCCCC"
         stroke="none"
         d=" M 60.35 24.9 Q 54.75 24.9 50.75 28.75 46.9 32.75 46.9 38.35 46.9 40.044921875 47.25 41.55 L 41.25 54.85 Q 41.18203125 54.8595703125 41.1 54.85 37.9828125 55.3568359375 35.6 57.7 35.4224609375 57.88046875 35.25 58.05 L 22.85 55.5 Q 24.458203125 63.5921875 28.55 67.8 L 33.35 68.6 Q 34.0818359375 70.5056640625 35.6 72.05 38.6 75.05 42.8 75.05 47.05 75.05 49.95 72.05 52.95 69.1 52.95 64.9 52.95 63.2744140625 52.5 61.85 L 62.4 51.7 Q 62.5427734375 51.6802734375 62.65 51.65 66.821875 50.99609375 69.85 47.85 73.85 44 73.85 38.35 73.85 32.75 69.85 28.75 66 24.9 60.35 24.9 M 53.75 31.85 Q 56.5 29.15 60.35 29.15 64.2 29.15 66.85 31.85 69.6 34.55 69.6 38.4 69.6 42.25 66.85 44.95 64.2 47.65 60.35 47.65 56.5 47.65 53.75 44.95 51.1 42.25 51.1 38.4 51.1 34.55 53.75 31.85 M 37.45 70.2 Q 36.9609375 69.7109375 36.55 69.15 L 41.7 70.05 Q 41.7759765625 70.06640625 41.8 70.05 41.887890625 70.090234375 41.95 70.1 42.362109375 70.15 42.8 70.15 44.95 70.15 46.45 68.6 48 67.1 48 64.95 48 62.8 46.45 61.25 45.48046875 60.28046875 44.25 59.95 43.91015625 59.8513671875 43.55 59.8 L 38.5 58.7 Q 40.3658203125 57.45 42.8 57.45 45.9 57.45 48.05 59.6 50.3 61.8 50.3 64.95 50.3 68.05 48.05 70.2 45.9 72.4 42.8 72.4 39.65 72.4 37.45 70.2 M 60.35 31.9 Q 57.65 31.9 55.7 33.8 53.85 35.7 53.85 38.4 53.85 41.1 55.7 43 57.65 44.9 60.35 44.9 63.05 44.9 64.95 43 66.85 41.1 66.85 38.4 66.85 35.7 64.95 33.8 63.05 31.9 60.35 31.9 Z"
         id="path2295" />
    </g>
    <g
       id="Layer7_0_FILL">
      <path
         fill="#96989D"
         stroke="none"
         d=" M 33.35 88.15 Q 33.05 93.55 38.3 94.6 43.7 95.75 50.05 95.8 56.3 95.75 61.7 94.6 66.95 93.55 66.65 88.15 L 64.85 72 Q 64.3 69.45 58.55 62.7 57.65 61.6 56.9 60.75 55.5 59.3 54.35 57.8 53.5 56.55 52.25 55.95 50.65 55.25 49.05 55.65 47.4 56 46.3 57.15 45.55 57.9 44.8 58.75 43.85 59.9 42.85 61 42.2 61.8 41.45 62.7 35.7 69.45 35.15 72 L 33.35 88.15 M 49.75 61.85 L 50.25 61.85 Q 50.65 61.95 52.05 63.8 53.55 65.65 55.25 67.55 57 69.4 59.05 72.4 L 61.1 89 Q 56.15 90.25 50.25 90.25 50.15 90.25 50 90.25 49.85 90.25 49.75 90.25 43.85 90.25 38.95 89 L 40.95 72.4 Q 43 69.4 44.75 67.55 46.45 65.65 47.95 63.8 49.35 61.95 49.75 61.85 M 44.05 47.75 Q 43.45 46.5 42.2 45.65 40.7 44.5 39.25 43.1 38.4 42.35 37.3 41.45 30.55 35.7 28 35.15 L 11.85 33.35 Q 6.45 33.05 5.4 38.3 4.25 43.7 4.2 49.95 4.25 56.3 5.4 61.7 6.45 66.95 11.85 66.65 L 28 64.85 Q 30.55 64.3 37.3 58.55 38.2 57.8 39 57.15 40.1 56.15 41.25 55.2 42.1 54.45 42.85 53.7 44 52.6 44.35 50.95 44.75 49.35 44.05 47.75 M 27.6 40.95 Q 30.6 43 32.45 44.75 34.35 46.45 36.2 47.95 38.05 49.35 38.15 49.75 L 38.15 50.25 Q 38.05 50.65 36.2 52.05 34.35 53.55 32.45 55.25 30.6 57 27.6 59.05 L 11 61.05 Q 9.75 56.15 9.75 50.25 9.75 50.15 9.75 50 9.75 49.85 9.75 49.75 9.75 43.85 11 38.9 L 27.6 40.95 M 66.65 11.85 Q 66.95 6.45 61.7 5.4 56.3 4.25 50.05 4.2 43.7 4.25 38.3 5.4 33.05 6.45 33.35 11.85 L 35.15 28 Q 35.7 30.55 41.45 37.3 42.2 38.2 42.85 39 43.85 40.1 44.8 41.25 45.55 42.1 46.3 42.85 47.4 44 49.05 44.35 50.65 44.75 52.25 44.05 53.5 43.45 54.35 42.2 55.5 40.7 56.9 39.25 57.65 38.4 58.55 37.3 64.3 30.55 64.85 28 L 66.65 11.85 M 49.75 9.75 Q 49.85 9.75 50 9.75 50.15 9.75 50.25 9.75 56.15 9.75 61.1 11 L 59.05 27.6 Q 57 30.6 55.25 32.45 53.55 34.35 52.05 36.2 50.65 38.05 50.25 38.15 L 49.75 38.15 Q 49.35 38.05 47.95 36.2 46.45 34.35 44.75 32.45 43 30.6 40.95 27.6 L 38.95 11 Q 43.85 9.75 49.75 9.75 M 94.6 38.3 Q 93.55 33.05 88.15 33.35 L 72 35.15 Q 69.45 35.7 62.7 41.45 61.6 42.35 60.75 43.1 59.3 44.5 57.8 45.65 56.55 46.5 55.95 47.75 55.25 49.35 55.65 50.95 56 52.6 57.15 53.7 57.9 54.45 58.75 55.2 59.9 56.15 61 57.15 61.8 57.8 62.7 58.55 69.45 64.3 72 64.85 L 88.15 66.65 Q 93.55 66.95 94.6 61.7 95.75 56.3 95.8 49.95 95.75 43.7 94.6 38.3 M 90.25 49.75 Q 90.25 49.85 90.25 50 90.25 50.15 90.25 50.25 90.25 56.15 89 61.05 L 72.4 59.05 Q 69.4 57 67.55 55.25 65.65 53.55 63.8 52.05 61.95 50.65 61.85 50.25 L 61.85 49.75 Q 61.95 49.35 63.8 47.95 65.65 46.45 67.55 44.75 69.4 43 72.4 40.95 L 89 38.9 Q 90.25 43.85 90.25 49.75 Z"
         id="path2298" />
      <path
         fill="#BCBFC4"
         stroke="none"
         d=" M 50.25 61.85 L 49.75 61.85 Q 49.35 61.95 47.95 63.8 46.45 65.65 44.75 67.55 43 69.4 40.95 72.4 L 38.95 89 Q 43.85 90.25 49.75 90.25 49.85 90.25 50 90.25 50.15 90.25 50.25 90.25 56.15 90.25 61.1 89 L 59.05 72.4 Q 57 69.4 55.25 67.55 53.55 65.65 52.05 63.8 50.65 61.95 50.25 61.85 M 54.15 79.3 L 50.3 85.2 46.55 79.3 54.15 79.3 M 32.45 44.75 Q 30.6 43 27.6 40.95 L 11 38.9 Q 9.75 43.85 9.75 49.75 9.75 49.85 9.75 50 9.75 50.15 9.75 50.25 9.75 56.15 11 61.05 L 27.6 59.05 Q 30.6 57 32.45 55.25 34.35 53.55 36.2 52.05 38.05 50.65 38.15 50.25 L 38.15 49.75 Q 38.05 49.35 36.2 47.95 34.35 46.45 32.45 44.75 M 20.7 53.45 L 14.8 49.7 20.7 45.85 20.7 53.45 M 50 9.75 Q 49.85 9.75 49.75 9.75 43.85 9.75 38.95 11 L 40.95 27.6 Q 43 30.6 44.75 32.45 46.45 34.35 47.95 36.2 49.35 38.05 49.75 38.15 L 50.25 38.15 Q 50.65 38.05 52.05 36.2 53.55 34.35 55.25 32.45 57 30.6 59.05 27.6 L 61.1 11 Q 56.15 9.75 50.25 9.75 50.15 9.75 50 9.75 M 46.55 20.7 L 50.3 14.8 54.15 20.7 46.55 20.7 M 90.25 50 Q 90.25 49.85 90.25 49.75 90.25 43.85 89 38.9 L 72.4 40.95 Q 69.4 43 67.55 44.75 65.65 46.45 63.8 47.95 61.95 49.35 61.85 49.75 L 61.85 50.25 Q 61.95 50.65 63.8 52.05 65.65 53.55 67.55 55.25 69.4 57 72.4 59.05 L 89 61.05 Q 90.25 56.15 90.25 50.25 90.25 50.15 90.25 50 M 79.3 53.45 L 79.3 45.85 85.2 49.7 79.3 53.45 Z"
         id="path2300" />
      <path
         fill="#54565A"
         stroke="none"
         d=" M 50.3 85.2 L 54.15 79.3 46.55 79.3 50.3 85.2 M 14.8 49.7 L 20.7 53.45 20.7 45.85 14.8 49.7 M 50.3 14.8 L 46.55 20.7 54.15 20.7 50.3 14.8 M 79.3 45.85 L 79.3 53.45 85.2 49.7 79.3 45.85 Z"
         id="path2302" />
    </g>
    <g
       id="Layer6_0_FILL">
      <path
         fill="#313131"
         stroke="none"
         d=" M 84.8 30.8 Q 83 29 81.05 27.6 74.3 22.85 65.55 22.85 65.5 22.85 65.45 22.85 L 34.4 22.85 Q 23.2 22.9 15.3 30.8 12.45 33.6 10.65 36.85 7.3 42.7 7.3 50 7.3 57.3 10.65 63.15 12.45 66.4 15.3 69.25 23.2 77.15 34.4 77.2 L 65.45 77.2 Q 65.5 77.2 65.55 77.2 74.3 77.2 81.05 72.45 83 71.05 84.8 69.25 92.7 61.3 92.7 50 92.7 38.75 84.8 30.8 M 86.25 50 Q 86.25 58 81.05 63.75 80.6 64.2 80.2 64.65 74.15 70.7 65.55 70.7 65.5 70.7 65.45 70.7 L 34.4 70.7 Q 25.9 70.7 19.85 64.65 13.8 58.6 13.8 50 13.8 41.45 19.85 35.4 25.9 29.35 34.4 29.35 L 65.45 29.35 Q 65.5 29.35 65.55 29.35 74.15 29.35 80.2 35.4 80.6 35.85 81.05 36.3 86.25 42.05 86.25 50 Z"
         id="path2305" />
      <path
         fill="#4F4F4F"
         stroke="none"
         d=" M 81.05 63.75 Q 86.25 58 86.25 50 86.25 42.05 81.05 36.3 80.6 35.85 80.2 35.4 74.15 29.35 65.55 29.35 65.5 29.35 65.45 29.35 L 34.4 29.35 Q 25.9 29.35 19.85 35.4 13.8 41.45 13.8 50 13.8 58.6 19.85 64.65 25.9 70.7 34.4 70.7 L 65.45 70.7 Q 65.5 70.7 65.55 70.7 74.15 70.7 80.2 64.65 80.6 64.2 81.05 63.75 M 59.5 38.7 Q 61.3 38.7 61.3 40.5 L 61.3 59.5 Q 61.3 61.3 59.5 61.3 L 40.55 61.3 Q 38.7 61.3 38.7 59.5 L 38.7 40.5 Q 38.7 38.7 40.55 38.7 L 59.5 38.7 Z"
         id="path2307" />
      <path
         fill="#D7D7D7"
         stroke="none"
         d=" M 61.3 40.5 Q 61.3 38.7 59.5 38.7 L 40.55 38.7 Q 38.7 38.7 38.7 40.5 L 38.7 59.5 Q 38.7 61.3 40.55 61.3 L 59.5 61.3 Q 61.3 61.3 61.3 59.5 L 61.3 40.5 Z"
         id="path2309" />
    </g>
    <g
       id="Layer5_0_FILL">
      <path
         fill="#404040"
         stroke="none"
         d=" M 91.95 52.45 Q 92.0001953125 51.2380859375 92 50 92.000390625 44.5794921875 90.8 39.65 88.14765625 28.7162109375 79.6 20.2 79.4958984375 20.0982421875 79.45 19.95 67.325390625 8.046875 50 8.05 32.5546875 8.0458984375 20.15 20.2 7.9466796875 32.5548828125 7.95 50 7.947265625 67.394921875 20.15 79.7 20.223046875 79.772265625 20.25 79.85 32.632421875 92.0029296875 50 92 67.394140625 92.0015625 79.6 79.75 79.655078125 79.68984375 79.7 79.65 L 79.75 79.6 Q 91.12890625 68.219140625 91.95 52.45 M 87.35 50 Q 87.35 51.239453125 87.25 52.45 86.466796875 66.3365234375 76.35 76.45 65.4556640625 87.3478515625 50 87.35 34.5453125 87.3474609375 23.55 76.45 12.65234375 65.4546875 12.65 50 12.65234375 34.6255859375 23.4 23.7 23.4736328125 23.62421875 23.55 23.55 34.5453125 12.65234375 50 12.65 65.4556640625 12.6515625 76.35 23.6 83.466015625 30.6810546875 85.95 39.65 87.349609375 44.544140625 87.35 50 Z"
         id="path2312" />
      <path
         fill="#D7D7D7"
         stroke="none"
         d=" M 87.25 52.45 Q 87.35 51.239453125 87.35 50 87.349609375 44.544140625 85.95 39.65 83.466015625 30.6810546875 76.35 23.6 65.4556640625 12.6515625 50 12.65 34.5453125 12.65234375 23.55 23.55 23.4736328125 23.62421875 23.4 23.7 12.65234375 34.6255859375 12.65 50 12.65234375 65.4546875 23.55 76.45 34.5453125 87.3474609375 50 87.35 65.4556640625 87.3478515625 76.35 76.45 86.466796875 66.3365234375 87.25 52.45 M 71.95 28.3 Q 76.9822265625 33.3791015625 79.15 39.65 80.8509765625 44.47265625 80.85 50 80.8501953125 51.2427734375 80.75 52.45 79.9779296875 63.6744140625 71.85 71.85 62.7947265625 80.85234375 50 80.85 37.284765625 80.8521484375 28.3 71.95 28.273828125 71.873046875 28.2 71.8 19.19765625 62.695703125 19.2 50 19.1978515625 37.2056640625 28.2 28.2 37.2056640625 19.1978515625 50 19.2 62.695703125 19.19765625 71.8 28.2 71.873046875 28.273828125 71.95 28.3 Z"
         id="path2314" />
      <path
         fill="#FFFFFF"
         stroke="none"
         d=" M 79.15 39.65 Q 76.9822265625 33.3791015625 71.95 28.3 71.873046875 28.273828125 71.8 28.2 62.695703125 19.19765625 50 19.2 37.2056640625 19.1978515625 28.2 28.2 19.1978515625 37.2056640625 19.2 50 19.19765625 62.695703125 28.2 71.8 28.273828125 71.873046875 28.3 71.95 37.284765625 80.8521484375 50 80.85 62.7947265625 80.85234375 71.85 71.85 79.9779296875 63.6744140625 80.75 52.45 80.8501953125 51.2427734375 80.85 50 80.8509765625 44.47265625 79.15 39.65 M 69.25 30.8 Q 73.241015625 34.7892578125 75.2 39.65 77.1486328125 44.4076171875 77.15 50 77.149609375 51.2451171875 77.05 52.45 76.2732421875 62.1392578125 69.25 69.25 61.2546875 77.146875 50 77.15 38.69375 77.147265625 30.8 69.25 22.8013671875 61.2548828125 22.8 50 22.801953125 38.6935546875 30.75 30.8 L 30.8 30.75 Q 38.6935546875 22.801953125 50 22.8 61.2548828125 22.8013671875 69.25 30.8 Z"
         id="path2316" />
      <path
         fill="#F5F5F5"
         stroke="none"
         d=" M 75.2 39.65 Q 73.241015625 34.7892578125 69.25 30.8 61.2548828125 22.8013671875 50 22.8 38.6935546875 22.801953125 30.8 30.75 L 30.75 30.8 Q 22.801953125 38.6935546875 22.8 50 22.8013671875 61.2548828125 30.8 69.25 38.69375 77.147265625 50 77.15 61.2546875 77.146875 69.25 69.25 76.2732421875 62.1392578125 77.05 52.45 77.149609375 51.2451171875 77.15 50 77.1486328125 44.4076171875 75.2 39.65 M 54.65 33.8 Q 56.8 34.1 58.45 34.95 60.1 35.85 61.15 37.4 62.15 39 62.15 41.6 62.15 44.3 60.65 46.1 59.15 47.85 56.7 48.6 L 56.7 48.7 Q 58.25 48.95 59.55 49.55 60.8 50.25 61.7 51.25 62.65 52.25 63.15 53.6 63.65 54.95 63.65 56.5 63.65 59 62.55 60.7 61.5 62.4 59.75 63.4 58.05 64.45 55.9 64.9 53.8 65.35 51.7 65.35 L 38.65 65.35 38.65 33.5 50.5 33.5 Q 52.6 33.5 54.65 33.8 M 55.1 58.6 Q 55.75 58.15 56.2 57.45 56.65 56.7 56.65 55.7 56.65 54.55 56.05 53.85 55.5 53.15 54.65 52.8 53.8 52.45 52.8 52.3 51.8 52.15 50.95 52.15 L 45.65 52.15 45.65 59.4 51.95 59.4 Q 52.75 59.4 53.6 59.25 54.45 59.05 55.1 58.6 M 50.45 39.4 L 45.65 39.4 45.65 46.25 50.75 46.25 Q 51.55 46.25 52.35 46.05 53.15 45.9 53.75 45.45 54.4 45.05 54.8 44.4 55.15 43.7 55.15 42.75 55.15 41.75 54.75 41.1 54.3 40.45 53.6 40.1 52.95 39.75 52.1 39.6 51.25 39.4 50.45 39.4 Z"
         id="path2318" />
      <path
         fill="#9A9A9A"
         stroke="none"
         d=" M 58.45 34.95 Q 56.8 34.1 54.65 33.8 52.6 33.5 50.5 33.5 L 38.65 33.5 38.65 65.35 51.7 65.35 Q 53.8 65.35 55.9 64.9 58.05 64.45 59.75 63.4 61.5 62.4 62.55 60.7 63.65 59 63.65 56.5 63.65 54.95 63.15 53.6 62.65 52.25 61.7 51.25 60.8 50.25 59.55 49.55 58.25 48.95 56.7 48.7 L 56.7 48.6 Q 59.15 47.85 60.65 46.1 62.15 44.3 62.15 41.6 62.15 39 61.15 37.4 60.1 35.85 58.45 34.95 M 45.65 39.4 L 50.45 39.4 Q 51.25 39.4 52.1 39.6 52.95 39.75 53.6 40.1 54.3 40.45 54.75 41.1 55.15 41.75 55.15 42.75 55.15 43.7 54.8 44.4 54.4 45.05 53.75 45.45 53.15 45.9 52.35 46.05 51.55 46.25 50.75 46.25 L 45.65 46.25 45.65 39.4 M 56.2 57.45 Q 55.75 58.15 55.1 58.6 54.45 59.05 53.6 59.25 52.75 59.4 51.95 59.4 L 45.65 59.4 45.65 52.15 50.95 52.15 Q 51.8 52.15 52.8 52.3 53.8 52.45 54.65 52.8 55.5 53.15 56.05 53.85 56.65 54.55 56.65 55.7 56.65 56.7 56.2 57.45 Z"
         id="path2320" />
    </g>
    <g
       id="Layer3_0_FILL">
      <path
         fill="#353535"
         stroke="none"
         d=" M 84.95 77.8 Q 83.7 50.5 84.95 23.15 84.95 17.3 79.1 17.3 L 21.9 17.3 Q 16.05 17.3 16.05 23.15 17.3 50.5 16.05 77.8 16.05 83.65 21.9 83.65 L 79.1 83.65 Q 84.95 83.65 84.95 77.8 M 54.15 26.45 L 55.4 26.45 71.55 26.45 Q 75.8 26.45 75.8 30.7 74.65 50.5 75.8 70.25 75.8 74.45 71.55 74.45 L 55.4 74.45 54.15 74.45 29.45 74.45 Q 25.2 74.45 25.2 70.25 26.35 50.5 25.2 30.7 25.2 26.45 29.45 26.45 L 54.15 26.45 Z"
         id="path2323" />
      <path
         fill="#595959"
         stroke="none"
         d=" M 55.4 26.45 L 54.15 26.45 29.45 26.45 Q 25.2 26.45 25.2 30.7 26.35 50.5 25.2 70.25 25.2 74.45 29.45 74.45 L 54.15 74.45 55.4 74.45 71.55 74.45 Q 75.8 74.45 75.8 70.25 74.65 50.5 75.8 30.7 75.8 26.45 71.55 26.45 L 55.4 26.45 M 43.85 38.8 L 49.3 38.8 49.3 58.55 59.4 58.55 59.4 63.6 43.85 63.6 43.85 38.8 Z"
         id="path2325" />
      <path
         fill="#CDCDCD"
         stroke="none"
         d=" M 49.3 38.8 L 43.85 38.8 43.85 63.6 59.4 63.6 59.4 58.55 49.3 58.55 49.3 38.8 Z"
         id="path2327" />
    </g>
    <g
       id="Layer2_0_FILL">
      <path
         fill="#D7D7D7"
         stroke="none"
         d=" M 84.95 77.8 Q 83.7 50.5 84.95 23.15 84.95 17.3 79.1 17.3 L 21.9 17.3 Q 16.05 17.3 16.05 23.15 17.3 50.5 16.05 77.8 16.05 83.65 21.9 83.65 L 79.1 83.65 Q 84.95 83.65 84.95 77.8 M 55.4 26.45 L 71.55 26.45 Q 75.8 26.45 75.8 30.7 74.65 50.5 75.8 70.25 75.8 74.45 71.55 74.45 L 55.4 74.45 54.15 74.45 29.45 74.45 Q 25.2 74.45 25.2 70.25 26.35 50.5 25.2 30.7 25.2 26.45 29.45 26.45 L 54.15 26.45 55.4 26.45 Z"
         id="path2330" />
      <path
         fill="#F5F5F5"
         stroke="none"
         d=" M 71.55 26.45 L 55.4 26.45 54.15 26.45 29.45 26.45 Q 25.2 26.45 25.2 30.7 26.35 50.5 25.2 70.25 25.2 74.45 29.45 74.45 L 54.15 74.45 55.4 74.45 71.55 74.45 Q 75.8 74.45 75.8 70.25 74.65 50.5 75.8 30.7 75.8 26.45 71.55 26.45 M 43.85 38.8 L 49.3 38.8 49.3 58.55 59.4 58.55 59.4 63.6 43.85 63.6 43.85 38.8 Z"
         id="path2332" />
      <path
         fill="#404040"
         stroke="none"
         d=" M 49.3 38.8 L 43.85 38.8 43.85 63.6 59.4 63.6 59.4 58.55 49.3 58.55 49.3 38.8 Z"
         id="path2334" />
    </g>
    <g
       id="Layer1_0_FILL">
      <path
         fill="#F5F5F5"
         stroke="none"
         d=" M 13.5 41.3 Q 13.05 41.75 13.05 42.35 L 13.05 57.65 Q 13.05 58.25 13.5 58.7 13.95 59.15 14.55 59.15 L 34.75 59.15 Q 36.7 59.15 38.25 60.2 39.9 55.45 39.9 50 39.9 44.55 38.25 39.75 36.7 40.85 34.75 40.85 L 14.55 40.85 Q 13.95 40.85 13.5 41.25 L 13.5 41.3 M 25.85 55.1 L 16.9 50 25.85 44.95 25.85 55.1 Z"
         id="path2337" />
      <path
         fill="#1B1B1B"
         stroke="none"
         d=" M 16.9 50 L 25.85 55.1 25.85 44.95 16.9 50 M 95.25 40.4 Q 95.3 40.1 95.25 39.8 L 95.2 39.65 Q 94.3 34.05 88.3 32.5 87.9 32.35 87.4 32.35 L 67.55 32.35 67.55 12.5 Q 67.55 12 67.4 11.6 65.85 5.6 60.25 4.7 L 60.1 4.65 Q 59.8 4.6 59.5 4.65 L 40.2 4.65 Q 40.15 4.65 40.1 4.65 39.95 4.65 39.75 4.65 L 39.65 4.7 Q 33.75 5.5 32.35 11.8 32.35 11.85 32.35 11.9 L 32.3 11.95 32.3 12.1 Q 32.2 12.45 32.25 12.75 L 32.25 29.85 Q 35 32.9 36.75 36.35 37.25 35.7 37.25 34.85 L 37.25 12.8 Q 37.9 10.15 40.35 9.65 L 59.45 9.65 Q 61.8 10.15 62.55 12.75 L 62.55 34.85 Q 62.55 35.9 63.3 36.6 64 37.35 65.05 37.35 L 87.15 37.35 Q 89.75 38.1 90.25 40.45 L 90.25 59.55 Q 89.75 62 87.1 62.65 L 65.05 62.65 Q 64 62.65 63.3 63.35 62.55 64.1 62.55 65.15 L 62.55 87.2 Q 61.8 89.85 59.45 90.35 L 40.35 90.35 Q 37.9 89.85 37.25 87.2 L 37.25 65.15 Q 37.25 64.3 36.75 63.65 35 67.1 32.25 70.15 L 32.25 87.2 Q 32.2 87.55 32.3 87.9 L 32.3 88 Q 32.3 88.15 32.35 88.2 33.75 94.5 39.65 95.3 L 39.75 95.3 Q 39.8 95.35 39.9 95.35 40.1 95.35 40.35 95.35 L 59.5 95.35 Q 59.8 95.4 60.1 95.3 60.15 95.3 60.25 95.3 65.85 94.4 67.4 88.4 67.55 88 67.55 87.5 L 67.55 67.65 87.15 67.65 Q 87.45 67.7 87.85 67.6 87.9 67.6 87.95 67.6 88.05 67.6 88.15 67.55 94.4 66.15 95.2 60.3 95.2 60.25 95.25 60.15 95.25 59.95 95.25 59.8 95.25 59.75 95.25 59.7 L 95.25 40.4 Z"
         id="path2339" />
      <path
         fill="#D7D7D7"
         stroke="none"
         d=" M 12.7 37.35 Q 10.05 38.1 9.55 40.45 L 9.55 59.55 Q 10.05 62 12.7 62.65 L 34.75 62.65 Q 35.8 62.65 36.55 63.35 36.65 63.5 36.75 63.65 37.6 62 38.25 60.2 36.7 59.15 34.75 59.15 L 14.55 59.15 Q 13.95 59.15 13.5 58.7 13.05 58.25 13.05 57.65 L 13.05 42.35 Q 13.05 41.75 13.5 41.3 L 13.5 41.25 Q 13.95 40.85 14.55 40.85 L 34.75 40.85 Q 36.7 40.85 38.25 39.75 37.6 38 36.75 36.35 36.65 36.5 36.55 36.6 35.8 37.35 34.75 37.35 L 12.7 37.35 Z"
         id="path2341" />
      <path
         fill="url(#Gradient_8)"
         stroke="none"
         d=" M 9.55 40.45 Q 10.05 38.1 12.7 37.35 L 34.75 37.35 Q 35.8 37.35 36.55 36.6 36.65 36.5 36.75 36.35 35 32.9 32.25 29.85 L 32.25 32.35 12.4 32.35 Q 11.9 32.35 11.5 32.5 5.5 34.05 4.6 39.65 4.6 39.75 4.6 39.8 4.5 40.1 4.55 40.4 L 4.55 59.7 Q 4.55 59.75 4.55 59.8 4.55 59.95 4.6 60.15 L 4.6 60.25 Q 5.4 66.15 11.75 67.55 L 11.8 67.55 Q 11.85 67.6 11.9 67.6 L 12 67.6 Q 12.35 67.7 12.65 67.65 L 32.25 67.65 32.25 70.15 Q 35 67.1 36.75 63.65 36.65 63.5 36.55 63.35 35.8 62.65 34.75 62.65 L 12.7 62.65 Q 10.05 62 9.55 59.55 L 9.55 40.45 Z"
         id="path2343" />
      <path
         fill="#4F4F4F"
         stroke="none"
         d=" M 86.75 42.35 Q 86.75 41.75 86.35 41.3 L 86.3 41.25 Q 85.85 40.85 85.25 40.85 L 65.05 40.85 Q 62.55 40.85 60.8 39.1 59.05 37.35 59.05 34.85 L 59.05 14.65 Q 59.05 14.05 58.65 13.6 L 58.6 13.55 Q 58.15 13.15 57.55 13.15 L 42.25 13.15 Q 41.65 13.15 41.2 13.55 L 41.2 13.6 Q 40.75 14.05 40.75 14.65 L 40.75 34.85 Q 40.75 37.35 39 39.1 38.65 39.45 38.25 39.75 39.9 44.55 39.9 50 39.9 55.45 38.25 60.2 38.65 60.55 39 60.9 40.75 62.65 40.75 65.15 L 40.75 85.35 Q 40.75 85.95 41.2 86.4 41.65 86.85 42.25 86.85 L 57.55 86.85 Q 58.15 86.85 58.6 86.4 L 58.65 86.4 Q 59.05 85.95 59.05 85.35 L 59.05 65.15 Q 59.05 62.65 60.8 60.9 62.55 59.15 65.05 59.15 L 85.25 59.15 Q 85.85 59.15 86.3 58.7 L 86.35 58.7 Q 86.75 58.25 86.75 57.65 L 86.75 42.35 M 55 25.95 L 44.85 25.95 49.9 17 55 25.95 M 44.85 74.05 L 55 74.05 49.9 83 44.85 74.05 M 73.95 55.1 L 73.95 44.95 82.9 50 73.95 55.1 Z"
         id="path2345" />
      <path
         fill="#9A9A9A"
         stroke="none"
         d=" M 73.95 44.95 L 73.95 55.1 82.9 50 73.95 44.95 M 55 74.05 L 44.85 74.05 49.9 83 55 74.05 M 44.85 25.95 L 55 25.95 49.9 17 44.85 25.95 Z"
         id="path2347" />
      <path
         fill="#313131"
         stroke="none"
         d=" M 86.35 41.3 Q 86.75 41.75 86.75 42.35 L 86.75 57.65 Q 86.75 58.25 86.35 58.7 L 86.3 58.7 Q 85.85 59.15 85.25 59.15 L 65.05 59.15 Q 62.55 59.15 60.8 60.9 59.05 62.65 59.05 65.15 L 59.05 85.35 Q 59.05 85.95 58.65 86.4 L 58.6 86.4 Q 58.15 86.85 57.55 86.85 L 42.25 86.85 Q 41.65 86.85 41.2 86.4 40.75 85.95 40.75 85.35 L 40.75 65.15 Q 40.75 62.65 39 60.9 38.65 60.55 38.25 60.2 37.6 62 36.75 63.65 37.25 64.3 37.25 65.15 L 37.25 87.2 Q 37.9 89.85 40.35 90.35 L 59.45 90.35 Q 61.8 89.85 62.55 87.2 L 62.55 65.15 Q 62.55 64.1 63.3 63.35 64 62.65 65.05 62.65 L 87.1 62.65 Q 89.75 62 90.25 59.55 L 90.25 40.45 Q 89.75 38.1 87.15 37.35 L 65.05 37.35 Q 64 37.35 63.3 36.6 62.55 35.9 62.55 34.85 L 62.55 12.75 Q 61.8 10.15 59.45 9.65 L 40.35 9.65 Q 37.9 10.15 37.25 12.8 L 37.25 34.85 Q 37.25 35.7 36.75 36.35 37.6 38 38.25 39.75 38.65 39.45 39 39.1 40.75 37.35 40.75 34.85 L 40.75 14.65 Q 40.75 14.05 41.2 13.6 L 41.2 13.55 Q 41.65 13.15 42.25 13.15 L 57.55 13.15 Q 58.15 13.15 58.6 13.55 L 58.65 13.6 Q 59.05 14.05 59.05 14.65 L 59.05 34.85 Q 59.05 37.35 60.8 39.1 62.55 40.85 65.05 40.85 L 85.25 40.85 Q 85.85 40.85 86.3 41.25 L 86.35 41.3 Z"
         id="path2349" />
    </g>
    <g
       id="Layer0_0_FILL">
      <path
         fill="#313131"
         stroke="none"
         d=" M 84 70.6 Q 80.45 47.55 84 26.3 84.9 14.65 77.05 12.3 L 33.8 12.3 Q 16.75 14.35 15.85 30.75 L 15.85 37.15 Q 15.75 41.05 16.05 44.7 16.35 48.9 17.35 52.9 17.4 53 17.4 53.05 18.4 57.4 24.55 61.15 30.8 64.85 35.85 74.5 36.35 75.55 36.8 76.6 40.25 85 48.35 88.7 56.55 92.05 66.95 90.4 75 89.15 80.1 84.45 85.2 77.45 84 70.6 M 76.8 20.55 Q 77.75 22 77.55 23.6 77.25 26.45 76.9 29.25 76.3 34.15 75.85 39.05 75.6 41.55 75.6 44.1 75.55 48.1 75.7 52.1 75.85 55.9 76.15 59.7 76.45 63.3 76.95 66.9 77.45 70.25 77.55 73.65 77.65 78.95 73.05 81.7 69.15 84.05 64.65 83.75 62.35 83.6 60.15 82.85 57.65 82.15 56 80.2 54.35 78.2 52.85 76.05 50.95 73.35 49.2 70.55 46.7 66.55 44.95 62.2 43.2 57.75 42.05 53.2 41.2 49.9 40.55 46.55 39.9 43.2 39.5 39.85 39.05 36.4 38.95 33 38.8 28.8 38.55 26 38.35 23.2 39.05 21.4 39.75 19.6 43.7 18.7 L 73.6 18.7 Q 76.05 19.5 76.8 20.55 Z"
         id="path2352" />
      <path
         fill="#4F4F4F"
         stroke="none"
         d=" M 77.55 23.6 Q 77.75 22 76.8 20.55 76.05 19.5 73.6 18.7 L 43.7 18.7 Q 39.75 19.6 39.05 21.4 38.35 23.2 38.55 26 38.8 28.8 38.95 33 39.05 36.4 39.5 39.85 39.9 43.2 40.55 46.55 41.2 49.9 42.05 53.2 43.2 57.75 44.95 62.2 46.7 66.55 49.2 70.55 50.95 73.35 52.85 76.05 54.35 78.2 56 80.2 57.65 82.15 60.15 82.85 62.35 83.6 64.65 83.75 69.15 84.05 73.05 81.7 77.65 78.95 77.55 73.65 77.45 70.25 76.95 66.9 76.45 63.3 76.15 59.7 75.85 55.9 75.7 52.1 75.55 48.1 75.6 44.1 75.6 41.55 75.85 39.05 76.3 34.15 76.9 29.25 77.25 26.45 77.55 23.6 M 58.15 27.8 Q 58.6 28.7 58.6 30 58.6 31.55 57.8 32.65 57 33.8 55.4 34.05 L 59.2 40.35 55.25 40.35 52.15 34.4 50.55 34.4 50.55 40.35 47.25 40.35 47.25 25.5 53 25.5 Q 54.15 25.5 55.15 25.7 56.2 25.9 56.95 26.45 57.7 26.95 58.15 27.8 M 59.1 28.4 L 59.1 25.5 70.85 25.5 70.85 28.4 66.6 28.4 66.6 40.35 63.35 40.35 63.35 28.4 59.1 28.4 M 53.6 28.3 Q 53.1 28.25 52.7 28.25 L 50.55 28.25 50.55 31.65 52.45 31.65 Q 52.9 31.65 53.4 31.6 53.9 31.55 54.3 31.4 54.7 31.25 54.95 30.9 55.2 30.6 55.2 29.95 55.2 29.4 55 29.05 54.75 28.75 54.4 28.55 54.05 28.35 53.6 28.3 Z"
         id="path2354" />
      <path
         fill="#999999"
         stroke="none"
         d=" M 59.1 25.5 L 59.1 28.4 63.35 28.4 63.35 40.35 66.6 40.35 66.6 28.4 70.85 28.4 70.85 25.5 59.1 25.5 M 58.6 30 Q 58.6 28.7 58.15 27.8 57.7 26.95 56.95 26.45 56.2 25.9 55.15 25.7 54.15 25.5 53 25.5 L 47.25 25.5 47.25 40.35 50.55 40.35 50.55 34.4 52.15 34.4 55.25 40.35 59.2 40.35 55.4 34.05 Q 57 33.8 57.8 32.65 58.6 31.55 58.6 30 M 52.7 28.25 Q 53.1 28.25 53.6 28.3 54.05 28.35 54.4 28.55 54.75 28.75 55 29.05 55.2 29.4 55.2 29.95 55.2 30.6 54.95 30.9 54.7 31.25 54.3 31.4 53.9 31.55 53.4 31.6 52.9 31.65 52.45 31.65 L 50.55 31.65 50.55 28.25 52.7 28.25 Z"
         id="path2356" />
    </g>
    <path
       id="Layer19_0_1_STROKES"
       stroke="#1F1F1F"
       stroke-width="4"
       stroke-linejoin="round"
       stroke-linecap="round"
       fill="none"
       d=" M 90.4 37.45 Q 90.76015625 38.6830078125 91.05 39.95 L 91.85 44.25 Q 93.25 53.8 90.4 62.75 L 90.35 62.75 90.35 62.775 90.45 62.75 90.5 62.75 Q 93.35 53.8 91.95 44.25 L 91.15 39.95 Q 90.86015625 38.6830078125 90.5 37.45 L 90.4 37.425 90.4 37.45 67.25 32.9 62.65 9.65 62.65 9.6 Q 61.8283203125 9.3603515625 61.025 9.15 55.664453125 7.88359375 49.775 7.675 44.75 7.837890625 39.725 8.925 38.5265625 9.2255859375 37.35 9.6 L 37.35 9.65 37.35 9.675 32.7 32.9 9.55 37.45 Q 5.7 50.7 9.55 62.75 L 9.65 62.8 32.75 67.4 M 67.25 67.4 L 67.325 67.375 90.35 62.75 M 62.65 9.65 Q 62.7033203125 9.666015625 62.75 9.675 L 62.75 9.65 62.75 9.6 Q 61.88125 9.3466796875 61.025 9.15 M 62.75 9.65 Q 72.35 12.55 79.95 20.15 87.6169921875 27.8169921875 90.5 37.45 M 62.75 9.675 Q 72.2921875 12.5921875 79.85 20.15 87.50859375 27.80859375 90.4 37.425 M 9.55 37.45 Q 12.5 27.8 20.15 20.15 27.75 12.55 37.35 9.65 M 37.3 90.4 L 37.35 90.45 M 62.65 90.45 L 62.65 90.4 M 37.3 90.4 Q 27.75 87.45 20.15 79.85 12.6 72.3 9.65 62.8 M 62.75 90.375 Q 62.703515625 90.38359375 62.65 90.4 M 62.75 90.45 L 62.75 90.4 Q 72.35 87.45 79.95 79.85 87.55 72.25 90.45 62.75 M 62.75 90.375 Q 72.2923828125 87.4076171875 79.85 79.85 87.44140625 72.25859375 90.35 62.775" />
    <path
       id="Layer19_0_2_STROKES"
       stroke="#FFFFFF"
       stroke-width="4"
       stroke-linejoin="round"
       stroke-linecap="round"
       fill="none"
       d=" M 41.15 66.3 L 44.75 84.3 Q 45.4244140625 84.39921875 46.1 84.475 47.9943359375 84.672265625 49.925 84.675 L 53.875 84.425 Q 54.53125 84.35 55.2 84.25 L 58.8 66.3" />
    <path
       id="Layer19_0_3_STROKES"
       stroke="#404040"
       stroke-width="4"
       stroke-linejoin="round"
       stroke-linecap="round"
       fill="none"
       d=" M 32.75 67.4 L 37.3 90.375 37.3 90.4 M 37.35 90.45 Q 38.5267578125 90.8244140625 39.725 91.125 44.6556640625 92.3748046875 49.775 92.375 55.28984375 92.375 61.025 90.9 61.8283203125 90.6896484375 62.65 90.45 M 62.65 90.4 L 67.25 67.4 M 62.75 90.4 L 62.75 90.375 M 61.025 90.9 Q 61.88125 90.7033203125 62.75 90.45" />
    <path
       id="Layer19_0_4_STROKES"
       stroke="#A0A0A0"
       stroke-width="4"
       stroke-linejoin="round"
       stroke-linecap="round"
       fill="none"
       d=" M 39.05 61.95 Q 38.85 61.75 38.65 61.55 36.7 59.55 33.9 59 L 15.7 55.35 Q 14.95 50.25 15.75 44.95 L 33.85 41.35 Q 36.6 40.8 38.55 38.8 40.6 36.85 41.1 34.1 L 44.75 15.8 Q 49.85 15.05 55.2 15.85 L 58.8 34.05 Q 59.3 36.85 61.3 38.8 63.3 40.8 66.05 41.35 L 84.15 44.95 Q 84.95 50.25 84.2 55.35 L 66 59 Q 63.3 59.55 61.3 61.55 60.95 61.9 60.6 62.3" />
    <path
       id="Layer19_0_5_STROKES"
       stroke="#FFFFFF"
       stroke-width="4"
       stroke-linejoin="round"
       stroke-linecap="butt"
       fill="none"
       d=" M 39.05 61.95 Q 39.071875 61.9744140625 39.1 62 40.705859375 63.8330078125 41.15 66.3 M 58.8 66.3 Q 59.2 64 60.6 62.3" />
    <path
       id="Layer18_0_1_STROKES"
       stroke="#1B1B1B"
       stroke-width="5"
       stroke-linejoin="round"
       stroke-linecap="round"
       fill="none"
       d=" M 50 14.3 Q 64.85 14.3 75.25 24.7 85.7 35.15 85.7 50 85.7 64.8 75.25 75.25 64.85 85.7 50 85.7 35.2 85.7 24.75 75.25 14.3 64.8 14.3 50 14.3 35.15 24.75 24.7 35.2 14.3 50 14.3 Z" />
    <path
       id="Layer18_0_2_STROKES"
       stroke="#999999"
       stroke-width="4"
       stroke-linejoin="round"
       stroke-linecap="round"
       fill="none"
       d=" M 57.55 47 L 65 47 65 61.4 42.95 61.4 42.95 54.15 35.5 54.15 35.5 39.75 57.55 39.75 57.55 47 42.95 47 42.95 54.15" />
    <path
       id="Layer18_0_3_STROKES"
       stroke="#626262"
       stroke-width="4"
       stroke-linejoin="round"
       stroke-linecap="round"
       fill="none"
       d=" M 50 22.8 Q 61.3 22.8 69.25 30.75 77.2 38.7 77.2 50 77.2 61.3 69.25 69.25 61.3 77.2 50 77.2 38.75 77.2 30.75 69.25 22.8 61.3 22.8 50 22.8 38.7 30.75 30.75 38.75 22.8 50 22.8 Z" />
    <path
       id="Layer17_0_1_STROKES"
       stroke="#202020"
       stroke-width="4"
       stroke-linejoin="round"
       stroke-linecap="round"
       fill="none"
       d=" M 95.1 37.35 L 91.75 33.95 71.8 35.15 59.4 44.55 59.4 55.45 71.8 64.85 91.75 66.05 95.1 62.65 95.1 37.35 Z M 62.65 4.9 L 66.05 8.25 64.85 28.2 55.45 40.6 44.55 40.6 35.15 28.2 33.95 8.25 37.35 4.9 62.65 4.9 Z M 33.95 91.75 L 37.35 95.1 62.65 95.1 66.05 91.75 64.85 71.8 55.45 59.4 44.55 59.4 35.15 71.8 33.95 91.75 Z" />
    <path
       id="Layer17_0_2_STROKES"
       stroke="#626262"
       stroke-width="4"
       stroke-linejoin="round"
       stroke-linecap="round"
       fill="none"
       d=" M 66.1 49.35 L 66.1 48.1 73.9 41.85 88.4 40.95 88.4 59.05 73.9 58.15 66.1 51.9 66.1 50.65 M 50.65 33.9 L 51.9 33.9 58.15 26.1 59.05 11.6 40.95 11.6 41.85 26.1 48.1 33.9 49.35 33.9 M 50.65 66.1 L 51.9 66.1 58.15 73.9 59.05 88.4 40.95 88.4 41.85 73.9 48.1 66.1 49.35 66.1" />
    <path
       id="Layer17_0_3_STROKES"
       stroke="#404040"
       stroke-width="4"
       stroke-linejoin="round"
       stroke-linecap="round"
       fill="none"
       d=" M 8.25 33.95 L 28.2 35.15 40.6 44.55 40.6 55.45 28.2 64.85 8.25 66.05 4.9 62.65 4.9 37.35 8.25 33.95 Z" />
    <path
       id="Layer17_0_4_STROKES"
       stroke="#FFFFFF"
       stroke-width="4"
       stroke-linejoin="round"
       stroke-linecap="round"
       fill="none"
       d=" M 33.9 49.35 L 33.9 48.1 26.1 41.85 11.6 40.95 11.6 59.05 26.1 58.15 33.9 51.9 33.9 50.65" />
    <path
       id="Layer16_0_1_STROKES"
       stroke="#202020"
       stroke-width="4"
       stroke-linejoin="round"
       stroke-linecap="round"
       fill="none"
       d=" M 66.05 8.25 L 62.65 4.9 37.35 4.9 33.95 8.25 35.15 28.2 44.55 40.6 55.45 40.6 64.85 28.2 66.05 8.25 Z M 28.2 35.15 L 8.25 33.95 4.9 37.35 4.9 62.65 8.25 66.05 28.2 64.85 40.6 55.45 40.6 44.55 28.2 35.15 Z M 33.95 91.75 L 35.15 71.8 44.55 59.4 55.45 59.4 64.85 71.8 66.05 91.75 62.65 95.1 37.35 95.1 33.95 91.75 Z" />
    <path
       id="Layer16_0_2_STROKES"
       stroke="#626262"
       stroke-width="4"
       stroke-linejoin="round"
       stroke-linecap="round"
       fill="none"
       d=" M 49.35 33.9 L 48.1 33.9 41.85 26.1 40.95 11.6 59.05 11.6 58.15 26.1 51.9 33.9 50.65 33.9 M 33.9 50.65 L 33.9 51.9 26.1 58.15 11.6 59.05 11.6 40.95 26.1 41.85 33.9 48.1 33.9 49.35 M 49.35 66.1 L 48.1 66.1 41.85 73.9 40.95 88.4 59.05 88.4 58.15 73.9 51.9 66.1 50.65 66.1" />
    <path
       id="Layer16_0_3_STROKES"
       stroke="#404040"
       stroke-width="4"
       stroke-linejoin="round"
       stroke-linecap="round"
       fill="none"
       d=" M 91.75 33.95 L 95.1 37.35 95.1 62.65 91.75 66.05 71.8 64.85 59.4 55.45 59.4 44.55 71.8 35.15 91.75 33.95 Z" />
    <path
       id="Layer16_0_4_STROKES"
       stroke="#FFFFFF"
       stroke-width="4"
       stroke-linejoin="round"
       stroke-linecap="round"
       fill="none"
       d=" M 66.1 50.65 L 66.1 51.9 73.9 58.15 88.4 59.05 88.4 40.95 73.9 41.85 66.1 48.1 66.1 49.35" />
    <path
       id="Layer13_0_1_STROKES"
       stroke="#202020"
       stroke-width="5"
       stroke-linejoin="round"
       stroke-linecap="round"
       fill="none"
       d=" M 86.5 61.85 L 86.5 19.7 Q 85.6 14.55 79.05 12.5 L 22.8 12.5 Q 18.75 16.6 18.35 26.5 21.9 47.75 18.35 70.8 17.15 77.65 22.25 84.65 27.35 89.35 35.4 90.6 51.3 93.1 62.05 83.95 L 68.6 70.35 Q 75.9 61.45 86.5 61.85 Z" />
    <path
       id="Layer13_0_2_STROKES"
       stroke="#626262"
       stroke-width="4"
       stroke-linejoin="round"
       stroke-linecap="round"
       fill="none"
       d=" M 60.25 18.9 Q 64.45 21.3 63.75 26.25 63.9 40.25 60.4 53.4 57.95 62.65 53.15 70.75 50.15 76.5 45.05 81.65 39.35 84.9 33 83.5 24.55 80.65 24.35 73.85 26.9 60.65 26.9 44.3 26.45 34.1 24.65 24.7 24.45 21 27.1 18.9 L 60.25 18.9 Z" />
    <path
       id="Layer12_0_1_STROKES"
       stroke="#626262"
       stroke-width="4"
       stroke-linejoin="round"
       stroke-linecap="round"
       fill="none"
       d=" M 50 22.8 Q 61.3 22.8 69.25 30.75 77.2 38.7 77.2 50 77.2 61.3 69.25 69.25 61.3 77.2 50 77.2 38.75 77.2 30.75 69.25 22.8 61.3 22.8 50 22.8 38.7 30.75 30.75 38.75 22.8 50 22.8 Z" />
    <path
       id="Layer12_0_2_STROKES"
       stroke="#1B1B1B"
       stroke-width="5"
       stroke-linejoin="round"
       stroke-linecap="round"
       fill="none"
       d=" M 50 14.3 Q 64.85 14.3 75.25 24.7 85.7 35.15 85.7 50 85.7 64.8 75.25 75.25 64.85 85.7 50 85.7 35.2 85.7 24.75 75.25 14.3 64.8 14.3 50 14.3 35.15 24.75 24.7 35.2 14.3 50 14.3 Z" />
    <path
       id="Layer12_0_3_STROKES"
       stroke="#999999"
       stroke-width="5"
       stroke-linejoin="round"
       stroke-linecap="round"
       fill="none"
       d=" M 63.15 41.45 L 36.95 41.45 M 63.15 50.25 L 36.95 50.25 M 63.15 59.05 L 36.95 59.05" />
    <path
       id="Layer7_0_1_STROKES"
       stroke="#E3E7ED"
       stroke-width="4"
       stroke-linejoin="round"
       stroke-linecap="round"
       fill="none"
       d=" M 61.85 50.25 Q 61.95 50.65 63.8 52.05 65.65 53.55 67.55 55.25 69.4 57 72.4 59.05 L 89 61.05 Q 90.25 56.15 90.25 50.25 90.25 50.15 90.25 50 90.25 49.85 90.25 49.75 90.25 43.85 89 38.9 L 72.4 40.95 Q 69.4 43 67.55 44.75 65.65 46.45 63.8 47.95 61.95 49.35 61.85 49.75 M 49.75 38.15 Q 49.35 38.05 47.95 36.2 46.45 34.35 44.75 32.45 43 30.6 40.95 27.6 L 38.95 11 Q 43.85 9.75 49.75 9.75 49.85 9.75 50 9.75 50.15 9.75 50.25 9.75 56.15 9.75 61.1 11 L 59.05 27.6 Q 57 30.6 55.25 32.45 53.55 34.35 52.05 36.2 50.65 38.05 50.25 38.15 M 38.15 50.25 Q 38.05 50.65 36.2 52.05 34.35 53.55 32.45 55.25 30.6 57 27.6 59.05 L 11 61.05 Q 9.75 56.15 9.75 50.25 9.75 50.15 9.75 50 9.75 49.85 9.75 49.75 9.75 43.85 11 38.9 L 27.6 40.95 Q 30.6 43 32.45 44.75 34.35 46.45 36.2 47.95 38.05 49.35 38.15 49.75 M 49.75 61.85 Q 49.35 61.95 47.95 63.8 46.45 65.65 44.75 67.55 43 69.4 40.95 72.4 L 38.95 89 Q 43.85 90.25 49.75 90.25 49.85 90.25 50 90.25 50.15 90.25 50.25 90.25 56.15 90.25 61.1 89 L 59.05 72.4 Q 57 69.4 55.25 67.55 53.55 65.65 52.05 63.8 50.65 61.95 50.25 61.85" />
    <path
       id="Layer7_0_2_STROKES"
       stroke="#434345"
       stroke-width="2"
       stroke-linejoin="round"
       stroke-linecap="round"
       fill="none"
       d=" M 88.15 33.35 Q 93.55 33.05 94.6 38.3 95.75 43.7 95.8 49.95 95.75 56.3 94.6 61.7 93.55 66.95 88.15 66.65 L 72 64.85 Q 69.45 64.3 62.7 58.55 61.8 57.8 61 57.15 59.9 56.15 58.75 55.2 57.9 54.45 57.15 53.7 56 52.6 55.65 50.95 55.25 49.35 55.95 47.75 56.55 46.5 57.8 45.65 59.3 44.5 60.75 43.1 61.6 42.35 62.7 41.45 69.45 35.7 72 35.15 L 88.15 33.35 Z M 66.65 11.85 Q 66.95 6.45 61.7 5.4 56.3 4.25 50.05 4.2 43.7 4.25 38.3 5.4 33.05 6.45 33.35 11.85 L 35.15 28 Q 35.7 30.55 41.45 37.3 42.2 38.2 42.85 39 43.85 40.1 44.8 41.25 45.55 42.1 46.3 42.85 47.4 44 49.05 44.35 50.65 44.75 52.25 44.05 53.5 43.45 54.35 42.2 55.5 40.7 56.9 39.25 57.65 38.4 58.55 37.3 64.3 30.55 64.85 28 L 66.65 11.85 Z M 28 64.85 Q 30.55 64.3 37.3 58.55 38.2 57.8 39 57.15 40.1 56.15 41.25 55.2 42.1 54.45 42.85 53.7 44 52.6 44.35 50.95 44.75 49.35 44.05 47.75 43.45 46.5 42.2 45.65 40.7 44.5 39.25 43.1 38.4 42.35 37.3 41.45 30.55 35.7 28 35.15 L 11.85 33.35 Q 6.45 33.05 5.4 38.3 4.25 43.7 4.2 49.95 4.25 56.3 5.4 61.7 6.45 66.95 11.85 66.65 L 28 64.85 Z M 66.65 88.15 Q 66.95 93.55 61.7 94.6 56.3 95.75 50.05 95.8 43.7 95.75 38.3 94.6 33.05 93.55 33.35 88.15 L 35.15 72 Q 35.7 69.45 41.45 62.7 42.2 61.8 42.85 61 43.85 59.9 44.8 58.75 45.55 57.9 46.3 57.15 47.4 56 49.05 55.65 50.65 55.25 52.25 55.95 53.5 56.55 54.35 57.8 55.5 59.3 56.9 60.75 57.65 61.6 58.55 62.7 64.3 69.45 64.85 72 L 66.65 88.15 Z" />
    <path
       id="Layer6_0_1_STROKES"
       stroke="#1B1B1B"
       stroke-width="5"
       stroke-linejoin="round"
       stroke-linecap="round"
       fill="none"
       d=" M 65.55 22.85 Q 74.3 22.85 81.05 27.6 83 29 84.8 30.8 92.7 38.75 92.7 50 92.7 61.3 84.8 69.25 83 71.05 81.05 72.45 74.3 77.2 65.55 77.2 M 65.45 77.2 L 34.4 77.2 Q 23.2 77.15 15.3 69.25 12.45 66.4 10.65 63.15 7.3 57.3 7.3 50 7.3 42.7 10.65 36.85 12.45 33.6 15.3 30.8 23.2 22.9 34.4 22.85 L 65.45 22.85" />
    <path
       id="Layer6_0_2_STROKES"
       stroke="#626262"
       stroke-width="4"
       stroke-linejoin="round"
       stroke-linecap="round"
       fill="none"
       d=" M 65.45 29.35 Q 65.5 29.35 65.55 29.35 74.15 29.35 80.2 35.4 80.6 35.85 81.05 36.3 86.25 42.05 86.25 50 86.25 58 81.05 63.75 80.6 64.2 80.2 64.65 74.15 70.7 65.55 70.7 65.5 70.7 65.45 70.7 L 34.4 70.7 Q 25.9 70.7 19.85 64.65 13.8 58.6 13.8 50 13.8 41.45 19.85 35.4 25.9 29.35 34.4 29.35 L 65.45 29.35 Z" />
    <path
       id="Layer3_0_1_STROKES"
       stroke="#1D1D1D"
       stroke-width="5"
       stroke-linejoin="round"
       stroke-linecap="round"
       fill="none"
       d=" M 84.95 23.15 Q 83.7 50.5 84.95 77.8 84.95 83.65 79.1 83.65 L 21.9 83.65 Q 16.05 83.65 16.05 77.8 17.3 50.5 16.05 23.15 16.05 17.3 21.9 17.3 L 79.1 17.3 Q 84.95 17.3 84.95 23.15 Z" />
    <path
       id="Layer3_0_2_STROKES"
       stroke="#696969"
       stroke-width="4"
       stroke-linejoin="round"
       stroke-linecap="round"
       fill="none"
       d=" M 54.15 26.45 L 29.45 26.45 Q 25.2 26.45 25.2 30.7 26.35 50.5 25.2 70.25 25.2 74.45 29.45 74.45 L 54.15 74.45 M 55.4 74.45 L 71.55 74.45 Q 75.8 74.45 75.8 70.25 74.65 50.5 75.8 30.7 75.8 26.45 71.55 26.45 L 55.4 26.45" />
    <path
       id="Layer2_0_1_STROKES"
       stroke="#404040"
       stroke-width="5"
       stroke-linejoin="round"
       stroke-linecap="round"
       fill="none"
       d=" M 84.95 23.15 Q 83.7 50.5 84.95 77.8 84.95 83.65 79.1 83.65 L 21.9 83.65 Q 16.05 83.65 16.05 77.8 17.3 50.5 16.05 23.15 16.05 17.3 21.9 17.3 L 79.1 17.3 Q 84.95 17.3 84.95 23.15 Z" />
    <path
       id="Layer2_0_2_STROKES"
       stroke="#FFFFFF"
       stroke-width="4"
       stroke-linejoin="round"
       stroke-linecap="round"
       fill="none"
       d=" M 55.4 74.45 L 71.55 74.45 Q 75.8 74.45 75.8 70.25 74.65 50.5 75.8 30.7 75.8 26.45 71.55 26.45 L 55.4 26.45 M 54.15 26.45 L 29.45 26.45 Q 25.2 26.45 25.2 30.7 26.35 50.5 25.2 70.25 25.2 74.45 29.45 74.45 L 54.15 74.45" />
    <path
       id="Layer0_0_1_STROKES"
       stroke="#626262"
       stroke-width="4"
       stroke-linejoin="round"
       stroke-linecap="round"
       fill="none"
       d=" M 43.7 18.7 Q 39.75 19.6 39.05 21.4 38.35 23.2 38.55 26 38.8 28.8 38.95 33 39.05 36.4 39.5 39.85 39.9 43.2 40.55 46.55 41.2 49.9 42.05 53.2 43.2 57.75 44.95 62.2 46.7 66.55 49.2 70.55 50.95 73.35 52.85 76.05 54.35 78.2 56 80.2 57.65 82.15 60.15 82.85 62.35 83.6 64.65 83.75 69.15 84.05 73.05 81.7 77.65 78.95 77.55 73.65 77.45 70.25 76.95 66.9 76.45 63.3 76.15 59.7 75.85 55.9 75.7 52.1 75.55 48.1 75.6 44.1 75.6 41.55 75.85 39.05 76.3 34.15 76.9 29.25 77.25 26.45 77.55 23.6 77.75 22 76.8 20.55 76.05 19.5 73.6 18.7 L 43.7 18.7 Z" />
    <path
       id="Layer0_0_2_STROKES"
       stroke="#1B1B1B"
       stroke-width="5"
       stroke-linejoin="round"
       stroke-linecap="round"
       fill="none"
       d=" M 84 26.3 Q 80.45 47.55 84 70.6 85.2 77.45 80.1 84.45 75 89.15 66.95 90.4 56.55 92.05 48.35 88.7 40.25 85 36.8 76.6 36.35 75.55 35.85 74.5 30.8 64.85 24.55 61.15 18.4 57.4 17.4 53.05 17.4 53 17.35 52.9 16.35 48.9 16.05 44.7 15.75 41.05 15.85 37.15 L 15.85 30.75 Q 16.75 14.35 33.8 12.3 L 77.05 12.3 Q 84.9 14.65 84 26.3 Z" />
  </defs>
  <g
     id="g2394"
     style="display:none">
    <use
       xlink:href="#Layer21_0_FILL"
       id="use2392" />
  </g>
  <g
     transform="matrix(0.99995422,0.00799561,-0.00799561,0.99995422,82.3,66.4)"
     id="g2400"
     style="display:none">
    <g
       id="g2398">
      <use
         xlink:href="#Finger_Front_0_Layer1_0_FILL"
         id="use2396" />
    </g>
  </g>
  <g
     transform="matrix(0.9352417,0.35392761,-0.35392761,0.9352417,25.25,57.85)"
     id="g2406"
     style="display:none">
    <g
       id="g2404">
      <use
         xlink:href="#Finger_Front_0_Layer1_0_FILL"
         id="use2402" />
    </g>
  </g>
  <g
     id="g2420"
     style="display:none">
    <use
       xlink:href="#Layer19_0_FILL"
       id="use2408" />
    <use
       xlink:href="#Layer19_0_1_STROKES"
       id="use2410" />
    <use
       xlink:href="#Layer19_0_2_STROKES"
       id="use2412" />
    <use
       xlink:href="#Layer19_0_3_STROKES"
       id="use2414" />
    <use
       xlink:href="#Layer19_0_4_STROKES"
       id="use2416" />
    <use
       xlink:href="#Layer19_0_5_STROKES"
       id="use2418" />
  </g>
  <g
     id="g2430"
     style="display:none">
    <use
       xlink:href="#Layer18_0_FILL"
       id="use2422" />
    <use
       xlink:href="#Layer18_0_1_STROKES"
       id="use2424" />
    <use
       xlink:href="#Layer18_0_2_STROKES"
       id="use2426" />
    <use
       xlink:href="#Layer18_0_3_STROKES"
       id="use2428" />
  </g>
  <g
     id="g2442"
     style="display:none">
    <use
       xlink:href="#Layer17_0_FILL"
       id="use2432" />
    <use
       xlink:href="#Layer17_0_1_STROKES"
       id="use2434" />
    <use
       xlink:href="#Layer17_0_2_STROKES"
       id="use2436" />
    <use
       xlink:href="#Layer17_0_3_STROKES"
       id="use2438" />
    <use
       xlink:href="#Layer17_0_4_STROKES"
       id="use2440" />
  </g>
  <g
     id="g2454"
     style="display:none">
    <use
       xlink:href="#Layer16_0_FILL"
       id="use2444" />
    <use
       xlink:href="#Layer16_0_1_STROKES"
       id="use2446" />
    <use
       xlink:href="#Layer16_0_2_STROKES"
       id="use2448" />
    <use
       xlink:href="#Layer16_0_3_STROKES"
       id="use2450" />
    <use
       xlink:href="#Layer16_0_4_STROKES"
       id="use2452" />
  </g>
  <g
     id="g2462"
     style="display:none">
    <use
       xlink:href="#Layer13_0_FILL"
       id="use2456" />
    <use
       xlink:href="#Layer13_0_1_STROKES"
       id="use2458" />
    <use
       xlink:href="#Layer13_0_2_STROKES"
       id="use2460" />
  </g>
  <g
     id="g2472"
     style="display:none">
    <use
       xlink:href="#Layer12_0_FILL"
       id="use2464" />
    <use
       xlink:href="#Layer12_0_1_STROKES"
       id="use2466" />
    <use
       xlink:href="#Layer12_0_2_STROKES"
       id="use2468" />
    <use
       xlink:href="#Layer12_0_3_STROKES"
       id="use2470" />
  </g>
  <g
     id="g2476"
     style="display:none">
    <use
       xlink:href="#Layer9_0_FILL"
       id="use2474" />
  </g>
  <g
     id="g2480"
     style="display:none">
    <use
       xlink:href="#Layer8_0_FILL"
       id="use2478" />
  </g>
  <g
     id="g2488"
     style="display:none">
    <use
       xlink:href="#Layer7_0_FILL"
       id="use2482" />
    <use
       xlink:href="#Layer7_0_1_STROKES"
       id="use2484" />
    <use
       xlink:href="#Layer7_0_2_STROKES"
       id="use2486" />
  </g>
  <g
     id="g2496"
     style="display:none">
    <use
       xlink:href="#Layer6_0_FILL"
       id="use2490" />
    <use
       xlink:href="#Layer6_0_1_STROKES"
       id="use2492" />
    <use
       xlink:href="#Layer6_0_2_STROKES"
       id="use2494" />
  </g>
  <g
     id="g2500"
     style="display:none">
    <use
       xlink:href="#Layer5_0_FILL"
       id="use2498" />
  </g>
  <g
     transform="matrix( 1, 0, 0, 1, 0,0) "
     id="g2508">
    <use
       xlink:href="#Layer3_0_FILL"
       id="use2502" />
    <use
       xlink:href="#Layer3_0_1_STROKES"
       id="use2504" />
    <use
       xlink:href="#Layer3_0_2_STROKES"
       id="use2506" />
  </g>
  <g
     id="g2516"
     style="display:none">
    <use
       xlink:href="#Layer2_0_FILL"
       id="use2510" />
    <use
       xlink:href="#Layer2_0_1_STROKES"
       id="use2512" />
    <use
       xlink:href="#Layer2_0_2_STROKES"
       id="use2514" />
  </g>
  <g
     id="g2520"
     style="display:none">
    <use
       xlink:href="#Layer1_0_FILL"
       id="use2518" />
  </g>
  <g
     id="g2528"
     style="display:none">
    <use
       xlink:href="#Layer0_0_FILL"
       id="use2522" />
    <use
       xlink:href="#Layer0_0_1_STROKES"
       id="use2524" />
    <use
       xlink:href="#Layer0_0_2_STROKES"
       id="use2526" />
  </g>
</svg>
