<?xml version="1.0" encoding="UTF-8" standalone="no"?>
<svg
   version="1.1"
   preserveAspectRatio="none"
   x="0px"
   y="0px"
   width="100px"
   height="100px"
   viewBox="0 0 100 100"
   id="svg4752"
   sodipodi:docname="Vector Source0046.svg"
   inkscape:version="1.2.1 (9c6d41e410, 2022-07-14)"
   xmlns:inkscape="http://www.inkscape.org/namespaces/inkscape"
   xmlns:sodipodi="http://sodipodi.sourceforge.net/DTD/sodipodi-0.dtd"
   xmlns:xlink="http://www.w3.org/1999/xlink"
   xmlns="http://www.w3.org/2000/svg"
   xmlns:svg="http://www.w3.org/2000/svg">
  <sodipodi:namedview
     id="namedview4754"
     pagecolor="#ffffff"
     bordercolor="#000000"
     borderopacity="0.25"
     inkscape:showpageshadow="2"
     inkscape:pageopacity="0.0"
     inkscape:pagecheckerboard="0"
     inkscape:deskcolor="#d1d1d1"
     showgrid="false"
     inkscape:zoom="10.27"
     inkscape:cx="42.55112"
     inkscape:cy="50"
     inkscape:window-width="2400"
     inkscape:window-height="1261"
     inkscape:window-x="5591"
     inkscape:window-y="431"
     inkscape:window-maximized="1"
     inkscape:current-layer="svg4752" />
  <defs
     id="defs4734">
    <g
       id="Layer3_0_FILL">
      <path
         fill="#353535"
         stroke="none"
         d=" M 84.95 77.8 Q 83.7 50.5 84.95 23.15 84.95 17.3 79.1 17.3 L 21.9 17.3 Q 16.05 17.3 16.05 23.15 17.3 50.5 16.05 77.8 16.05 83.65 21.9 83.65 L 79.1 83.65 Q 84.95 83.65 84.95 77.8 M 54.15 26.45 L 55.4 26.45 71.55 26.45 Q 75.8 26.45 75.8 30.7 74.65 50.5 75.8 70.25 75.8 74.45 71.55 74.45 L 55.4 74.45 54.15 74.45 29.45 74.45 Q 25.2 74.45 25.2 70.25 26.35 50.5 25.2 30.7 25.2 26.45 29.45 26.45 L 54.15 26.45 Z"
         id="path4716" />
      <path
         fill="#595959"
         stroke="none"
         d=" M 55.4 26.45 L 54.15 26.45 29.45 26.45 Q 25.2 26.45 25.2 30.7 26.35 50.5 25.2 70.25 25.2 74.45 29.45 74.45 L 54.15 74.45 55.4 74.45 71.55 74.45 Q 75.8 74.45 75.8 70.25 74.65 50.5 75.8 30.7 75.8 26.45 71.55 26.45 L 55.4 26.45 M 38.35 61.3 L 38.35 57.35 40.7 57.35 40.7 67.95 38.35 67.95 38.35 63.35 33.8 63.35 33.8 67.95 31.5 67.95 31.5 57.35 33.8 57.35 33.8 61.3 38.35 61.3 M 65.55 60.75 Q 66.3 60.5 67.1 60.5 67.9 60.5 68.55 60.75 69.15 61 69.6 61.5 70.05 62 70.3 62.75 70.55 63.45 70.55 64.3 L 70.55 65 65.3 65 Q 65.45 65.65 65.9 66.05 66.35 66.45 67 66.45 67.55 66.45 67.95 66.2 68.35 65.95 68.6 65.55 L 70.2 66.7 Q 69.65 67.4 68.85 67.75 68 68.15 67.1 68.15 66.3 68.15 65.55 67.85 64.8 67.6 64.25 67.1 63.7 66.6 63.4 65.9 63.05 65.15 63.05 64.3 63.05 63.45 63.4 62.75 63.7 62 64.25 61.5 64.8 61 65.55 60.75 M 60.85 60.75 Q 61.35 61 61.65 61.4 61.95 61.85 62.1 62.4 62.2 63 62.2 63.65 L 62.2 67.95 59.95 67.95 59.95 63.7 Q 59.95 63.2 59.75 62.8 59.55 62.45 58.95 62.45 58.6 62.45 58.3 62.6 58.05 62.7 57.9 62.95 57.75 63.15 57.65 63.45 57.6 63.75 57.6 64.1 L 57.6 67.95 55.35 67.95 55.35 64.1 Q 55.35 63.9 55.35 63.6 55.35 63.35 55.25 63.05 55.15 62.8 54.95 62.65 54.75 62.45 54.35 62.45 53.9 62.45 53.65 62.6 53.35 62.75 53.25 63.05 53.1 63.3 53.05 63.65 53 63.95 53 64.3 L 53 67.95 50.75 67.95 50.75 60.65 52.9 60.65 52.9 61.65 52.95 61.65 Q 53.05 61.45 53.25 61.25 53.45 61 53.7 60.85 53.95 60.7 54.3 60.6 54.65 60.5 55.05 60.5 55.85 60.5 56.4 60.8 57 61.1 57.3 61.8 57.7 61.1 58.25 60.8 58.8 60.5 59.65 60.5 60.35 60.5 60.85 60.75 M 43 61.5 Q 43.55 61 44.3 60.75 45.05 60.5 45.9 60.5 46.7 60.5 47.45 60.75 48.2 61 48.75 61.5 49.3 62 49.6 62.75 49.9 63.45 49.9 64.3 49.9 65.15 49.6 65.9 49.3 66.6 48.75 67.1 48.2 67.6 47.45 67.85 46.7 68.15 45.9 68.15 45.05 68.15 44.3 67.85 43.55 67.6 43 67.1 42.45 66.6 42.15 65.9 41.85 65.15 41.85 64.3 41.85 63.45 42.15 62.75 42.45 62 43 61.5 M 47.2 65.65 Q 47.65 65.15 47.65 64.3 47.65 63.5 47.2 62.95 46.75 62.45 45.9 62.45 45 62.45 44.55 62.95 44.1 63.5 44.1 64.3 44.1 65.15 44.55 65.65 45 66.15 45.9 66.15 46.75 66.15 47.2 65.65 M 66.9 62.1 Q 66.55 62.1 66.25 62.2 65.95 62.35 65.75 62.55 65.55 62.7 65.45 62.95 65.35 63.2 65.3 63.5 L 68.3 63.5 Q 68.3 62.9 67.9 62.5 67.5 62.1 66.9 62.1 Z"
         id="path4718" />
      <path
         fill="#CDCDCD"
         stroke="none"
         d=" M 44.3 60.75 Q 43.55 61 43 61.5 42.45 62 42.15 62.75 41.85 63.45 41.85 64.3 41.85 65.15 42.15 65.9 42.45 66.6 43 67.1 43.55 67.6 44.3 67.85 45.05 68.15 45.9 68.15 46.7 68.15 47.45 67.85 48.2 67.6 48.75 67.1 49.3 66.6 49.6 65.9 49.9 65.15 49.9 64.3 49.9 63.45 49.6 62.75 49.3 62 48.75 61.5 48.2 61 47.45 60.75 46.7 60.5 45.9 60.5 45.05 60.5 44.3 60.75 M 47.65 64.3 Q 47.65 65.15 47.2 65.65 46.75 66.15 45.9 66.15 45 66.15 44.55 65.65 44.1 65.15 44.1 64.3 44.1 63.5 44.55 62.95 45 62.45 45.9 62.45 46.75 62.45 47.2 62.95 47.65 63.5 47.65 64.3 M 61.65 61.4 Q 61.35 61 60.85 60.75 60.35 60.5 59.65 60.5 58.8 60.5 58.25 60.8 57.7 61.1 57.3 61.8 57 61.1 56.4 60.8 55.85 60.5 55.05 60.5 54.65 60.5 54.3 60.6 53.95 60.7 53.7 60.85 53.45 61 53.25 61.25 53.05 61.45 52.95 61.65 L 52.9 61.65 52.9 60.65 50.75 60.65 50.75 67.95 53 67.95 53 64.3 Q 53 63.95 53.05 63.65 53.1 63.3 53.25 63.05 53.35 62.75 53.65 62.6 53.9 62.45 54.35 62.45 54.75 62.45 54.95 62.65 55.15 62.8 55.25 63.05 55.35 63.35 55.35 63.6 55.35 63.9 55.35 64.1 L 55.35 67.95 57.6 67.95 57.6 64.1 Q 57.6 63.75 57.65 63.45 57.75 63.15 57.9 62.95 58.05 62.7 58.3 62.6 58.6 62.45 58.95 62.45 59.55 62.45 59.75 62.8 59.95 63.2 59.95 63.7 L 59.95 67.95 62.2 67.95 62.2 63.65 Q 62.2 63 62.1 62.4 61.95 61.85 61.65 61.4 M 67.1 60.5 Q 66.3 60.5 65.55 60.75 64.8 61 64.25 61.5 63.7 62 63.4 62.75 63.05 63.45 63.05 64.3 63.05 65.15 63.4 65.9 63.7 66.6 64.25 67.1 64.8 67.6 65.55 67.85 66.3 68.15 67.1 68.15 68 68.15 68.85 67.75 69.65 67.4 70.2 66.7 L 68.6 65.55 Q 68.35 65.95 67.95 66.2 67.55 66.45 67 66.45 66.35 66.45 65.9 66.05 65.45 65.65 65.3 65 L 70.55 65 70.55 64.3 Q 70.55 63.45 70.3 62.75 70.05 62 69.6 61.5 69.15 61 68.55 60.75 67.9 60.5 67.1 60.5 M 66.25 62.2 Q 66.55 62.1 66.9 62.1 67.5 62.1 67.9 62.5 68.3 62.9 68.3 63.5 L 65.3 63.5 Q 65.35 63.2 65.45 62.95 65.55 62.7 65.75 62.55 65.95 62.35 66.25 62.2 M 38.35 57.35 L 38.35 61.3 33.8 61.3 33.8 57.35 31.5 57.35 31.5 67.95 33.8 67.95 33.8 63.35 38.35 63.35 38.35 67.95 40.7 67.95 40.7 57.35 38.35 57.35 Z"
         id="path4720" />
    </g>
    <g
       id="Layer2_0_FILL">
      <path
         fill="#D7D7D7"
         stroke="none"
         d=" M 84.95 77.8 Q 83.7 50.5 84.95 23.15 84.95 17.3 79.1 17.3 L 21.9 17.3 Q 16.05 17.3 16.05 23.15 17.3 50.5 16.05 77.8 16.05 83.65 21.9 83.65 L 79.1 83.65 Q 84.95 83.65 84.95 77.8 M 55.4 26.45 L 71.55 26.45 Q 75.8 26.45 75.8 30.7 74.65 50.5 75.8 70.25 75.8 74.45 71.55 74.45 L 55.4 74.45 54.15 74.45 29.45 74.45 Q 25.2 74.45 25.2 70.25 26.35 50.5 25.2 30.7 25.2 26.45 29.45 26.45 L 54.15 26.45 55.4 26.45 Z"
         id="path4723" />
      <path
         fill="#F5F5F5"
         stroke="none"
         d=" M 71.55 26.45 L 55.4 26.45 54.15 26.45 29.45 26.45 Q 25.2 26.45 25.2 30.7 26.35 50.5 25.2 70.25 25.2 74.45 29.45 74.45 L 54.15 74.45 55.4 74.45 71.55 74.45 Q 75.8 74.45 75.8 70.25 74.65 50.5 75.8 30.7 75.8 26.45 71.55 26.45 M 38.35 61.3 L 38.35 57.35 40.7 57.35 40.7 67.95 38.35 67.95 38.35 63.35 33.8 63.35 33.8 67.95 31.5 67.95 31.5 57.35 33.8 57.35 33.8 61.3 38.35 61.3 M 65.55 60.75 Q 66.3 60.5 67.1 60.5 67.9 60.5 68.55 60.75 69.15 61 69.6 61.5 70.05 62 70.3 62.75 70.55 63.45 70.55 64.3 L 70.55 65 65.3 65 Q 65.45 65.65 65.9 66.05 66.35 66.45 67 66.45 67.55 66.45 67.95 66.2 68.35 65.95 68.6 65.55 L 70.2 66.7 Q 69.65 67.4 68.85 67.75 68 68.15 67.1 68.15 66.3 68.15 65.55 67.85 64.8 67.6 64.25 67.1 63.7 66.6 63.4 65.9 63.05 65.15 63.05 64.3 63.05 63.45 63.4 62.75 63.7 62 64.25 61.5 64.8 61 65.55 60.75 M 60.85 60.75 Q 61.35 61 61.65 61.4 61.95 61.85 62.1 62.4 62.2 63 62.2 63.65 L 62.2 67.95 59.95 67.95 59.95 63.7 Q 59.95 63.2 59.75 62.8 59.55 62.45 58.95 62.45 58.6 62.45 58.3 62.6 58.05 62.7 57.9 62.95 57.75 63.15 57.65 63.45 57.6 63.75 57.6 64.1 L 57.6 67.95 55.35 67.95 55.35 64.1 Q 55.35 63.9 55.35 63.6 55.35 63.35 55.25 63.05 55.15 62.8 54.95 62.65 54.75 62.45 54.35 62.45 53.9 62.45 53.65 62.6 53.35 62.75 53.25 63.05 53.1 63.3 53.05 63.65 53 63.95 53 64.3 L 53 67.95 50.75 67.95 50.75 60.65 52.9 60.65 52.9 61.65 52.95 61.65 Q 53.05 61.45 53.25 61.25 53.45 61 53.7 60.85 53.95 60.7 54.3 60.6 54.65 60.5 55.05 60.5 55.85 60.5 56.4 60.8 57 61.1 57.3 61.8 57.7 61.1 58.25 60.8 58.8 60.5 59.65 60.5 60.35 60.5 60.85 60.75 M 43 61.5 Q 43.55 61 44.3 60.75 45.05 60.5 45.9 60.5 46.7 60.5 47.45 60.75 48.2 61 48.75 61.5 49.3 62 49.6 62.75 49.9 63.45 49.9 64.3 49.9 65.15 49.6 65.9 49.3 66.6 48.75 67.1 48.2 67.6 47.45 67.85 46.7 68.15 45.9 68.15 45.05 68.15 44.3 67.85 43.55 67.6 43 67.1 42.45 66.6 42.15 65.9 41.85 65.15 41.85 64.3 41.85 63.45 42.15 62.75 42.45 62 43 61.5 M 47.2 65.65 Q 47.65 65.15 47.65 64.3 47.65 63.5 47.2 62.95 46.75 62.45 45.9 62.45 45 62.45 44.55 62.95 44.1 63.5 44.1 64.3 44.1 65.15 44.55 65.65 45 66.15 45.9 66.15 46.75 66.15 47.2 65.65 M 66.9 62.1 Q 66.55 62.1 66.25 62.2 65.95 62.35 65.75 62.55 65.55 62.7 65.45 62.95 65.35 63.2 65.3 63.5 L 68.3 63.5 Q 68.3 62.9 67.9 62.5 67.5 62.1 66.9 62.1 Z"
         id="path4725" />
      <path
         fill="#404040"
         stroke="none"
         d=" M 44.3 60.75 Q 43.55 61 43 61.5 42.45 62 42.15 62.75 41.85 63.45 41.85 64.3 41.85 65.15 42.15 65.9 42.45 66.6 43 67.1 43.55 67.6 44.3 67.85 45.05 68.15 45.9 68.15 46.7 68.15 47.45 67.85 48.2 67.6 48.75 67.1 49.3 66.6 49.6 65.9 49.9 65.15 49.9 64.3 49.9 63.45 49.6 62.75 49.3 62 48.75 61.5 48.2 61 47.45 60.75 46.7 60.5 45.9 60.5 45.05 60.5 44.3 60.75 M 47.65 64.3 Q 47.65 65.15 47.2 65.65 46.75 66.15 45.9 66.15 45 66.15 44.55 65.65 44.1 65.15 44.1 64.3 44.1 63.5 44.55 62.95 45 62.45 45.9 62.45 46.75 62.45 47.2 62.95 47.65 63.5 47.65 64.3 M 61.65 61.4 Q 61.35 61 60.85 60.75 60.35 60.5 59.65 60.5 58.8 60.5 58.25 60.8 57.7 61.1 57.3 61.8 57 61.1 56.4 60.8 55.85 60.5 55.05 60.5 54.65 60.5 54.3 60.6 53.95 60.7 53.7 60.85 53.45 61 53.25 61.25 53.05 61.45 52.95 61.65 L 52.9 61.65 52.9 60.65 50.75 60.65 50.75 67.95 53 67.95 53 64.3 Q 53 63.95 53.05 63.65 53.1 63.3 53.25 63.05 53.35 62.75 53.65 62.6 53.9 62.45 54.35 62.45 54.75 62.45 54.95 62.65 55.15 62.8 55.25 63.05 55.35 63.35 55.35 63.6 55.35 63.9 55.35 64.1 L 55.35 67.95 57.6 67.95 57.6 64.1 Q 57.6 63.75 57.65 63.45 57.75 63.15 57.9 62.95 58.05 62.7 58.3 62.6 58.6 62.45 58.95 62.45 59.55 62.45 59.75 62.8 59.95 63.2 59.95 63.7 L 59.95 67.95 62.2 67.95 62.2 63.65 Q 62.2 63 62.1 62.4 61.95 61.85 61.65 61.4 M 67.1 60.5 Q 66.3 60.5 65.55 60.75 64.8 61 64.25 61.5 63.7 62 63.4 62.75 63.05 63.45 63.05 64.3 63.05 65.15 63.4 65.9 63.7 66.6 64.25 67.1 64.8 67.6 65.55 67.85 66.3 68.15 67.1 68.15 68 68.15 68.85 67.75 69.65 67.4 70.2 66.7 L 68.6 65.55 Q 68.35 65.95 67.95 66.2 67.55 66.45 67 66.45 66.35 66.45 65.9 66.05 65.45 65.65 65.3 65 L 70.55 65 70.55 64.3 Q 70.55 63.45 70.3 62.75 70.05 62 69.6 61.5 69.15 61 68.55 60.75 67.9 60.5 67.1 60.5 M 66.25 62.2 Q 66.55 62.1 66.9 62.1 67.5 62.1 67.9 62.5 68.3 62.9 68.3 63.5 L 65.3 63.5 Q 65.35 63.2 65.45 62.95 65.55 62.7 65.75 62.55 65.95 62.35 66.25 62.2 M 38.35 57.35 L 38.35 61.3 33.8 61.3 33.8 57.35 31.5 57.35 31.5 67.95 33.8 67.95 33.8 63.35 38.35 63.35 38.35 67.95 40.7 67.95 40.7 57.35 38.35 57.35 Z"
         id="path4727" />
    </g>
    <path
       id="Layer3_0_1_STROKES"
       stroke="#1D1D1D"
       stroke-width="5"
       stroke-linejoin="round"
       stroke-linecap="round"
       fill="none"
       d=" M 84.95 23.15 Q 83.7 50.5 84.95 77.8 84.95 83.65 79.1 83.65 L 21.9 83.65 Q 16.05 83.65 16.05 77.8 17.3 50.5 16.05 23.15 16.05 17.3 21.9 17.3 L 79.1 17.3 Q 84.95 17.3 84.95 23.15 Z" />
    <path
       id="Layer3_0_2_STROKES"
       stroke="#696969"
       stroke-width="4"
       stroke-linejoin="round"
       stroke-linecap="round"
       fill="none"
       d=" M 54.15 26.45 L 29.45 26.45 Q 25.2 26.45 25.2 30.7 26.35 50.5 25.2 70.25 25.2 74.45 29.45 74.45 L 54.15 74.45 M 55.4 74.45 L 71.55 74.45 Q 75.8 74.45 75.8 70.25 74.65 50.5 75.8 30.7 75.8 26.45 71.55 26.45 L 55.4 26.45" />
    <path
       id="Layer2_0_1_STROKES"
       stroke="#404040"
       stroke-width="5"
       stroke-linejoin="round"
       stroke-linecap="round"
       fill="none"
       d=" M 84.95 23.15 Q 83.7 50.5 84.95 77.8 84.95 83.65 79.1 83.65 L 21.9 83.65 Q 16.05 83.65 16.05 77.8 17.3 50.5 16.05 23.15 16.05 17.3 21.9 17.3 L 79.1 17.3 Q 84.95 17.3 84.95 23.15 Z" />
    <path
       id="Layer2_0_2_STROKES"
       stroke="#FFFFFF"
       stroke-width="4"
       stroke-linejoin="round"
       stroke-linecap="round"
       fill="none"
       d=" M 55.4 74.45 L 71.55 74.45 Q 75.8 74.45 75.8 70.25 74.65 50.5 75.8 30.7 75.8 26.45 71.55 26.45 L 55.4 26.45 M 54.15 26.45 L 29.45 26.45 Q 25.2 26.45 25.2 30.7 26.35 50.5 25.2 70.25 25.2 74.45 29.45 74.45 L 54.15 74.45" />
  </defs>
  <g
     transform="matrix( 1, 0, 0, 1, 0,0) "
     id="g4742">
    <use
       xlink:href="#Layer3_0_FILL"
       id="use4736" />
    <use
       xlink:href="#Layer3_0_1_STROKES"
       id="use4738" />
    <use
       xlink:href="#Layer3_0_2_STROKES"
       id="use4740" />
  </g>
  <g
     id="g4750"
     style="display:none">
    <use
       xlink:href="#Layer2_0_FILL"
       id="use4744" />
    <use
       xlink:href="#Layer2_0_1_STROKES"
       id="use4746" />
    <use
       xlink:href="#Layer2_0_2_STROKES"
       id="use4748" />
  </g>
</svg>
