<?xml version="1.0" encoding="UTF-8" standalone="no"?>
<svg
   version="1.1"
   preserveAspectRatio="none"
   x="0px"
   y="0px"
   width="100px"
   height="100px"
   viewBox="0 0 100 100"
   id="svg7825"
   sodipodi:docname="Vector Source0054.svg"
   inkscape:version="1.2.1 (9c6d41e410, 2022-07-14)"
   xmlns:inkscape="http://www.inkscape.org/namespaces/inkscape"
   xmlns:sodipodi="http://sodipodi.sourceforge.net/DTD/sodipodi-0.dtd"
   xmlns:xlink="http://www.w3.org/1999/xlink"
   xmlns="http://www.w3.org/2000/svg"
   xmlns:svg="http://www.w3.org/2000/svg">
  <sodipodi:namedview
     id="namedview7827"
     pagecolor="#ffffff"
     bordercolor="#000000"
     borderopacity="0.25"
     inkscape:showpageshadow="2"
     inkscape:pageopacity="0.0"
     inkscape:pagecheckerboard="0"
     inkscape:deskcolor="#d1d1d1"
     showgrid="false"
     inkscape:zoom="10.27"
     inkscape:cx="42.55112"
     inkscape:cy="50"
     inkscape:window-width="2400"
     inkscape:window-height="1261"
     inkscape:window-x="5591"
     inkscape:window-y="431"
     inkscape:window-maximized="1"
     inkscape:current-layer="svg7825" />
  <defs
     id="defs7807">
    <g
       id="Layer3_0_FILL">
      <path
         fill="#353535"
         stroke="none"
         d=" M 84.95 77.8 Q 83.7 50.5 84.95 23.15 84.95 17.3 79.1 17.3 L 21.9 17.3 Q 16.05 17.3 16.05 23.15 17.3 50.5 16.05 77.8 16.05 83.65 21.9 83.65 L 79.1 83.65 Q 84.95 83.65 84.95 77.8 M 54.15 26.45 L 55.4 26.45 71.55 26.45 Q 75.8 26.45 75.8 30.7 74.65 50.5 75.8 70.25 75.8 74.45 71.55 74.45 L 55.4 74.45 54.15 74.45 29.45 74.45 Q 25.2 74.45 25.2 70.25 26.35 50.5 25.2 30.7 25.2 26.45 29.45 26.45 L 54.15 26.45 Z"
         id="path7789" />
      <path
         fill="#595959"
         stroke="none"
         d=" M 55.4 26.45 L 54.15 26.45 29.45 26.45 Q 25.2 26.45 25.2 30.7 26.35 50.5 25.2 70.25 25.2 74.45 29.45 74.45 L 54.15 74.45 55.4 74.45 71.55 74.45 Q 75.8 74.45 75.8 70.25 74.65 50.5 75.8 30.7 75.8 26.45 71.55 26.45 L 55.4 26.45 M 46.8 42.6 Q 46.8 41.85 47.05 41.15 47.35 40.5 47.85 40 48.35 39.5 49.05 39.2 49.75 38.95 50.5 38.95 51.25 38.95 51.9 39.2 52.6 39.5 53.1 40 53.6 40.5 53.9 41.15 54.15 41.85 54.15 42.6 54.15 43.35 53.9 44.05 53.6 44.75 53.1 45.25 52.6 45.75 51.9 46 51.25 46.3 50.5 46.3 49.75 46.3 49.05 46 48.35 45.75 47.85 45.25 47.35 44.75 47.05 44.05 46.8 43.35 46.8 42.6 M 48.2 52.35 L 53.95 52.35 50.35 63.65 45.25 63.65 48.2 52.35 Z"
         id="path7791" />
      <path
         fill="#CDCDCD"
         stroke="none"
         d=" M 53.95 52.35 L 48.2 52.35 45.25 63.65 50.35 63.65 53.95 52.35 M 47.05 41.15 Q 46.8 41.85 46.8 42.6 46.8 43.35 47.05 44.05 47.35 44.75 47.85 45.25 48.35 45.75 49.05 46 49.75 46.3 50.5 46.3 51.25 46.3 51.9 46 52.6 45.75 53.1 45.25 53.6 44.75 53.9 44.05 54.15 43.35 54.15 42.6 54.15 41.85 53.9 41.15 53.6 40.5 53.1 40 52.6 39.5 51.9 39.2 51.25 38.95 50.5 38.95 49.75 38.95 49.05 39.2 48.35 39.5 47.85 40 47.35 40.5 47.05 41.15 Z"
         id="path7793" />
    </g>
    <g
       id="Layer2_0_FILL">
      <path
         fill="#D7D7D7"
         stroke="none"
         d=" M 84.95 77.8 Q 83.7 50.5 84.95 23.15 84.95 17.3 79.1 17.3 L 21.9 17.3 Q 16.05 17.3 16.05 23.15 17.3 50.5 16.05 77.8 16.05 83.65 21.9 83.65 L 79.1 83.65 Q 84.95 83.65 84.95 77.8 M 54.15 26.45 L 55.4 26.45 71.55 26.45 Q 75.8 26.45 75.8 30.7 74.65 50.5 75.8 70.25 75.8 74.45 71.55 74.45 L 55.4 74.45 54.15 74.45 29.45 74.45 Q 25.2 74.45 25.2 70.25 26.35 50.5 25.2 30.7 25.2 26.45 29.45 26.45 L 54.15 26.45 Z"
         id="path7796" />
      <path
         fill="#F5F5F5"
         stroke="none"
         d=" M 55.4 26.45 L 54.15 26.45 29.45 26.45 Q 25.2 26.45 25.2 30.7 26.35 50.5 25.2 70.25 25.2 74.45 29.45 74.45 L 54.15 74.45 55.4 74.45 71.55 74.45 Q 75.8 74.45 75.8 70.25 74.65 50.5 75.8 30.7 75.8 26.45 71.55 26.45 L 55.4 26.45 M 46.8 42.6 Q 46.8 41.85 47.05 41.15 47.35 40.5 47.85 40 48.35 39.5 49.05 39.2 49.75 38.95 50.5 38.95 51.25 38.95 51.9 39.2 52.6 39.5 53.1 40 53.6 40.5 53.9 41.15 54.15 41.85 54.15 42.6 54.15 43.35 53.9 44.05 53.6 44.75 53.1 45.25 52.6 45.75 51.9 46 51.25 46.3 50.5 46.3 49.75 46.3 49.05 46 48.35 45.75 47.85 45.25 47.35 44.75 47.05 44.05 46.8 43.35 46.8 42.6 M 48.2 52.35 L 53.95 52.35 50.35 63.65 45.25 63.65 48.2 52.35 Z"
         id="path7798" />
      <path
         fill="#404040"
         stroke="none"
         d=" M 53.95 52.35 L 48.2 52.35 45.25 63.65 50.35 63.65 53.95 52.35 M 47.05 41.15 Q 46.8 41.85 46.8 42.6 46.8 43.35 47.05 44.05 47.35 44.75 47.85 45.25 48.35 45.75 49.05 46 49.75 46.3 50.5 46.3 51.25 46.3 51.9 46 52.6 45.75 53.1 45.25 53.6 44.75 53.9 44.05 54.15 43.35 54.15 42.6 54.15 41.85 53.9 41.15 53.6 40.5 53.1 40 52.6 39.5 51.9 39.2 51.25 38.95 50.5 38.95 49.75 38.95 49.05 39.2 48.35 39.5 47.85 40 47.35 40.5 47.05 41.15 Z"
         id="path7800" />
    </g>
    <path
       id="Layer3_0_1_STROKES"
       stroke="#1D1D1D"
       stroke-width="5"
       stroke-linejoin="round"
       stroke-linecap="round"
       fill="none"
       d=" M 84.95 23.15 Q 83.7 50.5 84.95 77.8 84.95 83.65 79.1 83.65 L 21.9 83.65 Q 16.05 83.65 16.05 77.8 17.3 50.5 16.05 23.15 16.05 17.3 21.9 17.3 L 79.1 17.3 Q 84.95 17.3 84.95 23.15 Z" />
    <path
       id="Layer3_0_2_STROKES"
       stroke="#696969"
       stroke-width="4"
       stroke-linejoin="round"
       stroke-linecap="round"
       fill="none"
       d=" M 54.15 26.45 L 29.45 26.45 Q 25.2 26.45 25.2 30.7 26.35 50.5 25.2 70.25 25.2 74.45 29.45 74.45 L 54.15 74.45 M 55.4 74.45 L 71.55 74.45 Q 75.8 74.45 75.8 70.25 74.65 50.5 75.8 30.7 75.8 26.45 71.55 26.45 L 55.4 26.45" />
    <path
       id="Layer2_0_1_STROKES"
       stroke="#404040"
       stroke-width="5"
       stroke-linejoin="round"
       stroke-linecap="round"
       fill="none"
       d=" M 84.95 23.15 Q 83.7 50.5 84.95 77.8 84.95 83.65 79.1 83.65 L 21.9 83.65 Q 16.05 83.65 16.05 77.8 17.3 50.5 16.05 23.15 16.05 17.3 21.9 17.3 L 79.1 17.3 Q 84.95 17.3 84.95 23.15 Z" />
    <path
       id="Layer2_0_2_STROKES"
       stroke="#FFFFFF"
       stroke-width="4"
       stroke-linejoin="round"
       stroke-linecap="round"
       fill="none"
       d=" M 54.15 26.45 L 29.45 26.45 Q 25.2 26.45 25.2 30.7 26.35 50.5 25.2 70.25 25.2 74.45 29.45 74.45 L 54.15 74.45 M 55.4 74.45 L 71.55 74.45 Q 75.8 74.45 75.8 70.25 74.65 50.5 75.8 30.7 75.8 26.45 71.55 26.45 L 55.4 26.45" />
  </defs>
  <g
     transform="matrix( 1, 0, 0, 1, 0,0) "
     id="g7815">
    <use
       xlink:href="#Layer3_0_FILL"
       id="use7809" />
    <use
       xlink:href="#Layer3_0_1_STROKES"
       id="use7811" />
    <use
       xlink:href="#Layer3_0_2_STROKES"
       id="use7813" />
  </g>
  <g
     id="g7823"
     style="display:none">
    <use
       xlink:href="#Layer2_0_FILL"
       id="use7817" />
    <use
       xlink:href="#Layer2_0_1_STROKES"
       id="use7819" />
    <use
       xlink:href="#Layer2_0_2_STROKES"
       id="use7821" />
  </g>
</svg>
