<?xml version="1.0" encoding="UTF-8" standalone="no"?>
<svg
   version="1.1"
   preserveAspectRatio="none"
   x="0px"
   y="0px"
   width="100px"
   height="100px"
   viewBox="0 0 100 100"
   id="svg3302"
   sodipodi:docname="Vector Source0043.svg"
   inkscape:version="1.2.1 (9c6d41e410, 2022-07-14)"
   xmlns:inkscape="http://www.inkscape.org/namespaces/inkscape"
   xmlns:sodipodi="http://sodipodi.sourceforge.net/DTD/sodipodi-0.dtd"
   xmlns:xlink="http://www.w3.org/1999/xlink"
   xmlns="http://www.w3.org/2000/svg"
   xmlns:svg="http://www.w3.org/2000/svg">
  <sodipodi:namedview
     id="namedview3304"
     pagecolor="#ffffff"
     bordercolor="#000000"
     borderopacity="0.25"
     inkscape:showpageshadow="2"
     inkscape:pageopacity="0.0"
     inkscape:pagecheckerboard="0"
     inkscape:deskcolor="#d1d1d1"
     showgrid="false"
     inkscape:zoom="10.27"
     inkscape:cx="42.55112"
     inkscape:cy="50"
     inkscape:window-width="2400"
     inkscape:window-height="1261"
     inkscape:window-x="5591"
     inkscape:window-y="431"
     inkscape:window-maximized="1"
     inkscape:current-layer="svg3302" />
  <defs
     id="defs3284">
    <g
       id="Layer3_0_FILL">
      <path
         fill="#353535"
         stroke="none"
         d=" M 84.95 77.8 Q 83.7 50.5 84.95 23.15 84.95 17.3 79.1 17.3 L 21.9 17.3 Q 16.05 17.3 16.05 23.15 17.3 50.5 16.05 77.8 16.05 83.65 21.9 83.65 L 79.1 83.65 Q 84.95 83.65 84.95 77.8 M 54.15 26.45 L 55.4 26.45 71.55 26.45 Q 75.8 26.45 75.8 30.7 74.65 50.5 75.8 70.25 75.8 74.45 71.55 74.45 L 55.4 74.45 54.15 74.45 29.45 74.45 Q 25.2 74.45 25.2 70.25 26.35 50.5 25.2 30.7 25.2 26.45 29.45 26.45 L 54.15 26.45 Z"
         id="path3266" />
      <path
         fill="#595959"
         stroke="none"
         d=" M 55.4 26.45 L 54.15 26.45 29.45 26.45 Q 25.2 26.45 25.2 30.7 26.35 50.5 25.2 70.25 25.2 74.45 29.45 74.45 L 54.15 74.45 55.4 74.45 71.55 74.45 Q 75.8 74.45 75.8 70.25 74.65 50.5 75.8 30.7 75.8 26.45 71.55 26.45 L 55.4 26.45 M 36.4 50 L 36.4 67.7 32.5 67.7 32.5 50 36.4 50 M 39.5 67.7 L 39.5 55.55 43.1 55.55 43.1 57.2 43.15 57.2 Q 43.3 56.85 43.65 56.5 43.95 56.15 44.4 55.85 44.85 55.6 45.45 55.4 46 55.25 46.7 55.25 48.1 55.25 49 55.7 49.85 56.15 50.35 56.9 50.8 57.7 51 58.75 51.15 59.8 51.15 61 L 51.15 67.7 47.45 67.7 47.45 61.75 Q 47.45 61.2 47.4 60.65 47.35 60.1 47.15 59.6 47 59.15 46.6 58.85 46.2 58.55 45.45 58.55 44.75 58.55 44.3 58.8 43.85 59.05 43.6 59.5 43.35 59.95 43.3 60.5 43.25 61.05 43.25 61.65 L 43.25 67.7 39.5 67.7 M 61.85 61.05 Q 62.55 61.45 63 62.15 63.45 62.85 63.45 64 63.45 65.15 62.95 65.95 62.45 66.7 61.65 67.15 60.85 67.65 59.85 67.8 58.85 68 57.85 68 56.6 68 55.3 67.65 54 67.3 53.1 66.35 L 55.4 63.85 Q 55.9 64.5 56.55 64.8 57.2 65.15 58.05 65.15 58.7 65.15 59.2 65 59.75 64.8 59.75 64.3 59.75 63.8 59.25 63.55 58.8 63.35 58.1 63.15 57.4 63 56.55 62.8 55.75 62.65 55.05 62.25 54.35 61.9 53.85 61.2 53.4 60.5 53.4 59.35 53.4 58.3 53.85 57.5 54.3 56.75 55 56.25 55.7 55.7 56.65 55.5 57.55 55.25 58.5 55.25 59.7 55.25 60.9 55.6 62.15 55.95 63 56.85 L 60.7 59.1 Q 59.85 58.1 58.55 58.1 58.05 58.1 57.6 58.3 57.15 58.55 57.15 59.1 57.15 59.55 57.6 59.75 58.1 59.95 58.8 60.15 59.5 60.3 60.3 60.5 61.15 60.65 61.85 61.05 Z"
         id="path3268" />
      <path
         fill="#CDCDCD"
         stroke="none"
         d=" M 63 62.15 Q 62.55 61.45 61.85 61.05 61.15 60.65 60.3 60.5 59.5 60.3 58.8 60.15 58.1 59.95 57.6 59.75 57.15 59.55 57.15 59.1 57.15 58.55 57.6 58.3 58.05 58.1 58.55 58.1 59.85 58.1 60.7 59.1 L 63 56.85 Q 62.15 55.95 60.9 55.6 59.7 55.25 58.5 55.25 57.55 55.25 56.65 55.5 55.7 55.7 55 56.25 54.3 56.75 53.85 57.5 53.4 58.3 53.4 59.35 53.4 60.5 53.85 61.2 54.35 61.9 55.05 62.25 55.75 62.65 56.55 62.8 57.4 63 58.1 63.15 58.8 63.35 59.25 63.55 59.75 63.8 59.75 64.3 59.75 64.8 59.2 65 58.7 65.15 58.05 65.15 57.2 65.15 56.55 64.8 55.9 64.5 55.4 63.85 L 53.1 66.35 Q 54 67.3 55.3 67.65 56.6 68 57.85 68 58.85 68 59.85 67.8 60.85 67.65 61.65 67.15 62.45 66.7 62.95 65.95 63.45 65.15 63.45 64 63.45 62.85 63 62.15 M 39.5 55.55 L 39.5 67.7 43.25 67.7 43.25 61.65 Q 43.25 61.05 43.3 60.5 43.35 59.95 43.6 59.5 43.85 59.05 44.3 58.8 44.75 58.55 45.45 58.55 46.2 58.55 46.6 58.85 47 59.15 47.15 59.6 47.35 60.1 47.4 60.65 47.45 61.2 47.45 61.75 L 47.45 67.7 51.15 67.7 51.15 61 Q 51.15 59.8 51 58.75 50.8 57.7 50.35 56.9 49.85 56.15 49 55.7 48.1 55.25 46.7 55.25 46 55.25 45.45 55.4 44.85 55.6 44.4 55.85 43.95 56.15 43.65 56.5 43.3 56.85 43.15 57.2 L 43.1 57.2 43.1 55.55 39.5 55.55 M 36.4 67.7 L 36.4 50 32.5 50 32.5 67.7 36.4 67.7 Z"
         id="path3270" />
    </g>
    <g
       id="Layer2_0_FILL">
      <path
         fill="#D7D7D7"
         stroke="none"
         d=" M 84.95 77.8 Q 83.7 50.5 84.95 23.15 84.95 17.3 79.1 17.3 L 21.9 17.3 Q 16.05 17.3 16.05 23.15 17.3 50.5 16.05 77.8 16.05 83.65 21.9 83.65 L 79.1 83.65 Q 84.95 83.65 84.95 77.8 M 55.4 26.45 L 71.55 26.45 Q 75.8 26.45 75.8 30.7 74.65 50.5 75.8 70.25 75.8 74.45 71.55 74.45 L 55.4 74.45 54.15 74.45 29.45 74.45 Q 25.2 74.45 25.2 70.25 26.35 50.5 25.2 30.7 25.2 26.45 29.45 26.45 L 54.15 26.45 55.4 26.45 Z"
         id="path3273" />
      <path
         fill="#F5F5F5"
         stroke="none"
         d=" M 71.55 26.45 L 55.4 26.45 54.15 26.45 29.45 26.45 Q 25.2 26.45 25.2 30.7 26.35 50.5 25.2 70.25 25.2 74.45 29.45 74.45 L 54.15 74.45 55.4 74.45 71.55 74.45 Q 75.8 74.45 75.8 70.25 74.65 50.5 75.8 30.7 75.8 26.45 71.55 26.45 M 36.4 50 L 36.4 67.7 32.5 67.7 32.5 50 36.4 50 M 39.5 67.7 L 39.5 55.55 43.1 55.55 43.1 57.2 43.15 57.2 Q 43.3 56.85 43.65 56.5 43.95 56.15 44.4 55.85 44.85 55.6 45.45 55.4 46 55.25 46.7 55.25 48.1 55.25 49 55.7 49.85 56.15 50.35 56.9 50.8 57.7 51 58.75 51.15 59.8 51.15 61 L 51.15 67.7 47.45 67.7 47.45 61.75 Q 47.45 61.2 47.4 60.65 47.35 60.1 47.15 59.6 47 59.15 46.6 58.85 46.2 58.55 45.45 58.55 44.75 58.55 44.3 58.8 43.85 59.05 43.6 59.5 43.35 59.95 43.3 60.5 43.25 61.05 43.25 61.65 L 43.25 67.7 39.5 67.7 M 61.85 61.05 Q 62.55 61.45 63 62.15 63.45 62.85 63.45 64 63.45 65.15 62.95 65.95 62.45 66.7 61.65 67.15 60.85 67.65 59.85 67.8 58.85 68 57.85 68 56.6 68 55.3 67.65 54 67.3 53.1 66.35 L 55.4 63.85 Q 55.9 64.5 56.55 64.8 57.2 65.15 58.05 65.15 58.7 65.15 59.2 65 59.75 64.8 59.75 64.3 59.75 63.8 59.25 63.55 58.8 63.35 58.1 63.15 57.4 63 56.55 62.8 55.75 62.65 55.05 62.25 54.35 61.9 53.85 61.2 53.4 60.5 53.4 59.35 53.4 58.3 53.85 57.5 54.3 56.75 55 56.25 55.7 55.7 56.65 55.5 57.55 55.25 58.5 55.25 59.7 55.25 60.9 55.6 62.15 55.95 63 56.85 L 60.7 59.1 Q 59.85 58.1 58.55 58.1 58.05 58.1 57.6 58.3 57.15 58.55 57.15 59.1 57.15 59.55 57.6 59.75 58.1 59.95 58.8 60.15 59.5 60.3 60.3 60.5 61.15 60.65 61.85 61.05 Z"
         id="path3275" />
      <path
         fill="#404040"
         stroke="none"
         d=" M 63 62.15 Q 62.55 61.45 61.85 61.05 61.15 60.65 60.3 60.5 59.5 60.3 58.8 60.15 58.1 59.95 57.6 59.75 57.15 59.55 57.15 59.1 57.15 58.55 57.6 58.3 58.05 58.1 58.55 58.1 59.85 58.1 60.7 59.1 L 63 56.85 Q 62.15 55.95 60.9 55.6 59.7 55.25 58.5 55.25 57.55 55.25 56.65 55.5 55.7 55.7 55 56.25 54.3 56.75 53.85 57.5 53.4 58.3 53.4 59.35 53.4 60.5 53.85 61.2 54.35 61.9 55.05 62.25 55.75 62.65 56.55 62.8 57.4 63 58.1 63.15 58.8 63.35 59.25 63.55 59.75 63.8 59.75 64.3 59.75 64.8 59.2 65 58.7 65.15 58.05 65.15 57.2 65.15 56.55 64.8 55.9 64.5 55.4 63.85 L 53.1 66.35 Q 54 67.3 55.3 67.65 56.6 68 57.85 68 58.85 68 59.85 67.8 60.85 67.65 61.65 67.15 62.45 66.7 62.95 65.95 63.45 65.15 63.45 64 63.45 62.85 63 62.15 M 39.5 55.55 L 39.5 67.7 43.25 67.7 43.25 61.65 Q 43.25 61.05 43.3 60.5 43.35 59.95 43.6 59.5 43.85 59.05 44.3 58.8 44.75 58.55 45.45 58.55 46.2 58.55 46.6 58.85 47 59.15 47.15 59.6 47.35 60.1 47.4 60.65 47.45 61.2 47.45 61.75 L 47.45 67.7 51.15 67.7 51.15 61 Q 51.15 59.8 51 58.75 50.8 57.7 50.35 56.9 49.85 56.15 49 55.7 48.1 55.25 46.7 55.25 46 55.25 45.45 55.4 44.85 55.6 44.4 55.85 43.95 56.15 43.65 56.5 43.3 56.85 43.15 57.2 L 43.1 57.2 43.1 55.55 39.5 55.55 M 36.4 67.7 L 36.4 50 32.5 50 32.5 67.7 36.4 67.7 Z"
         id="path3277" />
    </g>
    <path
       id="Layer3_0_1_STROKES"
       stroke="#1D1D1D"
       stroke-width="5"
       stroke-linejoin="round"
       stroke-linecap="round"
       fill="none"
       d=" M 84.95 23.15 Q 83.7 50.5 84.95 77.8 84.95 83.65 79.1 83.65 L 21.9 83.65 Q 16.05 83.65 16.05 77.8 17.3 50.5 16.05 23.15 16.05 17.3 21.9 17.3 L 79.1 17.3 Q 84.95 17.3 84.95 23.15 Z" />
    <path
       id="Layer3_0_2_STROKES"
       stroke="#696969"
       stroke-width="4"
       stroke-linejoin="round"
       stroke-linecap="round"
       fill="none"
       d=" M 54.15 26.45 L 29.45 26.45 Q 25.2 26.45 25.2 30.7 26.35 50.5 25.2 70.25 25.2 74.45 29.45 74.45 L 54.15 74.45 M 55.4 74.45 L 71.55 74.45 Q 75.8 74.45 75.8 70.25 74.65 50.5 75.8 30.7 75.8 26.45 71.55 26.45 L 55.4 26.45" />
    <path
       id="Layer2_0_1_STROKES"
       stroke="#404040"
       stroke-width="5"
       stroke-linejoin="round"
       stroke-linecap="round"
       fill="none"
       d=" M 84.95 23.15 Q 83.7 50.5 84.95 77.8 84.95 83.65 79.1 83.65 L 21.9 83.65 Q 16.05 83.65 16.05 77.8 17.3 50.5 16.05 23.15 16.05 17.3 21.9 17.3 L 79.1 17.3 Q 84.95 17.3 84.95 23.15 Z" />
    <path
       id="Layer2_0_2_STROKES"
       stroke="#FFFFFF"
       stroke-width="4"
       stroke-linejoin="round"
       stroke-linecap="round"
       fill="none"
       d=" M 55.4 74.45 L 71.55 74.45 Q 75.8 74.45 75.8 70.25 74.65 50.5 75.8 30.7 75.8 26.45 71.55 26.45 L 55.4 26.45 M 54.15 26.45 L 29.45 26.45 Q 25.2 26.45 25.2 30.7 26.35 50.5 25.2 70.25 25.2 74.45 29.45 74.45 L 54.15 74.45" />
  </defs>
  <g
     transform="matrix( 1, 0, 0, 1, 0,0) "
     id="g3292">
    <use
       xlink:href="#Layer3_0_FILL"
       id="use3286" />
    <use
       xlink:href="#Layer3_0_1_STROKES"
       id="use3288" />
    <use
       xlink:href="#Layer3_0_2_STROKES"
       id="use3290" />
  </g>
  <g
     id="g3300"
     style="display:none">
    <use
       xlink:href="#Layer2_0_FILL"
       id="use3294" />
    <use
       xlink:href="#Layer2_0_1_STROKES"
       id="use3296" />
    <use
       xlink:href="#Layer2_0_2_STROKES"
       id="use3298" />
  </g>
</svg>
