<?xml version="1.0" encoding="UTF-8" standalone="no"?>
<svg
   version="1.1"
   preserveAspectRatio="none"
   x="0px"
   y="0px"
   width="100px"
   height="100px"
   viewBox="0 0 100 100"
   id="svg3009"
   sodipodi:docname="Vector Source0061.svg"
   inkscape:version="1.2.1 (9c6d41e410, 2022-07-14)"
   xmlns:inkscape="http://www.inkscape.org/namespaces/inkscape"
   xmlns:sodipodi="http://sodipodi.sourceforge.net/DTD/sodipodi-0.dtd"
   xmlns:xlink="http://www.w3.org/1999/xlink"
   xmlns="http://www.w3.org/2000/svg"
   xmlns:svg="http://www.w3.org/2000/svg">
  <sodipodi:namedview
     id="namedview3011"
     pagecolor="#ffffff"
     bordercolor="#000000"
     borderopacity="0.25"
     inkscape:showpageshadow="2"
     inkscape:pageopacity="0.0"
     inkscape:pagecheckerboard="0"
     inkscape:deskcolor="#d1d1d1"
     showgrid="false"
     inkscape:zoom="10.27"
     inkscape:cx="42.55112"
     inkscape:cy="50"
     inkscape:window-width="2400"
     inkscape:window-height="1261"
     inkscape:window-x="5591"
     inkscape:window-y="431"
     inkscape:window-maximized="1"
     inkscape:current-layer="svg3009" />
  <defs
     id="defs2991">
    <g
       id="Layer3_0_FILL">
      <path
         fill="#353535"
         stroke="none"
         d=" M 84.95 77.8 Q 83.7 50.5 84.95 23.15 84.95 17.3 79.1 17.3 L 21.9 17.3 Q 16.05 17.3 16.05 23.15 17.3 50.5 16.05 77.8 16.05 83.65 21.9 83.65 L 79.1 83.65 Q 84.95 83.65 84.95 77.8 M 54.15 26.45 L 55.4 26.45 71.55 26.45 Q 75.8 26.45 75.8 30.7 74.65 50.5 75.8 70.25 75.8 74.45 71.55 74.45 L 55.4 74.45 54.15 74.45 29.45 74.45 Q 25.2 74.45 25.2 70.25 26.35 50.5 25.2 30.7 25.2 26.45 29.45 26.45 L 54.15 26.45 Z"
         id="path2973" />
      <path
         fill="#595959"
         stroke="none"
         d=" M 55.4 26.45 L 54.15 26.45 29.45 26.45 Q 25.2 26.45 25.2 30.7 26.35 50.5 25.2 70.25 25.2 74.45 29.45 74.45 L 54.15 74.45 55.4 74.45 71.55 74.45 Q 75.8 74.45 75.8 70.25 74.65 50.5 75.8 30.7 75.8 26.45 71.55 26.45 L 55.4 26.45 M 36.05 59.75 L 36.05 63.35 44.6 63.35 44.6 66.95 32.15 66.95 32.15 49.25 44.2 49.25 44.2 52.85 36.05 52.85 36.05 56.15 43.75 56.15 43.75 59.75 36.05 59.75 M 63.05 58.65 Q 62.25 59.5 62.25 60.9 62.25 62.25 63.05 63.1 63.8 63.95 65.25 63.95 65.9 63.95 66.35 63.7 66.8 63.4 67.1 63.05 L 69.55 65.65 Q 68.7 66.55 67.5 66.9 66.35 67.25 65.25 67.25 63.85 67.25 62.6 66.8 61.35 66.35 60.45 65.5 59.55 64.7 59.05 63.5 58.5 62.3 58.5 60.9 58.5 59.45 59.05 58.25 59.55 57.05 60.45 56.25 61.35 55.4 62.6 54.95 63.85 54.5 65.25 54.5 66.35 54.5 67.5 54.85 68.7 55.2 69.55 56.1 L 67.1 58.7 Q 66.85 58.3 66.35 58.05 65.85 57.8 65.25 57.8 63.8 57.8 63.05 58.65 M 51.95 54.5 Q 53.15 54.5 54.35 54.85 55.6 55.2 56.45 56.1 L 54.15 58.35 Q 53.3 57.35 52 57.35 51.5 57.35 51.05 57.55 50.6 57.8 50.6 58.35 50.6 58.8 51.05 59 51.55 59.2 52.25 59.4 52.95 59.55 53.75 59.75 54.6 59.9 55.3 60.3 56 60.7 56.45 61.4 56.9 62.1 56.9 63.25 56.9 64.4 56.4 65.2 55.9 65.95 55.1 66.4 54.3 66.9 53.3 67.05 52.3 67.25 51.3 67.25 50.05 67.25 48.75 66.9 47.45 66.55 46.55 65.6 L 48.85 63.1 Q 49.35 63.75 50 64.05 50.65 64.4 51.5 64.4 52.15 64.4 52.65 64.25 53.2 64.05 53.2 63.55 53.2 63.05 52.7 62.8 52.25 62.6 51.55 62.4 50.85 62.25 50 62.05 49.2 61.9 48.5 61.5 47.8 61.15 47.3 60.45 46.85 59.75 46.85 58.6 46.85 57.55 47.3 56.75 47.75 56 48.45 55.5 49.15 54.95 50.1 54.75 51 54.5 51.95 54.5 Z"
         id="path2975" />
      <path
         fill="#CDCDCD"
         stroke="none"
         d=" M 54.35 54.85 Q 53.15 54.5 51.95 54.5 51 54.5 50.1 54.75 49.15 54.95 48.45 55.5 47.75 56 47.3 56.75 46.85 57.55 46.85 58.6 46.85 59.75 47.3 60.45 47.8 61.15 48.5 61.5 49.2 61.9 50 62.05 50.85 62.25 51.55 62.4 52.25 62.6 52.7 62.8 53.2 63.05 53.2 63.55 53.2 64.05 52.65 64.25 52.15 64.4 51.5 64.4 50.65 64.4 50 64.05 49.35 63.75 48.85 63.1 L 46.55 65.6 Q 47.45 66.55 48.75 66.9 50.05 67.25 51.3 67.25 52.3 67.25 53.3 67.05 54.3 66.9 55.1 66.4 55.9 65.95 56.4 65.2 56.9 64.4 56.9 63.25 56.9 62.1 56.45 61.4 56 60.7 55.3 60.3 54.6 59.9 53.75 59.75 52.95 59.55 52.25 59.4 51.55 59.2 51.05 59 50.6 58.8 50.6 58.35 50.6 57.8 51.05 57.55 51.5 57.35 52 57.35 53.3 57.35 54.15 58.35 L 56.45 56.1 Q 55.6 55.2 54.35 54.85 M 62.25 60.9 Q 62.25 59.5 63.05 58.65 63.8 57.8 65.25 57.8 65.85 57.8 66.35 58.05 66.85 58.3 67.1 58.7 L 69.55 56.1 Q 68.7 55.2 67.5 54.85 66.35 54.5 65.25 54.5 63.85 54.5 62.6 54.95 61.35 55.4 60.45 56.25 59.55 57.05 59.05 58.25 58.5 59.45 58.5 60.9 58.5 62.3 59.05 63.5 59.55 64.7 60.45 65.5 61.35 66.35 62.6 66.8 63.85 67.25 65.25 67.25 66.35 67.25 67.5 66.9 68.7 66.55 69.55 65.65 L 67.1 63.05 Q 66.8 63.4 66.35 63.7 65.9 63.95 65.25 63.95 63.8 63.95 63.05 63.1 62.25 62.25 62.25 60.9 M 36.05 63.35 L 36.05 59.75 43.75 59.75 43.75 56.15 36.05 56.15 36.05 52.85 44.2 52.85 44.2 49.25 32.15 49.25 32.15 66.95 44.6 66.95 44.6 63.35 36.05 63.35 Z"
         id="path2977" />
    </g>
    <g
       id="Layer2_0_FILL">
      <path
         fill="#D7D7D7"
         stroke="none"
         d=" M 84.95 77.8 Q 83.7 50.5 84.95 23.15 84.95 17.3 79.1 17.3 L 21.9 17.3 Q 16.05 17.3 16.05 23.15 17.3 50.5 16.05 77.8 16.05 83.65 21.9 83.65 L 79.1 83.65 Q 84.95 83.65 84.95 77.8 M 55.4 26.45 L 71.55 26.45 Q 75.8 26.45 75.8 30.7 74.65 50.5 75.8 70.25 75.8 74.45 71.55 74.45 L 55.4 74.45 54.15 74.45 29.45 74.45 Q 25.2 74.45 25.2 70.25 26.35 50.5 25.2 30.7 25.2 26.45 29.45 26.45 L 54.15 26.45 55.4 26.45 Z"
         id="path2980" />
      <path
         fill="#F5F5F5"
         stroke="none"
         d=" M 71.55 26.45 L 55.4 26.45 54.15 26.45 29.45 26.45 Q 25.2 26.45 25.2 30.7 26.35 50.5 25.2 70.25 25.2 74.45 29.45 74.45 L 54.15 74.45 55.4 74.45 71.55 74.45 Q 75.8 74.45 75.8 70.25 74.65 50.5 75.8 30.7 75.8 26.45 71.55 26.45 M 36.05 59.75 L 36.05 63.35 44.6 63.35 44.6 66.95 32.15 66.95 32.15 49.25 44.2 49.25 44.2 52.85 36.05 52.85 36.05 56.15 43.75 56.15 43.75 59.75 36.05 59.75 M 63.05 58.65 Q 62.25 59.5 62.25 60.9 62.25 62.25 63.05 63.1 63.8 63.95 65.25 63.95 65.9 63.95 66.35 63.7 66.8 63.4 67.1 63.05 L 69.55 65.65 Q 68.7 66.55 67.5 66.9 66.35 67.25 65.25 67.25 63.85 67.25 62.6 66.8 61.35 66.35 60.45 65.5 59.55 64.7 59.05 63.5 58.5 62.3 58.5 60.9 58.5 59.45 59.05 58.25 59.55 57.05 60.45 56.25 61.35 55.4 62.6 54.95 63.85 54.5 65.25 54.5 66.35 54.5 67.5 54.85 68.7 55.2 69.55 56.1 L 67.1 58.7 Q 66.85 58.3 66.35 58.05 65.85 57.8 65.25 57.8 63.8 57.8 63.05 58.65 M 51.95 54.5 Q 53.15 54.5 54.35 54.85 55.6 55.2 56.45 56.1 L 54.15 58.35 Q 53.3 57.35 52 57.35 51.5 57.35 51.05 57.55 50.6 57.8 50.6 58.35 50.6 58.8 51.05 59 51.55 59.2 52.25 59.4 52.95 59.55 53.75 59.75 54.6 59.9 55.3 60.3 56 60.7 56.45 61.4 56.9 62.1 56.9 63.25 56.9 64.4 56.4 65.2 55.9 65.95 55.1 66.4 54.3 66.9 53.3 67.05 52.3 67.25 51.3 67.25 50.05 67.25 48.75 66.9 47.45 66.55 46.55 65.6 L 48.85 63.1 Q 49.35 63.75 50 64.05 50.65 64.4 51.5 64.4 52.15 64.4 52.65 64.25 53.2 64.05 53.2 63.55 53.2 63.05 52.7 62.8 52.25 62.6 51.55 62.4 50.85 62.25 50 62.05 49.2 61.9 48.5 61.5 47.8 61.15 47.3 60.45 46.85 59.75 46.85 58.6 46.85 57.55 47.3 56.75 47.75 56 48.45 55.5 49.15 54.95 50.1 54.75 51 54.5 51.95 54.5 Z"
         id="path2982" />
      <path
         fill="#404040"
         stroke="none"
         d=" M 54.35 54.85 Q 53.15 54.5 51.95 54.5 51 54.5 50.1 54.75 49.15 54.95 48.45 55.5 47.75 56 47.3 56.75 46.85 57.55 46.85 58.6 46.85 59.75 47.3 60.45 47.8 61.15 48.5 61.5 49.2 61.9 50 62.05 50.85 62.25 51.55 62.4 52.25 62.6 52.7 62.8 53.2 63.05 53.2 63.55 53.2 64.05 52.65 64.25 52.15 64.4 51.5 64.4 50.65 64.4 50 64.05 49.35 63.75 48.85 63.1 L 46.55 65.6 Q 47.45 66.55 48.75 66.9 50.05 67.25 51.3 67.25 52.3 67.25 53.3 67.05 54.3 66.9 55.1 66.4 55.9 65.95 56.4 65.2 56.9 64.4 56.9 63.25 56.9 62.1 56.45 61.4 56 60.7 55.3 60.3 54.6 59.9 53.75 59.75 52.95 59.55 52.25 59.4 51.55 59.2 51.05 59 50.6 58.8 50.6 58.35 50.6 57.8 51.05 57.55 51.5 57.35 52 57.35 53.3 57.35 54.15 58.35 L 56.45 56.1 Q 55.6 55.2 54.35 54.85 M 62.25 60.9 Q 62.25 59.5 63.05 58.65 63.8 57.8 65.25 57.8 65.85 57.8 66.35 58.05 66.85 58.3 67.1 58.7 L 69.55 56.1 Q 68.7 55.2 67.5 54.85 66.35 54.5 65.25 54.5 63.85 54.5 62.6 54.95 61.35 55.4 60.45 56.25 59.55 57.05 59.05 58.25 58.5 59.45 58.5 60.9 58.5 62.3 59.05 63.5 59.55 64.7 60.45 65.5 61.35 66.35 62.6 66.8 63.85 67.25 65.25 67.25 66.35 67.25 67.5 66.9 68.7 66.55 69.55 65.65 L 67.1 63.05 Q 66.8 63.4 66.35 63.7 65.9 63.95 65.25 63.95 63.8 63.95 63.05 63.1 62.25 62.25 62.25 60.9 M 36.05 63.35 L 36.05 59.75 43.75 59.75 43.75 56.15 36.05 56.15 36.05 52.85 44.2 52.85 44.2 49.25 32.15 49.25 32.15 66.95 44.6 66.95 44.6 63.35 36.05 63.35 Z"
         id="path2984" />
    </g>
    <path
       id="Layer3_0_1_STROKES"
       stroke="#1D1D1D"
       stroke-width="5"
       stroke-linejoin="round"
       stroke-linecap="round"
       fill="none"
       d=" M 84.95 23.15 Q 83.7 50.5 84.95 77.8 84.95 83.65 79.1 83.65 L 21.9 83.65 Q 16.05 83.65 16.05 77.8 17.3 50.5 16.05 23.15 16.05 17.3 21.9 17.3 L 79.1 17.3 Q 84.95 17.3 84.95 23.15 Z" />
    <path
       id="Layer3_0_2_STROKES"
       stroke="#696969"
       stroke-width="4"
       stroke-linejoin="round"
       stroke-linecap="round"
       fill="none"
       d=" M 54.15 26.45 L 29.45 26.45 Q 25.2 26.45 25.2 30.7 26.35 50.5 25.2 70.25 25.2 74.45 29.45 74.45 L 54.15 74.45 M 55.4 74.45 L 71.55 74.45 Q 75.8 74.45 75.8 70.25 74.65 50.5 75.8 30.7 75.8 26.45 71.55 26.45 L 55.4 26.45" />
    <path
       id="Layer2_0_1_STROKES"
       stroke="#404040"
       stroke-width="5"
       stroke-linejoin="round"
       stroke-linecap="round"
       fill="none"
       d=" M 84.95 23.15 Q 83.7 50.5 84.95 77.8 84.95 83.65 79.1 83.65 L 21.9 83.65 Q 16.05 83.65 16.05 77.8 17.3 50.5 16.05 23.15 16.05 17.3 21.9 17.3 L 79.1 17.3 Q 84.95 17.3 84.95 23.15 Z" />
    <path
       id="Layer2_0_2_STROKES"
       stroke="#FFFFFF"
       stroke-width="4"
       stroke-linejoin="round"
       stroke-linecap="round"
       fill="none"
       d=" M 55.4 74.45 L 71.55 74.45 Q 75.8 74.45 75.8 70.25 74.65 50.5 75.8 30.7 75.8 26.45 71.55 26.45 L 55.4 26.45 M 54.15 26.45 L 29.45 26.45 Q 25.2 26.45 25.2 30.7 26.35 50.5 25.2 70.25 25.2 74.45 29.45 74.45 L 54.15 74.45" />
  </defs>
  <g
     transform="matrix( 1, 0, 0, 1, 0,0) "
     id="g2999">
    <use
       xlink:href="#Layer3_0_FILL"
       id="use2993" />
    <use
       xlink:href="#Layer3_0_1_STROKES"
       id="use2995" />
    <use
       xlink:href="#Layer3_0_2_STROKES"
       id="use2997" />
  </g>
  <g
     id="g3007"
     style="display:none">
    <use
       xlink:href="#Layer2_0_FILL"
       id="use3001" />
    <use
       xlink:href="#Layer2_0_1_STROKES"
       id="use3003" />
    <use
       xlink:href="#Layer2_0_2_STROKES"
       id="use3005" />
  </g>
</svg>
