<?xml version="1.0" encoding="UTF-8" standalone="no"?>
<svg
   version="1.1"
   preserveAspectRatio="none"
   x="0px"
   y="0px"
   width="100px"
   height="100px"
   viewBox="0 0 100 100"
   id="svg38"
   sodipodi:docname="Vector Source0072.svg"
   inkscape:version="1.2.1 (9c6d41e410, 2022-07-14)"
   xmlns:inkscape="http://www.inkscape.org/namespaces/inkscape"
   xmlns:sodipodi="http://sodipodi.sourceforge.net/DTD/sodipodi-0.dtd"
   xmlns:xlink="http://www.w3.org/1999/xlink"
   xmlns="http://www.w3.org/2000/svg"
   xmlns:svg="http://www.w3.org/2000/svg">
  <sodipodi:namedview
     id="namedview40"
     pagecolor="#ffffff"
     bordercolor="#000000"
     borderopacity="0.25"
     inkscape:showpageshadow="2"
     inkscape:pageopacity="0.0"
     inkscape:pagecheckerboard="0"
     inkscape:deskcolor="#d1d1d1"
     showgrid="false"
     inkscape:zoom="10.27"
     inkscape:cx="42.55112"
     inkscape:cy="50"
     inkscape:window-width="2400"
     inkscape:window-height="1261"
     inkscape:window-x="5591"
     inkscape:window-y="431"
     inkscape:window-maximized="1"
     inkscape:current-layer="svg38" />
  <defs
     id="defs20">
    <g
       id="Layer3_0_FILL">
      <path
         fill="#353535"
         stroke="none"
         d=" M 95.4 32.7 Q 95.4 28.9 91.6 28.9 L 9.35 28.9 Q 5.6 28.9 5.6 32.7 6.35 50.45 5.6 68.15 5.6 71.95 9.35 71.95 L 91.6 71.95 Q 95.4 71.95 95.4 68.15 94.55 50.45 95.4 32.7 M 86.7 34.9 Q 89.4 34.9 89.4 37.6 88.7 50.45 89.4 63.25 89.4 66 86.7 66 L 76.2 66 75.4 66 14.25 66 Q 11.5 66 11.5 63.25 12.25 50.45 11.5 37.6 11.5 34.9 14.25 34.9 L 75.4 34.9 76.2 34.9 86.7 34.9 Z"
         id="path2" />
      <path
         fill="#595959"
         stroke="none"
         d=" M 89.4 37.6 Q 89.4 34.9 86.7 34.9 L 76.2 34.9 75.4 34.9 14.25 34.9 Q 11.5 34.9 11.5 37.6 12.25 50.45 11.5 63.25 11.5 66 14.25 66 L 75.4 66 76.2 66 86.7 66 Q 89.4 66 89.4 63.25 88.7 50.45 89.4 37.6 M 51.85 49.1 Q 51.1 49.1 50.5 49.4 49.9 49.7 49.4 50.25 L 47.8 48.6 Q 48.65 47.8 49.75 47.45 50.9 47.05 52.1 47.05 53.4 47.05 54.25 47.35 55.1 47.7 55.6 48.35 56.1 49 56.3 49.9 56.5 50.85 56.5 52.05 L 56.5 57 53.75 57 53.75 55.8 53.7 55.8 Q 53.2 56.55 52.4 56.9 51.55 57.25 50.65 57.25 49.95 57.25 49.3 57.05 48.7 56.85 48.2 56.5 47.75 56.1 47.45 55.55 47.2 55 47.2 54.25 47.2 53.4 47.5 52.8 47.8 52.25 48.35 51.85 48.85 51.5 49.55 51.25 50.2 51.05 50.95 50.95 51.7 50.85 52.4 50.85 53.15 50.8 53.75 50.8 53.75 50 53.2 49.55 52.6 49.1 51.85 49.1 M 43.05 47.4 Q 43.95 47.8 44.6 48.45 45.2 49.1 45.55 50.05 45.9 50.95 45.9 52.05 45.9 53.1 45.6 54 45.3 54.95 44.7 55.65 44.15 56.4 43.3 56.8 42.5 57.25 41.45 57.25 40.5 57.25 39.7 56.95 38.9 56.65 38.4 55.95 L 38.35 55.95 38.35 61.55 35.35 61.55 35.35 47.3 38.1 47.3 38.1 48.55 38.15 48.55 Q 38.3 48.3 38.6 48.05 38.9 47.75 39.3 47.55 39.65 47.3 40.15 47.2 40.6 47.05 41.1 47.05 42.2 47.05 43.05 47.4 M 65.3 47.35 Q 66.25 47.6 66.95 48.35 L 65 50.4 Q 64.75 50.1 64.35 49.9 63.95 49.7 63.5 49.7 62.35 49.7 61.75 50.35 61.1 51.05 61.1 52.15 61.1 53.25 61.75 53.9 62.35 54.6 63.5 54.6 64 54.6 64.35 54.4 64.75 54.15 65 53.85 L 66.95 55.95 Q 66.25 56.65 65.3 56.95 64.35 57.25 63.5 57.25 62.4 57.25 61.4 56.9 60.4 56.5 59.7 55.85 58.95 55.2 58.55 54.25 58.1 53.3 58.1 52.15 58.1 51 58.55 50.05 58.95 49.1 59.7 48.45 60.4 47.75 61.4 47.4 62.4 47.05 63.5 47.05 64.35 47.05 65.3 47.35 M 71.05 47.4 Q 72.05 47.05 73.15 47.05 74.2 47.05 75.05 47.4 75.9 47.75 76.5 48.45 77.1 49.1 77.4 50.05 77.7 51 77.7 52.15 L 77.7 53.1 70.75 53.1 Q 70.95 53.95 71.55 54.45 72.15 54.95 73 54.95 73.75 54.95 74.25 54.65 74.8 54.3 75.15 53.8 L 77.25 55.35 Q 76.55 56.25 75.45 56.75 74.35 57.25 73.15 57.25 72.05 57.25 71.05 56.9 70.05 56.5 69.35 55.85 68.6 55.2 68.2 54.25 67.75 53.3 67.75 52.15 67.75 51 68.2 50.05 68.6 49.1 69.35 48.45 70.05 47.75 71.05 47.4 M 26.7 42.75 Q 27.7 42.5 28.75 42.5 29.95 42.5 31.05 42.8 32.2 43.15 33.1 43.95 L 30.95 46.3 Q 30.55 45.8 29.9 45.6 29.25 45.35 28.7 45.35 28.35 45.35 28 45.45 27.65 45.5 27.3 45.7 27 45.85 26.8 46.15 26.6 46.4 26.6 46.8 26.6 47.45 27.05 47.8 27.55 48.15 28.25 48.4 29 48.6 29.85 48.85 30.7 49.1 31.4 49.55 32.15 50 32.65 50.7 33.1 51.45 33.1 52.7 33.1 53.9 32.65 54.75 32.25 55.65 31.45 56.2 30.75 56.8 29.75 57.1 28.75 57.35 27.65 57.35 26.25 57.35 25.1 56.95 23.9 56.5 22.9 55.6 L 25.1 53.15 Q 25.6 53.8 26.3 54.15 27.05 54.5 27.85 54.5 28.2 54.5 28.6 54.4 29 54.3 29.3 54.1 29.6 53.95 29.8 53.65 30 53.4 30 53 30 52.35 29.5 52 29 51.6 28.25 51.35 27.55 51.1 26.65 50.85 25.8 50.6 25.05 50.15 24.35 49.7 23.85 49 23.35 48.25 23.35 47.1 23.35 45.95 23.8 45.1 24.25 44.2 25 43.65 25.75 43.05 26.7 42.75 M 72.9 49.2 Q 72.4 49.2 72 49.35 71.6 49.5 71.35 49.75 71.1 50 70.95 50.35 70.8 50.7 70.75 51.05 L 74.7 51.05 Q 74.75 50.3 74.2 49.75 73.7 49.2 72.9 49.2 M 38.1 52.15 Q 38.1 53.25 38.75 53.9 39.35 54.6 40.5 54.6 41.65 54.6 42.25 53.9 42.9 53.25 42.9 52.15 42.9 51.05 42.25 50.35 41.65 49.7 40.5 49.7 39.35 49.7 38.75 50.35 38.1 51.05 38.1 52.15 M 52.35 55.1 Q 52.75 54.95 53.05 54.75 53.4 54.5 53.55 54.2 53.75 53.85 53.75 53.4 L 53.75 52.75 53 52.75 Q 52.65 52.75 52.15 52.75 51.65 52.8 51.2 52.95 50.7 53.1 50.4 53.35 50.05 53.65 50.05 54.15 50.05 54.7 50.5 54.95 51 55.2 51.45 55.2 51.9 55.2 52.35 55.1 Z"
         id="path4" />
      <path
         fill="#CDCDCD"
         stroke="none"
         d=" M 28.75 42.5 Q 27.7 42.5 26.7 42.75 25.75 43.05 25 43.65 24.25 44.2 23.8 45.1 23.35 45.95 23.35 47.1 23.35 48.25 23.85 49 24.35 49.7 25.05 50.15 25.8 50.6 26.65 50.85 27.55 51.1 28.25 51.35 29 51.6 29.5 52 30 52.35 30 53 30 53.4 29.8 53.65 29.6 53.95 29.3 54.1 29 54.3 28.6 54.4 28.2 54.5 27.85 54.5 27.05 54.5 26.3 54.15 25.6 53.8 25.1 53.15 L 22.9 55.6 Q 23.9 56.5 25.1 56.95 26.25 57.35 27.65 57.35 28.75 57.35 29.75 57.1 30.75 56.8 31.45 56.2 32.25 55.65 32.65 54.75 33.1 53.9 33.1 52.7 33.1 51.45 32.65 50.7 32.15 50 31.4 49.55 30.7 49.1 29.85 48.85 29 48.6 28.25 48.4 27.55 48.15 27.05 47.8 26.6 47.45 26.6 46.8 26.6 46.4 26.8 46.15 27 45.85 27.3 45.7 27.65 45.5 28 45.45 28.35 45.35 28.7 45.35 29.25 45.35 29.9 45.6 30.55 45.8 30.95 46.3 L 33.1 43.95 Q 32.2 43.15 31.05 42.8 29.95 42.5 28.75 42.5 M 73.15 47.05 Q 72.05 47.05 71.05 47.4 70.05 47.75 69.35 48.45 68.6 49.1 68.2 50.05 67.75 51 67.75 52.15 67.75 53.3 68.2 54.25 68.6 55.2 69.35 55.85 70.05 56.5 71.05 56.9 72.05 57.25 73.15 57.25 74.35 57.25 75.45 56.75 76.55 56.25 77.25 55.35 L 75.15 53.8 Q 74.8 54.3 74.25 54.65 73.75 54.95 73 54.95 72.15 54.95 71.55 54.45 70.95 53.95 70.75 53.1 L 77.7 53.1 77.7 52.15 Q 77.7 51 77.4 50.05 77.1 49.1 76.5 48.45 75.9 47.75 75.05 47.4 74.2 47.05 73.15 47.05 M 72 49.35 Q 72.4 49.2 72.9 49.2 73.7 49.2 74.2 49.75 74.75 50.3 74.7 51.05 L 70.75 51.05 Q 70.8 50.7 70.95 50.35 71.1 50 71.35 49.75 71.6 49.5 72 49.35 M 66.95 48.35 Q 66.25 47.6 65.3 47.35 64.35 47.05 63.5 47.05 62.4 47.05 61.4 47.4 60.4 47.75 59.7 48.45 58.95 49.1 58.55 50.05 58.1 51 58.1 52.15 58.1 53.3 58.55 54.25 58.95 55.2 59.7 55.85 60.4 56.5 61.4 56.9 62.4 57.25 63.5 57.25 64.35 57.25 65.3 56.95 66.25 56.65 66.95 55.95 L 65 53.85 Q 64.75 54.15 64.35 54.4 64 54.6 63.5 54.6 62.35 54.6 61.75 53.9 61.1 53.25 61.1 52.15 61.1 51.05 61.75 50.35 62.35 49.7 63.5 49.7 63.95 49.7 64.35 49.9 64.75 50.1 65 50.4 L 66.95 48.35 M 44.6 48.45 Q 43.95 47.8 43.05 47.4 42.2 47.05 41.1 47.05 40.6 47.05 40.15 47.2 39.65 47.3 39.3 47.55 38.9 47.75 38.6 48.05 38.3 48.3 38.15 48.55 L 38.1 48.55 38.1 47.3 35.35 47.3 35.35 61.55 38.35 61.55 38.35 55.95 38.4 55.95 Q 38.9 56.65 39.7 56.95 40.5 57.25 41.45 57.25 42.5 57.25 43.3 56.8 44.15 56.4 44.7 55.65 45.3 54.95 45.6 54 45.9 53.1 45.9 52.05 45.9 50.95 45.55 50.05 45.2 49.1 44.6 48.45 M 38.75 53.9 Q 38.1 53.25 38.1 52.15 38.1 51.05 38.75 50.35 39.35 49.7 40.5 49.7 41.65 49.7 42.25 50.35 42.9 51.05 42.9 52.15 42.9 53.25 42.25 53.9 41.65 54.6 40.5 54.6 39.35 54.6 38.75 53.9 M 50.5 49.4 Q 51.1 49.1 51.85 49.1 52.6 49.1 53.2 49.55 53.75 50 53.75 50.8 53.15 50.8 52.4 50.85 51.7 50.85 50.95 50.95 50.2 51.05 49.55 51.25 48.85 51.5 48.35 51.85 47.8 52.25 47.5 52.8 47.2 53.4 47.2 54.25 47.2 55 47.45 55.55 47.75 56.1 48.2 56.5 48.7 56.85 49.3 57.05 49.95 57.25 50.65 57.25 51.55 57.25 52.4 56.9 53.2 56.55 53.7 55.8 L 53.75 55.8 53.75 57 56.5 57 56.5 52.05 Q 56.5 50.85 56.3 49.9 56.1 49 55.6 48.35 55.1 47.7 54.25 47.35 53.4 47.05 52.1 47.05 50.9 47.05 49.75 47.45 48.65 47.8 47.8 48.6 L 49.4 50.25 Q 49.9 49.7 50.5 49.4 M 53.05 54.75 Q 52.75 54.95 52.35 55.1 51.9 55.2 51.45 55.2 51 55.2 50.5 54.95 50.05 54.7 50.05 54.15 50.05 53.65 50.4 53.35 50.7 53.1 51.2 52.95 51.65 52.8 52.15 52.75 52.65 52.75 53 52.75 L 53.75 52.75 53.75 53.4 Q 53.75 53.85 53.55 54.2 53.4 54.5 53.05 54.75 Z"
         id="path6" />
    </g>
    <g
       id="Layer2_0_FILL">
      <path
         fill="#D7D7D7"
         stroke="none"
         d=" M 95.4 32.7 Q 95.4 28.9 91.6 28.9 L 9.35 28.9 Q 5.6 28.9 5.6 32.7 6.35 50.45 5.6 68.15 5.6 71.95 9.35 71.95 L 91.6 71.95 Q 95.4 71.95 95.4 68.15 94.55 50.45 95.4 32.7 M 86.7 34.9 Q 89.4 34.9 89.4 37.6 88.7 50.45 89.4 63.25 89.4 66 86.7 66 L 76.2 66 75.4 66 14.25 66 Q 11.5 66 11.5 63.25 12.25 50.45 11.5 37.6 11.5 34.9 14.25 34.9 L 75.4 34.9 76.2 34.9 86.7 34.9 Z"
         id="path9" />
      <path
         fill="#F5F5F5"
         stroke="none"
         d=" M 89.4 37.6 Q 89.4 34.9 86.7 34.9 L 76.2 34.9 75.4 34.9 14.25 34.9 Q 11.5 34.9 11.5 37.6 12.25 50.45 11.5 63.25 11.5 66 14.25 66 L 75.4 66 76.2 66 86.7 66 Q 89.4 66 89.4 63.25 88.7 50.45 89.4 37.6 M 51.85 49.1 Q 51.1 49.1 50.5 49.4 49.9 49.7 49.4 50.25 L 47.8 48.6 Q 48.65 47.8 49.75 47.45 50.9 47.05 52.1 47.05 53.4 47.05 54.25 47.35 55.1 47.7 55.6 48.35 56.1 49 56.3 49.9 56.5 50.85 56.5 52.05 L 56.5 57 53.75 57 53.75 55.8 53.7 55.8 Q 53.2 56.55 52.4 56.9 51.55 57.25 50.65 57.25 49.95 57.25 49.3 57.05 48.7 56.85 48.2 56.5 47.75 56.1 47.45 55.55 47.2 55 47.2 54.25 47.2 53.4 47.5 52.8 47.8 52.25 48.35 51.85 48.85 51.5 49.55 51.25 50.2 51.05 50.95 50.95 51.7 50.85 52.4 50.85 53.15 50.8 53.75 50.8 53.75 50 53.2 49.55 52.6 49.1 51.85 49.1 M 43.05 47.4 Q 43.95 47.8 44.6 48.45 45.2 49.1 45.55 50.05 45.9 50.95 45.9 52.05 45.9 53.1 45.6 54 45.3 54.95 44.7 55.65 44.15 56.4 43.3 56.8 42.5 57.25 41.45 57.25 40.5 57.25 39.7 56.95 38.9 56.65 38.4 55.95 L 38.35 55.95 38.35 61.55 35.35 61.55 35.35 47.3 38.1 47.3 38.1 48.55 38.15 48.55 Q 38.3 48.3 38.6 48.05 38.9 47.75 39.3 47.55 39.65 47.3 40.15 47.2 40.6 47.05 41.1 47.05 42.2 47.05 43.05 47.4 M 65.3 47.35 Q 66.25 47.6 66.95 48.35 L 65 50.4 Q 64.75 50.1 64.35 49.9 63.95 49.7 63.5 49.7 62.35 49.7 61.75 50.35 61.1 51.05 61.1 52.15 61.1 53.25 61.75 53.9 62.35 54.6 63.5 54.6 64 54.6 64.35 54.4 64.75 54.15 65 53.85 L 66.95 55.95 Q 66.25 56.65 65.3 56.95 64.35 57.25 63.5 57.25 62.4 57.25 61.4 56.9 60.4 56.5 59.7 55.85 58.95 55.2 58.55 54.25 58.1 53.3 58.1 52.15 58.1 51 58.55 50.05 58.95 49.1 59.7 48.45 60.4 47.75 61.4 47.4 62.4 47.05 63.5 47.05 64.35 47.05 65.3 47.35 M 71.05 47.4 Q 72.05 47.05 73.15 47.05 74.2 47.05 75.05 47.4 75.9 47.75 76.5 48.45 77.1 49.1 77.4 50.05 77.7 51 77.7 52.15 L 77.7 53.1 70.75 53.1 Q 70.95 53.95 71.55 54.45 72.15 54.95 73 54.95 73.75 54.95 74.25 54.65 74.8 54.3 75.15 53.8 L 77.25 55.35 Q 76.55 56.25 75.45 56.75 74.35 57.25 73.15 57.25 72.05 57.25 71.05 56.9 70.05 56.5 69.35 55.85 68.6 55.2 68.2 54.25 67.75 53.3 67.75 52.15 67.75 51 68.2 50.05 68.6 49.1 69.35 48.45 70.05 47.75 71.05 47.4 M 26.7 42.75 Q 27.7 42.5 28.75 42.5 29.95 42.5 31.05 42.8 32.2 43.15 33.1 43.95 L 30.95 46.3 Q 30.55 45.8 29.9 45.6 29.25 45.35 28.7 45.35 28.35 45.35 28 45.45 27.65 45.5 27.3 45.7 27 45.85 26.8 46.15 26.6 46.4 26.6 46.8 26.6 47.45 27.05 47.8 27.55 48.15 28.25 48.4 29 48.6 29.85 48.85 30.7 49.1 31.4 49.55 32.15 50 32.65 50.7 33.1 51.45 33.1 52.7 33.1 53.9 32.65 54.75 32.25 55.65 31.45 56.2 30.75 56.8 29.75 57.1 28.75 57.35 27.65 57.35 26.25 57.35 25.1 56.95 23.9 56.5 22.9 55.6 L 25.1 53.15 Q 25.6 53.8 26.3 54.15 27.05 54.5 27.85 54.5 28.2 54.5 28.6 54.4 29 54.3 29.3 54.1 29.6 53.95 29.8 53.65 30 53.4 30 53 30 52.35 29.5 52 29 51.6 28.25 51.35 27.55 51.1 26.65 50.85 25.8 50.6 25.05 50.15 24.35 49.7 23.85 49 23.35 48.25 23.35 47.1 23.35 45.95 23.8 45.1 24.25 44.2 25 43.65 25.75 43.05 26.7 42.75 M 72.9 49.2 Q 72.4 49.2 72 49.35 71.6 49.5 71.35 49.75 71.1 50 70.95 50.35 70.8 50.7 70.75 51.05 L 74.7 51.05 Q 74.75 50.3 74.2 49.75 73.7 49.2 72.9 49.2 M 38.1 52.15 Q 38.1 53.25 38.75 53.9 39.35 54.6 40.5 54.6 41.65 54.6 42.25 53.9 42.9 53.25 42.9 52.15 42.9 51.05 42.25 50.35 41.65 49.7 40.5 49.7 39.35 49.7 38.75 50.35 38.1 51.05 38.1 52.15 M 52.35 55.1 Q 52.75 54.95 53.05 54.75 53.4 54.5 53.55 54.2 53.75 53.85 53.75 53.4 L 53.75 52.75 53 52.75 Q 52.65 52.75 52.15 52.75 51.65 52.8 51.2 52.95 50.7 53.1 50.4 53.35 50.05 53.65 50.05 54.15 50.05 54.7 50.5 54.95 51 55.2 51.45 55.2 51.9 55.2 52.35 55.1 Z"
         id="path11" />
      <path
         fill="#404040"
         stroke="none"
         d=" M 28.75 42.5 Q 27.7 42.5 26.7 42.75 25.75 43.05 25 43.65 24.25 44.2 23.8 45.1 23.35 45.95 23.35 47.1 23.35 48.25 23.85 49 24.35 49.7 25.05 50.15 25.8 50.6 26.65 50.85 27.55 51.1 28.25 51.35 29 51.6 29.5 52 30 52.35 30 53 30 53.4 29.8 53.65 29.6 53.95 29.3 54.1 29 54.3 28.6 54.4 28.2 54.5 27.85 54.5 27.05 54.5 26.3 54.15 25.6 53.8 25.1 53.15 L 22.9 55.6 Q 23.9 56.5 25.1 56.95 26.25 57.35 27.65 57.35 28.75 57.35 29.75 57.1 30.75 56.8 31.45 56.2 32.25 55.65 32.65 54.75 33.1 53.9 33.1 52.7 33.1 51.45 32.65 50.7 32.15 50 31.4 49.55 30.7 49.1 29.85 48.85 29 48.6 28.25 48.4 27.55 48.15 27.05 47.8 26.6 47.45 26.6 46.8 26.6 46.4 26.8 46.15 27 45.85 27.3 45.7 27.65 45.5 28 45.45 28.35 45.35 28.7 45.35 29.25 45.35 29.9 45.6 30.55 45.8 30.95 46.3 L 33.1 43.95 Q 32.2 43.15 31.05 42.8 29.95 42.5 28.75 42.5 M 73.15 47.05 Q 72.05 47.05 71.05 47.4 70.05 47.75 69.35 48.45 68.6 49.1 68.2 50.05 67.75 51 67.75 52.15 67.75 53.3 68.2 54.25 68.6 55.2 69.35 55.85 70.05 56.5 71.05 56.9 72.05 57.25 73.15 57.25 74.35 57.25 75.45 56.75 76.55 56.25 77.25 55.35 L 75.15 53.8 Q 74.8 54.3 74.25 54.65 73.75 54.95 73 54.95 72.15 54.95 71.55 54.45 70.95 53.95 70.75 53.1 L 77.7 53.1 77.7 52.15 Q 77.7 51 77.4 50.05 77.1 49.1 76.5 48.45 75.9 47.75 75.05 47.4 74.2 47.05 73.15 47.05 M 72 49.35 Q 72.4 49.2 72.9 49.2 73.7 49.2 74.2 49.75 74.75 50.3 74.7 51.05 L 70.75 51.05 Q 70.8 50.7 70.95 50.35 71.1 50 71.35 49.75 71.6 49.5 72 49.35 M 66.95 48.35 Q 66.25 47.6 65.3 47.35 64.35 47.05 63.5 47.05 62.4 47.05 61.4 47.4 60.4 47.75 59.7 48.45 58.95 49.1 58.55 50.05 58.1 51 58.1 52.15 58.1 53.3 58.55 54.25 58.95 55.2 59.7 55.85 60.4 56.5 61.4 56.9 62.4 57.25 63.5 57.25 64.35 57.25 65.3 56.95 66.25 56.65 66.95 55.95 L 65 53.85 Q 64.75 54.15 64.35 54.4 64 54.6 63.5 54.6 62.35 54.6 61.75 53.9 61.1 53.25 61.1 52.15 61.1 51.05 61.75 50.35 62.35 49.7 63.5 49.7 63.95 49.7 64.35 49.9 64.75 50.1 65 50.4 L 66.95 48.35 M 44.6 48.45 Q 43.95 47.8 43.05 47.4 42.2 47.05 41.1 47.05 40.6 47.05 40.15 47.2 39.65 47.3 39.3 47.55 38.9 47.75 38.6 48.05 38.3 48.3 38.15 48.55 L 38.1 48.55 38.1 47.3 35.35 47.3 35.35 61.55 38.35 61.55 38.35 55.95 38.4 55.95 Q 38.9 56.65 39.7 56.95 40.5 57.25 41.45 57.25 42.5 57.25 43.3 56.8 44.15 56.4 44.7 55.65 45.3 54.95 45.6 54 45.9 53.1 45.9 52.05 45.9 50.95 45.55 50.05 45.2 49.1 44.6 48.45 M 38.75 53.9 Q 38.1 53.25 38.1 52.15 38.1 51.05 38.75 50.35 39.35 49.7 40.5 49.7 41.65 49.7 42.25 50.35 42.9 51.05 42.9 52.15 42.9 53.25 42.25 53.9 41.65 54.6 40.5 54.6 39.35 54.6 38.75 53.9 M 50.5 49.4 Q 51.1 49.1 51.85 49.1 52.6 49.1 53.2 49.55 53.75 50 53.75 50.8 53.15 50.8 52.4 50.85 51.7 50.85 50.95 50.95 50.2 51.05 49.55 51.25 48.85 51.5 48.35 51.85 47.8 52.25 47.5 52.8 47.2 53.4 47.2 54.25 47.2 55 47.45 55.55 47.75 56.1 48.2 56.5 48.7 56.85 49.3 57.05 49.95 57.25 50.65 57.25 51.55 57.25 52.4 56.9 53.2 56.55 53.7 55.8 L 53.75 55.8 53.75 57 56.5 57 56.5 52.05 Q 56.5 50.85 56.3 49.9 56.1 49 55.6 48.35 55.1 47.7 54.25 47.35 53.4 47.05 52.1 47.05 50.9 47.05 49.75 47.45 48.65 47.8 47.8 48.6 L 49.4 50.25 Q 49.9 49.7 50.5 49.4 M 53.05 54.75 Q 52.75 54.95 52.35 55.1 51.9 55.2 51.45 55.2 51 55.2 50.5 54.95 50.05 54.7 50.05 54.15 50.05 53.65 50.4 53.35 50.7 53.1 51.2 52.95 51.65 52.8 52.15 52.75 52.65 52.75 53 52.75 L 53.75 52.75 53.75 53.4 Q 53.75 53.85 53.55 54.2 53.4 54.5 53.05 54.75 Z"
         id="path13" />
    </g>
    <path
       id="Layer3_0_1_STROKES"
       stroke="#696969"
       stroke-width="4"
       stroke-linejoin="round"
       stroke-linecap="round"
       fill="none"
       d=" M 76.2 66 L 86.7 66 Q 89.4 66 89.4 63.25 88.7 50.45 89.4 37.6 89.4 34.9 86.7 34.9 L 76.2 34.9 M 75.4 34.9 L 14.25 34.9 Q 11.5 34.9 11.5 37.6 12.25 50.45 11.5 63.25 11.5 66 14.25 66 L 75.4 66" />
    <path
       id="Layer3_0_2_STROKES"
       stroke="#1D1D1D"
       stroke-width="5"
       stroke-linejoin="round"
       stroke-linecap="round"
       fill="none"
       d=" M 91.6 28.9 Q 95.4 28.9 95.4 32.7 94.55 50.45 95.4 68.15 95.4 71.95 91.6 71.95 L 9.35 71.95 Q 5.6 71.95 5.6 68.15 6.35 50.45 5.6 32.7 5.6 28.9 9.35 28.9 L 91.6 28.9 Z" />
    <path
       id="Layer2_0_1_STROKES"
       stroke="#FFFFFF"
       stroke-width="4"
       stroke-linejoin="round"
       stroke-linecap="round"
       fill="none"
       d=" M 76.2 66 L 86.7 66 Q 89.4 66 89.4 63.25 88.7 50.45 89.4 37.6 89.4 34.9 86.7 34.9 L 76.2 34.9 M 75.4 34.9 L 14.25 34.9 Q 11.5 34.9 11.5 37.6 12.25 50.45 11.5 63.25 11.5 66 14.25 66 L 75.4 66" />
    <path
       id="Layer2_0_2_STROKES"
       stroke="#404040"
       stroke-width="5"
       stroke-linejoin="round"
       stroke-linecap="round"
       fill="none"
       d=" M 91.6 28.9 Q 95.4 28.9 95.4 32.7 94.55 50.45 95.4 68.15 95.4 71.95 91.6 71.95 L 9.35 71.95 Q 5.6 71.95 5.6 68.15 6.35 50.45 5.6 32.7 5.6 28.9 9.35 28.9 L 91.6 28.9 Z" />
  </defs>
  <g
     transform="matrix( 1, 0, 0, 1, 0,0) "
     id="g28">
    <use
       xlink:href="#Layer3_0_FILL"
       id="use22" />
    <use
       xlink:href="#Layer3_0_1_STROKES"
       id="use24" />
    <use
       xlink:href="#Layer3_0_2_STROKES"
       id="use26" />
  </g>
  <g
     id="g36"
     style="display:none">
    <use
       xlink:href="#Layer2_0_FILL"
       id="use30" />
    <use
       xlink:href="#Layer2_0_1_STROKES"
       id="use32" />
    <use
       xlink:href="#Layer2_0_2_STROKES"
       id="use34" />
  </g>
</svg>
