<?xml version="1.0" encoding="UTF-8" standalone="no"?>
<svg
   version="1.1"
   preserveAspectRatio="none"
   x="0px"
   y="0px"
   width="100px"
   height="100px"
   viewBox="0 0 100 100"
   id="svg4520"
   sodipodi:docname="Vector Source0064.svg"
   inkscape:version="1.2.1 (9c6d41e410, 2022-07-14)"
   xmlns:inkscape="http://www.inkscape.org/namespaces/inkscape"
   xmlns:sodipodi="http://sodipodi.sourceforge.net/DTD/sodipodi-0.dtd"
   xmlns:xlink="http://www.w3.org/1999/xlink"
   xmlns="http://www.w3.org/2000/svg"
   xmlns:svg="http://www.w3.org/2000/svg">
  <sodipodi:namedview
     id="namedview4522"
     pagecolor="#ffffff"
     bordercolor="#000000"
     borderopacity="0.25"
     inkscape:showpageshadow="2"
     inkscape:pageopacity="0.0"
     inkscape:pagecheckerboard="0"
     inkscape:deskcolor="#d1d1d1"
     showgrid="false"
     inkscape:zoom="10.27"
     inkscape:cx="42.55112"
     inkscape:cy="50"
     inkscape:window-width="2400"
     inkscape:window-height="1261"
     inkscape:window-x="5591"
     inkscape:window-y="431"
     inkscape:window-maximized="1"
     inkscape:current-layer="svg4520" />
  <defs
     id="defs4502">
    <g
       id="Layer3_0_FILL">
      <path
         fill="#353535"
         stroke="none"
         d=" M 92.95 27.1 Q 92.95 22.1 87.95 22.1 L 13.05 22.1 Q 8.05 22.1 8.05 27.1 9.1 50.5 8.05 73.8 8.05 78.8 13.05 78.8 L 87.95 78.8 Q 92.95 78.8 92.95 73.8 91.85 50.5 92.95 27.1 M 81.5 29.95 Q 85.1 29.95 85.1 33.55 84.15 50.5 85.1 67.35 85.1 70.95 81.5 70.95 L 67.7 70.95 66.6 70.95 19.5 70.95 Q 15.85 70.95 15.85 67.35 16.85 50.5 15.85 33.55 15.85 29.95 19.5 29.95 L 66.6 29.95 67.7 29.95 81.5 29.95 Z"
         id="path4484" />
      <path
         fill="#595959"
         stroke="none"
         d=" M 85.1 33.55 Q 85.1 29.95 81.5 29.95 L 67.7 29.95 66.6 29.95 19.5 29.95 Q 15.85 29.95 15.85 33.55 16.85 50.5 15.85 67.35 15.85 70.95 19.5 70.95 L 66.6 70.95 67.7 70.95 81.5 70.95 Q 85.1 70.95 85.1 67.35 84.15 50.5 85.1 33.55 M 44.8 46.85 Q 45.35 46.7 46 46.7 47.45 46.7 48.35 47.15 49.2 47.6 49.7 48.35 50.15 49.15 50.35 50.2 50.5 51.25 50.5 52.45 L 50.5 59.15 46.8 59.15 46.8 53.2 Q 46.8 52.65 46.75 52.1 46.7 51.55 46.5 51.05 46.35 50.6 45.95 50.3 45.55 50 44.8 50 44.1 50 43.65 50.25 43.2 50.5 42.95 50.95 42.7 51.4 42.65 51.95 42.6 52.5 42.6 53.1 L 42.6 59.15 38.85 59.15 38.85 40.25 42.6 40.25 42.6 48.65 42.65 48.65 Q 42.75 48.3 43.05 47.95 43.35 47.6 43.75 47.3 44.2 47.05 44.8 46.85 M 56.65 41.65 Q 57.25 42.25 57.25 43.15 57.25 44.05 56.65 44.7 56 45.35 55.1 45.35 54.2 45.35 53.55 44.7 52.9 44.05 52.9 43.15 52.9 42.25 53.55 41.65 54.2 41 55.1 41 56 41 56.65 41.65 M 53.25 47 L 57 47 57 59.15 53.25 59.15 53.25 47 M 66.85 40 Q 67.4 40.05 67.9 40.15 L 67.75 43.35 Q 67.4 43.2 67.15 43.15 66.85 43.1 66.5 43.1 65.65 43.1 65.15 43.5 64.7 43.9 64.7 45.1 L 64.7 47 67.5 47 67.5 50 64.7 50 64.7 59.15 60.95 59.15 60.95 50 58.5 50 58.5 47 60.95 47 60.95 44.85 Q 60.95 43.85 61.15 42.95 61.35 42.05 61.85 41.4 62.35 40.75 63.25 40.35 64.2 39.95 65.7 39.95 66.3 39.95 66.85 40 M 67.75 47 L 70.15 47 70.15 43.4 73.9 43.4 73.9 47 77.2 47 77.2 50 73.9 50 73.9 54.05 Q 73.9 54.55 73.95 54.95 74 55.4 74.2 55.7 74.35 56 74.7 56.15 75.05 56.3 75.65 56.3 75.95 56.3 76.45 56.25 76.95 56.2 77.2 55.95 L 77.2 59.1 Q 76.55 59.3 75.9 59.4 75.25 59.45 74.55 59.45 73.6 59.45 72.8 59.25 72.05 59.05 71.4 58.6 70.8 58.2 70.5 57.5 70.15 56.8 70.15 55.8 L 70.15 50 67.75 50 67.75 47 M 26.25 42.45 Q 27.2 41.7 28.4 41.35 29.65 41 30.95 41 32.45 41 33.85 41.45 35.25 41.85 36.4 42.85 L 33.7 45.75 Q 33.25 45.15 32.4 44.9 31.6 44.6 30.9 44.6 30.45 44.6 30 44.7 29.55 44.8 29.15 45 28.75 45.2 28.5 45.6 28.25 45.95 28.25 46.45 28.25 47.2 28.85 47.65 29.45 48.1 30.35 48.35 31.3 48.7 32.35 48.95 33.4 49.25 34.3 49.8 35.2 50.35 35.8 51.3 36.4 52.25 36.4 53.8 36.4 55.25 35.85 56.35 35.3 57.45 34.35 58.15 33.45 58.9 32.2 59.25 30.95 59.6 29.6 59.6 27.85 59.6 26.4 59.1 24.9 58.55 23.65 57.4 L 26.4 54.35 Q 27 55.1 27.9 55.55 28.85 56 29.8 56 30.3 56 30.8 55.9 31.25 55.8 31.65 55.55 32.05 55.35 32.3 55 32.5 54.6 32.5 54.15 32.5 53.35 31.9 52.9 31.3 52.4 30.35 52.1 29.45 51.8 28.35 51.45 27.3 51.15 26.35 50.6 25.45 50 24.8 49.15 24.2 48.2 24.2 46.75 24.2 45.3 24.75 44.25 25.3 43.15 26.25 42.45 Z"
         id="path4486" />
      <path
         fill="#CDCDCD"
         stroke="none"
         d=" M 28.4 41.35 Q 27.2 41.7 26.25 42.45 25.3 43.15 24.75 44.25 24.2 45.3 24.2 46.75 24.2 48.2 24.8 49.15 25.45 50 26.35 50.6 27.3 51.15 28.35 51.45 29.45 51.8 30.35 52.1 31.3 52.4 31.9 52.9 32.5 53.35 32.5 54.15 32.5 54.6 32.3 55 32.05 55.35 31.65 55.55 31.25 55.8 30.8 55.9 30.3 56 29.8 56 28.85 56 27.9 55.55 27 55.1 26.4 54.35 L 23.65 57.4 Q 24.9 58.55 26.4 59.1 27.85 59.6 29.6 59.6 30.95 59.6 32.2 59.25 33.45 58.9 34.35 58.15 35.3 57.45 35.85 56.35 36.4 55.25 36.4 53.8 36.4 52.25 35.8 51.3 35.2 50.35 34.3 49.8 33.4 49.25 32.35 48.95 31.3 48.7 30.35 48.35 29.45 48.1 28.85 47.65 28.25 47.2 28.25 46.45 28.25 45.95 28.5 45.6 28.75 45.2 29.15 45 29.55 44.8 30 44.7 30.45 44.6 30.9 44.6 31.6 44.6 32.4 44.9 33.25 45.15 33.7 45.75 L 36.4 42.85 Q 35.25 41.85 33.85 41.45 32.45 41 30.95 41 29.65 41 28.4 41.35 M 70.15 47 L 67.75 47 67.75 50 70.15 50 70.15 55.8 Q 70.15 56.8 70.5 57.5 70.8 58.2 71.4 58.6 72.05 59.05 72.8 59.25 73.6 59.45 74.55 59.45 75.25 59.45 75.9 59.4 76.55 59.3 77.2 59.1 L 77.2 55.95 Q 76.95 56.2 76.45 56.25 75.95 56.3 75.65 56.3 75.05 56.3 74.7 56.15 74.35 56 74.2 55.7 74 55.4 73.95 54.95 73.9 54.55 73.9 54.05 L 73.9 50 77.2 50 77.2 47 73.9 47 73.9 43.4 70.15 43.4 70.15 47 M 67.9 40.15 Q 67.4 40.05 66.85 40 66.3 39.95 65.7 39.95 64.2 39.95 63.25 40.35 62.35 40.75 61.85 41.4 61.35 42.05 61.15 42.95 60.95 43.85 60.95 44.85 L 60.95 47 58.5 47 58.5 50 60.95 50 60.95 59.15 64.7 59.15 64.7 50 67.5 50 67.5 47 64.7 47 64.7 45.1 Q 64.7 43.9 65.15 43.5 65.65 43.1 66.5 43.1 66.85 43.1 67.15 43.15 67.4 43.2 67.75 43.35 L 67.9 40.15 M 57 47 L 53.25 47 53.25 59.15 57 59.15 57 47 M 57.25 43.15 Q 57.25 42.25 56.65 41.65 56 41 55.1 41 54.2 41 53.55 41.65 52.9 42.25 52.9 43.15 52.9 44.05 53.55 44.7 54.2 45.35 55.1 45.35 56 45.35 56.65 44.7 57.25 44.05 57.25 43.15 M 46 46.7 Q 45.35 46.7 44.8 46.85 44.2 47.05 43.75 47.3 43.35 47.6 43.05 47.95 42.75 48.3 42.65 48.65 L 42.6 48.65 42.6 40.25 38.85 40.25 38.85 59.15 42.6 59.15 42.6 53.1 Q 42.6 52.5 42.65 51.95 42.7 51.4 42.95 50.95 43.2 50.5 43.65 50.25 44.1 50 44.8 50 45.55 50 45.95 50.3 46.35 50.6 46.5 51.05 46.7 51.55 46.75 52.1 46.8 52.65 46.8 53.2 L 46.8 59.15 50.5 59.15 50.5 52.45 Q 50.5 51.25 50.35 50.2 50.15 49.15 49.7 48.35 49.2 47.6 48.35 47.15 47.45 46.7 46 46.7 Z"
         id="path4488" />
    </g>
    <g
       id="Layer2_0_FILL">
      <path
         fill="#D7D7D7"
         stroke="none"
         d=" M 92.95 27.1 Q 92.95 22.1 87.95 22.1 L 13.05 22.1 Q 8.05 22.1 8.05 27.1 9.1 50.5 8.05 73.8 8.05 78.8 13.05 78.8 L 87.95 78.8 Q 92.95 78.8 92.95 73.8 91.85 50.5 92.95 27.1 M 81.5 29.95 Q 85.1 29.95 85.1 33.55 84.15 50.5 85.1 67.35 85.1 70.95 81.5 70.95 L 67.7 70.95 66.6 70.95 19.5 70.95 Q 15.85 70.95 15.85 67.35 16.85 50.5 15.85 33.55 15.85 29.95 19.5 29.95 L 66.6 29.95 67.7 29.95 81.5 29.95 Z"
         id="path4491" />
      <path
         fill="#F5F5F5"
         stroke="none"
         d=" M 85.1 33.55 Q 85.1 29.95 81.5 29.95 L 67.7 29.95 66.6 29.95 19.5 29.95 Q 15.85 29.95 15.85 33.55 16.85 50.5 15.85 67.35 15.85 70.95 19.5 70.95 L 66.6 70.95 67.7 70.95 81.5 70.95 Q 85.1 70.95 85.1 67.35 84.15 50.5 85.1 33.55 M 44.8 46.85 Q 45.35 46.7 46 46.7 47.45 46.7 48.35 47.15 49.2 47.6 49.7 48.35 50.15 49.15 50.35 50.2 50.5 51.25 50.5 52.45 L 50.5 59.15 46.8 59.15 46.8 53.2 Q 46.8 52.65 46.75 52.1 46.7 51.55 46.5 51.05 46.35 50.6 45.95 50.3 45.55 50 44.8 50 44.1 50 43.65 50.25 43.2 50.5 42.95 50.95 42.7 51.4 42.65 51.95 42.6 52.5 42.6 53.1 L 42.6 59.15 38.85 59.15 38.85 40.25 42.6 40.25 42.6 48.65 42.65 48.65 Q 42.75 48.3 43.05 47.95 43.35 47.6 43.75 47.3 44.2 47.05 44.8 46.85 M 56.65 41.65 Q 57.25 42.25 57.25 43.15 57.25 44.05 56.65 44.7 56 45.35 55.1 45.35 54.2 45.35 53.55 44.7 52.9 44.05 52.9 43.15 52.9 42.25 53.55 41.65 54.2 41 55.1 41 56 41 56.65 41.65 M 53.25 47 L 57 47 57 59.15 53.25 59.15 53.25 47 M 66.85 40 Q 67.4 40.05 67.9 40.15 L 67.75 43.35 Q 67.4 43.2 67.15 43.15 66.85 43.1 66.5 43.1 65.65 43.1 65.15 43.5 64.7 43.9 64.7 45.1 L 64.7 47 67.5 47 67.5 50 64.7 50 64.7 59.15 60.95 59.15 60.95 50 58.5 50 58.5 47 60.95 47 60.95 44.85 Q 60.95 43.85 61.15 42.95 61.35 42.05 61.85 41.4 62.35 40.75 63.25 40.35 64.2 39.95 65.7 39.95 66.3 39.95 66.85 40 M 67.75 47 L 70.15 47 70.15 43.4 73.9 43.4 73.9 47 77.2 47 77.2 50 73.9 50 73.9 54.05 Q 73.9 54.55 73.95 54.95 74 55.4 74.2 55.7 74.35 56 74.7 56.15 75.05 56.3 75.65 56.3 75.95 56.3 76.45 56.25 76.95 56.2 77.2 55.95 L 77.2 59.1 Q 76.55 59.3 75.9 59.4 75.25 59.45 74.55 59.45 73.6 59.45 72.8 59.25 72.05 59.05 71.4 58.6 70.8 58.2 70.5 57.5 70.15 56.8 70.15 55.8 L 70.15 50 67.75 50 67.75 47 M 26.25 42.45 Q 27.2 41.7 28.4 41.35 29.65 41 30.95 41 32.45 41 33.85 41.45 35.25 41.85 36.4 42.85 L 33.7 45.75 Q 33.25 45.15 32.4 44.9 31.6 44.6 30.9 44.6 30.45 44.6 30 44.7 29.55 44.8 29.15 45 28.75 45.2 28.5 45.6 28.25 45.95 28.25 46.45 28.25 47.2 28.85 47.65 29.45 48.1 30.35 48.35 31.3 48.7 32.35 48.95 33.4 49.25 34.3 49.8 35.2 50.35 35.8 51.3 36.4 52.25 36.4 53.8 36.4 55.25 35.85 56.35 35.3 57.45 34.35 58.15 33.45 58.9 32.2 59.25 30.95 59.6 29.6 59.6 27.85 59.6 26.4 59.1 24.9 58.55 23.65 57.4 L 26.4 54.35 Q 27 55.1 27.9 55.55 28.85 56 29.8 56 30.3 56 30.8 55.9 31.25 55.8 31.65 55.55 32.05 55.35 32.3 55 32.5 54.6 32.5 54.15 32.5 53.35 31.9 52.9 31.3 52.4 30.35 52.1 29.45 51.8 28.35 51.45 27.3 51.15 26.35 50.6 25.45 50 24.8 49.15 24.2 48.2 24.2 46.75 24.2 45.3 24.75 44.25 25.3 43.15 26.25 42.45 Z"
         id="path4493" />
      <path
         fill="#404040"
         stroke="none"
         d=" M 28.4 41.35 Q 27.2 41.7 26.25 42.45 25.3 43.15 24.75 44.25 24.2 45.3 24.2 46.75 24.2 48.2 24.8 49.15 25.45 50 26.35 50.6 27.3 51.15 28.35 51.45 29.45 51.8 30.35 52.1 31.3 52.4 31.9 52.9 32.5 53.35 32.5 54.15 32.5 54.6 32.3 55 32.05 55.35 31.65 55.55 31.25 55.8 30.8 55.9 30.3 56 29.8 56 28.85 56 27.9 55.55 27 55.1 26.4 54.35 L 23.65 57.4 Q 24.9 58.55 26.4 59.1 27.85 59.6 29.6 59.6 30.95 59.6 32.2 59.25 33.45 58.9 34.35 58.15 35.3 57.45 35.85 56.35 36.4 55.25 36.4 53.8 36.4 52.25 35.8 51.3 35.2 50.35 34.3 49.8 33.4 49.25 32.35 48.95 31.3 48.7 30.35 48.35 29.45 48.1 28.85 47.65 28.25 47.2 28.25 46.45 28.25 45.95 28.5 45.6 28.75 45.2 29.15 45 29.55 44.8 30 44.7 30.45 44.6 30.9 44.6 31.6 44.6 32.4 44.9 33.25 45.15 33.7 45.75 L 36.4 42.85 Q 35.25 41.85 33.85 41.45 32.45 41 30.95 41 29.65 41 28.4 41.35 M 70.15 47 L 67.75 47 67.75 50 70.15 50 70.15 55.8 Q 70.15 56.8 70.5 57.5 70.8 58.2 71.4 58.6 72.05 59.05 72.8 59.25 73.6 59.45 74.55 59.45 75.25 59.45 75.9 59.4 76.55 59.3 77.2 59.1 L 77.2 55.95 Q 76.95 56.2 76.45 56.25 75.95 56.3 75.65 56.3 75.05 56.3 74.7 56.15 74.35 56 74.2 55.7 74 55.4 73.95 54.95 73.9 54.55 73.9 54.05 L 73.9 50 77.2 50 77.2 47 73.9 47 73.9 43.4 70.15 43.4 70.15 47 M 67.9 40.15 Q 67.4 40.05 66.85 40 66.3 39.95 65.7 39.95 64.2 39.95 63.25 40.35 62.35 40.75 61.85 41.4 61.35 42.05 61.15 42.95 60.95 43.85 60.95 44.85 L 60.95 47 58.5 47 58.5 50 60.95 50 60.95 59.15 64.7 59.15 64.7 50 67.5 50 67.5 47 64.7 47 64.7 45.1 Q 64.7 43.9 65.15 43.5 65.65 43.1 66.5 43.1 66.85 43.1 67.15 43.15 67.4 43.2 67.75 43.35 L 67.9 40.15 M 57 47 L 53.25 47 53.25 59.15 57 59.15 57 47 M 57.25 43.15 Q 57.25 42.25 56.65 41.65 56 41 55.1 41 54.2 41 53.55 41.65 52.9 42.25 52.9 43.15 52.9 44.05 53.55 44.7 54.2 45.35 55.1 45.35 56 45.35 56.65 44.7 57.25 44.05 57.25 43.15 M 46 46.7 Q 45.35 46.7 44.8 46.85 44.2 47.05 43.75 47.3 43.35 47.6 43.05 47.95 42.75 48.3 42.65 48.65 L 42.6 48.65 42.6 40.25 38.85 40.25 38.85 59.15 42.6 59.15 42.6 53.1 Q 42.6 52.5 42.65 51.95 42.7 51.4 42.95 50.95 43.2 50.5 43.65 50.25 44.1 50 44.8 50 45.55 50 45.95 50.3 46.35 50.6 46.5 51.05 46.7 51.55 46.75 52.1 46.8 52.65 46.8 53.2 L 46.8 59.15 50.5 59.15 50.5 52.45 Q 50.5 51.25 50.35 50.2 50.15 49.15 49.7 48.35 49.2 47.6 48.35 47.15 47.45 46.7 46 46.7 Z"
         id="path4495" />
    </g>
    <path
       id="Layer3_0_1_STROKES"
       stroke="#696969"
       stroke-width="4"
       stroke-linejoin="round"
       stroke-linecap="round"
       fill="none"
       d=" M 67.7 70.95 L 81.5 70.95 Q 85.1 70.95 85.1 67.35 84.15 50.5 85.1 33.55 85.1 29.95 81.5 29.95 L 67.7 29.95 M 66.6 29.95 L 19.5 29.95 Q 15.85 29.95 15.85 33.55 16.85 50.5 15.85 67.35 15.85 70.95 19.5 70.95 L 66.6 70.95" />
    <path
       id="Layer3_0_2_STROKES"
       stroke="#1D1D1D"
       stroke-width="5"
       stroke-linejoin="round"
       stroke-linecap="round"
       fill="none"
       d=" M 87.95 22.1 Q 92.95 22.1 92.95 27.1 91.85 50.5 92.95 73.8 92.95 78.8 87.95 78.8 L 13.05 78.8 Q 8.05 78.8 8.05 73.8 9.1 50.5 8.05 27.1 8.05 22.1 13.05 22.1 L 87.95 22.1 Z" />
    <path
       id="Layer2_0_1_STROKES"
       stroke="#FFFFFF"
       stroke-width="4"
       stroke-linejoin="round"
       stroke-linecap="round"
       fill="none"
       d=" M 67.7 70.95 L 81.5 70.95 Q 85.1 70.95 85.1 67.35 84.15 50.5 85.1 33.55 85.1 29.95 81.5 29.95 L 67.7 29.95 M 66.6 29.95 L 19.5 29.95 Q 15.85 29.95 15.85 33.55 16.85 50.5 15.85 67.35 15.85 70.95 19.5 70.95 L 66.6 70.95" />
    <path
       id="Layer2_0_2_STROKES"
       stroke="#404040"
       stroke-width="5"
       stroke-linejoin="round"
       stroke-linecap="round"
       fill="none"
       d=" M 87.95 22.1 Q 92.95 22.1 92.95 27.1 91.85 50.5 92.95 73.8 92.95 78.8 87.95 78.8 L 13.05 78.8 Q 8.05 78.8 8.05 73.8 9.1 50.5 8.05 27.1 8.05 22.1 13.05 22.1 L 87.95 22.1 Z" />
  </defs>
  <g
     transform="matrix( 1, 0, 0, 1, 0,0) "
     id="g4510">
    <use
       xlink:href="#Layer3_0_FILL"
       id="use4504" />
    <use
       xlink:href="#Layer3_0_1_STROKES"
       id="use4506" />
    <use
       xlink:href="#Layer3_0_2_STROKES"
       id="use4508" />
  </g>
  <g
     id="g4518"
     style="display:none">
    <use
       xlink:href="#Layer2_0_FILL"
       id="use4512" />
    <use
       xlink:href="#Layer2_0_1_STROKES"
       id="use4514" />
    <use
       xlink:href="#Layer2_0_2_STROKES"
       id="use4516" />
  </g>
</svg>
