
<svg xmlns="http://www.w3.org/2000/svg" version="1.1" xmlns:xlink="http://www.w3.org/1999/xlink" preserveAspectRatio="none" x="0px" y="0px" width="100px" height="100px" viewBox="0 0 100 100">
<defs>
<g id="Layer3_0_FILL">
<path fill="#353535" stroke="none" d="
M 92.95 14.65
Q 92.95 9.65 87.95 9.65
L 56.8 9.65
Q 53.05 9.75 52.3 12.85
L 52.3 28.25
Q 51.7 31.75 47.7 31.9
L 13.05 31.9
Q 8.05 31.9 8.05 36.9 9.1 60.3 8.05 83.6 8.05 88.6 13.05 88.6
L 87.95 88.6
Q 92.95 88.6 92.95 83.6 92.4 71.45 92.4 59.3 92.4 25.85 92.95 14.65
M 81.6 15.5
Q 87.05 15.55 87.1 21 87.1 21.05 87.1 21.1 87.1 21.15 87.1 21.2
L 87.1 21.3
Q 86.65 29.35 86.65 59.3 86.6 68.15 87.1 77
L 87.1 77.05
Q 87.1 77.1 87.1 77.15 87.1 77.25 87.1 77.35 87 82.7 81.6 82.75
L 67.7 82.75
Q 67.4 82.75 67.15 82.7 66.9 82.75 66.6 82.75
L 19.4 82.75
Q 13.9 82.7 13.85 77.25
L 13.85 77.15
Q 13.85 77.1 13.85 77.05
L 13.85 76.95
Q 14.85 60.3 13.85 43.55
L 13.85 43.5
Q 13.85 43.4 13.85 43.35
L 13.85 43.25
Q 13.9 37.8 19.4 37.75
L 57.85 37.75 57.85 21.15
Q 57.95 15.9 63.3 15.5
L 63.35 15.5
Q 63.45 15.5 63.5 15.5
L 81.6 15.5 Z"/>

<path fill="#696969" stroke="none" d="
M 87.1 21
Q 87.05 15.55 81.6 15.5
L 63.5 15.5
Q 63.45 15.5 63.35 15.5
L 63.3 15.5
Q 57.95 15.9 57.85 21.15
L 57.85 37.75 19.4 37.75
Q 13.9 37.8 13.85 43.25
L 13.85 43.35
Q 13.85 43.4 13.85 43.5
L 13.85 43.55
Q 14.85 60.3 13.85 76.95
L 13.85 77.05
Q 13.85 77.1 13.85 77.15
L 13.85 77.25
Q 13.9 82.7 19.4 82.75
L 66.6 82.75
Q 66.9 82.75 67.15 82.7 67.4 82.75 67.7 82.75
L 81.6 82.75
Q 87 82.7 87.1 77.35 87.1 77.25 87.1 77.15 87.1 77.1 87.1 77.05
L 87.1 77
Q 86.6 68.15 86.65 59.3 86.65 29.35 87.1 21.3
L 87.1 21.2
Q 87.1 21.15 87.1 21.1 87.1 21.05 87.1 21
M 83.1 21
Q 83.1 21.05 83.1 21.1 82.65 29.2 82.65 59.3 82.6 68.25 83.1 77.15 83.1 77.2 83.1 77.25 83.05 78.7 81.55 78.75
L 67.7 78.75
Q 67.4 78.75 67.15 78.85 66.9 78.75 66.6 78.75
L 19.45 78.75
Q 17.95 78.75 17.85 77.3 18.85 60.3 17.85 43.25 17.95 41.75 19.45 41.75
L 59.85 41.75
Q 60.7 41.75 61.3 41.2 61.85 40.6 61.85 39.75
L 61.85 21.25
Q 61.9 19.6 63.65 19.5
L 81.55 19.5
Q 83.05 19.55 83.1 21 Z"/>

<path fill="#595959" stroke="none" d="
M 83.1 21.1
Q 83.1 21.05 83.1 21 83.05 19.55 81.55 19.5
L 63.65 19.5
Q 61.9 19.6 61.85 21.25
L 61.85 39.75
Q 61.85 40.6 61.3 41.2 60.7 41.75 59.85 41.75
L 19.45 41.75
Q 17.95 41.75 17.85 43.25 18.85 60.3 17.85 77.3 17.95 78.75 19.45 78.75
L 66.6 78.75
Q 66.9 78.75 67.15 78.85 67.4 78.75 67.7 78.75
L 81.55 78.75
Q 83.05 78.7 83.1 77.25 83.1 77.2 83.1 77.15 82.6 68.25 82.65 59.3 82.65 29.2 83.1 21.1
M 69.9 48.8
L 76.15 48.8 76.15 67 57.25 67 57.25 72.6 45.2 63.5 57.25 54.4 57.25 60.3 69.9 60.3 69.9 48.8 Z"/>

<path fill="#CDCDCD" stroke="none" d="
M 76.15 48.8
L 69.9 48.8 69.9 60.3 57.25 60.3 57.25 54.4 45.2 63.5 57.25 72.6 57.25 67 76.15 67 76.15 48.8 Z"/>
</g>

<g id="Layer2_0_FILL">
<path fill="#D7D7D7" stroke="none" d="
M 92.95 14.65
Q 92.95 9.65 87.95 9.65
L 56.8 9.65
Q 53.05 9.75 52.3 12.85
L 52.3 28.25
Q 51.7 31.75 47.7 31.9
L 13.05 31.9
Q 8.05 31.9 8.05 36.9 9.1 60.3 8.05 83.6 8.05 88.6 13.05 88.6
L 87.95 88.6
Q 92.95 88.6 92.95 83.6 92.4 71.45 92.4 59.3 92.4 25.85 92.95 14.65
M 87.1 21.2
L 87.1 21.3
Q 86.65 29.35 86.65 59.3 86.6 68.15 87.1 77
L 87.1 77.05
Q 87.1 77.1 87.1 77.15 87.1 77.25 87.1 77.35 87 82.7 81.6 82.75
L 67.7 82.75
Q 67.4 82.75 67.15 82.7 66.9 82.75 66.6 82.75
L 19.4 82.75
Q 13.9 82.7 13.85 77.25
L 13.85 77.15
Q 13.85 77.1 13.85 77.05
L 13.85 76.95
Q 14.85 60.3 13.85 43.55
L 13.85 43.5
Q 13.85 43.4 13.85 43.35
L 13.85 43.25
Q 13.9 37.8 19.4 37.75
L 57.85 37.75 57.85 21.15
Q 57.95 15.9 63.3 15.5
L 63.35 15.5
Q 63.45 15.5 63.5 15.5
L 81.6 15.5
Q 87.05 15.55 87.1 21 87.1 21.05 87.1 21.1 87.1 21.15 87.1 21.2 Z"/>

<path fill="#FFFFFF" stroke="none" d="
M 87.1 21.3
L 87.1 21.2
Q 87.1 21.15 87.1 21.1 87.1 21.05 87.1 21 87.05 15.55 81.6 15.5
L 63.5 15.5
Q 63.45 15.5 63.35 15.5
L 63.3 15.5
Q 57.95 15.9 57.85 21.15
L 57.85 37.75 19.4 37.75
Q 13.9 37.8 13.85 43.25
L 13.85 43.35
Q 13.85 43.4 13.85 43.5
L 13.85 43.55
Q 14.85 60.3 13.85 76.95
L 13.85 77.05
Q 13.85 77.1 13.85 77.15
L 13.85 77.25
Q 13.9 82.7 19.4 82.75
L 66.6 82.75
Q 66.9 82.75 67.15 82.7 67.4 82.75 67.7 82.75
L 81.6 82.75
Q 87 82.7 87.1 77.35 87.1 77.25 87.1 77.15 87.1 77.1 87.1 77.05
L 87.1 77
Q 86.6 68.15 86.65 59.3 86.65 29.35 87.1 21.3
M 83.1 21
Q 83.1 21.05 83.1 21.1 82.65 29.2 82.65 59.3 82.6 68.25 83.1 77.15 83.1 77.2 83.1 77.25 83.05 78.7 81.55 78.75
L 67.7 78.75
Q 67.4 78.75 67.15 78.85 66.9 78.75 66.6 78.75
L 19.45 78.75
Q 17.95 78.75 17.85 77.3 18.85 60.3 17.85 43.25 17.95 41.75 19.45 41.75
L 59.85 41.75
Q 60.7 41.75 61.3 41.2 61.85 40.6 61.85 39.75
L 61.85 21.25
Q 61.9 19.6 63.65 19.5
L 81.55 19.5
Q 83.05 19.55 83.1 21 Z"/>

<path fill="#F5F5F5" stroke="none" d="
M 83.1 21.1
Q 83.1 21.05 83.1 21 83.05 19.55 81.55 19.5
L 63.65 19.5
Q 61.9 19.6 61.85 21.25
L 61.85 39.75
Q 61.85 40.6 61.3 41.2 60.7 41.75 59.85 41.75
L 19.45 41.75
Q 17.95 41.75 17.85 43.25 18.85 60.3 17.85 77.3 17.95 78.75 19.45 78.75
L 66.6 78.75
Q 66.9 78.75 67.15 78.85 67.4 78.75 67.7 78.75
L 81.55 78.75
Q 83.05 78.7 83.1 77.25 83.1 77.2 83.1 77.15 82.6 68.25 82.65 59.3 82.65 29.2 83.1 21.1
M 69.9 48.8
L 76.15 48.8 76.15 67 57.25 67 57.25 72.6 45.2 63.5 57.25 54.4 57.25 60.3 69.9 60.3 69.9 48.8 Z"/>

<path fill="#404040" stroke="none" d="
M 76.15 48.8
L 69.9 48.8 69.9 60.3 57.25 60.3 57.25 54.4 45.2 63.5 57.25 72.6 57.25 67 76.15 67 76.15 48.8 Z"/>
</g>

<path id="Layer3_0_1_STROKES" stroke="#1D1D1D" stroke-width="5" stroke-linejoin="round" stroke-linecap="round" fill="none" d="
M 87.95 9.65
Q 92.95 9.65 92.95 14.65 92.4 25.85 92.4 59.3 92.4 71.45 92.95 83.6 92.95 88.6 87.95 88.6
L 13.05 88.6
Q 8.05 88.6 8.05 83.6 9.1 60.3 8.05 36.9 8.05 31.9 13.05 31.9
L 47.7 31.9
Q 51.7 31.75 52.3 28.25
L 52.3 12.85
Q 53.05 9.75 56.8 9.65
L 87.95 9.65 Z"/>

<path id="Layer2_0_1_STROKES" stroke="#404040" stroke-width="5" stroke-linejoin="round" stroke-linecap="round" fill="none" d="
M 87.95 9.65
Q 92.95 9.65 92.95 14.65 92.4 25.85 92.4 59.3 92.4 71.45 92.95 83.6 92.95 88.6 87.95 88.6
L 13.05 88.6
Q 8.05 88.6 8.05 83.6 9.1 60.3 8.05 36.9 8.05 31.9 13.05 31.9
L 47.7 31.9
Q 51.7 31.75 52.3 28.25
L 52.3 12.85
Q 53.05 9.75 56.8 9.65
L 87.95 9.65 Z"/>
</defs>

<g transform="matrix( 1, 0, 0, 1, 0,0) ">
<use xlink:href="#Layer3_0_FILL"/>

<use xlink:href="#Layer3_0_1_STROKES"/>
</g>

<g transform="matrix( 1, 0, 0, 1, 0,0) ">
<use xlink:href="#Layer2_0_FILL"/>

<use xlink:href="#Layer2_0_1_STROKES"/>
</g>
</svg>
