<?xml version="1.0" encoding="UTF-8" standalone="no"?>
<svg
   version="1.1"
   preserveAspectRatio="none"
   x="0px"
   y="0px"
   width="100px"
   height="100px"
   viewBox="0 0 100 100"
   id="svg11300"
   sodipodi:docname="Vector Source0031.svg"
   inkscape:version="1.2.1 (9c6d41e410, 2022-07-14)"
   xmlns:inkscape="http://www.inkscape.org/namespaces/inkscape"
   xmlns:sodipodi="http://sodipodi.sourceforge.net/DTD/sodipodi-0.dtd"
   xmlns:xlink="http://www.w3.org/1999/xlink"
   xmlns="http://www.w3.org/2000/svg"
   xmlns:svg="http://www.w3.org/2000/svg">
  <sodipodi:namedview
     id="namedview11302"
     pagecolor="#ffffff"
     bordercolor="#000000"
     borderopacity="0.25"
     inkscape:showpageshadow="2"
     inkscape:pageopacity="0.0"
     inkscape:pagecheckerboard="0"
     inkscape:deskcolor="#d1d1d1"
     showgrid="false"
     inkscape:zoom="10.27"
     inkscape:cx="42.55112"
     inkscape:cy="50"
     inkscape:window-width="2400"
     inkscape:window-height="1261"
     inkscape:window-x="5591"
     inkscape:window-y="431"
     inkscape:window-maximized="1"
     inkscape:current-layer="svg11300" />
  <defs
     id="defs11278">
    <g
       id="Layer6_0_FILL">
      <path
         fill="#FFFFFF"
         stroke="none"
         d=" M 9.5 68.45 Q 7.4 69.9 6.8 72.55 6.3 75.1 7.65 77.35 9.1 79.65 11.8 80.15 14.4 80.7 16.55 79.35 18.85 77.85 19.4 75.25 19.65 74.2 19.6 73.25 19.9 73.15 20.05 72.9 L 25.15 66.05 16.85 67.85 Q 16.65 67.85 16.3 68.3 15.5 67.8 14.4 67.55 11.8 67 9.5 68.45 M 32.5 68.6 Q 31.95 68.05 31.45 67.6 31.85 71.55 32.75 75.15 35.75 86.65 42.2 88.5 42.65 88.6 43.15 88.65 48.5 89.65 53.9 84.15 49.9 82.05 45.95 79.35 44 78.7 42.5 76.9 37.5 73.25 32.5 68.6 M 43.1 43.7 Q 41.2 46.35 41.65 49.45 42.1 52.7 44.6 54.6 47.2 56.6 50.4 56.15 53.55 55.7 55.5 53.1 57.5 50.6 57.05 47.35 56.6 44.25 54 42.2 51.45 40.3 48.3 40.75 45.1 41.2 43.1 43.7 M 56.4 25.45 Q 56.35 25.45 56.3 25.45 54.65 25.5 53.05 26.95 57.1 29.65 61.15 33.25 61.05 32.85 61 32.55 60.1 29.15 58.85 27.35 57.55 26.3 56.4 25.45 M 57.7 11.55 Q 57.65 11.55 57.55 11.55 57.25 11.5 57.15 11.35 L 57.1 11.4 Q 57.05 11.35 57 11.35 56.5 11.3 56.15 11.3 51.45 10.95 46.7 15.55 44.6 17.6 42.5 20.55 41.4 22.25 40.3 24.05 35.75 32.15 33.4 43 33.1 43.7 33 44.55 32.7 45.7 32.55 46.95 32.5 47.05 32.5 47.2 34.85 50.6 38 53.9 38.3 51.1 38.75 48.1 39.25 45.75 39.7 43.6 39.8 43.2 39.9 42.75 42.2 34.15 46.35 28.1 46.75 27.55 47.2 27.05 51.8 20.95 56.3 21.1 56.35 21.1 56.45 21.15 56.5 21.15 56.6 21.15 56.95 21.15 57.35 21.25 59.1 21.5 60.65 22.8 62.45 24.4 63.85 27.45 64.55 29.25 65.15 31.45 66 35.05 66.25 39.15 66.35 40.85 66.3 42.5 L 65.8 49.15 Q 65.65 50.9 65.25 52.75 64.45 57.75 63 62.05 61.5 66.45 59.35 70.1 60.75 70.8 62.2 71.35 63 69.5 63.75 67.55 66.15 61 67.55 53.2 67.9 51.4 68.15 49.75 68.4 47.45 68.65 45.2 68.9 41.95 68.95 38.8 69 35.15 68.65 31.8 68.25 28.25 67.35 24.95 L 67.35 24.9 Q 67 23.35 66.55 22 63.75 13.85 58.7 11.85 58.65 11.85 58.6 11.85 L 58.55 11.8 Q 58.45 11.7 58.4 11.7 58.1 11.6 57.7 11.55 M 86.75 83.9 Q 93.1 77 86.95 62.1 83.8 54.55 78.3 47.15 77.15 45.6 75.9 44.05 74.6 42.5 73.25 40.9 73.15 41.85 73.05 42.7 73.05 44.15 72.85 45.65 73.3 46.15 73.6 46.75 74.05 47.1 74.35 47.7 L 74.4 47.65 Q 77.65 52.4 79.6 57.2 84.35 68.4 79.5 73.6 79.25 73.85 78.85 74.25 73.95 78.55 63.05 74.9 51.7 71.05 40.2 60.4 28.8 49.7 24 38.65 19.7 27.95 23.7 22.85 23.95 22.45 24.15 22.15 27.7 18.4 34.85 19.5 35.85 19.65 36.9 19.9 37.3 19.95 37.75 20.05 38.45 19.1 39.1 18.15 39.8 17 40.55 16.05 38.35 15.05 36.1 14.2 35.65 14.05 35.25 13.9 34.65 13.75 34 13.6 19.6 9.2 13.55 15.7 13.15 16.2 12.8 16.6 7.55 23.4 13.35 37.4 19.5 52.3 34.6 66.35 49.8 80.55 65.1 85.55 79.5 90.35 85.95 84.7 86.35 84.35 86.75 83.9 M 93.4 26.95 Q 94 24.3 92.55 22.05 91.15 19.75 88.5 19.25 85.85 18.75 83.65 20.1 81.4 21.6 80.8 24.25 80.6 25.2 80.65 26.25 80.45 26.25 80.15 26.55 L 75.05 33.4 83.35 31.55 Q 83.7 31.5 83.95 31.1 84.8 31.6 85.85 31.9 88.4 32.45 90.7 30.95 92.85 29.55 93.4 26.95 Z"
         id="path11257" />
    </g>
    <g
       id="Layer3_0_FILL">
      <path
         fill="#353535"
         stroke="none"
         d=" M 84.95 77.8 Q 83.7 50.5 84.95 23.15 84.95 17.3 79.1 17.3 L 21.9 17.3 Q 16.05 17.3 16.05 23.15 17.3 50.5 16.05 77.8 16.05 83.65 21.9 83.65 L 79.1 83.65 Q 84.95 83.65 84.95 77.8 M 54.15 26.45 L 55.4 26.45 71.55 26.45 Q 75.8 26.45 75.8 30.7 74.65 50.5 75.8 70.25 75.8 74.45 71.55 74.45 L 55.4 74.45 54.15 74.45 29.45 74.45 Q 25.2 74.45 25.2 70.25 26.35 50.5 25.2 30.7 25.2 26.45 29.45 26.45 L 54.15 26.45 Z"
         id="path11260" />
      <path
         fill="#595959"
         stroke="none"
         d=" M 55.4 26.45 L 54.15 26.45 29.45 26.45 Q 25.2 26.45 25.2 30.7 26.35 50.5 25.2 70.25 25.2 74.45 29.45 74.45 L 54.15 74.45 55.4 74.45 71.55 74.45 Q 75.8 74.45 75.8 70.25 74.65 50.5 75.8 30.7 75.8 26.45 71.55 26.45 L 55.4 26.45 M 51.1 38.8 L 56.85 38.8 56.85 54.2 60.05 54.2 60.05 58.65 56.85 58.65 56.85 63.6 51.8 63.6 51.8 58.65 41 58.65 41 54.2 51.1 38.8 M 51.8 45.65 L 51.75 45.65 46.25 54.2 51.8 54.2 51.8 45.65 Z"
         id="path11262" />
      <path
         fill="#CDCDCD"
         stroke="none"
         d=" M 56.85 38.8 L 51.1 38.8 41 54.2 41 58.65 51.8 58.65 51.8 63.6 56.85 63.6 56.85 58.65 60.05 58.65 60.05 54.2 56.85 54.2 56.85 38.8 M 51.75 45.65 L 51.8 45.65 51.8 54.2 46.25 54.2 51.75 45.65 Z"
         id="path11264" />
    </g>
    <g
       id="Layer2_0_FILL">
      <path
         fill="#D7D7D7"
         stroke="none"
         d=" M 84.95 77.8 Q 83.7 50.5 84.95 23.15 84.95 17.3 79.1 17.3 L 21.9 17.3 Q 16.05 17.3 16.05 23.15 17.3 50.5 16.05 77.8 16.05 83.65 21.9 83.65 L 79.1 83.65 Q 84.95 83.65 84.95 77.8 M 55.4 26.45 L 71.55 26.45 Q 75.8 26.45 75.8 30.7 74.65 50.5 75.8 70.25 75.8 74.45 71.55 74.45 L 55.4 74.45 54.15 74.45 29.45 74.45 Q 25.2 74.45 25.2 70.25 26.35 50.5 25.2 30.7 25.2 26.45 29.45 26.45 L 54.15 26.45 55.4 26.45 Z"
         id="path11267" />
      <path
         fill="#F5F5F5"
         stroke="none"
         d=" M 71.55 26.45 L 55.4 26.45 54.15 26.45 29.45 26.45 Q 25.2 26.45 25.2 30.7 26.35 50.5 25.2 70.25 25.2 74.45 29.45 74.45 L 54.15 74.45 55.4 74.45 71.55 74.45 Q 75.8 74.45 75.8 70.25 74.65 50.5 75.8 30.7 75.8 26.45 71.55 26.45 M 51.1 38.8 L 56.85 38.8 56.85 54.2 60.05 54.2 60.05 58.65 56.85 58.65 56.85 63.6 51.8 63.6 51.8 58.65 41 58.65 41 54.2 51.1 38.8 M 51.8 45.65 L 51.75 45.65 46.25 54.2 51.8 54.2 51.8 45.65 Z"
         id="path11269" />
      <path
         fill="#404040"
         stroke="none"
         d=" M 56.85 38.8 L 51.1 38.8 41 54.2 41 58.65 51.8 58.65 51.8 63.6 56.85 63.6 56.85 58.65 60.05 58.65 60.05 54.2 56.85 54.2 56.85 38.8 M 51.75 45.65 L 51.8 45.65 51.8 54.2 46.25 54.2 51.75 45.65 Z"
         id="path11271" />
    </g>
    <path
       id="Layer3_0_1_STROKES"
       stroke="#1D1D1D"
       stroke-width="5"
       stroke-linejoin="round"
       stroke-linecap="round"
       fill="none"
       d=" M 84.95 23.15 Q 83.7 50.5 84.95 77.8 84.95 83.65 79.1 83.65 L 21.9 83.65 Q 16.05 83.65 16.05 77.8 17.3 50.5 16.05 23.15 16.05 17.3 21.9 17.3 L 79.1 17.3 Q 84.95 17.3 84.95 23.15 Z" />
    <path
       id="Layer3_0_2_STROKES"
       stroke="#696969"
       stroke-width="4"
       stroke-linejoin="round"
       stroke-linecap="round"
       fill="none"
       d=" M 54.15 26.45 L 29.45 26.45 Q 25.2 26.45 25.2 30.7 26.35 50.5 25.2 70.25 25.2 74.45 29.45 74.45 L 54.15 74.45 M 55.4 74.45 L 71.55 74.45 Q 75.8 74.45 75.8 70.25 74.65 50.5 75.8 30.7 75.8 26.45 71.55 26.45 L 55.4 26.45" />
    <path
       id="Layer2_0_1_STROKES"
       stroke="#404040"
       stroke-width="5"
       stroke-linejoin="round"
       stroke-linecap="round"
       fill="none"
       d=" M 84.95 23.15 Q 83.7 50.5 84.95 77.8 84.95 83.65 79.1 83.65 L 21.9 83.65 Q 16.05 83.65 16.05 77.8 17.3 50.5 16.05 23.15 16.05 17.3 21.9 17.3 L 79.1 17.3 Q 84.95 17.3 84.95 23.15 Z" />
    <path
       id="Layer2_0_2_STROKES"
       stroke="#FFFFFF"
       stroke-width="4"
       stroke-linejoin="round"
       stroke-linecap="round"
       fill="none"
       d=" M 55.4 74.45 L 71.55 74.45 Q 75.8 74.45 75.8 70.25 74.65 50.5 75.8 30.7 75.8 26.45 71.55 26.45 L 55.4 26.45 M 54.15 26.45 L 29.45 26.45 Q 25.2 26.45 25.2 30.7 26.35 50.5 25.2 70.25 25.2 74.45 29.45 74.45 L 54.15 74.45" />
  </defs>
  <g
     id="g11282"
     style="display:none">
    <use
       xlink:href="#Layer6_0_FILL"
       id="use11280" />
  </g>
  <g
     id="g11290"
     style="display:inline">
    <use
       xlink:href="#Layer3_0_FILL"
       id="use11284" />
    <use
       xlink:href="#Layer3_0_1_STROKES"
       id="use11286" />
    <use
       xlink:href="#Layer3_0_2_STROKES"
       id="use11288" />
  </g>
  <g
     id="g11298"
     style="display:none">
    <use
       xlink:href="#Layer2_0_FILL"
       id="use11292" />
    <use
       xlink:href="#Layer2_0_1_STROKES"
       id="use11294" />
    <use
       xlink:href="#Layer2_0_2_STROKES"
       id="use11296" />
  </g>
</svg>
