
<svg xmlns="http://www.w3.org/2000/svg" version="1.1" xmlns:xlink="http://www.w3.org/1999/xlink" preserveAspectRatio="none" x="0px" y="0px" width="100px" height="100px" viewBox="0 0 100 100">
<defs>
<g id="Layer3_0_FILL">
<path fill="#353535" stroke="none" d="
M 84.95 77.8
Q 83.7 50.5 84.95 23.15 84.95 17.3 79.1 17.3
L 21.9 17.3
Q 16.05 17.3 16.05 23.15 17.3 50.5 16.05 77.8 16.05 83.65 21.9 83.65
L 79.1 83.65
Q 84.95 83.65 84.95 77.8
M 54.15 26.45
L 55.4 26.45 71.55 26.45
Q 75.8 26.45 75.8 30.7 74.65 50.5 75.8 70.25 75.8 74.45 71.55 74.45
L 55.4 74.45 54.15 74.45 29.45 74.45
Q 25.2 74.45 25.2 70.25 26.35 50.5 25.2 30.7 25.2 26.45 29.45 26.45
L 54.15 26.45 Z"/>

<path fill="#595959" stroke="none" d="
M 55.4 26.45
L 54.15 26.45 29.45 26.45
Q 25.2 26.45 25.2 30.7 26.35 50.5 25.2 70.25 25.2 74.45 29.45 74.45
L 54.15 74.45 55.4 74.45 71.55 74.45
Q 75.8 74.45 75.8 70.25 74.65 50.5 75.8 30.7 75.8 26.45 71.55 26.45
L 55.4 26.45
M 52.6 34.75
L 57.65 34.75 57.65 46 52.6 46 52.6 34.75
M 43.35 34.75
L 48.4 34.75 48.4 46 43.35 46 43.35 34.75 Z"/>

<path fill="#CDCDCD" stroke="none" d="
M 48.4 34.75
L 43.35 34.75 43.35 46 48.4 46 48.4 34.75
M 57.65 34.75
L 52.6 34.75 52.6 46 57.65 46 57.65 34.75 Z"/>
</g>

<g id="Layer2_0_FILL">
<path fill="#D7D7D7" stroke="none" d="
M 84.95 77.8
Q 83.7 50.5 84.95 23.15 84.95 17.3 79.1 17.3
L 21.9 17.3
Q 16.05 17.3 16.05 23.15 17.3 50.5 16.05 77.8 16.05 83.65 21.9 83.65
L 79.1 83.65
Q 84.95 83.65 84.95 77.8
M 54.15 26.45
L 55.4 26.45 71.55 26.45
Q 75.8 26.45 75.8 30.7 74.65 50.5 75.8 70.25 75.8 74.45 71.55 74.45
L 55.4 74.45 54.15 74.45 29.45 74.45
Q 25.2 74.45 25.2 70.25 26.35 50.5 25.2 30.7 25.2 26.45 29.45 26.45
L 54.15 26.45 Z"/>

<path fill="#F5F5F5" stroke="none" d="
M 55.4 26.45
L 54.15 26.45 29.45 26.45
Q 25.2 26.45 25.2 30.7 26.35 50.5 25.2 70.25 25.2 74.45 29.45 74.45
L 54.15 74.45 55.4 74.45 71.55 74.45
Q 75.8 74.45 75.8 70.25 74.65 50.5 75.8 30.7 75.8 26.45 71.55 26.45
L 55.4 26.45
M 52.6 34.75
L 57.65 34.75 57.65 46 52.6 46 52.6 34.75
M 43.35 34.75
L 48.4 34.75 48.4 46 43.35 46 43.35 34.75 Z"/>

<path fill="#404040" stroke="none" d="
M 48.4 34.75
L 43.35 34.75 43.35 46 48.4 46 48.4 34.75
M 57.65 34.75
L 52.6 34.75 52.6 46 57.65 46 57.65 34.75 Z"/>
</g>

<path id="Layer3_0_1_STROKES" stroke="#1D1D1D" stroke-width="5" stroke-linejoin="round" stroke-linecap="round" fill="none" d="
M 84.95 23.15
Q 83.7 50.5 84.95 77.8 84.95 83.65 79.1 83.65
L 21.9 83.65
Q 16.05 83.65 16.05 77.8 17.3 50.5 16.05 23.15 16.05 17.3 21.9 17.3
L 79.1 17.3
Q 84.95 17.3 84.95 23.15 Z"/>

<path id="Layer3_0_2_STROKES" stroke="#696969" stroke-width="4" stroke-linejoin="round" stroke-linecap="round" fill="none" d="
M 54.15 26.45
L 29.45 26.45
Q 25.2 26.45 25.2 30.7 26.35 50.5 25.2 70.25 25.2 74.45 29.45 74.45
L 54.15 74.45
M 55.4 74.45
L 71.55 74.45
Q 75.8 74.45 75.8 70.25 74.65 50.5 75.8 30.7 75.8 26.45 71.55 26.45
L 55.4 26.45"/>

<path id="Layer2_0_1_STROKES" stroke="#404040" stroke-width="5" stroke-linejoin="round" stroke-linecap="round" fill="none" d="
M 84.95 23.15
Q 83.7 50.5 84.95 77.8 84.95 83.65 79.1 83.65
L 21.9 83.65
Q 16.05 83.65 16.05 77.8 17.3 50.5 16.05 23.15 16.05 17.3 21.9 17.3
L 79.1 17.3
Q 84.95 17.3 84.95 23.15 Z"/>

<path id="Layer2_0_2_STROKES" stroke="#FFFFFF" stroke-width="4" stroke-linejoin="round" stroke-linecap="round" fill="none" d="
M 54.15 26.45
L 29.45 26.45
Q 25.2 26.45 25.2 30.7 26.35 50.5 25.2 70.25 25.2 74.45 29.45 74.45
L 54.15 74.45
M 55.4 74.45
L 71.55 74.45
Q 75.8 74.45 75.8 70.25 74.65 50.5 75.8 30.7 75.8 26.45 71.55 26.45
L 55.4 26.45"/>
</defs>

<g transform="matrix( 1, 0, 0, 1, 0,0) ">
<use xlink:href="#Layer3_0_FILL"/>

<use xlink:href="#Layer3_0_1_STROKES"/>

<use xlink:href="#Layer3_0_2_STROKES"/>
</g>

<g transform="matrix( 1, 0, 0, 1, 0,0) ">
<use xlink:href="#Layer2_0_FILL"/>

<use xlink:href="#Layer2_0_1_STROKES"/>

<use xlink:href="#Layer2_0_2_STROKES"/>
</g>
</svg>
