<?xml version="1.0" encoding="UTF-8" standalone="no"?>
<svg
   version="1.1"
   preserveAspectRatio="none"
   x="0px"
   y="0px"
   width="100px"
   height="100px"
   viewBox="0 0 100 100"
   id="svg38"
   sodipodi:docname="Vector Source0075.svg"
   inkscape:version="1.2.1 (9c6d41e410, 2022-07-14)"
   xmlns:inkscape="http://www.inkscape.org/namespaces/inkscape"
   xmlns:sodipodi="http://sodipodi.sourceforge.net/DTD/sodipodi-0.dtd"
   xmlns:xlink="http://www.w3.org/1999/xlink"
   xmlns="http://www.w3.org/2000/svg"
   xmlns:svg="http://www.w3.org/2000/svg">
  <sodipodi:namedview
     id="namedview40"
     pagecolor="#ffffff"
     bordercolor="#000000"
     borderopacity="0.25"
     inkscape:showpageshadow="2"
     inkscape:pageopacity="0.0"
     inkscape:pagecheckerboard="0"
     inkscape:deskcolor="#d1d1d1"
     showgrid="false"
     inkscape:zoom="10.27"
     inkscape:cx="42.55112"
     inkscape:cy="50"
     inkscape:window-width="2400"
     inkscape:window-height="1261"
     inkscape:window-x="5591"
     inkscape:window-y="431"
     inkscape:window-maximized="1"
     inkscape:current-layer="svg38" />
  <defs
     id="defs20">
    <g
       id="Layer3_0_FILL">
      <path
         fill="#353535"
         stroke="none"
         d=" M 74.4 11.5 Q 74.4 6.65 70.3 6.65 L 30.65 6.65 Q 26.6 6.65 26.6 11.5 27 22.55 27.05 66.45 27.05 77.95 26.6 89.45 26.6 94.3 30.65 94.3 L 70.3 94.3 Q 74.4 94.3 74.4 89.45 73.9 77.95 73.95 66.45 73.95 22.55 74.4 11.5 M 53 14.2 L 53.9 14.2 65.05 14.2 Q 68 14.2 68 17.75 67.65 25.7 67.65 66.45 67.65 74.85 68 83.2 68 86.7 65.05 86.7 L 53.9 86.7 53 86.7 35.9 86.7 Q 32.95 86.7 32.95 83.2 33.35 74.85 33.35 66.45 33.35 25.7 32.95 17.75 32.95 14.2 35.9 14.2 L 53 14.2 Z"
         id="path2" />
      <path
         fill="#595959"
         stroke="none"
         d=" M 53.9 14.2 L 53 14.2 35.9 14.2 Q 32.95 14.2 32.95 17.75 33.35 25.7 33.35 66.45 33.35 74.85 32.95 83.2 32.95 86.7 35.9 86.7 L 53 86.7 53.9 86.7 65.05 86.7 Q 68 86.7 68 83.2 67.65 74.85 67.65 66.45 67.65 25.7 68 17.75 68 14.2 65.05 14.2 L 53.9 14.2 M 43.6 47.2 L 43.6 48.8 40 48.8 40 50.25 43.4 50.25 43.4 51.85 40 51.85 40 53.4 43.8 53.4 43.8 55 38.3 55 38.3 47.2 43.6 47.2 M 50.8 48.05 L 52.45 48.05 52.45 49.65 53.9 49.65 53.9 51 52.45 51 52.45 52.75 Q 52.45 53 52.5 53.15 52.5 53.35 52.6 53.45 52.65 53.6 52.85 53.7 53 53.75 53.25 53.75 53.4 53.75 53.6 53.7 53.8 53.7 53.9 53.6 L 53.9 54.95 Q 53.65 55.05 53.35 55.1 53.05 55.15 52.75 55.15 52.35 55.15 52 55.05 51.65 54.95 51.4 54.75 51.1 54.6 50.95 54.25 50.8 53.95 50.8 53.5 L 50.8 51 49.75 51 49.75 49.65 50.8 49.65 50.8 48.05 M 63.85 49.6 L 63.85 51.1 Q 63.65 51.05 63.5 51 63.35 50.95 63.15 50.95 62.65 50.95 62.4 51.1 62.1 51.25 61.95 51.45 61.8 51.7 61.8 52.05 61.75 52.35 61.75 52.75 L 61.75 55 60.1 55 60.1 49.65 61.75 49.65 61.75 50.5 Q 62 50 62.4 49.75 62.75 49.5 63.3 49.5 63.45 49.5 63.6 49.55 63.75 49.55 63.85 49.6 M 59.4 51.15 Q 59.6 51.7 59.6 52.35 L 59.6 52.85 55.75 52.85 Q 55.85 53.3 56.2 53.6 56.55 53.9 57 53.9 57.4 53.9 57.7 53.7 58 53.5 58.2 53.25 L 59.35 54.1 Q 58.95 54.6 58.35 54.85 57.75 55.15 57.1 55.15 56.45 55.15 55.95 54.95 55.4 54.75 55 54.35 54.6 54 54.35 53.5 54.1 52.95 54.1 52.35 54.1 51.7 54.35 51.15 54.6 50.65 55 50.3 55.4 49.9 55.95 49.7 56.45 49.5 57.1 49.5 57.65 49.5 58.15 49.7 58.6 49.9 58.9 50.3 59.25 50.65 59.4 51.15 M 49.25 50.25 Q 49.5 50.6 49.55 51.05 49.65 51.5 49.65 52.05 L 49.65 55 48 55 48 52.4 Q 48 52.15 47.95 51.9 47.95 51.65 47.85 51.45 47.8 51.25 47.6 51.1 47.45 50.95 47.1 50.95 46.8 50.95 46.6 51.1 46.4 51.2 46.3 51.4 46.2 51.6 46.15 51.85 46.15 52.05 46.15 52.35 L 46.15 55 44.5 55 44.5 49.65 46.05 49.65 46.05 50.4 46.1 50.4 Q 46.15 50.25 46.3 50.05 46.45 49.9 46.65 49.8 46.85 49.7 47.1 49.6 47.35 49.5 47.65 49.5 48.3 49.5 48.65 49.7 49.05 49.9 49.25 50.25 M 56.95 50.7 Q 56.65 50.7 56.45 50.8 56.25 50.9 56.1 51.05 55.95 51.15 55.85 51.35 55.8 51.5 55.75 51.7 L 57.95 51.7 Q 57.95 51.3 57.65 51 57.4 50.7 56.95 50.7 Z"
         id="path4" />
      <path
         fill="#CDCDCD"
         stroke="none"
         d=" M 49.55 51.05 Q 49.5 50.6 49.25 50.25 49.05 49.9 48.65 49.7 48.3 49.5 47.65 49.5 47.35 49.5 47.1 49.6 46.85 49.7 46.65 49.8 46.45 49.9 46.3 50.05 46.15 50.25 46.1 50.4 L 46.05 50.4 46.05 49.65 44.5 49.65 44.5 55 46.15 55 46.15 52.35 Q 46.15 52.05 46.15 51.85 46.2 51.6 46.3 51.4 46.4 51.2 46.6 51.1 46.8 50.95 47.1 50.95 47.45 50.95 47.6 51.1 47.8 51.25 47.85 51.45 47.95 51.65 47.95 51.9 48 52.15 48 52.4 L 48 55 49.65 55 49.65 52.05 Q 49.65 51.5 49.55 51.05 M 59.6 52.35 Q 59.6 51.7 59.4 51.15 59.25 50.65 58.9 50.3 58.6 49.9 58.15 49.7 57.65 49.5 57.1 49.5 56.45 49.5 55.95 49.7 55.4 49.9 55 50.3 54.6 50.65 54.35 51.15 54.1 51.7 54.1 52.35 54.1 52.95 54.35 53.5 54.6 54 55 54.35 55.4 54.75 55.95 54.95 56.45 55.15 57.1 55.15 57.75 55.15 58.35 54.85 58.95 54.6 59.35 54.1 L 58.2 53.25 Q 58 53.5 57.7 53.7 57.4 53.9 57 53.9 56.55 53.9 56.2 53.6 55.85 53.3 55.75 52.85 L 59.6 52.85 59.6 52.35 M 56.45 50.8 Q 56.65 50.7 56.95 50.7 57.4 50.7 57.65 51 57.95 51.3 57.95 51.7 L 55.75 51.7 Q 55.8 51.5 55.85 51.35 55.95 51.15 56.1 51.05 56.25 50.9 56.45 50.8 M 63.85 51.1 L 63.85 49.6 Q 63.75 49.55 63.6 49.55 63.45 49.5 63.3 49.5 62.75 49.5 62.4 49.75 62 50 61.75 50.5 L 61.75 49.65 60.1 49.65 60.1 55 61.75 55 61.75 52.75 Q 61.75 52.35 61.8 52.05 61.8 51.7 61.95 51.45 62.1 51.25 62.4 51.1 62.65 50.95 63.15 50.95 63.35 50.95 63.5 51 63.65 51.05 63.85 51.1 M 52.45 48.05 L 50.8 48.05 50.8 49.65 49.75 49.65 49.75 51 50.8 51 50.8 53.5 Q 50.8 53.95 50.95 54.25 51.1 54.6 51.4 54.75 51.65 54.95 52 55.05 52.35 55.15 52.75 55.15 53.05 55.15 53.35 55.1 53.65 55.05 53.9 54.95 L 53.9 53.6 Q 53.8 53.7 53.6 53.7 53.4 53.75 53.25 53.75 53 53.75 52.85 53.7 52.65 53.6 52.6 53.45 52.5 53.35 52.5 53.15 52.45 53 52.45 52.75 L 52.45 51 53.9 51 53.9 49.65 52.45 49.65 52.45 48.05 M 43.6 48.8 L 43.6 47.2 38.3 47.2 38.3 55 43.8 55 43.8 53.4 40 53.4 40 51.85 43.4 51.85 43.4 50.25 40 50.25 40 48.8 43.6 48.8 Z"
         id="path6" />
    </g>
    <g
       id="Layer2_0_FILL">
      <path
         fill="#D7D7D7"
         stroke="none"
         d=" M 74.4 11.5 Q 74.4 6.65 70.3 6.65 L 30.65 6.65 Q 26.6 6.65 26.6 11.5 27 22.55 27.05 66.45 27.05 77.95 26.6 89.45 26.6 94.3 30.65 94.3 L 70.3 94.3 Q 74.4 94.3 74.4 89.45 73.9 77.95 73.95 66.45 73.95 22.55 74.4 11.5 M 53.9 14.2 L 65.05 14.2 Q 68 14.2 68 17.75 67.65 25.7 67.65 66.45 67.65 74.85 68 83.2 68 86.7 65.05 86.7 L 53.9 86.7 53 86.7 35.9 86.7 Q 32.95 86.7 32.95 83.2 33.35 74.85 33.35 66.45 33.35 25.7 32.95 17.75 32.95 14.2 35.9 14.2 L 53 14.2 53.9 14.2 Z"
         id="path9" />
      <path
         fill="#F5F5F5"
         stroke="none"
         d=" M 65.05 14.2 L 53.9 14.2 53 14.2 35.9 14.2 Q 32.95 14.2 32.95 17.75 33.35 25.7 33.35 66.45 33.35 74.85 32.95 83.2 32.95 86.7 35.9 86.7 L 53 86.7 53.9 86.7 65.05 86.7 Q 68 86.7 68 83.2 67.65 74.85 67.65 66.45 67.65 25.7 68 17.75 68 14.2 65.05 14.2 M 43.6 47.2 L 43.6 48.8 40 48.8 40 50.25 43.4 50.25 43.4 51.85 40 51.85 40 53.4 43.8 53.4 43.8 55 38.3 55 38.3 47.2 43.6 47.2 M 50.8 48.05 L 52.45 48.05 52.45 49.65 53.9 49.65 53.9 51 52.45 51 52.45 52.75 Q 52.45 53 52.5 53.15 52.5 53.35 52.6 53.45 52.65 53.6 52.85 53.7 53 53.75 53.25 53.75 53.4 53.75 53.6 53.7 53.8 53.7 53.9 53.6 L 53.9 54.95 Q 53.65 55.05 53.35 55.1 53.05 55.15 52.75 55.15 52.35 55.15 52 55.05 51.65 54.95 51.4 54.75 51.1 54.6 50.95 54.25 50.8 53.95 50.8 53.5 L 50.8 51 49.75 51 49.75 49.65 50.8 49.65 50.8 48.05 M 63.85 49.6 L 63.85 51.1 Q 63.65 51.05 63.5 51 63.35 50.95 63.15 50.95 62.65 50.95 62.4 51.1 62.1 51.25 61.95 51.45 61.8 51.7 61.8 52.05 61.75 52.35 61.75 52.75 L 61.75 55 60.1 55 60.1 49.65 61.75 49.65 61.75 50.5 Q 62 50 62.4 49.75 62.75 49.5 63.3 49.5 63.45 49.5 63.6 49.55 63.75 49.55 63.85 49.6 M 59.4 51.15 Q 59.6 51.7 59.6 52.35 L 59.6 52.85 55.75 52.85 Q 55.85 53.3 56.2 53.6 56.55 53.9 57 53.9 57.4 53.9 57.7 53.7 58 53.5 58.2 53.25 L 59.35 54.1 Q 58.95 54.6 58.35 54.85 57.75 55.15 57.1 55.15 56.45 55.15 55.95 54.95 55.4 54.75 55 54.35 54.6 54 54.35 53.5 54.1 52.95 54.1 52.35 54.1 51.7 54.35 51.15 54.6 50.65 55 50.3 55.4 49.9 55.95 49.7 56.45 49.5 57.1 49.5 57.65 49.5 58.15 49.7 58.6 49.9 58.9 50.3 59.25 50.65 59.4 51.15 M 49.25 50.25 Q 49.5 50.6 49.55 51.05 49.65 51.5 49.65 52.05 L 49.65 55 48 55 48 52.4 Q 48 52.15 47.95 51.9 47.95 51.65 47.85 51.45 47.8 51.25 47.6 51.1 47.45 50.95 47.1 50.95 46.8 50.95 46.6 51.1 46.4 51.2 46.3 51.4 46.2 51.6 46.15 51.85 46.15 52.05 46.15 52.35 L 46.15 55 44.5 55 44.5 49.65 46.05 49.65 46.05 50.4 46.1 50.4 Q 46.15 50.25 46.3 50.05 46.45 49.9 46.65 49.8 46.85 49.7 47.1 49.6 47.35 49.5 47.65 49.5 48.3 49.5 48.65 49.7 49.05 49.9 49.25 50.25 M 56.95 50.7 Q 56.65 50.7 56.45 50.8 56.25 50.9 56.1 51.05 55.95 51.15 55.85 51.35 55.8 51.5 55.75 51.7 L 57.95 51.7 Q 57.95 51.3 57.65 51 57.4 50.7 56.95 50.7 Z"
         id="path11" />
      <path
         fill="#404040"
         stroke="none"
         d=" M 49.55 51.05 Q 49.5 50.6 49.25 50.25 49.05 49.9 48.65 49.7 48.3 49.5 47.65 49.5 47.35 49.5 47.1 49.6 46.85 49.7 46.65 49.8 46.45 49.9 46.3 50.05 46.15 50.25 46.1 50.4 L 46.05 50.4 46.05 49.65 44.5 49.65 44.5 55 46.15 55 46.15 52.35 Q 46.15 52.05 46.15 51.85 46.2 51.6 46.3 51.4 46.4 51.2 46.6 51.1 46.8 50.95 47.1 50.95 47.45 50.95 47.6 51.1 47.8 51.25 47.85 51.45 47.95 51.65 47.95 51.9 48 52.15 48 52.4 L 48 55 49.65 55 49.65 52.05 Q 49.65 51.5 49.55 51.05 M 59.6 52.35 Q 59.6 51.7 59.4 51.15 59.25 50.65 58.9 50.3 58.6 49.9 58.15 49.7 57.65 49.5 57.1 49.5 56.45 49.5 55.95 49.7 55.4 49.9 55 50.3 54.6 50.65 54.35 51.15 54.1 51.7 54.1 52.35 54.1 52.95 54.35 53.5 54.6 54 55 54.35 55.4 54.75 55.95 54.95 56.45 55.15 57.1 55.15 57.75 55.15 58.35 54.85 58.95 54.6 59.35 54.1 L 58.2 53.25 Q 58 53.5 57.7 53.7 57.4 53.9 57 53.9 56.55 53.9 56.2 53.6 55.85 53.3 55.75 52.85 L 59.6 52.85 59.6 52.35 M 56.45 50.8 Q 56.65 50.7 56.95 50.7 57.4 50.7 57.65 51 57.95 51.3 57.95 51.7 L 55.75 51.7 Q 55.8 51.5 55.85 51.35 55.95 51.15 56.1 51.05 56.25 50.9 56.45 50.8 M 63.85 51.1 L 63.85 49.6 Q 63.75 49.55 63.6 49.55 63.45 49.5 63.3 49.5 62.75 49.5 62.4 49.75 62 50 61.75 50.5 L 61.75 49.65 60.1 49.65 60.1 55 61.75 55 61.75 52.75 Q 61.75 52.35 61.8 52.05 61.8 51.7 61.95 51.45 62.1 51.25 62.4 51.1 62.65 50.95 63.15 50.95 63.35 50.95 63.5 51 63.65 51.05 63.85 51.1 M 52.45 48.05 L 50.8 48.05 50.8 49.65 49.75 49.65 49.75 51 50.8 51 50.8 53.5 Q 50.8 53.95 50.95 54.25 51.1 54.6 51.4 54.75 51.65 54.95 52 55.05 52.35 55.15 52.75 55.15 53.05 55.15 53.35 55.1 53.65 55.05 53.9 54.95 L 53.9 53.6 Q 53.8 53.7 53.6 53.7 53.4 53.75 53.25 53.75 53 53.75 52.85 53.7 52.65 53.6 52.6 53.45 52.5 53.35 52.5 53.15 52.45 53 52.45 52.75 L 52.45 51 53.9 51 53.9 49.65 52.45 49.65 52.45 48.05 M 43.6 48.8 L 43.6 47.2 38.3 47.2 38.3 55 43.8 55 43.8 53.4 40 53.4 40 51.85 43.4 51.85 43.4 50.25 40 50.25 40 48.8 43.6 48.8 Z"
         id="path13" />
    </g>
    <path
       id="Layer3_0_1_STROKES"
       stroke="#696969"
       stroke-width="4"
       stroke-linejoin="round"
       stroke-linecap="round"
       fill="none"
       d=" M 53 14.2 L 35.9 14.2 Q 32.95 14.2 32.95 17.75 33.35 25.7 33.35 66.45 33.35 74.85 32.95 83.2 32.95 86.7 35.9 86.7 L 53 86.7 M 53.9 86.7 L 65.05 86.7 Q 68 86.7 68 83.2 67.65 74.85 67.65 66.45 67.65 25.7 68 17.75 68 14.2 65.05 14.2 L 53.9 14.2" />
    <path
       id="Layer3_0_2_STROKES"
       stroke="#1D1D1D"
       stroke-width="5"
       stroke-linejoin="round"
       stroke-linecap="round"
       fill="none"
       d=" M 70.3 6.65 Q 74.4 6.65 74.4 11.5 73.95 22.55 73.95 66.45 73.9 77.95 74.4 89.45 74.4 94.3 70.3 94.3 L 30.65 94.3 Q 26.6 94.3 26.6 89.45 27.05 77.95 27.05 66.45 27 22.55 26.6 11.5 26.6 6.65 30.65 6.65 L 70.3 6.65 Z" />
    <path
       id="Layer2_0_1_STROKES"
       stroke="#404040"
       stroke-width="5"
       stroke-linejoin="round"
       stroke-linecap="round"
       fill="none"
       d=" M 70.3 6.65 Q 74.4 6.65 74.4 11.5 73.95 22.55 73.95 66.45 73.9 77.95 74.4 89.45 74.4 94.3 70.3 94.3 L 30.65 94.3 Q 26.6 94.3 26.6 89.45 27.05 77.95 27.05 66.45 27 22.55 26.6 11.5 26.6 6.65 30.65 6.65 L 70.3 6.65 Z" />
    <path
       id="Layer2_0_2_STROKES"
       stroke="#FFFFFF"
       stroke-width="4"
       stroke-linejoin="round"
       stroke-linecap="round"
       fill="none"
       d=" M 53.9 86.7 L 65.05 86.7 Q 68 86.7 68 83.2 67.65 74.85 67.65 66.45 67.65 25.7 68 17.75 68 14.2 65.05 14.2 L 53.9 14.2 M 53 14.2 L 35.9 14.2 Q 32.95 14.2 32.95 17.75 33.35 25.7 33.35 66.45 33.35 74.85 32.95 83.2 32.95 86.7 35.9 86.7 L 53 86.7" />
  </defs>
  <g
     transform="matrix( 1, 0, 0, 1, 0,0) "
     id="g28">
    <use
       xlink:href="#Layer3_0_FILL"
       id="use22" />
    <use
       xlink:href="#Layer3_0_1_STROKES"
       id="use24" />
    <use
       xlink:href="#Layer3_0_2_STROKES"
       id="use26" />
  </g>
  <g
     id="g36"
     style="display:none">
    <use
       xlink:href="#Layer2_0_FILL"
       id="use30" />
    <use
       xlink:href="#Layer2_0_1_STROKES"
       id="use32" />
    <use
       xlink:href="#Layer2_0_2_STROKES"
       id="use34" />
  </g>
</svg>
