<?xml version="1.0" encoding="UTF-8" standalone="no"?>
<svg
   version="1.1"
   preserveAspectRatio="none"
   x="0px"
   y="0px"
   width="100px"
   height="100px"
   viewBox="0 0 100 100"
   id="svg38"
   sodipodi:docname="Vector Source0070.svg"
   inkscape:version="1.2.1 (9c6d41e410, 2022-07-14)"
   xmlns:inkscape="http://www.inkscape.org/namespaces/inkscape"
   xmlns:sodipodi="http://sodipodi.sourceforge.net/DTD/sodipodi-0.dtd"
   xmlns:xlink="http://www.w3.org/1999/xlink"
   xmlns="http://www.w3.org/2000/svg"
   xmlns:svg="http://www.w3.org/2000/svg">
  <sodipodi:namedview
     id="namedview40"
     pagecolor="#ffffff"
     bordercolor="#000000"
     borderopacity="0.25"
     inkscape:showpageshadow="2"
     inkscape:pageopacity="0.0"
     inkscape:pagecheckerboard="0"
     inkscape:deskcolor="#d1d1d1"
     showgrid="false"
     inkscape:zoom="10.27"
     inkscape:cx="42.55112"
     inkscape:cy="50"
     inkscape:window-width="2400"
     inkscape:window-height="1261"
     inkscape:window-x="5591"
     inkscape:window-y="431"
     inkscape:window-maximized="1"
     inkscape:current-layer="svg38" />
  <defs
     id="defs20">
    <g
       id="Layer3_0_FILL">
      <path
         fill="#353535"
         stroke="none"
         d=" M 92.95 27.1 Q 92.95 22.1 87.95 22.1 L 13.05 22.1 Q 8.05 22.1 8.05 27.1 9.1 50.5 8.05 73.8 8.05 78.8 13.05 78.8 L 87.95 78.8 Q 92.95 78.8 92.95 73.8 91.85 50.5 92.95 27.1 M 81.5 29.95 Q 85.1 29.95 85.1 33.55 84.15 50.5 85.1 67.35 85.1 70.95 81.5 70.95 L 67.7 70.95 66.6 70.95 19.5 70.95 Q 15.85 70.95 15.85 67.35 16.85 50.5 15.85 33.55 15.85 29.95 19.5 29.95 L 66.6 29.95 67.7 29.95 81.5 29.95 Z"
         id="path2" />
      <path
         fill="#595959"
         stroke="none"
         d=" M 85.1 33.55 Q 85.1 29.95 81.5 29.95 L 67.7 29.95 66.6 29.95 19.5 29.95 Q 15.85 29.95 15.85 33.55 16.85 50.5 15.85 67.35 15.85 70.95 19.5 70.95 L 66.6 70.95 67.7 70.95 81.5 70.95 Q 85.1 70.95 85.1 67.35 84.15 50.5 85.1 33.55 M 47.1 42.85 Q 46.9 42.6 46.55 42.45 46.25 42.25 45.85 42.25 44.95 42.25 44.45 42.8 43.9 43.4 43.9 44.3 43.9 45.2 44.45 45.75 44.95 46.3 45.85 46.3 46.3 46.3 46.55 46.1 46.9 45.95 47.1 45.7 L 48.7 47.35 Q 48.15 47.95 47.4 48.2 46.55 48.45 45.85 48.45 45 48.45 44.2 48.1 43.35 47.85 42.75 47.3 42.15 46.75 41.85 46 41.45 45.2 41.45 44.3 41.45 43.35 41.85 42.6 42.15 41.8 42.75 41.25 43.35 40.7 44.2 40.45 45 40.15 45.85 40.15 46.55 40.15 47.4 40.35 48.15 40.6 48.7 41.2 L 47.1 42.85 M 52.05 43.45 L 54.75 40.3 57.75 40.3 54.6 43.9 57.8 48.25 54.75 48.25 52.1 44.2 52.05 44.2 52.05 48.25 49.6 48.25 49.6 35.95 52.05 35.95 52.05 43.45 M 22.8 36.75 L 27.1 36.75 Q 27.85 36.75 28.55 36.85 29.4 36.95 30 37.25 30.55 37.55 30.95 38.15 31.3 38.7 31.3 39.65 31.3 40.65 30.75 41.3 30.2 41.9 29.35 42.15 L 29.35 42.2 Q 29.85 42.3 30.35 42.55 30.8 42.75 31.1 43.15 31.5 43.5 31.65 44 31.8 44.5 31.8 45.05 31.8 45.95 31.45 46.55 31.05 47.15 30.4 47.55 29.8 47.9 29.05 48.05 28.3 48.25 27.55 48.25 L 22.8 48.25 22.8 36.75 M 36.85 43.25 Q 37.45 43.2 37.95 43.2 37.95 42.55 37.5 42.15 37 41.8 36.45 41.8 35.85 41.8 35.3 42.05 34.8 42.3 34.4 42.75 L 33.1 41.4 Q 33.8 40.75 34.7 40.45 35.6 40.15 36.6 40.15 37.65 40.15 38.4 40.45 39.05 40.7 39.45 41.2 39.9 41.75 40.05 42.5 40.2 43.25 40.2 44.2 L 40.2 48.25 37.95 48.25 37.95 47.25 Q 37.5 47.85 36.85 48.2 36.15 48.45 35.45 48.45 34.85 48.45 34.35 48.3 33.8 48.1 33.45 47.8 33.05 47.55 32.85 47.05 32.65 46.6 32.65 46 32.65 45.3 32.85 44.8 33.1 44.4 33.55 44.05 34 43.75 34.55 43.55 35.05 43.4 35.65 43.3 36.25 43.25 36.85 43.25 M 38.05 50.4 Q 38.85 50.15 39.75 50.15 40.7 50.15 41.6 50.4 42.5 50.65 43.25 51.3 L 41.5 53.2 Q 41.2 52.85 40.65 52.7 40.15 52.45 39.7 52.45 39.4 52.45 39.1 52.55 38.8 52.6 38.55 52.75 38.25 52.9 38.1 53.1 37.95 53.35 37.95 53.65 37.95 54.2 38.3 54.45 38.75 54.75 39.35 54.95 39.95 55.1 40.6 55.35 41.3 55.5 41.9 55.9 42.5 56.25 42.9 56.85 43.25 57.45 43.25 58.5 43.25 59.4 42.9 60.1 42.55 60.85 41.95 61.3 41.3 61.8 40.55 62 39.75 62.2 38.8 62.2 37.75 62.2 36.75 61.9 35.8 61.55 34.95 60.8 L 36.75 58.8 Q 37.15 59.35 37.75 59.6 38.3 59.9 38.95 59.9 39.3 59.9 39.6 59.85 39.9 59.8 40.15 59.6 40.45 59.45 40.6 59.25 40.7 59 40.7 58.7 40.7 58.15 40.35 57.9 39.95 57.55 39.35 57.35 38.7 57.2 38.05 56.95 37.35 56.75 36.7 56.35 36.1 56 35.7 55.45 35.35 54.85 35.35 53.85 35.35 52.95 35.65 52.25 36.05 51.55 36.65 51.1 37.3 50.6 38.05 50.4 M 77.35 54.15 Q 78 54.4 78.5 54.95 79 55.5 79.25 56.3 79.5 57.05 79.5 58 L 79.5 58.75 73.85 58.75 Q 74 59.45 74.5 59.9 74.95 60.3 75.65 60.3 76.25 60.3 76.7 60.05 77.15 59.8 77.4 59.35 L 79.15 60.6 Q 78.55 61.35 77.7 61.75 76.75 62.15 75.8 62.15 74.9 62.15 74.1 61.85 73.3 61.55 72.7 61.05 72.1 60.5 71.75 59.7 71.4 58.9 71.4 58 71.4 57.05 71.75 56.3 72.1 55.5 72.7 54.95 73.3 54.4 74.1 54.15 74.9 53.85 75.8 53.85 76.65 53.85 77.35 54.15 M 67.9 53.85 Q 68.65 53.85 69.45 54.1 70.2 54.3 70.75 54.9 L 69.15 56.6 Q 68.95 56.3 68.65 56.15 68.3 56 67.9 56 67 56 66.5 56.55 65.95 57.1 65.95 58 65.95 58.9 66.5 59.45 67 60 67.9 60 68.35 60 68.65 59.85 68.95 59.65 69.15 59.4 L 70.75 61.1 Q 70.2 61.7 69.45 61.9 68.65 62.15 67.9 62.15 67.05 62.15 66.25 61.85 65.45 61.55 64.85 61.05 64.25 60.5 63.9 59.7 63.55 58.9 63.55 58 63.55 57.05 63.9 56.3 64.25 55.5 64.85 54.95 65.45 54.4 66.25 54.15 67.05 53.85 67.9 53.85 M 62.1 56.2 Q 62.3 56.95 62.3 57.95 L 62.3 61.95 60 61.95 60 60.95 Q 59.55 61.55 58.9 61.9 58.2 62.15 57.5 62.15 56.9 62.15 56.45 62 55.9 61.85 55.5 61.5 55.15 61.25 54.9 60.75 54.7 60.3 54.7 59.7 54.7 59 54.9 58.55 55.2 58.1 55.6 57.75 56.05 57.45 56.6 57.3 57.15 57.1 57.75 57 58.35 56.95 58.9 56.95 59.5 56.9 60 56.9 60 56.25 59.55 55.9 59.1 55.5 58.5 55.5 57.9 55.5 57.35 55.75 56.85 56.05 56.5 56.45 L 55.2 55.1 Q 55.9 54.45 56.75 54.15 57.7 53.85 58.65 53.85 59.75 53.85 60.45 54.15 61.1 54.4 61.5 54.9 61.95 55.45 62.1 56.2 M 51.35 54.15 Q 52.05 54.45 52.6 55 53.05 55.55 53.35 56.3 53.6 57 53.6 57.95 53.6 58.75 53.4 59.5 53.1 60.25 52.7 60.85 52.2 61.45 51.55 61.8 50.85 62.15 50.05 62.15 49.25 62.15 48.6 61.9 47.9 61.7 47.55 61.1 L 47.5 61.1 47.5 65.65 45.05 65.65 45.05 54.05 47.3 54.05 47.3 55.05 Q 47.5 54.85 47.7 54.65 47.9 54.4 48.25 54.25 48.55 54.1 48.95 54 49.35 53.85 49.75 53.85 50.65 53.85 51.35 54.15 M 51.15 58 Q 51.15 57.1 50.7 56.55 50.2 56 49.25 56 48.3 56 47.8 56.55 47.3 57.1 47.3 58 47.3 58.9 47.8 59.45 48.3 60 49.25 60 50.2 60 50.7 59.45 51.15 58.9 51.15 58 M 59.4 58.5 Q 59.15 58.5 58.7 58.55 58.35 58.55 57.95 58.65 57.55 58.75 57.3 59 57 59.25 57 59.6 57 60.05 57.4 60.25 57.8 60.5 58.15 60.5 58.55 60.5 58.85 60.4 59.2 60.25 59.45 60.1 59.75 59.95 59.9 59.65 60 59.4 60 59 L 60 58.5 59.4 58.5 M 74.85 55.7 Q 74.55 55.9 74.3 56.1 74.1 56.25 74 56.55 73.9 56.8 73.85 57.1 L 77.1 57.1 Q 77.1 56.45 76.65 56.05 76.2 55.6 75.55 55.6 75.2 55.6 74.85 55.7 M 35.25 45.3 Q 34.95 45.5 34.95 45.9 34.95 46.35 35.35 46.55 35.7 46.75 36.1 46.75 36.5 46.75 36.8 46.65 37.15 46.55 37.4 46.4 37.65 46.25 37.85 45.95 37.95 45.7 37.95 45.3 L 37.95 44.75 37.35 44.75 Q 37.1 44.75 36.65 44.8 36.25 44.8 35.9 44.95 35.5 45.05 35.25 45.3 M 25.3 43.45 L 25.3 46.05 27.6 46.05 Q 27.9 46.05 28.2 46 28.5 45.95 28.75 45.8 29 45.65 29.15 45.35 29.35 45.1 29.35 44.75 29.35 44.35 29.1 44.05 28.9 43.85 28.55 43.7 28.3 43.55 27.9 43.5 27.55 43.45 27.25 43.45 L 25.3 43.45 M 28.6 39.45 Q 28.45 39.25 28.2 39.15 27.95 38.95 27.65 38.9 27.35 38.85 27.05 38.85 L 25.3 38.85 25.3 41.35 27.15 41.35 Q 27.5 41.35 27.75 41.25 28 41.2 28.25 41 28.5 40.9 28.6 40.65 28.8 40.45 28.8 40.05 28.8 39.7 28.6 39.45 Z"
         id="path4" />
      <path
         fill="#CDCDCD"
         stroke="none"
         d=" M 52.6 55 Q 52.05 54.45 51.35 54.15 50.65 53.85 49.75 53.85 49.35 53.85 48.95 54 48.55 54.1 48.25 54.25 47.9 54.4 47.7 54.65 47.5 54.85 47.3 55.05 L 47.3 54.05 45.05 54.05 45.05 65.65 47.5 65.65 47.5 61.1 47.55 61.1 Q 47.9 61.7 48.6 61.9 49.25 62.15 50.05 62.15 50.85 62.15 51.55 61.8 52.2 61.45 52.7 60.85 53.1 60.25 53.4 59.5 53.6 58.75 53.6 57.95 53.6 57 53.35 56.3 53.05 55.55 52.6 55 M 50.7 56.55 Q 51.15 57.1 51.15 58 51.15 58.9 50.7 59.45 50.2 60 49.25 60 48.3 60 47.8 59.45 47.3 58.9 47.3 58 47.3 57.1 47.8 56.55 48.3 56 49.25 56 50.2 56 50.7 56.55 M 62.3 57.95 Q 62.3 56.95 62.1 56.2 61.95 55.45 61.5 54.9 61.1 54.4 60.45 54.15 59.75 53.85 58.65 53.85 57.7 53.85 56.75 54.15 55.9 54.45 55.2 55.1 L 56.5 56.45 Q 56.85 56.05 57.35 55.75 57.9 55.5 58.5 55.5 59.1 55.5 59.55 55.9 60 56.25 60 56.9 59.5 56.9 58.9 56.95 58.35 56.95 57.75 57 57.15 57.1 56.6 57.3 56.05 57.45 55.6 57.75 55.2 58.1 54.9 58.55 54.7 59 54.7 59.7 54.7 60.3 54.9 60.75 55.15 61.25 55.5 61.5 55.9 61.85 56.45 62 56.9 62.15 57.5 62.15 58.2 62.15 58.9 61.9 59.55 61.55 60 60.95 L 60 61.95 62.3 61.95 62.3 57.95 M 58.7 58.55 Q 59.15 58.5 59.4 58.5 L 60 58.5 60 59 Q 60 59.4 59.9 59.65 59.75 59.95 59.45 60.1 59.2 60.25 58.85 60.4 58.55 60.5 58.15 60.5 57.8 60.5 57.4 60.25 57 60.05 57 59.6 57 59.25 57.3 59 57.55 58.75 57.95 58.65 58.35 58.55 58.7 58.55 M 69.45 54.1 Q 68.65 53.85 67.9 53.85 67.05 53.85 66.25 54.15 65.45 54.4 64.85 54.95 64.25 55.5 63.9 56.3 63.55 57.05 63.55 58 63.55 58.9 63.9 59.7 64.25 60.5 64.85 61.05 65.45 61.55 66.25 61.85 67.05 62.15 67.9 62.15 68.65 62.15 69.45 61.9 70.2 61.7 70.75 61.1 L 69.15 59.4 Q 68.95 59.65 68.65 59.85 68.35 60 67.9 60 67 60 66.5 59.45 65.95 58.9 65.95 58 65.95 57.1 66.5 56.55 67 56 67.9 56 68.3 56 68.65 56.15 68.95 56.3 69.15 56.6 L 70.75 54.9 Q 70.2 54.3 69.45 54.1 M 78.5 54.95 Q 78 54.4 77.35 54.15 76.65 53.85 75.8 53.85 74.9 53.85 74.1 54.15 73.3 54.4 72.7 54.95 72.1 55.5 71.75 56.3 71.4 57.05 71.4 58 71.4 58.9 71.75 59.7 72.1 60.5 72.7 61.05 73.3 61.55 74.1 61.85 74.9 62.15 75.8 62.15 76.75 62.15 77.7 61.75 78.55 61.35 79.15 60.6 L 77.4 59.35 Q 77.15 59.8 76.7 60.05 76.25 60.3 75.65 60.3 74.95 60.3 74.5 59.9 74 59.45 73.85 58.75 L 79.5 58.75 79.5 58 Q 79.5 57.05 79.25 56.3 79 55.5 78.5 54.95 M 74.3 56.1 Q 74.55 55.9 74.85 55.7 75.2 55.6 75.55 55.6 76.2 55.6 76.65 56.05 77.1 56.45 77.1 57.1 L 73.85 57.1 Q 73.9 56.8 74 56.55 74.1 56.25 74.3 56.1 M 39.75 50.15 Q 38.85 50.15 38.05 50.4 37.3 50.6 36.65 51.1 36.05 51.55 35.65 52.25 35.35 52.95 35.35 53.85 35.35 54.85 35.7 55.45 36.1 56 36.7 56.35 37.35 56.75 38.05 56.95 38.7 57.2 39.35 57.35 39.95 57.55 40.35 57.9 40.7 58.15 40.7 58.7 40.7 59 40.6 59.25 40.45 59.45 40.15 59.6 39.9 59.8 39.6 59.85 39.3 59.9 38.95 59.9 38.3 59.9 37.75 59.6 37.15 59.35 36.75 58.8 L 34.95 60.8 Q 35.8 61.55 36.75 61.9 37.75 62.2 38.8 62.2 39.75 62.2 40.55 62 41.3 61.8 41.95 61.3 42.55 60.85 42.9 60.1 43.25 59.4 43.25 58.5 43.25 57.45 42.9 56.85 42.5 56.25 41.9 55.9 41.3 55.5 40.6 55.35 39.95 55.1 39.35 54.95 38.75 54.75 38.3 54.45 37.95 54.2 37.95 53.65 37.95 53.35 38.1 53.1 38.25 52.9 38.55 52.75 38.8 52.6 39.1 52.55 39.4 52.45 39.7 52.45 40.15 52.45 40.65 52.7 41.2 52.85 41.5 53.2 L 43.25 51.3 Q 42.5 50.65 41.6 50.4 40.7 50.15 39.75 50.15 M 37.95 43.2 Q 37.45 43.2 36.85 43.25 36.25 43.25 35.65 43.3 35.05 43.4 34.55 43.55 34 43.75 33.55 44.05 33.1 44.4 32.85 44.8 32.65 45.3 32.65 46 32.65 46.6 32.85 47.05 33.05 47.55 33.45 47.8 33.8 48.1 34.35 48.3 34.85 48.45 35.45 48.45 36.15 48.45 36.85 48.2 37.5 47.85 37.95 47.25 L 37.95 48.25 40.2 48.25 40.2 44.2 Q 40.2 43.25 40.05 42.5 39.9 41.75 39.45 41.2 39.05 40.7 38.4 40.45 37.65 40.15 36.6 40.15 35.6 40.15 34.7 40.45 33.8 40.75 33.1 41.4 L 34.4 42.75 Q 34.8 42.3 35.3 42.05 35.85 41.8 36.45 41.8 37 41.8 37.5 42.15 37.95 42.55 37.95 43.2 M 34.95 45.9 Q 34.95 45.5 35.25 45.3 35.5 45.05 35.9 44.95 36.25 44.8 36.65 44.8 37.1 44.75 37.35 44.75 L 37.95 44.75 37.95 45.3 Q 37.95 45.7 37.85 45.95 37.65 46.25 37.4 46.4 37.15 46.55 36.8 46.65 36.5 46.75 36.1 46.75 35.7 46.75 35.35 46.55 34.95 46.35 34.95 45.9 M 27.1 36.75 L 22.8 36.75 22.8 48.25 27.55 48.25 Q 28.3 48.25 29.05 48.05 29.8 47.9 30.4 47.55 31.05 47.15 31.45 46.55 31.8 45.95 31.8 45.05 31.8 44.5 31.65 44 31.5 43.5 31.1 43.15 30.8 42.75 30.35 42.55 29.85 42.3 29.35 42.2 L 29.35 42.15 Q 30.2 41.9 30.75 41.3 31.3 40.65 31.3 39.65 31.3 38.7 30.95 38.15 30.55 37.55 30 37.25 29.4 36.95 28.55 36.85 27.85 36.75 27.1 36.75 M 28.2 39.15 Q 28.45 39.25 28.6 39.45 28.8 39.7 28.8 40.05 28.8 40.45 28.6 40.65 28.5 40.9 28.25 41 28 41.2 27.75 41.25 27.5 41.35 27.15 41.35 L 25.3 41.35 25.3 38.85 27.05 38.85 Q 27.35 38.85 27.65 38.9 27.95 38.95 28.2 39.15 M 25.3 46.05 L 25.3 43.45 27.25 43.45 Q 27.55 43.45 27.9 43.5 28.3 43.55 28.55 43.7 28.9 43.85 29.1 44.05 29.35 44.35 29.35 44.75 29.35 45.1 29.15 45.35 29 45.65 28.75 45.8 28.5 45.95 28.2 46 27.9 46.05 27.6 46.05 L 25.3 46.05 M 54.75 40.3 L 52.05 43.45 52.05 35.95 49.6 35.95 49.6 48.25 52.05 48.25 52.05 44.2 52.1 44.2 54.75 48.25 57.8 48.25 54.6 43.9 57.75 40.3 54.75 40.3 M 46.55 42.45 Q 46.9 42.6 47.1 42.85 L 48.7 41.2 Q 48.15 40.6 47.4 40.35 46.55 40.15 45.85 40.15 45 40.15 44.2 40.45 43.35 40.7 42.75 41.25 42.15 41.8 41.85 42.6 41.45 43.35 41.45 44.3 41.45 45.2 41.85 46 42.15 46.75 42.75 47.3 43.35 47.85 44.2 48.1 45 48.45 45.85 48.45 46.55 48.45 47.4 48.2 48.15 47.95 48.7 47.35 L 47.1 45.7 Q 46.9 45.95 46.55 46.1 46.3 46.3 45.85 46.3 44.95 46.3 44.45 45.75 43.9 45.2 43.9 44.3 43.9 43.4 44.45 42.8 44.95 42.25 45.85 42.25 46.25 42.25 46.55 42.45 Z"
         id="path6" />
    </g>
    <g
       id="Layer2_0_FILL">
      <path
         fill="#D7D7D7"
         stroke="none"
         d=" M 92.95 27.1 Q 92.95 22.1 87.95 22.1 L 13.05 22.1 Q 8.05 22.1 8.05 27.1 9.1 50.5 8.05 73.8 8.05 78.8 13.05 78.8 L 87.95 78.8 Q 92.95 78.8 92.95 73.8 91.85 50.5 92.95 27.1 M 81.5 29.95 Q 85.1 29.95 85.1 33.55 84.15 50.5 85.1 67.35 85.1 70.95 81.5 70.95 L 67.7 70.95 66.6 70.95 19.5 70.95 Q 15.85 70.95 15.85 67.35 16.85 50.5 15.85 33.55 15.85 29.95 19.5 29.95 L 66.6 29.95 67.7 29.95 81.5 29.95 Z"
         id="path9" />
      <path
         fill="#F5F5F5"
         stroke="none"
         d=" M 85.1 33.55 Q 85.1 29.95 81.5 29.95 L 67.7 29.95 66.6 29.95 19.5 29.95 Q 15.85 29.95 15.85 33.55 16.85 50.5 15.85 67.35 15.85 70.95 19.5 70.95 L 66.6 70.95 67.7 70.95 81.5 70.95 Q 85.1 70.95 85.1 67.35 84.15 50.5 85.1 33.55 M 47.1 42.85 Q 46.9 42.6 46.55 42.45 46.25 42.25 45.85 42.25 44.95 42.25 44.45 42.8 43.9 43.4 43.9 44.3 43.9 45.2 44.45 45.75 44.95 46.3 45.85 46.3 46.3 46.3 46.55 46.1 46.9 45.95 47.1 45.7 L 48.7 47.35 Q 48.15 47.95 47.4 48.2 46.55 48.45 45.85 48.45 45 48.45 44.2 48.1 43.35 47.85 42.75 47.3 42.15 46.75 41.85 46 41.45 45.2 41.45 44.3 41.45 43.35 41.85 42.6 42.15 41.8 42.75 41.25 43.35 40.7 44.2 40.45 45 40.15 45.85 40.15 46.55 40.15 47.4 40.35 48.15 40.6 48.7 41.2 L 47.1 42.85 M 52.05 43.45 L 54.75 40.3 57.75 40.3 54.6 43.9 57.8 48.25 54.75 48.25 52.1 44.2 52.05 44.2 52.05 48.25 49.6 48.25 49.6 35.95 52.05 35.95 52.05 43.45 M 22.8 36.75 L 27.1 36.75 Q 27.85 36.75 28.55 36.85 29.4 36.95 30 37.25 30.55 37.55 30.95 38.15 31.3 38.7 31.3 39.65 31.3 40.65 30.75 41.3 30.2 41.9 29.35 42.15 L 29.35 42.2 Q 29.85 42.3 30.35 42.55 30.8 42.75 31.1 43.15 31.5 43.5 31.65 44 31.8 44.5 31.8 45.05 31.8 45.95 31.45 46.55 31.05 47.15 30.4 47.55 29.8 47.9 29.05 48.05 28.3 48.25 27.55 48.25 L 22.8 48.25 22.8 36.75 M 36.85 43.25 Q 37.45 43.2 37.95 43.2 37.95 42.55 37.5 42.15 37 41.8 36.45 41.8 35.85 41.8 35.3 42.05 34.8 42.3 34.4 42.75 L 33.1 41.4 Q 33.8 40.75 34.7 40.45 35.6 40.15 36.6 40.15 37.65 40.15 38.4 40.45 39.05 40.7 39.45 41.2 39.9 41.75 40.05 42.5 40.2 43.25 40.2 44.2 L 40.2 48.25 37.95 48.25 37.95 47.25 Q 37.5 47.85 36.85 48.2 36.15 48.45 35.45 48.45 34.85 48.45 34.35 48.3 33.8 48.1 33.45 47.8 33.05 47.55 32.85 47.05 32.65 46.6 32.65 46 32.65 45.3 32.85 44.8 33.1 44.4 33.55 44.05 34 43.75 34.55 43.55 35.05 43.4 35.65 43.3 36.25 43.25 36.85 43.25 M 38.05 50.4 Q 38.85 50.15 39.75 50.15 40.7 50.15 41.6 50.4 42.5 50.65 43.25 51.3 L 41.5 53.2 Q 41.2 52.85 40.65 52.7 40.15 52.45 39.7 52.45 39.4 52.45 39.1 52.55 38.8 52.6 38.55 52.75 38.25 52.9 38.1 53.1 37.95 53.35 37.95 53.65 37.95 54.2 38.3 54.45 38.75 54.75 39.35 54.95 39.95 55.1 40.6 55.35 41.3 55.5 41.9 55.9 42.5 56.25 42.9 56.85 43.25 57.45 43.25 58.5 43.25 59.4 42.9 60.1 42.55 60.85 41.95 61.3 41.3 61.8 40.55 62 39.75 62.2 38.8 62.2 37.75 62.2 36.75 61.9 35.8 61.55 34.95 60.8 L 36.75 58.8 Q 37.15 59.35 37.75 59.6 38.3 59.9 38.95 59.9 39.3 59.9 39.6 59.85 39.9 59.8 40.15 59.6 40.45 59.45 40.6 59.25 40.7 59 40.7 58.7 40.7 58.15 40.35 57.9 39.95 57.55 39.35 57.35 38.7 57.2 38.05 56.95 37.35 56.75 36.7 56.35 36.1 56 35.7 55.45 35.35 54.85 35.35 53.85 35.35 52.95 35.65 52.25 36.05 51.55 36.65 51.1 37.3 50.6 38.05 50.4 M 77.35 54.15 Q 78 54.4 78.5 54.95 79 55.5 79.25 56.3 79.5 57.05 79.5 58 L 79.5 58.75 73.85 58.75 Q 74 59.45 74.5 59.9 74.95 60.3 75.65 60.3 76.25 60.3 76.7 60.05 77.15 59.8 77.4 59.35 L 79.15 60.6 Q 78.55 61.35 77.7 61.75 76.75 62.15 75.8 62.15 74.9 62.15 74.1 61.85 73.3 61.55 72.7 61.05 72.1 60.5 71.75 59.7 71.4 58.9 71.4 58 71.4 57.05 71.75 56.3 72.1 55.5 72.7 54.95 73.3 54.4 74.1 54.15 74.9 53.85 75.8 53.85 76.65 53.85 77.35 54.15 M 67.9 53.85 Q 68.65 53.85 69.45 54.1 70.2 54.3 70.75 54.9 L 69.15 56.6 Q 68.95 56.3 68.65 56.15 68.3 56 67.9 56 67 56 66.5 56.55 65.95 57.1 65.95 58 65.95 58.9 66.5 59.45 67 60 67.9 60 68.35 60 68.65 59.85 68.95 59.65 69.15 59.4 L 70.75 61.1 Q 70.2 61.7 69.45 61.9 68.65 62.15 67.9 62.15 67.05 62.15 66.25 61.85 65.45 61.55 64.85 61.05 64.25 60.5 63.9 59.7 63.55 58.9 63.55 58 63.55 57.05 63.9 56.3 64.25 55.5 64.85 54.95 65.45 54.4 66.25 54.15 67.05 53.85 67.9 53.85 M 62.1 56.2 Q 62.3 56.95 62.3 57.95 L 62.3 61.95 60 61.95 60 60.95 Q 59.55 61.55 58.9 61.9 58.2 62.15 57.5 62.15 56.9 62.15 56.45 62 55.9 61.85 55.5 61.5 55.15 61.25 54.9 60.75 54.7 60.3 54.7 59.7 54.7 59 54.9 58.55 55.2 58.1 55.6 57.75 56.05 57.45 56.6 57.3 57.15 57.1 57.75 57 58.35 56.95 58.9 56.95 59.5 56.9 60 56.9 60 56.25 59.55 55.9 59.1 55.5 58.5 55.5 57.9 55.5 57.35 55.75 56.85 56.05 56.5 56.45 L 55.2 55.1 Q 55.9 54.45 56.75 54.15 57.7 53.85 58.65 53.85 59.75 53.85 60.45 54.15 61.1 54.4 61.5 54.9 61.95 55.45 62.1 56.2 M 51.35 54.15 Q 52.05 54.45 52.6 55 53.05 55.55 53.35 56.3 53.6 57 53.6 57.95 53.6 58.75 53.4 59.5 53.1 60.25 52.7 60.85 52.2 61.45 51.55 61.8 50.85 62.15 50.05 62.15 49.25 62.15 48.6 61.9 47.9 61.7 47.55 61.1 L 47.5 61.1 47.5 65.65 45.05 65.65 45.05 54.05 47.3 54.05 47.3 55.05 Q 47.5 54.85 47.7 54.65 47.9 54.4 48.25 54.25 48.55 54.1 48.95 54 49.35 53.85 49.75 53.85 50.65 53.85 51.35 54.15 M 51.15 58 Q 51.15 57.1 50.7 56.55 50.2 56 49.25 56 48.3 56 47.8 56.55 47.3 57.1 47.3 58 47.3 58.9 47.8 59.45 48.3 60 49.25 60 50.2 60 50.7 59.45 51.15 58.9 51.15 58 M 59.4 58.5 Q 59.15 58.5 58.7 58.55 58.35 58.55 57.95 58.65 57.55 58.75 57.3 59 57 59.25 57 59.6 57 60.05 57.4 60.25 57.8 60.5 58.15 60.5 58.55 60.5 58.85 60.4 59.2 60.25 59.45 60.1 59.75 59.95 59.9 59.65 60 59.4 60 59 L 60 58.5 59.4 58.5 M 74.85 55.7 Q 74.55 55.9 74.3 56.1 74.1 56.25 74 56.55 73.9 56.8 73.85 57.1 L 77.1 57.1 Q 77.1 56.45 76.65 56.05 76.2 55.6 75.55 55.6 75.2 55.6 74.85 55.7 M 35.25 45.3 Q 34.95 45.5 34.95 45.9 34.95 46.35 35.35 46.55 35.7 46.75 36.1 46.75 36.5 46.75 36.8 46.65 37.15 46.55 37.4 46.4 37.65 46.25 37.85 45.95 37.95 45.7 37.95 45.3 L 37.95 44.75 37.35 44.75 Q 37.1 44.75 36.65 44.8 36.25 44.8 35.9 44.95 35.5 45.05 35.25 45.3 M 25.3 43.45 L 25.3 46.05 27.6 46.05 Q 27.9 46.05 28.2 46 28.5 45.95 28.75 45.8 29 45.65 29.15 45.35 29.35 45.1 29.35 44.75 29.35 44.35 29.1 44.05 28.9 43.85 28.55 43.7 28.3 43.55 27.9 43.5 27.55 43.45 27.25 43.45 L 25.3 43.45 M 28.6 39.45 Q 28.45 39.25 28.2 39.15 27.95 38.95 27.65 38.9 27.35 38.85 27.05 38.85 L 25.3 38.85 25.3 41.35 27.15 41.35 Q 27.5 41.35 27.75 41.25 28 41.2 28.25 41 28.5 40.9 28.6 40.65 28.8 40.45 28.8 40.05 28.8 39.7 28.6 39.45 Z"
         id="path11" />
      <path
         fill="#404040"
         stroke="none"
         d=" M 52.6 55 Q 52.05 54.45 51.35 54.15 50.65 53.85 49.75 53.85 49.35 53.85 48.95 54 48.55 54.1 48.25 54.25 47.9 54.4 47.7 54.65 47.5 54.85 47.3 55.05 L 47.3 54.05 45.05 54.05 45.05 65.65 47.5 65.65 47.5 61.1 47.55 61.1 Q 47.9 61.7 48.6 61.9 49.25 62.15 50.05 62.15 50.85 62.15 51.55 61.8 52.2 61.45 52.7 60.85 53.1 60.25 53.4 59.5 53.6 58.75 53.6 57.95 53.6 57 53.35 56.3 53.05 55.55 52.6 55 M 50.7 56.55 Q 51.15 57.1 51.15 58 51.15 58.9 50.7 59.45 50.2 60 49.25 60 48.3 60 47.8 59.45 47.3 58.9 47.3 58 47.3 57.1 47.8 56.55 48.3 56 49.25 56 50.2 56 50.7 56.55 M 62.3 57.95 Q 62.3 56.95 62.1 56.2 61.95 55.45 61.5 54.9 61.1 54.4 60.45 54.15 59.75 53.85 58.65 53.85 57.7 53.85 56.75 54.15 55.9 54.45 55.2 55.1 L 56.5 56.45 Q 56.85 56.05 57.35 55.75 57.9 55.5 58.5 55.5 59.1 55.5 59.55 55.9 60 56.25 60 56.9 59.5 56.9 58.9 56.95 58.35 56.95 57.75 57 57.15 57.1 56.6 57.3 56.05 57.45 55.6 57.75 55.2 58.1 54.9 58.55 54.7 59 54.7 59.7 54.7 60.3 54.9 60.75 55.15 61.25 55.5 61.5 55.9 61.85 56.45 62 56.9 62.15 57.5 62.15 58.2 62.15 58.9 61.9 59.55 61.55 60 60.95 L 60 61.95 62.3 61.95 62.3 57.95 M 58.7 58.55 Q 59.15 58.5 59.4 58.5 L 60 58.5 60 59 Q 60 59.4 59.9 59.65 59.75 59.95 59.45 60.1 59.2 60.25 58.85 60.4 58.55 60.5 58.15 60.5 57.8 60.5 57.4 60.25 57 60.05 57 59.6 57 59.25 57.3 59 57.55 58.75 57.95 58.65 58.35 58.55 58.7 58.55 M 69.45 54.1 Q 68.65 53.85 67.9 53.85 67.05 53.85 66.25 54.15 65.45 54.4 64.85 54.95 64.25 55.5 63.9 56.3 63.55 57.05 63.55 58 63.55 58.9 63.9 59.7 64.25 60.5 64.85 61.05 65.45 61.55 66.25 61.85 67.05 62.15 67.9 62.15 68.65 62.15 69.45 61.9 70.2 61.7 70.75 61.1 L 69.15 59.4 Q 68.95 59.65 68.65 59.85 68.35 60 67.9 60 67 60 66.5 59.45 65.95 58.9 65.95 58 65.95 57.1 66.5 56.55 67 56 67.9 56 68.3 56 68.65 56.15 68.95 56.3 69.15 56.6 L 70.75 54.9 Q 70.2 54.3 69.45 54.1 M 78.5 54.95 Q 78 54.4 77.35 54.15 76.65 53.85 75.8 53.85 74.9 53.85 74.1 54.15 73.3 54.4 72.7 54.95 72.1 55.5 71.75 56.3 71.4 57.05 71.4 58 71.4 58.9 71.75 59.7 72.1 60.5 72.7 61.05 73.3 61.55 74.1 61.85 74.9 62.15 75.8 62.15 76.75 62.15 77.7 61.75 78.55 61.35 79.15 60.6 L 77.4 59.35 Q 77.15 59.8 76.7 60.05 76.25 60.3 75.65 60.3 74.95 60.3 74.5 59.9 74 59.45 73.85 58.75 L 79.5 58.75 79.5 58 Q 79.5 57.05 79.25 56.3 79 55.5 78.5 54.95 M 74.3 56.1 Q 74.55 55.9 74.85 55.7 75.2 55.6 75.55 55.6 76.2 55.6 76.65 56.05 77.1 56.45 77.1 57.1 L 73.85 57.1 Q 73.9 56.8 74 56.55 74.1 56.25 74.3 56.1 M 39.75 50.15 Q 38.85 50.15 38.05 50.4 37.3 50.6 36.65 51.1 36.05 51.55 35.65 52.25 35.35 52.95 35.35 53.85 35.35 54.85 35.7 55.45 36.1 56 36.7 56.35 37.35 56.75 38.05 56.95 38.7 57.2 39.35 57.35 39.95 57.55 40.35 57.9 40.7 58.15 40.7 58.7 40.7 59 40.6 59.25 40.45 59.45 40.15 59.6 39.9 59.8 39.6 59.85 39.3 59.9 38.95 59.9 38.3 59.9 37.75 59.6 37.15 59.35 36.75 58.8 L 34.95 60.8 Q 35.8 61.55 36.75 61.9 37.75 62.2 38.8 62.2 39.75 62.2 40.55 62 41.3 61.8 41.95 61.3 42.55 60.85 42.9 60.1 43.25 59.4 43.25 58.5 43.25 57.45 42.9 56.85 42.5 56.25 41.9 55.9 41.3 55.5 40.6 55.35 39.95 55.1 39.35 54.95 38.75 54.75 38.3 54.45 37.95 54.2 37.95 53.65 37.95 53.35 38.1 53.1 38.25 52.9 38.55 52.75 38.8 52.6 39.1 52.55 39.4 52.45 39.7 52.45 40.15 52.45 40.65 52.7 41.2 52.85 41.5 53.2 L 43.25 51.3 Q 42.5 50.65 41.6 50.4 40.7 50.15 39.75 50.15 M 37.95 43.2 Q 37.45 43.2 36.85 43.25 36.25 43.25 35.65 43.3 35.05 43.4 34.55 43.55 34 43.75 33.55 44.05 33.1 44.4 32.85 44.8 32.65 45.3 32.65 46 32.65 46.6 32.85 47.05 33.05 47.55 33.45 47.8 33.8 48.1 34.35 48.3 34.85 48.45 35.45 48.45 36.15 48.45 36.85 48.2 37.5 47.85 37.95 47.25 L 37.95 48.25 40.2 48.25 40.2 44.2 Q 40.2 43.25 40.05 42.5 39.9 41.75 39.45 41.2 39.05 40.7 38.4 40.45 37.65 40.15 36.6 40.15 35.6 40.15 34.7 40.45 33.8 40.75 33.1 41.4 L 34.4 42.75 Q 34.8 42.3 35.3 42.05 35.85 41.8 36.45 41.8 37 41.8 37.5 42.15 37.95 42.55 37.95 43.2 M 34.95 45.9 Q 34.95 45.5 35.25 45.3 35.5 45.05 35.9 44.95 36.25 44.8 36.65 44.8 37.1 44.75 37.35 44.75 L 37.95 44.75 37.95 45.3 Q 37.95 45.7 37.85 45.95 37.65 46.25 37.4 46.4 37.15 46.55 36.8 46.65 36.5 46.75 36.1 46.75 35.7 46.75 35.35 46.55 34.95 46.35 34.95 45.9 M 27.1 36.75 L 22.8 36.75 22.8 48.25 27.55 48.25 Q 28.3 48.25 29.05 48.05 29.8 47.9 30.4 47.55 31.05 47.15 31.45 46.55 31.8 45.95 31.8 45.05 31.8 44.5 31.65 44 31.5 43.5 31.1 43.15 30.8 42.75 30.35 42.55 29.85 42.3 29.35 42.2 L 29.35 42.15 Q 30.2 41.9 30.75 41.3 31.3 40.65 31.3 39.65 31.3 38.7 30.95 38.15 30.55 37.55 30 37.25 29.4 36.95 28.55 36.85 27.85 36.75 27.1 36.75 M 28.2 39.15 Q 28.45 39.25 28.6 39.45 28.8 39.7 28.8 40.05 28.8 40.45 28.6 40.65 28.5 40.9 28.25 41 28 41.2 27.75 41.25 27.5 41.35 27.15 41.35 L 25.3 41.35 25.3 38.85 27.05 38.85 Q 27.35 38.85 27.65 38.9 27.95 38.95 28.2 39.15 M 25.3 46.05 L 25.3 43.45 27.25 43.45 Q 27.55 43.45 27.9 43.5 28.3 43.55 28.55 43.7 28.9 43.85 29.1 44.05 29.35 44.35 29.35 44.75 29.35 45.1 29.15 45.35 29 45.65 28.75 45.8 28.5 45.95 28.2 46 27.9 46.05 27.6 46.05 L 25.3 46.05 M 54.75 40.3 L 52.05 43.45 52.05 35.95 49.6 35.95 49.6 48.25 52.05 48.25 52.05 44.2 52.1 44.2 54.75 48.25 57.8 48.25 54.6 43.9 57.75 40.3 54.75 40.3 M 46.55 42.45 Q 46.9 42.6 47.1 42.85 L 48.7 41.2 Q 48.15 40.6 47.4 40.35 46.55 40.15 45.85 40.15 45 40.15 44.2 40.45 43.35 40.7 42.75 41.25 42.15 41.8 41.85 42.6 41.45 43.35 41.45 44.3 41.45 45.2 41.85 46 42.15 46.75 42.75 47.3 43.35 47.85 44.2 48.1 45 48.45 45.85 48.45 46.55 48.45 47.4 48.2 48.15 47.95 48.7 47.35 L 47.1 45.7 Q 46.9 45.95 46.55 46.1 46.3 46.3 45.85 46.3 44.95 46.3 44.45 45.75 43.9 45.2 43.9 44.3 43.9 43.4 44.45 42.8 44.95 42.25 45.85 42.25 46.25 42.25 46.55 42.45 Z"
         id="path13" />
    </g>
    <path
       id="Layer3_0_1_STROKES"
       stroke="#696969"
       stroke-width="4"
       stroke-linejoin="round"
       stroke-linecap="round"
       fill="none"
       d=" M 67.7 70.95 L 81.5 70.95 Q 85.1 70.95 85.1 67.35 84.15 50.5 85.1 33.55 85.1 29.95 81.5 29.95 L 67.7 29.95 M 66.6 29.95 L 19.5 29.95 Q 15.85 29.95 15.85 33.55 16.85 50.5 15.85 67.35 15.85 70.95 19.5 70.95 L 66.6 70.95" />
    <path
       id="Layer3_0_2_STROKES"
       stroke="#1D1D1D"
       stroke-width="5"
       stroke-linejoin="round"
       stroke-linecap="round"
       fill="none"
       d=" M 87.95 22.1 Q 92.95 22.1 92.95 27.1 91.85 50.5 92.95 73.8 92.95 78.8 87.95 78.8 L 13.05 78.8 Q 8.05 78.8 8.05 73.8 9.1 50.5 8.05 27.1 8.05 22.1 13.05 22.1 L 87.95 22.1 Z" />
    <path
       id="Layer2_0_1_STROKES"
       stroke="#FFFFFF"
       stroke-width="4"
       stroke-linejoin="round"
       stroke-linecap="round"
       fill="none"
       d=" M 67.7 70.95 L 81.5 70.95 Q 85.1 70.95 85.1 67.35 84.15 50.5 85.1 33.55 85.1 29.95 81.5 29.95 L 67.7 29.95 M 66.6 29.95 L 19.5 29.95 Q 15.85 29.95 15.85 33.55 16.85 50.5 15.85 67.35 15.85 70.95 19.5 70.95 L 66.6 70.95" />
    <path
       id="Layer2_0_2_STROKES"
       stroke="#404040"
       stroke-width="5"
       stroke-linejoin="round"
       stroke-linecap="round"
       fill="none"
       d=" M 87.95 22.1 Q 92.95 22.1 92.95 27.1 91.85 50.5 92.95 73.8 92.95 78.8 87.95 78.8 L 13.05 78.8 Q 8.05 78.8 8.05 73.8 9.1 50.5 8.05 27.1 8.05 22.1 13.05 22.1 L 87.95 22.1 Z" />
  </defs>
  <g
     transform="matrix( 1, 0, 0, 1, 0,0) "
     id="g28">
    <use
       xlink:href="#Layer3_0_FILL"
       id="use22" />
    <use
       xlink:href="#Layer3_0_1_STROKES"
       id="use24" />
    <use
       xlink:href="#Layer3_0_2_STROKES"
       id="use26" />
  </g>
  <g
     id="g36"
     style="display:none">
    <use
       xlink:href="#Layer2_0_FILL"
       id="use30" />
    <use
       xlink:href="#Layer2_0_1_STROKES"
       id="use32" />
    <use
       xlink:href="#Layer2_0_2_STROKES"
       id="use34" />
  </g>
</svg>
