
<svg xmlns="http://www.w3.org/2000/svg" version="1.1" xmlns:xlink="http://www.w3.org/1999/xlink" preserveAspectRatio="none" x="0px" y="0px" width="100px" height="100px" viewBox="0 0 100 100">
<defs>
<g id="Layer3_0_FILL">
<path fill="#353535" stroke="none" d="
M 95.4 32.7
Q 95.4 28.9 91.6 28.9
L 9.35 28.9
Q 5.6 28.9 5.6 32.7 6.35 50.45 5.6 68.15 5.6 71.95 9.35 71.95
L 91.6 71.95
Q 95.4 71.95 95.4 68.15 94.55 50.45 95.4 32.7
M 86.7 34.9
Q 89.4 34.9 89.4 37.6 88.7 50.45 89.4 63.25 89.4 66 86.7 66
L 76.2 66 75.4 66 14.25 66
Q 11.5 66 11.5 63.25 12.25 50.45 11.5 37.6 11.5 34.9 14.25 34.9
L 75.4 34.9 76.2 34.9 86.7 34.9 Z"/>

<path fill="#595959" stroke="none" d="
M 89.4 37.6
Q 89.4 34.9 86.7 34.9
L 76.2 34.9 75.4 34.9 14.25 34.9
Q 11.5 34.9 11.5 37.6 12.25 50.45 11.5 63.25 11.5 66 14.25 66
L 75.4 66 76.2 66 86.7 66
Q 89.4 66 89.4 63.25 88.7 50.45 89.4 37.6
M 81.2 41.75
L 81.2 44.65 83.85 44.65 83.85 47.05 81.2 47.05 81.2 50.3
Q 81.2 50.7 81.25 51 81.25 51.35 81.4 51.6 81.55 51.8 81.85 51.95 82.15 52.05 82.6 52.05 82.85 52.05 83.25 52.05 83.65 52 83.85 51.8
L 83.85 54.3
Q 83.35 54.5 82.8 54.55 82.25 54.6 81.75 54.6 80.95 54.6 80.35 54.45 79.7 54.25 79.2 53.9 78.75 53.6 78.45 53 78.2 52.45 78.2 51.65
L 78.2 47.05 76.25 47.05 76.25 44.65 78.2 44.65 78.2 41.75 81.2 41.75
M 47.9 40.15
Q 49.05 40.5 49.95 41.3
L 47.8 43.65
Q 47.4 43.15 46.75 42.95 46.1 42.7 45.55 42.7 45.2 42.7 44.85 42.8 44.5 42.85 44.15 43.05 43.85 43.2 43.65 43.5 43.45 43.75 43.45 44.15 43.45 44.8 43.9 45.15 44.4 45.5 45.1 45.75 45.85 45.95 46.7 46.2 47.55 46.45 48.25 46.9 49 47.35 49.5 48.05 49.95 48.8 49.95 50.05 49.95 51.25 49.5 52.1 49.1 53 48.3 53.55 47.6 54.15 46.6 54.45 45.6 54.7 44.5 54.7 43.1 54.7 41.95 54.3 40.75 53.85 39.75 52.95
L 41.95 50.5
Q 42.45 51.15 43.15 51.5 43.9 51.85 44.7 51.85 45.05 51.85 45.45 51.75 45.85 51.65 46.15 51.45 46.45 51.3 46.65 51 46.85 50.75 46.85 50.35 46.85 49.7 46.35 49.35 45.85 48.95 45.1 48.7 44.4 48.45 43.5 48.2 42.65 47.95 41.9 47.5 41.2 47.05 40.7 46.35 40.2 45.6 40.2 44.45 40.2 43.3 40.65 42.45 41.1 41.55 41.85 41 42.6 40.4 43.55 40.1 44.55 39.85 45.6 39.85 46.8 39.85 47.9 40.15
M 52.2 39.25
L 55.2 39.25 55.2 45.95 55.25 45.95
Q 55.35 45.65 55.6 45.4 55.85 45.1 56.15 44.9 56.5 44.65 56.95 44.55 57.45 44.4 57.95 44.4 59.1 44.4 59.8 44.75 60.5 45.1 60.9 45.7 61.3 46.35 61.45 47.15 61.55 48 61.55 49
L 61.55 54.35 58.55 54.35 58.55 49.6
Q 58.55 49.15 58.55 48.7 58.5 48.25 58.35 47.9 58.2 47.5 57.9 47.25 57.6 47.05 57 47.05 56.45 47.05 56.05 47.25 55.7 47.45 55.55 47.8 55.35 48.15 55.25 48.6 55.2 49.05 55.2 49.5
L 55.2 54.35 52.2 54.35 52.2 39.25
M 67.3 41.55
Q 67.3 42.3 66.8 42.8 66.25 43.3 65.55 43.3 64.85 43.3 64.3 42.8 63.8 42.3 63.8 41.55 63.8 40.85 64.3 40.35 64.85 39.85 65.55 39.85 66.25 39.85 66.8 40.35 67.3 40.85 67.3 41.55
M 70.55 42.9
Q 70.55 42.1 70.7 41.4 70.85 40.7 71.25 40.15 71.65 39.6 72.4 39.3 73.15 39 74.35 39 74.8 39 75.25 39.05 75.7 39.05 76.1 39.15
L 75.95 41.7
Q 75.7 41.6 75.5 41.55 75.25 41.5 75 41.5 74.25 41.5 73.9 41.8 73.55 42.15 73.55 43.1
L 73.55 44.65 75.75 44.65 75.75 47.05 73.55 47.05 73.55 54.35 70.55 54.35 70.55 47.05 68.55 47.05 68.55 44.65 70.55 44.65 70.55 42.9
M 64.05 44.65
L 67.05 44.65 67.05 54.35 64.05 54.35 64.05 44.65 Z"/>

<path fill="#CDCDCD" stroke="none" d="
M 67.05 44.65
L 64.05 44.65 64.05 54.35 67.05 54.35 67.05 44.65
M 70.7 41.4
Q 70.55 42.1 70.55 42.9
L 70.55 44.65 68.55 44.65 68.55 47.05 70.55 47.05 70.55 54.35 73.55 54.35 73.55 47.05 75.75 47.05 75.75 44.65 73.55 44.65 73.55 43.1
Q 73.55 42.15 73.9 41.8 74.25 41.5 75 41.5 75.25 41.5 75.5 41.55 75.7 41.6 75.95 41.7
L 76.1 39.15
Q 75.7 39.05 75.25 39.05 74.8 39 74.35 39 73.15 39 72.4 39.3 71.65 39.6 71.25 40.15 70.85 40.7 70.7 41.4
M 66.8 42.8
Q 67.3 42.3 67.3 41.55 67.3 40.85 66.8 40.35 66.25 39.85 65.55 39.85 64.85 39.85 64.3 40.35 63.8 40.85 63.8 41.55 63.8 42.3 64.3 42.8 64.85 43.3 65.55 43.3 66.25 43.3 66.8 42.8
M 55.2 39.25
L 52.2 39.25 52.2 54.35 55.2 54.35 55.2 49.5
Q 55.2 49.05 55.25 48.6 55.35 48.15 55.55 47.8 55.7 47.45 56.05 47.25 56.45 47.05 57 47.05 57.6 47.05 57.9 47.25 58.2 47.5 58.35 47.9 58.5 48.25 58.55 48.7 58.55 49.15 58.55 49.6
L 58.55 54.35 61.55 54.35 61.55 49
Q 61.55 48 61.45 47.15 61.3 46.35 60.9 45.7 60.5 45.1 59.8 44.75 59.1 44.4 57.95 44.4 57.45 44.4 56.95 44.55 56.5 44.65 56.15 44.9 55.85 45.1 55.6 45.4 55.35 45.65 55.25 45.95
L 55.2 45.95 55.2 39.25
M 49.95 41.3
Q 49.05 40.5 47.9 40.15 46.8 39.85 45.6 39.85 44.55 39.85 43.55 40.1 42.6 40.4 41.85 41 41.1 41.55 40.65 42.45 40.2 43.3 40.2 44.45 40.2 45.6 40.7 46.35 41.2 47.05 41.9 47.5 42.65 47.95 43.5 48.2 44.4 48.45 45.1 48.7 45.85 48.95 46.35 49.35 46.85 49.7 46.85 50.35 46.85 50.75 46.65 51 46.45 51.3 46.15 51.45 45.85 51.65 45.45 51.75 45.05 51.85 44.7 51.85 43.9 51.85 43.15 51.5 42.45 51.15 41.95 50.5
L 39.75 52.95
Q 40.75 53.85 41.95 54.3 43.1 54.7 44.5 54.7 45.6 54.7 46.6 54.45 47.6 54.15 48.3 53.55 49.1 53 49.5 52.1 49.95 51.25 49.95 50.05 49.95 48.8 49.5 48.05 49 47.35 48.25 46.9 47.55 46.45 46.7 46.2 45.85 45.95 45.1 45.75 44.4 45.5 43.9 45.15 43.45 44.8 43.45 44.15 43.45 43.75 43.65 43.5 43.85 43.2 44.15 43.05 44.5 42.85 44.85 42.8 45.2 42.7 45.55 42.7 46.1 42.7 46.75 42.95 47.4 43.15 47.8 43.65
L 49.95 41.3
M 81.2 44.65
L 81.2 41.75 78.2 41.75 78.2 44.65 76.25 44.65 76.25 47.05 78.2 47.05 78.2 51.65
Q 78.2 52.45 78.45 53 78.75 53.6 79.2 53.9 79.7 54.25 80.35 54.45 80.95 54.6 81.75 54.6 82.25 54.6 82.8 54.55 83.35 54.5 83.85 54.3
L 83.85 51.8
Q 83.65 52 83.25 52.05 82.85 52.05 82.6 52.05 82.15 52.05 81.85 51.95 81.55 51.8 81.4 51.6 81.25 51.35 81.25 51 81.2 50.7 81.2 50.3
L 81.2 47.05 83.85 47.05 83.85 44.65 81.2 44.65 Z"/>
</g>

<g id="Layer2_0_FILL">
<path fill="#D7D7D7" stroke="none" d="
M 95.4 32.7
Q 95.4 28.9 91.6 28.9
L 9.35 28.9
Q 5.6 28.9 5.6 32.7 6.35 50.45 5.6 68.15 5.6 71.95 9.35 71.95
L 91.6 71.95
Q 95.4 71.95 95.4 68.15 94.55 50.45 95.4 32.7
M 86.7 34.9
Q 89.4 34.9 89.4 37.6 88.7 50.45 89.4 63.25 89.4 66 86.7 66
L 76.2 66 75.4 66 14.25 66
Q 11.5 66 11.5 63.25 12.25 50.45 11.5 37.6 11.5 34.9 14.25 34.9
L 75.4 34.9 76.2 34.9 86.7 34.9 Z"/>

<path fill="#F5F5F5" stroke="none" d="
M 89.4 37.6
Q 89.4 34.9 86.7 34.9
L 76.2 34.9 75.4 34.9 14.25 34.9
Q 11.5 34.9 11.5 37.6 12.25 50.45 11.5 63.25 11.5 66 14.25 66
L 75.4 66 76.2 66 86.7 66
Q 89.4 66 89.4 63.25 88.7 50.45 89.4 37.6
M 81.2 41.75
L 81.2 44.65 83.85 44.65 83.85 47.05 81.2 47.05 81.2 50.3
Q 81.2 50.7 81.25 51 81.25 51.35 81.4 51.6 81.55 51.8 81.85 51.95 82.15 52.05 82.6 52.05 82.85 52.05 83.25 52.05 83.65 52 83.85 51.8
L 83.85 54.3
Q 83.35 54.5 82.8 54.55 82.25 54.6 81.75 54.6 80.95 54.6 80.35 54.45 79.7 54.25 79.2 53.9 78.75 53.6 78.45 53 78.2 52.45 78.2 51.65
L 78.2 47.05 76.25 47.05 76.25 44.65 78.2 44.65 78.2 41.75 81.2 41.75
M 47.9 40.15
Q 49.05 40.5 49.95 41.3
L 47.8 43.65
Q 47.4 43.15 46.75 42.95 46.1 42.7 45.55 42.7 45.2 42.7 44.85 42.8 44.5 42.85 44.15 43.05 43.85 43.2 43.65 43.5 43.45 43.75 43.45 44.15 43.45 44.8 43.9 45.15 44.4 45.5 45.1 45.75 45.85 45.95 46.7 46.2 47.55 46.45 48.25 46.9 49 47.35 49.5 48.05 49.95 48.8 49.95 50.05 49.95 51.25 49.5 52.1 49.1 53 48.3 53.55 47.6 54.15 46.6 54.45 45.6 54.7 44.5 54.7 43.1 54.7 41.95 54.3 40.75 53.85 39.75 52.95
L 41.95 50.5
Q 42.45 51.15 43.15 51.5 43.9 51.85 44.7 51.85 45.05 51.85 45.45 51.75 45.85 51.65 46.15 51.45 46.45 51.3 46.65 51 46.85 50.75 46.85 50.35 46.85 49.7 46.35 49.35 45.85 48.95 45.1 48.7 44.4 48.45 43.5 48.2 42.65 47.95 41.9 47.5 41.2 47.05 40.7 46.35 40.2 45.6 40.2 44.45 40.2 43.3 40.65 42.45 41.1 41.55 41.85 41 42.6 40.4 43.55 40.1 44.55 39.85 45.6 39.85 46.8 39.85 47.9 40.15
M 52.2 39.25
L 55.2 39.25 55.2 45.95 55.25 45.95
Q 55.35 45.65 55.6 45.4 55.85 45.1 56.15 44.9 56.5 44.65 56.95 44.55 57.45 44.4 57.95 44.4 59.1 44.4 59.8 44.75 60.5 45.1 60.9 45.7 61.3 46.35 61.45 47.15 61.55 48 61.55 49
L 61.55 54.35 58.55 54.35 58.55 49.6
Q 58.55 49.15 58.55 48.7 58.5 48.25 58.35 47.9 58.2 47.5 57.9 47.25 57.6 47.05 57 47.05 56.45 47.05 56.05 47.25 55.7 47.45 55.55 47.8 55.35 48.15 55.25 48.6 55.2 49.05 55.2 49.5
L 55.2 54.35 52.2 54.35 52.2 39.25
M 67.3 41.55
Q 67.3 42.3 66.8 42.8 66.25 43.3 65.55 43.3 64.85 43.3 64.3 42.8 63.8 42.3 63.8 41.55 63.8 40.85 64.3 40.35 64.85 39.85 65.55 39.85 66.25 39.85 66.8 40.35 67.3 40.85 67.3 41.55
M 70.55 42.9
Q 70.55 42.1 70.7 41.4 70.85 40.7 71.25 40.15 71.65 39.6 72.4 39.3 73.15 39 74.35 39 74.8 39 75.25 39.05 75.7 39.05 76.1 39.15
L 75.95 41.7
Q 75.7 41.6 75.5 41.55 75.25 41.5 75 41.5 74.25 41.5 73.9 41.8 73.55 42.15 73.55 43.1
L 73.55 44.65 75.75 44.65 75.75 47.05 73.55 47.05 73.55 54.35 70.55 54.35 70.55 47.05 68.55 47.05 68.55 44.65 70.55 44.65 70.55 42.9
M 64.05 44.65
L 67.05 44.65 67.05 54.35 64.05 54.35 64.05 44.65 Z"/>

<path fill="#404040" stroke="none" d="
M 67.05 44.65
L 64.05 44.65 64.05 54.35 67.05 54.35 67.05 44.65
M 70.7 41.4
Q 70.55 42.1 70.55 42.9
L 70.55 44.65 68.55 44.65 68.55 47.05 70.55 47.05 70.55 54.35 73.55 54.35 73.55 47.05 75.75 47.05 75.75 44.65 73.55 44.65 73.55 43.1
Q 73.55 42.15 73.9 41.8 74.25 41.5 75 41.5 75.25 41.5 75.5 41.55 75.7 41.6 75.95 41.7
L 76.1 39.15
Q 75.7 39.05 75.25 39.05 74.8 39 74.35 39 73.15 39 72.4 39.3 71.65 39.6 71.25 40.15 70.85 40.7 70.7 41.4
M 66.8 42.8
Q 67.3 42.3 67.3 41.55 67.3 40.85 66.8 40.35 66.25 39.85 65.55 39.85 64.85 39.85 64.3 40.35 63.8 40.85 63.8 41.55 63.8 42.3 64.3 42.8 64.85 43.3 65.55 43.3 66.25 43.3 66.8 42.8
M 55.2 39.25
L 52.2 39.25 52.2 54.35 55.2 54.35 55.2 49.5
Q 55.2 49.05 55.25 48.6 55.35 48.15 55.55 47.8 55.7 47.45 56.05 47.25 56.45 47.05 57 47.05 57.6 47.05 57.9 47.25 58.2 47.5 58.35 47.9 58.5 48.25 58.55 48.7 58.55 49.15 58.55 49.6
L 58.55 54.35 61.55 54.35 61.55 49
Q 61.55 48 61.45 47.15 61.3 46.35 60.9 45.7 60.5 45.1 59.8 44.75 59.1 44.4 57.95 44.4 57.45 44.4 56.95 44.55 56.5 44.65 56.15 44.9 55.85 45.1 55.6 45.4 55.35 45.65 55.25 45.95
L 55.2 45.95 55.2 39.25
M 49.95 41.3
Q 49.05 40.5 47.9 40.15 46.8 39.85 45.6 39.85 44.55 39.85 43.55 40.1 42.6 40.4 41.85 41 41.1 41.55 40.65 42.45 40.2 43.3 40.2 44.45 40.2 45.6 40.7 46.35 41.2 47.05 41.9 47.5 42.65 47.95 43.5 48.2 44.4 48.45 45.1 48.7 45.85 48.95 46.35 49.35 46.85 49.7 46.85 50.35 46.85 50.75 46.65 51 46.45 51.3 46.15 51.45 45.85 51.65 45.45 51.75 45.05 51.85 44.7 51.85 43.9 51.85 43.15 51.5 42.45 51.15 41.95 50.5
L 39.75 52.95
Q 40.75 53.85 41.95 54.3 43.1 54.7 44.5 54.7 45.6 54.7 46.6 54.45 47.6 54.15 48.3 53.55 49.1 53 49.5 52.1 49.95 51.25 49.95 50.05 49.95 48.8 49.5 48.05 49 47.35 48.25 46.9 47.55 46.45 46.7 46.2 45.85 45.95 45.1 45.75 44.4 45.5 43.9 45.15 43.45 44.8 43.45 44.15 43.45 43.75 43.65 43.5 43.85 43.2 44.15 43.05 44.5 42.85 44.85 42.8 45.2 42.7 45.55 42.7 46.1 42.7 46.75 42.95 47.4 43.15 47.8 43.65
L 49.95 41.3
M 81.2 44.65
L 81.2 41.75 78.2 41.75 78.2 44.65 76.25 44.65 76.25 47.05 78.2 47.05 78.2 51.65
Q 78.2 52.45 78.45 53 78.75 53.6 79.2 53.9 79.7 54.25 80.35 54.45 80.95 54.6 81.75 54.6 82.25 54.6 82.8 54.55 83.35 54.5 83.85 54.3
L 83.85 51.8
Q 83.65 52 83.25 52.05 82.85 52.05 82.6 52.05 82.15 52.05 81.85 51.95 81.55 51.8 81.4 51.6 81.25 51.35 81.25 51 81.2 50.7 81.2 50.3
L 81.2 47.05 83.85 47.05 83.85 44.65 81.2 44.65 Z"/>
</g>

<path id="Layer3_0_1_STROKES" stroke="#696969" stroke-width="4" stroke-linejoin="round" stroke-linecap="round" fill="none" d="
M 76.2 66
L 86.7 66
Q 89.4 66 89.4 63.25 88.7 50.45 89.4 37.6 89.4 34.9 86.7 34.9
L 76.2 34.9
M 75.4 34.9
L 14.25 34.9
Q 11.5 34.9 11.5 37.6 12.25 50.45 11.5 63.25 11.5 66 14.25 66
L 75.4 66"/>

<path id="Layer3_0_2_STROKES" stroke="#1D1D1D" stroke-width="5" stroke-linejoin="round" stroke-linecap="round" fill="none" d="
M 91.6 28.9
Q 95.4 28.9 95.4 32.7 94.55 50.45 95.4 68.15 95.4 71.95 91.6 71.95
L 9.35 71.95
Q 5.6 71.95 5.6 68.15 6.35 50.45 5.6 32.7 5.6 28.9 9.35 28.9
L 91.6 28.9 Z"/>

<path id="Layer2_0_1_STROKES" stroke="#FFFFFF" stroke-width="4" stroke-linejoin="round" stroke-linecap="round" fill="none" d="
M 76.2 66
L 86.7 66
Q 89.4 66 89.4 63.25 88.7 50.45 89.4 37.6 89.4 34.9 86.7 34.9
L 76.2 34.9
M 75.4 34.9
L 14.25 34.9
Q 11.5 34.9 11.5 37.6 12.25 50.45 11.5 63.25 11.5 66 14.25 66
L 75.4 66"/>

<path id="Layer2_0_2_STROKES" stroke="#404040" stroke-width="5" stroke-linejoin="round" stroke-linecap="round" fill="none" d="
M 91.6 28.9
Q 95.4 28.9 95.4 32.7 94.55 50.45 95.4 68.15 95.4 71.95 91.6 71.95
L 9.35 71.95
Q 5.6 71.95 5.6 68.15 6.35 50.45 5.6 32.7 5.6 28.9 9.35 28.9
L 91.6 28.9 Z"/>
</defs>

<g transform="matrix( 1, 0, 0, 1, 0,0) ">
<use xlink:href="#Layer3_0_FILL"/>

<use xlink:href="#Layer3_0_1_STROKES"/>

<use xlink:href="#Layer3_0_2_STROKES"/>
</g>

<g transform="matrix( 1, 0, 0, 1, 0,0) ">
<use xlink:href="#Layer2_0_FILL"/>

<use xlink:href="#Layer2_0_1_STROKES"/>

<use xlink:href="#Layer2_0_2_STROKES"/>
</g>
</svg>
