
<svg xmlns="http://www.w3.org/2000/svg" version="1.1" xmlns:xlink="http://www.w3.org/1999/xlink" preserveAspectRatio="none" x="0px" y="0px" width="100px" height="100px" viewBox="0 0 100 100">
<defs>
<g id="Layer3_0_FILL">
<path fill="#353535" stroke="none" d="
M 84.95 77.8
Q 83.7 50.5 84.95 23.15 84.95 17.3 79.1 17.3
L 21.9 17.3
Q 16.05 17.3 16.05 23.15 17.3 50.5 16.05 77.8 16.05 83.65 21.9 83.65
L 79.1 83.65
Q 84.95 83.65 84.95 77.8
M 54.15 26.45
L 55.4 26.45 71.55 26.45
Q 75.8 26.45 75.8 30.7 74.65 50.5 75.8 70.25 75.8 74.45 71.55 74.45
L 55.4 74.45 54.15 74.45 29.45 74.45
Q 25.2 74.45 25.2 70.25 26.35 50.5 25.2 30.7 25.2 26.45 29.45 26.45
L 54.15 26.45 Z"/>

<path fill="#595959" stroke="none" d="
M 55.4 26.45
L 54.15 26.45 29.45 26.45
Q 25.2 26.45 25.2 30.7 26.35 50.5 25.2 70.25 25.2 74.45 29.45 74.45
L 54.15 74.45 55.4 74.45 71.55 74.45
Q 75.8 74.45 75.8 70.25 74.65 50.5 75.8 30.7 75.8 26.45 71.55 26.45
L 55.4 26.45
M 58.95 49.05
Q 59.75 48.6 60.45 48.05 61.1 47.4 61.65 46.7 62.25 45.9 62.8 45.15
L 65.05 51.95
Q 64.55 53 63.8 53.95 63.1 54.9 62.15 55.7 61.2 56.4 60 56.9 58.75 57.4 57.2 57.4 55.55 57.4 53.75 56.8 52 56.2 50.2 55.4 48.4 54.6 46.75 53.85 45.05 53.1 43.8 53.1 42.85 53.1 42.05 53.5 41.25 53.95 40.6 54.5 39.95 55.15 39.35 55.85 38.8 56.65 38.25 57.4
L 35.95 50.6
Q 36.45 49.55 37.2 48.6 37.9 47.65 38.85 46.85 39.8 46.15 41.05 45.65 42.3 45.15 43.85 45.15 45.45 45.15 47.25 45.75 49 46.35 50.8 47.15 52.6 47.95 54.3 48.7 56 49.45 57.25 49.45 58.2 49.45 58.95 49.05 Z"/>

<path fill="#CDCDCD" stroke="none" d="
M 60.45 48.05
Q 59.75 48.6 58.95 49.05 58.2 49.45 57.25 49.45 56 49.45 54.3 48.7 52.6 47.95 50.8 47.15 49 46.35 47.25 45.75 45.45 45.15 43.85 45.15 42.3 45.15 41.05 45.65 39.8 46.15 38.85 46.85 37.9 47.65 37.2 48.6 36.45 49.55 35.95 50.6
L 38.25 57.4
Q 38.8 56.65 39.35 55.85 39.95 55.15 40.6 54.5 41.25 53.95 42.05 53.5 42.85 53.1 43.8 53.1 45.05 53.1 46.75 53.85 48.4 54.6 50.2 55.4 52 56.2 53.75 56.8 55.55 57.4 57.2 57.4 58.75 57.4 60 56.9 61.2 56.4 62.15 55.7 63.1 54.9 63.8 53.95 64.55 53 65.05 51.95
L 62.8 45.15
Q 62.25 45.9 61.65 46.7 61.1 47.4 60.45 48.05 Z"/>
</g>

<g id="Layer2_0_FILL">
<path fill="#D7D7D7" stroke="none" d="
M 84.95 77.8
Q 83.7 50.5 84.95 23.15 84.95 17.3 79.1 17.3
L 21.9 17.3
Q 16.05 17.3 16.05 23.15 17.3 50.5 16.05 77.8 16.05 83.65 21.9 83.65
L 79.1 83.65
Q 84.95 83.65 84.95 77.8
M 54.15 26.45
L 55.4 26.45 71.55 26.45
Q 75.8 26.45 75.8 30.7 74.65 50.5 75.8 70.25 75.8 74.45 71.55 74.45
L 55.4 74.45 54.15 74.45 29.45 74.45
Q 25.2 74.45 25.2 70.25 26.35 50.5 25.2 30.7 25.2 26.45 29.45 26.45
L 54.15 26.45 Z"/>

<path fill="#F5F5F5" stroke="none" d="
M 55.4 26.45
L 54.15 26.45 29.45 26.45
Q 25.2 26.45 25.2 30.7 26.35 50.5 25.2 70.25 25.2 74.45 29.45 74.45
L 54.15 74.45 55.4 74.45 71.55 74.45
Q 75.8 74.45 75.8 70.25 74.65 50.5 75.8 30.7 75.8 26.45 71.55 26.45
L 55.4 26.45
M 58.95 49.05
Q 59.75 48.6 60.45 48.05 61.1 47.4 61.65 46.7 62.25 45.9 62.8 45.15
L 65.05 51.95
Q 64.55 53 63.8 53.95 63.1 54.9 62.15 55.7 61.2 56.4 60 56.9 58.75 57.4 57.2 57.4 55.55 57.4 53.75 56.8 52 56.2 50.2 55.4 48.4 54.6 46.75 53.85 45.05 53.1 43.8 53.1 42.85 53.1 42.05 53.5 41.25 53.95 40.6 54.5 39.95 55.15 39.35 55.85 38.8 56.65 38.25 57.4
L 35.95 50.6
Q 36.45 49.55 37.2 48.6 37.9 47.65 38.85 46.85 39.8 46.15 41.05 45.65 42.3 45.15 43.85 45.15 45.45 45.15 47.25 45.75 49 46.35 50.8 47.15 52.6 47.95 54.3 48.7 56 49.45 57.25 49.45 58.2 49.45 58.95 49.05 Z"/>

<path fill="#404040" stroke="none" d="
M 60.45 48.05
Q 59.75 48.6 58.95 49.05 58.2 49.45 57.25 49.45 56 49.45 54.3 48.7 52.6 47.95 50.8 47.15 49 46.35 47.25 45.75 45.45 45.15 43.85 45.15 42.3 45.15 41.05 45.65 39.8 46.15 38.85 46.85 37.9 47.65 37.2 48.6 36.45 49.55 35.95 50.6
L 38.25 57.4
Q 38.8 56.65 39.35 55.85 39.95 55.15 40.6 54.5 41.25 53.95 42.05 53.5 42.85 53.1 43.8 53.1 45.05 53.1 46.75 53.85 48.4 54.6 50.2 55.4 52 56.2 53.75 56.8 55.55 57.4 57.2 57.4 58.75 57.4 60 56.9 61.2 56.4 62.15 55.7 63.1 54.9 63.8 53.95 64.55 53 65.05 51.95
L 62.8 45.15
Q 62.25 45.9 61.65 46.7 61.1 47.4 60.45 48.05 Z"/>
</g>

<path id="Layer3_0_1_STROKES" stroke="#1D1D1D" stroke-width="5" stroke-linejoin="round" stroke-linecap="round" fill="none" d="
M 84.95 23.15
Q 83.7 50.5 84.95 77.8 84.95 83.65 79.1 83.65
L 21.9 83.65
Q 16.05 83.65 16.05 77.8 17.3 50.5 16.05 23.15 16.05 17.3 21.9 17.3
L 79.1 17.3
Q 84.95 17.3 84.95 23.15 Z"/>

<path id="Layer3_0_2_STROKES" stroke="#696969" stroke-width="4" stroke-linejoin="round" stroke-linecap="round" fill="none" d="
M 54.15 26.45
L 29.45 26.45
Q 25.2 26.45 25.2 30.7 26.35 50.5 25.2 70.25 25.2 74.45 29.45 74.45
L 54.15 74.45
M 55.4 74.45
L 71.55 74.45
Q 75.8 74.45 75.8 70.25 74.65 50.5 75.8 30.7 75.8 26.45 71.55 26.45
L 55.4 26.45"/>

<path id="Layer2_0_1_STROKES" stroke="#404040" stroke-width="5" stroke-linejoin="round" stroke-linecap="round" fill="none" d="
M 84.95 23.15
Q 83.7 50.5 84.95 77.8 84.95 83.65 79.1 83.65
L 21.9 83.65
Q 16.05 83.65 16.05 77.8 17.3 50.5 16.05 23.15 16.05 17.3 21.9 17.3
L 79.1 17.3
Q 84.95 17.3 84.95 23.15 Z"/>

<path id="Layer2_0_2_STROKES" stroke="#FFFFFF" stroke-width="4" stroke-linejoin="round" stroke-linecap="round" fill="none" d="
M 54.15 26.45
L 29.45 26.45
Q 25.2 26.45 25.2 30.7 26.35 50.5 25.2 70.25 25.2 74.45 29.45 74.45
L 54.15 74.45
M 55.4 74.45
L 71.55 74.45
Q 75.8 74.45 75.8 70.25 74.65 50.5 75.8 30.7 75.8 26.45 71.55 26.45
L 55.4 26.45"/>
</defs>

<g transform="matrix( 1, 0, 0, 1, 0,0) ">
<use xlink:href="#Layer3_0_FILL"/>

<use xlink:href="#Layer3_0_1_STROKES"/>

<use xlink:href="#Layer3_0_2_STROKES"/>
</g>

<g transform="matrix( 1, 0, 0, 1, 0,0) ">
<use xlink:href="#Layer2_0_FILL"/>

<use xlink:href="#Layer2_0_1_STROKES"/>

<use xlink:href="#Layer2_0_2_STROKES"/>
</g>
</svg>
