<?xml version="1.0" encoding="UTF-8" standalone="no"?>
<svg
   version="1.1"
   preserveAspectRatio="none"
   x="0px"
   y="0px"
   width="100px"
   height="100px"
   viewBox="0 0 100 100"
   id="svg4060"
   sodipodi:docname="Vector Source0045.svg"
   inkscape:version="1.2.1 (9c6d41e410, 2022-07-14)"
   xmlns:inkscape="http://www.inkscape.org/namespaces/inkscape"
   xmlns:sodipodi="http://sodipodi.sourceforge.net/DTD/sodipodi-0.dtd"
   xmlns:xlink="http://www.w3.org/1999/xlink"
   xmlns="http://www.w3.org/2000/svg"
   xmlns:svg="http://www.w3.org/2000/svg">
  <sodipodi:namedview
     id="namedview4062"
     pagecolor="#ffffff"
     bordercolor="#000000"
     borderopacity="0.25"
     inkscape:showpageshadow="2"
     inkscape:pageopacity="0.0"
     inkscape:pagecheckerboard="0"
     inkscape:deskcolor="#d1d1d1"
     showgrid="false"
     inkscape:zoom="10.27"
     inkscape:cx="42.55112"
     inkscape:cy="50"
     inkscape:window-width="2400"
     inkscape:window-height="1261"
     inkscape:window-x="5591"
     inkscape:window-y="431"
     inkscape:window-maximized="1"
     inkscape:current-layer="svg4060" />
  <defs
     id="defs4042">
    <g
       id="Layer3_0_FILL">
      <path
         fill="#353535"
         stroke="none"
         d=" M 84.95 77.8 Q 83.7 50.5 84.95 23.15 84.95 17.3 79.1 17.3 L 21.9 17.3 Q 16.05 17.3 16.05 23.15 17.3 50.5 16.05 77.8 16.05 83.65 21.9 83.65 L 79.1 83.65 Q 84.95 83.65 84.95 77.8 M 54.15 26.45 L 55.4 26.45 71.55 26.45 Q 75.8 26.45 75.8 30.7 74.65 50.5 75.8 70.25 75.8 74.45 71.55 74.45 L 55.4 74.45 54.15 74.45 29.45 74.45 Q 25.2 74.45 25.2 70.25 26.35 50.5 25.2 30.7 25.2 26.45 29.45 26.45 L 54.15 26.45 Z"
         id="path4024" />
      <path
         fill="#595959"
         stroke="none"
         d=" M 55.4 26.45 L 54.15 26.45 29.45 26.45 Q 25.2 26.45 25.2 30.7 26.35 50.5 25.2 70.25 25.2 74.45 29.45 74.45 L 54.15 74.45 55.4 74.45 71.55 74.45 Q 75.8 74.45 75.8 70.25 74.65 50.5 75.8 30.7 75.8 26.45 71.55 26.45 L 55.4 26.45 M 34.45 61.2 L 34.45 64.05 41.3 64.05 41.3 66.95 31.3 66.95 31.3 52.8 40.95 52.8 40.95 55.65 34.45 55.65 34.45 58.3 40.55 58.3 40.55 61.2 34.45 61.2 M 60.75 57.3 Q 61.55 57.55 62.05 58.25 L 62.1 58.25 62.1 51.85 65.1 51.85 65.1 66.95 62.35 66.95 62.35 65.7 62.3 65.7 Q 62.15 65.95 61.85 66.2 61.55 66.45 61.15 66.7 60.75 66.9 60.3 67.05 59.85 67.2 59.35 67.2 58.25 67.2 57.4 66.8 56.5 66.45 55.85 65.8 55.25 65.1 54.9 64.2 54.55 63.25 54.55 62.15 54.55 61.15 54.85 60.2 55.15 59.3 55.75 58.55 56.3 57.85 57.15 57.4 57.95 57 59 57 59.95 57 60.75 57.3 M 52.1 58.3 Q 52.5 58.95 52.65 59.75 52.75 60.6 52.75 61.6 L 52.75 66.95 49.75 66.95 49.75 62.2 Q 49.75 61.75 49.75 61.3 49.7 60.85 49.55 60.5 49.4 60.1 49.1 59.85 48.8 59.65 48.2 59.65 47.65 59.65 47.25 59.85 46.9 60.05 46.75 60.4 46.55 60.75 46.45 61.2 46.4 61.65 46.4 62.1 L 46.4 66.95 43.4 66.95 43.4 57.25 46.3 57.25 46.3 58.55 46.35 58.55 Q 46.45 58.25 46.75 58 47 57.7 47.35 57.5 47.7 57.25 48.15 57.15 48.65 57 49.2 57 50.3 57 51 57.35 51.7 57.7 52.1 58.3 M 61.7 63.85 Q 62.35 63.2 62.35 62.1 62.35 61 61.7 60.3 61.1 59.65 59.95 59.65 58.8 59.65 58.2 60.3 57.55 61 57.55 62.1 57.55 63.2 58.2 63.85 58.8 64.55 59.95 64.55 61.1 64.55 61.7 63.85 Z"
         id="path4026" />
      <path
         fill="#CDCDCD"
         stroke="none"
         d=" M 52.65 59.75 Q 52.5 58.95 52.1 58.3 51.7 57.7 51 57.35 50.3 57 49.2 57 48.65 57 48.15 57.15 47.7 57.25 47.35 57.5 47 57.7 46.75 58 46.45 58.25 46.35 58.55 L 46.3 58.55 46.3 57.25 43.4 57.25 43.4 66.95 46.4 66.95 46.4 62.1 Q 46.4 61.65 46.45 61.2 46.55 60.75 46.75 60.4 46.9 60.05 47.25 59.85 47.65 59.65 48.2 59.65 48.8 59.65 49.1 59.85 49.4 60.1 49.55 60.5 49.7 60.85 49.75 61.3 49.75 61.75 49.75 62.2 L 49.75 66.95 52.75 66.95 52.75 61.6 Q 52.75 60.6 52.65 59.75 M 62.05 58.25 Q 61.55 57.55 60.75 57.3 59.95 57 59 57 57.95 57 57.15 57.4 56.3 57.85 55.75 58.55 55.15 59.3 54.85 60.2 54.55 61.15 54.55 62.15 54.55 63.25 54.9 64.2 55.25 65.1 55.85 65.8 56.5 66.45 57.4 66.8 58.25 67.2 59.35 67.2 59.85 67.2 60.3 67.05 60.75 66.9 61.15 66.7 61.55 66.45 61.85 66.2 62.15 65.95 62.3 65.7 L 62.35 65.7 62.35 66.95 65.1 66.95 65.1 51.85 62.1 51.85 62.1 58.25 62.05 58.25 M 62.35 62.1 Q 62.35 63.2 61.7 63.85 61.1 64.55 59.95 64.55 58.8 64.55 58.2 63.85 57.55 63.2 57.55 62.1 57.55 61 58.2 60.3 58.8 59.65 59.95 59.65 61.1 59.65 61.7 60.3 62.35 61 62.35 62.1 M 34.45 64.05 L 34.45 61.2 40.55 61.2 40.55 58.3 34.45 58.3 34.45 55.65 40.95 55.65 40.95 52.8 31.3 52.8 31.3 66.95 41.3 66.95 41.3 64.05 34.45 64.05 Z"
         id="path4028" />
    </g>
    <g
       id="Layer2_0_FILL">
      <path
         fill="#D7D7D7"
         stroke="none"
         d=" M 84.95 77.8 Q 83.7 50.5 84.95 23.15 84.95 17.3 79.1 17.3 L 21.9 17.3 Q 16.05 17.3 16.05 23.15 17.3 50.5 16.05 77.8 16.05 83.65 21.9 83.65 L 79.1 83.65 Q 84.95 83.65 84.95 77.8 M 55.4 26.45 L 71.55 26.45 Q 75.8 26.45 75.8 30.7 74.65 50.5 75.8 70.25 75.8 74.45 71.55 74.45 L 55.4 74.45 54.15 74.45 29.45 74.45 Q 25.2 74.45 25.2 70.25 26.35 50.5 25.2 30.7 25.2 26.45 29.45 26.45 L 54.15 26.45 55.4 26.45 Z"
         id="path4031" />
      <path
         fill="#F5F5F5"
         stroke="none"
         d=" M 71.55 26.45 L 55.4 26.45 54.15 26.45 29.45 26.45 Q 25.2 26.45 25.2 30.7 26.35 50.5 25.2 70.25 25.2 74.45 29.45 74.45 L 54.15 74.45 55.4 74.45 71.55 74.45 Q 75.8 74.45 75.8 70.25 74.65 50.5 75.8 30.7 75.8 26.45 71.55 26.45 M 34.45 61.2 L 34.45 64.05 41.3 64.05 41.3 66.95 31.3 66.95 31.3 52.8 40.95 52.8 40.95 55.65 34.45 55.65 34.45 58.3 40.55 58.3 40.55 61.2 34.45 61.2 M 60.75 57.3 Q 61.55 57.55 62.05 58.25 L 62.1 58.25 62.1 51.85 65.1 51.85 65.1 66.95 62.35 66.95 62.35 65.7 62.3 65.7 Q 62.15 65.95 61.85 66.2 61.55 66.45 61.15 66.7 60.75 66.9 60.3 67.05 59.85 67.2 59.35 67.2 58.25 67.2 57.4 66.8 56.5 66.45 55.85 65.8 55.25 65.1 54.9 64.2 54.55 63.25 54.55 62.15 54.55 61.15 54.85 60.2 55.15 59.3 55.75 58.55 56.3 57.85 57.15 57.4 57.95 57 59 57 59.95 57 60.75 57.3 M 52.1 58.3 Q 52.5 58.95 52.65 59.75 52.75 60.6 52.75 61.6 L 52.75 66.95 49.75 66.95 49.75 62.2 Q 49.75 61.75 49.75 61.3 49.7 60.85 49.55 60.5 49.4 60.1 49.1 59.85 48.8 59.65 48.2 59.65 47.65 59.65 47.25 59.85 46.9 60.05 46.75 60.4 46.55 60.75 46.45 61.2 46.4 61.65 46.4 62.1 L 46.4 66.95 43.4 66.95 43.4 57.25 46.3 57.25 46.3 58.55 46.35 58.55 Q 46.45 58.25 46.75 58 47 57.7 47.35 57.5 47.7 57.25 48.15 57.15 48.65 57 49.2 57 50.3 57 51 57.35 51.7 57.7 52.1 58.3 M 61.7 63.85 Q 62.35 63.2 62.35 62.1 62.35 61 61.7 60.3 61.1 59.65 59.95 59.65 58.8 59.65 58.2 60.3 57.55 61 57.55 62.1 57.55 63.2 58.2 63.85 58.8 64.55 59.95 64.55 61.1 64.55 61.7 63.85 Z"
         id="path4033" />
      <path
         fill="#404040"
         stroke="none"
         d=" M 52.65 59.75 Q 52.5 58.95 52.1 58.3 51.7 57.7 51 57.35 50.3 57 49.2 57 48.65 57 48.15 57.15 47.7 57.25 47.35 57.5 47 57.7 46.75 58 46.45 58.25 46.35 58.55 L 46.3 58.55 46.3 57.25 43.4 57.25 43.4 66.95 46.4 66.95 46.4 62.1 Q 46.4 61.65 46.45 61.2 46.55 60.75 46.75 60.4 46.9 60.05 47.25 59.85 47.65 59.65 48.2 59.65 48.8 59.65 49.1 59.85 49.4 60.1 49.55 60.5 49.7 60.85 49.75 61.3 49.75 61.75 49.75 62.2 L 49.75 66.95 52.75 66.95 52.75 61.6 Q 52.75 60.6 52.65 59.75 M 62.05 58.25 Q 61.55 57.55 60.75 57.3 59.95 57 59 57 57.95 57 57.15 57.4 56.3 57.85 55.75 58.55 55.15 59.3 54.85 60.2 54.55 61.15 54.55 62.15 54.55 63.25 54.9 64.2 55.25 65.1 55.85 65.8 56.5 66.45 57.4 66.8 58.25 67.2 59.35 67.2 59.85 67.2 60.3 67.05 60.75 66.9 61.15 66.7 61.55 66.45 61.85 66.2 62.15 65.95 62.3 65.7 L 62.35 65.7 62.35 66.95 65.1 66.95 65.1 51.85 62.1 51.85 62.1 58.25 62.05 58.25 M 62.35 62.1 Q 62.35 63.2 61.7 63.85 61.1 64.55 59.95 64.55 58.8 64.55 58.2 63.85 57.55 63.2 57.55 62.1 57.55 61 58.2 60.3 58.8 59.65 59.95 59.65 61.1 59.65 61.7 60.3 62.35 61 62.35 62.1 M 34.45 64.05 L 34.45 61.2 40.55 61.2 40.55 58.3 34.45 58.3 34.45 55.65 40.95 55.65 40.95 52.8 31.3 52.8 31.3 66.95 41.3 66.95 41.3 64.05 34.45 64.05 Z"
         id="path4035" />
    </g>
    <path
       id="Layer3_0_1_STROKES"
       stroke="#1D1D1D"
       stroke-width="5"
       stroke-linejoin="round"
       stroke-linecap="round"
       fill="none"
       d=" M 84.95 23.15 Q 83.7 50.5 84.95 77.8 84.95 83.65 79.1 83.65 L 21.9 83.65 Q 16.05 83.65 16.05 77.8 17.3 50.5 16.05 23.15 16.05 17.3 21.9 17.3 L 79.1 17.3 Q 84.95 17.3 84.95 23.15 Z" />
    <path
       id="Layer3_0_2_STROKES"
       stroke="#696969"
       stroke-width="4"
       stroke-linejoin="round"
       stroke-linecap="round"
       fill="none"
       d=" M 54.15 26.45 L 29.45 26.45 Q 25.2 26.45 25.2 30.7 26.35 50.5 25.2 70.25 25.2 74.45 29.45 74.45 L 54.15 74.45 M 55.4 74.45 L 71.55 74.45 Q 75.8 74.45 75.8 70.25 74.65 50.5 75.8 30.7 75.8 26.45 71.55 26.45 L 55.4 26.45" />
    <path
       id="Layer2_0_1_STROKES"
       stroke="#404040"
       stroke-width="5"
       stroke-linejoin="round"
       stroke-linecap="round"
       fill="none"
       d=" M 84.95 23.15 Q 83.7 50.5 84.95 77.8 84.95 83.65 79.1 83.65 L 21.9 83.65 Q 16.05 83.65 16.05 77.8 17.3 50.5 16.05 23.15 16.05 17.3 21.9 17.3 L 79.1 17.3 Q 84.95 17.3 84.95 23.15 Z" />
    <path
       id="Layer2_0_2_STROKES"
       stroke="#FFFFFF"
       stroke-width="4"
       stroke-linejoin="round"
       stroke-linecap="round"
       fill="none"
       d=" M 55.4 74.45 L 71.55 74.45 Q 75.8 74.45 75.8 70.25 74.65 50.5 75.8 30.7 75.8 26.45 71.55 26.45 L 55.4 26.45 M 54.15 26.45 L 29.45 26.45 Q 25.2 26.45 25.2 30.7 26.35 50.5 25.2 70.25 25.2 74.45 29.45 74.45 L 54.15 74.45" />
  </defs>
  <g
     transform="matrix( 1, 0, 0, 1, 0,0) "
     id="g4050">
    <use
       xlink:href="#Layer3_0_FILL"
       id="use4044" />
    <use
       xlink:href="#Layer3_0_1_STROKES"
       id="use4046" />
    <use
       xlink:href="#Layer3_0_2_STROKES"
       id="use4048" />
  </g>
  <g
     id="g4058"
     style="display:none">
    <use
       xlink:href="#Layer2_0_FILL"
       id="use4052" />
    <use
       xlink:href="#Layer2_0_1_STROKES"
       id="use4054" />
    <use
       xlink:href="#Layer2_0_2_STROKES"
       id="use4056" />
  </g>
</svg>
