<?xml version="1.0" encoding="UTF-8" standalone="no"?>
<svg
   version="1.1"
   preserveAspectRatio="none"
   x="0px"
   y="0px"
   width="100px"
   height="100px"
   viewBox="0 0 100 100"
   id="svg6743"
   sodipodi:docname="Vector Source0067.svg"
   inkscape:version="1.2.1 (9c6d41e410, 2022-07-14)"
   xmlns:inkscape="http://www.inkscape.org/namespaces/inkscape"
   xmlns:sodipodi="http://sodipodi.sourceforge.net/DTD/sodipodi-0.dtd"
   xmlns:xlink="http://www.w3.org/1999/xlink"
   xmlns="http://www.w3.org/2000/svg"
   xmlns:svg="http://www.w3.org/2000/svg">
  <sodipodi:namedview
     id="namedview6745"
     pagecolor="#ffffff"
     bordercolor="#000000"
     borderopacity="0.25"
     inkscape:showpageshadow="2"
     inkscape:pageopacity="0.0"
     inkscape:pagecheckerboard="0"
     inkscape:deskcolor="#d1d1d1"
     showgrid="false"
     inkscape:zoom="10.27"
     inkscape:cx="42.55112"
     inkscape:cy="50"
     inkscape:window-width="2400"
     inkscape:window-height="1261"
     inkscape:window-x="5591"
     inkscape:window-y="431"
     inkscape:window-maximized="1"
     inkscape:current-layer="svg6743" />
  <defs
     id="defs6725">
    <g
       id="Layer3_0_FILL">
      <path
         fill="#353535"
         stroke="none"
         d=" M 92.95 27.1 Q 92.95 22.1 87.95 22.1 L 13.05 22.1 Q 8.05 22.1 8.05 27.1 9.1 50.5 8.05 73.8 8.05 78.8 13.05 78.8 L 87.95 78.8 Q 92.95 78.8 92.95 73.8 91.85 50.5 92.95 27.1 M 81.5 29.95 Q 85.1 29.95 85.1 33.55 84.15 50.5 85.1 67.35 85.1 70.95 81.5 70.95 L 67.7 70.95 66.6 70.95 19.5 70.95 Q 15.85 70.95 15.85 67.35 16.85 50.5 15.85 33.55 15.85 29.95 19.5 29.95 L 66.6 29.95 67.7 29.95 81.5 29.95 Z"
         id="path6707" />
      <path
         fill="#595959"
         stroke="none"
         d=" M 85.1 33.55 Q 85.1 29.95 81.5 29.95 L 67.7 29.95 66.6 29.95 19.5 29.95 Q 15.85 29.95 15.85 33.55 16.85 50.5 15.85 67.35 15.85 70.95 19.5 70.95 L 66.6 70.95 67.7 70.95 81.5 70.95 Q 85.1 70.95 85.1 67.35 84.15 50.5 85.1 33.55 M 48.65 46.7 Q 50.3 46.7 51.35 47.1 52.4 47.55 53.05 48.3 53.7 49.15 53.95 50.3 54.2 51.45 54.2 52.95 L 54.2 59.15 50.75 59.15 50.75 57.6 50.7 57.6 Q 50.1 58.6 49.05 59.05 48 59.45 46.85 59.45 46 59.45 45.2 59.2 44.4 59 43.85 58.5 43.2 58.05 42.85 57.35 42.5 56.6 42.5 55.7 42.5 54.65 42.9 53.95 43.3 53.2 43.95 52.75 44.6 52.25 45.45 52 46.3 51.75 47.25 51.6 48.15 51.45 49.05 51.45 50 51.4 50.75 51.4 50.75 50.4 50.05 49.85 49.3 49.25 48.35 49.25 47.45 49.25 46.65 49.65 45.9 50.05 45.3 50.7 L 43.3 48.65 Q 44.35 47.7 45.75 47.2 47.15 46.7 48.65 46.7 M 44.1 41.45 L 44.1 44.9 39.05 44.9 39.05 59.15 35.15 59.15 35.15 44.9 30.1 44.9 30.1 41.45 44.1 41.45 M 60.65 48.3 L 60.7 48.3 Q 61.35 47.4 62.4 47.05 63.4 46.7 64.6 46.7 65.85 46.7 66.9 47.25 67.9 47.75 68.65 48.7 69.35 49.6 69.75 50.75 70.1 51.9 70.1 53.2 70.1 54.55 69.7 55.7 69.25 56.85 68.5 57.7 67.7 58.55 66.6 59 65.5 59.45 64.15 59.45 63.5 59.45 62.95 59.3 62.35 59.1 61.85 58.85 61.4 58.55 61 58.2 60.65 57.9 60.45 57.55 L 60.4 57.55 60.4 59.15 56.9 59.15 56.9 40.25 60.65 40.25 60.65 48.3 M 63.4 50 Q 61.95 50 61.15 50.85 60.4 51.7 60.4 53.1 60.4 54.45 61.15 55.3 61.95 56.15 63.4 56.15 64.8 56.15 65.6 55.3 66.35 54.45 66.35 53.1 66.35 51.7 65.6 50.85 64.8 50 63.4 50 M 50.75 54.65 L 50.75 53.85 49.8 53.85 Q 49.4 53.85 48.75 53.85 48.1 53.9 47.55 54.05 46.95 54.25 46.55 54.6 46.1 54.95 46.1 55.55 46.1 56.25 46.7 56.55 47.25 56.9 47.9 56.9 48.45 56.9 48.95 56.75 49.5 56.6 49.85 56.35 50.25 56.05 50.5 55.65 50.75 55.2 50.75 54.65 Z"
         id="path6709" />
      <path
         fill="#CDCDCD"
         stroke="none"
         d=" M 60.7 48.3 L 60.65 48.3 60.65 40.25 56.9 40.25 56.9 59.15 60.4 59.15 60.4 57.55 60.45 57.55 Q 60.65 57.9 61 58.2 61.4 58.55 61.85 58.85 62.35 59.1 62.95 59.3 63.5 59.45 64.15 59.45 65.5 59.45 66.6 59 67.7 58.55 68.5 57.7 69.25 56.85 69.7 55.7 70.1 54.55 70.1 53.2 70.1 51.9 69.75 50.75 69.35 49.6 68.65 48.7 67.9 47.75 66.9 47.25 65.85 46.7 64.6 46.7 63.4 46.7 62.4 47.05 61.35 47.4 60.7 48.3 M 61.15 50.85 Q 61.95 50 63.4 50 64.8 50 65.6 50.85 66.35 51.7 66.35 53.1 66.35 54.45 65.6 55.3 64.8 56.15 63.4 56.15 61.95 56.15 61.15 55.3 60.4 54.45 60.4 53.1 60.4 51.7 61.15 50.85 M 44.1 44.9 L 44.1 41.45 30.1 41.45 30.1 44.9 35.15 44.9 35.15 59.15 39.05 59.15 39.05 44.9 44.1 44.9 M 51.35 47.1 Q 50.3 46.7 48.65 46.7 47.15 46.7 45.75 47.2 44.35 47.7 43.3 48.65 L 45.3 50.7 Q 45.9 50.05 46.65 49.65 47.45 49.25 48.35 49.25 49.3 49.25 50.05 49.85 50.75 50.4 50.75 51.4 50 51.4 49.05 51.45 48.15 51.45 47.25 51.6 46.3 51.75 45.45 52 44.6 52.25 43.95 52.75 43.3 53.2 42.9 53.95 42.5 54.65 42.5 55.7 42.5 56.6 42.85 57.35 43.2 58.05 43.85 58.5 44.4 59 45.2 59.2 46 59.45 46.85 59.45 48 59.45 49.05 59.05 50.1 58.6 50.7 57.6 L 50.75 57.6 50.75 59.15 54.2 59.15 54.2 52.95 Q 54.2 51.45 53.95 50.3 53.7 49.15 53.05 48.3 52.4 47.55 51.35 47.1 M 50.75 53.85 L 50.75 54.65 Q 50.75 55.2 50.5 55.65 50.25 56.05 49.85 56.35 49.5 56.6 48.95 56.75 48.45 56.9 47.9 56.9 47.25 56.9 46.7 56.55 46.1 56.25 46.1 55.55 46.1 54.95 46.55 54.6 46.95 54.25 47.55 54.05 48.1 53.9 48.75 53.85 49.4 53.85 49.8 53.85 L 50.75 53.85 Z"
         id="path6711" />
    </g>
    <g
       id="Layer2_0_FILL">
      <path
         fill="#D7D7D7"
         stroke="none"
         d=" M 92.95 27.1 Q 92.95 22.1 87.95 22.1 L 13.05 22.1 Q 8.05 22.1 8.05 27.1 9.1 50.5 8.05 73.8 8.05 78.8 13.05 78.8 L 87.95 78.8 Q 92.95 78.8 92.95 73.8 91.85 50.5 92.95 27.1 M 81.5 29.95 Q 85.1 29.95 85.1 33.55 84.15 50.5 85.1 67.35 85.1 70.95 81.5 70.95 L 67.7 70.95 66.6 70.95 19.5 70.95 Q 15.85 70.95 15.85 67.35 16.85 50.5 15.85 33.55 15.85 29.95 19.5 29.95 L 66.6 29.95 67.7 29.95 81.5 29.95 Z"
         id="path6714" />
      <path
         fill="#F5F5F5"
         stroke="none"
         d=" M 85.1 33.55 Q 85.1 29.95 81.5 29.95 L 67.7 29.95 66.6 29.95 19.5 29.95 Q 15.85 29.95 15.85 33.55 16.85 50.5 15.85 67.35 15.85 70.95 19.5 70.95 L 66.6 70.95 67.7 70.95 81.5 70.95 Q 85.1 70.95 85.1 67.35 84.15 50.5 85.1 33.55 M 48.65 46.7 Q 50.3 46.7 51.35 47.1 52.4 47.55 53.05 48.3 53.7 49.15 53.95 50.3 54.2 51.45 54.2 52.95 L 54.2 59.15 50.75 59.15 50.75 57.6 50.7 57.6 Q 50.1 58.6 49.05 59.05 48 59.45 46.85 59.45 46 59.45 45.2 59.2 44.4 59 43.85 58.5 43.2 58.05 42.85 57.35 42.5 56.6 42.5 55.7 42.5 54.65 42.9 53.95 43.3 53.2 43.95 52.75 44.6 52.25 45.45 52 46.3 51.75 47.25 51.6 48.15 51.45 49.05 51.45 50 51.4 50.75 51.4 50.75 50.4 50.05 49.85 49.3 49.25 48.35 49.25 47.45 49.25 46.65 49.65 45.9 50.05 45.3 50.7 L 43.3 48.65 Q 44.35 47.7 45.75 47.2 47.15 46.7 48.65 46.7 M 44.1 41.45 L 44.1 44.9 39.05 44.9 39.05 59.15 35.15 59.15 35.15 44.9 30.1 44.9 30.1 41.45 44.1 41.45 M 60.65 48.3 L 60.7 48.3 Q 61.35 47.4 62.4 47.05 63.4 46.7 64.6 46.7 65.85 46.7 66.9 47.25 67.9 47.75 68.65 48.7 69.35 49.6 69.75 50.75 70.1 51.9 70.1 53.2 70.1 54.55 69.7 55.7 69.25 56.85 68.5 57.7 67.7 58.55 66.6 59 65.5 59.45 64.15 59.45 63.5 59.45 62.95 59.3 62.35 59.1 61.85 58.85 61.4 58.55 61 58.2 60.65 57.9 60.45 57.55 L 60.4 57.55 60.4 59.15 56.9 59.15 56.9 40.25 60.65 40.25 60.65 48.3 M 63.4 50 Q 61.95 50 61.15 50.85 60.4 51.7 60.4 53.1 60.4 54.45 61.15 55.3 61.95 56.15 63.4 56.15 64.8 56.15 65.6 55.3 66.35 54.45 66.35 53.1 66.35 51.7 65.6 50.85 64.8 50 63.4 50 M 50.75 54.65 L 50.75 53.85 49.8 53.85 Q 49.4 53.85 48.75 53.85 48.1 53.9 47.55 54.05 46.95 54.25 46.55 54.6 46.1 54.95 46.1 55.55 46.1 56.25 46.7 56.55 47.25 56.9 47.9 56.9 48.45 56.9 48.95 56.75 49.5 56.6 49.85 56.35 50.25 56.05 50.5 55.65 50.75 55.2 50.75 54.65 Z"
         id="path6716" />
      <path
         fill="#404040"
         stroke="none"
         d=" M 60.7 48.3 L 60.65 48.3 60.65 40.25 56.9 40.25 56.9 59.15 60.4 59.15 60.4 57.55 60.45 57.55 Q 60.65 57.9 61 58.2 61.4 58.55 61.85 58.85 62.35 59.1 62.95 59.3 63.5 59.45 64.15 59.45 65.5 59.45 66.6 59 67.7 58.55 68.5 57.7 69.25 56.85 69.7 55.7 70.1 54.55 70.1 53.2 70.1 51.9 69.75 50.75 69.35 49.6 68.65 48.7 67.9 47.75 66.9 47.25 65.85 46.7 64.6 46.7 63.4 46.7 62.4 47.05 61.35 47.4 60.7 48.3 M 61.15 50.85 Q 61.95 50 63.4 50 64.8 50 65.6 50.85 66.35 51.7 66.35 53.1 66.35 54.45 65.6 55.3 64.8 56.15 63.4 56.15 61.95 56.15 61.15 55.3 60.4 54.45 60.4 53.1 60.4 51.7 61.15 50.85 M 44.1 44.9 L 44.1 41.45 30.1 41.45 30.1 44.9 35.15 44.9 35.15 59.15 39.05 59.15 39.05 44.9 44.1 44.9 M 51.35 47.1 Q 50.3 46.7 48.65 46.7 47.15 46.7 45.75 47.2 44.35 47.7 43.3 48.65 L 45.3 50.7 Q 45.9 50.05 46.65 49.65 47.45 49.25 48.35 49.25 49.3 49.25 50.05 49.85 50.75 50.4 50.75 51.4 50 51.4 49.05 51.45 48.15 51.45 47.25 51.6 46.3 51.75 45.45 52 44.6 52.25 43.95 52.75 43.3 53.2 42.9 53.95 42.5 54.65 42.5 55.7 42.5 56.6 42.85 57.35 43.2 58.05 43.85 58.5 44.4 59 45.2 59.2 46 59.45 46.85 59.45 48 59.45 49.05 59.05 50.1 58.6 50.7 57.6 L 50.75 57.6 50.75 59.15 54.2 59.15 54.2 52.95 Q 54.2 51.45 53.95 50.3 53.7 49.15 53.05 48.3 52.4 47.55 51.35 47.1 M 50.75 53.85 L 50.75 54.65 Q 50.75 55.2 50.5 55.65 50.25 56.05 49.85 56.35 49.5 56.6 48.95 56.75 48.45 56.9 47.9 56.9 47.25 56.9 46.7 56.55 46.1 56.25 46.1 55.55 46.1 54.95 46.55 54.6 46.95 54.25 47.55 54.05 48.1 53.9 48.75 53.85 49.4 53.85 49.8 53.85 L 50.75 53.85 Z"
         id="path6718" />
    </g>
    <path
       id="Layer3_0_1_STROKES"
       stroke="#696969"
       stroke-width="4"
       stroke-linejoin="round"
       stroke-linecap="round"
       fill="none"
       d=" M 67.7 70.95 L 81.5 70.95 Q 85.1 70.95 85.1 67.35 84.15 50.5 85.1 33.55 85.1 29.95 81.5 29.95 L 67.7 29.95 M 66.6 29.95 L 19.5 29.95 Q 15.85 29.95 15.85 33.55 16.85 50.5 15.85 67.35 15.85 70.95 19.5 70.95 L 66.6 70.95" />
    <path
       id="Layer3_0_2_STROKES"
       stroke="#1D1D1D"
       stroke-width="5"
       stroke-linejoin="round"
       stroke-linecap="round"
       fill="none"
       d=" M 87.95 22.1 Q 92.95 22.1 92.95 27.1 91.85 50.5 92.95 73.8 92.95 78.8 87.95 78.8 L 13.05 78.8 Q 8.05 78.8 8.05 73.8 9.1 50.5 8.05 27.1 8.05 22.1 13.05 22.1 L 87.95 22.1 Z" />
    <path
       id="Layer2_0_1_STROKES"
       stroke="#FFFFFF"
       stroke-width="4"
       stroke-linejoin="round"
       stroke-linecap="round"
       fill="none"
       d=" M 67.7 70.95 L 81.5 70.95 Q 85.1 70.95 85.1 67.35 84.15 50.5 85.1 33.55 85.1 29.95 81.5 29.95 L 67.7 29.95 M 66.6 29.95 L 19.5 29.95 Q 15.85 29.95 15.85 33.55 16.85 50.5 15.85 67.35 15.85 70.95 19.5 70.95 L 66.6 70.95" />
    <path
       id="Layer2_0_2_STROKES"
       stroke="#404040"
       stroke-width="5"
       stroke-linejoin="round"
       stroke-linecap="round"
       fill="none"
       d=" M 87.95 22.1 Q 92.95 22.1 92.95 27.1 91.85 50.5 92.95 73.8 92.95 78.8 87.95 78.8 L 13.05 78.8 Q 8.05 78.8 8.05 73.8 9.1 50.5 8.05 27.1 8.05 22.1 13.05 22.1 L 87.95 22.1 Z" />
  </defs>
  <g
     transform="matrix( 1, 0, 0, 1, 0,0) "
     id="g6733">
    <use
       xlink:href="#Layer3_0_FILL"
       id="use6727" />
    <use
       xlink:href="#Layer3_0_1_STROKES"
       id="use6729" />
    <use
       xlink:href="#Layer3_0_2_STROKES"
       id="use6731" />
  </g>
  <g
     id="g6741"
     style="display:none">
    <use
       xlink:href="#Layer2_0_FILL"
       id="use6735" />
    <use
       xlink:href="#Layer2_0_1_STROKES"
       id="use6737" />
    <use
       xlink:href="#Layer2_0_2_STROKES"
       id="use6739" />
  </g>
</svg>
