<?xml version="1.0" encoding="UTF-8" standalone="no"?>
<svg
   version="1.1"
   preserveAspectRatio="none"
   x="0px"
   y="0px"
   width="100px"
   height="100px"
   viewBox="0 0 100 100"
   id="svg6002"
   sodipodi:docname="Vector Source0066.svg"
   inkscape:version="1.2.1 (9c6d41e410, 2022-07-14)"
   xmlns:inkscape="http://www.inkscape.org/namespaces/inkscape"
   xmlns:sodipodi="http://sodipodi.sourceforge.net/DTD/sodipodi-0.dtd"
   xmlns:xlink="http://www.w3.org/1999/xlink"
   xmlns="http://www.w3.org/2000/svg"
   xmlns:svg="http://www.w3.org/2000/svg">
  <sodipodi:namedview
     id="namedview6004"
     pagecolor="#ffffff"
     bordercolor="#000000"
     borderopacity="0.25"
     inkscape:showpageshadow="2"
     inkscape:pageopacity="0.0"
     inkscape:pagecheckerboard="0"
     inkscape:deskcolor="#d1d1d1"
     showgrid="false"
     inkscape:zoom="10.27"
     inkscape:cx="42.55112"
     inkscape:cy="50"
     inkscape:window-width="2400"
     inkscape:window-height="1261"
     inkscape:window-x="5591"
     inkscape:window-y="431"
     inkscape:window-maximized="1"
     inkscape:current-layer="svg6002" />
  <defs
     id="defs5984">
    <g
       id="Layer3_0_FILL">
      <path
         fill="#353535"
         stroke="none"
         d=" M 92.95 27.1 Q 92.95 22.1 87.95 22.1 L 13.05 22.1 Q 8.05 22.1 8.05 27.1 9.1 50.5 8.05 73.8 8.05 78.8 13.05 78.8 L 87.95 78.8 Q 92.95 78.8 92.95 73.8 91.85 50.5 92.95 27.1 M 81.5 29.95 Q 85.1 29.95 85.1 33.55 84.15 50.5 85.1 67.35 85.1 70.95 81.5 70.95 L 67.7 70.95 66.6 70.95 19.5 70.95 Q 15.85 70.95 15.85 67.35 16.85 50.5 15.85 33.55 15.85 29.95 19.5 29.95 L 66.6 29.95 67.7 29.95 81.5 29.95 Z"
         id="path5966" />
      <path
         fill="#595959"
         stroke="none"
         d=" M 85.1 33.55 Q 85.1 29.95 81.5 29.95 L 67.7 29.95 66.6 29.95 19.5 29.95 Q 15.85 29.95 15.85 33.55 16.85 50.5 15.85 67.35 15.85 70.95 19.5 70.95 L 66.6 70.95 67.7 70.95 81.5 70.95 Q 85.1 70.95 85.1 67.35 84.15 50.5 85.1 33.55 M 40.5 41.45 L 43.7 41.45 51.4 59.15 47 59.15 45.45 55.4 38.6 55.4 37.1 59.15 32.85 59.15 40.5 41.45 M 60.45 43.4 L 64.2 43.4 64.2 47 67.5 47 67.5 50 64.2 50 64.2 54.05 Q 64.2 54.55 64.25 54.95 64.3 55.4 64.5 55.7 64.65 56 65 56.15 65.35 56.3 65.95 56.3 66.25 56.3 66.75 56.25 67.25 56.2 67.5 55.95 L 67.5 59.1 Q 66.85 59.3 66.2 59.4 65.55 59.45 64.85 59.45 63.9 59.45 63.1 59.25 62.35 59.05 61.7 58.6 61.1 58.2 60.8 57.5 60.45 56.8 60.45 55.8 L 60.45 50 58.05 50 58.05 47 60.45 47 60.45 43.4 M 52.8 40.25 L 56.55 40.25 56.55 59.15 52.8 59.15 52.8 40.25 M 44.15 52.1 L 42 46.6 39.8 52.1 44.15 52.1 Z"
         id="path5968" />
      <path
         fill="#CDCDCD"
         stroke="none"
         d=" M 56.55 40.25 L 52.8 40.25 52.8 59.15 56.55 59.15 56.55 40.25 M 64.2 43.4 L 60.45 43.4 60.45 47 58.05 47 58.05 50 60.45 50 60.45 55.8 Q 60.45 56.8 60.8 57.5 61.1 58.2 61.7 58.6 62.35 59.05 63.1 59.25 63.9 59.45 64.85 59.45 65.55 59.45 66.2 59.4 66.85 59.3 67.5 59.1 L 67.5 55.95 Q 67.25 56.2 66.75 56.25 66.25 56.3 65.95 56.3 65.35 56.3 65 56.15 64.65 56 64.5 55.7 64.3 55.4 64.25 54.95 64.2 54.55 64.2 54.05 L 64.2 50 67.5 50 67.5 47 64.2 47 64.2 43.4 M 43.7 41.45 L 40.5 41.45 32.85 59.15 37.1 59.15 38.6 55.4 45.45 55.4 47 59.15 51.4 59.15 43.7 41.45 M 42 46.6 L 44.15 52.1 39.8 52.1 42 46.6 Z"
         id="path5970" />
    </g>
    <g
       id="Layer2_0_FILL">
      <path
         fill="#D7D7D7"
         stroke="none"
         d=" M 92.95 27.1 Q 92.95 22.1 87.95 22.1 L 13.05 22.1 Q 8.05 22.1 8.05 27.1 9.1 50.5 8.05 73.8 8.05 78.8 13.05 78.8 L 87.95 78.8 Q 92.95 78.8 92.95 73.8 91.85 50.5 92.95 27.1 M 81.5 29.95 Q 85.1 29.95 85.1 33.55 84.15 50.5 85.1 67.35 85.1 70.95 81.5 70.95 L 67.7 70.95 66.6 70.95 19.5 70.95 Q 15.85 70.95 15.85 67.35 16.85 50.5 15.85 33.55 15.85 29.95 19.5 29.95 L 66.6 29.95 67.7 29.95 81.5 29.95 Z"
         id="path5973" />
      <path
         fill="#F5F5F5"
         stroke="none"
         d=" M 85.1 33.55 Q 85.1 29.95 81.5 29.95 L 67.7 29.95 66.6 29.95 19.5 29.95 Q 15.85 29.95 15.85 33.55 16.85 50.5 15.85 67.35 15.85 70.95 19.5 70.95 L 66.6 70.95 67.7 70.95 81.5 70.95 Q 85.1 70.95 85.1 67.35 84.15 50.5 85.1 33.55 M 40.5 41.45 L 43.7 41.45 51.4 59.15 47 59.15 45.45 55.4 38.6 55.4 37.1 59.15 32.85 59.15 40.5 41.45 M 60.45 43.4 L 64.2 43.4 64.2 47 67.5 47 67.5 50 64.2 50 64.2 54.05 Q 64.2 54.55 64.25 54.95 64.3 55.4 64.5 55.7 64.65 56 65 56.15 65.35 56.3 65.95 56.3 66.25 56.3 66.75 56.25 67.25 56.2 67.5 55.95 L 67.5 59.1 Q 66.85 59.3 66.2 59.4 65.55 59.45 64.85 59.45 63.9 59.45 63.1 59.25 62.35 59.05 61.7 58.6 61.1 58.2 60.8 57.5 60.45 56.8 60.45 55.8 L 60.45 50 58.05 50 58.05 47 60.45 47 60.45 43.4 M 52.8 40.25 L 56.55 40.25 56.55 59.15 52.8 59.15 52.8 40.25 M 44.15 52.1 L 42 46.6 39.8 52.1 44.15 52.1 Z"
         id="path5975" />
      <path
         fill="#404040"
         stroke="none"
         d=" M 56.55 40.25 L 52.8 40.25 52.8 59.15 56.55 59.15 56.55 40.25 M 64.2 43.4 L 60.45 43.4 60.45 47 58.05 47 58.05 50 60.45 50 60.45 55.8 Q 60.45 56.8 60.8 57.5 61.1 58.2 61.7 58.6 62.35 59.05 63.1 59.25 63.9 59.45 64.85 59.45 65.55 59.45 66.2 59.4 66.85 59.3 67.5 59.1 L 67.5 55.95 Q 67.25 56.2 66.75 56.25 66.25 56.3 65.95 56.3 65.35 56.3 65 56.15 64.65 56 64.5 55.7 64.3 55.4 64.25 54.95 64.2 54.55 64.2 54.05 L 64.2 50 67.5 50 67.5 47 64.2 47 64.2 43.4 M 43.7 41.45 L 40.5 41.45 32.85 59.15 37.1 59.15 38.6 55.4 45.45 55.4 47 59.15 51.4 59.15 43.7 41.45 M 42 46.6 L 44.15 52.1 39.8 52.1 42 46.6 Z"
         id="path5977" />
    </g>
    <path
       id="Layer3_0_1_STROKES"
       stroke="#696969"
       stroke-width="4"
       stroke-linejoin="round"
       stroke-linecap="round"
       fill="none"
       d=" M 67.7 70.95 L 81.5 70.95 Q 85.1 70.95 85.1 67.35 84.15 50.5 85.1 33.55 85.1 29.95 81.5 29.95 L 67.7 29.95 M 66.6 29.95 L 19.5 29.95 Q 15.85 29.95 15.85 33.55 16.85 50.5 15.85 67.35 15.85 70.95 19.5 70.95 L 66.6 70.95" />
    <path
       id="Layer3_0_2_STROKES"
       stroke="#1D1D1D"
       stroke-width="5"
       stroke-linejoin="round"
       stroke-linecap="round"
       fill="none"
       d=" M 87.95 22.1 Q 92.95 22.1 92.95 27.1 91.85 50.5 92.95 73.8 92.95 78.8 87.95 78.8 L 13.05 78.8 Q 8.05 78.8 8.05 73.8 9.1 50.5 8.05 27.1 8.05 22.1 13.05 22.1 L 87.95 22.1 Z" />
    <path
       id="Layer2_0_1_STROKES"
       stroke="#FFFFFF"
       stroke-width="4"
       stroke-linejoin="round"
       stroke-linecap="round"
       fill="none"
       d=" M 67.7 70.95 L 81.5 70.95 Q 85.1 70.95 85.1 67.35 84.15 50.5 85.1 33.55 85.1 29.95 81.5 29.95 L 67.7 29.95 M 66.6 29.95 L 19.5 29.95 Q 15.85 29.95 15.85 33.55 16.85 50.5 15.85 67.35 15.85 70.95 19.5 70.95 L 66.6 70.95" />
    <path
       id="Layer2_0_2_STROKES"
       stroke="#404040"
       stroke-width="5"
       stroke-linejoin="round"
       stroke-linecap="round"
       fill="none"
       d=" M 87.95 22.1 Q 92.95 22.1 92.95 27.1 91.85 50.5 92.95 73.8 92.95 78.8 87.95 78.8 L 13.05 78.8 Q 8.05 78.8 8.05 73.8 9.1 50.5 8.05 27.1 8.05 22.1 13.05 22.1 L 87.95 22.1 Z" />
  </defs>
  <g
     transform="matrix( 1, 0, 0, 1, 0,0) "
     id="g5992">
    <use
       xlink:href="#Layer3_0_FILL"
       id="use5986" />
    <use
       xlink:href="#Layer3_0_1_STROKES"
       id="use5988" />
    <use
       xlink:href="#Layer3_0_2_STROKES"
       id="use5990" />
  </g>
  <g
     id="g6000"
     style="display:none">
    <use
       xlink:href="#Layer2_0_FILL"
       id="use5994" />
    <use
       xlink:href="#Layer2_0_1_STROKES"
       id="use5996" />
    <use
       xlink:href="#Layer2_0_2_STROKES"
       id="use5998" />
  </g>
</svg>
