<?xml version="1.0" encoding="UTF-8" standalone="no"?>
<svg
   version="1.1"
   preserveAspectRatio="none"
   x="0px"
   y="0px"
   width="100px"
   height="100px"
   viewBox="0 0 100 100"
   id="svg12122"
   sodipodi:docname="Vector Source0032.svg"
   inkscape:version="1.2.1 (9c6d41e410, 2022-07-14)"
   xmlns:inkscape="http://www.inkscape.org/namespaces/inkscape"
   xmlns:sodipodi="http://sodipodi.sourceforge.net/DTD/sodipodi-0.dtd"
   xmlns:xlink="http://www.w3.org/1999/xlink"
   xmlns="http://www.w3.org/2000/svg"
   xmlns:svg="http://www.w3.org/2000/svg">
  <sodipodi:namedview
     id="namedview12124"
     pagecolor="#ffffff"
     bordercolor="#000000"
     borderopacity="0.25"
     inkscape:showpageshadow="2"
     inkscape:pageopacity="0.0"
     inkscape:pagecheckerboard="0"
     inkscape:deskcolor="#d1d1d1"
     showgrid="false"
     inkscape:zoom="10.27"
     inkscape:cx="42.55112"
     inkscape:cy="50"
     inkscape:window-width="2400"
     inkscape:window-height="1261"
     inkscape:window-x="5591"
     inkscape:window-y="431"
     inkscape:window-maximized="1"
     inkscape:current-layer="svg12122" />
  <defs
     id="defs12104">
    <g
       id="Layer3_0_FILL">
      <path
         fill="#353535"
         stroke="none"
         d=" M 84.95 77.8 Q 83.7 50.5 84.95 23.15 84.95 17.3 79.1 17.3 L 21.9 17.3 Q 16.05 17.3 16.05 23.15 17.3 50.5 16.05 77.8 16.05 83.65 21.9 83.65 L 79.1 83.65 Q 84.95 83.65 84.95 77.8 M 54.15 26.45 L 55.4 26.45 71.55 26.45 Q 75.8 26.45 75.8 30.7 74.65 50.5 75.8 70.25 75.8 74.45 71.55 74.45 L 55.4 74.45 54.15 74.45 29.45 74.45 Q 25.2 74.45 25.2 70.25 26.35 50.5 25.2 30.7 25.2 26.45 29.45 26.45 L 54.15 26.45 Z"
         id="path12086" />
      <path
         fill="#595959"
         stroke="none"
         d=" M 55.4 26.45 L 54.15 26.45 29.45 26.45 Q 25.2 26.45 25.2 30.7 26.35 50.5 25.2 70.25 25.2 74.45 29.45 74.45 L 54.15 74.45 55.4 74.45 71.55 74.45 Q 75.8 74.45 75.8 70.25 74.65 50.5 75.8 30.7 75.8 26.45 71.55 26.45 L 55.4 26.45 M 58.25 38.8 L 58.25 43.45 48.4 43.45 48.3 47.25 Q 49.1 46.95 50.5 46.95 52.4 46.95 54 47.55 55.55 48.1 56.7 49.15 57.8 50.25 58.45 51.75 59.1 53.3 59.1 55.15 59.1 57.25 58.35 58.9 57.65 60.55 56.4 61.7 55.15 62.85 53.4 63.45 51.65 64.05 49.65 64.05 46.4 64.05 44.25 62.45 42.1 60.9 41.3 57.7 L 46.75 56.45 Q 47 57.75 47.9 58.6 48.8 59.4 50.15 59.4 51.85 59.4 52.85 58.35 53.85 57.3 53.85 55.7 53.85 54.45 53.35 53.65 52.85 52.9 52 52.4 51.15 51.95 50.15 51.75 49.15 51.6 48.15 51.6 46.85 51.6 45.55 51.85 44.2 52.1 43 52.5 L 43.3 38.8 58.25 38.8 Z"
         id="path12088" />
      <path
         fill="#CDCDCD"
         stroke="none"
         d=" M 58.25 43.45 L 58.25 38.8 43.3 38.8 43 52.5 Q 44.2 52.1 45.55 51.85 46.85 51.6 48.15 51.6 49.15 51.6 50.15 51.75 51.15 51.95 52 52.4 52.85 52.9 53.35 53.65 53.85 54.45 53.85 55.7 53.85 57.3 52.85 58.35 51.85 59.4 50.15 59.4 48.8 59.4 47.9 58.6 47 57.75 46.75 56.45 L 41.3 57.7 Q 42.1 60.9 44.25 62.45 46.4 64.05 49.65 64.05 51.65 64.05 53.4 63.45 55.15 62.85 56.4 61.7 57.65 60.55 58.35 58.9 59.1 57.25 59.1 55.15 59.1 53.3 58.45 51.75 57.8 50.25 56.7 49.15 55.55 48.1 54 47.55 52.4 46.95 50.5 46.95 49.1 46.95 48.3 47.25 L 48.4 43.45 58.25 43.45 Z"
         id="path12090" />
    </g>
    <g
       id="Layer2_0_FILL">
      <path
         fill="#D7D7D7"
         stroke="none"
         d=" M 84.95 77.8 Q 83.7 50.5 84.95 23.15 84.95 17.3 79.1 17.3 L 21.9 17.3 Q 16.05 17.3 16.05 23.15 17.3 50.5 16.05 77.8 16.05 83.65 21.9 83.65 L 79.1 83.65 Q 84.95 83.65 84.95 77.8 M 54.15 26.45 L 55.4 26.45 71.55 26.45 Q 75.8 26.45 75.8 30.7 74.65 50.5 75.8 70.25 75.8 74.45 71.55 74.45 L 55.4 74.45 54.15 74.45 29.45 74.45 Q 25.2 74.45 25.2 70.25 26.35 50.5 25.2 30.7 25.2 26.45 29.45 26.45 L 54.15 26.45 Z"
         id="path12093" />
      <path
         fill="#F5F5F5"
         stroke="none"
         d=" M 55.4 26.45 L 54.15 26.45 29.45 26.45 Q 25.2 26.45 25.2 30.7 26.35 50.5 25.2 70.25 25.2 74.45 29.45 74.45 L 54.15 74.45 55.4 74.45 71.55 74.45 Q 75.8 74.45 75.8 70.25 74.65 50.5 75.8 30.7 75.8 26.45 71.55 26.45 L 55.4 26.45 M 58.25 38.8 L 58.25 43.45 48.4 43.45 48.3 47.25 Q 49.1 46.95 50.5 46.95 52.4 46.95 54 47.55 55.55 48.1 56.7 49.15 57.8 50.25 58.45 51.75 59.1 53.3 59.1 55.15 59.1 57.25 58.35 58.9 57.65 60.55 56.4 61.7 55.15 62.85 53.4 63.45 51.65 64.05 49.65 64.05 46.4 64.05 44.25 62.45 42.1 60.9 41.3 57.7 L 46.75 56.45 Q 47 57.75 47.9 58.6 48.8 59.4 50.15 59.4 51.85 59.4 52.85 58.35 53.85 57.3 53.85 55.7 53.85 54.45 53.35 53.65 52.85 52.9 52 52.4 51.15 51.95 50.15 51.75 49.15 51.6 48.15 51.6 46.85 51.6 45.55 51.85 44.2 52.1 43 52.5 L 43.3 38.8 58.25 38.8 Z"
         id="path12095" />
      <path
         fill="#404040"
         stroke="none"
         d=" M 58.25 43.45 L 58.25 38.8 43.3 38.8 43 52.5 Q 44.2 52.1 45.55 51.85 46.85 51.6 48.15 51.6 49.15 51.6 50.15 51.75 51.15 51.95 52 52.4 52.85 52.9 53.35 53.65 53.85 54.45 53.85 55.7 53.85 57.3 52.85 58.35 51.85 59.4 50.15 59.4 48.8 59.4 47.9 58.6 47 57.75 46.75 56.45 L 41.3 57.7 Q 42.1 60.9 44.25 62.45 46.4 64.05 49.65 64.05 51.65 64.05 53.4 63.45 55.15 62.85 56.4 61.7 57.65 60.55 58.35 58.9 59.1 57.25 59.1 55.15 59.1 53.3 58.45 51.75 57.8 50.25 56.7 49.15 55.55 48.1 54 47.55 52.4 46.95 50.5 46.95 49.1 46.95 48.3 47.25 L 48.4 43.45 58.25 43.45 Z"
         id="path12097" />
    </g>
    <path
       id="Layer3_0_1_STROKES"
       stroke="#1D1D1D"
       stroke-width="5"
       stroke-linejoin="round"
       stroke-linecap="round"
       fill="none"
       d=" M 84.95 23.15 Q 83.7 50.5 84.95 77.8 84.95 83.65 79.1 83.65 L 21.9 83.65 Q 16.05 83.65 16.05 77.8 17.3 50.5 16.05 23.15 16.05 17.3 21.9 17.3 L 79.1 17.3 Q 84.95 17.3 84.95 23.15 Z" />
    <path
       id="Layer3_0_2_STROKES"
       stroke="#696969"
       stroke-width="4"
       stroke-linejoin="round"
       stroke-linecap="round"
       fill="none"
       d=" M 54.15 26.45 L 29.45 26.45 Q 25.2 26.45 25.2 30.7 26.35 50.5 25.2 70.25 25.2 74.45 29.45 74.45 L 54.15 74.45 M 55.4 74.45 L 71.55 74.45 Q 75.8 74.45 75.8 70.25 74.65 50.5 75.8 30.7 75.8 26.45 71.55 26.45 L 55.4 26.45" />
    <path
       id="Layer2_0_1_STROKES"
       stroke="#404040"
       stroke-width="5"
       stroke-linejoin="round"
       stroke-linecap="round"
       fill="none"
       d=" M 84.95 23.15 Q 83.7 50.5 84.95 77.8 84.95 83.65 79.1 83.65 L 21.9 83.65 Q 16.05 83.65 16.05 77.8 17.3 50.5 16.05 23.15 16.05 17.3 21.9 17.3 L 79.1 17.3 Q 84.95 17.3 84.95 23.15 Z" />
    <path
       id="Layer2_0_2_STROKES"
       stroke="#FFFFFF"
       stroke-width="4"
       stroke-linejoin="round"
       stroke-linecap="round"
       fill="none"
       d=" M 54.15 26.45 L 29.45 26.45 Q 25.2 26.45 25.2 30.7 26.35 50.5 25.2 70.25 25.2 74.45 29.45 74.45 L 54.15 74.45 M 55.4 74.45 L 71.55 74.45 Q 75.8 74.45 75.8 70.25 74.65 50.5 75.8 30.7 75.8 26.45 71.55 26.45 L 55.4 26.45" />
  </defs>
  <g
     transform="matrix( 1, 0, 0, 1, 0,0) "
     id="g12112">
    <use
       xlink:href="#Layer3_0_FILL"
       id="use12106" />
    <use
       xlink:href="#Layer3_0_1_STROKES"
       id="use12108" />
    <use
       xlink:href="#Layer3_0_2_STROKES"
       id="use12110" />
  </g>
  <g
     id="g12120"
     style="display:none">
    <use
       xlink:href="#Layer2_0_FILL"
       id="use12114" />
    <use
       xlink:href="#Layer2_0_1_STROKES"
       id="use12116" />
    <use
       xlink:href="#Layer2_0_2_STROKES"
       id="use12118" />
  </g>
</svg>
