
<svg xmlns="http://www.w3.org/2000/svg" version="1.1" xmlns:xlink="http://www.w3.org/1999/xlink" preserveAspectRatio="none" x="0px" y="0px" width="100px" height="100px" viewBox="0 0 100 100">
<defs>
<g id="Layer3_0_FILL">
<path fill="#353535" stroke="none" d="
M 84.95 77.8
Q 83.7 50.5 84.95 23.15 84.95 17.3 79.1 17.3
L 21.9 17.3
Q 16.05 17.3 16.05 23.15 17.3 50.5 16.05 77.8 16.05 83.65 21.9 83.65
L 79.1 83.65
Q 84.95 83.65 84.95 77.8
M 54.15 26.45
L 55.4 26.45 71.55 26.45
Q 75.8 26.45 75.8 30.7 74.65 50.5 75.8 70.25 75.8 74.45 71.55 74.45
L 55.4 74.45 54.15 74.45 29.45 74.45
Q 25.2 74.45 25.2 70.25 26.35 50.5 25.2 30.7 25.2 26.45 29.45 26.45
L 54.15 26.45 Z"/>

<path fill="#595959" stroke="none" d="
M 55.4 26.45
L 54.15 26.45 29.45 26.45
Q 25.2 26.45 25.2 30.7 26.35 50.5 25.2 70.25 25.2 74.45 29.45 74.45
L 54.15 74.45 55.4 74.45 71.55 74.45
Q 75.8 74.45 75.8 70.25 74.65 50.5 75.8 30.7 75.8 26.45 71.55 26.45
L 55.4 26.45
M 43.7 36.15
Q 45.2 37.65 45.25 39.75
L 45.25 45.2 55.75 45.2 55.75 39.75
Q 55.8 37.65 57.3 36.15 58.85 34.55 61.05 34.55 63.25 34.55 64.8 36.15 66.4 37.7 66.4 39.9 66.4 42.05 64.8 43.65 63.25 45.2 61.05 45.2 60.95 45.2 60.8 45.2
L 55.75 45.2 55.75 55.7 60.8 55.7
Q 60.95 55.7 61.05 55.7 63.25 55.7 64.8 57.25 66.4 58.8 66.4 61 66.4 63.2 64.8 64.75 63.25 66.35 61.05 66.35 58.85 66.35 57.3 64.75 55.8 63.25 55.75 61.15
L 55.75 55.7 45.25 55.7 45.25 61.15
Q 45.2 63.25 43.7 64.75 42.1 66.35 39.95 66.35 37.75 66.35 36.2 64.75 34.6 63.2 34.6 61 34.6 58.8 36.2 57.25 37.75 55.7 39.95 55.7 40.05 55.7 40.2 55.7
L 45.25 55.7 45.25 45.2 40.2 45.2
Q 40.05 45.2 39.95 45.2 37.75 45.2 36.2 43.65 34.6 42.05 34.6 39.9 34.6 37.7 36.2 36.15 37.75 34.55 39.95 34.55 42.1 34.55 43.7 36.15
M 61.05 55.7
Q 60.95 55.7 60.8 55.7
L 55.75 55.7 55.75 61.15
Q 55.8 63.25 57.3 64.75 58.85 66.35 61.05 66.35 63.25 66.35 64.8 64.75 66.4 63.2 66.4 61 66.4 58.8 64.8 57.25 63.25 55.7 61.05 55.7
M 40.2 55.7
Q 40.05 55.7 39.95 55.7 37.75 55.7 36.2 57.25 34.6 58.8 34.6 61 34.6 63.2 36.2 64.75 37.75 66.35 39.95 66.35 42.1 66.35 43.7 64.75 45.2 63.25 45.25 61.15
L 45.25 55.7 40.2 55.7
M 55.75 39.75
L 55.75 45.2 60.8 45.2
Q 60.95 45.2 61.05 45.2 63.25 45.2 64.8 43.65 66.4 42.05 66.4 39.9 66.4 37.7 64.8 36.15 63.25 34.55 61.05 34.55 58.85 34.55 57.3 36.15 55.8 37.65 55.75 39.75
M 55.75 45.2
L 45.25 45.2 45.25 55.7 55.75 55.7 55.75 45.2
M 45.25 39.75
Q 45.2 37.65 43.7 36.15 42.1 34.55 39.95 34.55 37.75 34.55 36.2 36.15 34.6 37.7 34.6 39.9 34.6 42.05 36.2 43.65 37.75 45.2 39.95 45.2 40.05 45.2 40.2 45.2
L 45.25 45.2 45.25 39.75 Z"/>
</g>

<g id="Layer2_0_FILL">
<path fill="#D7D7D7" stroke="none" d="
M 84.95 77.8
Q 83.7 50.5 84.95 23.15 84.95 17.3 79.1 17.3
L 21.9 17.3
Q 16.05 17.3 16.05 23.15 17.3 50.5 16.05 77.8 16.05 83.65 21.9 83.65
L 79.1 83.65
Q 84.95 83.65 84.95 77.8
M 54.15 26.45
L 55.4 26.45 71.55 26.45
Q 75.8 26.45 75.8 30.7 74.65 50.5 75.8 70.25 75.8 74.45 71.55 74.45
L 55.4 74.45 54.15 74.45 29.45 74.45
Q 25.2 74.45 25.2 70.25 26.35 50.5 25.2 30.7 25.2 26.45 29.45 26.45
L 54.15 26.45 Z"/>

<path fill="#F5F5F5" stroke="none" d="
M 55.4 26.45
L 54.15 26.45 29.45 26.45
Q 25.2 26.45 25.2 30.7 26.35 50.5 25.2 70.25 25.2 74.45 29.45 74.45
L 54.15 74.45 55.4 74.45 71.55 74.45
Q 75.8 74.45 75.8 70.25 74.65 50.5 75.8 30.7 75.8 26.45 71.55 26.45
L 55.4 26.45
M 55.75 45.2
L 55.75 39.75
Q 55.8 37.65 57.3 36.15 58.85 34.55 61.05 34.55 63.25 34.55 64.8 36.15 66.4 37.7 66.4 39.9 66.4 42.05 64.8 43.65 63.25 45.2 61.05 45.2 60.95 45.2 60.8 45.2
L 55.75 45.2 55.75 55.7 60.8 55.7
Q 60.95 55.7 61.05 55.7 63.25 55.7 64.8 57.25 66.4 58.8 66.4 61 66.4 63.2 64.8 64.75 63.25 66.35 61.05 66.35 58.85 66.35 57.3 64.75 55.8 63.25 55.75 61.15
L 55.75 55.7 45.25 55.7 45.25 61.15
Q 45.2 63.25 43.7 64.75 42.1 66.35 39.95 66.35 37.75 66.35 36.2 64.75 34.6 63.2 34.6 61 34.6 58.8 36.2 57.25 37.75 55.7 39.95 55.7 40.05 55.7 40.2 55.7
L 45.25 55.7 45.25 45.2 40.2 45.2
Q 40.05 45.2 39.95 45.2 37.75 45.2 36.2 43.65 34.6 42.05 34.6 39.9 34.6 37.7 36.2 36.15 37.75 34.55 39.95 34.55 42.1 34.55 43.7 36.15 45.2 37.65 45.25 39.75
L 45.25 45.2 55.75 45.2
M 61.05 55.7
Q 60.95 55.7 60.8 55.7
L 55.75 55.7 55.75 61.15
Q 55.8 63.25 57.3 64.75 58.85 66.35 61.05 66.35 63.25 66.35 64.8 64.75 66.4 63.2 66.4 61 66.4 58.8 64.8 57.25 63.25 55.7 61.05 55.7
M 40.2 55.7
Q 40.05 55.7 39.95 55.7 37.75 55.7 36.2 57.25 34.6 58.8 34.6 61 34.6 63.2 36.2 64.75 37.75 66.35 39.95 66.35 42.1 66.35 43.7 64.75 45.2 63.25 45.25 61.15
L 45.25 55.7 40.2 55.7
M 55.75 45.2
L 45.25 45.2 45.25 55.7 55.75 55.7 55.75 45.2
M 45.25 39.75
Q 45.2 37.65 43.7 36.15 42.1 34.55 39.95 34.55 37.75 34.55 36.2 36.15 34.6 37.7 34.6 39.9 34.6 42.05 36.2 43.65 37.75 45.2 39.95 45.2 40.05 45.2 40.2 45.2
L 45.25 45.2 45.25 39.75
M 55.75 39.75
L 55.75 45.2 60.8 45.2
Q 60.95 45.2 61.05 45.2 63.25 45.2 64.8 43.65 66.4 42.05 66.4 39.9 66.4 37.7 64.8 36.15 63.25 34.55 61.05 34.55 58.85 34.55 57.3 36.15 55.8 37.65 55.75 39.75 Z"/>
</g>

<path id="Layer3_0_1_STROKES" stroke="#1D1D1D" stroke-width="5" stroke-linejoin="round" stroke-linecap="round" fill="none" d="
M 84.95 23.15
Q 83.7 50.5 84.95 77.8 84.95 83.65 79.1 83.65
L 21.9 83.65
Q 16.05 83.65 16.05 77.8 17.3 50.5 16.05 23.15 16.05 17.3 21.9 17.3
L 79.1 17.3
Q 84.95 17.3 84.95 23.15 Z"/>

<path id="Layer3_0_2_STROKES" stroke="#696969" stroke-width="4" stroke-linejoin="round" stroke-linecap="round" fill="none" d="
M 54.15 26.45
L 29.45 26.45
Q 25.2 26.45 25.2 30.7 26.35 50.5 25.2 70.25 25.2 74.45 29.45 74.45
L 54.15 74.45
M 55.4 74.45
L 71.55 74.45
Q 75.8 74.45 75.8 70.25 74.65 50.5 75.8 30.7 75.8 26.45 71.55 26.45
L 55.4 26.45"/>

<path id="Layer3_0_3_STROKES" stroke="#CDCDCD" stroke-width="4" stroke-linejoin="round" stroke-linecap="round" fill="none" d="
M 40.2 45.2
Q 40.05 45.2 39.95 45.2 37.75 45.2 36.2 43.65 34.6 42.05 34.6 39.9 34.6 37.7 36.2 36.15 37.75 34.55 39.95 34.55 42.1 34.55 43.7 36.15 45.2 37.65 45.25 39.75
L 45.25 45.2 55.75 45.2 55.75 39.75
Q 55.8 37.65 57.3 36.15 58.85 34.55 61.05 34.55 63.25 34.55 64.8 36.15 66.4 37.7 66.4 39.9 66.4 42.05 64.8 43.65 63.25 45.2 61.05 45.2 60.95 45.2 60.8 45.2
L 55.75 45.2 55.75 55.7 60.8 55.7
Q 60.95 55.7 61.05 55.7 63.25 55.7 64.8 57.25 66.4 58.8 66.4 61 66.4 63.2 64.8 64.75 63.25 66.35 61.05 66.35 58.85 66.35 57.3 64.75 55.8 63.25 55.75 61.15
L 55.75 55.7 45.25 55.7 45.25 61.15
Q 45.2 63.25 43.7 64.75 42.1 66.35 39.95 66.35 37.75 66.35 36.2 64.75 34.6 63.2 34.6 61 34.6 58.8 36.2 57.25 37.75 55.7 39.95 55.7 40.05 55.7 40.2 55.7
L 45.25 55.7 45.25 45.2 40.2 45.2 Z"/>

<path id="Layer2_0_1_STROKES" stroke="#404040" stroke-width="5" stroke-linejoin="round" stroke-linecap="round" fill="none" d="
M 84.95 23.15
Q 83.7 50.5 84.95 77.8 84.95 83.65 79.1 83.65
L 21.9 83.65
Q 16.05 83.65 16.05 77.8 17.3 50.5 16.05 23.15 16.05 17.3 21.9 17.3
L 79.1 17.3
Q 84.95 17.3 84.95 23.15 Z"/>

<path id="Layer2_0_2_STROKES" stroke="#FFFFFF" stroke-width="4" stroke-linejoin="round" stroke-linecap="round" fill="none" d="
M 54.15 26.45
L 29.45 26.45
Q 25.2 26.45 25.2 30.7 26.35 50.5 25.2 70.25 25.2 74.45 29.45 74.45
L 54.15 74.45
M 55.4 74.45
L 71.55 74.45
Q 75.8 74.45 75.8 70.25 74.65 50.5 75.8 30.7 75.8 26.45 71.55 26.45
L 55.4 26.45"/>

<path id="Layer2_0_3_STROKES" stroke="#404040" stroke-width="4" stroke-linejoin="round" stroke-linecap="round" fill="none" d="
M 55.75 45.2
L 55.75 39.75
Q 55.8 37.65 57.3 36.15 58.85 34.55 61.05 34.55 63.25 34.55 64.8 36.15 66.4 37.7 66.4 39.9 66.4 42.05 64.8 43.65 63.25 45.2 61.05 45.2 60.95 45.2 60.8 45.2
L 55.75 45.2 55.75 55.7 60.8 55.7
Q 60.95 55.7 61.05 55.7 63.25 55.7 64.8 57.25 66.4 58.8 66.4 61 66.4 63.2 64.8 64.75 63.25 66.35 61.05 66.35 58.85 66.35 57.3 64.75 55.8 63.25 55.75 61.15
L 55.75 55.7 45.25 55.7 45.25 61.15
Q 45.2 63.25 43.7 64.75 42.1 66.35 39.95 66.35 37.75 66.35 36.2 64.75 34.6 63.2 34.6 61 34.6 58.8 36.2 57.25 37.75 55.7 39.95 55.7 40.05 55.7 40.2 55.7
L 45.25 55.7 45.25 45.2 40.2 45.2
Q 40.05 45.2 39.95 45.2 37.75 45.2 36.2 43.65 34.6 42.05 34.6 39.9 34.6 37.7 36.2 36.15 37.75 34.55 39.95 34.55 42.1 34.55 43.7 36.15 45.2 37.65 45.25 39.75
L 45.25 45.2 55.75 45.2 Z"/>
</defs>

<g transform="matrix( 1, 0, 0, 1, 0,0) ">
<use xlink:href="#Layer3_0_FILL"/>

<use xlink:href="#Layer3_0_1_STROKES"/>

<use xlink:href="#Layer3_0_2_STROKES"/>

<use xlink:href="#Layer3_0_3_STROKES"/>
</g>

<g transform="matrix( 1, 0, 0, 1, 0,0) ">
<use xlink:href="#Layer2_0_FILL"/>

<use xlink:href="#Layer2_0_1_STROKES"/>

<use xlink:href="#Layer2_0_2_STROKES"/>

<use xlink:href="#Layer2_0_3_STROKES"/>
</g>
</svg>
