<?xml version="1.0" encoding="UTF-8" standalone="no"?>
<svg
   version="1.1"
   preserveAspectRatio="none"
   x="0px"
   y="0px"
   width="100px"
   height="100px"
   viewBox="0 0 100 100"
   id="svg5130"
   sodipodi:docname="Vector Source0047.svg"
   inkscape:version="1.2.1 (9c6d41e410, 2022-07-14)"
   xmlns:inkscape="http://www.inkscape.org/namespaces/inkscape"
   xmlns:sodipodi="http://sodipodi.sourceforge.net/DTD/sodipodi-0.dtd"
   xmlns:xlink="http://www.w3.org/1999/xlink"
   xmlns="http://www.w3.org/2000/svg"
   xmlns:svg="http://www.w3.org/2000/svg">
  <sodipodi:namedview
     id="namedview5132"
     pagecolor="#ffffff"
     bordercolor="#000000"
     borderopacity="0.25"
     inkscape:showpageshadow="2"
     inkscape:pageopacity="0.0"
     inkscape:pagecheckerboard="0"
     inkscape:deskcolor="#d1d1d1"
     showgrid="false"
     inkscape:zoom="10.27"
     inkscape:cx="42.55112"
     inkscape:cy="50"
     inkscape:window-width="2400"
     inkscape:window-height="1261"
     inkscape:window-x="5591"
     inkscape:window-y="431"
     inkscape:window-maximized="1"
     inkscape:current-layer="svg5130" />
  <defs
     id="defs5112">
    <g
       id="Layer3_0_FILL">
      <path
         fill="#353535"
         stroke="none"
         d=" M 84.95 77.8 Q 83.7 50.5 84.95 23.15 84.95 17.3 79.1 17.3 L 21.9 17.3 Q 16.05 17.3 16.05 23.15 17.3 50.5 16.05 77.8 16.05 83.65 21.9 83.65 L 79.1 83.65 Q 84.95 83.65 84.95 77.8 M 54.15 26.45 L 55.4 26.45 71.55 26.45 Q 75.8 26.45 75.8 30.7 74.65 50.5 75.8 70.25 75.8 74.45 71.55 74.45 L 55.4 74.45 54.15 74.45 29.45 74.45 Q 25.2 74.45 25.2 70.25 26.35 50.5 25.2 30.7 25.2 26.45 29.45 26.45 L 54.15 26.45 Z"
         id="path5094" />
      <path
         fill="#595959"
         stroke="none"
         d=" M 55.4 26.45 L 54.15 26.45 29.45 26.45 Q 25.2 26.45 25.2 30.7 26.35 50.5 25.2 70.25 25.2 74.45 29.45 74.45 L 54.15 74.45 55.4 74.45 71.55 74.45 Q 75.8 74.45 75.8 70.25 74.65 50.5 75.8 30.7 75.8 26.45 71.55 26.45 L 55.4 26.45 M 44.95 47.75 Q 45.55 48 45.95 48.45 46.35 48.95 46.5 49.65 46.65 50.35 46.65 51.25 L 46.65 54.95 44.55 54.95 44.55 54.05 Q 44.15 54.6 43.55 54.9 42.9 55.15 42.25 55.15 41.7 55.15 41.25 55 40.75 54.85 40.4 54.55 40.05 54.3 39.85 53.85 39.65 53.45 39.65 52.9 39.65 52.25 39.85 51.8 40.1 51.4 40.5 51.1 40.9 50.8 41.4 50.65 41.9 50.5 42.45 50.4 43 50.35 43.55 50.35 44.1 50.3 44.55 50.3 44.55 49.7 44.15 49.35 43.7 49 43.15 49 42.6 49 42.1 49.25 41.65 49.5 41.3 49.9 L 40.1 48.65 Q 40.75 48.05 41.55 47.75 42.4 47.5 43.3 47.5 44.3 47.5 44.95 47.75 M 48.65 48.65 Q 49.1 48.1 49.7 47.8 50.35 47.5 51.1 47.5 51.6 47.5 52 47.6 52.4 47.7 52.7 47.85 53 48 53.25 48.25 53.45 48.4 53.6 48.6 L 53.6 47.65 55.7 47.65 55.7 54.35 Q 55.7 56.4 54.65 57.5 53.6 58.55 51.5 58.55 50.5 58.55 49.55 58.35 48.6 58.1 47.8 57.5 L 49.05 55.65 Q 49.6 56.05 50.15 56.3 50.75 56.6 51.45 56.6 52.45 56.6 52.95 56.05 53.45 55.55 53.45 54.8 L 53.45 54.1 53.4 54.1 Q 53.05 54.6 52.45 54.8 51.85 55.05 51.35 55.05 50.55 55.05 49.9 54.75 49.25 54.5 48.75 54 48.3 53.5 48.05 52.8 47.8 52.1 47.8 51.25 47.8 50.55 48 49.85 48.25 49.15 48.65 48.65 M 58.45 48.5 Q 59 48 59.75 47.75 60.5 47.5 61.3 47.5 62.1 47.5 62.75 47.75 63.35 48 63.8 48.5 64.25 49 64.5 49.75 64.75 50.45 64.75 51.3 L 64.75 52 59.5 52 Q 59.65 52.65 60.1 53.05 60.55 53.45 61.2 53.45 61.75 53.45 62.15 53.2 62.55 52.95 62.8 52.55 L 64.4 53.7 Q 63.85 54.4 63.05 54.75 62.2 55.15 61.3 55.15 60.5 55.15 59.75 54.85 59 54.6 58.45 54.1 57.9 53.6 57.6 52.9 57.25 52.15 57.25 51.3 57.25 50.45 57.6 49.75 57.9 49 58.45 48.5 M 30.85 44.35 L 34.75 44.35 Q 35.6 44.35 36.35 44.5 37.05 44.65 37.6 45 38.15 45.35 38.5 46 38.8 46.6 38.8 47.55 38.8 48.5 38.5 49.1 38.2 49.75 37.7 50.1 37.15 50.5 36.45 50.65 35.7 50.8 34.9 50.8 L 33.15 50.8 33.15 54.95 30.85 54.95 30.85 44.35 M 30.85 58.25 L 34.35 58.25 Q 35.6 58.25 36.75 58.5 37.9 58.8 38.75 59.45 39.6 60.1 40.1 61.1 40.6 62.1 40.6 63.55 40.6 64.85 40.15 65.85 39.65 66.85 38.8 67.5 38 68.15 36.9 68.5 35.85 68.85 34.65 68.85 L 30.85 68.85 30.85 58.25 M 63.6 61.55 L 65.75 61.55 65.75 62.55 65.8 62.55 Q 65.9 62.35 66.1 62.15 66.3 61.9 66.55 61.75 66.8 61.6 67.15 61.5 67.5 61.4 67.9 61.4 68.75 61.4 69.3 61.65 69.8 61.9 70.1 62.35 70.4 62.85 70.5 63.45 70.6 64.1 70.6 64.85 L 70.6 68.85 68.35 68.85 68.35 65.3 Q 68.35 64.95 68.35 64.6 68.3 64.3 68.2 64 68.1 63.7 67.85 63.55 67.65 63.35 67.2 63.35 66.75 63.35 66.5 63.5 66.2 63.65 66.1 63.95 65.95 64.2 65.9 64.55 65.85 64.85 65.85 65.2 L 65.85 68.85 63.6 68.85 63.6 61.55 M 55.4 61.55 L 57.85 61.55 59.2 66.15 59.25 66.15 60.6 61.55 62.85 61.55 60.3 68.85 58.05 68.85 56.55 64 56.5 64 55.15 68.85 52.9 68.85 50.25 61.55 52.6 61.55 54.1 66.15 54.15 66.15 55.4 61.55 M 45.75 61.4 Q 46.55 61.4 47.3 61.65 48.05 61.9 48.6 62.4 49.15 62.9 49.45 63.65 49.75 64.35 49.75 65.2 49.75 66.05 49.45 66.8 49.15 67.5 48.6 68 48.05 68.5 47.3 68.75 46.55 69.05 45.75 69.05 44.9 69.05 44.15 68.75 43.4 68.5 42.85 68 42.3 67.5 42 66.8 41.7 66.05 41.7 65.2 41.7 64.35 42 63.65 42.3 62.9 42.85 62.4 43.4 61.9 44.15 61.65 44.9 61.4 45.75 61.4 M 47.05 66.55 Q 47.5 66.05 47.5 65.2 47.5 64.4 47.05 63.85 46.6 63.35 45.75 63.35 44.85 63.35 44.4 63.85 43.95 64.4 43.95 65.2 43.95 66.05 44.4 66.55 44.85 67.05 45.75 67.05 46.6 67.05 47.05 66.55 M 34.55 60.4 L 33.15 60.4 33.15 66.7 34.4 66.7 Q 35.2 66.7 35.9 66.5 36.6 66.35 37.1 66 37.6 65.6 37.9 65 38.2 64.35 38.2 63.45 38.2 62.65 37.9 62.1 37.6 61.5 37.1 61.15 36.6 60.75 35.95 60.6 35.3 60.4 34.55 60.4 M 33.15 46.3 L 33.15 48.85 34.75 48.85 Q 35.05 48.85 35.35 48.8 35.65 48.7 35.85 48.55 36.1 48.45 36.25 48.2 36.4 47.95 36.4 47.55 36.4 47.15 36.2 46.9 36 46.65 35.7 46.5 35.4 46.4 35.05 46.35 34.7 46.3 34.35 46.3 L 33.15 46.3 M 61.1 49.1 Q 60.75 49.1 60.45 49.2 60.15 49.35 59.95 49.55 59.75 49.7 59.65 49.95 59.55 50.2 59.5 50.5 L 62.5 50.5 Q 62.5 49.9 62.1 49.5 61.7 49.1 61.1 49.1 M 53.6 51.25 Q 53.6 50.9 53.5 50.6 53.35 50.25 53.1 50 52.85 49.75 52.55 49.6 52.2 49.45 51.85 49.45 51.45 49.45 51.1 49.6 50.8 49.75 50.55 50 50.3 50.25 50.15 50.6 50.05 50.9 50.05 51.25 50.05 51.6 50.15 51.95 50.3 52.25 50.55 52.5 50.8 52.75 51.1 52.9 51.45 53.05 51.85 53.05 52.2 53.05 52.55 52.9 52.85 52.75 53.1 52.5 53.35 52.25 53.5 51.95 53.6 51.6 53.6 51.25 M 44.55 51.75 L 44 51.75 Q 43.75 51.75 43.35 51.8 43 51.8 42.65 51.9 42.3 52 42.05 52.25 41.8 52.45 41.8 52.8 41.8 53.2 42.15 53.4 42.5 53.6 42.85 53.6 43.2 53.6 43.5 53.5 43.8 53.4 44.05 53.25 44.3 53.1 44.45 52.85 44.55 52.6 44.55 52.25 L 44.55 51.75 Z"
         id="path5096" />
      <path
         fill="#CDCDCD"
         stroke="none"
         d=" M 47.3 61.65 Q 46.55 61.4 45.75 61.4 44.9 61.4 44.15 61.65 43.4 61.9 42.85 62.4 42.3 62.9 42 63.65 41.7 64.35 41.7 65.2 41.7 66.05 42 66.8 42.3 67.5 42.85 68 43.4 68.5 44.15 68.75 44.9 69.05 45.75 69.05 46.55 69.05 47.3 68.75 48.05 68.5 48.6 68 49.15 67.5 49.45 66.8 49.75 66.05 49.75 65.2 49.75 64.35 49.45 63.65 49.15 62.9 48.6 62.4 48.05 61.9 47.3 61.65 M 47.5 65.2 Q 47.5 66.05 47.05 66.55 46.6 67.05 45.75 67.05 44.85 67.05 44.4 66.55 43.95 66.05 43.95 65.2 43.95 64.4 44.4 63.85 44.85 63.35 45.75 63.35 46.6 63.35 47.05 63.85 47.5 64.4 47.5 65.2 M 57.85 61.55 L 55.4 61.55 54.15 66.15 54.1 66.15 52.6 61.55 50.25 61.55 52.9 68.85 55.15 68.85 56.5 64 56.55 64 58.05 68.85 60.3 68.85 62.85 61.55 60.6 61.55 59.25 66.15 59.2 66.15 57.85 61.55 M 65.75 61.55 L 63.6 61.55 63.6 68.85 65.85 68.85 65.85 65.2 Q 65.85 64.85 65.9 64.55 65.95 64.2 66.1 63.95 66.2 63.65 66.5 63.5 66.75 63.35 67.2 63.35 67.65 63.35 67.85 63.55 68.1 63.7 68.2 64 68.3 64.3 68.35 64.6 68.35 64.95 68.35 65.3 L 68.35 68.85 70.6 68.85 70.6 64.85 Q 70.6 64.1 70.5 63.45 70.4 62.85 70.1 62.35 69.8 61.9 69.3 61.65 68.75 61.4 67.9 61.4 67.5 61.4 67.15 61.5 66.8 61.6 66.55 61.75 66.3 61.9 66.1 62.15 65.9 62.35 65.8 62.55 L 65.75 62.55 65.75 61.55 M 34.35 58.25 L 30.85 58.25 30.85 68.85 34.65 68.85 Q 35.85 68.85 36.9 68.5 38 68.15 38.8 67.5 39.65 66.85 40.15 65.85 40.6 64.85 40.6 63.55 40.6 62.1 40.1 61.1 39.6 60.1 38.75 59.45 37.9 58.8 36.75 58.5 35.6 58.25 34.35 58.25 M 33.15 60.4 L 34.55 60.4 Q 35.3 60.4 35.95 60.6 36.6 60.75 37.1 61.15 37.6 61.5 37.9 62.1 38.2 62.65 38.2 63.45 38.2 64.35 37.9 65 37.6 65.6 37.1 66 36.6 66.35 35.9 66.5 35.2 66.7 34.4 66.7 L 33.15 66.7 33.15 60.4 M 34.75 44.35 L 30.85 44.35 30.85 54.95 33.15 54.95 33.15 50.8 34.9 50.8 Q 35.7 50.8 36.45 50.65 37.15 50.5 37.7 50.1 38.2 49.75 38.5 49.1 38.8 48.5 38.8 47.55 38.8 46.6 38.5 46 38.15 45.35 37.6 45 37.05 44.65 36.35 44.5 35.6 44.35 34.75 44.35 M 33.15 48.85 L 33.15 46.3 34.35 46.3 Q 34.7 46.3 35.05 46.35 35.4 46.4 35.7 46.5 36 46.65 36.2 46.9 36.4 47.15 36.4 47.55 36.4 47.95 36.25 48.2 36.1 48.45 35.85 48.55 35.65 48.7 35.35 48.8 35.05 48.85 34.75 48.85 L 33.15 48.85 M 59.75 47.75 Q 59 48 58.45 48.5 57.9 49 57.6 49.75 57.25 50.45 57.25 51.3 57.25 52.15 57.6 52.9 57.9 53.6 58.45 54.1 59 54.6 59.75 54.85 60.5 55.15 61.3 55.15 62.2 55.15 63.05 54.75 63.85 54.4 64.4 53.7 L 62.8 52.55 Q 62.55 52.95 62.15 53.2 61.75 53.45 61.2 53.45 60.55 53.45 60.1 53.05 59.65 52.65 59.5 52 L 64.75 52 64.75 51.3 Q 64.75 50.45 64.5 49.75 64.25 49 63.8 48.5 63.35 48 62.75 47.75 62.1 47.5 61.3 47.5 60.5 47.5 59.75 47.75 M 60.45 49.2 Q 60.75 49.1 61.1 49.1 61.7 49.1 62.1 49.5 62.5 49.9 62.5 50.5 L 59.5 50.5 Q 59.55 50.2 59.65 49.95 59.75 49.7 59.95 49.55 60.15 49.35 60.45 49.2 M 49.7 47.8 Q 49.1 48.1 48.65 48.65 48.25 49.15 48 49.85 47.8 50.55 47.8 51.25 47.8 52.1 48.05 52.8 48.3 53.5 48.75 54 49.25 54.5 49.9 54.75 50.55 55.05 51.35 55.05 51.85 55.05 52.45 54.8 53.05 54.6 53.4 54.1 L 53.45 54.1 53.45 54.8 Q 53.45 55.55 52.95 56.05 52.45 56.6 51.45 56.6 50.75 56.6 50.15 56.3 49.6 56.05 49.05 55.65 L 47.8 57.5 Q 48.6 58.1 49.55 58.35 50.5 58.55 51.5 58.55 53.6 58.55 54.65 57.5 55.7 56.4 55.7 54.35 L 55.7 47.65 53.6 47.65 53.6 48.6 Q 53.45 48.4 53.25 48.25 53 48 52.7 47.85 52.4 47.7 52 47.6 51.6 47.5 51.1 47.5 50.35 47.5 49.7 47.8 M 53.5 50.6 Q 53.6 50.9 53.6 51.25 53.6 51.6 53.5 51.95 53.35 52.25 53.1 52.5 52.85 52.75 52.55 52.9 52.2 53.05 51.85 53.05 51.45 53.05 51.1 52.9 50.8 52.75 50.55 52.5 50.3 52.25 50.15 51.95 50.05 51.6 50.05 51.25 50.05 50.9 50.15 50.6 50.3 50.25 50.55 50 50.8 49.75 51.1 49.6 51.45 49.45 51.85 49.45 52.2 49.45 52.55 49.6 52.85 49.75 53.1 50 53.35 50.25 53.5 50.6 M 45.95 48.45 Q 45.55 48 44.95 47.75 44.3 47.5 43.3 47.5 42.4 47.5 41.55 47.75 40.75 48.05 40.1 48.65 L 41.3 49.9 Q 41.65 49.5 42.1 49.25 42.6 49 43.15 49 43.7 49 44.15 49.35 44.55 49.7 44.55 50.3 44.1 50.3 43.55 50.35 43 50.35 42.45 50.4 41.9 50.5 41.4 50.65 40.9 50.8 40.5 51.1 40.1 51.4 39.85 51.8 39.65 52.25 39.65 52.9 39.65 53.45 39.85 53.85 40.05 54.3 40.4 54.55 40.75 54.85 41.25 55 41.7 55.15 42.25 55.15 42.9 55.15 43.55 54.9 44.15 54.6 44.55 54.05 L 44.55 54.95 46.65 54.95 46.65 51.25 Q 46.65 50.35 46.5 49.65 46.35 48.95 45.95 48.45 M 44 51.75 L 44.55 51.75 44.55 52.25 Q 44.55 52.6 44.45 52.85 44.3 53.1 44.05 53.25 43.8 53.4 43.5 53.5 43.2 53.6 42.85 53.6 42.5 53.6 42.15 53.4 41.8 53.2 41.8 52.8 41.8 52.45 42.05 52.25 42.3 52 42.65 51.9 43 51.8 43.35 51.8 43.75 51.75 44 51.75 Z"
         id="path5098" />
    </g>
    <g
       id="Layer2_0_FILL">
      <path
         fill="#D7D7D7"
         stroke="none"
         d=" M 84.95 77.8 Q 83.7 50.5 84.95 23.15 84.95 17.3 79.1 17.3 L 21.9 17.3 Q 16.05 17.3 16.05 23.15 17.3 50.5 16.05 77.8 16.05 83.65 21.9 83.65 L 79.1 83.65 Q 84.95 83.65 84.95 77.8 M 54.15 26.45 L 55.4 26.45 71.55 26.45 Q 75.8 26.45 75.8 30.7 74.65 50.5 75.8 70.25 75.8 74.45 71.55 74.45 L 55.4 74.45 54.15 74.45 29.45 74.45 Q 25.2 74.45 25.2 70.25 26.35 50.5 25.2 30.7 25.2 26.45 29.45 26.45 L 54.15 26.45 Z"
         id="path5101" />
      <path
         fill="#F5F5F5"
         stroke="none"
         d=" M 55.4 26.45 L 54.15 26.45 29.45 26.45 Q 25.2 26.45 25.2 30.7 26.35 50.5 25.2 70.25 25.2 74.45 29.45 74.45 L 54.15 74.45 55.4 74.45 71.55 74.45 Q 75.8 74.45 75.8 70.25 74.65 50.5 75.8 30.7 75.8 26.45 71.55 26.45 L 55.4 26.45 M 44.95 47.75 Q 45.55 48 45.95 48.45 46.35 48.95 46.5 49.65 46.65 50.35 46.65 51.25 L 46.65 54.95 44.55 54.95 44.55 54.05 Q 44.15 54.6 43.55 54.9 42.9 55.15 42.25 55.15 41.7 55.15 41.25 55 40.75 54.85 40.4 54.55 40.05 54.3 39.85 53.85 39.65 53.45 39.65 52.9 39.65 52.25 39.85 51.8 40.1 51.4 40.5 51.1 40.9 50.8 41.4 50.65 41.9 50.5 42.45 50.4 43 50.35 43.55 50.35 44.1 50.3 44.55 50.3 44.55 49.7 44.15 49.35 43.7 49 43.15 49 42.6 49 42.1 49.25 41.65 49.5 41.3 49.9 L 40.1 48.65 Q 40.75 48.05 41.55 47.75 42.4 47.5 43.3 47.5 44.3 47.5 44.95 47.75 M 48.65 48.65 Q 49.1 48.1 49.7 47.8 50.35 47.5 51.1 47.5 51.6 47.5 52 47.6 52.4 47.7 52.7 47.85 53 48 53.25 48.25 53.45 48.4 53.6 48.6 L 53.6 47.65 55.7 47.65 55.7 54.35 Q 55.7 56.4 54.65 57.5 53.6 58.55 51.5 58.55 50.5 58.55 49.55 58.35 48.6 58.1 47.8 57.5 L 49.05 55.65 Q 49.6 56.05 50.15 56.3 50.75 56.6 51.45 56.6 52.45 56.6 52.95 56.05 53.45 55.55 53.45 54.8 L 53.45 54.1 53.4 54.1 Q 53.05 54.6 52.45 54.8 51.85 55.05 51.35 55.05 50.55 55.05 49.9 54.75 49.25 54.5 48.75 54 48.3 53.5 48.05 52.8 47.8 52.1 47.8 51.25 47.8 50.55 48 49.85 48.25 49.15 48.65 48.65 M 58.45 48.5 Q 59 48 59.75 47.75 60.5 47.5 61.3 47.5 62.1 47.5 62.75 47.75 63.35 48 63.8 48.5 64.25 49 64.5 49.75 64.75 50.45 64.75 51.3 L 64.75 52 59.5 52 Q 59.65 52.65 60.1 53.05 60.55 53.45 61.2 53.45 61.75 53.45 62.15 53.2 62.55 52.95 62.8 52.55 L 64.4 53.7 Q 63.85 54.4 63.05 54.75 62.2 55.15 61.3 55.15 60.5 55.15 59.75 54.85 59 54.6 58.45 54.1 57.9 53.6 57.6 52.9 57.25 52.15 57.25 51.3 57.25 50.45 57.6 49.75 57.9 49 58.45 48.5 M 30.85 44.35 L 34.75 44.35 Q 35.6 44.35 36.35 44.5 37.05 44.65 37.6 45 38.15 45.35 38.5 46 38.8 46.6 38.8 47.55 38.8 48.5 38.5 49.1 38.2 49.75 37.7 50.1 37.15 50.5 36.45 50.65 35.7 50.8 34.9 50.8 L 33.15 50.8 33.15 54.95 30.85 54.95 30.85 44.35 M 30.85 58.25 L 34.35 58.25 Q 35.6 58.25 36.75 58.5 37.9 58.8 38.75 59.45 39.6 60.1 40.1 61.1 40.6 62.1 40.6 63.55 40.6 64.85 40.15 65.85 39.65 66.85 38.8 67.5 38 68.15 36.9 68.5 35.85 68.85 34.65 68.85 L 30.85 68.85 30.85 58.25 M 63.6 61.55 L 65.75 61.55 65.75 62.55 65.8 62.55 Q 65.9 62.35 66.1 62.15 66.3 61.9 66.55 61.75 66.8 61.6 67.15 61.5 67.5 61.4 67.9 61.4 68.75 61.4 69.3 61.65 69.8 61.9 70.1 62.35 70.4 62.85 70.5 63.45 70.6 64.1 70.6 64.85 L 70.6 68.85 68.35 68.85 68.35 65.3 Q 68.35 64.95 68.35 64.6 68.3 64.3 68.2 64 68.1 63.7 67.85 63.55 67.65 63.35 67.2 63.35 66.75 63.35 66.5 63.5 66.2 63.65 66.1 63.95 65.95 64.2 65.9 64.55 65.85 64.85 65.85 65.2 L 65.85 68.85 63.6 68.85 63.6 61.55 M 55.4 61.55 L 57.85 61.55 59.2 66.15 59.25 66.15 60.6 61.55 62.85 61.55 60.3 68.85 58.05 68.85 56.55 64 56.5 64 55.15 68.85 52.9 68.85 50.25 61.55 52.6 61.55 54.1 66.15 54.15 66.15 55.4 61.55 M 45.75 61.4 Q 46.55 61.4 47.3 61.65 48.05 61.9 48.6 62.4 49.15 62.9 49.45 63.65 49.75 64.35 49.75 65.2 49.75 66.05 49.45 66.8 49.15 67.5 48.6 68 48.05 68.5 47.3 68.75 46.55 69.05 45.75 69.05 44.9 69.05 44.15 68.75 43.4 68.5 42.85 68 42.3 67.5 42 66.8 41.7 66.05 41.7 65.2 41.7 64.35 42 63.65 42.3 62.9 42.85 62.4 43.4 61.9 44.15 61.65 44.9 61.4 45.75 61.4 M 47.05 66.55 Q 47.5 66.05 47.5 65.2 47.5 64.4 47.05 63.85 46.6 63.35 45.75 63.35 44.85 63.35 44.4 63.85 43.95 64.4 43.95 65.2 43.95 66.05 44.4 66.55 44.85 67.05 45.75 67.05 46.6 67.05 47.05 66.55 M 34.55 60.4 L 33.15 60.4 33.15 66.7 34.4 66.7 Q 35.2 66.7 35.9 66.5 36.6 66.35 37.1 66 37.6 65.6 37.9 65 38.2 64.35 38.2 63.45 38.2 62.65 37.9 62.1 37.6 61.5 37.1 61.15 36.6 60.75 35.95 60.6 35.3 60.4 34.55 60.4 M 33.15 46.3 L 33.15 48.85 34.75 48.85 Q 35.05 48.85 35.35 48.8 35.65 48.7 35.85 48.55 36.1 48.45 36.25 48.2 36.4 47.95 36.4 47.55 36.4 47.15 36.2 46.9 36 46.65 35.7 46.5 35.4 46.4 35.05 46.35 34.7 46.3 34.35 46.3 L 33.15 46.3 M 61.1 49.1 Q 60.75 49.1 60.45 49.2 60.15 49.35 59.95 49.55 59.75 49.7 59.65 49.95 59.55 50.2 59.5 50.5 L 62.5 50.5 Q 62.5 49.9 62.1 49.5 61.7 49.1 61.1 49.1 M 53.6 51.25 Q 53.6 50.9 53.5 50.6 53.35 50.25 53.1 50 52.85 49.75 52.55 49.6 52.2 49.45 51.85 49.45 51.45 49.45 51.1 49.6 50.8 49.75 50.55 50 50.3 50.25 50.15 50.6 50.05 50.9 50.05 51.25 50.05 51.6 50.15 51.95 50.3 52.25 50.55 52.5 50.8 52.75 51.1 52.9 51.45 53.05 51.85 53.05 52.2 53.05 52.55 52.9 52.85 52.75 53.1 52.5 53.35 52.25 53.5 51.95 53.6 51.6 53.6 51.25 M 44.55 51.75 L 44 51.75 Q 43.75 51.75 43.35 51.8 43 51.8 42.65 51.9 42.3 52 42.05 52.25 41.8 52.45 41.8 52.8 41.8 53.2 42.15 53.4 42.5 53.6 42.85 53.6 43.2 53.6 43.5 53.5 43.8 53.4 44.05 53.25 44.3 53.1 44.45 52.85 44.55 52.6 44.55 52.25 L 44.55 51.75 Z"
         id="path5103" />
      <path
         fill="#404040"
         stroke="none"
         d=" M 47.3 61.65 Q 46.55 61.4 45.75 61.4 44.9 61.4 44.15 61.65 43.4 61.9 42.85 62.4 42.3 62.9 42 63.65 41.7 64.35 41.7 65.2 41.7 66.05 42 66.8 42.3 67.5 42.85 68 43.4 68.5 44.15 68.75 44.9 69.05 45.75 69.05 46.55 69.05 47.3 68.75 48.05 68.5 48.6 68 49.15 67.5 49.45 66.8 49.75 66.05 49.75 65.2 49.75 64.35 49.45 63.65 49.15 62.9 48.6 62.4 48.05 61.9 47.3 61.65 M 47.5 65.2 Q 47.5 66.05 47.05 66.55 46.6 67.05 45.75 67.05 44.85 67.05 44.4 66.55 43.95 66.05 43.95 65.2 43.95 64.4 44.4 63.85 44.85 63.35 45.75 63.35 46.6 63.35 47.05 63.85 47.5 64.4 47.5 65.2 M 57.85 61.55 L 55.4 61.55 54.15 66.15 54.1 66.15 52.6 61.55 50.25 61.55 52.9 68.85 55.15 68.85 56.5 64 56.55 64 58.05 68.85 60.3 68.85 62.85 61.55 60.6 61.55 59.25 66.15 59.2 66.15 57.85 61.55 M 65.75 61.55 L 63.6 61.55 63.6 68.85 65.85 68.85 65.85 65.2 Q 65.85 64.85 65.9 64.55 65.95 64.2 66.1 63.95 66.2 63.65 66.5 63.5 66.75 63.35 67.2 63.35 67.65 63.35 67.85 63.55 68.1 63.7 68.2 64 68.3 64.3 68.35 64.6 68.35 64.95 68.35 65.3 L 68.35 68.85 70.6 68.85 70.6 64.85 Q 70.6 64.1 70.5 63.45 70.4 62.85 70.1 62.35 69.8 61.9 69.3 61.65 68.75 61.4 67.9 61.4 67.5 61.4 67.15 61.5 66.8 61.6 66.55 61.75 66.3 61.9 66.1 62.15 65.9 62.35 65.8 62.55 L 65.75 62.55 65.75 61.55 M 34.35 58.25 L 30.85 58.25 30.85 68.85 34.65 68.85 Q 35.85 68.85 36.9 68.5 38 68.15 38.8 67.5 39.65 66.85 40.15 65.85 40.6 64.85 40.6 63.55 40.6 62.1 40.1 61.1 39.6 60.1 38.75 59.45 37.9 58.8 36.75 58.5 35.6 58.25 34.35 58.25 M 33.15 60.4 L 34.55 60.4 Q 35.3 60.4 35.95 60.6 36.6 60.75 37.1 61.15 37.6 61.5 37.9 62.1 38.2 62.65 38.2 63.45 38.2 64.35 37.9 65 37.6 65.6 37.1 66 36.6 66.35 35.9 66.5 35.2 66.7 34.4 66.7 L 33.15 66.7 33.15 60.4 M 34.75 44.35 L 30.85 44.35 30.85 54.95 33.15 54.95 33.15 50.8 34.9 50.8 Q 35.7 50.8 36.45 50.65 37.15 50.5 37.7 50.1 38.2 49.75 38.5 49.1 38.8 48.5 38.8 47.55 38.8 46.6 38.5 46 38.15 45.35 37.6 45 37.05 44.65 36.35 44.5 35.6 44.35 34.75 44.35 M 33.15 48.85 L 33.15 46.3 34.35 46.3 Q 34.7 46.3 35.05 46.35 35.4 46.4 35.7 46.5 36 46.65 36.2 46.9 36.4 47.15 36.4 47.55 36.4 47.95 36.25 48.2 36.1 48.45 35.85 48.55 35.65 48.7 35.35 48.8 35.05 48.85 34.75 48.85 L 33.15 48.85 M 59.75 47.75 Q 59 48 58.45 48.5 57.9 49 57.6 49.75 57.25 50.45 57.25 51.3 57.25 52.15 57.6 52.9 57.9 53.6 58.45 54.1 59 54.6 59.75 54.85 60.5 55.15 61.3 55.15 62.2 55.15 63.05 54.75 63.85 54.4 64.4 53.7 L 62.8 52.55 Q 62.55 52.95 62.15 53.2 61.75 53.45 61.2 53.45 60.55 53.45 60.1 53.05 59.65 52.65 59.5 52 L 64.75 52 64.75 51.3 Q 64.75 50.45 64.5 49.75 64.25 49 63.8 48.5 63.35 48 62.75 47.75 62.1 47.5 61.3 47.5 60.5 47.5 59.75 47.75 M 60.45 49.2 Q 60.75 49.1 61.1 49.1 61.7 49.1 62.1 49.5 62.5 49.9 62.5 50.5 L 59.5 50.5 Q 59.55 50.2 59.65 49.95 59.75 49.7 59.95 49.55 60.15 49.35 60.45 49.2 M 49.7 47.8 Q 49.1 48.1 48.65 48.65 48.25 49.15 48 49.85 47.8 50.55 47.8 51.25 47.8 52.1 48.05 52.8 48.3 53.5 48.75 54 49.25 54.5 49.9 54.75 50.55 55.05 51.35 55.05 51.85 55.05 52.45 54.8 53.05 54.6 53.4 54.1 L 53.45 54.1 53.45 54.8 Q 53.45 55.55 52.95 56.05 52.45 56.6 51.45 56.6 50.75 56.6 50.15 56.3 49.6 56.05 49.05 55.65 L 47.8 57.5 Q 48.6 58.1 49.55 58.35 50.5 58.55 51.5 58.55 53.6 58.55 54.65 57.5 55.7 56.4 55.7 54.35 L 55.7 47.65 53.6 47.65 53.6 48.6 Q 53.45 48.4 53.25 48.25 53 48 52.7 47.85 52.4 47.7 52 47.6 51.6 47.5 51.1 47.5 50.35 47.5 49.7 47.8 M 53.5 50.6 Q 53.6 50.9 53.6 51.25 53.6 51.6 53.5 51.95 53.35 52.25 53.1 52.5 52.85 52.75 52.55 52.9 52.2 53.05 51.85 53.05 51.45 53.05 51.1 52.9 50.8 52.75 50.55 52.5 50.3 52.25 50.15 51.95 50.05 51.6 50.05 51.25 50.05 50.9 50.15 50.6 50.3 50.25 50.55 50 50.8 49.75 51.1 49.6 51.45 49.45 51.85 49.45 52.2 49.45 52.55 49.6 52.85 49.75 53.1 50 53.35 50.25 53.5 50.6 M 45.95 48.45 Q 45.55 48 44.95 47.75 44.3 47.5 43.3 47.5 42.4 47.5 41.55 47.75 40.75 48.05 40.1 48.65 L 41.3 49.9 Q 41.65 49.5 42.1 49.25 42.6 49 43.15 49 43.7 49 44.15 49.35 44.55 49.7 44.55 50.3 44.1 50.3 43.55 50.35 43 50.35 42.45 50.4 41.9 50.5 41.4 50.65 40.9 50.8 40.5 51.1 40.1 51.4 39.85 51.8 39.65 52.25 39.65 52.9 39.65 53.45 39.85 53.85 40.05 54.3 40.4 54.55 40.75 54.85 41.25 55 41.7 55.15 42.25 55.15 42.9 55.15 43.55 54.9 44.15 54.6 44.55 54.05 L 44.55 54.95 46.65 54.95 46.65 51.25 Q 46.65 50.35 46.5 49.65 46.35 48.95 45.95 48.45 M 44 51.75 L 44.55 51.75 44.55 52.25 Q 44.55 52.6 44.45 52.85 44.3 53.1 44.05 53.25 43.8 53.4 43.5 53.5 43.2 53.6 42.85 53.6 42.5 53.6 42.15 53.4 41.8 53.2 41.8 52.8 41.8 52.45 42.05 52.25 42.3 52 42.65 51.9 43 51.8 43.35 51.8 43.75 51.75 44 51.75 Z"
         id="path5105" />
    </g>
    <path
       id="Layer3_0_1_STROKES"
       stroke="#1D1D1D"
       stroke-width="5"
       stroke-linejoin="round"
       stroke-linecap="round"
       fill="none"
       d=" M 84.95 23.15 Q 83.7 50.5 84.95 77.8 84.95 83.65 79.1 83.65 L 21.9 83.65 Q 16.05 83.65 16.05 77.8 17.3 50.5 16.05 23.15 16.05 17.3 21.9 17.3 L 79.1 17.3 Q 84.95 17.3 84.95 23.15 Z" />
    <path
       id="Layer3_0_2_STROKES"
       stroke="#696969"
       stroke-width="4"
       stroke-linejoin="round"
       stroke-linecap="round"
       fill="none"
       d=" M 54.15 26.45 L 29.45 26.45 Q 25.2 26.45 25.2 30.7 26.35 50.5 25.2 70.25 25.2 74.45 29.45 74.45 L 54.15 74.45 M 55.4 74.45 L 71.55 74.45 Q 75.8 74.45 75.8 70.25 74.65 50.5 75.8 30.7 75.8 26.45 71.55 26.45 L 55.4 26.45" />
    <path
       id="Layer2_0_1_STROKES"
       stroke="#404040"
       stroke-width="5"
       stroke-linejoin="round"
       stroke-linecap="round"
       fill="none"
       d=" M 84.95 23.15 Q 83.7 50.5 84.95 77.8 84.95 83.65 79.1 83.65 L 21.9 83.65 Q 16.05 83.65 16.05 77.8 17.3 50.5 16.05 23.15 16.05 17.3 21.9 17.3 L 79.1 17.3 Q 84.95 17.3 84.95 23.15 Z" />
    <path
       id="Layer2_0_2_STROKES"
       stroke="#FFFFFF"
       stroke-width="4"
       stroke-linejoin="round"
       stroke-linecap="round"
       fill="none"
       d=" M 54.15 26.45 L 29.45 26.45 Q 25.2 26.45 25.2 30.7 26.35 50.5 25.2 70.25 25.2 74.45 29.45 74.45 L 54.15 74.45 M 55.4 74.45 L 71.55 74.45 Q 75.8 74.45 75.8 70.25 74.65 50.5 75.8 30.7 75.8 26.45 71.55 26.45 L 55.4 26.45" />
  </defs>
  <g
     transform="matrix( 1, 0, 0, 1, 0,0) "
     id="g5120">
    <use
       xlink:href="#Layer3_0_FILL"
       id="use5114" />
    <use
       xlink:href="#Layer3_0_1_STROKES"
       id="use5116" />
    <use
       xlink:href="#Layer3_0_2_STROKES"
       id="use5118" />
  </g>
  <g
     id="g5128"
     style="display:none">
    <use
       xlink:href="#Layer2_0_FILL"
       id="use5122" />
    <use
       xlink:href="#Layer2_0_1_STROKES"
       id="use5124" />
    <use
       xlink:href="#Layer2_0_2_STROKES"
       id="use5126" />
  </g>
</svg>
