<?xml version="1.0" encoding="UTF-8" standalone="no"?>
<svg
   version="1.1"
   preserveAspectRatio="none"
   x="0px"
   y="0px"
   width="100px"
   height="100px"
   viewBox="0 0 100 100"
   id="svg38"
   sodipodi:docname="Vector Source0068.svg"
   inkscape:version="1.2.1 (9c6d41e410, 2022-07-14)"
   xmlns:inkscape="http://www.inkscape.org/namespaces/inkscape"
   xmlns:sodipodi="http://sodipodi.sourceforge.net/DTD/sodipodi-0.dtd"
   xmlns:xlink="http://www.w3.org/1999/xlink"
   xmlns="http://www.w3.org/2000/svg"
   xmlns:svg="http://www.w3.org/2000/svg">
  <sodipodi:namedview
     id="namedview40"
     pagecolor="#ffffff"
     bordercolor="#000000"
     borderopacity="0.25"
     inkscape:showpageshadow="2"
     inkscape:pageopacity="0.0"
     inkscape:pagecheckerboard="0"
     inkscape:deskcolor="#d1d1d1"
     showgrid="false"
     inkscape:zoom="10.27"
     inkscape:cx="42.55112"
     inkscape:cy="50"
     inkscape:window-width="2400"
     inkscape:window-height="1261"
     inkscape:window-x="5591"
     inkscape:window-y="431"
     inkscape:window-maximized="1"
     inkscape:current-layer="svg38" />
  <defs
     id="defs20">
    <g
       id="Layer3_0_FILL">
      <path
         fill="#353535"
         stroke="none"
         d=" M 92.95 27.1 Q 92.95 22.1 87.95 22.1 L 13.05 22.1 Q 8.05 22.1 8.05 27.1 9.1 50.5 8.05 73.8 8.05 78.8 13.05 78.8 L 87.95 78.8 Q 92.95 78.8 92.95 73.8 91.85 50.5 92.95 27.1 M 81.5 29.95 Q 85.1 29.95 85.1 33.55 84.15 50.5 85.1 67.35 85.1 70.95 81.5 70.95 L 67.7 70.95 66.6 70.95 19.5 70.95 Q 15.85 70.95 15.85 67.35 16.85 50.5 15.85 33.55 15.85 29.95 19.5 29.95 L 66.6 29.95 67.7 29.95 81.5 29.95 Z"
         id="path2" />
      <path
         fill="#595959"
         stroke="none"
         d=" M 85.1 33.55 Q 85.1 29.95 81.5 29.95 L 67.7 29.95 66.6 29.95 19.5 29.95 Q 15.85 29.95 15.85 33.55 16.85 50.5 15.85 67.35 15.85 70.95 19.5 70.95 L 66.6 70.95 67.7 70.95 81.5 70.95 Q 85.1 70.95 85.1 67.35 84.15 50.5 85.1 33.55 M 48.5 41.5 Q 48.65 41.25 48.9 41 49.15 40.8 49.5 40.6 49.85 40.4 50.25 40.25 50.7 40.15 51.15 40.15 52.1 40.15 52.9 40.45 53.7 40.8 54.3 41.4 54.85 42 55.15 42.85 55.45 43.65 55.45 44.65 55.45 45.6 55.15 46.4 54.9 47.25 54.4 47.9 53.85 48.55 53.15 48.95 52.4 49.3 51.45 49.3 50.6 49.3 49.9 49.05 49.15 48.8 48.7 48.15 L 48.65 48.15 48.65 53.2 45.95 53.2 45.95 40.35 48.45 40.35 48.45 41.5 48.5 41.5 M 42 40.45 Q 42.75 40.75 43.2 41.3 43.65 41.9 43.85 42.7 44.05 43.55 44.05 44.65 L 44.05 49.1 41.55 49.1 41.55 48 41.5 48 Q 41.05 48.7 40.3 49 39.55 49.3 38.75 49.3 38.1 49.3 37.55 49.15 37 49 36.55 48.65 36.1 48.3 35.85 47.8 35.6 47.3 35.6 46.6 35.6 45.85 35.9 45.35 36.2 44.8 36.65 44.5 37.15 44.15 37.75 43.95 38.35 43.75 39 43.65 39.65 43.55 40.35 43.55 41 43.55 41.55 43.55 41.55 42.8 41.05 42.4 40.5 41.95 39.8 41.95 39.15 41.95 38.6 42.25 38.05 42.55 37.6 43 L 36.2 41.55 Q 36.95 40.85 37.95 40.5 38.95 40.15 40.05 40.15 41.2 40.15 42 40.45 M 57.9 40.85 Q 58.4 40.5 59.05 40.3 59.75 40.15 60.4 40.15 61.3 40.15 62.15 40.4 63.05 40.65 63.65 41.3 L 62 42.9 Q 61.4 42.2 60.45 42.2 60.1 42.2 59.75 42.35 59.45 42.5 59.45 42.9 59.45 43.25 59.8 43.4 60.1 43.55 60.65 43.65 61.15 43.75 61.75 43.9 62.3 44.05 62.8 44.35 63.35 44.6 63.65 45.1 64 45.6 64 46.45 64 47.3 63.65 47.85 63.25 48.4 62.7 48.7 62.1 49.05 61.4 49.2 60.65 49.3 59.95 49.3 59.05 49.3 58.1 49.05 57.2 48.8 56.55 48.15 L 58.15 46.3 Q 58.55 46.8 59 47.05 59.45 47.25 60.1 47.25 60.55 47.25 60.95 47.15 61.3 47 61.3 46.65 61.3 46.3 60.95 46.15 60.65 45.95 60.15 45.85 59.6 45.75 59.05 45.6 58.45 45.45 57.95 45.2 57.4 44.9 57.1 44.4 56.75 43.9 56.75 43.1 56.75 42.3 57.05 41.75 57.4 41.2 57.9 40.85 M 31.35 36.15 Q 31.95 36.25 32.5 36.45 33.1 36.65 33.6 37 34.15 37.4 34.55 37.9 L 32.4 39.65 Q 31.95 39.15 31.35 38.9 30.75 38.6 29.95 38.6 29.2 38.6 28.5 38.95 27.85 39.25 27.35 39.8 26.85 40.35 26.55 41.1 26.3 41.85 26.3 42.75 26.3 43.6 26.55 44.35 26.85 45.1 27.35 45.65 27.8 46.2 28.45 46.5 29.15 46.85 29.9 46.85 30.75 46.85 31.4 46.45 32.1 46.1 32.5 45.45 L 34.85 47.2 Q 34.05 48.35 32.8 48.9 31.55 49.45 30.25 49.45 28.75 49.45 27.5 48.95 26.25 48.5 25.3 47.6 24.4 46.75 23.9 45.5 23.35 44.25 23.35 42.75 23.35 41.2 23.9 39.95 24.4 38.7 25.3 37.85 26.25 36.95 27.5 36.5 28.75 36.05 30.25 36.05 30.8 36.05 31.35 36.15 M 40.2 63.55 L 40.2 50.8 43 50.8 43 60.95 48.2 60.95 48.2 63.55 40.2 63.55 M 71.8 49.95 L 71.8 58.25 74.8 54.8 78.1 54.8 74.65 58.75 78.2 63.55 74.8 63.55 71.85 59.1 71.8 59.1 71.8 63.55 69.1 63.55 69.1 49.95 71.8 49.95 M 63.1 54.9 Q 64 54.6 65 54.6 65.75 54.6 66.6 54.85 67.45 55.1 68.1 55.75 L 66.3 57.65 Q 66.15 57.35 65.75 57.15 65.4 56.95 65 56.95 63.95 56.95 63.4 57.55 62.85 58.2 62.85 59.2 62.85 60.15 63.4 60.8 63.95 61.4 65 61.4 65.45 61.4 65.75 61.2 66.1 61 66.3 60.75 L 68.1 62.6 Q 67.45 63.25 66.6 63.5 65.75 63.75 65 63.75 64 63.75 63.1 63.45 62.2 63.1 61.55 62.5 60.9 61.9 60.5 61.05 60.15 60.2 60.15 59.2 60.15 58.15 60.5 57.3 60.9 56.45 61.55 55.85 62.2 55.25 63.1 54.9 M 52.05 54.9 Q 52.95 54.6 53.95 54.6 54.95 54.6 55.85 54.9 56.75 55.25 57.4 55.85 58.05 56.45 58.4 57.3 58.8 58.15 58.8 59.2 58.8 60.2 58.4 61.05 58.05 61.9 57.4 62.5 56.75 63.1 55.85 63.45 54.95 63.75 53.95 63.75 52.95 63.75 52.05 63.45 51.15 63.1 50.5 62.5 49.85 61.9 49.45 61.05 49.1 60.2 49.1 59.2 49.1 58.15 49.45 57.3 49.85 56.45 50.5 55.85 51.15 55.25 52.05 54.9 M 52.35 60.8 Q 52.9 61.4 53.95 61.4 54.95 61.4 55.55 60.8 56.1 60.15 56.1 59.2 56.1 58.2 55.55 57.55 54.95 56.95 53.95 56.95 52.9 56.95 52.35 57.55 51.8 58.2 51.8 59.2 51.8 60.15 52.35 60.8 M 40.9 47.05 Q 41.2 46.85 41.4 46.55 41.55 46.25 41.55 45.85 L 41.55 45.25 40.85 45.25 Q 40.55 45.25 40.1 45.3 39.65 45.3 39.25 45.45 38.8 45.6 38.5 45.85 38.2 46.1 38.2 46.5 38.2 47 38.6 47.25 39.05 47.5 39.5 47.5 39.9 47.5 40.25 47.4 40.65 47.25 40.9 47.05 M 50.6 42.5 Q 49.6 42.5 49 43.1 48.45 43.75 48.45 44.75 48.45 45.7 49 46.35 49.6 46.95 50.6 46.95 51.6 46.95 52.2 46.35 52.75 45.7 52.75 44.75 52.75 43.75 52.2 43.1 51.6 42.5 50.6 42.5 Z"
         id="path4" />
      <path
         fill="#CDCDCD"
         stroke="none"
         d=" M 53.95 54.6 Q 52.95 54.6 52.05 54.9 51.15 55.25 50.5 55.85 49.85 56.45 49.45 57.3 49.1 58.15 49.1 59.2 49.1 60.2 49.45 61.05 49.85 61.9 50.5 62.5 51.15 63.1 52.05 63.45 52.95 63.75 53.95 63.75 54.95 63.75 55.85 63.45 56.75 63.1 57.4 62.5 58.05 61.9 58.4 61.05 58.8 60.2 58.8 59.2 58.8 58.15 58.4 57.3 58.05 56.45 57.4 55.85 56.75 55.25 55.85 54.9 54.95 54.6 53.95 54.6 M 53.95 61.4 Q 52.9 61.4 52.35 60.8 51.8 60.15 51.8 59.2 51.8 58.2 52.35 57.55 52.9 56.95 53.95 56.95 54.95 56.95 55.55 57.55 56.1 58.2 56.1 59.2 56.1 60.15 55.55 60.8 54.95 61.4 53.95 61.4 M 65 54.6 Q 64 54.6 63.1 54.9 62.2 55.25 61.55 55.85 60.9 56.45 60.5 57.3 60.15 58.15 60.15 59.2 60.15 60.2 60.5 61.05 60.9 61.9 61.55 62.5 62.2 63.1 63.1 63.45 64 63.75 65 63.75 65.75 63.75 66.6 63.5 67.45 63.25 68.1 62.6 L 66.3 60.75 Q 66.1 61 65.75 61.2 65.45 61.4 65 61.4 63.95 61.4 63.4 60.8 62.85 60.15 62.85 59.2 62.85 58.2 63.4 57.55 63.95 56.95 65 56.95 65.4 56.95 65.75 57.15 66.15 57.35 66.3 57.65 L 68.1 55.75 Q 67.45 55.1 66.6 54.85 65.75 54.6 65 54.6 M 71.8 58.25 L 71.8 49.95 69.1 49.95 69.1 63.55 71.8 63.55 71.8 59.1 71.85 59.1 74.8 63.55 78.2 63.55 74.65 58.75 78.1 54.8 74.8 54.8 71.8 58.25 M 40.2 50.8 L 40.2 63.55 48.2 63.55 48.2 60.95 43 60.95 43 50.8 40.2 50.8 M 32.5 36.45 Q 31.95 36.25 31.35 36.15 30.8 36.05 30.25 36.05 28.75 36.05 27.5 36.5 26.25 36.95 25.3 37.85 24.4 38.7 23.9 39.95 23.35 41.2 23.35 42.75 23.35 44.25 23.9 45.5 24.4 46.75 25.3 47.6 26.25 48.5 27.5 48.95 28.75 49.45 30.25 49.45 31.55 49.45 32.8 48.9 34.05 48.35 34.85 47.2 L 32.5 45.45 Q 32.1 46.1 31.4 46.45 30.75 46.85 29.9 46.85 29.15 46.85 28.45 46.5 27.8 46.2 27.35 45.65 26.85 45.1 26.55 44.35 26.3 43.6 26.3 42.75 26.3 41.85 26.55 41.1 26.85 40.35 27.35 39.8 27.85 39.25 28.5 38.95 29.2 38.6 29.95 38.6 30.75 38.6 31.35 38.9 31.95 39.15 32.4 39.65 L 34.55 37.9 Q 34.15 37.4 33.6 37 33.1 36.65 32.5 36.45 M 59.05 40.3 Q 58.4 40.5 57.9 40.85 57.4 41.2 57.05 41.75 56.75 42.3 56.75 43.1 56.75 43.9 57.1 44.4 57.4 44.9 57.95 45.2 58.45 45.45 59.05 45.6 59.6 45.75 60.15 45.85 60.65 45.95 60.95 46.15 61.3 46.3 61.3 46.65 61.3 47 60.95 47.15 60.55 47.25 60.1 47.25 59.45 47.25 59 47.05 58.55 46.8 58.15 46.3 L 56.55 48.15 Q 57.2 48.8 58.1 49.05 59.05 49.3 59.95 49.3 60.65 49.3 61.4 49.2 62.1 49.05 62.7 48.7 63.25 48.4 63.65 47.85 64 47.3 64 46.45 64 45.6 63.65 45.1 63.35 44.6 62.8 44.35 62.3 44.05 61.75 43.9 61.15 43.75 60.65 43.65 60.1 43.55 59.8 43.4 59.45 43.25 59.45 42.9 59.45 42.5 59.75 42.35 60.1 42.2 60.45 42.2 61.4 42.2 62 42.9 L 63.65 41.3 Q 63.05 40.65 62.15 40.4 61.3 40.15 60.4 40.15 59.75 40.15 59.05 40.3 M 43.2 41.3 Q 42.75 40.75 42 40.45 41.2 40.15 40.05 40.15 38.95 40.15 37.95 40.5 36.95 40.85 36.2 41.55 L 37.6 43 Q 38.05 42.55 38.6 42.25 39.15 41.95 39.8 41.95 40.5 41.95 41.05 42.4 41.55 42.8 41.55 43.55 41 43.55 40.35 43.55 39.65 43.55 39 43.65 38.35 43.75 37.75 43.95 37.15 44.15 36.65 44.5 36.2 44.8 35.9 45.35 35.6 45.85 35.6 46.6 35.6 47.3 35.85 47.8 36.1 48.3 36.55 48.65 37 49 37.55 49.15 38.1 49.3 38.75 49.3 39.55 49.3 40.3 49 41.05 48.7 41.5 48 L 41.55 48 41.55 49.1 44.05 49.1 44.05 44.65 Q 44.05 43.55 43.85 42.7 43.65 41.9 43.2 41.3 M 41.4 46.55 Q 41.2 46.85 40.9 47.05 40.65 47.25 40.25 47.4 39.9 47.5 39.5 47.5 39.05 47.5 38.6 47.25 38.2 47 38.2 46.5 38.2 46.1 38.5 45.85 38.8 45.6 39.25 45.45 39.65 45.3 40.1 45.3 40.55 45.25 40.85 45.25 L 41.55 45.25 41.55 45.85 Q 41.55 46.25 41.4 46.55 M 48.9 41 Q 48.65 41.25 48.5 41.5 L 48.45 41.5 48.45 40.35 45.95 40.35 45.95 53.2 48.65 53.2 48.65 48.15 48.7 48.15 Q 49.15 48.8 49.9 49.05 50.6 49.3 51.45 49.3 52.4 49.3 53.15 48.95 53.85 48.55 54.4 47.9 54.9 47.25 55.15 46.4 55.45 45.6 55.45 44.65 55.45 43.65 55.15 42.85 54.85 42 54.3 41.4 53.7 40.8 52.9 40.45 52.1 40.15 51.15 40.15 50.7 40.15 50.25 40.25 49.85 40.4 49.5 40.6 49.15 40.8 48.9 41 M 49 43.1 Q 49.6 42.5 50.6 42.5 51.6 42.5 52.2 43.1 52.75 43.75 52.75 44.75 52.75 45.7 52.2 46.35 51.6 46.95 50.6 46.95 49.6 46.95 49 46.35 48.45 45.7 48.45 44.75 48.45 43.75 49 43.1 Z"
         id="path6" />
    </g>
    <g
       id="Layer2_0_FILL">
      <path
         fill="#D7D7D7"
         stroke="none"
         d=" M 92.95 27.1 Q 92.95 22.1 87.95 22.1 L 13.05 22.1 Q 8.05 22.1 8.05 27.1 9.1 50.5 8.05 73.8 8.05 78.8 13.05 78.8 L 87.95 78.8 Q 92.95 78.8 92.95 73.8 91.85 50.5 92.95 27.1 M 81.5 29.95 Q 85.1 29.95 85.1 33.55 84.15 50.5 85.1 67.35 85.1 70.95 81.5 70.95 L 67.7 70.95 66.6 70.95 19.5 70.95 Q 15.85 70.95 15.85 67.35 16.85 50.5 15.85 33.55 15.85 29.95 19.5 29.95 L 66.6 29.95 67.7 29.95 81.5 29.95 Z"
         id="path9" />
      <path
         fill="#F5F5F5"
         stroke="none"
         d=" M 85.1 33.55 Q 85.1 29.95 81.5 29.95 L 67.7 29.95 66.6 29.95 19.5 29.95 Q 15.85 29.95 15.85 33.55 16.85 50.5 15.85 67.35 15.85 70.95 19.5 70.95 L 66.6 70.95 67.7 70.95 81.5 70.95 Q 85.1 70.95 85.1 67.35 84.15 50.5 85.1 33.55 M 48.5 41.5 Q 48.65 41.25 48.9 41 49.15 40.8 49.5 40.6 49.85 40.4 50.25 40.25 50.7 40.15 51.15 40.15 52.1 40.15 52.9 40.45 53.7 40.8 54.3 41.4 54.85 42 55.15 42.85 55.45 43.65 55.45 44.65 55.45 45.6 55.15 46.4 54.9 47.25 54.4 47.9 53.85 48.55 53.15 48.95 52.4 49.3 51.45 49.3 50.6 49.3 49.9 49.05 49.15 48.8 48.7 48.15 L 48.65 48.15 48.65 53.2 45.95 53.2 45.95 40.35 48.45 40.35 48.45 41.5 48.5 41.5 M 42 40.45 Q 42.75 40.75 43.2 41.3 43.65 41.9 43.85 42.7 44.05 43.55 44.05 44.65 L 44.05 49.1 41.55 49.1 41.55 48 41.5 48 Q 41.05 48.7 40.3 49 39.55 49.3 38.75 49.3 38.1 49.3 37.55 49.15 37 49 36.55 48.65 36.1 48.3 35.85 47.8 35.6 47.3 35.6 46.6 35.6 45.85 35.9 45.35 36.2 44.8 36.65 44.5 37.15 44.15 37.75 43.95 38.35 43.75 39 43.65 39.65 43.55 40.35 43.55 41 43.55 41.55 43.55 41.55 42.8 41.05 42.4 40.5 41.95 39.8 41.95 39.15 41.95 38.6 42.25 38.05 42.55 37.6 43 L 36.2 41.55 Q 36.95 40.85 37.95 40.5 38.95 40.15 40.05 40.15 41.2 40.15 42 40.45 M 57.9 40.85 Q 58.4 40.5 59.05 40.3 59.75 40.15 60.4 40.15 61.3 40.15 62.15 40.4 63.05 40.65 63.65 41.3 L 62 42.9 Q 61.4 42.2 60.45 42.2 60.1 42.2 59.75 42.35 59.45 42.5 59.45 42.9 59.45 43.25 59.8 43.4 60.1 43.55 60.65 43.65 61.15 43.75 61.75 43.9 62.3 44.05 62.8 44.35 63.35 44.6 63.65 45.1 64 45.6 64 46.45 64 47.3 63.65 47.85 63.25 48.4 62.7 48.7 62.1 49.05 61.4 49.2 60.65 49.3 59.95 49.3 59.05 49.3 58.1 49.05 57.2 48.8 56.55 48.15 L 58.15 46.3 Q 58.55 46.8 59 47.05 59.45 47.25 60.1 47.25 60.55 47.25 60.95 47.15 61.3 47 61.3 46.65 61.3 46.3 60.95 46.15 60.65 45.95 60.15 45.85 59.6 45.75 59.05 45.6 58.45 45.45 57.95 45.2 57.4 44.9 57.1 44.4 56.75 43.9 56.75 43.1 56.75 42.3 57.05 41.75 57.4 41.2 57.9 40.85 M 31.35 36.15 Q 31.95 36.25 32.5 36.45 33.1 36.65 33.6 37 34.15 37.4 34.55 37.9 L 32.4 39.65 Q 31.95 39.15 31.35 38.9 30.75 38.6 29.95 38.6 29.2 38.6 28.5 38.95 27.85 39.25 27.35 39.8 26.85 40.35 26.55 41.1 26.3 41.85 26.3 42.75 26.3 43.6 26.55 44.35 26.85 45.1 27.35 45.65 27.8 46.2 28.45 46.5 29.15 46.85 29.9 46.85 30.75 46.85 31.4 46.45 32.1 46.1 32.5 45.45 L 34.85 47.2 Q 34.05 48.35 32.8 48.9 31.55 49.45 30.25 49.45 28.75 49.45 27.5 48.95 26.25 48.5 25.3 47.6 24.4 46.75 23.9 45.5 23.35 44.25 23.35 42.75 23.35 41.2 23.9 39.95 24.4 38.7 25.3 37.85 26.25 36.95 27.5 36.5 28.75 36.05 30.25 36.05 30.8 36.05 31.35 36.15 M 40.2 63.55 L 40.2 50.8 43 50.8 43 60.95 48.2 60.95 48.2 63.55 40.2 63.55 M 71.8 49.95 L 71.8 58.25 74.8 54.8 78.1 54.8 74.65 58.75 78.2 63.55 74.8 63.55 71.85 59.1 71.8 59.1 71.8 63.55 69.1 63.55 69.1 49.95 71.8 49.95 M 63.1 54.9 Q 64 54.6 65 54.6 65.75 54.6 66.6 54.85 67.45 55.1 68.1 55.75 L 66.3 57.65 Q 66.15 57.35 65.75 57.15 65.4 56.95 65 56.95 63.95 56.95 63.4 57.55 62.85 58.2 62.85 59.2 62.85 60.15 63.4 60.8 63.95 61.4 65 61.4 65.45 61.4 65.75 61.2 66.1 61 66.3 60.75 L 68.1 62.6 Q 67.45 63.25 66.6 63.5 65.75 63.75 65 63.75 64 63.75 63.1 63.45 62.2 63.1 61.55 62.5 60.9 61.9 60.5 61.05 60.15 60.2 60.15 59.2 60.15 58.15 60.5 57.3 60.9 56.45 61.55 55.85 62.2 55.25 63.1 54.9 M 52.05 54.9 Q 52.95 54.6 53.95 54.6 54.95 54.6 55.85 54.9 56.75 55.25 57.4 55.85 58.05 56.45 58.4 57.3 58.8 58.15 58.8 59.2 58.8 60.2 58.4 61.05 58.05 61.9 57.4 62.5 56.75 63.1 55.85 63.45 54.95 63.75 53.95 63.75 52.95 63.75 52.05 63.45 51.15 63.1 50.5 62.5 49.85 61.9 49.45 61.05 49.1 60.2 49.1 59.2 49.1 58.15 49.45 57.3 49.85 56.45 50.5 55.85 51.15 55.25 52.05 54.9 M 52.35 60.8 Q 52.9 61.4 53.95 61.4 54.95 61.4 55.55 60.8 56.1 60.15 56.1 59.2 56.1 58.2 55.55 57.55 54.95 56.95 53.95 56.95 52.9 56.95 52.35 57.55 51.8 58.2 51.8 59.2 51.8 60.15 52.35 60.8 M 40.9 47.05 Q 41.2 46.85 41.4 46.55 41.55 46.25 41.55 45.85 L 41.55 45.25 40.85 45.25 Q 40.55 45.25 40.1 45.3 39.65 45.3 39.25 45.45 38.8 45.6 38.5 45.85 38.2 46.1 38.2 46.5 38.2 47 38.6 47.25 39.05 47.5 39.5 47.5 39.9 47.5 40.25 47.4 40.65 47.25 40.9 47.05 M 50.6 42.5 Q 49.6 42.5 49 43.1 48.45 43.75 48.45 44.75 48.45 45.7 49 46.35 49.6 46.95 50.6 46.95 51.6 46.95 52.2 46.35 52.75 45.7 52.75 44.75 52.75 43.75 52.2 43.1 51.6 42.5 50.6 42.5 Z"
         id="path11" />
      <path
         fill="#404040"
         stroke="none"
         d=" M 53.95 54.6 Q 52.95 54.6 52.05 54.9 51.15 55.25 50.5 55.85 49.85 56.45 49.45 57.3 49.1 58.15 49.1 59.2 49.1 60.2 49.45 61.05 49.85 61.9 50.5 62.5 51.15 63.1 52.05 63.45 52.95 63.75 53.95 63.75 54.95 63.75 55.85 63.45 56.75 63.1 57.4 62.5 58.05 61.9 58.4 61.05 58.8 60.2 58.8 59.2 58.8 58.15 58.4 57.3 58.05 56.45 57.4 55.85 56.75 55.25 55.85 54.9 54.95 54.6 53.95 54.6 M 53.95 61.4 Q 52.9 61.4 52.35 60.8 51.8 60.15 51.8 59.2 51.8 58.2 52.35 57.55 52.9 56.95 53.95 56.95 54.95 56.95 55.55 57.55 56.1 58.2 56.1 59.2 56.1 60.15 55.55 60.8 54.95 61.4 53.95 61.4 M 65 54.6 Q 64 54.6 63.1 54.9 62.2 55.25 61.55 55.85 60.9 56.45 60.5 57.3 60.15 58.15 60.15 59.2 60.15 60.2 60.5 61.05 60.9 61.9 61.55 62.5 62.2 63.1 63.1 63.45 64 63.75 65 63.75 65.75 63.75 66.6 63.5 67.45 63.25 68.1 62.6 L 66.3 60.75 Q 66.1 61 65.75 61.2 65.45 61.4 65 61.4 63.95 61.4 63.4 60.8 62.85 60.15 62.85 59.2 62.85 58.2 63.4 57.55 63.95 56.95 65 56.95 65.4 56.95 65.75 57.15 66.15 57.35 66.3 57.65 L 68.1 55.75 Q 67.45 55.1 66.6 54.85 65.75 54.6 65 54.6 M 71.8 58.25 L 71.8 49.95 69.1 49.95 69.1 63.55 71.8 63.55 71.8 59.1 71.85 59.1 74.8 63.55 78.2 63.55 74.65 58.75 78.1 54.8 74.8 54.8 71.8 58.25 M 40.2 50.8 L 40.2 63.55 48.2 63.55 48.2 60.95 43 60.95 43 50.8 40.2 50.8 M 32.5 36.45 Q 31.95 36.25 31.35 36.15 30.8 36.05 30.25 36.05 28.75 36.05 27.5 36.5 26.25 36.95 25.3 37.85 24.4 38.7 23.9 39.95 23.35 41.2 23.35 42.75 23.35 44.25 23.9 45.5 24.4 46.75 25.3 47.6 26.25 48.5 27.5 48.95 28.75 49.45 30.25 49.45 31.55 49.45 32.8 48.9 34.05 48.35 34.85 47.2 L 32.5 45.45 Q 32.1 46.1 31.4 46.45 30.75 46.85 29.9 46.85 29.15 46.85 28.45 46.5 27.8 46.2 27.35 45.65 26.85 45.1 26.55 44.35 26.3 43.6 26.3 42.75 26.3 41.85 26.55 41.1 26.85 40.35 27.35 39.8 27.85 39.25 28.5 38.95 29.2 38.6 29.95 38.6 30.75 38.6 31.35 38.9 31.95 39.15 32.4 39.65 L 34.55 37.9 Q 34.15 37.4 33.6 37 33.1 36.65 32.5 36.45 M 59.05 40.3 Q 58.4 40.5 57.9 40.85 57.4 41.2 57.05 41.75 56.75 42.3 56.75 43.1 56.75 43.9 57.1 44.4 57.4 44.9 57.95 45.2 58.45 45.45 59.05 45.6 59.6 45.75 60.15 45.85 60.65 45.95 60.95 46.15 61.3 46.3 61.3 46.65 61.3 47 60.95 47.15 60.55 47.25 60.1 47.25 59.45 47.25 59 47.05 58.55 46.8 58.15 46.3 L 56.55 48.15 Q 57.2 48.8 58.1 49.05 59.05 49.3 59.95 49.3 60.65 49.3 61.4 49.2 62.1 49.05 62.7 48.7 63.25 48.4 63.65 47.85 64 47.3 64 46.45 64 45.6 63.65 45.1 63.35 44.6 62.8 44.35 62.3 44.05 61.75 43.9 61.15 43.75 60.65 43.65 60.1 43.55 59.8 43.4 59.45 43.25 59.45 42.9 59.45 42.5 59.75 42.35 60.1 42.2 60.45 42.2 61.4 42.2 62 42.9 L 63.65 41.3 Q 63.05 40.65 62.15 40.4 61.3 40.15 60.4 40.15 59.75 40.15 59.05 40.3 M 43.2 41.3 Q 42.75 40.75 42 40.45 41.2 40.15 40.05 40.15 38.95 40.15 37.95 40.5 36.95 40.85 36.2 41.55 L 37.6 43 Q 38.05 42.55 38.6 42.25 39.15 41.95 39.8 41.95 40.5 41.95 41.05 42.4 41.55 42.8 41.55 43.55 41 43.55 40.35 43.55 39.65 43.55 39 43.65 38.35 43.75 37.75 43.95 37.15 44.15 36.65 44.5 36.2 44.8 35.9 45.35 35.6 45.85 35.6 46.6 35.6 47.3 35.85 47.8 36.1 48.3 36.55 48.65 37 49 37.55 49.15 38.1 49.3 38.75 49.3 39.55 49.3 40.3 49 41.05 48.7 41.5 48 L 41.55 48 41.55 49.1 44.05 49.1 44.05 44.65 Q 44.05 43.55 43.85 42.7 43.65 41.9 43.2 41.3 M 41.4 46.55 Q 41.2 46.85 40.9 47.05 40.65 47.25 40.25 47.4 39.9 47.5 39.5 47.5 39.05 47.5 38.6 47.25 38.2 47 38.2 46.5 38.2 46.1 38.5 45.85 38.8 45.6 39.25 45.45 39.65 45.3 40.1 45.3 40.55 45.25 40.85 45.25 L 41.55 45.25 41.55 45.85 Q 41.55 46.25 41.4 46.55 M 48.9 41 Q 48.65 41.25 48.5 41.5 L 48.45 41.5 48.45 40.35 45.95 40.35 45.95 53.2 48.65 53.2 48.65 48.15 48.7 48.15 Q 49.15 48.8 49.9 49.05 50.6 49.3 51.45 49.3 52.4 49.3 53.15 48.95 53.85 48.55 54.4 47.9 54.9 47.25 55.15 46.4 55.45 45.6 55.45 44.65 55.45 43.65 55.15 42.85 54.85 42 54.3 41.4 53.7 40.8 52.9 40.45 52.1 40.15 51.15 40.15 50.7 40.15 50.25 40.25 49.85 40.4 49.5 40.6 49.15 40.8 48.9 41 M 49 43.1 Q 49.6 42.5 50.6 42.5 51.6 42.5 52.2 43.1 52.75 43.75 52.75 44.75 52.75 45.7 52.2 46.35 51.6 46.95 50.6 46.95 49.6 46.95 49 46.35 48.45 45.7 48.45 44.75 48.45 43.75 49 43.1 Z"
         id="path13" />
    </g>
    <path
       id="Layer3_0_1_STROKES"
       stroke="#696969"
       stroke-width="4"
       stroke-linejoin="round"
       stroke-linecap="round"
       fill="none"
       d=" M 67.7 70.95 L 81.5 70.95 Q 85.1 70.95 85.1 67.35 84.15 50.5 85.1 33.55 85.1 29.95 81.5 29.95 L 67.7 29.95 M 66.6 29.95 L 19.5 29.95 Q 15.85 29.95 15.85 33.55 16.85 50.5 15.85 67.35 15.85 70.95 19.5 70.95 L 66.6 70.95" />
    <path
       id="Layer3_0_2_STROKES"
       stroke="#1D1D1D"
       stroke-width="5"
       stroke-linejoin="round"
       stroke-linecap="round"
       fill="none"
       d=" M 87.95 22.1 Q 92.95 22.1 92.95 27.1 91.85 50.5 92.95 73.8 92.95 78.8 87.95 78.8 L 13.05 78.8 Q 8.05 78.8 8.05 73.8 9.1 50.5 8.05 27.1 8.05 22.1 13.05 22.1 L 87.95 22.1 Z" />
    <path
       id="Layer2_0_1_STROKES"
       stroke="#FFFFFF"
       stroke-width="4"
       stroke-linejoin="round"
       stroke-linecap="round"
       fill="none"
       d=" M 67.7 70.95 L 81.5 70.95 Q 85.1 70.95 85.1 67.35 84.15 50.5 85.1 33.55 85.1 29.95 81.5 29.95 L 67.7 29.95 M 66.6 29.95 L 19.5 29.95 Q 15.85 29.95 15.85 33.55 16.85 50.5 15.85 67.35 15.85 70.95 19.5 70.95 L 66.6 70.95" />
    <path
       id="Layer2_0_2_STROKES"
       stroke="#404040"
       stroke-width="5"
       stroke-linejoin="round"
       stroke-linecap="round"
       fill="none"
       d=" M 87.95 22.1 Q 92.95 22.1 92.95 27.1 91.85 50.5 92.95 73.8 92.95 78.8 87.95 78.8 L 13.05 78.8 Q 8.05 78.8 8.05 73.8 9.1 50.5 8.05 27.1 8.05 22.1 13.05 22.1 L 87.95 22.1 Z" />
  </defs>
  <g
     transform="matrix( 1, 0, 0, 1, 0,0) "
     id="g28">
    <use
       xlink:href="#Layer3_0_FILL"
       id="use22" />
    <use
       xlink:href="#Layer3_0_1_STROKES"
       id="use24" />
    <use
       xlink:href="#Layer3_0_2_STROKES"
       id="use26" />
  </g>
  <g
     id="g36"
     style="display:none">
    <use
       xlink:href="#Layer2_0_FILL"
       id="use30" />
    <use
       xlink:href="#Layer2_0_1_STROKES"
       id="use32" />
    <use
       xlink:href="#Layer2_0_2_STROKES"
       id="use34" />
  </g>
</svg>
