
<svg xmlns="http://www.w3.org/2000/svg" version="1.1" xmlns:xlink="http://www.w3.org/1999/xlink" preserveAspectRatio="none" x="0px" y="0px" width="100px" height="100px" viewBox="0 0 100 100">
<defs>
<g id="Layer3_0_FILL">
<path fill="#1D1D1D" stroke="none" d="
M 83.6 48.25
Q 83.6 47.95 83.6 47.7 83.5 46.1 83.4 44.75 83.25 40.65 83.1 38.05 82.9 35.55 82.8 34.45 82.65 30.3 82.25 25.95 81.9 21.55 80.6 14.95
L 80.6 14.9
Q 80.45 14.65 80.45 14.45 79.25 10.3 76.35 8.25 74.4 6.7 71.9 6 66.4 4.45 54.9 3.95 54.85 3.95 54.8 3.95 54.75 3.95 54.7 3.95
L 45.35 3.95
Q 45.25 3.95 45.2 3.95
L 45.1 3.95
Q 33.65 4.45 28.25 6 25.5 6.7 23.7 8.25
L 23.85 8.2
Q 20.8 10.25 19.65 14.45 19.6 14.65 19.55 14.9
L 19.5 14.95
Q 18.15 21.5 17.8 25.95 17.35 30.25 17.2 34.4 17.1 35.45 16.95 38.05 16.75 40.65 16.65 44.75
L 16.7 44.7
Q 16.6 46.15 16.5 47.85
L 16.5 47.9
Q 16.45 48.05 16.45 48.25 16.45 48.3 16.45 48.35 16 55.9 15 67.65 14.75 70.1 14.9 72.4 15.6 84.2 25.75 90.5 25.95 90.65 26.2 90.85 36.65 96 49.15 96.1 49.55 96.1 50 96.1 50.45 96.1 50.9 96.1
L 50.95 96.1
Q 63.35 96 73.85 90.85 74.1 90.65 74.4 90.5 84.4 84.2 85.15 72.4 85.25 70.1 85.05 67.65 84.05 55.8 83.6 48.25
M 72.75 12.7
L 72.8 12.75
Q 74.35 13.95 75.1 16.2 76.4 22.5 76.8 26.65 77.2 30.8 77.3 34.85 77.3 34.95 77.35 35.05 77.5 36 77.7 38.65 77.8 41.15 78.05 45.2
L 78.1 45.2
Q 78.05 45.45 78.1 45.75
L 56.35 45.75 60.5 41.65 61.9 40.3
Q 63.4 38.7 63.65 36.65 63.75 36.15 63.75 35.6 63.75 33.0162109375 61.95 31.15 61.8974609375 31.0974609375 61.85 31.05 61.85 31 61.8 31 60.0822265625 29.3775390625 57.7 29.15
L 57.85 20.85
Q 57.85 17.7 55.6 15.45 54.7 14.6 53.75 14.1 53.45 13.9 53.15 13.8 53 13.75 52.85 13.7 52.85 13.4 52.85 13.2
L 52.85 9.6 54.55 9.6
Q 54.6 9.6 54.65 9.6 65.2 10 70.2 11.4 71.65 11.75 72.75 12.7
M 45.35 9.6
L 47.2 9.6 47.2 13.2
Q 47.2 13.4 47.3 13.7
L 46.3 14.1 45.65 14.5
Q 45.3 14.7 45 14.95
L 45 15
Q 44.7 15.15 44.45 15.45 43.6 16.3 43.1 17.35
L 42.3 19.95 42.3 20.1
Q 42.2 20.45 42.25 20.85
L 42.3 29.15
Q 42.14609375 29.178125 41.95 29.2 39.8458984375 29.4390625 38.25 30.85 38.171875 30.932421875 38.1 31 37.8 31.35 37.5 31.7 36.25 33.45 36.25 35.7 36.25 36.2 36.3 36.7 36.6 38.75 38.1 40.3
L 39.45 41.65 43.55 45.75 21.95 45.75
Q 21.95 45.45 22 45.2 22.2 41.15 22.35 38.55 22.5 36 22.7 35.05 22.7 34.95 22.7 34.85 22.85 30.8 23.3 26.65
L 23.3 26.6
Q 23.65 22.4 25.05 16.2 25.65 13.95 27.25 12.75 27.3 12.65 27.4 12.65 28.4 11.75 29.85 11.45
L 29.9 11.4
Q 34.8 10 45.35 9.6
M 46.85 17.35
Q 48.15 16.05 50 16.05 51.85 16.05 53.2 17.35 54.45 18.6 54.45 20.45
L 54.45 22.15
Q 54.45 22.2 54.45 22.3
L 54.45 22.35
Q 54.45 22.5 54.45 22.65
L 54.4 29.7
Q 54.3021484375 29.748828125 54.2 29.8 53.3 30.3 52.55 31.1
L 50 33.65 47.4 31
Q 46.55625 30.2005859375 45.6 29.7
L 45.55 22.65
Q 45.55 22.55 45.6 22.45
L 45.55 20.45
Q 45.55 18.6 46.85 17.35
M 55.15 33.75
Q 56 32.9 57.05 32.9
L 57.1 32.9
Q 57.2560546875 32.9 57.4 32.9 58.4560546875 32.9935546875 59.2 33.65 60 34.5 60 35.6 60 36.8 59.2 37.65
L 51.95 44.9
Q 51.4 45.55 50.55 45.65
L 50 45.7 49.45 45.65
Q 48.7 45.55 48.05 44.9 47.85 44.8 47.65 44.5
L 40.8 37.65
Q 40 36.8 40 35.7 40 34.55 40.8 33.75 41.45 33.1 42.25 32.95 42.4548828125 32.9158203125 42.6 32.9 42.720703125 32.9 42.8 32.9 43.9 32.9 44.75 33.75
L 49.9 38.9 55.15 33.75
M 28.55 87
Q 18.9 80.8 20.15 68.25 21.1 57.85 21.65 50.75
L 78.45 50.75
Q 78.95 57.9 79.95 68.25 81.1 80.8 71.5 87 62.1 91.7 50.9 91.8 50.45 91.8 50 91.8 49.6 91.8 49.15 91.8 37.95 91.7 28.55 87 Z"/>

<path fill="#353535" stroke="none" d="
M 20.15 68.25
Q 18.9 80.8 28.55 87 37.95 91.7 49.15 91.8 49.6 91.8 50 91.8 50.45 91.8 50.9 91.8 62.1 91.7 71.5 87 81.1 80.8 79.95 68.25 78.95 57.9 78.45 50.75
L 21.65 50.75
Q 21.1 57.85 20.15 68.25
M 25.45 67.55
Q 30.65 70.65 33.3 72.85 40.55 76.6 49.15 76.7
L 49.3 76.7
Q 49.65 76.7 50 76.7 50.35 76.7 50.8 76.7
L 50.95 76.7
Q 59.4 76.65 66.6 72.95 69.35 70.75 74.7 67.55 73.25 72.55 69.05 75.8 68.8 75.95 68.55 76.1 68.5 76.1 68.45 76.15 60.45 80.3 51 80.4
L 50.8 80.4
Q 50.35 80.4 50 80.4 49.65 80.4 49.3 80.4
L 49.1 80.4
Q 39.6 80.3 31.55 76.1 31.4 76.05 31.35 76 31.2 75.9 31.1 75.85
L 31.05 75.8
Q 26.7 72.55 25.45 67.55 Z"/>

<path fill="#595959" stroke="none" d="
M 33.3 72.85
Q 30.65 70.65 25.45 67.55 26.7 72.55 31.05 75.8
L 31.1 75.85
Q 31.2 75.9 31.35 76 31.4 76.05 31.55 76.1 39.6 80.3 49.1 80.4
L 49.3 80.4
Q 49.65 80.4 50 80.4 50.35 80.4 50.8 80.4
L 51 80.4
Q 60.45 80.3 68.45 76.15 68.5 76.1 68.55 76.1 68.8 75.95 69.05 75.8 73.25 72.55 74.7 67.55 69.35 70.75 66.6 72.95 59.4 76.65 50.95 76.7
L 50.8 76.7
Q 50.35 76.7 50 76.7 49.65 76.7 49.3 76.7
L 49.15 76.7
Q 40.55 76.6 33.3 72.85
M 47.2 9.6
L 45.35 9.6
Q 34.8 10 29.9 11.4
L 29.85 11.45
Q 28.4 11.75 27.4 12.65 27.3 12.65 27.25 12.75 25.65 13.95 25.05 16.2 23.65 22.4 23.3 26.6
L 23.3 26.65
Q 22.85 30.8 22.7 34.85 22.7 34.95 22.7 35.05 22.5 36 22.35 38.55 22.2 41.15 22 45.2 21.95 45.45 21.95 45.75
L 43.55 45.75 39.45 41.65 26.75 41.65
Q 26.75 39.7 26.9 38.2 27.05 36.65 27.25 35.1 27.5 32.2 27.7 29.2 27.75 28.2 27.85 27.2 28.3 22.3 29.5 17.6 29.9 16.1 31.4 15.75 34.15 15.05 37.1 14.75 38.35 14.6 39.6 14.5 37.9 17.35 37.95 20.85 38.038671875 25.8587890625 38.25 30.85 39.8458984375 29.4390625 41.95 29.2 42.14609375 29.178125 42.3 29.15
L 42.25 20.85
Q 42.2 20.45 42.3 20.1
L 42.3 19.95 43.1 17.35
Q 43.6 16.3 44.45 15.45 44.7 15.15 45 15
L 45 14.95
Q 45.3 14.7 45.65 14.5
L 46.3 14.1 47.3 13.7
Q 47.2 13.4 47.2 13.2
L 47.2 9.6
M 68.85 15.75
Q 70.3 16.1 70.75 17.6 71.95 22.3 72.4 27.2 72.45 28.2 72.55 29.2 72.7 32.2 73 35.1 73.15 36.65 73.35 38.2 73.5 39.7 73.5 41.65
L 60.5 41.65 56.35 45.75 78.1 45.75
Q 78.05 45.45 78.1 45.2
L 78.05 45.2
Q 77.8 41.15 77.7 38.65 77.5 36 77.35 35.05 77.3 34.95 77.3 34.85 77.2 30.8 76.8 26.65 76.4 22.5 75.1 16.2 74.35 13.95 72.8 12.75
L 72.75 12.7
Q 71.65 11.75 70.2 11.4 65.2 10 54.65 9.6 54.6 9.6 54.55 9.6
L 52.85 9.6 52.85 13.2
Q 52.85 13.4 52.85 13.7 53 13.75 53.15 13.8 53.45 13.9 53.75 14.1 54.7 14.6 55.6 15.45 57.85 17.7 57.85 20.85
L 57.7 29.15
Q 60.0822265625 29.3775390625 61.8 31 61.85 31 61.85 31.05 61.8974609375 31.0974609375 61.95 31.15 62.16328125 25.99765625 62.3 20.85 62.35 17.35 60.65 14.5 61.9 14.6 63.15 14.75 66.1 15.05 68.85 15.75 Z"/>

<path fill="#FFFFFF" stroke="none" d="
M 57.05 32.9
Q 56 32.9 55.15 33.75
L 49.9 38.9 44.75 33.75
Q 43.9 32.9 42.8 32.9 42.720703125 32.9 42.6 32.9 42.4548828125 32.9158203125 42.25 32.95 41.45 33.1 40.8 33.75 40 34.55 40 35.7 40 36.8 40.8 37.65
L 47.65 44.5
Q 47.85 44.8 48.05 44.9 48.7 45.55 49.45 45.65
L 50 45.7 50.55 45.65
Q 51.4 45.55 51.95 44.9
L 59.2 37.65
Q 60 36.8 60 35.6 60 34.5 59.2 33.65 58.4560546875 32.9935546875 57.4 32.9 57.2560546875 32.9 57.1 32.9
L 57.05 32.9
M 50 16.05
Q 48.15 16.05 46.85 17.35 45.55 18.6 45.55 20.45
L 45.6 22.45
Q 45.55 22.55 45.55 22.65
L 45.6 29.7
Q 46.55625 30.2005859375 47.4 31
L 50 33.65 52.55 31.1
Q 53.3 30.3 54.2 29.8 54.3021484375 29.748828125 54.4 29.7
L 54.45 22.65
Q 54.45 22.5 54.45 22.35
L 54.45 22.3
Q 54.45 22.2 54.45 22.15
L 54.45 20.45
Q 54.45 18.6 53.2 17.35 51.85 16.05 50 16.05 Z"/>

<path fill="#696969" stroke="none" d="
M 37.95 20.85
Q 37.9 17.35 39.6 14.5 38.35 14.6 37.1 14.75 34.15 15.05 31.4 15.75 29.9 16.1 29.5 17.6 28.3 22.3 27.85 27.2 27.75 28.2 27.7 29.2 27.5 32.2 27.25 35.1 27.05 36.65 26.9 38.2 26.75 39.7 26.75 41.65
L 39.45 41.65 38.1 40.3
Q 36.6 38.75 36.3 36.7 36.25 36.2 36.25 35.7 36.25 33.45 37.5 31.7 37.8 31.35 38.1 31 38.171875 30.932421875 38.25 30.85 38.038671875 25.8587890625 37.95 20.85
M 70.75 17.6
Q 70.3 16.1 68.85 15.75 66.1 15.05 63.15 14.75 61.9 14.6 60.65 14.5 62.35 17.35 62.3 20.85 62.16328125 25.99765625 61.95 31.15 63.75 33.0162109375 63.75 35.6 63.75 36.15 63.65 36.65 63.4 38.7 61.9 40.3
L 60.5 41.65 73.5 41.65
Q 73.5 39.7 73.35 38.2 73.15 36.65 73 35.1 72.7 32.2 72.55 29.2 72.45 28.2 72.4 27.2 71.95 22.3 70.75 17.6 Z"/>
</g>

<g id="Layer2_0_FILL">
<path fill="#404040" stroke="none" d="
M 83.6 48.25
Q 83.6 47.95 83.6 47.7 83.5 46.1 83.4 44.75 83.25 40.65 83.1 38.05 82.9 35.55 82.8 34.45 82.65 30.3 82.25 25.95 81.9 21.55 80.6 14.95
L 80.6 14.9
Q 80.45 14.65 80.45 14.45 79.25 10.3 76.35 8.25 74.4 6.7 71.9 6 66.4 4.45 54.9 3.95 54.85 3.95 54.8 3.95 54.75 3.95 54.7 3.95
L 45.35 3.95
Q 45.25 3.95 45.2 3.95
L 45.1 3.95
Q 33.65 4.45 28.25 6 25.5 6.7 23.7 8.25
L 23.85 8.2
Q 20.8 10.25 19.65 14.45 19.6 14.65 19.55 14.9
L 19.5 14.95
Q 18.15 21.5 17.8 25.95 17.35 30.25 17.2 34.4 17.1 35.45 16.95 38.05 16.75 40.65 16.65 44.75
L 16.7 44.7
Q 16.6 46.15 16.5 47.85
L 16.5 47.9
Q 16.45 48.05 16.45 48.25 16.45 48.3 16.45 48.35 16 55.9 15 67.65 14.75 70.1 14.9 72.4 15.6 84.2 25.75 90.5 25.95 90.65 26.2 90.85 36.65 96 49.15 96.1 49.55 96.1 50 96.1 50.45 96.1 50.9 96.1
L 50.95 96.1
Q 63.35 96 73.85 90.85 74.1 90.65 74.4 90.5 84.4 84.2 85.15 72.4 85.25 70.1 85.05 67.65 84.05 55.8 83.6 48.25
M 72.75 12.7
L 72.8 12.75
Q 74.35 13.95 75.1 16.2 76.4 22.5 76.8 26.65 77.2 30.8 77.3 34.85 77.3 34.95 77.35 35.05 77.5 36 77.7 38.65 77.8 41.15 78.05 45.2
L 78.1 45.2
Q 78.05 45.45 78.1 45.75
L 56.35 45.75 60.5 41.65 61.9 40.3
Q 63.4 38.7 63.65 36.65 63.75 36.15 63.75 35.6 63.75 33.0162109375 61.95 31.15 61.8974609375 31.0974609375 61.85 31.05 61.85 31 61.8 31 60.0822265625 29.3775390625 57.7 29.15
L 57.85 20.85
Q 57.85 17.7 55.6 15.45 54.7 14.6 53.75 14.1 53.45 13.9 53.15 13.8 53 13.75 52.85 13.7 52.85 13.4 52.85 13.2
L 52.85 9.6 54.55 9.6
Q 54.6 9.6 54.65 9.6 65.2 10 70.2 11.4 71.65 11.75 72.75 12.7
M 45.35 9.6
L 47.2 9.6 47.2 13.2
Q 47.2 13.4 47.3 13.7
L 46.3 14.1 45.65 14.5
Q 45.3 14.7 45 14.95
L 45 15
Q 44.7 15.15 44.45 15.45 43.6 16.3 43.1 17.35
L 42.3 19.95 42.3 20.1
Q 42.2 20.45 42.25 20.85
L 42.3 29.15
Q 42.14609375 29.178125 41.95 29.2 39.8458984375 29.4390625 38.25 30.85 38.171875 30.932421875 38.1 31 37.8 31.35 37.5 31.7 36.25 33.45 36.25 35.7 36.25 36.2 36.3 36.7 36.6 38.75 38.1 40.3
L 39.45 41.65 43.55 45.75 21.95 45.75
Q 21.95 45.45 22 45.2 22.2 41.15 22.35 38.55 22.5 36 22.7 35.05 22.7 34.95 22.7 34.85 22.85 30.8 23.3 26.65
L 23.3 26.6
Q 23.65 22.4 25.05 16.2 25.65 13.95 27.25 12.75 27.3 12.65 27.4 12.65 28.4 11.75 29.85 11.45
L 29.9 11.4
Q 34.8 10 45.35 9.6
M 46.85 17.35
Q 48.15 16.05 50 16.05 51.85 16.05 53.2 17.35 54.45 18.6 54.45 20.45
L 54.45 22.15
Q 54.45 22.2 54.45 22.3
L 54.45 22.35
Q 54.45 22.5 54.45 22.65
L 54.4 29.7
Q 54.3021484375 29.748828125 54.2 29.8 53.3 30.3 52.55 31.1
L 50 33.65 47.4 31
Q 46.55625 30.2005859375 45.6 29.7
L 45.55 22.65
Q 45.55 22.55 45.6 22.45
L 45.55 20.45
Q 45.55 18.6 46.85 17.35
M 55.15 33.75
Q 56 32.9 57.05 32.9
L 57.1 32.9
Q 57.2560546875 32.9 57.4 32.9 58.4560546875 32.9935546875 59.2 33.65 60 34.5 60 35.6 60 36.8 59.2 37.65
L 51.95 44.9
Q 51.4 45.55 50.55 45.65
L 50 45.7 49.45 45.65
Q 48.7 45.55 48.05 44.9 47.85 44.8 47.65 44.5
L 40.8 37.65
Q 40 36.8 40 35.7 40 34.55 40.8 33.75 41.45 33.1 42.25 32.95 42.4548828125 32.9158203125 42.6 32.9 42.720703125 32.9 42.8 32.9 43.9 32.9 44.75 33.75
L 49.9 38.9 55.15 33.75
M 28.55 87
Q 18.9 80.8 20.15 68.25 21.1 57.85 21.65 50.75
L 78.45 50.75
Q 78.95 57.9 79.95 68.25 81.1 80.8 71.5 87 62.1 91.7 50.9 91.8 50.45 91.8 50 91.8 49.6 91.8 49.15 91.8 37.95 91.7 28.55 87 Z"/>

<path fill="#D7D7D7" stroke="none" d="
M 20.15 68.25
Q 18.9 80.8 28.55 87 37.95 91.7 49.15 91.8 49.6 91.8 50 91.8 50.45 91.8 50.9 91.8 62.1 91.7 71.5 87 81.1 80.8 79.95 68.25 78.95 57.9 78.45 50.75
L 21.65 50.75
Q 21.1 57.85 20.15 68.25
M 25.45 67.55
Q 30.65 70.65 33.3 72.85 40.55 76.6 49.15 76.7
L 49.3 76.7
Q 49.65 76.7 50 76.7 50.35 76.7 50.8 76.7
L 50.95 76.7
Q 59.4 76.65 66.6 72.95 69.35 70.75 74.7 67.55 73.25 72.55 69.05 75.8 68.8 75.95 68.55 76.1 68.5 76.1 68.45 76.15 60.45 80.3 51 80.4
L 50.8 80.4
Q 50.35 80.4 50 80.4 49.65 80.4 49.3 80.4
L 49.1 80.4
Q 39.6 80.3 31.55 76.1 31.4 76.05 31.35 76 31.2 75.9 31.1 75.85
L 31.05 75.8
Q 26.7 72.55 25.45 67.55 Z"/>

<path fill="#F5F5F5" stroke="none" d="
M 33.3 72.85
Q 30.65 70.65 25.45 67.55 26.7 72.55 31.05 75.8
L 31.1 75.85
Q 31.2 75.9 31.35 76 31.4 76.05 31.55 76.1 39.6 80.3 49.1 80.4
L 49.3 80.4
Q 49.65 80.4 50 80.4 50.35 80.4 50.8 80.4
L 51 80.4
Q 60.45 80.3 68.45 76.15 68.5 76.1 68.55 76.1 68.8 75.95 69.05 75.8 73.25 72.55 74.7 67.55 69.35 70.75 66.6 72.95 59.4 76.65 50.95 76.7
L 50.8 76.7
Q 50.35 76.7 50 76.7 49.65 76.7 49.3 76.7
L 49.15 76.7
Q 40.55 76.6 33.3 72.85
M 47.2 9.6
L 45.35 9.6
Q 34.8 10 29.9 11.4
L 29.85 11.45
Q 28.4 11.75 27.4 12.65 27.3 12.65 27.25 12.75 25.65 13.95 25.05 16.2 23.65 22.4 23.3 26.6
L 23.3 26.65
Q 22.85 30.8 22.7 34.85 22.7 34.95 22.7 35.05 22.5 36 22.35 38.55 22.2 41.15 22 45.2 21.95 45.45 21.95 45.75
L 43.55 45.75 39.45 41.65 26.75 41.65
Q 26.75 39.7 26.9 38.2 27.05 36.65 27.25 35.1 27.5 32.2 27.7 29.2 27.75 28.2 27.85 27.2 28.3 22.3 29.5 17.6 29.9 16.1 31.4 15.75 34.15 15.05 37.1 14.75 38.35 14.6 39.6 14.5 37.9 17.35 37.95 20.85 38.038671875 25.8587890625 38.25 30.85 39.8458984375 29.4390625 41.95 29.2 42.14609375 29.178125 42.3 29.15
L 42.25 20.85
Q 42.2 20.45 42.3 20.1
L 42.3 19.95 43.1 17.35
Q 43.6 16.3 44.45 15.45 44.7 15.15 45 15
L 45 14.95
Q 45.3 14.7 45.65 14.5
L 46.3 14.1 47.3 13.7
Q 47.2 13.4 47.2 13.2
L 47.2 9.6
M 68.85 15.75
Q 70.3 16.1 70.75 17.6 71.95 22.3 72.4 27.2 72.45 28.2 72.55 29.2 72.7 32.2 73 35.1 73.15 36.65 73.35 38.2 73.5 39.7 73.5 41.65
L 60.5 41.65 56.35 45.75 78.1 45.75
Q 78.05 45.45 78.1 45.2
L 78.05 45.2
Q 77.8 41.15 77.7 38.65 77.5 36 77.35 35.05 77.3 34.95 77.3 34.85 77.2 30.8 76.8 26.65 76.4 22.5 75.1 16.2 74.35 13.95 72.8 12.75
L 72.75 12.7
Q 71.65 11.75 70.2 11.4 65.2 10 54.65 9.6 54.6 9.6 54.55 9.6
L 52.85 9.6 52.85 13.2
Q 52.85 13.4 52.85 13.7 53 13.75 53.15 13.8 53.45 13.9 53.75 14.1 54.7 14.6 55.6 15.45 57.85 17.7 57.85 20.85
L 57.7 29.15
Q 60.0822265625 29.3775390625 61.8 31 61.85 31 61.85 31.05 61.8974609375 31.0974609375 61.95 31.15 62.16328125 25.99765625 62.3 20.85 62.35 17.35 60.65 14.5 61.9 14.6 63.15 14.75 66.1 15.05 68.85 15.75 Z"/>

<path fill="#E02727" stroke="none" d="
M 57.05 32.9
Q 56 32.9 55.15 33.75
L 49.9 38.9 44.75 33.75
Q 43.9 32.9 42.8 32.9 42.720703125 32.9 42.6 32.9 42.4548828125 32.9158203125 42.25 32.95 41.45 33.1 40.8 33.75 40 34.55 40 35.7 40 36.8 40.8 37.65
L 47.65 44.5
Q 47.85 44.8 48.05 44.9 48.7 45.55 49.45 45.65
L 50 45.7 50.55 45.65
Q 51.4 45.55 51.95 44.9
L 59.2 37.65
Q 60 36.8 60 35.6 60 34.5 59.2 33.65 58.4560546875 32.9935546875 57.4 32.9 57.2560546875 32.9 57.1 32.9
L 57.05 32.9
M 50 16.05
Q 48.15 16.05 46.85 17.35 45.55 18.6 45.55 20.45
L 45.6 22.45
Q 45.55 22.55 45.55 22.65
L 45.6 29.7
Q 46.55625 30.2005859375 47.4 31
L 50 33.65 52.55 31.1
Q 53.3 30.3 54.2 29.8 54.3021484375 29.748828125 54.4 29.7
L 54.45 22.65
Q 54.45 22.5 54.45 22.35
L 54.45 22.3
Q 54.45 22.2 54.45 22.15
L 54.45 20.45
Q 54.45 18.6 53.2 17.35 51.85 16.05 50 16.05 Z"/>

<path fill="#FFFFFF" stroke="none" d="
M 37.95 20.85
Q 37.9 17.35 39.6 14.5 38.35 14.6 37.1 14.75 34.15 15.05 31.4 15.75 29.9 16.1 29.5 17.6 28.3 22.3 27.85 27.2 27.75 28.2 27.7 29.2 27.5 32.2 27.25 35.1 27.05 36.65 26.9 38.2 26.75 39.7 26.75 41.65
L 39.45 41.65 38.1 40.3
Q 36.6 38.75 36.3 36.7 36.25 36.2 36.25 35.7 36.25 33.45 37.5 31.7 37.8 31.35 38.1 31 38.171875 30.932421875 38.25 30.85 38.038671875 25.8587890625 37.95 20.85
M 70.75 17.6
Q 70.3 16.1 68.85 15.75 66.1 15.05 63.15 14.75 61.9 14.6 60.65 14.5 62.35 17.35 62.3 20.85 62.16328125 25.99765625 61.95 31.15 63.75 33.0162109375 63.75 35.6 63.75 36.15 63.65 36.65 63.4 38.7 61.9 40.3
L 60.5 41.65 73.5 41.65
Q 73.5 39.7 73.35 38.2 73.15 36.65 73 35.1 72.7 32.2 72.55 29.2 72.45 28.2 72.4 27.2 71.95 22.3 70.75 17.6 Z"/>
</g>
</defs>

<g transform="matrix( 1, 0, 0, 1, 0,0) ">
<use xlink:href="#Layer3_0_FILL"/>
</g>

<g transform="matrix( 1, 0, 0, 1, 0,0) ">
<use xlink:href="#Layer2_0_FILL"/>
</g>
</svg>
