
<svg xmlns="http://www.w3.org/2000/svg" version="1.1" xmlns:xlink="http://www.w3.org/1999/xlink" preserveAspectRatio="none" x="0px" y="0px" width="100px" height="100px" viewBox="0 0 100 100">
<defs>
<g id="Layer3_0_FILL">
<path fill="#353535" stroke="none" d="
M 74.4 11.5
Q 74.4 6.65 70.3 6.65
L 30.65 6.65
Q 26.6 6.65 26.6 11.5 27 22.55 27.05 66.45 27.05 77.95 26.6 89.45 26.6 94.3 30.65 94.3
L 70.3 94.3
Q 74.4 94.3 74.4 89.45 73.9 77.95 73.95 66.45 73.95 22.55 74.4 11.5
M 53 14.2
L 53.9 14.2 65.05 14.2
Q 68 14.2 68 17.75 67.65 25.7 67.65 66.45 67.65 74.85 68 83.2 68 86.7 65.05 86.7
L 53.9 86.7 53 86.7 35.9 86.7
Q 32.95 86.7 32.95 83.2 33.35 74.85 33.35 66.45 33.35 25.7 32.95 17.75 32.95 14.2 35.9 14.2
L 53 14.2 Z"/>

<path fill="#595959" stroke="none" d="
M 53.9 14.2
L 53 14.2 35.9 14.2
Q 32.95 14.2 32.95 17.75 33.35 25.7 33.35 66.45 33.35 74.85 32.95 83.2 32.95 86.7 35.9 86.7
L 53 86.7 53.9 86.7 65.05 86.7
Q 68 86.7 68 83.2 67.65 74.85 67.65 66.45 67.65 25.7 68 17.75 68 14.2 65.05 14.2
L 53.9 14.2
M 48.3 42.75
L 52.7 42.75 52.7 50.15 60.1 50.15 60.1 54.55 52.7 54.55 52.7 61.95 48.3 61.95 48.3 54.55 40.9 54.55 40.9 50.15 48.3 50.15 48.3 42.75 Z"/>

<path fill="#CDCDCD" stroke="none" d="
M 52.7 42.75
L 48.3 42.75 48.3 50.15 40.9 50.15 40.9 54.55 48.3 54.55 48.3 61.95 52.7 61.95 52.7 54.55 60.1 54.55 60.1 50.15 52.7 50.15 52.7 42.75 Z"/>
</g>

<g id="Layer2_0_FILL">
<path fill="#D7D7D7" stroke="none" d="
M 74.4 11.5
Q 74.4 6.65 70.3 6.65
L 30.65 6.65
Q 26.6 6.65 26.6 11.5 27 22.55 27.05 66.45 27.05 77.95 26.6 89.45 26.6 94.3 30.65 94.3
L 70.3 94.3
Q 74.4 94.3 74.4 89.45 73.9 77.95 73.95 66.45 73.95 22.55 74.4 11.5
M 53.9 14.2
L 65.05 14.2
Q 68 14.2 68 17.75 67.65 25.7 67.65 66.45 67.65 74.85 68 83.2 68 86.7 65.05 86.7
L 53.9 86.7 53 86.7 35.9 86.7
Q 32.95 86.7 32.95 83.2 33.35 74.85 33.35 66.45 33.35 25.7 32.95 17.75 32.95 14.2 35.9 14.2
L 53 14.2 53.9 14.2 Z"/>

<path fill="#F5F5F5" stroke="none" d="
M 65.05 14.2
L 53.9 14.2 53 14.2 35.9 14.2
Q 32.95 14.2 32.95 17.75 33.35 25.7 33.35 66.45 33.35 74.85 32.95 83.2 32.95 86.7 35.9 86.7
L 53 86.7 53.9 86.7 65.05 86.7
Q 68 86.7 68 83.2 67.65 74.85 67.65 66.45 67.65 25.7 68 17.75 68 14.2 65.05 14.2
M 48.3 42.75
L 52.7 42.75 52.7 50.15 60.1 50.15 60.1 54.55 52.7 54.55 52.7 61.95 48.3 61.95 48.3 54.55 40.9 54.55 40.9 50.15 48.3 50.15 48.3 42.75 Z"/>

<path fill="#404040" stroke="none" d="
M 52.7 42.75
L 48.3 42.75 48.3 50.15 40.9 50.15 40.9 54.55 48.3 54.55 48.3 61.95 52.7 61.95 52.7 54.55 60.1 54.55 60.1 50.15 52.7 50.15 52.7 42.75 Z"/>
</g>

<path id="Layer3_0_1_STROKES" stroke="#696969" stroke-width="4" stroke-linejoin="round" stroke-linecap="round" fill="none" d="
M 53 14.2
L 35.9 14.2
Q 32.95 14.2 32.95 17.75 33.35 25.7 33.35 66.45 33.35 74.85 32.95 83.2 32.95 86.7 35.9 86.7
L 53 86.7
M 53.9 86.7
L 65.05 86.7
Q 68 86.7 68 83.2 67.65 74.85 67.65 66.45 67.65 25.7 68 17.75 68 14.2 65.05 14.2
L 53.9 14.2"/>

<path id="Layer3_0_2_STROKES" stroke="#1D1D1D" stroke-width="5" stroke-linejoin="round" stroke-linecap="round" fill="none" d="
M 70.3 6.65
Q 74.4 6.65 74.4 11.5 73.95 22.55 73.95 66.45 73.9 77.95 74.4 89.45 74.4 94.3 70.3 94.3
L 30.65 94.3
Q 26.6 94.3 26.6 89.45 27.05 77.95 27.05 66.45 27 22.55 26.6 11.5 26.6 6.65 30.65 6.65
L 70.3 6.65 Z"/>

<path id="Layer2_0_1_STROKES" stroke="#404040" stroke-width="5" stroke-linejoin="round" stroke-linecap="round" fill="none" d="
M 70.3 6.65
Q 74.4 6.65 74.4 11.5 73.95 22.55 73.95 66.45 73.9 77.95 74.4 89.45 74.4 94.3 70.3 94.3
L 30.65 94.3
Q 26.6 94.3 26.6 89.45 27.05 77.95 27.05 66.45 27 22.55 26.6 11.5 26.6 6.65 30.65 6.65
L 70.3 6.65 Z"/>

<path id="Layer2_0_2_STROKES" stroke="#FFFFFF" stroke-width="4" stroke-linejoin="round" stroke-linecap="round" fill="none" d="
M 53.9 86.7
L 65.05 86.7
Q 68 86.7 68 83.2 67.65 74.85 67.65 66.45 67.65 25.7 68 17.75 68 14.2 65.05 14.2
L 53.9 14.2
M 53 14.2
L 35.9 14.2
Q 32.95 14.2 32.95 17.75 33.35 25.7 33.35 66.45 33.35 74.85 32.95 83.2 32.95 86.7 35.9 86.7
L 53 86.7"/>
</defs>

<g transform="matrix( 1, 0, 0, 1, 0,0) ">
<use xlink:href="#Layer3_0_FILL"/>

<use xlink:href="#Layer3_0_1_STROKES"/>

<use xlink:href="#Layer3_0_2_STROKES"/>
</g>

<g transform="matrix( 1, 0, 0, 1, 0,0) ">
<use xlink:href="#Layer2_0_FILL"/>

<use xlink:href="#Layer2_0_1_STROKES"/>

<use xlink:href="#Layer2_0_2_STROKES"/>
</g>
</svg>
