<?xml version="1.0" encoding="UTF-8" standalone="no"?>
<svg
   version="1.1"
   preserveAspectRatio="none"
   x="0px"
   y="0px"
   width="100px"
   height="100px"
   viewBox="0 0 100 100"
   id="svg12581"
   sodipodi:docname="Vector Source0002.svg"
   inkscape:version="1.2.1 (9c6d41e410, 2022-07-14)"
   xmlns:inkscape="http://www.inkscape.org/namespaces/inkscape"
   xmlns:sodipodi="http://sodipodi.sourceforge.net/DTD/sodipodi-0.dtd"
   xmlns:xlink="http://www.w3.org/1999/xlink"
   xmlns="http://www.w3.org/2000/svg"
   xmlns:svg="http://www.w3.org/2000/svg">
  <sodipodi:namedview
     id="namedview12583"
     pagecolor="#ffffff"
     bordercolor="#000000"
     borderopacity="0.25"
     inkscape:showpageshadow="2"
     inkscape:pageopacity="0.0"
     inkscape:pagecheckerboard="0"
     inkscape:deskcolor="#d1d1d1"
     showgrid="false"
     inkscape:zoom="10.27"
     inkscape:cx="42.55112"
     inkscape:cy="50"
     inkscape:window-width="2400"
     inkscape:window-height="1261"
     inkscape:window-x="5591"
     inkscape:window-y="431"
     inkscape:window-maximized="1"
     inkscape:current-layer="svg12581" />
  <defs
     id="defs12431">
    <linearGradient
       id="Gradient_1"
       gradientUnits="userSpaceOnUse"
       x1="-40.3375"
       y1="-1.3249999999999997"
       x2="-34.1625"
       y2="-2.975"
       spreadMethod="pad">
      <stop
         offset="0%"
         stop-color="#796C4B"
         stop-opacity="0"
         id="stop12138" />
      <stop
         offset="100%"
         stop-color="#876B47"
         id="stop12140" />
    </linearGradient>
    <linearGradient
       id="Gradient_2"
       gradientUnits="userSpaceOnUse"
       x1="-40.3375"
       y1="-1.3249999999999997"
       x2="-34.1625"
       y2="-2.975"
       spreadMethod="pad">
      <stop
         offset="0%"
         stop-color="#876B47"
         stop-opacity="0"
         id="stop12143" />
      <stop
         offset="100%"
         stop-color="#876B47"
         id="stop12145" />
    </linearGradient>
    <linearGradient
       id="Gradient_3"
       gradientUnits="userSpaceOnUse"
       x1="10.499999999999998"
       y1="-5.7"
       x2="34.4"
       y2="-5.7"
       spreadMethod="pad">
      <stop
         offset="0%"
         stop-color="#F1B776"
         id="stop12148" />
      <stop
         offset="100%"
         stop-color="#876B47"
         id="stop12150" />
    </linearGradient>
    <linearGradient
       id="Gradient_4"
       gradientUnits="userSpaceOnUse"
       x1="25.2375"
       y1="-11.6625"
       x2="40.2625"
       y2="5.6625"
       spreadMethod="pad">
      <stop
         offset="0%"
         stop-color="#000000"
         stop-opacity="0"
         id="stop12153" />
      <stop
         offset="100%"
         stop-color="#000000"
         stop-opacity="0.2"
         id="stop12155" />
    </linearGradient>
    <linearGradient
       id="Gradient_5"
       gradientUnits="userSpaceOnUse"
       x1="50"
       y1="76.4375"
       x2="50"
       y2="23.5625"
       spreadMethod="pad">
      <stop
         offset="0%"
         stop-color="#616161"
         id="stop12158" />
      <stop
         offset="95.29411764705883%"
         stop-color="#353535"
         id="stop12160" />
    </linearGradient>
    <linearGradient
       id="Gradient_6"
       gradientUnits="userSpaceOnUse"
       x1="50"
       y1="10.412499999999994"
       x2="50"
       y2="89.5875"
       spreadMethod="pad">
      <stop
         offset="0%"
         stop-color="#373737"
         id="stop12163" />
      <stop
         offset="100%"
         stop-color="#575757"
         id="stop12165" />
    </linearGradient>
    <linearGradient
       id="Gradient_7"
       gradientUnits="userSpaceOnUse"
       x1="30.65"
       y1="18.15"
       x2="30.65"
       y2="43.15"
       spreadMethod="pad">
      <stop
         offset="0%"
         stop-color="#000000"
         stop-opacity="0.2"
         id="stop12168" />
      <stop
         offset="100%"
         stop-color="#000000"
         stop-opacity="0"
         id="stop12170" />
    </linearGradient>
    <linearGradient
       id="Gradient_8"
       gradientUnits="userSpaceOnUse"
       x1="73.6375"
       y1="51"
       x2="63.3625"
       y2="51"
       spreadMethod="pad">
      <stop
         offset="0%"
         stop-color="#D7D7D7"
         id="stop12173" />
      <stop
         offset="100%"
         stop-color="#313131"
         id="stop12175" />
    </linearGradient>
    <linearGradient
       id="Gradient_9"
       gradientUnits="userSpaceOnUse"
       x1="56.900000000000006"
       y1="49"
       x2="71.5"
       y2="49"
       spreadMethod="pad">
      <stop
         offset="0%"
         stop-color="#4F4F4F"
         id="stop12178" />
      <stop
         offset="100%"
         stop-color="#F5F5F5"
         id="stop12180" />
    </linearGradient>
    <linearGradient
       id="Gradient_10"
       gradientUnits="userSpaceOnUse"
       x1="60.35"
       y1="47.95"
       x2="73.65"
       y2="47.95"
       spreadMethod="pad">
      <stop
         offset="0%"
         stop-color="#626262"
         id="stop12183" />
      <stop
         offset="100%"
         stop-color="#FFFFFF"
         id="stop12185" />
    </linearGradient>
    <linearGradient
       id="Gradient_11"
       gradientUnits="userSpaceOnUse"
       x1="81.8375"
       y1="52.6"
       x2="67.5625"
       y2="52.6"
       spreadMethod="pad">
      <stop
         offset="0%"
         stop-color="#404040"
         id="stop12188" />
      <stop
         offset="100%"
         stop-color="#1B1B1B"
         id="stop12190" />
    </linearGradient>
    <g
       id="Layer22_0_FILL">
      <path
         fill="#D7D7D7"
         stroke="none"
         d=" M 39.2 69.6 Q 34.8 74.1 34.8 80.4 34.8 86.7 39.2 91.15 43.7 95.6 50 95.6 56.35 95.6 60.75 91.15 65.2 86.7 65.2 80.4 65.2 74.1 60.75 69.6 56.35 65.2 50 65.2 43.7 65.2 39.2 69.6 Z"
         id="path12193" />
    </g>
    <g
       id="FingerSide_0_Layer0_0_FILL">
      <path
         fill="#F1B776"
         stroke="none"
         d=" M -14.15 -11.8 L -13.05 -12 Q -11.75 -10.15 -9.95 -11.5 L -9.15 -13.65 Q -10.1 -13.7 -10.95 -13.95 -16.55 -15 -22.15 -13.95 -18.65 -12.2 -17.35 -8.2 L -15.75 -8.05 Q -14.5 -9.65 -14.15 -11.8 M 32.3 -2.65 Q 30.6 -2.6 28.95 -2.55 24.2 -2.85 19.65 -3.65 21.8 2.1 14.65 3.4 13.2 3.55 11.75 3.8 5.05 5.2 -1.85 4.95 -8.85 4.5 -15.85 3.65 -17.95 3.3 -20 4.15 -25.4 6.4 -31.05 7.5 -32.35 7.65 -33.55 7.35 -34.35 7.15 -35.05 6.75 -37.95 5.05 -40.35 2.6 -38.9 7.5 -36.3 12.05 -35.45 13.55 -34.5 15.1 -33.6 14.8 -32.65 14.55 -29.15 13.4 -25.7 11.9 -19.65 9.35 -13.2 9.05 -6 9.75 1.15 9.75 5.3 9.75 9.5 9.6 15.6 8.8 21.65 6.8 29 4.4 32.3 -2.65 M 11.2 -8.75 L 10.55 -9.1 Q 9.65 -10.5 10 -12.3 L 5.55 -12.7 Q 6.15 -12.2 6.45 -11.55 9.9 -4.25 18.35 -4.1 16.95 -4.7 15.6 -5.3 11.95 -6.95 11.2 -8.75 Z"
         id="path12196" />
      <path
         fill="url(#Gradient_1)"
         stroke="none"
         d=" M 36.95 -3.95 L 32.3 -2.65 Q 29 4.4 21.65 6.8 15.6 8.8 9.5 9.6 5.3 9.75 1.15 9.75 -6 9.75 -13.2 9.05 -19.65 9.35 -25.7 11.9 -29.15 13.4 -32.65 14.55 -33.6 14.8 -34.5 15.1 -35.2 15.25 -35.9 15.5 L -35.9 19.65 Q -34.65 19.3 -33.4 18.95 -32.8 18.75 -32.15 18.55 -23.8 16 -15.8 12.85 6.85 14.6 16.85 12.5 27.65 10.3 32.2 4.65 32.9 3.8 33.5 3 36.45 -1 36.95 -3.95 Z"
         id="path12198" />
      <path
         fill="#FFFFFF"
         stroke="none"
         d=" M 32.4 -9.2 Q 32.45 -9.15 32.45 -9.1 32.5 -9.05 32.5 -9 32.55 -8.95 32.55 -8.9 32.55 -8.85 32.55 -8.8 32.55 -8.75 32.6 -8.7 32.6 -8.65 32.6 -8.6 32.65 -8.55 32.65 -8.45 32.7 -8.4 32.7 -8.35 32.7 -8.25 32.7 -8.15 32.7 -7.95 32.7 -7.75 32.7 -7.6 32.7 -7.45 32.7 -7.35 32.7 -7.25 32.65 -7.2 32.6 -7.15 32.6 -7.1 32.6 -7.05 32.55 -6.95 32.55 -6.85 32.55 -6.8 32.55 -6.75 33 -6.85 33.5 -6.9 33.85 -6.95 34.25 -7 34.35 -7.05 34.4 -7.1 35 -7.7 35.05 -8.65 34.3 -8.85 33.5 -9 32.95 -9.1 32.4 -9.2 M 12.8 -11.05 Q 12.75 -11.1 12.7 -11.1 L 10 -12.3 Q 9.65 -10.5 10.55 -9.1 L 11.2 -8.75 Q 11.5 -8.7 11.9 -8.55 L 12 -8.55 Q 12.4 -8.4 12.95 -8.2 L 12.95 -8.25 Q 12.95 -8.3 13 -8.35 13 -8.45 13 -8.55 13 -8.65 13 -8.75 13 -8.85 13 -8.95 13 -9 13 -9.05 12.95 -9.1 12.95 -9.15 12.95 -9.2 13 -9.25 13 -9.3 13 -9.35 13.05 -9.4 13.05 -9.45 13.05 -9.55 13.05 -9.65 13.05 -9.8 13.05 -9.95 13.05 -10.05 13.05 -10.15 13.05 -10.25 13.1 -10.35 13.1 -10.4 13.1 -10.45 13.05 -10.5 13.05 -10.55 13.05 -10.6 13 -10.65 13 -10.7 12.95 -10.75 12.95 -10.8 12.9 -10.85 12.9 -10.9 12.9 -10.95 12.85 -11 12.8 -11.05 Z"
         id="path12200" />
      <path
         fill="url(#Gradient_2)"
         stroke="none"
         d=" M 10 -12.3 L 10.3 -16.4 -8.9 -17.65 Q -9 -17.65 -9.05 -17.65 -9.35 -17.65 -9.6 -17.65 -16.85 -19.5 -24.05 -17.6 -24.15 -17.6 -24.15 -17.55 -30.4 -16.25 -36.25 -14.75 -39.4 -14 -42.4 -13.2 -43.25 -13 -44.1 -12.75 L -44.1 -8.6 Q -44 -8.65 -43.85 -8.65 -42.6 -9 -41.35 -9.35 -38.6 -10.1 -35.75 -10.75 -29.65 -12.3 -23.2 -13.7 L -23.1 -13.7 Q -22.65 -13.85 -22.15 -13.95 -16.55 -15 -10.95 -13.95 -10.1 -13.7 -9.15 -13.65 L 5.55 -12.7 10 -12.3 Z"
         id="path12202" />
      <path
         fill="#FBCF9B"
         stroke="none"
         d=" M 19.65 -3.65 Q 19 -3.85 18.35 -4.1 9.9 -4.25 6.45 -11.55 6.15 -12.2 5.55 -12.7 L -9.15 -13.65 -9.95 -11.5 Q -11.75 -10.15 -13.05 -12 L -14.15 -11.8 Q -14.5 -9.65 -15.75 -8.05 L -17.35 -8.2 Q -18.65 -12.2 -22.15 -13.95 -22.65 -13.85 -23.1 -13.7 L -23.2 -13.7 Q -29.65 -12.3 -35.75 -10.75 -38.6 -10.1 -41.35 -9.35 -41.75 -4.65 -40.95 -0.2 L -41 -0.2 Q -40.75 1.15 -40.4 2.55 L -40.35 2.6 Q -37.95 5.05 -35.05 6.75 -34.35 7.15 -33.55 7.35 -32.35 7.65 -31.05 7.5 -25.4 6.4 -20 4.15 -17.95 3.3 -15.85 3.65 -8.85 4.5 -1.85 4.95 5.05 5.2 11.75 3.8 13.2 3.55 14.65 3.4 21.8 2.1 19.65 -3.65 Z"
         id="path12204" />
      <path
         fill="url(#Gradient_3)"
         stroke="none"
         d=" M 12 -8.55 L 11.9 -8.55 Q 11.5 -8.7 11.2 -8.75 11.95 -6.95 15.6 -5.3 16.95 -4.7 18.35 -4.1 19 -3.85 19.65 -3.65 24.2 -2.85 28.95 -2.55 30.6 -2.6 32.3 -2.65 L 34.4 -7.1 Q 34.35 -7.05 34.25 -7 33.85 -6.95 33.5 -6.9 33 -6.85 32.55 -6.75 21.35 -5.4 15.95 -7.2 14.55 -7.7 13.5 -8.05 13.2 -8.15 12.95 -8.2 12.4 -8.4 12 -8.55 Z"
         id="path12206" />
      <path
         fill="#FFFCF4"
         stroke="none"
         d=" M 13.4 -10.95 Q 13.1 -10.95 12.8 -11.05 12.85 -11 12.9 -10.95 12.9 -10.9 12.9 -10.85 12.95 -10.8 12.95 -10.75 13 -10.7 13 -10.65 13.05 -10.6 13.05 -10.55 13.05 -10.5 13.1 -10.45 13.1 -10.4 13.1 -10.35 13.05 -10.25 13.05 -10.15 13.05 -10.05 13.05 -9.95 13.05 -9.8 13.05 -9.65 13.05 -9.55 13.05 -9.45 13.05 -9.4 13 -9.35 13 -9.3 13 -9.25 12.95 -9.2 12.95 -9.15 12.95 -9.1 13 -9.05 13 -9 13 -8.95 13 -8.85 13 -8.75 13 -8.65 13 -8.55 13 -8.45 13 -8.35 12.95 -8.3 12.95 -8.25 L 12.95 -8.2 Q 13.2 -8.15 13.5 -8.05 14.55 -7.7 15.95 -7.2 21.35 -5.4 32.55 -6.75 32.55 -6.8 32.55 -6.85 32.55 -6.95 32.6 -7.05 32.6 -7.1 32.6 -7.15 32.65 -7.2 32.7 -7.25 32.7 -7.35 32.7 -7.45 32.7 -7.6 32.7 -7.75 32.7 -7.95 32.7 -8.15 32.7 -8.25 32.7 -8.35 32.7 -8.4 32.65 -8.45 32.65 -8.55 32.6 -8.6 32.6 -8.65 32.6 -8.7 32.55 -8.75 32.55 -8.8 32.55 -8.85 32.55 -8.9 32.55 -8.95 32.5 -9 32.5 -9.05 32.45 -9.1 32.45 -9.15 32.4 -9.2 24.35 -10.65 13.4 -10.95 Z"
         id="path12208" />
      <path
         fill="#876B47"
         stroke="none"
         d=" M 11 -16.2 Q 10.65 -16.35 10.3 -16.4 L 10 -12.3 12.7 -11.1 Q 12.75 -11.1 12.8 -11.05 13.1 -10.95 13.4 -10.95 24.35 -10.65 32.4 -9.2 32.95 -9.1 33.5 -9 34.3 -8.85 35.05 -8.65 35 -7.7 34.4 -7.1 L 32.3 -2.65 36.95 -3.95 Q 37.55 -4.4 37.95 -4.9 39.6 -7.05 38.95 -10.65 38.8 -11.25 38.4 -11.65 38.2 -11.9 37.95 -12 37.7 -12.2 37.45 -12.25 35.55 -12.7 33.5 -13.05 25.2 -14.6 13.9 -14.95 L 11 -16.2 Z"
         id="path12210" />
      <path
         fill="url(#Gradient_4)"
         stroke="none"
         d=" M 15 -19.9 L 13 -20.8 13.05 -20.8 Q 11.9 -21.3 10.75 -21.35 10.523046875 -21.3953125 10.35 -21.4 L 10.6 -21.4 -8.6 -22.65 Q -8.7 -22.65 -8.75 -22.65 -8.85 -22.65 -8.95 -22.65 -17.15 -24.6 -25.35 -22.4 L -25.2 -22.45 Q -25.35 -22.45 -25.45 -22.4 -31.3 -21.15 -36.85 -19.75 L -36.25 -14.75 Q -30.4 -16.25 -24.15 -17.55 -24.15 -17.6 -24.05 -17.6 -16.85 -19.5 -9.6 -17.65 -9.35 -17.65 -9.05 -17.65 -9 -17.65 -8.9 -17.65 L 10.3 -16.4 Q 10.65 -16.35 11 -16.2 L 13.9 -14.95 Q 25.2 -14.6 33.5 -13.05 35.55 -12.7 37.45 -12.25 37.7 -12.2 37.95 -12 38.2 -11.9 38.4 -11.65 38.8 -11.25 38.95 -10.65 39.6 -7.05 37.95 -4.9 37.55 -4.4 36.95 -3.95 36.45 -1 33.5 3 32.9 3.8 32.2 4.65 27.65 10.3 16.85 12.5 6.85 14.6 -15.8 12.85 -23.8 16 -32.15 18.55 L -31.55 23.6 Q -23.1 21.05 -15 17.9 7.7 19.6 17.9 17.4 30.75 14.75 36.1 7.8 L 36.05 7.8 Q 36.85 6.85 37.5 6 L 37.55 5.95 Q 40.55 1.9 41.5 -1.35 41.7 -1.6 41.9 -1.8 45 -5.35 43.85 -11.6 L 43.85 -11.65 Q 43.45 -13.6 42.05 -15.1 42 -15.1 42 -15.15 41.35 -15.8 40.65 -16.25 40.5 -16.35 40.35 -16.4 39.55 -16.9 38.65 -17.1 L 38.6 -17.1 Q 36.6 -17.6 34.4 -18 26.15 -19.5 15 -19.9 Z"
         id="path12212" />
    </g>
    <g
       id="Layer20_0_FILL">
      <path
         fill="#000000"
         fill-opacity="0.2"
         stroke="none"
         d=" M 105.6 81.9 Q 107.4 83.7 109.8 83.65 L 121.8 83.65 Q 124.2 83.7 126.05 81.9 127.85 80.05 127.8 77.65 127.8 76.55 127.8 75.4 127.8 44.95 106.3 23.45 84.75 1.9 54.3 1.9 23.85 1.9 2.35 23.45 -13.5 39.25 -17.65 59.95 L -21.75 59.95 Q -24.15 59.9 -25.95 61.75 -27.8 63.55 -27.75 65.95 L -27.75 71.2 Q -27.75 72.9 -26.85 74.35 L -14.2 95.2 Q -14.1 95.4 -13.95 95.6 -13.35 96.35 -12.6 96.95 -12.05 97.35 -11.45 97.6 -10.3 98.05 -9.1 98.05 L -5.5 98.05 Q -4.3 98.05 -3.15 97.6 -2.55 97.35 -2 96.95 -1.25 96.35 -0.65 95.6 -0.5 95.4 -0.35 95.2 L 12.35 74.35 Q 13.2 72.9 13.2 71.2 L 13.2 65.95 Q 13.25 63.55 11.45 61.75 9.6 59.9 7.2 59.95 L 7.15 59.95 Q 10.6 49.1 19.3 40.4 33.75 25.9 54.3 25.9 74.85 25.9 89.35 40.4 103.8 54.85 103.8 75.4 103.8 76.55 103.8 77.65 103.75 80.05 105.6 81.9 M 108.8 77.65 Q 108.8 76.55 108.8 75.4 108.8 52.8 92.85 36.85 76.9 20.9 54.3 20.9 31.7 20.9 15.75 36.85 3.65 49 0.75 64.95 L 7.2 64.95 Q 7.6 64.95 7.9 65.25 8.2 65.55 8.2 65.95 L 8.2 71.2 Q 8.2 71.5 8.05 71.75 L -4.65 92.6 Q -4.8 92.8 -5 92.95 -5.25 93.05 -5.5 93.05 L -9.1 93.05 Q -9.35 93.05 -9.6 92.95 -9.8 92.8 -9.95 92.6 L -22.6 71.75 Q -22.75 71.5 -22.75 71.2 L -22.75 65.95 Q -22.75 65.55 -22.45 65.25 -22.15 64.95 -21.75 64.95 L -13.45 64.95 Q -10.4 43.2 5.85 26.95 25.9 6.9 54.3 6.9 82.7 6.9 102.75 26.95 122.8 47 122.8 75.4 122.8 76.55 122.8 77.65 122.8 78.05 122.5 78.35 122.2 78.65 121.8 78.65 L 109.8 78.65 Q 109.4 78.65 109.1 78.35 108.8 78.05 108.8 77.65 Z"
         id="path12215" />
      <path
         fill="#A91818"
         stroke="none"
         d=" M 108.8 75.4 Q 108.8 76.55 108.8 77.65 108.8 78.05 109.1 78.35 109.4 78.65 109.8 78.65 L 121.8 78.65 Q 122.2 78.65 122.5 78.35 122.8 78.05 122.8 77.65 122.8 76.55 122.8 75.4 122.8 47 102.75 26.95 82.7 6.9 54.3 6.9 25.9 6.9 5.85 26.95 -10.4 43.2 -13.45 64.95 L -21.75 64.95 Q -22.15 64.95 -22.45 65.25 -22.75 65.55 -22.75 65.95 L -22.75 71.2 Q -22.75 71.5 -22.6 71.75 L -9.95 92.6 Q -9.8 92.8 -9.6 92.95 -9.35 93.05 -9.1 93.05 L -5.5 93.05 Q -5.25 93.05 -5 92.95 -4.8 92.8 -4.65 92.6 L 8.05 71.75 Q 8.2 71.5 8.2 71.2 L 8.2 65.95 Q 8.2 65.55 7.9 65.25 7.6 64.95 7.2 64.95 L 0.75 64.95 Q 3.65 49 15.75 36.85 31.7 20.9 54.3 20.9 76.9 20.9 92.85 36.85 108.8 52.8 108.8 75.4 M 118.8 74.65 L 112.8 74.65 Q 112.55 50.9 95.7 34.05 78.55 16.9 54.3 16.9 30.05 16.9 12.95 34.05 L 12.9 34.05 Q -0.1 47.1 -3.15 64.25 -3.4 65.4 -2.9 66.5 L -2.9 66.55 Q -2.45 67.6 -1.45 68.3 -0.45 68.95 0.75 68.95 L 4.2 68.95 4.2 70.45 -7.3 89.3 -18.75 70.45 -18.75 68.95 -13.45 68.95 Q -11.95 68.95 -10.8 67.95 -9.7 66.95 -9.5 65.5 -6.6 45.05 8.7 29.8 27.55 10.9 54.3 10.9 81.05 10.9 99.95 29.8 118.55 48.4 118.8 74.65 Z"
         id="path12217" />
      <path
         fill="#E02727"
         stroke="none"
         d=" M 112.8 74.65 L 118.8 74.65 Q 118.55 48.4 99.95 29.8 81.05 10.9 54.3 10.9 27.55 10.9 8.7 29.8 -6.6 45.05 -9.5 65.5 -9.7 66.95 -10.8 67.95 -11.95 68.95 -13.45 68.95 L -18.75 68.95 -18.75 70.45 -7.3 89.3 4.2 70.45 4.2 68.95 0.75 68.95 Q -0.45 68.95 -1.45 68.3 -2.45 67.6 -2.9 66.55 L -2.9 66.5 Q -3.4 65.4 -3.15 64.25 -0.1 47.1 12.9 34.05 L 12.95 34.05 Q 30.05 16.9 54.3 16.9 78.55 16.9 95.7 34.05 112.55 50.9 112.8 74.65 Z"
         id="path12219" />
    </g>
    <g
       id="Layer19_0_FILL">
      <path
         fill="#470A0A"
         stroke="none"
         d=" M 84.7 70.9 Q 90.45 61.631640625 90.45 50 90.45 33.2 78.55 21.4 L 78.6 21.4 Q 66.8 9.6 50 9.6 33.25 9.6 21.35 21.4 17.642578125 25.1232421875 15.1 29.3 9.55 38.5126953125 9.55 50 9.55 61.4873046875 15.1 70.65 15.1681640625 70.7876953125 15.2 70.9 17.7419921875 74.9767578125 21.35 78.6 L 21.35 78.65 Q 33.25 90.45 50 90.45 66.75 90.45 78.55 78.65 L 78.6 78.6 Q 82.22109375 74.97890625 84.7 70.9 M 50 13.6 Q 65.1 13.6 75.75 24.25 86.45 34.9 86.45 50 86.45 61.7916015625 79.9 70.9 78.0943359375 73.4556640625 75.75 75.8 65.1 86.45 50 86.45 34.9 86.45 24.2 75.8 L 24.15 75.8 Q 21.828125 73.45625 20 70.9 16.715625 66.25078125 15.1 60.9 13.55 55.77421875 13.55 50 13.55 44.22578125 15.1 39.1 17.603515625 30.82734375 24.15 24.25 L 24.2 24.2 Q 34.9 13.6 50 13.6 Z"
         id="path12222" />
      <path
         fill="#A91818"
         stroke="none"
         d=" M 75.75 24.25 Q 65.1 13.6 50 13.6 34.9 13.6 24.2 24.2 L 24.15 24.25 Q 17.603515625 30.82734375 15.1 39.1 13.55 44.22578125 13.55 50 13.55 55.77421875 15.1 60.9 16.715625 66.25078125 20 70.9 21.828125 73.45625 24.15 75.8 L 24.2 75.8 Q 34.9 86.45 50 86.45 65.1 86.45 75.75 75.8 78.0943359375 73.4556640625 79.9 70.9 86.45 61.7916015625 86.45 50 86.45 34.9 75.75 24.25 M 71.9 28.05 L 71.95 28.05 Q 81 37.1 81 50 81 62.1171875 72.95 70.9 72.466015625 71.4310546875 71.95 71.95 62.85 81 50 81 37.1 81 28.05 71.95 L 28.05 71.9 Q 27.558203125 71.40546875 27.1 70.9 19 62.1044921875 19 50 19 37.15 28.05 28.05 37.15 19 50 19 62.8 19 71.9 28.05 Z"
         id="path12224" />
      <path
         fill="#E85959"
         stroke="none"
         d=" M 71.95 28.05 L 71.9 28.05 Q 62.8 19 50 19 37.15 19 28.05 28.05 19 37.15 19 50 19 62.1044921875 27.1 70.9 27.558203125 71.40546875 28.05 71.9 L 28.05 71.95 Q 37.1 81 50 81 62.85 81 71.95 71.95 72.466015625 71.4310546875 72.95 70.9 81 62.1171875 81 50 81 37.1 71.95 28.05 M 50 23 Q 61.2 23 69.1 30.9 77 38.8 77 50 77 61.15 69.1 69.1 68.1357421875 70.058203125 67.1 70.9 59.79765625 77 50 77 40.1583984375 77 32.85 70.9 31.858203125 70.058203125 30.9 69.1 23 61.2 23 50 23 38.8 30.85 30.9 L 30.9 30.85 Q 38.8 23 50 23 Z"
         id="path12226" />
      <path
         fill="#E02727"
         stroke="none"
         d=" M 69.1 30.9 Q 61.2 23 50 23 38.8 23 30.9 30.85 L 30.85 30.9 Q 23 38.8 23 50 23 61.2 30.9 69.1 31.858203125 70.058203125 32.85 70.9 40.1583984375 77 50 77 59.79765625 77 67.1 70.9 68.1357421875 70.058203125 69.1 69.1 77 61.15 77 50 77 38.8 69.1 30.9 M 51.35 33.25 Q 53.45 33.25 55.5 33.55 57.65 33.85 59.3 34.7 60.95 35.6 62 37.15 63 38.75 63 41.35 63 44.05 61.5 45.85 60 47.6 57.55 48.35 L 57.55 48.45 Q 59.1 48.7 60.4 49.3 61.65 50 62.55 51 63.5 52 64 53.35 64.5 54.7 64.5 56.25 64.5 58.75 63.4 60.45 62.35 62.15 60.6 63.15 58.9 64.2 56.75 64.65 54.65 65.1 52.55 65.1 L 39.5 65.1 39.5 33.25 51.35 33.25 M 55.95 58.35 Q 56.6 57.9 57.05 57.2 57.5 56.45 57.5 55.45 57.5 54.3 56.9 53.6 56.35 52.9 55.5 52.55 54.65 52.2 53.65 52.05 52.65 51.9 51.8 51.9 L 46.5 51.9 46.5 59.15 52.8 59.15 Q 53.6 59.15 54.45 59 55.3 58.8 55.95 58.35 M 46.5 39.15 L 46.5 46 51.6 46 Q 52.4 46 53.2 45.8 54 45.65 54.6 45.2 55.25 44.8 55.65 44.15 56 43.45 56 42.5 56 41.5 55.6 40.85 55.15 40.2 54.45 39.85 53.8 39.5 52.95 39.35 52.1 39.15 51.3 39.15 L 46.5 39.15 Z"
         id="path12228" />
      <path
         fill="#F3A7A7"
         stroke="none"
         d=" M 55.5 33.55 Q 53.45 33.25 51.35 33.25 L 39.5 33.25 39.5 65.1 52.55 65.1 Q 54.65 65.1 56.75 64.65 58.9 64.2 60.6 63.15 62.35 62.15 63.4 60.45 64.5 58.75 64.5 56.25 64.5 54.7 64 53.35 63.5 52 62.55 51 61.65 50 60.4 49.3 59.1 48.7 57.55 48.45 L 57.55 48.35 Q 60 47.6 61.5 45.85 63 44.05 63 41.35 63 38.75 62 37.15 60.95 35.6 59.3 34.7 57.65 33.85 55.5 33.55 M 46.5 46 L 46.5 39.15 51.3 39.15 Q 52.1 39.15 52.95 39.35 53.8 39.5 54.45 39.85 55.15 40.2 55.6 40.85 56 41.5 56 42.5 56 43.45 55.65 44.15 55.25 44.8 54.6 45.2 54 45.65 53.2 45.8 52.4 46 51.6 46 L 46.5 46 M 57.05 57.2 Q 56.6 57.9 55.95 58.35 55.3 58.8 54.45 59 53.6 59.15 52.8 59.15 L 46.5 59.15 46.5 51.9 51.8 51.9 Q 52.65 51.9 53.65 52.05 54.65 52.2 55.5 52.55 56.35 52.9 56.9 53.6 57.5 54.3 57.5 55.45 57.5 56.45 57.05 57.2 Z"
         id="path12230" />
    </g>
    <g
       id="Layer18_0_FILL">
      <path
         fill="#1B1B1B"
         stroke="none"
         d=" M 78.6 21.4 Q 66.8 9.6 50 9.6 33.25 9.6 21.35 21.4 9.55 33.25 9.55 50 9.55 66.75 21.35 78.6 L 21.35 78.65 Q 33.25 90.45 50 90.45 66.75 90.45 78.55 78.65 L 78.6 78.6 Q 90.45 66.75 90.45 50 90.45 33.2 78.55 21.4 L 78.6 21.4 M 50 13.6 Q 65.1 13.6 75.75 24.25 86.45 34.9 86.45 50 86.45 65.1 75.75 75.8 65.1 86.45 50 86.45 34.9 86.45 24.2 75.8 L 24.15 75.8 Q 13.55 65.1 13.55 50 13.55 34.9 24.15 24.25 L 24.2 24.2 Q 34.9 13.6 50 13.6 Z"
         id="path12233" />
      <path
         fill="#313131"
         stroke="none"
         d=" M 75.75 24.25 Q 65.1 13.6 50 13.6 34.9 13.6 24.2 24.2 L 24.15 24.25 Q 13.55 34.9 13.55 50 13.55 65.1 24.15 75.8 L 24.2 75.8 Q 34.9 86.45 50 86.45 65.1 86.45 75.75 75.8 86.45 65.1 86.45 50 86.45 34.9 75.75 24.25 M 71.9 28.05 L 71.95 28.05 Q 81 37.1 81 50 81 62.85 71.95 71.95 62.85 81 50 81 37.1 81 28.05 71.95 L 28.05 71.9 Q 19 62.8 19 50 19 37.15 28.05 28.05 37.15 19 50 19 62.8 19 71.9 28.05 Z"
         id="path12235" />
      <path
         fill="#626262"
         stroke="none"
         d=" M 71.95 28.05 L 71.9 28.05 Q 62.8 19 50 19 37.15 19 28.05 28.05 19 37.15 19 50 19 62.8 28.05 71.9 L 28.05 71.95 Q 37.1 81 50 81 62.85 81 71.95 71.95 81 62.85 81 50 81 37.1 71.95 28.05 M 50 23 Q 61.2 23 69.1 30.9 77 38.8 77 50 77 61.15 69.1 69.1 61.15 77 50 77 38.8 77 30.9 69.1 23 61.2 23 50 23 38.8 30.85 30.9 L 30.9 30.85 Q 38.8 23 50 23 Z"
         id="path12237" />
      <path
         fill="#4F4F4F"
         stroke="none"
         d=" M 69.1 30.9 Q 61.2 23 50 23 38.8 23 30.9 30.85 L 30.85 30.9 Q 23 38.8 23 50 23 61.2 30.9 69.1 38.8 77 50 77 61.15 77 69.1 69.1 77 61.15 77 50 77 38.8 69.1 30.9 M 47.05 31.6 L 52.85 31.6 66.7 63.45 58.75 63.45 56 56.7 43.65 56.7 41 63.45 33.25 63.45 47.05 31.6 M 45.85 50.75 L 53.65 50.75 49.75 40.85 45.85 50.75 Z"
         id="path12239" />
      <path
         fill="#87D638"
         stroke="none"
         d=" M 52.85 31.6 L 47.05 31.6 33.25 63.45 41 63.45 43.65 56.7 56 56.7 58.75 63.45 66.7 63.45 52.85 31.6 M 53.65 50.75 L 45.85 50.75 49.75 40.85 53.65 50.75 Z"
         id="path12241" />
    </g>
    <g
       id="Layer17_0_FILL">
      <path
         fill="#1B1B1B"
         stroke="none"
         d=" M 78.55 21.4 L 78.6 21.4 Q 66.8 9.6 50 9.6 33.25 9.6 21.35 21.4 9.55 33.25 9.55 50 9.55 66.75 21.35 78.6 L 21.35 78.65 Q 33.25 90.45 50 90.45 66.75 90.45 78.55 78.65 L 78.6 78.6 Q 90.45 66.75 90.45 50 90.45 33.2 78.55 21.4 M 50 13.6 Q 65.1 13.6 75.75 24.25 86.45 34.9 86.45 50 86.45 65.1 75.75 75.8 65.1 86.45 50 86.45 34.9 86.45 24.2 75.8 L 24.15 75.8 Q 13.55 65.1 13.55 50 13.55 34.9 24.15 24.25 L 24.2 24.2 Q 34.9 13.6 50 13.6 Z"
         id="path12244" />
      <path
         fill="#313131"
         stroke="none"
         d=" M 75.75 24.25 Q 65.1 13.6 50 13.6 34.9 13.6 24.2 24.2 L 24.15 24.25 Q 13.55 34.9 13.55 50 13.55 65.1 24.15 75.8 L 24.2 75.8 Q 34.9 86.45 50 86.45 65.1 86.45 75.75 75.8 86.45 65.1 86.45 50 86.45 34.9 75.75 24.25 M 73.3 26.6 L 73.35 26.6 Q 83 36.25 83 50 83 63.65 73.35 73.35 63.65 83 50 83 36.25 83 26.6 73.35 L 26.6 73.3 Q 17 63.6 17 50 17 36.3 26.6 26.6 36.3 17 50 17 63.6 17 73.3 26.6 Z"
         id="path12246" />
      <path
         fill="#626262"
         stroke="none"
         d=" M 73.35 26.6 L 73.3 26.6 Q 63.6 17 50 17 36.3 17 26.6 26.6 17 36.3 17 50 17 63.6 26.6 73.3 L 26.6 73.35 Q 36.25 83 50 83 63.65 83 73.35 73.35 83 63.65 83 50 83 36.25 73.35 26.6 M 50 20 Q 62.4 20 71.15 28.75 79.95 37.5 79.95 50 79.95 62.35 71.15 71.15 62.35 79.95 50 79.95 37.5 79.95 28.75 71.15 20 62.4 20 50 20 37.5 28.7 28.75 L 28.75 28.7 Q 37.5 20 50 20 Z"
         id="path12248" />
      <path
         fill="#4F4F4F"
         stroke="none"
         d=" M 71.15 28.75 Q 62.4 20 50 20 37.5 20 28.75 28.7 L 28.7 28.75 Q 20 37.5 20 50 20 62.4 28.75 71.15 37.5 79.95 50 79.95 62.35 79.95 71.15 71.15 79.95 62.35 79.95 50 79.95 37.5 71.15 28.75 M 32.95 62.3 L 50 31.05 67.05 62.3 32.95 62.3 M 50 31.05 L 32.95 62.3 67.05 62.3 50 31.05 Z"
         id="path12250" />
    </g>
    <g
       id="Layer16_0_FILL">
      <path
         fill="#1B1B1B"
         stroke="none"
         d=" M 78.55 21.4 L 78.6 21.4 Q 66.8 9.6 50 9.6 33.25 9.6 21.35 21.4 9.55 33.25 9.55 50 9.55 66.75 21.35 78.6 L 21.35 78.65 Q 33.25 90.45 50 90.45 66.75 90.45 78.55 78.65 L 78.6 78.6 Q 90.45 66.75 90.45 50 90.45 33.2 78.55 21.4 M 50 13.6 Q 65.1 13.6 75.75 24.25 86.45 34.9 86.45 50 86.45 65.1 75.75 75.8 65.1 86.45 50 86.45 34.9 86.45 24.2 75.8 L 24.15 75.8 Q 13.55 65.1 13.55 50 13.55 34.9 24.15 24.25 L 24.2 24.2 Q 34.9 13.6 50 13.6 Z"
         id="path12253" />
      <path
         fill="#313131"
         stroke="none"
         d=" M 75.75 24.25 Q 65.1 13.6 50 13.6 34.9 13.6 24.2 24.2 L 24.15 24.25 Q 13.55 34.9 13.55 50 13.55 65.1 24.15 75.8 L 24.2 75.8 Q 34.9 86.45 50 86.45 65.1 86.45 75.75 75.8 86.45 65.1 86.45 50 86.45 34.9 75.75 24.25 M 73.3 26.6 L 73.35 26.6 Q 83 36.25 83 50 83 63.65 73.35 73.35 63.65 83 50 83 36.25 83 26.6 73.35 L 26.6 73.3 Q 17 63.6 17 50 17 36.3 26.6 26.6 36.3 17 50 17 63.6 17 73.3 26.6 Z"
         id="path12255" />
      <path
         fill="#626262"
         stroke="none"
         d=" M 73.35 26.6 L 73.3 26.6 Q 63.6 17 50 17 36.3 17 26.6 26.6 17 36.3 17 50 17 63.6 26.6 73.3 L 26.6 73.35 Q 36.25 83 50 83 63.65 83 73.35 73.35 83 63.65 83 50 83 36.25 73.35 26.6 M 50 20 Q 62.4 20 71.15 28.75 79.95 37.5 79.95 50 79.95 62.35 71.15 71.15 62.35 79.95 50 79.95 37.5 79.95 28.75 71.15 20 62.4 20 50 20 37.5 28.7 28.75 L 28.75 28.7 Q 37.5 20 50 20 Z"
         id="path12257" />
      <path
         fill="#4F4F4F"
         stroke="none"
         d=" M 71.15 28.75 Q 62.4 20 50 20 37.5 20 28.75 28.7 L 28.7 28.75 Q 20 37.5 20 50 20 62.4 28.75 71.15 37.5 79.95 50 79.95 62.35 79.95 71.15 71.15 79.95 62.35 79.95 50 79.95 37.5 71.15 28.75 M 50 30.25 Q 58.2 30.25 63.95 36.05 69.75 41.85 69.75 50 69.75 58.2 63.95 63.95 58.2 69.75 50 69.75 41.85 69.75 36.05 63.95 30.25 58.2 30.25 50 30.25 41.85 36.05 36.05 41.85 30.25 50 30.25 M 63.95 36.05 Q 58.2 30.25 50 30.25 41.85 30.25 36.05 36.05 30.25 41.85 30.25 50 30.25 58.2 36.05 63.95 41.85 69.75 50 69.75 58.2 69.75 63.95 63.95 69.75 58.2 69.75 50 69.75 41.85 63.95 36.05 Z"
         id="path12259" />
    </g>
    <g
       id="Layer15_0_FILL">
      <path
         fill="#353535"
         stroke="none"
         d=" M 34.55 70.2 L 34.55 92.75 Q 50.05 96.65 65.5 92.75 L 65.5 70.2 50 54.7 34.55 70.2 M 50 63.8 Q 50.6130859375 63.803515625 51.05 64.25 L 59.05 72.25 Q 59.49453125 72.683984375 59.5 73.3 L 59.5 86.6 Q 59.494921875 87.153515625 59.1 87.55 58.7681640625 87.9951171875 58.2 88.05 50.0330078125 89.2861328125 41.8 88.05 41.281640625 87.9951171875 40.9 87.55 40.555078125 87.153515625 40.55 86.6 L 40.55 73.3 Q 40.54453125 72.6880859375 40.95 72.25 L 48.9 64.25 Q 49.373046875 63.8044921875 50 63.8 M 29.85 34.55 L 7.25 34.55 Q 3.35 50.05 7.25 65.5 L 29.85 65.5 45.35 50.05 29.85 34.55 M 12.4 40.9 Q 12.846484375 40.555078125 13.4 40.55 L 26.75 40.55 Q 27.3658203125 40.5552734375 27.8 41 L 35.8 49 Q 36.2462890625 49.43671875 36.25 50.05 36.244921875 50.6650390625 35.8 51.1 L 27.8 59.05 Q 27.3865234375 59.49375 26.75 59.5 L 13.4 59.5 Q 12.846484375 59.494921875 12.4 59.1 12.0048828125 58.7681640625 11.9 58.2 10.7134765625 50.0330078125 11.9 41.8 12.0048828125 41.281640625 12.4 40.9 M 50.05 45.35 L 65.5 30 65.5 7.25 Q 50.05 3.35 34.55 7.25 L 34.55 29.85 50.05 45.35 M 41.8 11.9 Q 50.0328125 10.7140625 58.2 11.9 58.7681640625 12.0048828125 59.1 12.4 59.494921875 12.846484375 59.5 13.4 L 59.5 26.9 Q 59.4962890625 27.5283203125 59.05 27.95 L 51.1 35.85 Q 50.68828125 36.28125 50.05 36.25 49.4603515625 36.2677734375 49 35.8 L 41 27.8 Q 40.5552734375 27.3658203125 40.55 26.75 L 40.55 13.4 Q 40.555078125 12.8462890625 40.9 12.4 41.281640625 12.0048828125 41.8 11.9 M 70.05 34.55 L 65.5 30 50.05 45.35 34.55 29.85 29.85 34.55 45.35 50.05 29.85 65.5 34.55 70.2 50 54.7 65.5 70.2 65.5 70.15 70.15 65.5 70.2 65.5 54.7 50 70.05 34.55 Z"
         id="path12262" />
      <path
         fill="#535353"
         stroke="none"
         d=" M 51.05 64.25 Q 50.6130859375 63.803515625 50 63.8 49.373046875 63.8044921875 48.9 64.25 L 40.95 72.25 Q 40.54453125 72.6880859375 40.55 73.3 L 40.55 86.6 Q 40.555078125 87.153515625 40.9 87.55 41.281640625 87.9951171875 41.8 88.05 50.0330078125 89.2861328125 58.2 88.05 58.7681640625 87.9951171875 59.1 87.55 59.494921875 87.153515625 59.5 86.6 L 59.5 73.3 Q 59.49453125 72.683984375 59.05 72.25 L 51.05 64.25 M 45.5 76.65 L 54.5 76.65 49.95 82.85 45.5 76.65 M 13.4 40.55 Q 12.846484375 40.555078125 12.4 40.9 12.0048828125 41.281640625 11.9 41.8 10.7134765625 50.0330078125 11.9 58.2 12.0048828125 58.7681640625 12.4 59.1 12.846484375 59.494921875 13.4 59.5 L 26.75 59.5 Q 27.3865234375 59.49375 27.8 59.05 L 35.8 51.1 Q 36.244921875 50.6650390625 36.25 50.05 36.2462890625 49.43671875 35.8 49 L 27.8 41 Q 27.3658203125 40.5552734375 26.75 40.55 L 13.4 40.55 M 23.4 54.5 L 17.2 50.05 23.4 45.5 23.4 54.5 M 58.2 11.9 Q 50.0328125 10.7140625 41.8 11.9 41.281640625 12.0048828125 40.9 12.4 40.555078125 12.8462890625 40.55 13.4 L 40.55 26.75 Q 40.5552734375 27.3658203125 41 27.8 L 49 35.8 Q 49.4603515625 36.2677734375 50.05 36.25 50.68828125 36.28125 51.1 35.85 L 59.05 27.95 Q 59.4962890625 27.5283203125 59.5 26.9 L 59.5 13.4 Q 59.494921875 12.846484375 59.1 12.4 58.7681640625 12.0048828125 58.2 11.9 M 49.95 17.2 L 54.5 23.4 45.5 23.4 49.95 17.2 Z"
         id="path12264" />
      <path
         fill="#D6D6D6"
         stroke="none"
         d=" M 54.5 76.65 L 45.5 76.65 49.95 82.85 54.5 76.65 M 17.2 50.05 L 23.4 54.5 23.4 45.5 17.2 50.05 M 54.5 23.4 L 49.95 17.2 45.5 23.4 54.5 23.4 Z"
         id="path12266" />
      <path
         fill="#D7D7D7"
         stroke="none"
         d=" M 92.75 65.5 Q 96.65 50.05 92.75 34.55 L 70.05 34.55 54.7 50 70.2 65.5 92.75 65.5 M 87.55 40.9 Q 87.9951171875 41.281640625 88.05 41.8 89.2861328125 50.0330078125 88.05 58.2 87.9951171875 58.7681640625 87.55 59.1 87.153515625 59.494921875 86.6 59.5 L 73.3 59.5 Q 72.683984375 59.49453125 72.25 59.05 L 64.2 51 Q 63.78203125 50.5896484375 63.75 49.95 63.78046875 49.3623046875 64.2 48.9 L 72.1 41 Q 72.55859375 40.5544921875 73.15 40.55 L 86.6 40.55 Q 87.153515625 40.555078125 87.55 40.9 Z"
         id="path12268" />
      <path
         fill="#F5F5F5"
         stroke="none"
         d=" M 88.05 41.8 Q 87.9951171875 41.281640625 87.55 40.9 87.153515625 40.555078125 86.6 40.55 L 73.15 40.55 Q 72.55859375 40.5544921875 72.1 41 L 64.2 48.9 Q 63.78046875 49.3623046875 63.75 49.95 63.78203125 50.5896484375 64.2 51 L 72.25 59.05 Q 72.683984375 59.49453125 73.3 59.5 L 86.6 59.5 Q 87.153515625 59.494921875 87.55 59.1 87.9951171875 58.7681640625 88.05 58.2 89.2861328125 50.0330078125 88.05 41.8 M 76.65 54.5 L 76.65 45.5 82.85 50.05 76.65 54.5 Z"
         id="path12270" />
      <path
         fill="#616161"
         stroke="none"
         d=" M 76.65 45.5 L 76.65 54.5 82.85 50.05 76.65 45.5 Z"
         id="path12272" />
    </g>
    <g
       id="Layer14_0_FILL">
      <path
         fill="#A2A2A2"
         stroke="none"
         d=" M 68.35 31.6 Q 60.75 24 50 24 39.25 24 31.6 31.6 24 39.25 24 50 24 60.75 31.6 68.35 39.25 76 50 76 60.75 76 68.35 68.35 76 60.75 76 50 76 39.25 68.35 31.6 M 50 31.95 Q 57.45 31.95 62.75 37.2 68.05 42.55 68.05 50 68.05 57.45 62.75 62.75 57.45 68.05 50 68.05 42.55 68.05 37.2 62.75 31.95 57.45 31.95 50 31.95 42.55 37.2 37.2 42.55 31.95 50 31.95 Z"
         id="path12275" />
      <path
         fill="#C8C8C8"
         stroke="none"
         d=" M 62.75 37.2 Q 57.45 31.95 50 31.95 42.55 31.95 37.2 37.2 31.95 42.55 31.95 50 31.95 57.45 37.2 62.75 42.55 68.05 50 68.05 57.45 68.05 62.75 62.75 68.05 57.45 68.05 50 68.05 42.55 62.75 37.2 M 59.9 50.1 L 40.05 50.1 59.9 50.1 Z"
         id="path12277" />
    </g>
    <g
       id="Layer13_0_FILL">
      <path
         fill="#1B1B1B"
         stroke="none"
         d=" M 78.55 21.4 L 78.6 21.4 Q 66.8 9.6 50 9.6 33.25 9.6 21.35 21.4 9.55 33.25 9.55 50 9.55 66.75 21.35 78.6 L 21.35 78.65 Q 33.25 90.45 50 90.45 66.75 90.45 78.55 78.65 L 78.6 78.6 Q 90.45 66.75 90.45 50 90.45 33.2 78.55 21.4 M 50 13.6 Q 65.1 13.6 75.75 24.25 86.45 34.9 86.45 50 86.45 65.1 75.75 75.8 65.1 86.45 50 86.45 34.9 86.45 24.2 75.8 L 24.15 75.8 Q 13.55 65.1 13.55 50 13.55 34.9 24.15 24.25 L 24.2 24.2 Q 34.9 13.6 50 13.6 Z"
         id="path12280" />
      <path
         fill="#313131"
         stroke="none"
         d=" M 75.75 24.25 Q 65.1 13.6 50 13.6 34.9 13.6 24.2 24.2 L 24.15 24.25 Q 13.55 34.9 13.55 50 13.55 65.1 24.15 75.8 L 24.2 75.8 Q 34.9 86.45 50 86.45 65.1 86.45 75.75 75.8 86.45 65.1 86.45 50 86.45 34.9 75.75 24.25 M 71.9 28.05 L 71.95 28.05 Q 81 37.1 81 50 81 62.85 71.95 71.95 62.85 81 50 81 37.1 81 28.05 71.95 L 28.05 71.9 Q 19 62.8 19 50 19 37.15 28.05 28.05 37.15 19 50 19 62.8 19 71.9 28.05 Z"
         id="path12282" />
      <path
         fill="#626262"
         stroke="none"
         d=" M 71.95 28.05 L 71.9 28.05 Q 62.8 19 50 19 37.15 19 28.05 28.05 19 37.15 19 50 19 62.8 28.05 71.9 L 28.05 71.95 Q 37.1 81 50 81 62.85 81 71.95 71.95 81 62.85 81 50 81 37.1 71.95 28.05 M 50 23 Q 61.2 23 69.1 30.9 77 38.8 77 50 77 61.15 69.1 69.1 61.15 77 50 77 38.8 77 30.9 69.1 23 61.2 23 50 23 38.8 30.85 30.9 L 30.9 30.85 Q 38.8 23 50 23 Z"
         id="path12284" />
      <path
         fill="#4F4F4F"
         stroke="none"
         d=" M 69.1 30.9 Q 61.2 23 50 23 38.8 23 30.9 30.85 L 30.85 30.9 Q 23 38.8 23 50 23 61.2 30.9 69.1 38.8 77 50 77 61.15 77 69.1 69.1 77 61.15 77 50 77 38.8 69.1 30.9 M 51.35 33.25 Q 53.45 33.25 55.5 33.55 57.65 33.85 59.3 34.7 60.95 35.6 62 37.15 63 38.75 63 41.35 63 44.05 61.5 45.85 60 47.6 57.55 48.35 L 57.55 48.45 Q 59.1 48.7 60.4 49.3 61.65 50 62.55 51 63.5 52 64 53.35 64.5 54.7 64.5 56.25 64.5 58.75 63.4 60.45 62.35 62.15 60.6 63.15 58.9 64.2 56.75 64.65 54.65 65.1 52.55 65.1 L 39.5 65.1 39.5 33.25 51.35 33.25 M 55.95 58.35 Q 56.6 57.9 57.05 57.2 57.5 56.45 57.5 55.45 57.5 54.3 56.9 53.6 56.35 52.9 55.5 52.55 54.65 52.2 53.65 52.05 52.65 51.9 51.8 51.9 L 46.5 51.9 46.5 59.15 52.8 59.15 Q 53.6 59.15 54.45 59 55.3 58.8 55.95 58.35 M 46.5 39.15 L 46.5 46 51.6 46 Q 52.4 46 53.2 45.8 54 45.65 54.6 45.2 55.25 44.8 55.65 44.15 56 43.45 56 42.5 56 41.5 55.6 40.85 55.15 40.2 54.45 39.85 53.8 39.5 52.95 39.35 52.1 39.15 51.3 39.15 L 46.5 39.15 Z"
         id="path12286" />
      <path
         fill="#999999"
         stroke="none"
         d=" M 55.5 33.55 Q 53.45 33.25 51.35 33.25 L 39.5 33.25 39.5 65.1 52.55 65.1 Q 54.65 65.1 56.75 64.65 58.9 64.2 60.6 63.15 62.35 62.15 63.4 60.45 64.5 58.75 64.5 56.25 64.5 54.7 64 53.35 63.5 52 62.55 51 61.65 50 60.4 49.3 59.1 48.7 57.55 48.45 L 57.55 48.35 Q 60 47.6 61.5 45.85 63 44.05 63 41.35 63 38.75 62 37.15 60.95 35.6 59.3 34.7 57.65 33.85 55.5 33.55 M 46.5 46 L 46.5 39.15 51.3 39.15 Q 52.1 39.15 52.95 39.35 53.8 39.5 54.45 39.85 55.15 40.2 55.6 40.85 56 41.5 56 42.5 56 43.45 55.65 44.15 55.25 44.8 54.6 45.2 54 45.65 53.2 45.8 52.4 46 51.6 46 L 46.5 46 M 57.05 57.2 Q 56.6 57.9 55.95 58.35 55.3 58.8 54.45 59 53.6 59.15 52.8 59.15 L 46.5 59.15 46.5 51.9 51.8 51.9 Q 52.65 51.9 53.65 52.05 54.65 52.2 55.5 52.55 56.35 52.9 56.9 53.6 57.5 54.3 57.5 55.45 57.5 56.45 57.05 57.2 Z"
         id="path12288" />
    </g>
    <g
       id="Layer12_0_FILL">
      <path
         fill="#1B1B1B"
         stroke="none"
         d=" M 78.6 21.4 Q 66.8 9.6 50 9.6 33.25 9.6 21.35 21.4 9.55 33.25 9.55 50 9.55 66.75 21.35 78.6 L 21.35 78.65 Q 33.25 90.45 50 90.45 66.75 90.45 78.55 78.65 L 78.6 78.6 Q 90.45 66.75 90.45 50 90.45 33.2 78.55 21.4 L 78.6 21.4 M 50 13.6 Q 65.1 13.6 75.75 24.25 86.45 34.9 86.45 50 86.45 65.1 75.75 75.8 65.1 86.45 50 86.45 34.9 86.45 24.2 75.8 L 24.15 75.8 Q 13.55 65.1 13.55 50 13.55 34.9 24.15 24.25 L 24.2 24.2 Q 34.9 13.6 50 13.6 Z"
         id="path12291" />
      <path
         fill="#313131"
         stroke="none"
         d=" M 75.75 24.25 Q 65.1 13.6 50 13.6 34.9 13.6 24.2 24.2 L 24.15 24.25 Q 13.55 34.9 13.55 50 13.55 65.1 24.15 75.8 L 24.2 75.8 Q 34.9 86.45 50 86.45 65.1 86.45 75.75 75.8 86.45 65.1 86.45 50 86.45 34.9 75.75 24.25 M 71.9 28.05 L 71.95 28.05 Q 81 37.1 81 50 81 62.85 71.95 71.95 62.85 81 50 81 37.1 81 28.05 71.95 L 28.05 71.9 Q 19 62.8 19 50 19 37.15 28.05 28.05 37.15 19 50 19 62.8 19 71.9 28.05 Z"
         id="path12293" />
      <path
         fill="#626262"
         stroke="none"
         d=" M 71.95 28.05 L 71.9 28.05 Q 62.8 19 50 19 37.15 19 28.05 28.05 19 37.15 19 50 19 62.8 28.05 71.9 L 28.05 71.95 Q 37.1 81 50 81 62.85 81 71.95 71.95 81 62.85 81 50 81 37.1 71.95 28.05 M 50 23 Q 61.2 23 69.1 30.9 77 38.8 77 50 77 61.15 69.1 69.1 61.15 77 50 77 38.8 77 30.9 69.1 23 61.2 23 50 23 38.8 30.85 30.9 L 30.9 30.85 Q 38.8 23 50 23 Z"
         id="path12295" />
      <path
         fill="#4F4F4F"
         stroke="none"
         d=" M 69.1 30.9 Q 61.2 23 50 23 38.8 23 30.9 30.85 L 30.85 30.9 Q 23 38.8 23 50 23 61.2 30.9 69.1 38.8 77 50 77 61.15 77 69.1 69.1 77 61.15 77 50 77 38.8 69.1 30.9 M 47.05 31.6 L 52.85 31.6 66.7 63.45 58.75 63.45 56 56.7 43.65 56.7 41 63.45 33.25 63.45 47.05 31.6 M 45.85 50.75 L 53.65 50.75 49.75 40.85 45.85 50.75 Z"
         id="path12297" />
      <path
         fill="#C3C3C3"
         stroke="none"
         d=" M 52.85 31.6 L 47.05 31.6 33.25 63.45 41 63.45 43.65 56.7 56 56.7 58.75 63.45 66.7 63.45 52.85 31.6 M 53.65 50.75 L 45.85 50.75 49.75 40.85 53.65 50.75 Z"
         id="path12299" />
    </g>
    <g
       id="Layer11_0_FILL">
      <path
         fill="#1B1B1B"
         stroke="none"
         d=" M 78.55 21.4 L 78.6 21.4 Q 66.8 9.6 50 9.6 33.25 9.6 21.35 21.4 9.55 33.25 9.55 50 9.55 66.75 21.35 78.6 L 21.35 78.65 Q 33.25 90.45 50 90.45 66.75 90.45 78.55 78.65 L 78.6 78.6 Q 90.45 66.75 90.45 50 90.45 33.2 78.55 21.4 M 50 13.6 Q 65.1 13.6 75.75 24.25 86.45 34.9 86.45 50 86.45 65.1 75.75 75.8 65.1 86.45 50 86.45 34.9 86.45 24.2 75.8 L 24.15 75.8 Q 13.55 65.1 13.55 50 13.55 34.9 24.15 24.25 L 24.2 24.2 Q 34.9 13.6 50 13.6 Z"
         id="path12302" />
      <path
         fill="#3B3B3B"
         stroke="none"
         d=" M 75.75 24.25 Q 65.1 13.6 50 13.6 34.9 13.6 24.2 24.2 L 24.15 24.25 Q 13.55 34.9 13.55 50 13.55 65.1 24.15 75.8 L 24.2 75.8 Q 34.9 86.45 50 86.45 65.1 86.45 75.75 75.8 86.45 65.1 86.45 50 86.45 34.9 75.75 24.25 M 71.9 28.05 L 71.95 28.05 Q 81 37.1 81 50 81 62.85 71.95 71.95 62.85 81 50 81 37.1 81 28.05 71.95 L 28.05 71.9 Q 19 62.8 19 50 19 37.15 28.05 28.05 37.15 19 50 19 62.8 19 71.9 28.05 Z"
         id="path12304" />
      <path
         fill="#2E2E2E"
         stroke="none"
         d=" M 71.95 28.05 L 71.9 28.05 Q 62.8 19 50 19 37.15 19 28.05 28.05 19 37.15 19 50 19 62.8 28.05 71.9 L 28.05 71.95 Q 37.1 81 50 81 62.85 81 71.95 71.95 81 62.85 81 50 81 37.1 71.95 28.05 M 51.35 33.25 Q 53.45 33.25 55.5 33.55 57.65 33.85 59.3 34.7 60.95 35.6 62 37.15 63 38.75 63 41.35 63 44.05 61.5 45.85 60 47.6 57.55 48.35 L 57.55 48.45 Q 59.1 48.7 60.4 49.3 61.65 50 62.55 51 63.5 52 64 53.35 64.5 54.7 64.5 56.25 64.5 58.75 63.4 60.45 62.35 62.15 60.6 63.15 58.9 64.2 56.75 64.65 54.65 65.1 52.55 65.1 L 39.5 65.1 39.5 33.25 51.35 33.25 M 57.5 55.45 Q 57.5 54.3 56.9 53.6 56.35 52.9 55.5 52.55 54.65 52.2 53.65 52.05 52.65 51.9 51.8 51.9 L 46.5 51.9 46.5 59.15 52.8 59.15 Q 53.6 59.15 54.45 59 55.3 58.8 55.95 58.35 56.6 57.9 57.05 57.2 57.5 56.45 57.5 55.45 M 46.5 39.15 L 46.5 46 51.6 46 Q 52.4 46 53.2 45.8 54 45.65 54.6 45.2 55.25 44.8 55.65 44.15 56 43.45 56 42.5 56 41.5 55.6 40.85 55.15 40.2 54.45 39.85 53.8 39.5 52.95 39.35 52.1 39.15 51.3 39.15 L 46.5 39.15 Z"
         id="path12306" />
      <path
         fill="#8C8C8C"
         stroke="none"
         d=" M 55.5 33.55 Q 53.45 33.25 51.35 33.25 L 39.5 33.25 39.5 65.1 52.55 65.1 Q 54.65 65.1 56.75 64.65 58.9 64.2 60.6 63.15 62.35 62.15 63.4 60.45 64.5 58.75 64.5 56.25 64.5 54.7 64 53.35 63.5 52 62.55 51 61.65 50 60.4 49.3 59.1 48.7 57.55 48.45 L 57.55 48.35 Q 60 47.6 61.5 45.85 63 44.05 63 41.35 63 38.75 62 37.15 60.95 35.6 59.3 34.7 57.65 33.85 55.5 33.55 M 46.5 46 L 46.5 39.15 51.3 39.15 Q 52.1 39.15 52.95 39.35 53.8 39.5 54.45 39.85 55.15 40.2 55.6 40.85 56 41.5 56 42.5 56 43.45 55.65 44.15 55.25 44.8 54.6 45.2 54 45.65 53.2 45.8 52.4 46 51.6 46 L 46.5 46 M 56.9 53.6 Q 57.5 54.3 57.5 55.45 57.5 56.45 57.05 57.2 56.6 57.9 55.95 58.35 55.3 58.8 54.45 59 53.6 59.15 52.8 59.15 L 46.5 59.15 46.5 51.9 51.8 51.9 Q 52.65 51.9 53.65 52.05 54.65 52.2 55.5 52.55 56.35 52.9 56.9 53.6 Z"
         id="path12308" />
    </g>
    <g
       id="Layer10_0_FILL">
      <path
         fill="#D7D7D7"
         stroke="none"
         d=" M 81.3 81.3 Q 94.25 68.35 94.25 50 94.25 31.65 81.3 18.7 68.35 5.75 50 5.75 31.65 5.75 18.7 18.7 16.154296875 21.245703125 14.1 24 10.289453125 29.137109375 8.2 35 5.75 41.9849609375 5.75 50 5.75 54.8107421875 6.65 59.25 7.2669921875 62.3400390625 8.3 65.25 11.5078125 74.1078125 18.7 81.3 31.65 94.25 50 94.25 68.35 94.25 81.3 81.3 M 50.1 9.3 Q 66.95 9.3 78.95 21.3 90.75 33.2 90.75 50.1 90.75 66.95 78.95 78.95 66.95 90.75 50.1 90.75 33.2 90.75 21.3 78.95 15.098046875 72.748046875 12.1 65.25 10.9330078125 62.3474609375 10.25 59.25 9.3 54.8693359375 9.3 50.1 9.3 41.971875 12.05 35 14.4251953125 29.08359375 18.75 24 19.96953125 22.6193359375 21.3 21.3 33.2 9.3 50.1 9.3 M 78.95 21.3 Q 66.95 9.3 50.1 9.3 33.2 9.3 21.3 21.3 19.96953125 22.6193359375 18.75 24 14.4251953125 29.08359375 12.05 35 9.3 41.971875 9.3 50.1 9.3 54.8693359375 10.25 59.25 10.9330078125 62.3474609375 12.1 65.25 15.098046875 72.748046875 21.3 78.95 33.2 90.75 50.1 90.75 66.95 90.75 78.95 78.95 90.75 66.95 90.75 50.1 90.75 33.2 78.95 21.3 M 50 28.2 Q 59.05 28.2 65.45 34.6 71.8 41 71.8 50 71.8 59.05 65.45 65.45 59.05 71.8 50 71.8 41 71.8 34.6 65.45 28.2 59.05 28.2 50 28.2 41 34.6 34.6 41 28.2 50 28.2 Z"
         id="path12311" />
      <path
         fill="#2E2E2E"
         stroke="none"
         d=" M 65.45 34.6 Q 59.05 28.2 50 28.2 41 28.2 34.6 34.6 28.2 41 28.2 50 28.2 59.05 34.6 65.45 41 71.8 50 71.8 59.05 71.8 65.45 65.45 71.8 59.05 71.8 50 71.8 41 65.45 34.6 M 50 32 Q 57.45 32 62.75 37.3 67.95 42.55 67.95 50 67.95 57.45 62.75 62.75 57.45 67.95 50 67.95 42.55 67.95 37.3 62.75 32 57.45 32 50 32 42.55 37.3 37.3 42.55 32 50 32 M 62.75 37.3 Q 57.45 32 50 32 42.55 32 37.3 37.3 32 42.55 32 50 32 57.45 37.3 62.75 42.55 67.95 50 67.95 57.45 67.95 62.75 62.75 67.95 57.45 67.95 50 67.95 42.55 62.75 37.3 Z"
         id="path12313" />
    </g>
    <g
       id="Layer9_0_FILL">
      <path
         fill="#353535"
         stroke="none"
         d=" M 74.85 25.05 Q 64.55 14.75 50 14.75 35.4 14.75 25.05 25.05 14.75 35.4 14.75 50 14.75 64.55 25.05 74.85 35.4 85.25 50 85.25 64.55 85.25 74.85 74.85 85.25 64.55 85.25 50 85.25 35.4 74.85 25.05 M 50 20.75 Q 62.15 20.75 70.7 29.25 79.3 37.85 79.3 50 79.3 62.1 70.7 70.65 L 70.65 70.7 Q 62.1 79.3 50 79.3 37.85 79.3 29.25 70.7 20.75 62.15 20.75 50 20.75 37.9 29.25 29.25 37.9 20.75 50 20.75 Z"
         id="path12316" />
      <path
         fill="url(#Gradient_5)"
         stroke="none"
         d=" M 70.7 29.25 Q 62.15 20.75 50 20.75 37.9 20.75 29.25 29.25 20.75 37.9 20.75 50 20.75 62.15 29.25 70.7 37.85 79.3 50 79.3 62.1 79.3 70.65 70.7 L 70.7 70.65 Q 79.3 62.1 79.3 50 79.3 37.85 70.7 29.25 M 50 25.15 Q 60.3 25.15 67.55 32.4 74.85 39.75 74.85 50 74.85 60.3 67.55 67.55 60.3 74.85 50 74.85 39.75 74.85 32.4 67.55 25.15 60.3 25.15 50 25.15 39.75 32.35 32.4 L 32.4 32.35 Q 39.75 25.15 50 25.15 Z"
         id="path12318" />
      <path
         fill="#535353"
         stroke="none"
         d=" M 67.55 32.4 Q 60.3 25.15 50 25.15 39.75 25.15 32.4 32.35 L 32.35 32.4 Q 25.15 39.75 25.15 50 25.15 60.3 32.4 67.55 39.75 74.85 50 74.85 60.3 74.85 67.55 67.55 74.85 60.3 74.85 50 74.85 39.75 67.55 32.4 M 37.15 41 L 62.9 41 37.15 41 M 37.15 50 L 62.9 50 37.15 50 M 37.15 59 L 62.9 59 37.15 59 Z"
         id="path12320" />
    </g>
    <g
       id="Layer8_0_FILL">
      <path
         fill="#2A2A2A"
         stroke="none"
         d=" M 83.8 83.8 Q 97.7 69.8 97.7 50 97.7 30.2 83.8 16.3 79.0794921875 11.5794921875 73.7 8.45 63.1240234375 2.3 50 2.3 36.8515625 2.3 26.3 8.45 20.96953125 11.596875 16.3 16.3 2.3 30.2 2.3 50 2.3 69.8 16.3 83.8 30.2 97.7 50 97.7 69.8 97.7 83.8 83.8 M 75.9 16.4 Q 78.025390625 18.0833984375 80 20.05 92.35 32.45 92.35 50 92.35 67.55 80 80 67.55 92.35 50 92.35 32.45 92.35 20.05 80 7.65 67.55 7.65 50 7.65 32.45 20.05 20.05 22.0208984375 18.0791015625 24.1 16.4 35.2396484375 7.65 50 7.65 64.7666015625 7.65 75.9 16.4 Z"
         id="path12323" />
      <path
         fill="url(#Gradient_6)"
         stroke="none"
         d=" M 51.7 45.55 Q 50.873046875 45.6 50 45.6 49.04296875 45.6 48.1 45.55 47.1853515625 45.4830078125 46.25 45.35 45.68984375 45.2689453125 45.1 45.15 41.276953125 44.4818359375 37.9 42.7 L 25.9 42.7 Q 23.25 42.7 21.3 44.3 21 44.55 20.75 44.8 18.65 46.95 18.65 49.95 18.65 52.95 20.75 55.05 21 55.3 21.35 55.6 23.3 57.2 25.9 57.2 L 42.75 57.2 42.75 74.1 Q 42.75 77.1 44.9 79.2 47 81.35 50 81.35 53 81.35 55.15 79.2 57.25 77.1 57.25 74.1 L 57.25 57.2 74.15 57.2 Q 77.15 57.2 79.25 55.05 81.4 52.95 81.4 49.95 81.4 46.95 79.25 44.8 77.15 42.7 74.15 42.7 L 62.05 42.7 Q 57.3626953125 45.2193359375 51.7 45.55 M 89.6 50.9 L 89.6 50.1 Q 89.6 50.05 89.6 50 89.6 33.65 78 22.05 77.066015625 21.1119140625 76.1 20.25 75.9927734375 24.556640625 74.65 28.4 74.55 28.5 74.55 28.65 73.85 30.5 72.85 32.3 71.1 35.25 68.4 37.95 65.47890625 40.890234375 62.05 42.7 L 74.15 42.7 Q 77.15 42.7 79.25 44.8 81.4 46.95 81.4 49.95 81.4 52.95 79.25 55.05 77.15 57.2 74.15 57.2 L 57.25 57.2 57.25 74.1 Q 57.25 77.1 55.15 79.2 53 81.35 50 81.35 47 81.35 44.9 79.2 42.75 77.1 42.75 74.1 L 42.75 57.2 25.9 57.2 Q 23.3 57.2 21.35 55.6 21 55.3 20.75 55.05 18.65 52.95 18.65 49.95 18.65 46.95 20.75 44.8 21 44.55 21.3 44.3 23.25 42.7 25.9 42.7 L 37.9 42.7 Q 34.49609375 40.89609375 31.55 37.95 28.65 35.05 26.9 31.75 25.9 30 25.25 28.1 24.0162109375 24.444140625 23.9 20.3 22.9865234375 21.1595703125 22.1 22.05 10.4 33.65 10.4 50 10.4 50.05 10.4 50.1 L 10.4 50.5 Q 10.4 50.7 10.4 50.9 10.75 66.7 22.1 78 33.7 89.6 50 89.6 66.4 89.6 78 78 89.25 66.7 89.6 50.9 Z"
         id="path12325" />
      <path
         fill="#F5F5F5"
         stroke="none"
         d=" M 50 18.6 Q 47 18.6 44.9 20.7 42.75 22.85 42.75 25.85 L 42.75 42.7 37.9 42.7 Q 41.276953125 44.4818359375 45.1 45.15 45.68984375 45.2689453125 46.25 45.35 47.1853515625 45.4830078125 48.1 45.55 49.04296875 45.6 50 45.6 50.873046875 45.6 51.7 45.55 57.3626953125 45.2193359375 62.05 42.7 L 57.25 42.7 57.25 25.85 Q 57.25 22.85 55.15 20.7 53 18.6 50 18.6 M 44.9 20.7 Q 47 18.6 50 18.6 53 18.6 55.15 20.7 57.25 22.85 57.25 25.85 L 57.25 42.7 62.05 42.7 Q 65.47890625 40.890234375 68.4 37.95 71.1 35.25 72.85 32.3 73.85 30.5 74.55 28.65 74.55 28.5 74.65 28.4 75.9927734375 24.556640625 76.1 20.25 65.0794921875 10.4 50 10.4 34.9458984375 10.4 23.9 20.3 24.0162109375 24.444140625 25.25 28.1 25.9 30 26.9 31.75 28.65 35.05 31.55 37.95 34.49609375 40.89609375 37.9 42.7 L 42.75 42.7 42.75 25.85 Q 42.75 22.85 44.9 20.7 Z"
         id="path12327" />
      <path
         fill="#FFFFFF"
         stroke="none"
         d=" M 76.1 19.55 Q 76.1 17.96015625 75.9 16.4 64.7666015625 7.65 50 7.65 35.2396484375 7.65 24.1 16.4 23.9 17.93984375 23.9 19.55 23.9 19.94140625 23.9 20.3 34.9458984375 10.4 50 10.4 65.0794921875 10.4 76.1 20.25 76.1 19.897265625 76.1 19.55 Z"
         id="path12329" />
      <path
         fill="#464646"
         stroke="none"
         d=" M 89.6 50.1 L 89.6 50.9 Q 89.25 66.7 78 78 66.4 89.6 50 89.6 33.7 89.6 22.1 78 10.75 66.7 10.4 50.9 10.4 50.7 10.4 50.5 L 10.4 50.1 Q 10.4 50.05 10.4 50 10.4 33.65 22.1 22.05 22.9865234375 21.1595703125 23.9 20.3 23.9 19.94140625 23.9 19.55 23.9 17.93984375 24.1 16.4 22.0208984375 18.0791015625 20.05 20.05 7.65 32.45 7.65 50 7.65 67.55 20.05 80 32.45 92.35 50 92.35 67.55 92.35 80 80 92.35 67.55 92.35 50 92.35 32.45 80 20.05 78.025390625 18.0833984375 75.9 16.4 76.1 17.96015625 76.1 19.55 76.1 19.897265625 76.1 20.25 77.066015625 21.1119140625 78 22.05 89.6 33.65 89.6 50 89.6 50.05 89.6 50.1 Z"
         id="path12331" />
    </g>
    <g
       id="Layer7_0_FILL">
      <path
         fill="#434345"
         stroke="none"
         d=" M 89.95 56.5 Q 90.45 53.3478515625 90.45 50 90.45 43.7263671875 88.8 38.15 86.00625 28.7935546875 78.55 21.4 L 78.6 21.4 Q 66.8 9.6 50 9.6 33.25 9.6 21.35 21.4 9.55 33.25 9.55 50 9.55 66.75 21.35 78.6 L 21.35 78.65 Q 33.25 90.45 50 90.45 66.75 90.45 78.55 78.65 L 78.6 78.6 Q 88.0814453125 69.1185546875 89.95 56.5 M 86.45 50 Q 86.45 53.3587890625 85.9 56.5 84.069921875 67.480078125 75.75 75.8 65.1 86.45 50 86.45 34.9 86.45 24.2 75.8 L 24.15 75.8 Q 13.55 65.1 13.55 50 13.55 34.9 24.15 24.25 L 24.2 24.2 Q 34.9 13.6 50 13.6 65.1 13.6 75.75 24.25 81.9759765625 30.446875 84.55 38.15 86.45 43.6861328125 86.45 50 Z"
         id="path12334" />
      <path
         fill="#96989D"
         stroke="none"
         d=" M 85.9 56.5 Q 86.45 53.3587890625 86.45 50 86.45 43.6861328125 84.55 38.15 81.9759765625 30.446875 75.75 24.25 65.1 13.6 50 13.6 34.9 13.6 24.2 24.2 L 24.15 24.25 Q 13.55 34.9 13.55 50 13.55 65.1 24.15 75.8 L 24.2 75.8 Q 34.9 86.45 50 86.45 65.1 86.45 75.75 75.8 84.069921875 67.480078125 85.9 56.5 M 83 50 Q 83 53.3705078125 82.4 56.5 80.6171875 66.0451171875 73.35 73.35 63.65 83 50 83 36.25 83 26.6 73.35 L 26.6 73.3 Q 17 63.6 17 50 17 36.3 26.6 26.6 36.3 17 50 17 63.6 17 73.3 26.6 L 73.35 26.6 Q 78.53359375 31.78359375 80.9 38.15 83 43.6359375 83 50 Z"
         id="path12336" />
      <path
         fill="#E3E7ED"
         stroke="none"
         d=" M 82.4 56.5 Q 83 53.3705078125 83 50 83 43.6359375 80.9 38.15 78.53359375 31.78359375 73.35 26.6 L 73.3 26.6 Q 63.6 17 50 17 36.3 17 26.6 26.6 17 36.3 17 50 17 63.6 26.6 73.3 L 26.6 73.35 Q 36.25 83 50 83 63.65 83 73.35 73.35 80.6171875 66.0451171875 82.4 56.5 M 71.15 28.75 Q 75.4306640625 33.00625 77.6 38.15 79.95 43.58046875 79.95 50 79.95 53.3833984375 79.3 56.5 77.5392578125 64.7607421875 71.15 71.15 62.35 79.95 50 79.95 37.5 79.95 28.75 71.15 20 62.4 20 50 20 37.5 28.7 28.75 L 28.75 28.7 Q 37.5 20 50 20 62.4 20 71.15 28.75 Z"
         id="path12338" />
      <path
         fill="#BCBFC4"
         stroke="none"
         d=" M 77.6 38.15 Q 75.4306640625 33.00625 71.15 28.75 62.4 20 50 20 37.5 20 28.75 28.7 L 28.7 28.75 Q 20 37.5 20 50 20 62.4 28.75 71.15 37.5 79.95 50 79.95 62.35 79.95 71.15 71.15 77.5392578125 64.7607421875 79.3 56.5 79.95 53.3833984375 79.95 50 79.95 43.58046875 77.6 38.15 M 63.95 36.05 Q 64.9642578125 37.0642578125 65.8 38.15 69.75 43.2751953125 69.75 50 69.75 53.4693359375 68.7 56.5 67.29609375 60.6328125 63.95 63.95 58.2 69.75 50 69.75 41.85 69.75 36.05 63.95 30.25 58.2 30.25 50 30.25 41.85 36.05 36.05 41.85 30.25 50 30.25 58.2 30.25 63.95 36.05 M 65.8 38.15 Q 64.9642578125 37.0642578125 63.95 36.05 58.2 30.25 50 30.25 41.85 30.25 36.05 36.05 30.25 41.85 30.25 50 30.25 58.2 36.05 63.95 41.85 69.75 50 69.75 58.2 69.75 63.95 63.95 67.29609375 60.6328125 68.7 56.5 69.75 53.4693359375 69.75 50 69.75 43.2751953125 65.8 38.15 Z"
         id="path12340" />
    </g>
    <g
       id="Layer6_0_FILL">
      <path
         fill="url(#Gradient_8)"
         stroke="none"
         d=" M 92.95 40.5 Q 92.35 36.15 87.6 35.15 L 65.25 35.15 65.25 12.5 Q 64.25 7.75 59.9 7.15 49.7 5.2 40.3 7.15 36.05 7.85 34.95 12.5 L 34.95 35.15 12.5 35.15 Q 7.75 36.15 7.15 40.5 5.2 50.7 7.15 60.1 7.85 64.35 12.5 65.45 L 34.95 65.45 34.95 87.6 Q 36.05 92.25 40.3 92.95 49.7 94.9 59.9 92.95 64.25 92.35 65.25 87.6 L 65.25 65.45 87.6 65.45 Q 92.25 64.35 92.95 60.1 94.9 50.7 92.95 40.5 M 85.45 42.65 Q 87.15 50.3 85.45 57.95 L 65.25 57.95 Q 62.15 57.95 59.95 60.15 57.75 62.35 57.75 65.45 L 57.75 85.45 Q 50.1 87.15 42.45 85.45 L 42.45 77.65 42.45 76.35 42.45 65.45 Q 42.45 62.35 40.25 60.15 38.05 57.95 34.95 57.95 L 14.65 57.95 Q 12.95 50.3 14.65 42.65 L 34.95 42.65 Q 38.05 42.65 40.25 40.45 42.45 38.25 42.45 35.15 L 42.45 14.65 Q 50.1 12.95 57.75 14.65 L 57.75 35.15 Q 57.75 38.25 59.95 40.45 62.15 42.65 65.25 42.65 L 85.45 42.65 Z"
         id="path12343" />
      <path
         fill="url(#Gradient_9)"
         stroke="none"
         d=" M 85.45 57.95 Q 87.15 50.3 85.45 42.65 L 65.25 42.65 Q 62.15 42.65 59.95 40.45 57.75 38.25 57.75 35.15 L 57.75 14.65 Q 50.1 12.95 42.45 14.65 L 42.45 35.15 Q 42.45 38.25 40.25 40.45 38.05 42.65 34.95 42.65 L 14.65 42.65 Q 12.95 50.3 14.65 57.95 L 34.95 57.95 Q 38.05 57.95 40.25 60.15 42.45 62.35 42.45 65.45 L 42.45 76.35 42.45 77.65 42.45 85.45 Q 50.1 87.15 57.75 85.45 L 57.75 65.45 Q 57.75 62.35 59.95 60.15 62.15 57.95 65.25 57.95 L 85.45 57.95 Z"
         id="path12345" />
    </g>
    <g
       id="Layer5_0_FILL">
      <path
         fill="#404040"
         stroke="none"
         d=" M 73.9 25.95 L 73.95 25.95 Q 64.1 16.1 50 16.1 35.9 16.1 25.9 25.95 16.05 35.9 16.05 50 16.05 64.05 25.9 73.95 L 25.9 74 Q 35.9 83.9 50 83.9 64.05 83.9 73.9 74 L 73.95 73.95 Q 83.9 64.05 83.9 50 83.9 35.9 73.9 25.95 M 50 20.6 Q 62.15 20.6 70.75 29.2 79.4 37.8 79.4 50 79.4 62.15 70.75 70.8 62.15 79.4 50 79.4 37.8 79.4 29.15 70.8 20.6 62.15 20.6 50 20.6 37.8 29.15 29.2 L 29.15 29.15 Q 37.8 20.6 50 20.6 Z"
         id="path12348" />
      <path
         fill="#D7D7D7"
         stroke="none"
         d=" M 70.75 29.2 Q 62.15 20.6 50 20.6 37.8 20.6 29.15 29.15 L 29.15 29.2 Q 20.6 37.8 20.6 50 20.6 62.15 29.15 70.8 37.8 79.4 50 79.4 62.15 79.4 70.75 70.8 79.4 62.15 79.4 50 79.4 37.8 70.75 29.2 M 67.65 32.3 L 67.7 32.3 Q 75 39.6 75 50 75 60.35 67.7 67.7 60.35 75 50 75 39.6 75 32.3 67.7 L 32.3 67.65 Q 25 60.3 25 50 25 39.6 32.3 32.3 39.6 25 50 25 60.3 25 67.65 32.3 Z"
         id="path12350" />
      <path
         fill="#FFFFFF"
         stroke="none"
         d=" M 67.7 32.3 L 67.65 32.3 Q 60.3 25 50 25 39.6 25 32.3 32.3 25 39.6 25 50 25 60.3 32.3 67.65 L 32.3 67.7 Q 39.6 75 50 75 60.35 75 67.7 67.7 75 60.35 75 50 75 39.6 67.7 32.3 M 50 28.7 Q 58.8 28.7 65.05 34.95 71.25 41.15 71.25 50 71.25 58.8 65.05 65.05 58.8 71.25 50 71.25 41.15 71.25 34.95 65.05 28.7 58.8 28.7 50 28.7 41.15 34.9 34.95 L 34.95 34.9 Q 41.15 28.7 50 28.7 Z"
         id="path12352" />
      <path
         fill="#F5F5F5"
         stroke="none"
         d=" M 65.05 34.95 Q 58.8 28.7 50 28.7 41.15 28.7 34.95 34.9 L 34.9 34.95 Q 28.7 41.15 28.7 50 28.7 58.8 34.95 65.05 41.15 71.25 50 71.25 58.8 71.25 65.05 65.05 71.25 58.8 71.25 50 71.25 41.15 65.05 34.95 M 63.05 52.95 L 37 52.95 37 46.95 63.05 46.95 63.05 52.95 Z"
         id="path12354" />
      <path
         fill="#9A9A9A"
         stroke="none"
         d=" M 37 52.95 L 63.05 52.95 63.05 46.95 37 46.95 37 52.95 Z"
         id="path12356" />
    </g>
    <g
       id="Layer4_0_FILL">
      <path
         fill="#000000"
         stroke="none"
         d=" M 91.95 52.45 Q 92.0001953125 51.2380859375 92 50 92.000390625 44.5794921875 90.8 39.65 88.14765625 28.7162109375 79.6 20.2 79.4958984375 20.0982421875 79.45 19.95 67.325390625 8.046875 50 8.05 32.5546875 8.0458984375 20.15 20.2 7.9466796875 32.5548828125 7.95 50 7.947265625 67.394921875 20.15 79.7 20.223046875 79.772265625 20.25 79.85 32.632421875 92.0029296875 50 92 67.394140625 92.0015625 79.6 79.75 79.655078125 79.68984375 79.7 79.65 L 79.75 79.6 Q 91.12890625 68.219140625 91.95 52.45 M 87.35 50 Q 87.35 51.239453125 87.25 52.45 86.466796875 66.3365234375 76.35 76.45 65.4556640625 87.3478515625 50 87.35 34.5453125 87.3474609375 23.55 76.45 12.65234375 65.4546875 12.65 50 12.65234375 34.6255859375 23.4 23.7 23.4736328125 23.62421875 23.55 23.55 34.5453125 12.65234375 50 12.65 65.4556640625 12.6515625 76.35 23.6 83.466015625 30.6810546875 85.95 39.65 87.349609375 44.544140625 87.35 50 Z"
         id="path12359" />
      <path
         fill="#1E1E1E"
         stroke="none"
         d=" M 87.25 52.45 Q 87.35 51.239453125 87.35 50 87.349609375 44.544140625 85.95 39.65 83.466015625 30.6810546875 76.35 23.6 65.4556640625 12.6515625 50 12.65 34.5453125 12.65234375 23.55 23.55 23.4736328125 23.62421875 23.4 23.7 12.65234375 34.6255859375 12.65 50 12.65234375 65.4546875 23.55 76.45 34.5453125 87.3474609375 50 87.35 65.4556640625 87.3478515625 76.35 76.45 86.466796875 66.3365234375 87.25 52.45 M 71.95 28.3 Q 76.9822265625 33.3791015625 79.15 39.65 80.8509765625 44.47265625 80.85 50 80.8501953125 51.2427734375 80.75 52.45 79.9779296875 63.6744140625 71.85 71.85 62.7947265625 80.85234375 50 80.85 37.284765625 80.8521484375 28.3 71.95 28.273828125 71.873046875 28.2 71.8 19.19765625 62.695703125 19.2 50 19.1978515625 37.2056640625 28.2 28.2 37.2056640625 19.1978515625 50 19.2 62.695703125 19.19765625 71.8 28.2 71.873046875 28.273828125 71.95 28.3 Z"
         id="path12361" />
      <path
         fill="#4F4F4F"
         stroke="none"
         d=" M 79.15 39.65 Q 76.9822265625 33.3791015625 71.95 28.3 71.873046875 28.273828125 71.8 28.2 62.695703125 19.19765625 50 19.2 37.2056640625 19.1978515625 28.2 28.2 19.1978515625 37.2056640625 19.2 50 19.19765625 62.695703125 28.2 71.8 28.273828125 71.873046875 28.3 71.95 37.284765625 80.8521484375 50 80.85 62.7947265625 80.85234375 71.85 71.85 79.9779296875 63.6744140625 80.75 52.45 80.8501953125 51.2427734375 80.85 50 80.8509765625 44.47265625 79.15 39.65 M 69.25 30.8 Q 73.241015625 34.7892578125 75.2 39.65 77.1486328125 44.4076171875 77.15 50 77.149609375 51.2451171875 77.05 52.45 76.2732421875 62.1392578125 69.25 69.25 61.2546875 77.146875 50 77.15 38.69375 77.147265625 30.8 69.25 22.8013671875 61.2548828125 22.8 50 22.801953125 38.6935546875 30.75 30.8 L 30.8 30.75 Q 38.6935546875 22.801953125 50 22.8 61.2548828125 22.8013671875 69.25 30.8 Z"
         id="path12363" />
      <path
         fill="#3B3B3B"
         stroke="none"
         d=" M 75.2 39.65 Q 73.241015625 34.7892578125 69.25 30.8 61.2548828125 22.8013671875 50 22.8 38.6935546875 22.801953125 30.8 30.75 L 30.75 30.8 Q 22.801953125 38.6935546875 22.8 50 22.8013671875 61.2548828125 30.8 69.25 38.69375 77.147265625 50 77.15 61.2546875 77.146875 69.25 69.25 76.2732421875 62.1392578125 77.05 52.45 77.149609375 51.2451171875 77.15 50 77.1486328125 44.4076171875 75.2 39.65 M 68.75 49.3 L 68.75 39.85 68.75 49.3 Q 68.75 49.6478515625 68.75 50 68.75 57.75 63.25 63.25 57.75 68.75 50 68.75 42.25 68.75 36.75 63.25 31.3033203125 57.8033203125 31.25 50.15 31.25 50.0751953125 31.25 50 31.25 49.64765625 31.3 49.3 L 31.3 39.85 31.3 49.3 31.25 50.15 Q 31.3033203125 57.8033203125 36.75 63.25 42.25 68.75 50 68.75 57.75 68.75 63.25 63.25 68.75 57.75 68.75 50 68.75 49.6478515625 68.75 49.3 M 31.25 50 Q 31.25 50.0751953125 31.25 50.15 L 31.3 49.3 Q 31.25 49.64765625 31.25 50 Z"
         id="path12365" />
    </g>
    <g
       id="Layer3_0_FILL">
      <path
         fill="#353535"
         stroke="none"
         d=" M 84.95 77.8 Q 83.7 50.5 84.95 23.15 84.95 17.3 79.1 17.3 L 21.9 17.3 Q 16.05 17.3 16.05 23.15 17.3 50.5 16.05 77.8 16.05 83.65 21.9 83.65 L 79.1 83.65 Q 84.95 83.65 84.95 77.8 M 54.15 26.45 L 55.4 26.45 71.55 26.45 Q 75.8 26.45 75.8 30.7 74.65 50.5 75.8 70.25 75.8 74.45 71.55 74.45 L 55.4 74.45 54.15 74.45 29.45 74.45 Q 25.2 74.45 25.2 70.25 26.35 50.5 25.2 30.7 25.2 26.45 29.45 26.45 L 54.15 26.45 Z"
         id="path12368" />
      <path
         fill="#595959"
         stroke="none"
         d=" M 55.4 26.45 L 54.15 26.45 29.45 26.45 Q 25.2 26.45 25.2 30.7 26.35 50.5 25.2 70.25 25.2 74.45 29.45 74.45 L 54.15 74.45 55.4 74.45 71.55 74.45 Q 75.8 74.45 75.8 70.25 74.65 50.5 75.8 30.7 75.8 26.45 71.55 26.45 L 55.4 26.45 M 50.5 46.45 L 50.45 46.45 44.95 63.6 40.3 63.6 32.95 38.8 38.9 38.8 42.85 54.7 42.9 54.7 48.1 38.8 53.15 38.8 58.3 55.1 58.4 55.1 62.55 38.8 68.05 38.8 60.8 63.6 55.95 63.6 50.5 46.45 Z"
         id="path12370" />
      <path
         fill="#CDCDCD"
         stroke="none"
         d=" M 50.45 46.45 L 50.5 46.45 55.95 63.6 60.8 63.6 68.05 38.8 62.55 38.8 58.4 55.1 58.3 55.1 53.15 38.8 48.1 38.8 42.9 54.7 42.85 54.7 38.9 38.8 32.95 38.8 40.3 63.6 44.95 63.6 50.45 46.45 Z"
         id="path12372" />
    </g>
    <g
       id="Layer2_0_FILL">
      <path
         fill="#D7D7D7"
         stroke="none"
         d=" M 84.95 77.8 Q 83.7 50.5 84.95 23.15 84.95 17.3 79.1 17.3 L 21.9 17.3 Q 16.05 17.3 16.05 23.15 17.3 50.5 16.05 77.8 16.05 83.65 21.9 83.65 L 79.1 83.65 Q 84.95 83.65 84.95 77.8 M 55.4 26.45 L 71.55 26.45 Q 75.8 26.45 75.8 30.7 74.65 50.5 75.8 70.25 75.8 74.45 71.55 74.45 L 55.4 74.45 54.15 74.45 29.45 74.45 Q 25.2 74.45 25.2 70.25 26.35 50.5 25.2 30.7 25.2 26.45 29.45 26.45 L 54.15 26.45 55.4 26.45 Z"
         id="path12375" />
      <path
         fill="#F5F5F5"
         stroke="none"
         d=" M 71.55 26.45 L 55.4 26.45 54.15 26.45 29.45 26.45 Q 25.2 26.45 25.2 30.7 26.35 50.5 25.2 70.25 25.2 74.45 29.45 74.45 L 54.15 74.45 55.4 74.45 71.55 74.45 Q 75.8 74.45 75.8 70.25 74.65 50.5 75.8 30.7 75.8 26.45 71.55 26.45 M 50.5 46.45 L 50.45 46.45 44.95 63.6 40.3 63.6 32.95 38.8 38.9 38.8 42.85 54.7 42.9 54.7 48.1 38.8 53.15 38.8 58.3 55.1 58.4 55.1 62.55 38.8 68.05 38.8 60.8 63.6 55.95 63.6 50.5 46.45 Z"
         id="path12377" />
      <path
         fill="#404040"
         stroke="none"
         d=" M 50.45 46.45 L 50.5 46.45 55.95 63.6 60.8 63.6 68.05 38.8 62.55 38.8 58.4 55.1 58.3 55.1 53.15 38.8 48.1 38.8 42.9 54.7 42.85 54.7 38.9 38.8 32.95 38.8 40.3 63.6 44.95 63.6 50.45 46.45 Z"
         id="path12379" />
    </g>
    <g
       id="Layer1_0_FILL">
      <path
         fill="#1B1B1B"
         stroke="none"
         d=" M 78.55 21.4 L 78.6 21.4 Q 66.8 9.6 50 9.6 33.25 9.6 21.35 21.4 9.55 33.25 9.55 50 9.55 66.75 21.35 78.6 L 21.35 78.65 Q 33.25 90.45 50 90.45 66.75 90.45 78.55 78.65 L 78.6 78.6 Q 90.45 66.75 90.45 50 90.45 33.2 78.55 21.4 M 50 13.6 Q 65.1 13.6 75.75 24.25 86.45 34.9 86.45 50 86.45 65.1 75.75 75.8 65.1 86.45 50 86.45 34.9 86.45 24.2 75.8 L 24.15 75.8 Q 13.55 65.1 13.55 50 13.55 34.9 24.15 24.25 L 24.2 24.2 Q 34.9 13.6 50 13.6 Z"
         id="path12382" />
      <path
         fill="#313131"
         stroke="none"
         d=" M 75.75 24.25 Q 65.1 13.6 50 13.6 34.9 13.6 24.2 24.2 L 24.15 24.25 Q 13.55 34.9 13.55 50 13.55 65.1 24.15 75.8 L 24.2 75.8 Q 34.9 86.45 50 86.45 65.1 86.45 75.75 75.8 86.45 65.1 86.45 50 86.45 34.9 75.75 24.25 M 71.9 28.05 L 71.95 28.05 Q 81 37.1 81 50 81 62.85 71.95 71.95 62.85 81 50 81 37.1 81 28.05 71.95 L 28.05 71.9 Q 19 62.8 19 50 19 37.15 28.05 28.05 37.15 19 50 19 62.8 19 71.9 28.05 Z"
         id="path12384" />
      <path
         fill="#626262"
         stroke="none"
         d=" M 71.95 28.05 L 71.9 28.05 Q 62.8 19 50 19 37.15 19 28.05 28.05 19 37.15 19 50 19 62.8 28.05 71.9 L 28.05 71.95 Q 37.1 81 50 81 62.85 81 71.95 71.95 81 62.85 81 50 81 37.1 71.95 28.05 M 50 23 Q 61.2 23 69.1 30.9 77 38.8 77 50 77 61.15 69.1 69.1 61.15 77 50 77 38.8 77 30.9 69.1 23 61.2 23 50 23 38.8 30.85 30.9 L 30.9 30.85 Q 38.8 23 50 23 Z"
         id="path12386" />
      <path
         fill="#4F4F4F"
         stroke="none"
         d=" M 69.1 30.9 Q 61.2 23 50 23 38.8 23 30.9 30.85 L 30.85 30.9 Q 23 38.8 23 50 23 61.2 30.9 69.1 38.8 77 50 77 61.15 77 69.1 69.1 77 61.15 77 50 77 38.8 69.1 30.9 M 51.35 33.25 Q 53.45 33.25 55.5 33.55 57.65 33.85 59.3 34.7 60.95 35.6 62 37.15 63 38.75 63 41.35 63 44.05 61.5 45.85 60 47.6 57.55 48.35 L 57.55 48.45 Q 59.1 48.7 60.4 49.3 61.65 50 62.55 51 63.5 52 64 53.35 64.5 54.7 64.5 56.25 64.5 58.75 63.4 60.45 62.35 62.15 60.6 63.15 58.9 64.2 56.75 64.65 54.65 65.1 52.55 65.1 L 39.5 65.1 39.5 33.25 51.35 33.25 M 57.5 55.45 Q 57.5 54.3 56.9 53.6 56.35 52.9 55.5 52.55 54.65 52.2 53.65 52.05 52.65 51.9 51.8 51.9 L 46.5 51.9 46.5 59.15 52.8 59.15 Q 53.6 59.15 54.45 59 55.3 58.8 55.95 58.35 56.6 57.9 57.05 57.2 57.5 56.45 57.5 55.45 M 46.5 39.15 L 46.5 46 51.6 46 Q 52.4 46 53.2 45.8 54 45.65 54.6 45.2 55.25 44.8 55.65 44.15 56 43.45 56 42.5 56 41.5 55.6 40.85 55.15 40.2 54.45 39.85 53.8 39.5 52.95 39.35 52.1 39.15 51.3 39.15 L 46.5 39.15 Z"
         id="path12388" />
      <path
         fill="#9A9A9A"
         stroke="none"
         d=" M 55.5 33.55 Q 53.45 33.25 51.35 33.25 L 39.5 33.25 39.5 65.1 52.55 65.1 Q 54.65 65.1 56.75 64.65 58.9 64.2 60.6 63.15 62.35 62.15 63.4 60.45 64.5 58.75 64.5 56.25 64.5 54.7 64 53.35 63.5 52 62.55 51 61.65 50 60.4 49.3 59.1 48.7 57.55 48.45 L 57.55 48.35 Q 60 47.6 61.5 45.85 63 44.05 63 41.35 63 38.75 62 37.15 60.95 35.6 59.3 34.7 57.65 33.85 55.5 33.55 M 46.5 46 L 46.5 39.15 51.3 39.15 Q 52.1 39.15 52.95 39.35 53.8 39.5 54.45 39.85 55.15 40.2 55.6 40.85 56 41.5 56 42.5 56 43.45 55.65 44.15 55.25 44.8 54.6 45.2 54 45.65 53.2 45.8 52.4 46 51.6 46 L 46.5 46 M 56.9 53.6 Q 57.5 54.3 57.5 55.45 57.5 56.45 57.05 57.2 56.6 57.9 55.95 58.35 55.3 58.8 54.45 59 53.6 59.15 52.8 59.15 L 46.5 59.15 46.5 51.9 51.8 51.9 Q 52.65 51.9 53.65 52.05 54.65 52.2 55.5 52.55 56.35 52.9 56.9 53.6 Z"
         id="path12390" />
    </g>
    <g
       id="Layer0_0_FILL">
      <path
         fill="#1B1B1B"
         stroke="none"
         d=" M 78.6 21.4 Q 66.8 9.6 50 9.6 33.25 9.6 21.35 21.4 9.55 33.25 9.55 50 9.55 66.75 21.35 78.6 L 21.35 78.65 Q 33.25 90.45 50 90.45 66.75 90.45 78.55 78.65 L 78.6 78.6 Q 90.45 66.75 90.45 50 90.45 33.2 78.55 21.4 L 78.6 21.4 M 50 13.6 Q 65.1 13.6 75.75 24.25 86.45 34.9 86.45 50 86.45 65.1 75.75 75.8 65.1 86.45 50 86.45 34.9 86.45 24.2 75.8 L 24.15 75.8 Q 13.55 65.1 13.55 50 13.55 34.9 24.15 24.25 L 24.2 24.2 Q 34.9 13.6 50 13.6 Z"
         id="path12393" />
      <path
         fill="#313131"
         stroke="none"
         d=" M 75.75 24.25 Q 65.1 13.6 50 13.6 34.9 13.6 24.2 24.2 L 24.15 24.25 Q 13.55 34.9 13.55 50 13.55 65.1 24.15 75.8 L 24.2 75.8 Q 34.9 86.45 50 86.45 65.1 86.45 75.75 75.8 86.45 65.1 86.45 50 86.45 34.9 75.75 24.25 M 71.9 28.05 L 71.95 28.05 Q 81 37.1 81 50 81 62.85 71.95 71.95 62.85 81 50 81 37.1 81 28.05 71.95 L 28.05 71.9 Q 19 62.8 19 50 19 37.15 28.05 28.05 37.15 19 50 19 62.8 19 71.9 28.05 Z"
         id="path12395" />
      <path
         fill="#626262"
         stroke="none"
         d=" M 71.95 28.05 L 71.9 28.05 Q 62.8 19 50 19 37.15 19 28.05 28.05 19 37.15 19 50 19 62.8 28.05 71.9 L 28.05 71.95 Q 37.1 81 50 81 62.85 81 71.95 71.95 81 62.85 81 50 81 37.1 71.95 28.05 M 50 23 Q 61.2 23 69.1 30.9 77 38.8 77 50 77 61.15 69.1 69.1 61.15 77 50 77 38.8 77 30.9 69.1 23 61.2 23 50 23 38.8 30.85 30.9 L 30.9 30.85 Q 38.8 23 50 23 Z"
         id="path12397" />
      <path
         fill="#4F4F4F"
         stroke="none"
         d=" M 69.1 30.9 Q 61.2 23 50 23 38.8 23 30.9 30.85 L 30.85 30.9 Q 23 38.8 23 50 23 61.2 30.9 69.1 38.8 77 50 77 61.15 77 69.1 69.1 77 61.15 77 50 77 38.8 69.1 30.9 M 47.05 31.6 L 52.85 31.6 66.7 63.45 58.75 63.45 56 56.7 43.65 56.7 41 63.45 33.25 63.45 47.05 31.6 M 45.85 50.75 L 53.65 50.75 49.75 40.85 45.85 50.75 Z"
         id="path12399" />
      <path
         fill="#87D638"
         stroke="none"
         d=" M 52.85 31.6 L 47.05 31.6 33.25 63.45 41 63.45 43.65 56.7 56 56.7 58.75 63.45 66.7 63.45 52.85 31.6 M 53.65 50.75 L 45.85 50.75 49.75 40.85 53.65 50.75 Z"
         id="path12401" />
    </g>
    <path
       id="Layer22_0_1_STROKES"
       stroke="#D7D7D7"
       stroke-width="5"
       stroke-linejoin="round"
       stroke-linecap="round"
       fill="none"
       d=" M 80.4 65.2 Q 74.05 65.2 69.65 60.75 65.15 56.35 65.15 50 65.15 43.7 69.65 39.2 74.05 34.8 80.4 34.8 86.7 34.8 91.15 39.2 95.6 43.7 95.6 50 95.6 56.35 91.15 60.75 86.7 65.2 80.4 65.2 Z M 65.2 19.6 Q 65.2 25.95 60.75 30.35 56.35 34.85 50 34.85 43.7 34.85 39.2 30.35 34.8 25.95 34.8 19.6 34.8 13.3 39.2 8.85 43.7 4.4 50 4.4 56.35 4.4 60.75 8.85 65.2 13.3 65.2 19.6 Z M 19.6 65.2 Q 13.3 65.2 8.85 60.75 4.4 56.35 4.4 50 4.4 43.7 8.85 39.2 13.3 34.8 19.6 34.8 25.9 34.8 30.4 39.2 34.8 43.7 34.8 50 34.8 56.35 30.4 60.75 25.9 65.2 19.6 65.2 Z M 65.2 80.4 Q 65.2 86.7 60.75 91.15 56.35 95.6 50 95.6 43.7 95.6 39.2 91.15 34.8 86.7 34.8 80.4 34.8 74.1 39.2 69.6 43.7 65.2 50 65.2 56.35 65.2 60.75 69.6 65.2 74.1 65.2 80.4 Z" />
    <path
       id="Layer17_0_1_STROKES"
       stroke="#49DA7C"
       stroke-width="5"
       stroke-linejoin="round"
       stroke-linecap="round"
       fill="none"
       d=" M 50 31.05 L 67.05 62.3 32.95 62.3 50 31.05 Z" />
    <path
       id="Layer16_0_1_STROKES"
       stroke="#E23838"
       stroke-width="5"
       stroke-linejoin="round"
       stroke-linecap="round"
       fill="none"
       d=" M 50 30.25 Q 58.2 30.25 63.95 36.05 69.75 41.85 69.75 50 69.75 58.2 63.95 63.95 58.2 69.75 50 69.75 41.85 69.75 36.05 63.95 30.25 58.2 30.25 50 30.25 41.85 36.05 36.05 41.85 30.25 50 30.25 Z" />
    <path
       id="Layer15_0_1_STROKES"
       stroke="#616161"
       stroke-width="4"
       stroke-linejoin="round"
       stroke-linecap="round"
       fill="none"
       d=" M 58.225 11.925 Q 58.7681640625 12.0048828125 59.125 12.425 59.494921875 12.846484375 59.5 13.4 L 59.5 26.9 Q 59.4962890625 27.5283203125 59.05 27.975 L 51.125 35.85 Q 50.68828125 36.28125 50.075 36.275 49.4603515625 36.2677734375 49.025 35.825 L 41 27.8 Q 40.5552734375 27.3658203125 40.55 26.75 L 40.55 13.4 Q 40.555078125 12.8462890625 40.925 12.425 41.281640625 12.0048828125 41.825 11.925 50.0328125 10.7140625 58.225 11.925 Z M 13.4 40.55 L 26.75 40.55 Q 27.3658203125 40.5552734375 27.8 41 L 35.8 49 Q 36.2462890625 49.43671875 36.25 50.05 36.244921875 50.6650390625 35.8 51.1 L 27.825 59.05 Q 27.3865234375 59.49375 26.775 59.5 L 13.4 59.5 Q 12.846484375 59.494921875 12.425 59.125 12.0048828125 58.7681640625 11.925 58.225 10.7134765625 50.0330078125 11.925 41.825 12.0048828125 41.281640625 12.425 40.925 12.846484375 40.555078125 13.4 40.55 Z M 51.05 64.25 L 59.05 72.25 Q 59.49453125 72.683984375 59.5 73.3 L 59.5 86.6 Q 59.494921875 87.153515625 59.125 87.575 58.7681640625 87.9951171875 58.225 88.075 50.0330078125 89.2861328125 41.825 88.075 41.281640625 87.9951171875 40.925 87.575 40.555078125 87.153515625 40.55 86.6 L 40.55 73.3 Q 40.54453125 72.6880859375 40.975 72.25 L 48.925 64.25 Q 49.373046875 63.8044921875 50 63.8 50.6130859375 63.803515625 51.05 64.25 Z" />
    <path
       id="Layer15_0_2_STROKES"
       stroke="#202020"
       stroke-width="5"
       stroke-linejoin="round"
       stroke-linecap="round"
       fill="none"
       d=" M 70.175 65.5 L 65.5 70.175 65.5 70.2 65.5 92.75 Q 50.05 96.65 34.55 92.75 L 34.55 70.2 29.85 65.5 7.25 65.5 Q 3.35 50.05 7.25 34.55 L 29.85 34.55 34.55 29.85 34.55 7.25 Q 50.05 3.35 65.5 7.25 L 65.5 30 70.05 34.55 M 65.5 30 L 50.075 45.375 34.55 29.85 M 34.55 70.2 L 50 54.7 65.5 70.2 M 29.85 34.55 L 45.375 50.075 29.85 65.5" />
    <path
       id="Layer15_0_3_STROKES"
       stroke="#404040"
       stroke-width="5"
       stroke-linejoin="round"
       stroke-linecap="round"
       fill="none"
       d=" M 70.05 34.55 L 92.75 34.55 Q 96.65 50.05 92.75 65.5 L 70.2 65.5 70.175 65.5 M 70.05 34.55 L 54.7 50 70.2 65.5" />
    <path
       id="Layer15_0_4_STROKES"
       stroke="#FFFFFF"
       stroke-width="4"
       stroke-linejoin="round"
       stroke-linecap="round"
       fill="none"
       d=" M 88.075 41.825 Q 89.2861328125 50.0330078125 88.075 58.225 87.9951171875 58.7681640625 87.575 59.125 87.153515625 59.494921875 86.6 59.5 L 73.3 59.5 Q 72.683984375 59.49453125 72.25 59.05 L 64.225 51.025 Q 63.78203125 50.5896484375 63.775 49.975 63.78046875 49.3623046875 64.225 48.925 L 72.125 41 Q 72.55859375 40.5544921875 73.175 40.55 L 86.6 40.55 Q 87.153515625 40.555078125 87.575 40.925 87.9951171875 41.281640625 88.075 41.825 Z" />
    <path
       id="Layer14_0_1_STROKES"
       stroke="#757575"
       stroke-width="5"
       stroke-linejoin="round"
       stroke-linecap="round"
       fill="none"
       d=" M 50 24 Q 60.75 24 68.35 31.6 76 39.25 76 50 76 60.75 68.35 68.35 60.75 76 50 76 39.25 76 31.6 68.35 24 60.75 24 50 24 39.25 31.6 31.6 39.25 24 50 24 Z" />
    <path
       id="Layer14_0_2_STROKES"
       stroke="#FFFFFF"
       stroke-width="5"
       stroke-linejoin="round"
       stroke-linecap="butt"
       fill="none"
       d=" M 59.9 50.1 L 40.05 50.1" />
    <path
       id="Layer10_0_1_STROKES"
       stroke="#3B3B3B"
       stroke-width="4"
       stroke-linejoin="round"
       stroke-linecap="round"
       fill="none"
       d=" M 50 32 Q 57.45 32 62.75 37.3 67.95 42.55 67.95 50 67.95 57.45 62.75 62.75 57.45 67.95 50 67.95 42.55 67.95 37.3 62.75 32 57.45 32 50 32 42.55 37.3 37.3 42.55 32 50 32 Z" />
    <path
       id="Layer10_0_2_STROKES"
       stroke="#1B1B1B"
       stroke-width="4"
       stroke-linejoin="round"
       stroke-linecap="round"
       fill="none"
       d=" M 50 28.2 Q 59.05 28.2 65.45 34.6 71.8 41 71.8 50 71.8 59.05 65.45 65.45 59.05 71.8 50 71.8 41 71.8 34.6 65.45 28.2 59.05 28.2 50 28.2 41 34.6 34.6 41 28.2 50 28.2 Z" />
    <path
       id="Layer10_0_3_STROKES"
       stroke="#FFFFFF"
       stroke-width="5"
       stroke-linejoin="round"
       stroke-linecap="round"
       fill="none"
       d=" M 94.25 50 Q 94.25 68.35 81.3 81.3 68.35 94.25 50 94.25 31.65 94.25 18.7 81.3 11.5078125 74.1078125 8.325 65.25 7.2669921875 62.3400390625 6.65 59.25 5.75 54.8107421875 5.75 50 5.75 41.9849609375 8.225 35 10.289453125 29.137109375 14.1 24 16.154296875 21.245703125 18.7 18.7 31.65 5.75 50 5.75 68.35 5.75 81.3 18.7 94.25 31.65 94.25 50 Z" />
    <path
       id="Layer10_0_4_STROKES"
       stroke="#F5F5F5"
       stroke-width="4"
       stroke-linejoin="round"
       stroke-linecap="round"
       fill="none"
       d=" M 50.1 9.3 Q 66.95 9.3 78.95 21.3 90.75 33.2 90.75 50.1 90.75 66.95 78.95 78.95 66.95 90.75 50.1 90.75 33.2 90.75 21.3 78.95 15.098046875 72.748046875 12.1 65.25 10.9330078125 62.3474609375 10.25 59.25 9.3 54.8693359375 9.3 50.1 9.3 41.971875 12.075 35 14.4251953125 29.08359375 18.775 24 19.96953125 22.6193359375 21.3 21.3 33.2 9.3 50.1 9.3 Z" />
    <path
       id="Layer9_0_1_STROKES"
       stroke="#202020"
       stroke-width="5"
       stroke-linejoin="round"
       stroke-linecap="butt"
       fill="none"
       d=" M 50 14.75 Q 64.55 14.75 74.85 25.05 85.25 35.4 85.25 50 85.25 64.55 74.85 74.85 64.55 85.25 50 85.25 35.4 85.25 25.05 74.85 14.75 64.55 14.75 50 14.75 35.4 25.05 25.05 35.4 14.75 50 14.75 Z" />
    <path
       id="Layer9_0_2_STROKES"
       stroke="#8C8C8C"
       stroke-width="5"
       stroke-linejoin="round"
       stroke-linecap="round"
       fill="none"
       d=" M 37.15 41 L 62.9 41 M 37.15 50 L 62.9 50 M 37.15 59 L 62.9 59" />
    <path
       id="Layer8_0_1_STROKES"
       stroke="#FFFFFF"
       stroke-opacity="0.10196078431372549"
       stroke-width="3"
       stroke-linejoin="round"
       stroke-linecap="round"
       fill="none"
       d=" M 37.9 42.7 L 42.75 42.7 M 57.25 42.7 L 62.075 42.7 74.15 42.7 Q 77.15 42.7 79.25 44.8 81.4 46.95 81.4 49.95 81.4 52.95 79.25 55.05 77.15 57.2 74.15 57.2 L 57.25 57.2 57.25 74.1 Q 57.25 77.1 55.15 79.2 53 81.35 50 81.35 47 81.35 44.9 79.2 42.75 77.1 42.75 74.1 L 42.75 57.2 25.9 57.2 Q 23.3 57.2 21.35 55.6 21 55.3 20.75 55.05 18.65 52.95 18.65 49.95 18.65 46.95 20.75 44.8 21 44.55 21.3 44.3 23.25 42.7 25.9 42.7 L 37.9 42.7" />
    <path
       id="Layer8_0_2_STROKES"
       stroke="url(#Gradient_7)"
       stroke-width="3"
       stroke-linejoin="round"
       stroke-linecap="round"
       fill="none"
       d=" M 42.75 42.7 L 42.75 25.85 Q 42.75 22.85 44.9 20.7 47 18.6 50 18.6 53 18.6 55.15 20.7 57.25 22.85 57.25 25.85 L 57.25 42.7" />
    <path
       id="Layer7_0_1_STROKES"
       stroke="#54565A"
       stroke-width="5"
       stroke-linejoin="round"
       stroke-linecap="round"
       fill="none"
       d=" M 63.95 36.05 Q 64.9642578125 37.0642578125 65.8 38.15 69.75 43.2751953125 69.75 50 69.75 53.4693359375 68.7 56.5 67.29609375 60.6328125 63.95 63.95 58.2 69.75 50 69.75 41.85 69.75 36.05 63.95 30.25 58.2 30.25 50 30.25 41.85 36.05 36.05 41.85 30.25 50 30.25 58.2 30.25 63.95 36.05 Z" />
    <path
       id="Layer6_0_1_STROKES"
       stroke="#1B1B1B"
       stroke-width="5"
       stroke-linejoin="round"
       stroke-linecap="round"
       fill="none"
       d=" M 65.25 65.45 L 65.25 87.6 Q 64.25 92.35 59.9 92.95 49.7 94.9 40.3 92.95 36.05 92.25 34.95 87.6 L 34.95 65.45 12.5 65.45 Q 7.85 64.35 7.15 60.1 5.2 50.7 7.15 40.5 7.75 36.15 12.5 35.15 L 34.95 35.15 34.95 12.5 Q 36.05 7.85 40.3 7.15 49.7 5.2 59.9 7.15 64.25 7.75 65.25 12.5 L 65.25 35.15" />
    <path
       id="Layer6_0_2_STROKES"
       stroke="#626262"
       stroke-width="4"
       stroke-linejoin="round"
       stroke-linecap="round"
       fill="none"
       d=" M 57.75 65.45 L 57.75 85.45 Q 50.1 87.15 42.45 85.45 L 42.45 77.65 M 42.45 76.35 L 42.45 65.45 Q 42.45 62.35 40.25 60.15 38.05 57.95 34.95 57.95 L 14.65 57.95 Q 12.95 50.3 14.65 42.65 L 34.95 42.65 Q 38.05 42.65 40.25 40.45 42.45 38.25 42.45 35.15 L 42.45 14.65 Q 50.1 12.95 57.75 14.65 L 57.75 35.15" />
    <path
       id="Layer6_0_3_STROKES"
       stroke="url(#Gradient_10)"
       stroke-width="4"
       stroke-linejoin="round"
       stroke-linecap="round"
       fill="none"
       d=" M 57.75 35.15 Q 57.75 38.25 59.95 40.45 62.15 42.65 65.25 42.65 L 85.45 42.65 Q 87.15 50.3 85.45 57.95 L 65.25 57.95 Q 62.15 57.95 59.95 60.15 57.75 62.35 57.75 65.45" />
    <path
       id="Layer6_0_4_STROKES"
       stroke="url(#Gradient_11)"
       stroke-width="5"
       stroke-linejoin="round"
       stroke-linecap="round"
       fill="none"
       d=" M 65.25 35.15 L 87.6 35.15 Q 92.35 36.15 92.95 40.5 94.9 50.7 92.95 60.1 92.25 64.35 87.6 65.45 L 65.25 65.45" />
    <path
       id="Layer4_0_1_STROKES"
       stroke="#4196F3"
       stroke-width="6"
       stroke-linejoin="round"
       stroke-linecap="round"
       fill="none"
       d=" M 31.3 39.85 L 31.3 49.3 31.25 50.15 Q 31.3033203125 57.8033203125 36.75 63.25 42.25 68.75 50 68.75 57.75 68.75 63.25 63.25 68.75 57.75 68.75 50 68.75 49.6478515625 68.75 49.3 L 68.75 39.85 M 31.3 49.3 Q 31.25 49.64765625 31.25 50 31.25 50.0751953125 31.25 50.15" />
    <path
       id="Layer3_0_1_STROKES"
       stroke="#1D1D1D"
       stroke-width="5"
       stroke-linejoin="round"
       stroke-linecap="round"
       fill="none"
       d=" M 84.95 23.15 Q 83.7 50.5 84.95 77.8 84.95 83.65 79.1 83.65 L 21.9 83.65 Q 16.05 83.65 16.05 77.8 17.3 50.5 16.05 23.15 16.05 17.3 21.9 17.3 L 79.1 17.3 Q 84.95 17.3 84.95 23.15 Z" />
    <path
       id="Layer3_0_2_STROKES"
       stroke="#696969"
       stroke-width="4"
       stroke-linejoin="round"
       stroke-linecap="round"
       fill="none"
       d=" M 54.15 26.45 L 29.45 26.45 Q 25.2 26.45 25.2 30.7 26.35 50.5 25.2 70.25 25.2 74.45 29.45 74.45 L 54.15 74.45 M 55.4 74.45 L 71.55 74.45 Q 75.8 74.45 75.8 70.25 74.65 50.5 75.8 30.7 75.8 26.45 71.55 26.45 L 55.4 26.45" />
    <path
       id="Layer2_0_1_STROKES"
       stroke="#404040"
       stroke-width="5"
       stroke-linejoin="round"
       stroke-linecap="round"
       fill="none"
       d=" M 84.95 23.15 Q 83.7 50.5 84.95 77.8 84.95 83.65 79.1 83.65 L 21.9 83.65 Q 16.05 83.65 16.05 77.8 17.3 50.5 16.05 23.15 16.05 17.3 21.9 17.3 L 79.1 17.3 Q 84.95 17.3 84.95 23.15 Z" />
    <path
       id="Layer2_0_2_STROKES"
       stroke="#FFFFFF"
       stroke-width="4"
       stroke-linejoin="round"
       stroke-linecap="round"
       fill="none"
       d=" M 55.4 74.45 L 71.55 74.45 Q 75.8 74.45 75.8 70.25 74.65 50.5 75.8 30.7 75.8 26.45 71.55 26.45 L 55.4 26.45 M 54.15 26.45 L 29.45 26.45 Q 25.2 26.45 25.2 30.7 26.35 50.5 25.2 70.25 25.2 74.45 29.45 74.45 L 54.15 74.45" />
  </defs>
  <g
     id="g12437"
     style="display:none">
    <use
       xlink:href="#Layer22_0_FILL"
       id="use12433" />
    <use
       xlink:href="#Layer22_0_1_STROKES"
       id="use12435" />
  </g>
  <g
     transform="translate(53.05,53.35)"
     id="g12443"
     style="display:none">
    <g
       id="g12441">
      <use
         xlink:href="#FingerSide_0_Layer0_0_FILL"
         id="use12439" />
    </g>
  </g>
  <g
     id="g12447"
     style="display:none">
    <use
       xlink:href="#Layer20_0_FILL"
       id="use12445" />
  </g>
  <g
     id="g12451"
     style="display:none">
    <use
       xlink:href="#Layer19_0_FILL"
       id="use12449" />
  </g>
  <g
     id="g12455"
     style="display:none">
    <use
       xlink:href="#Layer18_0_FILL"
       id="use12453" />
  </g>
  <g
     id="g12461"
     style="display:none">
    <use
       xlink:href="#Layer17_0_FILL"
       id="use12457" />
    <use
       xlink:href="#Layer17_0_1_STROKES"
       id="use12459" />
  </g>
  <g
     id="g12467"
     style="display:none">
    <use
       xlink:href="#Layer16_0_FILL"
       id="use12463" />
    <use
       xlink:href="#Layer16_0_1_STROKES"
       id="use12465" />
  </g>
  <g
     id="g12479"
     style="display:none">
    <use
       xlink:href="#Layer15_0_FILL"
       id="use12469" />
    <use
       xlink:href="#Layer15_0_1_STROKES"
       id="use12471" />
    <use
       xlink:href="#Layer15_0_2_STROKES"
       id="use12473" />
    <use
       xlink:href="#Layer15_0_3_STROKES"
       id="use12475" />
    <use
       xlink:href="#Layer15_0_4_STROKES"
       id="use12477" />
  </g>
  <g
     id="g12487"
     style="display:none">
    <use
       xlink:href="#Layer14_0_FILL"
       id="use12481" />
    <use
       xlink:href="#Layer14_0_1_STROKES"
       id="use12483" />
    <use
       xlink:href="#Layer14_0_2_STROKES"
       id="use12485" />
  </g>
  <g
     id="g12491"
     style="display:none">
    <use
       xlink:href="#Layer13_0_FILL"
       id="use12489" />
  </g>
  <g
     id="g12495"
     style="display:none">
    <use
       xlink:href="#Layer12_0_FILL"
       id="use12493" />
  </g>
  <g
     id="g12499"
     style="display:none">
    <use
       xlink:href="#Layer11_0_FILL"
       id="use12497" />
  </g>
  <g
     id="g12511"
     style="display:none">
    <use
       xlink:href="#Layer10_0_FILL"
       id="use12501" />
    <use
       xlink:href="#Layer10_0_1_STROKES"
       id="use12503" />
    <use
       xlink:href="#Layer10_0_2_STROKES"
       id="use12505" />
    <use
       xlink:href="#Layer10_0_3_STROKES"
       id="use12507" />
    <use
       xlink:href="#Layer10_0_4_STROKES"
       id="use12509" />
  </g>
  <g
     id="g12519"
     style="display:none">
    <use
       xlink:href="#Layer9_0_FILL"
       id="use12513" />
    <use
       xlink:href="#Layer9_0_1_STROKES"
       id="use12515" />
    <use
       xlink:href="#Layer9_0_2_STROKES"
       id="use12517" />
  </g>
  <g
     id="g12527"
     style="display:none">
    <use
       xlink:href="#Layer8_0_FILL"
       id="use12521" />
    <use
       xlink:href="#Layer8_0_1_STROKES"
       id="use12523" />
    <use
       xlink:href="#Layer8_0_2_STROKES"
       id="use12525" />
  </g>
  <g
     id="g12533"
     style="display:none">
    <use
       xlink:href="#Layer7_0_FILL"
       id="use12529" />
    <use
       xlink:href="#Layer7_0_1_STROKES"
       id="use12531" />
  </g>
  <g
     id="g12545"
     style="display:none">
    <use
       xlink:href="#Layer6_0_FILL"
       id="use12535" />
    <use
       xlink:href="#Layer6_0_1_STROKES"
       id="use12537" />
    <use
       xlink:href="#Layer6_0_2_STROKES"
       id="use12539" />
    <use
       xlink:href="#Layer6_0_3_STROKES"
       id="use12541" />
    <use
       xlink:href="#Layer6_0_4_STROKES"
       id="use12543" />
  </g>
  <g
     id="g12549"
     style="display:none">
    <use
       xlink:href="#Layer5_0_FILL"
       id="use12547" />
  </g>
  <g
     id="g12555"
     style="display:none">
    <use
       xlink:href="#Layer4_0_FILL"
       id="use12551" />
    <use
       xlink:href="#Layer4_0_1_STROKES"
       id="use12553" />
  </g>
  <g
     transform="matrix( 1, 0, 0, 1, 0,0) "
     id="g12563">
    <g
       id="use12557">
      <path
         fill="#353535"
         stroke="none"
         d="m 84.95,77.8 q -1.25,-27.3 0,-54.65 0,-5.85 -5.85,-5.85 H 21.9 q -5.85,0 -5.85,5.85 1.25,27.35 0,54.65 0,5.85 5.85,5.85 h 57.2 q 5.85,0 5.85,-5.85 M 54.15,26.45 h 1.25 16.15 q 4.25,0 4.25,4.25 -1.15,19.8 0,39.55 0,4.2 -4.25,4.2 H 55.4 54.15 29.45 q -4.25,0 -4.25,-4.2 1.15,-19.75 0,-39.55 0,-4.25 4.25,-4.25 z"
         id="path12702" />
      <path
         fill="#595959"
         stroke="none"
         d="m 55.4,26.45 h -1.25 -24.7 q -4.25,0 -4.25,4.25 1.15,19.8 0,39.55 0,4.2 4.25,4.2 h 24.7 1.25 16.15 q 4.25,0 4.25,-4.2 -1.15,-19.75 0,-39.55 0,-4.25 -4.25,-4.25 H 55.4 m -4.9,20 H 50.45 L 44.95,63.6 H 40.3 L 32.95,38.8 h 5.95 l 3.95,15.9 h 0.05 l 5.2,-15.9 h 5.05 l 5.15,16.3 h 0.1 l 4.15,-16.3 h 5.5 L 60.8,63.6 h -4.85 z"
         id="path12704" />
      <path
         fill="#cdcdcd"
         stroke="none"
         d="m 50.45,46.45 h 0.05 l 5.45,17.15 h 4.85 l 7.25,-24.8 h -5.5 L 58.4,55.1 H 58.3 L 53.15,38.8 H 48.1 L 42.9,54.7 H 42.85 L 38.9,38.8 h -5.95 l 7.35,24.8 h 4.65 z"
         id="path12706" />
    </g>
    <path
       id="use12559"
       stroke="#1d1d1d"
       stroke-width="5"
       stroke-linejoin="round"
       stroke-linecap="round"
       fill="none"
       d="m 84.95,23.15 q -1.25,27.35 0,54.65 0,5.85 -5.85,5.85 H 21.9 q -5.85,0 -5.85,-5.85 1.25,-27.3 0,-54.65 0,-5.85 5.85,-5.85 h 57.2 q 5.85,0 5.85,5.85 z" />
    <path
       id="use12561"
       stroke="#696969"
       stroke-width="4"
       stroke-linejoin="round"
       stroke-linecap="round"
       fill="none"
       d="m 54.15,26.45 h -24.7 q -4.25,0 -4.25,4.25 1.15,19.8 0,39.55 0,4.2 4.25,4.2 h 24.7 m 1.25,0 h 16.15 q 4.25,0 4.25,-4.2 -1.15,-19.75 0,-39.55 0,-4.25 -4.25,-4.25 H 55.4" />
  </g>
  <g
     id="g12571"
     style="display:none">
    <use
       xlink:href="#Layer2_0_FILL"
       id="use12565" />
    <use
       xlink:href="#Layer2_0_1_STROKES"
       id="use12567" />
    <use
       xlink:href="#Layer2_0_2_STROKES"
       id="use12569" />
  </g>
  <g
     id="g12575"
     style="display:none">
    <use
       xlink:href="#Layer1_0_FILL"
       id="use12573" />
  </g>
  <g
     id="g12579"
     style="display:none">
    <use
       xlink:href="#Layer0_0_FILL"
       id="use12577" />
  </g>
</svg>
