<?xml version="1.0" encoding="UTF-8" standalone="no"?>
<svg
   version="1.1"
   preserveAspectRatio="none"
   x="0px"
   y="0px"
   width="100px"
   height="100px"
   viewBox="0 0 100 100"
   id="svg1065"
   sodipodi:docname="Vector Source0018.svg"
   inkscape:version="1.2.1 (9c6d41e410, 2022-07-14)"
   xmlns:inkscape="http://www.inkscape.org/namespaces/inkscape"
   xmlns:sodipodi="http://sodipodi.sourceforge.net/DTD/sodipodi-0.dtd"
   xmlns:xlink="http://www.w3.org/1999/xlink"
   xmlns="http://www.w3.org/2000/svg"
   xmlns:svg="http://www.w3.org/2000/svg">
  <sodipodi:namedview
     id="namedview1067"
     pagecolor="#ffffff"
     bordercolor="#000000"
     borderopacity="0.25"
     inkscape:showpageshadow="2"
     inkscape:pageopacity="0.0"
     inkscape:pagecheckerboard="0"
     inkscape:deskcolor="#d1d1d1"
     showgrid="false"
     inkscape:zoom="10.27"
     inkscape:cx="42.55112"
     inkscape:cy="50"
     inkscape:window-width="2400"
     inkscape:window-height="1261"
     inkscape:window-x="5591"
     inkscape:window-y="431"
     inkscape:window-maximized="1"
     inkscape:current-layer="svg1065" />
  <defs
     id="defs921">
    <linearGradient
       id="Gradient_1"
       gradientUnits="userSpaceOnUse"
       x1="-0.05"
       y1="-29.2375"
       x2="-0.05"
       y2="19.337500000000002"
       spreadMethod="pad">
      <stop
         offset="0%"
         stop-color="#000000"
         stop-opacity="0.2"
         id="stop678" />
      <stop
         offset="99.2156862745098%"
         stop-color="#000000"
         stop-opacity="0"
         id="stop680" />
    </linearGradient>
    <linearGradient
       id="Gradient_2"
       gradientUnits="userSpaceOnUse"
       x1="-0.05"
       y1="-28.2875"
       x2="-0.05"
       y2="15.487500000000002"
       spreadMethod="pad">
      <stop
         offset="0%"
         stop-color="#000000"
         stop-opacity="0.2"
         id="stop683" />
      <stop
         offset="99.2156862745098%"
         stop-color="#000000"
         stop-opacity="0"
         id="stop685" />
    </linearGradient>
    <linearGradient
       id="Gradient_3"
       gradientUnits="userSpaceOnUse"
       x1="-0.05"
       y1="-27.0375"
       x2="-0.05"
       y2="6.9375"
       spreadMethod="pad">
      <stop
         offset="0%"
         stop-color="#000000"
         stop-opacity="0.2"
         id="stop688" />
      <stop
         offset="99.2156862745098%"
         stop-color="#000000"
         stop-opacity="0"
         id="stop690" />
    </linearGradient>
    <linearGradient
       id="Gradient_4"
       gradientUnits="userSpaceOnUse"
       x1="0.1"
       y1="9.6625"
       x2="0.1"
       y2="-7.1625"
       spreadMethod="pad">
      <stop
         offset="0%"
         stop-color="#796C4B"
         stop-opacity="0"
         id="stop693" />
      <stop
         offset="19.607843137254903%"
         stop-color="#796C4B"
         id="stop695" />
    </linearGradient>
    <linearGradient
       id="Gradient_5"
       gradientUnits="userSpaceOnUse"
       x1="-0.25"
       y1="-3.6999999999999993"
       x2="-0.25"
       y2="-14.7"
       spreadMethod="pad">
      <stop
         offset="0%"
         stop-color="#F1B776"
         id="stop698" />
      <stop
         offset="100%"
         stop-color="#876B47"
         id="stop700" />
    </linearGradient>
    <linearGradient
       id="Gradient_6"
       gradientUnits="userSpaceOnUse"
       x1="0.1"
       y1="28.45"
       x2="0.1"
       y2="1.9499999999999993"
       spreadMethod="pad">
      <stop
         offset="0%"
         stop-color="#876B47"
         stop-opacity="0"
         id="stop703" />
      <stop
         offset="19.607843137254903%"
         stop-color="#876B47"
         id="stop705" />
    </linearGradient>
    <linearGradient
       id="Gradient_7"
       gradientUnits="userSpaceOnUse"
       x1="-0.05"
       y1="-27.012500000000003"
       x2="-0.05"
       y2="3.8125000000000018"
       spreadMethod="pad">
      <stop
         offset="0%"
         stop-color="#000000"
         stop-opacity="0.2"
         id="stop708" />
      <stop
         offset="99.2156862745098%"
         stop-color="#000000"
         stop-opacity="0"
         id="stop710" />
    </linearGradient>
    <linearGradient
       id="Gradient_8"
       gradientUnits="userSpaceOnUse"
       x1="51"
       y1="72.5"
       x2="51"
       y2="62"
       spreadMethod="pad">
      <stop
         offset="0%"
         stop-color="#D7D7D7"
         id="stop713" />
      <stop
         offset="100%"
         stop-color="#313131"
         id="stop715" />
    </linearGradient>
    <linearGradient
       id="Gradient_9"
       gradientUnits="userSpaceOnUse"
       x1="51"
       y1="57.5125"
       x2="51"
       y2="70.9875"
       spreadMethod="pad">
      <stop
         offset="0%"
         stop-color="#4F4F4F"
         id="stop718" />
      <stop
         offset="100%"
         stop-color="#F5F5F5"
         id="stop720" />
    </linearGradient>
    <linearGradient
       id="Gradient_10"
       gradientUnits="userSpaceOnUse"
       x1="50.5"
       y1="67.7375"
       x2="50.5"
       y2="59.7625"
       spreadMethod="pad">
      <stop
         offset="0%"
         stop-color="#FFFFFF"
         id="stop723" />
      <stop
         offset="100%"
         stop-color="#626262"
         id="stop725" />
    </linearGradient>
    <linearGradient
       id="Gradient_11"
       gradientUnits="userSpaceOnUse"
       x1="51"
       y1="79.4875"
       x2="51"
       y2="67.5125"
       spreadMethod="pad">
      <stop
         offset="0%"
         stop-color="#404040"
         id="stop728" />
      <stop
         offset="100%"
         stop-color="#1B1B1B"
         id="stop730" />
    </linearGradient>
    <linearGradient
       id="Gradient_12"
       gradientUnits="userSpaceOnUse"
       x1="50"
       y1="91.5"
       x2="50"
       y2="67"
       spreadMethod="pad">
      <stop
         offset="0%"
         stop-color="#404040"
         id="stop733" />
      <stop
         offset="100%"
         stop-color="#1B1B1B"
         id="stop735" />
    </linearGradient>
    <g
       id="Layer21_0_FILL">
      <path
         fill="#A91818"
         stroke="none"
         d=" M 114.25 22.55 Q 114.2 21.05 113.25 19.9 L 99.95 3.4 Q 99.1 2.3 97.8 1.9 96.45 1.5 95.15 1.9 93.85 2.3 93 3.35 L 79.5 19.85 Q 78.4 21.15 78.45 22.85 L 78.5 24.4 Q 78.55 26.2 79.9 27.5 81.2 28.75 83 28.75 L 85.6 28.75 Q 84.55 38.15 77.6 45.1 69.45 53.25 57.95 53.25 56.65 53.25 55.4 53.2 50.9 52.9 47.5 55.9 L 47.45 55.95 Q 44.05 58.95 43.8 63.5 43.5 68 46.5 71.45 49.55 74.85 54.1 75.15 56 75.25 57.95 75.25 78.55 75.25 93.15 60.65 L 93.1 60.65 93.15 60.6 93.15 60.65 Q 106.55 47.25 107.65 28.75 L 109.8 28.75 Q 111.05 28.75 112.1 28.15 113.15 27.5 113.75 26.4 114.35 25.3 114.3 24.1 L 114.25 22.55 M 109.8 24.25 L 103.25 24.25 Q 103.25 24.5 103.25 24.75 103.25 25.1 103.25 25.45 103.25 44.2 89.95 57.45 76.7 70.75 57.95 70.75 56.15 70.75 54.35 70.65 51.65 70.45 49.9 68.45 48.1 66.45 48.3 63.75 48.45 61.05 50.45 59.3 52.5 57.5 55.15 57.7 56.55 57.75 57.95 57.75 71.3 57.75 80.75 48.3 L 80.8 48.25 Q 90.25 38.8 90.25 25.45 90.25 25.1 90.25 24.75 90.25 24.5 90.3 24.25 L 83 24.25 82.95 22.7 96.45 6.2 109.75 22.7 109.8 24.25 Z"
         id="path738" />
      <path
         fill="#E02727"
         stroke="none"
         d=" M 103.25 24.25 L 109.8 24.25 109.75 22.7 96.45 6.2 82.95 22.7 83 24.25 90.3 24.25 Q 90.25 24.5 90.25 24.75 90.25 25.1 90.25 25.45 90.25 38.8 80.8 48.25 L 80.75 48.3 Q 71.3 57.75 57.95 57.75 56.55 57.75 55.15 57.7 52.5 57.5 50.45 59.3 48.45 61.05 48.3 63.75 48.1 66.45 49.9 68.45 51.65 70.45 54.35 70.65 56.15 70.75 57.95 70.75 76.7 70.75 89.95 57.45 103.25 44.2 103.25 25.45 103.25 25.1 103.25 24.75 103.25 24.5 103.25 24.25 Z"
         id="path740" />
    </g>
    <g
       id="Finger_Front_0_Layer1_0_FILL">
      <path
         fill="url(#Gradient_1)"
         stroke="none"
         d=" M -16.2 -19.55 Q -16.3 -19.35 -16.35 -19.15 -16.65 -18.6 -16.85 -17.75 L -17.85 -13.8 -19.05 -0.95 -19.1 -0.95 -19.55 10.5 -19.3 24.3 -15.9 24.3 -16.1 10.5 -15.75 -0.95 -15.7 -0.95 -14.55 -13.8 -13.75 -17.65 Q -13.7 -17.95 -13.65 -18.05 L -13.6 -18.15 Q -13.4 -18.85 -13.1 -19.55 L -16.2 -19.55 M 16.3 -19.2 Q 16.2 -19.4 16.15 -19.55 L 13.05 -19.55 Q 13.3 -18.9 13.6 -18.15 13.6 -17.95 13.75 -17.65 L 14.55 -13.8 15.75 -0.95 15.7 -0.95 16.05 10.5 15.85 24.3 19.25 24.3 19.5 10.5 19.55 10.5 19.35 4.4 Q 19.35 4.45 19.4 4.55 L 17.85 -13.8 16.8 -17.75 Q 16.7 -18.15 16.6 -18.5 16.4 -18.95 16.3 -19.2 Z"
         id="path743" />
      <path
         fill="url(#Gradient_2)"
         stroke="none"
         d=" M -13.1 -19.55 Q -12.35 -21.25 -11.4 -22.7 L -14.55 -22.7 Q -15.45 -21.25 -16.2 -19.55 L -13.1 -19.55 M 11.3 -22.7 Q 12.2 -21.35 13.05 -19.55 L 16.15 -19.55 Q 15.35 -21.25 14.5 -22.7 L 11.3 -22.7 Z"
         id="path745" />
      <path
         fill="#876B47"
         stroke="none"
         d=" M -8.4 -23.9 L -8.4 -23.8 Q -8.3794921875 -23.855859375 -8.35 -23.9 -8.2734375 -24.1626953125 -8.2 -24.4 -8.3333984375 -24.1666015625 -8.4 -23.9 M -8.65 -19.55 L -8.55 -22.85 -10.35 -22.85 -10.35 -22.7 -10.85 -19.55 -8.65 -19.55 M 7.25 -26.1 L 7.15 -26.1 Q 7.3275390625 -25.9046875 7.5 -25.7 8.05 -24.9 8.35 -23.9 8.4 -23.7 8.5 -23.5 8.5 -23.35 8.6 -23.15 L 8.65 -19.55 10.75 -19.55 10.3 -22.7 11.3 -22.7 Q 11.2 -22.85 11.1 -22.95 L 10.95 -23.05 Q 9.2 -24.95 7.25 -26.1 Z"
         id="path747" />
      <path
         fill="url(#Gradient_3)"
         stroke="none"
         d=" M -7.45 -26.1 L -11.3 -26.1 Q -13.1 -24.6 -14.55 -22.7 L -11.4 -22.7 Q -9.75 -24.75 -7.45 -26.1 M 11.15 -26.1 L 7.25 -26.1 Q 9.2 -24.95 10.95 -23.05 L 11.1 -22.95 Q 11.2 -22.85 11.3 -22.7 L 14.5 -22.7 Q 13.8 -23.6 13.1 -24.35 L 13.1 -24.4 Q 12.95 -24.45 12.9 -24.55 12.05 -25.4 11.15 -26.1 Z"
         id="path749" />
      <path
         fill="url(#Gradient_4)"
         stroke="none"
         d=" M -7.2 -26.1 Q -7.082421875 -26.2298828125 -7 -26.35 -7.22421875 -26.2291015625 -7.45 -26.1 L -7.2 -26.1 M 7.15 -26.1 L 7.25 -26.1 Q 7.1501953125 -26.16640625 7.05 -26.2 7.1005859375 -26.1556640625 7.15 -26.1 Z"
         id="path751" />
      <path
         fill="#FBCF9B"
         stroke="none"
         d=" M 3.2 2.6 Q 3.15 0.8 1.9 0.5 1.05 0.3 0.55 -0.25 0.25 -0.25 -0.05 -0.25 -2.9 -0.25 -5.7 -0.95 L -5.75 -0.95 Q -6.95 -1.25 -8.2 -1.65 -8.5 -1.75 -8.7 -1.9 -8.85 -2.05 -8.95 -2.1 -9.55 -2.55 -10 -3.15 -11.25 -4.9 -11.65 -7.55 -11.75 -7.95 -11.75 -8.1 L -11.7 -9.4 -12.25 -3.15 -12.2 -3.15 -12.65 10.5 -12.7 10.5 -12.55 26.75 Q -8.35 29.4 -3.85 30.3 -1.05 30.85 1.7 30.6 2.45 30.45 3.3 30.35 3.5 27.2 3.05 24.3 2.65 22.35 2.1 20.65 1.6 19.45 0.8 19.15 -2.2 18.65 -5.45 18.1 -8.5 17.6 -8.65 16.55 L -8.6 16.55 Q -9.35 15.9 -8.9 14.85 -7.9 14.65 -4.9 15.3 -2.05 15.8 2.15 14.9 L 2.55 14.15 2.55 12.45 1.7 11.65 Q 0.3 11.75 -1.1 11.95 -2.9 12.1 -4.7 11.9 -6.7 11.9 -8.1 10.85 L -8.15 10.5 -8.1 10.5 -8.2 9.9 Q -8.15 9.2 -7.4 8.9 -4.25 9.35 -0.8 8.6 3.2 7.7 3.2 2.6 Z"
         id="path753" />
      <path
         fill="#F1B776"
         stroke="none"
         d=" M 9.95 -3.15 L 10 -3.15 Q 9.6 -2.7 9.2 -2.35 8.95 -2.15 8.65 -1.9 8.45 -1.75 8.15 -1.65 6.9 -1.25 5.65 -0.95 L 5.6 -0.95 Q 3.05 -0.35 0.55 -0.25 1.05 0.3 1.9 0.5 3.15 0.8 3.2 2.6 3.2 7.7 -0.8 8.6 -4.25 9.35 -7.4 8.9 -8.15 9.2 -8.2 9.9 L -8.1 10.5 -8.15 10.5 -8.1 10.85 Q -6.7 11.9 -4.7 11.9 -2.9 12.1 -1.1 11.95 0.3 11.75 1.7 11.65 L 2.55 12.45 2.55 14.15 2.15 14.9 Q -2.05 15.8 -4.9 15.3 -7.9 14.65 -8.9 14.85 -9.35 15.9 -8.6 16.55 L -8.65 16.55 Q -8.5 17.6 -5.45 18.1 -2.2 18.65 0.8 19.15 1.6 19.45 2.1 20.65 2.65 22.35 3.05 24.3 3.5 27.2 3.3 30.35 7.45 29.9 11.3 27.5 11.95 27.15 12.55 26.75 L 12.6 10.5 12.65 10.5 12.2 -3.15 12.15 -3.15 11.55 -10.8 11.65 -8.1 Q 11.65 -7.95 11.6 -7.55 11.15 -4.85 9.95 -3.15 Z"
         id="path755" />
      <path
         fill="#FFFFFF"
         stroke="none"
         d=" M 0 -3.2 Q 0.85 -3.3 1.75 -3.3 4.3 -3.55 6.9 -4.45 7 -4.7 7.25 -4.75 4.15 -7.75 0.2 -7.65 -2.4 -7.8 -4.5 -6.5 -5.9 -5.85 -7 -4.65 L -6.9 -4.45 Q -5.7 -4.1 -4.45 -3.7 -3.3 -3.45 -1.95 -3.3 -1.65 -3.3 -1.15 -3.2 -0.6 -3.2 0 -3.2 M 0.9 -28.95 L 0.2 -29 Q 0 -29 -0.15 -29 L -1 -28.95 Q -3.6 -28.8 -5.8 -27.4 -6.492578125 -26.93828125 -7 -26.35 -7.082421875 -26.2298828125 -7.2 -26.1 -7.2150390625 -26.05078125 -7.25 -26 -7.8357421875 -25.2970703125 -8.2 -24.4 -8.2734375 -24.1626953125 -8.35 -23.9 -8.3794921875 -23.855859375 -8.4 -23.8 -8.55 -23.5337890625 -8.55 -23.15 L -8.55 -22.85 Q -8.4970703125 -22.959765625 -8.45 -23.1 -7.778125 -24.2853515625 -6.4 -25.25 -3.65 -27.25 0.15 -27.15 3.85 -27.25 6.65 -25.25 7.75 -24.55 8.5 -23.5 8.4 -23.7 8.35 -23.9 8.05 -24.9 7.5 -25.7 7.3275390625 -25.9046875 7.15 -26.1 7.1005859375 -26.1556640625 7.05 -26.2 6.4646484375 -26.8576171875 5.85 -27.4 3.35 -28.75 0.9 -28.95 Z"
         id="path757" />
      <path
         fill="url(#Gradient_5)"
         stroke="none"
         d=" M 11.5 -13.8 L 11.45 -13.8 10.75 -19.55 8.65 -19.55 8.85 -8.5 Q 8.35 -6.15 7.25 -4.75 7 -4.7 6.9 -4.45 4.3 -3.55 1.75 -3.3 0.85 -3.3 0 -3.2 -0.6 -3.2 -1.15 -3.2 -1.65 -3.3 -1.95 -3.3 -3.3 -3.45 -4.45 -3.7 -5.7 -4.1 -6.9 -4.45 L -7 -4.65 Q -8.45 -5.9 -8.85 -8.5 L -8.65 -19.55 -10.85 -19.55 -11.6 -13.8 -11.55 -13.8 -11.7 -9.4 -11.75 -8.1 Q -11.75 -7.95 -11.65 -7.55 -11.25 -4.9 -10 -3.15 -9.55 -2.55 -8.95 -2.1 -8.85 -2.05 -8.7 -1.9 -8.5 -1.75 -8.2 -1.65 -6.95 -1.25 -5.75 -0.95 L -5.7 -0.95 Q -2.9 -0.25 -0.05 -0.25 0.25 -0.25 0.55 -0.25 3.05 -0.35 5.6 -0.95 L 5.65 -0.95 Q 6.9 -1.25 8.15 -1.65 8.45 -1.75 8.65 -1.9 8.95 -2.15 9.2 -2.35 9.6 -2.7 10 -3.15 L 9.95 -3.15 Q 11.15 -4.85 11.6 -7.55 11.65 -7.95 11.65 -8.1 L 11.55 -10.8 11.5 -13.8 Z"
         id="path759" />
      <path
         fill="url(#Gradient_6)"
         stroke="none"
         d=" M 11.3 -22.7 L 10.3 -22.7 10.75 -19.55 11.45 -13.8 11.5 -13.8 11.55 -10.8 12.15 -3.15 12.2 -3.15 12.65 10.5 12.6 10.5 12.55 26.75 Q 11.95 27.15 11.3 27.5 7.45 29.9 3.3 30.35 2.45 30.45 1.7 30.6 -1.05 30.85 -3.85 30.3 -8.35 29.4 -12.55 26.75 L -12.7 10.5 -12.65 10.5 -12.2 -3.15 -12.25 -3.15 -11.7 -9.4 -11.55 -13.8 -11.6 -13.8 -10.85 -19.55 -10.35 -22.7 -10.35 -22.85 -8.55 -22.85 -8.55 -23.15 Q -8.55 -23.5337890625 -8.4 -23.8 L -8.4 -23.9 Q -8.3333984375 -24.1666015625 -8.2 -24.4 -7.8357421875 -25.2970703125 -7.25 -26 -7.2150390625 -26.05078125 -7.2 -26.1 L -7.45 -26.1 Q -9.75 -24.75 -11.4 -22.7 -12.35 -21.25 -13.1 -19.55 -13.4 -18.85 -13.6 -18.15 L -13.65 -18.05 Q -13.7 -17.95 -13.75 -17.65 L -14.55 -13.8 -15.7 -0.95 -15.75 -0.95 -16.1 10.5 -15.9 24.3 -15.8 28.05 Q -15.85 28.1 -15.8 28.25 -15.9 28.75 -15.55 29.35 L -15.55 29.25 Q -15.4 29.75 -14.85 30.15 -7.55 34.85 -0.15 34.9 1.2 34.85 2.65 34.75 L 2.7 34.75 Q 4.7 34.4 6.55 34 6.5 33.95 6.65 34 10.75 32.6 14.8 30.15 15.2 29.8 15.55 29.35 15.75 28.8 15.85 28.25 15.8 28.1 15.85 28.05 L 15.85 24.3 16.05 10.5 15.7 -0.95 15.75 -0.95 14.55 -13.8 13.75 -17.65 Q 13.6 -17.95 13.6 -18.15 13.3 -18.9 13.05 -19.55 12.2 -21.35 11.3 -22.7 Z"
         id="path761" />
      <path
         fill="#FFFCF4"
         stroke="none"
         d=" M 6.65 -25.25 Q 3.85 -27.25 0.15 -27.15 -3.65 -27.25 -6.4 -25.25 -7.778125 -24.2853515625 -8.45 -23.1 -8.4970703125 -22.959765625 -8.55 -22.85 L -8.65 -19.55 -8.85 -8.5 Q -8.45 -5.9 -7 -4.65 -5.9 -5.85 -4.5 -6.5 -2.4 -7.8 0.2 -7.65 4.15 -7.75 7.25 -4.75 8.35 -6.15 8.85 -8.5 L 8.65 -19.55 8.6 -23.15 Q 8.5 -23.35 8.5 -23.5 7.75 -24.55 6.65 -25.25 Z"
         id="path763" />
      <path
         fill="url(#Gradient_7)"
         stroke="none"
         d=" M 0.2 -29 L 0.9 -28.95 Q 3.35 -28.75 5.85 -27.4 6.4646484375 -26.8576171875 7.05 -26.2 7.1501953125 -26.16640625 7.25 -26.1 L 11.15 -26.1 Q 9.85 -27.05 8.5 -27.7 7.65 -28.4 6.65 -29.05 6.45 -29.1 6.25 -29.25 3 -30.55 -0.15 -30.5 -3.35 -30.55 -6.35 -29.2 -6.6 -29.1 -6.75 -29.05 -7.6 -28.6 -8.25 -27.95 -9.9 -27.15 -11.3 -26.1 L -7.45 -26.1 Q -7.22421875 -26.2291015625 -7 -26.35 -6.492578125 -26.93828125 -5.8 -27.4 -3.6 -28.8 -1 -28.95 L -0.15 -29 Q 0 -29 0.2 -29 Z"
         id="path765" />
    </g>
    <g
       id="Layer19_0_FILL">
      <path
         fill="#353535"
         stroke="none"
         d=" M 62.75 90.35 Q 72.278125 87.421875 79.85 79.85 87.464453125 72.235546875 90.35 62.65 L 67.4 67.25 62.75 90.35 M 76.65 76.65 Q 73.0345703125 80.31171875 68.9 82.75 L 71.2 71.05 82.8 68.75 Q 80.3685546875 72.9818359375 76.65 76.65 M 32.9 67.3 L 9.6 62.65 Q 12.53125 72.23125 20.15 79.85 27.80703125 87.50703125 37.45 90.4 L 32.9 67.3 M 31.35 82.9 Q 27.08359375 80.4326171875 23.3 76.65 19.6232421875 72.97265625 17.15 68.75 L 29.05 71.1 31.35 82.9 M 37.45 9.6 Q 38.696484375 9.237890625 39.9 8.9 28.7796875 11.5203125 20.15 20.15 12.5310546875 27.7689453125 9.6 37.35 L 32.9 32.75 37.45 9.6 M 23.3 23.3 Q 27.0859375 19.5666015625 31.35 17.1 L 29.05 28.9 17.15 31.25 Q 19.6150390625 27.035546875 23.3 23.3 M 79.85 20.15 Q 72.2736328125 12.5736328125 62.75 9.65 L 67.4 32.75 90.35 37.3 Q 87.464453125 27.764453125 79.85 20.15 M 68.85 17.2 Q 73.018359375 19.6728515625 76.65 23.3 80.3673828125 27.0169921875 82.8 31.2 L 71.2 28.9 68.85 17.2 Z"
         id="path768" />
      <path
         fill="#4D4D4D"
         stroke="none"
         d=" M 68.9 82.75 Q 73.0345703125 80.31171875 76.65 76.65 80.3685546875 72.9818359375 82.8 68.75 L 71.2 71.05 68.9 82.75 M 23.3 76.65 Q 27.08359375 80.4326171875 31.35 82.9 L 29.05 71.1 17.15 68.75 Q 19.6232421875 72.97265625 23.3 76.65 M 31.35 17.1 Q 27.0859375 19.5666015625 23.3 23.3 19.6150390625 27.035546875 17.15 31.25 L 29.05 28.9 31.35 17.1 M 76.65 23.3 Q 73.018359375 19.6728515625 68.85 17.2 L 71.2 28.9 82.8 31.2 Q 80.3673828125 27.0169921875 76.65 23.3 Z"
         id="path770" />
      <path
         fill="#6E6E6E"
         stroke="none"
         d=" M 62.75 9.65 L 62.75 9.6 Q 57.272265625 7.8498046875 51.55 7.7 47.9484375 7.5931640625 44.25 8.1 L 39.9 8.9 Q 38.696484375 9.237890625 37.45 9.6 L 32.9 32.75 9.6 37.35 9.6 37.35 Q 5.75 50.55 9.6 62.65 L 9.6 62.65 32.9 67.3 37.45 90.4 37.45 90.45 Q 50.7 94.3 62.75 90.45 L 62.75 90.35 67.4 67.25 61.95 60.95 Q 61.7490234375 61.1458984375 61.55 61.35 59.55 63.3 59 66.1 L 55.35 84.3 Q 50.25 85.05 44.95 84.25 L 41.35 66.15 Q 40.8 63.4 38.8 61.45 36.85 59.4 34.1 58.9 L 15.8 55.25 Q 15.05 50.15 15.85 44.8 L 34.05 41.2 Q 36.85 40.7 38.8 38.7 40.8 36.7 41.35 33.95 L 44.95 15.85 Q 48.28984375 15.3458984375 51.55 15.45 53.463671875 15.52265625 55.35 15.8 L 59 34 Q 59.55 36.7 61.55 38.7 61.91171875 39.07109375 62.3 39.4 L 67.4 32.75 62.75 9.65 M 84.3 55.25 Q 84.6884765625 52.60859375 84.65 49.9 84.6357421875 47.3791015625 84.25 44.8 L 66.3 41.2 Q 64.01953125 40.7927734375 62.3 39.4 61.91171875 39.07109375 61.55 38.7 59.55 36.7 59 34 L 55.35 15.8 Q 53.463671875 15.52265625 51.55 15.45 48.28984375 15.3458984375 44.95 15.85 L 41.35 33.95 Q 40.8 36.7 38.8 38.7 36.85 40.7 34.05 41.2 L 15.85 44.8 Q 15.05 50.15 15.8 55.25 L 34.1 58.9 Q 36.85 59.4 38.8 61.45 40.8 63.4 41.35 66.15 L 44.95 84.25 Q 50.25 85.05 55.35 84.3 L 59 66.1 Q 59.55 63.3 61.55 61.35 61.7490234375 61.1458984375 61.95 60.95 63.7857421875 59.2990234375 66.3 58.85 L 84.3 55.25 M 83.35 49.9 Q 83.4103515625 52.5015625 83.05 55.05 L 65.7 58.5 Q 63.5779296875 58.89296875 61.95 60.15 61.506640625 60.493359375 61.1 60.9 59.2 62.8 58.65 65.5 L 55.15 83.05 Q 50.2 83.75 45.1 83 L 41.65 65.55 Q 41.1 62.9 39.2 61 37.3 59.05 34.65 58.55 L 17 55.05 Q 16.3 50.1 17.05 44.95 L 34.6 41.5 Q 37.3 41 39.2 39.1 41.1 37.15 41.65 34.5 L 45.1 17.05 Q 48.3556640625 16.5712890625 51.55 16.65 53.359765625 16.746875 55.15 17 L 58.65 34.55 Q 59.2 37.15 61.1 39.1 61.5068359375 39.5068359375 61.95 39.85 63.5783203125 41.10703125 65.7 41.5 L 83 44.95 Q 83.3638671875 47.4486328125 83.35 49.9 Z"
         id="path772" />
      <path
         fill="#888888"
         stroke="none"
         d=" M 55.15 17 Q 53.359765625 16.746875 51.55 16.65 48.3556640625 16.5712890625 45.1 17.05 L 41.65 34.5 Q 41.1 37.15 39.2 39.1 37.3 41 34.6 41.5 L 17.05 44.95 Q 16.3 50.1 17 55.05 L 34.65 58.55 Q 37.3 59.05 39.2 61 41.1 62.9 41.65 65.55 L 45.1 83 Q 50.2 83.75 55.15 83.05 L 58.65 65.5 Q 59.2 62.8 61.1 60.9 61.506640625 60.493359375 61.95 60.15 58.387109375 55.0544921875 58.45 49.9 58.4955078125 44.902734375 61.95 39.85 61.5068359375 39.5068359375 61.1 39.1 59.2 37.15 58.65 34.55 L 55.15 17 Z"
         id="path774" />
      <path
         fill="#F5F5F5"
         stroke="none"
         d=" M 83.05 55.05 Q 83.4103515625 52.5015625 83.35 49.9 83.3638671875 47.4486328125 83 44.95 L 65.7 41.5 Q 63.5783203125 41.10703125 61.95 39.85 58.4955078125 44.902734375 58.45 49.9 58.387109375 55.0544921875 61.95 60.15 63.5779296875 58.89296875 65.7 58.5 L 83.05 55.05 Z"
         id="path776" />
      <path
         fill="#D7D7D7"
         stroke="none"
         d=" M 90.45 37.35 L 90.35 37.3 67.4 32.75 62.3 39.4 Q 64.01953125 40.7927734375 66.3 41.2 L 84.25 44.8 Q 84.6357421875 47.3791015625 84.65 49.9 84.6884765625 52.60859375 84.3 55.25 L 66.3 58.85 Q 63.7857421875 59.2990234375 61.95 60.95 L 67.4 67.25 90.35 62.65 90.45 62.65 Q 92.43203125 56.4208984375 92.35 49.9 92.31796875 43.7546875 90.45 37.35 Z"
         id="path778" />
    </g>
    <g
       id="Layer18_0_FILL">
      <path
         fill="url(#Gradient_8)"
         stroke="none"
         d=" M 92.85 40.2 Q 92.25 35.85 87.5 34.85 L 65.15 34.85 65.15 12.5 Q 64.15 7.75 59.8 7.15 L 40.2 7.15 Q 35.95 7.85 34.85 12.5 L 34.85 34.85 12.5 34.85 Q 7.75 35.85 7.15 40.2 L 7.15 59.8 Q 7.85 64.05 12.5 65.15 L 34.85 65.15 34.85 87.5 Q 35.95 92.15 40.2 92.85 L 59.8 92.85 Q 64.15 92.25 65.15 87.5 L 65.15 65.15 87.5 65.15 Q 92.15 64.05 92.85 59.8 L 92.85 40.2 M 85.35 42.35 L 85.35 57.65 65.15 57.65 Q 62.05 57.65 59.85 59.85 57.65 62.05 57.65 65.15 L 57.65 85.35 42.35 85.35 42.35 65.15 Q 42.35 62.05 40.15 59.85 37.95 57.65 34.85 57.65 L 14.65 57.65 14.65 42.35 34.85 42.35 Q 37.95 42.35 40.15 40.15 42.35 37.95 42.35 34.85 L 42.35 14.65 57.65 14.65 57.65 34.85 Q 57.65 37.95 59.85 40.15 62.05 42.35 65.15 42.35 L 85.35 42.35 Z"
         id="path781" />
      <path
         fill="url(#Gradient_9)"
         stroke="none"
         d=" M 85.35 57.65 L 85.35 42.35 65.15 42.35 Q 62.05 42.35 59.85 40.15 57.65 37.95 57.65 34.85 L 57.65 14.65 42.35 14.65 42.35 34.85 Q 42.35 37.95 40.15 40.15 37.95 42.35 34.85 42.35 L 14.65 42.35 14.65 57.65 34.85 57.65 Q 37.95 57.65 40.15 59.85 42.35 62.05 42.35 65.15 L 42.35 85.35 57.65 85.35 57.65 65.15 Q 57.65 62.05 59.85 59.85 62.05 57.65 65.15 57.65 L 85.35 57.65 Z"
         id="path783" />
    </g>
    <g
       id="Layer17_0_FILL">
      <path
         fill="#D7D7D7"
         stroke="none"
         d=" M 35.15 71.8 L 33.95 91.75 37.35 95.1 62.65 95.1 66.05 91.75 64.85 71.8 55.45 59.4 44.55 59.4 35.15 71.8 M 50.65 66.1 L 51.9 66.1 58.15 73.9 59.05 88.4 40.95 88.4 41.85 73.9 48.1 66.1 49.35 66.1 50.65 66.1 Z"
         id="path786" />
      <path
         fill="#F5F5F5"
         stroke="none"
         d=" M 51.9 66.1 L 50.65 66.1 49.35 66.1 48.1 66.1 41.85 73.9 40.95 88.4 59.05 88.4 58.15 73.9 51.9 66.1 Z"
         id="path788" />
      <path
         fill="#313131"
         stroke="none"
         d=" M 8.25 33.95 L 4.9 37.35 4.9 62.65 8.25 66.05 28.2 64.85 40.6 55.45 40.6 44.55 28.2 35.15 8.25 33.95 M 11.6 40.95 L 26.1 41.85 33.9 48.1 33.9 49.35 33.9 50.65 33.9 51.9 26.1 58.15 11.6 59.05 11.6 40.95 M 66.05 8.25 L 62.65 4.9 37.35 4.9 33.95 8.25 35.15 28.2 44.55 40.6 55.45 40.6 64.85 28.2 66.05 8.25 M 40.95 11.6 L 59.05 11.6 58.15 26.1 51.9 33.9 50.65 33.9 49.35 33.9 48.1 33.9 41.85 26.1 40.95 11.6 M 95.1 37.35 L 91.75 33.95 71.8 35.15 59.4 44.55 59.4 55.45 71.8 64.85 91.75 66.05 95.1 62.65 95.1 37.35 M 88.4 40.95 L 88.4 59.05 73.9 58.15 66.1 51.9 66.1 50.65 66.1 49.35 66.1 48.1 73.9 41.85 88.4 40.95 Z"
         id="path790" />
      <path
         fill="#4F4F4F"
         stroke="none"
         d=" M 26.1 41.85 L 11.6 40.95 11.6 59.05 26.1 58.15 33.9 51.9 33.9 50.65 33.9 49.35 33.9 48.1 26.1 41.85 M 59.05 11.6 L 40.95 11.6 41.85 26.1 48.1 33.9 49.35 33.9 50.65 33.9 51.9 33.9 58.15 26.1 59.05 11.6 M 88.4 59.05 L 88.4 40.95 73.9 41.85 66.1 48.1 66.1 49.35 66.1 50.65 66.1 51.9 73.9 58.15 88.4 59.05 Z"
         id="path792" />
    </g>
    <g
       id="Layer16_0_FILL">
      <path
         fill="#313131"
         stroke="none"
         d=" M 35.15 71.8 L 33.95 91.75 37.35 95.1 62.65 95.1 66.05 91.75 64.85 71.8 55.45 59.4 44.55 59.4 35.15 71.8 M 49.35 66.1 L 50.65 66.1 51.9 66.1 58.15 73.9 59.05 88.4 40.95 88.4 41.85 73.9 48.1 66.1 49.35 66.1 M 28.2 35.15 L 8.25 33.95 4.9 37.35 4.9 62.65 8.25 66.05 28.2 64.85 40.6 55.45 40.6 44.55 28.2 35.15 M 11.6 40.95 L 26.1 41.85 33.9 48.1 33.9 49.35 33.9 50.65 33.9 51.9 26.1 58.15 11.6 59.05 11.6 40.95 M 95.1 37.35 L 91.75 33.95 71.8 35.15 59.4 44.55 59.4 55.45 71.8 64.85 91.75 66.05 95.1 62.65 95.1 37.35 M 88.4 40.95 L 88.4 59.05 73.9 58.15 66.1 51.9 66.1 50.65 66.1 49.35 66.1 48.1 73.9 41.85 88.4 40.95 Z"
         id="path795" />
      <path
         fill="#4F4F4F"
         stroke="none"
         d=" M 50.65 66.1 L 49.35 66.1 48.1 66.1 41.85 73.9 40.95 88.4 59.05 88.4 58.15 73.9 51.9 66.1 50.65 66.1 M 26.1 41.85 L 11.6 40.95 11.6 59.05 26.1 58.15 33.9 51.9 33.9 50.65 33.9 49.35 33.9 48.1 26.1 41.85 M 88.4 59.05 L 88.4 40.95 73.9 41.85 66.1 48.1 66.1 49.35 66.1 50.65 66.1 51.9 73.9 58.15 88.4 59.05 Z"
         id="path797" />
      <path
         fill="#D7D7D7"
         stroke="none"
         d=" M 66.05 8.25 L 62.65 4.9 37.35 4.9 33.95 8.25 35.15 28.2 44.55 40.6 55.45 40.6 64.85 28.2 66.05 8.25 M 40.95 11.6 L 59.05 11.6 58.15 26.1 51.9 33.9 50.65 33.9 49.35 33.9 48.1 33.9 41.85 26.1 40.95 11.6 Z"
         id="path799" />
      <path
         fill="#F5F5F5"
         stroke="none"
         d=" M 59.05 11.6 L 40.95 11.6 41.85 26.1 48.1 33.9 49.35 33.9 50.65 33.9 51.9 33.9 58.15 26.1 59.05 11.6 Z"
         id="path801" />
    </g>
    <g
       id="Layer13_0_FILL">
      <path
         fill="#313131"
         stroke="none"
         d=" M 86.25 26.5 Q 85.85 16.6 81.8 12.5 L 25.55 12.5 Q 19 14.55 18.1 19.7 L 18.1 61.85 Q 28.7 61.45 36 70.35 L 42.55 83.95 Q 53.3 93.1 69.2 90.6 77.25 89.35 82.35 84.65 87.45 77.65 86.25 70.8 82.7 47.75 86.25 26.5 M 77.5 18.9 Q 80.15 21 79.95 24.7 78.15 34.1 77.7 44.3 77.7 60.65 80.25 73.85 80.05 80.65 71.6 83.5 65.25 84.9 59.55 81.65 54.45 76.5 51.45 70.75 46.65 62.65 44.2 53.4 40.7 40.25 40.85 26.25 40.15 21.3 44.35 18.9 L 77.5 18.9 Z"
         id="path804" />
      <path
         fill="#4F4F4F"
         stroke="none"
         d=" M 79.95 24.7 Q 80.15 21 77.5 18.9 L 44.35 18.9 Q 40.15 21.3 40.85 26.25 40.7 40.25 44.2 53.4 46.65 62.65 51.45 70.75 54.45 76.5 59.55 81.65 65.25 84.9 71.6 83.5 80.05 80.65 80.25 73.85 77.7 60.65 77.7 44.3 78.15 34.1 79.95 24.7 M 55.8 25.65 Q 56.9 25.9 57.7 26.4 58.5 26.95 58.95 27.85 59.45 28.8 59.45 30.15 59.45 31.8 58.55 32.95 57.7 34.1 56.05 34.4 L 60 41 55.9 41 52.65 34.75 50.95 34.75 50.95 41 47.55 41 47.55 25.4 53.55 25.4 Q 54.75 25.4 55.8 25.65 M 71.65 27.8 Q 72 28.7 72 29.85 72 30.6 71.85 31.2 71.7 31.8 71.45 32.3 71.15 32.8 70.8 33.2 70.4 33.65 70 34.05 L 65.25 38.1 72.15 38.1 72.15 41 61.3 41 61.3 37.5 67.35 32.05 Q 67.8 31.65 68.25 31.1 68.7 30.6 68.7 29.9 68.7 29.1 68.15 28.65 67.6 28.2 66.8 28.2 65.9 28.2 65.35 28.75 64.85 29.35 64.8 30.15 L 61.5 29.95 Q 61.55 28.7 62 27.85 62.4 26.95 63.15 26.35 63.85 25.75 64.85 25.45 65.85 25.15 67 25.15 68.05 25.15 68.95 25.45 69.9 25.75 70.55 26.35 71.25 26.9 71.65 27.8 M 54.15 28.4 Q 53.65 28.3 53.2 28.3 L 50.95 28.3 50.95 31.85 53 31.85 Q 53.45 31.85 53.95 31.85 54.5 31.8 54.9 31.65 55.3 31.45 55.6 31.1 55.85 30.75 55.85 30.15 55.85 29.55 55.65 29.2 55.4 28.85 55 28.65 54.65 28.45 54.15 28.4 Z"
         id="path806" />
      <path
         fill="#8C8C8C"
         stroke="none"
         d=" M 72 29.85 Q 72 28.7 71.65 27.8 71.25 26.9 70.55 26.35 69.9 25.75 68.95 25.45 68.05 25.15 67 25.15 65.85 25.15 64.85 25.45 63.85 25.75 63.15 26.35 62.4 26.95 62 27.85 61.55 28.7 61.5 29.95 L 64.8 30.15 Q 64.85 29.35 65.35 28.75 65.9 28.2 66.8 28.2 67.6 28.2 68.15 28.65 68.7 29.1 68.7 29.9 68.7 30.6 68.25 31.1 67.8 31.65 67.35 32.05 L 61.3 37.5 61.3 41 72.15 41 72.15 38.1 65.25 38.1 70 34.05 Q 70.4 33.65 70.8 33.2 71.15 32.8 71.45 32.3 71.7 31.8 71.85 31.2 72 30.6 72 29.85 M 57.7 26.4 Q 56.9 25.9 55.8 25.65 54.75 25.4 53.55 25.4 L 47.55 25.4 47.55 41 50.95 41 50.95 34.75 52.65 34.75 55.9 41 60 41 56.05 34.4 Q 57.7 34.1 58.55 32.95 59.45 31.8 59.45 30.15 59.45 28.8 58.95 27.85 58.5 26.95 57.7 26.4 M 53.2 28.3 Q 53.65 28.3 54.15 28.4 54.65 28.45 55 28.65 55.4 28.85 55.65 29.2 55.85 29.55 55.85 30.15 55.85 30.75 55.6 31.1 55.3 31.45 54.9 31.65 54.5 31.8 53.95 31.85 53.45 31.85 53 31.85 L 50.95 31.85 50.95 28.3 53.2 28.3 Z"
         id="path808" />
    </g>
    <g
       id="Layer12_0_FILL">
      <path
         fill="url(#Gradient_8)"
         stroke="none"
         d=" M 92.85 40.2 Q 92.25 35.85 87.5 34.85 L 65.15 34.85 65.15 12.5 Q 64.15 7.75 59.8 7.15 L 40.2 7.15 Q 35.95 7.85 34.85 12.5 L 34.85 34.85 12.5 34.85 Q 7.75 35.85 7.15 40.2 L 7.15 59.8 Q 7.85 64.05 12.5 65.15 L 34.85 65.15 34.85 87.5 Q 35.95 92.15 40.2 92.85 L 59.8 92.85 Q 64.15 92.25 65.15 87.5 L 65.15 65.15 87.5 65.15 Q 92.15 64.05 92.85 59.8 L 92.85 40.2 M 85.35 42.35 L 85.35 57.65 65.15 57.65 Q 62.05 57.65 59.85 59.85 57.65 62.05 57.65 65.15 L 57.65 85.35 42.35 85.35 42.35 65.15 Q 42.35 62.05 40.15 59.85 37.95 57.65 34.85 57.65 L 14.65 57.65 14.65 42.35 34.85 42.35 Q 37.95 42.35 40.15 40.15 42.35 37.95 42.35 34.85 L 42.35 14.65 57.65 14.65 57.65 34.85 Q 57.65 37.95 59.85 40.15 62.05 42.35 65.15 42.35 L 85.35 42.35 Z"
         id="path811" />
      <path
         fill="url(#Gradient_9)"
         stroke="none"
         d=" M 85.35 57.65 L 85.35 42.35 65.15 42.35 Q 62.05 42.35 59.85 40.15 57.65 37.95 57.65 34.85 L 57.65 14.65 42.35 14.65 42.35 34.85 Q 42.35 37.95 40.15 40.15 37.95 42.35 34.85 42.35 L 14.65 42.35 14.65 57.65 34.85 57.65 Q 37.95 57.65 40.15 59.85 42.35 62.05 42.35 65.15 L 42.35 85.35 57.65 85.35 57.65 65.15 Q 57.65 62.05 59.85 59.85 62.05 57.65 65.15 57.65 L 85.35 57.65 M 50 21.9 L 50 30.25 50 21.9 M 21.65 50 L 30 50 21.65 50 M 69.55 50 L 77.9 50 69.55 50 M 50 69.8 L 50 78.15 50 69.8 Z"
         id="path813" />
    </g>
    <g
       id="Layer9_0_FILL">
      <path
         fill="#FFFFFF"
         stroke="none"
         d=" M 87.15 25.05 Q 86.2 23.25 84.45 22.7 82.6 22.15 80.8 23.1 79.1 24.1 78.4 25.9 74.4 37 68.95 47.65 72.3 33.85 75.75 20.2 76.15 18.3 75.15 16.7 74.05 15 72.2 14.75 70.25 14.4 68.65 15.5 66.95 16.5 66.4 18.5 63.3 31.5 57.9 43.75 60.75 28.65 63.4 13.65 63.9 11.75 62.7 10.15 61.55 8.6 59.6 8.4 57.75 8.05 56.15 9.3 54.55 10.5 54.15 12.5 51.6 26.5 48.05 39.55 46.85 27 48.4 14.75 48.65 12.75 47.45 11.3 46.35 9.85 44.4 9.75 42.45 9.55 40.85 10.8 39.3 12.1 38.5 21.5 37.6 30.8 37.5 44.75 37.45 47.2 37.3 49.45 36.3 56.8 32.35 53.9 31.5 50.35 28.8 47.35 25.6 43.7 21.95 41.95 18.3 40.15 15.95 41.95 14.25 43.6 15.05 46.1 19 50.15 20.05 54.9 22 61.75 22.55 69.3 22.7 71.45 23.1 73.6 23.15 73.75 23.15 73.85 L 23.25 73.8 Q 23.9 81.75 31.9 83.9 L 57.8 88.15 Q 65.25 89.75 67.9 84.25 L 73.8 66.35 Q 77.9 55.35 78.7 52.6 83 40.55 87.3 28.5 87.9 26.7 87.15 25.05 Z"
         id="path816" />
    </g>
    <g
       id="Layer8_0_FILL">
      <path
         fill="#313131"
         stroke="none"
         d=" M 93.05 46.85 Q 93.05 36.45 85.7 29.15 78.4 21.8 68 21.8 L 32.05 21.8 Q 21.6 21.8 14.3 29.15 6.95 36.45 6.95 46.85 6.95 46.9 6.95 53.2 7 63.55 14.3 70.85 15.9 72.45 17.65 73.7 23.95 78.2 32.05 78.2 L 68 78.2 Q 78.4 78.2 85.7 70.85 93 63.55 93.05 53.2 93.05 46.9 93.05 46.85 M 82.55 46.85 Q 82.55 46.9 82.55 53.2 82.5 59.25 78.3 63.45 74.05 67.7 68 67.7 L 32.05 67.7 Q 25.95 67.7 21.7 63.45 17.5 59.25 17.45 53.2 17.45 46.9 17.45 46.85 17.45 40.8 21.7 36.55 25.95 32.3 32.05 32.3 L 68 32.3 Q 74.05 32.3 78.3 36.55 82.55 40.8 82.55 46.85 Z"
         id="path819" />
      <path
         fill="#4F4F4F"
         stroke="none"
         d=" M 82.55 53.2 Q 82.55 46.9 82.55 46.85 82.55 40.8 78.3 36.55 74.05 32.3 68 32.3 L 32.05 32.3 Q 25.95 32.3 21.7 36.55 17.45 40.8 17.45 46.85 17.45 46.9 17.45 53.2 17.5 59.25 21.7 63.45 25.95 67.7 32.05 67.7 L 68 67.7 Q 74.05 67.7 78.3 63.45 82.5 59.25 82.55 53.2 M 60.4 61 L 36.15 50 60.4 39 60.4 61 Z"
         id="path821" />
      <path
         fill="#9A9A9A"
         stroke="none"
         d=" M 36.15 50 L 60.4 61 60.4 39 36.15 50 Z"
         id="path823" />
    </g>
    <g
       id="Layer7_0_FILL">
      <path
         fill="#96989D"
         stroke="none"
         d=" M 59.45 14.2 Q 59.144140625 14.1208984375 58.85 14.05 53.590234375 12.82734375 48.7 14.05 45.8421875 14.7728515625 43.1 16.35 35.4 20.95 33.15 29.65 L 25.3 59.5 Q 23.05 68.2 27.45 75.8 32 83.6 40.7 85.9 49.3 88.1 57 83.55 64.7 79 67 70.4 L 74.8 40.45 Q 77.1 31.9 72.55 24.15 68.1 16.45 59.45 14.2 M 47.6 24.2 Q 52.1 21.55 57.15 22.95 62.2 24.25 64.8 28.7 67.45 33.15 66.15 38.25 L 58.25 68.2 Q 56.95 73.25 52.45 75.75 48 78.4 42.95 77.1 37.9 75.7 35.25 71.3 32.7 66.85 34 61.8 L 41.8 31.85 Q 43.1 26.85 47.6 24.2 Z"
         id="path826" />
      <path
         fill="#BCBFC4"
         stroke="none"
         d=" M 57.15 22.95 Q 52.1 21.55 47.6 24.2 43.1 26.85 41.8 31.85 L 34 61.8 Q 32.7 66.85 35.25 71.3 37.9 75.7 42.95 77.1 48 78.4 52.45 75.75 56.95 73.25 58.25 68.2 L 66.15 38.25 Q 67.45 33.15 64.8 28.7 62.2 24.25 57.15 22.95 Z"
         id="path828" />
    </g>
    <g
       id="Layer6_0_FILL">
      <path
         fill="#313131"
         stroke="none"
         d=" M 84.8 30.8 Q 83 29 81.05 27.6 74.3 22.85 65.55 22.85 65.5 22.85 65.45 22.85 L 34.4 22.85 Q 23.2 22.9 15.3 30.8 12.45 33.6 10.65 36.85 7.3 42.7 7.3 50 7.3 57.3 10.65 63.15 12.45 66.4 15.3 69.25 23.2 77.15 34.4 77.2 L 65.45 77.2 Q 65.5 77.2 65.55 77.2 74.3 77.2 81.05 72.45 83 71.05 84.8 69.25 92.7 61.3 92.7 50 92.7 38.75 84.8 30.8 M 86.25 50 Q 86.25 58 81.05 63.75 80.6 64.2 80.2 64.65 74.15 70.7 65.55 70.7 65.5 70.7 65.45 70.7 L 34.4 70.7 Q 25.9 70.7 19.85 64.65 13.8 58.6 13.8 50 13.8 41.45 19.85 35.4 25.9 29.35 34.4 29.35 L 65.45 29.35 Q 65.5 29.35 65.55 29.35 74.15 29.35 80.2 35.4 80.6 35.85 81.05 36.3 86.25 42.05 86.25 50 Z"
         id="path831" />
      <path
         fill="#4F4F4F"
         stroke="none"
         d=" M 81.05 63.75 Q 86.25 58 86.25 50 86.25 42.05 81.05 36.3 80.6 35.85 80.2 35.4 74.15 29.35 65.55 29.35 65.5 29.35 65.45 29.35 L 34.4 29.35 Q 25.9 29.35 19.85 35.4 13.8 41.45 13.8 50 13.8 58.6 19.85 64.65 25.9 70.7 34.4 70.7 L 65.45 70.7 Q 65.5 70.7 65.55 70.7 74.15 70.7 80.2 64.65 80.6 64.2 81.05 63.75 M 60.95 59.3 L 39.1 59.3 60.95 59.3 M 60.95 49.9 L 39.1 49.9 60.95 49.9 M 60.95 40.7 L 39.1 40.7 60.95 40.7 Z"
         id="path833" />
    </g>
    <g
       id="Layer5_0_FILL">
      <path
         fill="#404040"
         stroke="none"
         d=" M 83.7 16.05 Q 83.6 15.95 83.6 15.85 69.75 2.3 50.05 2.3 30.15 2.3 16.05 16.05 2.2 30.1 2.2 50 2.2 69.75 16.05 83.7 16.1 83.75 16.2 83.9 30.25 97.75 50.05 97.75 69.8 97.75 83.7 83.75 83.7 83.7 83.8 83.65 L 83.9 83.65 Q 96.8 70.65 97.75 52.75 97.8 51.4 97.8 50 97.8 43.85 96.45 38.2 93.4 25.7 83.7 16.05 M 92.45 50 Q 92.45 51.4 92.4 52.75 91.45 68.55 80 80.05 67.6 92.4 50.05 92.4 32.45 92.4 19.95 80.05 7.55 67.55 7.55 50 7.55 32.5 19.85 20.1 19.85 19.9 19.95 19.9 32.45 7.5 50.05 7.5 67.6 7.5 80 19.9 88.05 28 90.95 38.2 92.45 43.75 92.45 50 M 88.65 52.25 Q 88.7 51.15 88.7 50 88.7 45 87.6 40.45 85.15 30.35 77.3 22.55 77.2 22.45 77.2 22.35 66 11.35 50 11.35 33.9 11.35 22.5 22.55 11.25 33.9 11.25 50 11.25 66.05 22.5 77.35 22.55 77.4 22.6 77.5 34 88.7 50 88.7 66.05 88.7 77.3 77.4 77.3 77.35 77.4 77.3 L 77.45 77.3 Q 87.9 66.75 88.65 52.25 M 84.4 50 Q 84.4 51.15 84.35 52.25 83.6 65.05 74.25 74.35 64.25 84.4 50 84.4 35.75 84.4 25.65 74.35 15.55 64.25 15.55 50 15.55 35.85 25.55 25.8 25.55 25.65 25.65 25.65 35.75 15.55 50 15.55 64.25 15.55 74.25 25.65 80.8 32.2 83.15 40.45 84.4 44.95 84.4 50 Z"
         id="path836" />
      <path
         fill="#5D5D5D"
         stroke="none"
         d=" M 92.4 52.75 Q 92.45 51.4 92.45 50 92.45 43.75 90.95 38.2 88.05 28 80 19.9 67.6 7.5 50.05 7.5 32.45 7.5 19.95 19.9 19.85 19.9 19.85 20.1 7.55 32.5 7.55 50 7.55 67.55 19.95 80.05 32.45 92.4 50.05 92.4 67.6 92.4 80 80.05 91.45 68.55 92.4 52.75 M 88.7 50 Q 88.7 51.15 88.65 52.25 87.9 66.75 77.45 77.3 L 77.4 77.3 Q 77.3 77.35 77.3 77.4 66.05 88.7 50 88.7 34 88.7 22.6 77.5 22.55 77.4 22.5 77.35 11.25 66.05 11.25 50 11.25 33.9 22.5 22.55 33.9 11.35 50 11.35 66 11.35 77.2 22.35 77.2 22.45 77.3 22.55 85.15 30.35 87.6 40.45 88.7 45 88.7 50 Z"
         id="path838" />
      <path
         fill="#D7D7D7"
         stroke="none"
         d=" M 84.35 52.25 Q 84.4 51.15 84.4 50 84.4 44.95 83.15 40.45 80.8 32.2 74.25 25.65 64.25 15.55 50 15.55 35.75 15.55 25.65 25.65 25.55 25.65 25.55 25.8 15.55 35.85 15.55 50 15.55 64.25 25.65 74.35 35.75 84.4 50 84.4 64.25 84.4 74.25 74.35 83.6 65.05 84.35 52.25 M 70.25 30 Q 74.9 34.7 76.9 40.45 78.45 44.9 78.45 50 78.45 51.15 78.4 52.25 77.65 62.55 70.15 70.15 61.8 78.45 50 78.45 38.3 78.45 30 70.25 29.95 70.15 29.9 70.1 21.6 61.7 21.6 50 21.6 38.2 29.9 29.9 38.2 21.6 50 21.6 61.7 21.6 70.1 29.9 70.15 29.95 70.25 30 Z"
         id="path840" />
      <path
         fill="#FFFFFF"
         stroke="none"
         d=" M 76.9 40.45 Q 74.9 34.7 70.25 30 70.15 29.95 70.1 29.9 61.7 21.6 50 21.6 38.2 21.6 29.9 29.9 21.6 38.2 21.6 50 21.6 61.7 29.9 70.1 29.95 70.15 30 70.25 38.3 78.45 50 78.45 61.8 78.45 70.15 70.15 77.65 62.55 78.4 52.25 78.45 51.15 78.45 50 78.45 44.9 76.9 40.45 M 67.75 32.3 Q 71.45 36 73.25 40.45 75 44.85 75 50 75 51.15 74.95 52.25 74.2 61.2 67.75 67.75 60.35 75 50 75 39.6 75 32.3 67.75 24.95 60.35 24.95 50 24.95 39.6 32.25 32.3 L 32.3 32.25 Q 39.6 24.95 50 24.95 60.35 24.95 67.75 32.3 Z"
         id="path842" />
      <path
         fill="#F5F5F5"
         stroke="none"
         d=" M 73.25 40.45 Q 71.45 36 67.75 32.3 60.35 24.95 50 24.95 39.6 24.95 32.3 32.25 L 32.25 32.3 Q 24.95 39.6 24.95 50 24.95 60.35 32.3 67.75 39.6 75 50 75 60.35 75 67.75 67.75 74.2 61.2 74.95 52.25 75 51.15 75 50 75 44.85 73.25 40.45 M 57.3 39.95 Q 58.6 40.8 59.35 42.25 60.1 43.7 60.1 45.9 60.1 48.5 58.75 50.35 57.35 52.2 54.75 52.65 L 61.05 63.15 54.5 63.15 49.3 53.25 46.65 53.25 46.65 63.15 41.2 63.15 41.2 38.35 50.75 38.35 Q 52.65 38.35 54.35 38.75 56.05 39.1 57.3 39.95 M 46.65 48.6 L 49.85 48.6 Q 50.6 48.6 51.4 48.55 52.2 48.5 52.9 48.25 53.55 48 54 47.45 54.4 46.9 54.4 45.85 54.4 44.9 54.05 44.35 53.65 43.8 53.05 43.5 52.45 43.2 51.7 43.1 50.95 43 50.2 43 L 46.65 43 46.65 48.6 Z"
         id="path844" />
      <path
         fill="#9A9A9A"
         stroke="none"
         d=" M 59.35 42.25 Q 58.6 40.8 57.3 39.95 56.05 39.1 54.35 38.75 52.65 38.35 50.75 38.35 L 41.2 38.35 41.2 63.15 46.65 63.15 46.65 53.25 49.3 53.25 54.5 63.15 61.05 63.15 54.75 52.65 Q 57.35 52.2 58.75 50.35 60.1 48.5 60.1 45.9 60.1 43.7 59.35 42.25 M 49.85 48.6 L 46.65 48.6 46.65 43 50.2 43 Q 50.95 43 51.7 43.1 52.45 43.2 53.05 43.5 53.65 43.8 54.05 44.35 54.4 44.9 54.4 45.85 54.4 46.9 54 47.45 53.55 48 52.9 48.25 52.2 48.5 51.4 48.55 50.6 48.6 49.85 48.6 Z"
         id="path846" />
    </g>
    <g
       id="Layer3_0_FILL">
      <path
         fill="#353535"
         stroke="none"
         d=" M 84.95 77.8 Q 83.7 50.5 84.95 23.15 84.95 17.3 79.1 17.3 L 21.9 17.3 Q 16.05 17.3 16.05 23.15 17.3 50.5 16.05 77.8 16.05 83.65 21.9 83.65 L 79.1 83.65 Q 84.95 83.65 84.95 77.8 M 54.15 26.45 L 55.4 26.45 71.55 26.45 Q 75.8 26.45 75.8 30.7 74.65 50.5 75.8 70.25 75.8 74.45 71.55 74.45 L 55.4 74.45 54.15 74.45 29.45 74.45 Q 25.2 74.45 25.2 70.25 26.35 50.5 25.2 30.7 25.2 26.45 29.45 26.45 L 54.15 26.45 Z"
         id="path849" />
      <path
         fill="#595959"
         stroke="none"
         d=" M 55.4 26.45 L 54.15 26.45 29.45 26.45 Q 25.2 26.45 25.2 30.7 26.35 50.5 25.2 70.25 25.2 74.45 29.45 74.45 L 54.15 74.45 55.4 74.45 71.55 74.45 Q 75.8 74.45 75.8 70.25 74.65 50.5 75.8 30.7 75.8 26.45 71.55 26.45 L 55.4 26.45 M 46.05 49.1 L 55.65 38.8 62.8 38.8 51.8 50.35 63.75 63.6 56.1 63.6 46.05 51.85 46.05 63.6 40.6 63.6 40.6 38.8 46.05 38.8 46.05 49.1 Z"
         id="path851" />
      <path
         fill="#CDCDCD"
         stroke="none"
         d=" M 55.65 38.8 L 46.05 49.1 46.05 38.8 40.6 38.8 40.6 63.6 46.05 63.6 46.05 51.85 56.1 63.6 63.75 63.6 51.8 50.35 62.8 38.8 55.65 38.8 Z"
         id="path853" />
    </g>
    <g
       id="Layer2_0_FILL">
      <path
         fill="#D7D7D7"
         stroke="none"
         d=" M 84.95 77.8 Q 83.7 50.5 84.95 23.15 84.95 17.3 79.1 17.3 L 21.9 17.3 Q 16.05 17.3 16.05 23.15 17.3 50.5 16.05 77.8 16.05 83.65 21.9 83.65 L 79.1 83.65 Q 84.95 83.65 84.95 77.8 M 55.4 26.45 L 71.55 26.45 Q 75.8 26.45 75.8 30.7 74.65 50.5 75.8 70.25 75.8 74.45 71.55 74.45 L 55.4 74.45 54.15 74.45 29.45 74.45 Q 25.2 74.45 25.2 70.25 26.35 50.5 25.2 30.7 25.2 26.45 29.45 26.45 L 54.15 26.45 55.4 26.45 Z"
         id="path856" />
      <path
         fill="#F5F5F5"
         stroke="none"
         d=" M 71.55 26.45 L 55.4 26.45 54.15 26.45 29.45 26.45 Q 25.2 26.45 25.2 30.7 26.35 50.5 25.2 70.25 25.2 74.45 29.45 74.45 L 54.15 74.45 55.4 74.45 71.55 74.45 Q 75.8 74.45 75.8 70.25 74.65 50.5 75.8 30.7 75.8 26.45 71.55 26.45 M 46.05 49.1 L 55.65 38.8 62.8 38.8 51.8 50.35 63.75 63.6 56.1 63.6 46.05 51.85 46.05 63.6 40.6 63.6 40.6 38.8 46.05 38.8 46.05 49.1 Z"
         id="path858" />
      <path
         fill="#404040"
         stroke="none"
         d=" M 55.65 38.8 L 46.05 49.1 46.05 38.8 40.6 38.8 40.6 63.6 46.05 63.6 46.05 51.85 56.1 63.6 63.75 63.6 51.8 50.35 62.8 38.8 55.65 38.8 Z"
         id="path860" />
    </g>
    <g
       id="Layer1_0_FILL">
      <path
         fill="#F5F5F5"
         stroke="none"
         d=" M 59.15 65.15 Q 59.15 63.2 60.2 61.65 55.45 60 50 60 44.55 60 39.75 61.65 40.85 63.2 40.85 65.15 L 40.85 85.35 Q 40.85 85.95 41.25 86.4 L 41.3 86.4 Q 41.75 86.85 42.35 86.85 L 57.65 86.85 Q 58.25 86.85 58.7 86.4 59.15 85.95 59.15 85.35 L 59.15 65.15 M 44.95 74.05 L 55.1 74.05 50 83 44.95 74.05 Z"
         id="path863" />
      <path
         fill="#1B1B1B"
         stroke="none"
         d=" M 55.1 74.05 L 44.95 74.05 50 83 55.1 74.05 M 95.35 40.4 Q 95.4 40.1 95.3 39.8 95.3 39.75 95.3 39.65 94.4 34.05 88.4 32.5 88 32.35 87.5 32.35 L 67.65 32.35 67.65 12.75 Q 67.7 12.45 67.6 12.05 67.6 12 67.6 11.95 67.6 11.85 67.55 11.75 66.15 5.5 60.3 4.7 60.25 4.7 60.15 4.65 59.95 4.65 59.8 4.65 59.75 4.65 59.7 4.65 L 40.4 4.65 Q 40.1 4.6 39.8 4.65 L 39.65 4.7 Q 34.05 5.6 32.5 11.6 32.35 12 32.35 12.5 L 32.35 32.35 12.5 32.35 Q 12 32.35 11.6 32.5 5.6 34.05 4.7 39.65 L 4.65 39.8 Q 4.6 40.1 4.65 40.4 L 4.65 59.7 Q 4.65 59.75 4.65 59.8 4.65 59.95 4.65 60.15 L 4.7 60.25 Q 5.5 66.15 11.8 67.55 11.85 67.55 11.9 67.55 L 11.95 67.6 12.1 67.6 Q 12.45 67.7 12.75 67.65 L 29.85 67.65 Q 32.9 64.9 36.35 63.15 35.7 62.65 34.85 62.65 L 12.8 62.65 Q 10.15 62 9.65 59.55 L 9.65 40.45 Q 10.15 38.1 12.75 37.35 L 34.85 37.35 Q 35.9 37.35 36.6 36.6 37.35 35.9 37.35 34.85 L 37.35 12.75 Q 38.1 10.15 40.45 9.65 L 59.55 9.65 Q 62 10.15 62.65 12.8 L 62.65 34.85 Q 62.65 35.9 63.35 36.6 64.1 37.35 65.15 37.35 L 87.2 37.35 Q 89.85 38.1 90.35 40.45 L 90.35 59.55 Q 89.85 62 87.2 62.65 L 65.15 62.65 Q 64.3 62.65 63.65 63.15 67.1 64.9 70.15 67.65 L 87.2 67.65 Q 87.55 67.7 87.9 67.6 L 88 67.6 Q 88.15 67.6 88.2 67.55 94.5 66.15 95.3 60.25 L 95.3 60.15 Q 95.35 60.1 95.35 60 95.35 59.8 95.35 59.55 L 95.35 40.4 Z"
         id="path865" />
      <path
         fill="#D7D7D7"
         stroke="none"
         d=" M 36.35 63.15 Q 36.5 63.25 36.6 63.35 37.35 64.1 37.35 65.15 L 37.35 87.2 Q 38.1 89.85 40.45 90.35 L 59.55 90.35 Q 62 89.85 62.65 87.2 L 62.65 65.15 Q 62.65 64.1 63.35 63.35 63.5 63.25 63.65 63.15 62 62.3 60.2 61.65 59.15 63.2 59.15 65.15 L 59.15 85.35 Q 59.15 85.95 58.7 86.4 58.25 86.85 57.65 86.85 L 42.35 86.85 Q 41.75 86.85 41.3 86.4 L 41.25 86.4 Q 40.85 85.95 40.85 85.35 L 40.85 65.15 Q 40.85 63.2 39.75 61.65 38 62.3 36.35 63.15 Z"
         id="path867" />
      <path
         fill="url(#Gradient_12)"
         stroke="none"
         d=" M 36.6 63.35 Q 36.5 63.25 36.35 63.15 32.9 64.9 29.85 67.65 L 32.35 67.65 32.35 87.5 Q 32.35 88 32.5 88.4 34.05 94.4 39.65 95.3 39.75 95.3 39.8 95.3 40.1 95.4 40.4 95.35 L 59.7 95.35 Q 59.75 95.35 59.8 95.35 59.95 95.35 60.15 95.3 L 60.25 95.3 Q 66.15 94.5 67.55 88.15 L 67.55 88.1 Q 67.6 88.05 67.6 88 L 67.6 87.9 Q 67.7 87.55 67.65 87.25 L 67.65 67.65 70.15 67.65 Q 67.1 64.9 63.65 63.15 63.5 63.25 63.35 63.35 62.65 64.1 62.65 65.15 L 62.65 87.2 Q 62 89.85 59.55 90.35 L 40.45 90.35 Q 38.1 89.85 37.35 87.2 L 37.35 65.15 Q 37.35 64.1 36.6 63.35 Z"
         id="path869" />
      <path
         fill="#4F4F4F"
         stroke="none"
         d=" M 86.85 42.35 Q 86.85 41.75 86.4 41.3 L 86.4 41.25 Q 85.95 40.85 85.35 40.85 L 65.15 40.85 Q 62.65 40.85 60.9 39.1 59.15 37.35 59.15 34.85 L 59.15 14.65 Q 59.15 14.05 58.7 13.6 L 58.7 13.55 Q 58.25 13.15 57.65 13.15 L 42.35 13.15 Q 41.75 13.15 41.3 13.55 L 41.25 13.6 Q 40.85 14.05 40.85 14.65 L 40.85 34.85 Q 40.85 37.35 39.1 39.1 37.35 40.85 34.85 40.85 L 14.65 40.85 Q 14.05 40.85 13.6 41.25 L 13.55 41.3 Q 13.15 41.75 13.15 42.35 L 13.15 57.65 Q 13.15 58.25 13.55 58.7 L 13.6 58.7 Q 14.05 59.15 14.65 59.15 L 34.85 59.15 Q 37.35 59.15 39.1 60.9 39.45 61.25 39.75 61.65 44.55 60 50 60 55.45 60 60.2 61.65 60.55 61.25 60.9 60.9 62.65 59.15 65.15 59.15 L 85.35 59.15 Q 85.95 59.15 86.4 58.7 86.85 58.25 86.85 57.65 L 86.85 42.35 M 55.1 25.95 L 44.95 25.95 50 17 55.1 25.95 M 25.95 55.05 L 17 50 25.95 44.9 25.95 55.05 M 74.05 55.05 L 74.05 44.9 83 50 74.05 55.05 Z"
         id="path871" />
      <path
         fill="#9A9A9A"
         stroke="none"
         d=" M 74.05 44.9 L 74.05 55.05 83 50 74.05 44.9 M 17 50 L 25.95 55.05 25.95 44.9 17 50 M 44.95 25.95 L 55.1 25.95 50 17 44.95 25.95 Z"
         id="path873" />
      <path
         fill="#313131"
         stroke="none"
         d=" M 86.4 41.3 Q 86.85 41.75 86.85 42.35 L 86.85 57.65 Q 86.85 58.25 86.4 58.7 85.95 59.15 85.35 59.15 L 65.15 59.15 Q 62.65 59.15 60.9 60.9 60.55 61.25 60.2 61.65 62 62.3 63.65 63.15 64.3 62.65 65.15 62.65 L 87.2 62.65 Q 89.85 62 90.35 59.55 L 90.35 40.45 Q 89.85 38.1 87.2 37.35 L 65.15 37.35 Q 64.1 37.35 63.35 36.6 62.65 35.9 62.65 34.85 L 62.65 12.8 Q 62 10.15 59.55 9.65 L 40.45 9.65 Q 38.1 10.15 37.35 12.75 L 37.35 34.85 Q 37.35 35.9 36.6 36.6 35.9 37.35 34.85 37.35 L 12.75 37.35 Q 10.15 38.1 9.65 40.45 L 9.65 59.55 Q 10.15 62 12.8 62.65 L 34.85 62.65 Q 35.7 62.65 36.35 63.15 38 62.3 39.75 61.65 39.45 61.25 39.1 60.9 37.35 59.15 34.85 59.15 L 14.65 59.15 Q 14.05 59.15 13.6 58.7 L 13.55 58.7 Q 13.15 58.25 13.15 57.65 L 13.15 42.35 Q 13.15 41.75 13.55 41.3 L 13.6 41.25 Q 14.05 40.85 14.65 40.85 L 34.85 40.85 Q 37.35 40.85 39.1 39.1 40.85 37.35 40.85 34.85 L 40.85 14.65 Q 40.85 14.05 41.25 13.6 L 41.3 13.55 Q 41.75 13.15 42.35 13.15 L 57.65 13.15 Q 58.25 13.15 58.7 13.55 L 58.7 13.6 Q 59.15 14.05 59.15 14.65 L 59.15 34.85 Q 59.15 37.35 60.9 39.1 62.65 40.85 65.15 40.85 L 85.35 40.85 Q 85.95 40.85 86.4 41.25 L 86.4 41.3 Z"
         id="path875" />
    </g>
    <g
       id="Layer0_0_FILL">
      <path
         fill="#313131"
         stroke="none"
         d=" M 84.25 37.15 L 84.25 30.75 Q 83.35 14.35 66.3 12.3 L 23.05 12.3 Q 15.1884765625 14.6509765625 16.1 26.3 19.65 47.55 16.1 70.6 14.9 77.45 20 84.45 25.1 89.15 33.15 90.4 43.5521484375 92.035546875 51.75 88.65 59.85 85 63.3 76.6 63.75 75.55 64.25 74.5 69.323046875 64.84921875 75.5 61.1 81.7189453125 57.3970703125 82.7 53.05 82.7169921875 52.975 82.7 52.9 83.75 48.9 84.05 44.7 84.35 41.05 84.25 37.15 M 60.6 39.85 Q 60.2 43.2 59.55 46.55 58.9 49.9 58.05 53.2 56.9 57.75 55.15 62.2 53.4 66.55 50.9 70.55 49.15 73.35 47.25 76.05 45.75 78.2 44.1 80.2 42.45 82.15 39.95 82.85 37.75 83.6 35.45 83.75 30.95 84.05 27.05 81.7 22.45 78.95 22.55 73.65 22.65 70.25 23.15 66.9 23.65 63.3 23.95 59.7 24.25 55.9 24.4 52.1 24.55 48.1 24.5 44.1 24.5 41.55 24.25 39.05 23.8 34.15 23.2 29.25 22.85 26.45 22.55 23.6 22.35 22 23.3 20.55 24.05 19.5 26.5 18.7 L 56.4 18.7 Q 60.3453125 19.621875 61.05 21.4 61.753515625 23.18359375 61.5 26 61.298828125 28.80546875 61.15 33 61.05 36.4 60.6 39.85 Z"
         id="path878" />
      <path
         fill="#4F4F4F"
         stroke="none"
         d=" M 59.55 46.55 Q 60.2 43.2 60.6 39.85 61.05 36.4 61.15 33 61.298828125 28.80546875 61.5 26 61.753515625 23.18359375 61.05 21.4 60.3453125 19.621875 56.4 18.7 L 26.5 18.7 Q 24.05 19.5 23.3 20.55 22.35 22 22.55 23.6 22.85 26.45 23.2 29.25 23.8 34.15 24.25 39.05 24.5 41.55 24.5 44.1 24.55 48.1 24.4 52.1 24.25 55.9 23.95 59.7 23.65 63.3 23.15 66.9 22.65 70.25 22.55 73.65 22.45 78.95 27.05 81.7 30.95 84.05 35.45 83.75 37.75 83.6 39.95 82.85 42.45 82.15 44.1 80.2 45.75 78.2 47.25 76.05 49.15 73.35 50.9 70.55 53.4 66.55 55.15 62.2 56.9 57.75 58.05 53.2 58.9 49.9 59.55 46.55 M 53.85 25.5 L 53.85 28.4 49.6 28.4 49.6 40.35 46.35 40.35 46.35 28.4 42.1 28.4 42.1 25.5 53.85 25.5 M 41.6 37.35 L 41.6 40.35 32.25 40.35 32.25 25.5 35.5 25.5 35.5 37.35 41.6 37.35 Z"
         id="path880" />
      <path
         fill="#999999"
         stroke="none"
         d=" M 41.6 40.35 L 41.6 37.35 35.5 37.35 35.5 25.5 32.25 25.5 32.25 40.35 41.6 40.35 M 53.85 28.4 L 53.85 25.5 42.1 25.5 42.1 28.4 46.35 28.4 46.35 40.35 49.6 40.35 49.6 28.4 53.85 28.4 Z"
         id="path882" />
    </g>
    <path
       id="Layer19_0_1_STROKES"
       stroke="#1F1F1F"
       stroke-width="4"
       stroke-linejoin="round"
       stroke-linecap="round"
       fill="none"
       d=" M 90.375 37.325 L 90.45 37.35 M 90.45 62.65 L 90.375 62.675 Q 87.464453125 72.235546875 79.85 79.85 72.278125 87.421875 62.775 90.35 L 62.75 90.45 Q 50.7 94.3 37.45 90.45 L 37.45 90.425 Q 27.80703125 87.50703125 20.15 79.85 12.53125 72.23125 9.625 62.65 L 9.6 62.65 Q 5.75 50.55 9.6 37.35 L 9.625 37.35 Q 12.5310546875 27.7689453125 20.15 20.15 28.7796875 11.5203125 39.925 8.925 L 44.25 8.125 Q 47.9484375 7.5931640625 51.55 7.7 57.272265625 7.8498046875 62.75 9.6 L 62.75 9.65 Q 72.2736328125 12.5736328125 79.85 20.15 87.464453125 27.764453125 90.375 37.325 M 67.4 32.75 L 62.75 9.65 M 9.625 37.35 L 32.9 32.75 37.45 9.6 Q 38.696484375 9.237890625 39.925 8.925 M 37.45 90.425 L 32.9 67.3 9.625 62.65 M 67.4 67.25 L 62.775 90.35" />
    <path
       id="Layer19_0_2_STROKES"
       stroke="#A0A0A0"
       stroke-width="4"
       stroke-linejoin="round"
       stroke-linecap="round"
       fill="none"
       d=" M 61.95 60.95 Q 61.7490234375 61.1458984375 61.55 61.35 59.55 63.3 59 66.1 L 55.35 84.3 Q 50.25 85.05 44.95 84.25 L 41.35 66.15 Q 40.8 63.4 38.8 61.45 36.85 59.4 34.1 58.9 L 15.8 55.25 Q 15.05 50.15 15.85 44.8 L 34.05 41.2 Q 36.85 40.7 38.8 38.7 40.8 36.7 41.35 33.95 L 44.95 15.85 Q 48.28984375 15.3458984375 51.55 15.45 53.463671875 15.52265625 55.35 15.8 L 59 34 Q 59.55 36.7 61.55 38.7 61.91171875 39.07109375 62.3 39.4" />
    <path
       id="Layer19_0_3_STROKES"
       stroke="#FFFFFF"
       stroke-width="4"
       stroke-linejoin="round"
       stroke-linecap="round"
       fill="none"
       d=" M 66.3 41.2 L 84.25 44.8 Q 84.6357421875 47.3791015625 84.65 49.9 84.6884765625 52.60859375 84.3 55.25 L 66.3 58.85" />
    <path
       id="Layer19_0_4_STROKES"
       stroke="#404040"
       stroke-width="4"
       stroke-linejoin="round"
       stroke-linecap="round"
       fill="none"
       d=" M 90.45 37.35 Q 92.31796875 43.7546875 92.375 49.9 92.43203125 56.4208984375 90.45 62.65 M 90.375 37.325 L 67.4 32.75 M 67.4 67.25 L 90.375 62.675" />
    <path
       id="Layer19_0_5_STROKES"
       stroke="#FFFFFF"
       stroke-width="4"
       stroke-linejoin="round"
       stroke-linecap="butt"
       fill="none"
       d=" M 62.3 39.4 Q 64.01953125 40.7927734375 66.3 41.2 M 66.3 58.85 Q 63.7857421875 59.2990234375 61.95 60.95" />
    <path
       id="Layer18_0_1_STROKES"
       stroke="#1B1B1B"
       stroke-width="5"
       stroke-linejoin="round"
       stroke-linecap="round"
       fill="none"
       d=" M 34.85 65.15 L 12.5 65.15 Q 7.85 64.05 7.15 59.8 L 7.15 40.2 Q 7.75 35.85 12.5 34.85 L 34.85 34.85 34.85 12.5 Q 35.95 7.85 40.2 7.15 L 59.8 7.15 Q 64.15 7.75 65.15 12.5 L 65.15 34.85 87.5 34.85 Q 92.25 35.85 92.85 40.2 L 92.85 59.8 Q 92.15 64.05 87.5 65.15 L 65.15 65.15" />
    <path
       id="Layer18_0_2_STROKES"
       stroke="url(#Gradient_10)"
       stroke-width="4"
       stroke-linejoin="round"
       stroke-linecap="round"
       fill="none"
       d=" M 85.35 42.35 L 85.35 57.65 65.15 57.65 Q 62.05 57.65 59.85 59.85 57.65 62.05 57.65 65.15 L 57.65 85.35 42.35 85.35 42.35 65.15 Q 42.35 62.05 40.15 59.85 37.95 57.65 34.85 57.65 L 14.65 57.65 14.65 42.35 34.85 42.35 Q 37.95 42.35 40.15 40.15 42.35 37.95 42.35 34.85 L 42.35 14.65 57.65 14.65 57.65 34.85 Q 57.65 37.95 59.85 40.15 62.05 42.35 65.15 42.35 L 85.35 42.35 Z" />
    <path
       id="Layer18_0_3_STROKES"
       stroke="url(#Gradient_11)"
       stroke-width="5"
       stroke-linejoin="round"
       stroke-linecap="round"
       fill="none"
       d=" M 65.15 65.15 L 65.15 87.5 Q 64.15 92.25 59.8 92.85 L 40.2 92.85 Q 35.95 92.15 34.85 87.5 L 34.85 65.15" />
    <path
       id="Layer17_0_1_STROKES"
       stroke="#404040"
       stroke-width="4"
       stroke-linejoin="round"
       stroke-linecap="round"
       fill="none"
       d=" M 37.35 95.1 L 33.95 91.75 35.15 71.8 44.55 59.4 55.45 59.4 64.85 71.8 66.05 91.75 62.65 95.1 37.35 95.1 Z" />
    <path
       id="Layer17_0_2_STROKES"
       stroke="#FFFFFF"
       stroke-width="4"
       stroke-linejoin="round"
       stroke-linecap="round"
       fill="none"
       d=" M 49.35 66.1 L 48.1 66.1 41.85 73.9 40.95 88.4 59.05 88.4 58.15 73.9 51.9 66.1 50.65 66.1" />
    <path
       id="Layer17_0_3_STROKES"
       stroke="#202020"
       stroke-width="4"
       stroke-linejoin="round"
       stroke-linecap="round"
       fill="none"
       d=" M 95.1 37.35 L 91.75 33.95 71.8 35.15 59.4 44.55 59.4 55.45 71.8 64.85 91.75 66.05 95.1 62.65 95.1 37.35 Z M 66.05 8.25 L 62.65 4.9 37.35 4.9 33.95 8.25 35.15 28.2 44.55 40.6 55.45 40.6 64.85 28.2 66.05 8.25 Z M 8.25 33.95 L 28.2 35.15 40.6 44.55 40.6 55.45 28.2 64.85 8.25 66.05 4.9 62.65 4.9 37.35 8.25 33.95 Z" />
    <path
       id="Layer17_0_4_STROKES"
       stroke="#626262"
       stroke-width="4"
       stroke-linejoin="round"
       stroke-linecap="round"
       fill="none"
       d=" M 66.1 49.35 L 66.1 48.1 73.9 41.85 88.4 40.95 88.4 59.05 73.9 58.15 66.1 51.9 66.1 50.65 M 49.35 33.9 L 48.1 33.9 41.85 26.1 40.95 11.6 59.05 11.6 58.15 26.1 51.9 33.9 50.65 33.9 M 33.9 49.35 L 33.9 48.1 26.1 41.85 11.6 40.95 11.6 59.05 26.1 58.15 33.9 51.9 33.9 50.65" />
    <path
       id="Layer16_0_1_STROKES"
       stroke="#202020"
       stroke-width="4"
       stroke-linejoin="round"
       stroke-linecap="round"
       fill="none"
       d=" M 91.75 33.95 L 95.1 37.35 95.1 62.65 91.75 66.05 71.8 64.85 59.4 55.45 59.4 44.55 71.8 35.15 91.75 33.95 Z M 8.25 33.95 L 4.9 37.35 4.9 62.65 8.25 66.05 28.2 64.85 40.6 55.45 40.6 44.55 28.2 35.15 8.25 33.95 Z M 33.95 91.75 L 37.35 95.1 62.65 95.1 66.05 91.75 64.85 71.8 55.45 59.4 44.55 59.4 35.15 71.8 33.95 91.75 Z" />
    <path
       id="Layer16_0_2_STROKES"
       stroke="#626262"
       stroke-width="4"
       stroke-linejoin="round"
       stroke-linecap="round"
       fill="none"
       d=" M 66.1 50.65 L 66.1 51.9 73.9 58.15 88.4 59.05 88.4 40.95 73.9 41.85 66.1 48.1 66.1 49.35 M 33.9 50.65 L 33.9 51.9 26.1 58.15 11.6 59.05 11.6 40.95 26.1 41.85 33.9 48.1 33.9 49.35 M 50.65 66.1 L 51.9 66.1 58.15 73.9 59.05 88.4 40.95 88.4 41.85 73.9 48.1 66.1 49.35 66.1" />
    <path
       id="Layer16_0_3_STROKES"
       stroke="#404040"
       stroke-width="4"
       stroke-linejoin="round"
       stroke-linecap="round"
       fill="none"
       d=" M 62.65 4.9 L 66.05 8.25 64.85 28.2 55.45 40.6 44.55 40.6 35.15 28.2 33.95 8.25 37.35 4.9 62.65 4.9 Z" />
    <path
       id="Layer16_0_4_STROKES"
       stroke="#FFFFFF"
       stroke-width="4"
       stroke-linejoin="round"
       stroke-linecap="round"
       fill="none"
       d=" M 50.65 33.9 L 51.9 33.9 58.15 26.1 59.05 11.6 40.95 11.6 41.85 26.1 48.1 33.9 49.35 33.9" />
    <path
       id="Layer13_0_1_STROKES"
       stroke="#202020"
       stroke-width="5"
       stroke-linejoin="round"
       stroke-linecap="round"
       fill="none"
       d=" M 81.8 12.5 Q 85.85 16.6 86.25 26.5 82.7 47.75 86.25 70.8 87.45 77.65 82.35 84.65 77.25 89.35 69.2 90.6 53.3 93.1 42.55 83.95 L 36 70.35 Q 28.7 61.45 18.1 61.85 L 18.1 19.7 Q 19 14.55 25.55 12.5 L 81.8 12.5 Z" />
    <path
       id="Layer13_0_2_STROKES"
       stroke="#626262"
       stroke-width="4"
       stroke-linejoin="round"
       stroke-linecap="round"
       fill="none"
       d=" M 79.95 24.7 Q 80.15 21 77.5 18.9 L 44.35 18.9 Q 40.15 21.3 40.85 26.25 40.7 40.25 44.2 53.4 46.65 62.65 51.45 70.75 54.45 76.5 59.55 81.65 65.25 84.9 71.6 83.5 80.05 80.65 80.25 73.85 77.7 60.65 77.7 44.3 78.15 34.1 79.95 24.7 Z" />
    <path
       id="Layer12_0_1_STROKES"
       stroke="#1B1B1B"
       stroke-width="5"
       stroke-linejoin="round"
       stroke-linecap="round"
       fill="none"
       d=" M 34.85 65.15 L 12.5 65.15 Q 7.85 64.05 7.15 59.8 L 7.15 40.2 Q 7.75 35.85 12.5 34.85 L 34.85 34.85 34.85 12.5 Q 35.95 7.85 40.2 7.15 L 59.8 7.15 Q 64.15 7.75 65.15 12.5 L 65.15 34.85 87.5 34.85 Q 92.25 35.85 92.85 40.2 L 92.85 59.8 Q 92.15 64.05 87.5 65.15 L 65.15 65.15" />
    <path
       id="Layer12_0_2_STROKES"
       stroke="url(#Gradient_10)"
       stroke-width="4"
       stroke-linejoin="round"
       stroke-linecap="round"
       fill="none"
       d=" M 85.35 42.35 L 85.35 57.65 65.15 57.65 Q 62.05 57.65 59.85 59.85 57.65 62.05 57.65 65.15 L 57.65 85.35 42.35 85.35 42.35 65.15 Q 42.35 62.05 40.15 59.85 37.95 57.65 34.85 57.65 L 14.65 57.65 14.65 42.35 34.85 42.35 Q 37.95 42.35 40.15 40.15 42.35 37.95 42.35 34.85 L 42.35 14.65 57.65 14.65 57.65 34.85 Q 57.65 37.95 59.85 40.15 62.05 42.35 65.15 42.35 L 85.35 42.35 Z" />
    <path
       id="Layer12_0_3_STROKES"
       stroke="url(#Gradient_11)"
       stroke-width="5"
       stroke-linejoin="round"
       stroke-linecap="round"
       fill="none"
       d=" M 65.15 65.15 L 65.15 87.5 Q 64.15 92.25 59.8 92.85 L 40.2 92.85 Q 35.95 92.15 34.85 87.5 L 34.85 65.15" />
    <path
       id="Layer12_0_4_STROKES"
       stroke="#313131"
       stroke-width="5"
       stroke-linejoin="round"
       stroke-linecap="round"
       fill="none"
       d=" M 50 21.9 L 50 30.25 M 21.65 50 L 30 50 M 69.55 50 L 77.9 50" />
    <path
       id="Layer12_0_5_STROKES"
       stroke="#FFFFFF"
       stroke-width="5"
       stroke-linejoin="round"
       stroke-linecap="round"
       fill="none"
       d=" M 50 69.8 L 50 78.15" />
    <path
       id="Layer8_0_1_STROKES"
       stroke="#202020"
       stroke-width="4"
       stroke-linejoin="round"
       stroke-linecap="round"
       fill="none"
       d=" M 68 78.2 Q 78.4 78.2 85.7 70.85 93 63.55 93.05 53.2 93.05 46.9 93.05 46.85 93.05 36.45 85.7 29.15 78.4 21.8 68 21.8 L 32.05 21.8 Q 21.6 21.8 14.3 29.15 6.95 36.45 6.95 46.85 6.95 46.9 6.95 53.2 7 63.55 14.3 70.85 15.9 72.45 17.65 73.7 23.95 78.2 32.05 78.2 L 68 78.2 Z" />
    <path
       id="Layer8_0_2_STROKES"
       stroke="#626262"
       stroke-width="4"
       stroke-linejoin="round"
       stroke-linecap="round"
       fill="none"
       d=" M 68 67.7 Q 74.05 67.7 78.3 63.45 82.5 59.25 82.55 53.2 82.55 46.9 82.55 46.85 82.55 40.8 78.3 36.55 74.05 32.3 68 32.3 L 32.05 32.3 Q 25.95 32.3 21.7 36.55 17.45 40.8 17.45 46.85 17.45 46.9 17.45 53.2 17.5 59.25 21.7 63.45 25.95 67.7 32.05 67.7 L 68 67.7 Z" />
    <path
       id="Layer7_0_1_STROKES"
       stroke="#434345"
       stroke-width="4"
       stroke-linejoin="round"
       stroke-linecap="round"
       fill="none"
       d=" M 74.8 40.45 Q 77.1 31.9 72.55 24.15 68.1 16.45 59.45 14.2 59.144140625 14.1208984375 58.85 14.05 53.590234375 12.82734375 48.725 14.05 45.8421875 14.7728515625 43.1 16.35 35.4 20.95 33.15 29.65 L 25.3 59.5 Q 23.05 68.2 27.45 75.8 32 83.6 40.7 85.9 49.3 88.1 57 83.55 64.7 79 67 70.4 L 74.8 40.45 Z" />
    <path
       id="Layer7_0_2_STROKES"
       stroke="#E3E7ED"
       stroke-width="4"
       stroke-linejoin="round"
       stroke-linecap="round"
       fill="none"
       d=" M 66.15 38.25 Q 67.45 33.15 64.8 28.7 62.2 24.25 57.15 22.95 52.1 21.55 47.6 24.2 43.1 26.85 41.8 31.85 L 34 61.8 Q 32.7 66.85 35.25 71.3 37.9 75.7 42.95 77.1 48 78.4 52.45 75.75 56.95 73.25 58.25 68.2 L 66.15 38.25 Z" />
    <path
       id="Layer6_0_1_STROKES"
       stroke="#1B1B1B"
       stroke-width="5"
       stroke-linejoin="round"
       stroke-linecap="round"
       fill="none"
       d=" M 65.55 22.85 Q 74.3 22.85 81.05 27.6 83 29 84.8 30.8 92.7 38.75 92.7 50 92.7 61.3 84.8 69.25 83 71.05 81.05 72.45 74.3 77.2 65.55 77.2 M 65.45 77.2 L 34.4 77.2 Q 23.2 77.15 15.3 69.25 12.45 66.4 10.65 63.15 7.3 57.3 7.3 50 7.3 42.7 10.65 36.85 12.45 33.6 15.3 30.8 23.2 22.9 34.4 22.85 L 65.45 22.85" />
    <path
       id="Layer6_0_2_STROKES"
       stroke="#626262"
       stroke-width="4"
       stroke-linejoin="round"
       stroke-linecap="round"
       fill="none"
       d=" M 65.45 29.35 Q 65.5 29.35 65.55 29.35 74.15 29.35 80.2 35.4 80.6 35.85 81.05 36.3 86.25 42.05 86.25 50 86.25 58 81.05 63.75 80.6 64.2 80.2 64.65 74.15 70.7 65.55 70.7 65.5 70.7 65.45 70.7 L 34.4 70.7 Q 25.9 70.7 19.85 64.65 13.8 58.6 13.8 50 13.8 41.45 19.85 35.4 25.9 29.35 34.4 29.35 L 65.45 29.35 Z" />
    <path
       id="Layer6_0_3_STROKES"
       stroke="#D7D7D7"
       stroke-width="6"
       stroke-linejoin="round"
       stroke-linecap="square"
       fill="none"
       d=" M 60.95 59.3 L 39.1 59.3 M 60.95 49.9 L 39.1 49.9 M 60.95 40.7 L 39.1 40.7" />
    <path
       id="Layer3_0_1_STROKES"
       stroke="#1D1D1D"
       stroke-width="5"
       stroke-linejoin="round"
       stroke-linecap="round"
       fill="none"
       d=" M 84.95 23.15 Q 83.7 50.5 84.95 77.8 84.95 83.65 79.1 83.65 L 21.9 83.65 Q 16.05 83.65 16.05 77.8 17.3 50.5 16.05 23.15 16.05 17.3 21.9 17.3 L 79.1 17.3 Q 84.95 17.3 84.95 23.15 Z" />
    <path
       id="Layer3_0_2_STROKES"
       stroke="#696969"
       stroke-width="4"
       stroke-linejoin="round"
       stroke-linecap="round"
       fill="none"
       d=" M 54.15 26.45 L 29.45 26.45 Q 25.2 26.45 25.2 30.7 26.35 50.5 25.2 70.25 25.2 74.45 29.45 74.45 L 54.15 74.45 M 55.4 74.45 L 71.55 74.45 Q 75.8 74.45 75.8 70.25 74.65 50.5 75.8 30.7 75.8 26.45 71.55 26.45 L 55.4 26.45" />
    <path
       id="Layer2_0_1_STROKES"
       stroke="#404040"
       stroke-width="5"
       stroke-linejoin="round"
       stroke-linecap="round"
       fill="none"
       d=" M 84.95 23.15 Q 83.7 50.5 84.95 77.8 84.95 83.65 79.1 83.65 L 21.9 83.65 Q 16.05 83.65 16.05 77.8 17.3 50.5 16.05 23.15 16.05 17.3 21.9 17.3 L 79.1 17.3 Q 84.95 17.3 84.95 23.15 Z" />
    <path
       id="Layer2_0_2_STROKES"
       stroke="#FFFFFF"
       stroke-width="4"
       stroke-linejoin="round"
       stroke-linecap="round"
       fill="none"
       d=" M 55.4 74.45 L 71.55 74.45 Q 75.8 74.45 75.8 70.25 74.65 50.5 75.8 30.7 75.8 26.45 71.55 26.45 L 55.4 26.45 M 54.15 26.45 L 29.45 26.45 Q 25.2 26.45 25.2 30.7 26.35 50.5 25.2 70.25 25.2 74.45 29.45 74.45 L 54.15 74.45" />
    <path
       id="Layer0_0_1_STROKES"
       stroke="#626262"
       stroke-width="4"
       stroke-linejoin="round"
       stroke-linecap="round"
       fill="none"
       d=" M 56.4 18.7 Q 60.3453125 19.621875 61.05 21.4 61.753515625 23.18359375 61.525 26 61.298828125 28.80546875 61.15 33 61.05 36.4 60.6 39.85 60.2 43.2 59.55 46.55 58.9 49.9 58.05 53.2 56.9 57.75 55.15 62.2 53.4 66.55 50.9 70.55 49.15 73.35 47.25 76.05 45.75 78.2 44.1 80.2 42.45 82.15 39.95 82.85 37.75 83.6 35.45 83.75 30.95 84.05 27.05 81.7 22.45 78.95 22.55 73.65 22.65 70.25 23.15 66.9 23.65 63.3 23.95 59.7 24.25 55.9 24.4 52.1 24.55 48.1 24.5 44.1 24.5 41.55 24.25 39.05 23.8 34.15 23.2 29.25 22.85 26.45 22.55 23.6 22.35 22 23.3 20.55 24.05 19.5 26.5 18.7 L 56.4 18.7 Z" />
    <path
       id="Layer0_0_2_STROKES"
       stroke="#1B1B1B"
       stroke-width="5"
       stroke-linejoin="round"
       stroke-linecap="round"
       fill="none"
       d=" M 51.75 88.675 Q 59.85 85 63.3 76.6 63.75 75.55 64.25 74.5 69.323046875 64.84921875 75.525 61.125 81.7189453125 57.3970703125 82.7 53.05 82.7169921875 52.975 82.725 52.9 83.75 48.9 84.05 44.7 84.35 41.05 84.25 37.15 L 84.25 30.75 Q 83.35 14.35 66.3 12.3 L 23.05 12.3 Q 15.1884765625 14.6509765625 16.1 26.3 19.65 47.55 16.1 70.6 14.9 77.45 20 84.45 25.1 89.15 33.15 90.4 43.5521484375 92.035546875 51.75 88.675 Z" />
  </defs>
  <g
     id="g925"
     style="display:none">
    <use
       xlink:href="#Layer21_0_FILL"
       id="use923" />
  </g>
  <g
     transform="matrix(0.98692322,-0.16113281,0.16113281,0.98692322,48.1,80.2)"
     id="g931"
     style="display:none">
    <g
       id="g929">
      <use
         xlink:href="#Finger_Front_0_Layer1_0_FILL"
         id="use927" />
    </g>
  </g>
  <g
     id="g945"
     style="display:none">
    <use
       xlink:href="#Layer19_0_FILL"
       id="use933" />
    <use
       xlink:href="#Layer19_0_1_STROKES"
       id="use935" />
    <use
       xlink:href="#Layer19_0_2_STROKES"
       id="use937" />
    <use
       xlink:href="#Layer19_0_3_STROKES"
       id="use939" />
    <use
       xlink:href="#Layer19_0_4_STROKES"
       id="use941" />
    <use
       xlink:href="#Layer19_0_5_STROKES"
       id="use943" />
  </g>
  <g
     id="g955"
     style="display:none">
    <use
       xlink:href="#Layer18_0_FILL"
       id="use947" />
    <use
       xlink:href="#Layer18_0_1_STROKES"
       id="use949" />
    <use
       xlink:href="#Layer18_0_2_STROKES"
       id="use951" />
    <use
       xlink:href="#Layer18_0_3_STROKES"
       id="use953" />
  </g>
  <g
     id="g967"
     style="display:none">
    <use
       xlink:href="#Layer17_0_FILL"
       id="use957" />
    <use
       xlink:href="#Layer17_0_1_STROKES"
       id="use959" />
    <use
       xlink:href="#Layer17_0_2_STROKES"
       id="use961" />
    <use
       xlink:href="#Layer17_0_3_STROKES"
       id="use963" />
    <use
       xlink:href="#Layer17_0_4_STROKES"
       id="use965" />
  </g>
  <g
     id="g979"
     style="display:none">
    <use
       xlink:href="#Layer16_0_FILL"
       id="use969" />
    <use
       xlink:href="#Layer16_0_1_STROKES"
       id="use971" />
    <use
       xlink:href="#Layer16_0_2_STROKES"
       id="use973" />
    <use
       xlink:href="#Layer16_0_3_STROKES"
       id="use975" />
    <use
       xlink:href="#Layer16_0_4_STROKES"
       id="use977" />
  </g>
  <g
     id="g987"
     style="display:none">
    <use
       xlink:href="#Layer13_0_FILL"
       id="use981" />
    <use
       xlink:href="#Layer13_0_1_STROKES"
       id="use983" />
    <use
       xlink:href="#Layer13_0_2_STROKES"
       id="use985" />
  </g>
  <g
     id="g1001"
     style="display:none">
    <use
       xlink:href="#Layer12_0_FILL"
       id="use989" />
    <use
       xlink:href="#Layer12_0_1_STROKES"
       id="use991" />
    <use
       xlink:href="#Layer12_0_2_STROKES"
       id="use993" />
    <use
       xlink:href="#Layer12_0_3_STROKES"
       id="use995" />
    <use
       xlink:href="#Layer12_0_4_STROKES"
       id="use997" />
    <use
       xlink:href="#Layer12_0_5_STROKES"
       id="use999" />
  </g>
  <g
     id="g1005"
     style="display:none">
    <use
       xlink:href="#Layer9_0_FILL"
       id="use1003" />
  </g>
  <g
     id="g1013"
     style="display:none">
    <use
       xlink:href="#Layer8_0_FILL"
       id="use1007" />
    <use
       xlink:href="#Layer8_0_1_STROKES"
       id="use1009" />
    <use
       xlink:href="#Layer8_0_2_STROKES"
       id="use1011" />
  </g>
  <g
     id="g1021"
     style="display:none">
    <use
       xlink:href="#Layer7_0_FILL"
       id="use1015" />
    <use
       xlink:href="#Layer7_0_1_STROKES"
       id="use1017" />
    <use
       xlink:href="#Layer7_0_2_STROKES"
       id="use1019" />
  </g>
  <g
     id="g1031"
     style="display:none">
    <use
       xlink:href="#Layer6_0_FILL"
       id="use1023" />
    <use
       xlink:href="#Layer6_0_1_STROKES"
       id="use1025" />
    <use
       xlink:href="#Layer6_0_2_STROKES"
       id="use1027" />
    <use
       xlink:href="#Layer6_0_3_STROKES"
       id="use1029"
       style="display:none" />
  </g>
  <g
     id="g1035"
     style="display:none">
    <use
       xlink:href="#Layer5_0_FILL"
       id="use1033"
       style="display:inline" />
  </g>
  <g
     transform="matrix( 1, 0, 0, 1, 0,0) "
     id="g1043">
    <use
       xlink:href="#Layer3_0_FILL"
       id="use1037" />
    <use
       xlink:href="#Layer3_0_1_STROKES"
       id="use1039" />
    <use
       xlink:href="#Layer3_0_2_STROKES"
       id="use1041" />
  </g>
  <g
     id="g1051"
     style="display:none">
    <use
       xlink:href="#Layer2_0_FILL"
       id="use1045" />
    <use
       xlink:href="#Layer2_0_1_STROKES"
       id="use1047" />
    <use
       xlink:href="#Layer2_0_2_STROKES"
       id="use1049" />
  </g>
  <g
     id="g1055"
     style="display:none">
    <use
       xlink:href="#Layer1_0_FILL"
       id="use1053" />
  </g>
  <g
     id="g1063"
     style="display:none">
    <use
       xlink:href="#Layer0_0_FILL"
       id="use1057" />
    <use
       xlink:href="#Layer0_0_1_STROKES"
       id="use1059" />
    <use
       xlink:href="#Layer0_0_2_STROKES"
       id="use1061" />
  </g>
</svg>
