<?xml version="1.0" encoding="UTF-8" standalone="no"?>
<svg
   version="1.1"
   preserveAspectRatio="none"
   x="0px"
   y="0px"
   width="100px"
   height="100px"
   viewBox="0 0 100 100"
   id="svg5261"
   sodipodi:docname="Vector Source0065.svg"
   inkscape:version="1.2.1 (9c6d41e410, 2022-07-14)"
   xmlns:inkscape="http://www.inkscape.org/namespaces/inkscape"
   xmlns:sodipodi="http://sodipodi.sourceforge.net/DTD/sodipodi-0.dtd"
   xmlns:xlink="http://www.w3.org/1999/xlink"
   xmlns="http://www.w3.org/2000/svg"
   xmlns:svg="http://www.w3.org/2000/svg">
  <sodipodi:namedview
     id="namedview5263"
     pagecolor="#ffffff"
     bordercolor="#000000"
     borderopacity="0.25"
     inkscape:showpageshadow="2"
     inkscape:pageopacity="0.0"
     inkscape:pagecheckerboard="0"
     inkscape:deskcolor="#d1d1d1"
     showgrid="false"
     inkscape:zoom="10.27"
     inkscape:cx="42.55112"
     inkscape:cy="50"
     inkscape:window-width="2400"
     inkscape:window-height="1261"
     inkscape:window-x="5591"
     inkscape:window-y="431"
     inkscape:window-maximized="1"
     inkscape:current-layer="svg5261" />
  <defs
     id="defs5243">
    <g
       id="Layer3_0_FILL">
      <path
         fill="#353535"
         stroke="none"
         d=" M 92.95 27.1 Q 92.95 22.1 87.95 22.1 L 13.05 22.1 Q 8.05 22.1 8.05 27.1 9.1 50.5 8.05 73.8 8.05 78.8 13.05 78.8 L 87.95 78.8 Q 92.95 78.8 92.95 73.8 91.85 50.5 92.95 27.1 M 81.5 29.95 Q 85.1 29.95 85.1 33.55 84.15 50.5 85.1 67.35 85.1 70.95 81.5 70.95 L 67.7 70.95 66.6 70.95 19.5 70.95 Q 15.85 70.95 15.85 67.35 16.85 50.5 15.85 33.55 15.85 29.95 19.5 29.95 L 66.6 29.95 67.7 29.95 81.5 29.95 Z"
         id="path5225" />
      <path
         fill="#595959"
         stroke="none"
         d=" M 85.1 33.55 Q 85.1 29.95 81.5 29.95 L 67.7 29.95 66.6 29.95 19.5 29.95 Q 15.85 29.95 15.85 33.55 16.85 50.5 15.85 67.35 15.85 70.95 19.5 70.95 L 66.6 70.95 67.7 70.95 81.5 70.95 Q 85.1 70.95 85.1 67.35 84.15 50.5 85.1 33.55 M 45.75 47 L 48.15 47 48.15 43.4 51.9 43.4 51.9 47 55.2 47 55.2 50 51.9 50 51.9 54.05 Q 51.9 54.55 51.95 54.95 52 55.4 52.2 55.7 52.35 56 52.7 56.15 53.05 56.3 53.65 56.3 53.95 56.3 54.45 56.25 54.95 56.2 55.2 55.95 L 55.2 59.1 Q 54.55 59.3 53.9 59.4 53.25 59.45 52.55 59.45 51.6 59.45 50.8 59.25 50.05 59.05 49.4 58.6 48.8 58.2 48.5 57.5 48.15 56.8 48.15 55.8 L 48.15 50 45.75 50 45.75 47 M 44.85 43.6 L 41.85 46.05 Q 41.25 45.35 40.45 45 39.6 44.6 38.5 44.6 37.4 44.6 36.45 45.05 35.5 45.45 34.8 46.2 34.15 47 33.75 48.05 33.35 49.1 33.35 50.3 33.35 51.55 33.75 52.6 34.15 53.6 34.8 54.4 35.5 55.15 36.4 55.55 37.3 56 38.35 56 39.55 56 40.5 55.5 41.4 55 42 54.1 L 45.25 56.55 Q 44.15 58.1 42.4 58.85 40.7 59.6 38.85 59.6 36.8 59.6 35.05 58.95 33.3 58.3 32 57.1 30.75 55.9 30 54.15 29.3 52.4 29.3 50.3 29.3 48.2 30 46.45 30.75 44.7 32 43.5 33.3 42.3 35.05 41.65 36.8 41 38.85 41 39.6 41 40.45 41.15 41.25 41.3 42 41.55 42.8 41.9 43.55 42.4 44.25 42.9 44.85 43.6 M 65.1 46.7 Q 65.4 46.75 65.7 46.8 L 65.7 50.25 Q 65.25 50.1 64.9 50.05 64.5 50 64.1 50 63 50 62.4 50.3 61.75 50.6 61.4 51.15 61.05 51.65 61 52.4 60.9 53.15 60.9 54.05 L 60.9 59.15 57.15 59.15 57.15 47 60.9 47 60.9 48.95 60.95 48.95 Q 61.55 47.8 62.35 47.25 63.15 46.7 64.45 46.7 64.75 46.7 65.1 46.7 M 67.4 40.25 L 71.15 40.25 71.15 59.15 67.4 59.15 67.4 40.25 Z"
         id="path5227" />
      <path
         fill="#CDCDCD"
         stroke="none"
         d=" M 71.15 40.25 L 67.4 40.25 67.4 59.15 71.15 59.15 71.15 40.25 M 65.7 46.8 Q 65.4 46.75 65.1 46.7 64.75 46.7 64.45 46.7 63.15 46.7 62.35 47.25 61.55 47.8 60.95 48.95 L 60.9 48.95 60.9 47 57.15 47 57.15 59.15 60.9 59.15 60.9 54.05 Q 60.9 53.15 61 52.4 61.05 51.65 61.4 51.15 61.75 50.6 62.4 50.3 63 50 64.1 50 64.5 50 64.9 50.05 65.25 50.1 65.7 50.25 L 65.7 46.8 M 41.85 46.05 L 44.85 43.6 Q 44.25 42.9 43.55 42.4 42.8 41.9 42 41.55 41.25 41.3 40.45 41.15 39.6 41 38.85 41 36.8 41 35.05 41.65 33.3 42.3 32 43.5 30.75 44.7 30 46.45 29.3 48.2 29.3 50.3 29.3 52.4 30 54.15 30.75 55.9 32 57.1 33.3 58.3 35.05 58.95 36.8 59.6 38.85 59.6 40.7 59.6 42.4 58.85 44.15 58.1 45.25 56.55 L 42 54.1 Q 41.4 55 40.5 55.5 39.55 56 38.35 56 37.3 56 36.4 55.55 35.5 55.15 34.8 54.4 34.15 53.6 33.75 52.6 33.35 51.55 33.35 50.3 33.35 49.1 33.75 48.05 34.15 47 34.8 46.2 35.5 45.45 36.45 45.05 37.4 44.6 38.5 44.6 39.6 44.6 40.45 45 41.25 45.35 41.85 46.05 M 48.15 47 L 45.75 47 45.75 50 48.15 50 48.15 55.8 Q 48.15 56.8 48.5 57.5 48.8 58.2 49.4 58.6 50.05 59.05 50.8 59.25 51.6 59.45 52.55 59.45 53.25 59.45 53.9 59.4 54.55 59.3 55.2 59.1 L 55.2 55.95 Q 54.95 56.2 54.45 56.25 53.95 56.3 53.65 56.3 53.05 56.3 52.7 56.15 52.35 56 52.2 55.7 52 55.4 51.95 54.95 51.9 54.55 51.9 54.05 L 51.9 50 55.2 50 55.2 47 51.9 47 51.9 43.4 48.15 43.4 48.15 47 Z"
         id="path5229" />
    </g>
    <g
       id="Layer2_0_FILL">
      <path
         fill="#D7D7D7"
         stroke="none"
         d=" M 92.95 27.1 Q 92.95 22.1 87.95 22.1 L 13.05 22.1 Q 8.05 22.1 8.05 27.1 9.1 50.5 8.05 73.8 8.05 78.8 13.05 78.8 L 87.95 78.8 Q 92.95 78.8 92.95 73.8 91.85 50.5 92.95 27.1 M 81.5 29.95 Q 85.1 29.95 85.1 33.55 84.15 50.5 85.1 67.35 85.1 70.95 81.5 70.95 L 67.7 70.95 66.6 70.95 19.5 70.95 Q 15.85 70.95 15.85 67.35 16.85 50.5 15.85 33.55 15.85 29.95 19.5 29.95 L 66.6 29.95 67.7 29.95 81.5 29.95 Z"
         id="path5232" />
      <path
         fill="#F5F5F5"
         stroke="none"
         d=" M 85.1 33.55 Q 85.1 29.95 81.5 29.95 L 67.7 29.95 66.6 29.95 19.5 29.95 Q 15.85 29.95 15.85 33.55 16.85 50.5 15.85 67.35 15.85 70.95 19.5 70.95 L 66.6 70.95 67.7 70.95 81.5 70.95 Q 85.1 70.95 85.1 67.35 84.15 50.5 85.1 33.55 M 45.75 47 L 48.15 47 48.15 43.4 51.9 43.4 51.9 47 55.2 47 55.2 50 51.9 50 51.9 54.05 Q 51.9 54.55 51.95 54.95 52 55.4 52.2 55.7 52.35 56 52.7 56.15 53.05 56.3 53.65 56.3 53.95 56.3 54.45 56.25 54.95 56.2 55.2 55.95 L 55.2 59.1 Q 54.55 59.3 53.9 59.4 53.25 59.45 52.55 59.45 51.6 59.45 50.8 59.25 50.05 59.05 49.4 58.6 48.8 58.2 48.5 57.5 48.15 56.8 48.15 55.8 L 48.15 50 45.75 50 45.75 47 M 44.85 43.6 L 41.85 46.05 Q 41.25 45.35 40.45 45 39.6 44.6 38.5 44.6 37.4 44.6 36.45 45.05 35.5 45.45 34.8 46.2 34.15 47 33.75 48.05 33.35 49.1 33.35 50.3 33.35 51.55 33.75 52.6 34.15 53.6 34.8 54.4 35.5 55.15 36.4 55.55 37.3 56 38.35 56 39.55 56 40.5 55.5 41.4 55 42 54.1 L 45.25 56.55 Q 44.15 58.1 42.4 58.85 40.7 59.6 38.85 59.6 36.8 59.6 35.05 58.95 33.3 58.3 32 57.1 30.75 55.9 30 54.15 29.3 52.4 29.3 50.3 29.3 48.2 30 46.45 30.75 44.7 32 43.5 33.3 42.3 35.05 41.65 36.8 41 38.85 41 39.6 41 40.45 41.15 41.25 41.3 42 41.55 42.8 41.9 43.55 42.4 44.25 42.9 44.85 43.6 M 65.1 46.7 Q 65.4 46.75 65.7 46.8 L 65.7 50.25 Q 65.25 50.1 64.9 50.05 64.5 50 64.1 50 63 50 62.4 50.3 61.75 50.6 61.4 51.15 61.05 51.65 61 52.4 60.9 53.15 60.9 54.05 L 60.9 59.15 57.15 59.15 57.15 47 60.9 47 60.9 48.95 60.95 48.95 Q 61.55 47.8 62.35 47.25 63.15 46.7 64.45 46.7 64.75 46.7 65.1 46.7 M 67.4 40.25 L 71.15 40.25 71.15 59.15 67.4 59.15 67.4 40.25 Z"
         id="path5234" />
      <path
         fill="#404040"
         stroke="none"
         d=" M 71.15 40.25 L 67.4 40.25 67.4 59.15 71.15 59.15 71.15 40.25 M 65.7 46.8 Q 65.4 46.75 65.1 46.7 64.75 46.7 64.45 46.7 63.15 46.7 62.35 47.25 61.55 47.8 60.95 48.95 L 60.9 48.95 60.9 47 57.15 47 57.15 59.15 60.9 59.15 60.9 54.05 Q 60.9 53.15 61 52.4 61.05 51.65 61.4 51.15 61.75 50.6 62.4 50.3 63 50 64.1 50 64.5 50 64.9 50.05 65.25 50.1 65.7 50.25 L 65.7 46.8 M 41.85 46.05 L 44.85 43.6 Q 44.25 42.9 43.55 42.4 42.8 41.9 42 41.55 41.25 41.3 40.45 41.15 39.6 41 38.85 41 36.8 41 35.05 41.65 33.3 42.3 32 43.5 30.75 44.7 30 46.45 29.3 48.2 29.3 50.3 29.3 52.4 30 54.15 30.75 55.9 32 57.1 33.3 58.3 35.05 58.95 36.8 59.6 38.85 59.6 40.7 59.6 42.4 58.85 44.15 58.1 45.25 56.55 L 42 54.1 Q 41.4 55 40.5 55.5 39.55 56 38.35 56 37.3 56 36.4 55.55 35.5 55.15 34.8 54.4 34.15 53.6 33.75 52.6 33.35 51.55 33.35 50.3 33.35 49.1 33.75 48.05 34.15 47 34.8 46.2 35.5 45.45 36.45 45.05 37.4 44.6 38.5 44.6 39.6 44.6 40.45 45 41.25 45.35 41.85 46.05 M 48.15 47 L 45.75 47 45.75 50 48.15 50 48.15 55.8 Q 48.15 56.8 48.5 57.5 48.8 58.2 49.4 58.6 50.05 59.05 50.8 59.25 51.6 59.45 52.55 59.45 53.25 59.45 53.9 59.4 54.55 59.3 55.2 59.1 L 55.2 55.95 Q 54.95 56.2 54.45 56.25 53.95 56.3 53.65 56.3 53.05 56.3 52.7 56.15 52.35 56 52.2 55.7 52 55.4 51.95 54.95 51.9 54.55 51.9 54.05 L 51.9 50 55.2 50 55.2 47 51.9 47 51.9 43.4 48.15 43.4 48.15 47 Z"
         id="path5236" />
    </g>
    <path
       id="Layer3_0_1_STROKES"
       stroke="#696969"
       stroke-width="4"
       stroke-linejoin="round"
       stroke-linecap="round"
       fill="none"
       d=" M 67.7 70.95 L 81.5 70.95 Q 85.1 70.95 85.1 67.35 84.15 50.5 85.1 33.55 85.1 29.95 81.5 29.95 L 67.7 29.95 M 66.6 29.95 L 19.5 29.95 Q 15.85 29.95 15.85 33.55 16.85 50.5 15.85 67.35 15.85 70.95 19.5 70.95 L 66.6 70.95" />
    <path
       id="Layer3_0_2_STROKES"
       stroke="#1D1D1D"
       stroke-width="5"
       stroke-linejoin="round"
       stroke-linecap="round"
       fill="none"
       d=" M 87.95 22.1 Q 92.95 22.1 92.95 27.1 91.85 50.5 92.95 73.8 92.95 78.8 87.95 78.8 L 13.05 78.8 Q 8.05 78.8 8.05 73.8 9.1 50.5 8.05 27.1 8.05 22.1 13.05 22.1 L 87.95 22.1 Z" />
    <path
       id="Layer2_0_1_STROKES"
       stroke="#FFFFFF"
       stroke-width="4"
       stroke-linejoin="round"
       stroke-linecap="round"
       fill="none"
       d=" M 67.7 70.95 L 81.5 70.95 Q 85.1 70.95 85.1 67.35 84.15 50.5 85.1 33.55 85.1 29.95 81.5 29.95 L 67.7 29.95 M 66.6 29.95 L 19.5 29.95 Q 15.85 29.95 15.85 33.55 16.85 50.5 15.85 67.35 15.85 70.95 19.5 70.95 L 66.6 70.95" />
    <path
       id="Layer2_0_2_STROKES"
       stroke="#404040"
       stroke-width="5"
       stroke-linejoin="round"
       stroke-linecap="round"
       fill="none"
       d=" M 87.95 22.1 Q 92.95 22.1 92.95 27.1 91.85 50.5 92.95 73.8 92.95 78.8 87.95 78.8 L 13.05 78.8 Q 8.05 78.8 8.05 73.8 9.1 50.5 8.05 27.1 8.05 22.1 13.05 22.1 L 87.95 22.1 Z" />
  </defs>
  <g
     transform="matrix( 1, 0, 0, 1, 0,0) "
     id="g5251">
    <use
       xlink:href="#Layer3_0_FILL"
       id="use5245" />
    <use
       xlink:href="#Layer3_0_1_STROKES"
       id="use5247" />
    <use
       xlink:href="#Layer3_0_2_STROKES"
       id="use5249" />
  </g>
  <g
     id="g5259"
     style="display:none">
    <use
       xlink:href="#Layer2_0_FILL"
       id="use5253" />
    <use
       xlink:href="#Layer2_0_1_STROKES"
       id="use5255" />
    <use
       xlink:href="#Layer2_0_2_STROKES"
       id="use5257" />
  </g>
</svg>
