<?xml version="1.0" encoding="UTF-8" standalone="no"?>
<svg
   version="1.1"
   preserveAspectRatio="none"
   x="0px"
   y="0px"
   width="100px"
   height="100px"
   viewBox="0 0 100 100"
   id="svg30010"
   sodipodi:docname="Vector Source0017.svg"
   inkscape:version="1.2.1 (9c6d41e410, 2022-07-14)"
   xmlns:inkscape="http://www.inkscape.org/namespaces/inkscape"
   xmlns:sodipodi="http://sodipodi.sourceforge.net/DTD/sodipodi-0.dtd"
   xmlns:xlink="http://www.w3.org/1999/xlink"
   xmlns="http://www.w3.org/2000/svg"
   xmlns:svg="http://www.w3.org/2000/svg">
  <sodipodi:namedview
     id="namedview30012"
     pagecolor="#ffffff"
     bordercolor="#000000"
     borderopacity="0.25"
     inkscape:showpageshadow="2"
     inkscape:pageopacity="0.0"
     inkscape:pagecheckerboard="0"
     inkscape:deskcolor="#d1d1d1"
     showgrid="false"
     inkscape:zoom="10.27"
     inkscape:cx="42.55112"
     inkscape:cy="50"
     inkscape:window-width="2400"
     inkscape:window-height="1261"
     inkscape:window-x="5591"
     inkscape:window-y="431"
     inkscape:window-maximized="1"
     inkscape:current-layer="svg30010" />
  <defs
     id="defs29866">
    <linearGradient
       id="Gradient_1"
       gradientUnits="userSpaceOnUse"
       x1="-0.05"
       y1="-29.2375"
       x2="-0.05"
       y2="19.337500000000002"
       spreadMethod="pad">
      <stop
         offset="0%"
         stop-color="#000000"
         stop-opacity="0.2"
         id="stop29584" />
      <stop
         offset="99.2156862745098%"
         stop-color="#000000"
         stop-opacity="0"
         id="stop29586" />
    </linearGradient>
    <linearGradient
       id="Gradient_2"
       gradientUnits="userSpaceOnUse"
       x1="-0.05"
       y1="-28.2875"
       x2="-0.05"
       y2="15.487500000000002"
       spreadMethod="pad">
      <stop
         offset="0%"
         stop-color="#000000"
         stop-opacity="0.2"
         id="stop29589" />
      <stop
         offset="99.2156862745098%"
         stop-color="#000000"
         stop-opacity="0"
         id="stop29591" />
    </linearGradient>
    <linearGradient
       id="Gradient_3"
       gradientUnits="userSpaceOnUse"
       x1="-0.05"
       y1="-27.0375"
       x2="-0.05"
       y2="6.9375"
       spreadMethod="pad">
      <stop
         offset="0%"
         stop-color="#000000"
         stop-opacity="0.2"
         id="stop29594" />
      <stop
         offset="99.2156862745098%"
         stop-color="#000000"
         stop-opacity="0"
         id="stop29596" />
    </linearGradient>
    <linearGradient
       id="Gradient_4"
       gradientUnits="userSpaceOnUse"
       x1="0.1"
       y1="9.6625"
       x2="0.1"
       y2="-7.1625"
       spreadMethod="pad">
      <stop
         offset="0%"
         stop-color="#796C4B"
         stop-opacity="0"
         id="stop29599" />
      <stop
         offset="19.607843137254903%"
         stop-color="#796C4B"
         id="stop29601" />
    </linearGradient>
    <linearGradient
       id="Gradient_5"
       gradientUnits="userSpaceOnUse"
       x1="-0.25"
       y1="-3.6999999999999993"
       x2="-0.25"
       y2="-14.7"
       spreadMethod="pad">
      <stop
         offset="0%"
         stop-color="#F1B776"
         id="stop29604" />
      <stop
         offset="100%"
         stop-color="#876B47"
         id="stop29606" />
    </linearGradient>
    <linearGradient
       id="Gradient_6"
       gradientUnits="userSpaceOnUse"
       x1="0.1"
       y1="28.45"
       x2="0.1"
       y2="1.9499999999999993"
       spreadMethod="pad">
      <stop
         offset="0%"
         stop-color="#876B47"
         stop-opacity="0"
         id="stop29609" />
      <stop
         offset="19.607843137254903%"
         stop-color="#876B47"
         id="stop29611" />
    </linearGradient>
    <linearGradient
       id="Gradient_7"
       gradientUnits="userSpaceOnUse"
       x1="-0.05"
       y1="-27.012500000000003"
       x2="-0.05"
       y2="3.8125000000000018"
       spreadMethod="pad">
      <stop
         offset="0%"
         stop-color="#000000"
         stop-opacity="0.2"
         id="stop29614" />
      <stop
         offset="99.2156862745098%"
         stop-color="#000000"
         stop-opacity="0"
         id="stop29616" />
    </linearGradient>
    <linearGradient
       id="Gradient_8"
       gradientUnits="userSpaceOnUse"
       x1="27.5"
       y1="51"
       x2="38"
       y2="51"
       spreadMethod="pad">
      <stop
         offset="0%"
         stop-color="#D7D7D7"
         id="stop29619" />
      <stop
         offset="100%"
         stop-color="#313131"
         id="stop29621" />
    </linearGradient>
    <linearGradient
       id="Gradient_9"
       gradientUnits="userSpaceOnUse"
       x1="42.4875"
       y1="51"
       x2="29.0125"
       y2="51"
       spreadMethod="pad">
      <stop
         offset="0%"
         stop-color="#4F4F4F"
         id="stop29624" />
      <stop
         offset="100%"
         stop-color="#F5F5F5"
         id="stop29626" />
    </linearGradient>
    <linearGradient
       id="Gradient_10"
       gradientUnits="userSpaceOnUse"
       x1="32.2625"
       y1="50.5"
       x2="40.2375"
       y2="50.5"
       spreadMethod="pad">
      <stop
         offset="0%"
         stop-color="#FFFFFF"
         id="stop29629" />
      <stop
         offset="100%"
         stop-color="#626262"
         id="stop29631" />
    </linearGradient>
    <linearGradient
       id="Gradient_11"
       gradientUnits="userSpaceOnUse"
       x1="20.5125"
       y1="51"
       x2="32.4875"
       y2="51"
       spreadMethod="pad">
      <stop
         offset="0%"
         stop-color="#404040"
         id="stop29634" />
      <stop
         offset="100%"
         stop-color="#1B1B1B"
         id="stop29636" />
    </linearGradient>
    <linearGradient
       id="Gradient_12"
       gradientUnits="userSpaceOnUse"
       x1="49.85"
       y1="63.1"
       x2="49.85"
       y2="75.9"
       spreadMethod="pad">
      <stop
         offset="0%"
         stop-color="#313131"
         id="stop29639" />
      <stop
         offset="100%"
         stop-color="#D7D7D7"
         id="stop29641" />
    </linearGradient>
    <linearGradient
       id="Gradient_13"
       gradientUnits="userSpaceOnUse"
       x1="50.25"
       y1="60"
       x2="50.25"
       y2="71"
       spreadMethod="pad">
      <stop
         offset="0%"
         stop-color="#4F4F4F"
         id="stop29644" />
      <stop
         offset="100%"
         stop-color="#F5F5F5"
         id="stop29646" />
    </linearGradient>
    <linearGradient
       id="Gradient_14"
       gradientUnits="userSpaceOnUse"
       x1="50.75"
       y1="63.00000000000001"
       x2="50.75"
       y2="81.80000000000001"
       spreadMethod="pad">
      <stop
         offset="0%"
         stop-color="#626262"
         id="stop29649" />
      <stop
         offset="100%"
         stop-color="#FFFFFF"
         id="stop29651" />
    </linearGradient>
    <linearGradient
       id="Gradient_15"
       gradientUnits="userSpaceOnUse"
       x1="49.6"
       y1="67.80000000000001"
       x2="49.6"
       y2="92.5"
       spreadMethod="pad">
      <stop
         offset="0%"
         stop-color="#1B1B1B"
         id="stop29654" />
      <stop
         offset="100%"
         stop-color="#404040"
         id="stop29656" />
    </linearGradient>
    <linearGradient
       id="Gradient_16"
       gradientUnits="userSpaceOnUse"
       x1="91.5"
       y1="50"
       x2="67"
       y2="50"
       spreadMethod="pad">
      <stop
         offset="0%"
         stop-color="#404040"
         id="stop29659" />
      <stop
         offset="100%"
         stop-color="#1B1B1B"
         id="stop29661" />
    </linearGradient>
    <linearGradient
       id="Gradient_17"
       gradientUnits="userSpaceOnUse"
       x1="50.5"
       y1="65.16250000000001"
       x2="50.5"
       y2="73.7375"
       spreadMethod="pad">
      <stop
         offset="0%"
         stop-color="#313131"
         id="stop29664" />
      <stop
         offset="100%"
         stop-color="#D7D7D7"
         id="stop29666" />
    </linearGradient>
    <linearGradient
       id="Gradient_18"
       gradientUnits="userSpaceOnUse"
       x1="49.9"
       y1="58.400000000000006"
       x2="49.9"
       y2="67"
       spreadMethod="pad">
      <stop
         offset="0%"
         stop-color="#4F4F4F"
         id="stop29669" />
      <stop
         offset="100%"
         stop-color="#F5F5F5"
         id="stop29671" />
    </linearGradient>
    <linearGradient
       id="Gradient_19"
       gradientUnits="userSpaceOnUse"
       x1="45.3"
       y1="61.96249999999999"
       x2="45.3"
       y2="68.2375"
       spreadMethod="pad">
      <stop
         offset="0%"
         stop-color="#626262"
         id="stop29674" />
      <stop
         offset="100%"
         stop-color="#FFFFFF"
         id="stop29676" />
    </linearGradient>
    <linearGradient
       id="Gradient_20"
       gradientUnits="userSpaceOnUse"
       x1="45.65"
       y1="70.15"
       x2="45.65"
       y2="87.75"
       spreadMethod="pad">
      <stop
         offset="0%"
         stop-color="#1B1B1B"
         id="stop29679" />
      <stop
         offset="100%"
         stop-color="#404040"
         id="stop29681" />
    </linearGradient>
    <g
       id="Layer21_0_FILL">
      <path
         fill="#A91818"
         stroke="none"
         d=" M 25 -6.95 Q 23.9 -6.1 23.5 -4.75 23.1 -3.45 23.5 -2.15 23.9 -0.85 24.95 0.05 L 41.45 13.55 Q 42.75 14.6 44.45 14.55 L 46 14.5 Q 47.8 14.45 49.1 13.15 50.35 11.8 50.35 10 L 50.35 7.05 Q 59.55 8.1 66.45 15 74.6 23.15 74.6 34.65 74.6 46.15 66.45 54.3 58.3 62.45 46.8 62.45 45.5 62.45 44.25 62.4 39.75 62.1 36.35 65.1 L 36.3 65.15 Q 32.9 68.15 32.65 72.7 32.35 77.2 35.35 80.65 38.4 84.05 42.95 84.35 44.85 84.45 46.8 84.45 67.4 84.45 82 69.85 L 81.95 69.85 82 69.8 82 69.85 Q 96.6 55.25 96.6 34.65 96.6 14.05 82 -0.55 68.65 -13.9 50.35 -15.05 L 50.35 -16.8 Q 50.35 -18.05 49.75 -19.1 49.1 -20.15 48 -20.75 46.9 -21.35 45.7 -21.3 L 44.15 -21.25 Q 42.65 -21.2 41.5 -20.25 L 25 -6.95 M 44.3 -16.75 L 45.85 -16.8 45.85 -10.55 Q 46.35 -10.65 46.85 -10.65 65.55 -10.65 78.8 2.6 92.1 15.9 92.1 34.65 92.1 53.4 78.8 66.65 65.55 79.95 46.8 79.95 45 79.95 43.2 79.85 40.5 79.65 38.75 77.65 36.95 75.65 37.15 72.95 37.3 70.25 39.3 68.5 41.35 66.7 44 66.9 45.4 66.95 46.8 66.95 60.15 66.95 69.6 57.5 L 69.65 57.45 Q 79.1 48 79.1 34.65 79.1 21.3 69.6 11.8 60.15 2.35 46.85 2.35 46.35 2.35 45.85 2.3 L 45.85 10 44.3 10.05 27.8 -3.45 44.3 -16.75 Z"
         id="path29684" />
      <path
         fill="#E02727"
         stroke="none"
         d=" M 45.85 -16.8 L 44.3 -16.75 27.8 -3.45 44.3 10.05 45.85 10 45.85 2.3 Q 46.35 2.35 46.85 2.35 60.15 2.35 69.6 11.8 79.1 21.3 79.1 34.65 79.1 48 69.65 57.45 L 69.6 57.5 Q 60.15 66.95 46.8 66.95 45.4 66.95 44 66.9 41.35 66.7 39.3 68.5 37.3 70.25 37.15 72.95 36.95 75.65 38.75 77.65 40.5 79.65 43.2 79.85 45 79.95 46.8 79.95 65.55 79.95 78.8 66.65 92.1 53.4 92.1 34.65 92.1 15.9 78.8 2.6 65.55 -10.65 46.85 -10.65 46.35 -10.65 45.85 -10.55 L 45.85 -16.8 Z"
         id="path29686" />
    </g>
    <g
       id="Finger_Front_0_Layer1_0_FILL">
      <path
         fill="url(#Gradient_1)"
         stroke="none"
         d=" M -16.2 -19.55 Q -16.3 -19.35 -16.35 -19.15 -16.65 -18.6 -16.85 -17.75 L -17.85 -13.8 -19.05 -0.95 -19.1 -0.95 -19.55 10.5 -19.3 24.3 -15.9 24.3 -16.1 10.5 -15.75 -0.95 -15.7 -0.95 -14.55 -13.8 -13.75 -17.65 Q -13.7 -17.95 -13.65 -18.05 L -13.6 -18.15 Q -13.4 -18.85 -13.1 -19.55 L -16.2 -19.55 M 16.3 -19.2 Q 16.2 -19.4 16.15 -19.55 L 13.05 -19.55 Q 13.3 -18.9 13.6 -18.15 13.6 -17.95 13.75 -17.65 L 14.55 -13.8 15.75 -0.95 15.7 -0.95 16.05 10.5 15.85 24.3 19.25 24.3 19.5 10.5 19.55 10.5 19.35 4.4 Q 19.35 4.45 19.4 4.55 L 17.85 -13.8 16.8 -17.75 Q 16.7 -18.15 16.6 -18.5 16.4 -18.95 16.3 -19.2 Z"
         id="path29689" />
      <path
         fill="url(#Gradient_2)"
         stroke="none"
         d=" M -13.1 -19.55 Q -12.35 -21.25 -11.4 -22.7 L -14.55 -22.7 Q -15.45 -21.25 -16.2 -19.55 L -13.1 -19.55 M 11.3 -22.7 Q 12.2 -21.35 13.05 -19.55 L 16.15 -19.55 Q 15.35 -21.25 14.5 -22.7 L 11.3 -22.7 Z"
         id="path29691" />
      <path
         fill="#876B47"
         stroke="none"
         d=" M -8.4 -23.9 L -8.4 -23.8 Q -8.3794921875 -23.855859375 -8.35 -23.9 -8.2734375 -24.1626953125 -8.2 -24.4 -8.3333984375 -24.1666015625 -8.4 -23.9 M -8.65 -19.55 L -8.55 -22.85 -10.35 -22.85 -10.35 -22.7 -10.85 -19.55 -8.65 -19.55 M 7.25 -26.1 L 7.15 -26.1 Q 7.3275390625 -25.9046875 7.5 -25.7 8.05 -24.9 8.35 -23.9 8.4 -23.7 8.5 -23.5 8.5 -23.35 8.6 -23.15 L 8.65 -19.55 10.75 -19.55 10.3 -22.7 11.3 -22.7 Q 11.2 -22.85 11.1 -22.95 L 10.95 -23.05 Q 9.2 -24.95 7.25 -26.1 Z"
         id="path29693" />
      <path
         fill="url(#Gradient_3)"
         stroke="none"
         d=" M -7.45 -26.1 L -11.3 -26.1 Q -13.1 -24.6 -14.55 -22.7 L -11.4 -22.7 Q -9.75 -24.75 -7.45 -26.1 M 11.15 -26.1 L 7.25 -26.1 Q 9.2 -24.95 10.95 -23.05 L 11.1 -22.95 Q 11.2 -22.85 11.3 -22.7 L 14.5 -22.7 Q 13.8 -23.6 13.1 -24.35 L 13.1 -24.4 Q 12.95 -24.45 12.9 -24.55 12.05 -25.4 11.15 -26.1 Z"
         id="path29695" />
      <path
         fill="url(#Gradient_4)"
         stroke="none"
         d=" M -7.2 -26.1 Q -7.082421875 -26.2298828125 -7 -26.35 -7.22421875 -26.2291015625 -7.45 -26.1 L -7.2 -26.1 M 7.15 -26.1 L 7.25 -26.1 Q 7.1501953125 -26.16640625 7.05 -26.2 7.1005859375 -26.1556640625 7.15 -26.1 Z"
         id="path29697" />
      <path
         fill="#FBCF9B"
         stroke="none"
         d=" M 3.2 2.6 Q 3.15 0.8 1.9 0.5 1.05 0.3 0.55 -0.25 0.25 -0.25 -0.05 -0.25 -2.9 -0.25 -5.7 -0.95 L -5.75 -0.95 Q -6.95 -1.25 -8.2 -1.65 -8.5 -1.75 -8.7 -1.9 -8.85 -2.05 -8.95 -2.1 -9.55 -2.55 -10 -3.15 -11.25 -4.9 -11.65 -7.55 -11.75 -7.95 -11.75 -8.1 L -11.7 -9.4 -12.25 -3.15 -12.2 -3.15 -12.65 10.5 -12.7 10.5 -12.55 26.75 Q -8.35 29.4 -3.85 30.3 -1.05 30.85 1.7 30.6 2.45 30.45 3.3 30.35 3.5 27.2 3.05 24.3 2.65 22.35 2.1 20.65 1.6 19.45 0.8 19.15 -2.2 18.65 -5.45 18.1 -8.5 17.6 -8.65 16.55 L -8.6 16.55 Q -9.35 15.9 -8.9 14.85 -7.9 14.65 -4.9 15.3 -2.05 15.8 2.15 14.9 L 2.55 14.15 2.55 12.45 1.7 11.65 Q 0.3 11.75 -1.1 11.95 -2.9 12.1 -4.7 11.9 -6.7 11.9 -8.1 10.85 L -8.15 10.5 -8.1 10.5 -8.2 9.9 Q -8.15 9.2 -7.4 8.9 -4.25 9.35 -0.8 8.6 3.2 7.7 3.2 2.6 Z"
         id="path29699" />
      <path
         fill="#F1B776"
         stroke="none"
         d=" M 9.95 -3.15 L 10 -3.15 Q 9.6 -2.7 9.2 -2.35 8.95 -2.15 8.65 -1.9 8.45 -1.75 8.15 -1.65 6.9 -1.25 5.65 -0.95 L 5.6 -0.95 Q 3.05 -0.35 0.55 -0.25 1.05 0.3 1.9 0.5 3.15 0.8 3.2 2.6 3.2 7.7 -0.8 8.6 -4.25 9.35 -7.4 8.9 -8.15 9.2 -8.2 9.9 L -8.1 10.5 -8.15 10.5 -8.1 10.85 Q -6.7 11.9 -4.7 11.9 -2.9 12.1 -1.1 11.95 0.3 11.75 1.7 11.65 L 2.55 12.45 2.55 14.15 2.15 14.9 Q -2.05 15.8 -4.9 15.3 -7.9 14.65 -8.9 14.85 -9.35 15.9 -8.6 16.55 L -8.65 16.55 Q -8.5 17.6 -5.45 18.1 -2.2 18.65 0.8 19.15 1.6 19.45 2.1 20.65 2.65 22.35 3.05 24.3 3.5 27.2 3.3 30.35 7.45 29.9 11.3 27.5 11.95 27.15 12.55 26.75 L 12.6 10.5 12.65 10.5 12.2 -3.15 12.15 -3.15 11.55 -10.8 11.65 -8.1 Q 11.65 -7.95 11.6 -7.55 11.15 -4.85 9.95 -3.15 Z"
         id="path29701" />
      <path
         fill="#FFFFFF"
         stroke="none"
         d=" M 0 -3.2 Q 0.85 -3.3 1.75 -3.3 4.3 -3.55 6.9 -4.45 7 -4.7 7.25 -4.75 4.15 -7.75 0.2 -7.65 -2.4 -7.8 -4.5 -6.5 -5.9 -5.85 -7 -4.65 L -6.9 -4.45 Q -5.7 -4.1 -4.45 -3.7 -3.3 -3.45 -1.95 -3.3 -1.65 -3.3 -1.15 -3.2 -0.6 -3.2 0 -3.2 M 0.9 -28.95 L 0.2 -29 Q 0 -29 -0.15 -29 L -1 -28.95 Q -3.6 -28.8 -5.8 -27.4 -6.492578125 -26.93828125 -7 -26.35 -7.082421875 -26.2298828125 -7.2 -26.1 -7.2150390625 -26.05078125 -7.25 -26 -7.8357421875 -25.2970703125 -8.2 -24.4 -8.2734375 -24.1626953125 -8.35 -23.9 -8.3794921875 -23.855859375 -8.4 -23.8 -8.55 -23.5337890625 -8.55 -23.15 L -8.55 -22.85 Q -8.4970703125 -22.959765625 -8.45 -23.1 -7.778125 -24.2853515625 -6.4 -25.25 -3.65 -27.25 0.15 -27.15 3.85 -27.25 6.65 -25.25 7.75 -24.55 8.5 -23.5 8.4 -23.7 8.35 -23.9 8.05 -24.9 7.5 -25.7 7.3275390625 -25.9046875 7.15 -26.1 7.1005859375 -26.1556640625 7.05 -26.2 6.4646484375 -26.8576171875 5.85 -27.4 3.35 -28.75 0.9 -28.95 Z"
         id="path29703" />
      <path
         fill="url(#Gradient_5)"
         stroke="none"
         d=" M 11.5 -13.8 L 11.45 -13.8 10.75 -19.55 8.65 -19.55 8.85 -8.5 Q 8.35 -6.15 7.25 -4.75 7 -4.7 6.9 -4.45 4.3 -3.55 1.75 -3.3 0.85 -3.3 0 -3.2 -0.6 -3.2 -1.15 -3.2 -1.65 -3.3 -1.95 -3.3 -3.3 -3.45 -4.45 -3.7 -5.7 -4.1 -6.9 -4.45 L -7 -4.65 Q -8.45 -5.9 -8.85 -8.5 L -8.65 -19.55 -10.85 -19.55 -11.6 -13.8 -11.55 -13.8 -11.7 -9.4 -11.75 -8.1 Q -11.75 -7.95 -11.65 -7.55 -11.25 -4.9 -10 -3.15 -9.55 -2.55 -8.95 -2.1 -8.85 -2.05 -8.7 -1.9 -8.5 -1.75 -8.2 -1.65 -6.95 -1.25 -5.75 -0.95 L -5.7 -0.95 Q -2.9 -0.25 -0.05 -0.25 0.25 -0.25 0.55 -0.25 3.05 -0.35 5.6 -0.95 L 5.65 -0.95 Q 6.9 -1.25 8.15 -1.65 8.45 -1.75 8.65 -1.9 8.95 -2.15 9.2 -2.35 9.6 -2.7 10 -3.15 L 9.95 -3.15 Q 11.15 -4.85 11.6 -7.55 11.65 -7.95 11.65 -8.1 L 11.55 -10.8 11.5 -13.8 Z"
         id="path29705" />
      <path
         fill="url(#Gradient_6)"
         stroke="none"
         d=" M 11.3 -22.7 L 10.3 -22.7 10.75 -19.55 11.45 -13.8 11.5 -13.8 11.55 -10.8 12.15 -3.15 12.2 -3.15 12.65 10.5 12.6 10.5 12.55 26.75 Q 11.95 27.15 11.3 27.5 7.45 29.9 3.3 30.35 2.45 30.45 1.7 30.6 -1.05 30.85 -3.85 30.3 -8.35 29.4 -12.55 26.75 L -12.7 10.5 -12.65 10.5 -12.2 -3.15 -12.25 -3.15 -11.7 -9.4 -11.55 -13.8 -11.6 -13.8 -10.85 -19.55 -10.35 -22.7 -10.35 -22.85 -8.55 -22.85 -8.55 -23.15 Q -8.55 -23.5337890625 -8.4 -23.8 L -8.4 -23.9 Q -8.3333984375 -24.1666015625 -8.2 -24.4 -7.8357421875 -25.2970703125 -7.25 -26 -7.2150390625 -26.05078125 -7.2 -26.1 L -7.45 -26.1 Q -9.75 -24.75 -11.4 -22.7 -12.35 -21.25 -13.1 -19.55 -13.4 -18.85 -13.6 -18.15 L -13.65 -18.05 Q -13.7 -17.95 -13.75 -17.65 L -14.55 -13.8 -15.7 -0.95 -15.75 -0.95 -16.1 10.5 -15.9 24.3 -15.8 28.05 Q -15.85 28.1 -15.8 28.25 -15.9 28.75 -15.55 29.35 L -15.55 29.25 Q -15.4 29.75 -14.85 30.15 -7.55 34.85 -0.15 34.9 1.2 34.85 2.65 34.75 L 2.7 34.75 Q 4.7 34.4 6.55 34 6.5 33.95 6.65 34 10.75 32.6 14.8 30.15 15.2 29.8 15.55 29.35 15.75 28.8 15.85 28.25 15.8 28.1 15.85 28.05 L 15.85 24.3 16.05 10.5 15.7 -0.95 15.75 -0.95 14.55 -13.8 13.75 -17.65 Q 13.6 -17.95 13.6 -18.15 13.3 -18.9 13.05 -19.55 12.2 -21.35 11.3 -22.7 Z"
         id="path29707" />
      <path
         fill="#FFFCF4"
         stroke="none"
         d=" M 6.65 -25.25 Q 3.85 -27.25 0.15 -27.15 -3.65 -27.25 -6.4 -25.25 -7.778125 -24.2853515625 -8.45 -23.1 -8.4970703125 -22.959765625 -8.55 -22.85 L -8.65 -19.55 -8.85 -8.5 Q -8.45 -5.9 -7 -4.65 -5.9 -5.85 -4.5 -6.5 -2.4 -7.8 0.2 -7.65 4.15 -7.75 7.25 -4.75 8.35 -6.15 8.85 -8.5 L 8.65 -19.55 8.6 -23.15 Q 8.5 -23.35 8.5 -23.5 7.75 -24.55 6.65 -25.25 Z"
         id="path29709" />
      <path
         fill="url(#Gradient_7)"
         stroke="none"
         d=" M 0.2 -29 L 0.9 -28.95 Q 3.35 -28.75 5.85 -27.4 6.4646484375 -26.8576171875 7.05 -26.2 7.1501953125 -26.16640625 7.25 -26.1 L 11.15 -26.1 Q 9.85 -27.05 8.5 -27.7 7.65 -28.4 6.65 -29.05 6.45 -29.1 6.25 -29.25 3 -30.55 -0.15 -30.5 -3.35 -30.55 -6.35 -29.2 -6.6 -29.1 -6.75 -29.05 -7.6 -28.6 -8.25 -27.95 -9.9 -27.15 -11.3 -26.1 L -7.45 -26.1 Q -7.22421875 -26.2291015625 -7 -26.35 -6.492578125 -26.93828125 -5.8 -27.4 -3.6 -28.8 -1 -28.95 L -0.15 -29 Q 0 -29 0.2 -29 Z"
         id="path29711" />
    </g>
    <g
       id="Layer19_0_FILL">
      <path
         fill="#353535"
         stroke="none"
         d=" M 62.75 90.35 Q 72.278125 87.421875 79.85 79.85 87.464453125 72.235546875 90.35 62.65 L 67.4 67.25 62.75 90.35 M 76.65 76.65 Q 73.0345703125 80.31171875 68.9 82.75 L 71.2 71.05 82.8 68.75 Q 80.3685546875 72.9818359375 76.65 76.65 M 32.9 67.3 L 9.6 62.65 Q 12.53125 72.23125 20.15 79.85 27.80703125 87.50703125 37.45 90.4 L 32.9 67.3 M 31.35 82.9 Q 27.08359375 80.4326171875 23.3 76.65 19.6232421875 72.97265625 17.15 68.75 L 29.05 71.1 31.35 82.9 M 37.45 9.6 Q 38.696484375 9.237890625 39.9 8.9 28.7796875 11.5203125 20.15 20.15 12.5310546875 27.7689453125 9.6 37.35 L 32.9 32.75 37.45 9.6 M 23.3 23.3 Q 27.0859375 19.5666015625 31.35 17.1 L 29.05 28.9 17.15 31.25 Q 19.6150390625 27.035546875 23.3 23.3 M 79.85 20.15 Q 72.2736328125 12.5736328125 62.75 9.65 L 67.4 32.75 90.35 37.3 Q 87.464453125 27.764453125 79.85 20.15 M 68.85 17.2 Q 73.018359375 19.6728515625 76.65 23.3 80.3673828125 27.0169921875 82.8 31.2 L 71.2 28.9 68.85 17.2 Z"
         id="path29714" />
      <path
         fill="#4D4D4D"
         stroke="none"
         d=" M 68.9 82.75 Q 73.0345703125 80.31171875 76.65 76.65 80.3685546875 72.9818359375 82.8 68.75 L 71.2 71.05 68.9 82.75 M 23.3 76.65 Q 27.08359375 80.4326171875 31.35 82.9 L 29.05 71.1 17.15 68.75 Q 19.6232421875 72.97265625 23.3 76.65 M 31.35 17.1 Q 27.0859375 19.5666015625 23.3 23.3 19.6150390625 27.035546875 17.15 31.25 L 29.05 28.9 31.35 17.1 M 76.65 23.3 Q 73.018359375 19.6728515625 68.85 17.2 L 71.2 28.9 82.8 31.2 Q 80.3673828125 27.0169921875 76.65 23.3 Z"
         id="path29716" />
      <path
         fill="#6E6E6E"
         stroke="none"
         d=" M 90.45 37.35 L 90.35 37.3 67.4 32.75 62.75 9.65 62.75 9.6 Q 53.8244140625 6.7482421875 44.25 8.1 L 39.9 8.9 Q 38.696484375 9.237890625 37.45 9.6 L 32.9 32.75 9.6 37.35 9.6 37.35 Q 5.75 50.55 9.6 62.65 L 9.6 62.65 32.9 67.3 37.45 90.4 37.45 90.45 Q 50.7 94.3 62.75 90.45 L 62.75 90.35 67.4 67.25 90.35 62.65 90.45 62.65 Q 94.3 50.55 90.45 37.35 M 84.25 44.8 Q 85.05 50.15 84.3 55.25 L 66.3 58.85 Q 63.5 59.35 61.55 61.35 59.55 63.3 59 66.1 L 55.35 84.3 Q 50.25 85.05 44.95 84.25 L 41.35 66.15 Q 40.8 63.4 38.8 61.45 36.85 59.4 34.1 58.9 L 15.8 55.25 Q 15.05 50.15 15.85 44.8 L 34.05 41.2 Q 36.85 40.7 38.8 38.7 40.8 36.7 41.35 33.95 L 44.95 15.85 Q 50.25 15.05 55.35 15.8 L 59 34 Q 59.55 36.7 61.55 38.7 63.5 40.7 66.3 41.2 L 84.25 44.8 M 84.3 55.25 Q 85.05 50.15 84.25 44.8 L 66.3 41.2 Q 63.5 40.7 61.55 38.7 59.55 36.7 59 34 L 55.35 15.8 Q 50.25 15.05 44.95 15.85 L 41.35 33.95 Q 40.8 36.7 38.8 38.7 36.85 40.7 34.05 41.2 L 15.85 44.8 Q 15.05 50.15 15.8 55.25 L 34.1 58.9 Q 36.85 59.4 38.8 61.45 40.8 63.4 41.35 66.15 L 44.95 84.25 Q 50.25 85.05 55.35 84.3 L 59 66.1 Q 59.55 63.3 61.55 61.35 63.5 59.35 66.3 58.85 L 84.3 55.25 M 83 44.95 Q 83.75 50.1 83.05 55.05 L 65.7 58.5 Q 63 59 61.1 60.9 59.2 62.8 58.65 65.5 L 55.15 83.05 Q 50.2 83.75 45.1 83 L 41.65 65.55 Q 41.1 62.9 39.2 61 37.3 59.05 34.65 58.55 L 17 55.05 Q 16.3 50.1 17.05 44.95 L 34.6 41.5 Q 37.3 41 39.2 39.1 41.1 37.15 41.65 34.5 L 45.1 17.05 Q 50.2 16.3 55.15 17 L 58.65 34.55 Q 59.2 37.15 61.1 39.1 63 41 65.7 41.5 L 83 44.95 Z"
         id="path29718" />
      <path
         fill="#888888"
         stroke="none"
         d=" M 83.05 55.05 Q 83.75 50.1 83 44.95 L 65.7 41.5 Q 63 41 61.1 39.1 59.2 37.15 58.65 34.55 L 55.15 17 Q 50.2 16.3 45.1 17.05 L 41.65 34.5 Q 41.1 37.15 39.2 39.1 37.3 41 34.6 41.5 L 17.05 44.95 Q 16.3 50.1 17 55.05 L 34.65 58.55 Q 37.3 59.05 39.2 61 41.1 62.9 41.65 65.55 L 45.1 83 Q 50.2 83.75 55.15 83.05 L 58.65 65.5 Q 59.2 62.8 61.1 60.9 63 59 65.7 58.5 L 83.05 55.05 Z"
         id="path29720" />
    </g>
    <g
       id="Layer18_0_FILL">
      <path
         fill="url(#Gradient_8)"
         stroke="none"
         d=" M 92.85 40.2 Q 92.15 35.95 87.5 34.85 L 65.15 34.85 65.15 12.5 Q 64.15 7.75 59.8 7.15 L 40.2 7.15 Q 35.95 7.85 34.85 12.5 L 34.85 34.85 12.5 34.85 Q 7.85 35.95 7.15 40.2 L 7.15 59.8 Q 7.75 64.15 12.5 65.15 L 34.85 65.15 34.85 87.5 Q 35.95 92.15 40.2 92.85 L 59.8 92.85 Q 64.15 92.25 65.15 87.5 L 65.15 65.15 87.5 65.15 Q 92.25 64.15 92.85 59.8 L 92.85 40.2 M 85.35 42.35 L 85.35 57.65 65.15 57.65 Q 62.05 57.65 59.85 59.85 57.65 62.05 57.65 65.15 L 57.65 85.35 42.35 85.35 42.35 65.15 Q 42.35 62.05 40.15 59.85 37.95 57.65 34.85 57.65 L 14.65 57.65 14.65 42.35 34.85 42.35 Q 37.95 42.35 40.15 40.15 42.35 37.95 42.35 34.85 L 42.35 14.65 57.65 14.65 57.65 34.85 Q 57.65 37.95 59.85 40.15 62.05 42.35 65.15 42.35 L 85.35 42.35 Z"
         id="path29723" />
      <path
         fill="url(#Gradient_9)"
         stroke="none"
         d=" M 85.35 57.65 L 85.35 42.35 65.15 42.35 Q 62.05 42.35 59.85 40.15 57.65 37.95 57.65 34.85 L 57.65 14.65 42.35 14.65 42.35 34.85 Q 42.35 37.95 40.15 40.15 37.95 42.35 34.85 42.35 L 14.65 42.35 14.65 57.65 34.85 57.65 Q 37.95 57.65 40.15 59.85 42.35 62.05 42.35 65.15 L 42.35 85.35 57.65 85.35 57.65 65.15 Q 57.65 62.05 59.85 59.85 62.05 57.65 65.15 57.65 L 85.35 57.65 Z"
         id="path29725" />
    </g>
    <g
       id="Layer17_0_FILL">
      <path
         fill="#313131"
         stroke="none"
         d=" M 35.15 71.8 L 33.95 91.75 37.35 95.1 62.65 95.1 66.05 91.75 64.85 71.8 55.45 59.4 44.55 59.4 35.15 71.8 M 50.65 66.1 L 51.9 66.1 58.15 73.9 59.05 88.4 40.95 88.4 41.85 73.9 48.1 66.1 49.35 66.1 50.65 66.1 M 28.2 35.15 L 8.25 33.95 4.9 37.35 4.9 62.65 8.25 66.05 28.2 64.85 40.6 55.45 40.6 44.55 28.2 35.15 M 33.9 48.1 L 33.9 49.35 33.9 50.65 33.9 51.9 26.1 58.15 11.6 59.05 11.6 40.95 26.1 41.85 33.9 48.1 M 66.05 8.25 L 62.65 4.9 37.35 4.9 33.95 8.25 35.15 28.2 44.55 40.6 55.45 40.6 64.85 28.2 66.05 8.25 M 40.95 11.6 L 59.05 11.6 58.15 26.1 51.9 33.9 50.65 33.9 49.35 33.9 48.1 33.9 41.85 26.1 40.95 11.6 Z"
         id="path29728" />
      <path
         fill="#4F4F4F"
         stroke="none"
         d=" M 51.9 66.1 L 50.65 66.1 49.35 66.1 48.1 66.1 41.85 73.9 40.95 88.4 59.05 88.4 58.15 73.9 51.9 66.1 M 33.9 49.35 L 33.9 48.1 26.1 41.85 11.6 40.95 11.6 59.05 26.1 58.15 33.9 51.9 33.9 50.65 33.9 49.35 M 59.05 11.6 L 40.95 11.6 41.85 26.1 48.1 33.9 49.35 33.9 50.65 33.9 51.9 33.9 58.15 26.1 59.05 11.6 Z"
         id="path29730" />
      <path
         fill="#D7D7D7"
         stroke="none"
         d=" M 95.1 37.35 L 91.75 33.95 71.8 35.15 59.4 44.55 59.4 55.45 71.8 64.85 91.75 66.05 95.1 62.65 95.1 37.35 M 88.4 40.95 L 88.4 59.05 73.9 58.15 66.1 51.9 66.1 50.65 66.1 49.35 66.1 48.1 73.9 41.85 88.4 40.95 Z"
         id="path29732" />
      <path
         fill="#F5F5F5"
         stroke="none"
         d=" M 88.4 59.05 L 88.4 40.95 73.9 41.85 66.1 48.1 66.1 49.35 66.1 50.65 66.1 51.9 73.9 58.15 88.4 59.05 Z"
         id="path29734" />
    </g>
    <g
       id="Layer16_0_FILL">
      <path
         fill="#313131"
         stroke="none"
         d=" M 33.95 91.75 L 37.35 95.1 62.65 95.1 66.05 91.75 64.85 71.8 55.45 59.4 44.55 59.4 35.15 71.8 33.95 91.75 M 48.1 66.1 L 49.35 66.1 50.65 66.1 51.9 66.1 58.15 73.9 59.05 88.4 40.95 88.4 41.85 73.9 48.1 66.1 M 8.25 33.95 L 4.9 37.35 4.9 62.65 8.25 66.05 28.2 64.85 40.6 55.45 40.6 44.55 28.2 35.15 8.25 33.95 M 11.6 40.95 L 26.1 41.85 33.9 48.1 33.9 49.35 33.9 50.65 33.9 51.9 26.1 58.15 11.6 59.05 11.6 40.95 M 66.05 8.25 L 62.65 4.9 37.35 4.9 33.95 8.25 35.15 28.2 44.55 40.6 55.45 40.6 64.85 28.2 66.05 8.25 M 40.95 11.6 L 59.05 11.6 58.15 26.1 51.9 33.9 50.65 33.9 49.35 33.9 48.1 33.9 41.85 26.1 40.95 11.6 M 95.1 37.35 L 91.75 33.95 71.8 35.15 59.4 44.55 59.4 55.45 71.8 64.85 91.75 66.05 95.1 62.65 95.1 37.35 M 88.4 40.95 L 88.4 59.05 73.9 58.15 66.1 51.9 66.1 50.65 66.1 49.35 66.1 48.1 73.9 41.85 88.4 40.95 Z"
         id="path29737" />
      <path
         fill="#4F4F4F"
         stroke="none"
         d=" M 49.35 66.1 L 48.1 66.1 41.85 73.9 40.95 88.4 59.05 88.4 58.15 73.9 51.9 66.1 50.65 66.1 49.35 66.1 M 26.1 41.85 L 11.6 40.95 11.6 59.05 26.1 58.15 33.9 51.9 33.9 50.65 33.9 49.35 33.9 48.1 26.1 41.85 M 59.05 11.6 L 40.95 11.6 41.85 26.1 48.1 33.9 49.35 33.9 50.65 33.9 51.9 33.9 58.15 26.1 59.05 11.6 M 88.4 59.05 L 88.4 40.95 73.9 41.85 66.1 48.1 66.1 49.35 66.1 50.65 66.1 51.9 73.9 58.15 88.4 59.05 Z"
         id="path29739" />
    </g>
    <g
       id="Layer13_0_FILL">
      <path
         fill="url(#Gradient_12)"
         stroke="none"
         d=" M 92.8 39.95 Q 92.5 39.6 92.15 39.25 87.85 35 81.85 34.85 L 65.15 34.85 65.15 18.15 Q 64.95 12.15 60.65 7.85 60.3 7.5 59.95 7.15 55.75 3.4 49.95 3.4 44.2 3.4 39.95 7.2 39.6 7.5 39.25 7.85 35 12.15 34.85 18.15 L 34.85 34.85 18.15 34.85 Q 12.15 35.05 7.85 39.35 7.5 39.7 7.15 40.05 3.4 44.25 3.4 50.05 3.4 55.8 7.2 60.05 7.5 60.4 7.85 60.75 12.15 65 18.15 65.15 L 34.85 65.15 34.85 81.85 Q 35.05 87.85 39.35 92.15 39.7 92.5 40.05 92.85 44.25 96.6 50.05 96.6 55.8 96.6 60.05 92.8 60.4 92.5 60.75 92.15 65 87.85 65.15 81.85 L 65.15 65.15 81.85 65.15 Q 87.85 64.95 92.15 60.65 92.5 60.3 92.85 59.95 96.6 55.75 96.6 49.95 96.6 44.2 92.8 39.95 M 81.65 42.35 Q 84.65 42.45 86.85 44.55 L 86.85 44.6 Q 87 44.7 87.1 44.85 87.15 44.85 87.2 44.95 89.1 47.05 89.1 49.95 89.15 52.85 87.25 54.95 87.05 55.15 86.85 55.35 84.65 57.55 81.6 57.65 L 65.15 57.65 Q 62.05 57.65 59.85 59.85 57.65 62.05 57.65 65.15 L 57.65 81.65 Q 57.6 84.65 55.45 86.85 L 55.4 86.9 Q 55.3 87 55.15 87.1 55.1 87.2 55.05 87.25 52.95 89.1 50.05 89.1 47.2 89.15 45.1 87.3 L 45.05 87.25 Q 44.85 87.05 44.65 86.9 L 44.65 86.85 Q 42.45 84.65 42.35 81.6 L 42.35 65.15 Q 42.35 62.05 40.15 59.85 37.95 57.65 34.85 57.65 L 18.3 57.65 Q 15.3 57.55 13.15 55.45 L 13.1 55.45 Q 13 55.3 12.9 55.2 12.85 55.15 12.8 55.05 10.9 52.95 10.9 50.05 10.85 47.15 12.75 45.05 12.95 44.85 13.15 44.65 15.35 42.45 18.4 42.35 L 34.85 42.35 Q 37.95 42.35 40.15 40.15 42.35 37.95 42.35 34.85 L 42.35 18.35 Q 42.45 15.35 44.55 13.15 44.7 13 44.8 12.9 44.85 12.85 44.95 12.8 47.05 10.9 49.95 10.9 52.85 10.85 54.95 12.75 55.15 12.95 55.35 13.15 57.55 15.35 57.65 18.4 L 57.65 34.85 Q 57.65 37.95 59.85 40.15 62.05 42.35 65.15 42.35 L 81.65 42.35 Z"
         id="path29742" />
      <path
         fill="url(#Gradient_13)"
         stroke="none"
         d=" M 86.85 44.55 Q 84.65 42.45 81.65 42.35 L 65.15 42.35 Q 62.05 42.35 59.85 40.15 57.65 37.95 57.65 34.85 L 57.65 18.4 Q 57.55 15.35 55.35 13.15 55.15 12.95 54.95 12.75 52.85 10.85 49.95 10.9 47.05 10.9 44.95 12.8 44.85 12.85 44.8 12.9 44.7 13 44.55 13.15 42.45 15.35 42.35 18.35 L 42.35 34.85 Q 42.35 37.95 40.15 40.15 37.95 42.35 34.85 42.35 L 18.4 42.35 Q 15.35 42.45 13.15 44.65 12.95 44.85 12.75 45.05 10.85 47.15 10.9 50.05 10.9 52.95 12.8 55.05 12.85 55.15 12.9 55.2 13 55.3 13.1 55.45 L 13.15 55.45 Q 15.3 57.55 18.3 57.65 L 34.85 57.65 Q 37.95 57.65 40.15 59.85 42.35 62.05 42.35 65.15 L 42.35 81.6 Q 42.45 84.65 44.65 86.85 L 44.65 86.9 Q 44.85 87.05 45.05 87.25 L 45.1 87.3 Q 47.2 89.15 50.05 89.1 52.95 89.1 55.05 87.25 55.1 87.2 55.15 87.1 55.3 87 55.4 86.9 L 55.45 86.85 Q 57.6 84.65 57.65 81.65 L 57.65 65.15 Q 57.65 62.05 59.85 59.85 62.05 57.65 65.15 57.65 L 81.6 57.65 Q 84.65 57.55 86.85 55.35 87.05 55.15 87.25 54.95 89.15 52.85 89.1 49.95 89.1 47.05 87.2 44.95 87.15 44.85 87.1 44.85 87 44.7 86.85 44.6 L 86.85 44.55 Z"
         id="path29744" />
    </g>
    <g
       id="Layer12_0_FILL">
      <path
         fill="url(#Gradient_8)"
         stroke="none"
         d=" M 92.85 40.2 Q 92.15 35.95 87.5 34.85 L 65.15 34.85 65.15 12.5 Q 64.15 7.75 59.8 7.15 L 40.2 7.15 Q 35.95 7.85 34.85 12.5 L 34.85 34.85 12.5 34.85 Q 7.85 35.95 7.15 40.2 L 7.15 59.8 Q 7.75 64.15 12.5 65.15 L 34.85 65.15 34.85 87.5 Q 35.95 92.15 40.2 92.85 L 59.8 92.85 Q 64.15 92.25 65.15 87.5 L 65.15 65.15 87.5 65.15 Q 92.25 64.15 92.85 59.8 L 92.85 40.2 M 85.35 42.35 L 85.35 57.65 65.15 57.65 Q 62.05 57.65 59.85 59.85 57.65 62.05 57.65 65.15 L 57.65 85.35 42.35 85.35 42.35 65.15 Q 42.35 62.05 40.15 59.85 37.95 57.65 34.85 57.65 L 14.65 57.65 14.65 42.35 34.85 42.35 Q 37.95 42.35 40.15 40.15 42.35 37.95 42.35 34.85 L 42.35 14.65 57.65 14.65 57.65 34.85 Q 57.65 37.95 59.85 40.15 62.05 42.35 65.15 42.35 L 85.35 42.35 Z"
         id="path29747" />
      <path
         fill="url(#Gradient_9)"
         stroke="none"
         d=" M 85.35 57.65 L 85.35 42.35 65.15 42.35 Q 62.05 42.35 59.85 40.15 57.65 37.95 57.65 34.85 L 57.65 14.65 42.35 14.65 42.35 34.85 Q 42.35 37.95 40.15 40.15 37.95 42.35 34.85 42.35 L 14.65 42.35 14.65 57.65 34.85 57.65 Q 37.95 57.65 40.15 59.85 42.35 62.05 42.35 65.15 L 42.35 85.35 57.65 85.35 57.65 65.15 Q 57.65 62.05 59.85 59.85 62.05 57.65 65.15 57.65 L 85.35 57.65 M 50 21.9 L 50 30.25 50 21.9 M 21.65 50 L 30 50 21.65 50 M 69.55 50 L 77.9 50 69.55 50 M 50 69.8 L 50 78.15 50 69.8 Z"
         id="path29749" />
    </g>
    <g
       id="Layer9_0_FILL">
      <path
         fill="#FFFFFF"
         stroke="none"
         d=" M 61.8 10.9 Q 61.45 10.7 61.1 10.6 60.7 10.45 60.3 10.35 52.65 7.85 46.6 7.6 41.45 7.35 40.1 9.1 L 40.1 9.15 Q 36.9 13.15 31.5 17.05 30.8 21.65 33 26.2 38.05 27.35 36.8 35.3 36.85 35.75 36.75 36.3 L 35.75 41.5 Q 36.95 46.65 34.2 52.15 37.7 52.45 42.4 51.35 41.55 50.4 41 49.3 39.1 45.5 40.4 41.65 41.65 37.7 45.4 35.9 49.1 33.95 53 35.3 56.9 36.6 58.7 40.25 60.05 42.95 59.75 45.85 63.3 44.75 66.4 43.9 70.1 37.95 74.4 39.85 78.9 37.55 81.05 33.35 79.1 27.05 78.9 21.85 L 78.85 21.85 Q 78.85 19.75 74.6 16.8 69.55 13.4 61.8 10.9 M 71.4 23.5 Q 71.45 23.7 71.4 23.95 70.9 25.5 66.85 25.25 62.75 25.15 57.5 23.45 57.2 23.35 56.95 23.3 56.7 23.15 56.45 23.1 51.1 21.35 47.8 19 44.45 16.75 45 15.2 45.05 15 45.15 14.8 46.1 13.7 49.6 13.75 53.6 13.95 58.85 15.7 59.15 15.8 59.4 15.95 59.65 16 59.9 16.1 65.1 17.8 68.45 20.05 71.4 22.05 71.4 23.5 M 81.05 78.45 Q 82.75 78.25 83.8 76.9 84.85 75.5 84.55 73.85 84.25 72.15 82.85 71.15 81.45 70.05 79.7 70.2 67.95 71.5 56.1 70.7 69.55 68.5 82.8 66.25 84.55 66.05 85.5 64.6 86.45 63.2 86.05 61.5 85.75 59.85 84.25 58.9 82.75 57.9 81 58.2 68.55 60.25 56.65 61.2 66.7 56.45 77.4 54.05 79.1 53.7 79.95 52.3 80.85 50.9 80.35 49.25 79.9 47.6 78.4 46.65 76.85 45.7 68.8 47.85 60.8 49.95 49.15 54 37.6 58.05 30.9 56.15 27.6 55.15 30 50.45 32.5 45.85 31.05 41.55 29.6 37.3 27.15 34.4 24.75 31.45 22.2 31.9 20.2 32.55 19.8 34.85 21.35 39.65 20.3 43.75 19.1 49.95 16.5 56.2 15.5 58.55 14.9 61.1 L 19.15 83.9 Q 20.05 90.6 25.4 91.15 L 42.1 90.7 Q 52.45 90.85 54.95 90.65 66.3 90.6 77.6 90.6 79.3 90.55 80.45 89.4 81.65 88.1 81.55 86.45 81.45 84.75 80.15 83.55 78.8 82.4 77.1 82.35 66.65 82.4 56.2 81.05 68.65 79.7 81.05 78.45 Z"
         id="path29752" />
    </g>
    <g
       id="Layer8_0_FILL">
      <path
         fill="#313131"
         stroke="none"
         d=" M 93.05 46.85 Q 93.05 36.45 85.7 29.15 78.4 21.8 67.95 21.8 L 32 21.8 Q 21.6 21.8 14.3 29.15 6.95 36.45 6.95 46.85 6.95 46.9 6.95 53.2 7 63.55 14.3 70.85 21.6 78.2 32 78.2 L 67.95 78.2 Q 76.05 78.2 82.35 73.7 84.1 72.45 85.7 70.85 93 63.55 93.05 53.2 93.05 46.9 93.05 46.85 M 82.55 46.85 Q 82.55 46.9 82.55 53.2 82.5 59.25 78.3 63.45 74.05 67.7 67.95 67.7 L 32 67.7 Q 25.95 67.7 21.7 63.45 17.5 59.25 17.45 53.2 17.45 46.9 17.45 46.85 17.45 40.8 21.7 36.55 25.95 32.3 32 32.3 L 67.95 32.3 Q 74.05 32.3 78.3 36.55 82.55 40.8 82.55 46.85 Z"
         id="path29755" />
      <path
         fill="#4F4F4F"
         stroke="none"
         d=" M 82.55 53.2 Q 82.55 46.9 82.55 46.85 82.55 40.8 78.3 36.55 74.05 32.3 67.95 32.3 L 32 32.3 Q 25.95 32.3 21.7 36.55 17.45 40.8 17.45 46.85 17.45 46.9 17.45 53.2 17.5 59.25 21.7 63.45 25.95 67.7 32 67.7 L 67.95 67.7 Q 74.05 67.7 78.3 63.45 82.5 59.25 82.55 53.2 M 39.6 61 L 39.6 39 63.85 50 39.6 61 Z"
         id="path29757" />
      <path
         fill="#9A9A9A"
         stroke="none"
         d=" M 39.6 39 L 39.6 61 63.85 50 39.6 39 Z"
         id="path29759" />
    </g>
    <g
       id="Layer7_0_FILL">
      <path
         fill="#96989D"
         stroke="none"
         d=" M 66.95 29.65 Q 64.7 20.95 57 16.35 49.35 11.95 40.65 14.2 32 16.45 27.55 24.15 23 31.9 25.3 40.45 L 33.1 70.4 Q 35.4 79 43.1 83.55 50.8 88.1 59.4 85.9 68.1 83.6 72.65 75.8 77.05 68.2 74.8 59.5 L 66.95 29.65 M 52.5 24.2 Q 57 26.85 58.3 31.85 L 66.1 61.8 Q 67.4 66.85 64.85 71.3 62.2 75.7 57.15 77.1 52.1 78.4 47.65 75.75 43.15 73.25 41.85 68.2 L 33.95 38.25 Q 32.65 33.15 35.3 28.7 37.9 24.25 42.95 22.95 48 21.55 52.5 24.2 Z"
         id="path29762" />
      <path
         fill="#BCBFC4"
         stroke="none"
         d=" M 58.3 31.85 Q 57 26.85 52.5 24.2 48 21.55 42.95 22.95 37.9 24.25 35.3 28.7 32.65 33.15 33.95 38.25 L 41.85 68.2 Q 43.15 73.25 47.65 75.75 52.1 78.4 57.15 77.1 62.2 75.7 64.85 71.3 67.4 66.85 66.1 61.8 L 58.3 31.85 Z"
         id="path29764" />
    </g>
    <g
       id="Layer6_0_FILL">
      <path
         fill="#313131"
         stroke="none"
         d=" M 89.65 33.85 Q 88.15 32.35 86.5 31.2 80.8 27.2 73.45 27.2 L 73.4 27.2 26.55 27.2 Q 17.15 27.25 10.5 33.85 8.1 36.25 6.6 38.95 3.8 43.85 3.8 50 3.8 56.15 6.6 61.05 8.1 63.8 10.5 66.2 17.15 72.8 26.55 72.85 L 73.4 72.85 73.45 72.85 Q 80.8 72.85 86.5 68.85 88.15 67.7 89.65 66.2 96.25 59.5 96.25 50 96.25 40.55 89.65 33.85 M 85.75 37.75 Q 86.1 38.1 86.5 38.5 90.85 43.35 90.85 50 90.85 56.7 86.5 61.55 86.1 61.95 85.75 62.3 80.7 67.4 73.45 67.4 L 26.55 67.4 Q 19.4 67.4 14.35 62.3 9.25 57.25 9.25 50 9.25 42.8 14.35 37.75 19.4 32.65 26.55 32.65 L 73.45 32.65 Q 80.7 32.65 85.75 37.75 Z"
         id="path29767" />
      <path
         fill="#4F4F4F"
         stroke="none"
         d=" M 86.5 38.5 Q 86.1 38.1 85.75 37.75 80.7 32.65 73.45 32.65 L 26.55 32.65 Q 19.4 32.65 14.35 37.75 9.25 42.8 9.25 50 9.25 57.25 14.35 62.3 19.4 67.4 26.55 67.4 L 73.45 67.4 Q 80.7 67.4 85.75 62.3 86.1 61.95 86.5 61.55 90.85 56.7 90.85 50 90.85 43.35 86.5 38.5 M 49.95 45.7 Q 51.75 45.7 53 46.95 54.25 48.2 54.25 50 54.25 51.8 53 53.05 51.75 54.3 49.95 54.3 48.15 54.3 46.9 53.05 45.65 51.8 45.65 50 45.65 48.2 46.9 46.95 48.15 45.7 49.95 45.7 M 63.85 45.7 Q 65.65 45.7 66.9 46.95 68.15 48.2 68.15 50 68.15 51.8 66.9 53.05 65.65 54.3 63.85 54.3 62.05 54.3 60.8 53.05 59.55 51.8 59.55 50 59.55 48.2 60.8 46.95 62.05 45.7 63.85 45.7 M 36.1 45.7 Q 37.9 45.7 39.15 46.95 40.4 48.2 40.4 50 40.4 51.8 39.15 53.05 37.9 54.3 36.1 54.3 34.3 54.3 33.05 53.05 31.8 51.8 31.8 50 31.8 48.2 33.05 46.95 34.3 45.7 36.1 45.7 Z"
         id="path29769" />
      <path
         fill="#D7D7D7"
         stroke="none"
         d=" M 39.15 46.95 Q 37.9 45.7 36.1 45.7 34.3 45.7 33.05 46.95 31.8 48.2 31.8 50 31.8 51.8 33.05 53.05 34.3 54.3 36.1 54.3 37.9 54.3 39.15 53.05 40.4 51.8 40.4 50 40.4 48.2 39.15 46.95 M 66.9 46.95 Q 65.65 45.7 63.85 45.7 62.05 45.7 60.8 46.95 59.55 48.2 59.55 50 59.55 51.8 60.8 53.05 62.05 54.3 63.85 54.3 65.65 54.3 66.9 53.05 68.15 51.8 68.15 50 68.15 48.2 66.9 46.95 M 53 46.95 Q 51.75 45.7 49.95 45.7 48.15 45.7 46.9 46.95 45.65 48.2 45.65 50 45.65 51.8 46.9 53.05 48.15 54.3 49.95 54.3 51.75 54.3 53 53.05 54.25 51.8 54.25 50 54.25 48.2 53 46.95 Z"
         id="path29771" />
    </g>
    <g
       id="Layer5_0_FILL">
      <path
         fill="#404040"
         stroke="none"
         d=" M 96.45 38.2 Q 93.4 25.7 83.7 16.05 83.6 15.95 83.6 15.85 69.75 2.3 50.05 2.3 30.15 2.3 16.05 16.05 2.2 30.1 2.2 50 2.2 69.75 16.05 83.7 16.1 83.75 16.2 83.9 30.25 97.75 50.05 97.75 69.8 97.75 83.7 83.75 83.7 83.7 83.8 83.65 L 83.9 83.65 Q 96.8 70.65 97.75 52.75 97.8 51.4 97.8 50 97.8 43.85 96.45 38.2 M 92.45 50 Q 92.45 51.4 92.4 52.75 91.45 68.55 80 80.05 67.6 92.4 50.05 92.4 32.45 92.4 19.95 80.05 7.55 67.55 7.55 50 7.55 32.5 19.85 20.1 19.85 19.9 19.95 19.9 32.45 7.5 50.05 7.5 67.6 7.5 80 19.9 88.05 28 90.95 38.2 92.45 43.75 92.45 50 M 88.65 52.25 Q 88.7 51.15 88.7 50 88.7 45 87.6 40.45 85.15 30.35 77.3 22.55 77.2 22.45 77.2 22.35 66 11.35 50 11.35 33.9 11.35 22.5 22.55 11.25 33.9 11.25 50 11.25 66.05 22.5 77.35 22.55 77.4 22.6 77.5 34 88.7 50 88.7 66.05 88.7 77.3 77.4 77.3 77.35 77.4 77.3 L 77.45 77.3 Q 87.9 66.75 88.65 52.25 M 84.4 50 Q 84.4 51.15 84.35 52.25 83.6 65.05 74.25 74.35 64.25 84.4 50 84.4 35.75 84.4 25.65 74.35 15.55 64.25 15.55 50 15.55 35.85 25.55 25.8 25.55 25.65 25.65 25.65 35.75 15.55 50 15.55 64.25 15.55 74.25 25.65 80.8 32.2 83.15 40.45 84.4 44.95 84.4 50 Z"
         id="path29774" />
      <path
         fill="#5D5D5D"
         stroke="none"
         d=" M 92.4 52.75 Q 92.45 51.4 92.45 50 92.45 43.75 90.95 38.2 88.05 28 80 19.9 67.6 7.5 50.05 7.5 32.45 7.5 19.95 19.9 19.85 19.9 19.85 20.1 7.55 32.5 7.55 50 7.55 67.55 19.95 80.05 32.45 92.4 50.05 92.4 67.6 92.4 80 80.05 91.45 68.55 92.4 52.75 M 88.7 50 Q 88.7 51.15 88.65 52.25 87.9 66.75 77.45 77.3 L 77.4 77.3 Q 77.3 77.35 77.3 77.4 66.05 88.7 50 88.7 34 88.7 22.6 77.5 22.55 77.4 22.5 77.35 11.25 66.05 11.25 50 11.25 33.9 22.5 22.55 33.9 11.35 50 11.35 66 11.35 77.2 22.35 77.2 22.45 77.3 22.55 85.15 30.35 87.6 40.45 88.7 45 88.7 50 Z"
         id="path29776" />
      <path
         fill="#D7D7D7"
         stroke="none"
         d=" M 84.35 52.25 Q 84.4 51.15 84.4 50 84.4 44.95 83.15 40.45 80.8 32.2 74.25 25.65 64.25 15.55 50 15.55 35.75 15.55 25.65 25.65 25.55 25.65 25.55 25.8 15.55 35.85 15.55 50 15.55 64.25 25.65 74.35 35.75 84.4 50 84.4 64.25 84.4 74.25 74.35 83.6 65.05 84.35 52.25 M 70.25 30 Q 74.9 34.7 76.9 40.45 78.45 44.9 78.45 50 78.45 51.15 78.4 52.25 77.65 62.55 70.15 70.15 61.8 78.45 50 78.45 38.3 78.45 30 70.25 29.95 70.15 29.9 70.1 21.6 61.7 21.6 50 21.6 38.2 29.9 29.9 38.2 21.6 50 21.6 61.7 21.6 70.1 29.9 70.15 29.95 70.25 30 Z"
         id="path29778" />
      <path
         fill="#FFFFFF"
         stroke="none"
         d=" M 76.9 40.45 Q 74.9 34.7 70.25 30 70.15 29.95 70.1 29.9 61.7 21.6 50 21.6 38.2 21.6 29.9 29.9 21.6 38.2 21.6 50 21.6 61.7 29.9 70.1 29.95 70.15 30 70.25 38.3 78.45 50 78.45 61.8 78.45 70.15 70.15 77.65 62.55 78.4 52.25 78.45 51.15 78.45 50 78.45 44.9 76.9 40.45 M 67.75 32.3 Q 71.45 36 73.25 40.45 75 44.85 75 50 75 51.15 74.95 52.25 74.2 61.2 67.75 67.75 60.35 75 50 75 39.6 75 32.3 67.75 24.95 60.35 24.95 50 24.95 39.6 32.25 32.3 L 32.3 32.25 Q 39.6 24.95 50 24.95 60.35 24.95 67.75 32.3 Z"
         id="path29780" />
      <path
         fill="#F5F5F5"
         stroke="none"
         d=" M 73.25 40.45 Q 71.45 36 67.75 32.3 60.35 24.95 50 24.95 39.6 24.95 32.3 32.25 L 32.25 32.3 Q 24.95 39.6 24.95 50 24.95 60.35 32.3 67.75 39.6 75 50 75 60.35 75 67.75 67.75 74.2 61.2 74.95 52.25 75 51.15 75 50 75 44.85 73.25 40.45 M 43.35 38.35 L 48.8 38.35 48.8 58.1 58.9 58.1 58.9 63.15 43.35 63.15 43.35 38.35 Z"
         id="path29782" />
      <path
         fill="#9A9A9A"
         stroke="none"
         d=" M 48.8 38.35 L 43.35 38.35 43.35 63.15 58.9 63.15 58.9 58.1 48.8 58.1 48.8 38.35 Z"
         id="path29784" />
    </g>
    <g
       id="Layer4_0_FILL">
      <path
         fill="#1E1E1E"
         stroke="none"
         d=" M 92.75 46.8 Q 92.45 31.65 83.1 28.05 45.55 18.7 19.1 21.8 8.35 24.2 7.3 40.2 6.3 56.15 14.05 64.6 21.8 73.1 37.9 76.4 59.55 79.9 81.5 78.55 85.85 76.75 87.8 71.95 90.9 64.45 92.15 55.5 92.55 51.3 92.75 46.8 M 76 33.9 Q 80.05 35.6 79.85 43.4 L 78.15 54.4 76.75 60.75 Q 75.8 64.85 71.25 65.55 43.4 65.15 35.15 63.4 26.95 61.6 22.75 58 18.55 54.3 15.75 49 13 43.65 13.2 37.2 13.35 30.75 18.95 27.9 46.7 25.85 76 33.9 Z"
         id="path29787" />
      <path
         fill="#3B3B3B"
         stroke="none"
         d=" M 79.85 43.4 Q 80.05 35.6 76 33.9 46.7 25.85 18.95 27.9 13.35 30.75 13.2 37.2 13 43.65 15.75 49 18.55 54.3 22.75 58 26.95 61.6 35.15 63.4 43.4 65.15 71.25 65.55 75.8 64.85 76.75 60.75 L 78.15 54.4 79.85 43.4 M 55.15 36.65 L 54.1 47.9 59.8 48.45 59.5 51.35 50.7 50.55 52.05 36.4 55.15 36.65 M 67.85 40.4 Q 67 40.3 66.5 40.8 66 41.3 65.85 42 L 62.9 41.55 Q 63.05 40.45 63.55 39.7 64 38.9 64.75 38.45 65.45 37.95 66.35 37.75 67.3 37.55 68.3 37.65 69.25 37.75 70.05 38.05 70.85 38.45 71.4 39 72 39.6 72.25 40.45 72.55 41.25 72.45 42.3 72.35 43 72.15 43.55 71.95 44.1 71.65 44.5 71.35 44.95 71 45.25 70.65 45.65 70.25 45.95 L 65.6 49.25 71.8 49.85 71.55 52.5 61.8 51.6 62.1 48.4 68 44 Q 68.45 43.6 68.9 43.15 69.4 42.75 69.45 42.1 69.5 41.4 69.05 40.9 68.55 40.45 67.85 40.4 Z"
         id="path29789" />
      <path
         fill="#8C8C8C"
         stroke="none"
         d=" M 66.5 40.8 Q 67 40.3 67.85 40.4 68.55 40.45 69.05 40.9 69.5 41.4 69.45 42.1 69.4 42.75 68.9 43.15 68.45 43.6 68 44 L 62.1 48.4 61.8 51.6 71.55 52.5 71.8 49.85 65.6 49.25 70.25 45.95 Q 70.65 45.65 71 45.25 71.35 44.95 71.65 44.5 71.95 44.1 72.15 43.55 72.35 43 72.45 42.3 72.55 41.25 72.25 40.45 72 39.6 71.4 39 70.85 38.45 70.05 38.05 69.25 37.75 68.3 37.65 67.3 37.55 66.35 37.75 65.45 37.95 64.75 38.45 64 38.9 63.55 39.7 63.05 40.45 62.9 41.55 L 65.85 42 Q 66 41.3 66.5 40.8 M 54.1 47.9 L 55.15 36.65 52.05 36.4 50.7 50.55 59.5 51.35 59.8 48.45 54.1 47.9 Z"
         id="path29791" />
    </g>
    <g
       id="Layer3_0_FILL">
      <path
         fill="#353535"
         stroke="none"
         d=" M 84.95 77.8 Q 83.7 50.5 84.95 23.15 84.95 17.3 79.1 17.3 L 21.9 17.3 Q 16.05 17.3 16.05 23.15 17.3 50.5 16.05 77.8 16.05 83.65 21.9 83.65 L 79.1 83.65 Q 84.95 83.65 84.95 77.8 M 54.15 26.45 L 55.4 26.45 71.55 26.45 Q 75.8 26.45 75.8 30.7 74.65 50.5 75.8 70.25 75.8 74.45 71.55 74.45 L 55.4 74.45 54.15 74.45 29.45 74.45 Q 25.2 74.45 25.2 70.25 26.35 50.5 25.2 30.7 25.2 26.45 29.45 26.45 L 54.15 26.45 Z"
         id="path29794" />
      <path
         fill="#595959"
         stroke="none"
         d=" M 55.4 26.45 L 54.15 26.45 29.45 26.45 Q 25.2 26.45 25.2 30.7 26.35 50.5 25.2 70.25 25.2 74.45 29.45 74.45 L 54.15 74.45 55.4 74.45 71.55 74.45 Q 75.8 74.45 75.8 70.25 74.65 50.5 75.8 30.7 75.8 26.45 71.55 26.45 L 55.4 26.45 M 51.6 38.8 L 57.1 38.8 57.1 55.3 Q 57.1 57 56.8 58.65 56.5 60.25 55.65 61.5 54.8 62.75 53.25 63.5 51.7 64.25 49.15 64.25 46.25 64.25 44.2 62.85 42.15 61.45 41.55 58.45 L 46.55 57.25 Q 46.65 58.15 47.4 58.75 48.1 59.4 49 59.4 49.95 59.4 50.5 58.9 51 58.45 51.25 57.75 51.5 57.05 51.55 56.25 51.6 55.4 51.6 54.7 L 51.6 38.8 Z"
         id="path29796" />
      <path
         fill="#CDCDCD"
         stroke="none"
         d=" M 57.1 38.8 L 51.6 38.8 51.6 54.7 Q 51.6 55.4 51.55 56.25 51.5 57.05 51.25 57.75 51 58.45 50.5 58.9 49.95 59.4 49 59.4 48.1 59.4 47.4 58.75 46.65 58.15 46.55 57.25 L 41.55 58.45 Q 42.15 61.45 44.2 62.85 46.25 64.25 49.15 64.25 51.7 64.25 53.25 63.5 54.8 62.75 55.65 61.5 56.5 60.25 56.8 58.65 57.1 57 57.1 55.3 L 57.1 38.8 Z"
         id="path29798" />
    </g>
    <g
       id="Layer2_0_FILL">
      <path
         fill="#D7D7D7"
         stroke="none"
         d=" M 84.95 77.8 Q 83.7 50.5 84.95 23.15 84.95 17.3 79.1 17.3 L 21.9 17.3 Q 16.05 17.3 16.05 23.15 17.3 50.5 16.05 77.8 16.05 83.65 21.9 83.65 L 79.1 83.65 Q 84.95 83.65 84.95 77.8 M 55.4 26.45 L 71.55 26.45 Q 75.8 26.45 75.8 30.7 74.65 50.5 75.8 70.25 75.8 74.45 71.55 74.45 L 55.4 74.45 54.15 74.45 29.45 74.45 Q 25.2 74.45 25.2 70.25 26.35 50.5 25.2 30.7 25.2 26.45 29.45 26.45 L 54.15 26.45 55.4 26.45 Z"
         id="path29801" />
      <path
         fill="#F5F5F5"
         stroke="none"
         d=" M 71.55 26.45 L 55.4 26.45 54.15 26.45 29.45 26.45 Q 25.2 26.45 25.2 30.7 26.35 50.5 25.2 70.25 25.2 74.45 29.45 74.45 L 54.15 74.45 55.4 74.45 71.55 74.45 Q 75.8 74.45 75.8 70.25 74.65 50.5 75.8 30.7 75.8 26.45 71.55 26.45 M 51.6 38.8 L 57.1 38.8 57.1 55.3 Q 57.1 57 56.8 58.65 56.5 60.25 55.65 61.5 54.8 62.75 53.25 63.5 51.7 64.25 49.15 64.25 46.25 64.25 44.2 62.85 42.15 61.45 41.55 58.45 L 46.55 57.25 Q 46.65 58.15 47.4 58.75 48.1 59.4 49 59.4 49.95 59.4 50.5 58.9 51 58.45 51.25 57.75 51.5 57.05 51.55 56.25 51.6 55.4 51.6 54.7 L 51.6 38.8 Z"
         id="path29803" />
      <path
         fill="#404040"
         stroke="none"
         d=" M 57.1 38.8 L 51.6 38.8 51.6 54.7 Q 51.6 55.4 51.55 56.25 51.5 57.05 51.25 57.75 51 58.45 50.5 58.9 49.95 59.4 49 59.4 48.1 59.4 47.4 58.75 46.65 58.15 46.55 57.25 L 41.55 58.45 Q 42.15 61.45 44.2 62.85 46.25 64.25 49.15 64.25 51.7 64.25 53.25 63.5 54.8 62.75 55.65 61.5 56.5 60.25 56.8 58.65 57.1 57 57.1 55.3 L 57.1 38.8 Z"
         id="path29805" />
    </g>
    <g
       id="Layer1_0_FILL">
      <path
         fill="#313131"
         stroke="none"
         d=" M 41.3 13.6 Q 41.75 13.15 42.35 13.15 L 57.65 13.15 Q 58.25 13.15 58.7 13.6 59.15 14.05 59.15 14.65 L 59.15 34.85 Q 59.15 37.35 60.9 39.1 61.25 39.45 61.65 39.8 62.3 38 63.15 36.35 62.65 35.7 62.65 34.85 L 62.65 12.8 Q 62 10.15 59.55 9.65 L 40.45 9.65 Q 38.1 10.15 37.35 12.8 L 37.35 34.85 Q 37.35 35.9 36.6 36.65 35.9 37.35 34.85 37.35 L 12.8 37.35 Q 10.15 38 9.65 40.45 L 9.65 59.55 Q 10.15 61.9 12.75 62.65 L 34.85 62.65 Q 35.9 62.65 36.6 63.4 37.35 64.1 37.35 65.15 L 37.35 87.25 Q 38.1 89.85 40.45 90.35 L 59.55 90.35 Q 62 89.85 62.65 87.2 L 62.65 65.15 Q 62.65 64.3 63.15 63.65 62.3 62 61.65 60.25 61.25 60.55 60.9 60.9 59.15 62.65 59.15 65.15 L 59.15 85.35 Q 59.15 85.95 58.7 86.4 L 58.7 86.45 Q 58.25 86.85 57.65 86.85 L 42.35 86.85 Q 41.75 86.85 41.3 86.45 L 41.25 86.4 Q 40.85 85.95 40.85 85.35 L 40.85 65.15 Q 40.85 62.65 39.1 60.9 37.35 59.15 34.85 59.15 L 14.65 59.15 Q 14.05 59.15 13.6 58.75 L 13.55 58.7 Q 13.15 58.25 13.15 57.65 L 13.15 42.35 Q 13.15 41.75 13.55 41.3 L 13.6 41.3 Q 14.05 40.85 14.65 40.85 L 34.85 40.85 Q 37.35 40.85 39.1 39.1 40.85 37.35 40.85 34.85 L 40.85 14.65 Q 40.85 14.05 41.25 13.6 L 41.3 13.6 Z"
         id="path29808" />
      <path
         fill="#4F4F4F"
         stroke="none"
         d=" M 42.35 13.15 Q 41.75 13.15 41.3 13.6 L 41.25 13.6 Q 40.85 14.05 40.85 14.65 L 40.85 34.85 Q 40.85 37.35 39.1 39.1 37.35 40.85 34.85 40.85 L 14.65 40.85 Q 14.05 40.85 13.6 41.3 L 13.55 41.3 Q 13.15 41.75 13.15 42.35 L 13.15 57.65 Q 13.15 58.25 13.55 58.7 L 13.6 58.75 Q 14.05 59.15 14.65 59.15 L 34.85 59.15 Q 37.35 59.15 39.1 60.9 40.85 62.65 40.85 65.15 L 40.85 85.35 Q 40.85 85.95 41.25 86.4 L 41.3 86.45 Q 41.75 86.85 42.35 86.85 L 57.65 86.85 Q 58.25 86.85 58.7 86.45 L 58.7 86.4 Q 59.15 85.95 59.15 85.35 L 59.15 65.15 Q 59.15 62.65 60.9 60.9 61.25 60.55 61.65 60.25 60 55.45 60 50 60 44.55 61.65 39.8 61.25 39.45 60.9 39.1 59.15 37.35 59.15 34.85 L 59.15 14.65 Q 59.15 14.05 58.7 13.6 58.25 13.15 57.65 13.15 L 42.35 13.15 M 55.05 25.95 L 44.9 25.95 50 17 55.05 25.95 M 25.95 55.05 L 17 50 25.95 44.9 25.95 55.05 M 44.9 74.05 L 55.05 74.05 50 83 44.9 74.05 Z"
         id="path29810" />
      <path
         fill="#9A9A9A"
         stroke="none"
         d=" M 55.05 74.05 L 44.9 74.05 50 83 55.05 74.05 M 17 50 L 25.95 55.05 25.95 44.9 17 50 M 44.9 25.95 L 55.05 25.95 50 17 44.9 25.95 Z"
         id="path29812" />
      <path
         fill="#1B1B1B"
         stroke="none"
         d=" M 67.65 12.8 Q 67.7 12.45 67.6 12.1 L 67.6 12 Q 67.6 11.85 67.55 11.8 66.15 5.5 60.25 4.7 L 60.15 4.7 Q 60.1 4.65 60 4.65 59.8 4.65 59.55 4.65 L 40.4 4.65 Q 40.1 4.6 39.8 4.7 39.75 4.7 39.65 4.7 34.05 5.6 32.5 11.6 32.35 12 32.35 12.5 L 32.35 32.35 12.75 32.35 Q 12.45 32.3 12.05 32.4 12 32.4 11.95 32.4 11.85 32.4 11.75 32.45 5.5 33.85 4.7 39.7 4.7 39.75 4.65 39.85 4.65 40.05 4.65 40.2 4.65 40.25 4.65 40.3 L 4.65 59.6 Q 4.6 59.9 4.65 60.2 L 4.7 60.35 Q 5.6 65.95 11.6 67.5 12 67.65 12.5 67.65 L 32.35 67.65 32.35 87.5 Q 32.35 88 32.5 88.4 34.05 94.4 39.65 95.3 L 39.8 95.35 Q 40.1 95.4 40.4 95.35 L 59.7 95.35 Q 59.75 95.35 59.8 95.35 59.95 95.35 60.15 95.35 L 60.25 95.3 Q 66.15 94.5 67.55 88.2 67.55 88.15 67.55 88.1 L 67.6 88.05 67.6 87.9 Q 67.7 87.55 67.65 87.25 L 67.65 70.15 Q 64.9 67.1 63.15 63.65 62.65 64.3 62.65 65.15 L 62.65 87.2 Q 62 89.85 59.55 90.35 L 40.45 90.35 Q 38.1 89.85 37.35 87.25 L 37.35 65.15 Q 37.35 64.1 36.6 63.4 35.9 62.65 34.85 62.65 L 12.75 62.65 Q 10.15 61.9 9.65 59.55 L 9.65 40.45 Q 10.15 38 12.8 37.35 L 34.85 37.35 Q 35.9 37.35 36.6 36.65 37.35 35.9 37.35 34.85 L 37.35 12.8 Q 38.1 10.15 40.45 9.65 L 59.55 9.65 Q 62 10.15 62.65 12.8 L 62.65 34.85 Q 62.65 35.7 63.15 36.35 64.9 32.9 67.65 29.85 L 67.65 12.8 M 74.05 44.9 L 74.05 55.05 83 50 74.05 44.9 Z"
         id="path29814" />
      <path
         fill="#F5F5F5"
         stroke="none"
         d=" M 86.85 42.35 Q 86.85 41.75 86.4 41.3 85.95 40.85 85.35 40.85 L 65.15 40.85 Q 63.2 40.85 61.65 39.8 60 44.55 60 50 60 55.45 61.65 60.25 63.2 59.15 65.15 59.15 L 85.35 59.15 Q 85.95 59.15 86.4 58.75 L 86.4 58.7 Q 86.85 58.25 86.85 57.65 L 86.85 42.35 M 74.05 55.05 L 74.05 44.9 83 50 74.05 55.05 Z"
         id="path29816" />
      <path
         fill="#D7D7D7"
         stroke="none"
         d=" M 90.35 40.45 Q 89.85 38 87.2 37.35 L 65.15 37.35 Q 64.1 37.35 63.35 36.65 63.25 36.5 63.15 36.35 62.3 38 61.65 39.8 63.2 40.85 65.15 40.85 L 85.35 40.85 Q 85.95 40.85 86.4 41.3 86.85 41.75 86.85 42.35 L 86.85 57.65 Q 86.85 58.25 86.4 58.7 L 86.4 58.75 Q 85.95 59.15 85.35 59.15 L 65.15 59.15 Q 63.2 59.15 61.65 60.25 62.3 62 63.15 63.65 63.25 63.5 63.35 63.4 64.1 62.65 65.15 62.65 L 87.2 62.65 Q 89.85 61.9 90.35 59.55 L 90.35 40.45 Z"
         id="path29818" />
      <path
         fill="url(#Gradient_16)"
         stroke="none"
         d=" M 88.15 32.45 L 88.1 32.45 Q 88.05 32.4 88 32.4 L 87.9 32.4 Q 87.55 32.3 87.25 32.35 L 67.65 32.35 67.65 29.85 Q 64.9 32.9 63.15 36.35 63.25 36.5 63.35 36.65 64.1 37.35 65.15 37.35 L 87.2 37.35 Q 89.85 38 90.35 40.45 L 90.35 59.55 Q 89.85 61.9 87.2 62.65 L 65.15 62.65 Q 64.1 62.65 63.35 63.4 63.25 63.5 63.15 63.65 64.9 67.1 67.65 70.15 L 67.65 67.65 87.5 67.65 Q 88 67.65 88.4 67.5 94.4 65.95 95.3 60.35 95.3 60.25 95.3 60.2 95.4 59.9 95.35 59.6 L 95.35 40.3 Q 95.35 40.25 95.35 40.2 95.35 40.05 95.3 39.85 L 95.3 39.75 Q 94.5 33.85 88.15 32.45 Z"
         id="path29820" />
    </g>
    <g
       id="Layer0_0_FILL">
      <path
         fill="#1B1B1B"
         stroke="none"
         d=" M 8.2 67.6 Q 11.5 75.5 18.05 82.05 24.55 88.55 32.45 91.85 L 32.45 67.6 8.2 67.6 M 28.95 86.15 Q 24.45 83.5 20.5 79.6 16.55 75.6 13.85 71.1 L 28.95 71.1 28.95 86.15 M 8.25 32.45 L 32.45 32.45 32.45 8.35 Q 24.55 11.6 18.05 18.1 11.55 24.6 8.25 32.45 M 20.5 20.6 Q 24.45 16.65 28.95 14 L 28.95 28.95 13.95 28.95 Q 16.6 24.5 20.5 20.6 M 81.95 82.05 Q 88.5 75.5 91.8 67.6 L 67.6 67.6 67.6 91.85 Q 75.45 88.55 81.95 82.05 M 71.1 86.15 L 71.1 71.1 86.1 71.1 Q 83.45 75.6 79.45 79.6 75.55 83.5 71.1 86.15 M 91.7 32.45 Q 88.45 24.6 81.95 18.1 75.45 11.6 67.6 8.35 L 67.6 32.45 91.7 32.45 M 71.1 14 Q 75.55 16.65 79.45 20.6 83.4 24.5 86.05 28.95 L 71.1 28.95 71.1 14 Z"
         id="path29823" />
      <path
         fill="#282828"
         stroke="none"
         d=" M 20.5 79.6 Q 24.45 83.5 28.95 86.15 L 28.95 71.1 13.85 71.1 Q 16.55 75.6 20.5 79.6 M 28.95 14 Q 24.45 16.65 20.5 20.6 16.6 24.5 13.95 28.95 L 28.95 28.95 28.95 14 M 71.1 71.1 L 71.1 86.15 Q 75.55 83.5 79.45 79.6 83.45 75.6 86.1 71.1 L 71.1 71.1 M 79.45 20.6 Q 75.55 16.65 71.1 14 L 71.1 28.95 86.05 28.95 Q 83.4 24.5 79.45 20.6 Z"
         id="path29825" />
      <path
         fill="url(#Gradient_17)"
         stroke="none"
         d=" M 91.8 67.6 Q 95.15 59.55 95.15 50.1 95.15 40.55 91.7 32.45 L 67.6 32.45 67.6 8.35 Q 59.5 4.95 50 4.95 40.5 4.95 32.45 8.35 L 32.45 32.45 8.25 32.45 Q 4.85 40.55 4.85 50.1 4.85 59.55 8.2 67.6 L 32.45 67.6 32.45 91.85 Q 40.5 95.2 50 95.2 59.5 95.2 67.6 91.85 L 67.6 67.6 91.8 67.6 M 87.65 50.1 Q 87.65 55.35 86.4 60.1 L 67.6 60.1 Q 64.5 60.1 62.3 62.3 60.1 64.5 60.1 67.6 L 60.1 86.45 Q 55.3 87.7 50 87.7 44.7 87.7 39.95 86.45 L 39.95 67.6 Q 39.95 64.5 37.75 62.3 35.55 60.1 32.45 60.1 L 13.55 60.1 Q 12.35 55.35 12.35 50.1 12.35 44.75 13.6 39.95 L 32.45 39.95 Q 35.55 39.95 37.75 37.75 39.95 35.55 39.95 32.45 L 39.95 13.7 Q 44.7 12.45 50 12.45 55.3 12.45 60.1 13.7 L 60.1 32.45 Q 60.1 35.55 62.3 37.75 64.5 39.95 67.6 39.95 L 86.4 39.95 Q 87.65 44.75 87.65 50.1 Z"
         id="path29827" />
      <path
         fill="url(#Gradient_18)"
         stroke="none"
         d=" M 86.4 60.1 Q 87.65 55.35 87.65 50.1 87.65 44.75 86.4 39.95 L 67.6 39.95 Q 64.5 39.95 62.3 37.75 60.1 35.55 60.1 32.45 L 60.1 13.7 Q 55.3 12.45 50 12.45 44.7 12.45 39.95 13.7 L 39.95 32.45 Q 39.95 35.55 37.75 37.75 35.55 39.95 32.45 39.95 L 13.6 39.95 Q 12.35 44.75 12.35 50.1 12.35 55.35 13.55 60.1 L 32.45 60.1 Q 35.55 60.1 37.75 62.3 39.95 64.5 39.95 67.6 L 39.95 86.45 Q 44.7 87.7 50 87.7 55.3 87.7 60.1 86.45 L 60.1 67.6 Q 60.1 64.5 62.3 62.3 64.5 60.1 67.6 60.1 L 86.4 60.1 Z"
         id="path29829" />
    </g>
    <path
       id="Layer19_0_1_STROKES"
       stroke="#A0A0A0"
       stroke-width="4"
       stroke-linejoin="round"
       stroke-linecap="round"
       fill="none"
       d=" M 84.25 44.8 Q 85.05 50.15 84.3 55.25 L 66.3 58.85 Q 63.5 59.35 61.55 61.35 59.55 63.3 59 66.1 L 55.35 84.3 Q 50.25 85.05 44.95 84.25 L 41.35 66.15 Q 40.8 63.4 38.8 61.45 36.85 59.4 34.1 58.9 L 15.8 55.25 Q 15.05 50.15 15.85 44.8 L 34.05 41.2 Q 36.85 40.7 38.8 38.7 40.8 36.7 41.35 33.95 L 44.95 15.85 Q 50.25 15.05 55.35 15.8 L 59 34 Q 59.55 36.7 61.55 38.7 63.5 40.7 66.3 41.2 L 84.25 44.8 Z" />
    <path
       id="Layer19_0_2_STROKES"
       stroke="#1F1F1F"
       stroke-width="4"
       stroke-linejoin="round"
       stroke-linecap="round"
       fill="none"
       d=" M 90.375 37.325 L 90.45 37.35 Q 94.3 50.55 90.45 62.65 L 90.375 62.675 Q 87.464453125 72.235546875 79.85 79.85 72.278125 87.421875 62.775 90.35 L 62.75 90.45 Q 50.7 94.3 37.45 90.45 L 37.45 90.425 Q 27.80703125 87.50703125 20.15 79.85 12.53125 72.23125 9.625 62.65 L 9.6 62.65 Q 5.75 50.55 9.6 37.35 L 9.625 37.35 Q 12.5310546875 27.7689453125 20.15 20.15 28.7796875 11.5203125 39.925 8.925 L 44.25 8.125 Q 53.8244140625 6.7482421875 62.75 9.6 L 62.75 9.65 Q 72.2736328125 12.5736328125 79.85 20.15 87.464453125 27.764453125 90.375 37.325 L 67.4 32.75 62.75 9.65 M 9.625 37.35 L 32.9 32.75 37.45 9.6 Q 38.696484375 9.237890625 39.925 8.925 M 37.45 90.425 L 32.9 67.3 9.625 62.65 M 90.375 62.675 L 67.4 67.25 62.775 90.35" />
    <path
       id="Layer18_0_1_STROKES"
       stroke="#1B1B1B"
       stroke-width="5"
       stroke-linejoin="round"
       stroke-linecap="round"
       fill="none"
       d=" M 34.85 34.85 L 34.85 12.5 Q 35.95 7.85 40.2 7.15 L 59.8 7.15 Q 64.15 7.75 65.15 12.5 L 65.15 34.85 87.5 34.85 Q 92.15 35.95 92.85 40.2 L 92.85 59.8 Q 92.25 64.15 87.5 65.15 L 65.15 65.15 65.15 87.5 Q 64.15 92.25 59.8 92.85 L 40.2 92.85 Q 35.95 92.15 34.85 87.5 L 34.85 65.15" />
    <path
       id="Layer18_0_2_STROKES"
       stroke="url(#Gradient_10)"
       stroke-width="4"
       stroke-linejoin="round"
       stroke-linecap="round"
       fill="none"
       d=" M 85.35 42.35 L 85.35 57.65 65.15 57.65 Q 62.05 57.65 59.85 59.85 57.65 62.05 57.65 65.15 L 57.65 85.35 42.35 85.35 42.35 65.15 Q 42.35 62.05 40.15 59.85 37.95 57.65 34.85 57.65 L 14.65 57.65 14.65 42.35 34.85 42.35 Q 37.95 42.35 40.15 40.15 42.35 37.95 42.35 34.85 L 42.35 14.65 57.65 14.65 57.65 34.85 Q 57.65 37.95 59.85 40.15 62.05 42.35 65.15 42.35 L 85.35 42.35 Z" />
    <path
       id="Layer18_0_3_STROKES"
       stroke="url(#Gradient_11)"
       stroke-width="5"
       stroke-linejoin="round"
       stroke-linecap="round"
       fill="none"
       d=" M 34.85 65.15 L 12.5 65.15 Q 7.75 64.15 7.15 59.8 L 7.15 40.2 Q 7.85 35.95 12.5 34.85 L 34.85 34.85" />
    <path
       id="Layer17_0_1_STROKES"
       stroke="#202020"
       stroke-width="4"
       stroke-linejoin="round"
       stroke-linecap="round"
       fill="none"
       d=" M 66.05 8.25 L 62.65 4.9 37.35 4.9 33.95 8.25 35.15 28.2 44.55 40.6 55.45 40.6 64.85 28.2 66.05 8.25 Z M 8.25 33.95 L 4.9 37.35 4.9 62.65 8.25 66.05 28.2 64.85 40.6 55.45 40.6 44.55 28.2 35.15 8.25 33.95 Z M 37.35 95.1 L 33.95 91.75 35.15 71.8 44.55 59.4 55.45 59.4 64.85 71.8 66.05 91.75 62.65 95.1 37.35 95.1 Z" />
    <path
       id="Layer17_0_2_STROKES"
       stroke="#626262"
       stroke-width="4"
       stroke-linejoin="round"
       stroke-linecap="round"
       fill="none"
       d=" M 49.35 33.9 L 48.1 33.9 41.85 26.1 40.95 11.6 59.05 11.6 58.15 26.1 51.9 33.9 50.65 33.9 M 33.9 50.65 L 33.9 51.9 26.1 58.15 11.6 59.05 11.6 40.95 26.1 41.85 33.9 48.1 33.9 49.35 M 49.35 66.1 L 48.1 66.1 41.85 73.9 40.95 88.4 59.05 88.4 58.15 73.9 51.9 66.1 50.65 66.1" />
    <path
       id="Layer17_0_3_STROKES"
       stroke="#404040"
       stroke-width="4"
       stroke-linejoin="round"
       stroke-linecap="round"
       fill="none"
       d=" M 91.75 33.95 L 95.1 37.35 95.1 62.65 91.75 66.05 71.8 64.85 59.4 55.45 59.4 44.55 71.8 35.15 91.75 33.95 Z" />
    <path
       id="Layer17_0_4_STROKES"
       stroke="#FFFFFF"
       stroke-width="4"
       stroke-linejoin="round"
       stroke-linecap="round"
       fill="none"
       d=" M 66.1 50.65 L 66.1 51.9 73.9 58.15 88.4 59.05 88.4 40.95 73.9 41.85 66.1 48.1 66.1 49.35" />
    <path
       id="Layer16_0_1_STROKES"
       stroke="#202020"
       stroke-width="4"
       stroke-linejoin="round"
       stroke-linecap="round"
       fill="none"
       d=" M 91.75 33.95 L 95.1 37.35 95.1 62.65 91.75 66.05 71.8 64.85 59.4 55.45 59.4 44.55 71.8 35.15 91.75 33.95 Z M 62.65 4.9 L 66.05 8.25 64.85 28.2 55.45 40.6 44.55 40.6 35.15 28.2 33.95 8.25 37.35 4.9 62.65 4.9 Z M 28.2 35.15 L 8.25 33.95 4.9 37.35 4.9 62.65 8.25 66.05 28.2 64.85 40.6 55.45 40.6 44.55 28.2 35.15 Z M 35.15 71.8 L 33.95 91.75 37.35 95.1 62.65 95.1 66.05 91.75 64.85 71.8 55.45 59.4 44.55 59.4 35.15 71.8 Z" />
    <path
       id="Layer16_0_2_STROKES"
       stroke="#626262"
       stroke-width="4"
       stroke-linejoin="round"
       stroke-linecap="round"
       fill="none"
       d=" M 66.1 50.65 L 66.1 51.9 73.9 58.15 88.4 59.05 88.4 40.95 73.9 41.85 66.1 48.1 66.1 49.35 M 50.65 33.9 L 51.9 33.9 58.15 26.1 59.05 11.6 40.95 11.6 41.85 26.1 48.1 33.9 49.35 33.9 M 33.9 50.65 L 33.9 51.9 26.1 58.15 11.6 59.05 11.6 40.95 26.1 41.85 33.9 48.1 33.9 49.35 M 50.65 66.1 L 51.9 66.1 58.15 73.9 59.05 88.4 40.95 88.4 41.85 73.9 48.1 66.1 49.35 66.1" />
    <path
       id="Layer13_0_1_STROKES"
       stroke="url(#Gradient_14)"
       stroke-width="4"
       stroke-linejoin="round"
       stroke-linecap="round"
       fill="none"
       d=" M 86.85 44.55 L 86.85 44.6 Q 87 44.7 87.1 44.85 87.15 44.85 87.2 44.95 89.1 47.05 89.1 49.95 89.15 52.85 87.25 54.95 87.05 55.15 86.85 55.35 84.65 57.55 81.6 57.65 L 65.15 57.65 Q 62.05 57.65 59.85 59.85 57.65 62.05 57.65 65.15 L 57.65 81.65 Q 57.6 84.65 55.45 86.85 L 55.4 86.9 Q 55.3 87 55.15 87.1 55.1 87.2 55.05 87.25 52.95 89.1 50.05 89.1 47.2 89.15 45.1 87.3 L 45.05 87.25 Q 44.85 87.05 44.65 86.9 L 44.65 86.85 Q 42.45 84.65 42.35 81.6 L 42.35 65.15 Q 42.35 62.05 40.15 59.85 37.95 57.65 34.85 57.65 L 18.3 57.65 Q 15.3 57.55 13.15 55.45 L 13.1 55.45 Q 13 55.3 12.9 55.2 12.85 55.15 12.8 55.05 10.9 52.95 10.9 50.05 10.85 47.15 12.75 45.05 12.95 44.85 13.15 44.65 15.35 42.45 18.4 42.35 L 34.85 42.35 Q 37.95 42.35 40.15 40.15 42.35 37.95 42.35 34.85 L 42.35 18.35 Q 42.45 15.35 44.55 13.15 44.7 13 44.8 12.9 44.85 12.85 44.95 12.8 47.05 10.9 49.95 10.9 52.85 10.85 54.95 12.75 55.15 12.95 55.35 13.15 57.55 15.35 57.65 18.4 L 57.65 34.85 Q 57.65 37.95 59.85 40.15 62.05 42.35 65.15 42.35 L 81.65 42.35 Q 84.65 42.45 86.85 44.55 Z" />
    <path
       id="Layer13_0_2_STROKES"
       stroke="#1B1B1B"
       stroke-width="5"
       stroke-linejoin="round"
       stroke-linecap="round"
       fill="none"
       d=" M 34.85 65.15 L 18.15 65.15 Q 12.15 65 7.85 60.75 7.5 60.4 7.2 60.05 3.4 55.8 3.4 50.05 3.4 44.25 7.15 40.05 7.5 39.7 7.85 39.35 12.15 35.05 18.15 34.85 L 34.85 34.85 34.85 18.15 Q 35 12.15 39.25 7.85 39.6 7.5 39.95 7.2 44.2 3.4 49.95 3.4 55.75 3.4 59.95 7.15 60.3 7.5 60.65 7.85 64.95 12.15 65.15 18.15 L 65.15 34.85 81.85 34.85 Q 87.85 35 92.15 39.25 92.5 39.6 92.8 39.95 96.6 44.2 96.6 49.95 96.6 55.75 92.85 59.95 92.5 60.3 92.15 60.65 87.85 64.95 81.85 65.15 L 65.15 65.15" />
    <path
       id="Layer13_0_3_STROKES"
       stroke="url(#Gradient_15)"
       stroke-width="5"
       stroke-linejoin="round"
       stroke-linecap="round"
       fill="none"
       d=" M 65.15 65.15 L 65.15 81.85 Q 65 87.85 60.75 92.15 60.4 92.5 60.05 92.8 55.8 96.6 50.05 96.6 44.25 96.6 40.05 92.85 39.7 92.5 39.35 92.15 35.05 87.85 34.85 81.85 L 34.85 65.15" />
    <path
       id="Layer12_0_1_STROKES"
       stroke="#1B1B1B"
       stroke-width="5"
       stroke-linejoin="round"
       stroke-linecap="round"
       fill="none"
       d=" M 34.85 34.85 L 34.85 12.5 Q 35.95 7.85 40.2 7.15 L 59.8 7.15 Q 64.15 7.75 65.15 12.5 L 65.15 34.85 87.5 34.85 Q 92.15 35.95 92.85 40.2 L 92.85 59.8 Q 92.25 64.15 87.5 65.15 L 65.15 65.15 65.15 87.5 Q 64.15 92.25 59.8 92.85 L 40.2 92.85 Q 35.95 92.15 34.85 87.5 L 34.85 65.15" />
    <path
       id="Layer12_0_2_STROKES"
       stroke="url(#Gradient_10)"
       stroke-width="4"
       stroke-linejoin="round"
       stroke-linecap="round"
       fill="none"
       d=" M 85.35 42.35 L 85.35 57.65 65.15 57.65 Q 62.05 57.65 59.85 59.85 57.65 62.05 57.65 65.15 L 57.65 85.35 42.35 85.35 42.35 65.15 Q 42.35 62.05 40.15 59.85 37.95 57.65 34.85 57.65 L 14.65 57.65 14.65 42.35 34.85 42.35 Q 37.95 42.35 40.15 40.15 42.35 37.95 42.35 34.85 L 42.35 14.65 57.65 14.65 57.65 34.85 Q 57.65 37.95 59.85 40.15 62.05 42.35 65.15 42.35 L 85.35 42.35 Z" />
    <path
       id="Layer12_0_3_STROKES"
       stroke="url(#Gradient_11)"
       stroke-width="5"
       stroke-linejoin="round"
       stroke-linecap="round"
       fill="none"
       d=" M 34.85 65.15 L 12.5 65.15 Q 7.75 64.15 7.15 59.8 L 7.15 40.2 Q 7.85 35.95 12.5 34.85 L 34.85 34.85" />
    <path
       id="Layer12_0_4_STROKES"
       stroke="#313131"
       stroke-width="5"
       stroke-linejoin="round"
       stroke-linecap="round"
       fill="none"
       d=" M 50 21.9 L 50 30.25 M 69.55 50 L 77.9 50 M 50 69.8 L 50 78.15" />
    <path
       id="Layer12_0_5_STROKES"
       stroke="#FFFFFF"
       stroke-width="5"
       stroke-linejoin="round"
       stroke-linecap="round"
       fill="none"
       d=" M 21.65 50 L 30 50" />
    <path
       id="Layer8_0_1_STROKES"
       stroke="#626262"
       stroke-width="4"
       stroke-linejoin="round"
       stroke-linecap="round"
       fill="none"
       d=" M 67.95 32.3 Q 74.05 32.3 78.3 36.55 82.55 40.8 82.55 46.85 82.55 46.9 82.55 53.2 82.5 59.25 78.3 63.45 74.05 67.7 67.95 67.7 L 32 67.7 Q 25.95 67.7 21.7 63.45 17.5 59.25 17.45 53.2 17.45 46.9 17.45 46.85 17.45 40.8 21.7 36.55 25.95 32.3 32 32.3 L 67.95 32.3 Z" />
    <path
       id="Layer8_0_2_STROKES"
       stroke="#202020"
       stroke-width="4"
       stroke-linejoin="round"
       stroke-linecap="round"
       fill="none"
       d=" M 67.95 21.8 Q 78.4 21.8 85.7 29.15 93.05 36.45 93.05 46.85 93.05 46.9 93.05 53.2 93 63.55 85.7 70.85 84.1 72.45 82.35 73.7 76.05 78.2 67.95 78.2 L 32 78.2 Q 21.6 78.2 14.3 70.85 7 63.55 6.95 53.2 6.95 46.9 6.95 46.85 6.95 36.45 14.3 29.15 21.6 21.8 32 21.8 L 67.95 21.8 Z" />
    <path
       id="Layer7_0_1_STROKES"
       stroke="#E3E7ED"
       stroke-width="4"
       stroke-linejoin="round"
       stroke-linecap="round"
       fill="none"
       d=" M 33.95 38.25 Q 32.65 33.15 35.3 28.7 37.9 24.25 42.95 22.95 48 21.55 52.5 24.2 57 26.85 58.3 31.85 L 66.1 61.8 Q 67.4 66.85 64.85 71.3 62.2 75.7 57.15 77.1 52.1 78.4 47.65 75.75 43.15 73.25 41.85 68.2 L 33.95 38.25 Z" />
    <path
       id="Layer7_0_2_STROKES"
       stroke="#434345"
       stroke-width="4"
       stroke-linejoin="round"
       stroke-linecap="round"
       fill="none"
       d=" M 25.3 40.45 Q 23 31.9 27.55 24.15 32 16.45 40.65 14.2 49.35 11.95 57 16.35 64.7 20.95 66.95 29.65 L 74.8 59.5 Q 77.05 68.2 72.65 75.8 68.1 83.6 59.4 85.9 50.8 88.1 43.1 83.55 35.4 79 33.1 70.4 L 25.3 40.45 Z" />
    <path
       id="Layer6_0_1_STROKES"
       stroke="#1B1B1B"
       stroke-width="5"
       stroke-linejoin="round"
       stroke-linecap="round"
       fill="none"
       d=" M 73.45 27.2 Q 80.8 27.2 86.5 31.2 88.15 32.35 89.65 33.85 96.25 40.55 96.25 50 96.25 59.5 89.65 66.2 88.15 67.7 86.5 68.85 80.8 72.85 73.45 72.85 M 73.4 72.85 L 26.55 72.85 Q 17.15 72.8 10.5 66.2 8.1 63.8 6.6 61.05 3.8 56.15 3.8 50 3.8 43.85 6.6 38.95 8.1 36.25 10.5 33.85 17.15 27.25 26.55 27.2 L 73.4 27.2" />
    <path
       id="Layer6_0_2_STROKES"
       stroke="#626262"
       stroke-width="4"
       stroke-linejoin="round"
       stroke-linecap="round"
       fill="none"
       d=" M 73.45 32.65 Q 80.7 32.65 85.75 37.75 86.1 38.1 86.5 38.5 90.85 43.35 90.85 50 90.85 56.7 86.5 61.55 86.1 61.95 85.75 62.3 80.7 67.4 73.45 67.4 L 26.55 67.4 Q 19.4 67.4 14.35 62.3 9.25 57.25 9.25 50 9.25 42.8 14.35 37.75 19.4 32.65 26.55 32.65 L 73.45 32.65 Z" />
    <path
       id="Layer4_0_1_STROKES"
       stroke="#000000"
       stroke-width="5"
       stroke-linejoin="round"
       stroke-linecap="round"
       fill="none"
       d=" M 83.1 28.05 Q 92.45 31.65 92.75 46.8 92.55 51.3 92.15 55.5 90.9 64.45 87.8 71.95 85.85 76.75 81.5 78.55 59.55 79.9 37.9 76.4 21.8 73.1 14.05 64.6 6.3 56.15 7.3 40.2 8.35 24.2 19.1 21.8 45.55 18.7 83.1 28.05 Z" />
    <path
       id="Layer4_0_2_STROKES"
       stroke="#4F4F4F"
       stroke-width="4"
       stroke-linejoin="round"
       stroke-linecap="round"
       fill="none"
       d=" M 79.85 43.4 Q 80.05 35.6 76 33.9 46.7 25.85 18.95 27.9 13.35 30.75 13.2 37.2 13 43.65 15.75 49 18.55 54.3 22.75 58 26.95 61.6 35.15 63.4 43.4 65.15 71.25 65.55 75.8 64.85 76.75 60.75 L 78.15 54.4 79.85 43.4 Z" />
    <path
       id="Layer3_0_1_STROKES"
       stroke="#1D1D1D"
       stroke-width="5"
       stroke-linejoin="round"
       stroke-linecap="round"
       fill="none"
       d=" M 84.95 23.15 Q 83.7 50.5 84.95 77.8 84.95 83.65 79.1 83.65 L 21.9 83.65 Q 16.05 83.65 16.05 77.8 17.3 50.5 16.05 23.15 16.05 17.3 21.9 17.3 L 79.1 17.3 Q 84.95 17.3 84.95 23.15 Z" />
    <path
       id="Layer3_0_2_STROKES"
       stroke="#696969"
       stroke-width="4"
       stroke-linejoin="round"
       stroke-linecap="round"
       fill="none"
       d=" M 54.15 26.45 L 29.45 26.45 Q 25.2 26.45 25.2 30.7 26.35 50.5 25.2 70.25 25.2 74.45 29.45 74.45 L 54.15 74.45 M 55.4 74.45 L 71.55 74.45 Q 75.8 74.45 75.8 70.25 74.65 50.5 75.8 30.7 75.8 26.45 71.55 26.45 L 55.4 26.45" />
    <path
       id="Layer2_0_1_STROKES"
       stroke="#404040"
       stroke-width="5"
       stroke-linejoin="round"
       stroke-linecap="round"
       fill="none"
       d=" M 84.95 23.15 Q 83.7 50.5 84.95 77.8 84.95 83.65 79.1 83.65 L 21.9 83.65 Q 16.05 83.65 16.05 77.8 17.3 50.5 16.05 23.15 16.05 17.3 21.9 17.3 L 79.1 17.3 Q 84.95 17.3 84.95 23.15 Z" />
    <path
       id="Layer2_0_2_STROKES"
       stroke="#FFFFFF"
       stroke-width="4"
       stroke-linejoin="round"
       stroke-linecap="round"
       fill="none"
       d=" M 55.4 74.45 L 71.55 74.45 Q 75.8 74.45 75.8 70.25 74.65 50.5 75.8 30.7 75.8 26.45 71.55 26.45 L 55.4 26.45 M 54.15 26.45 L 29.45 26.45 Q 25.2 26.45 25.2 30.7 26.35 50.5 25.2 70.25 25.2 74.45 29.45 74.45 L 54.15 74.45" />
    <path
       id="Layer0_0_1_STROKES"
       stroke="#1B1B1B"
       stroke-width="5"
       stroke-linejoin="round"
       stroke-linecap="round"
       fill="none"
       d=" M 67.6 8.35 Q 75.45 11.6 81.95 18.1 88.45 24.6 91.7 32.45 95.15 40.55 95.15 50.1 95.15 59.55 91.8 67.6 88.5 75.5 81.95 82.05 75.45 88.55 67.6 91.85 M 32.45 91.85 Q 24.55 88.55 18.05 82.05 11.5 75.5 8.2 67.6 4.85 59.55 4.85 50.1 4.85 40.55 8.25 32.45 11.55 24.6 18.05 18.1 24.55 11.6 32.45 8.35 40.5 4.95 50 4.95 59.5 4.95 67.6 8.35 L 67.6 32.45 91.7 32.45 M 32.45 8.35 L 32.45 32.45 8.25 32.45 M 32.45 67.6 L 8.2 67.6 M 91.8 67.6 L 67.6 67.6" />
    <path
       id="Layer0_0_2_STROKES"
       stroke="url(#Gradient_19)"
       stroke-width="4"
       stroke-linejoin="round"
       stroke-linecap="round"
       fill="none"
       d=" M 86.4 39.95 Q 87.65 44.75 87.65 50.1 87.65 55.35 86.4 60.1 L 67.6 60.1 Q 64.5 60.1 62.3 62.3 60.1 64.5 60.1 67.6 L 60.1 86.45 Q 55.3 87.7 50 87.7 44.7 87.7 39.95 86.45 L 39.95 67.6 Q 39.95 64.5 37.75 62.3 35.55 60.1 32.45 60.1 L 13.55 60.1 Q 12.35 55.35 12.35 50.1 12.35 44.75 13.6 39.95 L 32.45 39.95 Q 35.55 39.95 37.75 37.75 39.95 35.55 39.95 32.45 L 39.95 13.7 Q 44.7 12.45 50 12.45 55.3 12.45 60.1 13.7 L 60.1 32.45 Q 60.1 35.55 62.3 37.75 64.5 39.95 67.6 39.95 L 86.4 39.95 Z" />
    <path
       id="Layer0_0_3_STROKES"
       stroke="url(#Gradient_20)"
       stroke-width="5"
       stroke-linejoin="round"
       stroke-linecap="round"
       fill="none"
       d=" M 67.6 91.85 Q 59.5 95.2 50 95.2 40.5 95.2 32.45 91.85 L 32.45 67.6 M 67.6 91.85 L 67.6 67.6" />
  </defs>
  <g
     id="g29870"
     style="display:none">
    <use
       xlink:href="#Layer21_0_FILL"
       id="use29868" />
  </g>
  <g
     transform="matrix(0.98692322,-0.16113281,0.16113281,0.98692322,40.25,88.75)"
     id="g29876"
     style="display:none">
    <g
       id="g29874">
      <use
         xlink:href="#Finger_Front_0_Layer1_0_FILL"
         id="use29872" />
    </g>
  </g>
  <g
     id="g29884"
     style="display:none">
    <use
       xlink:href="#Layer19_0_FILL"
       id="use29878" />
    <use
       xlink:href="#Layer19_0_1_STROKES"
       id="use29880" />
    <use
       xlink:href="#Layer19_0_2_STROKES"
       id="use29882" />
  </g>
  <g
     id="g29894"
     style="display:none">
    <use
       xlink:href="#Layer18_0_FILL"
       id="use29886" />
    <use
       xlink:href="#Layer18_0_1_STROKES"
       id="use29888" />
    <use
       xlink:href="#Layer18_0_2_STROKES"
       id="use29890" />
    <use
       xlink:href="#Layer18_0_3_STROKES"
       id="use29892" />
  </g>
  <g
     id="g29906"
     style="display:none">
    <use
       xlink:href="#Layer17_0_FILL"
       id="use29896" />
    <use
       xlink:href="#Layer17_0_1_STROKES"
       id="use29898" />
    <use
       xlink:href="#Layer17_0_2_STROKES"
       id="use29900" />
    <use
       xlink:href="#Layer17_0_3_STROKES"
       id="use29902" />
    <use
       xlink:href="#Layer17_0_4_STROKES"
       id="use29904" />
  </g>
  <g
     id="g29914"
     style="display:none">
    <use
       xlink:href="#Layer16_0_FILL"
       id="use29908" />
    <use
       xlink:href="#Layer16_0_1_STROKES"
       id="use29910" />
    <use
       xlink:href="#Layer16_0_2_STROKES"
       id="use29912" />
  </g>
  <g
     id="g29924"
     style="display:none">
    <use
       xlink:href="#Layer13_0_FILL"
       id="use29916" />
    <use
       xlink:href="#Layer13_0_1_STROKES"
       id="use29918" />
    <use
       xlink:href="#Layer13_0_2_STROKES"
       id="use29920" />
    <use
       xlink:href="#Layer13_0_3_STROKES"
       id="use29922" />
  </g>
  <g
     id="g29938"
     style="display:none">
    <use
       xlink:href="#Layer12_0_FILL"
       id="use29926" />
    <use
       xlink:href="#Layer12_0_1_STROKES"
       id="use29928" />
    <use
       xlink:href="#Layer12_0_2_STROKES"
       id="use29930" />
    <use
       xlink:href="#Layer12_0_3_STROKES"
       id="use29932" />
    <use
       xlink:href="#Layer12_0_4_STROKES"
       id="use29934" />
    <use
       xlink:href="#Layer12_0_5_STROKES"
       id="use29936" />
  </g>
  <g
     id="g29942"
     style="display:none">
    <use
       xlink:href="#Layer9_0_FILL"
       id="use29940" />
  </g>
  <g
     id="g29950"
     style="display:none">
    <use
       xlink:href="#Layer8_0_FILL"
       id="use29944" />
    <use
       xlink:href="#Layer8_0_1_STROKES"
       id="use29946" />
    <use
       xlink:href="#Layer8_0_2_STROKES"
       id="use29948" />
  </g>
  <g
     id="g29958"
     style="display:none">
    <use
       xlink:href="#Layer7_0_FILL"
       id="use29952" />
    <use
       xlink:href="#Layer7_0_1_STROKES"
       id="use29954" />
    <use
       xlink:href="#Layer7_0_2_STROKES"
       id="use29956" />
  </g>
  <g
     id="g29966"
     style="display:none">
    <use
       xlink:href="#Layer6_0_FILL"
       id="use29960" />
    <use
       xlink:href="#Layer6_0_1_STROKES"
       id="use29962" />
    <use
       xlink:href="#Layer6_0_2_STROKES"
       id="use29964" />
  </g>
  <g
     id="g29970"
     style="display:none">
    <use
       xlink:href="#Layer5_0_FILL"
       id="use29968" />
  </g>
  <g
     id="g29978"
     style="display:none">
    <use
       xlink:href="#Layer4_0_FILL"
       id="use29972" />
    <use
       xlink:href="#Layer4_0_1_STROKES"
       id="use29974" />
    <use
       xlink:href="#Layer4_0_2_STROKES"
       id="use29976" />
  </g>
  <g
     transform="matrix( 1, 0, 0, 1, 0,0) "
     id="g29986">
    <use
       xlink:href="#Layer3_0_FILL"
       id="use29980" />
    <use
       xlink:href="#Layer3_0_1_STROKES"
       id="use29982" />
    <use
       xlink:href="#Layer3_0_2_STROKES"
       id="use29984" />
  </g>
  <g
     id="g29994"
     style="display:none">
    <use
       xlink:href="#Layer2_0_FILL"
       id="use29988" />
    <use
       xlink:href="#Layer2_0_1_STROKES"
       id="use29990" />
    <use
       xlink:href="#Layer2_0_2_STROKES"
       id="use29992" />
  </g>
  <g
     id="g29998"
     style="display:none">
    <use
       xlink:href="#Layer1_0_FILL"
       id="use29996" />
  </g>
  <g
     id="g30008"
     style="display:none">
    <use
       xlink:href="#Layer0_0_FILL"
       id="use30000" />
    <use
       xlink:href="#Layer0_0_1_STROKES"
       id="use30002" />
    <use
       xlink:href="#Layer0_0_2_STROKES"
       id="use30004" />
    <use
       xlink:href="#Layer0_0_3_STROKES"
       id="use30006" />
  </g>
</svg>
