
<svg xmlns="http://www.w3.org/2000/svg" version="1.1" xmlns:xlink="http://www.w3.org/1999/xlink" preserveAspectRatio="none" x="0px" y="0px" width="100px" height="100px" viewBox="0 0 100 100">
<defs>
<g id="Layer3_0_FILL">
<path fill="#353535" stroke="none" d="
M 84.95 77.8
Q 83.7 50.5 84.95 23.15 84.95 17.3 79.1 17.3
L 21.9 17.3
Q 16.05 17.3 16.05 23.15 17.3 50.5 16.05 77.8 16.05 83.65 21.9 83.65
L 79.1 83.65
Q 84.95 83.65 84.95 77.8
M 54.15 26.45
L 55.4 26.45 71.55 26.45
Q 75.8 26.45 75.8 30.7 74.65 50.5 75.8 70.25 75.8 74.45 71.55 74.45
L 55.4 74.45 54.15 74.45 29.45 74.45
Q 25.2 74.45 25.2 70.25 26.35 50.5 25.2 30.7 25.2 26.45 29.45 26.45
L 54.15 26.45 Z"/>

<path fill="#595959" stroke="none" d="
M 55.4 26.45
L 54.15 26.45 29.45 26.45
Q 25.2 26.45 25.2 30.7 26.35 50.5 25.2 70.25 25.2 74.45 29.45 74.45
L 54.15 74.45 55.4 74.45 71.55 74.45
Q 75.8 74.45 75.8 70.25 74.65 50.5 75.8 30.7 75.8 26.45 71.55 26.45
L 55.4 26.45
M 52.55 36.35
L 55.55 36.35 55.55 39.25 58.2 39.25 58.2 41.65 55.55 41.65 55.55 44.9
Q 55.55 45.3 55.6 45.6 55.6 45.95 55.75 46.2 55.9 46.4 56.2 46.55 56.5 46.65 56.95 46.65 57.2 46.65 57.6 46.65 58 46.6 58.2 46.4
L 58.2 48.9
Q 57.7 49.1 57.15 49.15 56.6 49.2 56.1 49.2 55.3 49.2 54.7 49.05 54.05 48.85 53.55 48.5 53.1 48.2 52.8 47.6 52.55 47.05 52.55 46.25
L 52.55 41.65 50.6 41.65 50.6 39.25 52.55 39.25 52.55 36.35
M 49.25 39
Q 49.5 39 49.75 39 50.05 39.05 50.25 39.1
L 50.25 41.85
Q 49.95 41.7 49.65 41.65 49.3 41.65 48.95 41.65 48.1 41.65 47.6 41.85 47.1 42.1 46.85 42.55 46.55 42.95 46.5 43.55 46.4 44.15 46.4 44.9
L 46.4 48.95 43.4 48.95 43.4 39.25 46.4 39.25 46.4 40.8 46.45 40.8
Q 46.95 39.9 47.6 39.45 48.25 39 49.25 39
M 41.85 39.1
Q 41.85 40.35 41.45 41.2 41.05 42 40.35 42.5 39.65 43 38.65 43.2 37.7 43.45 36.6 43.45
L 34.3 43.45 34.3 48.95 31.2 48.95 31.2 34.8 36.45 34.8
Q 37.55 34.8 38.55 35 39.5 35.2 40.25 35.7 40.95 36.15 41.4 37 41.85 37.85 41.85 39.1
M 36 54.3
Q 37.2 54.3 38.3 54.6 39.45 54.95 40.35 55.75
L 38.2 58.1
Q 37.8 57.6 37.15 57.4 36.5 57.15 35.95 57.15 35.6 57.15 35.25 57.25 34.9 57.3 34.55 57.5 34.25 57.65 34.05 57.95 33.85 58.2 33.85 58.6 33.85 59.25 34.3 59.6 34.8 59.95 35.5 60.2 36.25 60.4 37.1 60.65 37.95 60.9 38.65 61.35 39.4 61.8 39.9 62.5 40.35 63.25 40.35 64.5 40.35 65.7 39.9 66.55 39.5 67.45 38.7 68 38 68.6 37 68.9 36 69.15 34.9 69.15 33.5 69.15 32.35 68.75 31.15 68.3 30.15 67.4
L 32.35 64.95
Q 32.85 65.6 33.55 65.95 34.3 66.3 35.1 66.3 35.45 66.3 35.85 66.2 36.25 66.1 36.55 65.9 36.85 65.75 37.05 65.45 37.25 65.2 37.25 64.8 37.25 64.15 36.75 63.8 36.25 63.4 35.5 63.15 34.8 62.9 33.9 62.65 33.05 62.4 32.3 61.95 31.6 61.5 31.1 60.8 30.6 60.05 30.6 58.9 30.6 57.75 31.05 56.9 31.5 56 32.25 55.45 33 54.85 33.95 54.55 34.95 54.3 36 54.3
M 63.35 60.4
L 63.4 60.4
Q 63.5 60.1 63.8 59.85 64.05 59.55 64.4 59.35 64.75 59.1 65.2 59 65.7 58.85 66.25 58.85 67.35 58.85 68.05 59.2 68.75 59.55 69.15 60.15 69.55 60.8 69.7 61.6 69.8 62.45 69.8 63.45
L 69.8 68.8 66.8 68.8 66.8 64.05
Q 66.8 63.6 66.8 63.15 66.75 62.7 66.6 62.35 66.45 61.95 66.15 61.7 65.85 61.5 65.25 61.5 64.7 61.5 64.3 61.7 63.95 61.9 63.8 62.25 63.6 62.6 63.5 63.05 63.45 63.5 63.45 63.95
L 63.45 68.8 60.45 68.8 60.45 59.1 63.35 59.1 63.35 60.4
M 54.95 60.65
L 55 60.65
Q 55.5 59.75 56.15 59.3 56.8 58.85 57.8 58.85 58.05 58.85 58.3 58.85 58.6 58.9 58.8 58.95
L 58.8 61.7
Q 58.5 61.55 58.2 61.5 57.85 61.5 57.5 61.5 56.65 61.5 56.15 61.7 55.65 61.95 55.4 62.4 55.1 62.8 55.05 63.4 54.95 64 54.95 64.75
L 54.95 68.8 51.95 68.8 51.95 59.1 54.95 59.1 54.95 60.65
M 45.3 59.2
Q 46.3 58.85 47.4 58.85 48.25 58.85 49.2 59.15 50.15 59.4 50.85 60.15
L 48.9 62.2
Q 48.65 61.9 48.25 61.7 47.85 61.5 47.4 61.5 46.25 61.5 45.65 62.15 45 62.85 45 63.95 45 65.05 45.65 65.7 46.25 66.4 47.4 66.4 47.9 66.4 48.25 66.2 48.65 65.95 48.9 65.65
L 50.85 67.75
Q 50.15 68.45 49.2 68.75 48.25 69.05 47.4 69.05 46.3 69.05 45.3 68.7 44.3 68.3 43.6 67.65 42.85 67 42.45 66.05 42 65.1 42 63.95 42 62.8 42.45 61.85 42.85 60.9 43.6 60.25 44.3 59.55 45.3 59.2
M 38.4 39.95
Q 38.6 39.6 38.6 39.1 38.6 38.55 38.35 38.2 38.1 37.9 37.7 37.7 37.3 37.5 36.85 37.5 36.35 37.45 35.9 37.45
L 34.3 37.45 34.3 40.8 36.4 40.8
Q 36.8 40.8 37.2 40.7 37.6 40.65 37.9 40.45 38.2 40.25 38.4 39.95 Z"/>

<path fill="#CDCDCD" stroke="none" d="
M 47.4 58.85
Q 46.3 58.85 45.3 59.2 44.3 59.55 43.6 60.25 42.85 60.9 42.45 61.85 42 62.8 42 63.95 42 65.1 42.45 66.05 42.85 67 43.6 67.65 44.3 68.3 45.3 68.7 46.3 69.05 47.4 69.05 48.25 69.05 49.2 68.75 50.15 68.45 50.85 67.75
L 48.9 65.65
Q 48.65 65.95 48.25 66.2 47.9 66.4 47.4 66.4 46.25 66.4 45.65 65.7 45 65.05 45 63.95 45 62.85 45.65 62.15 46.25 61.5 47.4 61.5 47.85 61.5 48.25 61.7 48.65 61.9 48.9 62.2
L 50.85 60.15
Q 50.15 59.4 49.2 59.15 48.25 58.85 47.4 58.85
M 55 60.65
L 54.95 60.65 54.95 59.1 51.95 59.1 51.95 68.8 54.95 68.8 54.95 64.75
Q 54.95 64 55.05 63.4 55.1 62.8 55.4 62.4 55.65 61.95 56.15 61.7 56.65 61.5 57.5 61.5 57.85 61.5 58.2 61.5 58.5 61.55 58.8 61.7
L 58.8 58.95
Q 58.6 58.9 58.3 58.85 58.05 58.85 57.8 58.85 56.8 58.85 56.15 59.3 55.5 59.75 55 60.65
M 63.4 60.4
L 63.35 60.4 63.35 59.1 60.45 59.1 60.45 68.8 63.45 68.8 63.45 63.95
Q 63.45 63.5 63.5 63.05 63.6 62.6 63.8 62.25 63.95 61.9 64.3 61.7 64.7 61.5 65.25 61.5 65.85 61.5 66.15 61.7 66.45 61.95 66.6 62.35 66.75 62.7 66.8 63.15 66.8 63.6 66.8 64.05
L 66.8 68.8 69.8 68.8 69.8 63.45
Q 69.8 62.45 69.7 61.6 69.55 60.8 69.15 60.15 68.75 59.55 68.05 59.2 67.35 58.85 66.25 58.85 65.7 58.85 65.2 59 64.75 59.1 64.4 59.35 64.05 59.55 63.8 59.85 63.5 60.1 63.4 60.4
M 38.3 54.6
Q 37.2 54.3 36 54.3 34.95 54.3 33.95 54.55 33 54.85 32.25 55.45 31.5 56 31.05 56.9 30.6 57.75 30.6 58.9 30.6 60.05 31.1 60.8 31.6 61.5 32.3 61.95 33.05 62.4 33.9 62.65 34.8 62.9 35.5 63.15 36.25 63.4 36.75 63.8 37.25 64.15 37.25 64.8 37.25 65.2 37.05 65.45 36.85 65.75 36.55 65.9 36.25 66.1 35.85 66.2 35.45 66.3 35.1 66.3 34.3 66.3 33.55 65.95 32.85 65.6 32.35 64.95
L 30.15 67.4
Q 31.15 68.3 32.35 68.75 33.5 69.15 34.9 69.15 36 69.15 37 68.9 38 68.6 38.7 68 39.5 67.45 39.9 66.55 40.35 65.7 40.35 64.5 40.35 63.25 39.9 62.5 39.4 61.8 38.65 61.35 37.95 60.9 37.1 60.65 36.25 60.4 35.5 60.2 34.8 59.95 34.3 59.6 33.85 59.25 33.85 58.6 33.85 58.2 34.05 57.95 34.25 57.65 34.55 57.5 34.9 57.3 35.25 57.25 35.6 57.15 35.95 57.15 36.5 57.15 37.15 57.4 37.8 57.6 38.2 58.1
L 40.35 55.75
Q 39.45 54.95 38.3 54.6
M 41.45 41.2
Q 41.85 40.35 41.85 39.1 41.85 37.85 41.4 37 40.95 36.15 40.25 35.7 39.5 35.2 38.55 35 37.55 34.8 36.45 34.8
L 31.2 34.8 31.2 48.95 34.3 48.95 34.3 43.45 36.6 43.45
Q 37.7 43.45 38.65 43.2 39.65 43 40.35 42.5 41.05 42 41.45 41.2
M 38.6 39.1
Q 38.6 39.6 38.4 39.95 38.2 40.25 37.9 40.45 37.6 40.65 37.2 40.7 36.8 40.8 36.4 40.8
L 34.3 40.8 34.3 37.45 35.9 37.45
Q 36.35 37.45 36.85 37.5 37.3 37.5 37.7 37.7 38.1 37.9 38.35 38.2 38.6 38.55 38.6 39.1
M 49.75 39
Q 49.5 39 49.25 39 48.25 39 47.6 39.45 46.95 39.9 46.45 40.8
L 46.4 40.8 46.4 39.25 43.4 39.25 43.4 48.95 46.4 48.95 46.4 44.9
Q 46.4 44.15 46.5 43.55 46.55 42.95 46.85 42.55 47.1 42.1 47.6 41.85 48.1 41.65 48.95 41.65 49.3 41.65 49.65 41.65 49.95 41.7 50.25 41.85
L 50.25 39.1
Q 50.05 39.05 49.75 39
M 55.55 36.35
L 52.55 36.35 52.55 39.25 50.6 39.25 50.6 41.65 52.55 41.65 52.55 46.25
Q 52.55 47.05 52.8 47.6 53.1 48.2 53.55 48.5 54.05 48.85 54.7 49.05 55.3 49.2 56.1 49.2 56.6 49.2 57.15 49.15 57.7 49.1 58.2 48.9
L 58.2 46.4
Q 58 46.6 57.6 46.65 57.2 46.65 56.95 46.65 56.5 46.65 56.2 46.55 55.9 46.4 55.75 46.2 55.6 45.95 55.6 45.6 55.55 45.3 55.55 44.9
L 55.55 41.65 58.2 41.65 58.2 39.25 55.55 39.25 55.55 36.35 Z"/>
</g>

<g id="Layer2_0_FILL">
<path fill="#D7D7D7" stroke="none" d="
M 84.95 77.8
Q 83.7 50.5 84.95 23.15 84.95 17.3 79.1 17.3
L 21.9 17.3
Q 16.05 17.3 16.05 23.15 17.3 50.5 16.05 77.8 16.05 83.65 21.9 83.65
L 79.1 83.65
Q 84.95 83.65 84.95 77.8
M 54.15 26.45
L 55.4 26.45 71.55 26.45
Q 75.8 26.45 75.8 30.7 74.65 50.5 75.8 70.25 75.8 74.45 71.55 74.45
L 55.4 74.45 54.15 74.45 29.45 74.45
Q 25.2 74.45 25.2 70.25 26.35 50.5 25.2 30.7 25.2 26.45 29.45 26.45
L 54.15 26.45 Z"/>

<path fill="#F5F5F5" stroke="none" d="
M 55.4 26.45
L 54.15 26.45 29.45 26.45
Q 25.2 26.45 25.2 30.7 26.35 50.5 25.2 70.25 25.2 74.45 29.45 74.45
L 54.15 74.45 55.4 74.45 71.55 74.45
Q 75.8 74.45 75.8 70.25 74.65 50.5 75.8 30.7 75.8 26.45 71.55 26.45
L 55.4 26.45
M 52.55 36.35
L 55.55 36.35 55.55 39.25 58.2 39.25 58.2 41.65 55.55 41.65 55.55 44.9
Q 55.55 45.3 55.6 45.6 55.6 45.95 55.75 46.2 55.9 46.4 56.2 46.55 56.5 46.65 56.95 46.65 57.2 46.65 57.6 46.65 58 46.6 58.2 46.4
L 58.2 48.9
Q 57.7 49.1 57.15 49.15 56.6 49.2 56.1 49.2 55.3 49.2 54.7 49.05 54.05 48.85 53.55 48.5 53.1 48.2 52.8 47.6 52.55 47.05 52.55 46.25
L 52.55 41.65 50.6 41.65 50.6 39.25 52.55 39.25 52.55 36.35
M 49.25 39
Q 49.5 39 49.75 39 50.05 39.05 50.25 39.1
L 50.25 41.85
Q 49.95 41.7 49.65 41.65 49.3 41.65 48.95 41.65 48.1 41.65 47.6 41.85 47.1 42.1 46.85 42.55 46.55 42.95 46.5 43.55 46.4 44.15 46.4 44.9
L 46.4 48.95 43.4 48.95 43.4 39.25 46.4 39.25 46.4 40.8 46.45 40.8
Q 46.95 39.9 47.6 39.45 48.25 39 49.25 39
M 41.85 39.1
Q 41.85 40.35 41.45 41.2 41.05 42 40.35 42.5 39.65 43 38.65 43.2 37.7 43.45 36.6 43.45
L 34.3 43.45 34.3 48.95 31.2 48.95 31.2 34.8 36.45 34.8
Q 37.55 34.8 38.55 35 39.5 35.2 40.25 35.7 40.95 36.15 41.4 37 41.85 37.85 41.85 39.1
M 36 54.3
Q 37.2 54.3 38.3 54.6 39.45 54.95 40.35 55.75
L 38.2 58.1
Q 37.8 57.6 37.15 57.4 36.5 57.15 35.95 57.15 35.6 57.15 35.25 57.25 34.9 57.3 34.55 57.5 34.25 57.65 34.05 57.95 33.85 58.2 33.85 58.6 33.85 59.25 34.3 59.6 34.8 59.95 35.5 60.2 36.25 60.4 37.1 60.65 37.95 60.9 38.65 61.35 39.4 61.8 39.9 62.5 40.35 63.25 40.35 64.5 40.35 65.7 39.9 66.55 39.5 67.45 38.7 68 38 68.6 37 68.9 36 69.15 34.9 69.15 33.5 69.15 32.35 68.75 31.15 68.3 30.15 67.4
L 32.35 64.95
Q 32.85 65.6 33.55 65.95 34.3 66.3 35.1 66.3 35.45 66.3 35.85 66.2 36.25 66.1 36.55 65.9 36.85 65.75 37.05 65.45 37.25 65.2 37.25 64.8 37.25 64.15 36.75 63.8 36.25 63.4 35.5 63.15 34.8 62.9 33.9 62.65 33.05 62.4 32.3 61.95 31.6 61.5 31.1 60.8 30.6 60.05 30.6 58.9 30.6 57.75 31.05 56.9 31.5 56 32.25 55.45 33 54.85 33.95 54.55 34.95 54.3 36 54.3
M 63.35 60.4
L 63.4 60.4
Q 63.5 60.1 63.8 59.85 64.05 59.55 64.4 59.35 64.75 59.1 65.2 59 65.7 58.85 66.25 58.85 67.35 58.85 68.05 59.2 68.75 59.55 69.15 60.15 69.55 60.8 69.7 61.6 69.8 62.45 69.8 63.45
L 69.8 68.8 66.8 68.8 66.8 64.05
Q 66.8 63.6 66.8 63.15 66.75 62.7 66.6 62.35 66.45 61.95 66.15 61.7 65.85 61.5 65.25 61.5 64.7 61.5 64.3 61.7 63.95 61.9 63.8 62.25 63.6 62.6 63.5 63.05 63.45 63.5 63.45 63.95
L 63.45 68.8 60.45 68.8 60.45 59.1 63.35 59.1 63.35 60.4
M 54.95 60.65
L 55 60.65
Q 55.5 59.75 56.15 59.3 56.8 58.85 57.8 58.85 58.05 58.85 58.3 58.85 58.6 58.9 58.8 58.95
L 58.8 61.7
Q 58.5 61.55 58.2 61.5 57.85 61.5 57.5 61.5 56.65 61.5 56.15 61.7 55.65 61.95 55.4 62.4 55.1 62.8 55.05 63.4 54.95 64 54.95 64.75
L 54.95 68.8 51.95 68.8 51.95 59.1 54.95 59.1 54.95 60.65
M 45.3 59.2
Q 46.3 58.85 47.4 58.85 48.25 58.85 49.2 59.15 50.15 59.4 50.85 60.15
L 48.9 62.2
Q 48.65 61.9 48.25 61.7 47.85 61.5 47.4 61.5 46.25 61.5 45.65 62.15 45 62.85 45 63.95 45 65.05 45.65 65.7 46.25 66.4 47.4 66.4 47.9 66.4 48.25 66.2 48.65 65.95 48.9 65.65
L 50.85 67.75
Q 50.15 68.45 49.2 68.75 48.25 69.05 47.4 69.05 46.3 69.05 45.3 68.7 44.3 68.3 43.6 67.65 42.85 67 42.45 66.05 42 65.1 42 63.95 42 62.8 42.45 61.85 42.85 60.9 43.6 60.25 44.3 59.55 45.3 59.2
M 38.4 39.95
Q 38.6 39.6 38.6 39.1 38.6 38.55 38.35 38.2 38.1 37.9 37.7 37.7 37.3 37.5 36.85 37.5 36.35 37.45 35.9 37.45
L 34.3 37.45 34.3 40.8 36.4 40.8
Q 36.8 40.8 37.2 40.7 37.6 40.65 37.9 40.45 38.2 40.25 38.4 39.95 Z"/>

<path fill="#404040" stroke="none" d="
M 47.4 58.85
Q 46.3 58.85 45.3 59.2 44.3 59.55 43.6 60.25 42.85 60.9 42.45 61.85 42 62.8 42 63.95 42 65.1 42.45 66.05 42.85 67 43.6 67.65 44.3 68.3 45.3 68.7 46.3 69.05 47.4 69.05 48.25 69.05 49.2 68.75 50.15 68.45 50.85 67.75
L 48.9 65.65
Q 48.65 65.95 48.25 66.2 47.9 66.4 47.4 66.4 46.25 66.4 45.65 65.7 45 65.05 45 63.95 45 62.85 45.65 62.15 46.25 61.5 47.4 61.5 47.85 61.5 48.25 61.7 48.65 61.9 48.9 62.2
L 50.85 60.15
Q 50.15 59.4 49.2 59.15 48.25 58.85 47.4 58.85
M 55 60.65
L 54.95 60.65 54.95 59.1 51.95 59.1 51.95 68.8 54.95 68.8 54.95 64.75
Q 54.95 64 55.05 63.4 55.1 62.8 55.4 62.4 55.65 61.95 56.15 61.7 56.65 61.5 57.5 61.5 57.85 61.5 58.2 61.5 58.5 61.55 58.8 61.7
L 58.8 58.95
Q 58.6 58.9 58.3 58.85 58.05 58.85 57.8 58.85 56.8 58.85 56.15 59.3 55.5 59.75 55 60.65
M 63.4 60.4
L 63.35 60.4 63.35 59.1 60.45 59.1 60.45 68.8 63.45 68.8 63.45 63.95
Q 63.45 63.5 63.5 63.05 63.6 62.6 63.8 62.25 63.95 61.9 64.3 61.7 64.7 61.5 65.25 61.5 65.85 61.5 66.15 61.7 66.45 61.95 66.6 62.35 66.75 62.7 66.8 63.15 66.8 63.6 66.8 64.05
L 66.8 68.8 69.8 68.8 69.8 63.45
Q 69.8 62.45 69.7 61.6 69.55 60.8 69.15 60.15 68.75 59.55 68.05 59.2 67.35 58.85 66.25 58.85 65.7 58.85 65.2 59 64.75 59.1 64.4 59.35 64.05 59.55 63.8 59.85 63.5 60.1 63.4 60.4
M 38.3 54.6
Q 37.2 54.3 36 54.3 34.95 54.3 33.95 54.55 33 54.85 32.25 55.45 31.5 56 31.05 56.9 30.6 57.75 30.6 58.9 30.6 60.05 31.1 60.8 31.6 61.5 32.3 61.95 33.05 62.4 33.9 62.65 34.8 62.9 35.5 63.15 36.25 63.4 36.75 63.8 37.25 64.15 37.25 64.8 37.25 65.2 37.05 65.45 36.85 65.75 36.55 65.9 36.25 66.1 35.85 66.2 35.45 66.3 35.1 66.3 34.3 66.3 33.55 65.95 32.85 65.6 32.35 64.95
L 30.15 67.4
Q 31.15 68.3 32.35 68.75 33.5 69.15 34.9 69.15 36 69.15 37 68.9 38 68.6 38.7 68 39.5 67.45 39.9 66.55 40.35 65.7 40.35 64.5 40.35 63.25 39.9 62.5 39.4 61.8 38.65 61.35 37.95 60.9 37.1 60.65 36.25 60.4 35.5 60.2 34.8 59.95 34.3 59.6 33.85 59.25 33.85 58.6 33.85 58.2 34.05 57.95 34.25 57.65 34.55 57.5 34.9 57.3 35.25 57.25 35.6 57.15 35.95 57.15 36.5 57.15 37.15 57.4 37.8 57.6 38.2 58.1
L 40.35 55.75
Q 39.45 54.95 38.3 54.6
M 41.45 41.2
Q 41.85 40.35 41.85 39.1 41.85 37.85 41.4 37 40.95 36.15 40.25 35.7 39.5 35.2 38.55 35 37.55 34.8 36.45 34.8
L 31.2 34.8 31.2 48.95 34.3 48.95 34.3 43.45 36.6 43.45
Q 37.7 43.45 38.65 43.2 39.65 43 40.35 42.5 41.05 42 41.45 41.2
M 38.6 39.1
Q 38.6 39.6 38.4 39.95 38.2 40.25 37.9 40.45 37.6 40.65 37.2 40.7 36.8 40.8 36.4 40.8
L 34.3 40.8 34.3 37.45 35.9 37.45
Q 36.35 37.45 36.85 37.5 37.3 37.5 37.7 37.7 38.1 37.9 38.35 38.2 38.6 38.55 38.6 39.1
M 49.75 39
Q 49.5 39 49.25 39 48.25 39 47.6 39.45 46.95 39.9 46.45 40.8
L 46.4 40.8 46.4 39.25 43.4 39.25 43.4 48.95 46.4 48.95 46.4 44.9
Q 46.4 44.15 46.5 43.55 46.55 42.95 46.85 42.55 47.1 42.1 47.6 41.85 48.1 41.65 48.95 41.65 49.3 41.65 49.65 41.65 49.95 41.7 50.25 41.85
L 50.25 39.1
Q 50.05 39.05 49.75 39
M 55.55 36.35
L 52.55 36.35 52.55 39.25 50.6 39.25 50.6 41.65 52.55 41.65 52.55 46.25
Q 52.55 47.05 52.8 47.6 53.1 48.2 53.55 48.5 54.05 48.85 54.7 49.05 55.3 49.2 56.1 49.2 56.6 49.2 57.15 49.15 57.7 49.1 58.2 48.9
L 58.2 46.4
Q 58 46.6 57.6 46.65 57.2 46.65 56.95 46.65 56.5 46.65 56.2 46.55 55.9 46.4 55.75 46.2 55.6 45.95 55.6 45.6 55.55 45.3 55.55 44.9
L 55.55 41.65 58.2 41.65 58.2 39.25 55.55 39.25 55.55 36.35 Z"/>
</g>

<path id="Layer3_0_1_STROKES" stroke="#1D1D1D" stroke-width="5" stroke-linejoin="round" stroke-linecap="round" fill="none" d="
M 84.95 23.15
Q 83.7 50.5 84.95 77.8 84.95 83.65 79.1 83.65
L 21.9 83.65
Q 16.05 83.65 16.05 77.8 17.3 50.5 16.05 23.15 16.05 17.3 21.9 17.3
L 79.1 17.3
Q 84.95 17.3 84.95 23.15 Z"/>

<path id="Layer3_0_2_STROKES" stroke="#696969" stroke-width="4" stroke-linejoin="round" stroke-linecap="round" fill="none" d="
M 54.15 26.45
L 29.45 26.45
Q 25.2 26.45 25.2 30.7 26.35 50.5 25.2 70.25 25.2 74.45 29.45 74.45
L 54.15 74.45
M 55.4 74.45
L 71.55 74.45
Q 75.8 74.45 75.8 70.25 74.65 50.5 75.8 30.7 75.8 26.45 71.55 26.45
L 55.4 26.45"/>

<path id="Layer2_0_1_STROKES" stroke="#404040" stroke-width="5" stroke-linejoin="round" stroke-linecap="round" fill="none" d="
M 84.95 23.15
Q 83.7 50.5 84.95 77.8 84.95 83.65 79.1 83.65
L 21.9 83.65
Q 16.05 83.65 16.05 77.8 17.3 50.5 16.05 23.15 16.05 17.3 21.9 17.3
L 79.1 17.3
Q 84.95 17.3 84.95 23.15 Z"/>

<path id="Layer2_0_2_STROKES" stroke="#FFFFFF" stroke-width="4" stroke-linejoin="round" stroke-linecap="round" fill="none" d="
M 54.15 26.45
L 29.45 26.45
Q 25.2 26.45 25.2 30.7 26.35 50.5 25.2 70.25 25.2 74.45 29.45 74.45
L 54.15 74.45
M 55.4 74.45
L 71.55 74.45
Q 75.8 74.45 75.8 70.25 74.65 50.5 75.8 30.7 75.8 26.45 71.55 26.45
L 55.4 26.45"/>
</defs>

<g transform="matrix( 1, 0, 0, 1, 0,0) ">
<use xlink:href="#Layer3_0_FILL"/>

<use xlink:href="#Layer3_0_1_STROKES"/>

<use xlink:href="#Layer3_0_2_STROKES"/>
</g>

<g transform="matrix( 1, 0, 0, 1, 0,0) ">
<use xlink:href="#Layer2_0_FILL"/>

<use xlink:href="#Layer2_0_1_STROKES"/>

<use xlink:href="#Layer2_0_2_STROKES"/>
</g>
</svg>
