<?xml version="1.0" encoding="UTF-8" standalone="no"?>
<svg
   version="1.1"
   preserveAspectRatio="none"
   x="0px"
   y="0px"
   width="100px"
   height="100px"
   viewBox="0 0 100 100"
   id="svg14770"
   sodipodi:docname="Vector Source0005.svg"
   inkscape:version="1.2.1 (9c6d41e410, 2022-07-14)"
   xmlns:inkscape="http://www.inkscape.org/namespaces/inkscape"
   xmlns:sodipodi="http://sodipodi.sourceforge.net/DTD/sodipodi-0.dtd"
   xmlns:xlink="http://www.w3.org/1999/xlink"
   xmlns="http://www.w3.org/2000/svg"
   xmlns:svg="http://www.w3.org/2000/svg">
  <sodipodi:namedview
     id="namedview14772"
     pagecolor="#ffffff"
     bordercolor="#000000"
     borderopacity="0.25"
     inkscape:showpageshadow="2"
     inkscape:pageopacity="0.0"
     inkscape:pagecheckerboard="0"
     inkscape:deskcolor="#d1d1d1"
     showgrid="false"
     inkscape:zoom="10.27"
     inkscape:cx="42.55112"
     inkscape:cy="50"
     inkscape:window-width="2400"
     inkscape:window-height="1261"
     inkscape:window-x="5591"
     inkscape:window-y="431"
     inkscape:window-maximized="1"
     inkscape:current-layer="svg14770" />
  <defs
     id="defs14620">
    <radialGradient
       id="Gradient_1"
       gradientUnits="userSpaceOnUse"
       cx="0"
       cy="0"
       r="7.112499999999997"
       fx="0"
       fy="0"
       gradientTransform="matrix( 0, 1.0000000000000004, -4.247803163444641, 0, 62.35,74.55) "
       spreadMethod="pad">
      <stop
         offset="31.764705882352942%"
         stop-color="#E02727"
         id="stop14318" />
      <stop
         offset="85.49019607843137%"
         stop-color="#E02727"
         stop-opacity="0"
         id="stop14320" />
    </radialGradient>
    <linearGradient
       id="Gradient_2"
       gradientUnits="userSpaceOnUse"
       x1="-40.3375"
       y1="-1.3249999999999997"
       x2="-34.1625"
       y2="-2.975"
       spreadMethod="pad">
      <stop
         offset="0%"
         stop-color="#796C4B"
         stop-opacity="0"
         id="stop14323" />
      <stop
         offset="100%"
         stop-color="#876B47"
         id="stop14325" />
    </linearGradient>
    <linearGradient
       id="Gradient_3"
       gradientUnits="userSpaceOnUse"
       x1="-40.3375"
       y1="-1.3249999999999997"
       x2="-34.1625"
       y2="-2.975"
       spreadMethod="pad">
      <stop
         offset="0%"
         stop-color="#876B47"
         stop-opacity="0"
         id="stop14328" />
      <stop
         offset="100%"
         stop-color="#876B47"
         id="stop14330" />
    </linearGradient>
    <linearGradient
       id="Gradient_4"
       gradientUnits="userSpaceOnUse"
       x1="10.499999999999998"
       y1="-5.7"
       x2="34.4"
       y2="-5.7"
       spreadMethod="pad">
      <stop
         offset="0%"
         stop-color="#F1B776"
         id="stop14333" />
      <stop
         offset="100%"
         stop-color="#876B47"
         id="stop14335" />
    </linearGradient>
    <linearGradient
       id="Gradient_5"
       gradientUnits="userSpaceOnUse"
       x1="25.2375"
       y1="-11.6625"
       x2="40.2625"
       y2="5.6625"
       spreadMethod="pad">
      <stop
         offset="0%"
         stop-color="#000000"
         stop-opacity="0"
         id="stop14338" />
      <stop
         offset="100%"
         stop-color="#000000"
         stop-opacity="0.2"
         id="stop14340" />
    </linearGradient>
    <linearGradient
       id="Gradient_6"
       gradientUnits="userSpaceOnUse"
       x1="50"
       y1="10.412499999999994"
       x2="50"
       y2="89.5875"
       spreadMethod="pad">
      <stop
         offset="0%"
         stop-color="#373737"
         id="stop14343" />
      <stop
         offset="100%"
         stop-color="#575757"
         id="stop14345" />
    </linearGradient>
    <linearGradient
       id="Gradient_7"
       gradientUnits="userSpaceOnUse"
       x1="18.2"
       y1="69.3"
       x2="43.2"
       y2="69.3"
       spreadMethod="pad">
      <stop
         offset="0%"
         stop-color="#000000"
         stop-opacity="0.2"
         id="stop14348" />
      <stop
         offset="100%"
         stop-color="#000000"
         stop-opacity="0"
         id="stop14350" />
    </linearGradient>
    <linearGradient
       id="Gradient_8"
       gradientUnits="userSpaceOnUse"
       x1="49.1"
       y1="73.6375"
       x2="49.1"
       y2="63.3625"
       spreadMethod="pad">
      <stop
         offset="0%"
         stop-color="#D7D7D7"
         id="stop14353" />
      <stop
         offset="100%"
         stop-color="#313131"
         id="stop14355" />
    </linearGradient>
    <linearGradient
       id="Gradient_9"
       gradientUnits="userSpaceOnUse"
       x1="51.1"
       y1="56.900000000000006"
       x2="51.1"
       y2="71.5"
       spreadMethod="pad">
      <stop
         offset="0%"
         stop-color="#4F4F4F"
         id="stop14358" />
      <stop
         offset="100%"
         stop-color="#F5F5F5"
         id="stop14360" />
    </linearGradient>
    <linearGradient
       id="Gradient_10"
       gradientUnits="userSpaceOnUse"
       x1="52.15"
       y1="60.35"
       x2="52.15"
       y2="73.65"
       spreadMethod="pad">
      <stop
         offset="0%"
         stop-color="#626262"
         id="stop14363" />
      <stop
         offset="100%"
         stop-color="#FFFFFF"
         id="stop14365" />
    </linearGradient>
    <linearGradient
       id="Gradient_11"
       gradientUnits="userSpaceOnUse"
       x1="47.5"
       y1="81.8375"
       x2="47.5"
       y2="67.5625"
       spreadMethod="pad">
      <stop
         offset="0%"
         stop-color="#404040"
         id="stop14368" />
      <stop
         offset="100%"
         stop-color="#1B1B1B"
         id="stop14370" />
    </linearGradient>
    <g
       id="Layer22_0_FILL">
      <path
         fill="#D7D7D7"
         stroke="none"
         d=" M 19.6 34.8 Q 13.3 34.8 8.85 39.2 4.4 43.7 4.4 50 4.4 56.35 8.85 60.75 13.3 65.2 19.6 65.2 25.9 65.2 30.4 60.75 34.8 56.35 34.8 50 34.8 43.7 30.4 39.2 25.9 34.8 19.6 34.8 Z"
         id="path14373" />
    </g>
    <g
       id="Layer21_0_FILL">
      <path
         fill="url(#Gradient_1)"
         stroke="none"
         d=" M 85.2 79.45 Q 94.8 77.5 94.8 74.55 94.8 71.75 85.2 69.75 75.75 67.7 62.35 67.7 48.85 67.7 39.35 69.75 29.9 71.75 29.9 74.55 29.9 77.5 39.35 79.45 48.85 81.45 62.35 81.45 75.75 81.45 85.2 79.45 Z"
         id="path14376" />
      <path
         fill="#FFFFFF"
         fill-opacity="0.30196078431372547"
         stroke="none"
         d=" M 91.85 9.95 L 91.9 9.95 Q 90.4552734375 8.816015625 88.35 8.25 88.3345703125 8.2630859375 88.3 8.25 86.4875 7.8462890625 84.5 7.85 L 79.85 7.85 Q 78.8107421875 7.8462890625 78.05 8.55 77.3462890625 9.3107421875 77.35 10.35 L 77.35 19.1 74.85 19.1 74.85 10.35 Q 74.853515625 9.3107421875 74.1 8.55 73.3890625 7.8462890625 72.35 7.85 L 69.2 7.85 Q 68.1607421875 7.8462890625 67.4 8.55 66.6962890625 9.3107421875 66.7 10.35 L 66.7 10.35 Q 66.613671875 10.283203125 66.5 10.2 L 66.55 10.2 Q 65.1916015625 8.837890625 63.25 8.15 61.46640625 7.5021484375 59.3 7.5 57.191015625 7.509765625 55.4 8.15 53.4583984375 8.837890625 52.05 10.2 L 52.1 10.2 Q 52.0869140625 10.2357421875 52.05 10.25 52.0259765625 9.2830078125 51.3 8.55 50.5890625 7.8462890625 49.55 7.85 L 46.45 7.85 Q 45.4107421875 7.8462890625 44.65 8.55 43.9462890625 9.3107421875 43.95 10.35 L 43.95 13.1 42.85 13.1 42.85 10.35 Q 42.853515625 9.3107421875 42.1 8.55 41.3890625 7.8462890625 40.35 7.85 L 37.25 7.85 Q 36.2107421875 7.8462890625 35.45 8.55 34.7462890625 9.3107421875 34.75 10.35 L 34.75 24.5 Q 34.7462890625 25.5390625 35.45 26.25 36.2107421875 27.003515625 37.25 27 L 40.35 27 Q 41.3890625 27.003515625 42.1 26.25 42.853515625 25.5390625 42.85 24.5 L 42.85 20.9 43.95 20.9 43.95 24.5 Q 43.9462890625 25.5390625 44.65 26.25 45.4107421875 27.003515625 46.45 27 L 49.55 27 Q 50.5890625 27.003515625 51.3 26.25 52.017578125 25.575390625 52.05 24.6 52.0865234375 24.6384765625 52.1 24.65 53.4552734375 25.94609375 55.3 26.65 55.363671875 26.6859375 55.4 26.7 57.18984375 27.3478515625 59.3 27.35 61.46640625 27.3478515625 63.25 26.7 63.2861328125 26.6859375 63.3 26.65 65.1947265625 25.94609375 66.5 24.65 66.61484375 24.58984375 66.7 24.5 66.6962890625 25.5390625 67.4 26.25 68.1607421875 27.003515625 69.2 27 L 78.1 27 Q 78.568359375 27.0015625 78.95 26.85 79.381640625 27.0015625 79.85 27 L 84.95 27 Q 86.8873046875 27.0048828125 88.7 26.45 90.6216796875 25.83984375 92.05 24.6 93.584765625 23.4 94.45 21.6 95.3943359375 19.848046875 95.4 17.45 95.402734375 14.8158203125 94.4 13 L 94.45 13.05 Q 93.5208984375 11.1544921875 91.85 9.95 M 87.75 10.7 Q 89.3 11.1 90.4 11.95 91.55 12.8 92.2 14.15 92.9 15.5 92.9 17.45 92.9 19.2 92.25 20.5 91.6 21.8 90.5 22.7 89.4 23.6 87.95 24.05 86.5 24.5 84.95 24.5 L 79.85 24.5 79.85 10.35 84.5 10.35 Q 86.2 10.35 87.75 10.7 M 62.4 10.5 Q 63.8 11 64.8 12 65.8 12.95 66.4 14.35 66.95 15.7 66.95 17.4 66.95 19.1 66.4 20.5 65.8 21.9 64.8 22.85 63.8 23.8 62.4 24.35 61 24.85 59.3 24.85 57.65 24.85 56.25 24.35 54.85 23.8 53.85 22.85 52.85 21.9 52.25 20.5 51.7 19.1 51.7 17.4 51.7 15.7 52.25 14.35 52.85 12.95 53.85 12 54.85 11 56.25 10.5 57.65 10 59.3 10 61 10 62.4 10.5 M 78.1 21.6 L 78.1 24.5 69.2 24.5 69.2 10.35 72.35 10.35 72.35 21.6 78.1 21.6 M 46.45 10.35 L 49.55 10.35 49.55 24.5 46.45 24.5 46.45 18.4 40.35 18.4 40.35 24.5 37.25 24.5 37.25 10.35 40.35 10.35 40.35 15.6 46.45 15.6 46.45 10.35 M 63.7 17.4 Q 63.7 16.45 63.4 15.6 63.1 14.75 62.5 14.15 61.95 13.55 61.15 13.2 60.3 12.85 59.3 12.85 58.3 12.85 57.5 13.2 56.7 13.55 56.15 14.15 55.55 14.75 55.25 15.6 54.95 16.45 54.95 17.4 54.95 18.4 55.25 19.25 55.55 20.1 56.15 20.7 56.7 21.3 57.5 21.65 58.3 22 59.3 22 60.3 22 61.15 21.65 61.95 21.3 62.5 20.7 63.1 20.1 63.4 19.25 63.7 18.4 63.7 17.4 M 61.05 16.4 Q 61.207421875 16.8853515625 61.2 17.4 61.2111328125 17.954296875 61.05 18.4 60.9369140625 18.7169921875 60.7 18.9 60.6921875 18.96171875 60.65 19 60.44453125 19.2185546875 60.15 19.35 L 60.2 19.35 Q 59.787109375 19.513671875 59.3 19.5 58.8572265625 19.4951171875 58.5 19.35 58.20546875 19.2185546875 58 19 57.9576171875 18.96171875 57.9 18.9 57.712890625 18.7169921875 57.6 18.4 57.4462890625 17.953125 57.45 17.4 57.442578125 16.8853515625 57.6 16.4 57.712890625 16.1328125 57.9 15.9 57.9576171875 15.88828125 58 15.85 58.20546875 15.6314453125 58.5 15.5 58.8572265625 15.3546875 59.3 15.35 59.787109375 15.336328125 60.2 15.5 L 60.15 15.5 Q 60.44453125 15.6314453125 60.65 15.85 60.6921875 15.88828125 60.7 15.9 60.9369140625 16.1328125 61.05 16.4 M 88.2 14.2 Q 87.55 13.7 86.65 13.45 85.75 13.2 84.8 13.2 L 82.95 13.2 82.95 21.6 84.6 21.6 Q 85.65 21.6 86.6 21.4 87.5 21.2 88.2 20.65 88.85 20.15 89.25 19.35 89.65 18.5 89.65 17.3 89.65 16.25 89.25 15.5 88.85 14.7 88.2 14.2 M 87.15 17.3 Q 87.1560546875 17.8685546875 87 18.25 86.8673828125 18.5126953125 86.65 18.65 L 86.65 18.65 Q 86.3861328125 18.87578125 86.05 18.95 85.756640625 19.0130859375 85.45 19.05 L 85.45 15.75 Q 85.7158203125 15.7794921875 85.95 15.85 86.378125 15.9623046875 86.65 16.15 86.8869140625 16.35390625 87 16.6 87.0396484375 16.6482421875 87.05 16.65 87.1529296875 16.9390625 87.15 17.3 Z"
         id="path14378" />
      <path
         fill="#E02727"
         stroke="none"
         d=" M 49.55 10.35 L 46.45 10.35 46.45 15.6 40.35 15.6 40.35 10.35 37.25 10.35 37.25 24.5 40.35 24.5 40.35 18.4 46.45 18.4 46.45 24.5 49.55 24.5 49.55 10.35 M 78.1 24.5 L 78.1 21.6 72.35 21.6 72.35 10.35 69.2 10.35 69.2 24.5 78.1 24.5 M 64.8 12 Q 63.8 11 62.4 10.5 61 10 59.3 10 57.65 10 56.25 10.5 54.85 11 53.85 12 52.85 12.95 52.25 14.35 51.7 15.7 51.7 17.4 51.7 19.1 52.25 20.5 52.85 21.9 53.85 22.85 54.85 23.8 56.25 24.35 57.65 24.85 59.3 24.85 61 24.85 62.4 24.35 63.8 23.8 64.8 22.85 65.8 21.9 66.4 20.5 66.95 19.1 66.95 17.4 66.95 15.7 66.4 14.35 65.8 12.95 64.8 12 M 63.4 15.6 Q 63.7 16.45 63.7 17.4 63.7 18.4 63.4 19.25 63.1 20.1 62.5 20.7 61.95 21.3 61.15 21.65 60.3 22 59.3 22 58.3 22 57.5 21.65 56.7 21.3 56.15 20.7 55.55 20.1 55.25 19.25 54.95 18.4 54.95 17.4 54.95 16.45 55.25 15.6 55.55 14.75 56.15 14.15 56.7 13.55 57.5 13.2 58.3 12.85 59.3 12.85 60.3 12.85 61.15 13.2 61.95 13.55 62.5 14.15 63.1 14.75 63.4 15.6 M 90.4 11.95 Q 89.3 11.1 87.75 10.7 86.2 10.35 84.5 10.35 L 79.85 10.35 79.85 24.5 84.95 24.5 Q 86.5 24.5 87.95 24.05 89.4 23.6 90.5 22.7 91.6 21.8 92.25 20.5 92.9 19.2 92.9 17.45 92.9 15.5 92.2 14.15 91.55 12.8 90.4 11.95 M 86.65 13.45 Q 87.55 13.7 88.2 14.2 88.85 14.7 89.25 15.5 89.65 16.25 89.65 17.3 89.65 18.5 89.25 19.35 88.85 20.15 88.2 20.65 87.5 21.2 86.6 21.4 85.65 21.6 84.6 21.6 L 82.95 21.6 82.95 13.2 84.8 13.2 Q 85.75 13.2 86.65 13.45 Z"
         id="path14380" />
    </g>
    <g
       id="FingerSide_0_Layer0_0_FILL">
      <path
         fill="#F1B776"
         stroke="none"
         d=" M -14.15 -11.8 L -13.05 -12 Q -11.75 -10.15 -9.95 -11.5 L -9.15 -13.65 Q -10.1 -13.7 -10.95 -13.95 -16.55 -15 -22.15 -13.95 -18.65 -12.2 -17.35 -8.2 L -15.75 -8.05 Q -14.5 -9.65 -14.15 -11.8 M 32.3 -2.65 Q 30.6 -2.6 28.95 -2.55 24.2 -2.85 19.65 -3.65 21.8 2.1 14.65 3.4 13.2 3.55 11.75 3.8 5.05 5.2 -1.85 4.95 -8.85 4.5 -15.85 3.65 -17.95 3.3 -20 4.15 -25.4 6.4 -31.05 7.5 -32.35 7.65 -33.55 7.35 -34.35 7.15 -35.05 6.75 -37.95 5.05 -40.35 2.6 -38.9 7.5 -36.3 12.05 -35.45 13.55 -34.5 15.1 -33.6 14.8 -32.65 14.55 -29.15 13.4 -25.7 11.9 -19.65 9.35 -13.2 9.05 -6 9.75 1.15 9.75 5.3 9.75 9.5 9.6 15.6 8.8 21.65 6.8 29 4.4 32.3 -2.65 M 11.2 -8.75 L 10.55 -9.1 Q 9.65 -10.5 10 -12.3 L 5.55 -12.7 Q 6.15 -12.2 6.45 -11.55 9.9 -4.25 18.35 -4.1 16.95 -4.7 15.6 -5.3 11.95 -6.95 11.2 -8.75 Z"
         id="path14383" />
      <path
         fill="url(#Gradient_2)"
         stroke="none"
         d=" M 36.95 -3.95 L 32.3 -2.65 Q 29 4.4 21.65 6.8 15.6 8.8 9.5 9.6 5.3 9.75 1.15 9.75 -6 9.75 -13.2 9.05 -19.65 9.35 -25.7 11.9 -29.15 13.4 -32.65 14.55 -33.6 14.8 -34.5 15.1 -35.2 15.25 -35.9 15.5 L -35.9 19.65 Q -34.65 19.3 -33.4 18.95 -32.8 18.75 -32.15 18.55 -23.8 16 -15.8 12.85 6.85 14.6 16.85 12.5 27.65 10.3 32.2 4.65 32.9 3.8 33.5 3 36.45 -1 36.95 -3.95 Z"
         id="path14385" />
      <path
         fill="#FFFFFF"
         stroke="none"
         d=" M 32.4 -9.2 Q 32.45 -9.15 32.45 -9.1 32.5 -9.05 32.5 -9 32.55 -8.95 32.55 -8.9 32.55 -8.85 32.55 -8.8 32.55 -8.75 32.6 -8.7 32.6 -8.65 32.6 -8.6 32.65 -8.55 32.65 -8.45 32.7 -8.4 32.7 -8.35 32.7 -8.25 32.7 -8.15 32.7 -7.95 32.7 -7.75 32.7 -7.6 32.7 -7.45 32.7 -7.35 32.7 -7.25 32.65 -7.2 32.6 -7.15 32.6 -7.1 32.6 -7.05 32.55 -6.95 32.55 -6.85 32.55 -6.8 32.55 -6.75 33 -6.85 33.5 -6.9 33.85 -6.95 34.25 -7 34.35 -7.05 34.4 -7.1 35 -7.7 35.05 -8.65 34.3 -8.85 33.5 -9 32.95 -9.1 32.4 -9.2 M 12.8 -11.05 Q 12.75 -11.1 12.7 -11.1 L 10 -12.3 Q 9.65 -10.5 10.55 -9.1 L 11.2 -8.75 Q 11.5 -8.7 11.9 -8.55 L 12 -8.55 Q 12.4 -8.4 12.95 -8.2 L 12.95 -8.25 Q 12.95 -8.3 13 -8.35 13 -8.45 13 -8.55 13 -8.65 13 -8.75 13 -8.85 13 -8.95 13 -9 13 -9.05 12.95 -9.1 12.95 -9.15 12.95 -9.2 13 -9.25 13 -9.3 13 -9.35 13.05 -9.4 13.05 -9.45 13.05 -9.55 13.05 -9.65 13.05 -9.8 13.05 -9.95 13.05 -10.05 13.05 -10.15 13.05 -10.25 13.1 -10.35 13.1 -10.4 13.1 -10.45 13.05 -10.5 13.05 -10.55 13.05 -10.6 13 -10.65 13 -10.7 12.95 -10.75 12.95 -10.8 12.9 -10.85 12.9 -10.9 12.9 -10.95 12.85 -11 12.8 -11.05 Z"
         id="path14387" />
      <path
         fill="url(#Gradient_3)"
         stroke="none"
         d=" M 10 -12.3 L 10.3 -16.4 -8.9 -17.65 Q -9 -17.65 -9.05 -17.65 -9.35 -17.65 -9.6 -17.65 -16.85 -19.5 -24.05 -17.6 -24.15 -17.6 -24.15 -17.55 -30.4 -16.25 -36.25 -14.75 -39.4 -14 -42.4 -13.2 -43.25 -13 -44.1 -12.75 L -44.1 -8.6 Q -44 -8.65 -43.85 -8.65 -42.6 -9 -41.35 -9.35 -38.6 -10.1 -35.75 -10.75 -29.65 -12.3 -23.2 -13.7 L -23.1 -13.7 Q -22.65 -13.85 -22.15 -13.95 -16.55 -15 -10.95 -13.95 -10.1 -13.7 -9.15 -13.65 L 5.55 -12.7 10 -12.3 Z"
         id="path14389" />
      <path
         fill="#FBCF9B"
         stroke="none"
         d=" M 19.65 -3.65 Q 19 -3.85 18.35 -4.1 9.9 -4.25 6.45 -11.55 6.15 -12.2 5.55 -12.7 L -9.15 -13.65 -9.95 -11.5 Q -11.75 -10.15 -13.05 -12 L -14.15 -11.8 Q -14.5 -9.65 -15.75 -8.05 L -17.35 -8.2 Q -18.65 -12.2 -22.15 -13.95 -22.65 -13.85 -23.1 -13.7 L -23.2 -13.7 Q -29.65 -12.3 -35.75 -10.75 -38.6 -10.1 -41.35 -9.35 -41.75 -4.65 -40.95 -0.2 L -41 -0.2 Q -40.75 1.15 -40.4 2.55 L -40.35 2.6 Q -37.95 5.05 -35.05 6.75 -34.35 7.15 -33.55 7.35 -32.35 7.65 -31.05 7.5 -25.4 6.4 -20 4.15 -17.95 3.3 -15.85 3.65 -8.85 4.5 -1.85 4.95 5.05 5.2 11.75 3.8 13.2 3.55 14.65 3.4 21.8 2.1 19.65 -3.65 Z"
         id="path14391" />
      <path
         fill="url(#Gradient_4)"
         stroke="none"
         d=" M 12 -8.55 L 11.9 -8.55 Q 11.5 -8.7 11.2 -8.75 11.95 -6.95 15.6 -5.3 16.95 -4.7 18.35 -4.1 19 -3.85 19.65 -3.65 24.2 -2.85 28.95 -2.55 30.6 -2.6 32.3 -2.65 L 34.4 -7.1 Q 34.35 -7.05 34.25 -7 33.85 -6.95 33.5 -6.9 33 -6.85 32.55 -6.75 21.35 -5.4 15.95 -7.2 14.55 -7.7 13.5 -8.05 13.2 -8.15 12.95 -8.2 12.4 -8.4 12 -8.55 Z"
         id="path14393" />
      <path
         fill="#FFFCF4"
         stroke="none"
         d=" M 13.4 -10.95 Q 13.1 -10.95 12.8 -11.05 12.85 -11 12.9 -10.95 12.9 -10.9 12.9 -10.85 12.95 -10.8 12.95 -10.75 13 -10.7 13 -10.65 13.05 -10.6 13.05 -10.55 13.05 -10.5 13.1 -10.45 13.1 -10.4 13.1 -10.35 13.05 -10.25 13.05 -10.15 13.05 -10.05 13.05 -9.95 13.05 -9.8 13.05 -9.65 13.05 -9.55 13.05 -9.45 13.05 -9.4 13 -9.35 13 -9.3 13 -9.25 12.95 -9.2 12.95 -9.15 12.95 -9.1 13 -9.05 13 -9 13 -8.95 13 -8.85 13 -8.75 13 -8.65 13 -8.55 13 -8.45 13 -8.35 12.95 -8.3 12.95 -8.25 L 12.95 -8.2 Q 13.2 -8.15 13.5 -8.05 14.55 -7.7 15.95 -7.2 21.35 -5.4 32.55 -6.75 32.55 -6.8 32.55 -6.85 32.55 -6.95 32.6 -7.05 32.6 -7.1 32.6 -7.15 32.65 -7.2 32.7 -7.25 32.7 -7.35 32.7 -7.45 32.7 -7.6 32.7 -7.75 32.7 -7.95 32.7 -8.15 32.7 -8.25 32.7 -8.35 32.7 -8.4 32.65 -8.45 32.65 -8.55 32.6 -8.6 32.6 -8.65 32.6 -8.7 32.55 -8.75 32.55 -8.8 32.55 -8.85 32.55 -8.9 32.55 -8.95 32.5 -9 32.5 -9.05 32.45 -9.1 32.45 -9.15 32.4 -9.2 24.35 -10.65 13.4 -10.95 Z"
         id="path14395" />
      <path
         fill="#876B47"
         stroke="none"
         d=" M 11 -16.2 Q 10.65 -16.35 10.3 -16.4 L 10 -12.3 12.7 -11.1 Q 12.75 -11.1 12.8 -11.05 13.1 -10.95 13.4 -10.95 24.35 -10.65 32.4 -9.2 32.95 -9.1 33.5 -9 34.3 -8.85 35.05 -8.65 35 -7.7 34.4 -7.1 L 32.3 -2.65 36.95 -3.95 Q 37.55 -4.4 37.95 -4.9 39.6 -7.05 38.95 -10.65 38.8 -11.25 38.4 -11.65 38.2 -11.9 37.95 -12 37.7 -12.2 37.45 -12.25 35.55 -12.7 33.5 -13.05 25.2 -14.6 13.9 -14.95 L 11 -16.2 Z"
         id="path14397" />
      <path
         fill="url(#Gradient_5)"
         stroke="none"
         d=" M 15 -19.9 L 13 -20.8 13.05 -20.8 Q 11.9 -21.3 10.75 -21.35 10.523046875 -21.3953125 10.35 -21.4 L 10.6 -21.4 -8.6 -22.65 Q -8.7 -22.65 -8.75 -22.65 -8.85 -22.65 -8.95 -22.65 -17.15 -24.6 -25.35 -22.4 L -25.2 -22.45 Q -25.35 -22.45 -25.45 -22.4 -31.3 -21.15 -36.85 -19.75 L -36.25 -14.75 Q -30.4 -16.25 -24.15 -17.55 -24.15 -17.6 -24.05 -17.6 -16.85 -19.5 -9.6 -17.65 -9.35 -17.65 -9.05 -17.65 -9 -17.65 -8.9 -17.65 L 10.3 -16.4 Q 10.65 -16.35 11 -16.2 L 13.9 -14.95 Q 25.2 -14.6 33.5 -13.05 35.55 -12.7 37.45 -12.25 37.7 -12.2 37.95 -12 38.2 -11.9 38.4 -11.65 38.8 -11.25 38.95 -10.65 39.6 -7.05 37.95 -4.9 37.55 -4.4 36.95 -3.95 36.45 -1 33.5 3 32.9 3.8 32.2 4.65 27.65 10.3 16.85 12.5 6.85 14.6 -15.8 12.85 -23.8 16 -32.15 18.55 L -31.55 23.6 Q -23.1 21.05 -15 17.9 7.7 19.6 17.9 17.4 30.75 14.75 36.1 7.8 L 36.05 7.8 Q 36.85 6.85 37.5 6 L 37.55 5.95 Q 40.55 1.9 41.5 -1.35 41.7 -1.6 41.9 -1.8 45 -5.35 43.85 -11.6 L 43.85 -11.65 Q 43.45 -13.6 42.05 -15.1 42 -15.1 42 -15.15 41.35 -15.8 40.65 -16.25 40.5 -16.35 40.35 -16.4 39.55 -16.9 38.65 -17.1 L 38.6 -17.1 Q 36.6 -17.6 34.4 -18 26.15 -19.5 15 -19.9 Z"
         id="path14399" />
    </g>
    <g
       id="Layer20_0_FILL">
      <path
         fill="#000000"
         fill-opacity="0.2"
         stroke="none"
         d=" M 4.05 43.85 Q 4.1 41.45 2.25 39.65 0.45 37.8 -1.95 37.85 L -19.95 37.85 -19.95 35.55 Q -19.9 33.15 -21.75 31.35 -23.55 29.5 -25.95 29.55 L -31.2 29.55 Q -32.9 29.55 -34.35 30.45 L -55.2 43.15 Q -55.4 43.25 -55.6 43.4 -56.35 44 -56.95 44.75 -57.35 45.3 -57.6 45.9 -58.05 47.05 -58.05 48.25 L -58.05 51.85 Q -58.05 53.05 -57.6 54.2 -57.35 54.8 -56.95 55.35 -56.35 56.1 -55.6 56.7 -55.4 56.85 -55.2 57 L -34.35 69.65 Q -32.9 70.5 -31.2 70.5 L -25.95 70.5 Q -23.55 70.55 -21.75 68.75 -19.9 66.9 -19.95 64.5 L -19.95 61.85 -1.95 61.85 Q 0.45 61.9 2.25 60.1 4.1 58.25 4.05 55.85 L 4.05 43.85 M -25.95 34.55 Q -25.55 34.55 -25.25 34.85 -24.95 35.15 -24.95 35.55 L -24.95 42.85 -1.95 42.85 Q -1.55 42.85 -1.25 43.15 -0.95 43.45 -0.95 43.85 L -0.95 55.85 Q -0.95 56.25 -1.25 56.55 -1.55 56.85 -1.95 56.85 L -24.95 56.85 -24.95 64.5 Q -24.95 64.9 -25.25 65.2 -25.55 65.5 -25.95 65.5 L -31.2 65.5 Q -31.5 65.5 -31.75 65.35 L -52.6 52.7 Q -52.8 52.55 -52.95 52.35 -53.05 52.1 -53.05 51.85 L -53.05 48.25 Q -53.05 48 -52.95 47.75 -52.8 47.55 -52.6 47.4 L -31.75 34.7 Q -31.5 34.55 -31.2 34.55 L -25.95 34.55 M 125.9 29.55 Q 123.5 29.5 121.7 31.35 119.85 33.15 119.9 35.55 L 119.9 37.85 101.9 37.85 Q 99.5 37.8 97.7 39.65 95.85 41.45 95.9 43.85 L 95.9 55.85 Q 95.85 58.25 97.7 60.1 99.5 61.9 101.9 61.85 L 119.9 61.85 119.9 64.5 Q 119.85 66.9 121.7 68.75 123.5 70.55 125.9 70.5 L 131.15 70.5 Q 132.85 70.5 134.3 69.65 L 155.15 57 Q 155.35 56.85 155.55 56.7 156.3 56.1 156.9 55.35 157.3 54.8 157.55 54.2 158 53.05 158 51.85 L 158 48.25 Q 158 47.05 157.55 45.9 157.3 45.3 156.9 44.75 156.3 44 155.55 43.4 155.35 43.25 155.15 43.15 L 134.3 30.45 Q 132.85 29.55 131.15 29.55 L 125.9 29.55 M 125.9 34.55 L 131.15 34.55 Q 131.45 34.55 131.7 34.7 L 152.55 47.4 Q 152.75 47.55 152.9 47.75 153 48 153 48.25 L 153 51.85 Q 153 52.1 152.9 52.35 152.75 52.55 152.55 52.7 L 131.7 65.35 Q 131.45 65.5 131.15 65.5 L 125.9 65.5 Q 125.5 65.5 125.2 65.2 124.9 64.9 124.9 64.5 L 124.9 56.85 101.9 56.85 Q 101.5 56.85 101.2 56.55 100.9 56.25 100.9 55.85 L 100.9 43.85 Q 100.9 43.45 101.2 43.15 101.5 42.85 101.9 42.85 L 124.9 42.85 124.9 35.55 Q 124.9 35.15 125.2 34.85 125.5 34.55 125.9 34.55 Z"
         id="path14402" />
      <path
         fill="#A91818"
         stroke="none"
         d=" M -25.25 34.85 Q -25.55 34.55 -25.95 34.55 L -31.2 34.55 Q -31.5 34.55 -31.75 34.7 L -52.6 47.4 Q -52.8 47.55 -52.95 47.75 -53.05 48 -53.05 48.25 L -53.05 51.85 Q -53.05 52.1 -52.95 52.35 -52.8 52.55 -52.6 52.7 L -31.75 65.35 Q -31.5 65.5 -31.2 65.5 L -25.95 65.5 Q -25.55 65.5 -25.25 65.2 -24.95 64.9 -24.95 64.5 L -24.95 56.85 -1.95 56.85 Q -1.55 56.85 -1.25 56.55 -0.95 56.25 -0.95 55.85 L -0.95 43.85 Q -0.95 43.45 -1.25 43.15 -1.55 42.85 -1.95 42.85 L -24.95 42.85 -24.95 35.55 Q -24.95 35.15 -25.25 34.85 M -28.95 42.85 Q -28.95 44.5 -27.8 45.7 -26.6 46.85 -24.95 46.85 L -4.95 46.85 -4.95 52.85 -24.95 52.85 Q -26.6 52.85 -27.8 54 L -27.8 54.05 Q -28.95 55.2 -28.95 56.85 L -28.95 61.5 -30.45 61.5 -49.3 50.05 -30.45 38.55 -28.95 38.55 -28.95 42.85 M 131.15 34.55 L 125.9 34.55 Q 125.5 34.55 125.2 34.85 124.9 35.15 124.9 35.55 L 124.9 42.85 101.9 42.85 Q 101.5 42.85 101.2 43.15 100.9 43.45 100.9 43.85 L 100.9 55.85 Q 100.9 56.25 101.2 56.55 101.5 56.85 101.9 56.85 L 124.9 56.85 124.9 64.5 Q 124.9 64.9 125.2 65.2 125.5 65.5 125.9 65.5 L 131.15 65.5 Q 131.45 65.5 131.7 65.35 L 152.55 52.7 Q 152.75 52.55 152.9 52.35 153 52.1 153 51.85 L 153 48.25 Q 153 48 152.9 47.75 152.75 47.55 152.55 47.4 L 131.7 34.7 Q 131.45 34.55 131.15 34.55 M 127.75 45.7 Q 128.9 44.5 128.9 42.85 L 128.9 38.55 130.4 38.55 149.25 50.05 130.4 61.5 128.9 61.5 128.9 56.85 Q 128.9 55.2 127.75 54.05 L 127.75 54 Q 126.55 52.85 124.9 52.85 L 104.9 52.85 104.9 46.85 124.9 46.85 Q 126.55 46.85 127.75 45.7 Z"
         id="path14404" />
      <path
         fill="#E02727"
         stroke="none"
         d=" M -27.8 45.7 Q -28.95 44.5 -28.95 42.85 L -28.95 38.55 -30.45 38.55 -49.3 50.05 -30.45 61.5 -28.95 61.5 -28.95 56.85 Q -28.95 55.2 -27.8 54.05 L -27.8 54 Q -26.6 52.85 -24.95 52.85 L -4.95 52.85 -4.95 46.85 -24.95 46.85 Q -26.6 46.85 -27.8 45.7 M 128.9 42.85 Q 128.9 44.5 127.75 45.7 126.55 46.85 124.9 46.85 L 104.9 46.85 104.9 52.85 124.9 52.85 Q 126.55 52.85 127.75 54 L 127.75 54.05 Q 128.9 55.2 128.9 56.85 L 128.9 61.5 130.4 61.5 149.25 50.05 130.4 38.55 128.9 38.55 128.9 42.85 Z"
         id="path14406" />
    </g>
    <g
       id="Layer19_0_FILL">
      <path
         fill="#404040"
         stroke="none"
         d=" M 97.05 45.9 Q 96.95 37 90.65 30.7 84.2 24.25 75.05 24.25 74.4 24.25 25.65 24.3 L 25.6 24.3 Q 25.55 24.3 25.5 24.3 L 25.45 24.3 Q 17.25 24.75 11.35 30.7 5 37 4.9 45.9 4.9 53.6 4.9 53.8 4.9 62.95 11.35 69.4 17.25 75.3 25.4 75.8 25.45 75.8 25.5 75.8 25.55 75.8 25.6 75.8 L 25.7 75.8 Q 74.4 75.8 75.05 75.8 84.2 75.8 90.65 69.4 97.05 62.95 97.05 53.8 97.05 53.6 97.05 45.9 M 87.8 33.55 Q 92.95 38.7 93.05 45.9 L 93.05 45.95 Q 93.05 53.6 93.05 53.8 93.05 61.25 87.8 66.55 82.5 71.8 75.05 71.8 74.4 71.8 25.75 71.8 19.05 71.4 14.2 66.55 8.9 61.25 8.9 53.8 8.9 53.6 8.9 45.95 L 8.9 45.9 Q 9 38.7 14.2 33.55 19 28.65 25.7 28.3 74.4 28.25 75.05 28.25 82.5 28.25 87.8 33.55 Z"
         id="path14409" />
      <path
         fill="#D7D7D7"
         stroke="none"
         d=" M 93.05 45.9 Q 92.95 38.7 87.8 33.55 82.5 28.25 75.05 28.25 74.4 28.25 25.7 28.3 19 28.65 14.2 33.55 9 38.7 8.9 45.9 L 8.9 45.95 Q 8.9 53.6 8.9 53.8 8.9 61.25 14.2 66.55 19.05 71.4 25.75 71.8 74.4 71.8 75.05 71.8 82.5 71.8 87.8 66.55 93.05 61.25 93.05 53.8 93.05 53.6 93.05 45.95 L 93.05 45.9 M 85.35 36 Q 89.45 40.1 89.55 45.85 L 89.55 45.9 Q 89.55 53.6 89.55 53.8 89.55 59.85 85.35 64.1 81.1 68.3 75.05 68.3 74.4 68.3 25.9 68.3 25.75 68.3 25.6 68.3 L 25.5 68.3 Q 20.35 67.8 16.65 64.1 12.4 59.85 12.4 53.8 12.4 53.6 12.4 45.9 L 12.4 45.85 Q 12.5 40.1 16.65 36 20.5 32.1 25.85 31.8 L 25.9 31.8 Q 25.95 31.8 26 31.8 L 26.05 31.8 Q 74.4 31.75 75.05 31.75 81.1 31.75 85.35 36 Z"
         id="path14411" />
      <path
         fill="#FFFFFF"
         stroke="none"
         d=" M 89.55 45.85 Q 89.45 40.1 85.35 36 81.1 31.75 75.05 31.75 74.4 31.75 26.05 31.8 L 26 31.8 Q 25.95 31.8 25.9 31.8 L 25.85 31.8 Q 20.5 32.1 16.65 36 12.5 40.1 12.4 45.85 L 12.4 45.9 Q 12.4 53.6 12.4 53.8 12.4 59.85 16.65 64.1 20.35 67.8 25.5 68.3 L 25.6 68.3 Q 25.75 68.3 25.9 68.3 74.4 68.3 75.05 68.3 81.1 68.3 85.35 64.1 89.55 59.85 89.55 53.8 89.55 53.6 89.55 45.9 L 89.55 45.85 M 82.5 38.85 Q 85.45 41.8 85.55 45.9 L 85.55 45.95 Q 85.55 53.6 85.55 53.8 85.55 58.15 82.5 61.25 79.4 64.3 75.05 64.3 74.4 64.3 25.95 64.3 22.2 63.95 19.5 61.25 16.4 58.15 16.4 53.8 16.4 53.6 16.4 45.95 16.5 41.8 19.5 38.85 22.25 36.05 26 35.8 26.05 35.8 26.1 35.8 74.4 35.75 75.05 35.75 79.4 35.75 82.5 38.85 Z"
         id="path14413" />
      <path
         fill="#F5F5F5"
         stroke="none"
         d=" M 85.55 45.9 Q 85.45 41.8 82.5 38.85 79.4 35.75 75.05 35.75 74.4 35.75 26.1 35.8 26.05 35.8 26 35.8 22.25 36.05 19.5 38.85 16.5 41.8 16.4 45.95 16.4 53.6 16.4 53.8 16.4 58.15 19.5 61.25 22.2 63.95 25.95 64.3 74.4 64.3 75.05 64.3 79.4 64.3 82.5 61.25 85.55 58.15 85.55 53.8 85.55 53.6 85.55 45.95 L 85.55 45.9 M 82.3 42.65 L 82.3 45.55 78.05 45.55 78.05 57.5 74.8 57.5 74.8 45.55 70.55 45.55 70.55 42.65 82.3 42.65 M 43.45 42.65 L 43.45 45.55 39.2 45.55 39.2 57.5 35.95 57.5 35.95 45.55 31.7 45.55 31.7 42.65 43.45 42.65 M 48.05 42.65 L 50.75 42.65 57.25 57.5 53.55 57.5 52.25 54.35 46.5 54.35 45.25 57.5 41.65 57.5 48.05 42.65 M 68.4 43.6 Q 69.15 44.1 69.6 44.95 70.05 45.85 70.05 47.15 70.05 48.7 69.25 49.8 68.45 50.95 66.85 51.2 L 70.65 57.5 66.7 57.5 63.6 51.55 62 51.55 62 57.5 58.7 57.5 58.7 42.65 64.45 42.65 Q 65.6 42.65 66.6 42.85 67.65 43.05 68.4 43.6 M 26.05 42.25 Q 27.3 42.25 28.5 42.6 29.65 42.95 30.6 43.8 L 28.35 46.25 Q 27.95 45.75 27.3 45.5 26.6 45.3 26 45.3 25.65 45.3 25.25 45.35 24.9 45.45 24.55 45.65 24.2 45.8 24 46.1 23.8 46.4 23.8 46.8 23.8 47.5 24.3 47.85 24.8 48.2 25.55 48.45 26.35 48.7 27.2 48.95 28.1 49.2 28.85 49.65 29.65 50.15 30.15 50.9 30.65 51.7 30.65 53 30.65 54.25 30.15 55.15 29.7 56.05 28.9 56.7 28.15 57.3 27.1 57.6 26.05 57.9 24.9 57.9 23.45 57.9 22.2 57.45 21 57 19.9 56 L 22.25 53.45 Q 22.75 54.1 23.5 54.5 24.3 54.85 25.1 54.85 25.5 54.85 25.9 54.75 26.3 54.65 26.65 54.5 26.95 54.3 27.15 54 27.35 53.7 27.35 53.3 27.35 52.65 26.85 52.25 26.35 51.85 25.55 51.55 24.8 51.3 23.9 51.05 22.95 50.75 22.2 50.3 21.4 49.85 20.9 49.1 20.4 48.3 20.4 47.1 20.4 45.9 20.85 45 21.35 44.1 22.1 43.45 22.9 42.85 23.95 42.55 24.95 42.25 26.05 42.25 M 62 45.4 L 62 48.8 63.9 48.8 Q 64.35 48.8 64.85 48.75 65.35 48.7 65.75 48.55 66.15 48.4 66.4 48.05 66.65 47.75 66.65 47.1 66.65 46.55 66.45 46.2 66.2 45.9 65.85 45.7 65.5 45.5 65.05 45.45 64.55 45.4 64.15 45.4 L 62 45.4 M 47.5 51.6 L 51.15 51.6 49.3 46.95 47.5 51.6 Z"
         id="path14415" />
      <path
         fill="#999999"
         stroke="none"
         d=" M 28.5 42.6 Q 27.3 42.25 26.05 42.25 24.95 42.25 23.95 42.55 22.9 42.85 22.1 43.45 21.35 44.1 20.85 45 20.4 45.9 20.4 47.1 20.4 48.3 20.9 49.1 21.4 49.85 22.2 50.3 22.95 50.75 23.9 51.05 24.8 51.3 25.55 51.55 26.35 51.85 26.85 52.25 27.35 52.65 27.35 53.3 27.35 53.7 27.15 54 26.95 54.3 26.65 54.5 26.3 54.65 25.9 54.75 25.5 54.85 25.1 54.85 24.3 54.85 23.5 54.5 22.75 54.1 22.25 53.45 L 19.9 56 Q 21 57 22.2 57.45 23.45 57.9 24.9 57.9 26.05 57.9 27.1 57.6 28.15 57.3 28.9 56.7 29.7 56.05 30.15 55.15 30.65 54.25 30.65 53 30.65 51.7 30.15 50.9 29.65 50.15 28.85 49.65 28.1 49.2 27.2 48.95 26.35 48.7 25.55 48.45 24.8 48.2 24.3 47.85 23.8 47.5 23.8 46.8 23.8 46.4 24 46.1 24.2 45.8 24.55 45.65 24.9 45.45 25.25 45.35 25.65 45.3 26 45.3 26.6 45.3 27.3 45.5 27.95 45.75 28.35 46.25 L 30.6 43.8 Q 29.65 42.95 28.5 42.6 M 69.6 44.95 Q 69.15 44.1 68.4 43.6 67.65 43.05 66.6 42.85 65.6 42.65 64.45 42.65 L 58.7 42.65 58.7 57.5 62 57.5 62 51.55 63.6 51.55 66.7 57.5 70.65 57.5 66.85 51.2 Q 68.45 50.95 69.25 49.8 70.05 48.7 70.05 47.15 70.05 45.85 69.6 44.95 M 62 48.8 L 62 45.4 64.15 45.4 Q 64.55 45.4 65.05 45.45 65.5 45.5 65.85 45.7 66.2 45.9 66.45 46.2 66.65 46.55 66.65 47.1 66.65 47.75 66.4 48.05 66.15 48.4 65.75 48.55 65.35 48.7 64.85 48.75 64.35 48.8 63.9 48.8 L 62 48.8 M 50.75 42.65 L 48.05 42.65 41.65 57.5 45.25 57.5 46.5 54.35 52.25 54.35 53.55 57.5 57.25 57.5 50.75 42.65 M 51.15 51.6 L 47.5 51.6 49.3 46.95 51.15 51.6 M 43.45 45.55 L 43.45 42.65 31.7 42.65 31.7 45.55 35.95 45.55 35.95 57.5 39.2 57.5 39.2 45.55 43.45 45.55 M 82.3 45.55 L 82.3 42.65 70.55 42.65 70.55 45.55 74.8 45.55 74.8 57.5 78.05 57.5 78.05 45.55 82.3 45.55 Z"
         id="path14417" />
    </g>
    <g
       id="Layer18_0_FILL">
      <path
         fill="#1B1B1B"
         stroke="none"
         d=" M 78.55 21.4 L 78.6 21.4 Q 66.8 9.6 50 9.6 33.25 9.6 21.35 21.4 9.55 33.25 9.55 50 9.55 66.75 21.35 78.6 L 21.35 78.65 Q 33.25 90.45 50 90.45 66.75 90.45 78.55 78.65 L 78.6 78.6 Q 90.45 66.75 90.45 50 90.45 33.2 78.55 21.4 M 50 13.6 Q 65.1 13.6 75.75 24.25 86.45 34.9 86.45 50 86.45 65.1 75.75 75.8 65.1 86.45 50 86.45 34.9 86.45 24.2 75.8 L 24.15 75.8 Q 13.55 65.1 13.55 50 13.55 34.9 24.15 24.25 L 24.2 24.2 Q 34.9 13.6 50 13.6 Z"
         id="path14420" />
      <path
         fill="#313131"
         stroke="none"
         d=" M 75.75 24.25 Q 65.1 13.6 50 13.6 34.9 13.6 24.2 24.2 L 24.15 24.25 Q 13.55 34.9 13.55 50 13.55 65.1 24.15 75.8 L 24.2 75.8 Q 34.9 86.45 50 86.45 65.1 86.45 75.75 75.8 86.45 65.1 86.45 50 86.45 34.9 75.75 24.25 M 71.9 28.05 L 71.95 28.05 Q 81 37.1 81 50 81 62.85 71.95 71.95 62.85 81 50 81 37.1 81 28.05 71.95 L 28.05 71.9 Q 19 62.8 19 50 19 37.15 28.05 28.05 37.15 19 50 19 62.8 19 71.9 28.05 Z"
         id="path14422" />
      <path
         fill="#626262"
         stroke="none"
         d=" M 71.95 28.05 L 71.9 28.05 Q 62.8 19 50 19 37.15 19 28.05 28.05 19 37.15 19 50 19 62.8 28.05 71.9 L 28.05 71.95 Q 37.1 81 50 81 62.85 81 71.95 71.95 81 62.85 81 50 81 37.1 71.95 28.05 M 50 23 Q 61.2 23 69.1 30.9 77 38.8 77 50 77 61.15 69.1 69.1 61.15 77 50 77 38.8 77 30.9 69.1 23 61.2 23 50 23 38.8 30.85 30.9 L 30.9 30.85 Q 38.8 23 50 23 Z"
         id="path14424" />
      <path
         fill="#4F4F4F"
         stroke="none"
         d=" M 69.1 30.9 Q 61.2 23 50 23 38.8 23 30.9 30.85 L 30.85 30.9 Q 23 38.8 23 50 23 61.2 30.9 69.1 38.8 77 50 77 61.15 77 69.1 69.1 77 61.15 77 50 77 38.8 69.1 30.9 M 50.55 44.4 L 57.05 33.25 65.55 33.25 55.25 48.3 66.8 65.1 57.95 65.1 50.2 52.25 42.65 65.1 34.3 65.1 45.45 48.45 34.95 33.25 43.75 33.25 50.55 44.4 Z"
         id="path14426" />
      <path
         fill="#4196F3"
         stroke="none"
         d=" M 57.05 33.25 L 50.55 44.4 43.75 33.25 34.95 33.25 45.45 48.45 34.3 65.1 42.65 65.1 50.2 52.25 57.95 65.1 66.8 65.1 55.25 48.3 65.55 33.25 57.05 33.25 Z"
         id="path14428" />
    </g>
    <g
       id="Layer17_0_FILL">
      <path
         fill="#1B1B1B"
         stroke="none"
         d=" M 49.7 65.8 L 46.5 65.8 38.85 83.5 43.1 83.5 44.6 79.75 51.45 79.75 53 83.5 57.4 83.5 49.7 65.8 M 50.15 76.45 L 45.8 76.45 48 70.95 50.15 76.45 M 68.6 66.05 Q 67.4 65.8 66.05 65.8 L 59.2 65.8 59.2 83.5 63.1 83.5 63.1 76.4 65 76.4 68.7 83.5 73.4 83.5 68.9 76 Q 70.75 75.7 71.75 74.35 72.7 73.05 72.7 71.15 72.7 69.6 72.2 68.6 71.65 67.55 70.75 66.95 69.85 66.3 68.6 66.05 M 65.4 73.1 L 63.1 73.1 63.1 69.1 65.65 69.1 Q 66.2 69.1 66.75 69.15 67.25 69.25 67.7 69.45 68.1 69.65 68.4 70.05 68.65 70.5 68.65 71.15 68.65 71.9 68.35 72.25 68.05 72.65 67.55 72.85 67.1 73.05 66.5 73.1 65.9 73.1 65.4 73.1 M 26.95 65.8 L 26.95 69.25 32 69.25 32 83.5 35.9 83.5 35.9 69.25 40.95 69.25 40.95 65.8 26.95 65.8 M 23 70.1 L 25.7 67.2 Q 24.55 66.2 23.15 65.8 21.75 65.35 20.25 65.35 18.95 65.35 17.7 65.7 16.5 66.05 15.55 66.8 14.6 67.5 14.05 68.6 13.5 69.65 13.5 71.1 13.5 72.55 14.1 73.5 14.75 74.35 15.65 74.95 16.6 75.5 17.65 75.8 18.75 76.15 19.65 76.45 20.6 76.75 21.2 77.25 21.8 77.7 21.8 78.5 21.8 78.95 21.6 79.35 21.35 79.7 20.95 79.9 20.55 80.15 20.1 80.25 19.6 80.35 19.1 80.35 18.15 80.35 17.2 79.9 16.3 79.45 15.7 78.7 L 12.95 81.75 Q 14.2 82.9 15.7 83.45 17.15 83.95 18.9 83.95 20.25 83.95 21.5 83.6 22.75 83.25 23.65 82.5 24.6 81.8 25.15 80.7 25.7 79.6 25.7 78.15 25.7 76.6 25.1 75.65 24.5 74.7 23.6 74.15 22.7 73.6 21.65 73.3 20.6 73.05 19.65 72.7 18.75 72.45 18.15 72 17.55 71.55 17.55 70.8 17.55 70.3 17.8 69.95 18.05 69.55 18.45 69.35 18.85 69.15 19.3 69.05 19.75 68.95 20.2 68.95 20.9 68.95 21.7 69.25 22.55 69.5 23 70.1 M 82.25 83.5 L 82.25 69.25 87.3 69.25 87.3 65.8 73.3 65.8 73.3 69.25 78.35 69.25 78.35 83.5 82.25 83.5 Z"
         id="path14431" />
      <path
         fill="#313131"
         stroke="none"
         d=" M 84.6 40.55 L 84.6 29.5 15.4 13.45 15.4 56.6 84.6 40.55 M 22.9 47.2 L 22.9 22.9 75.25 35.05 22.9 47.2 Z"
         id="path14433" />
      <path
         fill="#4F4F4F"
         stroke="none"
         d=" M 22.9 22.9 L 22.9 47.2 75.25 35.05 22.9 22.9 Z"
         id="path14435" />
    </g>
    <g
       id="Layer16_0_FILL">
      <path
         fill="#1B1B1B"
         stroke="none"
         d=" M 78.55 21.4 L 78.6 21.4 Q 66.8 9.6 50 9.6 48.480078125 9.6 47 9.7 32.1701171875 10.670703125 21.35 21.4 12.11484375 30.67421875 10.1 42.95 9.55 46.3591796875 9.55 50 9.55 66.75 21.35 78.6 L 21.35 78.65 Q 33.25 90.45 50 90.45 66.75 90.45 78.55 78.65 L 78.6 78.6 Q 90.45 66.75 90.45 50 90.45 33.2 78.55 21.4 M 47 13.7 Q 48.477734375 13.6 50 13.6 65.1 13.6 75.75 24.25 86.45 34.9 86.45 50 86.45 65.1 75.75 75.8 65.1 86.45 50 86.45 34.9 86.45 24.2 75.8 L 24.15 75.8 Q 13.55 65.1 13.55 50 13.55 46.34453125 14.15 42.95 16.116015625 32.321875 24.15 24.25 L 24.2 24.2 Q 33.8212890625 14.6685546875 47 13.7 Z"
         id="path14438" />
      <path
         fill="#313131"
         stroke="none"
         d=" M 50 13.6 Q 48.477734375 13.6 47 13.7 33.8212890625 14.6685546875 24.2 24.2 L 24.15 24.25 Q 16.116015625 32.321875 14.15 42.95 13.55 46.34453125 13.55 50 13.55 65.1 24.15 75.8 L 24.2 75.8 Q 34.9 86.45 50 86.45 65.1 86.45 75.75 75.8 86.45 65.1 86.45 50 86.45 34.9 75.75 24.25 65.1 13.6 50 13.6 M 47 17.1 Q 48.4751953125 17 50 17 63.6 17 73.3 26.6 L 73.35 26.6 Q 83 36.25 83 50 83 63.65 73.35 73.35 63.65 83 50 83 36.25 83 26.6 73.35 L 26.6 73.3 Q 17 63.6 17 50 17 46.331640625 17.7 42.95 19.5705078125 33.702734375 26.6 26.6 35.2205078125 18.0685546875 47 17.1 Z"
         id="path14440" />
      <path
         fill="#626262"
         stroke="none"
         d=" M 50 17 Q 48.4751953125 17 47 17.1 35.2205078125 18.0685546875 26.6 26.6 19.5705078125 33.702734375 17.7 42.95 17 46.331640625 17 50 17 63.6 26.6 73.3 L 26.6 73.35 Q 36.25 83 50 83 63.65 83 73.35 73.35 83 63.65 83 50 83 36.25 73.35 26.6 L 73.3 26.6 Q 63.6 17 50 17 M 47 20.1 Q 48.4720703125 20 50 20 62.4 20 71.15 28.75 79.95 37.5 79.95 50 79.95 62.35 71.15 71.15 62.35 79.95 50 79.95 37.5 79.95 28.75 71.15 20 62.4 20 50 20 46.3119140625 20.75 42.95 22.566796875 34.918359375 28.7 28.75 L 28.75 28.7 Q 36.43046875 21.0634765625 47 20.1 Z"
         id="path14442" />
      <path
         fill="#4F4F4F"
         stroke="none"
         d=" M 50 20 Q 48.4720703125 20 47 20.1 36.43046875 21.0634765625 28.75 28.7 L 28.7 28.75 Q 22.566796875 34.918359375 20.75 42.95 20 46.3119140625 20 50 20 62.4 28.75 71.15 37.5 79.95 50 79.95 62.35 79.95 71.15 71.15 79.95 62.35 79.95 50 79.95 37.5 71.15 28.75 62.4 20 50 20 M 50 50 L 63 63 50 50 37 63 50 50 37.05 37.05 50 50 62.95 37.05 50 50 Z"
         id="path14444" />
    </g>
    <g
       id="Layer15_0_FILL">
      <path
         fill="#353535"
         stroke="none"
         d=" M 34.55 70.15 L 34.55 92.75 Q 50.05 96.65 65.5 92.75 L 65.5 70.15 50.1 54.6 34.55 70.15 M 49 64.2 Q 49.45 63.75 50.05 63.75 50.65 63.75 51.1 64.2 L 59.05 72.15 Q 59.5 72.6 59.5 73.2 L 59.5 86.6 Q 59.5 87.15 59.15 87.55 58.75 88 58.25 88.05 50.05 89.3 41.85 88.05 41.3 88 40.95 87.55 40.55 87.15 40.55 86.6 L 40.55 73.25 Q 40.55 72.65 41 72.2 L 49 64.2 M 30 34.5 L 7.25 34.5 Q 3.35 49.95 7.25 65.45 L 29.85 65.45 45.4 49.9 30 34.5 M 13.4 40.5 L 26.9 40.5 Q 27.55 40.5 28 40.95 L 35.85 48.85 Q 36.3 49.3 36.3 49.9 36.25 50.55 35.85 50.95 L 27.8 59 Q 27.35 59.45 26.75 59.45 L 13.4 59.45 Q 12.85 59.45 12.45 59.05 12 58.7 11.95 58.15 10.7 49.95 11.95 41.75 12 41.25 12.45 40.85 12.85 40.5 13.4 40.5 M 70.2 34.5 L 65.5 29.8 50 45.3 34.55 29.95 30 34.5 45.4 49.9 29.85 65.45 34.55 70.15 50.1 54.6 65.5 70.15 70.2 65.45 54.7 50 70.2 34.5 M 92.75 65.45 Q 96.65 49.95 92.75 34.5 L 70.2 34.5 54.7 50 70.2 65.45 92.75 65.45 M 86.6 40.5 Q 87.15 40.5 87.6 40.85 88 41.25 88.1 41.75 89.3 49.95 88.1 58.15 88 58.7 87.6 59.05 87.15 59.45 86.6 59.45 L 73.3 59.45 Q 72.7 59.45 72.25 59 L 64.25 51.05 Q 63.8 50.65 63.8 50 63.8 49.4 64.25 48.95 L 72.25 40.95 Q 72.7 40.5 73.3 40.5 L 86.6 40.5 Z"
         id="path14447" />
      <path
         fill="#535353"
         stroke="none"
         d=" M 50.05 63.75 Q 49.45 63.75 49 64.2 L 41 72.2 Q 40.55 72.65 40.55 73.25 L 40.55 86.6 Q 40.55 87.15 40.95 87.55 41.3 88 41.85 88.05 50.05 89.3 58.25 88.05 58.75 88 59.15 87.55 59.5 87.15 59.5 86.6 L 59.5 73.2 Q 59.5 72.6 59.05 72.15 L 51.1 64.2 Q 50.65 63.75 50.05 63.75 M 45.5 76.6 L 54.5 76.6 50.05 82.8 45.5 76.6 M 26.9 40.5 L 13.4 40.5 Q 12.85 40.5 12.45 40.85 12 41.25 11.95 41.75 10.7 49.95 11.95 58.15 12 58.7 12.45 59.05 12.85 59.45 13.4 59.45 L 26.75 59.45 Q 27.35 59.45 27.8 59 L 35.85 50.95 Q 36.25 50.55 36.3 49.9 36.3 49.3 35.85 48.85 L 28 40.95 Q 27.55 40.5 26.9 40.5 M 23.4 54.5 L 17.2 50.05 23.4 45.5 23.4 54.5 M 87.6 40.85 Q 87.15 40.5 86.6 40.5 L 73.3 40.5 Q 72.7 40.5 72.25 40.95 L 64.25 48.95 Q 63.8 49.4 63.8 50 63.8 50.65 64.25 51.05 L 72.25 59 Q 72.7 59.45 73.3 59.45 L 86.6 59.45 Q 87.15 59.45 87.6 59.05 88 58.7 88.1 58.15 89.3 49.95 88.1 41.75 88 41.25 87.6 40.85 M 76.65 54.5 L 76.65 45.5 82.85 50.05 76.65 54.5 Z"
         id="path14449" />
      <path
         fill="#D6D6D6"
         stroke="none"
         d=" M 54.5 76.6 L 45.5 76.6 50.05 82.8 54.5 76.6 M 17.2 50.05 L 23.4 54.5 23.4 45.5 17.2 50.05 M 76.65 45.5 L 76.65 54.5 82.85 50.05 76.65 45.5 Z"
         id="path14451" />
      <path
         fill="#D7D7D7"
         stroke="none"
         d=" M 65.5 29.8 L 65.5 7.25 Q 50.05 3.35 34.55 7.25 L 34.55 29.95 50 45.3 65.5 29.8 M 40.55 13.4 Q 40.55 12.85 40.95 12.4 41.3 12 41.85 11.9 50.05 10.7 58.25 11.9 58.75 12 59.15 12.4 59.5 12.85 59.5 13.4 L 59.5 26.7 Q 59.5 27.3 59.05 27.75 L 51.05 35.75 Q 50.6 36.2 50 36.2 49.35 36.2 48.95 35.75 L 41 27.85 Q 40.55 27.45 40.55 26.8 L 40.55 13.4 Z"
         id="path14453" />
      <path
         fill="#F5F5F5"
         stroke="none"
         d=" M 40.95 12.4 Q 40.55 12.85 40.55 13.4 L 40.55 26.8 Q 40.55 27.45 41 27.85 L 48.95 35.75 Q 49.35 36.2 50 36.2 50.6 36.2 51.05 35.75 L 59.05 27.75 Q 59.5 27.3 59.5 26.7 L 59.5 13.4 Q 59.5 12.85 59.15 12.4 58.75 12 58.25 11.9 50.05 10.7 41.85 11.9 41.3 12 40.95 12.4 M 45.5 23.35 L 50.05 17.15 54.5 23.35 45.5 23.35 Z"
         id="path14455" />
      <path
         fill="#616161"
         stroke="none"
         d=" M 50.05 17.15 L 45.5 23.35 54.5 23.35 50.05 17.15 Z"
         id="path14457" />
    </g>
    <g
       id="Layer14_0_FILL">
      <path
         fill="#626262"
         stroke="none"
         d=" M 75.6 21 L 69.45 19.7 Q 53.2 36.55 57.4 53.7 61.75 72.45 77.2 77.85 65.9 68.2 62.3 52.55 58.8 36.75 75.6 21 Z"
         id="path14460" />
      <path
         fill="#1B1B1B"
         stroke="none"
         d=" M 75.6 21 L 72.95 17.85 72.25 17 Q 71.95 17.3 71.65 17.55 70.5 18.65 69.45 19.7 L 75.6 21 Z"
         id="path14462" />
      <path
         fill="#313131"
         stroke="none"
         d=" M 81.3 82.1 Q 82.2 81.6 82.85 81.05 L 77.2 77.85 Q 61.75 72.45 57.4 53.7 53.2 36.55 69.45 19.7 70.5 18.65 71.65 17.55 54.6 13.75 39.95 20.25 24 27.15 15.5 32.05 18.3 55.65 29.75 66.95 42.85 80.05 61.2 82.05 71.4 83.35 81.3 82.1 M 53.05 38.25 L 48.05 38.25 49.65 52.35 45.8 52.35 44.2 38.25 39.2 38.25 38.8 34.85 52.65 34.85 53.05 38.25 M 31.6 34.85 Q 32.95 34.85 34.1 35.1 35.4 35.3 36.35 35.95 37.35 36.55 37.95 37.55 38.6 38.6 38.8 40.15 39 42 38.2 43.3 37.4 44.65 35.55 44.95 L 40.9 52.35 36.25 52.35 31.8 45.35 29.9 45.35 30.7 52.35 26.8 52.35 24.8 34.85 31.6 34.85 M 29.05 38.1 L 29.5 42.1 31.75 42.1 Q 32.25 42.1 32.85 42.05 33.45 42 33.9 41.8 34.35 41.65 34.6 41.2 34.9 40.85 34.8 40.1 34.7 39.45 34.4 39.05 34.1 38.7 33.65 38.45 33.15 38.2 32.65 38.15 32.05 38.1 31.6 38.1 L 29.05 38.1 Z"
         id="path14464" />
      <path
         fill="#999999"
         stroke="none"
         d=" M 34.1 35.1 Q 32.95 34.85 31.6 34.85 L 24.8 34.85 26.8 52.35 30.7 52.35 29.9 45.35 31.8 45.35 36.25 52.35 40.9 52.35 35.55 44.95 Q 37.4 44.65 38.2 43.3 39 42 38.8 40.15 38.6 38.6 37.95 37.55 37.35 36.55 36.35 35.95 35.4 35.3 34.1 35.1 M 29.5 42.1 L 29.05 38.1 31.6 38.1 Q 32.05 38.1 32.65 38.15 33.15 38.2 33.65 38.45 34.1 38.7 34.4 39.05 34.7 39.45 34.8 40.1 34.9 40.85 34.6 41.2 34.35 41.65 33.9 41.8 33.45 42 32.85 42.05 32.25 42.1 31.75 42.1 L 29.5 42.1 M 48.05 38.25 L 53.05 38.25 52.65 34.85 38.8 34.85 39.2 38.25 44.2 38.25 45.8 52.35 49.65 52.35 48.05 38.25 Z"
         id="path14466" />
      <path
         fill="#4F4F4F"
         stroke="none"
         d=" M 82.85 81.05 Q 85.55 78.75 85 73.95 76.2 58.6 74.45 47.75 72.3 34.55 78.45 27.35 79.05 21.55 74.6 18.3 73.75 18.05 72.95 17.85 L 75.6 21 Q 58.8 36.75 62.3 52.55 65.9 68.2 77.2 77.85 L 82.85 81.05 Z"
         id="path14468" />
    </g>
    <g
       id="Layer13_0_FILL">
      <path
         fill="#313131"
         stroke="none"
         d=" M 75.25 24.7 Q 64.85 14.3 50 14.3 35.2 14.3 24.75 24.7 14.3 35.15 14.3 50 14.3 64.8 24.75 75.25 35.2 85.7 50 85.7 64.85 85.7 75.25 75.25 85.7 64.8 85.7 50 85.7 35.15 75.25 24.7 M 50 22.8 Q 61.3 22.8 69.25 30.75 77.2 38.7 77.2 50 77.2 61.3 69.25 69.25 61.3 77.2 50 77.2 38.75 77.2 30.75 69.25 22.8 61.3 22.8 50 22.8 38.7 30.75 30.75 38.75 22.8 50 22.8 Z"
         id="path14471" />
      <path
         fill="#4F4F4F"
         stroke="none"
         d=" M 69.25 30.75 Q 61.3 22.8 50 22.8 38.75 22.8 30.75 30.75 22.8 38.7 22.8 50 22.8 61.3 30.75 69.25 38.75 77.2 50 77.2 61.3 77.2 69.25 69.25 77.2 61.3 77.2 50 77.2 38.7 69.25 30.75 M 42.85 32.9 Q 47.5 32.9 50.8 36.2 54.05 39.5 54.05 44.1 54.05 48.75 50.8 52.05 47.5 55.35 42.85 55.35 38.2 55.35 34.95 52.05 31.65 48.75 31.65 44.1 31.65 39.5 34.95 36.2 38.2 32.9 42.85 32.9 M 56.4 47.9 Q 57.65 46.65 59.45 46.65 61.25 46.65 62.55 47.9 63.8 49.15 63.8 50.95 63.8 52.75 62.55 54.05 61.25 55.3 59.45 55.3 57.65 55.3 56.4 54.05 55.1 52.75 55.1 50.95 55.1 49.15 56.4 47.9 M 67.05 43.5 Q 67.65 44.1 67.65 45 67.65 45.85 67.05 46.5 66.4 47.1 65.5 47.1 64.65 47.1 64 46.5 63.4 45.85 63.4 45 63.4 44.1 64 43.5 64.65 42.85 65.5 42.85 66.4 42.85 67.05 43.5 M 63.1 58.1 Q 64.6 59.6 64.6 61.7 64.6 63.85 63.1 65.35 61.6 66.85 59.45 66.85 57.35 66.85 55.85 65.35 54.3 63.85 54.3 61.7 54.3 59.6 55.85 58.1 57.35 56.55 59.45 56.55 61.6 56.55 63.1 58.1 Z"
         id="path14473" />
      <path
         fill="#999999"
         stroke="none"
         d=" M 64.6 61.7 Q 64.6 59.6 63.1 58.1 61.6 56.55 59.45 56.55 57.35 56.55 55.85 58.1 54.3 59.6 54.3 61.7 54.3 63.85 55.85 65.35 57.35 66.85 59.45 66.85 61.6 66.85 63.1 65.35 64.6 63.85 64.6 61.7 M 67.65 45 Q 67.65 44.1 67.05 43.5 66.4 42.85 65.5 42.85 64.65 42.85 64 43.5 63.4 44.1 63.4 45 63.4 45.85 64 46.5 64.65 47.1 65.5 47.1 66.4 47.1 67.05 46.5 67.65 45.85 67.65 45 M 59.45 46.65 Q 57.65 46.65 56.4 47.9 55.1 49.15 55.1 50.95 55.1 52.75 56.4 54.05 57.65 55.3 59.45 55.3 61.25 55.3 62.55 54.05 63.8 52.75 63.8 50.95 63.8 49.15 62.55 47.9 61.25 46.65 59.45 46.65 M 50.8 36.2 Q 47.5 32.9 42.85 32.9 38.2 32.9 34.95 36.2 31.65 39.5 31.65 44.1 31.65 48.75 34.95 52.05 38.2 55.35 42.85 55.35 47.5 55.35 50.8 52.05 54.05 48.75 54.05 44.1 54.05 39.5 50.8 36.2 Z"
         id="path14475" />
    </g>
    <g
       id="Layer12_0_FILL">
      <path
         fill="#1B1B1B"
         stroke="none"
         d=" M 78.55 21.4 L 78.6 21.4 Q 66.8 9.6 50 9.6 33.25 9.6 21.35 21.4 9.55 33.25 9.55 50 9.55 66.75 21.35 78.6 L 21.35 78.65 Q 33.25 90.45 50 90.45 66.75 90.45 78.55 78.65 L 78.6 78.6 Q 90.45 66.75 90.45 50 90.45 33.2 78.55 21.4 M 50 13.6 Q 65.1 13.6 75.75 24.25 86.45 34.9 86.45 50 86.45 65.1 75.75 75.8 65.1 86.45 50 86.45 34.9 86.45 24.2 75.8 L 24.15 75.8 Q 13.55 65.1 13.55 50 13.55 34.9 24.15 24.25 L 24.2 24.2 Q 34.9 13.6 50 13.6 Z"
         id="path14478" />
      <path
         fill="#313131"
         stroke="none"
         d=" M 75.75 24.25 Q 65.1 13.6 50 13.6 34.9 13.6 24.2 24.2 L 24.15 24.25 Q 13.55 34.9 13.55 50 13.55 65.1 24.15 75.8 L 24.2 75.8 Q 34.9 86.45 50 86.45 65.1 86.45 75.75 75.8 86.45 65.1 86.45 50 86.45 34.9 75.75 24.25 M 71.9 28.05 L 71.95 28.05 Q 81 37.1 81 50 81 62.85 71.95 71.95 62.85 81 50 81 37.1 81 28.05 71.95 L 28.05 71.9 Q 19 62.8 19 50 19 37.15 28.05 28.05 37.15 19 50 19 62.8 19 71.9 28.05 Z"
         id="path14480" />
      <path
         fill="#626262"
         stroke="none"
         d=" M 71.95 28.05 L 71.9 28.05 Q 62.8 19 50 19 37.15 19 28.05 28.05 19 37.15 19 50 19 62.8 28.05 71.9 L 28.05 71.95 Q 37.1 81 50 81 62.85 81 71.95 71.95 81 62.85 81 50 81 37.1 71.95 28.05 M 50 23 Q 61.2 23 69.1 30.9 77 38.8 77 50 77 61.15 69.1 69.1 61.15 77 50 77 38.8 77 30.9 69.1 23 61.2 23 50 23 38.8 30.85 30.9 L 30.9 30.85 Q 38.8 23 50 23 Z"
         id="path14482" />
      <path
         fill="#4F4F4F"
         stroke="none"
         d=" M 69.1 30.9 Q 61.2 23 50 23 38.8 23 30.9 30.85 L 30.85 30.9 Q 23 38.8 23 50 23 61.2 30.9 69.1 38.8 77 50 77 61.15 77 69.1 69.1 77 61.15 77 50 77 38.8 69.1 30.9 M 50.55 44.4 L 57.05 33.25 65.55 33.25 55.25 48.3 66.8 65.1 57.95 65.1 50.2 52.25 42.65 65.1 34.3 65.1 45.45 48.45 34.95 33.25 43.75 33.25 50.55 44.4 Z"
         id="path14484" />
      <path
         fill="#C3C3C3"
         stroke="none"
         d=" M 57.05 33.25 L 50.55 44.4 43.75 33.25 34.95 33.25 45.45 48.45 34.3 65.1 42.65 65.1 50.2 52.25 57.95 65.1 66.8 65.1 55.25 48.3 65.55 33.25 57.05 33.25 Z"
         id="path14486" />
    </g>
    <g
       id="Layer11_0_FILL">
      <path
         fill="#000000"
         stroke="none"
         d=" M 81.65 81.65 Q 94.7 68.55 94.7 50 94.7 31.5 81.65 18.4 68.55 5.3 50 5.3 31.5 5.3 18.4 18.4 5.3 31.5 5.3 50 5.3 68.55 18.4 81.65 31.5 94.7 50 94.7 68.55 94.7 81.65 81.65 M 50 13.95 Q 65.05 13.95 75.55 24.55 86.15 35.1 86.15 50 86.15 65.05 75.55 75.55 65.05 86.15 50 86.15 35.1 86.15 24.55 75.55 13.95 65.05 13.95 50 13.95 35.1 24.55 24.55 35.1 13.95 50 13.95 Z"
         id="path14489" />
      <path
         fill="#3F3F3F"
         stroke="none"
         d=" M 75.55 24.55 Q 65.05 13.95 50 13.95 35.1 13.95 24.55 24.55 13.95 35.1 13.95 50 13.95 65.05 24.55 75.55 35.1 86.15 50 86.15 65.05 86.15 75.55 75.55 86.15 65.05 86.15 50 86.15 35.1 75.55 24.55 M 50 24.15 Q 60.8 24.15 68.35 31.75 75.95 39.3 75.95 50 75.95 60.8 68.35 68.35 60.8 75.95 50 75.95 39.3 75.95 31.75 68.35 24.15 60.8 24.15 50 24.15 39.3 31.75 31.75 39.3 24.15 50 24.15 Z"
         id="path14491" />
      <path
         fill="#151515"
         stroke="none"
         d=" M 68.35 31.75 Q 60.8 24.15 50 24.15 39.3 24.15 31.75 31.75 24.15 39.3 24.15 50 24.15 60.8 31.75 68.35 39.3 75.95 50 75.95 60.8 75.95 68.35 68.35 75.95 60.8 75.95 50 75.95 39.3 68.35 31.75 M 43.55 37.7 L 49 37.7 49 57.45 59.1 57.45 59.1 62.5 43.55 62.5 43.55 37.7 Z"
         id="path14493" />
      <path
         fill="#8C8C8C"
         stroke="none"
         d=" M 49 37.7 L 43.55 37.7 43.55 62.5 59.1 62.5 59.1 57.45 49 57.45 49 37.7 Z"
         id="path14495" />
    </g>
    <g
       id="Layer10_0_FILL">
      <path
         fill="#1B1B1B"
         stroke="none"
         d=" M 66.8 33.2 Q 66.65 33 66.45 32.85 66.35 32.75 66.25 32.7 66.25 32.65 66.15 32.65 59.4 26.2 50 26.2 40.1 26.2 33.1 33.2 26.2 40.2 26.2 50 26.2 59.85 33.1 66.85 L 33.15 66.9 Q 40.15 73.8 50 73.8 59.45 73.8 66.25 67.45 66.3 67.4 66.3 67.35 L 66.35 67.35 Q 66.45 67.25 66.5 67.2 66.65 67.05 66.8 66.9 73.8 59.9 73.8 50 73.8 40.15 66.8 33.2 M 63.8 35.6 Q 63.85 35.65 63.9 35.7 64.05 35.8 64.1 35.9 64.3 36.05 64.4 36.25 70 41.95 70 50 70 58.2 64.15 64.1 L 64.15 64.15 64.1 64.2 Q 63.95 64.3 63.85 64.45 58.1 69.95 50 69.95 41.75 69.95 35.85 64.2 L 35.8 64.15 Q 30.05 58.25 30.05 50 30.05 41.75 35.8 35.9 41.7 30 50 30 58.05 30 63.8 35.6 M 83.8 23.35 Q 84.1 23.7 84.35 24.05 85.2 24 86 24 86.2 24 86.4 24 87.8 24 89.1 24.2 88.5 23.35 87.9 22.5 85.75 19.6 83.05 16.95 69.4 3.25 50 3.25 30.6 3.25 16.9 16.95 3.25 30.6 3.25 50 3.25 69.4 16.9 83.1 30.6 96.75 50 96.75 69.4 96.75 83.05 83.1 85.75 80.4 87.9 77.5 88.5 76.7 89.05 75.9 87.75 76 86.4 76 86.2 76 86 76 85.2 76 84.35 76 84.1 76.3 83.8 76.65 82.25 78.6 80.4 80.45 67.8 93 50 93 32.2 93 19.55 80.45 7 67.8 7 50 7 32.2 19.55 19.6 32.2 7 50 7 67.8 7 80.4 19.6 82.25 21.4 83.8 23.35 Z"
         id="path14498" />
      <path
         fill="#3B3B3B"
         stroke="none"
         d=" M 63.9 35.7 Q 63.85 35.65 63.8 35.6 58.05 30 50 30 41.7 30 35.8 35.9 30.05 41.75 30.05 50 30.05 58.25 35.8 64.15 L 35.85 64.2 Q 41.75 69.95 50 69.95 58.1 69.95 63.85 64.45 63.95 64.3 64.1 64.2 L 64.15 64.15 64.15 64.1 Q 70 58.2 70 50 70 41.95 64.4 36.25 64.3 36.05 64.1 35.9 64.05 35.8 63.9 35.7 M 61.75 39.25 Q 61.95 39.4 62.1 39.6 66 43.95 66 50 66 56 62.05 60.5 61.95 60.65 61.75 60.85 61.55 61.05 61.3 61.3 L 61.25 61.35 61.3 61.35 Q 56.65 65.95 50 65.95 43.4 65.95 38.65 61.35 34.05 56.6 34.05 50 34.05 43.35 38.65 38.7 L 38.65 38.75 Q 43.4 34 50 34 56.4 34 61 38.45 61.1 38.6 61.25 38.8 61.35 38.85 61.45 38.95 61.6 39.1 61.75 39.25 M 81.95 24.3 Q 82.65 24.2 83.3 24.15 83.85 24.1 84.35 24.05 84.1 23.7 83.8 23.35 82.25 21.4 80.4 19.6 67.8 7 50 7 32.2 7 19.55 19.6 7 32.2 7 50 7 67.8 19.55 80.45 32.2 93 50 93 67.8 93 80.4 80.45 82.25 78.6 83.8 76.65 84.1 76.3 84.35 76 83.85 75.95 83.3 75.9 82.7 75.85 82.1 75.75 80.95 75.6 79.8 75.35 79.6 75.3 79.4 75.25 79.35 75.3 79.3 75.35 78.35 76.45 77.25 77.55 L 77.3 77.55 Q 66 88.75 49.9 88.75 33.9 88.75 22.45 77.55 11.25 66.1 11.25 50.1 11.25 34 22.45 22.7 L 22.45 22.75 Q 33.9 11.3 49.9 11.3 65.95 11.3 77.25 22.7 L 77.25 22.75 Q 78.25 23.7 79.15 24.75 79.25 24.8 79.25 24.85 79.45 24.8 79.65 24.75 80.8 24.45 81.95 24.3 Z"
         id="path14500" />
      <path
         fill="#2E2E2E"
         stroke="none"
         d=" M 62.1 39.6 Q 61.95 39.4 61.75 39.25 61.6 39.1 61.45 38.95 61.35 38.85 61.25 38.8 61.1 38.6 61 38.45 56.4 34 50 34 43.4 34 38.65 38.75 L 38.65 38.7 Q 34.05 43.35 34.05 50 34.05 56.6 38.65 61.35 43.4 65.95 50 65.95 56.65 65.95 61.3 61.35 L 61.25 61.35 61.3 61.3 Q 61.55 61.05 61.75 60.85 61.95 60.65 62.05 60.5 66 56 66 50 66 43.95 62.1 39.6 M 77.25 22.75 L 77.25 22.7 Q 65.95 11.3 49.9 11.3 33.9 11.3 22.45 22.75 L 22.45 22.7 Q 11.25 34 11.25 50.1 11.25 66.1 22.45 77.55 33.9 88.75 49.9 88.75 66 88.75 77.3 77.55 L 77.25 77.55 Q 78.35 76.45 79.3 75.35 79.35 75.3 79.4 75.25 72.8 73.55 67.65 68.35 67.2 67.9 66.75 67.45 66.65 67.3 66.5 67.2 66.45 67.25 66.35 67.35 L 66.3 67.35 Q 66.3 67.4 66.25 67.45 59.45 73.8 50 73.8 40.15 73.8 33.15 66.9 L 33.1 66.85 Q 26.2 59.85 26.2 50 26.2 40.2 33.1 33.2 40.1 26.2 50 26.2 59.4 26.2 66.15 32.65 66.25 32.65 66.25 32.7 66.35 32.75 66.45 32.85 66.55 32.75 66.65 32.65 67.15 32.1 67.65 31.6 72.75 26.5 79.25 24.85 79.25 24.8 79.15 24.75 78.25 23.7 77.25 22.75 Z"
         id="path14502" />
      <path
         fill="#D7D7D7"
         stroke="none"
         d=" M 79.9 25.6 Q 79.6 25.2 79.25 24.85 72.75 26.5 67.65 31.6 67.15 32.1 66.65 32.65 66.55 32.75 66.45 32.85 66.65 33 66.8 33.2 73.8 40.15 73.8 50 73.8 59.9 66.8 66.9 66.65 67.05 66.5 67.2 66.65 67.3 66.75 67.45 67.2 67.9 67.65 68.35 72.8 73.55 79.4 75.25 79.75 74.85 80.05 74.5 88.7 64 88.7 50.1 88.7 36 79.9 25.6 Z"
         id="path14504" />
      <path
         fill="#FFFFFF"
         stroke="none"
         d=" M 86 24 Q 85.2 24 84.35 24.05 84.65 24.4 84.9 24.75 93 35.7 93 50 93 64.3 84.9 75.25 84.65 75.6 84.35 76 85.2 76 86 76 86.2 76 86.4 76 87.75 76 89.05 75.9 L 89.1 75.8 Q 96.75 64.5 96.75 50 96.75 35.5 89.1 24.25 L 89.1 24.2 Q 87.8 24 86.4 24 86.2 24 86 24 Z"
         id="path14506" />
      <path
         fill="#F5F5F5"
         stroke="none"
         d=" M 83.3 24.15 Q 82.65 24.2 81.95 24.3 80.8 24.45 79.65 24.75 79.45 24.8 79.25 24.85 79.6 25.2 79.9 25.6 88.7 36 88.7 50.1 88.7 64 80.05 74.5 79.75 74.85 79.4 75.25 79.6 75.3 79.8 75.35 80.95 75.6 82.1 75.75 82.7 75.85 83.3 75.9 83.85 75.95 84.35 76 84.65 75.6 84.9 75.25 93 64.3 93 50 93 35.7 84.9 24.75 84.65 24.4 84.35 24.05 83.85 24.1 83.3 24.15 Z"
         id="path14508" />
    </g>
    <g
       id="Layer9_0_FILL">
      <path
         fill="#2A2A2A"
         stroke="none"
         d=" M 83.8 83.8 Q 97.7 69.8 97.7 50 97.7 30.2 83.8 16.3 69.8 2.3 50 2.3 30.2 2.3 16.3 16.3 2.3 30.2 2.3 50 2.3 69.8 16.3 83.8 30.2 97.7 50 97.7 69.8 97.7 83.8 83.8 M 50 7.65 Q 67.55 7.65 80 20.05 92.35 32.45 92.35 50 92.35 67.55 80 80 67.55 92.35 50 92.35 32.45 92.35 20.05 80 7.65 67.55 7.65 50 7.65 32.45 20.05 20.05 32.45 7.65 50 7.65 Z"
         id="path14511" />
      <path
         fill="#464646"
         stroke="none"
         d=" M 80 20.05 Q 67.55 7.65 50 7.65 32.45 7.65 20.05 20.05 7.65 32.45 7.65 50 7.65 67.55 20.05 80 32.45 92.35 50 92.35 67.55 92.35 80 80 92.35 67.55 92.35 50 92.35 32.45 80 20.05 M 89.6 50 Q 89.6 50.05 89.6 50.1 L 89.6 50.9 Q 89.25 66.7 78 78 66.4 89.6 50 89.6 33.7 89.6 22.1 78 10.75 66.7 10.4 50.9 10.4 50.7 10.4 50.5 L 10.4 50.1 Q 10.4 50.05 10.4 50 10.4 33.65 22.1 22.05 33.7 10.4 50 10.4 66.4 10.4 78 22.05 89.6 33.65 89.6 50 Z"
         id="path14513" />
      <path
         fill="url(#Gradient_6)"
         stroke="none"
         d=" M 89.6 50.1 Q 89.6 50.05 89.6 50 89.6 33.65 78 22.05 66.4 10.4 50 10.4 33.7 10.4 22.1 22.05 10.4 33.65 10.4 50 10.4 50.05 10.4 50.1 L 10.4 50.5 Q 10.4 50.7 10.4 50.9 10.75 66.7 22.1 78 33.7 89.6 50 89.6 66.4 89.6 78 78 89.25 66.7 89.6 50.9 L 89.6 50.1 Z"
         id="path14515" />
    </g>
    <g
       id="Layer8_0_FILL">
      <path
         fill="#2A2A2A"
         stroke="none"
         d=" M 83.8 83.8 Q 97.7 69.8 97.7 50 97.7 30.2 83.8 16.3 69.8 2.3 50 2.3 30.2 2.3 16.3 16.3 2.3 30.2 2.3 50 2.3 69.8 16.3 83.8 30.2 97.7 50 97.7 69.8 97.7 83.8 83.8 M 50 7.65 Q 67.55 7.65 80 20.05 92.35 32.45 92.35 50 92.35 67.55 80 80 67.55 92.35 50 92.35 32.45 92.35 20.05 80 16.7611328125 76.6978515625 14.35 73 7.6630859375 62.8736328125 7.65 50 7.65 49.9501953125 7.65 49.9 7.3849609375 45.2 8.6 40.5 8.925 39 9.35 37.55 9.95 35.65 10.65 33.9 12.1 30.35 14.25 27.1 15.25 25.55 16.45 24.05 L 16.45 24.05 Q 18.115234375 21.984765625 20.05 20.05 32.45 7.65 50 7.65 Z"
         id="path14518" />
      <path
         fill="#FFFFFF"
         stroke="none"
         d=" M 16.45 24.05 L 16.45 24.05 Q 15.25 25.55 14.25 27.1 12.1 30.35 10.65 33.9 9.95 35.65 9.35 37.55 8.925 39 8.6 40.5 7.3849609375 45.2 7.65 49.9 7.65 49.9501953125 7.65 50 7.6630859375 62.8736328125 14.35 73 15.3537109375 74.4546875 16.45 75.85 17.95 76 19.55 76 19.879296875 76 20.2 76 L 20.25 76 Q 19.04921875 74.658984375 17.95 73.25 10.6830078125 63.5322265625 10.4 50.9 10.4013671875 50.7001953125 10.4 50.5 L 10.4 50.1 Q 10.4 50.05 10.4 50 10.4 49.9501953125 10.4 49.9 L 11.75 39.35 Q 12.2 37.6625 12.8 36.05 13.45 34.3 14.25 32.65 15.95 29.3 18.3 26.25 19.25 25 20.35 23.8 19.95 23.8 19.55 23.8 17.9671875 23.8 16.45 24.05 Z"
         id="path14520" />
      <path
         fill="#F5F5F5"
         stroke="none"
         d=" M 45.15 45 Q 44.5091796875 41.2533203125 42.75 37.9 L 42.75 42.7 25.9 42.7 Q 22.9 42.7 20.75 44.8 18.65 46.95 18.65 49.95 18.65 52.95 20.75 55.05 22.9 57.2 25.9 57.2 L 42.75 57.2 42.75 61.9 Q 45.203515625 57.1935546875 45.55 51.65 45.6 50.75 45.6 49.9 45.6 48.95 45.55 48 45.5 47.1 45.35 46.2 45.25 45.6 45.15 45 M 42.7 37.8 Q 42.45 37.3 42.1 36.8 40.85 34.65 39.15 32.75 38.6 32.1 37.95 31.45 35.05 28.55 31.75 26.8 30.65 26.15 29.45 25.7 28.8 25.4 28.1 25.15 24.4830078125 23.911328125 20.4 23.8 20.387109375 23.8009765625 20.35 23.8 19.25 25 18.3 26.25 15.95 29.3 14.25 32.65 13.45 34.3 12.8 36.05 12.2 37.6625 11.75 39.35 L 10.4 49.9 Q 10.4 49.9501953125 10.4 50 10.4 50.05 10.4 50.1 L 10.4 50.5 Q 10.4013671875 50.7001953125 10.4 50.9 10.6830078125 63.5322265625 17.95 73.25 19.04921875 74.658984375 20.25 76 24.55 75.9 28.4 74.55 28.5 74.45 28.65 74.45 30.5 73.75 32.3 72.75 35.25 71 37.95 68.3 40.9 65.4 42.7 62 42.7251953125 61.9521484375 42.75 61.9 L 42.75 57.2 25.9 57.2 Q 22.9 57.2 20.75 55.05 18.65 52.95 18.65 49.95 18.65 46.95 20.75 44.8 22.9 42.7 25.9 42.7 L 42.75 42.7 42.75 37.9 Q 42.7251953125 37.84765625 42.7 37.8 Z"
         id="path14522" />
      <path
         fill="url(#Gradient_6)"
         stroke="none"
         d=" M 55.1 20.7 Q 53 18.55 50 18.55 47 18.55 44.85 20.7 42.75 22.8 42.75 25.8 L 42.75 37.9 Q 44.5091796875 41.2533203125 45.15 45 45.25 45.6 45.35 46.2 45.5 47.1 45.55 48 45.6 48.95 45.6 49.9 45.6 50.75 45.55 51.65 45.203515625 57.1935546875 42.75 61.9 L 42.75 74.05 Q 42.75 76.7 44.35 78.65 44.6 78.95 44.85 79.2 47 81.3 50 81.3 53 81.3 55.1 79.2 55.35 78.95 55.65 78.6 57.25 76.65 57.25 74.05 L 57.25 57.2 74.15 57.2 Q 77.15 57.2 79.25 55.05 81.4 52.95 81.4 49.95 81.4 46.95 79.25 44.8 77.15 42.7 74.15 42.7 L 57.25 42.7 57.25 25.8 Q 57.25 22.8 55.1 20.7 M 89.6 50.9 L 89.6 50.1 Q 89.6 50.05 89.6 50 89.6 33.65 78 22.05 66.4 10.4 50 10.4 33.7 10.4 22.1 22.05 21.2296875 22.912890625 20.4 23.8 24.4830078125 23.911328125 28.1 25.15 28.8 25.4 29.45 25.7 30.65 26.15 31.75 26.8 35.05 28.55 37.95 31.45 38.6 32.1 39.15 32.75 40.85 34.65 42.1 36.8 42.45 37.3 42.7 37.8 42.7251953125 37.84765625 42.75 37.9 L 42.75 25.8 Q 42.75 22.8 44.85 20.7 47 18.55 50 18.55 53 18.55 55.1 20.7 57.25 22.8 57.25 25.8 L 57.25 42.7 74.15 42.7 Q 77.15 42.7 79.25 44.8 81.4 46.95 81.4 49.95 81.4 52.95 79.25 55.05 77.15 57.2 74.15 57.2 L 57.25 57.2 57.25 74.05 Q 57.25 76.65 55.65 78.6 55.35 78.95 55.1 79.2 53 81.3 50 81.3 47 81.3 44.85 79.2 44.6 78.95 44.35 78.65 42.75 76.7 42.75 74.05 L 42.75 61.9 Q 42.7251953125 61.9521484375 42.7 62 40.9 65.4 37.95 68.3 35.25 71 32.3 72.75 30.5 73.75 28.65 74.45 28.5 74.45 28.4 74.55 24.55 75.9 20.25 76 L 20.2 76 Q 21.112890625 77.0171875 22.1 78 33.7 89.6 50 89.6 66.4 89.6 78 78 89.25 66.7 89.6 50.9 Z"
         id="path14524" />
      <path
         fill="#464646"
         stroke="none"
         d=" M 89.6 50.1 L 89.6 50.9 Q 89.25 66.7 78 78 66.4 89.6 50 89.6 33.7 89.6 22.1 78 21.112890625 77.0171875 20.2 76 19.879296875 76 19.55 76 17.95 76 16.45 75.85 15.3537109375 74.4546875 14.35 73 16.7611328125 76.6978515625 20.05 80 32.45 92.35 50 92.35 67.55 92.35 80 80 92.35 67.55 92.35 50 92.35 32.45 80 20.05 67.55 7.65 50 7.65 32.45 7.65 20.05 20.05 18.115234375 21.984765625 16.45 24.05 17.9671875 23.8 19.55 23.8 19.95 23.8 20.35 23.8 20.387109375 23.8009765625 20.4 23.8 21.2296875 22.912890625 22.1 22.05 33.7 10.4 50 10.4 66.4 10.4 78 22.05 89.6 33.65 89.6 50 89.6 50.05 89.6 50.1 Z"
         id="path14526" />
    </g>
    <g
       id="Layer7_0_FILL">
      <path
         fill="#434345"
         stroke="none"
         d=" M 90.45 50 Q 90.45 43.1037109375 88.45 37.05 85.565234375 28.35625 78.55 21.4 L 78.6 21.4 Q 66.8 9.6 50 9.6 48.480078125 9.6 47 9.7 32.1701171875 10.670703125 21.35 21.4 14.40078125 28.3787109375 11.55 37.05 10.961328125 38.803125 10.55 40.6 10.2921875 41.7787109375 10.1 42.95 9.55 46.3591796875 9.55 50 9.55 54.8763671875 10.55 59.3 12.98515625 70.1998046875 21.35 78.6 L 21.35 78.65 Q 33.25 90.45 50 90.45 66.75 90.45 78.55 78.65 L 78.6 78.6 Q 90.45 66.75 90.45 50 M 84.15 37.05 Q 86.45 43.054296875 86.45 50 86.45 65.1 75.75 75.8 65.1 86.45 50 86.45 34.9 86.45 24.2 75.8 L 24.15 75.8 Q 13.55 65.1 13.55 50 13.55 46.34453125 14.15 42.95 14.7330078125 39.89453125 15.8 37.05 18.42578125 30.0013671875 24.15 24.25 L 24.2 24.2 Q 33.8212890625 14.6685546875 47 13.7 48.477734375 13.6 50 13.6 65.1 13.6 75.75 24.25 81.5283203125 30.001171875 84.15 37.05 Z"
         id="path14529" />
      <path
         fill="#96989D"
         stroke="none"
         d=" M 86.45 50 Q 86.45 43.054296875 84.15 37.05 81.5283203125 30.001171875 75.75 24.25 65.1 13.6 50 13.6 48.477734375 13.6 47 13.7 33.8212890625 14.6685546875 24.2 24.2 L 24.15 24.25 Q 18.42578125 30.0013671875 15.8 37.05 14.7330078125 39.89453125 14.15 42.95 13.55 46.34453125 13.55 50 13.55 65.1 24.15 75.8 L 24.2 75.8 Q 34.9 86.45 50 86.45 65.1 86.45 75.75 75.8 86.45 65.1 86.45 50 M 47 17.1 Q 48.4751953125 17 50 17 63.6 17 73.3 26.6 L 73.35 26.6 Q 78.08203125 31.33203125 80.5 37.05 83 42.992578125 83 50 83 63.65 73.35 73.35 63.65 83 50 83 36.25 83 26.6 73.35 L 26.6 73.3 Q 17 63.6 17 50 17 46.331640625 17.7 42.95 18.3205078125 39.88203125 19.5 37.05 21.902734375 31.3462890625 26.6 26.6 35.2205078125 18.0685546875 47 17.1 Z"
         id="path14531" />
      <path
         fill="#E3E7ED"
         stroke="none"
         d=" M 50 17 Q 48.4751953125 17 47 17.1 35.2205078125 18.0685546875 26.6 26.6 21.902734375 31.3462890625 19.5 37.05 18.3205078125 39.88203125 17.7 42.95 17 46.331640625 17 50 17 63.6 26.6 73.3 L 26.6 73.35 Q 36.25 83 50 83 63.65 83 73.35 73.35 83 63.65 83 50 83 42.992578125 80.5 37.05 78.08203125 31.33203125 73.35 26.6 L 73.3 26.6 Q 63.6 17 50 17 M 47 20.1 Q 48.4720703125 20 50 20 62.4 20 71.15 28.75 74.9685546875 32.546875 77.1 37.05 79.95 42.9240234375 79.95 50 79.95 62.35 71.15 71.15 62.35 79.95 50 79.95 37.5 79.95 28.75 71.15 20 62.4 20 50 20 46.3119140625 20.75 42.95 21.4484375 39.8623046875 22.75 37.05 24.924609375 32.546875 28.7 28.75 L 28.75 28.7 Q 36.43046875 21.0634765625 47 20.1 Z"
         id="path14533" />
      <path
         fill="#BCBFC4"
         stroke="none"
         d=" M 50 20 Q 48.4720703125 20 47 20.1 36.43046875 21.0634765625 28.75 28.7 L 28.7 28.75 Q 24.924609375 32.546875 22.75 37.05 21.4484375 39.8623046875 20.75 42.95 20 46.3119140625 20 50 20 62.4 28.75 71.15 37.5 79.95 50 79.95 62.35 79.95 71.15 71.15 79.95 62.35 79.95 50 79.95 42.9240234375 77.1 37.05 74.9685546875 32.546875 71.15 28.75 62.4 20 50 20 M 50 50 L 63 63 50 50 37 63 50 50 37.05 37.05 50 50 62.95 37.05 50 50 Z"
         id="path14535" />
    </g>
    <g
       id="Layer6_0_FILL">
      <path
         fill="url(#Gradient_8)"
         stroke="none"
         d=" M 92.95 40.3 Q 92.25 36.05 87.6 34.95 L 64.95 34.95 64.95 12.5 Q 63.95 7.75 59.6 7.15 49.4 5.2 40 7.15 35.75 7.85 34.65 12.5 L 34.65 34.95 12.5 34.95 Q 7.85 36.05 7.15 40.3 5.2 49.7 7.15 59.9 7.75 64.25 12.5 65.25 L 34.65 65.25 34.65 87.6 Q 35.75 92.25 40 92.95 49.4 94.9 59.6 92.95 63.95 92.35 64.95 87.6 L 64.95 65.25 87.6 65.25 Q 92.35 64.25 92.95 59.9 94.9 49.7 92.95 40.3 M 85.45 42.45 Q 87.15 50.1 85.45 57.75 L 64.95 57.75 Q 61.85 57.75 59.65 59.95 57.45 62.15 57.45 65.25 L 57.45 85.45 Q 49.8 87.15 42.15 85.45 L 42.15 65.25 Q 42.15 62.15 39.95 59.95 37.75 57.75 34.65 57.75 L 14.65 57.75 Q 12.95 50.1 14.65 42.45 L 22.45 42.45 23.75 42.45 34.65 42.45 Q 37.75 42.45 39.95 40.25 42.15 38.05 42.15 34.95 L 42.15 14.65 Q 49.8 12.95 57.45 14.65 L 57.45 34.95 Q 57.45 38.05 59.65 40.25 61.85 42.45 64.95 42.45 L 85.45 42.45 Z"
         id="path14538" />
      <path
         fill="url(#Gradient_9)"
         stroke="none"
         d=" M 85.45 57.75 Q 87.15 50.1 85.45 42.45 L 64.95 42.45 Q 61.85 42.45 59.65 40.25 57.45 38.05 57.45 34.95 L 57.45 14.65 Q 49.8 12.95 42.15 14.65 L 42.15 34.95 Q 42.15 38.05 39.95 40.25 37.75 42.45 34.65 42.45 L 23.75 42.45 22.45 42.45 14.65 42.45 Q 12.95 50.1 14.65 57.75 L 34.65 57.75 Q 37.75 57.75 39.95 59.95 42.15 62.15 42.15 65.25 L 42.15 85.45 Q 49.8 87.15 57.45 85.45 L 57.45 65.25 Q 57.45 62.15 59.65 59.95 61.85 57.75 64.95 57.75 L 85.45 57.75 Z"
         id="path14540" />
    </g>
    <g
       id="Layer5_0_FILL">
      <path
         fill="#404040"
         stroke="none"
         d=" M 79.6 20.2 Q 79.4958984375 20.0982421875 79.45 19.95 67.325390625 8.046875 50 8.05 32.5546875 8.0458984375 20.15 20.2 7.9466796875 32.5548828125 7.95 50 7.947265625 67.394921875 20.15 79.7 20.223046875 79.772265625 20.25 79.85 32.632421875 92.0029296875 50 92 67.394140625 92.0015625 79.6 79.75 79.655078125 79.68984375 79.7 79.65 L 79.75 79.6 Q 92.0017578125 67.3421875 92 50 92.0009765625 32.5552734375 79.6 20.2 M 50 12.65 Q 65.4556640625 12.6515625 76.35 23.6 87.348828125 34.5447265625 87.35 50 87.348828125 65.4546875 76.35 76.45 65.4556640625 87.3478515625 50 87.35 34.5453125 87.3474609375 23.55 76.45 12.65234375 65.4546875 12.65 50 12.65234375 34.6255859375 23.4 23.7 23.4736328125 23.62421875 23.55 23.55 34.5453125 12.65234375 50 12.65 Z"
         id="path14543" />
      <path
         fill="#D7D7D7"
         stroke="none"
         d=" M 76.35 23.6 Q 65.4556640625 12.6515625 50 12.65 34.5453125 12.65234375 23.55 23.55 23.4736328125 23.62421875 23.4 23.7 12.65234375 34.6255859375 12.65 50 12.65234375 65.4546875 23.55 76.45 34.5453125 87.3474609375 50 87.35 65.4556640625 87.3478515625 76.35 76.45 87.348828125 65.4546875 87.35 50 87.348828125 34.5447265625 76.35 23.6 M 71.8 28.2 Q 71.873046875 28.273828125 71.95 28.3 80.8521484375 37.284765625 80.85 50 80.85234375 62.7947265625 71.85 71.85 62.7947265625 80.85234375 50 80.85 37.284765625 80.8521484375 28.3 71.95 28.273828125 71.873046875 28.2 71.8 19.19765625 62.695703125 19.2 50 19.1978515625 37.2056640625 28.2 28.2 37.2056640625 19.1978515625 50 19.2 62.695703125 19.19765625 71.8 28.2 Z"
         id="path14545" />
      <path
         fill="#FFFFFF"
         stroke="none"
         d=" M 71.95 28.3 Q 71.873046875 28.273828125 71.8 28.2 62.695703125 19.19765625 50 19.2 37.2056640625 19.1978515625 28.2 28.2 19.1978515625 37.2056640625 19.2 50 19.19765625 62.695703125 28.2 71.8 28.273828125 71.873046875 28.3 71.95 37.284765625 80.8521484375 50 80.85 62.7947265625 80.85234375 71.85 71.85 80.85234375 62.7947265625 80.85 50 80.8521484375 37.284765625 71.95 28.3 M 50 22.8 Q 61.2548828125 22.8013671875 69.25 30.8 77.147265625 38.69375 77.15 50 77.146875 61.2546875 69.25 69.25 61.2546875 77.146875 50 77.15 38.69375 77.147265625 30.8 69.25 22.8013671875 61.2548828125 22.8 50 22.801953125 38.6935546875 30.75 30.8 L 30.8 30.75 Q 38.6935546875 22.801953125 50 22.8 Z"
         id="path14547" />
      <path
         fill="#F5F5F5"
         stroke="none"
         d=" M 69.25 30.8 Q 61.2548828125 22.8013671875 50 22.8 38.6935546875 22.801953125 30.8 30.75 L 30.75 30.8 Q 22.801953125 38.6935546875 22.8 50 22.8013671875 61.2548828125 30.8 69.25 38.69375 77.147265625 50 77.15 61.2546875 77.146875 69.25 69.25 77.146875 61.2546875 77.15 50 77.147265625 38.69375 69.25 30.8 M 48.7 34.1 L 55 34.1 55 65.95 48.5 65.95 48.5 41.65 42.1 47.25 38.3 42.85 48.7 34.1 Z"
         id="path14549" />
      <path
         fill="#9A9A9A"
         stroke="none"
         d=" M 55 34.1 L 48.7 34.1 38.3 42.85 42.1 47.25 48.5 41.65 48.5 65.95 55 65.95 55 34.1 Z"
         id="path14551" />
    </g>
    <g
       id="Layer4_0_FILL">
      <path
         fill="#000000"
         stroke="none"
         d=" M 91.95 52.45 Q 92.0001953125 51.2380859375 92 50 92.000390625 44.5794921875 90.8 39.65 88.14765625 28.7162109375 79.6 20.2 79.4958984375 20.0982421875 79.45 19.95 67.325390625 8.046875 50 8.05 32.5546875 8.0458984375 20.15 20.2 7.9466796875 32.5548828125 7.95 50 7.947265625 67.394921875 20.15 79.7 20.223046875 79.772265625 20.25 79.85 32.632421875 92.0029296875 50 92 67.394140625 92.0015625 79.6 79.75 79.655078125 79.68984375 79.7 79.65 L 79.75 79.6 Q 91.12890625 68.219140625 91.95 52.45 M 87.35 50 Q 87.35 51.239453125 87.25 52.45 86.466796875 66.3365234375 76.35 76.45 65.4556640625 87.3478515625 50 87.35 34.5453125 87.3474609375 23.55 76.45 12.65234375 65.4546875 12.65 50 12.65234375 34.6255859375 23.4 23.7 23.4736328125 23.62421875 23.55 23.55 34.5453125 12.65234375 50 12.65 65.4556640625 12.6515625 76.35 23.6 83.466015625 30.6810546875 85.95 39.65 87.349609375 44.544140625 87.35 50 Z"
         id="path14554" />
      <path
         fill="#1E1E1E"
         stroke="none"
         d=" M 87.25 52.45 Q 87.35 51.239453125 87.35 50 87.349609375 44.544140625 85.95 39.65 83.466015625 30.6810546875 76.35 23.6 65.4556640625 12.6515625 50 12.65 34.5453125 12.65234375 23.55 23.55 23.4736328125 23.62421875 23.4 23.7 12.65234375 34.6255859375 12.65 50 12.65234375 65.4546875 23.55 76.45 34.5453125 87.3474609375 50 87.35 65.4556640625 87.3478515625 76.35 76.45 86.466796875 66.3365234375 87.25 52.45 M 82.35 50 Q 82.35 51.3 82.3 52.55 81.45 64.3 72.9 72.9 63.4 82.35 50 82.35 36.65 82.35 27.25 73 27.15 72.9 27.1 72.85 17.7 63.3 17.7 50 17.7 36.55 27.1 27.1 36.55 17.7 50 17.7 63.3 17.7 72.85 27.1 72.9 27.15 73 27.25 78.3 32.55 80.6 39.15 82.35 44.15 82.35 50 Z"
         id="path14556" />
      <path
         fill="#3B3B3B"
         stroke="none"
         d=" M 82.3 52.55 Q 82.35 51.3 82.35 50 82.35 44.15 80.6 39.15 78.3 32.55 73 27.25 72.9 27.15 72.85 27.1 63.3 17.7 50 17.7 36.55 17.7 27.1 27.1 17.7 36.55 17.7 50 17.7 63.3 27.1 72.85 27.15 72.9 27.25 73 36.65 82.35 50 82.35 63.4 82.35 72.9 72.9 81.45 64.3 82.3 52.55 M 49.95 24 Q 60.7 24 68.2 31.55 75.85 39.15 75.85 49.9 75.85 60.65 68.2 68.2 60.7 75.8 49.95 75.8 39.2 75.8 31.55 68.2 24.05 60.65 24.05 49.9 24.05 39.15 31.55 31.55 39.2 24 49.95 24 M 68.2 31.55 Q 60.7 24 49.95 24 39.2 24 31.55 31.55 24.05 39.15 24.05 49.9 24.05 60.65 31.55 68.2 39.2 75.8 49.95 75.8 60.7 75.8 68.2 68.2 75.85 60.65 75.85 49.9 75.85 39.15 68.2 31.55 M 35.05 49.9 Q 35.05 49.7244140625 35.05 49.55 L 35.05 43.75 35.05 49.55 Q 35.05 49.7244140625 35.05 49.9 35.05 56.1 39.4 60.45 43.8 64.85 50 64.85 56.2 64.85 60.5 60.45 64.9 56.1 64.9 49.9 64.9 49.7244140625 64.9 49.55 L 64.9 43.75 64.9 49.55 Q 64.9 49.7244140625 64.9 49.9 64.9 56.1 60.5 60.45 56.2 64.85 50 64.85 43.8 64.85 39.4 60.45 35.05 56.1 35.05 49.9 Z"
         id="path14558" />
    </g>
    <g
       id="Layer3_0_FILL">
      <path
         fill="#353535"
         stroke="none"
         d=" M 84.95 77.8 Q 83.7 50.5 84.95 23.15 84.95 17.3 79.1 17.3 L 21.9 17.3 Q 16.05 17.3 16.05 23.15 17.3 50.5 16.05 77.8 16.05 83.65 21.9 83.65 L 79.1 83.65 Q 84.95 83.65 84.95 77.8 M 54.15 26.45 L 55.4 26.45 71.55 26.45 Q 75.8 26.45 75.8 30.7 74.65 50.5 75.8 70.25 75.8 74.45 71.55 74.45 L 55.4 74.45 54.15 74.45 29.45 74.45 Q 25.2 74.45 25.2 70.25 26.35 50.5 25.2 30.7 25.2 26.45 29.45 26.45 L 54.15 26.45 Z"
         id="path14561" />
      <path
         fill="#595959"
         stroke="none"
         d=" M 55.4 26.45 L 54.15 26.45 29.45 26.45 Q 25.2 26.45 25.2 30.7 26.35 50.5 25.2 70.25 25.2 74.45 29.45 74.45 L 54.15 74.45 55.4 74.45 71.55 74.45 Q 75.8 74.45 75.8 70.25 74.65 50.5 75.8 30.7 75.8 26.45 71.55 26.45 L 55.4 26.45 M 40.7 38.8 L 60.3 38.8 60.3 43.65 53.2 43.65 53.2 63.6 47.75 63.6 47.75 43.65 40.7 43.65 40.7 38.8 Z"
         id="path14563" />
      <path
         fill="#CDCDCD"
         stroke="none"
         d=" M 60.3 38.8 L 40.7 38.8 40.7 43.65 47.75 43.65 47.75 63.6 53.2 63.6 53.2 43.65 60.3 43.65 60.3 38.8 Z"
         id="path14565" />
    </g>
    <g
       id="Layer2_0_FILL">
      <path
         fill="#D7D7D7"
         stroke="none"
         d=" M 84.95 77.8 Q 83.7 50.5 84.95 23.15 84.95 17.3 79.1 17.3 L 21.9 17.3 Q 16.05 17.3 16.05 23.15 17.3 50.5 16.05 77.8 16.05 83.65 21.9 83.65 L 79.1 83.65 Q 84.95 83.65 84.95 77.8 M 55.4 26.45 L 71.55 26.45 Q 75.8 26.45 75.8 30.7 74.65 50.5 75.8 70.25 75.8 74.45 71.55 74.45 L 55.4 74.45 54.15 74.45 29.45 74.45 Q 25.2 74.45 25.2 70.25 26.35 50.5 25.2 30.7 25.2 26.45 29.45 26.45 L 54.15 26.45 55.4 26.45 Z"
         id="path14568" />
      <path
         fill="#F5F5F5"
         stroke="none"
         d=" M 71.55 26.45 L 55.4 26.45 54.15 26.45 29.45 26.45 Q 25.2 26.45 25.2 30.7 26.35 50.5 25.2 70.25 25.2 74.45 29.45 74.45 L 54.15 74.45 55.4 74.45 71.55 74.45 Q 75.8 74.45 75.8 70.25 74.65 50.5 75.8 30.7 75.8 26.45 71.55 26.45 M 40.7 38.8 L 60.3 38.8 60.3 43.65 53.2 43.65 53.2 63.6 47.75 63.6 47.75 43.65 40.7 43.65 40.7 38.8 Z"
         id="path14570" />
      <path
         fill="#404040"
         stroke="none"
         d=" M 60.3 38.8 L 40.7 38.8 40.7 43.65 47.75 43.65 47.75 63.6 53.2 63.6 53.2 43.65 60.3 43.65 60.3 38.8 Z"
         id="path14572" />
    </g>
    <g
       id="Layer1_0_FILL">
      <path
         fill="#1B1B1B"
         stroke="none"
         d=" M 78.55 21.4 L 78.6 21.4 Q 66.8 9.6 50 9.6 33.25 9.6 21.35 21.4 9.55 33.25 9.55 50 9.55 66.75 21.35 78.6 L 21.35 78.65 Q 33.25 90.45 50 90.45 66.75 90.45 78.55 78.65 L 78.6 78.6 Q 90.45 66.75 90.45 50 90.45 33.2 78.55 21.4 M 50 13.6 Q 65.1 13.6 75.75 24.25 86.45 34.9 86.45 50 86.45 65.1 75.75 75.8 65.1 86.45 50 86.45 34.9 86.45 24.2 75.8 L 24.15 75.8 Q 13.55 65.1 13.55 50 13.55 34.9 24.15 24.25 L 24.2 24.2 Q 34.9 13.6 50 13.6 M 38.9 65 L 69.1 50 38.9 35 38.9 65 Z"
         id="path14575" />
      <path
         fill="#313131"
         stroke="none"
         d=" M 75.75 24.25 Q 65.1 13.6 50 13.6 34.9 13.6 24.2 24.2 L 24.15 24.25 Q 13.55 34.9 13.55 50 13.55 65.1 24.15 75.8 L 24.2 75.8 Q 34.9 86.45 50 86.45 65.1 86.45 75.75 75.8 86.45 65.1 86.45 50 86.45 34.9 75.75 24.25 M 71.9 28.05 L 71.95 28.05 Q 81 37.1 81 50 81 62.85 71.95 71.95 62.85 81 50 81 37.1 81 28.05 71.95 L 28.05 71.9 Q 19 62.8 19 50 19 37.15 28.05 28.05 37.15 19 50 19 62.8 19 71.9 28.05 Z"
         id="path14577" />
      <path
         fill="#626262"
         stroke="none"
         d=" M 71.95 28.05 L 71.9 28.05 Q 62.8 19 50 19 37.15 19 28.05 28.05 19 37.15 19 50 19 62.8 28.05 71.9 L 28.05 71.95 Q 37.1 81 50 81 62.85 81 71.95 71.95 81 62.85 81 50 81 37.1 71.95 28.05 M 50 23 Q 61.2 23 69.1 30.9 77 38.8 77 50 77 61.15 69.1 69.1 61.15 77 50 77 38.8 77 30.9 69.1 23 61.2 23 50 23 38.8 30.85 30.9 L 30.9 30.85 Q 38.8 23 50 23 Z"
         id="path14579" />
      <path
         fill="#4F4F4F"
         stroke="none"
         d=" M 69.1 30.9 Q 61.2 23 50 23 38.8 23 30.9 30.85 L 30.85 30.9 Q 23 38.8 23 50 23 61.2 30.9 69.1 38.8 77 50 77 61.15 77 69.1 69.1 77 61.15 77 50 77 38.8 69.1 30.9 M 69.1 50 L 38.9 65 38.9 35 69.1 50 Z"
         id="path14581" />
    </g>
    <g
       id="Layer0_0_FILL">
      <path
         fill="#1B1B1B"
         stroke="none"
         d=" M 78.55 21.4 L 78.6 21.4 Q 66.8 9.6 50 9.6 33.25 9.6 21.35 21.4 9.55 33.25 9.55 50 9.55 66.75 21.35 78.6 L 21.35 78.65 Q 33.25 90.45 50 90.45 66.75 90.45 78.55 78.65 L 78.6 78.6 Q 90.45 66.75 90.45 50 90.45 33.2 78.55 21.4 M 50 13.6 Q 65.1 13.6 75.75 24.25 86.45 34.9 86.45 50 86.45 65.1 75.75 75.8 65.1 86.45 50 86.45 34.9 86.45 24.2 75.8 L 24.15 75.8 Q 13.55 65.1 13.55 50 13.55 34.9 24.15 24.25 L 24.2 24.2 Q 34.9 13.6 50 13.6 Z"
         id="path14584" />
      <path
         fill="#313131"
         stroke="none"
         d=" M 75.75 24.25 Q 65.1 13.6 50 13.6 34.9 13.6 24.2 24.2 L 24.15 24.25 Q 13.55 34.9 13.55 50 13.55 65.1 24.15 75.8 L 24.2 75.8 Q 34.9 86.45 50 86.45 65.1 86.45 75.75 75.8 86.45 65.1 86.45 50 86.45 34.9 75.75 24.25 M 71.9 28.05 L 71.95 28.05 Q 81 37.1 81 50 81 62.85 71.95 71.95 62.85 81 50 81 37.1 81 28.05 71.95 L 28.05 71.9 Q 19 62.8 19 50 19 37.15 28.05 28.05 37.15 19 50 19 62.8 19 71.9 28.05 Z"
         id="path14586" />
      <path
         fill="#626262"
         stroke="none"
         d=" M 71.95 28.05 L 71.9 28.05 Q 62.8 19 50 19 37.15 19 28.05 28.05 19 37.15 19 50 19 62.8 28.05 71.9 L 28.05 71.95 Q 37.1 81 50 81 62.85 81 71.95 71.95 81 62.85 81 50 81 37.1 71.95 28.05 M 50 23 Q 61.2 23 69.1 30.9 77 38.8 77 50 77 61.15 69.1 69.1 61.15 77 50 77 38.8 77 30.9 69.1 23 61.2 23 50 23 38.8 30.85 30.9 L 30.9 30.85 Q 38.8 23 50 23 Z"
         id="path14588" />
      <path
         fill="#4F4F4F"
         stroke="none"
         d=" M 69.1 30.9 Q 61.2 23 50 23 38.8 23 30.9 30.85 L 30.85 30.9 Q 23 38.8 23 50 23 61.2 30.9 69.1 38.8 77 50 77 61.15 77 69.1 69.1 77 61.15 77 50 77 38.8 69.1 30.9 M 50.55 44.4 L 57.05 33.25 65.55 33.25 55.25 48.3 66.8 65.1 57.95 65.1 50.2 52.25 42.65 65.1 34.3 65.1 45.45 48.45 34.95 33.25 43.75 33.25 50.55 44.4 Z"
         id="path14590" />
      <path
         fill="#4196F3"
         stroke="none"
         d=" M 57.05 33.25 L 50.55 44.4 43.75 33.25 34.95 33.25 45.45 48.45 34.3 65.1 42.65 65.1 50.2 52.25 57.95 65.1 66.8 65.1 55.25 48.3 65.55 33.25 57.05 33.25 Z"
         id="path14592" />
    </g>
    <path
       id="Layer22_0_1_STROKES"
       stroke="#D7D7D7"
       stroke-width="5"
       stroke-linejoin="round"
       stroke-linecap="round"
       fill="none"
       d=" M 95.6 50 Q 95.6 56.35 91.15 60.75 86.7 65.2 80.4 65.2 74.05 65.2 69.65 60.75 65.15 56.35 65.15 50 65.15 43.7 69.65 39.2 74.05 34.8 80.4 34.8 86.7 34.8 91.15 39.2 95.6 43.7 95.6 50 Z M 60.8 30.4 Q 56.3 34.8 50 34.8 43.65 34.8 39.25 30.4 34.8 25.9 34.8 19.6 34.8 13.3 39.25 8.85 43.65 4.4 50 4.4 56.3 4.4 60.8 8.85 65.2 13.3 65.2 19.6 65.2 25.9 60.8 30.4 Z M 19.6 34.8 Q 25.9 34.8 30.4 39.2 34.8 43.7 34.8 50 34.8 56.35 30.4 60.75 25.9 65.2 19.6 65.2 13.3 65.2 8.85 60.75 4.4 56.35 4.4 50 4.4 43.7 8.85 39.2 13.3 34.8 19.6 34.8 Z M 39.25 91.15 Q 34.8 86.7 34.8 80.4 34.8 74.05 39.25 69.65 43.65 65.15 50 65.15 56.3 65.15 60.8 69.65 65.2 74.05 65.2 80.4 65.2 86.7 60.8 91.15 56.3 95.6 50 95.6 43.65 95.6 39.25 91.15 Z" />
    <path
       id="Layer17_0_1_STROKES"
       stroke="#1B1B1B"
       stroke-width="5"
       stroke-linejoin="round"
       stroke-linecap="round"
       fill="none"
       d=" M 84.6 29.5 L 84.6 40.55 15.4 56.6 15.4 13.45 84.6 29.5 Z" />
    <path
       id="Layer17_0_2_STROKES"
       stroke="#626262"
       stroke-width="4"
       stroke-linejoin="round"
       stroke-linecap="round"
       fill="none"
       d=" M 22.9 47.2 L 22.9 22.9 75.25 35.05 22.9 47.2 Z" />
    <path
       id="Layer16_0_1_STROKES"
       stroke="#7EABE2"
       stroke-width="5"
       stroke-linejoin="round"
       stroke-linecap="round"
       fill="none"
       d=" M 62.95 37.05 L 50 50 63 63 M 37 63 L 50 50 37.05 37.05" />
    <path
       id="Layer15_0_1_STROKES"
       stroke="#616161"
       stroke-width="4"
       stroke-linejoin="round"
       stroke-linecap="round"
       fill="none"
       d=" M 87.6 40.85 Q 88 41.25 88.1 41.75 89.3 49.95 88.1 58.15 88 58.7 87.6 59.05 87.15 59.45 86.6 59.45 L 73.3 59.45 Q 72.7 59.45 72.25 59 L 64.25 51.05 Q 63.8 50.65 63.8 50 63.8 49.4 64.25 48.95 L 72.25 40.95 Q 72.7 40.5 73.3 40.5 L 86.6 40.5 Q 87.15 40.5 87.6 40.85 Z M 26.9 40.5 Q 27.55 40.5 28 40.95 L 35.85 48.85 Q 36.3 49.3 36.3 49.9 36.25 50.55 35.85 50.95 L 27.8 59 Q 27.35 59.45 26.75 59.45 L 13.4 59.45 Q 12.85 59.45 12.45 59.05 12 58.7 11.95 58.15 10.7 49.95 11.95 41.75 12 41.25 12.45 40.85 12.85 40.5 13.4 40.5 L 26.9 40.5 Z M 50.05 63.75 Q 50.65 63.75 51.1 64.2 L 59.05 72.15 Q 59.5 72.6 59.5 73.2 L 59.5 86.6 Q 59.5 87.15 59.15 87.55 58.75 88 58.25 88.05 50.05 89.3 41.85 88.05 41.3 88 40.95 87.55 40.55 87.15 40.55 86.6 L 40.55 73.25 Q 40.55 72.65 41 72.2 L 49 64.2 Q 49.45 63.75 50.05 63.75 Z" />
    <path
       id="Layer15_0_2_STROKES"
       stroke="#202020"
       stroke-width="5"
       stroke-linejoin="round"
       stroke-linecap="round"
       fill="none"
       d=" M 65.5 29.8 L 70.2 34.5 92.75 34.5 Q 96.65 49.95 92.75 65.45 L 70.2 65.45 65.5 70.15 65.5 92.75 Q 50.05 96.65 34.55 92.75 L 34.55 70.15 29.85 65.45 7.25 65.45 Q 3.35 49.95 7.25 34.5 L 30 34.5 34.55 29.95 M 70.2 65.45 L 54.7 50 70.2 34.5 M 65.5 70.15 L 50.1 54.6 34.55 70.15 M 30 34.5 L 45.4 49.9 29.85 65.45" />
    <path
       id="Layer15_0_3_STROKES"
       stroke="#404040"
       stroke-width="5"
       stroke-linejoin="round"
       stroke-linecap="round"
       fill="none"
       d=" M 34.55 29.95 L 34.55 7.25 Q 50.05 3.35 65.5 7.25 L 65.5 29.8 50 45.3 34.55 29.95 Z" />
    <path
       id="Layer15_0_4_STROKES"
       stroke="#FFFFFF"
       stroke-width="4"
       stroke-linejoin="round"
       stroke-linecap="round"
       fill="none"
       d=" M 40.95 12.4 Q 41.3 12 41.85 11.9 50.05 10.7 58.25 11.9 58.75 12 59.15 12.4 59.5 12.85 59.5 13.4 L 59.5 26.7 Q 59.5 27.3 59.05 27.75 L 51.05 35.75 Q 50.6 36.2 50 36.2 49.35 36.2 48.95 35.75 L 41 27.85 Q 40.55 27.45 40.55 26.8 L 40.55 13.4 Q 40.55 12.85 40.95 12.4 Z" />
    <path
       id="Layer14_0_1_STROKES"
       stroke="#1B1B1B"
       stroke-width="5"
       stroke-linejoin="round"
       stroke-linecap="round"
       fill="none"
       d=" M 72.95 17.85 Q 73.75 18.05 74.6 18.3 79.05 21.55 78.45 27.35 72.3 34.55 74.45 47.75 76.2 58.6 85 73.95 85.55 78.75 82.85 81.05 82.2 81.6 81.3 82.1 71.4 83.35 61.2 82.05 42.85 80.05 29.75 66.95 18.3 55.65 15.5 32.05 24 27.15 39.95 20.25 54.6 13.75 71.65 17.55" />
    <path
       id="Layer13_0_1_STROKES"
       stroke="#626262"
       stroke-width="4"
       stroke-linejoin="round"
       stroke-linecap="round"
       fill="none"
       d=" M 50 22.8 Q 61.3 22.8 69.25 30.75 77.2 38.7 77.2 50 77.2 61.3 69.25 69.25 61.3 77.2 50 77.2 38.75 77.2 30.75 69.25 22.8 61.3 22.8 50 22.8 38.7 30.75 30.75 38.75 22.8 50 22.8 Z" />
    <path
       id="Layer13_0_2_STROKES"
       stroke="#1B1B1B"
       stroke-width="5"
       stroke-linejoin="round"
       stroke-linecap="round"
       fill="none"
       d=" M 50 14.3 Q 64.85 14.3 75.25 24.7 85.7 35.15 85.7 50 85.7 64.8 75.25 75.25 64.85 85.7 50 85.7 35.2 85.7 24.75 75.25 14.3 64.8 14.3 50 14.3 35.15 24.75 24.7 35.2 14.3 50 14.3 Z" />
    <path
       id="Layer11_0_1_STROKES"
       stroke="#151515"
       stroke-width="4"
       stroke-linejoin="round"
       stroke-linecap="round"
       fill="none"
       d=" M 50 13.95 Q 65.05 13.95 75.55 24.55 86.15 35.1 86.15 50 86.15 65.05 75.55 75.55 65.05 86.15 50 86.15 35.1 86.15 24.55 75.55 13.95 65.05 13.95 50 13.95 35.1 24.55 24.55 35.1 13.95 50 13.95 Z" />
    <path
       id="Layer11_0_2_STROKES"
       stroke="#646464"
       stroke-width="4"
       stroke-linejoin="round"
       stroke-linecap="round"
       fill="none"
       d=" M 50 24.15 Q 60.8 24.15 68.35 31.75 75.95 39.3 75.95 50 75.95 60.8 68.35 68.35 60.8 75.95 50 75.95 39.3 75.95 31.75 68.35 24.15 60.8 24.15 50 24.15 39.3 31.75 31.75 39.3 24.15 50 24.15 Z" />
    <path
       id="Layer8_0_1_STROKES"
       stroke="#FFFFFF"
       stroke-opacity="0.10196078431372549"
       stroke-width="3"
       stroke-linejoin="round"
       stroke-linecap="round"
       fill="none"
       d=" M 42.75 37.9 L 42.75 25.8 Q 42.75 22.8 44.85 20.7 47 18.55 50 18.55 53 18.55 55.1 20.7 57.25 22.8 57.25 25.8 L 57.25 42.7 74.15 42.7 Q 77.15 42.7 79.25 44.8 81.4 46.95 81.4 49.95 81.4 52.95 79.25 55.05 77.15 57.2 74.15 57.2 L 57.25 57.2 57.25 74.05 Q 57.25 76.65 55.65 78.6 55.35 78.95 55.1 79.2 53 81.3 50 81.3 47 81.3 44.85 79.2 44.6 78.95 44.35 78.65 42.75 76.7 42.75 74.05 L 42.75 61.9 M 42.75 37.9 L 42.75 42.7 M 42.75 57.2 L 42.75 61.9" />
    <path
       id="Layer8_0_2_STROKES"
       stroke="url(#Gradient_7)"
       stroke-width="3"
       stroke-linejoin="round"
       stroke-linecap="round"
       fill="none"
       d=" M 42.75 42.7 L 25.9 42.7 Q 22.9 42.7 20.75 44.8 18.65 46.95 18.65 49.95 18.65 52.95 20.75 55.05 22.9 57.2 25.9 57.2 L 42.75 57.2" />
    <path
       id="Layer7_0_1_STROKES"
       stroke="#54565A"
       stroke-width="5"
       stroke-linejoin="round"
       stroke-linecap="round"
       fill="none"
       d=" M 62.95 37.05 L 50 50 63 63 M 37 63 L 50 50 37.05 37.05" />
    <path
       id="Layer6_0_1_STROKES"
       stroke="#1B1B1B"
       stroke-width="5"
       stroke-linejoin="round"
       stroke-linecap="round"
       fill="none"
       d=" M 64.95 65.25 L 87.6 65.25 Q 92.35 64.25 92.95 59.9 94.9 49.7 92.95 40.3 92.25 36.05 87.6 34.95 L 64.95 34.95 64.95 12.5 Q 63.95 7.75 59.6 7.15 49.4 5.2 40 7.15 35.75 7.85 34.65 12.5 L 34.65 34.95 12.5 34.95 Q 7.85 36.05 7.15 40.3 5.2 49.7 7.15 59.9 7.75 64.25 12.5 65.25 L 34.65 65.25" />
    <path
       id="Layer6_0_2_STROKES"
       stroke="#626262"
       stroke-width="4"
       stroke-linejoin="round"
       stroke-linecap="round"
       fill="none"
       d=" M 64.95 57.75 L 85.45 57.75 Q 87.15 50.1 85.45 42.45 L 64.95 42.45 Q 61.85 42.45 59.65 40.25 57.45 38.05 57.45 34.95 L 57.45 14.65 Q 49.8 12.95 42.15 14.65 L 42.15 34.95 Q 42.15 38.05 39.95 40.25 37.75 42.45 34.65 42.45 L 23.75 42.45 M 22.45 42.45 L 14.65 42.45 Q 12.95 50.1 14.65 57.75 L 34.65 57.75" />
    <path
       id="Layer6_0_3_STROKES"
       stroke="url(#Gradient_10)"
       stroke-width="4"
       stroke-linejoin="round"
       stroke-linecap="round"
       fill="none"
       d=" M 34.65 57.75 Q 37.75 57.75 39.95 59.95 42.15 62.15 42.15 65.25 L 42.15 85.45 Q 49.8 87.15 57.45 85.45 L 57.45 65.25 Q 57.45 62.15 59.65 59.95 61.85 57.75 64.95 57.75" />
    <path
       id="Layer6_0_4_STROKES"
       stroke="url(#Gradient_11)"
       stroke-width="5"
       stroke-linejoin="round"
       stroke-linecap="round"
       fill="none"
       d=" M 34.65 65.25 L 34.65 87.6 Q 35.75 92.25 40 92.95 49.4 94.9 59.6 92.95 63.95 92.35 64.95 87.6 L 64.95 65.25" />
    <path
       id="Layer4_0_1_STROKES"
       stroke="#FFFFFF"
       stroke-width="5"
       stroke-linejoin="round"
       stroke-linecap="round"
       fill="none"
       d=" M 49.95 24 Q 60.7 24 68.2 31.55 75.85 39.15 75.85 49.9 75.85 60.65 68.2 68.2 60.7 75.8 49.95 75.8 39.2 75.8 31.55 68.2 24.05 60.65 24.05 49.9 24.05 39.15 31.55 31.55 39.2 24 49.95 24 Z M 64.9 43.75 L 64.9 49.55 Q 64.9 49.7244140625 64.9 49.9 64.9 56.1 60.5 60.45 56.2 64.85 50 64.85 43.8 64.85 39.4 60.45 35.05 56.1 35.05 49.9 35.05 49.7244140625 35.05 49.55 L 35.05 43.75" />
    <path
       id="Layer3_0_1_STROKES"
       stroke="#1D1D1D"
       stroke-width="5"
       stroke-linejoin="round"
       stroke-linecap="round"
       fill="none"
       d=" M 84.95 23.15 Q 83.7 50.5 84.95 77.8 84.95 83.65 79.1 83.65 L 21.9 83.65 Q 16.05 83.65 16.05 77.8 17.3 50.5 16.05 23.15 16.05 17.3 21.9 17.3 L 79.1 17.3 Q 84.95 17.3 84.95 23.15 Z" />
    <path
       id="Layer3_0_2_STROKES"
       stroke="#696969"
       stroke-width="4"
       stroke-linejoin="round"
       stroke-linecap="round"
       fill="none"
       d=" M 54.15 26.45 L 29.45 26.45 Q 25.2 26.45 25.2 30.7 26.35 50.5 25.2 70.25 25.2 74.45 29.45 74.45 L 54.15 74.45 M 55.4 74.45 L 71.55 74.45 Q 75.8 74.45 75.8 70.25 74.65 50.5 75.8 30.7 75.8 26.45 71.55 26.45 L 55.4 26.45" />
    <path
       id="Layer2_0_1_STROKES"
       stroke="#404040"
       stroke-width="5"
       stroke-linejoin="round"
       stroke-linecap="round"
       fill="none"
       d=" M 84.95 23.15 Q 83.7 50.5 84.95 77.8 84.95 83.65 79.1 83.65 L 21.9 83.65 Q 16.05 83.65 16.05 77.8 17.3 50.5 16.05 23.15 16.05 17.3 21.9 17.3 L 79.1 17.3 Q 84.95 17.3 84.95 23.15 Z" />
    <path
       id="Layer2_0_2_STROKES"
       stroke="#FFFFFF"
       stroke-width="4"
       stroke-linejoin="round"
       stroke-linecap="round"
       fill="none"
       d=" M 55.4 74.45 L 71.55 74.45 Q 75.8 74.45 75.8 70.25 74.65 50.5 75.8 30.7 75.8 26.45 71.55 26.45 L 55.4 26.45 M 54.15 26.45 L 29.45 26.45 Q 25.2 26.45 25.2 30.7 26.35 50.5 25.2 70.25 25.2 74.45 29.45 74.45 L 54.15 74.45" />
  </defs>
  <g
     id="g14626"
     style="display:none">
    <use
       xlink:href="#Layer22_0_FILL"
       id="use14622" />
    <use
       xlink:href="#Layer22_0_1_STROKES"
       id="use14624" />
  </g>
  <g
     id="g14630"
     style="display:none">
    <use
       xlink:href="#Layer21_0_FILL"
       id="use14628" />
  </g>
  <g
     transform="matrix(0.86602783,0.49998474,-0.49998474,0.86602783,43.7,53.6)"
     id="g14636"
     style="display:none">
    <g
       id="g14634">
      <use
         xlink:href="#FingerSide_0_Layer0_0_FILL"
         id="use14632" />
    </g>
  </g>
  <g
     id="g14640"
     style="display:none">
    <use
       xlink:href="#Layer20_0_FILL"
       id="use14638" />
  </g>
  <g
     id="g14644"
     style="display:none">
    <use
       xlink:href="#Layer19_0_FILL"
       id="use14642" />
  </g>
  <g
     id="g14648"
     style="display:none">
    <use
       xlink:href="#Layer18_0_FILL"
       id="use14646" />
  </g>
  <g
     id="g14656"
     style="display:none">
    <use
       xlink:href="#Layer17_0_FILL"
       id="use14650" />
    <use
       xlink:href="#Layer17_0_1_STROKES"
       id="use14652" />
    <use
       xlink:href="#Layer17_0_2_STROKES"
       id="use14654" />
  </g>
  <g
     id="g14662"
     style="display:none">
    <use
       xlink:href="#Layer16_0_FILL"
       id="use14658" />
    <use
       xlink:href="#Layer16_0_1_STROKES"
       id="use14660" />
  </g>
  <g
     id="g14674"
     style="display:none">
    <use
       xlink:href="#Layer15_0_FILL"
       id="use14664" />
    <use
       xlink:href="#Layer15_0_1_STROKES"
       id="use14666" />
    <use
       xlink:href="#Layer15_0_2_STROKES"
       id="use14668" />
    <use
       xlink:href="#Layer15_0_3_STROKES"
       id="use14670" />
    <use
       xlink:href="#Layer15_0_4_STROKES"
       id="use14672" />
  </g>
  <g
     id="g14680"
     style="display:none">
    <use
       xlink:href="#Layer14_0_FILL"
       id="use14676" />
    <use
       xlink:href="#Layer14_0_1_STROKES"
       id="use14678" />
  </g>
  <g
     id="g14688"
     style="display:none">
    <use
       xlink:href="#Layer13_0_FILL"
       id="use14682" />
    <use
       xlink:href="#Layer13_0_1_STROKES"
       id="use14684" />
    <use
       xlink:href="#Layer13_0_2_STROKES"
       id="use14686" />
  </g>
  <g
     id="g14692"
     style="display:none">
    <use
       xlink:href="#Layer12_0_FILL"
       id="use14690" />
  </g>
  <g
     id="g14700"
     style="display:none">
    <use
       xlink:href="#Layer11_0_FILL"
       id="use14694" />
    <use
       xlink:href="#Layer11_0_1_STROKES"
       id="use14696" />
    <use
       xlink:href="#Layer11_0_2_STROKES"
       id="use14698" />
  </g>
  <g
     id="g14704"
     style="display:none">
    <use
       xlink:href="#Layer10_0_FILL"
       id="use14702" />
  </g>
  <g
     id="g14708"
     style="display:none">
    <use
       xlink:href="#Layer9_0_FILL"
       id="use14706" />
  </g>
  <g
     id="g14716"
     style="display:none">
    <use
       xlink:href="#Layer8_0_FILL"
       id="use14710" />
    <use
       xlink:href="#Layer8_0_1_STROKES"
       id="use14712" />
    <use
       xlink:href="#Layer8_0_2_STROKES"
       id="use14714" />
  </g>
  <g
     id="g14722"
     style="display:none">
    <use
       xlink:href="#Layer7_0_FILL"
       id="use14718" />
    <use
       xlink:href="#Layer7_0_1_STROKES"
       id="use14720" />
  </g>
  <g
     id="g14734"
     style="display:none">
    <use
       xlink:href="#Layer6_0_FILL"
       id="use14724" />
    <use
       xlink:href="#Layer6_0_1_STROKES"
       id="use14726" />
    <use
       xlink:href="#Layer6_0_2_STROKES"
       id="use14728" />
    <use
       xlink:href="#Layer6_0_3_STROKES"
       id="use14730" />
    <use
       xlink:href="#Layer6_0_4_STROKES"
       id="use14732" />
  </g>
  <g
     id="g14738"
     style="display:none">
    <use
       xlink:href="#Layer5_0_FILL"
       id="use14736" />
  </g>
  <g
     id="g14744"
     style="display:none">
    <use
       xlink:href="#Layer4_0_FILL"
       id="use14740" />
    <use
       xlink:href="#Layer4_0_1_STROKES"
       id="use14742" />
  </g>
  <g
     transform="matrix( 1, 0, 0, 1, 0,0) "
     id="g14752">
    <use
       xlink:href="#Layer3_0_FILL"
       id="use14746" />
    <use
       xlink:href="#Layer3_0_1_STROKES"
       id="use14748" />
    <use
       xlink:href="#Layer3_0_2_STROKES"
       id="use14750" />
  </g>
  <g
     id="g14760"
     style="display:none">
    <use
       xlink:href="#Layer2_0_FILL"
       id="use14754" />
    <use
       xlink:href="#Layer2_0_1_STROKES"
       id="use14756" />
    <use
       xlink:href="#Layer2_0_2_STROKES"
       id="use14758" />
  </g>
  <g
     id="g14764"
     style="display:none">
    <use
       xlink:href="#Layer1_0_FILL"
       id="use14762" />
  </g>
  <g
     id="g14768"
     style="display:none">
    <use
       xlink:href="#Layer0_0_FILL"
       id="use14766" />
  </g>
</svg>
