<?xml version="1.0" encoding="UTF-8" standalone="no"?>
<svg
   version="1.1"
   preserveAspectRatio="none"
   x="0px"
   y="0px"
   width="100px"
   height="100px"
   viewBox="0 0 100 100"
   id="svg7290"
   sodipodi:docname="Vector Source0052.svg"
   inkscape:version="1.2.1 (9c6d41e410, 2022-07-14)"
   xmlns:inkscape="http://www.inkscape.org/namespaces/inkscape"
   xmlns:sodipodi="http://sodipodi.sourceforge.net/DTD/sodipodi-0.dtd"
   xmlns:xlink="http://www.w3.org/1999/xlink"
   xmlns="http://www.w3.org/2000/svg"
   xmlns:svg="http://www.w3.org/2000/svg">
  <sodipodi:namedview
     id="namedview7292"
     pagecolor="#ffffff"
     bordercolor="#000000"
     borderopacity="0.25"
     inkscape:showpageshadow="2"
     inkscape:pageopacity="0.0"
     inkscape:pagecheckerboard="0"
     inkscape:deskcolor="#d1d1d1"
     showgrid="false"
     inkscape:zoom="10.27"
     inkscape:cx="42.55112"
     inkscape:cy="50"
     inkscape:window-width="2400"
     inkscape:window-height="1261"
     inkscape:window-x="5591"
     inkscape:window-y="431"
     inkscape:window-maximized="1"
     inkscape:current-layer="svg7290" />
  <defs
     id="defs7272">
    <g
       id="Layer3_0_FILL">
      <path
         fill="#353535"
         stroke="none"
         d=" M 84.95 77.8 Q 83.7 50.5 84.95 23.15 84.95 17.3 79.1 17.3 L 21.9 17.3 Q 16.05 17.3 16.05 23.15 17.3 50.5 16.05 77.8 16.05 83.65 21.9 83.65 L 79.1 83.65 Q 84.95 83.65 84.95 77.8 M 54.15 26.45 L 55.4 26.45 71.55 26.45 Q 75.8 26.45 75.8 30.7 74.65 50.5 75.8 70.25 75.8 74.45 71.55 74.45 L 55.4 74.45 54.15 74.45 29.45 74.45 Q 25.2 74.45 25.2 70.25 26.35 50.5 25.2 30.7 25.2 26.45 29.45 26.45 L 54.15 26.45 Z"
         id="path7254" />
      <path
         fill="#595959"
         stroke="none"
         d=" M 55.4 26.45 L 54.15 26.45 29.45 26.45 Q 25.2 26.45 25.2 30.7 26.35 50.5 25.2 70.25 25.2 74.45 29.45 74.45 L 54.15 74.45 55.4 74.45 71.55 74.45 Q 75.8 74.45 75.8 70.25 74.65 50.5 75.8 30.7 75.8 26.45 71.55 26.45 L 55.4 26.45 M 46.95 36 Q 47.3 35.9 47.7 36.05 48.05 36.25 48.2 36.6 L 58.65 63.9 Q 58.75 64.15 58.7 64.45 58.65 64.7 58.45 64.95 58.25 65.15 58 65.2 L 54.05 66.4 Q 53.7 66.5 53.35 66.35 52.95 66.15 52.85 65.8 L 42.35 38.55 Q 42.2 38.3 42.3 38.05 42.3 37.75 42.5 37.55 42.7 37.35 42.95 37.25 L 46.95 36 Z"
         id="path7256" />
      <path
         fill="#CDCDCD"
         stroke="none"
         d=" M 47.7 36.05 Q 47.3 35.9 46.95 36 L 42.95 37.25 Q 42.7 37.35 42.5 37.55 42.3 37.75 42.3 38.05 42.2 38.3 42.35 38.55 L 52.85 65.8 Q 52.95 66.15 53.35 66.35 53.7 66.5 54.05 66.4 L 58 65.2 Q 58.25 65.15 58.45 64.95 58.65 64.7 58.7 64.45 58.75 64.15 58.65 63.9 L 48.2 36.6 Q 48.05 36.25 47.7 36.05 Z"
         id="path7258" />
    </g>
    <g
       id="Layer2_0_FILL">
      <path
         fill="#D7D7D7"
         stroke="none"
         d=" M 84.95 77.8 Q 83.7 50.5 84.95 23.15 84.95 17.3 79.1 17.3 L 21.9 17.3 Q 16.05 17.3 16.05 23.15 17.3 50.5 16.05 77.8 16.05 83.65 21.9 83.65 L 79.1 83.65 Q 84.95 83.65 84.95 77.8 M 54.15 26.45 L 55.4 26.45 71.55 26.45 Q 75.8 26.45 75.8 30.7 74.65 50.5 75.8 70.25 75.8 74.45 71.55 74.45 L 55.4 74.45 54.15 74.45 29.45 74.45 Q 25.2 74.45 25.2 70.25 26.35 50.5 25.2 30.7 25.2 26.45 29.45 26.45 L 54.15 26.45 Z"
         id="path7261" />
      <path
         fill="#F5F5F5"
         stroke="none"
         d=" M 55.4 26.45 L 54.15 26.45 29.45 26.45 Q 25.2 26.45 25.2 30.7 26.35 50.5 25.2 70.25 25.2 74.45 29.45 74.45 L 54.15 74.45 55.4 74.45 71.55 74.45 Q 75.8 74.45 75.8 70.25 74.65 50.5 75.8 30.7 75.8 26.45 71.55 26.45 L 55.4 26.45 M 46.95 36 Q 47.3 35.9 47.7 36.05 48.05 36.25 48.2 36.6 L 58.65 63.9 Q 58.75 64.15 58.7 64.45 58.65 64.7 58.45 64.95 58.25 65.15 58 65.2 L 54.05 66.4 Q 53.7 66.5 53.35 66.35 52.95 66.15 52.85 65.8 L 42.35 38.55 Q 42.2 38.3 42.3 38.05 42.3 37.75 42.5 37.55 42.7 37.35 42.95 37.25 L 46.95 36 Z"
         id="path7263" />
      <path
         fill="#404040"
         stroke="none"
         d=" M 47.7 36.05 Q 47.3 35.9 46.95 36 L 42.95 37.25 Q 42.7 37.35 42.5 37.55 42.3 37.75 42.3 38.05 42.2 38.3 42.35 38.55 L 52.85 65.8 Q 52.95 66.15 53.35 66.35 53.7 66.5 54.05 66.4 L 58 65.2 Q 58.25 65.15 58.45 64.95 58.65 64.7 58.7 64.45 58.75 64.15 58.65 63.9 L 48.2 36.6 Q 48.05 36.25 47.7 36.05 Z"
         id="path7265" />
    </g>
    <path
       id="Layer3_0_1_STROKES"
       stroke="#1D1D1D"
       stroke-width="5"
       stroke-linejoin="round"
       stroke-linecap="round"
       fill="none"
       d=" M 84.95 23.15 Q 83.7 50.5 84.95 77.8 84.95 83.65 79.1 83.65 L 21.9 83.65 Q 16.05 83.65 16.05 77.8 17.3 50.5 16.05 23.15 16.05 17.3 21.9 17.3 L 79.1 17.3 Q 84.95 17.3 84.95 23.15 Z" />
    <path
       id="Layer3_0_2_STROKES"
       stroke="#696969"
       stroke-width="4"
       stroke-linejoin="round"
       stroke-linecap="round"
       fill="none"
       d=" M 54.15 26.45 L 29.45 26.45 Q 25.2 26.45 25.2 30.7 26.35 50.5 25.2 70.25 25.2 74.45 29.45 74.45 L 54.15 74.45 M 55.4 74.45 L 71.55 74.45 Q 75.8 74.45 75.8 70.25 74.65 50.5 75.8 30.7 75.8 26.45 71.55 26.45 L 55.4 26.45" />
    <path
       id="Layer2_0_1_STROKES"
       stroke="#404040"
       stroke-width="5"
       stroke-linejoin="round"
       stroke-linecap="round"
       fill="none"
       d=" M 84.95 23.15 Q 83.7 50.5 84.95 77.8 84.95 83.65 79.1 83.65 L 21.9 83.65 Q 16.05 83.65 16.05 77.8 17.3 50.5 16.05 23.15 16.05 17.3 21.9 17.3 L 79.1 17.3 Q 84.95 17.3 84.95 23.15 Z" />
    <path
       id="Layer2_0_2_STROKES"
       stroke="#FFFFFF"
       stroke-width="4"
       stroke-linejoin="round"
       stroke-linecap="round"
       fill="none"
       d=" M 54.15 26.45 L 29.45 26.45 Q 25.2 26.45 25.2 30.7 26.35 50.5 25.2 70.25 25.2 74.45 29.45 74.45 L 54.15 74.45 M 55.4 74.45 L 71.55 74.45 Q 75.8 74.45 75.8 70.25 74.65 50.5 75.8 30.7 75.8 26.45 71.55 26.45 L 55.4 26.45" />
  </defs>
  <g
     transform="matrix( 1, 0, 0, 1, 0,0) "
     id="g7280">
    <use
       xlink:href="#Layer3_0_FILL"
       id="use7274" />
    <use
       xlink:href="#Layer3_0_1_STROKES"
       id="use7276" />
    <use
       xlink:href="#Layer3_0_2_STROKES"
       id="use7278" />
  </g>
  <g
     id="g7288"
     style="display:none">
    <use
       xlink:href="#Layer2_0_FILL"
       id="use7282" />
    <use
       xlink:href="#Layer2_0_1_STROKES"
       id="use7284" />
    <use
       xlink:href="#Layer2_0_2_STROKES"
       id="use7286" />
  </g>
</svg>
