<?xml version="1.0" encoding="UTF-8" standalone="no"?>
<svg
   version="1.1"
   preserveAspectRatio="none"
   x="0px"
   y="0px"
   width="100px"
   height="100px"
   viewBox="0 0 100 100"
   id="svg6202"
   sodipodi:docname="Vector Source0022.svg"
   inkscape:version="1.2.1 (9c6d41e410, 2022-07-14)"
   xmlns:inkscape="http://www.inkscape.org/namespaces/inkscape"
   xmlns:sodipodi="http://sodipodi.sourceforge.net/DTD/sodipodi-0.dtd"
   xmlns:xlink="http://www.w3.org/1999/xlink"
   xmlns="http://www.w3.org/2000/svg"
   xmlns:svg="http://www.w3.org/2000/svg">
  <sodipodi:namedview
     id="namedview6204"
     pagecolor="#ffffff"
     bordercolor="#000000"
     borderopacity="0.25"
     inkscape:showpageshadow="2"
     inkscape:pageopacity="0.0"
     inkscape:pagecheckerboard="0"
     inkscape:deskcolor="#d1d1d1"
     showgrid="false"
     inkscape:zoom="10.27"
     inkscape:cx="42.55112"
     inkscape:cy="50"
     inkscape:window-width="2400"
     inkscape:window-height="1261"
     inkscape:window-x="5591"
     inkscape:window-y="431"
     inkscape:window-maximized="1"
     inkscape:current-layer="svg6202" />
  <defs
     id="defs6126">
    <linearGradient
       id="Gradient_1"
       gradientUnits="userSpaceOnUse"
       x1="53.39999999999999"
       y1="48"
       x2="99.7"
       y2="48"
       spreadMethod="pad">
      <stop
         offset="9.803921568627452%"
         stop-color="#E02727"
         stop-opacity="0"
         id="stop5973" />
      <stop
         offset="62.35294117647059%"
         stop-color="#E02727"
         id="stop5975" />
    </linearGradient>
    <linearGradient
       id="Gradient_2"
       gradientUnits="userSpaceOnUse"
       x1="53.325"
       y1="48.1"
       x2="103.575"
       y2="48.1"
       spreadMethod="pad">
      <stop
         offset="0%"
         stop-color="#A91818"
         stop-opacity="0"
         id="stop5978" />
      <stop
         offset="61.568627450980394%"
         stop-color="#A91818"
         id="stop5980" />
    </linearGradient>
    <linearGradient
       id="Gradient_3"
       gradientUnits="userSpaceOnUse"
       x1="-0.05"
       y1="-29.2375"
       x2="-0.05"
       y2="19.337500000000002"
       spreadMethod="pad">
      <stop
         offset="0%"
         stop-color="#000000"
         stop-opacity="0.2"
         id="stop5983" />
      <stop
         offset="99.2156862745098%"
         stop-color="#000000"
         stop-opacity="0"
         id="stop5985" />
    </linearGradient>
    <linearGradient
       id="Gradient_4"
       gradientUnits="userSpaceOnUse"
       x1="-0.05"
       y1="-28.2875"
       x2="-0.05"
       y2="15.487500000000002"
       spreadMethod="pad">
      <stop
         offset="0%"
         stop-color="#000000"
         stop-opacity="0.2"
         id="stop5988" />
      <stop
         offset="99.2156862745098%"
         stop-color="#000000"
         stop-opacity="0"
         id="stop5990" />
    </linearGradient>
    <linearGradient
       id="Gradient_5"
       gradientUnits="userSpaceOnUse"
       x1="-0.05"
       y1="-27.0375"
       x2="-0.05"
       y2="6.9375"
       spreadMethod="pad">
      <stop
         offset="0%"
         stop-color="#000000"
         stop-opacity="0.2"
         id="stop5993" />
      <stop
         offset="99.2156862745098%"
         stop-color="#000000"
         stop-opacity="0"
         id="stop5995" />
    </linearGradient>
    <linearGradient
       id="Gradient_6"
       gradientUnits="userSpaceOnUse"
       x1="0.1"
       y1="9.6625"
       x2="0.1"
       y2="-7.1625"
       spreadMethod="pad">
      <stop
         offset="0%"
         stop-color="#796C4B"
         stop-opacity="0"
         id="stop5998" />
      <stop
         offset="19.607843137254903%"
         stop-color="#796C4B"
         id="stop6000" />
    </linearGradient>
    <linearGradient
       id="Gradient_7"
       gradientUnits="userSpaceOnUse"
       x1="-0.25"
       y1="-3.6999999999999993"
       x2="-0.25"
       y2="-14.7"
       spreadMethod="pad">
      <stop
         offset="0%"
         stop-color="#F1B776"
         id="stop6003" />
      <stop
         offset="100%"
         stop-color="#876B47"
         id="stop6005" />
    </linearGradient>
    <linearGradient
       id="Gradient_8"
       gradientUnits="userSpaceOnUse"
       x1="0.1"
       y1="28.45"
       x2="0.1"
       y2="1.9499999999999993"
       spreadMethod="pad">
      <stop
         offset="0%"
         stop-color="#876B47"
         stop-opacity="0"
         id="stop6008" />
      <stop
         offset="19.607843137254903%"
         stop-color="#876B47"
         id="stop6010" />
    </linearGradient>
    <linearGradient
       id="Gradient_9"
       gradientUnits="userSpaceOnUse"
       x1="-0.05"
       y1="-27.012500000000003"
       x2="-0.05"
       y2="3.8125000000000018"
       spreadMethod="pad">
      <stop
         offset="0%"
         stop-color="#000000"
         stop-opacity="0.2"
         id="stop6013" />
      <stop
         offset="99.2156862745098%"
         stop-color="#000000"
         stop-opacity="0"
         id="stop6015" />
    </linearGradient>
    <linearGradient
       id="Gradient_10"
       gradientUnits="userSpaceOnUse"
       x1="72.125"
       y1="47.1125"
       x2="35.675"
       y2="56.8875"
       spreadMethod="pad">
      <stop
         offset="10.196078431372548%"
         stop-color="#666666"
         id="stop6018" />
      <stop
         offset="100%"
         stop-color="#585858"
         id="stop6020" />
    </linearGradient>
    <g
       id="Layer21_0_FILL">
      <path
         fill="url(#Gradient_1)"
         stroke="none"
         d=" M 99.7 48.05 L 83.3 34.65 81.75 34.6 81.75 41.6 53.35 41.6 53.4 54.45 81.7 54.45 81.75 61.4 83.3 61.45 99.7 48.05 Z"
         id="path6023" />
      <path
         fill="url(#Gradient_2)"
         stroke="none"
         d=" M 83.3 34.65 L 99.7 48.05 83.3 61.45 81.75 61.4 81.7 54.45 53.4 54.45 53.35 59.2 77 59.15 77.05 64.9 Q 77.05 65.3 77.25 65.7 77.65 66.1 78.1 66.05 L 83.85 66 Q 84.1 66.05 84.4 65.95 L 102.55 51.2 102.65 51.1 Q 104.75 48 102.7 45 L 102.5 45.05 84.45 30.2 Q 84.2 29.95 83.75 30 L 78.2 29.95 Q 77.75 29.9 77.35 30.3 77 30.7 77 31.15 L 77.1 36.8 53.45 36.8 53.35 41.6 81.75 41.6 81.75 34.6 83.3 34.65 Z"
         id="path6025" />
    </g>
    <g
       id="Finger_Front_0_Layer1_0_FILL">
      <path
         fill="url(#Gradient_3)"
         stroke="none"
         d=" M -16.2 -19.55 Q -16.3 -19.35 -16.35 -19.15 -16.65 -18.6 -16.85 -17.75 L -17.85 -13.8 -19.05 -0.95 -19.1 -0.95 -19.55 10.5 -19.3 24.3 -15.9 24.3 -16.1 10.5 -15.75 -0.95 -15.7 -0.95 -14.55 -13.8 -13.75 -17.65 Q -13.7 -17.95 -13.65 -18.05 L -13.6 -18.15 Q -13.4 -18.85 -13.1 -19.55 L -16.2 -19.55 M 16.3 -19.2 Q 16.2 -19.4 16.15 -19.55 L 13.05 -19.55 Q 13.3 -18.9 13.6 -18.15 13.6 -17.95 13.75 -17.65 L 14.55 -13.8 15.75 -0.95 15.7 -0.95 16.05 10.5 15.85 24.3 19.25 24.3 19.5 10.5 19.55 10.5 19.35 4.4 Q 19.35 4.45 19.4 4.55 L 17.85 -13.8 16.8 -17.75 Q 16.7 -18.15 16.6 -18.5 16.4 -18.95 16.3 -19.2 Z"
         id="path6028" />
      <path
         fill="url(#Gradient_4)"
         stroke="none"
         d=" M -13.1 -19.55 Q -12.35 -21.25 -11.4 -22.7 L -14.55 -22.7 Q -15.45 -21.25 -16.2 -19.55 L -13.1 -19.55 M 11.3 -22.7 Q 12.2 -21.35 13.05 -19.55 L 16.15 -19.55 Q 15.35 -21.25 14.5 -22.7 L 11.3 -22.7 Z"
         id="path6030" />
      <path
         fill="#876B47"
         stroke="none"
         d=" M -8.4 -23.9 L -8.4 -23.8 Q -8.3794921875 -23.855859375 -8.35 -23.9 -8.2734375 -24.1626953125 -8.2 -24.4 -8.3333984375 -24.1666015625 -8.4 -23.9 M -8.65 -19.55 L -8.55 -22.85 -10.35 -22.85 -10.35 -22.7 -10.85 -19.55 -8.65 -19.55 M 7.25 -26.1 L 7.15 -26.1 Q 7.3275390625 -25.9046875 7.5 -25.7 8.05 -24.9 8.35 -23.9 8.4 -23.7 8.5 -23.5 8.5 -23.35 8.6 -23.15 L 8.65 -19.55 10.75 -19.55 10.3 -22.7 11.3 -22.7 Q 11.2 -22.85 11.1 -22.95 L 10.95 -23.05 Q 9.2 -24.95 7.25 -26.1 Z"
         id="path6032" />
      <path
         fill="url(#Gradient_5)"
         stroke="none"
         d=" M -7.45 -26.1 L -11.3 -26.1 Q -13.1 -24.6 -14.55 -22.7 L -11.4 -22.7 Q -9.75 -24.75 -7.45 -26.1 M 11.15 -26.1 L 7.25 -26.1 Q 9.2 -24.95 10.95 -23.05 L 11.1 -22.95 Q 11.2 -22.85 11.3 -22.7 L 14.5 -22.7 Q 13.8 -23.6 13.1 -24.35 L 13.1 -24.4 Q 12.95 -24.45 12.9 -24.55 12.05 -25.4 11.15 -26.1 Z"
         id="path6034" />
      <path
         fill="url(#Gradient_6)"
         stroke="none"
         d=" M -7.2 -26.1 Q -7.082421875 -26.2298828125 -7 -26.35 -7.22421875 -26.2291015625 -7.45 -26.1 L -7.2 -26.1 M 7.15 -26.1 L 7.25 -26.1 Q 7.1501953125 -26.16640625 7.05 -26.2 7.1005859375 -26.1556640625 7.15 -26.1 Z"
         id="path6036" />
      <path
         fill="#FBCF9B"
         stroke="none"
         d=" M 3.2 2.6 Q 3.15 0.8 1.9 0.5 1.05 0.3 0.55 -0.25 0.25 -0.25 -0.05 -0.25 -2.9 -0.25 -5.7 -0.95 L -5.75 -0.95 Q -6.95 -1.25 -8.2 -1.65 -8.5 -1.75 -8.7 -1.9 -8.85 -2.05 -8.95 -2.1 -9.55 -2.55 -10 -3.15 -11.25 -4.9 -11.65 -7.55 -11.75 -7.95 -11.75 -8.1 L -11.7 -9.4 -12.25 -3.15 -12.2 -3.15 -12.65 10.5 -12.7 10.5 -12.55 26.75 Q -8.35 29.4 -3.85 30.3 -1.05 30.85 1.7 30.6 2.45 30.45 3.3 30.35 3.5 27.2 3.05 24.3 2.65 22.35 2.1 20.65 1.6 19.45 0.8 19.15 -2.2 18.65 -5.45 18.1 -8.5 17.6 -8.65 16.55 L -8.6 16.55 Q -9.35 15.9 -8.9 14.85 -7.9 14.65 -4.9 15.3 -2.05 15.8 2.15 14.9 L 2.55 14.15 2.55 12.45 1.7 11.65 Q 0.3 11.75 -1.1 11.95 -2.9 12.1 -4.7 11.9 -6.7 11.9 -8.1 10.85 L -8.15 10.5 -8.1 10.5 -8.2 9.9 Q -8.15 9.2 -7.4 8.9 -4.25 9.35 -0.8 8.6 3.2 7.7 3.2 2.6 Z"
         id="path6038" />
      <path
         fill="#F1B776"
         stroke="none"
         d=" M 9.95 -3.15 L 10 -3.15 Q 9.6 -2.7 9.2 -2.35 8.95 -2.15 8.65 -1.9 8.45 -1.75 8.15 -1.65 6.9 -1.25 5.65 -0.95 L 5.6 -0.95 Q 3.05 -0.35 0.55 -0.25 1.05 0.3 1.9 0.5 3.15 0.8 3.2 2.6 3.2 7.7 -0.8 8.6 -4.25 9.35 -7.4 8.9 -8.15 9.2 -8.2 9.9 L -8.1 10.5 -8.15 10.5 -8.1 10.85 Q -6.7 11.9 -4.7 11.9 -2.9 12.1 -1.1 11.95 0.3 11.75 1.7 11.65 L 2.55 12.45 2.55 14.15 2.15 14.9 Q -2.05 15.8 -4.9 15.3 -7.9 14.65 -8.9 14.85 -9.35 15.9 -8.6 16.55 L -8.65 16.55 Q -8.5 17.6 -5.45 18.1 -2.2 18.65 0.8 19.15 1.6 19.45 2.1 20.65 2.65 22.35 3.05 24.3 3.5 27.2 3.3 30.35 7.45 29.9 11.3 27.5 11.95 27.15 12.55 26.75 L 12.6 10.5 12.65 10.5 12.2 -3.15 12.15 -3.15 11.55 -10.8 11.65 -8.1 Q 11.65 -7.95 11.6 -7.55 11.15 -4.85 9.95 -3.15 Z"
         id="path6040" />
      <path
         fill="#FFFFFF"
         stroke="none"
         d=" M 0 -3.2 Q 0.85 -3.3 1.75 -3.3 4.3 -3.55 6.9 -4.45 7 -4.7 7.25 -4.75 4.15 -7.75 0.2 -7.65 -2.4 -7.8 -4.5 -6.5 -5.9 -5.85 -7 -4.65 L -6.9 -4.45 Q -5.7 -4.1 -4.45 -3.7 -3.3 -3.45 -1.95 -3.3 -1.65 -3.3 -1.15 -3.2 -0.6 -3.2 0 -3.2 M 0.9 -28.95 L 0.2 -29 Q 0 -29 -0.15 -29 L -1 -28.95 Q -3.6 -28.8 -5.8 -27.4 -6.492578125 -26.93828125 -7 -26.35 -7.082421875 -26.2298828125 -7.2 -26.1 -7.2150390625 -26.05078125 -7.25 -26 -7.8357421875 -25.2970703125 -8.2 -24.4 -8.2734375 -24.1626953125 -8.35 -23.9 -8.3794921875 -23.855859375 -8.4 -23.8 -8.55 -23.5337890625 -8.55 -23.15 L -8.55 -22.85 Q -8.4970703125 -22.959765625 -8.45 -23.1 -7.778125 -24.2853515625 -6.4 -25.25 -3.65 -27.25 0.15 -27.15 3.85 -27.25 6.65 -25.25 7.75 -24.55 8.5 -23.5 8.4 -23.7 8.35 -23.9 8.05 -24.9 7.5 -25.7 7.3275390625 -25.9046875 7.15 -26.1 7.1005859375 -26.1556640625 7.05 -26.2 6.4646484375 -26.8576171875 5.85 -27.4 3.35 -28.75 0.9 -28.95 Z"
         id="path6042" />
      <path
         fill="url(#Gradient_7)"
         stroke="none"
         d=" M 11.5 -13.8 L 11.45 -13.8 10.75 -19.55 8.65 -19.55 8.85 -8.5 Q 8.35 -6.15 7.25 -4.75 7 -4.7 6.9 -4.45 4.3 -3.55 1.75 -3.3 0.85 -3.3 0 -3.2 -0.6 -3.2 -1.15 -3.2 -1.65 -3.3 -1.95 -3.3 -3.3 -3.45 -4.45 -3.7 -5.7 -4.1 -6.9 -4.45 L -7 -4.65 Q -8.45 -5.9 -8.85 -8.5 L -8.65 -19.55 -10.85 -19.55 -11.6 -13.8 -11.55 -13.8 -11.7 -9.4 -11.75 -8.1 Q -11.75 -7.95 -11.65 -7.55 -11.25 -4.9 -10 -3.15 -9.55 -2.55 -8.95 -2.1 -8.85 -2.05 -8.7 -1.9 -8.5 -1.75 -8.2 -1.65 -6.95 -1.25 -5.75 -0.95 L -5.7 -0.95 Q -2.9 -0.25 -0.05 -0.25 0.25 -0.25 0.55 -0.25 3.05 -0.35 5.6 -0.95 L 5.65 -0.95 Q 6.9 -1.25 8.15 -1.65 8.45 -1.75 8.65 -1.9 8.95 -2.15 9.2 -2.35 9.6 -2.7 10 -3.15 L 9.95 -3.15 Q 11.15 -4.85 11.6 -7.55 11.65 -7.95 11.65 -8.1 L 11.55 -10.8 11.5 -13.8 Z"
         id="path6044" />
      <path
         fill="url(#Gradient_8)"
         stroke="none"
         d=" M 11.3 -22.7 L 10.3 -22.7 10.75 -19.55 11.45 -13.8 11.5 -13.8 11.55 -10.8 12.15 -3.15 12.2 -3.15 12.65 10.5 12.6 10.5 12.55 26.75 Q 11.95 27.15 11.3 27.5 7.45 29.9 3.3 30.35 2.45 30.45 1.7 30.6 -1.05 30.85 -3.85 30.3 -8.35 29.4 -12.55 26.75 L -12.7 10.5 -12.65 10.5 -12.2 -3.15 -12.25 -3.15 -11.7 -9.4 -11.55 -13.8 -11.6 -13.8 -10.85 -19.55 -10.35 -22.7 -10.35 -22.85 -8.55 -22.85 -8.55 -23.15 Q -8.55 -23.5337890625 -8.4 -23.8 L -8.4 -23.9 Q -8.3333984375 -24.1666015625 -8.2 -24.4 -7.8357421875 -25.2970703125 -7.25 -26 -7.2150390625 -26.05078125 -7.2 -26.1 L -7.45 -26.1 Q -9.75 -24.75 -11.4 -22.7 -12.35 -21.25 -13.1 -19.55 -13.4 -18.85 -13.6 -18.15 L -13.65 -18.05 Q -13.7 -17.95 -13.75 -17.65 L -14.55 -13.8 -15.7 -0.95 -15.75 -0.95 -16.1 10.5 -15.9 24.3 -15.8 28.05 Q -15.85 28.1 -15.8 28.25 -15.9 28.75 -15.55 29.35 L -15.55 29.25 Q -15.4 29.75 -14.85 30.15 -7.55 34.85 -0.15 34.9 1.2 34.85 2.65 34.75 L 2.7 34.75 Q 4.7 34.4 6.55 34 6.5 33.95 6.65 34 10.75 32.6 14.8 30.15 15.2 29.8 15.55 29.35 15.75 28.8 15.85 28.25 15.8 28.1 15.85 28.05 L 15.85 24.3 16.05 10.5 15.7 -0.95 15.75 -0.95 14.55 -13.8 13.75 -17.65 Q 13.6 -17.95 13.6 -18.15 13.3 -18.9 13.05 -19.55 12.2 -21.35 11.3 -22.7 Z"
         id="path6046" />
      <path
         fill="#FFFCF4"
         stroke="none"
         d=" M 6.65 -25.25 Q 3.85 -27.25 0.15 -27.15 -3.65 -27.25 -6.4 -25.25 -7.778125 -24.2853515625 -8.45 -23.1 -8.4970703125 -22.959765625 -8.55 -22.85 L -8.65 -19.55 -8.85 -8.5 Q -8.45 -5.9 -7 -4.65 -5.9 -5.85 -4.5 -6.5 -2.4 -7.8 0.2 -7.65 4.15 -7.75 7.25 -4.75 8.35 -6.15 8.85 -8.5 L 8.65 -19.55 8.6 -23.15 Q 8.5 -23.35 8.5 -23.5 7.75 -24.55 6.65 -25.25 Z"
         id="path6048" />
      <path
         fill="url(#Gradient_9)"
         stroke="none"
         d=" M 0.2 -29 L 0.9 -28.95 Q 3.35 -28.75 5.85 -27.4 6.4646484375 -26.8576171875 7.05 -26.2 7.1501953125 -26.16640625 7.25 -26.1 L 11.15 -26.1 Q 9.85 -27.05 8.5 -27.7 7.65 -28.4 6.65 -29.05 6.45 -29.1 6.25 -29.25 3 -30.55 -0.15 -30.5 -3.35 -30.55 -6.35 -29.2 -6.6 -29.1 -6.75 -29.05 -7.6 -28.6 -8.25 -27.95 -9.9 -27.15 -11.3 -26.1 L -7.45 -26.1 Q -7.22421875 -26.2291015625 -7 -26.35 -6.492578125 -26.93828125 -5.8 -27.4 -3.6 -28.8 -1 -28.95 L -0.15 -29 Q 0 -29 0.2 -29 Z"
         id="path6050" />
    </g>
    <g
       id="Layer9_0_FILL">
      <path
         fill="#FFFFFF"
         stroke="none"
         d=" M 69.25 84 Q 75.5 88.85 80.55 82.8 86.55 77.8 81.65 71.6 L 72 59.25 54.8 72.65 69.25 84 M 43.45 22.9 Q 43.45 19.9 44.2 17.25 L 44.2 17.2 Q 44.65 15.5 45.45 13.9 40.6 12.9 36.95 11.2 L 36.9 11.15 Q 35.05 10.3 30.6 12.75 25.5 15.55 19.95 21.1 19.65 21.4 19.4 21.65 19.15 21.9 18.85 22.2 13.25 27.8 10.45 32.9 8 37.35 8.9 39.15 11 43.75 12.1 50.1 15.75 52.8 20.65 52.8 22.8 50.25 26.4 51.4 L 43.5 29.65 Q 43.55 29.6 43.6 29.55 43.75 29.35 43.9 29.15 44.35 28.45 44.7 27.85 L 44.7 27.8 Q 44.9890625 27.221875 45.55 27.45 L 45.55 27.45 Q 44.6 26.6 44.05 25.45 43.45 24.25 43.45 22.9 M 30.75 19.4 Q 33.75 17.8 35.05 18.4 35.25 18.5 35.4 18.65 36.5 19.7 34.6 23.1 32.75 26.6 28.9 30.45 28.7 30.65 28.55 30.8 28.35 31 28.2 31.2 24.35 35 20.8 36.85 17.4 38.75 16.35 37.7 16.15 37.5 16.1 37.35 15.45 36.1 17.15 33 19.1 29.65 22.9 25.9 23.05 25.7 23.25 25.5 23.4 25.35 23.6 25.15 27.4 21.35 30.75 19.4 M 89.5 32.85 Q 86.7 27.75 81.15 22.2 80.85 21.9 80.6 21.65 80.35 21.4 80.05 21.1 74.45 15.5 69.35 12.7 64.9 10.25 63.1 11.15 58.5 13.25 52.15 14.35 49.45 18 49.45 22.9 53.25 26.05 48.85 32.5 48.6 32.85 48.3 33.25 L 18.25 71.5 Q 13.4 77.75 19.45 82.8 24.45 88.8 30.65 83.9 L 69 53.95 Q 69.35 53.65 69.8 53.45 76.15 48.9 79.35 52.8 84.2 52.75 87.9 50.05 88.95 43.7 91.05 39.2 L 91.1 39.15 Q 91.95 37.3 89.5 32.85 M 83.85 37.3 Q 83.75 37.5 83.6 37.65 82.55 38.75 79.15 36.85 75.65 35 71.8 31.15 71.6 30.95 71.45 30.8 71.25 30.6 71.05 30.45 67.25 26.6 65.4 23.05 63.5 19.65 64.55 18.6 64.75 18.4 64.9 18.35 66.15 17.7 69.25 19.4 72.6 21.35 76.35 25.15 76.55 25.3 76.75 25.5 76.9 25.65 77.1 25.85 80.9 29.65 82.85 33 84.45 36 83.85 37.3 M 46.25 46.3 Q 46.3 42.35 49.15 39.5 52 36.65 55.95 36.6 59.9 36.65 62.75 39.5 65.55 42.3 65.6 46.25 65.6 50.25 62.75 53.1 59.9 55.95 55.9 55.95 51.9 55.9 49.1 53.1 46.25 50.25 46.25 46.3 Z"
         id="path6053" />
    </g>
    <g
       id="Layer8_0_FILL">
      <path
         fill="url(#Gradient_10)"
         stroke="none"
         d=" M 34 74.15 Q 33.75 73.2 33.45 72.25 33.15 72.3 32.9 72.5 32.2 72.95 32.05 73.75 31.9 74.55 32.3 75.25 32.45 75.75 34.75 76.75 34.4 75.45 34 74.15 M 18.65 17.45 Q 18.6 16.4 18.7 15.45 18.2 15.45 17.7 15.7 17 16.05 16.75 16.85 16.5 17.65 16.85 18.4 17.25 19.1 18.05 19.35 18.45 19.45 18.8 19.6 18.65 18.45 18.65 17.45 M 46.85 21 Q 45.3 21.3 43.85 21.25 39.75 21 35.35 20.25 L 35.4 20.25 Q 31.05 19.3 19.25 15.55 18.95 15.45 18.7 15.45 18.6 16.4 18.65 17.45 18.65 18.45 18.8 19.6 30.25 23.2 34.55 24.15 34.6 24.15 34.65 24.2 39.25 25 43.6 25.25 43.65 25.25 43.7 25.25 45.55 25.3 47.6 24.95 L 47.5 24.95 Q 48.8 24.75 50.15 25 51.3 26.05 52.35 27.2 L 52.4 27.25 Q 57.7 32.8 61.9 39.25 69.8 51.05 74.35 64.55 75.8 68.85 76.5 73.45 76.95 76.25 76.3 78.9 L 76.3 78.85 Q 76.1 79.7 75.8 80.55 75.65 80.8 75.3 81.05 74.8 81.4 74.2 81.65 72.95 82.1 71.55 82.4 69.7 82.45 67.9 82.55 67.85 82.55 67.8 82.55 64.8 82.2 61.95 81.75 60.75 81.45 59.6 81.25 58.35 80.9 57.1 80.6 57.1 80.55 57 80.55 55.75 80.2 54.5 79.85 53.4 79.5 52.35 79.1 52 78.95 51.75 78.9 49.65 78.05 47.6 77.2 46.6921875 76.7650390625 44.8 76.15 L 44.85 76.15 Q 43.05 75.45 40.3 74.55 L 40.35 74.55 Q 36.05 73.1 35.65 73.05 35.2 72.35 34.4 72.2 33.9 72.1 33.45 72.25 33.75 73.2 34 74.15 34.4 75.45 34.75 76.75 35.95 76.4 37.75 77.55 41.75 79.25 43.45 79.9 45.2 80.5 46 80.85 46.05 80.85 46.05 80.9 48.35 81.85 50.65 82.8 50.8 82.8 50.9 82.85 52.05 83.25 53.25 83.65 53.3 83.65 53.35 83.7 54.65 84.05 55.95 84.45 56 84.45 56.05 84.45 57.3 84.75 58.5 85.1 58.6 85.1 58.65 85.1 59.8 85.35 61 85.65 61.1 85.65 61.15 85.7 64.2 86.2 67.45 86.55 67.75 86.55 67.95 86.55 69.8 86.45 71.75 86.4 71.8 86.4 71.85 86.4 72.05 86.4 72.2 86.35 72.3 86.35 72.4 86.3 74.05 85.95 75.6 85.4 L 75.55 85.4 Q 76.7 85 77.65 84.3 79.15 83.2 79.55 81.85 L 79.6 81.8 Q 79.9 80.85 80.15 79.9 L 80.2 79.85 Q 81.05 76.45 80.45 72.85 79.7 67.85 78.15 63.25 73.4 49.25 65.25 37.05 60.85 30.3 55.3 24.5 53.95 23.05 52.45 21.7 L 52.4 21.65 Q 52.4 21.6 52.35 21.6 52.3 21.55 52.25 21.55 52.2 21.5 52.15 21.5 51.9 21.3 51.55 21.2 51.5 21.2 51.4 21.2 49.15 20.7 47 21 46.95 20.95 46.85 21 Z"
         id="path6056" />
      <path
         fill="#585858"
         stroke="none"
         d=" M 43.7 25.25 Q 43.65 25.25 43.6 25.25 39.25 25 34.65 24.2 34.6 24.15 34.55 24.15 30.25 23.2 18.8 19.6 19 21.65 19.6 24 L 32 67.1 Q 32.2 67.8 32.4 68.5 32.95 70.35 33.45 72.25 33.9 72.1 34.4 72.2 35.2 72.35 35.65 73.05 36.05 73.1 40.35 74.55 L 40.3 74.55 Q 43.05 75.45 44.85 76.15 L 44.8 76.15 Q 46.6921875 76.7650390625 47.6 77.2 49.65 78.05 51.75 78.9 52 78.95 52.35 79.1 53.4 79.5 54.5 79.85 55.75 80.2 57 80.55 57.1 80.55 57.1 80.6 58.35 80.9 59.6 81.25 60.75 81.45 61.95 81.75 64.8 82.2 67.8 82.55 67.85 82.55 67.9 82.55 69.7 82.45 71.55 82.4 72.95 82.1 74.2 81.65 74.8 81.4 75.3 81.05 75.65 80.8 75.8 80.55 76.1 79.7 76.3 78.85 L 76.3 78.9 Q 76.95 76.25 76.5 73.45 75.8 68.85 74.35 64.55 69.8 51.05 61.9 39.25 57.7 32.8 52.4 27.25 L 52.35 27.2 Q 51.3 26.05 50.15 25 48.8 24.75 47.5 24.95 L 47.6 24.95 Q 45.55 25.3 43.7 25.25 M 56.5 51 Q 57.75 51.25 58.65 51.9 59.55 52.5 60.1 53.55 60.6 54.55 60.6 56.1 60.6 58 59.65 59.3 58.65 60.65 56.8 60.95 L 61.3 68.45 56.6 68.45 52.9 61.35 51 61.35 51 68.45 47.1 68.45 47.1 50.75 53.95 50.75 Q 55.3 50.75 56.5 51 M 55.6 54.4 Q 55.15 54.2 54.65 54.1 54.1 54.05 53.55 54.05 L 51 54.05 51 58.05 53.3 58.05 Q 53.8 58.05 54.4 58.05 55 58 55.45 57.8 55.95 57.6 56.25 57.2 56.55 56.85 56.55 56.1 56.55 55.45 56.3 55 56 54.6 55.6 54.4 Z"
         id="path6058" />
      <path
         fill="#8F8F8F"
         stroke="none"
         d=" M 58.65 51.9 Q 57.75 51.25 56.5 51 55.3 50.75 53.95 50.75 L 47.1 50.75 47.1 68.45 51 68.45 51 61.35 52.9 61.35 56.6 68.45 61.3 68.45 56.8 60.95 Q 58.65 60.65 59.65 59.3 60.6 58 60.6 56.1 60.6 54.55 60.1 53.55 59.55 52.5 58.65 51.9 M 54.65 54.1 Q 55.15 54.2 55.6 54.4 56 54.6 56.3 55 56.55 55.45 56.55 56.1 56.55 56.85 56.25 57.2 55.95 57.6 55.45 57.8 55 58 54.4 58.05 53.8 58.05 53.3 58.05 L 51 58.05 51 54.05 53.55 54.05 Q 54.1 54.05 54.65 54.1 Z"
         id="path6060" />
      <path
         fill="#464646"
         stroke="none"
         d=" M 84.25 84.65 Q 85.9 81.5 86.15 77.9 86.45 74.95 85.95 71.6 81.6 51.6 69.8 34 65.65 27.85 62.3 23.75 59.55 20.35 56.2 17.55 54.5 16.05 52.4 15.65 50.3 15.3 48.25 15.35 46.7 15.55 45.25 15.65 44.45 15.65 43.7 15.7 43.45 15.65 43.15 15.7 39.75 15.4 36.4 14.8 32.95 14.15 29.65 12.8 26.65 11.55 23.7 10.05 L 21.1 8.65 Q 19 11.35 18.7 15.45 18.95 15.45 19.25 15.55 31.05 19.3 35.4 20.25 L 35.35 20.25 Q 39.75 21 43.85 21.25 45.3 21.3 46.85 21 46.95 20.95 47 21 49.15 20.7 51.4 21.2 51.5 21.2 51.55 21.2 51.9 21.3 52.15 21.5 52.2 21.5 52.25 21.55 52.3 21.55 52.35 21.6 52.4 21.6 52.4 21.65 L 52.45 21.7 Q 53.95 23.05 55.3 24.5 60.85 30.3 65.25 37.05 73.4 49.25 78.15 63.25 79.7 67.85 80.45 72.85 81.05 76.45 80.2 79.85 L 80.15 79.9 Q 79.9 80.85 79.6 81.8 L 79.55 81.85 Q 79.15 83.2 77.65 84.3 76.7 85 75.55 85.4 L 75.6 85.4 Q 74.05 85.95 72.4 86.3 72.3 86.35 72.2 86.35 72.05 86.4 71.85 86.4 71.8 86.4 71.75 86.4 69.8 86.45 67.95 86.55 67.75 86.55 67.45 86.55 64.2 86.2 61.15 85.7 61.1 85.65 61 85.65 59.8 85.35 58.65 85.1 58.6 85.1 58.5 85.1 57.3 84.75 56.05 84.45 56 84.45 55.95 84.45 54.65 84.05 53.35 83.7 53.3 83.65 53.25 83.65 52.05 83.25 50.9 82.85 50.8 82.8 50.65 82.8 48.35 81.85 46.05 80.9 46.05 80.85 46 80.85 45.2 80.5 43.45 79.9 41.75 79.25 37.75 77.55 35.95 76.4 34.75 76.75 34.85 76.95 34.9 77.2 35.8 80.2 37.85 82.25 38.95 83.35 40.4 84.25 40.7 84.4 41 84.55 42.15 85.2 43.35 85.75 44.9 86.5 46.5 87.1 49 87.95 51.4 88.8 51.55 88.85 51.65 88.9 57.7 90.8 62.7 91.45 67.35 92.35 72.2 91.95 75.25 91.7 78.05 90.65 82.15 88.7 84.25 84.65 Z"
         id="path6062" />
    </g>
    <g
       id="Layer7_0_FILL">
      <path
         fill="#96989D"
         stroke="none"
         d=" M 33.35 88.15 Q 33.05 93.55 38.3 94.6 43.7 95.75 50.05 95.8 56.3 95.75 61.7 94.6 66.95 93.55 66.65 88.15 L 64.85 72 Q 64.3 69.45 58.55 62.7 57.65 61.6 56.9 60.75 55.5 59.3 54.35 57.8 53.5 56.55 52.25 55.95 50.65 55.25 49.05 55.65 47.4 56 46.3 57.15 45.55 57.9 44.8 58.75 43.85 59.9 42.85 61 42.2 61.8 41.45 62.7 35.7 69.45 35.15 72 L 33.35 88.15 M 49.75 61.85 L 50.25 61.85 Q 50.65 61.95 52.05 63.8 53.55 65.65 55.25 67.55 57 69.4 59.05 72.4 L 61.1 89 Q 56.15 90.25 50.25 90.25 50.15 90.25 50 90.25 49.85 90.25 49.75 90.25 43.85 90.25 38.95 89 L 40.95 72.4 Q 43 69.4 44.75 67.55 46.45 65.65 47.95 63.8 49.35 61.95 49.75 61.85 M 14.8 49.7 L 20.7 53.45 20.7 45.85 14.8 49.7 M 66.65 11.85 Q 66.95 6.45 61.7 5.4 56.3 4.25 50.05 4.2 43.7 4.25 38.3 5.4 33.05 6.45 33.35 11.85 L 35.15 28 Q 35.7 30.55 41.45 37.3 42.2 38.2 42.85 39 43.85 40.1 44.8 41.25 45.55 42.1 46.3 42.85 47.4 44 49.05 44.35 50.65 44.75 52.25 44.05 53.5 43.45 54.35 42.2 55.5 40.7 56.9 39.25 57.65 38.4 58.55 37.3 64.3 30.55 64.85 28 L 66.65 11.85 M 49.75 9.75 Q 49.85 9.75 50 9.75 50.15 9.75 50.25 9.75 56.15 9.75 61.1 11 L 59.05 27.6 Q 57 30.6 55.25 32.45 53.55 34.35 52.05 36.2 50.65 38.05 50.25 38.15 L 49.75 38.15 Q 49.35 38.05 47.95 36.2 46.45 34.35 44.75 32.45 43 30.6 40.95 27.6 L 38.95 11 Q 43.85 9.75 49.75 9.75 M 94.6 38.3 Q 93.55 33.05 88.15 33.35 L 72 35.15 Q 69.45 35.7 62.7 41.45 61.6 42.35 60.75 43.1 59.3 44.5 57.8 45.65 56.55 46.5 55.95 47.75 55.25 49.35 55.65 50.95 56 52.6 57.15 53.7 57.9 54.45 58.75 55.2 59.9 56.15 61 57.15 61.8 57.8 62.7 58.55 69.45 64.3 72 64.85 L 88.15 66.65 Q 93.55 66.95 94.6 61.7 95.75 56.3 95.8 49.95 95.75 43.7 94.6 38.3 M 90.25 49.75 Q 90.25 49.85 90.25 50 90.25 50.15 90.25 50.25 90.25 56.15 89 61.05 L 72.4 59.05 Q 69.4 57 67.55 55.25 65.65 53.55 63.8 52.05 61.95 50.65 61.85 50.25 L 61.85 49.75 Q 61.95 49.35 63.8 47.95 65.65 46.45 67.55 44.75 69.4 43 72.4 40.95 L 89 38.9 Q 90.25 43.85 90.25 49.75 Z"
         id="path6065" />
      <path
         fill="#BCBFC4"
         stroke="none"
         d=" M 50.25 61.85 L 49.75 61.85 Q 49.35 61.95 47.95 63.8 46.45 65.65 44.75 67.55 43 69.4 40.95 72.4 L 38.95 89 Q 43.85 90.25 49.75 90.25 49.85 90.25 50 90.25 50.15 90.25 50.25 90.25 56.15 90.25 61.1 89 L 59.05 72.4 Q 57 69.4 55.25 67.55 53.55 65.65 52.05 63.8 50.65 61.95 50.25 61.85 M 54.15 79.3 L 50.3 85.2 46.55 79.3 54.15 79.3 M 50 9.75 Q 49.85 9.75 49.75 9.75 43.85 9.75 38.95 11 L 40.95 27.6 Q 43 30.6 44.75 32.45 46.45 34.35 47.95 36.2 49.35 38.05 49.75 38.15 L 50.25 38.15 Q 50.65 38.05 52.05 36.2 53.55 34.35 55.25 32.45 57 30.6 59.05 27.6 L 61.1 11 Q 56.15 9.75 50.25 9.75 50.15 9.75 50 9.75 M 46.55 20.7 L 50.3 14.8 54.15 20.7 46.55 20.7 M 90.25 50 Q 90.25 49.85 90.25 49.75 90.25 43.85 89 38.9 L 72.4 40.95 Q 69.4 43 67.55 44.75 65.65 46.45 63.8 47.95 61.95 49.35 61.85 49.75 L 61.85 50.25 Q 61.95 50.65 63.8 52.05 65.65 53.55 67.55 55.25 69.4 57 72.4 59.05 L 89 61.05 Q 90.25 56.15 90.25 50.25 90.25 50.15 90.25 50 M 79.3 53.45 L 79.3 45.85 85.2 49.7 79.3 53.45 Z"
         id="path6067" />
      <path
         fill="#54565A"
         stroke="none"
         d=" M 50.3 85.2 L 54.15 79.3 46.55 79.3 50.3 85.2 M 50.3 14.8 L 46.55 20.7 54.15 20.7 50.3 14.8 M 79.3 45.85 L 79.3 53.45 85.2 49.7 79.3 45.85 Z"
         id="path6069" />
      <path
         fill="#D6D9DE"
         stroke="none"
         d=" M 44.05 47.75 Q 43.45 46.5 42.2 45.65 40.7 44.5 39.25 43.1 38.4 42.35 37.3 41.45 30.55 35.7 28 35.15 L 11.85 33.35 Q 6.45 33.05 5.4 38.3 4.25 43.7 4.2 49.95 4.25 56.3 5.4 61.7 6.45 66.95 11.85 66.65 L 28 64.85 Q 30.55 64.3 37.3 58.55 38.2 57.8 39 57.15 40.1 56.15 41.25 55.2 42.1 54.45 42.85 53.7 44 52.6 44.35 50.95 44.75 49.35 44.05 47.75 M 27.6 40.95 Q 30.6 43 32.45 44.75 34.35 46.45 36.2 47.95 38.05 49.35 38.15 49.75 L 38.15 50.25 Q 38.05 50.65 36.2 52.05 34.35 53.55 32.45 55.25 30.6 57 27.6 59.05 L 11 61.05 Q 9.75 56.15 9.75 50.25 9.75 50.15 9.75 50 9.75 49.85 9.75 49.75 9.75 43.85 11 38.9 L 27.6 40.95 Z"
         id="path6071" />
      <path
         fill="#FFFFFF"
         stroke="none"
         d=" M 32.45 44.75 Q 30.6 43 27.6 40.95 L 11 38.9 Q 9.75 43.85 9.75 49.75 9.75 49.85 9.75 50 9.75 50.15 9.75 50.25 9.75 56.15 11 61.05 L 27.6 59.05 Q 30.6 57 32.45 55.25 34.35 53.55 36.2 52.05 38.05 50.65 38.15 50.25 L 38.15 49.75 Q 38.05 49.35 36.2 47.95 34.35 46.45 32.45 44.75 M 20.7 53.45 L 14.8 49.7 20.7 45.85 20.7 53.45 Z"
         id="path6073" />
    </g>
    <g
       id="Layer6_0_FILL">
      <path
         fill="#313131"
         stroke="none"
         d=" M 73.45 26.5 Q 63.8 16.85 50 16.85 36.25 16.85 26.55 26.5 16.85 36.2 16.85 50 16.85 63.75 26.55 73.45 36.25 83.15 50 83.15 63.8 83.15 73.45 73.45 83.15 63.75 83.15 50 83.15 36.2 73.45 26.5 M 50 24.75 Q 60.5 24.75 67.85 32.15 75.25 39.5 75.25 50 75.25 60.5 67.85 67.85 60.5 75.25 50 75.25 39.55 75.25 32.15 67.85 24.75 60.5 24.75 50 24.75 39.5 32.15 32.15 39.55 24.75 50 24.75 M 48.1 37.8 L 52.1 37.8 52.1 34.8 48.1 34.8 48.1 37.8 M 52.1 37.8 L 48.1 37.8 48.1 50.15 52.1 50.15 52.1 37.8 M 40.5 46.1 L 41.35 44.3 40.1 40.55 Q 38 42.25 36.9 44.35 35.45 47.25 35.45 50.8 35.45 56.85 39.7 61.05 L 39.65 61.05 Q 43 64.35 47.4 65.05 48.15 65.2 48.95 65.25 L 49.9 65.25 Q 50 65.25 50.1 65.25 51.4 65.25 52.6 65.05 57 64.35 60.35 61.05 L 60.3 61.05 Q 64.55 56.85 64.55 50.8 64.55 47.25 63.1 44.35 62 42.25 59.9 40.55 L 58.65 44.3 59.5 46.1 Q 60.55 48.25 60.55 50.8 60.55 55.15 57.5 58.2 55.35 60.3 52.6 61 52 61.1 51.4 61.2 L 50.1 61.25 Q 50 61.25 49.9 61.25 48.6 61.25 47.4 61 44.65 60.3 42.5 58.2 39.45 55.15 39.45 50.8 39.45 48.25 40.5 46.1 Z"
         id="path6076" />
      <path
         fill="#4F4F4F"
         stroke="none"
         d=" M 67.85 32.15 Q 60.5 24.75 50 24.75 39.55 24.75 32.15 32.15 24.75 39.5 24.75 50 24.75 60.5 32.15 67.85 39.55 75.25 50 75.25 60.5 75.25 67.85 67.85 75.25 60.5 75.25 50 75.25 39.5 67.85 32.15 M 41.35 44.3 L 40.5 46.1 Q 39.45 48.25 39.45 50.8 39.45 55.15 42.5 58.2 44.65 60.3 47.4 61 48.6 61.25 49.9 61.25 50 61.25 50.1 61.25 L 51.4 61.2 Q 52 61.1 52.6 61 55.35 60.3 57.5 58.2 60.55 55.15 60.55 50.8 60.55 48.25 59.5 46.1 L 58.65 44.3 59.9 40.55 Q 62 42.25 63.1 44.35 64.55 47.25 64.55 50.8 64.55 56.85 60.3 61.05 L 60.35 61.05 Q 57 64.35 52.6 65.05 51.4 65.25 50.1 65.25 50 65.25 49.9 65.25 L 48.95 65.25 Q 48.15 65.2 47.4 65.05 43 64.35 39.65 61.05 L 39.7 61.05 Q 35.45 56.85 35.45 50.8 35.45 47.25 36.9 44.35 38 42.25 40.1 40.55 L 41.35 44.3 M 48.1 37.8 L 48.1 34.8 52.1 34.8 52.1 37.8 52.1 50.15 48.1 50.15 48.1 37.8 Z"
         id="path6078" />
    </g>
    <g
       id="Layer5_0_FILL">
      <path
         fill="#404040"
         stroke="none"
         d=" M 91.95 52.45 Q 92.0001953125 51.2380859375 92 50 92.000390625 44.5794921875 90.8 39.65 88.14765625 28.7162109375 79.6 20.2 79.4958984375 20.0982421875 79.45 19.95 67.325390625 8.046875 50 8.05 32.5546875 8.0458984375 20.15 20.2 7.9466796875 32.5548828125 7.95 50 7.947265625 67.394921875 20.15 79.7 20.223046875 79.772265625 20.25 79.85 32.632421875 92.0029296875 50 92 67.394140625 92.0015625 79.6 79.75 79.655078125 79.68984375 79.7 79.65 L 79.75 79.6 Q 91.12890625 68.219140625 91.95 52.45 M 87.35 50 Q 87.35 51.239453125 87.25 52.45 86.466796875 66.3365234375 76.35 76.45 65.4556640625 87.3478515625 50 87.35 34.5453125 87.3474609375 23.55 76.45 12.65234375 65.4546875 12.65 50 12.65234375 34.6255859375 23.4 23.7 23.4736328125 23.62421875 23.55 23.55 34.5453125 12.65234375 50 12.65 65.4556640625 12.6515625 76.35 23.6 83.466015625 30.6810546875 85.95 39.65 87.349609375 44.544140625 87.35 50 Z"
         id="path6081" />
      <path
         fill="#D7D7D7"
         stroke="none"
         d=" M 87.25 52.45 Q 87.35 51.239453125 87.35 50 87.349609375 44.544140625 85.95 39.65 83.466015625 30.6810546875 76.35 23.6 65.4556640625 12.6515625 50 12.65 34.5453125 12.65234375 23.55 23.55 23.4736328125 23.62421875 23.4 23.7 12.65234375 34.6255859375 12.65 50 12.65234375 65.4546875 23.55 76.45 34.5453125 87.3474609375 50 87.35 65.4556640625 87.3478515625 76.35 76.45 86.466796875 66.3365234375 87.25 52.45 M 71.95 28.3 Q 76.9822265625 33.3791015625 79.15 39.65 80.8509765625 44.47265625 80.85 50 80.8501953125 51.2427734375 80.75 52.45 79.9779296875 63.6744140625 71.85 71.85 62.7947265625 80.85234375 50 80.85 37.284765625 80.8521484375 28.3 71.95 28.273828125 71.873046875 28.2 71.8 19.19765625 62.695703125 19.2 50 19.1978515625 37.2056640625 28.2 28.2 37.2056640625 19.1978515625 50 19.2 62.695703125 19.19765625 71.8 28.2 71.873046875 28.273828125 71.95 28.3 Z"
         id="path6083" />
      <path
         fill="#FFFFFF"
         stroke="none"
         d=" M 79.15 39.65 Q 76.9822265625 33.3791015625 71.95 28.3 71.873046875 28.273828125 71.8 28.2 62.695703125 19.19765625 50 19.2 37.2056640625 19.1978515625 28.2 28.2 19.1978515625 37.2056640625 19.2 50 19.19765625 62.695703125 28.2 71.8 28.273828125 71.873046875 28.3 71.95 37.284765625 80.8521484375 50 80.85 62.7947265625 80.85234375 71.85 71.85 79.9779296875 63.6744140625 80.75 52.45 80.8501953125 51.2427734375 80.85 50 80.8509765625 44.47265625 79.15 39.65 M 69.25 30.8 Q 73.241015625 34.7892578125 75.2 39.65 77.1486328125 44.4076171875 77.15 50 77.149609375 51.2451171875 77.05 52.45 76.2732421875 62.1392578125 69.25 69.25 61.2546875 77.146875 50 77.15 38.69375 77.147265625 30.8 69.25 22.8013671875 61.2548828125 22.8 50 22.801953125 38.6935546875 30.75 30.8 L 30.8 30.75 Q 38.6935546875 22.801953125 50 22.8 61.2548828125 22.8013671875 69.25 30.8 Z"
         id="path6085" />
      <path
         fill="#F5F5F5"
         stroke="none"
         d=" M 75.2 39.65 Q 73.241015625 34.7892578125 69.25 30.8 61.2548828125 22.8013671875 50 22.8 38.6935546875 22.801953125 30.8 30.75 L 30.75 30.8 Q 22.801953125 38.6935546875 22.8 50 22.8013671875 61.2548828125 30.8 69.25 38.69375 77.147265625 50 77.15 61.2546875 77.146875 69.25 69.25 76.2732421875 62.1392578125 77.05 52.45 77.149609375 51.2451171875 77.15 50 77.1486328125 44.4076171875 75.2 39.65 M 34.7 70.75 L 34.7 50.85 25 50.85 50 26.85 75 50.85 65.3 50.85 65.3 70.75 34.7 70.75 M 56.85 48.2 L 43.1 48.2 43.1 61.9 56.85 61.9 56.85 48.2 Z"
         id="path6087" />
      <path
         fill="#9A9A9A"
         stroke="none"
         d=" M 34.7 50.85 L 34.7 70.75 65.3 70.75 65.3 50.85 75 50.85 50 26.85 25 50.85 34.7 50.85 M 43.1 48.2 L 56.85 48.2 56.85 61.9 43.1 61.9 43.1 48.2 Z"
         id="path6089" />
    </g>
    <g
       id="Layer3_0_FILL">
      <path
         fill="#353535"
         stroke="none"
         d=" M 84.95 77.8 Q 83.7 50.5 84.95 23.15 84.95 17.3 79.1 17.3 L 21.9 17.3 Q 16.05 17.3 16.05 23.15 17.3 50.5 16.05 77.8 16.05 83.65 21.9 83.65 L 79.1 83.65 Q 84.95 83.65 84.95 77.8 M 54.15 26.45 L 55.4 26.45 71.55 26.45 Q 75.8 26.45 75.8 30.7 74.65 50.5 75.8 70.25 75.8 74.45 71.55 74.45 L 55.4 74.45 54.15 74.45 29.45 74.45 Q 25.2 74.45 25.2 70.25 26.35 50.5 25.2 30.7 25.2 26.45 29.45 26.45 L 54.15 26.45 Z"
         id="path6092" />
      <path
         fill="#595959"
         stroke="none"
         d=" M 55.4 26.45 L 54.15 26.45 29.45 26.45 Q 25.2 26.45 25.2 30.7 26.35 50.5 25.2 70.25 25.2 74.45 29.45 74.45 L 54.15 74.45 55.4 74.45 71.55 74.45 Q 75.8 74.45 75.8 70.25 74.65 50.5 75.8 30.7 75.8 26.45 71.55 26.45 L 55.4 26.45 M 49.7 43.85 Q 48.4 44.45 47.4 45.5 46.45 46.55 45.9 48.05 45.35 49.5 45.35 51.2 45.35 52.95 45.9 54.4 46.45 55.85 47.4 56.95 48.35 58 49.65 58.6 50.9 59.2 52.4 59.2 54.05 59.2 55.35 58.5 56.65 57.8 57.5 56.5 L 62.05 59.95 Q 60.45 62.15 58.05 63.2 55.6 64.25 53.1 64.25 50.15 64.25 47.7 63.35 45.25 62.4 43.45 60.7 41.7 59 40.7 56.6 39.7 54.2 39.7 51.2 39.7 48.25 40.7 45.85 41.7 43.4 43.45 41.7 45.25 40 47.7 39.1 50.15 38.2 53.1 38.2 54.1 38.2 55.25 38.4 56.4 38.6 57.5 39 58.6 39.4 59.6 40.1 60.65 40.8 61.45 41.85 L 57.25 45.25 Q 56.45 44.25 55.25 43.75 54.1 43.25 52.55 43.25 51 43.25 49.7 43.85 Z"
         id="path6094" />
      <path
         fill="#CDCDCD"
         stroke="none"
         d=" M 47.4 45.5 Q 48.4 44.45 49.7 43.85 51 43.25 52.55 43.25 54.1 43.25 55.25 43.75 56.45 44.25 57.25 45.25 L 61.45 41.85 Q 60.65 40.8 59.6 40.1 58.6 39.4 57.5 39 56.4 38.6 55.25 38.4 54.1 38.2 53.1 38.2 50.15 38.2 47.7 39.1 45.25 40 43.45 41.7 41.7 43.4 40.7 45.85 39.7 48.25 39.7 51.2 39.7 54.2 40.7 56.6 41.7 59 43.45 60.7 45.25 62.4 47.7 63.35 50.15 64.25 53.1 64.25 55.6 64.25 58.05 63.2 60.45 62.15 62.05 59.95 L 57.5 56.5 Q 56.65 57.8 55.35 58.5 54.05 59.2 52.4 59.2 50.9 59.2 49.65 58.6 48.35 58 47.4 56.95 46.45 55.85 45.9 54.4 45.35 52.95 45.35 51.2 45.35 49.5 45.9 48.05 46.45 46.55 47.4 45.5 Z"
         id="path6096" />
    </g>
    <g
       id="Layer2_0_FILL">
      <path
         fill="#D7D7D7"
         stroke="none"
         d=" M 84.95 77.8 Q 83.7 50.5 84.95 23.15 84.95 17.3 79.1 17.3 L 21.9 17.3 Q 16.05 17.3 16.05 23.15 17.3 50.5 16.05 77.8 16.05 83.65 21.9 83.65 L 79.1 83.65 Q 84.95 83.65 84.95 77.8 M 54.15 26.45 L 55.4 26.45 71.55 26.45 Q 75.8 26.45 75.8 30.7 74.65 50.5 75.8 70.25 75.8 74.45 71.55 74.45 L 55.4 74.45 54.15 74.45 29.45 74.45 Q 25.2 74.45 25.2 70.25 26.35 50.5 25.2 30.7 25.2 26.45 29.45 26.45 L 54.15 26.45 Z"
         id="path6099" />
      <path
         fill="#F5F5F5"
         stroke="none"
         d=" M 55.4 26.45 L 54.15 26.45 29.45 26.45 Q 25.2 26.45 25.2 30.7 26.35 50.5 25.2 70.25 25.2 74.45 29.45 74.45 L 54.15 74.45 55.4 74.45 71.55 74.45 Q 75.8 74.45 75.8 70.25 74.65 50.5 75.8 30.7 75.8 26.45 71.55 26.45 L 55.4 26.45 M 49.7 43.85 Q 48.4 44.45 47.4 45.5 46.45 46.55 45.9 48.05 45.35 49.5 45.35 51.2 45.35 52.95 45.9 54.4 46.45 55.85 47.4 56.95 48.35 58 49.65 58.6 50.9 59.2 52.4 59.2 54.05 59.2 55.35 58.5 56.65 57.8 57.5 56.5 L 62.05 59.95 Q 60.45 62.15 58.05 63.2 55.6 64.25 53.1 64.25 50.15 64.25 47.7 63.35 45.25 62.4 43.45 60.7 41.7 59 40.7 56.6 39.7 54.2 39.7 51.2 39.7 48.25 40.7 45.85 41.7 43.4 43.45 41.7 45.25 40 47.7 39.1 50.15 38.2 53.1 38.2 54.1 38.2 55.25 38.4 56.4 38.6 57.5 39 58.6 39.4 59.6 40.1 60.65 40.8 61.45 41.85 L 57.25 45.25 Q 56.45 44.25 55.25 43.75 54.1 43.25 52.55 43.25 51 43.25 49.7 43.85 Z"
         id="path6101" />
      <path
         fill="#404040"
         stroke="none"
         d=" M 47.4 45.5 Q 48.4 44.45 49.7 43.85 51 43.25 52.55 43.25 54.1 43.25 55.25 43.75 56.45 44.25 57.25 45.25 L 61.45 41.85 Q 60.65 40.8 59.6 40.1 58.6 39.4 57.5 39 56.4 38.6 55.25 38.4 54.1 38.2 53.1 38.2 50.15 38.2 47.7 39.1 45.25 40 43.45 41.7 41.7 43.4 40.7 45.85 39.7 48.25 39.7 51.2 39.7 54.2 40.7 56.6 41.7 59 43.45 60.7 45.25 62.4 47.7 63.35 50.15 64.25 53.1 64.25 55.6 64.25 58.05 63.2 60.45 62.15 62.05 59.95 L 57.5 56.5 Q 56.65 57.8 55.35 58.5 54.05 59.2 52.4 59.2 50.9 59.2 49.65 58.6 48.35 58 47.4 56.95 46.45 55.85 45.9 54.4 45.35 52.95 45.35 51.2 45.35 49.5 45.9 48.05 46.45 46.55 47.4 45.5 Z"
         id="path6103" />
    </g>
    <g
       id="Layer1_0_FILL">
      <path
         fill="#4F4F4F"
         stroke="none"
         d=" M 88.5 69 Q 87.0533203125 63.709375 85.85 58.5 82.85078125 45.3671875 81.45 32.75 80.7359375 26.1544921875 80.45 19.7 72.8 15.15 66 15.15 L 16.85 28.6 Q 11.95 30.1 11.1 34.35 11.508984375 45.230078125 14.25 53.5 15.6 57.8 18 61.75 20.2 65.25 23.15 68.25 25.05 70.15 27.15 71.9 30.3 74.45 33.9 76.3 37.1 78.05 40.5 79.5 43.6 80.85 46.85 82 50.4 83.05 54 83.3 72.195703125 85.191796875 84.9 78.4 89 75 88.5 69 M 62.8 23.8 Q 63.4953125 23.05390625 64.5 23 65.55546875 22.9509765625 66.3 23.65 67.0951171875 24.345703125 67.15 25.35 67.3361328125 29.0556640625 67.7 32.75 69.10546875 45.541015625 73 58.5 74.7404296875 64.3330078125 77 70.2 73.4314453125 64.330078125 70.7 58.5 64.6712890625 45.5259765625 62.85 32.75 62.33125 29.1796875 62.15 25.6 62.1017578125 24.594140625 62.8 23.8 M 52.85 31.7 Q 53.8 32.1 54.35 33.05 54.85 33.95 54.85 35.6 54.85 37.65 53.9 39.3 52.85 41.05 50.9 41.9 L 55.6 48.55 50.7 49.95 46.8 43.35 44.85 43.95 44.85 51.5 40.75 52.55 40.75 33.7 47.95 31.8 Q 49.3 31.4 50.6 31.35 51.9 31.3 52.85 31.7 M 24.9 37.8 L 37.4 34.45 37.4 38.25 29.35 52 37.8 49.7 37.8 53.65 24.75 57.15 24.75 53.2 33 39.4 24.9 41.6 24.9 37.8 M 50.4 35.7 Q 50.05 35.3 49.65 35.2 49.15 35.15 48.65 35.15 48.1 35.25 47.5 35.4 L 44.85 36.15 44.85 40.4 47.25 39.8 Q 47.75 39.65 48.35 39.45 49 39.25 49.5 38.9 50 38.5 50.35 38.05 50.65 37.55 50.65 36.75 50.65 36.05 50.4 35.7 Z"
         id="path6106" />
      <path
         fill="#9A9A9A"
         stroke="none"
         d=" M 37.4 34.45 L 24.9 37.8 24.9 41.6 33 39.4 24.75 53.2 24.75 57.15 37.8 53.65 37.8 49.7 29.35 52 37.4 38.25 37.4 34.45 M 54.35 33.05 Q 53.8 32.1 52.85 31.7 51.9 31.3 50.6 31.35 49.3 31.4 47.95 31.8 L 40.75 33.7 40.75 52.55 44.85 51.5 44.85 43.95 46.8 43.35 50.7 49.95 55.6 48.55 50.9 41.9 Q 52.85 41.05 53.9 39.3 54.85 37.65 54.85 35.6 54.85 33.95 54.35 33.05 M 49.65 35.2 Q 50.05 35.3 50.4 35.7 50.65 36.05 50.65 36.75 50.65 37.55 50.35 38.05 50 38.5 49.5 38.9 49 39.25 48.35 39.45 47.75 39.65 47.25 39.8 L 44.85 40.4 44.85 36.15 47.5 35.4 Q 48.1 35.25 48.65 35.15 49.15 35.15 49.65 35.2 Z"
         id="path6108" />
      <path
         fill="#626262"
         stroke="none"
         d=" M 64.5 23 Q 63.4953125 23.05390625 62.8 23.8 62.1017578125 24.594140625 62.15 25.6 62.33125 29.1796875 62.85 32.75 64.6712890625 45.5259765625 70.7 58.5 73.4314453125 64.330078125 77 70.2 74.7404296875 64.3330078125 73 58.5 69.10546875 45.541015625 67.7 32.75 67.3361328125 29.0556640625 67.15 25.35 67.0951171875 24.345703125 66.3 23.65 65.55546875 22.9509765625 64.5 23 Z"
         id="path6110" />
    </g>
    <path
       id="Layer8_0_1_STROKES"
       stroke="#2A2A2A"
       stroke-width="5"
       stroke-linejoin="round"
       stroke-linecap="round"
       fill="none"
       d=" M 18.7 15.45 Q 19 11.35 21.1 8.65 L 23.7 10.05 Q 26.65 11.55 29.65 12.8 32.95 14.15 36.4 14.8 39.75 15.4 43.15 15.7 43.45 15.65 43.7 15.7 44.45 15.65 45.25 15.65 46.7 15.55 48.25 15.35 50.3 15.3 52.4 15.65 54.5 16.05 56.2 17.55 59.55 20.35 62.3 23.75 65.65 27.85 69.8 34 81.6 51.6 85.95 71.6 86.45 74.95 86.15 77.9 85.9 81.5 84.25 84.65 82.15 88.7 78.05 90.65 75.25 91.7 72.2 91.95 67.35 92.35 62.7 91.45 57.7 90.8 51.65 88.9 51.55 88.85 51.4 88.8 49 87.95 46.5 87.1 44.9 86.5 43.35 85.75 42.15 85.2 41 84.55 40.7 84.4 40.4 84.25 38.95 83.35 37.85 82.25 35.8 80.2 34.9 77.2 34.85 76.95 34.75 76.75 M 33.45 72.25 Q 32.95 70.35 32.4 68.5 32.2 67.8 32 67.1 L 19.6 24 Q 19 21.65 18.8 19.6 M 34.75 76.75 Q 34.4 75.45 34 74.15 33.75 73.2 33.45 72.25 M 18.8 19.6 Q 18.65 18.45 18.65 17.45 18.6 16.4 18.7 15.45" />
    <path
       id="Layer7_0_1_STROKES"
       stroke="#434345"
       stroke-width="2"
       stroke-linejoin="round"
       stroke-linecap="round"
       fill="none"
       d=" M 88.15 33.35 Q 93.55 33.05 94.6 38.3 95.75 43.7 95.8 49.95 95.75 56.3 94.6 61.7 93.55 66.95 88.15 66.65 L 72 64.85 Q 69.45 64.3 62.7 58.55 61.8 57.8 61 57.15 59.9 56.15 58.75 55.2 57.9 54.45 57.15 53.7 56 52.6 55.65 50.95 55.25 49.35 55.95 47.75 56.55 46.5 57.8 45.65 59.3 44.5 60.75 43.1 61.6 42.35 62.7 41.45 69.45 35.7 72 35.15 L 88.15 33.35 Z M 66.65 11.85 Q 66.95 6.45 61.7 5.4 56.3 4.25 50.05 4.2 43.7 4.25 38.3 5.4 33.05 6.45 33.35 11.85 L 35.15 28 Q 35.7 30.55 41.45 37.3 42.2 38.2 42.85 39 43.85 40.1 44.8 41.25 45.55 42.1 46.3 42.85 47.4 44 49.05 44.35 50.65 44.75 52.25 44.05 53.5 43.45 54.35 42.2 55.5 40.7 56.9 39.25 57.65 38.4 58.55 37.3 64.3 30.55 64.85 28 L 66.65 11.85 Z M 66.65 88.15 Q 66.95 93.55 61.7 94.6 56.3 95.75 50.05 95.8 43.7 95.75 38.3 94.6 33.05 93.55 33.35 88.15 L 35.15 72 Q 35.7 69.45 41.45 62.7 42.2 61.8 42.85 61 43.85 59.9 44.8 58.75 45.55 57.9 46.3 57.15 47.4 56 49.05 55.65 50.65 55.25 52.25 55.95 53.5 56.55 54.35 57.8 55.5 59.3 56.9 60.75 57.65 61.6 58.55 62.7 64.3 69.45 64.85 72 L 66.65 88.15 Z" />
    <path
       id="Layer7_0_2_STROKES"
       stroke="#E3E7ED"
       stroke-width="4"
       stroke-linejoin="round"
       stroke-linecap="round"
       fill="none"
       d=" M 61.85 50.25 Q 61.95 50.65 63.8 52.05 65.65 53.55 67.55 55.25 69.4 57 72.4 59.05 L 89 61.05 Q 90.25 56.15 90.25 50.25 90.25 50.15 90.25 50 90.25 49.85 90.25 49.75 90.25 43.85 89 38.9 L 72.4 40.95 Q 69.4 43 67.55 44.75 65.65 46.45 63.8 47.95 61.95 49.35 61.85 49.75 M 49.75 38.15 Q 49.35 38.05 47.95 36.2 46.45 34.35 44.75 32.45 43 30.6 40.95 27.6 L 38.95 11 Q 43.85 9.75 49.75 9.75 49.85 9.75 50 9.75 50.15 9.75 50.25 9.75 56.15 9.75 61.1 11 L 59.05 27.6 Q 57 30.6 55.25 32.45 53.55 34.35 52.05 36.2 50.65 38.05 50.25 38.15 M 49.75 61.85 Q 49.35 61.95 47.95 63.8 46.45 65.65 44.75 67.55 43 69.4 40.95 72.4 L 38.95 89 Q 43.85 90.25 49.75 90.25 49.85 90.25 50 90.25 50.15 90.25 50.25 90.25 56.15 90.25 61.1 89 L 59.05 72.4 Q 57 69.4 55.25 67.55 53.55 65.65 52.05 63.8 50.65 61.95 50.25 61.85" />
    <path
       id="Layer7_0_3_STROKES"
       stroke="#FFFFFF"
       stroke-width="4"
       stroke-linejoin="round"
       stroke-linecap="round"
       fill="none"
       d=" M 38.15 50.25 Q 38.05 50.65 36.2 52.05 34.35 53.55 32.45 55.25 30.6 57 27.6 59.05 L 11 61.05 Q 9.75 56.15 9.75 50.25 9.75 50.15 9.75 50 9.75 49.85 9.75 49.75 9.75 43.85 11 38.9 L 27.6 40.95 Q 30.6 43 32.45 44.75 34.35 46.45 36.2 47.95 38.05 49.35 38.15 49.75" />
    <path
       id="Layer7_0_4_STROKES"
       stroke="#BCBFC4"
       stroke-width="2"
       stroke-linejoin="round"
       stroke-linecap="round"
       fill="none"
       d=" M 28 64.85 Q 30.55 64.3 37.3 58.55 38.2 57.8 39 57.15 40.1 56.15 41.25 55.2 42.1 54.45 42.85 53.7 44 52.6 44.35 50.95 44.75 49.35 44.05 47.75 43.45 46.5 42.2 45.65 40.7 44.5 39.25 43.1 38.4 42.35 37.3 41.45 30.55 35.7 28 35.15 L 11.85 33.35 Q 6.45 33.05 5.4 38.3 4.25 43.7 4.2 49.95 4.25 56.3 5.4 61.7 6.45 66.95 11.85 66.65 L 28 64.85 Z" />
    <path
       id="Layer6_0_1_STROKES"
       stroke="#1B1B1B"
       stroke-width="5"
       stroke-linejoin="round"
       stroke-linecap="round"
       fill="none"
       d=" M 50 16.85 Q 63.8 16.85 73.45 26.5 83.15 36.2 83.15 50 83.15 63.75 73.45 73.45 63.8 83.15 50 83.15 36.25 83.15 26.55 73.45 16.85 63.75 16.85 50 16.85 36.2 26.55 26.5 36.25 16.85 50 16.85 Z" />
    <path
       id="Layer6_0_2_STROKES"
       stroke="#626262"
       stroke-width="4"
       stroke-linejoin="round"
       stroke-linecap="round"
       fill="none"
       d=" M 50 24.75 Q 60.5 24.75 67.85 32.15 75.25 39.5 75.25 50 75.25 60.5 67.85 67.85 60.5 75.25 50 75.25 39.55 75.25 32.15 67.85 24.75 60.5 24.75 50 24.75 39.5 32.15 32.15 39.55 24.75 50 24.75 Z" />
    <path
       id="Layer6_0_3_STROKES"
       stroke="#313131"
       stroke-width="3"
       stroke-linejoin="round"
       stroke-linecap="square"
       fill="none"
       d=" M 41.35 44.3 L 40.5 46.1 Q 39.45 48.25 39.45 50.8 39.45 55.15 42.5 58.2 44.65 60.3 47.4 61 48.6 61.25 49.9 61.25 50 61.25 50.1 61.25 L 51.4 61.2 Q 52 61.1 52.6 61 55.35 60.3 57.5 58.2 60.55 55.15 60.55 50.8 60.55 48.25 59.5 46.1 L 58.65 44.3 59.9 40.55 Q 62 42.25 63.1 44.35 64.55 47.25 64.55 50.8 64.55 56.85 60.3 61.05 L 60.35 61.05 Q 57 64.35 52.6 65.05 51.4 65.25 50.1 65.25 50 65.25 49.9 65.25 L 48.95 65.25 Q 48.15 65.2 47.4 65.05 43 64.35 39.65 61.05 L 39.7 61.05 Q 35.45 56.85 35.45 50.8 35.45 47.25 36.9 44.35 38 42.25 40.1 40.55 L 41.35 44.3 Z M 52.1 37.8 L 48.1 37.8 48.1 50.15 52.1 50.15 52.1 37.8 52.1 34.8 48.1 34.8 48.1 37.8" />
    <path
       id="Layer3_0_1_STROKES"
       stroke="#1D1D1D"
       stroke-width="5"
       stroke-linejoin="round"
       stroke-linecap="round"
       fill="none"
       d=" M 84.95 23.15 Q 83.7 50.5 84.95 77.8 84.95 83.65 79.1 83.65 L 21.9 83.65 Q 16.05 83.65 16.05 77.8 17.3 50.5 16.05 23.15 16.05 17.3 21.9 17.3 L 79.1 17.3 Q 84.95 17.3 84.95 23.15 Z" />
    <path
       id="Layer3_0_2_STROKES"
       stroke="#696969"
       stroke-width="4"
       stroke-linejoin="round"
       stroke-linecap="round"
       fill="none"
       d=" M 54.15 26.45 L 29.45 26.45 Q 25.2 26.45 25.2 30.7 26.35 50.5 25.2 70.25 25.2 74.45 29.45 74.45 L 54.15 74.45 M 55.4 74.45 L 71.55 74.45 Q 75.8 74.45 75.8 70.25 74.65 50.5 75.8 30.7 75.8 26.45 71.55 26.45 L 55.4 26.45" />
    <path
       id="Layer2_0_1_STROKES"
       stroke="#404040"
       stroke-width="5"
       stroke-linejoin="round"
       stroke-linecap="round"
       fill="none"
       d=" M 84.95 23.15 Q 83.7 50.5 84.95 77.8 84.95 83.65 79.1 83.65 L 21.9 83.65 Q 16.05 83.65 16.05 77.8 17.3 50.5 16.05 23.15 16.05 17.3 21.9 17.3 L 79.1 17.3 Q 84.95 17.3 84.95 23.15 Z" />
    <path
       id="Layer2_0_2_STROKES"
       stroke="#FFFFFF"
       stroke-width="4"
       stroke-linejoin="round"
       stroke-linecap="round"
       fill="none"
       d=" M 54.15 26.45 L 29.45 26.45 Q 25.2 26.45 25.2 30.7 26.35 50.5 25.2 70.25 25.2 74.45 29.45 74.45 L 54.15 74.45 M 55.4 74.45 L 71.55 74.45 Q 75.8 74.45 75.8 70.25 74.65 50.5 75.8 30.7 75.8 26.45 71.55 26.45 L 55.4 26.45" />
    <path
       id="Layer1_0_1_STROKES"
       stroke="#1B1B1B"
       stroke-width="5"
       stroke-linejoin="round"
       stroke-linecap="round"
       fill="none"
       d=" M 88.5 69 Q 89 75 84.9 78.4 72.195703125 85.191796875 54 83.3 50.4 83.05 46.85 82 43.6 80.85 40.5 79.5 37.1 78.05 33.9 76.3 30.3 74.45 27.15 71.9 25.05 70.15 23.15 68.25 20.2 65.25 18 61.75 15.6 57.8 14.25 53.5 11.508984375 45.230078125 11.1 34.35 11.95 30.1 16.85 28.6 L 66 15.15 Q 72.8 15.15 80.45 19.7 80.7359375 26.1544921875 81.45 32.75 82.85078125 45.3671875 85.85 58.5 87.0533203125 63.709375 88.5 69 Z" />
  </defs>
  <g
     id="g6130"
     style="display:none">
    <use
       xlink:href="#Layer21_0_FILL"
       id="use6128" />
  </g>
  <g
     transform="matrix(0.99995422,0.00799561,-0.00799561,0.99995422,49.1,56.55)"
     id="g6136"
     style="display:none">
    <g
       id="g6134">
      <use
         xlink:href="#Finger_Front_0_Layer1_0_FILL"
         id="use6132" />
    </g>
  </g>
  <g
     transform="matrix(0.97459412,0.22387695,-0.22387695,0.97459412,19.7,54.95)"
     id="g6142"
     style="display:none">
    <g
       id="g6140">
      <use
         xlink:href="#Finger_Front_0_Layer1_0_FILL"
         id="use6138" />
    </g>
  </g>
  <g
     id="g6146"
     style="display:none">
    <use
       xlink:href="#Layer9_0_FILL"
       id="use6144" />
  </g>
  <g
     id="g6152"
     style="display:none">
    <use
       xlink:href="#Layer8_0_FILL"
       id="use6148" />
    <use
       xlink:href="#Layer8_0_1_STROKES"
       id="use6150" />
  </g>
  <g
     id="g6164"
     style="display:none">
    <use
       xlink:href="#Layer7_0_FILL"
       id="use6154" />
    <use
       xlink:href="#Layer7_0_1_STROKES"
       id="use6156" />
    <use
       xlink:href="#Layer7_0_2_STROKES"
       id="use6158" />
    <use
       xlink:href="#Layer7_0_3_STROKES"
       id="use6160" />
    <use
       xlink:href="#Layer7_0_4_STROKES"
       id="use6162" />
  </g>
  <g
     id="g6174"
     style="display:none">
    <use
       xlink:href="#Layer6_0_FILL"
       id="use6166" />
    <use
       xlink:href="#Layer6_0_1_STROKES"
       id="use6168" />
    <use
       xlink:href="#Layer6_0_2_STROKES"
       id="use6170" />
    <use
       xlink:href="#Layer6_0_3_STROKES"
       id="use6172" />
  </g>
  <g
     id="g6178"
     style="display:none">
    <use
       xlink:href="#Layer5_0_FILL"
       id="use6176" />
  </g>
  <g
     transform="matrix( 1, 0, 0, 1, 0,0) "
     id="g6186">
    <use
       xlink:href="#Layer3_0_FILL"
       id="use6180" />
    <use
       xlink:href="#Layer3_0_1_STROKES"
       id="use6182" />
    <use
       xlink:href="#Layer3_0_2_STROKES"
       id="use6184" />
  </g>
  <g
     id="g6194"
     style="display:none">
    <use
       xlink:href="#Layer2_0_FILL"
       id="use6188" />
    <use
       xlink:href="#Layer2_0_1_STROKES"
       id="use6190" />
    <use
       xlink:href="#Layer2_0_2_STROKES"
       id="use6192" />
  </g>
  <g
     id="g6200"
     style="display:none">
    <use
       xlink:href="#Layer1_0_FILL"
       id="use6196" />
    <use
       xlink:href="#Layer1_0_1_STROKES"
       id="use6198" />
  </g>
</svg>
