<?xml version="1.0" encoding="UTF-8" standalone="no"?>
<svg
   version="1.1"
   preserveAspectRatio="none"
   x="0px"
   y="0px"
   width="100px"
   height="100px"
   viewBox="0 0 100 100"
   id="svg486"
   sodipodi:docname="Vector Source0036.svg"
   inkscape:version="1.2.1 (9c6d41e410, 2022-07-14)"
   xmlns:inkscape="http://www.inkscape.org/namespaces/inkscape"
   xmlns:sodipodi="http://sodipodi.sourceforge.net/DTD/sodipodi-0.dtd"
   xmlns:xlink="http://www.w3.org/1999/xlink"
   xmlns="http://www.w3.org/2000/svg"
   xmlns:svg="http://www.w3.org/2000/svg">
  <sodipodi:namedview
     id="namedview488"
     pagecolor="#ffffff"
     bordercolor="#000000"
     borderopacity="0.25"
     inkscape:showpageshadow="2"
     inkscape:pageopacity="0.0"
     inkscape:pagecheckerboard="0"
     inkscape:deskcolor="#d1d1d1"
     showgrid="false"
     inkscape:zoom="10.27"
     inkscape:cx="42.55112"
     inkscape:cy="50"
     inkscape:window-width="2400"
     inkscape:window-height="1261"
     inkscape:window-x="5591"
     inkscape:window-y="431"
     inkscape:window-maximized="1"
     inkscape:current-layer="svg486" />
  <defs
     id="defs468">
    <g
       id="Layer3_0_FILL">
      <path
         fill="#353535"
         stroke="none"
         d=" M 84.95 77.8 Q 83.7 50.5 84.95 23.15 84.95 17.3 79.1 17.3 L 21.9 17.3 Q 16.05 17.3 16.05 23.15 17.3 50.5 16.05 77.8 16.05 83.65 21.9 83.65 L 79.1 83.65 Q 84.95 83.65 84.95 77.8 M 54.15 26.45 L 55.4 26.45 71.55 26.45 Q 75.8 26.45 75.8 30.7 74.65 50.5 75.8 70.25 75.8 74.45 71.55 74.45 L 55.4 74.45 54.15 74.45 29.45 74.45 Q 25.2 74.45 25.2 70.25 26.35 50.5 25.2 30.7 25.2 26.45 29.45 26.45 L 54.15 26.45 Z"
         id="path450" />
      <path
         fill="#595959"
         stroke="none"
         d=" M 55.4 26.45 L 54.15 26.45 29.45 26.45 Q 25.2 26.45 25.2 30.7 26.35 50.5 25.2 70.25 25.2 74.45 29.45 74.45 L 54.15 74.45 55.4 74.45 71.55 74.45 Q 75.8 74.45 75.8 70.25 74.65 50.5 75.8 30.7 75.8 26.45 71.55 26.45 L 55.4 26.45 M 46.95 39 Q 48.65 38.4 50.6 38.4 52.5 38.4 54.2 39 55.9 39.6 57.15 40.75 58.4 41.85 59.1 43.4 59.8 44.95 59.8 46.9 59.8 48.25 59.6 49.35 59.3 50.45 58.95 51.4 58.5 52.4 58 53.3 57.45 54.2 56.85 55.1 L 51.45 63.6 45 63.6 50.85 54.75 Q 50.4 54.85 50 54.9 49.55 55 49.1 55 47.35 55 45.95 54.35 44.5 53.7 43.5 52.65 42.45 51.55 41.9 50.05 41.35 48.6 41.35 46.9 41.35 44.95 42.05 43.4 42.8 41.85 44.05 40.75 45.25 39.6 46.95 39 M 50.6 43.25 Q 48.8 43.25 47.7 44.35 46.6 45.45 46.6 47.15 46.6 48.8 47.7 49.9 48.8 51 50.6 51 52.35 51 53.45 49.9 54.55 48.8 54.55 47.15 54.55 45.45 53.45 44.35 52.35 43.25 50.6 43.25 Z"
         id="path452" />
      <path
         fill="#CDCDCD"
         stroke="none"
         d=" M 50.6 38.4 Q 48.65 38.4 46.95 39 45.25 39.6 44.05 40.75 42.8 41.85 42.05 43.4 41.35 44.95 41.35 46.9 41.35 48.6 41.9 50.05 42.45 51.55 43.5 52.65 44.5 53.7 45.95 54.35 47.35 55 49.1 55 49.55 55 50 54.9 50.4 54.85 50.85 54.75 L 45 63.6 51.45 63.6 56.85 55.1 Q 57.45 54.2 58 53.3 58.5 52.4 58.95 51.4 59.3 50.45 59.6 49.35 59.8 48.25 59.8 46.9 59.8 44.95 59.1 43.4 58.4 41.85 57.15 40.75 55.9 39.6 54.2 39 52.5 38.4 50.6 38.4 M 47.7 44.35 Q 48.8 43.25 50.6 43.25 52.35 43.25 53.45 44.35 54.55 45.45 54.55 47.15 54.55 48.8 53.45 49.9 52.35 51 50.6 51 48.8 51 47.7 49.9 46.6 48.8 46.6 47.15 46.6 45.45 47.7 44.35 Z"
         id="path454" />
    </g>
    <g
       id="Layer2_0_FILL">
      <path
         fill="#D7D7D7"
         stroke="none"
         d=" M 84.95 77.8 Q 83.7 50.5 84.95 23.15 84.95 17.3 79.1 17.3 L 21.9 17.3 Q 16.05 17.3 16.05 23.15 17.3 50.5 16.05 77.8 16.05 83.65 21.9 83.65 L 79.1 83.65 Q 84.95 83.65 84.95 77.8 M 54.15 26.45 L 55.4 26.45 71.55 26.45 Q 75.8 26.45 75.8 30.7 74.65 50.5 75.8 70.25 75.8 74.45 71.55 74.45 L 55.4 74.45 54.15 74.45 29.45 74.45 Q 25.2 74.45 25.2 70.25 26.35 50.5 25.2 30.7 25.2 26.45 29.45 26.45 L 54.15 26.45 Z"
         id="path457" />
      <path
         fill="#F5F5F5"
         stroke="none"
         d=" M 55.4 26.45 L 54.15 26.45 29.45 26.45 Q 25.2 26.45 25.2 30.7 26.35 50.5 25.2 70.25 25.2 74.45 29.45 74.45 L 54.15 74.45 55.4 74.45 71.55 74.45 Q 75.8 74.45 75.8 70.25 74.65 50.5 75.8 30.7 75.8 26.45 71.55 26.45 L 55.4 26.45 M 46.95 39 Q 48.65 38.4 50.6 38.4 52.5 38.4 54.2 39 55.9 39.6 57.15 40.75 58.4 41.85 59.1 43.4 59.8 44.95 59.8 46.9 59.8 48.25 59.6 49.35 59.3 50.45 58.95 51.4 58.5 52.4 58 53.3 57.45 54.2 56.85 55.1 L 51.45 63.6 45 63.6 50.85 54.75 Q 50.4 54.85 50 54.9 49.55 55 49.1 55 47.35 55 45.95 54.35 44.5 53.7 43.5 52.65 42.45 51.55 41.9 50.05 41.35 48.6 41.35 46.9 41.35 44.95 42.05 43.4 42.8 41.85 44.05 40.75 45.25 39.6 46.95 39 M 50.6 43.25 Q 48.8 43.25 47.7 44.35 46.6 45.45 46.6 47.15 46.6 48.8 47.7 49.9 48.8 51 50.6 51 52.35 51 53.45 49.9 54.55 48.8 54.55 47.15 54.55 45.45 53.45 44.35 52.35 43.25 50.6 43.25 Z"
         id="path459" />
      <path
         fill="#404040"
         stroke="none"
         d=" M 50.6 38.4 Q 48.65 38.4 46.95 39 45.25 39.6 44.05 40.75 42.8 41.85 42.05 43.4 41.35 44.95 41.35 46.9 41.35 48.6 41.9 50.05 42.45 51.55 43.5 52.65 44.5 53.7 45.95 54.35 47.35 55 49.1 55 49.55 55 50 54.9 50.4 54.85 50.85 54.75 L 45 63.6 51.45 63.6 56.85 55.1 Q 57.45 54.2 58 53.3 58.5 52.4 58.95 51.4 59.3 50.45 59.6 49.35 59.8 48.25 59.8 46.9 59.8 44.95 59.1 43.4 58.4 41.85 57.15 40.75 55.9 39.6 54.2 39 52.5 38.4 50.6 38.4 M 47.7 44.35 Q 48.8 43.25 50.6 43.25 52.35 43.25 53.45 44.35 54.55 45.45 54.55 47.15 54.55 48.8 53.45 49.9 52.35 51 50.6 51 48.8 51 47.7 49.9 46.6 48.8 46.6 47.15 46.6 45.45 47.7 44.35 Z"
         id="path461" />
    </g>
    <path
       id="Layer3_0_1_STROKES"
       stroke="#1D1D1D"
       stroke-width="5"
       stroke-linejoin="round"
       stroke-linecap="round"
       fill="none"
       d=" M 84.95 23.15 Q 83.7 50.5 84.95 77.8 84.95 83.65 79.1 83.65 L 21.9 83.65 Q 16.05 83.65 16.05 77.8 17.3 50.5 16.05 23.15 16.05 17.3 21.9 17.3 L 79.1 17.3 Q 84.95 17.3 84.95 23.15 Z" />
    <path
       id="Layer3_0_2_STROKES"
       stroke="#696969"
       stroke-width="4"
       stroke-linejoin="round"
       stroke-linecap="round"
       fill="none"
       d=" M 54.15 26.45 L 29.45 26.45 Q 25.2 26.45 25.2 30.7 26.35 50.5 25.2 70.25 25.2 74.45 29.45 74.45 L 54.15 74.45 M 55.4 74.45 L 71.55 74.45 Q 75.8 74.45 75.8 70.25 74.65 50.5 75.8 30.7 75.8 26.45 71.55 26.45 L 55.4 26.45" />
    <path
       id="Layer2_0_1_STROKES"
       stroke="#404040"
       stroke-width="5"
       stroke-linejoin="round"
       stroke-linecap="round"
       fill="none"
       d=" M 84.95 23.15 Q 83.7 50.5 84.95 77.8 84.95 83.65 79.1 83.65 L 21.9 83.65 Q 16.05 83.65 16.05 77.8 17.3 50.5 16.05 23.15 16.05 17.3 21.9 17.3 L 79.1 17.3 Q 84.95 17.3 84.95 23.15 Z" />
    <path
       id="Layer2_0_2_STROKES"
       stroke="#FFFFFF"
       stroke-width="4"
       stroke-linejoin="round"
       stroke-linecap="round"
       fill="none"
       d=" M 54.15 26.45 L 29.45 26.45 Q 25.2 26.45 25.2 30.7 26.35 50.5 25.2 70.25 25.2 74.45 29.45 74.45 L 54.15 74.45 M 55.4 74.45 L 71.55 74.45 Q 75.8 74.45 75.8 70.25 74.65 50.5 75.8 30.7 75.8 26.45 71.55 26.45 L 55.4 26.45" />
  </defs>
  <g
     transform="matrix( 1, 0, 0, 1, 0,0) "
     id="g476">
    <use
       xlink:href="#Layer3_0_FILL"
       id="use470" />
    <use
       xlink:href="#Layer3_0_1_STROKES"
       id="use472" />
    <use
       xlink:href="#Layer3_0_2_STROKES"
       id="use474" />
  </g>
  <g
     id="g484"
     style="display:none">
    <use
       xlink:href="#Layer2_0_FILL"
       id="use478" />
    <use
       xlink:href="#Layer2_0_1_STROKES"
       id="use480" />
    <use
       xlink:href="#Layer2_0_2_STROKES"
       id="use482" />
  </g>
</svg>
