<?xml version="1.0" encoding="UTF-8" standalone="no"?>
<svg
   version="1.1"
   preserveAspectRatio="none"
   x="0px"
   y="0px"
   width="100px"
   height="100px"
   viewBox="0 0 100 100"
   id="svg3401"
   sodipodi:docname="Vector Source0062.svg"
   inkscape:version="1.2.1 (9c6d41e410, 2022-07-14)"
   xmlns:inkscape="http://www.inkscape.org/namespaces/inkscape"
   xmlns:sodipodi="http://sodipodi.sourceforge.net/DTD/sodipodi-0.dtd"
   xmlns:xlink="http://www.w3.org/1999/xlink"
   xmlns="http://www.w3.org/2000/svg"
   xmlns:svg="http://www.w3.org/2000/svg">
  <sodipodi:namedview
     id="namedview3403"
     pagecolor="#ffffff"
     bordercolor="#000000"
     borderopacity="0.25"
     inkscape:showpageshadow="2"
     inkscape:pageopacity="0.0"
     inkscape:pagecheckerboard="0"
     inkscape:deskcolor="#d1d1d1"
     showgrid="false"
     inkscape:zoom="10.27"
     inkscape:cx="42.55112"
     inkscape:cy="50"
     inkscape:window-width="2400"
     inkscape:window-height="1261"
     inkscape:window-x="5591"
     inkscape:window-y="431"
     inkscape:window-maximized="1"
     inkscape:current-layer="svg3401" />
  <defs
     id="defs3383">
    <g
       id="Layer3_0_FILL">
      <path
         fill="#353535"
         stroke="none"
         d=" M 84.95 77.8 Q 83.7 50.5 84.95 23.15 84.95 17.3 79.1 17.3 L 21.9 17.3 Q 16.05 17.3 16.05 23.15 17.3 50.5 16.05 77.8 16.05 83.65 21.9 83.65 L 79.1 83.65 Q 84.95 83.65 84.95 77.8 M 54.15 26.45 L 55.4 26.45 71.55 26.45 Q 75.8 26.45 75.8 30.7 74.65 50.5 75.8 70.25 75.8 74.45 71.55 74.45 L 55.4 74.45 54.15 74.45 29.45 74.45 Q 25.2 74.45 25.2 70.25 26.35 50.5 25.2 30.7 25.2 26.45 29.45 26.45 L 54.15 26.45 Z"
         id="path3365" />
      <path
         fill="#595959"
         stroke="none"
         d=" M 55.4 26.45 L 54.15 26.45 29.45 26.45 Q 25.2 26.45 25.2 30.7 26.35 50.5 25.2 70.25 25.2 74.45 29.45 74.45 L 54.15 74.45 55.4 74.45 71.55 74.45 Q 75.8 74.45 75.8 70.25 74.65 50.5 75.8 30.7 75.8 26.45 71.55 26.45 L 55.4 26.45 M 45.4 48.3 Q 45.3 47.55 45.3 46.7 L 45.3 42 47.95 42 47.95 46.2 Q 47.95 46.55 47.95 46.95 48 47.35 48.1 47.7 48.25 48 48.5 48.25 48.8 48.45 49.3 48.45 49.8 48.45 50.15 48.25 50.45 48.05 50.6 47.75 50.8 47.45 50.85 47.05 50.9 46.7 50.9 46.25 L 50.9 42 53.55 42 53.55 50.55 51 50.55 51 49.4 50.95 49.4 Q 50.8 49.65 50.6 49.9 50.4 50.15 50.05 50.35 49.75 50.5 49.35 50.65 48.95 50.75 48.45 50.75 47.45 50.75 46.85 50.45 46.2 50.15 45.85 49.6 45.5 49.05 45.4 48.3 M 57.95 42 L 57.95 43.15 Q 58.1 42.9 58.3 42.65 58.55 42.4 58.85 42.2 59.2 42 59.6 41.9 60 41.75 60.45 41.75 61.35 41.75 62.05 42.15 62.75 42.5 63.1 43.3 63.55 42.5 64.2 42.1 64.85 41.75 65.85 41.75 66.7 41.75 67.3 42.05 67.85 42.35 68.2 42.85 68.55 43.35 68.7 44.05 68.85 44.7 68.85 45.5 L 68.85 50.55 66.2 50.55 66.2 45.55 Q 66.2 44.95 65.95 44.5 65.7 44.1 65.05 44.1 64.6 44.1 64.3 44.25 64 44.4 63.8 44.65 63.6 44.9 63.5 45.25 63.45 45.65 63.45 46 L 63.45 50.55 60.8 50.55 60.8 46 Q 60.8 45.8 60.8 45.45 60.75 45.1 60.65 44.8 60.55 44.5 60.3 44.3 60.1 44.1 59.6 44.1 59.1 44.1 58.8 44.3 58.45 44.45 58.3 44.75 58.15 45.1 58.1 45.45 58.05 45.85 58.05 46.3 L 58.05 50.55 55.4 50.55 55.4 42 57.95 42 M 34.95 38.05 L 40.25 46.75 40.3 46.75 40.3 38.05 43.05 38.05 43.05 50.55 39.45 50.55 34 41.65 33.95 41.65 33.95 50.55 31.2 50.55 31.2 38.05 34.95 38.05 M 32 55.6 L 34.7 55.6 34.7 65.55 39.8 65.55 39.8 68.1 32 68.1 32 55.6 M 65.85 59.55 L 69.1 59.55 65.7 63.4 69.2 68.1 65.85 68.1 62.95 63.75 62.95 68.1 60.3 68.1 60.3 54.8 62.95 54.8 62.95 62.9 65.85 59.55 M 52.9 60.55 Q 53.55 59.95 54.4 59.65 55.3 59.3 56.3 59.3 57.05 59.3 57.85 59.6 58.7 59.85 59.35 60.45 L 57.6 62.3 Q 57.4 62 57.05 61.85 56.7 61.65 56.3 61.65 55.25 61.65 54.7 62.25 54.15 62.85 54.15 63.8 54.15 64.8 54.7 65.4 55.25 66 56.3 66 56.7 66 57.05 65.8 57.35 65.6 57.6 65.35 L 59.35 67.15 Q 58.7 67.8 57.85 68.05 57.05 68.3 56.3 68.3 55.3 68.3 54.4 68 53.55 67.7 52.9 67.1 52.25 66.5 51.9 65.65 51.5 64.85 51.5 63.8 51.5 62.8 51.9 61.95 52.25 61.15 52.9 60.55 M 43.6 59.65 Q 44.5 59.3 45.5 59.3 46.45 59.3 47.35 59.65 48.2 59.95 48.85 60.55 49.5 61.15 49.85 61.95 50.25 62.8 50.25 63.8 50.25 64.85 49.85 65.65 49.5 66.5 48.85 67.1 48.2 67.7 47.35 68 46.45 68.3 45.5 68.3 44.5 68.3 43.6 68 42.75 67.7 42.1 67.1 41.45 66.5 41.1 65.65 40.7 64.85 40.7 63.8 40.7 62.8 41.1 61.95 41.45 61.15 42.1 60.55 42.75 59.95 43.6 59.65 M 47.05 65.4 Q 47.6 64.8 47.6 63.8 47.6 62.85 47.05 62.25 46.5 61.65 45.5 61.65 44.45 61.65 43.9 62.25 43.35 62.85 43.35 63.8 43.35 64.8 43.9 65.4 44.45 66 45.5 66 46.5 66 47.05 65.4 Z"
         id="path3367" />
      <path
         fill="#CDCDCD"
         stroke="none"
         d=" M 45.5 59.3 Q 44.5 59.3 43.6 59.65 42.75 59.95 42.1 60.55 41.45 61.15 41.1 61.95 40.7 62.8 40.7 63.8 40.7 64.85 41.1 65.65 41.45 66.5 42.1 67.1 42.75 67.7 43.6 68 44.5 68.3 45.5 68.3 46.45 68.3 47.35 68 48.2 67.7 48.85 67.1 49.5 66.5 49.85 65.65 50.25 64.85 50.25 63.8 50.25 62.8 49.85 61.95 49.5 61.15 48.85 60.55 48.2 59.95 47.35 59.65 46.45 59.3 45.5 59.3 M 47.6 63.8 Q 47.6 64.8 47.05 65.4 46.5 66 45.5 66 44.45 66 43.9 65.4 43.35 64.8 43.35 63.8 43.35 62.85 43.9 62.25 44.45 61.65 45.5 61.65 46.5 61.65 47.05 62.25 47.6 62.85 47.6 63.8 M 54.4 59.65 Q 53.55 59.95 52.9 60.55 52.25 61.15 51.9 61.95 51.5 62.8 51.5 63.8 51.5 64.85 51.9 65.65 52.25 66.5 52.9 67.1 53.55 67.7 54.4 68 55.3 68.3 56.3 68.3 57.05 68.3 57.85 68.05 58.7 67.8 59.35 67.15 L 57.6 65.35 Q 57.35 65.6 57.05 65.8 56.7 66 56.3 66 55.25 66 54.7 65.4 54.15 64.8 54.15 63.8 54.15 62.85 54.7 62.25 55.25 61.65 56.3 61.65 56.7 61.65 57.05 61.85 57.4 62 57.6 62.3 L 59.35 60.45 Q 58.7 59.85 57.85 59.6 57.05 59.3 56.3 59.3 55.3 59.3 54.4 59.65 M 69.1 59.55 L 65.85 59.55 62.95 62.9 62.95 54.8 60.3 54.8 60.3 68.1 62.95 68.1 62.95 63.75 65.85 68.1 69.2 68.1 65.7 63.4 69.1 59.55 M 34.7 55.6 L 32 55.6 32 68.1 39.8 68.1 39.8 65.55 34.7 65.55 34.7 55.6 M 40.25 46.75 L 34.95 38.05 31.2 38.05 31.2 50.55 33.95 50.55 33.95 41.65 34 41.65 39.45 50.55 43.05 50.55 43.05 38.05 40.3 38.05 40.3 46.75 40.25 46.75 M 57.95 43.15 L 57.95 42 55.4 42 55.4 50.55 58.05 50.55 58.05 46.3 Q 58.05 45.85 58.1 45.45 58.15 45.1 58.3 44.75 58.45 44.45 58.8 44.3 59.1 44.1 59.6 44.1 60.1 44.1 60.3 44.3 60.55 44.5 60.65 44.8 60.75 45.1 60.8 45.45 60.8 45.8 60.8 46 L 60.8 50.55 63.45 50.55 63.45 46 Q 63.45 45.65 63.5 45.25 63.6 44.9 63.8 44.65 64 44.4 64.3 44.25 64.6 44.1 65.05 44.1 65.7 44.1 65.95 44.5 66.2 44.95 66.2 45.55 L 66.2 50.55 68.85 50.55 68.85 45.5 Q 68.85 44.7 68.7 44.05 68.55 43.35 68.2 42.85 67.85 42.35 67.3 42.05 66.7 41.75 65.85 41.75 64.85 41.75 64.2 42.1 63.55 42.5 63.1 43.3 62.75 42.5 62.05 42.15 61.35 41.75 60.45 41.75 60 41.75 59.6 41.9 59.2 42 58.85 42.2 58.55 42.4 58.3 42.65 58.1 42.9 57.95 43.15 M 45.3 46.7 Q 45.3 47.55 45.4 48.3 45.5 49.05 45.85 49.6 46.2 50.15 46.85 50.45 47.45 50.75 48.45 50.75 48.95 50.75 49.35 50.65 49.75 50.5 50.05 50.35 50.4 50.15 50.6 49.9 50.8 49.65 50.95 49.4 L 51 49.4 51 50.55 53.55 50.55 53.55 42 50.9 42 50.9 46.25 Q 50.9 46.7 50.85 47.05 50.8 47.45 50.6 47.75 50.45 48.05 50.15 48.25 49.8 48.45 49.3 48.45 48.8 48.45 48.5 48.25 48.25 48 48.1 47.7 48 47.35 47.95 46.95 47.95 46.55 47.95 46.2 L 47.95 42 45.3 42 45.3 46.7 Z"
         id="path3369" />
    </g>
    <g
       id="Layer2_0_FILL">
      <path
         fill="#D7D7D7"
         stroke="none"
         d=" M 84.95 77.8 Q 83.7 50.5 84.95 23.15 84.95 17.3 79.1 17.3 L 21.9 17.3 Q 16.05 17.3 16.05 23.15 17.3 50.5 16.05 77.8 16.05 83.65 21.9 83.65 L 79.1 83.65 Q 84.95 83.65 84.95 77.8 M 54.15 26.45 L 55.4 26.45 71.55 26.45 Q 75.8 26.45 75.8 30.7 74.65 50.5 75.8 70.25 75.8 74.45 71.55 74.45 L 55.4 74.45 54.15 74.45 29.45 74.45 Q 25.2 74.45 25.2 70.25 26.35 50.5 25.2 30.7 25.2 26.45 29.45 26.45 L 54.15 26.45 Z"
         id="path3372" />
      <path
         fill="#F5F5F5"
         stroke="none"
         d=" M 55.4 26.45 L 54.15 26.45 29.45 26.45 Q 25.2 26.45 25.2 30.7 26.35 50.5 25.2 70.25 25.2 74.45 29.45 74.45 L 54.15 74.45 55.4 74.45 71.55 74.45 Q 75.8 74.45 75.8 70.25 74.65 50.5 75.8 30.7 75.8 26.45 71.55 26.45 L 55.4 26.45 M 45.4 48.3 Q 45.3 47.55 45.3 46.7 L 45.3 42 47.95 42 47.95 46.2 Q 47.95 46.55 47.95 46.95 48 47.35 48.1 47.7 48.25 48 48.5 48.25 48.8 48.45 49.3 48.45 49.8 48.45 50.15 48.25 50.45 48.05 50.6 47.75 50.8 47.45 50.85 47.05 50.9 46.7 50.9 46.25 L 50.9 42 53.55 42 53.55 50.55 51 50.55 51 49.4 50.95 49.4 Q 50.8 49.65 50.6 49.9 50.4 50.15 50.05 50.35 49.75 50.5 49.35 50.65 48.95 50.75 48.45 50.75 47.45 50.75 46.85 50.45 46.2 50.15 45.85 49.6 45.5 49.05 45.4 48.3 M 57.95 42 L 57.95 43.15 Q 58.1 42.9 58.3 42.65 58.55 42.4 58.85 42.2 59.2 42 59.6 41.9 60 41.75 60.45 41.75 61.35 41.75 62.05 42.15 62.75 42.5 63.1 43.3 63.55 42.5 64.2 42.1 64.85 41.75 65.85 41.75 66.7 41.75 67.3 42.05 67.85 42.35 68.2 42.85 68.55 43.35 68.7 44.05 68.85 44.7 68.85 45.5 L 68.85 50.55 66.2 50.55 66.2 45.55 Q 66.2 44.95 65.95 44.5 65.7 44.1 65.05 44.1 64.6 44.1 64.3 44.25 64 44.4 63.8 44.65 63.6 44.9 63.5 45.25 63.45 45.65 63.45 46 L 63.45 50.55 60.8 50.55 60.8 46 Q 60.8 45.8 60.8 45.45 60.75 45.1 60.65 44.8 60.55 44.5 60.3 44.3 60.1 44.1 59.6 44.1 59.1 44.1 58.8 44.3 58.45 44.45 58.3 44.75 58.15 45.1 58.1 45.45 58.05 45.85 58.05 46.3 L 58.05 50.55 55.4 50.55 55.4 42 57.95 42 M 34.95 38.05 L 40.25 46.75 40.3 46.75 40.3 38.05 43.05 38.05 43.05 50.55 39.45 50.55 34 41.65 33.95 41.65 33.95 50.55 31.2 50.55 31.2 38.05 34.95 38.05 M 32 55.6 L 34.7 55.6 34.7 65.55 39.8 65.55 39.8 68.1 32 68.1 32 55.6 M 65.85 59.55 L 69.1 59.55 65.7 63.4 69.2 68.1 65.85 68.1 62.95 63.75 62.95 68.1 60.3 68.1 60.3 54.8 62.95 54.8 62.95 62.9 65.85 59.55 M 52.9 60.55 Q 53.55 59.95 54.4 59.65 55.3 59.3 56.3 59.3 57.05 59.3 57.85 59.6 58.7 59.85 59.35 60.45 L 57.6 62.3 Q 57.4 62 57.05 61.85 56.7 61.65 56.3 61.65 55.25 61.65 54.7 62.25 54.15 62.85 54.15 63.8 54.15 64.8 54.7 65.4 55.25 66 56.3 66 56.7 66 57.05 65.8 57.35 65.6 57.6 65.35 L 59.35 67.15 Q 58.7 67.8 57.85 68.05 57.05 68.3 56.3 68.3 55.3 68.3 54.4 68 53.55 67.7 52.9 67.1 52.25 66.5 51.9 65.65 51.5 64.85 51.5 63.8 51.5 62.8 51.9 61.95 52.25 61.15 52.9 60.55 M 43.6 59.65 Q 44.5 59.3 45.5 59.3 46.45 59.3 47.35 59.65 48.2 59.95 48.85 60.55 49.5 61.15 49.85 61.95 50.25 62.8 50.25 63.8 50.25 64.85 49.85 65.65 49.5 66.5 48.85 67.1 48.2 67.7 47.35 68 46.45 68.3 45.5 68.3 44.5 68.3 43.6 68 42.75 67.7 42.1 67.1 41.45 66.5 41.1 65.65 40.7 64.85 40.7 63.8 40.7 62.8 41.1 61.95 41.45 61.15 42.1 60.55 42.75 59.95 43.6 59.65 M 47.05 65.4 Q 47.6 64.8 47.6 63.8 47.6 62.85 47.05 62.25 46.5 61.65 45.5 61.65 44.45 61.65 43.9 62.25 43.35 62.85 43.35 63.8 43.35 64.8 43.9 65.4 44.45 66 45.5 66 46.5 66 47.05 65.4 Z"
         id="path3374" />
      <path
         fill="#404040"
         stroke="none"
         d=" M 45.5 59.3 Q 44.5 59.3 43.6 59.65 42.75 59.95 42.1 60.55 41.45 61.15 41.1 61.95 40.7 62.8 40.7 63.8 40.7 64.85 41.1 65.65 41.45 66.5 42.1 67.1 42.75 67.7 43.6 68 44.5 68.3 45.5 68.3 46.45 68.3 47.35 68 48.2 67.7 48.85 67.1 49.5 66.5 49.85 65.65 50.25 64.85 50.25 63.8 50.25 62.8 49.85 61.95 49.5 61.15 48.85 60.55 48.2 59.95 47.35 59.65 46.45 59.3 45.5 59.3 M 47.6 63.8 Q 47.6 64.8 47.05 65.4 46.5 66 45.5 66 44.45 66 43.9 65.4 43.35 64.8 43.35 63.8 43.35 62.85 43.9 62.25 44.45 61.65 45.5 61.65 46.5 61.65 47.05 62.25 47.6 62.85 47.6 63.8 M 54.4 59.65 Q 53.55 59.95 52.9 60.55 52.25 61.15 51.9 61.95 51.5 62.8 51.5 63.8 51.5 64.85 51.9 65.65 52.25 66.5 52.9 67.1 53.55 67.7 54.4 68 55.3 68.3 56.3 68.3 57.05 68.3 57.85 68.05 58.7 67.8 59.35 67.15 L 57.6 65.35 Q 57.35 65.6 57.05 65.8 56.7 66 56.3 66 55.25 66 54.7 65.4 54.15 64.8 54.15 63.8 54.15 62.85 54.7 62.25 55.25 61.65 56.3 61.65 56.7 61.65 57.05 61.85 57.4 62 57.6 62.3 L 59.35 60.45 Q 58.7 59.85 57.85 59.6 57.05 59.3 56.3 59.3 55.3 59.3 54.4 59.65 M 69.1 59.55 L 65.85 59.55 62.95 62.9 62.95 54.8 60.3 54.8 60.3 68.1 62.95 68.1 62.95 63.75 65.85 68.1 69.2 68.1 65.7 63.4 69.1 59.55 M 34.7 55.6 L 32 55.6 32 68.1 39.8 68.1 39.8 65.55 34.7 65.55 34.7 55.6 M 40.25 46.75 L 34.95 38.05 31.2 38.05 31.2 50.55 33.95 50.55 33.95 41.65 34 41.65 39.45 50.55 43.05 50.55 43.05 38.05 40.3 38.05 40.3 46.75 40.25 46.75 M 57.95 43.15 L 57.95 42 55.4 42 55.4 50.55 58.05 50.55 58.05 46.3 Q 58.05 45.85 58.1 45.45 58.15 45.1 58.3 44.75 58.45 44.45 58.8 44.3 59.1 44.1 59.6 44.1 60.1 44.1 60.3 44.3 60.55 44.5 60.65 44.8 60.75 45.1 60.8 45.45 60.8 45.8 60.8 46 L 60.8 50.55 63.45 50.55 63.45 46 Q 63.45 45.65 63.5 45.25 63.6 44.9 63.8 44.65 64 44.4 64.3 44.25 64.6 44.1 65.05 44.1 65.7 44.1 65.95 44.5 66.2 44.95 66.2 45.55 L 66.2 50.55 68.85 50.55 68.85 45.5 Q 68.85 44.7 68.7 44.05 68.55 43.35 68.2 42.85 67.85 42.35 67.3 42.05 66.7 41.75 65.85 41.75 64.85 41.75 64.2 42.1 63.55 42.5 63.1 43.3 62.75 42.5 62.05 42.15 61.35 41.75 60.45 41.75 60 41.75 59.6 41.9 59.2 42 58.85 42.2 58.55 42.4 58.3 42.65 58.1 42.9 57.95 43.15 M 45.3 46.7 Q 45.3 47.55 45.4 48.3 45.5 49.05 45.85 49.6 46.2 50.15 46.85 50.45 47.45 50.75 48.45 50.75 48.95 50.75 49.35 50.65 49.75 50.5 50.05 50.35 50.4 50.15 50.6 49.9 50.8 49.65 50.95 49.4 L 51 49.4 51 50.55 53.55 50.55 53.55 42 50.9 42 50.9 46.25 Q 50.9 46.7 50.85 47.05 50.8 47.45 50.6 47.75 50.45 48.05 50.15 48.25 49.8 48.45 49.3 48.45 48.8 48.45 48.5 48.25 48.25 48 48.1 47.7 48 47.35 47.95 46.95 47.95 46.55 47.95 46.2 L 47.95 42 45.3 42 45.3 46.7 Z"
         id="path3376" />
    </g>
    <path
       id="Layer3_0_1_STROKES"
       stroke="#1D1D1D"
       stroke-width="5"
       stroke-linejoin="round"
       stroke-linecap="round"
       fill="none"
       d=" M 84.95 23.15 Q 83.7 50.5 84.95 77.8 84.95 83.65 79.1 83.65 L 21.9 83.65 Q 16.05 83.65 16.05 77.8 17.3 50.5 16.05 23.15 16.05 17.3 21.9 17.3 L 79.1 17.3 Q 84.95 17.3 84.95 23.15 Z" />
    <path
       id="Layer3_0_2_STROKES"
       stroke="#696969"
       stroke-width="4"
       stroke-linejoin="round"
       stroke-linecap="round"
       fill="none"
       d=" M 54.15 26.45 L 29.45 26.45 Q 25.2 26.45 25.2 30.7 26.35 50.5 25.2 70.25 25.2 74.45 29.45 74.45 L 54.15 74.45 M 55.4 74.45 L 71.55 74.45 Q 75.8 74.45 75.8 70.25 74.65 50.5 75.8 30.7 75.8 26.45 71.55 26.45 L 55.4 26.45" />
    <path
       id="Layer2_0_1_STROKES"
       stroke="#404040"
       stroke-width="5"
       stroke-linejoin="round"
       stroke-linecap="round"
       fill="none"
       d=" M 84.95 23.15 Q 83.7 50.5 84.95 77.8 84.95 83.65 79.1 83.65 L 21.9 83.65 Q 16.05 83.65 16.05 77.8 17.3 50.5 16.05 23.15 16.05 17.3 21.9 17.3 L 79.1 17.3 Q 84.95 17.3 84.95 23.15 Z" />
    <path
       id="Layer2_0_2_STROKES"
       stroke="#FFFFFF"
       stroke-width="4"
       stroke-linejoin="round"
       stroke-linecap="round"
       fill="none"
       d=" M 54.15 26.45 L 29.45 26.45 Q 25.2 26.45 25.2 30.7 26.35 50.5 25.2 70.25 25.2 74.45 29.45 74.45 L 54.15 74.45 M 55.4 74.45 L 71.55 74.45 Q 75.8 74.45 75.8 70.25 74.65 50.5 75.8 30.7 75.8 26.45 71.55 26.45 L 55.4 26.45" />
  </defs>
  <g
     transform="matrix( 1, 0, 0, 1, 0,0) "
     id="g3391">
    <use
       xlink:href="#Layer3_0_FILL"
       id="use3385" />
    <use
       xlink:href="#Layer3_0_1_STROKES"
       id="use3387" />
    <use
       xlink:href="#Layer3_0_2_STROKES"
       id="use3389" />
  </g>
  <g
     id="g3399"
     style="display:none">
    <use
       xlink:href="#Layer2_0_FILL"
       id="use3393" />
    <use
       xlink:href="#Layer2_0_1_STROKES"
       id="use3395" />
    <use
       xlink:href="#Layer2_0_2_STROKES"
       id="use3397" />
  </g>
</svg>
