<?xml version="1.0" encoding="UTF-8" standalone="no"?>
<svg
   version="1.1"
   preserveAspectRatio="none"
   x="0px"
   y="0px"
   width="100px"
   height="100px"
   viewBox="0 0 100 100"
   id="svg13228"
   sodipodi:docname="Vector Source0003.svg"
   inkscape:version="1.2.1 (9c6d41e410, 2022-07-14)"
   xmlns:inkscape="http://www.inkscape.org/namespaces/inkscape"
   xmlns:sodipodi="http://sodipodi.sourceforge.net/DTD/sodipodi-0.dtd"
   xmlns:xlink="http://www.w3.org/1999/xlink"
   xmlns="http://www.w3.org/2000/svg"
   xmlns:svg="http://www.w3.org/2000/svg">
  <sodipodi:namedview
     id="namedview13230"
     pagecolor="#ffffff"
     bordercolor="#000000"
     borderopacity="0.25"
     inkscape:showpageshadow="2"
     inkscape:pageopacity="0.0"
     inkscape:pagecheckerboard="0"
     inkscape:deskcolor="#d1d1d1"
     showgrid="false"
     inkscape:zoom="10.27"
     inkscape:cx="42.55112"
     inkscape:cy="50"
     inkscape:window-width="2400"
     inkscape:window-height="1261"
     inkscape:window-x="5591"
     inkscape:window-y="431"
     inkscape:window-maximized="1"
     inkscape:current-layer="svg13228" />
  <defs
     id="defs13076">
    <linearGradient
       id="Gradient_1"
       gradientUnits="userSpaceOnUse"
       x1="-40.3375"
       y1="-1.3249999999999997"
       x2="-34.1625"
       y2="-2.975"
       spreadMethod="pad">
      <stop
         offset="0%"
         stop-color="#796C4B"
         stop-opacity="0"
         id="stop12777" />
      <stop
         offset="100%"
         stop-color="#876B47"
         id="stop12779" />
    </linearGradient>
    <linearGradient
       id="Gradient_2"
       gradientUnits="userSpaceOnUse"
       x1="-40.3375"
       y1="-1.3249999999999997"
       x2="-34.1625"
       y2="-2.975"
       spreadMethod="pad">
      <stop
         offset="0%"
         stop-color="#876B47"
         stop-opacity="0"
         id="stop12782" />
      <stop
         offset="100%"
         stop-color="#876B47"
         id="stop12784" />
    </linearGradient>
    <linearGradient
       id="Gradient_3"
       gradientUnits="userSpaceOnUse"
       x1="10.499999999999998"
       y1="-5.7"
       x2="34.4"
       y2="-5.7"
       spreadMethod="pad">
      <stop
         offset="0%"
         stop-color="#F1B776"
         id="stop12787" />
      <stop
         offset="100%"
         stop-color="#876B47"
         id="stop12789" />
    </linearGradient>
    <linearGradient
       id="Gradient_4"
       gradientUnits="userSpaceOnUse"
       x1="25.2375"
       y1="-11.6625"
       x2="40.2625"
       y2="5.6625"
       spreadMethod="pad">
      <stop
         offset="0%"
         stop-color="#000000"
         stop-opacity="0"
         id="stop12792" />
      <stop
         offset="100%"
         stop-color="#000000"
         stop-opacity="0.2"
         id="stop12794" />
    </linearGradient>
    <linearGradient
       id="Gradient_5"
       gradientUnits="userSpaceOnUse"
       x1="49.7625"
       y1="52.537499999999994"
       x2="28.037499999999998"
       y2="15.2625"
       spreadMethod="pad">
      <stop
         offset="10.196078431372548%"
         stop-color="#313131"
         id="stop12797" />
      <stop
         offset="100%"
         stop-color="#4F4F4F"
         id="stop12799" />
    </linearGradient>
    <linearGradient
       id="Gradient_6"
       gradientUnits="userSpaceOnUse"
       x1="50"
       y1="10.412499999999994"
       x2="50"
       y2="89.5875"
       spreadMethod="pad">
      <stop
         offset="0%"
         stop-color="#373737"
         id="stop12802" />
      <stop
         offset="100%"
         stop-color="#575757"
         id="stop12804" />
    </linearGradient>
    <linearGradient
       id="Gradient_7"
       gradientUnits="userSpaceOnUse"
       x1="81.8"
       y1="30.6"
       x2="56.8"
       y2="30.6"
       spreadMethod="pad">
      <stop
         offset="0%"
         stop-color="#000000"
         stop-opacity="0.2"
         id="stop12807" />
      <stop
         offset="100%"
         stop-color="#000000"
         stop-opacity="0"
         id="stop12809" />
    </linearGradient>
    <linearGradient
       id="Gradient_8"
       gradientUnits="userSpaceOnUse"
       x1="51"
       y1="26.462500000000002"
       x2="51"
       y2="36.737500000000004"
       spreadMethod="pad">
      <stop
         offset="0%"
         stop-color="#D7D7D7"
         id="stop12812" />
      <stop
         offset="100%"
         stop-color="#313131"
         id="stop12814" />
    </linearGradient>
    <linearGradient
       id="Gradient_9"
       gradientUnits="userSpaceOnUse"
       x1="49"
       y1="43.2"
       x2="49"
       y2="28.599999999999998"
       spreadMethod="pad">
      <stop
         offset="0%"
         stop-color="#4F4F4F"
         id="stop12817" />
      <stop
         offset="100%"
         stop-color="#F5F5F5"
         id="stop12819" />
    </linearGradient>
    <linearGradient
       id="Gradient_10"
       gradientUnits="userSpaceOnUse"
       x1="47.95"
       y1="39.75"
       x2="47.95"
       y2="26.450000000000003"
       spreadMethod="pad">
      <stop
         offset="0%"
         stop-color="#626262"
         id="stop12822" />
      <stop
         offset="100%"
         stop-color="#FFFFFF"
         id="stop12824" />
    </linearGradient>
    <linearGradient
       id="Gradient_11"
       gradientUnits="userSpaceOnUse"
       x1="52.6"
       y1="18.2625"
       x2="52.6"
       y2="32.5375"
       spreadMethod="pad">
      <stop
         offset="0%"
         stop-color="#404040"
         id="stop12827" />
      <stop
         offset="100%"
         stop-color="#1B1B1B"
         id="stop12829" />
    </linearGradient>
    <g
       id="Layer22_0_FILL">
      <path
         fill="#D7D7D7"
         stroke="none"
         d=" M 91.15 60.8 Q 95.6 56.3 95.6 50 95.6 43.65 91.15 39.25 86.7 34.8 80.4 34.8 74.1 34.8 69.6 39.25 65.2 43.65 65.2 50 65.2 56.3 69.6 60.8 74.1 65.2 80.4 65.2 86.7 65.2 91.15 60.8 Z"
         id="path12832" />
    </g>
    <g
       id="Layer21_0_FILL">
      <path
         fill="#A91818"
         stroke="none"
         d=" M 81.9 80.25 Q 90.05 78.25 90.05 75.4 90.05 72.55 81.9 70.55 73.8 68.55 62.35 68.55 50.9 68.55 42.75 70.55 34.65 72.55 34.65 75.4 34.65 78.25 42.75 80.25 50.9 82.25 62.35 82.25 73.8 82.25 81.9 80.25 M 43.45 74.65 Q 43.45 73 48.95 71.85 54.5 70.65 62.35 70.65 70.15 70.65 75.65 71.85 81.25 73 81.25 74.65 81.25 76.35 75.65 77.5 70.15 78.65 62.35 78.65 54.5 78.65 48.95 77.5 43.45 76.35 43.45 74.65 Z"
         id="path12835" />
      <path
         fill="#E02727"
         stroke="none"
         d=" M 48.95 71.85 Q 43.45 73 43.45 74.65 43.45 76.35 48.95 77.5 54.5 78.65 62.35 78.65 70.15 78.65 75.65 77.5 81.25 76.35 81.25 74.65 81.25 73 75.65 71.85 70.15 70.65 62.35 70.65 54.5 70.65 48.95 71.85 M 72.1 20.5 L 69.5 20.5 63.4 34.65 66.8 34.65 68 31.65 73.5 31.65 74.7 34.65 78.25 34.65 72.1 20.5 M 72.45 29 L 69 29 70.7 24.6 72.45 29 M 65.1 23.25 L 65.1 20.5 53.9 20.5 53.9 23.25 57.95 23.25 57.95 34.65 61.05 34.65 61.05 23.25 65.1 23.25 M 88.7 21.4 Q 87.95 20.9 87 20.7 86 20.5 84.9 20.5 L 79.65 20.5 79.65 34.65 82.75 34.65 82.75 29.15 85.05 29.15 Q 86.15 29.15 87.1 28.9 88.1 28.7 88.8 28.2 89.5 27.7 89.9 26.9 90.3 26.05 90.3 24.8 90.3 23.55 89.85 22.7 89.4 21.85 88.7 21.4 M 84.35 23.15 Q 84.8 23.15 85.3 23.2 85.75 23.2 86.15 23.4 86.55 23.6 86.8 23.9 87.05 24.25 87.05 24.8 87.05 25.3 86.85 25.65 86.65 25.95 86.35 26.15 86.05 26.35 85.65 26.4 85.25 26.5 84.85 26.5 L 82.75 26.5 82.75 23.15 84.35 23.15 Z"
         id="path12837" />
      <path
         fill="#FFFFFF"
         fill-opacity="0.30196078431372547"
         stroke="none"
         d=" M 87.5 18.25 L 87.5 18.25 Q 86.26171875 18.0005859375 84.9 18 L 79.65 18 Q 78.6107421875 17.9962890625 77.85 18.7 77.1462890625 19.4607421875 77.15 20.5 L 77.15 25.8 74.4 19.5 Q 74.100390625 18.8140625 73.45 18.4 72.8462890625 17.9947265625 72.1 18 L 69.5 18 Q 68.7548828125 18.0052734375 68.1 18.4 67.596875 18.7642578125 67.3 19.3 67.136328125 18.9888671875 66.85 18.7 66.1390625 17.9962890625 65.1 18 L 53.9 18 Q 52.8607421875 17.9962890625 52.1 18.7 51.3962890625 19.4607421875 51.4 20.5 L 51.4 23.25 Q 51.3962890625 24.2890625 52.1 25 52.8607421875 25.753515625 53.9 25.75 L 55.45 25.75 55.45 34.65 Q 55.4462890625 35.6890625 56.15 36.4 56.9107421875 37.153515625 57.95 37.15 L 61.05 37.15 Q 61.705078125 37.1521484375 62.25 36.85 62.772265625 37.15 63.4 37.15 L 66.8 37.15 Q 67.5654296875 37.152734375 68.2 36.7 68.8365234375 36.28984375 69.1 35.55 L 69.7 34.15 71.8 34.15 72.35 35.55 Q 72.6634765625 36.28984375 73.3 36.7 73.934375 37.152734375 74.7 37.15 L 78.25 37.15 Q 78.608984375 37.15 78.9 37.05 79.2734375 37.1513671875 79.65 37.15 L 82.75 37.15 Q 83.7890625 37.153515625 84.5 36.4 85.253515625 35.6890625 85.25 34.65 L 85.25 31.65 Q 86.5728515625 31.63046875 87.7 31.3 89.2080078125 30.9994140625 90.25 30.2 91.445703125 29.383203125 92.1 28 92.1359375 27.9962890625 92.15 27.95 92.7939453125 26.69296875 92.8 24.8 92.7953125 22.8458984375 92.05 21.5 91.2751953125 20.05859375 90.05 19.3 L 90.05 19.3 Q 88.9525390625 18.5572265625 87.5 18.25 M 87 20.7 Q 87.95 20.9 88.7 21.4 89.4 21.85 89.85 22.7 90.3 23.55 90.3 24.8 90.3 26.05 89.9 26.9 89.5 27.7 88.8 28.2 88.1 28.7 87.1 28.9 86.15 29.15 85.05 29.15 L 82.75 29.15 82.75 34.65 79.65 34.65 79.65 20.5 84.9 20.5 Q 86 20.5 87 20.7 M 65.1 20.5 L 65.1 23.25 61.05 23.25 61.05 34.65 57.95 34.65 57.95 23.25 53.9 23.25 53.9 20.5 65.1 20.5 M 69.5 20.5 L 72.1 20.5 78.25 34.65 74.7 34.65 73.5 31.65 68 31.65 66.8 34.65 63.4 34.65 69.5 20.5 M 64.5 25.75 L 63.55 27.95 63.55 25.75 64.5 25.75 M 69 29 L 72.45 29 70.7 24.6 69 29 M 85.3 23.2 Q 84.8 23.15 84.35 23.15 L 82.75 23.15 82.75 26.5 84.85 26.5 Q 85.25 26.5 85.65 26.4 86.05 26.35 86.35 26.15 86.65 25.95 86.85 25.65 87.05 25.3 87.05 24.8 87.05 24.25 86.8 23.9 86.55 23.6 86.15 23.4 85.75 23.2 85.3 23.2 Z"
         id="path12839" />
    </g>
    <g
       id="FingerSide_0_Layer0_0_FILL">
      <path
         fill="#F1B776"
         stroke="none"
         d=" M -14.15 -11.8 L -13.05 -12 Q -11.75 -10.15 -9.95 -11.5 L -9.15 -13.65 Q -10.1 -13.7 -10.95 -13.95 -16.55 -15 -22.15 -13.95 -18.65 -12.2 -17.35 -8.2 L -15.75 -8.05 Q -14.5 -9.65 -14.15 -11.8 M 32.3 -2.65 Q 30.6 -2.6 28.95 -2.55 24.2 -2.85 19.65 -3.65 21.8 2.1 14.65 3.4 13.2 3.55 11.75 3.8 5.05 5.2 -1.85 4.95 -8.85 4.5 -15.85 3.65 -17.95 3.3 -20 4.15 -25.4 6.4 -31.05 7.5 -32.35 7.65 -33.55 7.35 -34.35 7.15 -35.05 6.75 -37.95 5.05 -40.35 2.6 -38.9 7.5 -36.3 12.05 -35.45 13.55 -34.5 15.1 -33.6 14.8 -32.65 14.55 -29.15 13.4 -25.7 11.9 -19.65 9.35 -13.2 9.05 -6 9.75 1.15 9.75 5.3 9.75 9.5 9.6 15.6 8.8 21.65 6.8 29 4.4 32.3 -2.65 M 11.2 -8.75 L 10.55 -9.1 Q 9.65 -10.5 10 -12.3 L 5.55 -12.7 Q 6.15 -12.2 6.45 -11.55 9.9 -4.25 18.35 -4.1 16.95 -4.7 15.6 -5.3 11.95 -6.95 11.2 -8.75 Z"
         id="path12842" />
      <path
         fill="url(#Gradient_1)"
         stroke="none"
         d=" M 36.95 -3.95 L 32.3 -2.65 Q 29 4.4 21.65 6.8 15.6 8.8 9.5 9.6 5.3 9.75 1.15 9.75 -6 9.75 -13.2 9.05 -19.65 9.35 -25.7 11.9 -29.15 13.4 -32.65 14.55 -33.6 14.8 -34.5 15.1 -35.2 15.25 -35.9 15.5 L -35.9 19.65 Q -34.65 19.3 -33.4 18.95 -32.8 18.75 -32.15 18.55 -23.8 16 -15.8 12.85 6.85 14.6 16.85 12.5 27.65 10.3 32.2 4.65 32.9 3.8 33.5 3 36.45 -1 36.95 -3.95 Z"
         id="path12844" />
      <path
         fill="#FFFFFF"
         stroke="none"
         d=" M 32.4 -9.2 Q 32.45 -9.15 32.45 -9.1 32.5 -9.05 32.5 -9 32.55 -8.95 32.55 -8.9 32.55 -8.85 32.55 -8.8 32.55 -8.75 32.6 -8.7 32.6 -8.65 32.6 -8.6 32.65 -8.55 32.65 -8.45 32.7 -8.4 32.7 -8.35 32.7 -8.25 32.7 -8.15 32.7 -7.95 32.7 -7.75 32.7 -7.6 32.7 -7.45 32.7 -7.35 32.7 -7.25 32.65 -7.2 32.6 -7.15 32.6 -7.1 32.6 -7.05 32.55 -6.95 32.55 -6.85 32.55 -6.8 32.55 -6.75 33 -6.85 33.5 -6.9 33.85 -6.95 34.25 -7 34.35 -7.05 34.4 -7.1 35 -7.7 35.05 -8.65 34.3 -8.85 33.5 -9 32.95 -9.1 32.4 -9.2 M 12.8 -11.05 Q 12.75 -11.1 12.7 -11.1 L 10 -12.3 Q 9.65 -10.5 10.55 -9.1 L 11.2 -8.75 Q 11.5 -8.7 11.9 -8.55 L 12 -8.55 Q 12.4 -8.4 12.95 -8.2 L 12.95 -8.25 Q 12.95 -8.3 13 -8.35 13 -8.45 13 -8.55 13 -8.65 13 -8.75 13 -8.85 13 -8.95 13 -9 13 -9.05 12.95 -9.1 12.95 -9.15 12.95 -9.2 13 -9.25 13 -9.3 13 -9.35 13.05 -9.4 13.05 -9.45 13.05 -9.55 13.05 -9.65 13.05 -9.8 13.05 -9.95 13.05 -10.05 13.05 -10.15 13.05 -10.25 13.1 -10.35 13.1 -10.4 13.1 -10.45 13.05 -10.5 13.05 -10.55 13.05 -10.6 13 -10.65 13 -10.7 12.95 -10.75 12.95 -10.8 12.9 -10.85 12.9 -10.9 12.9 -10.95 12.85 -11 12.8 -11.05 Z"
         id="path12846" />
      <path
         fill="url(#Gradient_2)"
         stroke="none"
         d=" M 10 -12.3 L 10.3 -16.4 -8.9 -17.65 Q -9 -17.65 -9.05 -17.65 -9.35 -17.65 -9.6 -17.65 -16.85 -19.5 -24.05 -17.6 -24.15 -17.6 -24.15 -17.55 -30.4 -16.25 -36.25 -14.75 -39.4 -14 -42.4 -13.2 -43.25 -13 -44.1 -12.75 L -44.1 -8.6 Q -44 -8.65 -43.85 -8.65 -42.6 -9 -41.35 -9.35 -38.6 -10.1 -35.75 -10.75 -29.65 -12.3 -23.2 -13.7 L -23.1 -13.7 Q -22.65 -13.85 -22.15 -13.95 -16.55 -15 -10.95 -13.95 -10.1 -13.7 -9.15 -13.65 L 5.55 -12.7 10 -12.3 Z"
         id="path12848" />
      <path
         fill="#FBCF9B"
         stroke="none"
         d=" M 19.65 -3.65 Q 19 -3.85 18.35 -4.1 9.9 -4.25 6.45 -11.55 6.15 -12.2 5.55 -12.7 L -9.15 -13.65 -9.95 -11.5 Q -11.75 -10.15 -13.05 -12 L -14.15 -11.8 Q -14.5 -9.65 -15.75 -8.05 L -17.35 -8.2 Q -18.65 -12.2 -22.15 -13.95 -22.65 -13.85 -23.1 -13.7 L -23.2 -13.7 Q -29.65 -12.3 -35.75 -10.75 -38.6 -10.1 -41.35 -9.35 -41.75 -4.65 -40.95 -0.2 L -41 -0.2 Q -40.75 1.15 -40.4 2.55 L -40.35 2.6 Q -37.95 5.05 -35.05 6.75 -34.35 7.15 -33.55 7.35 -32.35 7.65 -31.05 7.5 -25.4 6.4 -20 4.15 -17.95 3.3 -15.85 3.65 -8.85 4.5 -1.85 4.95 5.05 5.2 11.75 3.8 13.2 3.55 14.65 3.4 21.8 2.1 19.65 -3.65 Z"
         id="path12850" />
      <path
         fill="url(#Gradient_3)"
         stroke="none"
         d=" M 12 -8.55 L 11.9 -8.55 Q 11.5 -8.7 11.2 -8.75 11.95 -6.95 15.6 -5.3 16.95 -4.7 18.35 -4.1 19 -3.85 19.65 -3.65 24.2 -2.85 28.95 -2.55 30.6 -2.6 32.3 -2.65 L 34.4 -7.1 Q 34.35 -7.05 34.25 -7 33.85 -6.95 33.5 -6.9 33 -6.85 32.55 -6.75 21.35 -5.4 15.95 -7.2 14.55 -7.7 13.5 -8.05 13.2 -8.15 12.95 -8.2 12.4 -8.4 12 -8.55 Z"
         id="path12852" />
      <path
         fill="#FFFCF4"
         stroke="none"
         d=" M 13.4 -10.95 Q 13.1 -10.95 12.8 -11.05 12.85 -11 12.9 -10.95 12.9 -10.9 12.9 -10.85 12.95 -10.8 12.95 -10.75 13 -10.7 13 -10.65 13.05 -10.6 13.05 -10.55 13.05 -10.5 13.1 -10.45 13.1 -10.4 13.1 -10.35 13.05 -10.25 13.05 -10.15 13.05 -10.05 13.05 -9.95 13.05 -9.8 13.05 -9.65 13.05 -9.55 13.05 -9.45 13.05 -9.4 13 -9.35 13 -9.3 13 -9.25 12.95 -9.2 12.95 -9.15 12.95 -9.1 13 -9.05 13 -9 13 -8.95 13 -8.85 13 -8.75 13 -8.65 13 -8.55 13 -8.45 13 -8.35 12.95 -8.3 12.95 -8.25 L 12.95 -8.2 Q 13.2 -8.15 13.5 -8.05 14.55 -7.7 15.95 -7.2 21.35 -5.4 32.55 -6.75 32.55 -6.8 32.55 -6.85 32.55 -6.95 32.6 -7.05 32.6 -7.1 32.6 -7.15 32.65 -7.2 32.7 -7.25 32.7 -7.35 32.7 -7.45 32.7 -7.6 32.7 -7.75 32.7 -7.95 32.7 -8.15 32.7 -8.25 32.7 -8.35 32.7 -8.4 32.65 -8.45 32.65 -8.55 32.6 -8.6 32.6 -8.65 32.6 -8.7 32.55 -8.75 32.55 -8.8 32.55 -8.85 32.55 -8.9 32.55 -8.95 32.5 -9 32.5 -9.05 32.45 -9.1 32.45 -9.15 32.4 -9.2 24.35 -10.65 13.4 -10.95 Z"
         id="path12854" />
      <path
         fill="#876B47"
         stroke="none"
         d=" M 11 -16.2 Q 10.65 -16.35 10.3 -16.4 L 10 -12.3 12.7 -11.1 Q 12.75 -11.1 12.8 -11.05 13.1 -10.95 13.4 -10.95 24.35 -10.65 32.4 -9.2 32.95 -9.1 33.5 -9 34.3 -8.85 35.05 -8.65 35 -7.7 34.4 -7.1 L 32.3 -2.65 36.95 -3.95 Q 37.55 -4.4 37.95 -4.9 39.6 -7.05 38.95 -10.65 38.8 -11.25 38.4 -11.65 38.2 -11.9 37.95 -12 37.7 -12.2 37.45 -12.25 35.55 -12.7 33.5 -13.05 25.2 -14.6 13.9 -14.95 L 11 -16.2 Z"
         id="path12856" />
      <path
         fill="url(#Gradient_4)"
         stroke="none"
         d=" M 15 -19.9 L 13 -20.8 13.05 -20.8 Q 11.9 -21.3 10.75 -21.35 10.523046875 -21.3953125 10.35 -21.4 L 10.6 -21.4 -8.6 -22.65 Q -8.7 -22.65 -8.75 -22.65 -8.85 -22.65 -8.95 -22.65 -17.15 -24.6 -25.35 -22.4 L -25.2 -22.45 Q -25.35 -22.45 -25.45 -22.4 -31.3 -21.15 -36.85 -19.75 L -36.25 -14.75 Q -30.4 -16.25 -24.15 -17.55 -24.15 -17.6 -24.05 -17.6 -16.85 -19.5 -9.6 -17.65 -9.35 -17.65 -9.05 -17.65 -9 -17.65 -8.9 -17.65 L 10.3 -16.4 Q 10.65 -16.35 11 -16.2 L 13.9 -14.95 Q 25.2 -14.6 33.5 -13.05 35.55 -12.7 37.45 -12.25 37.7 -12.2 37.95 -12 38.2 -11.9 38.4 -11.65 38.8 -11.25 38.95 -10.65 39.6 -7.05 37.95 -4.9 37.55 -4.4 36.95 -3.95 36.45 -1 33.5 3 32.9 3.8 32.2 4.65 27.65 10.3 16.85 12.5 6.85 14.6 -15.8 12.85 -23.8 16 -32.15 18.55 L -31.55 23.6 Q -23.1 21.05 -15 17.9 7.7 19.6 17.9 17.4 30.75 14.75 36.1 7.8 L 36.05 7.8 Q 36.85 6.85 37.5 6 L 37.55 5.95 Q 40.55 1.9 41.5 -1.35 41.7 -1.6 41.9 -1.8 45 -5.35 43.85 -11.6 L 43.85 -11.65 Q 43.45 -13.6 42.05 -15.1 42 -15.1 42 -15.15 41.35 -15.8 40.65 -16.25 40.5 -16.35 40.35 -16.4 39.55 -16.9 38.65 -17.1 L 38.6 -17.1 Q 36.6 -17.6 34.4 -18 26.15 -19.5 15 -19.9 Z"
         id="path12858" />
    </g>
    <g
       id="Layer20_0_FILL">
      <path
         fill="#000000"
         fill-opacity="0.2"
         stroke="none"
         d=" M 96.3 95.25 Q 98.7 95.3 100.55 93.5 102.35 91.65 102.3 89.25 102.3 88.15 102.3 87 102.3 82.05 101.7 77.35 L 101.75 77.35 Q 98.85 53.05 80.8 35.05 61.8 16.05 35.85 13.85 L 35.85 10.7 Q 35.9 8.3 34.1 6.5 32.25 4.65 29.85 4.7 L 24.6 4.7 Q 22.6 4.7 21.3 5.75 L 21.25 5.75 0.65 18.25 0.7 18.25 Q -1 19.2 -1.55 20.65 -2.3 22 -2.25 23.35 L -2.25 26.95 Q -2.3 28.3 -1.55 29.7 -1 31.1 0.7 32.1 L 0.65 32.1 21.25 44.65 21.3 44.65 Q 22.6 45.65 24.6 45.65 L 29.85 45.65 Q 32.25 45.7 34.1 43.9 35.9 42.05 35.85 39.65 L 35.85 38 Q 51.9 40.05 63.85 52 75.85 64.05 77.9 80.25 77.9 80.3 77.9 80.35 78.3 83.55 78.3 87 78.3 88.15 78.3 89.25 78.25 91.65 80.1 93.5 81.9 95.3 84.3 95.25 L 96.3 95.25 M 82.85 79.7 L 82.85 79.65 Q 80.65 61.75 67.35 48.45 52.15 33.25 30.85 32.55 L 30.85 39.65 Q 30.85 40.05 30.55 40.35 30.25 40.65 29.85 40.65 L 24.6 40.65 Q 24.3 40.65 24.1 40.5 L 3.25 27.8 Q 3 27.65 2.9 27.45 2.75 27.2 2.75 26.95 L 2.75 23.35 Q 2.75 23.1 2.9 22.85 3 22.65 3.25 22.5 L 24.1 9.85 Q 24.3 9.7 24.6 9.7 L 29.85 9.7 Q 30.25 9.7 30.55 10 30.85 10.3 30.85 10.7 L 30.85 18.55 Q 57.95 19.25 77.25 38.55 94.05 55.35 96.75 77.95 97.3 82.35 97.3 87 97.3 88.15 97.3 89.25 97.3 89.65 97 89.95 96.7 90.25 96.3 90.25 L 84.3 90.25 Q 83.9 90.25 83.6 89.95 83.3 89.65 83.3 89.25 83.3 88.15 83.3 87 83.3 83.25 82.85 79.7 Z"
         id="path12861" />
      <path
         fill="#A91818"
         stroke="none"
         d=" M 82.85 79.65 L 82.85 79.7 Q 83.3 83.25 83.3 87 83.3 88.15 83.3 89.25 83.3 89.65 83.6 89.95 83.9 90.25 84.3 90.25 L 96.3 90.25 Q 96.7 90.25 97 89.95 97.3 89.65 97.3 89.25 97.3 88.15 97.3 87 97.3 82.35 96.75 77.95 94.05 55.35 77.25 38.55 57.95 19.25 30.85 18.55 L 30.85 10.7 Q 30.85 10.3 30.55 10 30.25 9.7 29.85 9.7 L 24.6 9.7 Q 24.3 9.7 24.1 9.85 L 3.25 22.5 Q 3 22.65 2.9 22.85 2.75 23.1 2.75 23.35 L 2.75 26.95 Q 2.75 27.2 2.9 27.45 3 27.65 3.25 27.8 L 24.1 40.5 Q 24.3 40.65 24.6 40.65 L 29.85 40.65 Q 30.25 40.65 30.55 40.35 30.85 40.05 30.85 39.65 L 30.85 32.55 Q 52.15 33.25 67.35 48.45 80.65 61.75 82.85 79.65 M 92.8 78.45 Q 93.25 82.25 93.3 86.25 L 87.3 86.25 Q 87.25 82.7 86.85 79.35 86.85 79.25 86.85 79.2 84.45 59.9 70.2 45.65 53.85 29.3 31 28.55 29.9 28.5 28.95 29.05 27.95 29.6 27.4 30.55 L 27.4 30.5 Q 26.85 31.45 26.85 32.55 L 26.85 36.65 25.45 36.65 6.55 25.15 25.45 13.7 26.85 13.7 26.85 18.55 Q 26.85 20.2 28 21.35 29.1 22.5 30.75 22.55 56.25 23.2 74.45 41.4 90.2 57.2 92.8 78.45 Z"
         id="path12863" />
      <path
         fill="#E02727"
         stroke="none"
         d=" M 93.3 86.25 Q 93.25 82.25 92.8 78.45 90.2 57.2 74.45 41.4 56.25 23.2 30.75 22.55 29.1 22.5 28 21.35 26.85 20.2 26.85 18.55 L 26.85 13.7 25.45 13.7 6.55 25.15 25.45 36.65 26.85 36.65 26.85 32.55 Q 26.85 31.45 27.4 30.5 L 27.4 30.55 Q 27.95 29.6 28.95 29.05 29.9 28.5 31 28.55 53.85 29.3 70.2 45.65 84.45 59.9 86.85 79.2 86.85 79.25 86.85 79.35 87.25 82.7 87.3 86.25 L 93.3 86.25 Z"
         id="path12865" />
    </g>
    <g
       id="Layer19_0_FILL">
      <path
         fill="#543C07"
         stroke="none"
         d=" M 78.55 21.4 L 78.6 21.4 Q 66.8 9.6 50 9.6 33.25 9.6 21.35 21.4 9.55 33.25 9.55 50 9.55 66.75 21.35 78.6 L 21.35 78.65 Q 33.25 90.45 50 90.45 66.75 90.45 78.55 78.65 L 78.6 78.6 Q 90.45 66.75 90.45 50 90.45 33.2 78.55 21.4 M 50 13.6 Q 65.1 13.6 75.75 24.25 86.45 34.9 86.45 50 86.45 65.1 75.75 75.8 65.1 86.45 50 86.45 34.9 86.45 24.2 75.8 L 24.15 75.8 Q 13.55 65.1 13.55 50 13.55 34.9 24.15 24.25 L 24.2 24.2 Q 34.9 13.6 50 13.6 Z"
         id="path12868" />
      <path
         fill="#C68B11"
         stroke="none"
         d=" M 75.75 24.25 Q 65.1 13.6 50 13.6 34.9 13.6 24.2 24.2 L 24.15 24.25 Q 13.55 34.9 13.55 50 13.55 65.1 24.15 75.8 L 24.2 75.8 Q 34.9 86.45 50 86.45 65.1 86.45 75.75 75.8 86.45 65.1 86.45 50 86.45 34.9 75.75 24.25 M 71.9 28.05 L 71.95 28.05 Q 81 37.1 81 50 81 62.85 71.95 71.95 62.85 81 50 81 37.1 81 28.05 71.95 L 28.05 71.9 Q 19 62.8 19 50 19 37.15 28.05 28.05 37.15 19 50 19 62.8 19 71.9 28.05 Z"
         id="path12870" />
      <path
         fill="#F3C972"
         stroke="none"
         d=" M 71.95 28.05 L 71.9 28.05 Q 62.8 19 50 19 37.15 19 28.05 28.05 19 37.15 19 50 19 62.8 28.05 71.9 L 28.05 71.95 Q 37.1 81 50 81 62.85 81 71.95 71.95 81 62.85 81 50 81 37.1 71.95 28.05 M 50 23 Q 61.2 23 69.1 30.9 77 38.8 77 50 77 61.15 69.1 69.1 61.15 77 50 77 38.8 77 30.9 69.1 23 61.2 23 50 23 38.8 30.85 30.9 L 30.9 30.85 Q 38.8 23 50 23 Z"
         id="path12872" />
      <path
         fill="#EEB135"
         stroke="none"
         d=" M 69.1 30.9 Q 61.2 23 50 23 38.8 23 30.9 30.85 L 30.85 30.9 Q 23 38.8 23 50 23 61.2 30.9 69.1 38.8 77 50 77 61.15 77 69.1 69.1 77 61.15 77 50 77 38.8 69.1 30.9 M 50.05 46.8 L 57.2 34.9 65.5 34.9 53.55 53.15 53.55 66.75 46.5 66.75 46.5 53.15 34.55 34.9 43.3 34.9 50.05 46.8 Z"
         id="path12874" />
      <path
         fill="#F9E1B0"
         stroke="none"
         d=" M 57.2 34.9 L 50.05 46.8 43.3 34.9 34.55 34.9 46.5 53.15 46.5 66.75 53.55 66.75 53.55 53.15 65.5 34.9 57.2 34.9 Z"
         id="path12876" />
    </g>
    <g
       id="Layer18_0_FILL">
      <path
         fill="#1B1B1B"
         stroke="none"
         d=" M 78.55 21.4 L 78.6 21.4 Q 66.8 9.6 50 9.6 33.25 9.6 21.35 21.4 9.55 33.25 9.55 50 9.55 66.75 21.35 78.6 L 21.35 78.65 Q 33.25 90.45 50 90.45 66.75 90.45 78.55 78.65 L 78.6 78.6 Q 90.45 66.75 90.45 50 90.45 33.2 78.55 21.4 M 50 13.6 Q 65.1 13.6 75.75 24.25 86.45 34.9 86.45 50 86.45 65.1 75.75 75.8 65.1 86.45 50 86.45 34.9 86.45 24.2 75.8 L 24.15 75.8 Q 13.55 65.1 13.55 50 13.55 34.9 24.15 24.25 L 24.2 24.2 Q 34.9 13.6 50 13.6 Z"
         id="path12879" />
      <path
         fill="#313131"
         stroke="none"
         d=" M 75.75 24.25 Q 65.1 13.6 50 13.6 34.9 13.6 24.2 24.2 L 24.15 24.25 Q 13.55 34.9 13.55 50 13.55 65.1 24.15 75.8 L 24.2 75.8 Q 34.9 86.45 50 86.45 65.1 86.45 75.75 75.8 86.45 65.1 86.45 50 86.45 34.9 75.75 24.25 M 71.9 28.05 L 71.95 28.05 Q 81 37.1 81 50 81 62.85 71.95 71.95 62.85 81 50 81 37.1 81 28.05 71.95 L 28.05 71.9 Q 19 62.8 19 50 19 37.15 28.05 28.05 37.15 19 50 19 62.8 19 71.9 28.05 Z"
         id="path12881" />
      <path
         fill="#626262"
         stroke="none"
         d=" M 71.95 28.05 L 71.9 28.05 Q 62.8 19 50 19 37.15 19 28.05 28.05 19 37.15 19 50 19 62.8 28.05 71.9 L 28.05 71.95 Q 37.1 81 50 81 62.85 81 71.95 71.95 81 62.85 81 50 81 37.1 71.95 28.05 M 50 23 Q 61.2 23 69.1 30.9 77 38.8 77 50 77 61.15 69.1 69.1 61.15 77 50 77 38.8 77 30.9 69.1 23 61.2 23 50 23 38.8 30.85 30.9 L 30.9 30.85 Q 38.8 23 50 23 Z"
         id="path12883" />
      <path
         fill="#4F4F4F"
         stroke="none"
         d=" M 69.1 30.9 Q 61.2 23 50 23 38.8 23 30.9 30.85 L 30.85 30.9 Q 23 38.8 23 50 23 61.2 30.9 69.1 38.8 77 50 77 61.15 77 69.1 69.1 77 61.15 77 50 77 38.8 69.1 30.9 M 51.35 33.25 Q 53.45 33.25 55.5 33.55 57.65 33.85 59.3 34.7 60.95 35.6 62 37.15 63 38.75 63 41.35 63 44.05 61.5 45.85 60 47.6 57.55 48.35 L 57.55 48.45 Q 59.1 48.7 60.4 49.3 61.65 50 62.55 51 63.5 52 64 53.35 64.5 54.7 64.5 56.25 64.5 58.75 63.4 60.45 62.35 62.15 60.6 63.15 58.9 64.2 56.75 64.65 54.65 65.1 52.55 65.1 L 39.5 65.1 39.5 33.25 51.35 33.25 M 55.95 58.35 Q 56.6 57.9 57.05 57.2 57.5 56.45 57.5 55.45 57.5 54.3 56.9 53.6 56.35 52.9 55.5 52.55 54.65 52.2 53.65 52.05 52.65 51.9 51.8 51.9 L 46.5 51.9 46.5 59.15 52.8 59.15 Q 53.6 59.15 54.45 59 55.3 58.8 55.95 58.35 M 46.5 39.15 L 46.5 46 51.6 46 Q 52.4 46 53.2 45.8 54 45.65 54.6 45.2 55.25 44.8 55.65 44.15 56 43.45 56 42.5 56 41.5 55.6 40.85 55.15 40.2 54.45 39.85 53.8 39.5 52.95 39.35 52.1 39.15 51.3 39.15 L 46.5 39.15 Z"
         id="path12885" />
      <path
         fill="#E02727"
         stroke="none"
         d=" M 55.5 33.55 Q 53.45 33.25 51.35 33.25 L 39.5 33.25 39.5 65.1 52.55 65.1 Q 54.65 65.1 56.75 64.65 58.9 64.2 60.6 63.15 62.35 62.15 63.4 60.45 64.5 58.75 64.5 56.25 64.5 54.7 64 53.35 63.5 52 62.55 51 61.65 50 60.4 49.3 59.1 48.7 57.55 48.45 L 57.55 48.35 Q 60 47.6 61.5 45.85 63 44.05 63 41.35 63 38.75 62 37.15 60.95 35.6 59.3 34.7 57.65 33.85 55.5 33.55 M 46.5 46 L 46.5 39.15 51.3 39.15 Q 52.1 39.15 52.95 39.35 53.8 39.5 54.45 39.85 55.15 40.2 55.6 40.85 56 41.5 56 42.5 56 43.45 55.65 44.15 55.25 44.8 54.6 45.2 54 45.65 53.2 45.8 52.4 46 51.6 46 L 46.5 46 M 57.05 57.2 Q 56.6 57.9 55.95 58.35 55.3 58.8 54.45 59 53.6 59.15 52.8 59.15 L 46.5 59.15 46.5 51.9 51.8 51.9 Q 52.65 51.9 53.65 52.05 54.65 52.2 55.5 52.55 56.35 52.9 56.9 53.6 57.5 54.3 57.5 55.45 57.5 56.45 57.05 57.2 Z"
         id="path12887" />
    </g>
    <g
       id="Layer17_0_FILL">
      <path
         fill="#1B1B1B"
         stroke="none"
         d=" M 78.55 21.4 L 78.6 21.4 Q 66.8 9.6 50 9.6 33.25 9.6 21.35 21.4 9.55 33.25 9.55 50 9.55 66.75 21.35 78.6 L 21.35 78.65 Q 33.25 90.45 50 90.45 66.75 90.45 78.55 78.65 L 78.6 78.6 Q 90.45 66.75 90.45 50 90.45 33.2 78.55 21.4 M 50 13.6 Q 65.1 13.6 75.75 24.25 86.45 34.9 86.45 50 86.45 65.1 75.75 75.8 65.1 86.45 50 86.45 34.9 86.45 24.2 75.8 L 24.15 75.8 Q 13.55 65.1 13.55 50 13.55 34.9 24.15 24.25 L 24.2 24.2 Q 34.9 13.6 50 13.6 Z"
         id="path12890" />
      <path
         fill="#313131"
         stroke="none"
         d=" M 75.75 24.25 Q 65.1 13.6 50 13.6 34.9 13.6 24.2 24.2 L 24.15 24.25 Q 13.55 34.9 13.55 50 13.55 65.1 24.15 75.8 L 24.2 75.8 Q 34.9 86.45 50 86.45 65.1 86.45 75.75 75.8 86.45 65.1 86.45 50 86.45 34.9 75.75 24.25 M 73.3 26.6 L 73.35 26.6 Q 83 36.25 83 50 83 63.65 73.35 73.35 63.65 83 50 83 36.25 83 26.6 73.35 L 26.6 73.3 Q 17 63.6 17 50 17 36.3 26.6 26.6 36.3 17 50 17 63.6 17 73.3 26.6 Z"
         id="path12892" />
      <path
         fill="#626262"
         stroke="none"
         d=" M 73.35 26.6 L 73.3 26.6 Q 63.6 17 50 17 36.3 17 26.6 26.6 17 36.3 17 50 17 63.6 26.6 73.3 L 26.6 73.35 Q 36.25 83 50 83 63.65 83 73.35 73.35 83 63.65 83 50 83 36.25 73.35 26.6 M 50 20 Q 62.4 20 71.15 28.75 79.95 37.5 79.95 50 79.95 62.35 71.15 71.15 62.35 79.95 50 79.95 37.5 79.95 28.75 71.15 20 62.4 20 50 20 37.5 28.7 28.75 L 28.75 28.7 Q 37.5 20 50 20 Z"
         id="path12894" />
      <path
         fill="#4F4F4F"
         stroke="none"
         d=" M 71.15 28.75 Q 62.4 20 50 20 37.5 20 28.75 28.7 L 28.7 28.75 Q 20 37.5 20 50 20 62.4 28.75 71.15 37.5 79.95 50 79.95 62.35 79.95 71.15 71.15 79.95 62.35 79.95 50 79.95 37.5 71.15 28.75 M 65.1 65.1 L 34.95 65.1 34.95 34.95 65.1 34.95 65.1 65.1 M 34.95 65.1 L 65.1 65.1 65.1 34.95 34.95 34.95 34.95 65.1 Z"
         id="path12896" />
    </g>
    <g
       id="Layer16_0_FILL">
      <path
         fill="#1B1B1B"
         stroke="none"
         d=" M 78.55 21.4 L 78.6 21.4 Q 66.8 9.6 50 9.6 33.25 9.6 21.35 21.4 9.55 33.25 9.55 50 9.55 66.75 21.35 78.6 L 21.35 78.65 Q 33.25 90.45 50 90.45 66.75 90.45 78.55 78.65 L 78.6 78.6 Q 90.45 66.75 90.45 50 90.45 33.2 78.55 21.4 M 50 13.6 Q 65.1 13.6 75.75 24.25 86.45 34.9 86.45 50 86.45 65.1 75.75 75.8 65.1 86.45 50 86.45 34.9 86.45 24.2 75.8 L 24.15 75.8 Q 13.55 65.1 13.55 50 13.55 34.9 24.15 24.25 L 24.2 24.2 Q 34.9 13.6 50 13.6 Z"
         id="path12899" />
      <path
         fill="#313131"
         stroke="none"
         d=" M 75.75 24.25 Q 65.1 13.6 50 13.6 34.9 13.6 24.2 24.2 L 24.15 24.25 Q 13.55 34.9 13.55 50 13.55 65.1 24.15 75.8 L 24.2 75.8 Q 34.9 86.45 50 86.45 65.1 86.45 75.75 75.8 86.45 65.1 86.45 50 86.45 34.9 75.75 24.25 M 73.3 26.6 L 73.35 26.6 Q 83 36.25 83 50 83 63.65 73.35 73.35 63.65 83 50 83 36.25 83 26.6 73.35 L 26.6 73.3 Q 17 63.6 17 50 17 36.3 26.6 26.6 36.3 17 50 17 63.6 17 73.3 26.6 Z"
         id="path12901" />
      <path
         fill="#626262"
         stroke="none"
         d=" M 73.35 26.6 L 73.3 26.6 Q 63.6 17 50 17 36.3 17 26.6 26.6 17 36.3 17 50 17 63.6 26.6 73.3 L 26.6 73.35 Q 36.25 83 50 83 63.65 83 73.35 73.35 83 63.65 83 50 83 36.25 73.35 26.6 M 50 20 Q 62.4 20 71.15 28.75 79.95 37.5 79.95 50 79.95 62.35 71.15 71.15 62.35 79.95 50 79.95 37.5 79.95 28.75 71.15 20 62.4 20 50 20 37.5 28.7 28.75 L 28.75 28.7 Q 37.5 20 50 20 Z"
         id="path12903" />
      <path
         fill="#4F4F4F"
         stroke="none"
         d=" M 71.15 28.75 Q 62.4 20 50 20 37.5 20 28.75 28.7 L 28.7 28.75 Q 20 37.5 20 50 20 62.4 28.75 71.15 37.5 79.95 50 79.95 62.35 79.95 71.15 71.15 79.95 62.35 79.95 50 79.95 37.5 71.15 28.75 M 50 31.05 L 67.05 62.3 32.95 62.3 50 31.05 M 67.05 62.3 L 50 31.05 32.95 62.3 67.05 62.3 Z"
         id="path12905" />
    </g>
    <g
       id="Layer15_0_FILL">
      <path
         fill="#D7D7D7"
         stroke="none"
         d=" M 34.5 70.2 L 34.5 92.75 Q 49.95 96.65 65.45 92.75 L 65.45 70.05 50 54.7 34.5 70.2 M 50 63.8 Q 50.65 63.8 51.05 64.25 L 59 72.15 Q 59.45 72.55 59.45 73.2 L 59.45 86.6 Q 59.45 87.15 59.05 87.6 58.7 88 58.15 88.1 49.95 89.3 41.75 88.1 41.25 88 40.85 87.6 40.5 87.15 40.5 86.6 L 40.5 73.3 Q 40.5 72.7 40.95 72.25 L 48.95 64.25 Q 49.4 63.8 50 63.8 Z"
         id="path12908" />
      <path
         fill="#F5F5F5"
         stroke="none"
         d=" M 51.05 64.25 Q 50.65 63.8 50 63.8 49.4 63.8 48.95 64.25 L 40.95 72.25 Q 40.5 72.7 40.5 73.3 L 40.5 86.6 Q 40.5 87.15 40.85 87.6 41.25 88 41.75 88.1 49.95 89.3 58.15 88.1 58.7 88 59.05 87.6 59.45 87.15 59.45 86.6 L 59.45 73.2 Q 59.45 72.55 59 72.15 L 51.05 64.25 M 54.5 76.65 L 49.95 82.85 45.5 76.65 54.5 76.65 Z"
         id="path12910" />
      <path
         fill="#616161"
         stroke="none"
         d=" M 49.95 82.85 L 54.5 76.65 45.5 76.65 49.95 82.85 Z"
         id="path12912" />
      <path
         fill="#353535"
         stroke="none"
         d=" M 29.8 34.55 L 7.25 34.55 Q 3.35 50.05 7.25 65.5 L 29.8 65.5 45.3 50 29.8 34.55 M 13.4 40.55 L 26.7 40.55 Q 27.3 40.55 27.75 41 L 35.75 48.95 Q 36.2 49.35 36.2 50 36.2 50.6 35.75 51.05 L 27.75 59.05 Q 27.3 59.5 26.7 59.5 L 13.4 59.5 Q 12.85 59.5 12.4 59.15 12 58.75 11.9 58.25 10.7 50.05 11.9 41.85 12 41.3 12.4 40.95 12.85 40.55 13.4 40.55 M 49.9 45.4 L 65.45 29.85 65.45 7.25 Q 49.95 3.35 34.5 7.25 L 34.5 29.85 49.9 45.4 M 40.5 13.4 Q 40.5 12.85 40.85 12.45 41.25 12 41.75 11.95 49.95 10.7 58.15 11.95 58.7 12 59.05 12.45 59.45 12.85 59.45 13.4 L 59.45 26.75 Q 59.45 27.35 59 27.8 L 51 35.8 Q 50.55 36.25 49.95 36.25 49.35 36.25 48.9 35.8 L 40.95 27.85 Q 40.5 27.4 40.5 26.8 L 40.5 13.4 M 70.15 34.55 L 65.45 29.85 49.9 45.4 34.5 29.85 29.8 34.55 45.3 50 29.8 65.5 34.5 70.2 50 54.7 65.45 70.05 70 65.5 54.6 50.1 70.15 34.55 M 92.75 65.5 Q 96.65 50.05 92.75 34.55 L 70.15 34.55 54.6 50.1 70 65.5 92.75 65.5 M 86.6 40.55 Q 87.15 40.55 87.55 40.95 88 41.3 88.05 41.85 89.3 50.05 88.05 58.25 88 58.75 87.55 59.15 87.15 59.5 86.6 59.5 L 73.1 59.5 Q 72.45 59.5 72 59.05 L 64.15 51.15 Q 63.7 50.7 63.7 50.1 63.75 49.45 64.15 49.05 L 72.2 41 Q 72.65 40.55 73.25 40.55 L 86.6 40.55 Z"
         id="path12914" />
      <path
         fill="#535353"
         stroke="none"
         d=" M 26.7 40.55 L 13.4 40.55 Q 12.85 40.55 12.4 40.95 12 41.3 11.9 41.85 10.7 50.05 11.9 58.25 12 58.75 12.4 59.15 12.85 59.5 13.4 59.5 L 26.7 59.5 Q 27.3 59.5 27.75 59.05 L 35.75 51.05 Q 36.2 50.6 36.2 50 36.2 49.35 35.75 48.95 L 27.75 41 Q 27.3 40.55 26.7 40.55 M 23.35 54.5 L 17.15 49.95 23.35 45.5 23.35 54.5 M 40.85 12.45 Q 40.5 12.85 40.5 13.4 L 40.5 26.8 Q 40.5 27.4 40.95 27.85 L 48.9 35.8 Q 49.35 36.25 49.95 36.25 50.55 36.25 51 35.8 L 59 27.8 Q 59.45 27.35 59.45 26.75 L 59.45 13.4 Q 59.45 12.85 59.05 12.45 58.7 12 58.15 11.95 49.95 10.7 41.75 11.95 41.25 12 40.85 12.45 M 45.5 23.4 L 49.95 17.2 54.5 23.4 45.5 23.4 M 87.55 40.95 Q 87.15 40.55 86.6 40.55 L 73.25 40.55 Q 72.65 40.55 72.2 41 L 64.15 49.05 Q 63.75 49.45 63.7 50.1 63.7 50.7 64.15 51.15 L 72 59.05 Q 72.45 59.5 73.1 59.5 L 86.6 59.5 Q 87.15 59.5 87.55 59.15 88 58.75 88.05 58.25 89.3 50.05 88.05 41.85 88 41.3 87.55 40.95 M 76.6 54.5 L 76.6 45.5 82.8 49.95 76.6 54.5 Z"
         id="path12916" />
      <path
         fill="#D6D6D6"
         stroke="none"
         d=" M 17.15 49.95 L 23.35 54.5 23.35 45.5 17.15 49.95 M 49.95 17.2 L 45.5 23.4 54.5 23.4 49.95 17.2 M 76.6 45.5 L 76.6 54.5 82.8 49.95 76.6 45.5 Z"
         id="path12918" />
    </g>
    <g
       id="Layer14_0_FILL">
      <path
         fill="#A2A2A2"
         stroke="none"
         d=" M 68.35 31.6 Q 60.75 24 50 24 39.25 24 31.6 31.6 24 39.25 24 50 24 60.75 31.6 68.35 39.25 76 50 76 60.75 76 68.35 68.35 76 60.75 76 50 76 39.25 68.35 31.6 M 50 31.95 Q 57.45 31.95 62.75 37.2 68.05 42.55 68.05 50 68.05 57.45 62.75 62.75 57.45 68.05 50 68.05 42.55 68.05 37.2 62.75 31.95 57.45 31.95 50 31.95 42.55 37.2 37.2 42.55 31.95 50 31.95 Z"
         id="path12921" />
      <path
         fill="#C8C8C8"
         stroke="none"
         d=" M 62.75 37.2 Q 57.45 31.95 50 31.95 42.55 31.95 37.2 37.2 31.95 42.55 31.95 50 31.95 57.45 37.2 62.75 42.55 68.05 50 68.05 57.45 68.05 62.75 62.75 68.05 57.45 68.05 50 68.05 42.55 62.75 37.2 M 50 38.6 L 50 48.55 50 38.6 M 50 60.85 Q 45.5 60.85 42.35 57.65 39.2 54.5 39.2 50 39.2 45.8 42 42.75 39.2 45.8 39.2 50 39.2 54.5 42.35 57.65 45.5 60.85 50 60.85 54.45 60.85 57.65 57.65 60.8 54.5 60.8 50 60.8 45.8 58.05 42.75 60.8 45.8 60.8 50 60.8 54.5 57.65 57.65 54.45 60.85 50 60.85 Z"
         id="path12923" />
    </g>
    <g
       id="Layer13_0_FILL">
      <path
         fill="#1B1B1B"
         stroke="none"
         d=" M 78.55 21.4 L 78.6 21.4 Q 66.8 9.6 50 9.6 33.25 9.6 21.35 21.4 9.55 33.25 9.55 50 9.55 66.75 21.35 78.6 L 21.35 78.65 Q 33.25 90.45 50 90.45 66.75 90.45 78.55 78.65 L 78.6 78.6 Q 90.45 66.75 90.45 50 90.45 33.2 78.55 21.4 M 50 13.6 Q 65.1 13.6 75.75 24.25 86.45 34.9 86.45 50 86.45 65.1 75.75 75.8 65.1 86.45 50 86.45 34.9 86.45 24.2 75.8 L 24.15 75.8 Q 13.55 65.1 13.55 50 13.55 34.9 24.15 24.25 L 24.2 24.2 Q 34.9 13.6 50 13.6 Z"
         id="path12926" />
      <path
         fill="#313131"
         stroke="none"
         d=" M 75.75 24.25 Q 65.1 13.6 50 13.6 34.9 13.6 24.2 24.2 L 24.15 24.25 Q 13.55 34.9 13.55 50 13.55 65.1 24.15 75.8 L 24.2 75.8 Q 34.9 86.45 50 86.45 65.1 86.45 75.75 75.8 86.45 65.1 86.45 50 86.45 34.9 75.75 24.25 M 71.9 28.05 L 71.95 28.05 Q 81 37.1 81 50 81 62.85 71.95 71.95 62.85 81 50 81 37.1 81 28.05 71.95 L 28.05 71.9 Q 19 62.8 19 50 19 37.15 28.05 28.05 37.15 19 50 19 62.8 19 71.9 28.05 Z"
         id="path12928" />
      <path
         fill="#626262"
         stroke="none"
         d=" M 71.95 28.05 L 71.9 28.05 Q 62.8 19 50 19 37.15 19 28.05 28.05 19 37.15 19 50 19 62.8 28.05 71.9 L 28.05 71.95 Q 37.1 81 50 81 62.85 81 71.95 71.95 81 62.85 81 50 81 37.1 71.95 28.05 M 50 23 Q 61.2 23 69.1 30.9 77 38.8 77 50 77 61.15 69.1 69.1 61.15 77 50 77 38.8 77 30.9 69.1 23 61.2 23 50 23 38.8 30.85 30.9 L 30.9 30.85 Q 38.8 23 50 23 Z"
         id="path12930" />
      <path
         fill="#4F4F4F"
         stroke="none"
         d=" M 69.1 30.9 Q 61.2 23 50 23 38.8 23 30.9 30.85 L 30.85 30.9 Q 23 38.8 23 50 23 61.2 30.9 69.1 38.8 77 50 77 61.15 77 69.1 69.1 77 61.15 77 50 77 38.8 69.1 30.9 M 50.05 46.8 L 57.2 34.9 65.5 34.9 53.55 53.15 53.55 66.75 46.5 66.75 46.5 53.15 34.55 34.9 43.3 34.9 50.05 46.8 Z"
         id="path12932" />
      <path
         fill="#999999"
         stroke="none"
         d=" M 57.2 34.9 L 50.05 46.8 43.3 34.9 34.55 34.9 46.5 53.15 46.5 66.75 53.55 66.75 53.55 53.15 65.5 34.9 57.2 34.9 Z"
         id="path12934" />
    </g>
    <g
       id="Layer12_0_FILL">
      <path
         fill="#1B1B1B"
         stroke="none"
         d=" M 78.55 21.4 L 78.6 21.4 Q 66.8 9.6 50 9.6 33.25 9.6 21.35 21.4 9.55 33.25 9.55 50 9.55 66.75 21.35 78.6 L 21.35 78.65 Q 33.25 90.45 50 90.45 66.75 90.45 78.55 78.65 L 78.6 78.6 Q 90.45 66.75 90.45 50 90.45 33.2 78.55 21.4 M 50 13.6 Q 65.1 13.6 75.75 24.25 86.45 34.9 86.45 50 86.45 65.1 75.75 75.8 65.1 86.45 50 86.45 34.9 86.45 24.2 75.8 L 24.15 75.8 Q 13.55 65.1 13.55 50 13.55 34.9 24.15 24.25 L 24.2 24.2 Q 34.9 13.6 50 13.6 Z"
         id="path12937" />
      <path
         fill="#313131"
         stroke="none"
         d=" M 75.75 24.25 Q 65.1 13.6 50 13.6 34.9 13.6 24.2 24.2 L 24.15 24.25 Q 13.55 34.9 13.55 50 13.55 65.1 24.15 75.8 L 24.2 75.8 Q 34.9 86.45 50 86.45 65.1 86.45 75.75 75.8 86.45 65.1 86.45 50 86.45 34.9 75.75 24.25 M 71.9 28.05 L 71.95 28.05 Q 81 37.1 81 50 81 62.85 71.95 71.95 62.85 81 50 81 37.1 81 28.05 71.95 L 28.05 71.9 Q 19 62.8 19 50 19 37.15 28.05 28.05 37.15 19 50 19 62.8 19 71.9 28.05 Z"
         id="path12939" />
      <path
         fill="#626262"
         stroke="none"
         d=" M 71.95 28.05 L 71.9 28.05 Q 62.8 19 50 19 37.15 19 28.05 28.05 19 37.15 19 50 19 62.8 28.05 71.9 L 28.05 71.95 Q 37.1 81 50 81 62.85 81 71.95 71.95 81 62.85 81 50 81 37.1 71.95 28.05 M 50 23 Q 61.2 23 69.1 30.9 77 38.8 77 50 77 61.15 69.1 69.1 61.15 77 50 77 38.8 77 30.9 69.1 23 61.2 23 50 23 38.8 30.85 30.9 L 30.9 30.85 Q 38.8 23 50 23 Z"
         id="path12941" />
      <path
         fill="#4F4F4F"
         stroke="none"
         d=" M 69.1 30.9 Q 61.2 23 50 23 38.8 23 30.9 30.85 L 30.85 30.9 Q 23 38.8 23 50 23 61.2 30.9 69.1 38.8 77 50 77 61.15 77 69.1 69.1 77 61.15 77 50 77 38.8 69.1 30.9 M 51.35 33.25 Q 53.45 33.25 55.5 33.55 57.65 33.85 59.3 34.7 60.95 35.6 62 37.15 63 38.75 63 41.35 63 44.05 61.5 45.85 60 47.6 57.55 48.35 L 57.55 48.45 Q 59.1 48.7 60.4 49.3 61.65 50 62.55 51 63.5 52 64 53.35 64.5 54.7 64.5 56.25 64.5 58.75 63.4 60.45 62.35 62.15 60.6 63.15 58.9 64.2 56.75 64.65 54.65 65.1 52.55 65.1 L 39.5 65.1 39.5 33.25 51.35 33.25 M 55.95 58.35 Q 56.6 57.9 57.05 57.2 57.5 56.45 57.5 55.45 57.5 54.3 56.9 53.6 56.35 52.9 55.5 52.55 54.65 52.2 53.65 52.05 52.65 51.9 51.8 51.9 L 46.5 51.9 46.5 59.15 52.8 59.15 Q 53.6 59.15 54.45 59 55.3 58.8 55.95 58.35 M 46.5 39.15 L 46.5 46 51.6 46 Q 52.4 46 53.2 45.8 54 45.65 54.6 45.2 55.25 44.8 55.65 44.15 56 43.45 56 42.5 56 41.5 55.6 40.85 55.15 40.2 54.45 39.85 53.8 39.5 52.95 39.35 52.1 39.15 51.3 39.15 L 46.5 39.15 Z"
         id="path12943" />
      <path
         fill="#C3C3C3"
         stroke="none"
         d=" M 55.5 33.55 Q 53.45 33.25 51.35 33.25 L 39.5 33.25 39.5 65.1 52.55 65.1 Q 54.65 65.1 56.75 64.65 58.9 64.2 60.6 63.15 62.35 62.15 63.4 60.45 64.5 58.75 64.5 56.25 64.5 54.7 64 53.35 63.5 52 62.55 51 61.65 50 60.4 49.3 59.1 48.7 57.55 48.45 L 57.55 48.35 Q 60 47.6 61.5 45.85 63 44.05 63 41.35 63 38.75 62 37.15 60.95 35.6 59.3 34.7 57.65 33.85 55.5 33.55 M 46.5 46 L 46.5 39.15 51.3 39.15 Q 52.1 39.15 52.95 39.35 53.8 39.5 54.45 39.85 55.15 40.2 55.6 40.85 56 41.5 56 42.5 56 43.45 55.65 44.15 55.25 44.8 54.6 45.2 54 45.65 53.2 45.8 52.4 46 51.6 46 L 46.5 46 M 57.05 57.2 Q 56.6 57.9 55.95 58.35 55.3 58.8 54.45 59 53.6 59.15 52.8 59.15 L 46.5 59.15 46.5 51.9 51.8 51.9 Q 52.65 51.9 53.65 52.05 54.65 52.2 55.5 52.55 56.35 52.9 56.9 53.6 57.5 54.3 57.5 55.45 57.5 56.45 57.05 57.2 Z"
         id="path12945" />
    </g>
    <g
       id="Layer11_0_FILL">
      <path
         fill="#1B1B1B"
         stroke="none"
         d=" M 78.55 21.4 L 78.6 21.4 Q 66.8 9.6 50 9.6 33.25 9.6 21.35 21.4 9.55 33.25 9.55 50 9.55 66.75 21.35 78.6 L 21.35 78.65 Q 33.25 90.45 50 90.45 66.75 90.45 78.55 78.65 L 78.6 78.6 Q 90.45 66.75 90.45 50 90.45 33.2 78.55 21.4 M 50 13.6 Q 65.1 13.6 75.75 24.25 86.45 34.9 86.45 50 86.45 65.1 75.75 75.8 65.1 86.45 50 86.45 34.9 86.45 24.2 75.8 L 24.15 75.8 Q 13.55 65.1 13.55 50 13.55 34.9 24.15 24.25 L 24.2 24.2 Q 34.9 13.6 50 13.6 Z"
         id="path12948" />
      <path
         fill="#3B3B3B"
         stroke="none"
         d=" M 75.75 24.25 Q 65.1 13.6 50 13.6 34.9 13.6 24.2 24.2 L 24.15 24.25 Q 13.55 34.9 13.55 50 13.55 65.1 24.15 75.8 L 24.2 75.8 Q 34.9 86.45 50 86.45 65.1 86.45 75.75 75.8 86.45 65.1 86.45 50 86.45 34.9 75.75 24.25 M 71.9 28.05 L 71.95 28.05 Q 81 37.1 81 50 81 62.85 71.95 71.95 62.85 81 50 81 37.1 81 28.05 71.95 L 28.05 71.9 Q 19 62.8 19 50 19 37.15 28.05 28.05 37.15 19 50 19 62.8 19 71.9 28.05 Z"
         id="path12950" />
      <path
         fill="#2E2E2E"
         stroke="none"
         d=" M 71.95 28.05 L 71.9 28.05 Q 62.8 19 50 19 37.15 19 28.05 28.05 19 37.15 19 50 19 62.8 28.05 71.9 L 28.05 71.95 Q 37.1 81 50 81 62.85 81 71.95 71.95 81 62.85 81 50 81 37.1 71.95 28.05 M 43.3 34.9 L 50.05 46.8 57.2 34.9 65.5 34.9 53.55 53.15 53.55 66.75 46.5 66.75 46.5 53.15 34.55 34.9 43.3 34.9 Z"
         id="path12952" />
      <path
         fill="#8C8C8C"
         stroke="none"
         d=" M 50.05 46.8 L 43.3 34.9 34.55 34.9 46.5 53.15 46.5 66.75 53.55 66.75 53.55 53.15 65.5 34.9 57.2 34.9 50.05 46.8 Z"
         id="path12954" />
    </g>
    <g
       id="Layer10_0_FILL">
      <path
         fill="#2E2E2E"
         stroke="none"
         d=" M 85.7 23.75 Q 83.730078125 21.130078125 81.3 18.7 68.35 5.75 50 5.75 31.65 5.75 18.7 18.7 5.75 31.65 5.75 50 5.75 68.35 18.7 81.3 31.65 94.25 50 94.25 68.35 94.25 81.3 81.3 94.25 68.35 94.25 50 94.25 48.8646484375 94.2 47.75 93.5990234375 34.229296875 85.7 23.75 M 81.2 23.75 Q 90.00546875 34.032421875 90.7 47.75 90.75 48.9126953125 90.75 50.1 90.75 66.95 78.95 78.95 66.95 90.75 50.1 90.75 33.2 90.75 21.3 78.95 9.3 66.95 9.3 50.1 9.3 33.2 21.3 21.3 33.2 9.3 50.1 9.3 66.95 9.3 78.95 21.3 80.1396484375 22.499609375 81.2 23.75 M 90.7 47.75 Q 90.00546875 34.032421875 81.2 23.75 80.1396484375 22.499609375 78.95 21.3 66.95 9.3 50.1 9.3 33.2 9.3 21.3 21.3 9.3 33.2 9.3 50.1 9.3 66.95 21.3 78.95 33.2 90.75 50.1 90.75 66.95 90.75 78.95 78.95 90.75 66.95 90.75 50.1 90.75 48.9126953125 90.7 47.75 M 50 28.2 Q 59.05 28.2 65.45 34.6 71.8 41 71.8 50 71.8 59.05 65.45 65.45 59.05 71.8 50 71.8 41 71.8 34.6 65.45 28.2 59.05 28.2 50 28.2 41 34.6 34.6 41 28.2 50 28.2 M 65.45 34.6 Q 59.05 28.2 50 28.2 41 28.2 34.6 34.6 28.2 41 28.2 50 28.2 59.05 34.6 65.45 41 71.8 50 71.8 59.05 71.8 65.45 65.45 71.8 59.05 71.8 50 71.8 41 65.45 34.6 M 50 32 Q 57.45 32 62.75 37.3 67.95 42.55 67.95 50 67.95 57.45 62.75 62.75 57.45 67.95 50 67.95 42.55 67.95 37.3 62.75 32 57.45 32 50 32 42.55 37.3 37.3 42.55 32 50 32 Z"
         id="path12957" />
      <path
         fill="#D7D7D7"
         stroke="none"
         d=" M 62.75 37.3 Q 57.45 32 50 32 42.55 32 37.3 37.3 32 42.55 32 50 32 57.45 37.3 62.75 42.55 67.95 50 67.95 57.45 67.95 62.75 62.75 67.95 57.45 67.95 50 67.95 42.55 62.75 37.3 Z"
         id="path12959" />
    </g>
    <g
       id="Layer9_0_FILL">
      <path
         fill="#313131"
         stroke="none"
         d=" M 59.55 22.2 L 59.45 22.15 Q 54.4 13.85 44.55 10.55 34.6 7.2 25.45 11.05 16.45 14.8 13.55 23.35 13.4 23.45 13.35 23.6 10.6 32.15 15.35 40.65 L 15.45 40.65 Q 20.9 49.9 26.35 59.15 27.05 60.35 27.65 61.4 28.8 63.25 34.65 73.35 35.9 75.3 36.75 76.85 41.85 85.3 51.7 88.65 61.8 91.95 70.9 88.15 80.05 84.3 82.9 75.6 85.7 66.95 80.8 58.4 80 56.85 78.75 54.85 72.9 44.75 71.75 42.95 71.1 41.85 70.45 40.65 65 31.45 59.55 22.2 M 43.5 12.15 Q 43.8 12.2 44 12.3 52.75 15.1 57.25 22.25 L 57.25 22.3 Q 57.35 22.35 57.35 22.4 L 57.4 22.5 Q 57.8 23.15 58.2 23.9 L 68.85 42 Q 69.25 42.65 69.7 43.4 70.65 44.95 71.5 46.45 L 69.6 47.25 Q 69.55 47.2 69.45 47.2 69.35 47.2 69.3 47.15 L 69.25 47.15 Q 68.95 47.25 68.8 47.3 68.7 47.35 68.6 47.35 68.75 47.6 68.9 47.95 L 43.95 78.35 Q 42.6 76.85 41.5 75.1 L 41.5 75.05 Q 41.45 74.95 41.35 74.85 L 65.9 45.05 65.85 45 Q 65.5 44.45 65.15 43.9 65.1 43.7 64.95 43.6 L 63.8 41.45 39.25 71.25 Q 37.95 69.15 37 67.4 L 61.55 37.6 59.35 34.1 34.85 63.85 Q 34.35 62.9 33.85 62.2 L 31.05 63.4 Q 30.2 61.85 29.25 60.3 28.85 59.6 28.4 58.9 L 17.8 40.85 Q 17.3 40.05 16.9 39.35 L 16.9 39.3 Q 12.65 31.95 15.35 24.35 L 15.45 24.25 15.4 24.1 Q 15.45 24.05 15.45 23.95 17.65 18.15 22.95 14.85 24.65 13.75 26.6 12.9 28.55 12.1 30.5 11.65 36.75 10.15 43.5 12.15 M 75.4 58.9 Q 75.9 59.7 76.35 60.45 77.05 61.7 77.5 63 L 58.95 85.55 Q 56.6 85.45 54.2 84.75 L 75.4 58.9 M 71.05 51.5 Q 72.05 53.2 73.3 55.4 L 50.4 83.25 Q 48.4 82.3 46.75 81 L 71.05 51.5 M 78.7 67.7 Q 79 70.9 77.95 74.15 L 78 74.1 Q 77.65 75.25 77.15 76.25 L 72.7 81.55 Q 70.85 83.05 68.45 84.05 66.35 84.95 64.25 85.3 L 78.7 67.7 M 38.1 15.05 Q 35.4 14.8 32.9 15.2 L 18.85 32.25 Q 19.15 34.45 20.25 36.65 L 38.1 15.05 M 20.65 23.45 L 24.2 19.05 Q 22 20.95 20.65 23.45 M 57.1 30.15 L 55 26.6 31.3 55.5 32.25 57.3 Q 32.7 57.95 33.15 58.7 33.25 58.95 33.35 59.05 L 57.1 30.15 M 52.65 22.85 Q 51.5 21.2 49.95 19.9 L 26.85 48.05 28.95 51.65 52.65 22.85 M 43.05 16.05 Q 42.8 16.05 42.7 15.95 L 22.5 40.6 Q 22.9 41.35 23.3 42.05 L 24.55 44.2 46.5 17.55 Q 44.9 16.65 43.05 16.05 Z"
         id="path12962" />
      <path
         fill="#4F4F4F"
         stroke="none"
         d=" M 77.95 74.15 Q 79 70.9 78.7 67.7 L 64.25 85.3 Q 66.35 84.95 68.45 84.05 70.85 83.05 72.7 81.55 L 77.15 76.25 Q 77.65 75.25 78 74.1 L 77.95 74.15 M 73.3 55.4 Q 72.05 53.2 71.05 51.5 L 46.75 81 Q 48.4 82.3 50.4 83.25 L 73.3 55.4 M 76.35 60.45 Q 75.9 59.7 75.4 58.9 L 54.2 84.75 Q 56.6 85.45 58.95 85.55 L 77.5 63 Q 77.05 61.7 76.35 60.45 M 24.2 19.05 L 20.65 23.45 18.35 26.1 Q 17.35 29.7 18.1 33.2 L 18.85 32.25 32.9 15.2 33.75 14.05 Q 30.9 14.45 28.15 15.6 27.25 16 26.4 16.45 L 24.2 19.05 M 67.3 45.1 Q 67 44.6 66.65 44.1 L 65.9 45.05 41.35 74.85 Q 41.45 74.95 41.5 75.05 L 41.5 75.1 Q 42.6 76.85 43.95 78.35 L 68.9 47.95 Q 68.75 47.6 68.6 47.35 67.7 45.75 67.3 45.1 M 63.8 41.45 L 64.55 40.5 Q 63.4 38.55 62.3 36.6 L 61.55 37.6 37 67.4 Q 37.95 69.15 39.25 71.25 L 63.8 41.45 M 59.35 34.1 L 60.2 33.05 Q 59.05 31.1 57.95 29.15 L 57.1 30.15 33.35 59.05 32.55 60 Q 33 60.65 33.85 62.2 34.35 62.9 34.85 63.85 L 59.35 34.1 M 55 24.3 Q 54.2 23 53.35 21.95 L 52.65 22.85 28.95 51.65 28.2 52.55 Q 29.35 54.45 30.45 56.4 L 31.3 55.5 55 26.6 55.8 25.65 Q 55.4 24.95 55 24.3 M 47.05 16.85 L 46.5 17.55 24.55 44.2 23.8 45.1 Q 24.95 47 26.1 48.95 L 26.85 48.05 49.95 19.9 50.6 19.2 Q 49 17.85 47.05 16.85 M 43.35 15.25 L 43.3 15.2 Q 40.95 14.45 38.8 14.15 L 38.1 15.05 20.25 36.65 19.5 37.55 Q 19.75 38.2 20.15 38.9 L 20.2 39 Q 20.9 40.25 21.7 41.5 L 22.5 40.6 42.7 15.95 43.35 15.25 Z"
         id="path12964" />
      <path
         fill="url(#Gradient_5)"
         stroke="none"
         d=" M 44 12.3 Q 43.8 12.2 43.5 12.15 36.75 10.15 30.5 11.65 28.55 12.1 26.6 12.9 24.65 13.75 22.95 14.85 17.65 18.15 15.45 23.95 15.45 24.05 15.4 24.1 L 15.45 24.25 15.35 24.35 Q 12.65 31.95 16.9 39.3 L 16.9 39.35 Q 17.3 40.05 17.8 40.85 L 28.4 58.9 Q 28.85 59.6 29.25 60.3 30.2 61.85 31.05 63.4 L 33.85 62.2 Q 33 60.65 32.55 60 L 33.35 59.05 Q 33.25 58.95 33.15 58.7 32.7 57.95 32.25 57.3 L 31.3 55.5 30.45 56.4 Q 29.35 54.45 28.2 52.55 L 28.95 51.65 26.85 48.05 26.1 48.95 Q 24.95 47 23.8 45.1 L 24.55 44.2 23.3 42.05 Q 22.9 41.35 22.5 40.6 L 21.7 41.5 Q 20.9 40.25 20.2 39 L 20.15 38.9 Q 19.75 38.2 19.5 37.55 L 20.25 36.65 Q 19.15 34.45 18.85 32.25 L 18.1 33.2 Q 17.35 29.7 18.35 26.1 L 20.65 23.45 Q 22 20.95 24.2 19.05 L 26.4 16.45 Q 27.25 16 28.15 15.6 30.9 14.45 33.75 14.05 L 32.9 15.2 Q 35.4 14.8 38.1 15.05 L 38.8 14.15 Q 40.95 14.45 43.3 15.2 L 43.35 15.25 42.7 15.95 Q 42.8 16.05 43.05 16.05 44.9 16.65 46.5 17.55 L 47.05 16.85 Q 49 17.85 50.6 19.2 L 49.95 19.9 Q 51.5 21.2 52.65 22.85 L 53.35 21.95 Q 54.2 23 55 24.3 55.4 24.95 55.8 25.65 L 55 26.6 57.1 30.15 57.95 29.15 Q 59.05 31.1 60.2 33.05 L 59.35 34.1 61.55 37.6 62.3 36.6 Q 63.4 38.55 64.55 40.5 L 63.8 41.45 64.95 43.6 Q 65.1 43.7 65.15 43.9 65.5 44.45 65.85 45 L 65.9 45.05 66.65 44.1 Q 67 44.6 67.3 45.1 67.7 45.75 68.6 47.35 68.7 47.35 68.8 47.3 68.95 47.25 69.25 47.15 L 69.3 47.15 Q 69.35 47.2 69.45 47.2 69.55 47.2 69.6 47.25 L 71.5 46.45 Q 70.65 44.95 69.7 43.4 69.25 42.65 68.85 42 L 58.2 23.9 Q 57.8 23.15 57.4 22.5 L 57.35 22.4 Q 57.35 22.35 57.25 22.3 L 57.25 22.25 Q 52.75 15.1 44 12.3 Z"
         id="path12966" />
    </g>
    <g
       id="Layer8_0_FILL">
      <path
         fill="#2A2A2A"
         stroke="none"
         d=" M 83.8 83.8 Q 97.7 69.8 97.7 50 97.7 30.2 83.8 16.3 69.8 2.3 50 2.3 30.2 2.3 16.3 16.3 2.3 30.2 2.3 50 2.3 69.8 16.3 83.8 30.2 97.7 50 97.7 69.8 97.7 83.8 83.8 M 89.95 35.5 Q 90.219921875 36.300390625 90.45 37.1 L 90.55 37.3 Q 90.5958984375 37.4787109375 90.65 37.65 90.7546875 38.007421875 90.85 38.35 92.0146484375 42.6263671875 92.3 47.25 92.3166015625 47.4259765625 92.3 47.55 92.319140625 47.6828125 92.3 47.8 92.337890625 48.153515625 92.35 48.5 92.3462890625 48.6197265625 92.35 48.75 92.3470703125 48.8689453125 92.35 49 92.3482421875 49.09609375 92.35 49.2 92.3484375 49.455078125 92.35 49.7 92.35 49.85390625 92.35 50 92.35 50.928125 92.3 51.85 91.819140625 64.109375 84.45 74.8 82.4732421875 77.5068359375 80 80 67.55 92.35 50 92.35 32.45 92.35 20.05 80 7.65 67.55 7.65 50 7.65 32.45 20.05 20.05 32.45 7.65 50 7.65 67.55 7.65 80 20.05 86.9033203125 26.98125 89.95 35.5 Z"
         id="path12969" />
      <path
         fill="#F5F5F5"
         stroke="none"
         d=" M 57.25 38 Q 55.4908203125 41.3533203125 54.85 45.1 54.75 45.7 54.65 46.3 54.5 47.2 54.45 48.1 54.4 49.05 54.4 50 54.4 50.85 54.45 51.75 54.796484375 57.29375 57.25 62 L 57.25 57.2 74.1 57.2 Q 77.1 57.2 79.25 55.1 81.35 52.95 81.35 49.95 81.35 46.95 79.25 44.85 77.1 42.7 74.1 42.7 L 57.25 42.7 57.25 38 M 87.2 36.15 Q 87.0375 35.7125 86.85 35.25 86.35546875 33.990625 85.75 32.75 84.9126953125 31.0701171875 83.9 29.45 82.875 27.875 81.7 26.35 80.75 25.1 79.65 23.9 75.55 24 71.9 25.25 71.2 25.5 70.55 25.8 69.35 26.25 68.25 26.9 64.95 28.65 62.05 31.55 61.4 32.2 60.85 32.85 59.15 34.75 57.9 36.9 57.55 37.4 57.3 37.9 57.2748046875 37.94765625 57.25 38 L 57.25 42.7 74.1 42.7 Q 77.1 42.7 79.25 44.85 81.35 46.95 81.35 49.95 81.35 52.95 79.25 55.1 77.1 57.2 74.1 57.2 L 57.25 57.2 57.25 62 Q 57.2748046875 62.0521484375 57.3 62.1 59.1 65.5 62.05 68.4 64.75 71.1 67.7 72.85 69.5 73.85 71.35 74.55 71.5 74.55 71.6 74.65 75.45 76 79.75 76.1 80.2353515625 75.5578125 80.7 75 L 83.2 71.65 Q 88.324609375 64.0080078125 89.35 54.7 89.5572265625 52.82734375 89.6 50.9 L 89.6 50.1 Q 89.6 50.05 89.6 50 89.6 49.05703125 89.55 48.1 89.5318359375 47.674609375 89.5 47.2 89.4875 47.01953125 89.45 46.8 89.4376953125 46.2958984375 89.4 45.75 88.9576171875 41.270703125 87.55 37.15 87.3859375 36.65 87.2 36.15 Z"
         id="path12971" />
      <path
         fill="url(#Gradient_6)"
         stroke="none"
         d=" M 44.9 20.7 Q 44.65 20.95 44.35 21.3 42.75 23.25 42.75 25.85 L 42.75 42.7 25.85 42.7 Q 22.85 42.7 20.75 44.85 18.6 46.95 18.6 49.95 18.6 52.95 20.75 55.1 22.85 57.2 25.85 57.2 L 42.75 57.2 42.75 74.1 Q 42.75 77.1 44.9 79.2 47 81.35 50 81.35 53 81.35 55.15 79.2 57.25 77.1 57.25 74.1 L 57.25 62 Q 54.796484375 57.29375 54.45 51.75 54.4 50.85 54.4 50 54.4 49.05 54.45 48.1 54.5 47.2 54.65 46.3 54.75 45.7 54.85 45.1 55.4908203125 41.3533203125 57.25 38 L 57.25 25.85 Q 57.25 23.2 55.65 21.25 55.4 20.95 55.15 20.7 53 18.6 50 18.6 47 18.6 44.9 20.7 M 79.65 23.9 Q 79.6994140625 23.9 79.75 23.9 78.910546875 22.960546875 78 22.05 66.4 10.4 50 10.4 33.7 10.4 22.1 22.05 10.4 33.65 10.4 50 10.4 50.05 10.4 50.1 L 10.4 50.5 Q 10.4 50.7 10.4 50.9 10.75 66.7 22.1 78 33.7 89.6 50 89.6 66.4 89.6 78 78 78.93046875 77.0654296875 79.75 76.1 L 79.75 76.1 Q 75.45 76 71.6 74.65 71.5 74.55 71.35 74.55 69.5 73.85 67.7 72.85 64.75 71.1 62.05 68.4 59.1 65.5 57.3 62.1 57.2748046875 62.0521484375 57.25 62 L 57.25 74.1 Q 57.25 77.1 55.15 79.2 53 81.35 50 81.35 47 81.35 44.9 79.2 42.75 77.1 42.75 74.1 L 42.75 57.2 25.85 57.2 Q 22.85 57.2 20.75 55.1 18.6 52.95 18.6 49.95 18.6 46.95 20.75 44.85 22.85 42.7 25.85 42.7 L 42.75 42.7 42.75 25.85 Q 42.75 23.25 44.35 21.3 44.65 20.95 44.9 20.7 47 18.6 50 18.6 53 18.6 55.15 20.7 55.4 20.95 55.65 21.25 57.25 23.2 57.25 25.85 L 57.25 38 Q 57.2748046875 37.94765625 57.3 37.9 57.55 37.4 57.9 36.9 59.15 34.75 60.85 32.85 61.4 32.2 62.05 31.55 64.95 28.65 68.25 26.9 69.35 26.25 70.55 25.8 71.2 25.5 71.9 25.25 75.55 24 79.65 23.9 Z"
         id="path12973" />
      <path
         fill="#464646"
         stroke="none"
         d=" M 85.75 27.2 Q 87.9 30.45 89.35 34 89.649609375 34.748828125 89.95 35.5 86.9033203125 26.98125 80 20.05 67.55 7.65 50 7.65 32.45 7.65 20.05 20.05 7.65 32.45 7.65 50 7.65 67.55 20.05 80 32.45 92.35 50 92.35 67.55 92.35 80 80 82.4732421875 77.5068359375 84.45 74.8 84.0009765625 75.3759765625 83.55 75.95 82.05 76.1 80.45 76.1 80.11796875 76.1 79.75 76.1 78.93046875 77.0654296875 78 78 66.4 89.6 50 89.6 33.7 89.6 22.1 78 10.75 66.7 10.4 50.9 10.4 50.7 10.4 50.5 L 10.4 50.1 Q 10.4 50.05 10.4 50 10.4 33.65 22.1 22.05 33.7 10.4 50 10.4 66.4 10.4 78 22.05 78.910546875 22.960546875 79.75 23.9 80.0994140625 23.9 80.45 23.9 82.05 23.9 83.55 24.15 84.75 25.65 85.75 27.2 Z"
         id="path12975" />
      <path
         fill="#FFFFFF"
         stroke="none"
         d=" M 86.85 35.25 Q 87.0375 35.7125 87.2 36.15 87.3859375 36.65 87.55 37.15 88.9576171875 41.270703125 89.4 45.75 89.4376953125 46.2958984375 89.45 46.8 89.4875 47.01953125 89.5 47.2 89.5318359375 47.674609375 89.55 48.1 89.6 49.05703125 89.6 50 89.6 50.05 89.6 50.1 L 89.6 50.9 Q 89.5572265625 52.82734375 89.35 54.7 88.324609375 64.0080078125 83.2 71.65 L 80.7 75 Q 80.2353515625 75.5578125 79.75 76.1 L 79.75 76.1 Q 80.11796875 76.1 80.45 76.1 82.05 76.1 83.55 75.95 84.0009765625 75.3759765625 84.45 74.8 91.819140625 64.109375 92.3 51.85 92.35 50.928125 92.35 50 92.35 49.85390625 92.35 49.7 92.3484375 49.455078125 92.35 49.2 92.3482421875 49.09609375 92.35 49 92.3470703125 48.8689453125 92.35 48.75 92.3462890625 48.6197265625 92.35 48.5 92.337890625 48.153515625 92.3 47.8 92.319140625 47.6828125 92.3 47.55 92.3166015625 47.4259765625 92.3 47.25 92.0146484375 42.6263671875 90.85 38.35 90.7546875 38.007421875 90.65 37.65 90.5958984375 37.4787109375 90.55 37.3 L 90.45 37.1 Q 90.219921875 36.300390625 89.95 35.5 89.649609375 34.748828125 89.35 34 87.9 30.45 85.75 27.2 84.75 25.65 83.55 24.15 82.05 23.9 80.45 23.9 80.0994140625 23.9 79.75 23.9 79.6994140625 23.9 79.65 23.9 80.75 25.1 81.7 26.35 82.875 27.875 83.9 29.45 84.9126953125 31.0701171875 85.75 32.75 86.35546875 33.990625 86.85 35.25 Z"
         id="path12977" />
    </g>
    <g
       id="Layer7_0_FILL">
      <path
         fill="#434345"
         stroke="none"
         d=" M 78.55 21.4 L 78.6 21.4 Q 66.8 9.6 50 9.6 33.25 9.6 21.35 21.4 9.55 33.25 9.55 50 9.55 66.75 21.35 78.6 L 21.35 78.65 Q 33.25 90.45 50 90.45 66.75 90.45 78.55 78.65 L 78.6 78.6 Q 90.45 66.75 90.45 50 90.45 33.2 78.55 21.4 M 50 13.6 Q 65.1 13.6 75.75 24.25 86.45 34.9 86.45 50 86.45 65.1 75.75 75.8 65.1 86.45 50 86.45 34.9 86.45 24.2 75.8 L 24.15 75.8 Q 13.55 65.1 13.55 50 13.55 34.9 24.15 24.25 L 24.2 24.2 Q 34.9 13.6 50 13.6 Z"
         id="path12980" />
      <path
         fill="#96989D"
         stroke="none"
         d=" M 75.75 24.25 Q 65.1 13.6 50 13.6 34.9 13.6 24.2 24.2 L 24.15 24.25 Q 13.55 34.9 13.55 50 13.55 65.1 24.15 75.8 L 24.2 75.8 Q 34.9 86.45 50 86.45 65.1 86.45 75.75 75.8 86.45 65.1 86.45 50 86.45 34.9 75.75 24.25 M 73.3 26.6 L 73.35 26.6 Q 83 36.25 83 50 83 63.65 73.35 73.35 63.65 83 50 83 36.25 83 26.6 73.35 L 26.6 73.3 Q 17 63.6 17 50 17 36.3 26.6 26.6 36.3 17 50 17 63.6 17 73.3 26.6 Z"
         id="path12982" />
      <path
         fill="#E3E7ED"
         stroke="none"
         d=" M 73.35 26.6 L 73.3 26.6 Q 63.6 17 50 17 36.3 17 26.6 26.6 17 36.3 17 50 17 63.6 26.6 73.3 L 26.6 73.35 Q 36.25 83 50 83 63.65 83 73.35 73.35 83 63.65 83 50 83 36.25 73.35 26.6 M 50 20 Q 62.4 20 71.15 28.75 79.95 37.5 79.95 50 79.95 62.35 71.15 71.15 62.35 79.95 50 79.95 37.5 79.95 28.75 71.15 20 62.4 20 50 20 37.5 28.7 28.75 L 28.75 28.7 Q 37.5 20 50 20 Z"
         id="path12984" />
      <path
         fill="#BCBFC4"
         stroke="none"
         d=" M 71.15 28.75 Q 62.4 20 50 20 37.5 20 28.75 28.7 L 28.7 28.75 Q 20 37.5 20 50 20 62.4 28.75 71.15 37.5 79.95 50 79.95 62.35 79.95 71.15 71.15 79.95 62.35 79.95 50 79.95 37.5 71.15 28.75 M 50 31.05 L 67.05 62.3 32.95 62.3 50 31.05 M 67.05 62.3 L 50 31.05 32.95 62.3 67.05 62.3 Z"
         id="path12986" />
    </g>
    <g
       id="Layer6_0_FILL">
      <path
         fill="url(#Gradient_8)"
         stroke="none"
         d=" M 92.95 40.2 Q 92.35 35.85 87.6 34.85 L 65.45 34.85 65.45 12.5 Q 64.35 7.85 60.1 7.15 50.7 5.2 40.5 7.15 36.15 7.75 35.15 12.5 L 35.15 34.85 12.5 34.85 Q 7.75 35.85 7.15 40.2 5.2 50.4 7.15 59.8 7.85 64.05 12.5 65.15 L 35.15 65.15 35.15 87.6 Q 36.15 92.35 40.5 92.95 50.7 94.9 60.1 92.95 64.35 92.25 65.45 87.6 L 65.45 65.15 87.6 65.15 Q 92.25 64.05 92.95 59.8 94.9 50.4 92.95 40.2 M 85.45 42.35 Q 87.15 50 85.45 57.65 L 77.65 57.65 76.35 57.65 65.45 57.65 Q 62.35 57.65 60.15 59.85 57.95 62.05 57.95 65.15 L 57.95 85.45 Q 50.3 87.15 42.65 85.45 L 42.65 65.15 Q 42.65 62.05 40.45 59.85 38.25 57.65 35.15 57.65 L 14.65 57.65 Q 12.95 50 14.65 42.35 L 35.15 42.35 Q 38.25 42.35 40.45 40.15 42.65 37.95 42.65 34.85 L 42.65 14.65 Q 50.3 12.95 57.95 14.65 L 57.95 34.85 Q 57.95 37.95 60.15 40.15 62.35 42.35 65.45 42.35 L 85.45 42.35 Z"
         id="path12989" />
      <path
         fill="url(#Gradient_9)"
         stroke="none"
         d=" M 85.45 57.65 Q 87.15 50 85.45 42.35 L 65.45 42.35 Q 62.35 42.35 60.15 40.15 57.95 37.95 57.95 34.85 L 57.95 14.65 Q 50.3 12.95 42.65 14.65 L 42.65 34.85 Q 42.65 37.95 40.45 40.15 38.25 42.35 35.15 42.35 L 14.65 42.35 Q 12.95 50 14.65 57.65 L 35.15 57.65 Q 38.25 57.65 40.45 59.85 42.65 62.05 42.65 65.15 L 42.65 85.45 Q 50.3 87.15 57.95 85.45 L 57.95 65.15 Q 57.95 62.05 60.15 59.85 62.35 57.65 65.45 57.65 L 76.35 57.65 77.65 57.65 85.45 57.65 Z"
         id="path12991" />
    </g>
    <g
       id="Layer5_0_FILL">
      <path
         fill="#404040"
         stroke="none"
         d=" M 73.95 25.95 Q 64.1 16.1 50 16.1 35.9 16.1 25.9 25.95 16.05 35.9 16.05 50 16.05 64.05 25.9 73.95 L 25.9 74 Q 35.9 83.9 50 83.9 64.05 83.9 73.9 74 L 73.95 73.95 Q 83.9 64.05 83.9 50 83.9 35.9 73.9 25.95 L 73.95 25.95 M 50 20.6 Q 62.15 20.6 70.75 29.2 79.4 37.8 79.4 50 79.4 62.15 70.75 70.8 62.15 79.4 50 79.4 37.8 79.4 29.15 70.8 20.6 62.15 20.6 50 20.6 37.8 29.15 29.2 L 29.15 29.15 Q 37.8 20.6 50 20.6 Z"
         id="path12994" />
      <path
         fill="#D7D7D7"
         stroke="none"
         d=" M 70.75 29.2 Q 62.15 20.6 50 20.6 37.8 20.6 29.15 29.15 L 29.15 29.2 Q 20.6 37.8 20.6 50 20.6 62.15 29.15 70.8 37.8 79.4 50 79.4 62.15 79.4 70.75 70.8 79.4 62.15 79.4 50 79.4 37.8 70.75 29.2 M 50 25 Q 60.3 25 67.65 32.3 L 67.7 32.3 Q 75 39.6 75 50 75 60.35 67.7 67.7 60.35 75 50 75 39.6 75 32.3 67.7 L 32.3 67.65 Q 25 60.3 25 50 25 39.6 32.3 32.3 39.6 25 50 25 Z"
         id="path12996" />
      <path
         fill="#FFFFFF"
         stroke="none"
         d=" M 67.65 32.3 Q 60.3 25 50 25 39.6 25 32.3 32.3 25 39.6 25 50 25 60.3 32.3 67.65 L 32.3 67.7 Q 39.6 75 50 75 60.35 75 67.7 67.7 75 60.35 75 50 75 39.6 67.7 32.3 L 67.65 32.3 M 50 28.7 Q 58.8 28.7 65.05 34.95 71.25 41.15 71.25 50 71.25 58.8 65.05 65.05 58.8 71.25 50 71.25 41.15 71.25 34.95 65.05 28.7 58.8 28.7 50 28.7 41.15 34.9 34.95 L 34.95 34.9 Q 41.15 28.7 50 28.7 Z"
         id="path12998" />
      <path
         fill="#F5F5F5"
         stroke="none"
         d=" M 65.05 34.95 Q 58.8 28.7 50 28.7 41.15 28.7 34.95 34.9 L 34.9 34.95 Q 28.7 41.15 28.7 50 28.7 58.8 34.95 65.05 41.15 71.25 50 71.25 58.8 71.25 65.05 65.05 71.25 58.8 71.25 50 71.25 41.15 65.05 34.95 M 40.15 62.9 L 40.15 50.1 33.9 50.1 50 34.65 66.1 50.1 59.85 50.1 59.85 62.9 40.15 62.9 M 54.4 48.4 L 45.55 48.4 45.55 57.2 54.4 57.2 54.4 48.4 Z"
         id="path13000" />
      <path
         fill="#4196F3"
         stroke="none"
         d=" M 40.15 50.1 L 40.15 62.9 59.85 62.9 59.85 50.1 66.1 50.1 50 34.65 33.9 50.1 40.15 50.1 M 45.55 48.4 L 54.4 48.4 54.4 57.2 45.55 57.2 45.55 48.4 Z"
         id="path13002" />
    </g>
    <g
       id="Layer4_0_FILL">
      <path
         fill="#000000"
         stroke="none"
         d=" M 91.95 52.45 Q 92.0001953125 51.2380859375 92 50 92.000390625 44.5794921875 90.8 39.65 88.14765625 28.7162109375 79.6 20.2 79.4958984375 20.0982421875 79.45 19.95 69.5236328125 10.205078125 56.1 8.45 53.134765625 8.0494140625 50 8.05 47.367578125 8.0494140625 44.85 8.3 30.6828125 9.8798828125 20.15 20.2 7.9466796875 32.5548828125 7.95 50 7.947265625 67.394921875 20.15 79.7 20.223046875 79.772265625 20.25 79.85 32.632421875 92.0029296875 50 92 67.394140625 92.0015625 79.6 79.75 79.655078125 79.68984375 79.7 79.65 L 79.75 79.6 Q 91.12890625 68.219140625 91.95 52.45 M 87.35 50 Q 87.35 51.239453125 87.25 52.45 86.466796875 66.3365234375 76.35 76.45 65.4556640625 87.3478515625 50 87.35 34.5453125 87.3474609375 23.55 76.45 12.65234375 65.4546875 12.65 50 12.65234375 34.6255859375 23.4 23.7 23.4736328125 23.62421875 23.55 23.55 32.6669921875 14.5138671875 44.85 12.95 47.3599609375 12.650390625 50 12.65 53.14453125 12.650390625 56.1 13.1 67.672265625 14.8791015625 76.35 23.6 83.466015625 30.6810546875 85.95 39.65 87.349609375 44.544140625 87.35 50 Z"
         id="path13005" />
      <path
         fill="#1E1E1E"
         stroke="none"
         d=" M 87.25 52.45 Q 87.35 51.239453125 87.35 50 87.349609375 44.544140625 85.95 39.65 83.466015625 30.6810546875 76.35 23.6 67.672265625 14.8791015625 56.1 13.1 53.14453125 12.650390625 50 12.65 47.3599609375 12.650390625 44.85 12.95 32.6669921875 14.5138671875 23.55 23.55 23.4736328125 23.62421875 23.4 23.7 12.65234375 34.6255859375 12.65 50 12.65234375 65.4546875 23.55 76.45 34.5453125 87.3474609375 50 87.35 65.4556640625 87.3478515625 76.35 76.45 86.466796875 66.3365234375 87.25 52.45 M 44.85 19.55 Q 47.3435546875 19.199609375 50 19.2 53.1615234375 19.1994140625 56.1 19.75 64.962890625 21.439453125 71.8 28.2 71.873046875 28.273828125 71.95 28.3 76.9822265625 33.3791015625 79.15 39.65 80.8509765625 44.47265625 80.85 50 80.8501953125 51.2427734375 80.75 52.45 79.9779296875 63.6744140625 71.85 71.85 62.7947265625 80.85234375 50 80.85 37.284765625 80.8521484375 28.3 71.95 28.273828125 71.873046875 28.2 71.8 19.19765625 62.695703125 19.2 50 19.1978515625 37.2056640625 28.2 28.2 35.3359375 21.0669921875 44.85 19.55 Z"
         id="path13007" />
      <path
         fill="#4F4F4F"
         stroke="none"
         d=" M 50 19.2 Q 47.3435546875 19.199609375 44.85 19.55 35.3359375 21.0669921875 28.2 28.2 19.1978515625 37.2056640625 19.2 50 19.19765625 62.695703125 28.2 71.8 28.273828125 71.873046875 28.3 71.95 37.284765625 80.8521484375 50 80.85 62.7947265625 80.85234375 71.85 71.85 79.9779296875 63.6744140625 80.75 52.45 80.8501953125 51.2427734375 80.85 50 80.8509765625 44.47265625 79.15 39.65 76.9822265625 33.3791015625 71.95 28.3 71.873046875 28.273828125 71.8 28.2 64.962890625 21.439453125 56.1 19.75 53.1615234375 19.1994140625 50 19.2 M 44.85 23.25 Q 47.3298828125 22.800390625 50 22.8 53.18046875 22.800390625 56.1 23.45 63.5140625 25.0615234375 69.25 30.8 73.241015625 34.7892578125 75.2 39.65 77.1486328125 44.4076171875 77.15 50 77.149609375 51.2451171875 77.05 52.45 76.2732421875 62.1392578125 69.25 69.25 61.2546875 77.146875 50 77.15 38.69375 77.147265625 30.8 69.25 22.8013671875 61.2548828125 22.8 50 22.801953125 38.6935546875 30.75 30.8 L 30.8 30.75 Q 36.8294921875 24.67890625 44.85 23.25 Z"
         id="path13009" />
      <path
         fill="#3B3B3B"
         stroke="none"
         d=" M 50 22.8 Q 47.3298828125 22.800390625 44.85 23.25 36.8294921875 24.67890625 30.8 30.75 L 30.75 30.8 Q 22.801953125 38.6935546875 22.8 50 22.8013671875 61.2548828125 30.8 69.25 38.69375 77.147265625 50 77.15 61.2546875 77.146875 69.25 69.25 76.2732421875 62.1392578125 77.05 52.45 77.149609375 51.2451171875 77.15 50 77.1486328125 44.4076171875 75.2 39.65 73.241015625 34.7892578125 69.25 30.8 63.5140625 25.0615234375 56.1 23.45 53.18046875 22.800390625 50 22.8 M 68.75 39.85 Q 68.75 40.05 68.75 40.3 68.75 42.1 68.45 43.8 67.45 49.35 63.25 53.55 57.75 59.05 50 59.05 L 50 70.25 50 59.05 Q 42.25 59.05 36.75 53.55 32.55 49.35 31.55 43.8 31.25 42.1 31.25 40.3 31.25 40.05 31.25 39.85 31.25 40.05 31.25 40.3 31.25 42.1 31.55 43.8 32.55 49.35 36.75 53.55 42.25 59.05 50 59.05 57.75 59.05 63.25 53.55 67.45 49.35 68.45 43.8 68.75 42.1 68.75 40.3 68.75 40.05 68.75 39.85 Z"
         id="path13011" />
    </g>
    <g
       id="Layer3_0_FILL">
      <path
         fill="#353535"
         stroke="none"
         d=" M 84.95 77.8 Q 83.7 50.5 84.95 23.15 84.95 17.3 79.1 17.3 L 21.9 17.3 Q 16.05 17.3 16.05 23.15 17.3 50.5 16.05 77.8 16.05 83.65 21.9 83.65 L 79.1 83.65 Q 84.95 83.65 84.95 77.8 M 54.15 26.45 L 55.4 26.45 71.55 26.45 Q 75.8 26.45 75.8 30.7 74.65 50.5 75.8 70.25 75.8 74.45 71.55 74.45 L 55.4 74.45 54.15 74.45 29.45 74.45 Q 25.2 74.45 25.2 70.25 26.35 50.5 25.2 30.7 25.2 26.45 29.45 26.45 L 54.15 26.45 Z"
         id="path13014" />
      <path
         fill="#595959"
         stroke="none"
         d=" M 55.4 26.45 L 54.15 26.45 29.45 26.45 Q 25.2 26.45 25.2 30.7 26.35 50.5 25.2 70.25 25.2 74.45 29.45 74.45 L 54.15 74.45 55.4 74.45 71.55 74.45 Q 75.8 74.45 75.8 70.25 74.65 50.5 75.8 30.7 75.8 26.45 71.55 26.45 L 55.4 26.45 M 59 43.85 L 47.65 43.85 47.65 48.5 58.4 48.5 58.4 53.5 47.65 53.5 47.65 58.55 59.65 58.55 59.65 63.6 42.2 63.6 42.2 38.8 59 38.8 59 43.85 Z"
         id="path13016" />
      <path
         fill="#CDCDCD"
         stroke="none"
         d=" M 47.65 43.85 L 59 43.85 59 38.8 42.2 38.8 42.2 63.6 59.65 63.6 59.65 58.55 47.65 58.55 47.65 53.5 58.4 53.5 58.4 48.5 47.65 48.5 47.65 43.85 Z"
         id="path13018" />
    </g>
    <g
       id="Layer2_0_FILL">
      <path
         fill="#D7D7D7"
         stroke="none"
         d=" M 84.95 77.8 Q 83.7 50.5 84.95 23.15 84.95 17.3 79.1 17.3 L 21.9 17.3 Q 16.05 17.3 16.05 23.15 17.3 50.5 16.05 77.8 16.05 83.65 21.9 83.65 L 79.1 83.65 Q 84.95 83.65 84.95 77.8 M 55.4 26.45 L 71.55 26.45 Q 75.8 26.45 75.8 30.7 74.65 50.5 75.8 70.25 75.8 74.45 71.55 74.45 L 55.4 74.45 54.15 74.45 29.45 74.45 Q 25.2 74.45 25.2 70.25 26.35 50.5 25.2 30.7 25.2 26.45 29.45 26.45 L 54.15 26.45 55.4 26.45 Z"
         id="path13021" />
      <path
         fill="#F5F5F5"
         stroke="none"
         d=" M 71.55 26.45 L 55.4 26.45 54.15 26.45 29.45 26.45 Q 25.2 26.45 25.2 30.7 26.35 50.5 25.2 70.25 25.2 74.45 29.45 74.45 L 54.15 74.45 55.4 74.45 71.55 74.45 Q 75.8 74.45 75.8 70.25 74.65 50.5 75.8 30.7 75.8 26.45 71.55 26.45 M 59 43.85 L 47.65 43.85 47.65 48.5 58.4 48.5 58.4 53.5 47.65 53.5 47.65 58.55 59.65 58.55 59.65 63.6 42.2 63.6 42.2 38.8 59 38.8 59 43.85 Z"
         id="path13023" />
      <path
         fill="#404040"
         stroke="none"
         d=" M 47.65 43.85 L 59 43.85 59 38.8 42.2 38.8 42.2 63.6 59.65 63.6 59.65 58.55 47.65 58.55 47.65 53.5 58.4 53.5 58.4 48.5 47.65 48.5 47.65 43.85 Z"
         id="path13025" />
    </g>
    <g
       id="Layer1_0_FILL">
      <path
         fill="#1B1B1B"
         stroke="none"
         d=" M 78.55 21.4 L 78.6 21.4 Q 66.8 9.6 50 9.6 33.25 9.6 21.35 21.4 9.55 33.25 9.55 50 9.55 66.75 21.35 78.6 L 21.35 78.65 Q 33.25 90.45 50 90.45 66.75 90.45 78.55 78.65 L 78.6 78.6 Q 90.45 66.75 90.45 50 90.45 33.2 78.55 21.4 M 50 13.6 Q 65.1 13.6 75.75 24.25 86.45 34.9 86.45 50 86.45 65.1 75.75 75.8 65.1 86.45 50 86.45 34.9 86.45 24.2 75.8 L 24.15 75.8 Q 13.55 65.1 13.55 50 13.55 34.9 24.15 24.25 L 24.2 24.2 Q 34.9 13.6 50 13.6 Z"
         id="path13028" />
      <path
         fill="#313131"
         stroke="none"
         d=" M 75.75 24.25 Q 65.1 13.6 50 13.6 34.9 13.6 24.2 24.2 L 24.15 24.25 Q 13.55 34.9 13.55 50 13.55 65.1 24.15 75.8 L 24.2 75.8 Q 34.9 86.45 50 86.45 65.1 86.45 75.75 75.8 86.45 65.1 86.45 50 86.45 34.9 75.75 24.25 M 71.9 28.05 L 71.95 28.05 Q 81 37.1 81 50 81 62.85 71.95 71.95 62.85 81 50 81 37.1 81 28.05 71.95 L 28.05 71.9 Q 19 62.8 19 50 19 37.15 28.05 28.05 37.15 19 50 19 62.8 19 71.9 28.05 Z"
         id="path13030" />
      <path
         fill="#626262"
         stroke="none"
         d=" M 71.95 28.05 L 71.9 28.05 Q 62.8 19 50 19 37.15 19 28.05 28.05 19 37.15 19 50 19 62.8 28.05 71.9 L 28.05 71.95 Q 37.1 81 50 81 62.85 81 71.95 71.95 81 62.85 81 50 81 37.1 71.95 28.05 M 50 23 Q 61.2 23 69.1 30.9 77 38.8 77 50 77 61.15 69.1 69.1 61.15 77 50 77 38.8 77 30.9 69.1 23 61.2 23 50 23 38.8 30.85 30.9 L 30.9 30.85 Q 38.8 23 50 23 Z"
         id="path13032" />
      <path
         fill="#4F4F4F"
         stroke="none"
         d=" M 69.1 30.9 Q 61.2 23 50 23 38.8 23 30.9 30.85 L 30.85 30.9 Q 23 38.8 23 50 23 61.2 30.9 69.1 38.8 77 50 77 61.15 77 69.1 69.1 77 61.15 77 50 77 38.8 69.1 30.9 M 50.05 46.8 L 57.2 34.9 65.5 34.9 53.55 53.15 53.55 66.75 46.5 66.75 46.5 53.15 34.55 34.9 43.3 34.9 50.05 46.8 Z"
         id="path13034" />
      <path
         fill="#9A9A9A"
         stroke="none"
         d=" M 57.2 34.9 L 50.05 46.8 43.3 34.9 34.55 34.9 46.5 53.15 46.5 66.75 53.55 66.75 53.55 53.15 65.5 34.9 57.2 34.9 Z"
         id="path13036" />
    </g>
    <g
       id="Layer0_0_FILL">
      <path
         fill="#1B1B1B"
         stroke="none"
         d=" M 78.55 21.4 L 78.6 21.4 Q 66.8 9.6 50 9.6 33.25 9.6 21.35 21.4 9.55 33.25 9.55 50 9.55 66.75 21.35 78.6 L 21.35 78.65 Q 33.25 90.45 50 90.45 66.75 90.45 78.55 78.65 L 78.6 78.6 Q 90.45 66.75 90.45 50 90.45 33.2 78.55 21.4 M 50 13.6 Q 65.1 13.6 75.75 24.25 86.45 34.9 86.45 50 86.45 65.1 75.75 75.8 65.1 86.45 50 86.45 34.9 86.45 24.2 75.8 L 24.15 75.8 Q 13.55 65.1 13.55 50 13.55 34.9 24.15 24.25 L 24.2 24.2 Q 34.9 13.6 50 13.6 Z"
         id="path13039" />
      <path
         fill="#313131"
         stroke="none"
         d=" M 75.75 24.25 Q 65.1 13.6 50 13.6 34.9 13.6 24.2 24.2 L 24.15 24.25 Q 13.55 34.9 13.55 50 13.55 65.1 24.15 75.8 L 24.2 75.8 Q 34.9 86.45 50 86.45 65.1 86.45 75.75 75.8 86.45 65.1 86.45 50 86.45 34.9 75.75 24.25 M 71.9 28.05 L 71.95 28.05 Q 81 37.1 81 50 81 62.85 71.95 71.95 62.85 81 50 81 37.1 81 28.05 71.95 L 28.05 71.9 Q 19 62.8 19 50 19 37.15 28.05 28.05 37.15 19 50 19 62.8 19 71.9 28.05 Z"
         id="path13041" />
      <path
         fill="#626262"
         stroke="none"
         d=" M 71.95 28.05 L 71.9 28.05 Q 62.8 19 50 19 37.15 19 28.05 28.05 19 37.15 19 50 19 62.8 28.05 71.9 L 28.05 71.95 Q 37.1 81 50 81 62.85 81 71.95 71.95 81 62.85 81 50 81 37.1 71.95 28.05 M 50 23 Q 61.2 23 69.1 30.9 77 38.8 77 50 77 61.15 69.1 69.1 61.15 77 50 77 38.8 77 30.9 69.1 23 61.2 23 50 23 38.8 30.85 30.9 L 30.9 30.85 Q 38.8 23 50 23 Z"
         id="path13043" />
      <path
         fill="#4F4F4F"
         stroke="none"
         d=" M 69.1 30.9 Q 61.2 23 50 23 38.8 23 30.9 30.85 L 30.85 30.9 Q 23 38.8 23 50 23 61.2 30.9 69.1 38.8 77 50 77 61.15 77 69.1 69.1 77 61.15 77 50 77 38.8 69.1 30.9 M 51.35 33.25 Q 53.45 33.25 55.5 33.55 57.65 33.85 59.3 34.7 60.95 35.6 62 37.15 63 38.75 63 41.35 63 44.05 61.5 45.85 60 47.6 57.55 48.35 L 57.55 48.45 Q 59.1 48.7 60.4 49.3 61.65 50 62.55 51 63.5 52 64 53.35 64.5 54.7 64.5 56.25 64.5 58.75 63.4 60.45 62.35 62.15 60.6 63.15 58.9 64.2 56.75 64.65 54.65 65.1 52.55 65.1 L 39.5 65.1 39.5 33.25 51.35 33.25 M 55.95 58.35 Q 56.6 57.9 57.05 57.2 57.5 56.45 57.5 55.45 57.5 54.3 56.9 53.6 56.35 52.9 55.5 52.55 54.65 52.2 53.65 52.05 52.65 51.9 51.8 51.9 L 46.5 51.9 46.5 59.15 52.8 59.15 Q 53.6 59.15 54.45 59 55.3 58.8 55.95 58.35 M 46.5 39.15 L 46.5 46 51.6 46 Q 52.4 46 53.2 45.8 54 45.65 54.6 45.2 55.25 44.8 55.65 44.15 56 43.45 56 42.5 56 41.5 55.6 40.85 55.15 40.2 54.45 39.85 53.8 39.5 52.95 39.35 52.1 39.15 51.3 39.15 L 46.5 39.15 Z"
         id="path13045" />
      <path
         fill="#E33535"
         stroke="none"
         d=" M 55.5 33.55 Q 53.45 33.25 51.35 33.25 L 39.5 33.25 39.5 65.1 52.55 65.1 Q 54.65 65.1 56.75 64.65 58.9 64.2 60.6 63.15 62.35 62.15 63.4 60.45 64.5 58.75 64.5 56.25 64.5 54.7 64 53.35 63.5 52 62.55 51 61.65 50 60.4 49.3 59.1 48.7 57.55 48.45 L 57.55 48.35 Q 60 47.6 61.5 45.85 63 44.05 63 41.35 63 38.75 62 37.15 60.95 35.6 59.3 34.7 57.65 33.85 55.5 33.55 M 46.5 46 L 46.5 39.15 51.3 39.15 Q 52.1 39.15 52.95 39.35 53.8 39.5 54.45 39.85 55.15 40.2 55.6 40.85 56 41.5 56 42.5 56 43.45 55.65 44.15 55.25 44.8 54.6 45.2 54 45.65 53.2 45.8 52.4 46 51.6 46 L 46.5 46 M 57.05 57.2 Q 56.6 57.9 55.95 58.35 55.3 58.8 54.45 59 53.6 59.15 52.8 59.15 L 46.5 59.15 46.5 51.9 51.8 51.9 Q 52.65 51.9 53.65 52.05 54.65 52.2 55.5 52.55 56.35 52.9 56.9 53.6 57.5 54.3 57.5 55.45 57.5 56.45 57.05 57.2 Z"
         id="path13047" />
    </g>
    <path
       id="Layer22_0_1_STROKES"
       stroke="#D7D7D7"
       stroke-width="5"
       stroke-linejoin="round"
       stroke-linecap="round"
       fill="none"
       d=" M 95.6 50 Q 95.6 56.3 91.15 60.8 86.7 65.2 80.4 65.2 74.1 65.2 69.6 60.8 65.2 56.3 65.2 50 65.2 43.65 69.6 39.25 74.1 34.8 80.4 34.8 86.7 34.8 91.15 39.25 95.6 43.65 95.6 50 Z M 60.75 8.85 Q 65.2 13.3 65.2 19.6 65.2 25.95 60.75 30.35 56.35 34.85 50 34.85 43.7 34.85 39.2 30.35 34.8 25.95 34.8 19.6 34.8 13.3 39.2 8.85 43.7 4.4 50 4.4 56.35 4.4 60.75 8.85 Z M 8.85 39.25 Q 13.3 34.8 19.6 34.8 25.95 34.8 30.35 39.25 34.85 43.65 34.85 50 34.85 56.3 30.35 60.8 25.95 65.2 19.6 65.2 13.3 65.2 8.85 60.8 4.4 56.3 4.4 50 4.4 43.65 8.85 39.25 Z M 34.8 80.4 Q 34.8 74.1 39.2 69.6 43.7 65.2 50 65.2 56.35 65.2 60.75 69.6 65.2 74.1 65.2 80.4 65.2 86.7 60.75 91.15 56.35 95.6 50 95.6 43.7 95.6 39.2 91.15 34.8 86.7 34.8 80.4 Z" />
    <path
       id="Layer17_0_1_STROKES"
       stroke="#D08ED2"
       stroke-width="5"
       stroke-linejoin="round"
       stroke-linecap="round"
       fill="none"
       d=" M 34.95 65.1 L 34.95 34.95 65.1 34.95 65.1 65.1 34.95 65.1 Z" />
    <path
       id="Layer16_0_1_STROKES"
       stroke="#49DA7C"
       stroke-width="5"
       stroke-linejoin="round"
       stroke-linecap="round"
       fill="none"
       d=" M 32.95 62.3 L 50 31.05 67.05 62.3 32.95 62.3 Z" />
    <path
       id="Layer15_0_1_STROKES"
       stroke="#616161"
       stroke-width="4"
       stroke-linejoin="round"
       stroke-linecap="round"
       fill="none"
       d=" M 87.55 40.95 Q 88 41.3 88.05 41.85 89.3 50.05 88.05 58.25 88 58.75 87.55 59.15 87.15 59.5 86.6 59.5 L 73.1 59.5 Q 72.45 59.5 72 59.05 L 64.15 51.15 Q 63.7 50.7 63.7 50.1 63.75 49.45 64.15 49.05 L 72.2 41 Q 72.65 40.55 73.25 40.55 L 86.6 40.55 Q 87.15 40.55 87.55 40.95 Z M 40.85 12.45 Q 41.25 12 41.75 11.95 49.95 10.7 58.15 11.95 58.7 12 59.05 12.45 59.45 12.85 59.45 13.4 L 59.45 26.75 Q 59.45 27.35 59 27.8 L 51 35.8 Q 50.55 36.25 49.95 36.25 49.35 36.25 48.9 35.8 L 40.95 27.85 Q 40.5 27.4 40.5 26.8 L 40.5 13.4 Q 40.5 12.85 40.85 12.45 Z M 26.7 40.55 Q 27.3 40.55 27.75 41 L 35.75 48.95 Q 36.2 49.35 36.2 50 36.2 50.6 35.75 51.05 L 27.75 59.05 Q 27.3 59.5 26.7 59.5 L 13.4 59.5 Q 12.85 59.5 12.4 59.15 12 58.75 11.9 58.25 10.7 50.05 11.9 41.85 12 41.3 12.4 40.95 12.85 40.55 13.4 40.55 L 26.7 40.55 Z" />
    <path
       id="Layer15_0_2_STROKES"
       stroke="#202020"
       stroke-width="5"
       stroke-linejoin="round"
       stroke-linecap="round"
       fill="none"
       d=" M 34.5 70.2 L 29.8 65.5 7.25 65.5 Q 3.35 50.05 7.25 34.55 L 29.8 34.55 34.5 29.85 34.5 7.25 Q 49.95 3.35 65.45 7.25 L 65.45 29.85 70.15 34.55 92.75 34.55 Q 96.65 50.05 92.75 65.5 L 70 65.5 65.45 70.05 M 65.45 29.85 L 49.9 45.4 34.5 29.85 M 70.15 34.55 L 54.6 50.1 70 65.5 M 29.8 65.5 L 45.3 50 29.8 34.55" />
    <path
       id="Layer15_0_3_STROKES"
       stroke="#404040"
       stroke-width="5"
       stroke-linejoin="round"
       stroke-linecap="round"
       fill="none"
       d=" M 65.45 70.05 L 65.45 92.75 Q 49.95 96.65 34.5 92.75 L 34.5 70.2 50 54.7 65.45 70.05 Z" />
    <path
       id="Layer15_0_4_STROKES"
       stroke="#FFFFFF"
       stroke-width="4"
       stroke-linejoin="round"
       stroke-linecap="round"
       fill="none"
       d=" M 51.05 64.25 L 59 72.15 Q 59.45 72.55 59.45 73.2 L 59.45 86.6 Q 59.45 87.15 59.05 87.6 58.7 88 58.15 88.1 49.95 89.3 41.75 88.1 41.25 88 40.85 87.6 40.5 87.15 40.5 86.6 L 40.5 73.3 Q 40.5 72.7 40.95 72.25 L 48.95 64.25 Q 49.4 63.8 50 63.8 50.65 63.8 51.05 64.25 Z" />
    <path
       id="Layer14_0_1_STROKES"
       stroke="#757575"
       stroke-width="5"
       stroke-linejoin="round"
       stroke-linecap="round"
       fill="none"
       d=" M 50 24 Q 60.75 24 68.35 31.6 76 39.25 76 50 76 60.75 68.35 68.35 60.75 76 50 76 39.25 76 31.6 68.35 24 60.75 24 50 24 39.25 31.6 31.6 39.25 24 50 24 Z" />
    <path
       id="Layer14_0_2_STROKES"
       stroke="#FFFFFF"
       stroke-width="5"
       stroke-linejoin="round"
       stroke-linecap="round"
       fill="none"
       d=" M 50 38.6 L 50 48.55 M 58.05 42.75 Q 60.8 45.8 60.8 50 60.8 54.5 57.65 57.65 54.45 60.85 50 60.85 45.5 60.85 42.35 57.65 39.2 54.5 39.2 50 39.2 45.8 42 42.75" />
    <path
       id="Layer10_0_1_STROKES"
       stroke="#1B1B1B"
       stroke-width="5"
       stroke-linejoin="round"
       stroke-linecap="round"
       fill="none"
       d=" M 85.7 23.75 Q 93.5990234375 34.229296875 94.2 47.75 94.25 48.8646484375 94.25 50 94.25 68.35 81.3 81.3 68.35 94.25 50 94.25 31.65 94.25 18.7 81.3 5.75 68.35 5.75 50 5.75 31.65 18.7 18.7 31.65 5.75 50 5.75 68.35 5.75 81.3 18.7 83.730078125 21.130078125 85.7 23.75 Z" />
    <path
       id="Layer10_0_2_STROKES"
       stroke="#3B3B3B"
       stroke-width="4"
       stroke-linejoin="round"
       stroke-linecap="round"
       fill="none"
       d=" M 81.2 23.75 Q 90.00546875 34.032421875 90.7 47.75 90.75 48.9126953125 90.75 50.1 90.75 66.95 78.95 78.95 66.95 90.75 50.1 90.75 33.2 90.75 21.3 78.95 9.3 66.95 9.3 50.1 9.3 33.2 21.3 21.3 33.2 9.3 50.1 9.3 66.95 9.3 78.95 21.3 80.1396484375 22.499609375 81.2 23.75 Z" />
    <path
       id="Layer10_0_3_STROKES"
       stroke="#F5F5F5"
       stroke-width="4"
       stroke-linejoin="round"
       stroke-linecap="round"
       fill="none"
       d=" M 50 28.2 Q 59.05 28.2 65.45 34.6 71.8 41 71.8 50 71.8 59.05 65.45 65.45 59.05 71.8 50 71.8 41 71.8 34.6 65.45 28.2 59.05 28.2 50 28.2 41 34.6 34.6 41 28.2 50 28.2 Z" />
    <path
       id="Layer10_0_4_STROKES"
       stroke="#FFFFFF"
       stroke-width="4"
       stroke-linejoin="round"
       stroke-linecap="round"
       fill="none"
       d=" M 50 32 Q 57.45 32 62.75 37.3 67.95 42.55 67.95 50 67.95 57.45 62.75 62.75 57.45 67.95 50 67.95 42.55 67.95 37.3 62.75 32 57.45 32 50 32 42.55 37.3 37.3 42.55 32 50 32 Z" />
    <path
       id="Layer9_0_1_STROKES"
       stroke="#1B1B1B"
       stroke-width="5"
       stroke-linejoin="round"
       stroke-linecap="round"
       fill="none"
       d=" M 59.55 22.2 L 59.45 22.15 Q 54.4 13.85 44.55 10.55 34.6 7.2 25.45 11.05 16.45 14.8 13.55 23.35 13.4 23.45 13.35 23.6 10.6 32.15 15.35 40.65 L 15.45 40.65 Q 20.9 49.9 26.35 59.15 27.05 60.35 27.65 61.4 28.8 63.25 34.65 73.35 35.9 75.3 36.75 76.85 41.85 85.3 51.7 88.65 61.8 91.95 70.9 88.15 80.05 84.3 82.9 75.6 85.7 66.95 80.8 58.4 80 56.85 78.75 54.85 72.9 44.75 71.75 42.95 71.1 41.85 70.45 40.65 65 31.45 59.55 22.2 Z" />
    <path
       id="Layer8_0_1_STROKES"
       stroke="#FFFFFF"
       stroke-opacity="0.10196078431372549"
       stroke-width="3"
       stroke-linejoin="round"
       stroke-linecap="round"
       fill="none"
       d=" M 57.25 42.7 L 57.25 38 M 57.25 57.2 L 57.25 62 57.25 74.1 Q 57.25 77.1 55.15 79.2 53 81.35 50 81.35 47 81.35 44.9 79.2 42.75 77.1 42.75 74.1 L 42.75 57.2 25.85 57.2 Q 22.85 57.2 20.75 55.1 18.6 52.95 18.6 49.95 18.6 46.95 20.75 44.85 22.85 42.7 25.85 42.7 L 42.75 42.7 42.75 25.85 Q 42.75 23.25 44.35 21.3 44.65 20.95 44.9 20.7 47 18.6 50 18.6 53 18.6 55.15 20.7 55.4 20.95 55.65 21.25 57.25 23.2 57.25 25.85 L 57.25 38" />
    <path
       id="Layer8_0_2_STROKES"
       stroke="url(#Gradient_7)"
       stroke-width="3"
       stroke-linejoin="round"
       stroke-linecap="round"
       fill="none"
       d=" M 57.25 42.7 L 74.1 42.7 Q 77.1 42.7 79.25 44.85 81.35 46.95 81.35 49.95 81.35 52.95 79.25 55.1 77.1 57.2 74.1 57.2 L 57.25 57.2" />
    <path
       id="Layer7_0_1_STROKES"
       stroke="#54565A"
       stroke-width="5"
       stroke-linejoin="round"
       stroke-linecap="round"
       fill="none"
       d=" M 32.95 62.3 L 50 31.05 67.05 62.3 32.95 62.3 Z" />
    <path
       id="Layer6_0_1_STROKES"
       stroke="#626262"
       stroke-width="4"
       stroke-linejoin="round"
       stroke-linecap="round"
       fill="none"
       d=" M 65.45 42.35 L 85.45 42.35 Q 87.15 50 85.45 57.65 L 77.65 57.65 M 76.35 57.65 L 65.45 57.65 Q 62.35 57.65 60.15 59.85 57.95 62.05 57.95 65.15 L 57.95 85.45 Q 50.3 87.15 42.65 85.45 L 42.65 65.15 Q 42.65 62.05 40.45 59.85 38.25 57.65 35.15 57.65 L 14.65 57.65 Q 12.95 50 14.65 42.35 L 35.15 42.35" />
    <path
       id="Layer6_0_2_STROKES"
       stroke="#1B1B1B"
       stroke-width="5"
       stroke-linejoin="round"
       stroke-linecap="round"
       fill="none"
       d=" M 65.45 34.85 L 87.6 34.85 Q 92.35 35.85 92.95 40.2 94.9 50.4 92.95 59.8 92.25 64.05 87.6 65.15 L 65.45 65.15 65.45 87.6 Q 64.35 92.25 60.1 92.95 50.7 94.9 40.5 92.95 36.15 92.35 35.15 87.6 L 35.15 65.15 12.5 65.15 Q 7.85 64.05 7.15 59.8 5.2 50.4 7.15 40.2 7.75 35.85 12.5 34.85 L 35.15 34.85" />
    <path
       id="Layer6_0_3_STROKES"
       stroke="url(#Gradient_10)"
       stroke-width="4"
       stroke-linejoin="round"
       stroke-linecap="round"
       fill="none"
       d=" M 35.15 42.35 Q 38.25 42.35 40.45 40.15 42.65 37.95 42.65 34.85 L 42.65 14.65 Q 50.3 12.95 57.95 14.65 L 57.95 34.85 Q 57.95 37.95 60.15 40.15 62.35 42.35 65.45 42.35" />
    <path
       id="Layer6_0_4_STROKES"
       stroke="url(#Gradient_11)"
       stroke-width="5"
       stroke-linejoin="round"
       stroke-linecap="round"
       fill="none"
       d=" M 35.15 34.85 L 35.15 12.5 Q 36.15 7.75 40.5 7.15 50.7 5.2 60.1 7.15 64.35 7.85 65.45 12.5 L 65.45 34.85" />
    <path
       id="Layer4_0_1_STROKES"
       stroke="#EEB135"
       stroke-width="6"
       stroke-linejoin="round"
       stroke-linecap="round"
       fill="none"
       d=" M 68.75 39.85 Q 68.75 40.05 68.75 40.3 68.75 42.1 68.45 43.8 67.45 49.35 63.25 53.55 57.75 59.05 50 59.05 L 50 70.25 M 50 59.05 Q 42.25 59.05 36.75 53.55 32.55 49.35 31.55 43.8 31.25 42.1 31.25 40.3 31.25 40.05 31.25 39.85" />
    <path
       id="Layer3_0_1_STROKES"
       stroke="#1D1D1D"
       stroke-width="5"
       stroke-linejoin="round"
       stroke-linecap="round"
       fill="none"
       d=" M 84.95 23.15 Q 83.7 50.5 84.95 77.8 84.95 83.65 79.1 83.65 L 21.9 83.65 Q 16.05 83.65 16.05 77.8 17.3 50.5 16.05 23.15 16.05 17.3 21.9 17.3 L 79.1 17.3 Q 84.95 17.3 84.95 23.15 Z" />
    <path
       id="Layer3_0_2_STROKES"
       stroke="#696969"
       stroke-width="4"
       stroke-linejoin="round"
       stroke-linecap="round"
       fill="none"
       d=" M 54.15 26.45 L 29.45 26.45 Q 25.2 26.45 25.2 30.7 26.35 50.5 25.2 70.25 25.2 74.45 29.45 74.45 L 54.15 74.45 M 55.4 74.45 L 71.55 74.45 Q 75.8 74.45 75.8 70.25 74.65 50.5 75.8 30.7 75.8 26.45 71.55 26.45 L 55.4 26.45" />
    <path
       id="Layer2_0_1_STROKES"
       stroke="#404040"
       stroke-width="5"
       stroke-linejoin="round"
       stroke-linecap="round"
       fill="none"
       d=" M 84.95 23.15 Q 83.7 50.5 84.95 77.8 84.95 83.65 79.1 83.65 L 21.9 83.65 Q 16.05 83.65 16.05 77.8 17.3 50.5 16.05 23.15 16.05 17.3 21.9 17.3 L 79.1 17.3 Q 84.95 17.3 84.95 23.15 Z" />
    <path
       id="Layer2_0_2_STROKES"
       stroke="#FFFFFF"
       stroke-width="4"
       stroke-linejoin="round"
       stroke-linecap="round"
       fill="none"
       d=" M 55.4 74.45 L 71.55 74.45 Q 75.8 74.45 75.8 70.25 74.65 50.5 75.8 30.7 75.8 26.45 71.55 26.45 L 55.4 26.45 M 54.15 26.45 L 29.45 26.45 Q 25.2 26.45 25.2 30.7 26.35 50.5 25.2 70.25 25.2 74.45 29.45 74.45 L 54.15 74.45" />
  </defs>
  <g
     id="g13082"
     style="display:none">
    <use
       xlink:href="#Layer22_0_FILL"
       id="use13078" />
    <use
       xlink:href="#Layer22_0_1_STROKES"
       id="use13080" />
  </g>
  <g
     id="g13086"
     style="display:none">
    <use
       xlink:href="#Layer21_0_FILL"
       id="use13084" />
  </g>
  <g
     transform="matrix(0.86602783,0.49998474,-0.49998474,0.86602783,43.7,53.6)"
     id="g13092"
     style="display:none">
    <g
       id="g13090">
      <use
         xlink:href="#FingerSide_0_Layer0_0_FILL"
         id="use13088" />
    </g>
  </g>
  <g
     id="g13096"
     style="display:none">
    <use
       xlink:href="#Layer20_0_FILL"
       id="use13094" />
  </g>
  <g
     id="g13100"
     style="display:none">
    <use
       xlink:href="#Layer19_0_FILL"
       id="use13098" />
  </g>
  <g
     id="g13104"
     style="display:none">
    <use
       xlink:href="#Layer18_0_FILL"
       id="use13102" />
  </g>
  <g
     id="g13110"
     style="display:none">
    <use
       xlink:href="#Layer17_0_FILL"
       id="use13106" />
    <use
       xlink:href="#Layer17_0_1_STROKES"
       id="use13108" />
  </g>
  <g
     id="g13116"
     style="display:none">
    <use
       xlink:href="#Layer16_0_FILL"
       id="use13112" />
    <use
       xlink:href="#Layer16_0_1_STROKES"
       id="use13114" />
  </g>
  <g
     id="g13128"
     style="display:none">
    <use
       xlink:href="#Layer15_0_FILL"
       id="use13118" />
    <use
       xlink:href="#Layer15_0_1_STROKES"
       id="use13120" />
    <use
       xlink:href="#Layer15_0_2_STROKES"
       id="use13122" />
    <use
       xlink:href="#Layer15_0_3_STROKES"
       id="use13124" />
    <use
       xlink:href="#Layer15_0_4_STROKES"
       id="use13126" />
  </g>
  <g
     id="g13136"
     style="display:none">
    <use
       xlink:href="#Layer14_0_FILL"
       id="use13130" />
    <use
       xlink:href="#Layer14_0_1_STROKES"
       id="use13132" />
    <use
       xlink:href="#Layer14_0_2_STROKES"
       id="use13134" />
  </g>
  <g
     id="g13140"
     style="display:none">
    <use
       xlink:href="#Layer13_0_FILL"
       id="use13138" />
  </g>
  <g
     id="g13144"
     style="display:none">
    <use
       xlink:href="#Layer12_0_FILL"
       id="use13142" />
  </g>
  <g
     id="g13148"
     style="display:none">
    <use
       xlink:href="#Layer11_0_FILL"
       id="use13146" />
  </g>
  <g
     id="g13160"
     style="display:none">
    <use
       xlink:href="#Layer10_0_FILL"
       id="use13150" />
    <use
       xlink:href="#Layer10_0_1_STROKES"
       id="use13152" />
    <use
       xlink:href="#Layer10_0_2_STROKES"
       id="use13154" />
    <use
       xlink:href="#Layer10_0_3_STROKES"
       id="use13156" />
    <use
       xlink:href="#Layer10_0_4_STROKES"
       id="use13158" />
  </g>
  <g
     id="g13166"
     style="display:none">
    <use
       xlink:href="#Layer9_0_FILL"
       id="use13162" />
    <use
       xlink:href="#Layer9_0_1_STROKES"
       id="use13164" />
  </g>
  <g
     id="g13174"
     style="display:none">
    <use
       xlink:href="#Layer8_0_FILL"
       id="use13168" />
    <use
       xlink:href="#Layer8_0_1_STROKES"
       id="use13170" />
    <use
       xlink:href="#Layer8_0_2_STROKES"
       id="use13172" />
  </g>
  <g
     id="g13180"
     style="display:none">
    <use
       xlink:href="#Layer7_0_FILL"
       id="use13176" />
    <use
       xlink:href="#Layer7_0_1_STROKES"
       id="use13178" />
  </g>
  <g
     id="g13192"
     style="display:none">
    <use
       xlink:href="#Layer6_0_FILL"
       id="use13182" />
    <use
       xlink:href="#Layer6_0_1_STROKES"
       id="use13184" />
    <use
       xlink:href="#Layer6_0_2_STROKES"
       id="use13186" />
    <use
       xlink:href="#Layer6_0_3_STROKES"
       id="use13188" />
    <use
       xlink:href="#Layer6_0_4_STROKES"
       id="use13190" />
  </g>
  <g
     id="g13196"
     style="display:none">
    <use
       xlink:href="#Layer5_0_FILL"
       id="use13194" />
  </g>
  <g
     id="g13202"
     style="display:none">
    <use
       xlink:href="#Layer4_0_FILL"
       id="use13198" />
    <use
       xlink:href="#Layer4_0_1_STROKES"
       id="use13200" />
  </g>
  <g
     transform="matrix( 1, 0, 0, 1, 0,0) "
     id="g13210">
    <use
       xlink:href="#Layer3_0_FILL"
       id="use13204" />
    <use
       xlink:href="#Layer3_0_1_STROKES"
       id="use13206" />
    <use
       xlink:href="#Layer3_0_2_STROKES"
       id="use13208" />
  </g>
  <g
     id="g13218"
     style="display:none">
    <use
       xlink:href="#Layer2_0_FILL"
       id="use13212" />
    <use
       xlink:href="#Layer2_0_1_STROKES"
       id="use13214" />
    <use
       xlink:href="#Layer2_0_2_STROKES"
       id="use13216" />
  </g>
  <g
     id="g13222"
     style="display:none">
    <use
       xlink:href="#Layer1_0_FILL"
       id="use13220" />
  </g>
  <g
     id="g13226"
     style="display:none">
    <use
       xlink:href="#Layer0_0_FILL"
       id="use13224" />
  </g>
</svg>
