<?xml version="1.0" encoding="UTF-8" standalone="no"?>
<svg
   version="1.1"
   preserveAspectRatio="none"
   x="0px"
   y="0px"
   width="100px"
   height="100px"
   viewBox="0 0 100 100"
   id="svg36"
   sodipodi:docname="Vector Source0073.svg"
   inkscape:version="1.2.1 (9c6d41e410, 2022-07-14)"
   xmlns:inkscape="http://www.inkscape.org/namespaces/inkscape"
   xmlns:sodipodi="http://sodipodi.sourceforge.net/DTD/sodipodi-0.dtd"
   xmlns:xlink="http://www.w3.org/1999/xlink"
   xmlns="http://www.w3.org/2000/svg"
   xmlns:svg="http://www.w3.org/2000/svg">
  <sodipodi:namedview
     id="namedview38"
     pagecolor="#ffffff"
     bordercolor="#000000"
     borderopacity="0.25"
     inkscape:showpageshadow="2"
     inkscape:pageopacity="0.0"
     inkscape:pagecheckerboard="0"
     inkscape:deskcolor="#d1d1d1"
     showgrid="false"
     inkscape:zoom="10.27"
     inkscape:cx="42.55112"
     inkscape:cy="50"
     inkscape:window-width="2400"
     inkscape:window-height="1261"
     inkscape:window-x="5591"
     inkscape:window-y="431"
     inkscape:window-maximized="1"
     inkscape:current-layer="svg36" />
  <defs
     id="defs22">
    <g
       id="Layer3_0_FILL">
      <path
         fill="#353535"
         stroke="none"
         d=" M 92.95 14.65 Q 92.95 9.65 87.95 9.65 L 56.8 9.65 Q 53.05 9.75 52.3 12.85 L 52.3 28.25 Q 51.7 31.75 47.7 31.9 L 13.05 31.9 Q 8.05 31.9 8.05 36.9 9.1 60.3 8.05 83.6 8.05 88.6 13.05 88.6 L 87.95 88.6 Q 92.95 88.6 92.95 83.6 92.4 71.45 92.4 59.3 92.4 25.85 92.95 14.65 M 81.6 15.5 Q 87.05 15.55 87.1 21 87.1 21.05 87.1 21.1 87.1 21.15 87.1 21.2 L 87.1 21.3 Q 86.65 29.35 86.65 59.3 86.6 68.15 87.1 77 L 87.1 77.05 Q 87.1 77.1 87.1 77.15 87.1 77.25 87.1 77.35 87 82.7 81.6 82.75 L 67.7 82.75 Q 67.4 82.75 67.15 82.7 66.9 82.75 66.6 82.75 L 19.4 82.75 Q 13.9 82.7 13.85 77.25 L 13.85 77.15 Q 13.85 77.1 13.85 77.05 L 13.85 76.95 Q 14.85 60.3 13.85 43.55 L 13.85 43.5 Q 13.85 43.4 13.85 43.35 L 13.85 43.25 Q 13.9 37.8 19.4 37.75 L 57.85 37.75 57.85 21.15 Q 57.95 15.9 63.3 15.5 L 63.35 15.5 Q 63.45 15.5 63.5 15.5 L 81.6 15.5 Z"
         id="path2" />
      <path
         fill="#696969"
         stroke="none"
         d=" M 87.1 21 Q 87.05 15.55 81.6 15.5 L 63.5 15.5 Q 63.45 15.5 63.35 15.5 L 63.3 15.5 Q 57.95 15.9 57.85 21.15 L 57.85 37.75 19.4 37.75 Q 13.9 37.8 13.85 43.25 L 13.85 43.35 Q 13.85 43.4 13.85 43.5 L 13.85 43.55 Q 14.85 60.3 13.85 76.95 L 13.85 77.05 Q 13.85 77.1 13.85 77.15 L 13.85 77.25 Q 13.9 82.7 19.4 82.75 L 66.6 82.75 Q 66.9 82.75 67.15 82.7 67.4 82.75 67.7 82.75 L 81.6 82.75 Q 87 82.7 87.1 77.35 87.1 77.25 87.1 77.15 87.1 77.1 87.1 77.05 L 87.1 77 Q 86.6 68.15 86.65 59.3 86.65 29.35 87.1 21.3 L 87.1 21.2 Q 87.1 21.15 87.1 21.1 87.1 21.05 87.1 21 M 83.1 21 Q 83.1 21.05 83.1 21.1 82.65 29.2 82.65 59.3 82.6 68.25 83.1 77.15 83.1 77.2 83.1 77.25 83.05 78.7 81.55 78.75 L 67.7 78.75 Q 67.4 78.75 67.15 78.85 66.9 78.75 66.6 78.75 L 19.45 78.75 Q 17.95 78.75 17.85 77.3 18.85 60.3 17.85 43.25 17.95 41.75 19.45 41.75 L 59.85 41.75 Q 60.7 41.75 61.3 41.2 61.85 40.6 61.85 39.75 L 61.85 21.25 Q 61.9 19.6 63.65 19.5 L 81.55 19.5 Q 83.05 19.55 83.1 21 Z"
         id="path4" />
      <path
         fill="#595959"
         stroke="none"
         d=" M 83.1 21.1 Q 83.1 21.05 83.1 21 83.05 19.55 81.55 19.5 L 63.65 19.5 Q 61.9 19.6 61.85 21.25 L 61.85 39.75 Q 61.85 40.6 61.3 41.2 60.7 41.75 59.85 41.75 L 19.45 41.75 Q 17.95 41.75 17.85 43.25 18.85 60.3 17.85 77.3 17.95 78.75 19.45 78.75 L 66.6 78.75 Q 66.9 78.75 67.15 78.85 67.4 78.75 67.7 78.75 L 81.55 78.75 Q 83.05 78.7 83.1 77.25 83.1 77.2 83.1 77.15 82.6 68.25 82.65 59.3 82.65 29.2 83.1 21.1 M 40.35 60.15 Q 40.25 60.65 40.25 61.15 L 40.25 66.5 36.95 66.5 36.95 55.8 40.15 55.8 40.15 57.25 40.2 57.25 Q 40.35 56.95 40.6 56.65 40.9 56.35 41.3 56.1 41.7 55.85 42.2 55.7 42.7 55.55 43.3 55.55 44.55 55.55 45.35 55.95 46.1 56.3 46.5 57 46.95 57.7 47.1 58.6 47.25 59.55 47.25 60.6 L 47.25 66.5 43.95 66.5 43.95 61.25 Q 43.95 60.8 43.95 60.3 43.9 59.8 43.75 59.4 43.55 58.95 43.2 58.7 42.9 58.45 42.25 58.45 41.6 58.45 41.2 58.7 40.8 58.9 40.6 59.3 40.4 59.7 40.35 60.15 M 34.25 50.9 L 34.25 54.1 27.1 54.1 27.1 57 33.85 57 33.85 60.15 27.1 60.15 27.1 63.35 34.65 63.35 34.65 66.5 23.65 66.5 23.65 50.9 34.25 50.9 M 77.65 55.55 Q 77.9 55.55 78.2 55.55 78.5 55.6 78.75 55.65 L 78.75 58.65 Q 78.4 58.55 78.05 58.5 77.7 58.45 77.35 58.45 76.4 58.45 75.85 58.7 75.3 58.95 75 59.45 74.7 59.9 74.6 60.6 74.5 61.25 74.5 62.05 L 74.5 66.5 71.2 66.5 71.2 55.8 74.5 55.8 74.5 57.5 74.55 57.5 Q 75.1 56.55 75.8 56.05 76.55 55.55 77.65 55.55 M 66.25 55.95 Q 67.2 56.35 67.85 57.05 68.5 57.8 68.85 58.85 69.2 59.9 69.2 61.15 L 69.2 62.2 61.55 62.2 Q 61.75 63.15 62.4 63.7 63.05 64.25 64 64.25 64.85 64.25 65.4 63.9 65.95 63.55 66.4 62.95 L 68.7 64.65 Q 67.9 65.65 66.7 66.2 65.5 66.75 64.2 66.75 62.95 66.75 61.85 66.35 60.75 65.95 59.95 65.25 59.15 64.5 58.7 63.45 58.25 62.45 58.25 61.15 58.25 59.9 58.7 58.85 59.15 57.8 59.95 57.05 60.75 56.35 61.85 55.95 62.95 55.55 64.2 55.55 65.3 55.55 66.25 55.95 M 50.7 52.65 L 54 52.65 54 55.8 56.9 55.8 56.9 58.45 54 58.45 54 62 Q 54 62.45 54.05 62.8 54.1 63.2 54.25 63.45 54.4 63.7 54.7 63.85 55 64 55.55 64 55.8 64 56.25 63.95 56.7 63.9 56.9 63.7 L 56.9 66.45 Q 56.35 66.65 55.75 66.7 55.15 66.75 54.6 66.75 53.75 66.75 53.05 66.6 52.35 66.4 51.8 66.05 51.3 65.65 51 65.05 50.7 64.4 50.7 63.55 L 50.7 58.45 48.6 58.45 48.6 55.8 50.7 55.8 50.7 52.65 M 65.35 58.5 Q 64.75 57.9 63.85 57.9 63.3 57.9 62.9 58.1 62.5 58.25 62.2 58.55 61.9 58.8 61.7 59.2 61.55 59.55 61.55 59.95 L 65.9 59.95 Q 65.9 59.1 65.35 58.5 Z"
         id="path6" />
      <path
         fill="#CDCDCD"
         stroke="none"
         d=" M 54 52.65 L 50.7 52.65 50.7 55.8 48.6 55.8 48.6 58.45 50.7 58.45 50.7 63.55 Q 50.7 64.4 51 65.05 51.3 65.65 51.8 66.05 52.35 66.4 53.05 66.6 53.75 66.75 54.6 66.75 55.15 66.75 55.75 66.7 56.35 66.65 56.9 66.45 L 56.9 63.7 Q 56.7 63.9 56.25 63.95 55.8 64 55.55 64 55 64 54.7 63.85 54.4 63.7 54.25 63.45 54.1 63.2 54.05 62.8 54 62.45 54 62 L 54 58.45 56.9 58.45 56.9 55.8 54 55.8 54 52.65 M 67.85 57.05 Q 67.2 56.35 66.25 55.95 65.3 55.55 64.2 55.55 62.95 55.55 61.85 55.95 60.75 56.35 59.95 57.05 59.15 57.8 58.7 58.85 58.25 59.9 58.25 61.15 58.25 62.45 58.7 63.45 59.15 64.5 59.95 65.25 60.75 65.95 61.85 66.35 62.95 66.75 64.2 66.75 65.5 66.75 66.7 66.2 67.9 65.65 68.7 64.65 L 66.4 62.95 Q 65.95 63.55 65.4 63.9 64.85 64.25 64 64.25 63.05 64.25 62.4 63.7 61.75 63.15 61.55 62.2 L 69.2 62.2 69.2 61.15 Q 69.2 59.9 68.85 58.85 68.5 57.8 67.85 57.05 M 63.85 57.9 Q 64.75 57.9 65.35 58.5 65.9 59.1 65.9 59.95 L 61.55 59.95 Q 61.55 59.55 61.7 59.2 61.9 58.8 62.2 58.55 62.5 58.25 62.9 58.1 63.3 57.9 63.85 57.9 M 78.2 55.55 Q 77.9 55.55 77.65 55.55 76.55 55.55 75.8 56.05 75.1 56.55 74.55 57.5 L 74.5 57.5 74.5 55.8 71.2 55.8 71.2 66.5 74.5 66.5 74.5 62.05 Q 74.5 61.25 74.6 60.6 74.7 59.9 75 59.45 75.3 58.95 75.85 58.7 76.4 58.45 77.35 58.45 77.7 58.45 78.05 58.5 78.4 58.55 78.75 58.65 L 78.75 55.65 Q 78.5 55.6 78.2 55.55 M 34.25 54.1 L 34.25 50.9 23.65 50.9 23.65 66.5 34.65 66.5 34.65 63.35 27.1 63.35 27.1 60.15 33.85 60.15 33.85 57 27.1 57 27.1 54.1 34.25 54.1 M 40.25 61.15 Q 40.25 60.65 40.35 60.15 40.4 59.7 40.6 59.3 40.8 58.9 41.2 58.7 41.6 58.45 42.25 58.45 42.9 58.45 43.2 58.7 43.55 58.95 43.75 59.4 43.9 59.8 43.95 60.3 43.95 60.8 43.95 61.25 L 43.95 66.5 47.25 66.5 47.25 60.6 Q 47.25 59.55 47.1 58.6 46.95 57.7 46.5 57 46.1 56.3 45.35 55.95 44.55 55.55 43.3 55.55 42.7 55.55 42.2 55.7 41.7 55.85 41.3 56.1 40.9 56.35 40.6 56.65 40.35 56.95 40.2 57.25 L 40.15 57.25 40.15 55.8 36.95 55.8 36.95 66.5 40.25 66.5 40.25 61.15 Z"
         id="path8" />
    </g>
    <g
       id="Layer2_0_FILL">
      <path
         fill="#D7D7D7"
         stroke="none"
         d=" M 92.95 14.65 Q 92.95 9.65 87.95 9.65 L 56.8 9.65 Q 53.05 9.75 52.3 12.85 L 52.3 28.25 Q 51.7 31.75 47.7 31.9 L 13.05 31.9 Q 8.05 31.9 8.05 36.9 9.1 60.3 8.05 83.6 8.05 88.6 13.05 88.6 L 87.95 88.6 Q 92.95 88.6 92.95 83.6 92.4 71.45 92.4 59.3 92.4 25.85 92.95 14.65 M 87.1 21.2 L 87.1 21.3 Q 86.65 29.35 86.65 59.3 86.6 68.15 87.1 77 L 87.1 77.05 Q 87.1 77.1 87.1 77.15 87.1 77.25 87.1 77.35 87 82.7 81.6 82.75 L 67.7 82.75 Q 67.4 82.75 67.15 82.7 66.9 82.75 66.6 82.75 L 19.4 82.75 Q 13.9 82.7 13.85 77.25 L 13.85 77.15 Q 13.85 77.1 13.85 77.05 L 13.85 76.95 Q 14.85 60.3 13.85 43.55 L 13.85 43.5 Q 13.85 43.4 13.85 43.35 L 13.85 43.25 Q 13.9 37.8 19.4 37.75 L 57.85 37.75 57.85 21.15 Q 57.95 15.9 63.3 15.5 L 63.35 15.5 Q 63.45 15.5 63.5 15.5 L 81.6 15.5 Q 87.05 15.55 87.1 21 87.1 21.05 87.1 21.1 87.1 21.15 87.1 21.2 Z"
         id="path11" />
      <path
         fill="#FFFFFF"
         stroke="none"
         d=" M 87.1 21.3 L 87.1 21.2 Q 87.1 21.15 87.1 21.1 87.1 21.05 87.1 21 87.05 15.55 81.6 15.5 L 63.5 15.5 Q 63.45 15.5 63.35 15.5 L 63.3 15.5 Q 57.95 15.9 57.85 21.15 L 57.85 37.75 19.4 37.75 Q 13.9 37.8 13.85 43.25 L 13.85 43.35 Q 13.85 43.4 13.85 43.5 L 13.85 43.55 Q 14.85 60.3 13.85 76.95 L 13.85 77.05 Q 13.85 77.1 13.85 77.15 L 13.85 77.25 Q 13.9 82.7 19.4 82.75 L 66.6 82.75 Q 66.9 82.75 67.15 82.7 67.4 82.75 67.7 82.75 L 81.6 82.75 Q 87 82.7 87.1 77.35 87.1 77.25 87.1 77.15 87.1 77.1 87.1 77.05 L 87.1 77 Q 86.6 68.15 86.65 59.3 86.65 29.35 87.1 21.3 M 83.1 21 Q 83.1 21.05 83.1 21.1 82.65 29.2 82.65 59.3 82.6 68.25 83.1 77.15 83.1 77.2 83.1 77.25 83.05 78.7 81.55 78.75 L 67.7 78.75 Q 67.4 78.75 67.15 78.85 66.9 78.75 66.6 78.75 L 19.45 78.75 Q 17.95 78.75 17.85 77.3 18.85 60.3 17.85 43.25 17.95 41.75 19.45 41.75 L 59.85 41.75 Q 60.7 41.75 61.3 41.2 61.85 40.6 61.85 39.75 L 61.85 21.25 Q 61.9 19.6 63.65 19.5 L 81.55 19.5 Q 83.05 19.55 83.1 21 Z"
         id="path13" />
      <path
         fill="#F5F5F5"
         stroke="none"
         d=" M 83.1 21.1 Q 83.1 21.05 83.1 21 83.05 19.55 81.55 19.5 L 63.65 19.5 Q 61.9 19.6 61.85 21.25 L 61.85 39.75 Q 61.85 40.6 61.3 41.2 60.7 41.75 59.85 41.75 L 19.45 41.75 Q 17.95 41.75 17.85 43.25 18.85 60.3 17.85 77.3 17.95 78.75 19.45 78.75 L 66.6 78.75 Q 66.9 78.75 67.15 78.85 67.4 78.75 67.7 78.75 L 81.55 78.75 Q 83.05 78.7 83.1 77.25 83.1 77.2 83.1 77.15 82.6 68.25 82.65 59.3 82.65 29.2 83.1 21.1 M 40.35 60.15 Q 40.25 60.65 40.25 61.15 L 40.25 66.5 36.95 66.5 36.95 55.8 40.15 55.8 40.15 57.25 40.2 57.25 Q 40.35 56.95 40.6 56.65 40.9 56.35 41.3 56.1 41.7 55.85 42.2 55.7 42.7 55.55 43.3 55.55 44.55 55.55 45.35 55.95 46.1 56.3 46.5 57 46.95 57.7 47.1 58.6 47.25 59.55 47.25 60.6 L 47.25 66.5 43.95 66.5 43.95 61.25 Q 43.95 60.8 43.95 60.3 43.9 59.8 43.75 59.4 43.55 58.95 43.2 58.7 42.9 58.45 42.25 58.45 41.6 58.45 41.2 58.7 40.8 58.9 40.6 59.3 40.4 59.7 40.35 60.15 M 34.25 50.9 L 34.25 54.1 27.1 54.1 27.1 57 33.85 57 33.85 60.15 27.1 60.15 27.1 63.35 34.65 63.35 34.65 66.5 23.65 66.5 23.65 50.9 34.25 50.9 M 77.65 55.55 Q 77.9 55.55 78.2 55.55 78.5 55.6 78.75 55.65 L 78.75 58.65 Q 78.4 58.55 78.05 58.5 77.7 58.45 77.35 58.45 76.4 58.45 75.85 58.7 75.3 58.95 75 59.45 74.7 59.9 74.6 60.6 74.5 61.25 74.5 62.05 L 74.5 66.5 71.2 66.5 71.2 55.8 74.5 55.8 74.5 57.5 74.55 57.5 Q 75.1 56.55 75.8 56.05 76.55 55.55 77.65 55.55 M 66.25 55.95 Q 67.2 56.35 67.85 57.05 68.5 57.8 68.85 58.85 69.2 59.9 69.2 61.15 L 69.2 62.2 61.55 62.2 Q 61.75 63.15 62.4 63.7 63.05 64.25 64 64.25 64.85 64.25 65.4 63.9 65.95 63.55 66.4 62.95 L 68.7 64.65 Q 67.9 65.65 66.7 66.2 65.5 66.75 64.2 66.75 62.95 66.75 61.85 66.35 60.75 65.95 59.95 65.25 59.15 64.5 58.7 63.45 58.25 62.45 58.25 61.15 58.25 59.9 58.7 58.85 59.15 57.8 59.95 57.05 60.75 56.35 61.85 55.95 62.95 55.55 64.2 55.55 65.3 55.55 66.25 55.95 M 50.7 52.65 L 54 52.65 54 55.8 56.9 55.8 56.9 58.45 54 58.45 54 62 Q 54 62.45 54.05 62.8 54.1 63.2 54.25 63.45 54.4 63.7 54.7 63.85 55 64 55.55 64 55.8 64 56.25 63.95 56.7 63.9 56.9 63.7 L 56.9 66.45 Q 56.35 66.65 55.75 66.7 55.15 66.75 54.6 66.75 53.75 66.75 53.05 66.6 52.35 66.4 51.8 66.05 51.3 65.65 51 65.05 50.7 64.4 50.7 63.55 L 50.7 58.45 48.6 58.45 48.6 55.8 50.7 55.8 50.7 52.65 M 65.35 58.5 Q 64.75 57.9 63.85 57.9 63.3 57.9 62.9 58.1 62.5 58.25 62.2 58.55 61.9 58.8 61.7 59.2 61.55 59.55 61.55 59.95 L 65.9 59.95 Q 65.9 59.1 65.35 58.5 Z"
         id="path15" />
      <path
         fill="#404040"
         stroke="none"
         d=" M 54 52.65 L 50.7 52.65 50.7 55.8 48.6 55.8 48.6 58.45 50.7 58.45 50.7 63.55 Q 50.7 64.4 51 65.05 51.3 65.65 51.8 66.05 52.35 66.4 53.05 66.6 53.75 66.75 54.6 66.75 55.15 66.75 55.75 66.7 56.35 66.65 56.9 66.45 L 56.9 63.7 Q 56.7 63.9 56.25 63.95 55.8 64 55.55 64 55 64 54.7 63.85 54.4 63.7 54.25 63.45 54.1 63.2 54.05 62.8 54 62.45 54 62 L 54 58.45 56.9 58.45 56.9 55.8 54 55.8 54 52.65 M 67.85 57.05 Q 67.2 56.35 66.25 55.95 65.3 55.55 64.2 55.55 62.95 55.55 61.85 55.95 60.75 56.35 59.95 57.05 59.15 57.8 58.7 58.85 58.25 59.9 58.25 61.15 58.25 62.45 58.7 63.45 59.15 64.5 59.95 65.25 60.75 65.95 61.85 66.35 62.95 66.75 64.2 66.75 65.5 66.75 66.7 66.2 67.9 65.65 68.7 64.65 L 66.4 62.95 Q 65.95 63.55 65.4 63.9 64.85 64.25 64 64.25 63.05 64.25 62.4 63.7 61.75 63.15 61.55 62.2 L 69.2 62.2 69.2 61.15 Q 69.2 59.9 68.85 58.85 68.5 57.8 67.85 57.05 M 63.85 57.9 Q 64.75 57.9 65.35 58.5 65.9 59.1 65.9 59.95 L 61.55 59.95 Q 61.55 59.55 61.7 59.2 61.9 58.8 62.2 58.55 62.5 58.25 62.9 58.1 63.3 57.9 63.85 57.9 M 78.2 55.55 Q 77.9 55.55 77.65 55.55 76.55 55.55 75.8 56.05 75.1 56.55 74.55 57.5 L 74.5 57.5 74.5 55.8 71.2 55.8 71.2 66.5 74.5 66.5 74.5 62.05 Q 74.5 61.25 74.6 60.6 74.7 59.9 75 59.45 75.3 58.95 75.85 58.7 76.4 58.45 77.35 58.45 77.7 58.45 78.05 58.5 78.4 58.55 78.75 58.65 L 78.75 55.65 Q 78.5 55.6 78.2 55.55 M 34.25 54.1 L 34.25 50.9 23.65 50.9 23.65 66.5 34.65 66.5 34.65 63.35 27.1 63.35 27.1 60.15 33.85 60.15 33.85 57 27.1 57 27.1 54.1 34.25 54.1 M 40.25 61.15 Q 40.25 60.65 40.35 60.15 40.4 59.7 40.6 59.3 40.8 58.9 41.2 58.7 41.6 58.45 42.25 58.45 42.9 58.45 43.2 58.7 43.55 58.95 43.75 59.4 43.9 59.8 43.95 60.3 43.95 60.8 43.95 61.25 L 43.95 66.5 47.25 66.5 47.25 60.6 Q 47.25 59.55 47.1 58.6 46.95 57.7 46.5 57 46.1 56.3 45.35 55.95 44.55 55.55 43.3 55.55 42.7 55.55 42.2 55.7 41.7 55.85 41.3 56.1 40.9 56.35 40.6 56.65 40.35 56.95 40.2 57.25 L 40.15 57.25 40.15 55.8 36.95 55.8 36.95 66.5 40.25 66.5 40.25 61.15 Z"
         id="path17" />
    </g>
    <path
       id="Layer3_0_1_STROKES"
       stroke="#1D1D1D"
       stroke-width="5"
       stroke-linejoin="round"
       stroke-linecap="round"
       fill="none"
       d=" M 87.95 9.65 Q 92.95 9.65 92.95 14.65 92.4 25.85 92.4 59.3 92.4 71.45 92.95 83.6 92.95 88.6 87.95 88.6 L 13.05 88.6 Q 8.05 88.6 8.05 83.6 9.1 60.3 8.05 36.9 8.05 31.9 13.05 31.9 L 47.7 31.9 Q 51.7 31.75 52.3 28.25 L 52.3 12.85 Q 53.05 9.75 56.8 9.65 L 87.95 9.65 Z" />
    <path
       id="Layer2_0_1_STROKES"
       stroke="#404040"
       stroke-width="5"
       stroke-linejoin="round"
       stroke-linecap="round"
       fill="none"
       d=" M 87.95 9.65 Q 92.95 9.65 92.95 14.65 92.4 25.85 92.4 59.3 92.4 71.45 92.95 83.6 92.95 88.6 87.95 88.6 L 13.05 88.6 Q 8.05 88.6 8.05 83.6 9.1 60.3 8.05 36.9 8.05 31.9 13.05 31.9 L 47.7 31.9 Q 51.7 31.75 52.3 28.25 L 52.3 12.85 Q 53.05 9.75 56.8 9.65 L 87.95 9.65 Z" />
  </defs>
  <g
     transform="matrix( 1, 0, 0, 1, 0,0) "
     id="g28">
    <use
       xlink:href="#Layer3_0_FILL"
       id="use24" />
    <use
       xlink:href="#Layer3_0_1_STROKES"
       id="use26" />
  </g>
  <g
     id="g34"
     style="display:none">
    <use
       xlink:href="#Layer2_0_FILL"
       id="use30" />
    <use
       xlink:href="#Layer2_0_1_STROKES"
       id="use32" />
  </g>
</svg>
