<?xml version="1.0" encoding="UTF-8" standalone="no"?>
<svg
   height="512"
   width="512"
   version="1.1"
   id="svg432"
   sodipodi:docname="round.svg"
   inkscape:version="1.2.1 (9c6d41e410, 2022-07-14)"
   inkscape:export-filename="round.png"
   inkscape:export-xdpi="96"
   inkscape:export-ydpi="96"
   xmlns:inkscape="http://www.inkscape.org/namespaces/inkscape"
   xmlns:sodipodi="http://sodipodi.sourceforge.net/DTD/sodipodi-0.dtd"
   xmlns="http://www.w3.org/2000/svg"
   xmlns:svg="http://www.w3.org/2000/svg">
  <defs
     id="defs436" />
  <sodipodi:namedview
     id="namedview434"
     pagecolor="#ffffff"
     bordercolor="#000000"
     borderopacity="0.25"
     inkscape:showpageshadow="2"
     inkscape:pageopacity="0.0"
     inkscape:pagecheckerboard="true"
     inkscape:deskcolor="#d1d1d1"
     showgrid="false"
     inkscape:zoom="1.234375"
     inkscape:cx="-78.582278"
     inkscape:cy="221.56962"
     inkscape:window-width="2560"
     inkscape:window-height="1351"
     inkscape:window-x="2391"
     inkscape:window-y="-9"
     inkscape:window-maximized="1"
     inkscape:current-layer="svg432" />
  <g
     id="g430"
     transform="scale(19.692308)">
    <path
       d="M 22.15,22.15 Q 18.35,26 13,26 7.65,26 3.8,22.15 0,18.35 0,13 0,7.6 3.8,3.8 7.6,0 13,0 18.35,0 22.15,3.8 26,7.6 26,13 q 0,5.35 -3.85,9.15 m -1.2,-1.25 q 3.3,-3.3 3.3,-7.9 0,-4.65 -3.3,-8 Q 17.65,1.7 13,1.7 8.35,1.7 5.05,5 q -3.3,3.35 -3.3,8 0,4.6 3.3,7.9 3.3,3.3 7.95,3.3 4.6,0 7.95,-3.3 M 19.7,6.25 q 2.8,2.8 2.8,6.75 0,3.95 -2.8,6.65 -2.75,2.8 -6.7,2.8 -3.9,0 -6.7,-2.8 Q 3.5,16.95 3.5,13 3.5,9.05 6.3,6.25 9.1,3.45 13,3.45 q 3.95,0 6.7,2.8"
       fill="#000000"
       fill-opacity="0.6"
       fill-rule="evenodd"
       stroke="none"
       id="path426" />
    <path
       d="M 20.95,20.9 Q 17.6,24.2 13,24.2 8.35,24.2 5.05,20.9 1.75,17.6 1.75,13 1.75,8.35 5.05,5 8.35,1.7 13,1.7 q 4.65,0 7.95,3.3 3.3,3.35 3.3,8 0,4.6 -3.3,7.9 M 19.7,6.25 Q 16.95,3.45 13,3.45 9.1,3.45 6.3,6.25 3.5,9.05 3.5,13 q 0,3.95 2.8,6.65 2.8,2.8 6.7,2.8 3.95,0 6.7,-2.8 2.8,-2.7 2.8,-6.65 0,-3.95 -2.8,-6.75"
       fill="#a6a8ab"
       fill-opacity="0.6"
       fill-rule="evenodd"
       stroke="none"
       id="path428" />
  </g>
</svg>
